<?xml version="1.0" encoding="UTF-8" standalone="no"?>
<!DOCTYPE svg PUBLIC "-//W3C//DTD SVG 1.1//EN"
 "http://www.w3.org/Graphics/SVG/1.1/DTD/svg11.dtd">
<!-- Generated by graphviz version 2.43.0 (0)
 -->
<!-- Title: /home/runner/work/R&#45;Type/R&#45;Type/Shared/network/Action.hpp Pages: 1 -->
<svg width="1542pt" height="533pt"
 viewBox="0.00 0.00 1541.50 533.00" xmlns="http://www.w3.org/2000/svg" xmlns:xlink="http://www.w3.org/1999/xlink">
<g id="graph0" class="graph" transform="scale(1 1) rotate(0) translate(4 529)">
<title>/home/runner/work/R&#45;Type/R&#45;Type/Shared/network/Action.hpp</title>
<!-- Node1 -->
<g id="Node000001" class="node">
<title>Node1</title>
<g id="a_Node000001"><a xlink:title=" ">
<polygon fill="#999999" stroke="#666666" points="810.5,-525 691.5,-525 691.5,-484 810.5,-484 810.5,-525"/>
<text text-anchor="start" x="699.5" y="-513" font-family="Helvetica,sans-Serif" font-size="10.00">/home/runner/work/R</text>
<text text-anchor="start" x="699.5" y="-502" font-family="Helvetica,sans-Serif" font-size="10.00">&#45;Type/R&#45;Type/Shared</text>
<text text-anchor="middle" x="751" y="-491" font-family="Helvetica,sans-Serif" font-size="10.00">/network/Action.hpp</text>
</a>
</g>
</g>
<!-- Node2 -->
<g id="Node000002" class="node">
<title>Node2</title>
<g id="a_Node000002"><a xlink:href="InputSystem_8cpp.html" target="_top" xlink:title=" ">
<polygon fill="white" stroke="#666666" points="680,-277.5 492,-277.5 492,-236.5 680,-236.5 680,-277.5"/>
<text text-anchor="start" x="500" y="-265.5" font-family="Helvetica,sans-Serif" font-size="10.00">/home/runner/work/R</text>
<text text-anchor="start" x="500" y="-254.5" font-family="Helvetica,sans-Serif" font-size="10.00">&#45;Type/R&#45;Type/Client</text>
<text text-anchor="middle" x="586" y="-243.5" font-family="Helvetica,sans-Serif" font-size="10.00">/src/engine/inputs/InputSystem.cpp</text>
</a>
</g>
</g>
<!-- Node1&#45;&gt;Node2 -->
<g id="edge1_Node000001_Node000002" class="edge">
<title>Node1&#45;&gt;Node2</title>
<g id="a_edge1_Node000001_Node000002"><a xlink:title=" ">
<path fill="none" stroke="#63b8ff" d="M732.1,-475.38C698.35,-425.16 628.49,-321.22 599.29,-277.77"/>
<polygon fill="#63b8ff" stroke="#63b8ff" points="729.29,-477.48 737.78,-483.82 735.1,-473.57 729.29,-477.48"/>
</a>
</g>
</g>
<!-- Node3 -->
<g id="Node000003" class="node">
<title>Node3</title>
<g id="a_Node000003"><a xlink:href="NetworkManager_8hpp.html" target="_top" xlink:title=" ">
<polygon fill="white" stroke="#666666" points="826.5,-371 675.5,-371 675.5,-319 826.5,-319 826.5,-371"/>
<text text-anchor="start" x="683.5" y="-359" font-family="Helvetica,sans-Serif" font-size="10.00">/home/runner/work/R</text>
<text text-anchor="start" x="683.5" y="-348" font-family="Helvetica,sans-Serif" font-size="10.00">&#45;Type/R&#45;Type/Client</text>
<text text-anchor="start" x="683.5" y="-337" font-family="Helvetica,sans-Serif" font-size="10.00">/src/engine/network/include</text>
<text text-anchor="middle" x="751" y="-326" font-family="Helvetica,sans-Serif" font-size="10.00">/NetworkManager.hpp</text>
</a>
</g>
</g>
<!-- Node1&#45;&gt;Node3 -->
<g id="edge2_Node000001_Node000003" class="edge">
<title>Node1&#45;&gt;Node3</title>
<g id="a_edge2_Node000001_Node000003"><a xlink:title=" ">
<path fill="none" stroke="#63b8ff" d="M751,-473.69C751,-444.02 751,-398.98 751,-371.08"/>
<polygon fill="#63b8ff" stroke="#63b8ff" points="747.5,-473.87 751,-483.87 754.5,-473.87 747.5,-473.87"/>
</a>
</g>
</g>
<!-- Node16 -->
<g id="Node000016" class="node">
<title>Node16</title>
<g id="a_Node000016"><a xlink:href="Encoder_8hpp.html" target="_top" xlink:title=" ">
<polygon fill="white" stroke="#666666" points="933,-448 811,-448 811,-407 933,-407 933,-448"/>
<text text-anchor="start" x="819" y="-436" font-family="Helvetica,sans-Serif" font-size="10.00">/home/runner/work/R</text>
<text text-anchor="start" x="819" y="-425" font-family="Helvetica,sans-Serif" font-size="10.00">&#45;Type/R&#45;Type/Shared</text>
<text text-anchor="middle" x="872" y="-414" font-family="Helvetica,sans-Serif" font-size="10.00">/network/Encoder.hpp</text>
</a>
</g>
</g>
<!-- Node1&#45;&gt;Node16 -->
<g id="edge29_Node000001_Node000016" class="edge">
<title>Node1&#45;&gt;Node16</title>
<g id="a_edge29_Node000001_Node000016"><a xlink:title=" ">
<path fill="none" stroke="#63b8ff" d="M791.1,-478.64C807.08,-468.74 825.22,-457.5 840.26,-448.17"/>
<polygon fill="#63b8ff" stroke="#63b8ff" points="789.13,-475.75 782.48,-483.99 792.82,-481.7 789.13,-475.75"/>
</a>
</g>
</g>
<!-- Node3&#45;&gt;Node2 -->
<g id="edge15_Node000003_Node000002" class="edge">
<title>Node3&#45;&gt;Node2</title>
<g id="a_edge15_Node000003_Node000002"><a xlink:title=" ">
<path fill="none" stroke="#63b8ff" d="M693.74,-314.16C670.47,-302.03 644.23,-288.35 623.47,-277.53"/>
<polygon fill="#63b8ff" stroke="#63b8ff" points="692.35,-317.38 702.83,-318.89 695.58,-311.17 692.35,-317.38"/>
</a>
</g>
</g>
<!-- Node4 -->
<g id="Node000004" class="node">
<title>Node4</title>
<g id="a_Node000004"><a xlink:href="GameEngine_8hpp.html" target="_top" xlink:title=" ">
<polygon fill="white" stroke="#666666" points="715,-195 559,-195 559,-154 715,-154 715,-195"/>
<text text-anchor="start" x="567" y="-183" font-family="Helvetica,sans-Serif" font-size="10.00">/home/runner/work/R</text>
<text text-anchor="start" x="567" y="-172" font-family="Helvetica,sans-Serif" font-size="10.00">&#45;Type/R&#45;Type/Client</text>
<text text-anchor="middle" x="637" y="-161" font-family="Helvetica,sans-Serif" font-size="10.00">/src/engine/GameEngine.hpp</text>
</a>
</g>
</g>
<!-- Node3&#45;&gt;Node4 -->
<g id="edge3_Node000003_Node000004" class="edge">
<title>Node3&#45;&gt;Node4</title>
<g id="a_edge3_Node000003_Node000004"><a xlink:title=" ">
<path fill="none" stroke="#63b8ff" d="M734.96,-309.59C723.51,-286.49 707.01,-255.84 689,-231 679.78,-218.28 667.89,-205.39 657.81,-195.24"/>
<polygon fill="#63b8ff" stroke="#63b8ff" points="731.86,-311.23 739.39,-318.68 738.15,-308.16 731.86,-311.23"/>
</a>
</g>
</g>
<!-- Node12 -->
<g id="Node000012" class="node">
<title>Node12</title>
<g id="a_Node000012"><a xlink:href="NetworkManager_8cpp.html" target="_top" xlink:title=" ">
<polygon fill="white" stroke="#666666" points="1174.5,-283 1017.5,-283 1017.5,-231 1174.5,-231 1174.5,-283"/>
<text text-anchor="start" x="1025.5" y="-271" font-family="Helvetica,sans-Serif" font-size="10.00">/home/runner/work/R</text>
<text text-anchor="start" x="1025.5" y="-260" font-family="Helvetica,sans-Serif" font-size="10.00">&#45;Type/R&#45;Type/Client</text>
<text text-anchor="start" x="1025.5" y="-249" font-family="Helvetica,sans-Serif" font-size="10.00">/src/engine/network/Network</text>
<text text-anchor="middle" x="1096" y="-238" font-family="Helvetica,sans-Serif" font-size="10.00">Manager.cpp</text>
</a>
</g>
</g>
<!-- Node3&#45;&gt;Node12 -->
<g id="edge16_Node000003_Node000012" class="edge">
<title>Node3&#45;&gt;Node12</title>
<g id="a_edge16_Node000003_Node000012"><a xlink:title=" ">
<path fill="none" stroke="#63b8ff" d="M836.65,-318.61C902.42,-301.32 967.93,-286.14 1017.46,-275.07"/>
<polygon fill="#63b8ff" stroke="#63b8ff" points="835.72,-315.24 826.95,-321.18 837.51,-322 835.72,-315.24"/>
</a>
</g>
</g>
<!-- Node13 -->
<g id="Node000013" class="node">
<title>Node13</title>
<g id="a_Node000013"><a xlink:href="SceneManager_8hpp.html" target="_top" xlink:title=" ">
<polygon fill="white" stroke="#666666" points="933.5,-277.5 736.5,-277.5 736.5,-236.5 933.5,-236.5 933.5,-277.5"/>
<text text-anchor="start" x="744.5" y="-265.5" font-family="Helvetica,sans-Serif" font-size="10.00">/home/runner/work/R</text>
<text text-anchor="start" x="744.5" y="-254.5" font-family="Helvetica,sans-Serif" font-size="10.00">&#45;Type/R&#45;Type/Client</text>
<text text-anchor="middle" x="835" y="-243.5" font-family="Helvetica,sans-Serif" font-size="10.00">/src/engine/scene/SceneManager.hpp</text>
</a>
</g>
</g>
<!-- Node3&#45;&gt;Node13 -->
<g id="edge17_Node000003_Node000013" class="edge">
<title>Node3&#45;&gt;Node13</title>
<g id="a_edge17_Node000003_Node000013"><a xlink:title=" ">
<path fill="none" stroke="#63b8ff" d="M782.85,-311.39C793.93,-300.05 806.01,-287.68 815.76,-277.7"/>
<polygon fill="#63b8ff" stroke="#63b8ff" points="780.23,-309.06 775.75,-318.66 785.24,-313.95 780.23,-309.06"/>
</a>
</g>
</g>
<!-- Node5 -->
<g id="Node000005" class="node">
<title>Node5</title>
<g id="a_Node000005"><a xlink:href="Main_8cpp.html" target="_top" xlink:title=" ">
<polygon fill="white" stroke="#666666" points="949.5,-41 830.5,-41 830.5,0 949.5,0 949.5,-41"/>
<text text-anchor="start" x="838.5" y="-29" font-family="Helvetica,sans-Serif" font-size="10.00">/home/runner/work/R</text>
<text text-anchor="start" x="838.5" y="-18" font-family="Helvetica,sans-Serif" font-size="10.00">&#45;Type/R&#45;Type/Client</text>
<text text-anchor="middle" x="890" y="-7" font-family="Helvetica,sans-Serif" font-size="10.00">/src/Main.cpp</text>
</a>
</g>
</g>
<!-- Node4&#45;&gt;Node5 -->
<g id="edge4_Node000004_Node000005" class="edge">
<title>Node4&#45;&gt;Node5</title>
<g id="a_edge4_Node000004_Node000005"><a xlink:title=" ">
<path fill="none" stroke="#63b8ff" d="M548.9,-164.04C469.86,-152.14 372.61,-126.91 417,-77 444.03,-46.61 708.9,-30.15 830.06,-24.16"/>
<polygon fill="#63b8ff" stroke="#63b8ff" points="548.53,-167.52 558.93,-165.49 549.54,-160.59 548.53,-167.52"/>
</a>
</g>
</g>
<!-- Node6 -->
<g id="Node000006" class="node">
<title>Node6</title>
<g id="a_Node000006"><a xlink:href="GameEngine_8cpp.html" target="_top" xlink:title=" ">
<polygon fill="white" stroke="#666666" points="369.5,-118 214.5,-118 214.5,-77 369.5,-77 369.5,-118"/>
<text text-anchor="start" x="222.5" y="-106" font-family="Helvetica,sans-Serif" font-size="10.00">/home/runner/work/R</text>
<text text-anchor="start" x="222.5" y="-95" font-family="Helvetica,sans-Serif" font-size="10.00">&#45;Type/R&#45;Type/Client</text>
<text text-anchor="middle" x="292" y="-84" font-family="Helvetica,sans-Serif" font-size="10.00">/src/engine/GameEngine.cpp</text>
</a>
</g>
</g>
<!-- Node4&#45;&gt;Node6 -->
<g id="edge5_Node000004_Node000006" class="edge">
<title>Node4&#45;&gt;Node6</title>
<g id="a_edge5_Node000004_Node000006"><a xlink:title=" ">
<path fill="none" stroke="#63b8ff" d="M548.92,-154.35C493.6,-142.33 422.9,-126.96 369.68,-115.39"/>
<polygon fill="#63b8ff" stroke="#63b8ff" points="548.2,-157.78 558.71,-156.48 549.69,-150.94 548.2,-157.78"/>
</a>
</g>
</g>
<!-- Node7 -->
<g id="Node000007" class="node">
<title>Node7</title>
<g id="a_Node000007"><a xlink:href="SceneManager_8cpp.html" target="_top" xlink:title=" ">
<polygon fill="white" stroke="#666666" points="196,-118 0,-118 0,-77 196,-77 196,-118"/>
<text text-anchor="start" x="8" y="-106" font-family="Helvetica,sans-Serif" font-size="10.00">/home/runner/work/R</text>
<text text-anchor="start" x="8" y="-95" font-family="Helvetica,sans-Serif" font-size="10.00">&#45;Type/R&#45;Type/Client</text>
<text text-anchor="middle" x="98" y="-84" font-family="Helvetica,sans-Serif" font-size="10.00">/src/engine/scene/SceneManager.cpp</text>
</a>
</g>
</g>
<!-- Node4&#45;&gt;Node7 -->
<g id="edge6_Node000004_Node000007" class="edge">
<title>Node4&#45;&gt;Node7</title>
<g id="a_edge6_Node000004_Node000007"><a xlink:title=" ">
<path fill="none" stroke="#63b8ff" d="M548.64,-163.52C461.19,-153.33 323.59,-136.41 205,-118 202.11,-117.55 199.17,-117.08 196.21,-116.61"/>
<polygon fill="#63b8ff" stroke="#63b8ff" points="548.45,-167.02 558.78,-164.7 549.25,-160.07 548.45,-167.02"/>
</a>
</g>
</g>
<!-- Node8 -->
<g id="Node000008" class="node">
<title>Node8</title>
<g id="a_Node000008"><a xlink:href="JoinGame_8hpp.html" target="_top" xlink:title=" ">
<polygon fill="white" stroke="#666666" points="880,-118 738,-118 738,-77 880,-77 880,-118"/>
<text text-anchor="start" x="746" y="-106" font-family="Helvetica,sans-Serif" font-size="10.00">/home/runner/work/R</text>
<text text-anchor="start" x="746" y="-95" font-family="Helvetica,sans-Serif" font-size="10.00">&#45;Type/R&#45;Type/Client</text>
<text text-anchor="middle" x="809" y="-84" font-family="Helvetica,sans-Serif" font-size="10.00">/src/scenes/JoinGame.hpp</text>
</a>
</g>
</g>
<!-- Node4&#45;&gt;Node8 -->
<g id="edge7_Node000004_Node000008" class="edge">
<title>Node4&#45;&gt;Node8</title>
<g id="a_edge7_Node000004_Node000008"><a xlink:title=" ">
<path fill="none" stroke="#63b8ff" d="M691.22,-149.86C714.7,-139.62 741.86,-127.77 764.18,-118.04"/>
<polygon fill="#63b8ff" stroke="#63b8ff" points="689.51,-146.79 681.74,-153.99 692.31,-153.2 689.51,-146.79"/>
</a>
</g>
</g>
<!-- Node9 -->
<g id="Node000009" class="node">
<title>Node9</title>
<g id="a_Node000009"><a xlink:href="MainMenu_8hpp.html" target="_top" xlink:title=" ">
<polygon fill="white" stroke="#666666" points="1044,-118 898,-118 898,-77 1044,-77 1044,-118"/>
<text text-anchor="start" x="906" y="-106" font-family="Helvetica,sans-Serif" font-size="10.00">/home/runner/work/R</text>
<text text-anchor="start" x="906" y="-95" font-family="Helvetica,sans-Serif" font-size="10.00">&#45;Type/R&#45;Type/Client</text>
<text text-anchor="middle" x="971" y="-84" font-family="Helvetica,sans-Serif" font-size="10.00">/src/scenes/MainMenu.hpp</text>
</a>
</g>
</g>
<!-- Node4&#45;&gt;Node9 -->
<g id="edge9_Node000004_Node000009" class="edge">
<title>Node4&#45;&gt;Node9</title>
<g id="a_edge9_Node000004_Node000009"><a xlink:title=" ">
<path fill="none" stroke="#63b8ff" d="M724.94,-154.51C773.39,-143.95 834.56,-130.47 889,-118 891.85,-117.35 894.76,-116.68 897.7,-116"/>
<polygon fill="#63b8ff" stroke="#63b8ff" points="724.14,-151.1 715.12,-156.65 725.63,-157.94 724.14,-151.1"/>
</a>
</g>
</g>
<!-- Node10 -->
<g id="Node000010" class="node">
<title>Node10</title>
<g id="a_Node000010"><a xlink:href="Options_8hpp.html" target="_top" xlink:title=" ">
<polygon fill="white" stroke="#666666" points="558,-118 426,-118 426,-77 558,-77 558,-118"/>
<text text-anchor="start" x="434" y="-106" font-family="Helvetica,sans-Serif" font-size="10.00">/home/runner/work/R</text>
<text text-anchor="start" x="434" y="-95" font-family="Helvetica,sans-Serif" font-size="10.00">&#45;Type/R&#45;Type/Client</text>
<text text-anchor="middle" x="492" y="-84" font-family="Helvetica,sans-Serif" font-size="10.00">/src/scenes/Options.hpp</text>
</a>
</g>
</g>
<!-- Node4&#45;&gt;Node10 -->
<g id="edge11_Node000004_Node000010" class="edge">
<title>Node4&#45;&gt;Node10</title>
<g id="a_edge11_Node000004_Node000010"><a xlink:title=" ">
<path fill="none" stroke="#63b8ff" d="M590.24,-149.31C570.68,-139.2 548.26,-127.6 529.78,-118.04"/>
<polygon fill="#63b8ff" stroke="#63b8ff" points="588.79,-152.5 599.28,-153.99 592.01,-146.29 588.79,-152.5"/>
</a>
</g>
</g>
<!-- Node11 -->
<g id="Node000011" class="node">
<title>Node11</title>
<g id="a_Node000011"><a xlink:href="WaitLobby_8hpp.html" target="_top" xlink:title=" ">
<polygon fill="white" stroke="#666666" points="720,-118 576,-118 576,-77 720,-77 720,-118"/>
<text text-anchor="start" x="584" y="-106" font-family="Helvetica,sans-Serif" font-size="10.00">/home/runner/work/R</text>
<text text-anchor="start" x="584" y="-95" font-family="Helvetica,sans-Serif" font-size="10.00">&#45;Type/R&#45;Type/Client</text>
<text text-anchor="middle" x="648" y="-84" font-family="Helvetica,sans-Serif" font-size="10.00">/src/scenes/WaitLobby.hpp</text>
</a>
</g>
</g>
<!-- Node4&#45;&gt;Node11 -->
<g id="edge13_Node000004_Node000011" class="edge">
<title>Node4&#45;&gt;Node11</title>
<g id="a_edge13_Node000004_Node000011"><a xlink:title=" ">
<path fill="none" stroke="#63b8ff" d="M641.37,-143.69C642.64,-135.08 643.98,-125.9 645.13,-118.07"/>
<polygon fill="#63b8ff" stroke="#63b8ff" points="637.88,-143.39 639.89,-153.79 644.8,-144.41 637.88,-143.39"/>
</a>
</g>
</g>
<!-- Node8&#45;&gt;Node5 -->
<g id="edge8_Node000008_Node000005" class="edge">
<title>Node8&#45;&gt;Node5</title>
<g id="a_edge8_Node000008_Node000005"><a xlink:title=" ">
<path fill="none" stroke="#63b8ff" d="M837.85,-69.79C848.08,-60.32 859.39,-49.84 868.86,-41.07"/>
<polygon fill="#63b8ff" stroke="#63b8ff" points="835.24,-67.43 830.28,-76.79 840,-72.57 835.24,-67.43"/>
</a>
</g>
</g>
<!-- Node9&#45;&gt;Node5 -->
<g id="edge10_Node000009_Node000005" class="edge">
<title>Node9&#45;&gt;Node5</title>
<g id="a_edge10_Node000009_Node000005"><a xlink:title=" ">
<path fill="none" stroke="#63b8ff" d="M942.15,-69.79C931.92,-60.32 920.61,-49.84 911.14,-41.07"/>
<polygon fill="#63b8ff" stroke="#63b8ff" points="940,-72.57 949.72,-76.79 944.76,-67.43 940,-72.57"/>
</a>
</g>
</g>
<!-- Node10&#45;&gt;Node5 -->
<g id="edge12_Node000010_Node000005" class="edge">
<title>Node10&#45;&gt;Node5</title>
<g id="a_edge12_Node000010_Node000005"><a xlink:title=" ">
<path fill="none" stroke="#63b8ff" d="M568.18,-76.83C665.42,-56.17 767.61,-39.71 830.48,-30.19"/>
<polygon fill="#63b8ff" stroke="#63b8ff" points="567.23,-73.45 558.18,-78.97 568.69,-80.3 567.23,-73.45"/>
</a>
</g>
</g>
<!-- Node11&#45;&gt;Node5 -->
<g id="edge14_Node000011_Node000005" class="edge">
<title>Node11&#45;&gt;Node5</title>
<g id="a_edge14_Node000011_Node000005"><a xlink:title=" ">
<path fill="none" stroke="#63b8ff" d="M720.64,-73.99C755.66,-63.14 797.14,-50.28 830.28,-40.01"/>
<polygon fill="#63b8ff" stroke="#63b8ff" points="719.47,-70.69 710.95,-76.99 721.54,-77.37 719.47,-70.69"/>
</a>
</g>
</g>
<!-- Node13&#45;&gt;Node4 -->
<g id="edge19_Node000013_Node000004" class="edge">
<title>Node13&#45;&gt;Node4</title>
<g id="a_edge19_Node000013_Node000004"><a xlink:title=" ">
<path fill="none" stroke="#63b8ff" d="M777.52,-232.63C748.19,-220.71 712.92,-206.37 685.06,-195.04"/>
<polygon fill="#63b8ff" stroke="#63b8ff" points="776.24,-235.89 786.82,-236.41 778.87,-229.4 776.24,-235.89"/>
</a>
</g>
</g>
<!-- Node13&#45;&gt;Node5 -->
<g id="edge18_Node000013_Node000005" class="edge">
<title>Node13&#45;&gt;Node5</title>
<g id="a_edge18_Node000013_Node000005"><a xlink:title=" ">
<path fill="none" stroke="#63b8ff" d="M856.13,-227.81C878.19,-198.51 910.13,-156.55 914,-154 967.29,-118.89 1013.94,-168.47 1053,-118 1064.15,-103.59 1063.61,-91.82 1053,-77 1029.68,-44.43 986.12,-30.75 949.89,-25.11"/>
<polygon fill="#63b8ff" stroke="#63b8ff" points="853.13,-225.97 849.92,-236.06 858.73,-230.17 853.13,-225.97"/>
</a>
</g>
</g>
<!-- Node13&#45;&gt;Node7 -->
<g id="edge20_Node000013_Node000007" class="edge">
<title>Node13&#45;&gt;Node7</title>
<g id="a_edge20_Node000013_Node000007"><a xlink:title=" ">
<path fill="none" stroke="#63b8ff" d="M733.35,-234.28C589.22,-203.48 327.66,-147.58 189.37,-118.03"/>
<polygon fill="#63b8ff" stroke="#63b8ff" points="733.01,-237.78 743.52,-236.45 734.47,-230.94 733.01,-237.78"/>
</a>
</g>
</g>
<!-- Node13&#45;&gt;Node8 -->
<g id="edge23_Node000013_Node000008" class="edge">
<title>Node13&#45;&gt;Node8</title>
<g id="a_edge23_Node000013_Node000008"><a xlink:title=" ">
<path fill="none" stroke="#63b8ff" d="M830.11,-226.39C824.9,-194.79 816.78,-145.63 812.28,-118.38"/>
<polygon fill="#63b8ff" stroke="#63b8ff" points="826.68,-227.07 831.76,-236.37 833.58,-225.93 826.68,-227.07"/>
</a>
</g>
</g>
<!-- Node13&#45;&gt;Node9 -->
<g id="edge26_Node000013_Node000009" class="edge">
<title>Node13&#45;&gt;Node9</title>
<g id="a_edge26_Node000013_Node000009"><a xlink:title=" ">
<path fill="none" stroke="#63b8ff" d="M843.08,-226.66C850.26,-204.73 862.51,-175.04 881,-154 893.97,-139.25 911.82,-127.13 928.2,-118.02"/>
<polygon fill="#63b8ff" stroke="#63b8ff" points="839.67,-225.84 840.05,-236.42 846.36,-227.91 839.67,-225.84"/>
</a>
</g>
</g>
<!-- Node13&#45;&gt;Node10 -->
<g id="edge27_Node000013_Node000010" class="edge">
<title>Node13&#45;&gt;Node10</title>
<g id="a_edge27_Node000013_Node000010"><a xlink:title=" ">
<path fill="none" stroke="#63b8ff" d="M798.43,-230.15C784.85,-219.86 769.67,-207.49 757,-195 740.34,-178.58 743.83,-166.41 724,-154 663.32,-116.02 636.54,-135.01 567,-118 564.12,-117.3 561.19,-116.57 558.23,-115.83"/>
<polygon fill="#63b8ff" stroke="#63b8ff" points="796.54,-233.11 806.65,-236.28 800.72,-227.5 796.54,-233.11"/>
</a>
</g>
</g>
<!-- Node13&#45;&gt;Node11 -->
<g id="edge28_Node000013_Node000011" class="edge">
<title>Node13&#45;&gt;Node11</title>
<g id="a_edge28_Node000013_Node000011"><a xlink:title=" ">
<path fill="none" stroke="#63b8ff" d="M818.25,-227.58C804.1,-205.4 782.14,-174.94 757,-154 739.46,-139.39 717.43,-127.26 697.77,-118.11"/>
<polygon fill="#63b8ff" stroke="#63b8ff" points="815.38,-229.59 823.65,-236.23 821.32,-225.89 815.38,-229.59"/>
</a>
</g>
</g>
<!-- Node14 -->
<g id="Node000014" class="node">
<title>Node14</title>
<g id="a_Node000014"><a xlink:href="GameOver_8hpp.html" target="_top" xlink:title=" ">
<polygon fill="white" stroke="#666666" points="1069,-195 923,-195 923,-154 1069,-154 1069,-195"/>
<text text-anchor="start" x="931" y="-183" font-family="Helvetica,sans-Serif" font-size="10.00">/home/runner/work/R</text>
<text text-anchor="start" x="931" y="-172" font-family="Helvetica,sans-Serif" font-size="10.00">&#45;Type/R&#45;Type/Client</text>
<text text-anchor="middle" x="996" y="-161" font-family="Helvetica,sans-Serif" font-size="10.00">/src/scenes/GameOver.hpp</text>
</a>
</g>
</g>
<!-- Node13&#45;&gt;Node14 -->
<g id="edge21_Node000013_Node000014" class="edge">
<title>Node13&#45;&gt;Node14</title>
<g id="a_edge21_Node000013_Node000014"><a xlink:title=" ">
<path fill="none" stroke="#63b8ff" d="M883.46,-231.77C906.9,-220.05 934.66,-206.17 956.74,-195.13"/>
<polygon fill="#63b8ff" stroke="#63b8ff" points="881.76,-228.7 874.39,-236.31 884.89,-234.97 881.76,-228.7"/>
</a>
</g>
</g>
<!-- Node15 -->
<g id="Node000015" class="node">
<title>Node15</title>
<g id="a_Node000015"><a xlink:href="MainGame_8hpp.html" target="_top" xlink:title=" ">
<polygon fill="white" stroke="#666666" points="1235,-195 1087,-195 1087,-154 1235,-154 1235,-195"/>
<text text-anchor="start" x="1095" y="-183" font-family="Helvetica,sans-Serif" font-size="10.00">/home/runner/work/R</text>
<text text-anchor="start" x="1095" y="-172" font-family="Helvetica,sans-Serif" font-size="10.00">&#45;Type/R&#45;Type/Client</text>
<text text-anchor="middle" x="1161" y="-161" font-family="Helvetica,sans-Serif" font-size="10.00">/src/scenes/MainGame.hpp</text>
</a>
</g>
</g>
<!-- Node13&#45;&gt;Node15 -->
<g id="edge24_Node000013_Node000015" class="edge">
<title>Node13&#45;&gt;Node15</title>
<g id="a_edge24_Node000013_Node000015"><a xlink:title=" ">
<path fill="none" stroke="#63b8ff" d="M924.05,-234.01C975.15,-221.39 1038.55,-205.74 1086.91,-193.79"/>
<polygon fill="#63b8ff" stroke="#63b8ff" points="923.2,-230.62 914.33,-236.41 924.88,-237.41 923.2,-230.62"/>
</a>
</g>
</g>
<!-- Node14&#45;&gt;Node5 -->
<g id="edge22_Node000014_Node000005" class="edge">
<title>Node14&#45;&gt;Node5</title>
<g id="a_edge22_Node000014_Node000005"><a xlink:title=" ">
<path fill="none" stroke="#63b8ff" d="M1055.88,-148.47C1067.92,-140.55 1079.02,-130.51 1086,-118 1094.88,-102.09 1096.99,-91.53 1086,-77 1069.47,-55.14 1001.1,-39.4 949.73,-30.39"/>
<polygon fill="#63b8ff" stroke="#63b8ff" points="1053.72,-145.68 1046.98,-153.86 1057.35,-151.67 1053.72,-145.68"/>
</a>
</g>
</g>
<!-- Node15&#45;&gt;Node5 -->
<g id="edge25_Node000015_Node000005" class="edge">
<title>Node15&#45;&gt;Node5</title>
<g id="a_edge25_Node000015_Node000005"><a xlink:title=" ">
<path fill="none" stroke="#63b8ff" d="M1150.51,-144.3C1141.25,-122.61 1125.67,-93.96 1103,-77 1058.48,-43.69 995.76,-30.32 949.91,-24.98"/>
<polygon fill="#63b8ff" stroke="#63b8ff" points="1147.32,-145.76 1154.32,-153.71 1153.81,-143.13 1147.32,-145.76"/>
</a>
</g>
</g>
<!-- Node16&#45;&gt;Node3 -->
<g id="edge30_Node000016_Node000003" class="edge">
<title>Node16&#45;&gt;Node3</title>
<g id="a_edge30_Node000016_Node000003"><a xlink:title=" ">
<path fill="none" stroke="#63b8ff" d="M833.78,-401.08C819.49,-391.57 803.27,-380.77 788.99,-371.28"/>
<polygon fill="#63b8ff" stroke="#63b8ff" points="832.14,-404.18 842.4,-406.81 836.01,-398.35 832.14,-404.18"/>
</a>
</g>
</g>
<!-- Node17 -->
<g id="Node000017" class="node">
<title>Node17</title>
<g id="a_Node000017"><a xlink:href="Encode_8cpp.html" target="_top" xlink:title=" ">
<polygon fill="white" stroke="#666666" points="963.5,-365.5 844.5,-365.5 844.5,-324.5 963.5,-324.5 963.5,-365.5"/>
<text text-anchor="start" x="852.5" y="-353.5" font-family="Helvetica,sans-Serif" font-size="10.00">/home/runner/work/R</text>
<text text-anchor="start" x="852.5" y="-342.5" font-family="Helvetica,sans-Serif" font-size="10.00">&#45;Type/R&#45;Type/Shared</text>
<text text-anchor="middle" x="904" y="-331.5" font-family="Helvetica,sans-Serif" font-size="10.00">/network/Encode.cpp</text>
</a>
</g>
</g>
<!-- Node16&#45;&gt;Node17 -->
<g id="edge31_Node000016_Node000017" class="edge">
<title>Node16&#45;&gt;Node17</title>
<g id="a_edge31_Node000016_Node000017"><a xlink:title=" ">
<path fill="none" stroke="#63b8ff" d="M883.72,-397.01C887.87,-386.57 892.44,-375.09 896.18,-365.67"/>
<polygon fill="#63b8ff" stroke="#63b8ff" points="880.35,-396.02 879.91,-406.6 886.86,-398.6 880.35,-396.02"/>
</a>
</g>
</g>
<!-- Node18 -->
<g id="Node000018" class="node">
<title>Node18</title>
<g id="a_Node000018"><a xlink:href="EncodeFunc_8hpp.html" target="_top" xlink:title=" ">
<polygon fill="white" stroke="#666666" points="1266.5,-365.5 1125.5,-365.5 1125.5,-324.5 1266.5,-324.5 1266.5,-365.5"/>
<text text-anchor="start" x="1133.5" y="-353.5" font-family="Helvetica,sans-Serif" font-size="10.00">/home/runner/work/R</text>
<text text-anchor="start" x="1133.5" y="-342.5" font-family="Helvetica,sans-Serif" font-size="10.00">&#45;Type/R&#45;Type/Shared</text>
<text text-anchor="middle" x="1196" y="-331.5" font-family="Helvetica,sans-Serif" font-size="10.00">/network/EncodeFunc.hpp</text>
</a>
</g>
</g>
<!-- Node16&#45;&gt;Node18 -->
<g id="edge32_Node000016_Node000018" class="edge">
<title>Node16&#45;&gt;Node18</title>
<g id="a_edge32_Node000016_Node000018"><a xlink:title=" ">
<path fill="none" stroke="#63b8ff" d="M943.18,-408.81C997.29,-395.37 1071.37,-376.97 1125.35,-363.55"/>
<polygon fill="#63b8ff" stroke="#63b8ff" points="942.18,-405.46 933.32,-411.26 943.87,-412.25 942.18,-405.46"/>
</a>
</g>
</g>
<!-- Node18&#45;&gt;Node12 -->
<g id="edge33_Node000018_Node000012" class="edge">
<title>Node18&#45;&gt;Node12</title>
<g id="a_edge33_Node000018_Node000012"><a xlink:title=" ">
<path fill="none" stroke="#63b8ff" d="M1165.66,-317.91C1152.9,-306.93 1138.1,-294.21 1125.44,-283.32"/>
<polygon fill="#63b8ff" stroke="#63b8ff" points="1163.44,-320.62 1173.31,-324.49 1168.01,-315.31 1163.44,-320.62"/>
</a>
</g>
</g>
<!-- Node19 -->
<g id="Node000019" class="node">
<title>Node19</title>
<g id="a_Node000019"><a xlink:href="ServerGame_8hpp.html" target="_top" xlink:title=" ">
<polygon fill="white" stroke="#666666" points="1366,-277.5 1226,-277.5 1226,-236.5 1366,-236.5 1366,-277.5"/>
<text text-anchor="start" x="1234" y="-265.5" font-family="Helvetica,sans-Serif" font-size="10.00">/home/runner/work/R</text>
<text text-anchor="start" x="1234" y="-254.5" font-family="Helvetica,sans-Serif" font-size="10.00">&#45;Type/R&#45;Type/Server</text>
<text text-anchor="middle" x="1296" y="-243.5" font-family="Helvetica,sans-Serif" font-size="10.00">/include/ServerGame.hpp</text>
</a>
</g>
</g>
<!-- Node18&#45;&gt;Node19 -->
<g id="edge34_Node000018_Node000019" class="edge">
<title>Node18&#45;&gt;Node19</title>
<g id="a_edge34_Node000018_Node000019"><a xlink:title=" ">
<path fill="none" stroke="#63b8ff" d="M1226.67,-317.62C1241.62,-304.77 1259.29,-289.57 1273.05,-277.74"/>
<polygon fill="#63b8ff" stroke="#63b8ff" points="1223.99,-315.31 1218.69,-324.49 1228.56,-320.62 1223.99,-315.31"/>
</a>
</g>
</g>
<!-- Node22 -->
<g id="Node000022" class="node">
<title>Node22</title>
<g id="a_Node000022"><a xlink:href="TCPServer_8cpp.html" target="_top" xlink:title=" ">
<polygon fill="white" stroke="#666666" points="1533.5,-277.5 1384.5,-277.5 1384.5,-236.5 1533.5,-236.5 1533.5,-277.5"/>
<text text-anchor="start" x="1392.5" y="-265.5" font-family="Helvetica,sans-Serif" font-size="10.00">/home/runner/work/R</text>
<text text-anchor="start" x="1392.5" y="-254.5" font-family="Helvetica,sans-Serif" font-size="10.00">&#45;Type/R&#45;Type/Server</text>
<text text-anchor="middle" x="1459" y="-243.5" font-family="Helvetica,sans-Serif" font-size="10.00">/src/network/TCPServer.cpp</text>
</a>
</g>
</g>
<!-- Node18&#45;&gt;Node22 -->
<g id="edge37_Node000018_Node000022" class="edge">
<title>Node18&#45;&gt;Node22</title>
<g id="a_edge37_Node000018_Node000022"><a xlink:title=" ">
<path fill="none" stroke="#63b8ff" d="M1265.2,-321.37C1306.82,-307.76 1359.27,-290.61 1399.1,-277.59"/>
<polygon fill="#63b8ff" stroke="#63b8ff" points="1264.1,-318.05 1255.68,-324.49 1266.27,-324.7 1264.1,-318.05"/>
</a>
</g>
</g>
<!-- Node20 -->
<g id="Node000020" class="node">
<title>Node20</title>
<g id="a_Node000020"><a xlink:href="ServerGame_8cpp.html" target="_top" xlink:title=" ">
<polygon fill="white" stroke="#666666" points="1509.5,-195 1390.5,-195 1390.5,-154 1509.5,-154 1509.5,-195"/>
<text text-anchor="start" x="1398.5" y="-183" font-family="Helvetica,sans-Serif" font-size="10.00">/home/runner/work/R</text>
<text text-anchor="start" x="1398.5" y="-172" font-family="Helvetica,sans-Serif" font-size="10.00">&#45;Type/R&#45;Type/Server</text>
<text text-anchor="middle" x="1450" y="-161" font-family="Helvetica,sans-Serif" font-size="10.00">/src/ServerGame.cpp</text>
</a>
</g>
</g>
<!-- Node19&#45;&gt;Node20 -->
<g id="edge35_Node000019_Node000020" class="edge">
<title>Node19&#45;&gt;Node20</title>
<g id="a_edge35_Node000019_Node000020"><a xlink:title=" ">
<path fill="none" stroke="#63b8ff" d="M1342.66,-231.61C1365.01,-219.93 1391.42,-206.12 1412.45,-195.13"/>
<polygon fill="#63b8ff" stroke="#63b8ff" points="1340.91,-228.57 1333.67,-236.31 1344.16,-234.78 1340.91,-228.57"/>
</a>
</g>
</g>
<!-- Node21 -->
<g id="Node000021" class="node">
<title>Node21</title>
<g id="a_Node000021"><a xlink:href="main_8cpp.html" target="_top" xlink:title=" ">
<polygon fill="white" stroke="#666666" points="1372.5,-195 1253.5,-195 1253.5,-154 1372.5,-154 1372.5,-195"/>
<text text-anchor="start" x="1261.5" y="-183" font-family="Helvetica,sans-Serif" font-size="10.00">/home/runner/work/R</text>
<text text-anchor="start" x="1261.5" y="-172" font-family="Helvetica,sans-Serif" font-size="10.00">&#45;Type/R&#45;Type/Server</text>
<text text-anchor="middle" x="1313" y="-161" font-family="Helvetica,sans-Serif" font-size="10.00">/src/main.cpp</text>
</a>
</g>
</g>
<!-- Node19&#45;&gt;Node21 -->
<g id="edge36_Node000019_Node000021" class="edge">
<title>Node19&#45;&gt;Node21</title>
<g id="a_edge36_Node000019_Node000021"><a xlink:title=" ">
<path fill="none" stroke="#63b8ff" d="M1302.3,-226.19C1304.48,-215.84 1306.88,-204.5 1308.85,-195.17"/>
<polygon fill="#63b8ff" stroke="#63b8ff" points="1298.84,-225.59 1300.2,-236.1 1305.69,-227.04 1298.84,-225.59"/>
</a>
</g>
</g>
</g>
</svg>
