<?xml version="1.0" encoding="UTF-8" standalone="no"?>
<!DOCTYPE svg PUBLIC "-//W3C//DTD SVG 1.1//EN"
 "http://www.w3.org/Graphics/SVG/1.1/DTD/svg11.dtd">
<!-- Generated by graphviz version 2.43.0 (0)
 -->
<!-- Title: /home/runner/work/R&#45;Type/R&#45;Type/Client/src/engine/graphics/AnimationManager.cpp Pages: 1 -->
<svg width="374pt" height="170pt"
 viewBox="0.00 0.00 374.00 170.00" xmlns="http://www.w3.org/2000/svg" xmlns:xlink="http://www.w3.org/1999/xlink">
<g id="graph0" class="graph" transform="scale(1 1) rotate(0) translate(4 166)">
<title>/home/runner/work/R&#45;Type/R&#45;Type/Client/src/engine/graphics/AnimationManager.cpp</title>
<!-- Node1 -->
<g id="Node000001" class="node">
<title>Node1</title>
<g id="a_Node000001"><a xlink:title=" ">
<polygon fill="#999999" stroke="#666666" points="286,-162 154,-162 154,-110 286,-110 286,-162"/>
<text text-anchor="start" x="162" y="-150" font-family="Helvetica,sans-Serif" font-size="10.00">/home/runner/work/R</text>
<text text-anchor="start" x="162" y="-139" font-family="Helvetica,sans-Serif" font-size="10.00">&#45;Type/R&#45;Type/Client</text>
<text text-anchor="start" x="162" y="-128" font-family="Helvetica,sans-Serif" font-size="10.00">/src/engine/graphics</text>
<text text-anchor="middle" x="220" y="-117" font-family="Helvetica,sans-Serif" font-size="10.00">/AnimationManager.cpp</text>
</a>
</g>
</g>
<!-- Node2 -->
<g id="Node000002" class="node">
<title>Node2</title>
<g id="a_Node000002"><a xlink:href="AnimationManager_8hpp.html" target="_top" xlink:title=" ">
<polygon fill="white" stroke="#666666" points="250,-74 76,-74 76,-55 250,-55 250,-74"/>
<text text-anchor="middle" x="163" y="-62" font-family="Helvetica,sans-Serif" font-size="10.00">graphics/AnimationManager.hpp</text>
</a>
</g>
</g>
<!-- Node1&#45;&gt;Node2 -->
<g id="edge1_Node000001_Node000002" class="edge">
<title>Node1&#45;&gt;Node2</title>
<g id="a_edge1_Node000001_Node000002"><a xlink:title=" ">
<path fill="none" stroke="#63b8ff" d="M199.42,-109.91C191.85,-100.67 183.46,-90.45 176.65,-82.14"/>
<polygon fill="#63b8ff" stroke="#63b8ff" points="179.27,-79.81 170.22,-74.3 173.85,-84.25 179.27,-79.81"/>
</a>
</g>
</g>
<!-- Node4 -->
<g id="Node000004" class="node">
<title>Node4</title>
<g id="a_Node000004"><a xlink:title=" ">
<polygon fill="#e0e0e0" stroke="#999999" points="44,-19 0,-19 0,0 44,0 44,-19"/>
<text text-anchor="middle" x="22" y="-7" font-family="Helvetica,sans-Serif" font-size="10.00">string</text>
</a>
</g>
</g>
<!-- Node1&#45;&gt;Node4 -->
<g id="edge7_Node000001_Node000004" class="edge">
<title>Node1&#45;&gt;Node4</title>
<g id="a_edge7_Node000001_Node000004"><a xlink:title=" ">
<path fill="none" stroke="#63b8ff" d="M153.88,-117.87C125.18,-108.21 92.39,-93.99 67,-74 51.28,-61.63 38.69,-42.32 30.87,-28.25"/>
<polygon fill="#63b8ff" stroke="#63b8ff" points="33.8,-26.31 26.04,-19.09 27.61,-29.57 33.8,-26.31"/>
</a>
</g>
</g>
<!-- Node6 -->
<g id="Node000006" class="node">
<title>Node6</title>
<g id="a_Node000006"><a xlink:title=" ">
<polygon fill="#e0e0e0" stroke="#999999" points="310.5,-19 263.5,-19 263.5,0 310.5,0 310.5,-19"/>
<text text-anchor="middle" x="287" y="-7" font-family="Helvetica,sans-Serif" font-size="10.00">vector</text>
</a>
</g>
</g>
<!-- Node1&#45;&gt;Node6 -->
<g id="edge8_Node000001_Node000006" class="edge">
<title>Node1&#45;&gt;Node6</title>
<g id="a_edge8_Node000001_Node000006"><a xlink:title=" ">
<path fill="none" stroke="#63b8ff" d="M237.21,-110C244.35,-99.16 252.47,-86.19 259,-74 266.92,-59.23 274.49,-41.77 279.77,-28.9"/>
<polygon fill="#63b8ff" stroke="#63b8ff" points="283.13,-29.91 283.61,-19.33 276.63,-27.3 283.13,-29.91"/>
</a>
</g>
</g>
<!-- Node7 -->
<g id="Node000007" class="node">
<title>Node7</title>
<g id="a_Node000007"><a xlink:title=" ">
<polygon fill="#e0e0e0" stroke="#999999" points="366,-74 306,-74 306,-55 366,-55 366,-74"/>
<text text-anchor="middle" x="336" y="-62" font-family="Helvetica,sans-Serif" font-size="10.00">iostream</text>
</a>
</g>
</g>
<!-- Node1&#45;&gt;Node7 -->
<g id="edge6_Node000001_Node000007" class="edge">
<title>Node1&#45;&gt;Node7</title>
<g id="a_edge6_Node000001_Node000007"><a xlink:title=" ">
<path fill="none" stroke="#63b8ff" d="M261.88,-109.91C279.02,-99.64 298.2,-88.15 312.76,-79.43"/>
<polygon fill="#63b8ff" stroke="#63b8ff" points="314.81,-82.28 321.59,-74.14 311.21,-76.27 314.81,-82.28"/>
</a>
</g>
</g>
<!-- Node3 -->
<g id="Node000003" class="node">
<title>Node3</title>
<g id="a_Node000003"><a xlink:title=" ">
<polygon fill="#e0e0e0" stroke="#999999" points="134,-19 62,-19 62,0 134,0 134,-19"/>
<text text-anchor="middle" x="98" y="-7" font-family="Helvetica,sans-Serif" font-size="10.00">SDL2/SDL.h</text>
</a>
</g>
</g>
<!-- Node2&#45;&gt;Node3 -->
<g id="edge2_Node000002_Node000003" class="edge">
<title>Node2&#45;&gt;Node3</title>
<g id="a_edge2_Node000002_Node000003"><a xlink:title=" ">
<path fill="none" stroke="#63b8ff" d="M152.56,-54.98C142.85,-47.07 128.18,-35.11 116.5,-25.58"/>
<polygon fill="#63b8ff" stroke="#63b8ff" points="118.6,-22.78 108.63,-19.17 114.17,-28.2 118.6,-22.78"/>
</a>
</g>
</g>
<!-- Node2&#45;&gt;Node4 -->
<g id="edge3_Node000002_Node000004" class="edge">
<title>Node2&#45;&gt;Node4</title>
<g id="a_edge3_Node000002_Node000004"><a xlink:title=" ">
<path fill="none" stroke="#63b8ff" d="M140.35,-54.98C116.88,-46.16 80.01,-32.31 53.67,-22.4"/>
<polygon fill="#63b8ff" stroke="#63b8ff" points="54.73,-19.06 44.13,-18.82 52.26,-25.61 54.73,-19.06"/>
</a>
</g>
</g>
<!-- Node5 -->
<g id="Node000005" class="node">
<title>Node5</title>
<g id="a_Node000005"><a xlink:title=" ">
<polygon fill="#e0e0e0" stroke="#999999" points="245.5,-19 152.5,-19 152.5,0 245.5,0 245.5,-19"/>
<text text-anchor="middle" x="199" y="-7" font-family="Helvetica,sans-Serif" font-size="10.00">unordered_map</text>
</a>
</g>
</g>
<!-- Node2&#45;&gt;Node5 -->
<g id="edge4_Node000002_Node000005" class="edge">
<title>Node2&#45;&gt;Node5</title>
<g id="a_edge4_Node000002_Node000005"><a xlink:title=" ">
<path fill="none" stroke="#63b8ff" d="M168.94,-54.75C173.98,-47.34 181.34,-36.5 187.51,-27.41"/>
<polygon fill="#63b8ff" stroke="#63b8ff" points="190.44,-29.33 193.17,-19.09 184.65,-25.39 190.44,-29.33"/>
</a>
</g>
</g>
<!-- Node2&#45;&gt;Node6 -->
<g id="edge5_Node000002_Node000006" class="edge">
<title>Node2&#45;&gt;Node6</title>
<g id="a_edge5_Node000002_Node000006"><a xlink:title=" ">
<path fill="none" stroke="#63b8ff" d="M182.92,-54.98C203.05,-46.38 234.38,-32.99 257.41,-23.15"/>
<polygon fill="#63b8ff" stroke="#63b8ff" points="258.9,-26.32 266.71,-19.17 256.14,-19.88 258.9,-26.32"/>
</a>
</g>
</g>
</g>
</svg>
