<?xml version="1.0" encoding="UTF-8" standalone="no"?>
<!DOCTYPE svg PUBLIC "-//W3C//DTD SVG 1.1//EN"
 "http://www.w3.org/Graphics/SVG/1.1/DTD/svg11.dtd">
<!-- Generated by graphviz version 2.43.0 (0)
 -->
<!-- Title: /home/runner/work/R&#45;Type/R&#45;Type/Client/src/engine/audio/AudioManager.hpp Pages: 1 -->
<svg width="1357pt" height="357pt"
 viewBox="0.00 0.00 1357.00 357.00" xmlns="http://www.w3.org/2000/svg" xmlns:xlink="http://www.w3.org/1999/xlink">
<g id="graph0" class="graph" transform="scale(1 1) rotate(0) translate(4 353)">
<title>/home/runner/work/R&#45;Type/R&#45;Type/Client/src/engine/audio/AudioManager.hpp</title>
<!-- Node1 -->
<g id="Node000001" class="node">
<title>Node1</title>
<g id="a_Node000001"><a xlink:title=" ">
<polygon fill="#999999" stroke="#666666" points="784,-349 590,-349 590,-308 784,-308 784,-349"/>
<text text-anchor="start" x="598" y="-337" font-family="Helvetica,sans-Serif" font-size="10.00">/home/runner/work/R</text>
<text text-anchor="start" x="598" y="-326" font-family="Helvetica,sans-Serif" font-size="10.00">&#45;Type/R&#45;Type/Client</text>
<text text-anchor="middle" x="687" y="-315" font-family="Helvetica,sans-Serif" font-size="10.00">/src/engine/audio/AudioManager.hpp</text>
</a>
</g>
</g>
<!-- Node2 -->
<g id="Node000002" class="node">
<title>Node2</title>
<g id="a_Node000002"><a xlink:href="GameEngine_8hpp.html" target="_top" xlink:title=" ">
<polygon fill="white" stroke="#666666" points="673,-195 517,-195 517,-154 673,-154 673,-195"/>
<text text-anchor="start" x="525" y="-183" font-family="Helvetica,sans-Serif" font-size="10.00">/home/runner/work/R</text>
<text text-anchor="start" x="525" y="-172" font-family="Helvetica,sans-Serif" font-size="10.00">&#45;Type/R&#45;Type/Client</text>
<text text-anchor="middle" x="595" y="-161" font-family="Helvetica,sans-Serif" font-size="10.00">/src/engine/GameEngine.hpp</text>
</a>
</g>
</g>
<!-- Node1&#45;&gt;Node2 -->
<g id="edge1_Node000001_Node000002" class="edge">
<title>Node1&#45;&gt;Node2</title>
<g id="a_edge1_Node000001_Node000002"><a xlink:title=" ">
<path fill="none" stroke="#63b8ff" d="M669.53,-299.09C664.21,-290.41 658.35,-280.82 653,-272 636.88,-245.43 618.41,-214.64 606.73,-195.12"/>
<polygon fill="#63b8ff" stroke="#63b8ff" points="666.63,-301.05 674.84,-307.75 672.6,-297.39 666.63,-301.05"/>
</a>
</g>
</g>
<!-- Node10 -->
<g id="Node000010" class="node">
<title>Node10</title>
<g id="a_Node000010"><a xlink:href="SceneManager_8hpp.html" target="_top" xlink:title=" ">
<polygon fill="white" stroke="#666666" points="859.5,-272 662.5,-272 662.5,-231 859.5,-231 859.5,-272"/>
<text text-anchor="start" x="670.5" y="-260" font-family="Helvetica,sans-Serif" font-size="10.00">/home/runner/work/R</text>
<text text-anchor="start" x="670.5" y="-249" font-family="Helvetica,sans-Serif" font-size="10.00">&#45;Type/R&#45;Type/Client</text>
<text text-anchor="middle" x="761" y="-238" font-family="Helvetica,sans-Serif" font-size="10.00">/src/engine/scene/SceneManager.hpp</text>
</a>
</g>
</g>
<!-- Node1&#45;&gt;Node10 -->
<g id="edge13_Node000001_Node000010" class="edge">
<title>Node1&#45;&gt;Node10</title>
<g id="a_edge13_Node000001_Node000010"><a xlink:title=" ">
<path fill="none" stroke="#63b8ff" d="M713.63,-300.51C722.9,-291.11 733.12,-280.76 741.69,-272.07"/>
<polygon fill="#63b8ff" stroke="#63b8ff" points="710.97,-298.22 706.44,-307.79 715.96,-303.13 710.97,-298.22"/>
</a>
</g>
</g>
<!-- Node3 -->
<g id="Node000003" class="node">
<title>Node3</title>
<g id="a_Node000003"><a xlink:href="Main_8cpp.html" target="_top" xlink:title=" ">
<polygon fill="white" stroke="#666666" points="842.5,-41 723.5,-41 723.5,0 842.5,0 842.5,-41"/>
<text text-anchor="start" x="731.5" y="-29" font-family="Helvetica,sans-Serif" font-size="10.00">/home/runner/work/R</text>
<text text-anchor="start" x="731.5" y="-18" font-family="Helvetica,sans-Serif" font-size="10.00">&#45;Type/R&#45;Type/Client</text>
<text text-anchor="middle" x="783" y="-7" font-family="Helvetica,sans-Serif" font-size="10.00">/src/Main.cpp</text>
</a>
</g>
</g>
<!-- Node2&#45;&gt;Node3 -->
<g id="edge2_Node000002_Node000003" class="edge">
<title>Node2&#45;&gt;Node3</title>
<g id="a_edge2_Node000002_Node000003"><a xlink:title=" ">
<path fill="none" stroke="#63b8ff" d="M506.92,-166.9C419.02,-157.04 303.61,-133.18 353,-77 377.07,-49.62 611.01,-31.89 723.36,-24.89"/>
<polygon fill="#63b8ff" stroke="#63b8ff" points="506.64,-170.39 516.95,-167.98 507.38,-163.43 506.64,-170.39"/>
</a>
</g>
</g>
<!-- Node4 -->
<g id="Node000004" class="node">
<title>Node4</title>
<g id="a_Node000004"><a xlink:href="GameEngine_8cpp.html" target="_top" xlink:title=" ">
<polygon fill="white" stroke="#666666" points="305.5,-118 150.5,-118 150.5,-77 305.5,-77 305.5,-118"/>
<text text-anchor="start" x="158.5" y="-106" font-family="Helvetica,sans-Serif" font-size="10.00">/home/runner/work/R</text>
<text text-anchor="start" x="158.5" y="-95" font-family="Helvetica,sans-Serif" font-size="10.00">&#45;Type/R&#45;Type/Client</text>
<text text-anchor="middle" x="228" y="-84" font-family="Helvetica,sans-Serif" font-size="10.00">/src/engine/GameEngine.cpp</text>
</a>
</g>
</g>
<!-- Node2&#45;&gt;Node4 -->
<g id="edge3_Node000002_Node000004" class="edge">
<title>Node2&#45;&gt;Node4</title>
<g id="a_edge3_Node000002_Node000004"><a xlink:title=" ">
<path fill="none" stroke="#63b8ff" d="M506.84,-155.94C452.87,-145.12 382.41,-130.91 320,-118 315.36,-117.04 310.6,-116.05 305.79,-115.04"/>
<polygon fill="#63b8ff" stroke="#63b8ff" points="506.23,-159.38 516.72,-157.91 507.61,-152.52 506.23,-159.38"/>
</a>
</g>
</g>
<!-- Node5 -->
<g id="Node000005" class="node">
<title>Node5</title>
<g id="a_Node000005"><a xlink:href="SceneManager_8cpp.html" target="_top" xlink:title=" ">
<polygon fill="white" stroke="#666666" points="880,-118 684,-118 684,-77 880,-77 880,-118"/>
<text text-anchor="start" x="692" y="-106" font-family="Helvetica,sans-Serif" font-size="10.00">/home/runner/work/R</text>
<text text-anchor="start" x="692" y="-95" font-family="Helvetica,sans-Serif" font-size="10.00">&#45;Type/R&#45;Type/Client</text>
<text text-anchor="middle" x="782" y="-84" font-family="Helvetica,sans-Serif" font-size="10.00">/src/engine/scene/SceneManager.cpp</text>
</a>
</g>
</g>
<!-- Node2&#45;&gt;Node5 -->
<g id="edge4_Node000002_Node000005" class="edge">
<title>Node2&#45;&gt;Node5</title>
<g id="a_edge4_Node000002_Node000005"><a xlink:title=" ">
<path fill="none" stroke="#63b8ff" d="M652.93,-150.27C678.69,-139.94 708.69,-127.9 733.28,-118.04"/>
<polygon fill="#63b8ff" stroke="#63b8ff" points="651.62,-147.02 643.64,-153.99 654.23,-153.52 651.62,-147.02"/>
</a>
</g>
</g>
<!-- Node6 -->
<g id="Node000006" class="node">
<title>Node6</title>
<g id="a_Node000006"><a xlink:href="JoinGame_8hpp.html" target="_top" xlink:title=" ">
<polygon fill="white" stroke="#666666" points="666,-118 524,-118 524,-77 666,-77 666,-118"/>
<text text-anchor="start" x="532" y="-106" font-family="Helvetica,sans-Serif" font-size="10.00">/home/runner/work/R</text>
<text text-anchor="start" x="532" y="-95" font-family="Helvetica,sans-Serif" font-size="10.00">&#45;Type/R&#45;Type/Client</text>
<text text-anchor="middle" x="595" y="-84" font-family="Helvetica,sans-Serif" font-size="10.00">/src/scenes/JoinGame.hpp</text>
</a>
</g>
</g>
<!-- Node2&#45;&gt;Node6 -->
<g id="edge5_Node000002_Node000006" class="edge">
<title>Node2&#45;&gt;Node6</title>
<g id="a_edge5_Node000002_Node000006"><a xlink:title=" ">
<path fill="none" stroke="#63b8ff" d="M595,-143.69C595,-135.08 595,-125.9 595,-118.07"/>
<polygon fill="#63b8ff" stroke="#63b8ff" points="591.5,-143.79 595,-153.79 598.5,-143.79 591.5,-143.79"/>
</a>
</g>
</g>
<!-- Node7 -->
<g id="Node000007" class="node">
<title>Node7</title>
<g id="a_Node000007"><a xlink:href="MainMenu_8hpp.html" target="_top" xlink:title=" ">
<polygon fill="white" stroke="#666666" points="1044,-118 898,-118 898,-77 1044,-77 1044,-118"/>
<text text-anchor="start" x="906" y="-106" font-family="Helvetica,sans-Serif" font-size="10.00">/home/runner/work/R</text>
<text text-anchor="start" x="906" y="-95" font-family="Helvetica,sans-Serif" font-size="10.00">&#45;Type/R&#45;Type/Client</text>
<text text-anchor="middle" x="971" y="-84" font-family="Helvetica,sans-Serif" font-size="10.00">/src/scenes/MainMenu.hpp</text>
</a>
</g>
</g>
<!-- Node2&#45;&gt;Node7 -->
<g id="edge7_Node000002_Node000007" class="edge">
<title>Node2&#45;&gt;Node7</title>
<g id="a_edge7_Node000002_Node000007"><a xlink:title=" ">
<path fill="none" stroke="#63b8ff" d="M683.14,-157.98C741.66,-147.4 820.09,-132.69 889,-118 891.86,-117.39 894.78,-116.76 897.72,-116.11"/>
<polygon fill="#63b8ff" stroke="#63b8ff" points="682.41,-154.55 673.19,-159.77 683.66,-161.44 682.41,-154.55"/>
</a>
</g>
</g>
<!-- Node8 -->
<g id="Node000008" class="node">
<title>Node8</title>
<g id="a_Node000008"><a xlink:href="Options_8hpp.html" target="_top" xlink:title=" ">
<polygon fill="white" stroke="#666666" points="132,-118 0,-118 0,-77 132,-77 132,-118"/>
<text text-anchor="start" x="8" y="-106" font-family="Helvetica,sans-Serif" font-size="10.00">/home/runner/work/R</text>
<text text-anchor="start" x="8" y="-95" font-family="Helvetica,sans-Serif" font-size="10.00">&#45;Type/R&#45;Type/Client</text>
<text text-anchor="middle" x="66" y="-84" font-family="Helvetica,sans-Serif" font-size="10.00">/src/scenes/Options.hpp</text>
</a>
</g>
</g>
<!-- Node2&#45;&gt;Node8 -->
<g id="edge9_Node000002_Node000008" class="edge">
<title>Node2&#45;&gt;Node8</title>
<g id="a_edge9_Node000002_Node000008"><a xlink:title=" ">
<path fill="none" stroke="#63b8ff" d="M506.9,-166.22C415.04,-157.82 267.13,-142 141,-118 138.09,-117.45 135.13,-116.84 132.15,-116.21"/>
<polygon fill="#63b8ff" stroke="#63b8ff" points="506.72,-169.72 516.99,-167.14 507.35,-162.75 506.72,-169.72"/>
</a>
</g>
</g>
<!-- Node9 -->
<g id="Node000009" class="node">
<title>Node9</title>
<g id="a_Node000009"><a xlink:href="WaitLobby_8hpp.html" target="_top" xlink:title=" ">
<polygon fill="white" stroke="#666666" points="506,-118 362,-118 362,-77 506,-77 506,-118"/>
<text text-anchor="start" x="370" y="-106" font-family="Helvetica,sans-Serif" font-size="10.00">/home/runner/work/R</text>
<text text-anchor="start" x="370" y="-95" font-family="Helvetica,sans-Serif" font-size="10.00">&#45;Type/R&#45;Type/Client</text>
<text text-anchor="middle" x="434" y="-84" font-family="Helvetica,sans-Serif" font-size="10.00">/src/scenes/WaitLobby.hpp</text>
</a>
</g>
</g>
<!-- Node2&#45;&gt;Node9 -->
<g id="edge11_Node000002_Node000009" class="edge">
<title>Node2&#45;&gt;Node9</title>
<g id="a_edge11_Node000002_Node000009"><a xlink:title=" ">
<path fill="none" stroke="#63b8ff" d="M543.96,-149.72C522.04,-139.51 496.75,-127.73 475.95,-118.04"/>
<polygon fill="#63b8ff" stroke="#63b8ff" points="542.58,-152.94 553.12,-153.99 545.53,-146.6 542.58,-152.94"/>
</a>
</g>
</g>
<!-- Node6&#45;&gt;Node3 -->
<g id="edge6_Node000006_Node000003" class="edge">
<title>Node6&#45;&gt;Node3</title>
<g id="a_edge6_Node000006_Node000003"><a xlink:title=" ">
<path fill="none" stroke="#63b8ff" d="M653.24,-73.27C679.14,-62.94 709.29,-50.9 734.01,-41.04"/>
<polygon fill="#63b8ff" stroke="#63b8ff" points="651.9,-70.03 643.9,-76.99 654.49,-76.54 651.9,-70.03"/>
</a>
</g>
</g>
<!-- Node7&#45;&gt;Node3 -->
<g id="edge8_Node000007_Node000003" class="edge">
<title>Node7&#45;&gt;Node3</title>
<g id="a_edge8_Node000007_Node000003"><a xlink:title=" ">
<path fill="none" stroke="#63b8ff" d="M912.76,-73.27C886.86,-62.94 856.71,-50.9 831.99,-41.04"/>
<polygon fill="#63b8ff" stroke="#63b8ff" points="911.51,-76.54 922.1,-76.99 914.1,-70.03 911.51,-76.54"/>
</a>
</g>
</g>
<!-- Node8&#45;&gt;Node3 -->
<g id="edge10_Node000008_Node000003" class="edge">
<title>Node8&#45;&gt;Node3</title>
<g id="a_edge10_Node000008_Node000003"><a xlink:title=" ">
<path fill="none" stroke="#63b8ff" d="M142.19,-76.95C360.96,-40.11 611.03,-27.45 723.27,-23.31"/>
<polygon fill="#63b8ff" stroke="#63b8ff" points="141.39,-73.53 132.12,-78.66 142.57,-80.43 141.39,-73.53"/>
</a>
</g>
</g>
<!-- Node9&#45;&gt;Node3 -->
<g id="edge12_Node000009_Node000003" class="edge">
<title>Node9&#45;&gt;Node3</title>
<g id="a_edge12_Node000009_Node000003"><a xlink:title=" ">
<path fill="none" stroke="#63b8ff" d="M516.25,-76.75C593.12,-59.64 671.12,-43.73 723.27,-33.3"/>
<polygon fill="#63b8ff" stroke="#63b8ff" points="515.39,-73.35 506.4,-78.95 516.92,-80.19 515.39,-73.35"/>
</a>
</g>
</g>
<!-- Node10&#45;&gt;Node2 -->
<g id="edge15_Node000010_Node000002" class="edge">
<title>Node10&#45;&gt;Node2</title>
<g id="a_edge15_Node000010_Node000002"><a xlink:title=" ">
<path fill="none" stroke="#63b8ff" d="M708.67,-226.86C686.01,-216.62 659.79,-204.77 638.25,-195.04"/>
<polygon fill="#63b8ff" stroke="#63b8ff" points="707.26,-230.06 717.82,-230.99 710.15,-223.68 707.26,-230.06"/>
</a>
</g>
</g>
<!-- Node10&#45;&gt;Node3 -->
<g id="edge14_Node000010_Node000003" class="edge">
<title>Node10&#45;&gt;Node3</title>
<g id="a_edge14_Node000010_Node000003"><a xlink:title=" ">
<path fill="none" stroke="#63b8ff" d="M869.74,-231.49C934.9,-213.89 1012.7,-180.54 1053,-118 1103.35,-39.86 936.56,-24.37 842.64,-21.71"/>
<polygon fill="#63b8ff" stroke="#63b8ff" points="868.6,-228.17 859.81,-234.07 870.37,-234.94 868.6,-228.17"/>
</a>
</g>
</g>
<!-- Node10&#45;&gt;Node5 -->
<g id="edge16_Node000010_Node000005" class="edge">
<title>Node10&#45;&gt;Node5</title>
<g id="a_edge16_Node000010_Node000005"><a xlink:title=" ">
<path fill="none" stroke="#63b8ff" d="M765.08,-220.98C769.25,-190.76 775.63,-144.64 779.24,-118.47"/>
<polygon fill="#63b8ff" stroke="#63b8ff" points="761.6,-220.55 763.7,-230.94 768.54,-221.51 761.6,-220.55"/>
</a>
</g>
</g>
<!-- Node10&#45;&gt;Node6 -->
<g id="edge19_Node000010_Node000006" class="edge">
<title>Node10&#45;&gt;Node6</title>
<g id="a_edge19_Node000010_Node000006"><a xlink:title=" ">
<path fill="none" stroke="#63b8ff" d="M753.57,-221.04C746.98,-200.07 735.47,-172.45 717,-154 701.28,-138.29 680.31,-126.58 660.2,-118.07"/>
<polygon fill="#63b8ff" stroke="#63b8ff" points="750.24,-222.12 756.42,-230.73 756.96,-220.15 750.24,-222.12"/>
</a>
</g>
</g>
<!-- Node10&#45;&gt;Node7 -->
<g id="edge22_Node000010_Node000007" class="edge">
<title>Node10&#45;&gt;Node7</title>
<g id="a_edge22_Node000010_Node000007"><a xlink:title=" ">
<path fill="none" stroke="#63b8ff" d="M796.22,-225.01C837.78,-194.93 906,-145.55 943.75,-118.23"/>
<polygon fill="#63b8ff" stroke="#63b8ff" points="794.07,-222.24 788.02,-230.94 798.18,-227.91 794.07,-222.24"/>
</a>
</g>
</g>
<!-- Node10&#45;&gt;Node8 -->
<g id="edge23_Node000010_Node000008" class="edge">
<title>Node10&#45;&gt;Node8</title>
<g id="a_edge23_Node000010_Node000008"><a xlink:title=" ">
<path fill="none" stroke="#63b8ff" d="M653.38,-228.99C529.46,-203.88 319.98,-160.37 141,-118 138.12,-117.32 135.18,-116.61 132.21,-115.88"/>
<polygon fill="#63b8ff" stroke="#63b8ff" points="652.76,-232.44 663.25,-230.99 654.15,-225.58 652.76,-232.44"/>
</a>
</g>
</g>
<!-- Node10&#45;&gt;Node9 -->
<g id="edge24_Node000010_Node000009" class="edge">
<title>Node10&#45;&gt;Node9</title>
<g id="a_edge24_Node000010_Node000009"><a xlink:title=" ">
<path fill="none" stroke="#63b8ff" d="M738.84,-222.52C716.81,-194.85 685.77,-156.3 682,-154 617.21,-114.41 589.03,-134.89 515,-118 512.18,-117.36 509.31,-116.69 506.4,-116.02"/>
<polygon fill="#63b8ff" stroke="#63b8ff" points="736.38,-225.06 745.35,-230.71 741.86,-220.7 736.38,-225.06"/>
</a>
</g>
</g>
<!-- Node11 -->
<g id="Node000011" class="node">
<title>Node11</title>
<g id="a_Node000011"><a xlink:href="GameOver_8hpp.html" target="_top" xlink:title=" ">
<polygon fill="white" stroke="#666666" points="1183,-195 1037,-195 1037,-154 1183,-154 1183,-195"/>
<text text-anchor="start" x="1045" y="-183" font-family="Helvetica,sans-Serif" font-size="10.00">/home/runner/work/R</text>
<text text-anchor="start" x="1045" y="-172" font-family="Helvetica,sans-Serif" font-size="10.00">&#45;Type/R&#45;Type/Client</text>
<text text-anchor="middle" x="1110" y="-161" font-family="Helvetica,sans-Serif" font-size="10.00">/src/scenes/GameOver.hpp</text>
</a>
</g>
</g>
<!-- Node10&#45;&gt;Node11 -->
<g id="edge17_Node000010_Node000011" class="edge">
<title>Node10&#45;&gt;Node11</title>
<g id="a_edge17_Node000010_Node000011"><a xlink:title=" ">
<path fill="none" stroke="#63b8ff" d="M864.25,-228.92C912.51,-218.76 970.72,-206.39 1023,-195 1027.54,-194.01 1032.21,-192.99 1036.91,-191.95"/>
<polygon fill="#63b8ff" stroke="#63b8ff" points="863.49,-225.5 854.43,-230.99 864.93,-232.35 863.49,-225.5"/>
</a>
</g>
</g>
<!-- Node12 -->
<g id="Node000012" class="node">
<title>Node12</title>
<g id="a_Node000012"><a xlink:href="MainGame_8hpp.html" target="_top" xlink:title=" ">
<polygon fill="white" stroke="#666666" points="1349,-195 1201,-195 1201,-154 1349,-154 1349,-195"/>
<text text-anchor="start" x="1209" y="-183" font-family="Helvetica,sans-Serif" font-size="10.00">/home/runner/work/R</text>
<text text-anchor="start" x="1209" y="-172" font-family="Helvetica,sans-Serif" font-size="10.00">&#45;Type/R&#45;Type/Client</text>
<text text-anchor="middle" x="1275" y="-161" font-family="Helvetica,sans-Serif" font-size="10.00">/src/scenes/MainGame.hpp</text>
</a>
</g>
</g>
<!-- Node10&#45;&gt;Node12 -->
<g id="edge20_Node000010_Node000012" class="edge">
<title>Node10&#45;&gt;Node12</title>
<g id="a_edge20_Node000010_Node000012"><a xlink:title=" ">
<path fill="none" stroke="#63b8ff" d="M870.07,-239.59C957.49,-230.09 1083.11,-214.75 1192,-195 1194.91,-194.47 1197.88,-193.91 1200.87,-193.31"/>
<polygon fill="#63b8ff" stroke="#63b8ff" points="869.44,-236.14 859.87,-240.69 870.19,-243.09 869.44,-236.14"/>
</a>
</g>
</g>
<!-- Node11&#45;&gt;Node3 -->
<g id="edge18_Node000011_Node000003" class="edge">
<title>Node11&#45;&gt;Node3</title>
<g id="a_edge18_Node000011_Node000003"><a xlink:title=" ">
<path fill="none" stroke="#63b8ff" d="M1110.61,-143.51C1109.36,-121.98 1103.98,-93.89 1086,-77 1051.6,-44.69 920.6,-30.55 842.56,-24.88"/>
<polygon fill="#63b8ff" stroke="#63b8ff" points="1107.12,-143.89 1110.93,-153.78 1114.12,-143.67 1107.12,-143.89"/>
</a>
</g>
</g>
<!-- Node12&#45;&gt;Node3 -->
<g id="edge21_Node000012_Node000003" class="edge">
<title>Node12&#45;&gt;Node3</title>
<g id="a_edge21_Node000012_Node000003"><a xlink:title=" ">
<path fill="none" stroke="#63b8ff" d="M1240.13,-147.86C1208.15,-125.63 1158.66,-94.38 1111,-77 1020.93,-44.15 909.76,-30.57 842.72,-25.08"/>
<polygon fill="#63b8ff" stroke="#63b8ff" points="1238.48,-150.98 1248.67,-153.87 1242.51,-145.25 1238.48,-150.98"/>
</a>
</g>
</g>
</g>
</svg>
