<?xml version="1.0" encoding="UTF-8" standalone="no"?>
<!DOCTYPE svg PUBLIC "-//W3C//DTD SVG 1.1//EN"
 "http://www.w3.org/Graphics/SVG/1.1/DTD/svg11.dtd">
<!-- Generated by graphviz version 2.43.0 (0)
 -->
<!-- Title: /home/runner/work/R&#45;Type/R&#45;Type/Shared/systems/BoundsSystem.cpp Pages: 1 -->
<svg width="1270pt" height="324pt"
 viewBox="0.00 0.00 1269.50 324.00" xmlns="http://www.w3.org/2000/svg" xmlns:xlink="http://www.w3.org/1999/xlink">
<g id="graph0" class="graph" transform="scale(1 1) rotate(0) translate(4 320)">
<title>/home/runner/work/R&#45;Type/R&#45;Type/Shared/systems/BoundsSystem.cpp</title>
<!-- Node1 -->
<g id="Node000001" class="node">
<title>Node1</title>
<g id="a_Node000001"><a xlink:title=" ">
<polygon fill="#999999" stroke="#666666" points="784,-316 627,-316 627,-275 784,-275 784,-316"/>
<text text-anchor="start" x="635" y="-304" font-family="Helvetica,sans-Serif" font-size="10.00">/home/runner/work/R</text>
<text text-anchor="start" x="635" y="-293" font-family="Helvetica,sans-Serif" font-size="10.00">&#45;Type/R&#45;Type/Shared</text>
<text text-anchor="middle" x="705.5" y="-282" font-family="Helvetica,sans-Serif" font-size="10.00">/systems/BoundsSystem.cpp</text>
</a>
</g>
</g>
<!-- Node2 -->
<g id="Node000002" class="node">
<title>Node2</title>
<g id="a_Node000002"><a xlink:href="BoundsSystem_8hpp.html" target="_top" xlink:title=" ">
<polygon fill="white" stroke="#666666" points="703,-239 548,-239 548,-220 703,-220 703,-239"/>
<text text-anchor="middle" x="625.5" y="-227" font-family="Helvetica,sans-Serif" font-size="10.00">systems/BoundsSystem.hpp</text>
</a>
</g>
</g>
<!-- Node1&#45;&gt;Node2 -->
<g id="edge1_Node000001_Node000002" class="edge">
<title>Node1&#45;&gt;Node2</title>
<g id="a_edge1_Node000001_Node000002"><a xlink:title=" ">
<path fill="none" stroke="#63b8ff" d="M681.06,-274.95C669.32,-265.55 655.45,-254.46 644.5,-245.7"/>
<polygon fill="#63b8ff" stroke="#63b8ff" points="646.45,-242.77 636.45,-239.26 642.07,-248.24 646.45,-242.77"/>
</a>
</g>
</g>
<!-- Node23 -->
<g id="Node000023" class="node">
<title>Node23</title>
<g id="a_Node000023"><a xlink:href="PlayerEntity_8hpp.html" target="_top" xlink:title=" ">
<polygon fill="white" stroke="#666666" points="966,-239 837,-239 837,-220 966,-220 966,-239"/>
<text text-anchor="middle" x="901.5" y="-227" font-family="Helvetica,sans-Serif" font-size="10.00">Player/PlayerEntity.hpp</text>
</a>
</g>
</g>
<!-- Node1&#45;&gt;Node23 -->
<g id="edge28_Node000001_Node000023" class="edge">
<title>Node1&#45;&gt;Node23</title>
<g id="a_edge28_Node000001_Node000023"><a xlink:title=" ">
<path fill="none" stroke="#63b8ff" d="M765.37,-274.95C798.16,-264.24 837.69,-251.34 865.69,-242.19"/>
<polygon fill="#63b8ff" stroke="#63b8ff" points="867.02,-245.44 875.44,-239.01 864.85,-238.78 867.02,-245.44"/>
</a>
</g>
</g>
<!-- Node3 -->
<g id="Node000003" class="node">
<title>Node3</title>
<g id="a_Node000003"><a xlink:href="Physics2D_8hpp.html" target="_top" xlink:title=" ">
<polygon fill="white" stroke="#666666" points="1135,-74 984,-74 984,-55 1135,-55 1135,-74"/>
<text text-anchor="middle" x="1059.5" y="-62" font-family="Helvetica,sans-Serif" font-size="10.00">components/Physics2D.hpp</text>
</a>
</g>
</g>
<!-- Node2&#45;&gt;Node3 -->
<g id="edge2_Node000002_Node000003" class="edge">
<title>Node2&#45;&gt;Node3</title>
<g id="a_edge2_Node000002_Node000003"><a xlink:title=" ">
<path fill="none" stroke="#63b8ff" d="M703.35,-223.01C805.01,-215.25 972.85,-200.2 996.5,-184 1031.14,-160.26 1048.24,-111.2 1055.32,-84.25"/>
<polygon fill="#63b8ff" stroke="#63b8ff" points="1058.8,-84.73 1057.76,-74.19 1052,-83.08 1058.8,-84.73"/>
</a>
</g>
</g>
<!-- Node6 -->
<g id="Node000006" class="node">
<title>Node6</title>
<g id="a_Node000006"><a xlink:href="Registry_8hpp.html" target="_top" xlink:title=" ">
<polygon fill="white" stroke="#666666" points="611.5,-184 515.5,-184 515.5,-165 611.5,-165 611.5,-184"/>
<text text-anchor="middle" x="563.5" y="-172" font-family="Helvetica,sans-Serif" font-size="10.00">ecs/Registry.hpp</text>
</a>
</g>
</g>
<!-- Node2&#45;&gt;Node6 -->
<g id="edge5_Node000002_Node000006" class="edge">
<title>Node2&#45;&gt;Node6</title>
<g id="a_edge5_Node000002_Node000006"><a xlink:title=" ">
<path fill="none" stroke="#63b8ff" d="M615.54,-219.98C606.37,-212.15 592.56,-200.34 581.47,-190.86"/>
<polygon fill="#63b8ff" stroke="#63b8ff" points="583.52,-188.01 573.64,-184.17 578.97,-193.33 583.52,-188.01"/>
</a>
</g>
</g>
<!-- Node21 -->
<g id="Node000021" class="node">
<title>Node21</title>
<g id="a_Node000021"><a xlink:href="Zipper_8hpp.html" target="_top" xlink:title=" ">
<polygon fill="white" stroke="#666666" points="173.5,-184 85.5,-184 85.5,-165 173.5,-165 173.5,-184"/>
<text text-anchor="middle" x="129.5" y="-172" font-family="Helvetica,sans-Serif" font-size="10.00">ecs/Zipper.hpp</text>
</a>
</g>
</g>
<!-- Node2&#45;&gt;Node21 -->
<g id="edge22_Node000002_Node000021" class="edge">
<title>Node2&#45;&gt;Node21</title>
<g id="a_edge22_Node000002_Node000021"><a xlink:title=" ">
<path fill="none" stroke="#63b8ff" d="M547.73,-220.19C446.37,-209.36 271.69,-190.69 183.62,-181.28"/>
<polygon fill="#63b8ff" stroke="#63b8ff" points="183.89,-177.79 173.57,-180.21 183.14,-184.75 183.89,-177.79"/>
</a>
</g>
</g>
<!-- Node4 -->
<g id="Node000004" class="node">
<title>Node4</title>
<g id="a_Node000004"><a xlink:title=" ">
<polygon fill="#e0e0e0" stroke="#999999" points="1056.5,-19 984.5,-19 984.5,0 1056.5,0 1056.5,-19"/>
<text text-anchor="middle" x="1020.5" y="-7" font-family="Helvetica,sans-Serif" font-size="10.00">SDL2/SDL.h</text>
</a>
</g>
</g>
<!-- Node3&#45;&gt;Node4 -->
<g id="edge3_Node000003_Node000004" class="edge">
<title>Node3&#45;&gt;Node4</title>
<g id="a_edge3_Node000003_Node000004"><a xlink:title=" ">
<path fill="none" stroke="#63b8ff" d="M1053.06,-54.75C1047.61,-47.34 1039.64,-36.5 1032.94,-27.41"/>
<polygon fill="#63b8ff" stroke="#63b8ff" points="1035.57,-25.07 1026.82,-19.09 1029.93,-29.22 1035.57,-25.07"/>
</a>
</g>
</g>
<!-- Node5 -->
<g id="Node000005" class="node">
<title>Node5</title>
<g id="a_Node000005"><a xlink:title=" ">
<polygon fill="#e0e0e0" stroke="#999999" points="1122,-19 1075,-19 1075,0 1122,0 1122,-19"/>
<text text-anchor="middle" x="1098.5" y="-7" font-family="Helvetica,sans-Serif" font-size="10.00">cmath</text>
</a>
</g>
</g>
<!-- Node3&#45;&gt;Node5 -->
<g id="edge4_Node000003_Node000005" class="edge">
<title>Node3&#45;&gt;Node5</title>
<g id="a_edge4_Node000003_Node000005"><a xlink:title=" ">
<path fill="none" stroke="#63b8ff" d="M1065.94,-54.75C1071.39,-47.34 1079.36,-36.5 1086.06,-27.41"/>
<polygon fill="#63b8ff" stroke="#63b8ff" points="1089.07,-29.22 1092.18,-19.09 1083.43,-25.07 1089.07,-29.22"/>
</a>
</g>
</g>
<!-- Node7 -->
<g id="Node000007" class="node">
<title>Node7</title>
<g id="a_Node000007"><a xlink:title=" ">
<polygon fill="#e0e0e0" stroke="#999999" points="161.5,-129 97.5,-129 97.5,-110 161.5,-110 161.5,-129"/>
<text text-anchor="middle" x="129.5" y="-117" font-family="Helvetica,sans-Serif" font-size="10.00">algorithm</text>
</a>
</g>
</g>
<!-- Node6&#45;&gt;Node7 -->
<g id="edge6_Node000006_Node000007" class="edge">
<title>Node6&#45;&gt;Node7</title>
<g id="a_edge6_Node000006_Node000007"><a xlink:title=" ">
<path fill="none" stroke="#63b8ff" d="M515.21,-169.47C442.77,-163.11 301.48,-149.48 171.79,-129.07"/>
<polygon fill="#63b8ff" stroke="#63b8ff" points="172.1,-125.58 161.68,-127.46 171,-132.49 172.1,-125.58"/>
</a>
</g>
</g>
<!-- Node8 -->
<g id="Node000008" class="node">
<title>Node8</title>
<g id="a_Node000008"><a xlink:title=" ">
<polygon fill="#e0e0e0" stroke="#999999" points="714,-129 679,-129 679,-110 714,-110 714,-129"/>
<text text-anchor="middle" x="696.5" y="-117" font-family="Helvetica,sans-Serif" font-size="10.00">any</text>
</a>
</g>
</g>
<!-- Node6&#45;&gt;Node8 -->
<g id="edge7_Node000006_Node000008" class="edge">
<title>Node6&#45;&gt;Node8</title>
<g id="a_edge7_Node000006_Node000008"><a xlink:title=" ">
<path fill="none" stroke="#63b8ff" d="M584.87,-164.98C607.72,-155.88 644.02,-141.41 668.99,-131.46"/>
<polygon fill="#63b8ff" stroke="#63b8ff" points="670.6,-134.59 678.6,-127.63 668.01,-128.09 670.6,-134.59"/>
</a>
</g>
</g>
<!-- Node9 -->
<g id="Node000009" class="node">
<title>Node9</title>
<g id="a_Node000009"><a xlink:title=" ">
<polygon fill="#e0e0e0" stroke="#999999" points="245,-129 180,-129 180,-110 245,-110 245,-129"/>
<text text-anchor="middle" x="212.5" y="-117" font-family="Helvetica,sans-Serif" font-size="10.00">functional</text>
</a>
</g>
</g>
<!-- Node6&#45;&gt;Node9 -->
<g id="edge8_Node000006_Node000009" class="edge">
<title>Node6&#45;&gt;Node9</title>
<g id="a_edge8_Node000006_Node000009"><a xlink:title=" ">
<path fill="none" stroke="#63b8ff" d="M515.25,-166.95C455.22,-158.68 349.65,-143.75 259.5,-129 258.04,-128.76 256.56,-128.52 255.06,-128.26"/>
<polygon fill="#63b8ff" stroke="#63b8ff" points="255.54,-124.79 245.09,-126.54 254.35,-131.69 255.54,-124.79"/>
</a>
</g>
</g>
<!-- Node10 -->
<g id="Node000010" class="node">
<title>Node10</title>
<g id="a_Node000010"><a xlink:title=" ">
<polygon fill="#e0e0e0" stroke="#999999" points="361.5,-129 301.5,-129 301.5,-110 361.5,-110 361.5,-129"/>
<text text-anchor="middle" x="331.5" y="-117" font-family="Helvetica,sans-Serif" font-size="10.00">iostream</text>
</a>
</g>
</g>
<!-- Node6&#45;&gt;Node10 -->
<g id="edge9_Node000006_Node000010" class="edge">
<title>Node6&#45;&gt;Node10</title>
<g id="a_edge9_Node000006_Node000010"><a xlink:title=" ">
<path fill="none" stroke="#63b8ff" d="M526.23,-164.98C483.89,-155.31 415.07,-139.59 371.6,-129.66"/>
<polygon fill="#63b8ff" stroke="#63b8ff" points="372.19,-126.21 361.66,-127.39 370.63,-133.03 372.19,-126.21"/>
</a>
</g>
</g>
<!-- Node11 -->
<g id="Node000011" class="node">
<title>Node11</title>
<g id="a_Node000011"><a xlink:title=" ">
<polygon fill="#e0e0e0" stroke="#999999" points="445,-129 380,-129 380,-110 445,-110 445,-129"/>
<text text-anchor="middle" x="412.5" y="-117" font-family="Helvetica,sans-Serif" font-size="10.00">typeindex</text>
</a>
</g>
</g>
<!-- Node6&#45;&gt;Node11 -->
<g id="edge10_Node000006_Node000011" class="edge">
<title>Node6&#45;&gt;Node11</title>
<g id="a_edge10_Node000006_Node000011"><a xlink:title=" ">
<path fill="none" stroke="#63b8ff" d="M539.24,-164.98C514.18,-156.19 474.87,-142.39 446.67,-132.49"/>
<polygon fill="#63b8ff" stroke="#63b8ff" points="447.8,-129.18 437.2,-129.17 445.48,-135.78 447.8,-129.18"/>
</a>
</g>
</g>
<!-- Node12 -->
<g id="Node000012" class="node">
<title>Node12</title>
<g id="a_Node000012"><a xlink:title=" ">
<polygon fill="#e0e0e0" stroke="#999999" points="556,-129 463,-129 463,-110 556,-110 556,-129"/>
<text text-anchor="middle" x="509.5" y="-117" font-family="Helvetica,sans-Serif" font-size="10.00">unordered_map</text>
</a>
</g>
</g>
<!-- Node6&#45;&gt;Node12 -->
<g id="edge11_Node000006_Node000012" class="edge">
<title>Node6&#45;&gt;Node12</title>
<g id="a_edge11_Node000006_Node000012"><a xlink:title=" ">
<path fill="none" stroke="#63b8ff" d="M554.58,-164.75C546.72,-157.03 535.07,-145.6 525.58,-136.28"/>
<polygon fill="#63b8ff" stroke="#63b8ff" points="527.84,-133.6 518.25,-129.09 522.94,-138.59 527.84,-133.6"/>
</a>
</g>
</g>
<!-- Node13 -->
<g id="Node000013" class="node">
<title>Node13</title>
<g id="a_Node000013"><a xlink:title=" ">
<polygon fill="#e0e0e0" stroke="#999999" points="660.5,-129 574.5,-129 574.5,-110 660.5,-110 660.5,-129"/>
<text text-anchor="middle" x="617.5" y="-117" font-family="Helvetica,sans-Serif" font-size="10.00">unordered_set</text>
</a>
</g>
</g>
<!-- Node6&#45;&gt;Node13 -->
<g id="edge12_Node000006_Node000013" class="edge">
<title>Node6&#45;&gt;Node13</title>
<g id="a_edge12_Node000006_Node000013"><a xlink:title=" ">
<path fill="none" stroke="#63b8ff" d="M572.42,-164.75C580.28,-157.03 591.93,-145.6 601.42,-136.28"/>
<polygon fill="#63b8ff" stroke="#63b8ff" points="604.06,-138.59 608.75,-129.09 599.16,-133.6 604.06,-138.59"/>
</a>
</g>
</g>
<!-- Node14 -->
<g id="Node000014" class="node">
<title>Node14</title>
<g id="a_Node000014"><a xlink:title=" ">
<polygon fill="#e0e0e0" stroke="#999999" points="296,-74 251,-74 251,-55 296,-55 296,-74"/>
<text text-anchor="middle" x="273.5" y="-62" font-family="Helvetica,sans-Serif" font-size="10.00">utility</text>
</a>
</g>
</g>
<!-- Node6&#45;&gt;Node14 -->
<g id="edge13_Node000006_Node000014" class="edge">
<title>Node6&#45;&gt;Node14</title>
<g id="a_edge13_Node000006_Node000014"><a xlink:title=" ">
<path fill="none" stroke="#63b8ff" d="M515.41,-171.6C446.62,-167.91 324.85,-157.46 292.5,-129 279.96,-117.97 275.53,-99.02 274.05,-84.69"/>
<polygon fill="#63b8ff" stroke="#63b8ff" points="277.52,-84.18 273.39,-74.43 270.54,-84.63 277.52,-84.18"/>
</a>
</g>
</g>
<!-- Node15 -->
<g id="Node000015" class="node">
<title>Node15</title>
<g id="a_Node000015"><a xlink:title=" ">
<polygon fill="#e0e0e0" stroke="#999999" points="892,-74 845,-74 845,-55 892,-55 892,-74"/>
<text text-anchor="middle" x="868.5" y="-62" font-family="Helvetica,sans-Serif" font-size="10.00">vector</text>
</a>
</g>
</g>
<!-- Node6&#45;&gt;Node15 -->
<g id="edge14_Node000006_Node000015" class="edge">
<title>Node6&#45;&gt;Node15</title>
<g id="a_edge14_Node000006_Node000015"><a xlink:title=" ">
<path fill="none" stroke="#63b8ff" d="M611.69,-172.63C685.42,-170.27 821.31,-161.5 855.5,-129 867.34,-117.74 869.93,-98.83 869.96,-84.57"/>
<polygon fill="#63b8ff" stroke="#63b8ff" points="873.45,-84.21 869.55,-74.36 866.45,-84.49 873.45,-84.21"/>
</a>
</g>
</g>
<!-- Node16 -->
<g id="Node000016" class="node">
<title>Node16</title>
<g id="a_Node000016"><a xlink:href="Entity_8hpp.html" target="_top" xlink:title=" ">
<polygon fill="white" stroke="#666666" points="987.5,-129 903.5,-129 903.5,-110 987.5,-110 987.5,-129"/>
<text text-anchor="middle" x="945.5" y="-117" font-family="Helvetica,sans-Serif" font-size="10.00">ecs/Entity.hpp</text>
</a>
</g>
</g>
<!-- Node6&#45;&gt;Node16 -->
<g id="edge15_Node000006_Node000016" class="edge">
<title>Node6&#45;&gt;Node16</title>
<g id="a_edge15_Node000006_Node000016"><a xlink:title=" ">
<path fill="none" stroke="#63b8ff" d="M611.59,-167.16C675.21,-158.73 790.84,-143.22 889.5,-129 890.76,-128.82 892.03,-128.63 893.32,-128.45"/>
<polygon fill="#63b8ff" stroke="#63b8ff" points="893.93,-131.89 903.31,-126.97 892.91,-124.97 893.93,-131.89"/>
</a>
</g>
</g>
<!-- Node18 -->
<g id="Node000018" class="node">
<title>Node18</title>
<g id="a_Node000018"><a xlink:href="SparseArray_8hpp.html" target="_top" xlink:title=" ">
<polygon fill="white" stroke="#666666" points="847,-129 732,-129 732,-110 847,-110 847,-129"/>
<text text-anchor="middle" x="789.5" y="-117" font-family="Helvetica,sans-Serif" font-size="10.00">ecs/SparseArray.hpp</text>
</a>
</g>
</g>
<!-- Node6&#45;&gt;Node18 -->
<g id="edge17_Node000006_Node000018" class="edge">
<title>Node6&#45;&gt;Node18</title>
<g id="a_edge17_Node000006_Node000018"><a xlink:title=" ">
<path fill="none" stroke="#63b8ff" d="M599.81,-164.98C638.74,-155.86 700.66,-141.33 743.1,-131.38"/>
<polygon fill="#63b8ff" stroke="#63b8ff" points="743.97,-134.77 752.9,-129.08 742.37,-127.96 743.97,-134.77"/>
</a>
</g>
</g>
<!-- Node17 -->
<g id="Node000017" class="node">
<title>Node17</title>
<g id="a_Node000017"><a xlink:title=" ">
<polygon fill="#e0e0e0" stroke="#999999" points="966,-74 913,-74 913,-55 966,-55 966,-74"/>
<text text-anchor="middle" x="939.5" y="-62" font-family="Helvetica,sans-Serif" font-size="10.00">cstddef</text>
</a>
</g>
</g>
<!-- Node16&#45;&gt;Node17 -->
<g id="edge16_Node000016_Node000017" class="edge">
<title>Node16&#45;&gt;Node17</title>
<g id="a_edge16_Node000016_Node000017"><a xlink:title=" ">
<path fill="none" stroke="#63b8ff" d="M944.51,-109.75C943.72,-102.8 942.6,-92.85 941.61,-84.13"/>
<polygon fill="#63b8ff" stroke="#63b8ff" points="945.08,-83.63 940.47,-74.09 938.12,-84.42 945.08,-83.63"/>
</a>
</g>
</g>
<!-- Node18&#45;&gt;Node14 -->
<g id="edge20_Node000018_Node000014" class="edge">
<title>Node18&#45;&gt;Node14</title>
<g id="a_edge20_Node000018_Node000014"><a xlink:title=" ">
<path fill="none" stroke="#63b8ff" d="M731.77,-111.07C728.63,-110.7 725.53,-110.34 722.5,-110 567.07,-92.44 380.94,-75.2 306.57,-68.46"/>
<polygon fill="#63b8ff" stroke="#63b8ff" points="306.69,-64.96 296.42,-67.55 306.06,-71.93 306.69,-64.96"/>
</a>
</g>
</g>
<!-- Node18&#45;&gt;Node15 -->
<g id="edge21_Node000018_Node000015" class="edge">
<title>Node18&#45;&gt;Node15</title>
<g id="a_edge21_Node000018_Node000015"><a xlink:title=" ">
<path fill="none" stroke="#63b8ff" d="M802.19,-109.98C814.33,-101.84 832.86,-89.41 847.25,-79.76"/>
<polygon fill="#63b8ff" stroke="#63b8ff" points="849.22,-82.65 855.58,-74.17 845.32,-76.84 849.22,-82.65"/>
</a>
</g>
</g>
<!-- Node19 -->
<g id="Node000019" class="node">
<title>Node19</title>
<g id="a_Node000019"><a xlink:title=" ">
<polygon fill="#e0e0e0" stroke="#999999" points="747.5,-74 689.5,-74 689.5,-55 747.5,-55 747.5,-74"/>
<text text-anchor="middle" x="718.5" y="-62" font-family="Helvetica,sans-Serif" font-size="10.00">memory</text>
</a>
</g>
</g>
<!-- Node18&#45;&gt;Node19 -->
<g id="edge18_Node000018_Node000019" class="edge">
<title>Node18&#45;&gt;Node19</title>
<g id="a_edge18_Node000018_Node000019"><a xlink:title=" ">
<path fill="none" stroke="#63b8ff" d="M778.09,-109.98C767.39,-102 751.16,-89.88 738.34,-80.31"/>
<polygon fill="#63b8ff" stroke="#63b8ff" points="740.22,-77.35 730.11,-74.17 736.03,-82.96 740.22,-77.35"/>
</a>
</g>
</g>
<!-- Node20 -->
<g id="Node000020" class="node">
<title>Node20</title>
<g id="a_Node000020"><a xlink:title=" ">
<polygon fill="#e0e0e0" stroke="#999999" points="821.5,-74 765.5,-74 765.5,-55 821.5,-55 821.5,-74"/>
<text text-anchor="middle" x="793.5" y="-62" font-family="Helvetica,sans-Serif" font-size="10.00">optional</text>
</a>
</g>
</g>
<!-- Node18&#45;&gt;Node20 -->
<g id="edge19_Node000018_Node000020" class="edge">
<title>Node18&#45;&gt;Node20</title>
<g id="a_edge19_Node000018_Node000020"><a xlink:title=" ">
<path fill="none" stroke="#63b8ff" d="M790.16,-109.75C790.68,-102.8 791.44,-92.85 792.09,-84.13"/>
<polygon fill="#63b8ff" stroke="#63b8ff" points="795.59,-84.32 792.85,-74.09 788.61,-83.8 795.59,-84.32"/>
</a>
</g>
</g>
<!-- Node21&#45;&gt;Node7 -->
<g id="edge23_Node000021_Node000007" class="edge">
<title>Node21&#45;&gt;Node7</title>
<g id="a_edge23_Node000021_Node000007"><a xlink:title=" ">
<path fill="none" stroke="#63b8ff" d="M129.5,-164.75C129.5,-157.8 129.5,-147.85 129.5,-139.13"/>
<polygon fill="#63b8ff" stroke="#63b8ff" points="133,-139.09 129.5,-129.09 126,-139.09 133,-139.09"/>
</a>
</g>
</g>
<!-- Node21&#45;&gt;Node9 -->
<g id="edge24_Node000021_Node000009" class="edge">
<title>Node21&#45;&gt;Node9</title>
<g id="a_edge24_Node000021_Node000009"><a xlink:title=" ">
<path fill="none" stroke="#63b8ff" d="M142.84,-164.98C155.59,-156.84 175.05,-144.41 190.17,-134.76"/>
<polygon fill="#63b8ff" stroke="#63b8ff" points="192.38,-137.5 198.92,-129.17 188.61,-131.6 192.38,-137.5"/>
</a>
</g>
</g>
<!-- Node21&#45;&gt;Node14 -->
<g id="edge26_Node000021_Node000014" class="edge">
<title>Node21&#45;&gt;Node14</title>
<g id="a_edge26_Node000021_Node000014"><a xlink:title=" ">
<path fill="none" stroke="#63b8ff" d="M116.94,-164.94C100.09,-152.41 73.88,-128.55 88.5,-110 107.08,-86.42 192.53,-73.89 240.53,-68.61"/>
<polygon fill="#63b8ff" stroke="#63b8ff" points="241.16,-72.06 250.74,-67.53 240.42,-65.1 241.16,-72.06"/>
</a>
</g>
</g>
<!-- Node21&#45;&gt;Node21 -->
<g id="edge27_Node000021_Node000021" class="edge">
<title>Node21&#45;&gt;Node21</title>
<g id="a_edge27_Node000021_Node000021"><a xlink:title=" ">
<path fill="none" stroke="#63b8ff" d="M158.52,-184.03C175.56,-186.06 191.5,-182.88 191.5,-174.5 191.5,-167.82 181.37,-164.44 168.64,-164.38"/>
<polygon fill="#63b8ff" stroke="#63b8ff" points="168.3,-160.89 158.52,-164.97 168.71,-167.88 168.3,-160.89"/>
</a>
</g>
</g>
<!-- Node22 -->
<g id="Node000022" class="node">
<title>Node22</title>
<g id="a_Node000022"><a xlink:title=" ">
<polygon fill="#e0e0e0" stroke="#999999" points="41,-129 0,-129 0,-110 41,-110 41,-129"/>
<text text-anchor="middle" x="20.5" y="-117" font-family="Helvetica,sans-Serif" font-size="10.00">tuple</text>
</a>
</g>
</g>
<!-- Node21&#45;&gt;Node22 -->
<g id="edge25_Node000021_Node000022" class="edge">
<title>Node21&#45;&gt;Node22</title>
<g id="a_edge25_Node000021_Node000022"><a xlink:title=" ">
<path fill="none" stroke="#63b8ff" d="M111.99,-164.98C94.53,-156.5 67.49,-143.35 47.33,-133.54"/>
<polygon fill="#63b8ff" stroke="#63b8ff" points="48.86,-130.4 38.33,-129.17 45.79,-136.69 48.86,-130.4"/>
</a>
</g>
</g>
<!-- Node23&#45;&gt;Node3 -->
<g id="edge35_Node000023_Node000003" class="edge">
<title>Node23&#45;&gt;Node3</title>
<g id="a_edge35_Node000023_Node000003"><a xlink:title=" ">
<path fill="none" stroke="#63b8ff" d="M962.83,-219.94C986.63,-213.67 1012.25,-202.81 1029.5,-184 1054.87,-156.33 1059.5,-110.31 1059.94,-84.52"/>
<polygon fill="#63b8ff" stroke="#63b8ff" points="1063.44,-84.22 1059.91,-74.23 1056.44,-84.24 1063.44,-84.22"/>
</a>
</g>
</g>
<!-- Node23&#45;&gt;Node7 -->
<g id="edge29_Node000023_Node000007" class="edge">
<title>Node23&#45;&gt;Node7</title>
<g id="a_edge29_Node000023_Node000007"><a xlink:title=" ">
<path fill="none" stroke="#63b8ff" d="M836.72,-222.21C758.37,-214.36 622.54,-200.02 506.5,-184 359.82,-163.75 320.94,-156.88 171.7,-129.17"/>
<polygon fill="#63b8ff" stroke="#63b8ff" points="172.17,-125.7 161.7,-127.31 170.9,-132.58 172.17,-125.7"/>
</a>
</g>
</g>
<!-- Node24 -->
<g id="Node000024" class="node">
<title>Node24</title>
<g id="a_Node000024"><a xlink:href="CollisionController_8hpp.html" target="_top" xlink:title=" ">
<polygon fill="white" stroke="#666666" points="987.5,-184 815.5,-184 815.5,-165 987.5,-165 987.5,-184"/>
<text text-anchor="middle" x="901.5" y="-172" font-family="Helvetica,sans-Serif" font-size="10.00">Collision/CollisionController.hpp</text>
</a>
</g>
</g>
<!-- Node23&#45;&gt;Node24 -->
<g id="edge30_Node000023_Node000024" class="edge">
<title>Node23&#45;&gt;Node24</title>
<g id="a_edge30_Node000023_Node000024"><a xlink:title=" ">
<path fill="none" stroke="#63b8ff" d="M901.5,-219.75C901.5,-212.8 901.5,-202.85 901.5,-194.13"/>
<polygon fill="#63b8ff" stroke="#63b8ff" points="905,-194.09 901.5,-184.09 898,-194.09 905,-194.09"/>
</a>
</g>
</g>
<!-- Node25 -->
<g id="Node000025" class="node">
<title>Node25</title>
<g id="a_Node000025"><a xlink:href="Weapon_8hpp.html" target="_top" xlink:title=" ">
<polygon fill="white" stroke="#666666" points="1208.5,-184 1098.5,-184 1098.5,-165 1208.5,-165 1208.5,-184"/>
<text text-anchor="middle" x="1153.5" y="-172" font-family="Helvetica,sans-Serif" font-size="10.00">Player/Weapon.hpp</text>
</a>
</g>
</g>
<!-- Node23&#45;&gt;Node25 -->
<g id="edge32_Node000023_Node000025" class="edge">
<title>Node23&#45;&gt;Node25</title>
<g id="a_edge32_Node000023_Node000025"><a xlink:title=" ">
<path fill="none" stroke="#63b8ff" d="M941.99,-219.98C985.67,-210.8 1055.31,-196.15 1102.65,-186.19"/>
<polygon fill="#63b8ff" stroke="#63b8ff" points="1103.63,-189.57 1112.69,-184.08 1102.19,-182.72 1103.63,-189.57"/>
</a>
</g>
</g>
<!-- Node24&#45;&gt;Node16 -->
<g id="edge31_Node000024_Node000016" class="edge">
<title>Node24&#45;&gt;Node16</title>
<g id="a_edge31_Node000024_Node000016"><a xlink:title=" ">
<path fill="none" stroke="#63b8ff" d="M908.77,-164.75C915.04,-157.18 924.29,-146.05 931.93,-136.84"/>
<polygon fill="#63b8ff" stroke="#63b8ff" points="934.67,-139.02 938.37,-129.09 929.29,-134.55 934.67,-139.02"/>
</a>
</g>
</g>
<!-- Node26 -->
<g id="Node000026" class="node">
<title>Node26</title>
<g id="a_Node000026"><a xlink:href="Projectile_8hpp.html" target="_top" xlink:title=" ">
<polygon fill="white" stroke="#666666" points="1261.5,-129 1081.5,-129 1081.5,-110 1261.5,-110 1261.5,-129"/>
<text text-anchor="middle" x="1171.5" y="-117" font-family="Helvetica,sans-Serif" font-size="10.00">components/Player/Projectile.hpp</text>
</a>
</g>
</g>
<!-- Node25&#45;&gt;Node26 -->
<g id="edge33_Node000025_Node000026" class="edge">
<title>Node25&#45;&gt;Node26</title>
<g id="a_edge33_Node000025_Node000026"><a xlink:title=" ">
<path fill="none" stroke="#63b8ff" d="M1156.47,-164.75C1158.86,-157.72 1162.29,-147.62 1165.27,-138.84"/>
<polygon fill="#63b8ff" stroke="#63b8ff" points="1168.68,-139.68 1168.58,-129.09 1162.05,-137.43 1168.68,-139.68"/>
</a>
</g>
</g>
<!-- Node26&#45;&gt;Node3 -->
<g id="edge34_Node000026_Node000003" class="edge">
<title>Node26&#45;&gt;Node3</title>
<g id="a_edge34_Node000026_Node000003"><a xlink:title=" ">
<path fill="none" stroke="#63b8ff" d="M1153.51,-109.98C1135.57,-101.5 1107.78,-88.35 1087.07,-78.54"/>
<polygon fill="#63b8ff" stroke="#63b8ff" points="1088.36,-75.28 1077.82,-74.17 1085.36,-81.61 1088.36,-75.28"/>
</a>
</g>
</g>
</g>
</svg>
