<?xml version="1.0" encoding="UTF-8" standalone="no"?>
<!DOCTYPE svg PUBLIC "-//W3C//DTD SVG 1.1//EN"
 "http://www.w3.org/Graphics/SVG/1.1/DTD/svg11.dtd">
<!-- Generated by graphviz version 2.43.0 (0)
 -->
<!-- Title: /home/runner/work/R&#45;Type/R&#45;Type/Shared/systems/BoundsSystem.cpp Pages: 1 -->
<svg width="804pt" height="269pt"
 viewBox="0.00 0.00 803.71 269.00" xmlns="http://www.w3.org/2000/svg" xmlns:xlink="http://www.w3.org/1999/xlink">
<g id="graph0" class="graph" transform="scale(1 1) rotate(0) translate(4 265)">
<title>/home/runner/work/R&#45;Type/R&#45;Type/Shared/systems/BoundsSystem.cpp</title>
<!-- Node1 -->
<g id="Node000001" class="node">
<title>Node1</title>
<g id="a_Node000001"><a xlink:title=" ">
<polygon fill="#999999" stroke="#666666" points="254.37,-261 97.37,-261 97.37,-220 254.37,-220 254.37,-261"/>
<text text-anchor="start" x="105.37" y="-249" font-family="Helvetica,sans-Serif" font-size="10.00">/home/runner/work/R</text>
<text text-anchor="start" x="105.37" y="-238" font-family="Helvetica,sans-Serif" font-size="10.00">&#45;Type/R&#45;Type/Shared</text>
<text text-anchor="middle" x="175.87" y="-227" font-family="Helvetica,sans-Serif" font-size="10.00">/systems/BoundsSystem.cpp</text>
</a>
</g>
</g>
<!-- Node2 -->
<g id="Node000002" class="node">
<title>Node2</title>
<g id="a_Node000002"><a xlink:href="BoundsSystem_8hpp.html" target="_top" xlink:title=" ">
<polygon fill="white" stroke="#666666" points="313.37,-184 158.37,-184 158.37,-165 313.37,-165 313.37,-184"/>
<text text-anchor="middle" x="235.87" y="-172" font-family="Helvetica,sans-Serif" font-size="10.00">systems/BoundsSystem.hpp</text>
</a>
</g>
</g>
<!-- Node1&#45;&gt;Node2 -->
<g id="edge1_Node000001_Node000002" class="edge">
<title>Node1&#45;&gt;Node2</title>
<g id="a_edge1_Node000001_Node000002"><a xlink:title=" ">
<path fill="none" stroke="#63b8ff" d="M194.2,-219.95C202.66,-210.92 212.59,-200.33 220.64,-191.75"/>
<polygon fill="#63b8ff" stroke="#63b8ff" points="223.37,-193.95 227.66,-184.26 218.27,-189.16 223.37,-193.95"/>
</a>
</g>
</g>
<!-- Node6 -->
<g id="Node000006" class="node">
<title>Node6</title>
<g id="a_Node000006"><a xlink:title=" ">
<polygon fill="#e0e0e0" stroke="#999999" points="74.87,-184 14.87,-184 14.87,-165 74.87,-165 74.87,-184"/>
<text text-anchor="middle" x="44.87" y="-172" font-family="Helvetica,sans-Serif" font-size="10.00">iostream</text>
</a>
</g>
</g>
<!-- Node1&#45;&gt;Node6 -->
<g id="edge5_Node000001_Node000006" class="edge">
<title>Node1&#45;&gt;Node6</title>
<g id="a_edge5_Node000001_Node000006"><a xlink:title=" ">
<path fill="none" stroke="#63b8ff" d="M135.86,-219.95C114.97,-209.75 89.98,-197.54 71.49,-188.5"/>
<polygon fill="#63b8ff" stroke="#63b8ff" points="72.98,-185.34 62.46,-184.09 69.91,-191.63 72.98,-185.34"/>
</a>
</g>
</g>
<!-- Node7 -->
<g id="Node000007" class="node">
<title>Node7</title>
<g id="a_Node000007"><a xlink:title=" ">
<polygon fill="#e0e0e0" stroke="#999999" points="140.37,-184 93.37,-184 93.37,-165 140.37,-165 140.37,-184"/>
<text text-anchor="middle" x="116.87" y="-172" font-family="Helvetica,sans-Serif" font-size="10.00">vector</text>
</a>
</g>
</g>
<!-- Node1&#45;&gt;Node7 -->
<g id="edge6_Node000001_Node000007" class="edge">
<title>Node1&#45;&gt;Node7</title>
<g id="a_edge6_Node000001_Node000007"><a xlink:title=" ">
<path fill="none" stroke="#63b8ff" d="M157.85,-219.95C149.53,-210.92 139.77,-200.33 131.86,-191.75"/>
<polygon fill="#63b8ff" stroke="#63b8ff" points="134.3,-189.24 124.95,-184.26 129.15,-193.99 134.3,-189.24"/>
</a>
</g>
</g>
<!-- Node8 -->
<g id="Node000008" class="node">
<title>Node8</title>
<g id="a_Node000008"><a xlink:href="Boss_8hpp.html" target="_top" xlink:title=" ">
<polygon fill="white" stroke="#666666" points="378.37,-129 283.37,-129 283.37,-110 378.37,-110 378.37,-129"/>
<text text-anchor="middle" x="330.87" y="-117" font-family="Helvetica,sans-Serif" font-size="10.00">Player/Boss.hpp</text>
</a>
</g>
</g>
<!-- Node1&#45;&gt;Node8 -->
<g id="edge7_Node000001_Node000008" class="edge">
<title>Node1&#45;&gt;Node8</title>
<g id="a_edge7_Node000001_Node000008"><a xlink:title=" ">
<path fill="none" stroke="#63b8ff" d="M254.68,-226.53C280.12,-218.45 306.07,-205.32 322.87,-184 332.65,-171.59 334.04,-153.38 333.34,-139.64"/>
<polygon fill="#63b8ff" stroke="#63b8ff" points="336.79,-139.01 332.39,-129.37 329.82,-139.65 336.79,-139.01"/>
</a>
</g>
</g>
<!-- Node10 -->
<g id="Node000010" class="node">
<title>Node10</title>
<g id="a_Node000010"><a xlink:href="Enemy_8hpp.html" target="_top" xlink:title=" ">
<polygon fill="white" stroke="#666666" points="137.87,-74 33.87,-74 33.87,-55 137.87,-55 137.87,-74"/>
<text text-anchor="middle" x="85.87" y="-62" font-family="Helvetica,sans-Serif" font-size="10.00">Player/Enemy.hpp</text>
</a>
</g>
</g>
<!-- Node1&#45;&gt;Node10 -->
<g id="edge10_Node000001_Node000010" class="edge">
<title>Node1&#45;&gt;Node10</title>
<g id="a_edge10_Node000001_Node000010"><a xlink:title=" ">
<path fill="none" stroke="#63b8ff" d="M97.05,-233.84C63.27,-227.03 26.84,-212.9 5.87,-184 -4.57,-169.6 -0.02,-133.62 15.87,-110 25.15,-96.21 40.28,-85.82 54.11,-78.55"/>
<polygon fill="#63b8ff" stroke="#63b8ff" points="55.93,-81.55 63.38,-74.02 52.86,-75.27 55.93,-81.55"/>
</a>
</g>
</g>
<!-- Node11 -->
<g id="Node000011" class="node">
<title>Node11</title>
<g id="a_Node000011"><a xlink:href="PlayerEntity_8hpp.html" target="_top" xlink:title=" ">
<polygon fill="white" stroke="#666666" points="683.37,-184 554.37,-184 554.37,-165 683.37,-165 683.37,-184"/>
<text text-anchor="middle" x="618.87" y="-172" font-family="Helvetica,sans-Serif" font-size="10.00">Player/PlayerEntity.hpp</text>
</a>
</g>
</g>
<!-- Node1&#45;&gt;Node11 -->
<g id="edge12_Node000001_Node000011" class="edge">
<title>Node1&#45;&gt;Node11</title>
<g id="a_edge12_Node000001_Node000011"><a xlink:title=" ">
<path fill="none" stroke="#63b8ff" d="M254.56,-228.13C338.49,-216.01 470.11,-196.99 550.05,-185.44"/>
<polygon fill="#63b8ff" stroke="#63b8ff" points="550.62,-188.9 560.02,-184 549.62,-181.97 550.62,-188.9"/>
</a>
</g>
</g>
<!-- Node3 -->
<g id="Node000003" class="node">
<title>Node3</title>
<g id="a_Node000003"><a xlink:title=" ">
<polygon fill="#e0e0e0" stroke="#999999" points="394.87,-19 266.87,-19 266.87,0 394.87,0 394.87,-19"/>
<text text-anchor="middle" x="330.87" y="-7" font-family="Helvetica,sans-Serif" font-size="10.00">physics/Physics2D.hpp</text>
</a>
</g>
</g>
<!-- Node2&#45;&gt;Node3 -->
<g id="edge2_Node000002_Node000003" class="edge">
<title>Node2&#45;&gt;Node3</title>
<g id="a_edge2_Node000002_Node000003"><a xlink:title=" ">
<path fill="none" stroke="#63b8ff" d="M240.98,-164.74C255.99,-138.98 300.2,-63.13 320.48,-28.33"/>
<polygon fill="#63b8ff" stroke="#63b8ff" points="323.73,-29.71 325.74,-19.31 317.68,-26.18 323.73,-29.71"/>
</a>
</g>
</g>
<!-- Node4 -->
<g id="Node000004" class="node">
<title>Node4</title>
<g id="a_Node000004"><a xlink:title=" ">
<polygon fill="#e0e0e0" stroke="#999999" points="120.87,-129 24.87,-129 24.87,-110 120.87,-110 120.87,-129"/>
<text text-anchor="middle" x="72.87" y="-117" font-family="Helvetica,sans-Serif" font-size="10.00">ecs/Registry.hpp</text>
</a>
</g>
</g>
<!-- Node2&#45;&gt;Node4 -->
<g id="edge3_Node000002_Node000004" class="edge">
<title>Node2&#45;&gt;Node4</title>
<g id="a_edge3_Node000002_Node000004"><a xlink:title=" ">
<path fill="none" stroke="#63b8ff" d="M209.68,-164.98C182.44,-156.13 139.57,-142.19 109.09,-132.28"/>
<polygon fill="#63b8ff" stroke="#63b8ff" points="109.86,-128.85 99.27,-129.08 107.7,-135.5 109.86,-128.85"/>
</a>
</g>
</g>
<!-- Node5 -->
<g id="Node000005" class="node">
<title>Node5</title>
<g id="a_Node000005"><a xlink:title=" ">
<polygon fill="#e0e0e0" stroke="#999999" points="226.87,-129 138.87,-129 138.87,-110 226.87,-110 226.87,-129"/>
<text text-anchor="middle" x="182.87" y="-117" font-family="Helvetica,sans-Serif" font-size="10.00">ecs/Zipper.hpp</text>
</a>
</g>
</g>
<!-- Node2&#45;&gt;Node5 -->
<g id="edge4_Node000002_Node000005" class="edge">
<title>Node2&#45;&gt;Node5</title>
<g id="a_edge4_Node000002_Node000005"><a xlink:title=" ">
<path fill="none" stroke="#63b8ff" d="M227.12,-164.75C219.4,-157.03 207.97,-145.6 198.66,-136.28"/>
<polygon fill="#63b8ff" stroke="#63b8ff" points="201.01,-133.69 191.46,-129.09 196.06,-138.64 201.01,-133.69"/>
</a>
</g>
</g>
<!-- Node8&#45;&gt;Node3 -->
<g id="edge8_Node000008_Node000003" class="edge">
<title>Node8&#45;&gt;Node3</title>
<g id="a_edge8_Node000008_Node000003"><a xlink:title=" ">
<path fill="none" stroke="#63b8ff" d="M330.87,-109.66C330.87,-92.17 330.87,-52.8 330.87,-29.27"/>
<polygon fill="#63b8ff" stroke="#63b8ff" points="334.37,-29.16 330.87,-19.16 327.37,-29.16 334.37,-29.16"/>
</a>
</g>
</g>
<!-- Node9 -->
<g id="Node000009" class="node">
<title>Node9</title>
<g id="a_Node000009"><a xlink:title=" ">
<polygon fill="#e0e0e0" stroke="#999999" points="483.87,-74 399.87,-74 399.87,-55 483.87,-55 483.87,-74"/>
<text text-anchor="middle" x="441.87" y="-62" font-family="Helvetica,sans-Serif" font-size="10.00">ecs/Entity.hpp</text>
</a>
</g>
</g>
<!-- Node8&#45;&gt;Node9 -->
<g id="edge9_Node000008_Node000009" class="edge">
<title>Node8&#45;&gt;Node9</title>
<g id="a_edge9_Node000008_Node000009"><a xlink:title=" ">
<path fill="none" stroke="#63b8ff" d="M348.71,-109.98C366.48,-101.5 394.02,-88.35 414.55,-78.54"/>
<polygon fill="#63b8ff" stroke="#63b8ff" points="416.2,-81.64 423.72,-74.17 413.18,-75.32 416.2,-81.64"/>
</a>
</g>
</g>
<!-- Node10&#45;&gt;Node3 -->
<g id="edge11_Node000010_Node000003" class="edge">
<title>Node10&#45;&gt;Node3</title>
<g id="a_edge11_Node000010_Node000003"><a xlink:title=" ">
<path fill="none" stroke="#63b8ff" d="M125.24,-54.98C167.62,-45.82 235.13,-31.21 281.15,-21.26"/>
<polygon fill="#63b8ff" stroke="#63b8ff" points="282.17,-24.62 291.2,-19.08 280.69,-17.78 282.17,-24.62"/>
</a>
</g>
</g>
<!-- Node11&#45;&gt;Node3 -->
<g id="edge19_Node000011_Node000003" class="edge">
<title>Node11&#45;&gt;Node3</title>
<g id="a_edge19_Node000011_Node000003"><a xlink:title=" ">
<path fill="none" stroke="#63b8ff" d="M682.19,-164.96C724.52,-157.8 774.77,-146 787.87,-129 813.42,-95.85 768.49,-69.93 739.87,-55 683.39,-25.54 507.05,-15.53 405.31,-12.17"/>
<polygon fill="#63b8ff" stroke="#63b8ff" points="405.2,-8.66 395.09,-11.84 404.98,-15.66 405.2,-8.66"/>
</a>
</g>
</g>
<!-- Node12 -->
<g id="Node000012" class="node">
<title>Node12</title>
<g id="a_Node000012"><a xlink:title=" ">
<polygon fill="#e0e0e0" stroke="#999999" points="650.87,-129 586.87,-129 586.87,-110 650.87,-110 650.87,-129"/>
<text text-anchor="middle" x="618.87" y="-117" font-family="Helvetica,sans-Serif" font-size="10.00">algorithm</text>
</a>
</g>
</g>
<!-- Node11&#45;&gt;Node12 -->
<g id="edge13_Node000011_Node000012" class="edge">
<title>Node11&#45;&gt;Node12</title>
<g id="a_edge13_Node000011_Node000012"><a xlink:title=" ">
<path fill="none" stroke="#63b8ff" d="M618.87,-164.75C618.87,-157.8 618.87,-147.85 618.87,-139.13"/>
<polygon fill="#63b8ff" stroke="#63b8ff" points="622.37,-139.09 618.87,-129.09 615.37,-139.09 622.37,-139.09"/>
</a>
</g>
</g>
<!-- Node13 -->
<g id="Node000013" class="node">
<title>Node13</title>
<g id="a_Node000013"><a xlink:href="CollisionController_8hpp.html" target="_top" xlink:title=" ">
<polygon fill="white" stroke="#666666" points="568.87,-129 396.87,-129 396.87,-110 568.87,-110 568.87,-129"/>
<text text-anchor="middle" x="482.87" y="-117" font-family="Helvetica,sans-Serif" font-size="10.00">Collision/CollisionController.hpp</text>
</a>
</g>
</g>
<!-- Node11&#45;&gt;Node13 -->
<g id="edge14_Node000011_Node000013" class="edge">
<title>Node11&#45;&gt;Node13</title>
<g id="a_edge14_Node000011_Node000013"><a xlink:title=" ">
<path fill="none" stroke="#63b8ff" d="M597.02,-164.98C574.75,-156.3 539.97,-142.75 514.65,-132.88"/>
<polygon fill="#63b8ff" stroke="#63b8ff" points="515.71,-129.54 505.12,-129.17 513.17,-136.06 515.71,-129.54"/>
</a>
</g>
</g>
<!-- Node14 -->
<g id="Node000014" class="node">
<title>Node14</title>
<g id="a_Node000014"><a xlink:href="Weapon_8hpp.html" target="_top" xlink:title=" ">
<polygon fill="white" stroke="#666666" points="778.87,-129 668.87,-129 668.87,-110 778.87,-110 778.87,-129"/>
<text text-anchor="middle" x="723.87" y="-117" font-family="Helvetica,sans-Serif" font-size="10.00">Player/Weapon.hpp</text>
</a>
</g>
</g>
<!-- Node11&#45;&gt;Node14 -->
<g id="edge16_Node000011_Node000014" class="edge">
<title>Node11&#45;&gt;Node14</title>
<g id="a_edge16_Node000011_Node000014"><a xlink:title=" ">
<path fill="none" stroke="#63b8ff" d="M635.74,-164.98C652.48,-156.54 678.37,-143.47 697.77,-133.68"/>
<polygon fill="#63b8ff" stroke="#63b8ff" points="699.35,-136.8 706.7,-129.17 696.19,-130.55 699.35,-136.8"/>
</a>
</g>
</g>
<!-- Node13&#45;&gt;Node9 -->
<g id="edge15_Node000013_Node000009" class="edge">
<title>Node13&#45;&gt;Node9</title>
<g id="a_edge15_Node000013_Node000009"><a xlink:title=" ">
<path fill="none" stroke="#63b8ff" d="M476.1,-109.75C470.31,-102.26 461.82,-91.28 454.74,-82.13"/>
<polygon fill="#63b8ff" stroke="#63b8ff" points="457.41,-79.86 448.52,-74.09 451.87,-84.14 457.41,-79.86"/>
</a>
</g>
</g>
<!-- Node15 -->
<g id="Node000015" class="node">
<title>Node15</title>
<g id="a_Node000015"><a xlink:href="Projectile_8hpp.html" target="_top" xlink:title=" ">
<polygon fill="white" stroke="#666666" points="730.87,-74 550.87,-74 550.87,-55 730.87,-55 730.87,-74"/>
<text text-anchor="middle" x="640.87" y="-62" font-family="Helvetica,sans-Serif" font-size="10.00">components/Player/Projectile.hpp</text>
</a>
</g>
</g>
<!-- Node14&#45;&gt;Node15 -->
<g id="edge17_Node000014_Node000015" class="edge">
<title>Node14&#45;&gt;Node15</title>
<g id="a_edge17_Node000014_Node000015"><a xlink:title=" ">
<path fill="none" stroke="#63b8ff" d="M710.54,-109.98C697.79,-101.84 678.32,-89.41 663.2,-79.76"/>
<polygon fill="#63b8ff" stroke="#63b8ff" points="664.76,-76.6 654.45,-74.17 661,-82.5 664.76,-76.6"/>
</a>
</g>
</g>
<!-- Node15&#45;&gt;Node3 -->
<g id="edge18_Node000015_Node000003" class="edge">
<title>Node15&#45;&gt;Node3</title>
<g id="a_edge18_Node000015_Node000003"><a xlink:title=" ">
<path fill="none" stroke="#63b8ff" d="M591.07,-54.98C536.57,-45.67 449.24,-30.74 390.98,-20.78"/>
<polygon fill="#63b8ff" stroke="#63b8ff" points="391.26,-17.27 380.81,-19.04 390.08,-24.17 391.26,-17.27"/>
</a>
</g>
</g>
</g>
</svg>
