<?xml version="1.0" encoding="UTF-8" standalone="no"?>
<!DOCTYPE svg PUBLIC "-//W3C//DTD SVG 1.1//EN"
 "http://www.w3.org/Graphics/SVG/1.1/DTD/svg11.dtd">
<!-- Generated by graphviz version 2.43.0 (0)
 -->
<!-- Title: /home/runner/work/R&#45;Type/R&#45;Type/Shared/systems/ChargedShoot.cpp Pages: 1 -->
<svg width="1875pt" height="324pt"
 viewBox="0.00 0.00 1875.00 324.00" xmlns="http://www.w3.org/2000/svg" xmlns:xlink="http://www.w3.org/1999/xlink">
<g id="graph0" class="graph" transform="scale(1 1) rotate(0) translate(4 320)">
<title>/home/runner/work/R&#45;Type/R&#45;Type/Shared/systems/ChargedShoot.cpp</title>
<!-- Node1 -->
<g id="Node000001" class="node">
<title>Node1</title>
<g id="a_Node000001"><a xlink:title=" ">
<polygon fill="#999999" stroke="#666666" points="1304,-316 1152,-316 1152,-275 1304,-275 1304,-316"/>
<text text-anchor="start" x="1160" y="-304" font-family="Helvetica,sans-Serif" font-size="10.00">/home/runner/work/R</text>
<text text-anchor="start" x="1160" y="-293" font-family="Helvetica,sans-Serif" font-size="10.00">&#45;Type/R&#45;Type/Shared</text>
<text text-anchor="middle" x="1228" y="-282" font-family="Helvetica,sans-Serif" font-size="10.00">/systems/ChargedShoot.cpp</text>
</a>
</g>
</g>
<!-- Node2 -->
<g id="Node000002" class="node">
<title>Node2</title>
<g id="a_Node000002"><a xlink:href="ChargedShoot_8hpp.html" target="_top" xlink:title=" ">
<polygon fill="white" stroke="#666666" points="284,-239 134,-239 134,-220 284,-220 284,-239"/>
<text text-anchor="middle" x="209" y="-227" font-family="Helvetica,sans-Serif" font-size="10.00">systems/ChargedShoot.hpp</text>
</a>
</g>
</g>
<!-- Node1&#45;&gt;Node2 -->
<g id="edge1_Node000001_Node000002" class="edge">
<title>Node1&#45;&gt;Node2</title>
<g id="a_edge1_Node000001_Node000002"><a xlink:title=" ">
<path fill="none" stroke="#63b8ff" d="M1151.83,-289.72C965.83,-278.03 489.5,-248.12 294.34,-235.86"/>
<polygon fill="#63b8ff" stroke="#63b8ff" points="294.34,-232.35 284.14,-235.22 293.9,-239.34 294.34,-232.35"/>
</a>
</g>
</g>
<!-- Node12 -->
<g id="Node000012" class="node">
<title>Node12</title>
<g id="a_Node000012"><a xlink:title=" ">
<polygon fill="#e0e0e0" stroke="#999999" points="1867,-184 1807,-184 1807,-165 1867,-165 1867,-184"/>
<text text-anchor="middle" x="1837" y="-172" font-family="Helvetica,sans-Serif" font-size="10.00">iostream</text>
</a>
</g>
</g>
<!-- Node1&#45;&gt;Node12 -->
<g id="edge13_Node000001_Node000012" class="edge">
<title>Node1&#45;&gt;Node12</title>
<g id="a_edge13_Node000001_Node000012"><a xlink:title=" ">
<path fill="none" stroke="#63b8ff" d="M1304.21,-279.61C1434.75,-254.1 1696.75,-202.91 1796.86,-183.34"/>
<polygon fill="#63b8ff" stroke="#63b8ff" points="1797.72,-186.74 1806.86,-181.39 1796.38,-179.87 1797.72,-186.74"/>
</a>
</g>
</g>
<!-- Node13 -->
<g id="Node000013" class="node">
<title>Node13</title>
<g id="a_Node000013"><a xlink:href="EntityHelper_8hpp.html" target="_top" xlink:title=" ">
<polygon fill="white" stroke="#666666" points="1297,-239 1159,-239 1159,-220 1297,-220 1297,-239"/>
<text text-anchor="middle" x="1228" y="-227" font-family="Helvetica,sans-Serif" font-size="10.00">Helpers/EntityHelper.hpp</text>
</a>
</g>
</g>
<!-- Node1&#45;&gt;Node13 -->
<g id="edge14_Node000001_Node000013" class="edge">
<title>Node1&#45;&gt;Node13</title>
<g id="a_edge14_Node000001_Node000013"><a xlink:title=" ">
<path fill="none" stroke="#63b8ff" d="M1228,-274.95C1228,-266.85 1228,-257.5 1228,-249.47"/>
<polygon fill="#63b8ff" stroke="#63b8ff" points="1231.5,-249.26 1228,-239.26 1224.5,-249.26 1231.5,-249.26"/>
</a>
</g>
</g>
<!-- Node3 -->
<g id="Node000003" class="node">
<title>Node3</title>
<g id="a_Node000003"><a xlink:href="PlayerEntity_8hpp.html" target="_top" xlink:title=" ">
<polygon fill="white" stroke="#666666" points="273.5,-184 144.5,-184 144.5,-165 273.5,-165 273.5,-184"/>
<text text-anchor="middle" x="209" y="-172" font-family="Helvetica,sans-Serif" font-size="10.00">Player/PlayerEntity.hpp</text>
</a>
</g>
</g>
<!-- Node2&#45;&gt;Node3 -->
<g id="edge2_Node000002_Node000003" class="edge">
<title>Node2&#45;&gt;Node3</title>
<g id="a_edge2_Node000002_Node000003"><a xlink:title=" ">
<path fill="none" stroke="#63b8ff" d="M209,-219.75C209,-212.8 209,-202.85 209,-194.13"/>
<polygon fill="#63b8ff" stroke="#63b8ff" points="212.5,-194.09 209,-184.09 205.5,-194.09 212.5,-194.09"/>
</a>
</g>
</g>
<!-- Node9 -->
<g id="Node000009" class="node">
<title>Node9</title>
<g id="a_Node000009"><a xlink:title=" ">
<polygon fill="#e0e0e0" stroke="#999999" points="1094,-19 966,-19 966,0 1094,0 1094,-19"/>
<text text-anchor="middle" x="1030" y="-7" font-family="Helvetica,sans-Serif" font-size="10.00">physics/Physics2D.hpp</text>
</a>
</g>
</g>
<!-- Node2&#45;&gt;Node9 -->
<g id="edge10_Node000002_Node000009" class="edge">
<title>Node2&#45;&gt;Node9</title>
<g id="a_edge10_Node000002_Node000009"><a xlink:title=" ">
<path fill="none" stroke="#63b8ff" d="M181.71,-219.88C165,-213.03 144.96,-201.62 135,-184 130.84,-176.65 132.2,-172.97 135,-165 155.72,-105.92 167.34,-83.66 223,-55 287.12,-21.98 768.73,-13.3 955.91,-11.16"/>
<polygon fill="#63b8ff" stroke="#63b8ff" points="955.98,-14.66 965.94,-11.04 955.9,-7.66 955.98,-14.66"/>
</a>
</g>
</g>
<!-- Node10 -->
<g id="Node000010" class="node">
<title>Node10</title>
<g id="a_Node000010"><a xlink:title=" ">
<polygon fill="#e0e0e0" stroke="#999999" points="388,-184 292,-184 292,-165 388,-165 388,-184"/>
<text text-anchor="middle" x="340" y="-172" font-family="Helvetica,sans-Serif" font-size="10.00">ecs/Registry.hpp</text>
</a>
</g>
</g>
<!-- Node2&#45;&gt;Node10 -->
<g id="edge11_Node000002_Node000010" class="edge">
<title>Node2&#45;&gt;Node10</title>
<g id="a_edge11_Node000002_Node000010"><a xlink:title=" ">
<path fill="none" stroke="#63b8ff" d="M230.05,-219.98C251.41,-211.34 284.7,-197.87 309.06,-188.02"/>
<polygon fill="#63b8ff" stroke="#63b8ff" points="310.61,-191.17 318.57,-184.17 307.99,-184.68 310.61,-191.17"/>
</a>
</g>
</g>
<!-- Node11 -->
<g id="Node000011" class="node">
<title>Node11</title>
<g id="a_Node000011"><a xlink:title=" ">
<polygon fill="#e0e0e0" stroke="#999999" points="88,-184 0,-184 0,-165 88,-165 88,-184"/>
<text text-anchor="middle" x="44" y="-172" font-family="Helvetica,sans-Serif" font-size="10.00">ecs/Zipper.hpp</text>
</a>
</g>
</g>
<!-- Node2&#45;&gt;Node11 -->
<g id="edge12_Node000002_Node000011" class="edge">
<title>Node2&#45;&gt;Node11</title>
<g id="a_edge12_Node000002_Node000011"><a xlink:title=" ">
<path fill="none" stroke="#63b8ff" d="M182.49,-219.98C154.79,-211.09 111.14,-197.07 80.26,-187.15"/>
<polygon fill="#63b8ff" stroke="#63b8ff" points="81.31,-183.81 70.72,-184.08 79.17,-190.47 81.31,-183.81"/>
</a>
</g>
</g>
<!-- Node4 -->
<g id="Node000004" class="node">
<title>Node4</title>
<g id="a_Node000004"><a xlink:title=" ">
<polygon fill="#e0e0e0" stroke="#999999" points="388,-129 324,-129 324,-110 388,-110 388,-129"/>
<text text-anchor="middle" x="356" y="-117" font-family="Helvetica,sans-Serif" font-size="10.00">algorithm</text>
</a>
</g>
</g>
<!-- Node3&#45;&gt;Node4 -->
<g id="edge3_Node000003_Node000004" class="edge">
<title>Node3&#45;&gt;Node4</title>
<g id="a_edge3_Node000003_Node000004"><a xlink:title=" ">
<path fill="none" stroke="#63b8ff" d="M232.62,-164.98C256.9,-156.23 294.95,-142.51 322.37,-132.62"/>
<polygon fill="#63b8ff" stroke="#63b8ff" points="323.73,-135.85 331.95,-129.17 321.36,-129.27 323.73,-135.85"/>
</a>
</g>
</g>
<!-- Node5 -->
<g id="Node000005" class="node">
<title>Node5</title>
<g id="a_Node000005"><a xlink:href="CollisionController_8hpp.html" target="_top" xlink:title=" ">
<polygon fill="white" stroke="#666666" points="883,-129 711,-129 711,-110 883,-110 883,-129"/>
<text text-anchor="middle" x="797" y="-117" font-family="Helvetica,sans-Serif" font-size="10.00">Collision/CollisionController.hpp</text>
</a>
</g>
</g>
<!-- Node3&#45;&gt;Node5 -->
<g id="edge4_Node000003_Node000005" class="edge">
<title>Node3&#45;&gt;Node5</title>
<g id="a_edge4_Node000003_Node000005"><a xlink:title=" ">
<path fill="none" stroke="#63b8ff" d="M273.56,-165.97C276.75,-165.64 279.91,-165.31 283,-165 465.27,-146.69 513.56,-145.27 700.73,-129.02"/>
<polygon fill="#63b8ff" stroke="#63b8ff" points="701.25,-132.49 710.91,-128.13 700.64,-125.51 701.25,-132.49"/>
</a>
</g>
</g>
<!-- Node7 -->
<g id="Node000007" class="node">
<title>Node7</title>
<g id="a_Node000007"><a xlink:href="Weapon_8hpp.html" target="_top" xlink:title=" ">
<polygon fill="white" stroke="#666666" points="306,-129 196,-129 196,-110 306,-110 306,-129"/>
<text text-anchor="middle" x="251" y="-117" font-family="Helvetica,sans-Serif" font-size="10.00">Player/Weapon.hpp</text>
</a>
</g>
</g>
<!-- Node3&#45;&gt;Node7 -->
<g id="edge6_Node000003_Node000007" class="edge">
<title>Node3&#45;&gt;Node7</title>
<g id="a_edge6_Node000003_Node000007"><a xlink:title=" ">
<path fill="none" stroke="#63b8ff" d="M215.94,-164.75C221.87,-157.26 230.57,-146.28 237.82,-137.13"/>
<polygon fill="#63b8ff" stroke="#63b8ff" points="240.73,-139.1 244.19,-129.09 235.24,-134.75 240.73,-139.1"/>
</a>
</g>
</g>
<!-- Node3&#45;&gt;Node9 -->
<g id="edge9_Node000003_Node000009" class="edge">
<title>Node3&#45;&gt;Node9</title>
<g id="a_edge9_Node000003_Node000009"><a xlink:title=" ">
<path fill="none" stroke="#63b8ff" d="M201.27,-164.66C190.99,-151.79 175.4,-127.51 187,-110 221.66,-57.71 255.93,-69.38 317,-55 436.68,-26.82 798.67,-15.6 955.84,-11.97"/>
<polygon fill="#63b8ff" stroke="#63b8ff" points="955.97,-15.47 965.89,-11.74 955.81,-8.47 955.97,-15.47"/>
</a>
</g>
</g>
<!-- Node6 -->
<g id="Node000006" class="node">
<title>Node6</title>
<g id="a_Node000006"><a xlink:title=" ">
<polygon fill="#e0e0e0" stroke="#999999" points="861,-74 777,-74 777,-55 861,-55 861,-74"/>
<text text-anchor="middle" x="819" y="-62" font-family="Helvetica,sans-Serif" font-size="10.00">ecs/Entity.hpp</text>
</a>
</g>
</g>
<!-- Node5&#45;&gt;Node6 -->
<g id="edge5_Node000005_Node000006" class="edge">
<title>Node5&#45;&gt;Node6</title>
<g id="a_edge5_Node000005_Node000006"><a xlink:title=" ">
<path fill="none" stroke="#63b8ff" d="M800.63,-109.75C803.58,-102.65 807.83,-92.4 811.51,-83.56"/>
<polygon fill="#63b8ff" stroke="#63b8ff" points="814.83,-84.67 815.43,-74.09 808.37,-81.98 814.83,-84.67"/>
</a>
</g>
</g>
<!-- Node8 -->
<g id="Node000008" class="node">
<title>Node8</title>
<g id="a_Node000008"><a xlink:href="Projectile_8hpp.html" target="_top" xlink:title=" ">
<polygon fill="white" stroke="#666666" points="506,-74 326,-74 326,-55 506,-55 506,-74"/>
<text text-anchor="middle" x="416" y="-62" font-family="Helvetica,sans-Serif" font-size="10.00">components/Player/Projectile.hpp</text>
</a>
</g>
</g>
<!-- Node7&#45;&gt;Node8 -->
<g id="edge7_Node000007_Node000008" class="edge">
<title>Node7&#45;&gt;Node8</title>
<g id="a_edge7_Node000007_Node000008"><a xlink:title=" ">
<path fill="none" stroke="#63b8ff" d="M277.51,-109.98C305.21,-101.09 348.86,-87.07 379.74,-77.15"/>
<polygon fill="#63b8ff" stroke="#63b8ff" points="380.83,-80.47 389.28,-74.08 378.69,-73.81 380.83,-80.47"/>
</a>
</g>
</g>
<!-- Node8&#45;&gt;Node9 -->
<g id="edge8_Node000008_Node000009" class="edge">
<title>Node8&#45;&gt;Node9</title>
<g id="a_edge8_Node000008_Node000009"><a xlink:title=" ">
<path fill="none" stroke="#63b8ff" d="M506.27,-55.71C627.97,-45.2 842.42,-26.69 955.46,-16.93"/>
<polygon fill="#63b8ff" stroke="#63b8ff" points="956.08,-20.39 965.74,-16.05 955.48,-13.42 956.08,-20.39"/>
</a>
</g>
</g>
<!-- Node13&#45;&gt;Node3 -->
<g id="edge29_Node000013_Node000003" class="edge">
<title>Node13&#45;&gt;Node3</title>
<g id="a_edge29_Node000013_Node000003"><a xlink:title=" ">
<path fill="none" stroke="#63b8ff" d="M1158.83,-226.84C1004.14,-222.77 618.24,-210.72 283.92,-184.01"/>
<polygon fill="#63b8ff" stroke="#63b8ff" points="283.8,-180.49 273.55,-183.17 283.24,-187.46 283.8,-180.49"/>
</a>
</g>
</g>
<!-- Node13&#45;&gt;Node8 -->
<g id="edge30_Node000013_Node000008" class="edge">
<title>Node13&#45;&gt;Node8</title>
<g id="a_edge30_Node000013_Node000008"><a xlink:title=" ">
<path fill="none" stroke="#63b8ff" d="M1158.98,-226.96C970.93,-222.45 461.69,-208.07 435,-184 407.24,-158.96 409.06,-110.8 412.63,-84.23"/>
<polygon fill="#63b8ff" stroke="#63b8ff" points="416.15,-84.43 414.24,-74.01 409.23,-83.34 416.15,-84.43"/>
</a>
</g>
</g>
<!-- Node13&#45;&gt;Node9 -->
<g id="edge49_Node000013_Node000009" class="edge">
<title>Node13&#45;&gt;Node9</title>
<g id="a_edge49_Node000013_Node000009"><a xlink:title=" ">
<path fill="none" stroke="#63b8ff" d="M1297,-226.52C1366.16,-222.91 1465.74,-212.73 1490,-184 1499.57,-172.67 1512.75,-139.64 1488,-110 1439.72,-52.18 1221.68,-25.95 1104.71,-15.86"/>
<polygon fill="#63b8ff" stroke="#63b8ff" points="1104.66,-12.34 1094.4,-14.99 1104.07,-19.32 1104.66,-12.34"/>
</a>
</g>
</g>
<!-- Node13&#45;&gt;Node10 -->
<g id="edge47_Node000013_Node000010" class="edge">
<title>Node13&#45;&gt;Node10</title>
<g id="a_edge47_Node000013_Node000010"><a xlink:title=" ">
<path fill="none" stroke="#63b8ff" d="M1158.78,-226.7C1016.68,-222.57 681.85,-210.68 402,-184 400.72,-183.88 399.43,-183.75 398.13,-183.61"/>
<polygon fill="#63b8ff" stroke="#63b8ff" points="398.35,-180.12 388.02,-182.48 397.57,-187.07 398.35,-180.12"/>
</a>
</g>
</g>
<!-- Node13&#45;&gt;Node12 -->
<g id="edge15_Node000013_Node000012" class="edge">
<title>Node13&#45;&gt;Node12</title>
<g id="a_edge15_Node000013_Node000012"><a xlink:title=" ">
<path fill="none" stroke="#63b8ff" d="M1297.41,-225.54C1404.26,-220.43 1615.3,-208.08 1793,-184 1794.26,-183.83 1795.53,-183.65 1796.82,-183.45"/>
<polygon fill="#63b8ff" stroke="#63b8ff" points="1797.48,-186.89 1806.78,-181.8 1796.34,-179.98 1797.48,-186.89"/>
</a>
</g>
</g>
<!-- Node14 -->
<g id="Node000014" class="node">
<title>Node14</title>
<g id="a_Node000014"><a xlink:title=" ">
<polygon fill="#e0e0e0" stroke="#999999" points="488,-184 444,-184 444,-165 488,-165 488,-184"/>
<text text-anchor="middle" x="466" y="-172" font-family="Helvetica,sans-Serif" font-size="10.00">string</text>
</a>
</g>
</g>
<!-- Node13&#45;&gt;Node14 -->
<g id="edge16_Node000013_Node000014" class="edge">
<title>Node13&#45;&gt;Node14</title>
<g id="a_edge16_Node000013_Node000014"><a xlink:title=" ">
<path fill="none" stroke="#63b8ff" d="M1158.78,-228.18C1029.18,-226.7 741.39,-219.33 502,-184 500.75,-183.82 499.48,-183.61 498.2,-183.38"/>
<polygon fill="#63b8ff" stroke="#63b8ff" points="498.85,-179.95 488.35,-181.4 497.47,-186.81 498.85,-179.95"/>
</a>
</g>
</g>
<!-- Node15 -->
<g id="Node000015" class="node">
<title>Node15</title>
<g id="a_Node000015"><a xlink:title=" ">
<polygon fill="#e0e0e0" stroke="#999999" points="1268.5,-129 1223.5,-129 1223.5,-110 1268.5,-110 1268.5,-129"/>
<text text-anchor="middle" x="1246" y="-117" font-family="Helvetica,sans-Serif" font-size="10.00">utility</text>
</a>
</g>
</g>
<!-- Node13&#45;&gt;Node15 -->
<g id="edge17_Node000013_Node000015" class="edge">
<title>Node13&#45;&gt;Node15</title>
<g id="a_edge17_Node000013_Node000015"><a xlink:title=" ">
<path fill="none" stroke="#63b8ff" d="M1237.88,-219.75C1246.39,-211.5 1258.05,-198.3 1263,-184 1268.24,-168.85 1262.62,-151.21 1256.47,-138.37"/>
<polygon fill="#63b8ff" stroke="#63b8ff" points="1259.4,-136.44 1251.62,-129.25 1253.22,-139.72 1259.4,-136.44"/>
</a>
</g>
</g>
<!-- Node16 -->
<g id="Node000016" class="node">
<title>Node16</title>
<g id="a_Node000016"><a xlink:title=" ">
<polygon fill="#e0e0e0" stroke="#999999" points="1333.5,-129 1286.5,-129 1286.5,-110 1333.5,-110 1333.5,-129"/>
<text text-anchor="middle" x="1310" y="-117" font-family="Helvetica,sans-Serif" font-size="10.00">vector</text>
</a>
</g>
</g>
<!-- Node13&#45;&gt;Node16 -->
<g id="edge18_Node000013_Node000016" class="edge">
<title>Node13&#45;&gt;Node16</title>
<g id="a_edge18_Node000013_Node000016"><a xlink:title=" ">
<path fill="none" stroke="#63b8ff" d="M1297.2,-224.52C1357.04,-219.46 1437,-208.26 1457,-184 1462.37,-177.48 1462.03,-171.78 1457,-165 1453.51,-160.3 1385.7,-141.13 1343.41,-129.53"/>
<polygon fill="#63b8ff" stroke="#63b8ff" points="1344.09,-126.09 1333.52,-126.83 1342.25,-132.84 1344.09,-126.09"/>
</a>
</g>
</g>
<!-- Node17 -->
<g id="Node000017" class="node">
<title>Node17</title>
<g id="a_Node000017"><a xlink:href="Items_8hpp.html" target="_top" xlink:title=" ">
<polygon fill="white" stroke="#666666" points="812,-184 702,-184 702,-165 812,-165 812,-184"/>
<text text-anchor="middle" x="757" y="-172" font-family="Helvetica,sans-Serif" font-size="10.00">Collision/Items.hpp</text>
</a>
</g>
</g>
<!-- Node13&#45;&gt;Node17 -->
<g id="edge19_Node000013_Node000017" class="edge">
<title>Node13&#45;&gt;Node17</title>
<g id="a_edge19_Node000013_Node000017"><a xlink:title=" ">
<path fill="none" stroke="#63b8ff" d="M1158.81,-221.43C1079.92,-213.25 946.8,-199.12 822.25,-184.13"/>
<polygon fill="#63b8ff" stroke="#63b8ff" points="822.5,-180.63 812.15,-182.91 821.66,-187.58 822.5,-180.63"/>
</a>
</g>
</g>
<!-- Node18 -->
<g id="Node000018" class="node">
<title>Node18</title>
<g id="a_Node000018"><a xlink:href="Boss_8hpp.html" target="_top" xlink:title=" ">
<polygon fill="white" stroke="#666666" points="1826.5,-129 1731.5,-129 1731.5,-110 1826.5,-110 1826.5,-129"/>
<text text-anchor="middle" x="1779" y="-117" font-family="Helvetica,sans-Serif" font-size="10.00">Player/Boss.hpp</text>
</a>
</g>
</g>
<!-- Node13&#45;&gt;Node18 -->
<g id="edge20_Node000013_Node000018" class="edge">
<title>Node13&#45;&gt;Node18</title>
<g id="a_edge20_Node000013_Node000018"><a xlink:title=" ">
<path fill="none" stroke="#63b8ff" d="M1297.2,-227C1433.12,-223.44 1724.83,-212.55 1760,-184 1773.11,-173.36 1777.44,-154.05 1778.74,-139.5"/>
<polygon fill="#63b8ff" stroke="#63b8ff" points="1782.25,-139.28 1779.24,-129.12 1775.26,-138.94 1782.25,-139.28"/>
</a>
</g>
</g>
<!-- Node19 -->
<g id="Node000019" class="node">
<title>Node19</title>
<g id="a_Node000019"><a xlink:href="Enemy_8hpp.html" target="_top" xlink:title=" ">
<polygon fill="white" stroke="#666666" points="1639,-129 1535,-129 1535,-110 1639,-110 1639,-129"/>
<text text-anchor="middle" x="1587" y="-117" font-family="Helvetica,sans-Serif" font-size="10.00">Player/Enemy.hpp</text>
</a>
</g>
</g>
<!-- Node13&#45;&gt;Node19 -->
<g id="edge23_Node000013_Node000019" class="edge">
<title>Node13&#45;&gt;Node19</title>
<g id="a_edge23_Node000013_Node000019"><a xlink:title=" ">
<path fill="none" stroke="#63b8ff" d="M1297.14,-227.96C1384.23,-225.87 1527.32,-217.29 1567,-184 1580,-173.1 1584.66,-153.82 1586.28,-139.36"/>
<polygon fill="#63b8ff" stroke="#63b8ff" points="1589.8,-139.27 1587.03,-129.05 1582.82,-138.77 1589.8,-139.27"/>
</a>
</g>
</g>
<!-- Node20 -->
<g id="Node000020" class="node">
<title>Node20</title>
<g id="a_Node000020"><a xlink:href="EnemySpawn_8hpp.html" target="_top" xlink:title=" ">
<polygon fill="white" stroke="#666666" points="1448.5,-184 1311.5,-184 1311.5,-165 1448.5,-165 1448.5,-184"/>
<text text-anchor="middle" x="1380" y="-172" font-family="Helvetica,sans-Serif" font-size="10.00">Player/EnemySpawn.hpp</text>
</a>
</g>
</g>
<!-- Node13&#45;&gt;Node20 -->
<g id="edge25_Node000013_Node000020" class="edge">
<title>Node13&#45;&gt;Node20</title>
<g id="a_edge25_Node000013_Node000020"><a xlink:title=" ">
<path fill="none" stroke="#63b8ff" d="M1252.42,-219.98C1277.72,-211.16 1317.45,-197.31 1345.86,-187.41"/>
<polygon fill="#63b8ff" stroke="#63b8ff" points="1347.1,-190.68 1355.39,-184.08 1344.79,-184.07 1347.1,-190.68"/>
</a>
</g>
</g>
<!-- Node21 -->
<g id="Node000021" class="node">
<title>Node21</title>
<g id="a_Node000021"><a xlink:href="BossPart_8hpp.html" target="_top" xlink:title=" ">
<polygon fill="white" stroke="#666666" points="692.5,-129 549.5,-129 549.5,-110 692.5,-110 692.5,-129"/>
<text text-anchor="middle" x="621" y="-117" font-family="Helvetica,sans-Serif" font-size="10.00">components/BossPart.hpp</text>
</a>
</g>
</g>
<!-- Node13&#45;&gt;Node21 -->
<g id="edge31_Node000013_Node000021" class="edge">
<title>Node13&#45;&gt;Node21</title>
<g id="a_edge31_Node000013_Node000021"><a xlink:title=" ">
<path fill="none" stroke="#63b8ff" d="M1158.96,-226.59C987.81,-221.51 556.13,-206.53 535,-184 515.21,-162.9 551.4,-143.95 582.74,-132.36"/>
<polygon fill="#63b8ff" stroke="#63b8ff" points="583.98,-135.63 592.25,-129 581.65,-129.03 583.98,-135.63"/>
</a>
</g>
</g>
<!-- Node22 -->
<g id="Node000022" class="node">
<title>Node22</title>
<g id="a_Node000022"><a xlink:href="Force_8hpp.html" target="_top" xlink:title=" ">
<polygon fill="white" stroke="#666666" points="1478.5,-129 1351.5,-129 1351.5,-110 1478.5,-110 1478.5,-129"/>
<text text-anchor="middle" x="1415" y="-117" font-family="Helvetica,sans-Serif" font-size="10.00">components/Force.hpp</text>
</a>
</g>
</g>
<!-- Node13&#45;&gt;Node22 -->
<g id="edge34_Node000013_Node000022" class="edge">
<title>Node13&#45;&gt;Node22</title>
<g id="a_edge34_Node000013_Node000022"><a xlink:title=" ">
<path fill="none" stroke="#63b8ff" d="M1297.08,-225.56C1361.52,-221.19 1450.94,-210.43 1473,-184 1487.82,-166.25 1463.48,-146.73 1441.94,-134.09"/>
<polygon fill="#63b8ff" stroke="#63b8ff" points="1443.44,-130.92 1433,-129.11 1440.04,-137.03 1443.44,-130.92"/>
</a>
</g>
</g>
<!-- Node23 -->
<g id="Node000023" class="node">
<title>Node23</title>
<g id="a_Node000023"><a xlink:href="Levels_8hpp.html" target="_top" xlink:title=" ">
<polygon fill="white" stroke="#666666" points="1751,-184 1619,-184 1619,-165 1751,-165 1751,-184"/>
<text text-anchor="middle" x="1685" y="-172" font-family="Helvetica,sans-Serif" font-size="10.00">components/Levels.hpp</text>
</a>
</g>
</g>
<!-- Node13&#45;&gt;Node23 -->
<g id="edge37_Node000013_Node000023" class="edge">
<title>Node13&#45;&gt;Node23</title>
<g id="a_edge37_Node000013_Node000023"><a xlink:title=" ">
<path fill="none" stroke="#63b8ff" d="M1297.41,-220.45C1381.23,-210.73 1521.77,-194.43 1608.6,-184.36"/>
<polygon fill="#63b8ff" stroke="#63b8ff" points="1609.13,-187.82 1618.66,-183.19 1608.32,-180.87 1609.13,-187.82"/>
</a>
</g>
</g>
<!-- Node25 -->
<g id="Node000025" class="node">
<title>Node25</title>
<g id="a_Node000025"><a xlink:href="TileMap_8hpp.html" target="_top" xlink:title=" ">
<polygon fill="white" stroke="#666666" points="684,-184 544,-184 544,-165 684,-165 684,-184"/>
<text text-anchor="middle" x="614" y="-172" font-family="Helvetica,sans-Serif" font-size="10.00">components/TileMap.hpp</text>
</a>
</g>
</g>
<!-- Node13&#45;&gt;Node25 -->
<g id="edge43_Node000013_Node000025" class="edge">
<title>Node13&#45;&gt;Node25</title>
<g id="a_edge43_Node000013_Node000025"><a xlink:title=" ">
<path fill="none" stroke="#63b8ff" d="M1158.7,-223.27C1058.6,-215.61 867.46,-200.52 694.27,-184.1"/>
<polygon fill="#63b8ff" stroke="#63b8ff" points="694.49,-180.61 684.2,-183.14 693.83,-187.57 694.49,-180.61"/>
</a>
</g>
</g>
<!-- Node27 -->
<g id="Node000027" class="node">
<title>Node27</title>
<g id="a_Node000027"><a xlink:title=" ">
<polygon fill="#e0e0e0" stroke="#999999" points="974,-184 830,-184 830,-165 974,-165 974,-184"/>
<text text-anchor="middle" x="902" y="-172" font-family="Helvetica,sans-Serif" font-size="10.00">input/InputSubsystem.hpp</text>
</a>
</g>
</g>
<!-- Node13&#45;&gt;Node27 -->
<g id="edge48_Node000013_Node000027" class="edge">
<title>Node13&#45;&gt;Node27</title>
<g id="a_edge48_Node000013_Node000027"><a xlink:title=" ">
<path fill="none" stroke="#63b8ff" d="M1175.62,-219.98C1118.08,-210.63 1025.71,-195.61 964.45,-185.65"/>
<polygon fill="#63b8ff" stroke="#63b8ff" points="964.95,-182.19 954.52,-184.04 963.83,-189.1 964.95,-182.19"/>
</a>
</g>
</g>
<!-- Node28 -->
<g id="Node000028" class="node">
<title>Node28</title>
<g id="a_Node000028"><a xlink:title=" ">
<polygon fill="#e0e0e0" stroke="#999999" points="1183.5,-184 992.5,-184 992.5,-165 1183.5,-165 1183.5,-184"/>
<text text-anchor="middle" x="1088" y="-172" font-family="Helvetica,sans-Serif" font-size="10.00">rendering/RenderingSubsystem.hpp</text>
</a>
</g>
</g>
<!-- Node13&#45;&gt;Node28 -->
<g id="edge50_Node000013_Node000028" class="edge">
<title>Node13&#45;&gt;Node28</title>
<g id="a_edge50_Node000013_Node000028"><a xlink:title=" ">
<path fill="none" stroke="#63b8ff" d="M1205.51,-219.98C1182.48,-211.27 1146.46,-197.63 1120.37,-187.75"/>
<polygon fill="#63b8ff" stroke="#63b8ff" points="1121.49,-184.44 1110.9,-184.17 1119.02,-190.98 1121.49,-184.44"/>
</a>
</g>
</g>
<!-- Node29 -->
<g id="Node000029" class="node">
<title>Node29</title>
<g id="a_Node000029"><a xlink:title=" ">
<polygon fill="#e0e0e0" stroke="#999999" points="1254.5,-184 1201.5,-184 1201.5,-165 1254.5,-165 1254.5,-184"/>
<text text-anchor="middle" x="1228" y="-172" font-family="Helvetica,sans-Serif" font-size="10.00">stdlib.h</text>
</a>
</g>
</g>
<!-- Node13&#45;&gt;Node29 -->
<g id="edge51_Node000013_Node000029" class="edge">
<title>Node13&#45;&gt;Node29</title>
<g id="a_edge51_Node000013_Node000029"><a xlink:title=" ">
<path fill="none" stroke="#63b8ff" d="M1228,-219.75C1228,-212.8 1228,-202.85 1228,-194.13"/>
<polygon fill="#63b8ff" stroke="#63b8ff" points="1231.5,-194.09 1228,-184.09 1224.5,-194.09 1231.5,-194.09"/>
</a>
</g>
</g>
<!-- Node18&#45;&gt;Node6 -->
<g id="edge22_Node000018_Node000006" class="edge">
<title>Node18&#45;&gt;Node6</title>
<g id="a_edge22_Node000018_Node000006"><a xlink:title=" ">
<path fill="none" stroke="#63b8ff" d="M1731.46,-111.05C1728.26,-110.66 1725.09,-110.31 1722,-110 1400.03,-78.14 1011.11,-68.74 871.8,-66.28"/>
<polygon fill="#63b8ff" stroke="#63b8ff" points="871.48,-62.78 861.42,-66.1 871.36,-69.77 871.48,-62.78"/>
</a>
</g>
</g>
<!-- Node18&#45;&gt;Node9 -->
<g id="edge21_Node000018_Node000009" class="edge">
<title>Node18&#45;&gt;Node9</title>
<g id="a_edge21_Node000018_Node000009"><a xlink:title=" ">
<path fill="none" stroke="#63b8ff" d="M1753.71,-109.91C1711.59,-95.97 1624.15,-68.62 1548,-55 1391.66,-27.04 1205.52,-16.49 1104.4,-12.63"/>
<polygon fill="#63b8ff" stroke="#63b8ff" points="1104.41,-9.13 1094.29,-12.26 1104.15,-16.12 1104.41,-9.13"/>
</a>
</g>
</g>
<!-- Node19&#45;&gt;Node9 -->
<g id="edge24_Node000019_Node000009" class="edge">
<title>Node19&#45;&gt;Node9</title>
<g id="a_edge24_Node000019_Node000009"><a xlink:title=" ">
<path fill="none" stroke="#63b8ff" d="M1580.93,-109.61C1570.55,-95.24 1547.9,-67.28 1521,-55 1448.65,-21.97 1222.61,-13.45 1104.13,-11.25"/>
<polygon fill="#63b8ff" stroke="#63b8ff" points="1104.11,-7.75 1094.05,-11.08 1103.99,-14.75 1104.11,-7.75"/>
</a>
</g>
</g>
<!-- Node20&#45;&gt;Node15 -->
<g id="edge26_Node000020_Node000015" class="edge">
<title>Node20&#45;&gt;Node15</title>
<g id="a_edge26_Node000020_Node000015"><a xlink:title=" ">
<path fill="none" stroke="#63b8ff" d="M1358.47,-164.98C1336.53,-156.3 1302.26,-142.75 1277.31,-132.88"/>
<polygon fill="#63b8ff" stroke="#63b8ff" points="1278.51,-129.59 1267.92,-129.17 1275.93,-136.1 1278.51,-129.59"/>
</a>
</g>
</g>
<!-- Node20&#45;&gt;Node16 -->
<g id="edge27_Node000020_Node000016" class="edge">
<title>Node20&#45;&gt;Node16</title>
<g id="a_edge27_Node000020_Node000016"><a xlink:title=" ">
<path fill="none" stroke="#63b8ff" d="M1368.75,-164.98C1358.2,-157 1342.2,-144.88 1329.56,-135.31"/>
<polygon fill="#63b8ff" stroke="#63b8ff" points="1331.54,-132.42 1321.45,-129.17 1327.31,-138 1331.54,-132.42"/>
</a>
</g>
</g>
<!-- Node20&#45;&gt;Node19 -->
<g id="edge28_Node000020_Node000019" class="edge">
<title>Node20&#45;&gt;Node19</title>
<g id="a_edge28_Node000020_Node000019"><a xlink:title=" ">
<path fill="none" stroke="#63b8ff" d="M1413.26,-164.98C1448.61,-155.93 1504.67,-141.58 1543.51,-131.64"/>
<polygon fill="#63b8ff" stroke="#63b8ff" points="1544.66,-134.95 1553.48,-129.08 1542.93,-128.17 1544.66,-134.95"/>
</a>
</g>
</g>
<!-- Node21&#45;&gt;Node6 -->
<g id="edge33_Node000021_Node000006" class="edge">
<title>Node21&#45;&gt;Node6</title>
<g id="a_edge33_Node000021_Node000006"><a xlink:title=" ">
<path fill="none" stroke="#63b8ff" d="M652.81,-109.98C686.49,-100.97 739.8,-86.7 776.92,-76.76"/>
<polygon fill="#63b8ff" stroke="#63b8ff" points="778.18,-80.05 786.94,-74.08 776.37,-73.29 778.18,-80.05"/>
</a>
</g>
</g>
<!-- Node21&#45;&gt;Node9 -->
<g id="edge32_Node000021_Node000009" class="edge">
<title>Node21&#45;&gt;Node9</title>
<g id="a_edge32_Node000021_Node000009"><a xlink:title=" ">
<path fill="none" stroke="#63b8ff" d="M637.27,-109.93C663.88,-96.26 718.69,-69.61 768,-55 830.03,-36.63 902.7,-25.03 955.76,-18.3"/>
<polygon fill="#63b8ff" stroke="#63b8ff" points="956.27,-21.76 965.76,-17.06 955.41,-14.82 956.27,-21.76"/>
</a>
</g>
</g>
<!-- Node22&#45;&gt;Node6 -->
<g id="edge35_Node000022_Node000006" class="edge">
<title>Node22&#45;&gt;Node6</title>
<g id="a_edge35_Node000022_Node000006"><a xlink:title=" ">
<path fill="none" stroke="#63b8ff" d="M1351.31,-110.97C1348.16,-110.63 1345.05,-110.31 1342,-110 1169.84,-92.66 965.34,-76.56 871.19,-69.4"/>
<polygon fill="#63b8ff" stroke="#63b8ff" points="871.31,-65.9 861.07,-68.63 870.78,-72.88 871.31,-65.9"/>
</a>
</g>
</g>
<!-- Node22&#45;&gt;Node9 -->
<g id="edge36_Node000022_Node000009" class="edge">
<title>Node22&#45;&gt;Node9</title>
<g id="a_edge36_Node000022_Node000009"><a xlink:title=" ">
<path fill="none" stroke="#63b8ff" d="M1384.47,-109.94C1315.53,-90.6 1147.83,-43.55 1070.4,-21.83"/>
<polygon fill="#63b8ff" stroke="#63b8ff" points="1071.11,-18.4 1060.54,-19.07 1069.22,-25.14 1071.11,-18.4"/>
</a>
</g>
</g>
<!-- Node23&#45;&gt;Node9 -->
<g id="edge42_Node000023_Node000009" class="edge">
<title>Node23&#45;&gt;Node9</title>
<g id="a_edge42_Node000023_Node000009"><a xlink:title=" ">
<path fill="none" stroke="#63b8ff" d="M1751.01,-167.61C1803.21,-160.29 1863.14,-144.29 1836,-110 1790.89,-53.01 1295.51,-23.27 1104.5,-13.86"/>
<polygon fill="#63b8ff" stroke="#63b8ff" points="1104.43,-10.35 1094.27,-13.36 1104.09,-17.34 1104.43,-10.35"/>
</a>
</g>
</g>
<!-- Node23&#45;&gt;Node16 -->
<g id="edge39_Node000023_Node000016" class="edge">
<title>Node23&#45;&gt;Node16</title>
<g id="a_edge39_Node000023_Node000016"><a xlink:title=" ">
<path fill="none" stroke="#63b8ff" d="M1618.83,-167.5C1551.68,-160.84 1444.62,-148.61 1343.74,-129.13"/>
<polygon fill="#63b8ff" stroke="#63b8ff" points="1344.17,-125.65 1333.69,-127.16 1342.83,-132.52 1344.17,-125.65"/>
</a>
</g>
</g>
<!-- Node23&#45;&gt;Node18 -->
<g id="edge40_Node000023_Node000018" class="edge">
<title>Node23&#45;&gt;Node18</title>
<g id="a_edge40_Node000023_Node000018"><a xlink:title=" ">
<path fill="none" stroke="#63b8ff" d="M1700.1,-164.98C1714.82,-156.69 1737.42,-143.94 1754.67,-134.22"/>
<polygon fill="#63b8ff" stroke="#63b8ff" points="1756.63,-137.13 1763.62,-129.17 1753.19,-131.03 1756.63,-137.13"/>
</a>
</g>
</g>
<!-- Node23&#45;&gt;Node19 -->
<g id="edge41_Node000023_Node000019" class="edge">
<title>Node23&#45;&gt;Node19</title>
<g id="a_edge41_Node000023_Node000019"><a xlink:title=" ">
<path fill="none" stroke="#63b8ff" d="M1669.25,-164.98C1653.77,-156.61 1629.91,-143.7 1611.86,-133.95"/>
<polygon fill="#63b8ff" stroke="#63b8ff" points="1613.49,-130.85 1603.03,-129.17 1610.16,-137.01 1613.49,-130.85"/>
</a>
</g>
</g>
<!-- Node24 -->
<g id="Node000024" class="node">
<title>Node24</title>
<g id="a_Node000024"><a xlink:title=" ">
<polygon fill="#e0e0e0" stroke="#999999" points="1713,-129 1657,-129 1657,-110 1713,-110 1713,-129"/>
<text text-anchor="middle" x="1685" y="-117" font-family="Helvetica,sans-Serif" font-size="10.00">optional</text>
</a>
</g>
</g>
<!-- Node23&#45;&gt;Node24 -->
<g id="edge38_Node000023_Node000024" class="edge">
<title>Node23&#45;&gt;Node24</title>
<g id="a_edge38_Node000023_Node000024"><a xlink:title=" ">
<path fill="none" stroke="#63b8ff" d="M1685,-164.75C1685,-157.8 1685,-147.85 1685,-139.13"/>
<polygon fill="#63b8ff" stroke="#63b8ff" points="1688.5,-139.09 1685,-129.09 1681.5,-139.09 1688.5,-139.09"/>
</a>
</g>
</g>
<!-- Node25&#45;&gt;Node9 -->
<g id="edge46_Node000025_Node000009" class="edge">
<title>Node25&#45;&gt;Node9</title>
<g id="a_edge46_Node000025_Node000009"><a xlink:title=" ">
<path fill="none" stroke="#63b8ff" d="M678.99,-164.99C755.03,-154.74 873.02,-137.8 892,-129 945.02,-104.42 993.51,-53.44 1016.3,-27.09"/>
<polygon fill="#63b8ff" stroke="#63b8ff" points="1019.22,-29.06 1023.02,-19.16 1013.88,-24.53 1019.22,-29.06"/>
</a>
</g>
</g>
<!-- Node25&#45;&gt;Node16 -->
<g id="edge45_Node000025_Node000016" class="edge">
<title>Node25&#45;&gt;Node16</title>
<g id="a_edge45_Node000025_Node000016"><a xlink:title=" ">
<path fill="none" stroke="#63b8ff" d="M684.2,-165.78C687.17,-165.51 690.11,-165.24 693,-165 948.83,-143.36 1018.39,-168.95 1276.28,-128.76"/>
<polygon fill="#63b8ff" stroke="#63b8ff" points="1276.99,-132.19 1286.32,-127.17 1275.9,-125.28 1276.99,-132.19"/>
</a>
</g>
</g>
<!-- Node26 -->
<g id="Node000026" class="node">
<title>Node26</title>
<g id="a_Node000026"><a xlink:title=" ">
<polygon fill="#e0e0e0" stroke="#999999" points="989,-129 939,-129 939,-110 989,-110 989,-129"/>
<text text-anchor="middle" x="964" y="-117" font-family="Helvetica,sans-Serif" font-size="10.00">cstdint</text>
</a>
</g>
</g>
<!-- Node25&#45;&gt;Node26 -->
<g id="edge44_Node000025_Node000026" class="edge">
<title>Node25&#45;&gt;Node26</title>
<g id="a_edge44_Node000025_Node000026"><a xlink:title=" ">
<path fill="none" stroke="#63b8ff" d="M683.71,-164.99C746.89,-156.94 842.47,-143.88 925,-129 926.27,-128.77 927.55,-128.53 928.85,-128.28"/>
<polygon fill="#63b8ff" stroke="#63b8ff" points="929.77,-131.67 938.88,-126.26 928.38,-124.81 929.77,-131.67"/>
</a>
</g>
</g>
</g>
</svg>
