<?xml version="1.0" encoding="UTF-8" standalone="no"?>
<!DOCTYPE svg PUBLIC "-//W3C//DTD SVG 1.1//EN"
 "http://www.w3.org/Graphics/SVG/1.1/DTD/svg11.dtd">
<!-- Generated by graphviz version 2.43.0 (0)
 -->
<!-- Title: Scene Pages: 1 -->
<svg width="570pt" height="82pt"
 viewBox="0.00 0.00 570.00 82.00" xmlns="http://www.w3.org/2000/svg" xmlns:xlink="http://www.w3.org/1999/xlink">
<g id="graph0" class="graph" transform="scale(1 1) rotate(0) translate(4 78)">
<title>Scene</title>
<!-- Node1 -->
<g id="Node000001" class="node">
<title>Node1</title>
<g id="a_Node000001"><a xlink:title=" ">
<polygon fill="#999999" stroke="#666666" points="303,-74 257,-74 257,-55 303,-55 303,-74"/>
<text text-anchor="middle" x="280" y="-62" font-family="Helvetica,sans-Serif" font-size="10.00">Scene</text>
</a>
</g>
</g>
<!-- Node2 -->
<g id="Node000002" class="node">
<title>Node2</title>
<g id="a_Node000002"><a xlink:href="classGameOverScene.html" target="_top" xlink:title=" ">
<polygon fill="white" stroke="#666666" points="98,-19 0,-19 0,0 98,0 98,-19"/>
<text text-anchor="middle" x="49" y="-7" font-family="Helvetica,sans-Serif" font-size="10.00">GameOverScene</text>
</a>
</g>
</g>
<!-- Node1&#45;&gt;Node2 -->
<g id="edge1_Node000001_Node000002" class="edge">
<title>Node1&#45;&gt;Node2</title>
<g id="a_edge1_Node000001_Node000002"><a xlink:title=" ">
<path fill="none" stroke="#63b8ff" d="M246.71,-55.86C204.1,-46.09 130.51,-29.2 86.14,-19.02"/>
<polygon fill="#63b8ff" stroke="#63b8ff" points="246.05,-59.3 256.58,-58.13 247.62,-52.48 246.05,-59.3"/>
</a>
</g>
</g>
<!-- Node3 -->
<g id="Node000003" class="node">
<title>Node3</title>
<g id="a_Node000003"><a xlink:href="classJoinGame.html" target="_top" xlink:title=" ">
<polygon fill="white" stroke="#666666" points="180,-19 116,-19 116,0 180,0 180,-19"/>
<text text-anchor="middle" x="148" y="-7" font-family="Helvetica,sans-Serif" font-size="10.00">JoinGame</text>
</a>
</g>
</g>
<!-- Node1&#45;&gt;Node3 -->
<g id="edge2_Node000001_Node000003" class="edge">
<title>Node1&#45;&gt;Node3</title>
<g id="a_edge2_Node000001_Node000003"><a xlink:title=" ">
<path fill="none" stroke="#63b8ff" d="M249.27,-51.16C224.83,-41.35 191.26,-27.87 169.59,-19.17"/>
<polygon fill="#63b8ff" stroke="#63b8ff" points="248.21,-54.51 258.79,-54.98 250.82,-48.01 248.21,-54.51"/>
</a>
</g>
</g>
<!-- Node4 -->
<g id="Node000004" class="node">
<title>Node4</title>
<g id="a_Node000004"><a xlink:href="classMainMenu.html" target="_top" xlink:title=" ">
<polygon fill="white" stroke="#666666" points="266,-19 198,-19 198,0 266,0 266,-19"/>
<text text-anchor="middle" x="232" y="-7" font-family="Helvetica,sans-Serif" font-size="10.00">MainMenu</text>
</a>
</g>
</g>
<!-- Node1&#45;&gt;Node4 -->
<g id="edge3_Node000001_Node000004" class="edge">
<title>Node1&#45;&gt;Node4</title>
<g id="a_edge3_Node000001_Node000004"><a xlink:title=" ">
<path fill="none" stroke="#63b8ff" d="M265.27,-47.24C256.86,-37.95 246.65,-26.68 239.78,-19.09"/>
<polygon fill="#63b8ff" stroke="#63b8ff" points="262.77,-49.69 272.07,-54.75 267.96,-44.99 262.77,-49.69"/>
</a>
</g>
</g>
<!-- Node5 -->
<g id="Node000005" class="node">
<title>Node5</title>
<g id="a_Node000005"><a xlink:href="classMyGameScene.html" target="_top" xlink:title=" ">
<polygon fill="white" stroke="#666666" points="374,-19 284,-19 284,0 374,0 374,-19"/>
<text text-anchor="middle" x="329" y="-7" font-family="Helvetica,sans-Serif" font-size="10.00">MyGameScene</text>
</a>
</g>
</g>
<!-- Node1&#45;&gt;Node5 -->
<g id="edge4_Node000001_Node000005" class="edge">
<title>Node1&#45;&gt;Node5</title>
<g id="a_edge4_Node000001_Node000005"><a xlink:title=" ">
<path fill="none" stroke="#63b8ff" d="M295.03,-47.24C303.62,-37.95 314.04,-26.68 321.06,-19.09"/>
<polygon fill="#63b8ff" stroke="#63b8ff" points="292.31,-45.03 288.09,-54.75 297.45,-49.78 292.31,-45.03"/>
</a>
</g>
</g>
<!-- Node6 -->
<g id="Node000006" class="node">
<title>Node6</title>
<g id="a_Node000006"><a xlink:href="classOptionsScene.html" target="_top" xlink:title=" ">
<polygon fill="white" stroke="#666666" points="475.5,-19 392.5,-19 392.5,0 475.5,0 475.5,-19"/>
<text text-anchor="middle" x="434" y="-7" font-family="Helvetica,sans-Serif" font-size="10.00">OptionsScene</text>
</a>
</g>
</g>
<!-- Node1&#45;&gt;Node6 -->
<g id="edge5_Node000001_Node000006" class="edge">
<title>Node1&#45;&gt;Node6</title>
<g id="a_edge5_Node000001_Node000006"><a xlink:title=" ">
<path fill="none" stroke="#63b8ff" d="M312.7,-52.25C341.58,-42.31 383.06,-28.03 409.25,-19.02"/>
<polygon fill="#63b8ff" stroke="#63b8ff" points="311.37,-49 303.06,-55.57 313.65,-55.62 311.37,-49"/>
</a>
</g>
</g>
<!-- Node7 -->
<g id="Node000007" class="node">
<title>Node7</title>
<g id="a_Node000007"><a xlink:href="classWaitLobby.html" target="_top" xlink:title=" ">
<polygon fill="white" stroke="#666666" points="562,-19 494,-19 494,0 562,0 562,-19"/>
<text text-anchor="middle" x="528" y="-7" font-family="Helvetica,sans-Serif" font-size="10.00">WaitLobby</text>
</a>
</g>
</g>
<!-- Node1&#45;&gt;Node7 -->
<g id="edge6_Node000001_Node000007" class="edge">
<title>Node1&#45;&gt;Node7</title>
<g id="a_edge6_Node000001_Node000007"><a xlink:title=" ">
<path fill="none" stroke="#63b8ff" d="M313.34,-56.37C360.54,-46.29 446.38,-27.94 493.96,-17.77"/>
<polygon fill="#63b8ff" stroke="#63b8ff" points="312.38,-53 303.33,-58.51 313.84,-59.85 312.38,-53"/>
</a>
</g>
</g>
</g>
</svg>
