<?xml version="1.0" encoding="UTF-8" standalone="no"?>
<!DOCTYPE svg PUBLIC "-//W3C//DTD SVG 1.1//EN"
 "http://www.w3.org/Graphics/SVG/1.1/DTD/svg11.dtd">
<!-- Generated by graphviz version 2.43.0 (0)
 -->
<!-- Title: GameOverScene Pages: 1 -->
<svg width="320pt" height="149pt"
 viewBox="0.00 0.00 319.50 149.00" xmlns="http://www.w3.org/2000/svg" xmlns:xlink="http://www.w3.org/1999/xlink">
<g id="graph0" class="graph" transform="scale(1 1) rotate(0) translate(4 145)">
<title>GameOverScene</title>
<!-- Node1 -->
<g id="Node000001" class="node">
<title>Node1</title>
<g id="a_Node000001"><a xlink:title=" ">
<polygon fill="#999999" stroke="#666666" points="190.5,-19 92.5,-19 92.5,0 190.5,0 190.5,-19"/>
<text text-anchor="middle" x="141.5" y="-7" font-family="Helvetica,sans-Serif" font-size="10.00">GameOverScene</text>
</a>
</g>
</g>
<!-- Node2 -->
<g id="Node000002" class="node">
<title>Node2</title>
<g id="a_Node000002"><a xlink:href="classScene.html" target="_top" xlink:title=" ">
<polygon fill="white" stroke="#666666" points="164.5,-75 118.5,-75 118.5,-56 164.5,-56 164.5,-75"/>
<text text-anchor="middle" x="141.5" y="-63" font-family="Helvetica,sans-Serif" font-size="10.00">Scene</text>
</a>
</g>
</g>
<!-- Node2&#45;&gt;Node1 -->
<g id="edge1_Node000001_Node000002" class="edge">
<title>Node2&#45;&gt;Node1</title>
<g id="a_edge1_Node000001_Node000002"><a xlink:title=" ">
<path fill="none" stroke="#63b8ff" d="M141.5,-45.3C141.5,-36.41 141.5,-26.28 141.5,-19.25"/>
<polygon fill="#63b8ff" stroke="#63b8ff" points="138,-45.58 141.5,-55.58 145,-45.58 138,-45.58"/>
</a>
</g>
</g>
<!-- Node3 -->
<g id="Node000003" class="node">
<title>Node3</title>
<g id="a_Node000003"><a xlink:href="classGameEngine.html" target="_top" xlink:title=" ">
<polygon fill="white" stroke="#666666" points="79,-141 0,-141 0,-122 79,-122 79,-141"/>
<text text-anchor="middle" x="39.5" y="-129" font-family="Helvetica,sans-Serif" font-size="10.00">GameEngine</text>
</a>
</g>
</g>
<!-- Node3&#45;&gt;Node2 -->
<g id="edge2_Node000002_Node000003" class="edge">
<title>Node3&#45;&gt;Node2</title>
<g id="a_edge2_Node000002_Node000003"><a xlink:title=" ">
<path fill="none" stroke="#9a32cd" stroke-dasharray="5,2" d="M56.44,-115.03C64.82,-107.82 75.31,-99.43 85.5,-93 96.51,-86.05 109.62,-79.75 120.39,-75.04"/>
<polygon fill="#9a32cd" stroke="#9a32cd" points="54.03,-112.49 48.85,-121.73 58.66,-117.74 54.03,-112.49"/>
</a>
</g>
<text text-anchor="middle" x="111.5" y="-96" font-family="Helvetica,sans-Serif" font-size="10.00" fill="grey"> m_engine</text>
</g>
<!-- Node4 -->
<g id="Node000004" class="node">
<title>Node4</title>
<g id="a_Node000004"><a xlink:href="classSceneManager.html" target="_top" xlink:title=" ">
<polygon fill="white" stroke="#666666" points="186,-141 97,-141 97,-122 186,-122 186,-141"/>
<text text-anchor="middle" x="141.5" y="-129" font-family="Helvetica,sans-Serif" font-size="10.00">SceneManager</text>
</a>
</g>
</g>
<!-- Node4&#45;&gt;Node2 -->
<g id="edge3_Node000002_Node000004" class="edge">
<title>Node4&#45;&gt;Node2</title>
<g id="a_edge3_Node000002_Node000004"><a xlink:title=" ">
<path fill="none" stroke="#9a32cd" stroke-dasharray="5,2" d="M141.5,-111.58C141.5,-99.63 141.5,-84.72 141.5,-75.41"/>
<polygon fill="#9a32cd" stroke="#9a32cd" points="138,-111.87 141.5,-121.87 145,-111.87 138,-111.87"/>
</a>
</g>
<text text-anchor="middle" x="186.5" y="-96" font-family="Helvetica,sans-Serif" font-size="10.00" fill="grey"> m_sceneManager</text>
</g>
<!-- Node5 -->
<g id="Node000005" class="node">
<title>Node5</title>
<g id="a_Node000005"><a xlink:href="classUIManager.html" target="_top" xlink:title=" ">
<polygon fill="white" stroke="#666666" points="289.5,-141 219.5,-141 219.5,-122 289.5,-122 289.5,-141"/>
<text text-anchor="middle" x="254.5" y="-129" font-family="Helvetica,sans-Serif" font-size="10.00">UIManager</text>
</a>
</g>
</g>
<!-- Node5&#45;&gt;Node2 -->
<g id="edge4_Node000002_Node000005" class="edge">
<title>Node5&#45;&gt;Node2</title>
<g id="a_edge4_Node000002_Node000005"><a xlink:title=" ">
<path fill="none" stroke="#9a32cd" stroke-dasharray="5,2" d="M247.34,-112.32C243.81,-105.4 238.9,-97.99 232.5,-93 212.77,-77.63 184.39,-71.17 164.58,-68.46"/>
<polygon fill="#9a32cd" stroke="#9a32cd" points="244.29,-114.06 251.56,-121.77 250.68,-111.21 244.29,-114.06"/>
</a>
</g>
<text text-anchor="middle" x="276.5" y="-96" font-family="Helvetica,sans-Serif" font-size="10.00" fill="grey"> m_uiManager</text>
</g>
</g>
</svg>
