<?xml version="1.0" encoding="UTF-8" standalone="no"?>
<!DOCTYPE svg PUBLIC "-//W3C//DTD SVG 1.1//EN"
 "http://www.w3.org/Graphics/SVG/1.1/DTD/svg11.dtd">
<!-- Generated by graphviz version 2.43.0 (0)
 -->
<!-- Title: Scene Pages: 1 -->
<svg width="320pt" height="93pt"
 viewBox="0.00 0.00 319.50 93.00" xmlns="http://www.w3.org/2000/svg" xmlns:xlink="http://www.w3.org/1999/xlink">
<g id="graph0" class="graph" transform="scale(1 1) rotate(0) translate(4 89)">
<title>Scene</title>
<!-- Node1 -->
<g id="Node000001" class="node">
<title>Node1</title>
<g id="a_Node000001"><a xlink:title=" ">
<polygon fill="#999999" stroke="#666666" points="164.5,-19 118.5,-19 118.5,0 164.5,0 164.5,-19"/>
<text text-anchor="middle" x="141.5" y="-7" font-family="Helvetica,sans-Serif" font-size="10.00">Scene</text>
</a>
</g>
</g>
<!-- Node2 -->
<g id="Node000002" class="node">
<title>Node2</title>
<g id="a_Node000002"><a xlink:href="classGameEngine.html" target="_top" xlink:title=" ">
<polygon fill="white" stroke="#666666" points="79,-85 0,-85 0,-66 79,-66 79,-85"/>
<text text-anchor="middle" x="39.5" y="-73" font-family="Helvetica,sans-Serif" font-size="10.00">GameEngine</text>
</a>
</g>
</g>
<!-- Node2&#45;&gt;Node1 -->
<g id="edge1_Node000001_Node000002" class="edge">
<title>Node2&#45;&gt;Node1</title>
<g id="a_edge1_Node000001_Node000002"><a xlink:title=" ">
<path fill="none" stroke="#9a32cd" stroke-dasharray="5,2" d="M56.44,-59.03C64.82,-51.82 75.31,-43.43 85.5,-37 96.51,-30.05 109.62,-23.75 120.39,-19.04"/>
<polygon fill="#9a32cd" stroke="#9a32cd" points="54.03,-56.49 48.85,-65.73 58.66,-61.74 54.03,-56.49"/>
</a>
</g>
<text text-anchor="middle" x="111.5" y="-40" font-family="Helvetica,sans-Serif" font-size="10.00" fill="grey"> m_engine</text>
</g>
<!-- Node3 -->
<g id="Node000003" class="node">
<title>Node3</title>
<g id="a_Node000003"><a xlink:href="classSceneManager.html" target="_top" xlink:title=" ">
<polygon fill="white" stroke="#666666" points="186,-85 97,-85 97,-66 186,-66 186,-85"/>
<text text-anchor="middle" x="141.5" y="-73" font-family="Helvetica,sans-Serif" font-size="10.00">SceneManager</text>
</a>
</g>
</g>
<!-- Node3&#45;&gt;Node1 -->
<g id="edge2_Node000001_Node000003" class="edge">
<title>Node3&#45;&gt;Node1</title>
<g id="a_edge2_Node000001_Node000003"><a xlink:title=" ">
<path fill="none" stroke="#9a32cd" stroke-dasharray="5,2" d="M141.5,-55.58C141.5,-43.63 141.5,-28.72 141.5,-19.41"/>
<polygon fill="#9a32cd" stroke="#9a32cd" points="138,-55.87 141.5,-65.87 145,-55.87 138,-55.87"/>
</a>
</g>
<text text-anchor="middle" x="186.5" y="-40" font-family="Helvetica,sans-Serif" font-size="10.00" fill="grey"> m_sceneManager</text>
</g>
<!-- Node4 -->
<g id="Node000004" class="node">
<title>Node4</title>
<g id="a_Node000004"><a xlink:href="classUIManager.html" target="_top" xlink:title=" ">
<polygon fill="white" stroke="#666666" points="289.5,-85 219.5,-85 219.5,-66 289.5,-66 289.5,-85"/>
<text text-anchor="middle" x="254.5" y="-73" font-family="Helvetica,sans-Serif" font-size="10.00">UIManager</text>
</a>
</g>
</g>
<!-- Node4&#45;&gt;Node1 -->
<g id="edge3_Node000001_Node000004" class="edge">
<title>Node4&#45;&gt;Node1</title>
<g id="a_edge3_Node000001_Node000004"><a xlink:title=" ">
<path fill="none" stroke="#9a32cd" stroke-dasharray="5,2" d="M247.34,-56.32C243.81,-49.4 238.9,-41.99 232.5,-37 212.77,-21.63 184.39,-15.17 164.58,-12.46"/>
<polygon fill="#9a32cd" stroke="#9a32cd" points="244.29,-58.06 251.56,-65.77 250.68,-55.21 244.29,-58.06"/>
</a>
</g>
<text text-anchor="middle" x="276.5" y="-40" font-family="Helvetica,sans-Serif" font-size="10.00" fill="grey"> m_uiManager</text>
</g>
</g>
</svg>
