<?xml version="1.0" encoding="UTF-8" standalone="no"?>
<!DOCTYPE svg PUBLIC "-//W3C//DTD SVG 1.1//EN"
 "http://www.w3.org/Graphics/SVG/1.1/DTD/svg11.dtd">
<!-- Generated by graphviz version 2.43.0 (0)
 -->
<!-- Title: UIElement Pages: 1 -->
<svg width="395pt" height="82pt"
 viewBox="0.00 0.00 394.50 82.00" xmlns="http://www.w3.org/2000/svg" xmlns:xlink="http://www.w3.org/1999/xlink">
<g id="graph0" class="graph" transform="scale(1 1) rotate(0) translate(4 78)">
<title>UIElement</title>
<!-- Node1 -->
<g id="Node000001" class="node">
<title>Node1</title>
<g id="a_Node000001"><a xlink:title=" ">
<polygon fill="#999999" stroke="#666666" points="226.5,-74 158.5,-74 158.5,-55 226.5,-55 226.5,-74"/>
<text text-anchor="middle" x="192.5" y="-62" font-family="Helvetica,sans-Serif" font-size="10.00">UIElement</text>
</a>
</g>
</g>
<!-- Node2 -->
<g id="Node000002" class="node">
<title>Node2</title>
<g id="a_Node000002"><a xlink:href="classUIButton.html" target="_top" xlink:title=" ">
<polygon fill="white" stroke="#666666" points="59,-19 0,-19 0,0 59,0 59,-19"/>
<text text-anchor="middle" x="29.5" y="-7" font-family="Helvetica,sans-Serif" font-size="10.00">UIButton</text>
</a>
</g>
</g>
<!-- Node1&#45;&gt;Node2 -->
<g id="edge1_Node000001_Node000002" class="edge">
<title>Node1&#45;&gt;Node2</title>
<g id="a_edge1_Node000001_Node000002"><a xlink:title=" ">
<path fill="none" stroke="#63b8ff" d="M156.51,-51.8C126.09,-41.91 83.22,-27.97 55.89,-19.08"/>
<polygon fill="#63b8ff" stroke="#63b8ff" points="155.72,-55.22 166.31,-54.98 157.88,-48.56 155.72,-55.22"/>
</a>
</g>
</g>
<!-- Node3 -->
<g id="Node000003" class="node">
<title>Node3</title>
<g id="a_Node000003"><a xlink:href="classUIImage.html" target="_top" xlink:title=" ">
<polygon fill="white" stroke="#666666" points="135.5,-19 77.5,-19 77.5,0 135.5,0 135.5,-19"/>
<text text-anchor="middle" x="106.5" y="-7" font-family="Helvetica,sans-Serif" font-size="10.00">UIImage</text>
</a>
</g>
</g>
<!-- Node1&#45;&gt;Node3 -->
<g id="edge2_Node000001_Node000003" class="edge">
<title>Node1&#45;&gt;Node3</title>
<g id="a_edge2_Node000001_Node000003"><a xlink:title=" ">
<path fill="none" stroke="#63b8ff" d="M170.1,-49.7C154.43,-40.04 133.99,-27.44 120.57,-19.17"/>
<polygon fill="#63b8ff" stroke="#63b8ff" points="168.33,-52.72 178.68,-54.98 172.01,-46.76 168.33,-52.72"/>
</a>
</g>
</g>
<!-- Node4 -->
<g id="Node000004" class="node">
<title>Node4</title>
<g id="a_Node000004"><a xlink:href="classUISolidColor.html" target="_top" xlink:title=" ">
<polygon fill="white" stroke="#666666" points="231,-19 154,-19 154,0 231,0 231,-19"/>
<text text-anchor="middle" x="192.5" y="-7" font-family="Helvetica,sans-Serif" font-size="10.00">UISolidColor</text>
</a>
</g>
</g>
<!-- Node1&#45;&gt;Node4 -->
<g id="edge3_Node000001_Node000004" class="edge">
<title>Node1&#45;&gt;Node4</title>
<g id="a_edge3_Node000001_Node000004"><a xlink:title=" ">
<path fill="none" stroke="#63b8ff" d="M192.5,-44.66C192.5,-35.93 192.5,-25.99 192.5,-19.09"/>
<polygon fill="#63b8ff" stroke="#63b8ff" points="189,-44.75 192.5,-54.75 196,-44.75 189,-44.75"/>
</a>
</g>
</g>
<!-- Node5 -->
<g id="Node000005" class="node">
<title>Node5</title>
<g id="a_Node000005"><a xlink:href="classUIText.html" target="_top" xlink:title=" ">
<polygon fill="white" stroke="#666666" points="296,-19 249,-19 249,0 296,0 296,-19"/>
<text text-anchor="middle" x="272.5" y="-7" font-family="Helvetica,sans-Serif" font-size="10.00">UIText</text>
</a>
</g>
</g>
<!-- Node1&#45;&gt;Node5 -->
<g id="edge4_Node000001_Node000005" class="edge">
<title>Node1&#45;&gt;Node5</title>
<g id="a_edge4_Node000001_Node000005"><a xlink:title=" ">
<path fill="none" stroke="#63b8ff" d="M213.75,-49.42C228.26,-39.81 247.04,-27.37 259.41,-19.17"/>
<polygon fill="#63b8ff" stroke="#63b8ff" points="211.76,-46.54 205.35,-54.98 215.62,-52.38 211.76,-46.54"/>
</a>
</g>
</g>
<!-- Node6 -->
<g id="Node000006" class="node">
<title>Node6</title>
<g id="a_Node000006"><a xlink:href="classUITextInput.html" target="_top" xlink:title=" ">
<polygon fill="white" stroke="#666666" points="386.5,-19 314.5,-19 314.5,0 386.5,0 386.5,-19"/>
<text text-anchor="middle" x="350.5" y="-7" font-family="Helvetica,sans-Serif" font-size="10.00">UITextInput</text>
</a>
</g>
</g>
<!-- Node1&#45;&gt;Node6 -->
<g id="edge5_Node000001_Node000006" class="edge">
<title>Node1&#45;&gt;Node6</title>
<g id="a_edge5_Node000001_Node000006"><a xlink:title=" ">
<path fill="none" stroke="#63b8ff" d="M227.38,-51.8C256.87,-41.91 298.43,-27.97 324.92,-19.08"/>
<polygon fill="#63b8ff" stroke="#63b8ff" points="226.25,-48.49 217.89,-54.98 228.48,-55.12 226.25,-48.49"/>
</a>
</g>
</g>
</g>
</svg>
