<?xml version="1.0" encoding="UTF-8" standalone="no"?>
<!DOCTYPE svg PUBLIC "-//W3C//DTD SVG 1.1//EN"
 "http://www.w3.org/Graphics/SVG/1.1/DTD/svg11.dtd">
<!-- Generated by graphviz version 2.43.0 (0)
 -->
<!-- Title: /home/runner/work/R&#45;Type/R&#45;Type/Server/src/network/ClientManager.cpp Pages: 1 -->
<svg width="532pt" height="214pt"
 viewBox="0.00 0.00 532.14 214.00" xmlns="http://www.w3.org/2000/svg" xmlns:xlink="http://www.w3.org/1999/xlink">
<g id="graph0" class="graph" transform="scale(1 1) rotate(0) translate(4 210)">
<title>/home/runner/work/R&#45;Type/R&#45;Type/Server/src/network/ClientManager.cpp</title>
<!-- Node1 -->
<g id="Node000001" class="node">
<title>Node1</title>
<g id="a_Node000001"><a xlink:title=" ">
<polygon fill="#999999" stroke="#666666" points="485,-206 315,-206 315,-165 485,-165 485,-206"/>
<text text-anchor="start" x="323" y="-194" font-family="Helvetica,sans-Serif" font-size="10.00">/home/runner/work/R</text>
<text text-anchor="start" x="323" y="-183" font-family="Helvetica,sans-Serif" font-size="10.00">&#45;Type/R&#45;Type/Server</text>
<text text-anchor="middle" x="400" y="-172" font-family="Helvetica,sans-Serif" font-size="10.00">/src/network/ClientManager.cpp</text>
</a>
</g>
</g>
<!-- Node2 -->
<g id="Node000002" class="node">
<title>Node2</title>
<g id="a_Node000002"><a xlink:href="ClientManager_8hpp.html" target="_top" xlink:title=" ">
<polygon fill="white" stroke="#666666" points="394.5,-129 243.5,-129 243.5,-110 394.5,-110 394.5,-129"/>
<text text-anchor="middle" x="319" y="-117" font-family="Helvetica,sans-Serif" font-size="10.00">network/ClientManager.hpp</text>
</a>
</g>
</g>
<!-- Node1&#45;&gt;Node2 -->
<g id="edge1_Node000001_Node000002" class="edge">
<title>Node1&#45;&gt;Node2</title>
<g id="a_edge1_Node000001_Node000002"><a xlink:title=" ">
<path fill="none" stroke="#63b8ff" d="M375.26,-164.95C363.36,-155.55 349.32,-144.46 338.24,-135.7"/>
<polygon fill="#63b8ff" stroke="#63b8ff" points="340.1,-132.71 330.09,-129.26 335.76,-138.21 340.1,-132.71"/>
</a>
</g>
</g>
<!-- Node3 -->
<g id="Node000003" class="node">
<title>Node3</title>
<g id="a_Node000003"><a xlink:title=" ">
<polygon fill="#e0e0e0" stroke="#999999" points="63,-74 5,-74 5,-55 63,-55 63,-74"/>
<text text-anchor="middle" x="34" y="-62" font-family="Helvetica,sans-Serif" font-size="10.00">memory</text>
</a>
</g>
</g>
<!-- Node1&#45;&gt;Node3 -->
<g id="edge13_Node000001_Node000003" class="edge">
<title>Node1&#45;&gt;Node3</title>
<g id="a_edge13_Node000001_Node000003"><a xlink:title=" ">
<path fill="none" stroke="#63b8ff" d="M339.97,-164.98C263.32,-140.06 133.1,-97.72 70.17,-77.26"/>
<polygon fill="#63b8ff" stroke="#63b8ff" points="70.9,-73.82 60.31,-74.05 68.74,-80.47 70.9,-73.82"/>
</a>
</g>
</g>
<!-- Node5 -->
<g id="Node000005" class="node">
<title>Node5</title>
<g id="a_Node000005"><a xlink:title=" ">
<polygon fill="#e0e0e0" stroke="#999999" points="341,-19 297,-19 297,0 341,0 341,-19"/>
<text text-anchor="middle" x="319" y="-7" font-family="Helvetica,sans-Serif" font-size="10.00">string</text>
</a>
</g>
</g>
<!-- Node1&#45;&gt;Node5 -->
<g id="edge14_Node000001_Node000005" class="edge">
<title>Node1&#45;&gt;Node5</title>
<g id="a_edge14_Node000001_Node000005"><a xlink:title=" ">
<path fill="none" stroke="#63b8ff" d="M439.44,-164.88C484.26,-139.98 547.27,-95.42 515,-55 494.88,-29.8 401.62,-17.79 351.34,-13.06"/>
<polygon fill="#63b8ff" stroke="#63b8ff" points="351.58,-9.57 341.3,-12.16 350.95,-16.54 351.58,-9.57"/>
</a>
</g>
</g>
<!-- Node7 -->
<g id="Node000007" class="node">
<title>Node7</title>
<g id="a_Node000007"><a xlink:title=" ">
<polygon fill="#e0e0e0" stroke="#999999" points="505.5,-74 458.5,-74 458.5,-55 505.5,-55 505.5,-74"/>
<text text-anchor="middle" x="482" y="-62" font-family="Helvetica,sans-Serif" font-size="10.00">vector</text>
</a>
</g>
</g>
<!-- Node1&#45;&gt;Node7 -->
<g id="edge15_Node000001_Node000007" class="edge">
<title>Node1&#45;&gt;Node7</title>
<g id="a_edge15_Node000001_Node000007"><a xlink:title=" ">
<path fill="none" stroke="#63b8ff" d="M413.54,-164.85C429.38,-141.86 455.35,-104.18 470.33,-82.43"/>
<polygon fill="#63b8ff" stroke="#63b8ff" points="473.23,-84.4 476.02,-74.18 467.47,-80.42 473.23,-84.4"/>
</a>
</g>
</g>
<!-- Node2&#45;&gt;Node3 -->
<g id="edge2_Node000002_Node000003" class="edge">
<title>Node2&#45;&gt;Node3</title>
<g id="a_edge2_Node000002_Node000003"><a xlink:title=" ">
<path fill="none" stroke="#63b8ff" d="M268.27,-110C220.4,-101.83 146.39,-88.84 72.91,-74.12"/>
<polygon fill="#63b8ff" stroke="#63b8ff" points="73.51,-70.67 63.02,-72.12 72.13,-77.53 73.51,-70.67"/>
</a>
</g>
</g>
<!-- Node4 -->
<g id="Node000004" class="node">
<title>Node4</title>
<g id="a_Node000004"><a xlink:title=" ">
<polygon fill="#e0e0e0" stroke="#999999" points="291,-74 243,-74 243,-55 291,-55 291,-74"/>
<text text-anchor="middle" x="267" y="-62" font-family="Helvetica,sans-Serif" font-size="10.00">mutex</text>
</a>
</g>
</g>
<!-- Node2&#45;&gt;Node4 -->
<g id="edge3_Node000002_Node000004" class="edge">
<title>Node2&#45;&gt;Node4</title>
<g id="a_edge3_Node000002_Node000004"><a xlink:title=" ">
<path fill="none" stroke="#63b8ff" d="M310.41,-109.75C302.84,-102.03 291.62,-90.6 282.49,-81.28"/>
<polygon fill="#63b8ff" stroke="#63b8ff" points="284.93,-78.78 275.43,-74.09 279.93,-83.68 284.93,-78.78"/>
</a>
</g>
</g>
<!-- Node2&#45;&gt;Node5 -->
<g id="edge4_Node000002_Node000005" class="edge">
<title>Node2&#45;&gt;Node5</title>
<g id="a_edge4_Node000002_Node000005"><a xlink:title=" ">
<path fill="none" stroke="#63b8ff" d="M319,-109.66C319,-92.17 319,-52.8 319,-29.27"/>
<polygon fill="#63b8ff" stroke="#63b8ff" points="322.5,-29.16 319,-19.16 315.5,-29.16 322.5,-29.16"/>
</a>
</g>
</g>
<!-- Node6 -->
<g id="Node000006" class="node">
<title>Node6</title>
<g id="a_Node000006"><a xlink:title=" ">
<polygon fill="#e0e0e0" stroke="#999999" points="440.5,-74 347.5,-74 347.5,-55 440.5,-55 440.5,-74"/>
<text text-anchor="middle" x="394" y="-62" font-family="Helvetica,sans-Serif" font-size="10.00">unordered_map</text>
</a>
</g>
</g>
<!-- Node2&#45;&gt;Node6 -->
<g id="edge5_Node000002_Node000006" class="edge">
<title>Node2&#45;&gt;Node6</title>
<g id="a_edge5_Node000002_Node000006"><a xlink:title=" ">
<path fill="none" stroke="#63b8ff" d="M331.05,-109.98C342.46,-101.92 359.83,-89.65 373.43,-80.03"/>
<polygon fill="#63b8ff" stroke="#63b8ff" points="375.58,-82.8 381.73,-74.17 371.54,-77.08 375.58,-82.8"/>
</a>
</g>
</g>
<!-- Node2&#45;&gt;Node7 -->
<g id="edge6_Node000002_Node000007" class="edge">
<title>Node2&#45;&gt;Node7</title>
<g id="a_edge6_Node000002_Node000007"><a xlink:title=" ">
<path fill="none" stroke="#63b8ff" d="M345.19,-109.98C373.24,-100.86 417.86,-86.36 448.46,-76.4"/>
<polygon fill="#63b8ff" stroke="#63b8ff" points="449.83,-79.64 458.26,-73.22 447.67,-72.98 449.83,-79.64"/>
</a>
</g>
</g>
<!-- Node8 -->
<g id="Node000008" class="node">
<title>Node8</title>
<g id="a_Node000008"><a xlink:href="HandleClient_8hpp.html" target="_top" xlink:title=" ">
<polygon fill="white" stroke="#666666" points="224.5,-74 81.5,-74 81.5,-55 224.5,-55 224.5,-74"/>
<text text-anchor="middle" x="153" y="-62" font-family="Helvetica,sans-Serif" font-size="10.00">network/HandleClient.hpp</text>
</a>
</g>
</g>
<!-- Node2&#45;&gt;Node8 -->
<g id="edge7_Node000002_Node000008" class="edge">
<title>Node2&#45;&gt;Node8</title>
<g id="a_edge7_Node000002_Node000008"><a xlink:title=" ">
<path fill="none" stroke="#63b8ff" d="M292.33,-109.98C264.46,-101.09 220.55,-87.07 189.48,-77.15"/>
<polygon fill="#63b8ff" stroke="#63b8ff" points="190.47,-73.79 179.88,-74.08 188.34,-80.46 190.47,-73.79"/>
</a>
</g>
</g>
<!-- Node8&#45;&gt;Node5 -->
<g id="edge11_Node000008_Node000005" class="edge">
<title>Node8&#45;&gt;Node5</title>
<g id="a_edge11_Node000008_Node000005"><a xlink:title=" ">
<path fill="none" stroke="#63b8ff" d="M179.67,-54.98C208.9,-45.65 255.78,-30.68 286.98,-20.72"/>
<polygon fill="#63b8ff" stroke="#63b8ff" points="288.45,-23.93 296.91,-17.55 286.32,-17.26 288.45,-23.93"/>
</a>
</g>
</g>
<!-- Node9 -->
<g id="Node000009" class="node">
<title>Node9</title>
<g id="a_Node000009"><a xlink:title=" ">
<polygon fill="#e0e0e0" stroke="#999999" points="50,-19 0,-19 0,0 50,0 50,-19"/>
<text text-anchor="middle" x="25" y="-7" font-family="Helvetica,sans-Serif" font-size="10.00">chrono</text>
</a>
</g>
</g>
<!-- Node8&#45;&gt;Node9 -->
<g id="edge8_Node000008_Node000009" class="edge">
<title>Node8&#45;&gt;Node9</title>
<g id="a_edge8_Node000008_Node000009"><a xlink:title=" ">
<path fill="none" stroke="#63b8ff" d="M132.43,-54.98C111.57,-46.34 79.03,-32.87 55.23,-23.02"/>
<polygon fill="#63b8ff" stroke="#63b8ff" points="56.52,-19.76 45.94,-19.17 53.84,-26.23 56.52,-19.76"/>
</a>
</g>
</g>
<!-- Node10 -->
<g id="Node000010" class="node">
<title>Node10</title>
<g id="a_Node000010"><a xlink:title=" ">
<polygon fill="#e0e0e0" stroke="#999999" points="118,-19 68,-19 68,0 118,0 118,-19"/>
<text text-anchor="middle" x="93" y="-7" font-family="Helvetica,sans-Serif" font-size="10.00">cstdint</text>
</a>
</g>
</g>
<!-- Node8&#45;&gt;Node10 -->
<g id="edge9_Node000008_Node000010" class="edge">
<title>Node8&#45;&gt;Node10</title>
<g id="a_edge9_Node000008_Node000010"><a xlink:title=" ">
<path fill="none" stroke="#63b8ff" d="M143.36,-54.98C134.49,-47.15 121.13,-35.34 110.39,-25.86"/>
<polygon fill="#63b8ff" stroke="#63b8ff" points="112.63,-23.17 102.82,-19.17 107.99,-28.41 112.63,-23.17"/>
</a>
</g>
</g>
<!-- Node11 -->
<g id="Node000011" class="node">
<title>Node11</title>
<g id="a_Node000011"><a xlink:title=" ">
<polygon fill="#e0e0e0" stroke="#999999" points="192,-19 136,-19 136,0 192,0 192,-19"/>
<text text-anchor="middle" x="164" y="-7" font-family="Helvetica,sans-Serif" font-size="10.00">optional</text>
</a>
</g>
</g>
<!-- Node8&#45;&gt;Node11 -->
<g id="edge10_Node000008_Node000011" class="edge">
<title>Node8&#45;&gt;Node11</title>
<g id="a_edge10_Node000008_Node000011"><a xlink:title=" ">
<path fill="none" stroke="#63b8ff" d="M154.82,-54.75C156.26,-47.8 158.32,-37.85 160.13,-29.13"/>
<polygon fill="#63b8ff" stroke="#63b8ff" points="163.61,-29.59 162.22,-19.09 156.76,-28.17 163.61,-29.59"/>
</a>
</g>
</g>
<!-- Node12 -->
<g id="Node000012" class="node">
<title>Node12</title>
<g id="a_Node000012"><a xlink:title=" ">
<polygon fill="#e0e0e0" stroke="#999999" points="268,-19 210,-19 210,0 268,0 268,-19"/>
<text text-anchor="middle" x="239" y="-7" font-family="Helvetica,sans-Serif" font-size="10.00">asio.hpp</text>
</a>
</g>
</g>
<!-- Node8&#45;&gt;Node12 -->
<g id="edge12_Node000008_Node000012" class="edge">
<title>Node8&#45;&gt;Node12</title>
<g id="a_edge12_Node000008_Node000012"><a xlink:title=" ">
<path fill="none" stroke="#63b8ff" d="M166.82,-54.98C180.15,-46.77 200.58,-34.18 216.31,-24.49"/>
<polygon fill="#63b8ff" stroke="#63b8ff" points="218.25,-27.4 224.93,-19.17 214.58,-21.44 218.25,-27.4"/>
</a>
</g>
</g>
</g>
</svg>
