<?xml version="1.0" encoding="UTF-8" standalone="no"?>
<!DOCTYPE svg PUBLIC "-//W3C//DTD SVG 1.1//EN"
 "http://www.w3.org/Graphics/SVG/1.1/DTD/svg11.dtd">
<!-- Generated by graphviz version 2.43.0 (0)
 -->
<!-- Title: /home/runner/work/R&#45;Type/R&#45;Type/Server/src/network/ClientManager.cpp Pages: 1 -->
<svg width="545pt" height="214pt"
 viewBox="0.00 0.00 544.51 214.00" xmlns="http://www.w3.org/2000/svg" xmlns:xlink="http://www.w3.org/1999/xlink">
<g id="graph0" class="graph" transform="scale(1 1) rotate(0) translate(4 210)">
<title>/home/runner/work/R&#45;Type/R&#45;Type/Server/src/network/ClientManager.cpp</title>
<!-- Node1 -->
<g id="Node000001" class="node">
<title>Node1</title>
<g id="a_Node000001"><a xlink:title=" ">
<polygon fill="#999999" stroke="#666666" points="470.5,-206 300.5,-206 300.5,-165 470.5,-165 470.5,-206"/>
<text text-anchor="start" x="308.5" y="-194" font-family="Helvetica,sans-Serif" font-size="10.00">/home/runner/work/R</text>
<text text-anchor="start" x="308.5" y="-183" font-family="Helvetica,sans-Serif" font-size="10.00">&#45;Type/R&#45;Type/Server</text>
<text text-anchor="middle" x="385.5" y="-172" font-family="Helvetica,sans-Serif" font-size="10.00">/src/network/ClientManager.cpp</text>
</a>
</g>
</g>
<!-- Node2 -->
<g id="Node000002" class="node">
<title>Node2</title>
<g id="a_Node000002"><a xlink:href="ClientManager_8hpp.html" target="_top" xlink:title=" ">
<polygon fill="white" stroke="#666666" points="315,-129 164,-129 164,-110 315,-110 315,-129"/>
<text text-anchor="middle" x="239.5" y="-117" font-family="Helvetica,sans-Serif" font-size="10.00">network/ClientManager.hpp</text>
</a>
</g>
</g>
<!-- Node1&#45;&gt;Node2 -->
<g id="edge1_Node000001_Node000002" class="edge">
<title>Node1&#45;&gt;Node2</title>
<g id="a_edge1_Node000001_Node000002"><a xlink:title=" ">
<path fill="none" stroke="#63b8ff" d="M340.9,-164.95C317.3,-154.6 289.01,-142.2 268.31,-133.13"/>
<polygon fill="#63b8ff" stroke="#63b8ff" points="269.66,-129.9 259.1,-129.09 266.85,-136.31 269.66,-129.9"/>
</a>
</g>
</g>
<!-- Node4 -->
<g id="Node000004" class="node">
<title>Node4</title>
<g id="a_Node000004"><a xlink:title=" ">
<polygon fill="#e0e0e0" stroke="#999999" points="524.5,-74 466.5,-74 466.5,-55 524.5,-55 524.5,-74"/>
<text text-anchor="middle" x="495.5" y="-62" font-family="Helvetica,sans-Serif" font-size="10.00">memory</text>
</a>
</g>
</g>
<!-- Node1&#45;&gt;Node4 -->
<g id="edge16_Node000001_Node000004" class="edge">
<title>Node1&#45;&gt;Node4</title>
<g id="a_edge16_Node000001_Node000004"><a xlink:title=" ">
<path fill="none" stroke="#63b8ff" d="M403.66,-164.85C425.2,-141.55 460.68,-103.17 480.65,-81.57"/>
<polygon fill="#63b8ff" stroke="#63b8ff" points="483.26,-83.89 487.48,-74.18 478.12,-79.14 483.26,-83.89"/>
</a>
</g>
</g>
<!-- Node6 -->
<g id="Node000006" class="node">
<title>Node6</title>
<g id="a_Node000006"><a xlink:title=" ">
<polygon fill="#e0e0e0" stroke="#999999" points="499.5,-19 455.5,-19 455.5,0 499.5,0 499.5,-19"/>
<text text-anchor="middle" x="477.5" y="-7" font-family="Helvetica,sans-Serif" font-size="10.00">string</text>
</a>
</g>
</g>
<!-- Node1&#45;&gt;Node6 -->
<g id="edge17_Node000001_Node000006" class="edge">
<title>Node1&#45;&gt;Node6</title>
<g id="a_edge17_Node000001_Node000006"><a xlink:title=" ">
<path fill="none" stroke="#63b8ff" d="M430.58,-164.93C465.78,-146.93 512.16,-116.57 533.5,-74 543.34,-54.38 522.64,-36.04 503.68,-24.16"/>
<polygon fill="#63b8ff" stroke="#63b8ff" points="505.33,-21.07 494.94,-19.03 501.79,-27.11 505.33,-21.07"/>
</a>
</g>
</g>
<!-- Node8 -->
<g id="Node000008" class="node">
<title>Node8</title>
<g id="a_Node000008"><a xlink:title=" ">
<polygon fill="#e0e0e0" stroke="#999999" points="47,-19 0,-19 0,0 47,0 47,-19"/>
<text text-anchor="middle" x="23.5" y="-7" font-family="Helvetica,sans-Serif" font-size="10.00">vector</text>
</a>
</g>
</g>
<!-- Node1&#45;&gt;Node8 -->
<g id="edge18_Node000001_Node000008" class="edge">
<title>Node1&#45;&gt;Node8</title>
<g id="a_edge18_Node000001_Node000008"><a xlink:title=" ">
<path fill="none" stroke="#63b8ff" d="M300.16,-179.39C223.58,-170.13 113.67,-144.5 49.5,-74 37.98,-61.35 31.21,-42.91 27.47,-29.16"/>
<polygon fill="#63b8ff" stroke="#63b8ff" points="30.85,-28.23 25.1,-19.33 24.05,-29.87 30.85,-28.23"/>
</a>
</g>
</g>
<!-- Node3 -->
<g id="Node000003" class="node">
<title>Node3</title>
<g id="a_Node000003"><a xlink:title=" ">
<polygon fill="#e0e0e0" stroke="#999999" points="127.5,-19 89.5,-19 89.5,0 127.5,0 127.5,-19"/>
<text text-anchor="middle" x="108.5" y="-7" font-family="Helvetica,sans-Serif" font-size="10.00">map</text>
</a>
</g>
</g>
<!-- Node2&#45;&gt;Node3 -->
<g id="edge2_Node000002_Node000003" class="edge">
<title>Node2&#45;&gt;Node3</title>
<g id="a_edge2_Node000002_Node000003"><a xlink:title=" ">
<path fill="none" stroke="#63b8ff" d="M182.83,-110C142.4,-102.63 93.06,-90.56 80.5,-74 69.65,-59.69 80.93,-40.52 92.24,-26.99"/>
<polygon fill="#63b8ff" stroke="#63b8ff" points="95,-29.17 99.1,-19.4 89.8,-24.48 95,-29.17"/>
</a>
</g>
</g>
<!-- Node2&#45;&gt;Node4 -->
<g id="edge3_Node000002_Node000004" class="edge">
<title>Node2&#45;&gt;Node4</title>
<g id="a_edge3_Node000002_Node000004"><a xlink:title=" ">
<path fill="none" stroke="#63b8ff" d="M280.63,-109.98C329.09,-99.95 408.99,-83.41 456.5,-73.57"/>
<polygon fill="#63b8ff" stroke="#63b8ff" points="457.33,-76.98 466.41,-71.52 455.91,-70.12 457.33,-76.98"/>
</a>
</g>
</g>
<!-- Node5 -->
<g id="Node000005" class="node">
<title>Node5</title>
<g id="a_Node000005"><a xlink:title=" ">
<polygon fill="#e0e0e0" stroke="#999999" points="137.5,-74 89.5,-74 89.5,-55 137.5,-55 137.5,-74"/>
<text text-anchor="middle" x="113.5" y="-62" font-family="Helvetica,sans-Serif" font-size="10.00">mutex</text>
</a>
</g>
</g>
<!-- Node2&#45;&gt;Node5 -->
<g id="edge4_Node000002_Node000005" class="edge">
<title>Node2&#45;&gt;Node5</title>
<g id="a_edge4_Node000002_Node000005"><a xlink:title=" ">
<path fill="none" stroke="#63b8ff" d="M219.26,-109.98C198.8,-101.38 166.97,-87.99 143.57,-78.15"/>
<polygon fill="#63b8ff" stroke="#63b8ff" points="144.69,-74.82 134.11,-74.17 141.97,-81.27 144.69,-74.82"/>
</a>
</g>
</g>
<!-- Node2&#45;&gt;Node6 -->
<g id="edge5_Node000002_Node000006" class="edge">
<title>Node2&#45;&gt;Node6</title>
<g id="a_edge5_Node000002_Node000006"><a xlink:title=" ">
<path fill="none" stroke="#63b8ff" d="M315.09,-109.93C348.81,-103.63 387.96,-92.76 419.5,-74 438.87,-62.48 455.56,-42.47 466,-27.99"/>
<polygon fill="#63b8ff" stroke="#63b8ff" points="469.12,-29.63 471.92,-19.41 463.36,-25.65 469.12,-29.63"/>
</a>
</g>
</g>
<!-- Node7 -->
<g id="Node000007" class="node">
<title>Node7</title>
<g id="a_Node000007"><a xlink:title=" ">
<polygon fill="#e0e0e0" stroke="#999999" points="249,-74 156,-74 156,-55 249,-55 249,-74"/>
<text text-anchor="middle" x="202.5" y="-62" font-family="Helvetica,sans-Serif" font-size="10.00">unordered_map</text>
</a>
</g>
</g>
<!-- Node2&#45;&gt;Node7 -->
<g id="edge6_Node000002_Node000007" class="edge">
<title>Node2&#45;&gt;Node7</title>
<g id="a_edge6_Node000002_Node000007"><a xlink:title=" ">
<path fill="none" stroke="#63b8ff" d="M233.39,-109.75C228.22,-102.34 220.65,-91.5 214.31,-82.41"/>
<polygon fill="#63b8ff" stroke="#63b8ff" points="217.09,-80.29 208.5,-74.09 211.35,-84.29 217.09,-80.29"/>
</a>
</g>
</g>
<!-- Node2&#45;&gt;Node8 -->
<g id="edge7_Node000002_Node000008" class="edge">
<title>Node2&#45;&gt;Node8</title>
<g id="a_edge7_Node000002_Node000008"><a xlink:title=" ">
<path fill="none" stroke="#63b8ff" d="M167.81,-109.94C136.58,-103.65 100.73,-92.78 72.5,-74 55.17,-62.47 41.37,-42.75 32.89,-28.34"/>
<polygon fill="#63b8ff" stroke="#63b8ff" points="35.81,-26.4 27.89,-19.38 29.7,-29.81 35.81,-26.4"/>
</a>
</g>
</g>
<!-- Node9 -->
<g id="Node000009" class="node">
<title>Node9</title>
<g id="a_Node000009"><a xlink:href="HandleClient_8hpp.html" target="_top" xlink:title=" ">
<polygon fill="white" stroke="#666666" points="410,-74 267,-74 267,-55 410,-55 410,-74"/>
<text text-anchor="middle" x="338.5" y="-62" font-family="Helvetica,sans-Serif" font-size="10.00">network/HandleClient.hpp</text>
</a>
</g>
</g>
<!-- Node2&#45;&gt;Node9 -->
<g id="edge8_Node000002_Node000009" class="edge">
<title>Node2&#45;&gt;Node9</title>
<g id="a_edge8_Node000002_Node000009"><a xlink:title=" ">
<path fill="none" stroke="#63b8ff" d="M255.41,-109.98C271.05,-101.61 295.16,-88.7 313.38,-78.95"/>
<polygon fill="#63b8ff" stroke="#63b8ff" points="315.14,-81.98 322.3,-74.17 311.84,-75.8 315.14,-81.98"/>
</a>
</g>
</g>
<!-- Node9&#45;&gt;Node3 -->
<g id="edge11_Node000009_Node000003" class="edge">
<title>Node9&#45;&gt;Node3</title>
<g id="a_edge11_Node000009_Node000003"><a xlink:title=" ">
<path fill="none" stroke="#63b8ff" d="M301.55,-54.98C255.89,-44.46 179.16,-26.78 137.52,-17.19"/>
<polygon fill="#63b8ff" stroke="#63b8ff" points="138.25,-13.76 127.72,-14.93 136.68,-20.59 138.25,-13.76"/>
</a>
</g>
</g>
<!-- Node9&#45;&gt;Node6 -->
<g id="edge13_Node000009_Node000006" class="edge">
<title>Node9&#45;&gt;Node6</title>
<g id="a_edge13_Node000009_Node000006"><a xlink:title=" ">
<path fill="none" stroke="#63b8ff" d="M360.83,-54.98C383.83,-46.21 419.88,-32.47 445.82,-22.58"/>
<polygon fill="#63b8ff" stroke="#63b8ff" points="447.13,-25.83 455.22,-18.99 444.63,-19.29 447.13,-25.83"/>
</a>
</g>
</g>
<!-- Node9&#45;&gt;Node8 -->
<g id="edge14_Node000009_Node000008" class="edge">
<title>Node9&#45;&gt;Node8</title>
<g id="a_edge14_Node000009_Node000008"><a xlink:title=" ">
<path fill="none" stroke="#63b8ff" d="M287.89,-54.98C223.03,-44.07 112.37,-25.45 57.05,-16.15"/>
<polygon fill="#63b8ff" stroke="#63b8ff" points="57.52,-12.67 47.07,-14.47 56.35,-19.58 57.52,-12.67"/>
</a>
</g>
</g>
<!-- Node10 -->
<g id="Node000010" class="node">
<title>Node10</title>
<g id="a_Node000010"><a xlink:title=" ">
<polygon fill="#e0e0e0" stroke="#999999" points="295.5,-19 245.5,-19 245.5,0 295.5,0 295.5,-19"/>
<text text-anchor="middle" x="270.5" y="-7" font-family="Helvetica,sans-Serif" font-size="10.00">chrono</text>
</a>
</g>
</g>
<!-- Node9&#45;&gt;Node10 -->
<g id="edge9_Node000009_Node000010" class="edge">
<title>Node9&#45;&gt;Node10</title>
<g id="a_edge9_Node000009_Node000010"><a xlink:title=" ">
<path fill="none" stroke="#63b8ff" d="M327.57,-54.98C317.42,-47.07 302.08,-35.11 289.85,-25.58"/>
<polygon fill="#63b8ff" stroke="#63b8ff" points="291.66,-22.56 281.62,-19.17 287.36,-28.08 291.66,-22.56"/>
</a>
</g>
</g>
<!-- Node11 -->
<g id="Node000011" class="node">
<title>Node11</title>
<g id="a_Node000011"><a xlink:title=" ">
<polygon fill="#e0e0e0" stroke="#999999" points="363.5,-19 313.5,-19 313.5,0 363.5,0 363.5,-19"/>
<text text-anchor="middle" x="338.5" y="-7" font-family="Helvetica,sans-Serif" font-size="10.00">cstdint</text>
</a>
</g>
</g>
<!-- Node9&#45;&gt;Node11 -->
<g id="edge10_Node000009_Node000011" class="edge">
<title>Node9&#45;&gt;Node11</title>
<g id="a_edge10_Node000009_Node000011"><a xlink:title=" ">
<path fill="none" stroke="#63b8ff" d="M338.5,-54.75C338.5,-47.8 338.5,-37.85 338.5,-29.13"/>
<polygon fill="#63b8ff" stroke="#63b8ff" points="342,-29.09 338.5,-19.09 335,-29.09 342,-29.09"/>
</a>
</g>
</g>
<!-- Node12 -->
<g id="Node000012" class="node">
<title>Node12</title>
<g id="a_Node000012"><a xlink:title=" ">
<polygon fill="#e0e0e0" stroke="#999999" points="437.5,-19 381.5,-19 381.5,0 437.5,0 437.5,-19"/>
<text text-anchor="middle" x="409.5" y="-7" font-family="Helvetica,sans-Serif" font-size="10.00">optional</text>
</a>
</g>
</g>
<!-- Node9&#45;&gt;Node12 -->
<g id="edge12_Node000009_Node000012" class="edge">
<title>Node9&#45;&gt;Node12</title>
<g id="a_edge12_Node000009_Node000012"><a xlink:title=" ">
<path fill="none" stroke="#63b8ff" d="M349.91,-54.98C360.61,-47 376.84,-34.88 389.66,-25.31"/>
<polygon fill="#63b8ff" stroke="#63b8ff" points="391.97,-27.96 397.89,-19.17 387.78,-22.35 391.97,-27.96"/>
</a>
</g>
</g>
<!-- Node13 -->
<g id="Node000013" class="node">
<title>Node13</title>
<g id="a_Node000013"><a xlink:title=" ">
<polygon fill="#e0e0e0" stroke="#999999" points="227.5,-19 169.5,-19 169.5,0 227.5,0 227.5,-19"/>
<text text-anchor="middle" x="198.5" y="-7" font-family="Helvetica,sans-Serif" font-size="10.00">asio.hpp</text>
</a>
</g>
</g>
<!-- Node9&#45;&gt;Node13 -->
<g id="edge15_Node000009_Node000013" class="edge">
<title>Node9&#45;&gt;Node13</title>
<g id="a_edge15_Node000009_Node000013"><a xlink:title=" ">
<path fill="none" stroke="#63b8ff" d="M316.01,-54.98C292.98,-46.27 256.96,-32.63 230.87,-22.75"/>
<polygon fill="#63b8ff" stroke="#63b8ff" points="231.99,-19.44 221.4,-19.17 229.52,-25.98 231.99,-19.44"/>
</a>
</g>
</g>
</g>
</svg>
