<?xml version="1.0" encoding="UTF-8" standalone="no"?>
<!DOCTYPE svg PUBLIC "-//W3C//DTD SVG 1.1//EN"
 "http://www.w3.org/Graphics/SVG/1.1/DTD/svg11.dtd">
<!-- Generated by graphviz version 2.43.0 (0)
 -->
<!-- Title: /home/runner/work/R&#45;Type/R&#45;Type/Shared/components/Collision/CollisionController.hpp Pages: 1 -->
<svg width="1964pt" height="445pt"
 viewBox="0.00 0.00 1964.00 445.00" xmlns="http://www.w3.org/2000/svg" xmlns:xlink="http://www.w3.org/1999/xlink">
<g id="graph0" class="graph" transform="scale(1 1) rotate(0) translate(4 441)">
<title>/home/runner/work/R&#45;Type/R&#45;Type/Shared/components/Collision/CollisionController.hpp</title>
<!-- Node1 -->
<g id="Node000001" class="node">
<title>Node1</title>
<g id="a_Node000001"><a xlink:title=" ">
<polygon fill="#999999" stroke="#666666" points="1456.5,-437 1326.5,-437 1326.5,-385 1456.5,-385 1456.5,-437"/>
<text text-anchor="start" x="1334.5" y="-425" font-family="Helvetica,sans-Serif" font-size="10.00">/home/runner/work/R</text>
<text text-anchor="start" x="1334.5" y="-414" font-family="Helvetica,sans-Serif" font-size="10.00">&#45;Type/R&#45;Type/Shared</text>
<text text-anchor="start" x="1334.5" y="-403" font-family="Helvetica,sans-Serif" font-size="10.00">/components/Collision</text>
<text text-anchor="middle" x="1391.5" y="-392" font-family="Helvetica,sans-Serif" font-size="10.00">/CollisionController.hpp</text>
</a>
</g>
</g>
<!-- Node2 -->
<g id="Node000002" class="node">
<title>Node2</title>
<g id="a_Node000002"><a xlink:href="GameEngine_8cpp.html" target="_top" xlink:title=" ">
<polygon fill="white" stroke="#666666" points="155,-118 0,-118 0,-77 155,-77 155,-118"/>
<text text-anchor="start" x="8" y="-106" font-family="Helvetica,sans-Serif" font-size="10.00">/home/runner/work/R</text>
<text text-anchor="start" x="8" y="-95" font-family="Helvetica,sans-Serif" font-size="10.00">&#45;Type/R&#45;Type/Client</text>
<text text-anchor="middle" x="77.5" y="-84" font-family="Helvetica,sans-Serif" font-size="10.00">/src/engine/GameEngine.cpp</text>
</a>
</g>
</g>
<!-- Node1&#45;&gt;Node2 -->
<g id="edge1_Node000001_Node000002" class="edge">
<title>Node1&#45;&gt;Node2</title>
<g id="a_edge1_Node000001_Node000002"><a xlink:title=" ">
<path fill="none" stroke="#63b8ff" d="M1316.4,-404.92C1159.6,-392.93 787.05,-357.21 486.5,-272 344.02,-231.61 185.2,-154.21 114.69,-118.04"/>
<polygon fill="#63b8ff" stroke="#63b8ff" points="1316.17,-408.41 1326.41,-405.67 1316.7,-401.43 1316.17,-408.41"/>
</a>
</g>
</g>
<!-- Node3 -->
<g id="Node000003" class="node">
<title>Node3</title>
<g id="a_Node000003"><a xlink:href="ServerGame_8cpp.html" target="_top" xlink:title=" ">
<polygon fill="white" stroke="#666666" points="1582,-195 1463,-195 1463,-154 1582,-154 1582,-195"/>
<text text-anchor="start" x="1471" y="-183" font-family="Helvetica,sans-Serif" font-size="10.00">/home/runner/work/R</text>
<text text-anchor="start" x="1471" y="-172" font-family="Helvetica,sans-Serif" font-size="10.00">&#45;Type/R&#45;Type/Server</text>
<text text-anchor="middle" x="1522.5" y="-161" font-family="Helvetica,sans-Serif" font-size="10.00">/src/ServerGame.cpp</text>
</a>
</g>
</g>
<!-- Node1&#45;&gt;Node3 -->
<g id="edge2_Node000001_Node000003" class="edge">
<title>Node1&#45;&gt;Node3</title>
<g id="a_edge2_Node000001_Node000003"><a xlink:title=" ">
<path fill="none" stroke="#63b8ff" d="M1414.04,-376.39C1432.12,-348.86 1457.65,-308.61 1477.5,-272 1491.6,-246 1505.65,-214.8 1514.21,-195.06"/>
<polygon fill="#63b8ff" stroke="#63b8ff" points="1411.04,-374.59 1408.45,-384.86 1416.88,-378.44 1411.04,-374.59"/>
</a>
</g>
</g>
<!-- Node4 -->
<g id="Node000004" class="node">
<title>Node4</title>
<g id="a_Node000004"><a xlink:href="PlayerEntity_8hpp.html" target="_top" xlink:title=" ">
<polygon fill="white" stroke="#666666" points="1285,-349 1090,-349 1090,-308 1285,-308 1285,-349"/>
<text text-anchor="start" x="1098" y="-337" font-family="Helvetica,sans-Serif" font-size="10.00">/home/runner/work/R</text>
<text text-anchor="start" x="1098" y="-326" font-family="Helvetica,sans-Serif" font-size="10.00">&#45;Type/R&#45;Type/Shared</text>
<text text-anchor="middle" x="1187.5" y="-315" font-family="Helvetica,sans-Serif" font-size="10.00">/components/Player/PlayerEntity.hpp</text>
</a>
</g>
</g>
<!-- Node1&#45;&gt;Node4 -->
<g id="edge3_Node000001_Node000004" class="edge">
<title>Node1&#45;&gt;Node4</title>
<g id="a_edge3_Node000001_Node000004"><a xlink:title=" ">
<path fill="none" stroke="#63b8ff" d="M1318.63,-381.24C1291.54,-370.56 1261.47,-358.69 1236.96,-349.02"/>
<polygon fill="#63b8ff" stroke="#63b8ff" points="1317.48,-384.56 1328.07,-384.97 1320.05,-378.04 1317.48,-384.56"/>
</a>
</g>
</g>
<!-- Node17 -->
<g id="Node000017" class="node">
<title>Node17</title>
<g id="a_Node000017"><a xlink:href="Collision_8hpp.html" target="_top" xlink:title=" ">
<polygon fill="white" stroke="#666666" points="1735.5,-272 1563.5,-272 1563.5,-231 1735.5,-231 1735.5,-272"/>
<text text-anchor="start" x="1571.5" y="-260" font-family="Helvetica,sans-Serif" font-size="10.00">/home/runner/work/R</text>
<text text-anchor="start" x="1571.5" y="-249" font-family="Helvetica,sans-Serif" font-size="10.00">&#45;Type/R&#45;Type/Shared</text>
<text text-anchor="middle" x="1649.5" y="-238" font-family="Helvetica,sans-Serif" font-size="10.00">/systems/Collision/Collision.hpp</text>
</a>
</g>
</g>
<!-- Node1&#45;&gt;Node17 -->
<g id="edge37_Node000001_Node000017" class="edge">
<title>Node1&#45;&gt;Node17</title>
<g id="a_edge37_Node000001_Node000017"><a xlink:title=" ">
<path fill="none" stroke="#63b8ff" d="M1466.1,-388.1C1493.48,-378.32 1524,-365.27 1549.5,-349 1583.06,-327.58 1614.9,-293.69 1633.3,-272.29"/>
<polygon fill="#63b8ff" stroke="#63b8ff" points="1464.84,-384.83 1456.55,-391.42 1467.15,-391.44 1464.84,-384.83"/>
</a>
</g>
</g>
<!-- Node5 -->
<g id="Node000005" class="node">
<title>Node5</title>
<g id="a_Node000005"><a xlink:href="InputSystem_8cpp.html" target="_top" xlink:title=" ">
<polygon fill="white" stroke="#666666" points="524.5,-195 336.5,-195 336.5,-154 524.5,-154 524.5,-195"/>
<text text-anchor="start" x="344.5" y="-183" font-family="Helvetica,sans-Serif" font-size="10.00">/home/runner/work/R</text>
<text text-anchor="start" x="344.5" y="-172" font-family="Helvetica,sans-Serif" font-size="10.00">&#45;Type/R&#45;Type/Client</text>
<text text-anchor="middle" x="430.5" y="-161" font-family="Helvetica,sans-Serif" font-size="10.00">/src/engine/inputs/InputSystem.cpp</text>
</a>
</g>
</g>
<!-- Node4&#45;&gt;Node5 -->
<g id="edge4_Node000004_Node000005" class="edge">
<title>Node4&#45;&gt;Node5</title>
<g id="a_edge4_Node000004_Node000005"><a xlink:title=" ">
<path fill="none" stroke="#63b8ff" d="M1079.89,-325.33C925.16,-320.97 648.23,-308.24 555.5,-272 512.09,-255.04 471.21,-218.05 448.65,-195.11"/>
<polygon fill="#63b8ff" stroke="#63b8ff" points="1079.81,-328.83 1089.91,-325.6 1080.01,-321.83 1079.81,-328.83"/>
</a>
</g>
</g>
<!-- Node6 -->
<g id="Node000006" class="node">
<title>Node6</title>
<g id="a_Node000006"><a xlink:href="InputSystem_8hpp.html" target="_top" xlink:title=" ">
<polygon fill="white" stroke="#666666" points="752.5,-272 564.5,-272 564.5,-231 752.5,-231 752.5,-272"/>
<text text-anchor="start" x="572.5" y="-260" font-family="Helvetica,sans-Serif" font-size="10.00">/home/runner/work/R</text>
<text text-anchor="start" x="572.5" y="-249" font-family="Helvetica,sans-Serif" font-size="10.00">&#45;Type/R&#45;Type/Client</text>
<text text-anchor="middle" x="658.5" y="-238" font-family="Helvetica,sans-Serif" font-size="10.00">/src/engine/inputs/InputSystem.hpp</text>
</a>
</g>
</g>
<!-- Node4&#45;&gt;Node6 -->
<g id="edge5_Node000004_Node000006" class="edge">
<title>Node4&#45;&gt;Node6</title>
<g id="a_edge5_Node000004_Node000006"><a xlink:title=" ">
<path fill="none" stroke="#63b8ff" d="M1079.83,-312.23C983.82,-298.62 844.65,-278.89 752.91,-265.88"/>
<polygon fill="#63b8ff" stroke="#63b8ff" points="1079.46,-315.72 1089.86,-313.66 1080.45,-308.79 1079.46,-315.72"/>
</a>
</g>
</g>
<!-- Node14 -->
<g id="Node000014" class="node">
<title>Node14</title>
<g id="a_Node000014"><a xlink:href="MainGame_8hpp.html" target="_top" xlink:title=" ">
<polygon fill="white" stroke="#666666" points="864.5,-195 716.5,-195 716.5,-154 864.5,-154 864.5,-195"/>
<text text-anchor="start" x="724.5" y="-183" font-family="Helvetica,sans-Serif" font-size="10.00">/home/runner/work/R</text>
<text text-anchor="start" x="724.5" y="-172" font-family="Helvetica,sans-Serif" font-size="10.00">&#45;Type/R&#45;Type/Client</text>
<text text-anchor="middle" x="790.5" y="-161" font-family="Helvetica,sans-Serif" font-size="10.00">/src/scenes/MainGame.hpp</text>
</a>
</g>
</g>
<!-- Node4&#45;&gt;Node14 -->
<g id="edge21_Node000004_Node000014" class="edge">
<title>Node4&#45;&gt;Node14</title>
<g id="a_edge21_Node000004_Node000014"><a xlink:title=" ">
<path fill="none" stroke="#63b8ff" d="M1095.42,-304.68C1071.55,-296.48 1046.64,-285.75 1025.5,-272 1004.67,-258.45 1008.69,-243.96 987.5,-231 976.61,-224.34 915.83,-207.66 864.63,-194.31"/>
<polygon fill="#63b8ff" stroke="#63b8ff" points="1094.62,-308.1 1105.21,-307.93 1096.82,-301.46 1094.62,-308.1"/>
</a>
</g>
</g>
<!-- Node15 -->
<g id="Node000015" class="node">
<title>Node15</title>
<g id="a_Node000015"><a xlink:href="BoundsSystem_8cpp.html" target="_top" xlink:title=" ">
<polygon fill="white" stroke="#666666" points="979,-272 822,-272 822,-231 979,-231 979,-272"/>
<text text-anchor="start" x="830" y="-260" font-family="Helvetica,sans-Serif" font-size="10.00">/home/runner/work/R</text>
<text text-anchor="start" x="830" y="-249" font-family="Helvetica,sans-Serif" font-size="10.00">&#45;Type/R&#45;Type/Shared</text>
<text text-anchor="middle" x="900.5" y="-238" font-family="Helvetica,sans-Serif" font-size="10.00">/systems/BoundsSystem.cpp</text>
</a>
</g>
</g>
<!-- Node4&#45;&gt;Node15 -->
<g id="edge22_Node000004_Node000015" class="edge">
<title>Node4&#45;&gt;Node15</title>
<g id="a_edge22_Node000004_Node000015"><a xlink:title=" ">
<path fill="none" stroke="#63b8ff" d="M1102.99,-305.42C1062.5,-294.84 1014.43,-282.27 975.28,-272.04"/>
<polygon fill="#63b8ff" stroke="#63b8ff" points="1102.28,-308.85 1112.84,-307.99 1104.05,-302.08 1102.28,-308.85"/>
</a>
</g>
</g>
<!-- Node16 -->
<g id="Node000016" class="node">
<title>Node16</title>
<g id="a_Node000016"><a xlink:href="Collision_8cpp.html" target="_top" xlink:title=" ">
<polygon fill="white" stroke="#666666" points="1771,-195 1600,-195 1600,-154 1771,-154 1771,-195"/>
<text text-anchor="start" x="1608" y="-183" font-family="Helvetica,sans-Serif" font-size="10.00">/home/runner/work/R</text>
<text text-anchor="start" x="1608" y="-172" font-family="Helvetica,sans-Serif" font-size="10.00">&#45;Type/R&#45;Type/Shared</text>
<text text-anchor="middle" x="1685.5" y="-161" font-family="Helvetica,sans-Serif" font-size="10.00">/systems/Collision/Collision.cpp</text>
</a>
</g>
</g>
<!-- Node4&#45;&gt;Node16 -->
<g id="edge23_Node000004_Node000016" class="edge">
<title>Node4&#45;&gt;Node16</title>
<g id="a_edge23_Node000004_Node000016"><a xlink:title=" ">
<path fill="none" stroke="#63b8ff" d="M1295.3,-314.74C1350.79,-306.21 1418.91,-292.67 1477.5,-272 1514.06,-259.1 1519.5,-247.69 1554.5,-231 1581.25,-218.24 1611.71,-205.25 1636.52,-195.05"/>
<polygon fill="#63b8ff" stroke="#63b8ff" points="1294.46,-311.32 1285.09,-316.27 1295.5,-318.25 1294.46,-311.32"/>
</a>
</g>
</g>
<!-- Node4&#45;&gt;Node17 -->
<g id="edge24_Node000004_Node000017" class="edge">
<title>Node4&#45;&gt;Node17</title>
<g id="a_edge24_Node000004_Node000017"><a xlink:title=" ">
<path fill="none" stroke="#63b8ff" d="M1295.5,-309.97C1377.06,-296.73 1487.51,-278.8 1563.22,-266.51"/>
<polygon fill="#63b8ff" stroke="#63b8ff" points="1294.51,-306.58 1285.2,-311.64 1295.63,-313.49 1294.51,-306.58"/>
</a>
</g>
</g>
<!-- Node19 -->
<g id="Node000019" class="node">
<title>Node19</title>
<g id="a_Node000019"><a xlink:href="EntityHelper_8hpp.html" target="_top" xlink:title=" ">
<polygon fill="white" stroke="#666666" points="1220,-272 1035,-272 1035,-231 1220,-231 1220,-272"/>
<text text-anchor="start" x="1043" y="-260" font-family="Helvetica,sans-Serif" font-size="10.00">/home/runner/work/R</text>
<text text-anchor="start" x="1043" y="-249" font-family="Helvetica,sans-Serif" font-size="10.00">&#45;Type/R&#45;Type/Shared</text>
<text text-anchor="middle" x="1127.5" y="-238" font-family="Helvetica,sans-Serif" font-size="10.00">/systems/Helpers/EntityHelper.hpp</text>
</a>
</g>
</g>
<!-- Node4&#45;&gt;Node19 -->
<g id="edge28_Node000004_Node000019" class="edge">
<title>Node4&#45;&gt;Node19</title>
<g id="a_edge28_Node000004_Node000019"><a xlink:title=" ">
<path fill="none" stroke="#63b8ff" d="M1165.46,-299.95C1158.06,-290.7 1149.97,-280.58 1143.16,-272.07"/>
<polygon fill="#63b8ff" stroke="#63b8ff" points="1162.76,-302.17 1171.74,-307.79 1168.22,-297.8 1162.76,-302.17"/>
</a>
</g>
</g>
<!-- Node20 -->
<g id="Node000020" class="node">
<title>Node20</title>
<g id="a_Node000020"><a xlink:href="Movement_8cpp.html" target="_top" xlink:title=" ">
<polygon fill="white" stroke="#666666" points="1444.5,-195 1252.5,-195 1252.5,-154 1444.5,-154 1444.5,-195"/>
<text text-anchor="start" x="1260.5" y="-183" font-family="Helvetica,sans-Serif" font-size="10.00">/home/runner/work/R</text>
<text text-anchor="start" x="1260.5" y="-172" font-family="Helvetica,sans-Serif" font-size="10.00">&#45;Type/R&#45;Type/Shared</text>
<text text-anchor="middle" x="1348.5" y="-161" font-family="Helvetica,sans-Serif" font-size="10.00">/systems/Movement/Movement.cpp</text>
</a>
</g>
</g>
<!-- Node4&#45;&gt;Node20 -->
<g id="edge33_Node000004_Node000020" class="edge">
<title>Node4&#45;&gt;Node20</title>
<g id="a_edge33_Node000004_Node000020"><a xlink:title=" ">
<path fill="none" stroke="#63b8ff" d="M1208.99,-299.46C1227.84,-275.2 1254.13,-242.3 1266.5,-231 1281.23,-217.56 1299.44,-204.9 1314.96,-195.08"/>
<polygon fill="#63b8ff" stroke="#63b8ff" points="1206.02,-297.58 1202.67,-307.63 1211.55,-301.86 1206.02,-297.58"/>
</a>
</g>
</g>
<!-- Node23 -->
<g id="Node000023" class="node">
<title>Node23</title>
<g id="a_Node000023"><a xlink:href="Movement_8hpp.html" target="_top" xlink:title=" ">
<polygon fill="white" stroke="#666666" points="1469,-272 1276,-272 1276,-231 1469,-231 1469,-272"/>
<text text-anchor="start" x="1284" y="-260" font-family="Helvetica,sans-Serif" font-size="10.00">/home/runner/work/R</text>
<text text-anchor="start" x="1284" y="-249" font-family="Helvetica,sans-Serif" font-size="10.00">&#45;Type/R&#45;Type/Shared</text>
<text text-anchor="middle" x="1372.5" y="-238" font-family="Helvetica,sans-Serif" font-size="10.00">/systems/Movement/Movement.hpp</text>
</a>
</g>
</g>
<!-- Node4&#45;&gt;Node23 -->
<g id="edge34_Node000004_Node000023" class="edge">
<title>Node4&#45;&gt;Node23</title>
<g id="a_edge34_Node000004_Node000023"><a xlink:title=" ">
<path fill="none" stroke="#63b8ff" d="M1245.14,-304.13C1270.55,-293.83 1300.08,-281.86 1324.3,-272.04"/>
<polygon fill="#63b8ff" stroke="#63b8ff" points="1243.58,-300.99 1235.62,-307.99 1246.21,-307.48 1243.58,-300.99"/>
</a>
</g>
</g>
<!-- Node6&#45;&gt;Node5 -->
<g id="edge18_Node000006_Node000005" class="edge">
<title>Node6&#45;&gt;Node5</title>
<g id="a_edge18_Node000006_Node000005"><a xlink:title=" ">
<path fill="none" stroke="#63b8ff" d="M589.52,-227.81C557.75,-217.36 520.41,-205.08 489.91,-195.04"/>
<polygon fill="#63b8ff" stroke="#63b8ff" points="588.6,-231.19 599.19,-230.99 590.79,-224.54 588.6,-231.19"/>
</a>
</g>
</g>
<!-- Node7 -->
<g id="Node000007" class="node">
<title>Node7</title>
<g id="a_Node000007"><a xlink:href="GameEngine_8hpp.html" target="_top" xlink:title=" ">
<polygon fill="white" stroke="#666666" points="698.5,-195 542.5,-195 542.5,-154 698.5,-154 698.5,-195"/>
<text text-anchor="start" x="550.5" y="-183" font-family="Helvetica,sans-Serif" font-size="10.00">/home/runner/work/R</text>
<text text-anchor="start" x="550.5" y="-172" font-family="Helvetica,sans-Serif" font-size="10.00">&#45;Type/R&#45;Type/Client</text>
<text text-anchor="middle" x="620.5" y="-161" font-family="Helvetica,sans-Serif" font-size="10.00">/src/engine/GameEngine.hpp</text>
</a>
</g>
</g>
<!-- Node6&#45;&gt;Node7 -->
<g id="edge6_Node000006_Node000007" class="edge">
<title>Node6&#45;&gt;Node7</title>
<g id="a_edge6_Node000006_Node000007"><a xlink:title=" ">
<path fill="none" stroke="#63b8ff" d="M643.97,-221.83C639.44,-212.89 634.55,-203.24 630.42,-195.07"/>
<polygon fill="#63b8ff" stroke="#63b8ff" points="640.87,-223.46 648.52,-230.79 647.12,-220.29 640.87,-223.46"/>
</a>
</g>
</g>
<!-- Node6&#45;&gt;Node14 -->
<g id="edge19_Node000006_Node000014" class="edge">
<title>Node6&#45;&gt;Node14</title>
<g id="a_edge19_Node000006_Node000014"><a xlink:title=" ">
<path fill="none" stroke="#63b8ff" d="M701.76,-225.92C719.32,-215.95 739.31,-204.58 755.88,-195.17"/>
<polygon fill="#63b8ff" stroke="#63b8ff" points="699.8,-223.01 692.84,-230.99 703.26,-229.09 699.8,-223.01"/>
</a>
</g>
</g>
<!-- Node7&#45;&gt;Node2 -->
<g id="edge8_Node000007_Node000002" class="edge">
<title>Node7&#45;&gt;Node2</title>
<g id="a_edge8_Node000007_Node000002"><a xlink:title=" ">
<path fill="none" stroke="#63b8ff" d="M532.43,-153.94C369.05,-128.55 324.03,-143.56 164.5,-118 161.44,-117.51 158.33,-116.98 155.2,-116.41"/>
<polygon fill="#63b8ff" stroke="#63b8ff" points="531.91,-157.4 542.33,-155.5 533,-150.48 531.91,-157.4"/>
</a>
</g>
</g>
<!-- Node8 -->
<g id="Node000008" class="node">
<title>Node8</title>
<g id="a_Node000008"><a xlink:href="Main_8cpp.html" target="_top" xlink:title=" ">
<polygon fill="white" stroke="#666666" points="915,-41 796,-41 796,0 915,0 915,-41"/>
<text text-anchor="start" x="804" y="-29" font-family="Helvetica,sans-Serif" font-size="10.00">/home/runner/work/R</text>
<text text-anchor="start" x="804" y="-18" font-family="Helvetica,sans-Serif" font-size="10.00">&#45;Type/R&#45;Type/Client</text>
<text text-anchor="middle" x="855.5" y="-7" font-family="Helvetica,sans-Serif" font-size="10.00">/src/Main.cpp</text>
</a>
</g>
</g>
<!-- Node7&#45;&gt;Node8 -->
<g id="edge7_Node000007_Node000008" class="edge">
<title>Node7&#45;&gt;Node8</title>
<g id="a_edge7_Node000007_Node000008"><a xlink:title=" ">
<path fill="none" stroke="#63b8ff" d="M708.67,-154.16C790.85,-144.54 970.72,-167.22 1014.5,-118 1026.61,-104.39 1025.05,-91.86 1014.5,-77 992.07,-45.41 950.26,-31.66 915.15,-25.73"/>
<polygon fill="#63b8ff" stroke="#63b8ff" points="708.09,-150.7 698.68,-155.58 709.07,-157.63 708.09,-150.7"/>
</a>
</g>
</g>
<!-- Node9 -->
<g id="Node000009" class="node">
<title>Node9</title>
<g id="a_Node000009"><a xlink:href="SceneManager_8cpp.html" target="_top" xlink:title=" ">
<polygon fill="white" stroke="#666666" points="369.5,-118 173.5,-118 173.5,-77 369.5,-77 369.5,-118"/>
<text text-anchor="start" x="181.5" y="-106" font-family="Helvetica,sans-Serif" font-size="10.00">/home/runner/work/R</text>
<text text-anchor="start" x="181.5" y="-95" font-family="Helvetica,sans-Serif" font-size="10.00">&#45;Type/R&#45;Type/Client</text>
<text text-anchor="middle" x="271.5" y="-84" font-family="Helvetica,sans-Serif" font-size="10.00">/src/engine/scene/SceneManager.cpp</text>
</a>
</g>
</g>
<!-- Node7&#45;&gt;Node9 -->
<g id="edge9_Node000007_Node000009" class="edge">
<title>Node7&#45;&gt;Node9</title>
<g id="a_edge9_Node000007_Node000009"><a xlink:title=" ">
<path fill="none" stroke="#63b8ff" d="M532.43,-153.78C471.29,-140.48 412.42,-128 364.93,-118.01"/>
<polygon fill="#63b8ff" stroke="#63b8ff" points="531.74,-157.21 542.25,-155.92 533.23,-150.37 531.74,-157.21"/>
</a>
</g>
</g>
<!-- Node10 -->
<g id="Node000010" class="node">
<title>Node10</title>
<g id="a_Node000010"><a xlink:href="JoinGame_8hpp.html" target="_top" xlink:title=" ">
<polygon fill="white" stroke="#666666" points="529.5,-118 387.5,-118 387.5,-77 529.5,-77 529.5,-118"/>
<text text-anchor="start" x="395.5" y="-106" font-family="Helvetica,sans-Serif" font-size="10.00">/home/runner/work/R</text>
<text text-anchor="start" x="395.5" y="-95" font-family="Helvetica,sans-Serif" font-size="10.00">&#45;Type/R&#45;Type/Client</text>
<text text-anchor="middle" x="458.5" y="-84" font-family="Helvetica,sans-Serif" font-size="10.00">/src/scenes/JoinGame.hpp</text>
</a>
</g>
</g>
<!-- Node7&#45;&gt;Node10 -->
<g id="edge10_Node000007_Node000010" class="edge">
<title>Node7&#45;&gt;Node10</title>
<g id="a_edge10_Node000007_Node000010"><a xlink:title=" ">
<path fill="none" stroke="#63b8ff" d="M569.14,-149.72C547.09,-139.51 521.64,-127.73 500.71,-118.04"/>
<polygon fill="#63b8ff" stroke="#63b8ff" points="567.81,-152.97 578.36,-153.99 570.76,-146.61 567.81,-152.97"/>
</a>
</g>
</g>
<!-- Node11 -->
<g id="Node000011" class="node">
<title>Node11</title>
<g id="a_Node000011"><a xlink:href="MainMenu_8hpp.html" target="_top" xlink:title=" ">
<polygon fill="white" stroke="#666666" points="693.5,-118 547.5,-118 547.5,-77 693.5,-77 693.5,-118"/>
<text text-anchor="start" x="555.5" y="-106" font-family="Helvetica,sans-Serif" font-size="10.00">/home/runner/work/R</text>
<text text-anchor="start" x="555.5" y="-95" font-family="Helvetica,sans-Serif" font-size="10.00">&#45;Type/R&#45;Type/Client</text>
<text text-anchor="middle" x="620.5" y="-84" font-family="Helvetica,sans-Serif" font-size="10.00">/src/scenes/MainMenu.hpp</text>
</a>
</g>
</g>
<!-- Node7&#45;&gt;Node11 -->
<g id="edge12_Node000007_Node000011" class="edge">
<title>Node7&#45;&gt;Node11</title>
<g id="a_edge12_Node000007_Node000011"><a xlink:title=" ">
<path fill="none" stroke="#63b8ff" d="M620.5,-143.69C620.5,-135.08 620.5,-125.9 620.5,-118.07"/>
<polygon fill="#63b8ff" stroke="#63b8ff" points="617,-143.79 620.5,-153.79 624,-143.79 617,-143.79"/>
</a>
</g>
</g>
<!-- Node12 -->
<g id="Node000012" class="node">
<title>Node12</title>
<g id="a_Node000012"><a xlink:href="Options_8hpp.html" target="_top" xlink:title=" ">
<polygon fill="white" stroke="#666666" points="843.5,-118 711.5,-118 711.5,-77 843.5,-77 843.5,-118"/>
<text text-anchor="start" x="719.5" y="-106" font-family="Helvetica,sans-Serif" font-size="10.00">/home/runner/work/R</text>
<text text-anchor="start" x="719.5" y="-95" font-family="Helvetica,sans-Serif" font-size="10.00">&#45;Type/R&#45;Type/Client</text>
<text text-anchor="middle" x="777.5" y="-84" font-family="Helvetica,sans-Serif" font-size="10.00">/src/scenes/Options.hpp</text>
</a>
</g>
</g>
<!-- Node7&#45;&gt;Node12 -->
<g id="edge14_Node000007_Node000012" class="edge">
<title>Node7&#45;&gt;Node12</title>
<g id="a_edge14_Node000007_Node000012"><a xlink:title=" ">
<path fill="none" stroke="#63b8ff" d="M670.56,-149.59C691.87,-139.41 716.4,-127.69 736.59,-118.04"/>
<polygon fill="#63b8ff" stroke="#63b8ff" points="668.85,-146.52 661.34,-153.99 671.87,-152.84 668.85,-146.52"/>
</a>
</g>
</g>
<!-- Node13 -->
<g id="Node000013" class="node">
<title>Node13</title>
<g id="a_Node000013"><a xlink:href="WaitLobby_8hpp.html" target="_top" xlink:title=" ">
<polygon fill="white" stroke="#666666" points="1005.5,-118 861.5,-118 861.5,-77 1005.5,-77 1005.5,-118"/>
<text text-anchor="start" x="869.5" y="-106" font-family="Helvetica,sans-Serif" font-size="10.00">/home/runner/work/R</text>
<text text-anchor="start" x="869.5" y="-95" font-family="Helvetica,sans-Serif" font-size="10.00">&#45;Type/R&#45;Type/Client</text>
<text text-anchor="middle" x="933.5" y="-84" font-family="Helvetica,sans-Serif" font-size="10.00">/src/scenes/WaitLobby.hpp</text>
</a>
</g>
</g>
<!-- Node7&#45;&gt;Node13 -->
<g id="edge16_Node000007_Node000013" class="edge">
<title>Node7&#45;&gt;Node13</title>
<g id="a_edge16_Node000007_Node000013"><a xlink:title=" ">
<path fill="none" stroke="#63b8ff" d="M708.58,-152.46C751.93,-142.1 804.96,-129.41 852.5,-118 855.31,-117.32 858.18,-116.64 861.08,-115.94"/>
<polygon fill="#63b8ff" stroke="#63b8ff" points="707.55,-149.11 698.63,-154.84 709.17,-155.92 707.55,-149.11"/>
</a>
</g>
</g>
<!-- Node10&#45;&gt;Node8 -->
<g id="edge11_Node000010_Node000008" class="edge">
<title>Node10&#45;&gt;Node8</title>
<g id="a_edge11_Node000010_Node000008"><a xlink:title=" ">
<path fill="none" stroke="#63b8ff" d="M539.35,-76.88C634.66,-57.18 734.22,-40.56 795.98,-30.72"/>
<polygon fill="#63b8ff" stroke="#63b8ff" points="538.62,-73.46 529.54,-78.93 540.05,-80.31 538.62,-73.46"/>
</a>
</g>
</g>
<!-- Node11&#45;&gt;Node8 -->
<g id="edge13_Node000011_Node000008" class="edge">
<title>Node11&#45;&gt;Node8</title>
<g id="a_edge13_Node000011_Node000008"><a xlink:title=" ">
<path fill="none" stroke="#63b8ff" d="M691.33,-73.9C724.7,-63.24 764.07,-50.68 795.89,-40.52"/>
<polygon fill="#63b8ff" stroke="#63b8ff" points="690.09,-70.62 681.63,-76.99 692.22,-77.28 690.09,-70.62"/>
</a>
</g>
</g>
<!-- Node12&#45;&gt;Node8 -->
<g id="edge15_Node000012_Node000008" class="edge">
<title>Node12&#45;&gt;Node8</title>
<g id="a_edge15_Node000012_Node000008"><a xlink:title=" ">
<path fill="none" stroke="#63b8ff" d="M805.28,-69.79C815.13,-60.32 826.03,-49.84 835.14,-41.07"/>
<polygon fill="#63b8ff" stroke="#63b8ff" points="802.78,-67.34 797.99,-76.79 807.63,-72.39 802.78,-67.34"/>
</a>
</g>
</g>
<!-- Node13&#45;&gt;Node8 -->
<g id="edge17_Node000013_Node000008" class="edge">
<title>Node13&#45;&gt;Node8</title>
<g id="a_edge17_Node000013_Node000008"><a xlink:title=" ">
<path fill="none" stroke="#63b8ff" d="M905.72,-69.79C895.87,-60.32 884.97,-49.84 875.86,-41.07"/>
<polygon fill="#63b8ff" stroke="#63b8ff" points="903.37,-72.39 913.01,-76.79 908.22,-67.34 903.37,-72.39"/>
</a>
</g>
</g>
<!-- Node14&#45;&gt;Node8 -->
<g id="edge20_Node000014_Node000008" class="edge">
<title>Node14&#45;&gt;Node8</title>
<g id="a_edge20_Node000014_Node000008"><a xlink:title=" ">
<path fill="none" stroke="#63b8ff" d="M874.58,-154.01C954.29,-140.11 999.58,-176.85 1047.5,-118 1088.37,-67.81 985.65,-41.33 915.2,-29.47"/>
<polygon fill="#63b8ff" stroke="#63b8ff" points="873.82,-150.59 864.69,-155.97 875.18,-157.46 873.82,-150.59"/>
</a>
</g>
</g>
<!-- Node17&#45;&gt;Node3 -->
<g id="edge25_Node000017_Node000003" class="edge">
<title>Node17&#45;&gt;Node3</title>
<g id="a_edge25_Node000017_Node000003"><a xlink:title=" ">
<path fill="none" stroke="#63b8ff" d="M1607.41,-225.64C1590.64,-215.74 1571.6,-204.5 1555.81,-195.17"/>
<polygon fill="#63b8ff" stroke="#63b8ff" points="1606.07,-228.92 1616.46,-230.99 1609.63,-222.89 1606.07,-228.92"/>
</a>
</g>
</g>
<!-- Node17&#45;&gt;Node16 -->
<g id="edge26_Node000017_Node000016" class="edge">
<title>Node17&#45;&gt;Node16</title>
<g id="a_edge26_Node000017_Node000016"><a xlink:title=" ">
<path fill="none" stroke="#63b8ff" d="M1663.4,-221.55C1667.65,-212.69 1672.23,-203.15 1676.1,-195.07"/>
<polygon fill="#63b8ff" stroke="#63b8ff" points="1660.13,-220.26 1658.96,-230.79 1666.44,-223.29 1660.13,-220.26"/>
</a>
</g>
</g>
<!-- Node18 -->
<g id="Node000018" class="node">
<title>Node18</title>
<g id="a_Node000018"><a xlink:href="ProjectileSystem_8cpp.html" target="_top" xlink:title=" ">
<polygon fill="white" stroke="#666666" points="1956,-195 1789,-195 1789,-154 1956,-154 1956,-195"/>
<text text-anchor="start" x="1797" y="-183" font-family="Helvetica,sans-Serif" font-size="10.00">/home/runner/work/R</text>
<text text-anchor="start" x="1797" y="-172" font-family="Helvetica,sans-Serif" font-size="10.00">&#45;Type/R&#45;Type/Shared</text>
<text text-anchor="middle" x="1872.5" y="-161" font-family="Helvetica,sans-Serif" font-size="10.00">/systems/ProjectileSystem.cpp</text>
</a>
</g>
</g>
<!-- Node17&#45;&gt;Node18 -->
<g id="edge27_Node000017_Node000018" class="edge">
<title>Node17&#45;&gt;Node18</title>
<g id="a_edge27_Node000017_Node000018"><a xlink:title=" ">
<path fill="none" stroke="#63b8ff" d="M1717.37,-227.67C1748.36,-217.25 1784.69,-205.03 1814.39,-195.04"/>
<polygon fill="#63b8ff" stroke="#63b8ff" points="1715.87,-224.49 1707.51,-230.99 1718.1,-231.12 1715.87,-224.49"/>
</a>
</g>
</g>
<!-- Node19&#45;&gt;Node3 -->
<g id="edge29_Node000019_Node000003" class="edge">
<title>Node19&#45;&gt;Node3</title>
<g id="a_edge29_Node000019_Node000003"><a xlink:title=" ">
<path fill="none" stroke="#63b8ff" d="M1230.22,-235.89C1294.68,-226.01 1379.34,-211.74 1453.5,-195 1456.54,-194.31 1459.64,-193.58 1462.76,-192.8"/>
<polygon fill="#63b8ff" stroke="#63b8ff" points="1229.41,-232.47 1220.06,-237.44 1230.47,-239.39 1229.41,-232.47"/>
</a>
</g>
</g>
<!-- Node19&#45;&gt;Node20 -->
<g id="edge30_Node000019_Node000020" class="edge">
<title>Node19&#45;&gt;Node20</title>
<g id="a_edge30_Node000019_Node000020"><a xlink:title=" ">
<path fill="none" stroke="#63b8ff" d="M1194.76,-227.67C1225.47,-217.25 1261.47,-205.03 1290.92,-195.04"/>
<polygon fill="#63b8ff" stroke="#63b8ff" points="1193.33,-224.46 1184.99,-230.99 1195.58,-231.09 1193.33,-224.46"/>
</a>
</g>
</g>
<!-- Node21 -->
<g id="Node000021" class="node">
<title>Node21</title>
<g id="a_Node000021"><a xlink:href="Spawn_8cpp.html" target="_top" xlink:title=" ">
<polygon fill="white" stroke="#666666" points="1234,-195 1049,-195 1049,-154 1234,-154 1234,-195"/>
<text text-anchor="start" x="1057" y="-183" font-family="Helvetica,sans-Serif" font-size="10.00">/home/runner/work/R</text>
<text text-anchor="start" x="1057" y="-172" font-family="Helvetica,sans-Serif" font-size="10.00">&#45;Type/R&#45;Type/Shared</text>
<text text-anchor="middle" x="1141.5" y="-161" font-family="Helvetica,sans-Serif" font-size="10.00">/systems/SpawnEnemy/Spawn.cpp</text>
</a>
</g>
</g>
<!-- Node19&#45;&gt;Node21 -->
<g id="edge31_Node000019_Node000021" class="edge">
<title>Node19&#45;&gt;Node21</title>
<g id="a_edge31_Node000019_Node000021"><a xlink:title=" ">
<path fill="none" stroke="#63b8ff" d="M1133.06,-220.69C1134.67,-212.08 1136.39,-202.9 1137.85,-195.07"/>
<polygon fill="#63b8ff" stroke="#63b8ff" points="1129.57,-220.32 1131.18,-230.79 1136.45,-221.61 1129.57,-220.32"/>
</a>
</g>
</g>
<!-- Node22 -->
<g id="Node000022" class="node">
<title>Node22</title>
<g id="a_Node000022"><a xlink:href="WaveSystem_8cpp.html" target="_top" xlink:title=" ">
<polygon fill="white" stroke="#666666" points="1030.5,-195 882.5,-195 882.5,-154 1030.5,-154 1030.5,-195"/>
<text text-anchor="start" x="890.5" y="-183" font-family="Helvetica,sans-Serif" font-size="10.00">/home/runner/work/R</text>
<text text-anchor="start" x="890.5" y="-172" font-family="Helvetica,sans-Serif" font-size="10.00">&#45;Type/R&#45;Type/Shared</text>
<text text-anchor="middle" x="956.5" y="-161" font-family="Helvetica,sans-Serif" font-size="10.00">/systems/WaveSystem.cpp</text>
</a>
</g>
</g>
<!-- Node19&#45;&gt;Node22 -->
<g id="edge32_Node000019_Node000022" class="edge">
<title>Node19&#45;&gt;Node22</title>
<g id="a_edge32_Node000019_Node000022"><a xlink:title=" ">
<path fill="none" stroke="#63b8ff" d="M1073.6,-226.86C1050.25,-216.62 1023.25,-204.77 1001.06,-195.04"/>
<polygon fill="#63b8ff" stroke="#63b8ff" points="1072.45,-230.18 1083.02,-230.99 1075.27,-223.77 1072.45,-230.18"/>
</a>
</g>
</g>
<!-- Node23&#45;&gt;Node3 -->
<g id="edge35_Node000023_Node000003" class="edge">
<title>Node23&#45;&gt;Node3</title>
<g id="a_edge35_Node000023_Node000003"><a xlink:title=" ">
<path fill="none" stroke="#63b8ff" d="M1420.6,-226.45C1440.89,-216.3 1464.21,-204.64 1483.42,-195.04"/>
<polygon fill="#63b8ff" stroke="#63b8ff" points="1418.9,-223.39 1411.52,-230.99 1422.03,-229.65 1418.9,-223.39"/>
</a>
</g>
</g>
<!-- Node23&#45;&gt;Node20 -->
<g id="edge36_Node000023_Node000020" class="edge">
<title>Node23&#45;&gt;Node20</title>
<g id="a_edge36_Node000023_Node000020"><a xlink:title=" ">
<path fill="none" stroke="#63b8ff" d="M1363.14,-221.26C1360.33,-212.48 1357.32,-203.07 1354.76,-195.07"/>
<polygon fill="#63b8ff" stroke="#63b8ff" points="1359.81,-222.34 1366.19,-230.79 1366.48,-220.2 1359.81,-222.34"/>
</a>
</g>
</g>
</g>
</svg>
