<?xml version="1.0" encoding="UTF-8" standalone="no"?>
<!DOCTYPE svg PUBLIC "-//W3C//DTD SVG 1.1//EN"
 "http://www.w3.org/Graphics/SVG/1.1/DTD/svg11.dtd">
<!-- Generated by graphviz version 2.43.0 (0)
 -->
<!-- Title: /home/runner/work/R&#45;Type/R&#45;Type/Shared/systems/Collision/Collision.cpp Pages: 1 -->
<svg width="1827pt" height="390pt"
 viewBox="0.00 0.00 1827.47 390.00" xmlns="http://www.w3.org/2000/svg" xmlns:xlink="http://www.w3.org/1999/xlink">
<g id="graph0" class="graph" transform="scale(1 1) rotate(0) translate(4 386)">
<title>/home/runner/work/R&#45;Type/R&#45;Type/Shared/systems/Collision/Collision.cpp</title>
<!-- Node1 -->
<g id="Node000001" class="node">
<title>Node1</title>
<g id="a_Node000001"><a xlink:title=" ">
<polygon fill="#999999" stroke="#666666" points="991.5,-382 820.5,-382 820.5,-341 991.5,-341 991.5,-382"/>
<text text-anchor="start" x="828.5" y="-370" font-family="Helvetica,sans-Serif" font-size="10.00">/home/runner/work/R</text>
<text text-anchor="start" x="828.5" y="-359" font-family="Helvetica,sans-Serif" font-size="10.00">&#45;Type/R&#45;Type/Shared</text>
<text text-anchor="middle" x="906" y="-348" font-family="Helvetica,sans-Serif" font-size="10.00">/systems/Collision/Collision.cpp</text>
</a>
</g>
</g>
<!-- Node2 -->
<g id="Node000002" class="node">
<title>Node2</title>
<g id="a_Node000002"><a xlink:href="Collision_8hpp.html" target="_top" xlink:title=" ">
<polygon fill="white" stroke="#666666" points="459.5,-305 334.5,-305 334.5,-286 459.5,-286 459.5,-305"/>
<text text-anchor="middle" x="397" y="-293" font-family="Helvetica,sans-Serif" font-size="10.00">Collision/Collision.hpp</text>
</a>
</g>
</g>
<!-- Node1&#45;&gt;Node2 -->
<g id="edge1_Node000001_Node000002" class="edge">
<title>Node1&#45;&gt;Node2</title>
<g id="a_edge1_Node000001_Node000002"><a xlink:title=" ">
<path fill="none" stroke="#63b8ff" d="M820.23,-349.72C721.92,-337.35 562.47,-317.31 469.91,-305.67"/>
<polygon fill="#63b8ff" stroke="#63b8ff" points="470.15,-302.17 459.79,-304.39 469.27,-309.12 470.15,-302.17"/>
</a>
</g>
</g>
<!-- Node6 -->
<g id="Node000006" class="node">
<title>Node6</title>
<g id="a_Node000006"><a xlink:href="Items_8hpp.html" target="_top" xlink:title=" ">
<polygon fill="white" stroke="#666666" points="110,-250 0,-250 0,-231 110,-231 110,-250"/>
<text text-anchor="middle" x="55" y="-238" font-family="Helvetica,sans-Serif" font-size="10.00">Collision/Items.hpp</text>
</a>
</g>
</g>
<!-- Node1&#45;&gt;Node6 -->
<g id="edge48_Node000001_Node000006" class="edge">
<title>Node1&#45;&gt;Node6</title>
<g id="a_edge48_Node000001_Node000006"><a xlink:title=" ">
<path fill="none" stroke="#63b8ff" d="M820.37,-358.56C697.2,-354.52 463.36,-342.22 268,-305 202.69,-292.56 128.81,-268.1 87.48,-253.44"/>
<polygon fill="#63b8ff" stroke="#63b8ff" points="88.54,-250.1 77.94,-250.02 86.18,-256.69 88.54,-250.1"/>
</a>
</g>
</g>
<!-- Node11 -->
<g id="Node000011" class="node">
<title>Node11</title>
<g id="a_Node000011"><a xlink:href="Enemy_8hpp.html" target="_top" xlink:title=" ">
<polygon fill="white" stroke="#666666" points="232,-250 128,-250 128,-231 232,-231 232,-250"/>
<text text-anchor="middle" x="180" y="-238" font-family="Helvetica,sans-Serif" font-size="10.00">Player/Enemy.hpp</text>
</a>
</g>
</g>
<!-- Node1&#45;&gt;Node11 -->
<g id="edge49_Node000001_Node000011" class="edge">
<title>Node1&#45;&gt;Node11</title>
<g id="a_edge49_Node000001_Node000011"><a xlink:title=" ">
<path fill="none" stroke="#63b8ff" d="M820.35,-360.74C705.71,-359.16 496.88,-349.62 325,-305 280.5,-293.45 232.25,-269.88 204.14,-254.93"/>
<polygon fill="#63b8ff" stroke="#63b8ff" points="205.54,-251.71 195.08,-250.04 202.22,-257.87 205.54,-251.71"/>
</a>
</g>
</g>
<!-- Node12 -->
<g id="Node000012" class="node">
<title>Node12</title>
<g id="a_Node000012"><a xlink:href="PlayerEntity_8hpp.html" target="_top" xlink:title=" ">
<polygon fill="white" stroke="#666666" points="779.5,-250 650.5,-250 650.5,-231 779.5,-231 779.5,-250"/>
<text text-anchor="middle" x="715" y="-238" font-family="Helvetica,sans-Serif" font-size="10.00">Player/PlayerEntity.hpp</text>
</a>
</g>
</g>
<!-- Node1&#45;&gt;Node12 -->
<g id="edge50_Node000001_Node000012" class="edge">
<title>Node1&#45;&gt;Node12</title>
<g id="a_edge50_Node000001_Node000012"><a xlink:title=" ">
<path fill="none" stroke="#63b8ff" d="M874.46,-340.85C835.91,-316.83 771.64,-276.79 737.66,-255.62"/>
<polygon fill="#63b8ff" stroke="#63b8ff" points="739.26,-252.49 728.92,-250.18 735.56,-258.43 739.26,-252.49"/>
</a>
</g>
</g>
<!-- Node13 -->
<g id="Node000013" class="node">
<title>Node13</title>
<g id="a_Node000013"><a xlink:title=" ">
<polygon fill="#e0e0e0" stroke="#999999" points="866,-189.5 802,-189.5 802,-170.5 866,-170.5 866,-189.5"/>
<text text-anchor="middle" x="834" y="-177.5" font-family="Helvetica,sans-Serif" font-size="10.00">algorithm</text>
</a>
</g>
</g>
<!-- Node1&#45;&gt;Node13 -->
<g id="edge43_Node000001_Node000013" class="edge">
<title>Node1&#45;&gt;Node13</title>
<g id="a_edge43_Node000001_Node000013"><a xlink:title=" ">
<path fill="none" stroke="#63b8ff" d="M889.73,-341C881.91,-330.8 872.97,-317.81 867,-305 850.51,-269.63 841.13,-224.61 836.86,-199.7"/>
<polygon fill="#63b8ff" stroke="#63b8ff" points="840.31,-199.09 835.25,-189.78 833.4,-200.21 840.31,-199.09"/>
</a>
</g>
</g>
<!-- Node15 -->
<g id="Node000015" class="node">
<title>Node15</title>
<g id="a_Node000015"><a xlink:href="Projectile_8hpp.html" target="_top" xlink:title=" ">
<polygon fill="white" stroke="#666666" points="582,-129 402,-129 402,-110 582,-110 582,-129"/>
<text text-anchor="middle" x="492" y="-117" font-family="Helvetica,sans-Serif" font-size="10.00">components/Player/Projectile.hpp</text>
</a>
</g>
</g>
<!-- Node1&#45;&gt;Node15 -->
<g id="edge51_Node000001_Node000015" class="edge">
<title>Node1&#45;&gt;Node15</title>
<g id="a_edge51_Node000001_Node000015"><a xlink:title=" ">
<path fill="none" stroke="#63b8ff" d="M820.44,-355.73C717.32,-344.85 548.06,-309.49 469,-195 456.91,-177.5 468.33,-153.41 478.95,-137.41"/>
<polygon fill="#63b8ff" stroke="#63b8ff" points="481.97,-139.22 484.93,-129.04 476.27,-135.15 481.97,-139.22"/>
</a>
</g>
</g>
<!-- Node16 -->
<g id="Node000016" class="node">
<title>Node16</title>
<g id="a_Node000016"><a xlink:href="Registry_8hpp.html" target="_top" xlink:title=" ">
<polygon fill="white" stroke="#666666" points="1271,-250 1175,-250 1175,-231 1271,-231 1271,-250"/>
<text text-anchor="middle" x="1223" y="-238" font-family="Helvetica,sans-Serif" font-size="10.00">ecs/Registry.hpp</text>
</a>
</g>
</g>
<!-- Node1&#45;&gt;Node16 -->
<g id="edge52_Node000001_Node000016" class="edge">
<title>Node1&#45;&gt;Node16</title>
<g id="a_edge52_Node000001_Node000016"><a xlink:title=" ">
<path fill="none" stroke="#63b8ff" d="M957.99,-340.98C1023.97,-316.22 1135.77,-274.24 1190.65,-253.64"/>
<polygon fill="#63b8ff" stroke="#63b8ff" points="1192.08,-256.85 1200.21,-250.05 1189.62,-250.29 1192.08,-256.85"/>
</a>
</g>
</g>
<!-- Node19 -->
<g id="Node000019" class="node">
<title>Node19</title>
<g id="a_Node000019"><a xlink:title=" ">
<polygon fill="#e0e0e0" stroke="#999999" points="1699,-189.5 1639,-189.5 1639,-170.5 1699,-170.5 1699,-189.5"/>
<text text-anchor="middle" x="1669" y="-177.5" font-family="Helvetica,sans-Serif" font-size="10.00">iostream</text>
</a>
</g>
</g>
<!-- Node1&#45;&gt;Node19 -->
<g id="edge44_Node000001_Node000019" class="edge">
<title>Node1&#45;&gt;Node19</title>
<g id="a_edge44_Node000001_Node000019"><a xlink:title=" ">
<path fill="none" stroke="#63b8ff" d="M991.63,-356.18C1123.39,-348.79 1369.4,-331.88 1453,-305 1531.93,-279.62 1613.8,-222.69 1649.93,-195.71"/>
<polygon fill="#63b8ff" stroke="#63b8ff" points="1652.23,-198.36 1658.1,-189.54 1648.01,-192.78 1652.23,-198.36"/>
</a>
</g>
</g>
<!-- Node22 -->
<g id="Node000022" class="node">
<title>Node22</title>
<g id="a_Node000022"><a xlink:title=" ">
<polygon fill="#e0e0e0" stroke="#999999" points="1803,-189.5 1717,-189.5 1717,-170.5 1803,-170.5 1803,-189.5"/>
<text text-anchor="middle" x="1760" y="-177.5" font-family="Helvetica,sans-Serif" font-size="10.00">unordered_set</text>
</a>
</g>
</g>
<!-- Node1&#45;&gt;Node22 -->
<g id="edge45_Node000001_Node000022" class="edge">
<title>Node1&#45;&gt;Node22</title>
<g id="a_edge45_Node000001_Node000022"><a xlink:title=" ">
<path fill="none" stroke="#63b8ff" d="M991.56,-361.2C1106.62,-360.15 1316.65,-351.22 1489,-305 1586.04,-278.97 1691.79,-221.08 1737.2,-194.64"/>
<polygon fill="#63b8ff" stroke="#63b8ff" points="1739.11,-197.59 1745.95,-189.5 1735.56,-191.55 1739.11,-197.59"/>
</a>
</g>
</g>
<!-- Node23 -->
<g id="Node000023" class="node">
<title>Node23</title>
<g id="a_Node000023"><a xlink:title=" ">
<polygon fill="#e0e0e0" stroke="#999999" points="1386.5,-129 1341.5,-129 1341.5,-110 1386.5,-110 1386.5,-129"/>
<text text-anchor="middle" x="1364" y="-117" font-family="Helvetica,sans-Serif" font-size="10.00">utility</text>
</a>
</g>
</g>
<!-- Node1&#45;&gt;Node23 -->
<g id="edge46_Node000001_Node000023" class="edge">
<title>Node1&#45;&gt;Node23</title>
<g id="a_edge46_Node000001_Node000023"><a xlink:title=" ">
<path fill="none" stroke="#63b8ff" d="M991.68,-345.86C1124.82,-321.1 1371.2,-266.61 1420,-195 1427.51,-183.98 1425.8,-177.01 1420,-165 1413.78,-152.12 1401.82,-141.82 1390.54,-134.38"/>
<polygon fill="#63b8ff" stroke="#63b8ff" points="1392.13,-131.25 1381.77,-129.04 1388.49,-137.23 1392.13,-131.25"/>
</a>
</g>
</g>
<!-- Node24 -->
<g id="Node000024" class="node">
<title>Node24</title>
<g id="a_Node000024"><a xlink:title=" ">
<polygon fill="#e0e0e0" stroke="#999999" points="1634.5,-129 1587.5,-129 1587.5,-110 1634.5,-110 1634.5,-129"/>
<text text-anchor="middle" x="1611" y="-117" font-family="Helvetica,sans-Serif" font-size="10.00">vector</text>
</a>
</g>
</g>
<!-- Node1&#45;&gt;Node24 -->
<g id="edge47_Node000001_Node000024" class="edge">
<title>Node1&#45;&gt;Node24</title>
<g id="a_edge47_Node000001_Node000024"><a xlink:title=" ">
<path fill="none" stroke="#63b8ff" d="M991.57,-359.46C1199.3,-354.8 1719.99,-329.66 1812,-195 1853.35,-134.48 1712.09,-122.99 1644.74,-120.9"/>
<polygon fill="#63b8ff" stroke="#63b8ff" points="1644.69,-117.4 1634.6,-120.64 1644.51,-124.4 1644.69,-117.4"/>
</a>
</g>
</g>
<!-- Node30 -->
<g id="Node000030" class="node">
<title>Node30</title>
<g id="a_Node000030"><a xlink:href="PhysicsSystem_8hpp.html" target="_top" xlink:title=" ">
<polygon fill="white" stroke="#666666" points="1030.5,-305 875.5,-305 875.5,-286 1030.5,-286 1030.5,-305"/>
<text text-anchor="middle" x="953" y="-293" font-family="Helvetica,sans-Serif" font-size="10.00">systems/PhysicsSystem.hpp</text>
</a>
</g>
</g>
<!-- Node1&#45;&gt;Node30 -->
<g id="edge53_Node000001_Node000030" class="edge">
<title>Node1&#45;&gt;Node30</title>
<g id="a_edge53_Node000001_Node000030"><a xlink:title=" ">
<path fill="none" stroke="#63b8ff" d="M920.36,-340.95C926.78,-332.2 934.28,-321.99 940.48,-313.56"/>
<polygon fill="#63b8ff" stroke="#63b8ff" points="943.47,-315.39 946.57,-305.26 937.83,-311.25 943.47,-315.39"/>
</a>
</g>
</g>
<!-- Node3 -->
<g id="Node000003" class="node">
<title>Node3</title>
<g id="a_Node000003"><a xlink:href="CollisionController_8hpp.html" target="_top" xlink:title=" ">
<polygon fill="white" stroke="#666666" points="746,-195 606,-195 606,-165 746,-165 746,-195"/>
<text text-anchor="start" x="614" y="-183" font-family="Helvetica,sans-Serif" font-size="10.00">../../components/Collision</text>
<text text-anchor="middle" x="676" y="-172" font-family="Helvetica,sans-Serif" font-size="10.00">/CollisionController.hpp</text>
</a>
</g>
</g>
<!-- Node2&#45;&gt;Node3 -->
<g id="edge2_Node000002_Node000003" class="edge">
<title>Node2&#45;&gt;Node3</title>
<g id="a_edge2_Node000002_Node000003"><a xlink:title=" ">
<path fill="none" stroke="#63b8ff" d="M417.97,-285.97C463.2,-267.57 570.76,-223.81 631.77,-199"/>
<polygon fill="#63b8ff" stroke="#63b8ff" points="633.2,-202.19 641.14,-195.18 630.56,-195.71 633.2,-202.19"/>
</a>
</g>
</g>
<!-- Node2&#45;&gt;Node6 -->
<g id="edge5_Node000002_Node000006" class="edge">
<title>Node2&#45;&gt;Node6</title>
<g id="a_edge5_Node000002_Node000006"><a xlink:title=" ">
<path fill="none" stroke="#63b8ff" d="M342.05,-285.98C281.56,-276.61 184.39,-261.55 120.12,-251.59"/>
<polygon fill="#63b8ff" stroke="#63b8ff" points="120.51,-248.11 110.1,-250.04 119.44,-255.03 120.51,-248.11"/>
</a>
</g>
</g>
<!-- Node7 -->
<g id="Node000007" class="node">
<title>Node7</title>
<g id="a_Node000007"><a xlink:href="Boss_8hpp.html" target="_top" xlink:title=" ">
<polygon fill="white" stroke="#666666" points="345.5,-250 250.5,-250 250.5,-231 345.5,-231 345.5,-250"/>
<text text-anchor="middle" x="298" y="-238" font-family="Helvetica,sans-Serif" font-size="10.00">Player/Boss.hpp</text>
</a>
</g>
</g>
<!-- Node2&#45;&gt;Node7 -->
<g id="edge6_Node000002_Node000007" class="edge">
<title>Node2&#45;&gt;Node7</title>
<g id="a_edge6_Node000002_Node000007"><a xlink:title=" ">
<path fill="none" stroke="#63b8ff" d="M381.09,-285.98C365.45,-277.61 341.34,-264.7 323.12,-254.95"/>
<polygon fill="#63b8ff" stroke="#63b8ff" points="324.66,-251.8 314.2,-250.17 321.36,-257.98 324.66,-251.8"/>
</a>
</g>
</g>
<!-- Node8 -->
<g id="Node000008" class="node">
<title>Node8</title>
<g id="a_Node000008"><a xlink:href="Physics2D_8hpp.html" target="_top" xlink:title=" ">
<polygon fill="white" stroke="#666666" points="481.5,-74 384.5,-74 384.5,-55 481.5,-55 481.5,-74"/>
<text text-anchor="middle" x="433" y="-62" font-family="Helvetica,sans-Serif" font-size="10.00">../Physics2D.hpp</text>
</a>
</g>
</g>
<!-- Node2&#45;&gt;Node8 -->
<g id="edge20_Node000002_Node000008" class="edge">
<title>Node2&#45;&gt;Node8</title>
<g id="a_edge20_Node000002_Node000008"><a xlink:title=" ">
<path fill="none" stroke="#63b8ff" d="M394.53,-285.64C387.39,-258.33 368.69,-173.42 393,-110 397.24,-98.94 405.64,-88.91 413.64,-81.18"/>
<polygon fill="#63b8ff" stroke="#63b8ff" points="416.25,-83.55 421.36,-74.27 411.58,-78.33 416.25,-83.55"/>
</a>
</g>
</g>
<!-- Node2&#45;&gt;Node11 -->
<g id="edge10_Node000002_Node000011" class="edge">
<title>Node2&#45;&gt;Node11</title>
<g id="a_edge10_Node000002_Node000011"><a xlink:title=" ">
<path fill="none" stroke="#63b8ff" d="M362.14,-285.98C324.91,-276.89 265.8,-262.46 225.07,-252.51"/>
<polygon fill="#63b8ff" stroke="#63b8ff" points="225.68,-249.05 215.14,-250.08 224.02,-255.85 225.68,-249.05"/>
</a>
</g>
</g>
<!-- Node2&#45;&gt;Node12 -->
<g id="edge12_Node000002_Node000012" class="edge">
<title>Node2&#45;&gt;Node12</title>
<g id="a_edge12_Node000002_Node000012"><a xlink:title=" ">
<path fill="none" stroke="#63b8ff" d="M448.09,-285.98C504.11,-276.65 593.95,-261.67 653.71,-251.71"/>
<polygon fill="#63b8ff" stroke="#63b8ff" points="654.48,-255.13 663.77,-250.04 653.33,-248.23 654.48,-255.13"/>
</a>
</g>
</g>
<!-- Node2&#45;&gt;Node15 -->
<g id="edge19_Node000002_Node000015" class="edge">
<title>Node2&#45;&gt;Node15</title>
<g id="a_edge19_Node000002_Node000015"><a xlink:title=" ">
<path fill="none" stroke="#63b8ff" d="M397.81,-285.87C400.23,-263.91 408.98,-204.84 436,-165 444.25,-152.84 456.84,-142.41 468,-134.71"/>
<polygon fill="#63b8ff" stroke="#63b8ff" points="470.07,-137.54 476.53,-129.14 466.24,-131.68 470.07,-137.54"/>
</a>
</g>
</g>
<!-- Node2&#45;&gt;Node16 -->
<g id="edge21_Node000002_Node000016" class="edge">
<title>Node2&#45;&gt;Node16</title>
<g id="a_edge21_Node000002_Node000016"><a xlink:title=" ">
<path fill="none" stroke="#63b8ff" d="M459.76,-290.47C614.73,-280.53 1013.83,-254.92 1164.36,-245.26"/>
<polygon fill="#63b8ff" stroke="#63b8ff" points="1165.01,-248.73 1174.77,-244.59 1164.56,-241.74 1165.01,-248.73"/>
</a>
</g>
</g>
<!-- Node28 -->
<g id="Node000028" class="node">
<title>Node28</title>
<g id="a_Node000028"><a xlink:href="Zipper_8hpp.html" target="_top" xlink:title=" ">
<polygon fill="white" stroke="#666666" points="1010,-250 922,-250 922,-231 1010,-231 1010,-250"/>
<text text-anchor="middle" x="966" y="-238" font-family="Helvetica,sans-Serif" font-size="10.00">ecs/Zipper.hpp</text>
</a>
</g>
</g>
<!-- Node2&#45;&gt;Node28 -->
<g id="edge37_Node000002_Node000028" class="edge">
<title>Node2&#45;&gt;Node28</title>
<g id="a_edge37_Node000002_Node000028"><a xlink:title=" ">
<path fill="none" stroke="#63b8ff" d="M459.52,-288.68C571.84,-278.21 805.89,-256.41 911.83,-246.55"/>
<polygon fill="#63b8ff" stroke="#63b8ff" points="912.35,-250.01 921.98,-245.6 911.7,-243.04 912.35,-250.01"/>
</a>
</g>
</g>
<!-- Node4 -->
<g id="Node000004" class="node">
<title>Node4</title>
<g id="a_Node000004"><a xlink:href="Entity_8hpp.html" target="_top" xlink:title=" ">
<polygon fill="white" stroke="#666666" points="1094,-129 992,-129 992,-110 1094,-110 1094,-129"/>
<text text-anchor="middle" x="1043" y="-117" font-family="Helvetica,sans-Serif" font-size="10.00">../../ecs/Entity.hpp</text>
</a>
</g>
</g>
<!-- Node3&#45;&gt;Node4 -->
<g id="edge3_Node000003_Node000004" class="edge">
<title>Node3&#45;&gt;Node4</title>
<g id="a_edge3_Node000003_Node000004"><a xlink:title=" ">
<path fill="none" stroke="#63b8ff" d="M746.33,-167.79C814.49,-156.93 916.82,-140.61 981.73,-130.27"/>
<polygon fill="#63b8ff" stroke="#63b8ff" points="982.5,-133.69 991.82,-128.66 981.39,-126.78 982.5,-133.69"/>
</a>
</g>
</g>
<!-- Node5 -->
<g id="Node000005" class="node">
<title>Node5</title>
<g id="a_Node000005"><a xlink:title=" ">
<polygon fill="#e0e0e0" stroke="#999999" points="1069.5,-74 1016.5,-74 1016.5,-55 1069.5,-55 1069.5,-74"/>
<text text-anchor="middle" x="1043" y="-62" font-family="Helvetica,sans-Serif" font-size="10.00">cstddef</text>
</a>
</g>
</g>
<!-- Node4&#45;&gt;Node5 -->
<g id="edge4_Node000004_Node000005" class="edge">
<title>Node4&#45;&gt;Node5</title>
<g id="a_edge4_Node000004_Node000005"><a xlink:title=" ">
<path fill="none" stroke="#63b8ff" d="M1043,-109.75C1043,-102.8 1043,-92.85 1043,-84.13"/>
<polygon fill="#63b8ff" stroke="#63b8ff" points="1046.5,-84.09 1043,-74.09 1039.5,-84.09 1046.5,-84.09"/>
</a>
</g>
</g>
<!-- Node7&#45;&gt;Node8 -->
<g id="edge7_Node000007_Node000008" class="edge">
<title>Node7&#45;&gt;Node8</title>
<g id="a_edge7_Node000007_Node000008"><a xlink:title=" ">
<path fill="none" stroke="#63b8ff" d="M300.23,-230.97C306.4,-208.73 325.57,-148.09 360,-110 372,-96.72 388.89,-86.08 403.41,-78.54"/>
<polygon fill="#63b8ff" stroke="#63b8ff" points="405.11,-81.6 412.52,-74.03 402.01,-75.32 405.11,-81.6"/>
</a>
</g>
</g>
<!-- Node9 -->
<g id="Node000009" class="node">
<title>Node9</title>
<g id="a_Node000009"><a xlink:title=" ">
<polygon fill="#e0e0e0" stroke="#999999" points="430,-19 358,-19 358,0 430,0 430,-19"/>
<text text-anchor="middle" x="394" y="-7" font-family="Helvetica,sans-Serif" font-size="10.00">SDL2/SDL.h</text>
</a>
</g>
</g>
<!-- Node8&#45;&gt;Node9 -->
<g id="edge8_Node000008_Node000009" class="edge">
<title>Node8&#45;&gt;Node9</title>
<g id="a_edge8_Node000008_Node000009"><a xlink:title=" ">
<path fill="none" stroke="#63b8ff" d="M426.56,-54.75C421.11,-47.34 413.14,-36.5 406.44,-27.41"/>
<polygon fill="#63b8ff" stroke="#63b8ff" points="409.07,-25.07 400.32,-19.09 403.43,-29.22 409.07,-25.07"/>
</a>
</g>
</g>
<!-- Node10 -->
<g id="Node000010" class="node">
<title>Node10</title>
<g id="a_Node000010"><a xlink:title=" ">
<polygon fill="#e0e0e0" stroke="#999999" points="495.5,-19 448.5,-19 448.5,0 495.5,0 495.5,-19"/>
<text text-anchor="middle" x="472" y="-7" font-family="Helvetica,sans-Serif" font-size="10.00">cmath</text>
</a>
</g>
</g>
<!-- Node8&#45;&gt;Node10 -->
<g id="edge9_Node000008_Node000010" class="edge">
<title>Node8&#45;&gt;Node10</title>
<g id="a_edge9_Node000008_Node000010"><a xlink:title=" ">
<path fill="none" stroke="#63b8ff" d="M439.44,-54.75C444.89,-47.34 452.86,-36.5 459.56,-27.41"/>
<polygon fill="#63b8ff" stroke="#63b8ff" points="462.57,-29.22 465.68,-19.09 456.93,-25.07 462.57,-29.22"/>
</a>
</g>
</g>
<!-- Node11&#45;&gt;Node8 -->
<g id="edge11_Node000011_Node000008" class="edge">
<title>Node11&#45;&gt;Node8</title>
<g id="a_edge11_Node000011_Node000008"><a xlink:title=" ">
<path fill="none" stroke="#63b8ff" d="M189.38,-230.85C213.55,-208.85 280.43,-149.69 343,-110 362.25,-97.79 385.32,-86.44 403.28,-78.26"/>
<polygon fill="#63b8ff" stroke="#63b8ff" points="404.98,-81.34 412.68,-74.06 402.12,-74.95 404.98,-81.34"/>
</a>
</g>
</g>
<!-- Node12&#45;&gt;Node3 -->
<g id="edge14_Node000012_Node000003" class="edge">
<title>Node12&#45;&gt;Node3</title>
<g id="a_edge14_Node000012_Node000003"><a xlink:title=" ">
<path fill="none" stroke="#63b8ff" d="M709.25,-230.87C704.44,-223.67 697.38,-213.07 691,-203.49"/>
<polygon fill="#63b8ff" stroke="#63b8ff" points="693.87,-201.49 685.41,-195.11 688.04,-205.38 693.87,-201.49"/>
</a>
</g>
</g>
<!-- Node12&#45;&gt;Node8 -->
<g id="edge18_Node000012_Node000008" class="edge">
<title>Node12&#45;&gt;Node8</title>
<g id="a_edge18_Node000012_Node000008"><a xlink:title=" ">
<path fill="none" stroke="#63b8ff" d="M725.91,-230.81C742.6,-216.45 770.95,-187.17 755,-165 724.05,-121.98 575.69,-90.03 491.57,-75.01"/>
<polygon fill="#63b8ff" stroke="#63b8ff" points="492.09,-71.55 481.64,-73.27 490.88,-78.45 492.09,-71.55"/>
</a>
</g>
</g>
<!-- Node12&#45;&gt;Node13 -->
<g id="edge13_Node000012_Node000013" class="edge">
<title>Node12&#45;&gt;Node13</title>
<g id="a_edge13_Node000012_Node000013"><a xlink:title=" ">
<path fill="none" stroke="#63b8ff" d="M732.3,-230.99C752.05,-221.29 784.55,-205.31 807.49,-194.03"/>
<polygon fill="#63b8ff" stroke="#63b8ff" points="809.25,-197.07 816.68,-189.52 806.16,-190.79 809.25,-197.07"/>
</a>
</g>
</g>
<!-- Node14 -->
<g id="Node000014" class="node">
<title>Node14</title>
<g id="a_Node000014"><a xlink:href="Weapon_8hpp.html" target="_top" xlink:title=" ">
<polygon fill="white" stroke="#666666" points="588,-189.5 478,-189.5 478,-170.5 588,-170.5 588,-189.5"/>
<text text-anchor="middle" x="533" y="-177.5" font-family="Helvetica,sans-Serif" font-size="10.00">Player/Weapon.hpp</text>
</a>
</g>
</g>
<!-- Node12&#45;&gt;Node14 -->
<g id="edge15_Node000012_Node000014" class="edge">
<title>Node12&#45;&gt;Node14</title>
<g id="a_edge15_Node000012_Node000014"><a xlink:title=" ">
<path fill="none" stroke="#63b8ff" d="M688.54,-230.99C657.13,-220.9 604.6,-204.01 569.38,-192.69"/>
<polygon fill="#63b8ff" stroke="#63b8ff" points="570.09,-189.24 559.5,-189.52 567.95,-195.91 570.09,-189.24"/>
</a>
</g>
</g>
<!-- Node14&#45;&gt;Node15 -->
<g id="edge16_Node000014_Node000015" class="edge">
<title>Node14&#45;&gt;Node15</title>
<g id="a_edge16_Node000014_Node000015"><a xlink:title=" ">
<path fill="none" stroke="#63b8ff" d="M526.95,-170.37C520.89,-161.73 511.41,-148.2 503.86,-137.42"/>
<polygon fill="#63b8ff" stroke="#63b8ff" points="506.68,-135.35 498.07,-129.17 500.95,-139.37 506.68,-135.35"/>
</a>
</g>
</g>
<!-- Node15&#45;&gt;Node8 -->
<g id="edge17_Node000015_Node000008" class="edge">
<title>Node15&#45;&gt;Node8</title>
<g id="a_edge17_Node000015_Node000008"><a xlink:title=" ">
<path fill="none" stroke="#63b8ff" d="M482.52,-109.98C473.8,-102.15 460.66,-90.34 450.1,-80.86"/>
<polygon fill="#63b8ff" stroke="#63b8ff" points="452.43,-78.25 442.65,-74.17 447.75,-83.46 452.43,-78.25"/>
</a>
</g>
</g>
<!-- Node16&#45;&gt;Node4 -->
<g id="edge31_Node000016_Node000004" class="edge">
<title>Node16&#45;&gt;Node4</title>
<g id="a_edge31_Node000016_Node000004"><a xlink:title=" ">
<path fill="none" stroke="#63b8ff" d="M1202.87,-230.98C1184.36,-222.8 1156.47,-209.56 1134,-195 1119.11,-185.35 1082.5,-154.47 1060.52,-135.63"/>
<polygon fill="#63b8ff" stroke="#63b8ff" points="1062.75,-132.93 1052.89,-129.07 1058.19,-138.24 1062.75,-132.93"/>
</a>
</g>
</g>
<!-- Node16&#45;&gt;Node13 -->
<g id="edge22_Node000016_Node000013" class="edge">
<title>Node16&#45;&gt;Node13</title>
<g id="a_edge22_Node000016_Node000013"><a xlink:title=" ">
<path fill="none" stroke="#63b8ff" d="M1174.76,-233.01C1113.9,-224.72 1006.06,-209.68 914,-195 901.71,-193.04 888.38,-190.77 876.19,-188.63"/>
<polygon fill="#63b8ff" stroke="#63b8ff" points="876.73,-185.17 866.27,-186.88 875.51,-192.06 876.73,-185.17"/>
</a>
</g>
</g>
<!-- Node17 -->
<g id="Node000017" class="node">
<title>Node17</title>
<g id="a_Node000017"><a xlink:title=" ">
<polygon fill="#e0e0e0" stroke="#999999" points="1410.5,-189.5 1375.5,-189.5 1375.5,-170.5 1410.5,-170.5 1410.5,-189.5"/>
<text text-anchor="middle" x="1393" y="-177.5" font-family="Helvetica,sans-Serif" font-size="10.00">any</text>
</a>
</g>
</g>
<!-- Node16&#45;&gt;Node17 -->
<g id="edge23_Node000016_Node000017" class="edge">
<title>Node16&#45;&gt;Node17</title>
<g id="a_edge23_Node000016_Node000017"><a xlink:title=" ">
<path fill="none" stroke="#63b8ff" d="M1252.37,-230.96C1280.51,-222.57 1324.04,-209 1361,-195 1362.6,-194.39 1364.23,-193.75 1365.88,-193.09"/>
<polygon fill="#63b8ff" stroke="#63b8ff" points="1367.33,-196.27 1375.19,-189.17 1364.62,-189.82 1367.33,-196.27"/>
</a>
</g>
</g>
<!-- Node18 -->
<g id="Node000018" class="node">
<title>Node18</title>
<g id="a_Node000018"><a xlink:title=" ">
<polygon fill="#e0e0e0" stroke="#999999" points="1085.5,-189.5 1020.5,-189.5 1020.5,-170.5 1085.5,-170.5 1085.5,-189.5"/>
<text text-anchor="middle" x="1053" y="-177.5" font-family="Helvetica,sans-Serif" font-size="10.00">functional</text>
</a>
</g>
</g>
<!-- Node16&#45;&gt;Node18 -->
<g id="edge24_Node000016_Node000018" class="edge">
<title>Node16&#45;&gt;Node18</title>
<g id="a_edge24_Node000016_Node000018"><a xlink:title=" ">
<path fill="none" stroke="#63b8ff" d="M1198.28,-230.99C1169.07,-220.94 1120.3,-204.16 1087.41,-192.84"/>
<polygon fill="#63b8ff" stroke="#63b8ff" points="1088.34,-189.46 1077.75,-189.52 1086.07,-196.08 1088.34,-189.46"/>
</a>
</g>
</g>
<!-- Node16&#45;&gt;Node19 -->
<g id="edge25_Node000016_Node000019" class="edge">
<title>Node16&#45;&gt;Node19</title>
<g id="a_edge25_Node000016_Node000019"><a xlink:title=" ">
<path fill="none" stroke="#63b8ff" d="M1271.14,-237.25C1347.06,-233.02 1498.96,-221.75 1625,-195 1628.4,-194.28 1631.9,-193.4 1635.39,-192.44"/>
<polygon fill="#63b8ff" stroke="#63b8ff" points="1636.44,-195.78 1645.02,-189.57 1634.44,-189.07 1636.44,-195.78"/>
</a>
</g>
</g>
<!-- Node20 -->
<g id="Node000020" class="node">
<title>Node20</title>
<g id="a_Node000020"><a xlink:title=" ">
<polygon fill="#e0e0e0" stroke="#999999" points="1207.5,-189.5 1142.5,-189.5 1142.5,-170.5 1207.5,-170.5 1207.5,-189.5"/>
<text text-anchor="middle" x="1175" y="-177.5" font-family="Helvetica,sans-Serif" font-size="10.00">typeindex</text>
</a>
</g>
</g>
<!-- Node16&#45;&gt;Node20 -->
<g id="edge26_Node000016_Node000020" class="edge">
<title>Node16&#45;&gt;Node20</title>
<g id="a_edge26_Node000016_Node000020"><a xlink:title=" ">
<path fill="none" stroke="#63b8ff" d="M1215.92,-230.87C1208.76,-222.14 1197.51,-208.43 1188.61,-197.59"/>
<polygon fill="#63b8ff" stroke="#63b8ff" points="1191.16,-195.18 1182.11,-189.67 1185.75,-199.62 1191.16,-195.18"/>
</a>
</g>
</g>
<!-- Node21 -->
<g id="Node000021" class="node">
<title>Node21</title>
<g id="a_Node000021"><a xlink:title=" ">
<polygon fill="#e0e0e0" stroke="#999999" points="1318.5,-189.5 1225.5,-189.5 1225.5,-170.5 1318.5,-170.5 1318.5,-189.5"/>
<text text-anchor="middle" x="1272" y="-177.5" font-family="Helvetica,sans-Serif" font-size="10.00">unordered_map</text>
</a>
</g>
</g>
<!-- Node16&#45;&gt;Node21 -->
<g id="edge27_Node000016_Node000021" class="edge">
<title>Node16&#45;&gt;Node21</title>
<g id="a_edge27_Node000016_Node000021"><a xlink:title=" ">
<path fill="none" stroke="#63b8ff" d="M1230.23,-230.87C1237.54,-222.14 1249.02,-208.43 1258.1,-197.59"/>
<polygon fill="#63b8ff" stroke="#63b8ff" points="1261,-199.58 1264.74,-189.67 1255.64,-195.09 1261,-199.58"/>
</a>
</g>
</g>
<!-- Node16&#45;&gt;Node22 -->
<g id="edge28_Node000016_Node000022" class="edge">
<title>Node16&#45;&gt;Node22</title>
<g id="a_edge28_Node000016_Node000022"><a xlink:title=" ">
<path fill="none" stroke="#63b8ff" d="M1271.21,-237.81C1358.8,-234.15 1549.65,-223.36 1708,-195 1712.52,-194.19 1717.22,-193.18 1721.87,-192.06"/>
<polygon fill="#63b8ff" stroke="#63b8ff" points="1723.04,-195.38 1731.86,-189.52 1721.31,-188.6 1723.04,-195.38"/>
</a>
</g>
</g>
<!-- Node16&#45;&gt;Node23 -->
<g id="edge29_Node000016_Node000023" class="edge">
<title>Node16&#45;&gt;Node23</title>
<g id="a_edge29_Node000016_Node000023"><a xlink:title=" ">
<path fill="none" stroke="#63b8ff" d="M1259.72,-230.98C1281.75,-224.29 1309.07,-213.02 1328,-195 1344.22,-179.56 1354.03,-155.31 1359.23,-138.69"/>
<polygon fill="#63b8ff" stroke="#63b8ff" points="1362.6,-139.63 1362,-129.05 1355.87,-137.7 1362.6,-139.63"/>
</a>
</g>
</g>
<!-- Node16&#45;&gt;Node24 -->
<g id="edge30_Node000016_Node000024" class="edge">
<title>Node16&#45;&gt;Node24</title>
<g id="a_edge30_Node000016_Node000024"><a xlink:title=" ">
<path fill="none" stroke="#63b8ff" d="M1271.23,-240.21C1360.2,-240.49 1545.33,-235.98 1592,-195 1607.57,-181.33 1611.24,-156.86 1611.72,-139.7"/>
<polygon fill="#63b8ff" stroke="#63b8ff" points="1615.22,-139.19 1611.65,-129.22 1608.22,-139.24 1615.22,-139.19"/>
</a>
</g>
</g>
<!-- Node25 -->
<g id="Node000025" class="node">
<title>Node25</title>
<g id="a_Node000025"><a xlink:href="SparseArray_8hpp.html" target="_top" xlink:title=" ">
<polygon fill="white" stroke="#666666" points="1582.5,-189.5 1467.5,-189.5 1467.5,-170.5 1582.5,-170.5 1582.5,-189.5"/>
<text text-anchor="middle" x="1525" y="-177.5" font-family="Helvetica,sans-Serif" font-size="10.00">ecs/SparseArray.hpp</text>
</a>
</g>
</g>
<!-- Node16&#45;&gt;Node25 -->
<g id="edge32_Node000016_Node000025" class="edge">
<title>Node16&#45;&gt;Node25</title>
<g id="a_edge32_Node000016_Node000025"><a xlink:title=" ">
<path fill="none" stroke="#63b8ff" d="M1266.91,-230.99C1320.93,-220.53 1412.61,-202.77 1470.91,-191.48"/>
<polygon fill="#63b8ff" stroke="#63b8ff" points="1471.88,-194.85 1481.03,-189.52 1470.55,-187.98 1471.88,-194.85"/>
</a>
</g>
</g>
<!-- Node25&#45;&gt;Node23 -->
<g id="edge35_Node000025_Node000023" class="edge">
<title>Node25&#45;&gt;Node23</title>
<g id="a_edge35_Node000025_Node000023"><a xlink:title=" ">
<path fill="none" stroke="#63b8ff" d="M1501.59,-170.49C1473.81,-160.4 1427.34,-143.52 1396.19,-132.2"/>
<polygon fill="#63b8ff" stroke="#63b8ff" points="1397.25,-128.86 1386.66,-128.73 1394.86,-135.44 1397.25,-128.86"/>
</a>
</g>
</g>
<!-- Node25&#45;&gt;Node24 -->
<g id="edge36_Node000025_Node000024" class="edge">
<title>Node25&#45;&gt;Node24</title>
<g id="a_edge36_Node000025_Node000024"><a xlink:title=" ">
<path fill="none" stroke="#63b8ff" d="M1537.69,-170.37C1551.41,-161.04 1573.5,-146.01 1589.85,-134.88"/>
<polygon fill="#63b8ff" stroke="#63b8ff" points="1591.96,-137.69 1598.26,-129.17 1588.02,-131.9 1591.96,-137.69"/>
</a>
</g>
</g>
<!-- Node26 -->
<g id="Node000026" class="node">
<title>Node26</title>
<g id="a_Node000026"><a xlink:title=" ">
<polygon fill="#e0e0e0" stroke="#999999" points="1561,-129 1503,-129 1503,-110 1561,-110 1561,-129"/>
<text text-anchor="middle" x="1532" y="-117" font-family="Helvetica,sans-Serif" font-size="10.00">memory</text>
</a>
</g>
</g>
<!-- Node25&#45;&gt;Node26 -->
<g id="edge33_Node000025_Node000026" class="edge">
<title>Node25&#45;&gt;Node26</title>
<g id="a_edge33_Node000025_Node000026"><a xlink:title=" ">
<path fill="none" stroke="#63b8ff" d="M1526.03,-170.37C1527,-162.25 1528.49,-149.81 1529.74,-139.39"/>
<polygon fill="#63b8ff" stroke="#63b8ff" points="1533.25,-139.51 1530.96,-129.17 1526.3,-138.68 1533.25,-139.51"/>
</a>
</g>
</g>
<!-- Node27 -->
<g id="Node000027" class="node">
<title>Node27</title>
<g id="a_Node000027"><a xlink:title=" ">
<polygon fill="#e0e0e0" stroke="#999999" points="1485,-129 1429,-129 1429,-110 1485,-110 1485,-129"/>
<text text-anchor="middle" x="1457" y="-117" font-family="Helvetica,sans-Serif" font-size="10.00">optional</text>
</a>
</g>
</g>
<!-- Node25&#45;&gt;Node27 -->
<g id="edge34_Node000025_Node000027" class="edge">
<title>Node25&#45;&gt;Node27</title>
<g id="a_edge34_Node000025_Node000027"><a xlink:title=" ">
<path fill="none" stroke="#63b8ff" d="M1514.97,-170.37C1504.42,-161.3 1487.61,-146.84 1474.81,-135.82"/>
<polygon fill="#63b8ff" stroke="#63b8ff" points="1476.94,-133.04 1467.07,-129.17 1472.37,-138.34 1476.94,-133.04"/>
</a>
</g>
</g>
<!-- Node28&#45;&gt;Node13 -->
<g id="edge38_Node000028_Node000013" class="edge">
<title>Node28&#45;&gt;Node13</title>
<g id="a_edge38_Node000028_Node000013"><a xlink:title=" ">
<path fill="none" stroke="#63b8ff" d="M946.81,-230.99C924.61,-221.16 887.88,-204.88 862.38,-193.58"/>
<polygon fill="#63b8ff" stroke="#63b8ff" points="863.78,-190.37 853.22,-189.52 860.94,-196.77 863.78,-190.37"/>
</a>
</g>
</g>
<!-- Node28&#45;&gt;Node18 -->
<g id="edge39_Node000028_Node000018" class="edge">
<title>Node28&#45;&gt;Node18</title>
<g id="a_edge39_Node000028_Node000018"><a xlink:title=" ">
<path fill="none" stroke="#63b8ff" d="M978.84,-230.87C992.72,-221.54 1015.07,-206.51 1031.61,-195.38"/>
<polygon fill="#63b8ff" stroke="#63b8ff" points="1033.76,-198.15 1040.11,-189.67 1029.86,-192.34 1033.76,-198.15"/>
</a>
</g>
</g>
<!-- Node28&#45;&gt;Node23 -->
<g id="edge41_Node000028_Node000023" class="edge">
<title>Node28&#45;&gt;Node23</title>
<g id="a_edge41_Node000028_Node000023"><a xlink:title=" ">
<path fill="none" stroke="#63b8ff" d="M968.59,-230.82C973.85,-214.8 987.46,-180.79 1012,-165 1064.44,-131.26 1254.13,-123.05 1331.15,-121.1"/>
<polygon fill="#63b8ff" stroke="#63b8ff" points="1331.33,-124.59 1341.25,-120.86 1331.17,-117.6 1331.33,-124.59"/>
</a>
</g>
</g>
<!-- Node28&#45;&gt;Node28 -->
<g id="edge42_Node000028_Node000028" class="edge">
<title>Node28&#45;&gt;Node28</title>
<g id="a_edge42_Node000028_Node000028"><a xlink:title=" ">
<path fill="none" stroke="#63b8ff" d="M995.02,-250.03C1012.06,-252.06 1028,-248.88 1028,-240.5 1028,-233.82 1017.87,-230.44 1005.14,-230.38"/>
<polygon fill="#63b8ff" stroke="#63b8ff" points="1004.8,-226.89 995.02,-230.97 1005.21,-233.88 1004.8,-226.89"/>
</a>
</g>
</g>
<!-- Node29 -->
<g id="Node000029" class="node">
<title>Node29</title>
<g id="a_Node000029"><a xlink:title=" ">
<polygon fill="#e0e0e0" stroke="#999999" points="963.5,-189.5 922.5,-189.5 922.5,-170.5 963.5,-170.5 963.5,-189.5"/>
<text text-anchor="middle" x="943" y="-177.5" font-family="Helvetica,sans-Serif" font-size="10.00">tuple</text>
</a>
</g>
</g>
<!-- Node28&#45;&gt;Node29 -->
<g id="edge40_Node000028_Node000029" class="edge">
<title>Node28&#45;&gt;Node29</title>
<g id="a_edge40_Node000028_Node000029"><a xlink:title=" ">
<path fill="none" stroke="#63b8ff" d="M962.61,-230.87C959.34,-222.57 954.31,-209.78 950.16,-199.22"/>
<polygon fill="#63b8ff" stroke="#63b8ff" points="953.32,-197.69 946.41,-189.67 946.81,-200.25 953.32,-197.69"/>
</a>
</g>
</g>
<!-- Node30&#45;&gt;Node8 -->
<g id="edge54_Node000030_Node000008" class="edge">
<title>Node30&#45;&gt;Node8</title>
<g id="a_edge54_Node000030_Node000008"><a xlink:title=" ">
<path fill="none" stroke="#63b8ff" d="M943.83,-285.98C935.08,-277.49 921.94,-263.76 913,-250 890.45,-215.3 906.22,-192.16 875,-165 818.09,-115.48 598.32,-84.31 491.69,-71.79"/>
<polygon fill="#63b8ff" stroke="#63b8ff" points="492.07,-68.31 481.74,-70.64 491.27,-75.26 492.07,-68.31"/>
</a>
</g>
</g>
<!-- Node30&#45;&gt;Node16 -->
<g id="edge55_Node000030_Node000016" class="edge">
<title>Node30&#45;&gt;Node16</title>
<g id="a_edge55_Node000030_Node000016"><a xlink:title=" ">
<path fill="none" stroke="#63b8ff" d="M996.38,-285.98C1043.38,-276.76 1118.43,-262.03 1169.16,-252.07"/>
<polygon fill="#63b8ff" stroke="#63b8ff" points="1170.14,-255.44 1179.28,-250.08 1168.79,-248.57 1170.14,-255.44"/>
</a>
</g>
</g>
<!-- Node30&#45;&gt;Node28 -->
<g id="edge56_Node000030_Node000028" class="edge">
<title>Node30&#45;&gt;Node28</title>
<g id="a_edge56_Node000030_Node000028"><a xlink:title=" ">
<path fill="none" stroke="#63b8ff" d="M955.15,-285.75C956.87,-278.72 959.35,-268.62 961.5,-259.84"/>
<polygon fill="#63b8ff" stroke="#63b8ff" points="964.91,-260.63 963.89,-250.09 958.11,-258.97 964.91,-260.63"/>
</a>
</g>
</g>
</g>
</svg>
