<?xml version="1.0" encoding="UTF-8" standalone="no"?>
<!DOCTYPE svg PUBLIC "-//W3C//DTD SVG 1.1//EN"
 "http://www.w3.org/Graphics/SVG/1.1/DTD/svg11.dtd">
<!-- Generated by graphviz version 2.43.0 (0)
 -->
<!-- Title: /home/runner/work/R&#45;Type/R&#45;Type/Shared/systems/Collision/Collision.hpp Pages: 1 -->
<svg width="819pt" height="126pt"
 viewBox="0.00 0.00 818.50 126.00" xmlns="http://www.w3.org/2000/svg" xmlns:xlink="http://www.w3.org/1999/xlink">
<g id="graph0" class="graph" transform="scale(1 1) rotate(0) translate(4 122)">
<title>/home/runner/work/R&#45;Type/R&#45;Type/Shared/systems/Collision/Collision.hpp</title>
<!-- Node1 -->
<g id="Node000001" class="node">
<title>Node1</title>
<g id="a_Node000001"><a xlink:title=" ">
<polygon fill="#999999" stroke="#666666" points="479,-118 307,-118 307,-77 479,-77 479,-118"/>
<text text-anchor="start" x="315" y="-106" font-family="Helvetica,sans-Serif" font-size="10.00">/home/runner/work/R</text>
<text text-anchor="start" x="315" y="-95" font-family="Helvetica,sans-Serif" font-size="10.00">&#45;Type/R&#45;Type/Shared</text>
<text text-anchor="middle" x="393" y="-84" font-family="Helvetica,sans-Serif" font-size="10.00">/systems/Collision/Collision.hpp</text>
</a>
</g>
</g>
<!-- Node2 -->
<g id="Node000002" class="node">
<title>Node2</title>
<g id="a_Node000002"><a xlink:href="RtypeScene_8cpp.html" target="_top" xlink:title=" ">
<polygon fill="white" stroke="#666666" points="152,-41 0,-41 0,0 152,0 152,-41"/>
<text text-anchor="start" x="8" y="-29" font-family="Helvetica,sans-Serif" font-size="10.00">/home/runner/work/R</text>
<text text-anchor="start" x="8" y="-18" font-family="Helvetica,sans-Serif" font-size="10.00">&#45;Type/R&#45;Type/Client</text>
<text text-anchor="middle" x="76" y="-7" font-family="Helvetica,sans-Serif" font-size="10.00">/src/scenes/RtypeScene.cpp</text>
</a>
</g>
</g>
<!-- Node1&#45;&gt;Node2 -->
<g id="edge1_Node000001_Node000002" class="edge">
<title>Node1&#45;&gt;Node2</title>
<g id="a_edge1_Node000001_Node000002"><a xlink:title=" ">
<path fill="none" stroke="#63b8ff" d="M300.62,-74.64C253.43,-63.48 196.71,-50.06 152.07,-39.5"/>
<polygon fill="#63b8ff" stroke="#63b8ff" points="300,-78.09 310.54,-76.99 301.61,-71.28 300,-78.09"/>
</a>
</g>
</g>
<!-- Node3 -->
<g id="Node000003" class="node">
<title>Node3</title>
<g id="a_Node000003"><a xlink:href="ServerGame_8cpp.html" target="_top" xlink:title=" ">
<polygon fill="white" stroke="#666666" points="289.5,-41 170.5,-41 170.5,0 289.5,0 289.5,-41"/>
<text text-anchor="start" x="178.5" y="-29" font-family="Helvetica,sans-Serif" font-size="10.00">/home/runner/work/R</text>
<text text-anchor="start" x="178.5" y="-18" font-family="Helvetica,sans-Serif" font-size="10.00">&#45;Type/R&#45;Type/Server</text>
<text text-anchor="middle" x="230" y="-7" font-family="Helvetica,sans-Serif" font-size="10.00">/src/ServerGame.cpp</text>
</a>
</g>
</g>
<!-- Node1&#45;&gt;Node3 -->
<g id="edge2_Node000001_Node000003" class="edge">
<title>Node1&#45;&gt;Node3</title>
<g id="a_edge2_Node000001_Node000003"><a xlink:title=" ">
<path fill="none" stroke="#63b8ff" d="M341.32,-72.72C319.14,-62.51 293.53,-50.73 272.47,-41.04"/>
<polygon fill="#63b8ff" stroke="#63b8ff" points="340.05,-75.99 350.6,-76.99 342.98,-69.63 340.05,-75.99"/>
</a>
</g>
</g>
<!-- Node4 -->
<g id="Node000004" class="node">
<title>Node4</title>
<g id="a_Node000004"><a xlink:href="Collision_8cpp.html" target="_top" xlink:title=" ">
<polygon fill="white" stroke="#666666" points="478.5,-41 307.5,-41 307.5,0 478.5,0 478.5,-41"/>
<text text-anchor="start" x="315.5" y="-29" font-family="Helvetica,sans-Serif" font-size="10.00">/home/runner/work/R</text>
<text text-anchor="start" x="315.5" y="-18" font-family="Helvetica,sans-Serif" font-size="10.00">&#45;Type/R&#45;Type/Shared</text>
<text text-anchor="middle" x="393" y="-7" font-family="Helvetica,sans-Serif" font-size="10.00">/systems/Collision/Collision.cpp</text>
</a>
</g>
</g>
<!-- Node1&#45;&gt;Node4 -->
<g id="edge3_Node000001_Node000004" class="edge">
<title>Node1&#45;&gt;Node4</title>
<g id="a_edge3_Node000001_Node000004"><a xlink:title=" ">
<path fill="none" stroke="#63b8ff" d="M393,-66.69C393,-58.08 393,-48.9 393,-41.07"/>
<polygon fill="#63b8ff" stroke="#63b8ff" points="389.5,-66.79 393,-76.79 396.5,-66.79 389.5,-66.79"/>
</a>
</g>
</g>
<!-- Node5 -->
<g id="Node000005" class="node">
<title>Node5</title>
<g id="a_Node000005"><a xlink:href="ForceCtrl_8cpp.html" target="_top" xlink:title=" ">
<polygon fill="white" stroke="#666666" points="625,-41 497,-41 497,0 625,0 625,-41"/>
<text text-anchor="start" x="505" y="-29" font-family="Helvetica,sans-Serif" font-size="10.00">/home/runner/work/R</text>
<text text-anchor="start" x="505" y="-18" font-family="Helvetica,sans-Serif" font-size="10.00">&#45;Type/R&#45;Type/Shared</text>
<text text-anchor="middle" x="561" y="-7" font-family="Helvetica,sans-Serif" font-size="10.00">/systems/ForceCtrl.cpp</text>
</a>
</g>
</g>
<!-- Node1&#45;&gt;Node5 -->
<g id="edge4_Node000001_Node000005" class="edge">
<title>Node1&#45;&gt;Node5</title>
<g id="a_edge4_Node000001_Node000005"><a xlink:title=" ">
<path fill="none" stroke="#63b8ff" d="M445.96,-72.86C468.89,-62.62 495.43,-50.77 517.23,-41.04"/>
<polygon fill="#63b8ff" stroke="#63b8ff" points="444.41,-69.72 436.7,-76.99 447.26,-76.11 444.41,-69.72"/>
</a>
</g>
</g>
<!-- Node6 -->
<g id="Node000006" class="node">
<title>Node6</title>
<g id="a_Node000006"><a xlink:href="ProjectileSystem_8cpp.html" target="_top" xlink:title=" ">
<polygon fill="white" stroke="#666666" points="810.5,-41 643.5,-41 643.5,0 810.5,0 810.5,-41"/>
<text text-anchor="start" x="651.5" y="-29" font-family="Helvetica,sans-Serif" font-size="10.00">/home/runner/work/R</text>
<text text-anchor="start" x="651.5" y="-18" font-family="Helvetica,sans-Serif" font-size="10.00">&#45;Type/R&#45;Type/Shared</text>
<text text-anchor="middle" x="727" y="-7" font-family="Helvetica,sans-Serif" font-size="10.00">/systems/ProjectileSystem.cpp</text>
</a>
</g>
</g>
<!-- Node1&#45;&gt;Node6 -->
<g id="edge5_Node000001_Node000006" class="edge">
<title>Node1&#45;&gt;Node6</title>
<g id="a_edge5_Node000001_Node000006"><a xlink:title=" ">
<path fill="none" stroke="#63b8ff" d="M488.94,-74.96C537.7,-64.01 596.39,-50.83 643.3,-40.3"/>
<polygon fill="#63b8ff" stroke="#63b8ff" points="488,-71.58 479.01,-77.19 489.54,-78.41 488,-71.58"/>
</a>
</g>
</g>
</g>
</svg>
