<?xml version="1.0" encoding="UTF-8" standalone="no"?>
<!DOCTYPE svg PUBLIC "-//W3C//DTD SVG 1.1//EN"
 "http://www.w3.org/Graphics/SVG/1.1/DTD/svg11.dtd">
<!-- Generated by graphviz version 2.43.0 (0)
 -->
<!-- Title: /home/runner/work/R&#45;Type/R&#45;Type/Shared/systems/Collision/Collision.cpp Pages: 1 -->
<svg width="1052pt" height="335pt"
 viewBox="0.00 0.00 1052.44 335.00" xmlns="http://www.w3.org/2000/svg" xmlns:xlink="http://www.w3.org/1999/xlink">
<g id="graph0" class="graph" transform="scale(1 1) rotate(0) translate(4 331)">
<title>/home/runner/work/R&#45;Type/R&#45;Type/Shared/systems/Collision/Collision.cpp</title>
<!-- Node1 -->
<g id="Node000001" class="node">
<title>Node1</title>
<g id="a_Node000001"><a xlink:title=" ">
<polygon fill="#999999" stroke="#666666" points="662.44,-327 491.44,-327 491.44,-286 662.44,-286 662.44,-327"/>
<text text-anchor="start" x="499.44" y="-315" font-family="Helvetica,sans-Serif" font-size="10.00">/home/runner/work/R</text>
<text text-anchor="start" x="499.44" y="-304" font-family="Helvetica,sans-Serif" font-size="10.00">&#45;Type/R&#45;Type/Shared</text>
<text text-anchor="middle" x="576.94" y="-293" font-family="Helvetica,sans-Serif" font-size="10.00">/systems/Collision/Collision.cpp</text>
</a>
</g>
</g>
<!-- Node2 -->
<g id="Node000002" class="node">
<title>Node2</title>
<g id="a_Node000002"><a xlink:href="Collision_8hpp.html" target="_top" xlink:title=" ">
<polygon fill="white" stroke="#666666" points="379.44,-250 254.44,-250 254.44,-231 379.44,-231 379.44,-250"/>
<text text-anchor="middle" x="316.94" y="-238" font-family="Helvetica,sans-Serif" font-size="10.00">Collision/Collision.hpp</text>
</a>
</g>
</g>
<!-- Node1&#45;&gt;Node2 -->
<g id="edge1_Node000001_Node000002" class="edge">
<title>Node1&#45;&gt;Node2</title>
<g id="a_edge1_Node000001_Node000002"><a xlink:title=" ">
<path fill="none" stroke="#63b8ff" d="M497.52,-285.95C452.88,-274.96 398.82,-261.65 361.55,-252.48"/>
<polygon fill="#63b8ff" stroke="#63b8ff" points="362.05,-249 351.5,-250.01 360.37,-255.8 362.05,-249"/>
</a>
</g>
</g>
<!-- Node5 -->
<g id="Node000005" class="node">
<title>Node5</title>
<g id="a_Node000005"><a xlink:href="Items_8hpp.html" target="_top" xlink:title=" ">
<polygon fill="white" stroke="#666666" points="141.94,-195 31.94,-195 31.94,-176 141.94,-176 141.94,-195"/>
<text text-anchor="middle" x="86.94" y="-183" font-family="Helvetica,sans-Serif" font-size="10.00">Collision/Items.hpp</text>
</a>
</g>
</g>
<!-- Node1&#45;&gt;Node5 -->
<g id="edge26_Node000001_Node000005" class="edge">
<title>Node1&#45;&gt;Node5</title>
<g id="a_edge26_Node000001_Node000005"><a xlink:title=" ">
<path fill="none" stroke="#63b8ff" d="M491.16,-298.15C419.86,-290.54 316.31,-276.01 228.94,-250 186.1,-237.25 139.31,-214.45 111.57,-199.92"/>
<polygon fill="#63b8ff" stroke="#63b8ff" points="113.07,-196.75 102.6,-195.15 109.79,-202.93 113.07,-196.75"/>
</a>
</g>
</g>
<!-- Node8 -->
<g id="Node000008" class="node">
<title>Node8</title>
<g id="a_Node000008"><a xlink:href="Enemy_8hpp.html" target="_top" xlink:title=" ">
<polygon fill="white" stroke="#666666" points="821.94,-195 717.94,-195 717.94,-176 821.94,-176 821.94,-195"/>
<text text-anchor="middle" x="769.94" y="-183" font-family="Helvetica,sans-Serif" font-size="10.00">Player/Enemy.hpp</text>
</a>
</g>
</g>
<!-- Node1&#45;&gt;Node8 -->
<g id="edge27_Node000001_Node000008" class="edge">
<title>Node1&#45;&gt;Node8</title>
<g id="a_edge27_Node000001_Node000008"><a xlink:title=" ">
<path fill="none" stroke="#63b8ff" d="M662.71,-303.47C751.2,-299.35 880.58,-286.98 911.94,-250 938.82,-218.3 882.06,-201.77 832.51,-193.62"/>
<polygon fill="#63b8ff" stroke="#63b8ff" points="832.82,-190.12 822.4,-192.05 831.75,-197.04 832.82,-190.12"/>
</a>
</g>
</g>
<!-- Node9 -->
<g id="Node000009" class="node">
<title>Node9</title>
<g id="a_Node000009"><a xlink:href="PlayerEntity_8hpp.html" target="_top" xlink:title=" ">
<polygon fill="white" stroke="#666666" points="289.44,-195 160.44,-195 160.44,-176 289.44,-176 289.44,-195"/>
<text text-anchor="middle" x="224.94" y="-183" font-family="Helvetica,sans-Serif" font-size="10.00">Player/PlayerEntity.hpp</text>
</a>
</g>
</g>
<!-- Node1&#45;&gt;Node9 -->
<g id="edge28_Node000001_Node000009" class="edge">
<title>Node1&#45;&gt;Node9</title>
<g id="a_edge28_Node000001_Node000009"><a xlink:title=" ">
<path fill="none" stroke="#63b8ff" d="M491.16,-301.19C405.27,-295.16 280.82,-281.2 244.94,-250 232.27,-238.99 227.54,-220.04 225.82,-205.7"/>
<polygon fill="#63b8ff" stroke="#63b8ff" points="229.28,-205.12 224.98,-195.43 222.3,-205.68 229.28,-205.12"/>
</a>
</g>
</g>
<!-- Node10 -->
<g id="Node000010" class="node">
<title>Node10</title>
<g id="a_Node000010"><a xlink:title=" ">
<polygon fill="#e0e0e0" stroke="#999999" points="90.94,-134.5 26.94,-134.5 26.94,-115.5 90.94,-115.5 90.94,-134.5"/>
<text text-anchor="middle" x="58.94" y="-122.5" font-family="Helvetica,sans-Serif" font-size="10.00">algorithm</text>
</a>
</g>
</g>
<!-- Node1&#45;&gt;Node10 -->
<g id="edge21_Node000001_Node000010" class="edge">
<title>Node1&#45;&gt;Node10</title>
<g id="a_edge21_Node000001_Node000010"><a xlink:title=" ">
<path fill="none" stroke="#63b8ff" d="M491.4,-302.19C349.56,-294.6 76.01,-270.31 22.94,-195 10.92,-177.95 26.49,-156.36 40.75,-141.92"/>
<polygon fill="#63b8ff" stroke="#63b8ff" points="43.51,-144.13 48.35,-134.7 38.69,-139.05 43.51,-144.13"/>
</a>
</g>
</g>
<!-- Node12 -->
<g id="Node000012" class="node">
<title>Node12</title>
<g id="a_Node000012"><a xlink:href="Projectile_8hpp.html" target="_top" xlink:title=" ">
<polygon fill="white" stroke="#666666" points="251.94,-74 71.94,-74 71.94,-55 251.94,-55 251.94,-74"/>
<text text-anchor="middle" x="161.94" y="-62" font-family="Helvetica,sans-Serif" font-size="10.00">components/Player/Projectile.hpp</text>
</a>
</g>
</g>
<!-- Node1&#45;&gt;Node12 -->
<g id="edge29_Node000001_Node000012" class="edge">
<title>Node1&#45;&gt;Node12</title>
<g id="a_edge29_Node000001_Node000012"><a xlink:title=" ">
<path fill="none" stroke="#63b8ff" d="M491.37,-302.64C367.54,-297.4 145.26,-283.54 72.94,-250 12.29,-221.87 -22.96,-162.88 17.94,-110 30.12,-94.24 47.8,-83.92 66.62,-77.19"/>
<polygon fill="#63b8ff" stroke="#63b8ff" points="67.8,-80.49 76.24,-74.09 65.64,-73.83 67.8,-80.49"/>
</a>
</g>
</g>
<!-- Node13 -->
<g id="Node000013" class="node">
<title>Node13</title>
<g id="a_Node000013"><a xlink:title=" ">
<polygon fill="#e0e0e0" stroke="#999999" points="555.94,-195 459.94,-195 459.94,-176 555.94,-176 555.94,-195"/>
<text text-anchor="middle" x="507.94" y="-183" font-family="Helvetica,sans-Serif" font-size="10.00">ecs/Registry.hpp</text>
</a>
</g>
</g>
<!-- Node1&#45;&gt;Node13 -->
<g id="edge36_Node000001_Node000013" class="edge">
<title>Node1&#45;&gt;Node13</title>
<g id="a_edge36_Node000001_Node000013"><a xlink:title=" ">
<path fill="none" stroke="#63b8ff" d="M491.24,-292.56C466.76,-284.45 442.74,-271.31 427.94,-250 412.69,-228.05 443.13,-209.93 470.74,-198.75"/>
<polygon fill="#63b8ff" stroke="#63b8ff" points="472.23,-201.93 480.31,-195.08 469.72,-195.39 472.23,-201.93"/>
</a>
</g>
</g>
<!-- Node15 -->
<g id="Node000015" class="node">
<title>Node15</title>
<g id="a_Node000015"><a xlink:title=" ">
<polygon fill="#e0e0e0" stroke="#999999" points="669.94,-250 609.94,-250 609.94,-231 669.94,-231 669.94,-250"/>
<text text-anchor="middle" x="639.94" y="-238" font-family="Helvetica,sans-Serif" font-size="10.00">iostream</text>
</a>
</g>
</g>
<!-- Node1&#45;&gt;Node15 -->
<g id="edge22_Node000001_Node000015" class="edge">
<title>Node1&#45;&gt;Node15</title>
<g id="a_edge22_Node000001_Node000015"><a xlink:title=" ">
<path fill="none" stroke="#63b8ff" d="M596.18,-285.95C605.16,-276.83 615.71,-266.11 624.2,-257.49"/>
<polygon fill="#63b8ff" stroke="#63b8ff" points="626.79,-259.84 631.31,-250.26 621.8,-254.93 626.79,-259.84"/>
</a>
</g>
</g>
<!-- Node16 -->
<g id="Node000016" class="node">
<title>Node16</title>
<g id="a_Node000016"><a xlink:title=" ">
<polygon fill="#e0e0e0" stroke="#999999" points="773.94,-250 687.94,-250 687.94,-231 773.94,-231 773.94,-250"/>
<text text-anchor="middle" x="730.94" y="-238" font-family="Helvetica,sans-Serif" font-size="10.00">unordered_set</text>
</a>
</g>
</g>
<!-- Node1&#45;&gt;Node16 -->
<g id="edge23_Node000001_Node000016" class="edge">
<title>Node1&#45;&gt;Node16</title>
<g id="a_edge23_Node000001_Node000016"><a xlink:title=" ">
<path fill="none" stroke="#63b8ff" d="M623.98,-285.95C648.98,-275.56 678.99,-263.09 700.84,-254.01"/>
<polygon fill="#63b8ff" stroke="#63b8ff" points="702.37,-257.16 710.26,-250.09 699.69,-250.7 702.37,-257.16"/>
</a>
</g>
</g>
<!-- Node17 -->
<g id="Node000017" class="node">
<title>Node17</title>
<g id="a_Node000017"><a xlink:title=" ">
<polygon fill="#e0e0e0" stroke="#999999" points="837.44,-250 792.44,-250 792.44,-231 837.44,-231 837.44,-250"/>
<text text-anchor="middle" x="814.94" y="-238" font-family="Helvetica,sans-Serif" font-size="10.00">utility</text>
</a>
</g>
</g>
<!-- Node1&#45;&gt;Node17 -->
<g id="edge24_Node000001_Node000017" class="edge">
<title>Node1&#45;&gt;Node17</title>
<g id="a_edge24_Node000001_Node000017"><a xlink:title=" ">
<path fill="none" stroke="#63b8ff" d="M649.64,-285.95C693.99,-274.02 748.51,-259.36 782.5,-250.22"/>
<polygon fill="#63b8ff" stroke="#63b8ff" points="783.6,-253.55 792.35,-247.57 781.79,-246.79 783.6,-253.55"/>
</a>
</g>
</g>
<!-- Node18 -->
<g id="Node000018" class="node">
<title>Node18</title>
<g id="a_Node000018"><a xlink:title=" ">
<polygon fill="#e0e0e0" stroke="#999999" points="902.44,-250 855.44,-250 855.44,-231 902.44,-231 902.44,-250"/>
<text text-anchor="middle" x="878.94" y="-238" font-family="Helvetica,sans-Serif" font-size="10.00">vector</text>
</a>
</g>
</g>
<!-- Node1&#45;&gt;Node18 -->
<g id="edge25_Node000001_Node000018" class="edge">
<title>Node1&#45;&gt;Node18</title>
<g id="a_edge25_Node000001_Node000018"><a xlink:title=" ">
<path fill="none" stroke="#63b8ff" d="M662.63,-289.18C713.36,-279.21 779.07,-265.78 845.42,-250.27"/>
<polygon fill="#63b8ff" stroke="#63b8ff" points="846.28,-253.66 855.21,-247.96 844.67,-246.85 846.28,-253.66"/>
</a>
</g>
</g>
<!-- Node19 -->
<g id="Node000019" class="node">
<title>Node19</title>
<g id="a_Node000019"><a xlink:href="BossPart_8hpp.html" target="_top" xlink:title=" ">
<polygon fill="white" stroke="#666666" points="899.44,-134.5 756.44,-134.5 756.44,-115.5 899.44,-115.5 899.44,-134.5"/>
<text text-anchor="middle" x="827.94" y="-122.5" font-family="Helvetica,sans-Serif" font-size="10.00">components/BossPart.hpp</text>
</a>
</g>
</g>
<!-- Node1&#45;&gt;Node19 -->
<g id="edge30_Node000001_Node000019" class="edge">
<title>Node1&#45;&gt;Node19</title>
<g id="a_edge30_Node000001_Node000019"><a xlink:title=" ">
<path fill="none" stroke="#63b8ff" d="M662.82,-304.28C755.81,-300.92 895.37,-289.27 928.94,-250 962.67,-210.53 893.22,-162.56 853.34,-139.56"/>
<polygon fill="#63b8ff" stroke="#63b8ff" points="854.82,-136.38 844.39,-134.53 851.39,-142.48 854.82,-136.38"/>
</a>
</g>
</g>
<!-- Node20 -->
<g id="Node000020" class="node">
<title>Node20</title>
<g id="a_Node000020"><a xlink:href="Force_8hpp.html" target="_top" xlink:title=" ">
<polygon fill="white" stroke="#666666" points="1044.44,-134.5 917.44,-134.5 917.44,-115.5 1044.44,-115.5 1044.44,-134.5"/>
<text text-anchor="middle" x="980.94" y="-122.5" font-family="Helvetica,sans-Serif" font-size="10.00">components/Force.hpp</text>
</a>
</g>
</g>
<!-- Node1&#45;&gt;Node20 -->
<g id="edge33_Node000001_Node000020" class="edge">
<title>Node1&#45;&gt;Node20</title>
<g id="a_edge33_Node000001_Node000020"><a xlink:title=" ">
<path fill="none" stroke="#63b8ff" d="M662.72,-303.21C758.67,-298.88 906.01,-286.33 946.94,-250 977.17,-223.16 981.64,-172.23 981.67,-144.73"/>
<polygon fill="#63b8ff" stroke="#63b8ff" points="985.17,-144.45 981.47,-134.52 978.17,-144.58 985.17,-144.45"/>
</a>
</g>
</g>
<!-- Node21 -->
<g id="Node000021" class="node">
<title>Node21</title>
<g id="a_Node000021"><a xlink:href="PhysicsSystem_8hpp.html" target="_top" xlink:title=" ">
<polygon fill="white" stroke="#666666" points="591.44,-250 436.44,-250 436.44,-231 591.44,-231 591.44,-250"/>
<text text-anchor="middle" x="513.94" y="-238" font-family="Helvetica,sans-Serif" font-size="10.00">systems/PhysicsSystem.hpp</text>
</a>
</g>
</g>
<!-- Node1&#45;&gt;Node21 -->
<g id="edge37_Node000001_Node000021" class="edge">
<title>Node1&#45;&gt;Node21</title>
<g id="a_edge37_Node000001_Node000021"><a xlink:title=" ">
<path fill="none" stroke="#63b8ff" d="M557.69,-285.95C548.72,-276.83 538.17,-266.11 529.68,-257.49"/>
<polygon fill="#63b8ff" stroke="#63b8ff" points="532.07,-254.93 522.56,-250.26 527.08,-259.84 532.07,-254.93"/>
</a>
</g>
</g>
<!-- Node3 -->
<g id="Node000003" class="node">
<title>Node3</title>
<g id="a_Node000003"><a xlink:href="CollisionController_8hpp.html" target="_top" xlink:title=" ">
<polygon fill="white" stroke="#666666" points="649.94,-140 509.94,-140 509.94,-110 649.94,-110 649.94,-140"/>
<text text-anchor="start" x="517.94" y="-128" font-family="Helvetica,sans-Serif" font-size="10.00">../../components/Collision</text>
<text text-anchor="middle" x="579.94" y="-117" font-family="Helvetica,sans-Serif" font-size="10.00">/CollisionController.hpp</text>
</a>
</g>
</g>
<!-- Node2&#45;&gt;Node3 -->
<g id="edge2_Node000002_Node000003" class="edge">
<title>Node2&#45;&gt;Node3</title>
<g id="a_edge2_Node000002_Node000003"><a xlink:title=" ">
<path fill="none" stroke="#63b8ff" d="M334.1,-230.87C359.41,-218.26 408.37,-194.31 450.94,-176 477.53,-164.56 507.67,-152.82 532.12,-143.58"/>
<polygon fill="#63b8ff" stroke="#63b8ff" points="533.41,-146.84 541.54,-140.05 530.95,-140.29 533.41,-146.84"/>
</a>
</g>
</g>
<!-- Node2&#45;&gt;Node5 -->
<g id="edge4_Node000002_Node000005" class="edge">
<title>Node2&#45;&gt;Node5</title>
<g id="a_edge4_Node000002_Node000005"><a xlink:title=" ">
<path fill="none" stroke="#63b8ff" d="M279.98,-230.98C240.37,-221.86 177.35,-207.33 134.16,-197.38"/>
<polygon fill="#63b8ff" stroke="#63b8ff" points="134.71,-193.92 124.18,-195.08 133.14,-200.74 134.71,-193.92"/>
</a>
</g>
</g>
<!-- Node6 -->
<g id="Node000006" class="node">
<title>Node6</title>
<g id="a_Node000006"><a xlink:href="Boss_8hpp.html" target="_top" xlink:title=" ">
<polygon fill="white" stroke="#666666" points="491.44,-134.5 396.44,-134.5 396.44,-115.5 491.44,-115.5 491.44,-134.5"/>
<text text-anchor="middle" x="443.94" y="-122.5" font-family="Helvetica,sans-Serif" font-size="10.00">Player/Boss.hpp</text>
</a>
</g>
</g>
<!-- Node2&#45;&gt;Node6 -->
<g id="edge5_Node000002_Node000006" class="edge">
<title>Node2&#45;&gt;Node6</title>
<g id="a_edge5_Node000002_Node000006"><a xlink:title=" ">
<path fill="none" stroke="#63b8ff" d="M327.63,-230.79C338.44,-221.94 355.54,-207.74 369.94,-195 390.14,-177.12 412.73,-155.87 427.58,-141.72"/>
<polygon fill="#63b8ff" stroke="#63b8ff" points="430.15,-144.09 434.96,-134.65 425.32,-139.03 430.15,-144.09"/>
</a>
</g>
</g>
<!-- Node7 -->
<g id="Node000007" class="node">
<title>Node7</title>
<g id="a_Node000007"><a xlink:title=" ">
<polygon fill="#e0e0e0" stroke="#999999" points="679.94,-19 551.94,-19 551.94,0 679.94,0 679.94,-19"/>
<text text-anchor="middle" x="615.94" y="-7" font-family="Helvetica,sans-Serif" font-size="10.00">physics/Physics2D.hpp</text>
</a>
</g>
</g>
<!-- Node2&#45;&gt;Node7 -->
<g id="edge18_Node000002_Node000007" class="edge">
<title>Node2&#45;&gt;Node7</title>
<g id="a_edge18_Node000002_Node000007"><a xlink:title=" ">
<path fill="none" stroke="#63b8ff" d="M319.47,-230.68C326.46,-207.76 348.15,-145.6 386.94,-110 438.62,-62.56 516.49,-35.33 566.77,-21.73"/>
<polygon fill="#63b8ff" stroke="#63b8ff" points="567.97,-25.03 576.75,-19.1 566.19,-18.26 567.97,-25.03"/>
</a>
</g>
</g>
<!-- Node2&#45;&gt;Node8 -->
<g id="edge8_Node000002_Node000008" class="edge">
<title>Node2&#45;&gt;Node8</title>
<g id="a_edge8_Node000002_Node000008"><a xlink:title=" ">
<path fill="none" stroke="#63b8ff" d="M379.45,-232.19C465.98,-222.06 621.33,-203.89 707.71,-193.78"/>
<polygon fill="#63b8ff" stroke="#63b8ff" points="708.37,-197.23 717.89,-192.59 707.55,-190.28 708.37,-197.23"/>
</a>
</g>
</g>
<!-- Node2&#45;&gt;Node9 -->
<g id="edge10_Node000002_Node000009" class="edge">
<title>Node2&#45;&gt;Node9</title>
<g id="a_edge10_Node000002_Node000009"><a xlink:title=" ">
<path fill="none" stroke="#63b8ff" d="M302.16,-230.98C287.76,-222.69 265.63,-209.94 248.74,-200.22"/>
<polygon fill="#63b8ff" stroke="#63b8ff" points="250.4,-197.13 239.99,-195.17 246.9,-203.19 250.4,-197.13"/>
</a>
</g>
</g>
<!-- Node2&#45;&gt;Node12 -->
<g id="edge17_Node000002_Node000012" class="edge">
<title>Node2&#45;&gt;Node12</title>
<g id="a_edge17_Node000002_Node000012"><a xlink:title=" ">
<path fill="none" stroke="#63b8ff" d="M315.5,-230.86C313.15,-218.23 307.73,-194.25 297.94,-176 279.87,-142.36 272.4,-134.28 242.94,-110 227.45,-97.24 207.77,-86.33 191.68,-78.5"/>
<polygon fill="#63b8ff" stroke="#63b8ff" points="192.74,-75.13 182.2,-74.04 189.76,-81.47 192.74,-75.13"/>
</a>
</g>
</g>
<!-- Node2&#45;&gt;Node13 -->
<g id="edge19_Node000002_Node000013" class="edge">
<title>Node2&#45;&gt;Node13</title>
<g id="a_edge19_Node000002_Node000013"><a xlink:title=" ">
<path fill="none" stroke="#63b8ff" d="M347.62,-230.98C380.11,-221.97 431.53,-207.7 467.35,-197.76"/>
<polygon fill="#63b8ff" stroke="#63b8ff" points="468.31,-201.13 477.01,-195.08 466.44,-194.38 468.31,-201.13"/>
</a>
</g>
</g>
<!-- Node14 -->
<g id="Node000014" class="node">
<title>Node14</title>
<g id="a_Node000014"><a xlink:title=" ">
<polygon fill="#e0e0e0" stroke="#999999" points="661.94,-195 573.94,-195 573.94,-176 661.94,-176 661.94,-195"/>
<text text-anchor="middle" x="617.94" y="-183" font-family="Helvetica,sans-Serif" font-size="10.00">ecs/Zipper.hpp</text>
</a>
</g>
</g>
<!-- Node2&#45;&gt;Node14 -->
<g id="edge20_Node000002_Node000014" class="edge">
<title>Node2&#45;&gt;Node14</title>
<g id="a_edge20_Node000002_Node000014"><a xlink:title=" ">
<path fill="none" stroke="#63b8ff" d="M365.3,-230.98C419.43,-221.45 506.94,-206.05 563.44,-196.1"/>
<polygon fill="#63b8ff" stroke="#63b8ff" points="564.38,-199.48 573.62,-194.3 563.16,-192.59 564.38,-199.48"/>
</a>
</g>
</g>
<!-- Node4 -->
<g id="Node000004" class="node">
<title>Node4</title>
<g id="a_Node000004"><a xlink:title=" ">
<polygon fill="#e0e0e0" stroke="#999999" points="641.94,-74 557.94,-74 557.94,-55 641.94,-55 641.94,-74"/>
<text text-anchor="middle" x="599.94" y="-62" font-family="Helvetica,sans-Serif" font-size="10.00">ecs/Entity.hpp</text>
</a>
</g>
</g>
<!-- Node3&#45;&gt;Node4 -->
<g id="edge3_Node000003_Node000004" class="edge">
<title>Node3&#45;&gt;Node4</title>
<g id="a_edge3_Node000003_Node000004"><a xlink:title=" ">
<path fill="none" stroke="#63b8ff" d="M584.78,-109.84C587.44,-102.04 590.78,-92.27 593.65,-83.89"/>
<polygon fill="#63b8ff" stroke="#63b8ff" points="597.02,-84.86 596.94,-74.27 590.39,-82.6 597.02,-84.86"/>
</a>
</g>
</g>
<!-- Node6&#45;&gt;Node4 -->
<g id="edge7_Node000006_Node000004" class="edge">
<title>Node6&#45;&gt;Node4</title>
<g id="a_edge7_Node000006_Node000004"><a xlink:title=" ">
<path fill="none" stroke="#63b8ff" d="M466.62,-115.49C493.19,-105.53 537.41,-88.95 567.58,-77.63"/>
<polygon fill="#63b8ff" stroke="#63b8ff" points="569.09,-80.81 577.23,-74.02 566.63,-74.25 569.09,-80.81"/>
</a>
</g>
</g>
<!-- Node6&#45;&gt;Node7 -->
<g id="edge6_Node000006_Node000007" class="edge">
<title>Node6&#45;&gt;Node7</title>
<g id="a_edge6_Node000006_Node000007"><a xlink:title=" ">
<path fill="none" stroke="#63b8ff" d="M456.86,-115.47C486.25,-96.08 558.31,-48.53 594.48,-24.66"/>
<polygon fill="#63b8ff" stroke="#63b8ff" points="596.44,-27.56 602.86,-19.13 592.58,-21.72 596.44,-27.56"/>
</a>
</g>
</g>
<!-- Node8&#45;&gt;Node7 -->
<g id="edge9_Node000008_Node000007" class="edge">
<title>Node8&#45;&gt;Node7</title>
<g id="a_edge9_Node000008_Node000007"><a xlink:title=" ">
<path fill="none" stroke="#63b8ff" d="M765.59,-175.78C751.26,-147.11 706.34,-57.39 703.94,-55 689.65,-40.75 669.86,-30.19 652.67,-22.94"/>
<polygon fill="#63b8ff" stroke="#63b8ff" points="653.49,-19.5 642.91,-19.05 650.9,-26.01 653.49,-19.5"/>
</a>
</g>
</g>
<!-- Node9&#45;&gt;Node3 -->
<g id="edge12_Node000009_Node000003" class="edge">
<title>Node9&#45;&gt;Node3</title>
<g id="a_edge12_Node000009_Node000003"><a xlink:title=" ">
<path fill="none" stroke="#63b8ff" d="M279.44,-175.97C332.97,-167.53 417.23,-154.1 499.69,-140.2"/>
<polygon fill="#63b8ff" stroke="#63b8ff" points="500.46,-143.62 509.74,-138.5 499.29,-136.71 500.46,-143.62"/>
</a>
</g>
</g>
<!-- Node9&#45;&gt;Node7 -->
<g id="edge16_Node000009_Node000007" class="edge">
<title>Node9&#45;&gt;Node7</title>
<g id="a_edge16_Node000009_Node000007"><a xlink:title=" ">
<path fill="none" stroke="#63b8ff" d="M229.9,-175.73C243.94,-151.79 286.58,-85.13 341.94,-55 375.52,-36.72 472.76,-24 541.83,-16.98"/>
<polygon fill="#63b8ff" stroke="#63b8ff" points="542.2,-20.46 551.8,-15.98 541.51,-13.49 542.2,-20.46"/>
</a>
</g>
</g>
<!-- Node9&#45;&gt;Node10 -->
<g id="edge11_Node000009_Node000010" class="edge">
<title>Node9&#45;&gt;Node10</title>
<g id="a_edge11_Node000009_Node000010"><a xlink:title=" ">
<path fill="none" stroke="#63b8ff" d="M200.8,-175.99C172.4,-165.99 125.06,-149.3 92.95,-137.99"/>
<polygon fill="#63b8ff" stroke="#63b8ff" points="93.7,-134.54 83.1,-134.52 91.37,-141.14 93.7,-134.54"/>
</a>
</g>
</g>
<!-- Node11 -->
<g id="Node000011" class="node">
<title>Node11</title>
<g id="a_Node000011"><a xlink:href="Weapon_8hpp.html" target="_top" xlink:title=" ">
<polygon fill="white" stroke="#666666" points="233.94,-134.5 123.94,-134.5 123.94,-115.5 233.94,-115.5 233.94,-134.5"/>
<text text-anchor="middle" x="178.94" y="-122.5" font-family="Helvetica,sans-Serif" font-size="10.00">Player/Weapon.hpp</text>
</a>
</g>
</g>
<!-- Node9&#45;&gt;Node11 -->
<g id="edge13_Node000009_Node000011" class="edge">
<title>Node9&#45;&gt;Node11</title>
<g id="a_edge13_Node000009_Node000011"><a xlink:title=" ">
<path fill="none" stroke="#63b8ff" d="M218.15,-175.87C211.29,-167.14 200.51,-153.43 191.98,-142.59"/>
<polygon fill="#63b8ff" stroke="#63b8ff" points="194.68,-140.36 185.75,-134.67 189.18,-144.69 194.68,-140.36"/>
</a>
</g>
</g>
<!-- Node11&#45;&gt;Node12 -->
<g id="edge14_Node000011_Node000012" class="edge">
<title>Node11&#45;&gt;Node12</title>
<g id="a_edge14_Node000011_Node000012"><a xlink:title=" ">
<path fill="none" stroke="#63b8ff" d="M176.43,-115.37C174.04,-107.16 170.38,-94.54 167.33,-84.05"/>
<polygon fill="#63b8ff" stroke="#63b8ff" points="170.61,-82.79 164.46,-74.17 163.89,-84.75 170.61,-82.79"/>
</a>
</g>
</g>
<!-- Node12&#45;&gt;Node7 -->
<g id="edge15_Node000012_Node000007" class="edge">
<title>Node12&#45;&gt;Node7</title>
<g id="a_edge15_Node000012_Node000007"><a xlink:title=" ">
<path fill="none" stroke="#63b8ff" d="M234.88,-54.98C319.06,-45.16 456.76,-29.08 541.55,-19.18"/>
<polygon fill="#63b8ff" stroke="#63b8ff" points="542.1,-22.64 551.62,-18.01 541.28,-15.69 542.1,-22.64"/>
</a>
</g>
</g>
<!-- Node19&#45;&gt;Node4 -->
<g id="edge32_Node000019_Node000004" class="edge">
<title>Node19&#45;&gt;Node4</title>
<g id="a_edge32_Node000019_Node000004"><a xlink:title=" ">
<path fill="none" stroke="#63b8ff" d="M794.78,-115.49C754.68,-105.2 687.08,-87.86 642.98,-76.54"/>
<polygon fill="#63b8ff" stroke="#63b8ff" points="643.69,-73.11 633.13,-74.02 641.95,-79.89 643.69,-73.11"/>
</a>
</g>
</g>
<!-- Node19&#45;&gt;Node7 -->
<g id="edge31_Node000019_Node000007" class="edge">
<title>Node19&#45;&gt;Node7</title>
<g id="a_edge31_Node000019_Node000007"><a xlink:title=" ">
<path fill="none" stroke="#63b8ff" d="M819.14,-115.23C804.35,-100.89 773.05,-72.31 741.94,-55 715.9,-40.51 684.27,-29.36 659.21,-21.84"/>
<polygon fill="#63b8ff" stroke="#63b8ff" points="660.19,-18.48 649.61,-19.04 658.23,-25.2 660.19,-18.48"/>
</a>
</g>
</g>
<!-- Node20&#45;&gt;Node4 -->
<g id="edge34_Node000020_Node000004" class="edge">
<title>Node20&#45;&gt;Node4</title>
<g id="a_edge34_Node000020_Node000004"><a xlink:title=" ">
<path fill="none" stroke="#63b8ff" d="M938.74,-115.44C928.97,-113.55 918.6,-111.64 908.94,-110 819.01,-94.79 713.81,-80.35 652.25,-72.24"/>
<polygon fill="#63b8ff" stroke="#63b8ff" points="652.39,-68.73 642.02,-70.9 651.48,-75.67 652.39,-68.73"/>
</a>
</g>
</g>
<!-- Node20&#45;&gt;Node7 -->
<g id="edge35_Node000020_Node000007" class="edge">
<title>Node20&#45;&gt;Node7</title>
<g id="a_edge35_Node000020_Node000007"><a xlink:title=" ">
<path fill="none" stroke="#63b8ff" d="M955.57,-115.46C915.87,-102.15 836.63,-75.85 768.94,-55 730.81,-43.26 687.1,-30.62 656.18,-21.83"/>
<polygon fill="#63b8ff" stroke="#63b8ff" points="656.79,-18.36 646.21,-19 654.88,-25.1 656.79,-18.36"/>
</a>
</g>
</g>
<!-- Node21&#45;&gt;Node7 -->
<g id="edge38_Node000021_Node000007" class="edge">
<title>Node21&#45;&gt;Node7</title>
<g id="a_edge38_Node000021_Node000007"><a xlink:title=" ">
<path fill="none" stroke="#63b8ff" d="M569.49,-230.97C609.49,-223.57 658.51,-211.44 670.94,-195 688.59,-171.64 736.86,-249.94 650.94,-55 646.35,-44.59 638.75,-34.49 631.8,-26.55"/>
<polygon fill="#63b8ff" stroke="#63b8ff" points="634.31,-24.11 624.96,-19.14 629.17,-28.86 634.31,-24.11"/>
</a>
</g>
</g>
<!-- Node21&#45;&gt;Node13 -->
<g id="edge39_Node000021_Node000013" class="edge">
<title>Node21&#45;&gt;Node13</title>
<g id="a_edge39_Node000021_Node000013"><a xlink:title=" ">
<path fill="none" stroke="#63b8ff" d="M512.95,-230.75C512.16,-223.8 511.03,-213.85 510.05,-205.13"/>
<polygon fill="#63b8ff" stroke="#63b8ff" points="513.51,-204.63 508.91,-195.09 506.56,-205.42 513.51,-204.63"/>
</a>
</g>
</g>
<!-- Node21&#45;&gt;Node14 -->
<g id="edge40_Node000021_Node000014" class="edge">
<title>Node21&#45;&gt;Node14</title>
<g id="a_edge40_Node000021_Node000014"><a xlink:title=" ">
<path fill="none" stroke="#63b8ff" d="M530.65,-230.98C547.15,-222.57 572.64,-209.59 591.82,-199.81"/>
<polygon fill="#63b8ff" stroke="#63b8ff" points="593.6,-202.83 600.92,-195.17 590.42,-196.59 593.6,-202.83"/>
</a>
</g>
</g>
</g>
</svg>
