<?xml version="1.0" encoding="UTF-8" standalone="no"?>
<!DOCTYPE svg PUBLIC "-//W3C//DTD SVG 1.1//EN"
 "http://www.w3.org/Graphics/SVG/1.1/DTD/svg11.dtd">
<!-- Generated by graphviz version 2.43.0 (0)
 -->
<!-- Title: /home/runner/work/R&#45;Type/R&#45;Type/Shared/systems/Collision/Collision.hpp Pages: 1 -->
<svg width="1006pt" height="280pt"
 viewBox="0.00 0.00 1006.00 280.00" xmlns="http://www.w3.org/2000/svg" xmlns:xlink="http://www.w3.org/1999/xlink">
<g id="graph0" class="graph" transform="scale(1 1) rotate(0) translate(4 276)">
<title>/home/runner/work/R&#45;Type/R&#45;Type/Shared/systems/Collision/Collision.hpp</title>
<!-- Node1 -->
<g id="Node000001" class="node">
<title>Node1</title>
<g id="a_Node000001"><a xlink:title=" ">
<polygon fill="#999999" stroke="#666666" points="688,-272 516,-272 516,-231 688,-231 688,-272"/>
<text text-anchor="start" x="524" y="-260" font-family="Helvetica,sans-Serif" font-size="10.00">/home/runner/work/R</text>
<text text-anchor="start" x="524" y="-249" font-family="Helvetica,sans-Serif" font-size="10.00">&#45;Type/R&#45;Type/Shared</text>
<text text-anchor="middle" x="602" y="-238" font-family="Helvetica,sans-Serif" font-size="10.00">/systems/Collision/Collision.hpp</text>
</a>
</g>
</g>
<!-- Node2 -->
<g id="Node000002" class="node">
<title>Node2</title>
<g id="a_Node000002"><a xlink:href="CollisionController_8hpp.html" target="_top" xlink:title=" ">
<polygon fill="white" stroke="#666666" points="326,-140 186,-140 186,-110 326,-110 326,-140"/>
<text text-anchor="start" x="194" y="-128" font-family="Helvetica,sans-Serif" font-size="10.00">../../components/Collision</text>
<text text-anchor="middle" x="256" y="-117" font-family="Helvetica,sans-Serif" font-size="10.00">/CollisionController.hpp</text>
</a>
</g>
</g>
<!-- Node1&#45;&gt;Node2 -->
<g id="edge1_Node000001_Node000002" class="edge">
<title>Node1&#45;&gt;Node2</title>
<g id="a_edge1_Node000001_Node000002"><a xlink:title=" ">
<path fill="none" stroke="#63b8ff" d="M515.81,-237.69C469.61,-229.03 412.38,-215.39 364,-195 334.09,-182.39 303.19,-161.75 282.15,-146.32"/>
<polygon fill="#63b8ff" stroke="#63b8ff" points="284.15,-143.44 274.04,-140.27 279.96,-149.05 284.15,-143.44"/>
</a>
</g>
</g>
<!-- Node4 -->
<g id="Node000004" class="node">
<title>Node4</title>
<g id="a_Node000004"><a xlink:href="Items_8hpp.html" target="_top" xlink:title=" ">
<polygon fill="white" stroke="#666666" points="778,-195 668,-195 668,-176 778,-176 778,-195"/>
<text text-anchor="middle" x="723" y="-183" font-family="Helvetica,sans-Serif" font-size="10.00">Collision/Items.hpp</text>
</a>
</g>
</g>
<!-- Node1&#45;&gt;Node4 -->
<g id="edge3_Node000001_Node000004" class="edge">
<title>Node1&#45;&gt;Node4</title>
<g id="a_edge3_Node000001_Node000004"><a xlink:title=" ">
<path fill="none" stroke="#63b8ff" d="M638.96,-230.95C657.9,-220.93 680.49,-208.99 697.47,-200"/>
<polygon fill="#63b8ff" stroke="#63b8ff" points="699.55,-202.86 706.76,-195.09 696.28,-196.67 699.55,-202.86"/>
</a>
</g>
</g>
<!-- Node5 -->
<g id="Node000005" class="node">
<title>Node5</title>
<g id="a_Node000005"><a xlink:href="Boss_8hpp.html" target="_top" xlink:title=" ">
<polygon fill="white" stroke="#666666" points="167.5,-134.5 72.5,-134.5 72.5,-115.5 167.5,-115.5 167.5,-134.5"/>
<text text-anchor="middle" x="120" y="-122.5" font-family="Helvetica,sans-Serif" font-size="10.00">Player/Boss.hpp</text>
</a>
</g>
</g>
<!-- Node1&#45;&gt;Node5 -->
<g id="edge4_Node000001_Node000005" class="edge">
<title>Node1&#45;&gt;Node5</title>
<g id="a_edge4_Node000001_Node000005"><a xlink:title=" ">
<path fill="none" stroke="#63b8ff" d="M515.89,-236.04C461.12,-226.14 388.92,-211.79 326,-195 263.51,-178.32 192.32,-153.03 152.11,-138.15"/>
<polygon fill="#63b8ff" stroke="#63b8ff" points="153.17,-134.81 142.58,-134.6 150.73,-141.37 153.17,-134.81"/>
</a>
</g>
</g>
<!-- Node6 -->
<g id="Node000006" class="node">
<title>Node6</title>
<g id="a_Node000006"><a xlink:title=" ">
<polygon fill="#e0e0e0" stroke="#999999" points="418,-19 290,-19 290,0 418,0 418,-19"/>
<text text-anchor="middle" x="354" y="-7" font-family="Helvetica,sans-Serif" font-size="10.00">physics/Physics2D.hpp</text>
</a>
</g>
</g>
<!-- Node1&#45;&gt;Node6 -->
<g id="edge17_Node000001_Node000006" class="edge">
<title>Node1&#45;&gt;Node6</title>
<g id="a_edge17_Node000001_Node000006"><a xlink:title=" ">
<path fill="none" stroke="#63b8ff" d="M610.05,-230.83C613.89,-220.38 618.07,-207.21 620,-195 630.3,-129.89 624.79,-93.11 571,-55 548.26,-38.89 481.73,-26.76 428.28,-19.27"/>
<polygon fill="#63b8ff" stroke="#63b8ff" points="428.5,-15.77 418.12,-17.88 427.55,-22.7 428.5,-15.77"/>
</a>
</g>
</g>
<!-- Node7 -->
<g id="Node000007" class="node">
<title>Node7</title>
<g id="a_Node000007"><a xlink:href="Enemy_8hpp.html" target="_top" xlink:title=" ">
<polygon fill="white" stroke="#666666" points="104,-74 0,-74 0,-55 104,-55 104,-74"/>
<text text-anchor="middle" x="52" y="-62" font-family="Helvetica,sans-Serif" font-size="10.00">Player/Enemy.hpp</text>
</a>
</g>
</g>
<!-- Node1&#45;&gt;Node7 -->
<g id="edge7_Node000001_Node000007" class="edge">
<title>Node1&#45;&gt;Node7</title>
<g id="a_edge7_Node000001_Node000007"><a xlink:title=" ">
<path fill="none" stroke="#63b8ff" d="M515.76,-245.14C378.97,-234.7 121.67,-206.55 63,-140 49.65,-124.86 48.4,-100.89 49.51,-84.24"/>
<polygon fill="#63b8ff" stroke="#63b8ff" points="53.02,-84.39 50.54,-74.09 46.05,-83.68 53.02,-84.39"/>
</a>
</g>
</g>
<!-- Node8 -->
<g id="Node000008" class="node">
<title>Node8</title>
<g id="a_Node000008"><a xlink:href="PlayerEntity_8hpp.html" target="_top" xlink:title=" ">
<polygon fill="white" stroke="#666666" points="501.5,-195 372.5,-195 372.5,-176 501.5,-176 501.5,-195"/>
<text text-anchor="middle" x="437" y="-183" font-family="Helvetica,sans-Serif" font-size="10.00">Player/PlayerEntity.hpp</text>
</a>
</g>
</g>
<!-- Node1&#45;&gt;Node8 -->
<g id="edge9_Node000001_Node000008" class="edge">
<title>Node1&#45;&gt;Node8</title>
<g id="a_edge9_Node000001_Node000008"><a xlink:title=" ">
<path fill="none" stroke="#63b8ff" d="M551.6,-230.95C524.56,-220.46 492.08,-207.87 468.61,-198.76"/>
<polygon fill="#63b8ff" stroke="#63b8ff" points="469.74,-195.45 459.15,-195.09 467.21,-201.97 469.74,-195.45"/>
</a>
</g>
</g>
<!-- Node11 -->
<g id="Node000011" class="node">
<title>Node11</title>
<g id="a_Node000011"><a xlink:href="Projectile_8hpp.html" target="_top" xlink:title=" ">
<polygon fill="white" stroke="#666666" points="562,-74 382,-74 382,-55 562,-55 562,-74"/>
<text text-anchor="middle" x="472" y="-62" font-family="Helvetica,sans-Serif" font-size="10.00">components/Player/Projectile.hpp</text>
</a>
</g>
</g>
<!-- Node1&#45;&gt;Node11 -->
<g id="edge16_Node000001_Node000011" class="edge">
<title>Node1&#45;&gt;Node11</title>
<g id="a_edge16_Node000001_Node000011"><a xlink:title=" ">
<path fill="none" stroke="#63b8ff" d="M605.06,-230.93C608.52,-201.44 610.54,-145.34 583,-110 570.5,-93.96 551.32,-83.68 532.39,-77.1"/>
<polygon fill="#63b8ff" stroke="#63b8ff" points="533.45,-73.76 522.86,-74.07 531.33,-80.43 533.45,-73.76"/>
</a>
</g>
</g>
<!-- Node12 -->
<g id="Node000012" class="node">
<title>Node12</title>
<g id="a_Node000012"><a xlink:title=" ">
<polygon fill="#e0e0e0" stroke="#999999" points="892,-195 796,-195 796,-176 892,-176 892,-195"/>
<text text-anchor="middle" x="844" y="-183" font-family="Helvetica,sans-Serif" font-size="10.00">ecs/Registry.hpp</text>
</a>
</g>
</g>
<!-- Node1&#45;&gt;Node12 -->
<g id="edge18_Node000001_Node000012" class="edge">
<title>Node1&#45;&gt;Node12</title>
<g id="a_edge18_Node000001_Node000012"><a xlink:title=" ">
<path fill="none" stroke="#63b8ff" d="M675.92,-230.95C717.29,-220.01 767.36,-206.77 802.03,-197.6"/>
<polygon fill="#63b8ff" stroke="#63b8ff" points="803.06,-200.95 811.83,-195.01 801.27,-194.18 803.06,-200.95"/>
</a>
</g>
</g>
<!-- Node13 -->
<g id="Node000013" class="node">
<title>Node13</title>
<g id="a_Node000013"><a xlink:title=" ">
<polygon fill="#e0e0e0" stroke="#999999" points="998,-195 910,-195 910,-176 998,-176 998,-195"/>
<text text-anchor="middle" x="954" y="-183" font-family="Helvetica,sans-Serif" font-size="10.00">ecs/Zipper.hpp</text>
</a>
</g>
</g>
<!-- Node1&#45;&gt;Node13 -->
<g id="edge19_Node000001_Node000013" class="edge">
<title>Node1&#45;&gt;Node13</title>
<g id="a_edge19_Node000001_Node000013"><a xlink:title=" ">
<path fill="none" stroke="#63b8ff" d="M688.11,-234.84C754.02,-222.86 842.93,-206.69 899.37,-196.43"/>
<polygon fill="#63b8ff" stroke="#63b8ff" points="900.31,-199.82 909.52,-194.59 899.05,-192.93 900.31,-199.82"/>
</a>
</g>
</g>
<!-- Node3 -->
<g id="Node000003" class="node">
<title>Node3</title>
<g id="a_Node000003"><a xlink:title=" ">
<polygon fill="#e0e0e0" stroke="#999999" points="290,-74 206,-74 206,-55 290,-55 290,-74"/>
<text text-anchor="middle" x="248" y="-62" font-family="Helvetica,sans-Serif" font-size="10.00">ecs/Entity.hpp</text>
</a>
</g>
</g>
<!-- Node2&#45;&gt;Node3 -->
<g id="edge2_Node000002_Node000003" class="edge">
<title>Node2&#45;&gt;Node3</title>
<g id="a_edge2_Node000002_Node000003"><a xlink:title=" ">
<path fill="none" stroke="#63b8ff" d="M254.06,-109.84C253.02,-102.21 251.72,-92.7 250.59,-84.45"/>
<polygon fill="#63b8ff" stroke="#63b8ff" points="254.02,-83.7 249.2,-74.27 247.09,-84.65 254.02,-83.7"/>
</a>
</g>
</g>
<!-- Node5&#45;&gt;Node3 -->
<g id="edge6_Node000005_Node000003" class="edge">
<title>Node5&#45;&gt;Node3</title>
<g id="a_edge6_Node000005_Node000003"><a xlink:title=" ">
<path fill="none" stroke="#63b8ff" d="M138.61,-115.49C160.04,-105.7 195.44,-89.52 220.15,-78.23"/>
<polygon fill="#63b8ff" stroke="#63b8ff" points="221.72,-81.36 229.37,-74.02 218.82,-74.99 221.72,-81.36"/>
</a>
</g>
</g>
<!-- Node5&#45;&gt;Node6 -->
<g id="edge5_Node000005_Node000006" class="edge">
<title>Node5&#45;&gt;Node6</title>
<g id="a_edge5_Node000005_Node000006"><a xlink:title=" ">
<path fill="none" stroke="#63b8ff" d="M127.16,-115.43C139.77,-100.86 167.44,-71.28 197,-55 226.43,-38.79 262.29,-28.05 292.3,-21.19"/>
<polygon fill="#63b8ff" stroke="#63b8ff" points="293.22,-24.57 302.23,-19.01 291.72,-17.73 293.22,-24.57"/>
</a>
</g>
</g>
<!-- Node7&#45;&gt;Node6 -->
<g id="edge8_Node000007_Node000006" class="edge">
<title>Node7&#45;&gt;Node6</title>
<g id="a_edge8_Node000007_Node000006"><a xlink:title=" ">
<path fill="none" stroke="#63b8ff" d="M100.52,-54.98C153.61,-45.67 238.69,-30.74 295.44,-20.78"/>
<polygon fill="#63b8ff" stroke="#63b8ff" points="296.1,-24.21 305.35,-19.04 294.89,-17.32 296.1,-24.21"/>
</a>
</g>
</g>
<!-- Node8&#45;&gt;Node2 -->
<g id="edge11_Node000008_Node000002" class="edge">
<title>Node8&#45;&gt;Node2</title>
<g id="a_edge11_Node000008_Node000002"><a xlink:title=" ">
<path fill="none" stroke="#63b8ff" d="M410.68,-175.99C384.18,-167.43 342.54,-153.97 309.14,-143.18"/>
<polygon fill="#63b8ff" stroke="#63b8ff" points="310.11,-139.81 299.52,-140.06 307.95,-146.47 310.11,-139.81"/>
</a>
</g>
</g>
<!-- Node8&#45;&gt;Node6 -->
<g id="edge15_Node000008_Node000006" class="edge">
<title>Node8&#45;&gt;Node6</title>
<g id="a_edge15_Node000008_Node000006"><a xlink:title=" ">
<path fill="none" stroke="#63b8ff" d="M416.86,-175.91C402.23,-168.58 383.26,-156.57 373,-140 351.64,-105.5 350.83,-56.12 352.3,-29.4"/>
<polygon fill="#63b8ff" stroke="#63b8ff" points="355.81,-29.38 353.04,-19.16 348.83,-28.88 355.81,-29.38"/>
</a>
</g>
</g>
<!-- Node9 -->
<g id="Node000009" class="node">
<title>Node9</title>
<g id="a_Node000009"><a xlink:title=" ">
<polygon fill="#e0e0e0" stroke="#999999" points="574,-134.5 510,-134.5 510,-115.5 574,-115.5 574,-134.5"/>
<text text-anchor="middle" x="542" y="-122.5" font-family="Helvetica,sans-Serif" font-size="10.00">algorithm</text>
</a>
</g>
</g>
<!-- Node8&#45;&gt;Node9 -->
<g id="edge10_Node000008_Node000009" class="edge">
<title>Node8&#45;&gt;Node9</title>
<g id="a_edge10_Node000008_Node000009"><a xlink:title=" ">
<path fill="none" stroke="#63b8ff" d="M452.49,-175.87C469.63,-166.32 497.47,-150.81 517.56,-139.62"/>
<polygon fill="#63b8ff" stroke="#63b8ff" points="519.41,-142.59 526.44,-134.67 516,-136.48 519.41,-142.59"/>
</a>
</g>
</g>
<!-- Node10 -->
<g id="Node000010" class="node">
<title>Node10</title>
<g id="a_Node000010"><a xlink:href="Weapon_8hpp.html" target="_top" xlink:title=" ">
<polygon fill="white" stroke="#666666" points="492,-134.5 382,-134.5 382,-115.5 492,-115.5 492,-134.5"/>
<text text-anchor="middle" x="437" y="-122.5" font-family="Helvetica,sans-Serif" font-size="10.00">Player/Weapon.hpp</text>
</a>
</g>
</g>
<!-- Node8&#45;&gt;Node10 -->
<g id="edge12_Node000008_Node000010" class="edge">
<title>Node8&#45;&gt;Node10</title>
<g id="a_edge12_Node000008_Node000010"><a xlink:title=" ">
<path fill="none" stroke="#63b8ff" d="M437,-175.87C437,-167.75 437,-155.31 437,-144.89"/>
<polygon fill="#63b8ff" stroke="#63b8ff" points="440.5,-144.67 437,-134.67 433.5,-144.67 440.5,-144.67"/>
</a>
</g>
</g>
<!-- Node10&#45;&gt;Node11 -->
<g id="edge13_Node000010_Node000011" class="edge">
<title>Node10&#45;&gt;Node11</title>
<g id="a_edge13_Node000010_Node000011"><a xlink:title=" ">
<path fill="none" stroke="#63b8ff" d="M442.16,-115.37C447.23,-106.9 455.1,-93.74 461.49,-83.07"/>
<polygon fill="#63b8ff" stroke="#63b8ff" points="464.68,-84.55 466.81,-74.17 458.68,-80.95 464.68,-84.55"/>
</a>
</g>
</g>
<!-- Node11&#45;&gt;Node6 -->
<g id="edge14_Node000011_Node000006" class="edge">
<title>Node11&#45;&gt;Node6</title>
<g id="a_edge14_Node000011_Node000006"><a xlink:title=" ">
<path fill="none" stroke="#63b8ff" d="M453.04,-54.98C433.97,-46.42 404.34,-33.11 382.45,-23.28"/>
<polygon fill="#63b8ff" stroke="#63b8ff" points="383.86,-20.07 373.3,-19.17 380.99,-26.46 383.86,-20.07"/>
</a>
</g>
</g>
</g>
</svg>
