<?xml version="1.0" encoding="UTF-8" standalone="no"?>
<!DOCTYPE svg PUBLIC "-//W3C//DTD SVG 1.1//EN"
 "http://www.w3.org/Graphics/SVG/1.1/DTD/svg11.dtd">
<!-- Generated by graphviz version 2.43.0 (0)
 -->
<!-- Title: /home/runner/work/R&#45;Type/R&#45;Type/Shared/systems/Collision/Collision.hpp Pages: 1 -->
<svg width="1475pt" height="335pt"
 viewBox="0.00 0.00 1474.59 335.00" xmlns="http://www.w3.org/2000/svg" xmlns:xlink="http://www.w3.org/1999/xlink">
<g id="graph0" class="graph" transform="scale(1 1) rotate(0) translate(4 331)">
<title>/home/runner/work/R&#45;Type/R&#45;Type/Shared/systems/Collision/Collision.hpp</title>
<!-- Node1 -->
<g id="Node000001" class="node">
<title>Node1</title>
<g id="a_Node000001"><a xlink:title=" ">
<polygon fill="#999999" stroke="#666666" points="448.09,-327 276.09,-327 276.09,-286 448.09,-286 448.09,-327"/>
<text text-anchor="start" x="284.09" y="-315" font-family="Helvetica,sans-Serif" font-size="10.00">/home/runner/work/R</text>
<text text-anchor="start" x="284.09" y="-304" font-family="Helvetica,sans-Serif" font-size="10.00">&#45;Type/R&#45;Type/Shared</text>
<text text-anchor="middle" x="362.09" y="-293" font-family="Helvetica,sans-Serif" font-size="10.00">/systems/Collision/Collision.hpp</text>
</a>
</g>
</g>
<!-- Node2 -->
<g id="Node000002" class="node">
<title>Node2</title>
<g id="a_Node000002"><a xlink:href="CollisionController_8hpp.html" target="_top" xlink:title=" ">
<polygon fill="white" stroke="#666666" points="525.09,-195 385.09,-195 385.09,-165 525.09,-165 525.09,-195"/>
<text text-anchor="start" x="393.09" y="-183" font-family="Helvetica,sans-Serif" font-size="10.00">../../components/Collision</text>
<text text-anchor="middle" x="455.09" y="-172" font-family="Helvetica,sans-Serif" font-size="10.00">/CollisionController.hpp</text>
</a>
</g>
</g>
<!-- Node1&#45;&gt;Node2 -->
<g id="edge1_Node000001_Node000002" class="edge">
<title>Node1&#45;&gt;Node2</title>
<g id="a_edge1_Node000001_Node000002"><a xlink:title=" ">
<path fill="none" stroke="#63b8ff" d="M396.95,-285.77C410.58,-276.49 425.27,-264.31 435.09,-250 444.26,-236.64 449.27,-219.08 451.99,-205.01"/>
<polygon fill="#63b8ff" stroke="#63b8ff" points="455.45,-205.51 453.65,-195.07 448.55,-204.35 455.45,-205.51"/>
</a>
</g>
</g>
<!-- Node5 -->
<g id="Node000005" class="node">
<title>Node5</title>
<g id="a_Node000005"><a xlink:href="Items_8hpp.html" target="_top" xlink:title=" ">
<polygon fill="white" stroke="#666666" points="1132.09,-250 1022.09,-250 1022.09,-231 1132.09,-231 1132.09,-250"/>
<text text-anchor="middle" x="1077.09" y="-238" font-family="Helvetica,sans-Serif" font-size="10.00">Collision/Items.hpp</text>
</a>
</g>
</g>
<!-- Node1&#45;&gt;Node5 -->
<g id="edge4_Node000001_Node000005" class="edge">
<title>Node1&#45;&gt;Node5</title>
<g id="a_edge4_Node000001_Node000005"><a xlink:title=" ">
<path fill="none" stroke="#63b8ff" d="M448.31,-299.45C571.05,-290.54 803.46,-272.6 1011.74,-250.1"/>
<polygon fill="#63b8ff" stroke="#63b8ff" points="1012.39,-253.55 1021.95,-248.99 1011.64,-246.59 1012.39,-253.55"/>
</a>
</g>
</g>
<!-- Node6 -->
<g id="Node000006" class="node">
<title>Node6</title>
<g id="a_Node000006"><a xlink:href="Boss_8hpp.html" target="_top" xlink:title=" ">
<polygon fill="white" stroke="#666666" points="118.59,-250 23.59,-250 23.59,-231 118.59,-231 118.59,-250"/>
<text text-anchor="middle" x="71.09" y="-238" font-family="Helvetica,sans-Serif" font-size="10.00">Player/Boss.hpp</text>
</a>
</g>
</g>
<!-- Node1&#45;&gt;Node6 -->
<g id="edge5_Node000001_Node000006" class="edge">
<title>Node1&#45;&gt;Node6</title>
<g id="a_edge5_Node000001_Node000006"><a xlink:title=" ">
<path fill="none" stroke="#63b8ff" d="M275.96,-286.56C224.92,-275.33 162.1,-261.52 119.59,-252.17"/>
<polygon fill="#63b8ff" stroke="#63b8ff" points="120.29,-248.74 109.77,-250.01 118.78,-255.57 120.29,-248.74"/>
</a>
</g>
</g>
<!-- Node7 -->
<g id="Node000007" class="node">
<title>Node7</title>
<g id="a_Node000007"><a xlink:href="Physics2D_8hpp.html" target="_top" xlink:title=" ">
<polygon fill="white" stroke="#666666" points="163.59,-74 66.59,-74 66.59,-55 163.59,-55 163.59,-74"/>
<text text-anchor="middle" x="115.09" y="-62" font-family="Helvetica,sans-Serif" font-size="10.00">../Physics2D.hpp</text>
</a>
</g>
</g>
<!-- Node1&#45;&gt;Node7 -->
<g id="edge19_Node000001_Node000007" class="edge">
<title>Node1&#45;&gt;Node7</title>
<g id="a_edge19_Node000001_Node000007"><a xlink:title=" ">
<path fill="none" stroke="#63b8ff" d="M275.94,-304.08C184,-300.53 47.1,-288.69 14.09,-250 -33.15,-194.63 54.4,-113.63 95.49,-80.48"/>
<polygon fill="#63b8ff" stroke="#63b8ff" points="97.81,-83.11 103.48,-74.16 93.47,-77.62 97.81,-83.11"/>
</a>
</g>
</g>
<!-- Node10 -->
<g id="Node000010" class="node">
<title>Node10</title>
<g id="a_Node000010"><a xlink:href="Enemy_8hpp.html" target="_top" xlink:title=" ">
<polygon fill="white" stroke="#666666" points="241.09,-250 137.09,-250 137.09,-231 241.09,-231 241.09,-250"/>
<text text-anchor="middle" x="189.09" y="-238" font-family="Helvetica,sans-Serif" font-size="10.00">Player/Enemy.hpp</text>
</a>
</g>
</g>
<!-- Node1&#45;&gt;Node10 -->
<g id="edge9_Node000001_Node000010" class="edge">
<title>Node1&#45;&gt;Node10</title>
<g id="a_edge9_Node000001_Node000010"><a xlink:title=" ">
<path fill="none" stroke="#63b8ff" d="M309.25,-285.95C280.78,-275.42 246.54,-262.75 221.91,-253.64"/>
<polygon fill="#63b8ff" stroke="#63b8ff" points="222.91,-250.28 212.32,-250.09 220.48,-256.84 222.91,-250.28"/>
</a>
</g>
</g>
<!-- Node11 -->
<g id="Node000011" class="node">
<title>Node11</title>
<g id="a_Node000011"><a xlink:href="PlayerEntity_8hpp.html" target="_top" xlink:title=" ">
<polygon fill="white" stroke="#666666" points="426.59,-250 297.59,-250 297.59,-231 426.59,-231 426.59,-250"/>
<text text-anchor="middle" x="362.09" y="-238" font-family="Helvetica,sans-Serif" font-size="10.00">Player/PlayerEntity.hpp</text>
</a>
</g>
</g>
<!-- Node1&#45;&gt;Node11 -->
<g id="edge11_Node000001_Node000011" class="edge">
<title>Node1&#45;&gt;Node11</title>
<g id="a_edge11_Node000001_Node000011"><a xlink:title=" ">
<path fill="none" stroke="#63b8ff" d="M362.09,-285.95C362.09,-277.85 362.09,-268.5 362.09,-260.47"/>
<polygon fill="#63b8ff" stroke="#63b8ff" points="365.59,-260.26 362.09,-250.26 358.59,-260.26 365.59,-260.26"/>
</a>
</g>
</g>
<!-- Node14 -->
<g id="Node000014" class="node">
<title>Node14</title>
<g id="a_Node000014"><a xlink:href="Projectile_8hpp.html" target="_top" xlink:title=" ">
<polygon fill="white" stroke="#666666" points="323.09,-129 143.09,-129 143.09,-110 323.09,-110 323.09,-129"/>
<text text-anchor="middle" x="233.09" y="-117" font-family="Helvetica,sans-Serif" font-size="10.00">components/Player/Projectile.hpp</text>
</a>
</g>
</g>
<!-- Node1&#45;&gt;Node14 -->
<g id="edge18_Node000001_Node000014" class="edge">
<title>Node1&#45;&gt;Node14</title>
<g id="a_edge18_Node000001_Node000014"><a xlink:title=" ">
<path fill="none" stroke="#63b8ff" d="M332.32,-285.99C290,-257.95 216.79,-208.15 210.09,-195 200.63,-176.42 210.88,-153.23 220.55,-137.7"/>
<polygon fill="#63b8ff" stroke="#63b8ff" points="223.63,-139.38 226.31,-129.13 217.83,-135.48 223.63,-139.38"/>
</a>
</g>
</g>
<!-- Node15 -->
<g id="Node000015" class="node">
<title>Node15</title>
<g id="a_Node000015"><a xlink:href="Registry_8hpp.html" target="_top" xlink:title=" ">
<polygon fill="white" stroke="#666666" points="1004.09,-250 908.09,-250 908.09,-231 1004.09,-231 1004.09,-250"/>
<text text-anchor="middle" x="956.09" y="-238" font-family="Helvetica,sans-Serif" font-size="10.00">ecs/Registry.hpp</text>
</a>
</g>
</g>
<!-- Node1&#45;&gt;Node15 -->
<g id="edge20_Node000001_Node000015" class="edge">
<title>Node1&#45;&gt;Node15</title>
<g id="a_edge20_Node000001_Node000015"><a xlink:title=" ">
<path fill="none" stroke="#63b8ff" d="M448.15,-296.23C570.75,-283.02 792.46,-259.13 897.66,-247.8"/>
<polygon fill="#63b8ff" stroke="#63b8ff" points="898.21,-251.26 907.78,-246.71 897.46,-244.3 898.21,-251.26"/>
</a>
</g>
</g>
<!-- Node27 -->
<g id="Node000027" class="node">
<title>Node27</title>
<g id="a_Node000027"><a xlink:href="Zipper_8hpp.html" target="_top" xlink:title=" ">
<polygon fill="white" stroke="#666666" points="657.09,-250 569.09,-250 569.09,-231 657.09,-231 657.09,-250"/>
<text text-anchor="middle" x="613.09" y="-238" font-family="Helvetica,sans-Serif" font-size="10.00">ecs/Zipper.hpp</text>
</a>
</g>
</g>
<!-- Node1&#45;&gt;Node27 -->
<g id="edge36_Node000001_Node000027" class="edge">
<title>Node1&#45;&gt;Node27</title>
<g id="a_edge36_Node000001_Node000027"><a xlink:title=" ">
<path fill="none" stroke="#63b8ff" d="M438.76,-285.95C481.86,-274.96 534.05,-261.65 570.03,-252.48"/>
<polygon fill="#63b8ff" stroke="#63b8ff" points="570.9,-255.87 579.73,-250.01 569.17,-249.09 570.9,-255.87"/>
</a>
</g>
</g>
<!-- Node3 -->
<g id="Node000003" class="node">
<title>Node3</title>
<g id="a_Node000003"><a xlink:href="Entity_8hpp.html" target="_top" xlink:title=" ">
<polygon fill="white" stroke="#666666" points="687.09,-129 585.09,-129 585.09,-110 687.09,-110 687.09,-129"/>
<text text-anchor="middle" x="636.09" y="-117" font-family="Helvetica,sans-Serif" font-size="10.00">../../ecs/Entity.hpp</text>
</a>
</g>
</g>
<!-- Node2&#45;&gt;Node3 -->
<g id="edge2_Node000002_Node000003" class="edge">
<title>Node2&#45;&gt;Node3</title>
<g id="a_edge2_Node000002_Node000003"><a xlink:title=" ">
<path fill="none" stroke="#63b8ff" d="M498.45,-164.99C529.41,-154.98 570.6,-141.67 599.82,-132.22"/>
<polygon fill="#63b8ff" stroke="#63b8ff" points="601.19,-135.46 609.63,-129.05 599.04,-128.8 601.19,-135.46"/>
</a>
</g>
</g>
<!-- Node4 -->
<g id="Node000004" class="node">
<title>Node4</title>
<g id="a_Node000004"><a xlink:title=" ">
<polygon fill="#e0e0e0" stroke="#999999" points="662.59,-74 609.59,-74 609.59,-55 662.59,-55 662.59,-74"/>
<text text-anchor="middle" x="636.09" y="-62" font-family="Helvetica,sans-Serif" font-size="10.00">cstddef</text>
</a>
</g>
</g>
<!-- Node3&#45;&gt;Node4 -->
<g id="edge3_Node000003_Node000004" class="edge">
<title>Node3&#45;&gt;Node4</title>
<g id="a_edge3_Node000003_Node000004"><a xlink:title=" ">
<path fill="none" stroke="#63b8ff" d="M636.09,-109.75C636.09,-102.8 636.09,-92.85 636.09,-84.13"/>
<polygon fill="#63b8ff" stroke="#63b8ff" points="639.59,-84.09 636.09,-74.09 632.59,-84.09 639.59,-84.09"/>
</a>
</g>
</g>
<!-- Node6&#45;&gt;Node7 -->
<g id="edge6_Node000006_Node000007" class="edge">
<title>Node6&#45;&gt;Node7</title>
<g id="a_edge6_Node000006_Node000007"><a xlink:title=" ">
<path fill="none" stroke="#63b8ff" d="M72.83,-230.96C77.13,-210.14 88.77,-155.2 101.09,-110 103.44,-101.4 106.35,-91.98 108.91,-84.03"/>
<polygon fill="#63b8ff" stroke="#63b8ff" points="112.31,-84.9 112.1,-74.31 105.66,-82.72 112.31,-84.9"/>
</a>
</g>
</g>
<!-- Node8 -->
<g id="Node000008" class="node">
<title>Node8</title>
<g id="a_Node000008"><a xlink:title=" ">
<polygon fill="#e0e0e0" stroke="#999999" points="112.09,-19 40.09,-19 40.09,0 112.09,0 112.09,-19"/>
<text text-anchor="middle" x="76.09" y="-7" font-family="Helvetica,sans-Serif" font-size="10.00">SDL2/SDL.h</text>
</a>
</g>
</g>
<!-- Node7&#45;&gt;Node8 -->
<g id="edge7_Node000007_Node000008" class="edge">
<title>Node7&#45;&gt;Node8</title>
<g id="a_edge7_Node000007_Node000008"><a xlink:title=" ">
<path fill="none" stroke="#63b8ff" d="M108.65,-54.75C103.2,-47.34 95.23,-36.5 88.54,-27.41"/>
<polygon fill="#63b8ff" stroke="#63b8ff" points="91.16,-25.07 82.41,-19.09 85.52,-29.22 91.16,-25.07"/>
</a>
</g>
</g>
<!-- Node9 -->
<g id="Node000009" class="node">
<title>Node9</title>
<g id="a_Node000009"><a xlink:title=" ">
<polygon fill="#e0e0e0" stroke="#999999" points="177.59,-19 130.59,-19 130.59,0 177.59,0 177.59,-19"/>
<text text-anchor="middle" x="154.09" y="-7" font-family="Helvetica,sans-Serif" font-size="10.00">cmath</text>
</a>
</g>
</g>
<!-- Node7&#45;&gt;Node9 -->
<g id="edge8_Node000007_Node000009" class="edge">
<title>Node7&#45;&gt;Node9</title>
<g id="a_edge8_Node000007_Node000009"><a xlink:title=" ">
<path fill="none" stroke="#63b8ff" d="M121.53,-54.75C126.98,-47.34 134.96,-36.5 141.65,-27.41"/>
<polygon fill="#63b8ff" stroke="#63b8ff" points="144.66,-29.22 147.77,-19.09 139.03,-25.07 144.66,-29.22"/>
</a>
</g>
</g>
<!-- Node10&#45;&gt;Node7 -->
<g id="edge10_Node000010_Node000007" class="edge">
<title>Node10&#45;&gt;Node7</title>
<g id="a_edge10_Node000010_Node000007"><a xlink:title=" ">
<path fill="none" stroke="#63b8ff" d="M184.15,-230.85C173.81,-212.53 149.61,-168.26 134.09,-129 128.27,-114.27 123.22,-97.01 119.79,-84.21"/>
<polygon fill="#63b8ff" stroke="#63b8ff" points="123.11,-83.09 117.21,-74.29 116.33,-84.85 123.11,-83.09"/>
</a>
</g>
</g>
<!-- Node11&#45;&gt;Node2 -->
<g id="edge13_Node000011_Node000002" class="edge">
<title>Node11&#45;&gt;Node2</title>
<g id="a_edge13_Node000011_Node000002"><a xlink:title=" ">
<path fill="none" stroke="#63b8ff" d="M375.82,-230.87C388.43,-222.93 407.61,-210.87 423.93,-200.6"/>
<polygon fill="#63b8ff" stroke="#63b8ff" points="426.05,-203.4 432.65,-195.11 422.33,-197.48 426.05,-203.4"/>
</a>
</g>
</g>
<!-- Node11&#45;&gt;Node7 -->
<g id="edge17_Node000011_Node000007" class="edge">
<title>Node11&#45;&gt;Node7</title>
<g id="a_edge17_Node000011_Node000007"><a xlink:title=" ">
<path fill="none" stroke="#63b8ff" d="M362.98,-230.75C364.8,-207.44 366.3,-143.35 332.09,-110 309.99,-88.45 230.3,-76.43 173.92,-70.46"/>
<polygon fill="#63b8ff" stroke="#63b8ff" points="173.99,-66.95 163.68,-69.42 173.28,-73.91 173.99,-66.95"/>
</a>
</g>
</g>
<!-- Node12 -->
<g id="Node000012" class="node">
<title>Node12</title>
<g id="a_Node000012"><a xlink:title=" ">
<polygon fill="#e0e0e0" stroke="#999999" points="705.09,-189.5 641.09,-189.5 641.09,-170.5 705.09,-170.5 705.09,-189.5"/>
<text text-anchor="middle" x="673.09" y="-177.5" font-family="Helvetica,sans-Serif" font-size="10.00">algorithm</text>
</a>
</g>
</g>
<!-- Node11&#45;&gt;Node12 -->
<g id="edge12_Node000011_Node000012" class="edge">
<title>Node11&#45;&gt;Node12</title>
<g id="a_edge12_Node000011_Node000012"><a xlink:title=" ">
<path fill="none" stroke="#63b8ff" d="M407.31,-230.99C467.23,-219.72 572.15,-199.99 630.64,-188.99"/>
<polygon fill="#63b8ff" stroke="#63b8ff" points="631.47,-192.39 640.65,-187.1 630.18,-185.51 631.47,-192.39"/>
</a>
</g>
</g>
<!-- Node13 -->
<g id="Node000013" class="node">
<title>Node13</title>
<g id="a_Node000013"><a xlink:href="Weapon_8hpp.html" target="_top" xlink:title=" ">
<polygon fill="white" stroke="#666666" points="329.09,-189.5 219.09,-189.5 219.09,-170.5 329.09,-170.5 329.09,-189.5"/>
<text text-anchor="middle" x="274.09" y="-177.5" font-family="Helvetica,sans-Serif" font-size="10.00">Player/Weapon.hpp</text>
</a>
</g>
</g>
<!-- Node11&#45;&gt;Node13 -->
<g id="edge14_Node000011_Node000013" class="edge">
<title>Node11&#45;&gt;Node13</title>
<g id="a_edge14_Node000011_Node000013"><a xlink:title=" ">
<path fill="none" stroke="#63b8ff" d="M349.11,-230.87C335.07,-221.54 312.46,-206.51 295.73,-195.38"/>
<polygon fill="#63b8ff" stroke="#63b8ff" points="297.4,-192.29 287.13,-189.67 293.52,-198.12 297.4,-192.29"/>
</a>
</g>
</g>
<!-- Node13&#45;&gt;Node14 -->
<g id="edge15_Node000013_Node000014" class="edge">
<title>Node13&#45;&gt;Node14</title>
<g id="a_edge15_Node000013_Node000014"><a xlink:title=" ">
<path fill="none" stroke="#63b8ff" d="M268.04,-170.37C261.99,-161.73 252.51,-148.2 244.95,-137.42"/>
<polygon fill="#63b8ff" stroke="#63b8ff" points="247.77,-135.35 239.17,-129.17 242.04,-139.37 247.77,-135.35"/>
</a>
</g>
</g>
<!-- Node14&#45;&gt;Node7 -->
<g id="edge16_Node000014_Node000007" class="edge">
<title>Node14&#45;&gt;Node7</title>
<g id="a_edge16_Node000014_Node000007"><a xlink:title=" ">
<path fill="none" stroke="#63b8ff" d="M214.13,-109.98C195.07,-101.42 165.43,-88.11 143.55,-78.28"/>
<polygon fill="#63b8ff" stroke="#63b8ff" points="144.95,-75.07 134.4,-74.17 142.08,-81.46 144.95,-75.07"/>
</a>
</g>
</g>
<!-- Node15&#45;&gt;Node3 -->
<g id="edge30_Node000015_Node000003" class="edge">
<title>Node15&#45;&gt;Node3</title>
<g id="a_edge30_Node000015_Node000003"><a xlink:title=" ">
<path fill="none" stroke="#63b8ff" d="M925.4,-230.92C900.48,-223.31 864.87,-210.92 836.09,-195 816.96,-184.41 816.66,-174.76 797.09,-165 765.25,-149.12 726.94,-138.23 695.68,-131.21"/>
<polygon fill="#63b8ff" stroke="#63b8ff" points="696.31,-127.76 685.79,-129.06 694.82,-134.61 696.31,-127.76"/>
</a>
</g>
</g>
<!-- Node15&#45;&gt;Node12 -->
<g id="edge21_Node000015_Node000012" class="edge">
<title>Node15&#45;&gt;Node12</title>
<g id="a_edge21_Node000015_Node000012"><a xlink:title=" ">
<path fill="none" stroke="#63b8ff" d="M907.88,-232.77C858.71,-225.42 780.43,-212.32 714.09,-195 711.45,-194.31 708.74,-193.54 706.03,-192.71"/>
<polygon fill="#63b8ff" stroke="#63b8ff" points="706.92,-189.32 696.33,-189.6 704.78,-195.99 706.92,-189.32"/>
</a>
</g>
</g>
<!-- Node16 -->
<g id="Node000016" class="node">
<title>Node16</title>
<g id="a_Node000016"><a xlink:title=" ">
<polygon fill="#e0e0e0" stroke="#999999" points="1466.59,-189.5 1431.59,-189.5 1431.59,-170.5 1466.59,-170.5 1466.59,-189.5"/>
<text text-anchor="middle" x="1449.09" y="-177.5" font-family="Helvetica,sans-Serif" font-size="10.00">any</text>
</a>
</g>
</g>
<!-- Node15&#45;&gt;Node16 -->
<g id="edge22_Node000015_Node000016" class="edge">
<title>Node15&#45;&gt;Node16</title>
<g id="a_edge22_Node000015_Node000016"><a xlink:title=" ">
<path fill="none" stroke="#63b8ff" d="M1004.27,-232.11C1007.25,-231.71 1010.21,-231.34 1013.09,-231 1194.75,-209.5 1247.85,-247.44 1423.09,-195 1424.17,-194.68 1425.26,-194.31 1426.34,-193.9"/>
<polygon fill="#63b8ff" stroke="#63b8ff" points="1428.19,-196.9 1435.78,-189.5 1425.24,-190.55 1428.19,-196.9"/>
</a>
</g>
</g>
<!-- Node17 -->
<g id="Node000017" class="node">
<title>Node17</title>
<g id="a_Node000017"><a xlink:title=" ">
<polygon fill="#e0e0e0" stroke="#999999" points="788.59,-189.5 723.59,-189.5 723.59,-170.5 788.59,-170.5 788.59,-189.5"/>
<text text-anchor="middle" x="756.09" y="-177.5" font-family="Helvetica,sans-Serif" font-size="10.00">functional</text>
</a>
</g>
</g>
<!-- Node15&#45;&gt;Node17 -->
<g id="edge23_Node000015_Node000017" class="edge">
<title>Node15&#45;&gt;Node17</title>
<g id="a_edge23_Node000015_Node000017"><a xlink:title=" ">
<path fill="none" stroke="#63b8ff" d="M926.46,-230.94C895.63,-222.02 845.95,-207.62 803.09,-195 800.34,-194.19 797.49,-193.35 794.62,-192.5"/>
<polygon fill="#63b8ff" stroke="#63b8ff" points="795.5,-189.11 784.92,-189.62 793.51,-195.82 795.5,-189.11"/>
</a>
</g>
</g>
<!-- Node18 -->
<g id="Node000018" class="node">
<title>Node18</title>
<g id="a_Node000018"><a xlink:title=" ">
<polygon fill="#e0e0e0" stroke="#999999" points="905.09,-189.5 845.09,-189.5 845.09,-170.5 905.09,-170.5 905.09,-189.5"/>
<text text-anchor="middle" x="875.09" y="-177.5" font-family="Helvetica,sans-Serif" font-size="10.00">iostream</text>
</a>
</g>
</g>
<!-- Node15&#45;&gt;Node18 -->
<g id="edge24_Node000015_Node000018" class="edge">
<title>Node15&#45;&gt;Node18</title>
<g id="a_edge24_Node000015_Node000018"><a xlink:title=" ">
<path fill="none" stroke="#63b8ff" d="M944.14,-230.87C931.34,-221.62 910.79,-206.78 895.44,-195.69"/>
<polygon fill="#63b8ff" stroke="#63b8ff" points="897.25,-192.68 887.09,-189.67 893.15,-198.36 897.25,-192.68"/>
</a>
</g>
</g>
<!-- Node19 -->
<g id="Node000019" class="node">
<title>Node19</title>
<g id="a_Node000019"><a xlink:title=" ">
<polygon fill="#e0e0e0" stroke="#999999" points="988.59,-189.5 923.59,-189.5 923.59,-170.5 988.59,-170.5 988.59,-189.5"/>
<text text-anchor="middle" x="956.09" y="-177.5" font-family="Helvetica,sans-Serif" font-size="10.00">typeindex</text>
</a>
</g>
</g>
<!-- Node15&#45;&gt;Node19 -->
<g id="edge25_Node000015_Node000019" class="edge">
<title>Node15&#45;&gt;Node19</title>
<g id="a_edge25_Node000015_Node000019"><a xlink:title=" ">
<path fill="none" stroke="#63b8ff" d="M956.09,-230.87C956.09,-222.75 956.09,-210.31 956.09,-199.89"/>
<polygon fill="#63b8ff" stroke="#63b8ff" points="959.59,-199.67 956.09,-189.67 952.59,-199.67 959.59,-199.67"/>
</a>
</g>
</g>
<!-- Node20 -->
<g id="Node000020" class="node">
<title>Node20</title>
<g id="a_Node000020"><a xlink:title=" ">
<polygon fill="#e0e0e0" stroke="#999999" points="1099.59,-189.5 1006.59,-189.5 1006.59,-170.5 1099.59,-170.5 1099.59,-189.5"/>
<text text-anchor="middle" x="1053.09" y="-177.5" font-family="Helvetica,sans-Serif" font-size="10.00">unordered_map</text>
</a>
</g>
</g>
<!-- Node15&#45;&gt;Node20 -->
<g id="edge26_Node000015_Node000020" class="edge">
<title>Node15&#45;&gt;Node20</title>
<g id="a_edge26_Node000015_Node000020"><a xlink:title=" ">
<path fill="none" stroke="#63b8ff" d="M970.41,-230.87C986.09,-221.41 1011.49,-206.09 1030.01,-194.92"/>
<polygon fill="#63b8ff" stroke="#63b8ff" points="1031.97,-197.83 1038.72,-189.67 1028.35,-191.83 1031.97,-197.83"/>
</a>
</g>
</g>
<!-- Node21 -->
<g id="Node000021" class="node">
<title>Node21</title>
<g id="a_Node000021"><a xlink:title=" ">
<polygon fill="#e0e0e0" stroke="#999999" points="1204.09,-189.5 1118.09,-189.5 1118.09,-170.5 1204.09,-170.5 1204.09,-189.5"/>
<text text-anchor="middle" x="1161.09" y="-177.5" font-family="Helvetica,sans-Serif" font-size="10.00">unordered_set</text>
</a>
</g>
</g>
<!-- Node15&#45;&gt;Node21 -->
<g id="edge27_Node000015_Node000021" class="edge">
<title>Node15&#45;&gt;Node21</title>
<g id="a_edge27_Node000015_Node000021"><a xlink:title=" ">
<path fill="none" stroke="#63b8ff" d="M985.9,-230.99C1021.66,-220.79 1081.72,-203.65 1121.38,-192.33"/>
<polygon fill="#63b8ff" stroke="#63b8ff" points="1122.59,-195.63 1131.25,-189.52 1120.67,-188.9 1122.59,-195.63"/>
</a>
</g>
</g>
<!-- Node22 -->
<g id="Node000022" class="node">
<title>Node22</title>
<g id="a_Node000022"><a xlink:title=" ">
<polygon fill="#e0e0e0" stroke="#999999" points="1244.59,-129 1199.59,-129 1199.59,-110 1244.59,-110 1244.59,-129"/>
<text text-anchor="middle" x="1222.09" y="-117" font-family="Helvetica,sans-Serif" font-size="10.00">utility</text>
</a>
</g>
</g>
<!-- Node15&#45;&gt;Node22 -->
<g id="edge28_Node000015_Node000022" class="edge">
<title>Node15&#45;&gt;Node22</title>
<g id="a_edge28_Node000015_Node000022"><a xlink:title=" ">
<path fill="none" stroke="#63b8ff" d="M1004.2,-231.91C1077.59,-220.23 1209.5,-198.79 1213.09,-195 1226.95,-180.42 1227.36,-156.33 1225.51,-139.51"/>
<polygon fill="#63b8ff" stroke="#63b8ff" points="1228.92,-138.61 1224.01,-129.22 1221.99,-139.63 1228.92,-138.61"/>
</a>
</g>
</g>
<!-- Node23 -->
<g id="Node000023" class="node">
<title>Node23</title>
<g id="a_Node000023"><a xlink:title=" ">
<polygon fill="#e0e0e0" stroke="#999999" points="1309.59,-129 1262.59,-129 1262.59,-110 1309.59,-110 1309.59,-129"/>
<text text-anchor="middle" x="1286.09" y="-117" font-family="Helvetica,sans-Serif" font-size="10.00">vector</text>
</a>
</g>
</g>
<!-- Node15&#45;&gt;Node23 -->
<g id="edge29_Node000015_Node000023" class="edge">
<title>Node15&#45;&gt;Node23</title>
<g id="a_edge29_Node000015_Node000023"><a xlink:title=" ">
<path fill="none" stroke="#63b8ff" d="M1004.11,-232.3C1082.36,-220.5 1229.24,-198.04 1234.09,-195 1255.34,-181.68 1270.25,-156.16 1278.5,-138.74"/>
<polygon fill="#63b8ff" stroke="#63b8ff" points="1281.92,-139.68 1282.78,-129.12 1275.52,-136.84 1281.92,-139.68"/>
</a>
</g>
</g>
<!-- Node24 -->
<g id="Node000024" class="node">
<title>Node24</title>
<g id="a_Node000024"><a xlink:href="SparseArray_8hpp.html" target="_top" xlink:title=" ">
<polygon fill="white" stroke="#666666" points="1413.59,-189.5 1298.59,-189.5 1298.59,-170.5 1413.59,-170.5 1413.59,-189.5"/>
<text text-anchor="middle" x="1356.09" y="-177.5" font-family="Helvetica,sans-Serif" font-size="10.00">ecs/SparseArray.hpp</text>
</a>
</g>
</g>
<!-- Node15&#45;&gt;Node24 -->
<g id="edge31_Node000015_Node000024" class="edge">
<title>Node15&#45;&gt;Node24</title>
<g id="a_edge31_Node000015_Node000024"><a xlink:title=" ">
<path fill="none" stroke="#63b8ff" d="M1004.29,-232.26C1007.27,-231.83 1010.22,-231.41 1013.09,-231 1133.41,-214.04 1164.18,-214.6 1284.09,-195 1290.68,-193.92 1297.59,-192.7 1304.41,-191.44"/>
<polygon fill="#63b8ff" stroke="#63b8ff" points="1305.11,-194.87 1314.29,-189.57 1303.81,-187.99 1305.11,-194.87"/>
</a>
</g>
</g>
<!-- Node24&#45;&gt;Node22 -->
<g id="edge34_Node000024_Node000022" class="edge">
<title>Node24&#45;&gt;Node22</title>
<g id="a_edge34_Node000024_Node000022"><a xlink:title=" ">
<path fill="none" stroke="#63b8ff" d="M1336.61,-170.49C1314.08,-160.66 1276.79,-144.38 1250.91,-133.08"/>
<polygon fill="#63b8ff" stroke="#63b8ff" points="1252.17,-129.81 1241.6,-129.02 1249.37,-136.23 1252.17,-129.81"/>
</a>
</g>
</g>
<!-- Node24&#45;&gt;Node23 -->
<g id="edge35_Node000024_Node000023" class="edge">
<title>Node24&#45;&gt;Node23</title>
<g id="a_edge35_Node000024_Node000023"><a xlink:title=" ">
<path fill="none" stroke="#63b8ff" d="M1345.76,-170.37C1334.91,-161.3 1317.61,-146.84 1304.42,-135.82"/>
<polygon fill="#63b8ff" stroke="#63b8ff" points="1306.38,-132.89 1296.46,-129.17 1301.89,-138.27 1306.38,-132.89"/>
</a>
</g>
</g>
<!-- Node25 -->
<g id="Node000025" class="node">
<title>Node25</title>
<g id="a_Node000025"><a xlink:title=" ">
<polygon fill="#e0e0e0" stroke="#999999" points="1460.09,-129 1402.09,-129 1402.09,-110 1460.09,-110 1460.09,-129"/>
<text text-anchor="middle" x="1431.09" y="-117" font-family="Helvetica,sans-Serif" font-size="10.00">memory</text>
</a>
</g>
</g>
<!-- Node24&#45;&gt;Node25 -->
<g id="edge32_Node000024_Node000025" class="edge">
<title>Node24&#45;&gt;Node25</title>
<g id="a_edge32_Node000024_Node000025"><a xlink:title=" ">
<path fill="none" stroke="#63b8ff" d="M1367.16,-170.37C1378.9,-161.21 1397.68,-146.56 1411.85,-135.51"/>
<polygon fill="#63b8ff" stroke="#63b8ff" points="1414.25,-138.08 1419.98,-129.17 1409.94,-132.56 1414.25,-138.08"/>
</a>
</g>
</g>
<!-- Node26 -->
<g id="Node000026" class="node">
<title>Node26</title>
<g id="a_Node000026"><a xlink:title=" ">
<polygon fill="#e0e0e0" stroke="#999999" points="1384.09,-129 1328.09,-129 1328.09,-110 1384.09,-110 1384.09,-129"/>
<text text-anchor="middle" x="1356.09" y="-117" font-family="Helvetica,sans-Serif" font-size="10.00">optional</text>
</a>
</g>
</g>
<!-- Node24&#45;&gt;Node26 -->
<g id="edge33_Node000024_Node000026" class="edge">
<title>Node24&#45;&gt;Node26</title>
<g id="a_edge33_Node000024_Node000026"><a xlink:title=" ">
<path fill="none" stroke="#63b8ff" d="M1356.09,-170.37C1356.09,-162.25 1356.09,-149.81 1356.09,-139.39"/>
<polygon fill="#63b8ff" stroke="#63b8ff" points="1359.59,-139.17 1356.09,-129.17 1352.59,-139.17 1359.59,-139.17"/>
</a>
</g>
</g>
<!-- Node27&#45;&gt;Node12 -->
<g id="edge37_Node000027_Node000012" class="edge">
<title>Node27&#45;&gt;Node12</title>
<g id="a_edge37_Node000027_Node000012"><a xlink:title=" ">
<path fill="none" stroke="#63b8ff" d="M621.95,-230.87C631.07,-221.97 645.52,-207.89 656.73,-196.95"/>
<polygon fill="#63b8ff" stroke="#63b8ff" points="659.49,-199.15 664.2,-189.67 654.6,-194.14 659.49,-199.15"/>
</a>
</g>
</g>
<!-- Node27&#45;&gt;Node17 -->
<g id="edge38_Node000027_Node000017" class="edge">
<title>Node27&#45;&gt;Node17</title>
<g id="a_edge38_Node000027_Node000017"><a xlink:title=" ">
<path fill="none" stroke="#63b8ff" d="M633.89,-230.99C658.03,-221.12 698.08,-204.73 725.71,-193.43"/>
<polygon fill="#63b8ff" stroke="#63b8ff" points="727.34,-196.54 735.27,-189.52 724.69,-190.06 727.34,-196.54"/>
</a>
</g>
</g>
<!-- Node27&#45;&gt;Node22 -->
<g id="edge40_Node000027_Node000022" class="edge">
<title>Node27&#45;&gt;Node22</title>
<g id="a_edge40_Node000027_Node000022"><a xlink:title=" ">
<path fill="none" stroke="#63b8ff" d="M612.38,-230.95C611.59,-215.14 612.46,-181.47 632.09,-165 674.92,-129.06 1071.59,-122.07 1189.31,-120.78"/>
<polygon fill="#63b8ff" stroke="#63b8ff" points="1189.53,-124.27 1199.5,-120.67 1189.46,-117.28 1189.53,-124.27"/>
</a>
</g>
</g>
<!-- Node27&#45;&gt;Node27 -->
<g id="edge41_Node000027_Node000027" class="edge">
<title>Node27&#45;&gt;Node27</title>
<g id="a_edge41_Node000027_Node000027"><a xlink:title=" ">
<path fill="none" stroke="#63b8ff" d="M635.99,-250.03C655.11,-254.11 675.09,-250.93 675.09,-240.5 675.09,-231.94 661.65,-228.27 646.26,-229.47"/>
<polygon fill="#63b8ff" stroke="#63b8ff" points="645.38,-226.06 635.99,-230.97 646.38,-232.99 645.38,-226.06"/>
</a>
</g>
</g>
<!-- Node28 -->
<g id="Node000028" class="node">
<title>Node28</title>
<g id="a_Node000028"><a xlink:title=" ">
<polygon fill="#e0e0e0" stroke="#999999" points="584.59,-189.5 543.59,-189.5 543.59,-170.5 584.59,-170.5 584.59,-189.5"/>
<text text-anchor="middle" x="564.09" y="-177.5" font-family="Helvetica,sans-Serif" font-size="10.00">tuple</text>
</a>
</g>
</g>
<!-- Node27&#45;&gt;Node28 -->
<g id="edge39_Node000027_Node000028" class="edge">
<title>Node27&#45;&gt;Node28</title>
<g id="a_edge39_Node000027_Node000028"><a xlink:title=" ">
<path fill="none" stroke="#63b8ff" d="M605.86,-230.87C598.55,-222.14 587.07,-208.43 577.99,-197.59"/>
<polygon fill="#63b8ff" stroke="#63b8ff" points="580.46,-195.09 571.35,-189.67 575.09,-199.58 580.46,-195.09"/>
</a>
</g>
</g>
</g>
</svg>
