<?xml version="1.0" encoding="UTF-8" standalone="no"?>
<!DOCTYPE svg PUBLIC "-//W3C//DTD SVG 1.1//EN"
 "http://www.w3.org/Graphics/SVG/1.1/DTD/svg11.dtd">
<!-- Generated by graphviz version 2.43.0 (0)
 -->
<!-- Title: /home/runner/work/R&#45;Type/R&#45;Type/Server/src/network/db/Database.cpp Pages: 1 -->
<svg width="316pt" height="214pt"
 viewBox="0.00 0.00 316.32 214.00" xmlns="http://www.w3.org/2000/svg" xmlns:xlink="http://www.w3.org/1999/xlink">
<g id="graph0" class="graph" transform="scale(1 1) rotate(0) translate(4 210)">
<title>/home/runner/work/R&#45;Type/R&#45;Type/Server/src/network/db/Database.cpp</title>
<!-- Node1 -->
<g id="Node000001" class="node">
<title>Node1</title>
<g id="a_Node000001"><a xlink:title=" ">
<polygon fill="#999999" stroke="#666666" points="217.5,-206 56.5,-206 56.5,-165 217.5,-165 217.5,-206"/>
<text text-anchor="start" x="64.5" y="-194" font-family="Helvetica,sans-Serif" font-size="10.00">/home/runner/work/R</text>
<text text-anchor="start" x="64.5" y="-183" font-family="Helvetica,sans-Serif" font-size="10.00">&#45;Type/R&#45;Type/Server</text>
<text text-anchor="middle" x="137" y="-172" font-family="Helvetica,sans-Serif" font-size="10.00">/src/network/db/Database.cpp</text>
</a>
</g>
</g>
<!-- Node2 -->
<g id="Node000002" class="node">
<title>Node2</title>
<g id="a_Node000002"><a xlink:href="Database_8hpp.html" target="_top" xlink:title=" ">
<polygon fill="white" stroke="#666666" points="186.5,-129 87.5,-129 87.5,-110 186.5,-110 186.5,-129"/>
<text text-anchor="middle" x="137" y="-117" font-family="Helvetica,sans-Serif" font-size="10.00">db/Database.hpp</text>
</a>
</g>
</g>
<!-- Node1&#45;&gt;Node2 -->
<g id="edge1_Node000001_Node000002" class="edge">
<title>Node1&#45;&gt;Node2</title>
<g id="a_edge1_Node000001_Node000002"><a xlink:title=" ">
<path fill="none" stroke="#63b8ff" d="M137,-164.95C137,-156.85 137,-147.5 137,-139.47"/>
<polygon fill="#63b8ff" stroke="#63b8ff" points="140.5,-139.26 137,-129.26 133.5,-139.26 140.5,-139.26"/>
</a>
</g>
</g>
<!-- Node4 -->
<g id="Node000004" class="node">
<title>Node4</title>
<g id="a_Node000004"><a xlink:title=" ">
<polygon fill="#e0e0e0" stroke="#999999" points="60,-74 0,-74 0,-55 60,-55 60,-74"/>
<text text-anchor="middle" x="30" y="-62" font-family="Helvetica,sans-Serif" font-size="10.00">iostream</text>
</a>
</g>
</g>
<!-- Node1&#45;&gt;Node4 -->
<g id="edge8_Node000001_Node000004" class="edge">
<title>Node1&#45;&gt;Node4</title>
<g id="a_edge8_Node000001_Node000004"><a xlink:title=" ">
<path fill="none" stroke="#63b8ff" d="M114.28,-164.78C102.94,-154.54 89.27,-141.56 78,-129 64.63,-114.11 51.02,-95.74 41.73,-82.59"/>
<polygon fill="#63b8ff" stroke="#63b8ff" points="44.38,-80.27 35.79,-74.07 38.63,-84.28 44.38,-80.27"/>
</a>
</g>
</g>
<!-- Node5 -->
<g id="Node000005" class="node">
<title>Node5</title>
<g id="a_Node000005"><a xlink:title=" ">
<polygon fill="#e0e0e0" stroke="#999999" points="267,-19 223,-19 223,0 267,0 267,-19"/>
<text text-anchor="middle" x="245" y="-7" font-family="Helvetica,sans-Serif" font-size="10.00">string</text>
</a>
</g>
</g>
<!-- Node1&#45;&gt;Node5 -->
<g id="edge7_Node000001_Node000005" class="edge">
<title>Node1&#45;&gt;Node5</title>
<g id="a_edge7_Node000001_Node000005"><a xlink:title=" ">
<path fill="none" stroke="#63b8ff" d="M191.63,-164.96C230.97,-147.68 281.14,-118.25 305,-74 315.78,-54 293.39,-35.66 272.97,-23.89"/>
<polygon fill="#63b8ff" stroke="#63b8ff" points="274.6,-20.79 264.14,-19.11 271.27,-26.95 274.6,-20.79"/>
</a>
</g>
</g>
<!-- Node3 -->
<g id="Node000003" class="node">
<title>Node3</title>
<g id="a_Node000003"><a xlink:title=" ">
<polygon fill="#e0e0e0" stroke="#999999" points="137.5,-74 78.5,-74 78.5,-55 137.5,-55 137.5,-74"/>
<text text-anchor="middle" x="108" y="-62" font-family="Helvetica,sans-Serif" font-size="10.00">sqlite3.h</text>
</a>
</g>
</g>
<!-- Node2&#45;&gt;Node3 -->
<g id="edge2_Node000002_Node000003" class="edge">
<title>Node2&#45;&gt;Node3</title>
<g id="a_edge2_Node000002_Node000003"><a xlink:title=" ">
<path fill="none" stroke="#63b8ff" d="M132.21,-109.75C128.24,-102.49 122.47,-91.95 117.57,-82.98"/>
<polygon fill="#63b8ff" stroke="#63b8ff" points="120.57,-81.18 112.7,-74.09 114.43,-84.54 120.57,-81.18"/>
</a>
</g>
</g>
<!-- Node2&#45;&gt;Node4 -->
<g id="edge3_Node000002_Node000004" class="edge">
<title>Node2&#45;&gt;Node4</title>
<g id="a_edge3_Node000002_Node000004"><a xlink:title=" ">
<path fill="none" stroke="#63b8ff" d="M119.81,-109.98C102.75,-101.54 76.37,-88.47 56.6,-78.68"/>
<polygon fill="#63b8ff" stroke="#63b8ff" points="58.02,-75.47 47.5,-74.17 54.91,-81.75 58.02,-75.47"/>
</a>
</g>
</g>
<!-- Node2&#45;&gt;Node5 -->
<g id="edge4_Node000002_Node000005" class="edge">
<title>Node2&#45;&gt;Node5</title>
<g id="a_edge4_Node000002_Node000005"><a xlink:title=" ">
<path fill="none" stroke="#63b8ff" d="M142.51,-109.66C150.78,-96.79 167.33,-72.51 185,-55 196.45,-43.65 210.93,-32.83 222.79,-24.7"/>
<polygon fill="#63b8ff" stroke="#63b8ff" points="224.89,-27.51 231.27,-19.05 221.01,-21.69 224.89,-27.51"/>
</a>
</g>
</g>
<!-- Node6 -->
<g id="Node000006" class="node">
<title>Node6</title>
<g id="a_Node000006"><a xlink:href="IDatabase_8hpp.html" target="_top" xlink:title=" ">
<polygon fill="white" stroke="#666666" points="296,-74 194,-74 194,-55 296,-55 296,-74"/>
<text text-anchor="middle" x="245" y="-62" font-family="Helvetica,sans-Serif" font-size="10.00">db/IDatabase.hpp</text>
</a>
</g>
</g>
<!-- Node2&#45;&gt;Node6 -->
<g id="edge5_Node000002_Node000006" class="edge">
<title>Node2&#45;&gt;Node6</title>
<g id="a_edge5_Node000002_Node000006"><a xlink:title=" ">
<path fill="none" stroke="#63b8ff" d="M154.35,-109.98C171.57,-101.54 198.2,-88.47 218.15,-78.68"/>
<polygon fill="#63b8ff" stroke="#63b8ff" points="219.9,-81.72 227.33,-74.17 216.81,-75.43 219.9,-81.72"/>
</a>
</g>
</g>
<!-- Node6&#45;&gt;Node5 -->
<g id="edge6_Node000006_Node000005" class="edge">
<title>Node6&#45;&gt;Node5</title>
<g id="a_edge6_Node000006_Node000005"><a xlink:title=" ">
<path fill="none" stroke="#63b8ff" d="M245,-54.75C245,-47.8 245,-37.85 245,-29.13"/>
<polygon fill="#63b8ff" stroke="#63b8ff" points="248.5,-29.09 245,-19.09 241.5,-29.09 248.5,-29.09"/>
</a>
</g>
</g>
</g>
</svg>
