<?xml version="1.0" encoding="UTF-8" standalone="no"?>
<!DOCTYPE svg PUBLIC "-//W3C//DTD SVG 1.1//EN"
 "http://www.w3.org/Graphics/SVG/1.1/DTD/svg11.dtd">
<!-- Generated by graphviz version 2.43.0 (0)
 -->
<!-- Title: /home/runner/work/R&#45;Type/R&#45;Type/Shared/network/DecodeFunc.cpp Pages: 1 -->
<svg width="717pt" height="269pt"
 viewBox="0.00 0.00 716.50 269.00" xmlns="http://www.w3.org/2000/svg" xmlns:xlink="http://www.w3.org/1999/xlink">
<g id="graph0" class="graph" transform="scale(1 1) rotate(0) translate(4 265)">
<title>/home/runner/work/R&#45;Type/R&#45;Type/Shared/network/DecodeFunc.cpp</title>
<!-- Node1 -->
<g id="Node000001" class="node">
<title>Node1</title>
<g id="a_Node000001"><a xlink:title=" ">
<polygon fill="#999999" stroke="#666666" points="535.5,-261 393.5,-261 393.5,-220 535.5,-220 535.5,-261"/>
<text text-anchor="start" x="401.5" y="-249" font-family="Helvetica,sans-Serif" font-size="10.00">/home/runner/work/R</text>
<text text-anchor="start" x="401.5" y="-238" font-family="Helvetica,sans-Serif" font-size="10.00">&#45;Type/R&#45;Type/Shared</text>
<text text-anchor="middle" x="464.5" y="-227" font-family="Helvetica,sans-Serif" font-size="10.00">/network/DecodeFunc.cpp</text>
</a>
</g>
</g>
<!-- Node2 -->
<g id="Node000002" class="node">
<title>Node2</title>
<g id="a_Node000002"><a xlink:href="DecodeFunc_8hpp.html" target="_top" xlink:title=" ">
<polygon fill="white" stroke="#666666" points="299.5,-184 159.5,-184 159.5,-165 299.5,-165 299.5,-184"/>
<text text-anchor="middle" x="229.5" y="-172" font-family="Helvetica,sans-Serif" font-size="10.00">network/DecodeFunc.hpp</text>
</a>
</g>
</g>
<!-- Node1&#45;&gt;Node2 -->
<g id="edge1_Node000001_Node000002" class="edge">
<title>Node1&#45;&gt;Node2</title>
<g id="a_edge1_Node000001_Node000002"><a xlink:title=" ">
<path fill="none" stroke="#63b8ff" d="M393.35,-220.12C353.32,-209.22 304.74,-195.99 270.91,-186.78"/>
<polygon fill="#63b8ff" stroke="#63b8ff" points="271.48,-183.31 260.92,-184.06 269.64,-190.06 271.48,-183.31"/>
</a>
</g>
</g>
<!-- Node4 -->
<g id="Node000004" class="node">
<title>Node4</title>
<g id="a_Node000004"><a xlink:title=" ">
<polygon fill="#e0e0e0" stroke="#999999" points="47,-19 0,-19 0,0 47,0 47,-19"/>
<text text-anchor="middle" x="23.5" y="-7" font-family="Helvetica,sans-Serif" font-size="10.00">vector</text>
</a>
</g>
</g>
<!-- Node1&#45;&gt;Node4 -->
<g id="edge21_Node000001_Node000004" class="edge">
<title>Node1&#45;&gt;Node4</title>
<g id="a_edge21_Node000001_Node000004"><a xlink:title=" ">
<path fill="none" stroke="#63b8ff" d="M393.23,-236.26C327.78,-231.15 229.3,-217.97 150.5,-184 83.15,-154.96 55.74,-141.68 27.5,-74 21.58,-59.81 20.91,-42.27 21.54,-29.23"/>
<polygon fill="#63b8ff" stroke="#63b8ff" points="25.04,-29.36 22.32,-19.12 18.06,-28.81 25.04,-29.36"/>
</a>
</g>
</g>
<!-- Node9 -->
<g id="Node000009" class="node">
<title>Node9</title>
<g id="a_Node000009"><a xlink:title=" ">
<polygon fill="#e0e0e0" stroke="#999999" points="279.5,-19 235.5,-19 235.5,0 279.5,0 279.5,-19"/>
<text text-anchor="middle" x="257.5" y="-7" font-family="Helvetica,sans-Serif" font-size="10.00">string</text>
</a>
</g>
</g>
<!-- Node1&#45;&gt;Node9 -->
<g id="edge20_Node000001_Node000009" class="edge">
<title>Node1&#45;&gt;Node9</title>
<g id="a_edge20_Node000001_Node000009"><a xlink:title=" ">
<path fill="none" stroke="#63b8ff" d="M453.87,-219.73C433.72,-183.63 387,-106.07 331.5,-55 317.83,-42.43 300.07,-31.6 285.37,-23.78"/>
<polygon fill="#63b8ff" stroke="#63b8ff" points="286.72,-20.54 276.23,-19.08 283.52,-26.76 286.72,-20.54"/>
</a>
</g>
</g>
<!-- Node11 -->
<g id="Node000011" class="node">
<title>Node11</title>
<g id="a_Node000011"><a xlink:href="DataMask_8hpp.html" target="_top" xlink:title=" ">
<polygon fill="white" stroke="#666666" points="584.5,-129 454.5,-129 454.5,-110 584.5,-110 584.5,-129"/>
<text text-anchor="middle" x="519.5" y="-117" font-family="Helvetica,sans-Serif" font-size="10.00">network/DataMask.hpp</text>
</a>
</g>
</g>
<!-- Node1&#45;&gt;Node11 -->
<g id="edge15_Node000001_Node000011" class="edge">
<title>Node1&#45;&gt;Node11</title>
<g id="a_edge15_Node000001_Node000011"><a xlink:title=" ">
<path fill="none" stroke="#63b8ff" d="M467.17,-219.7C469.81,-204.2 474.76,-182.42 483.5,-165 488.66,-154.72 496.52,-144.63 503.57,-136.67"/>
<polygon fill="#63b8ff" stroke="#63b8ff" points="506.25,-138.93 510.49,-129.22 501.12,-134.17 506.25,-138.93"/>
</a>
</g>
</g>
<!-- Node12 -->
<g id="Node000012" class="node">
<title>Node12</title>
<g id="a_Node000012"><a xlink:title=" ">
<polygon fill="#e0e0e0" stroke="#999999" points="562,-184 493,-184 493,-165 562,-165 562,-184"/>
<text text-anchor="middle" x="527.5" y="-172" font-family="Helvetica,sans-Serif" font-size="10.00">arpa/inet.h</text>
</a>
</g>
</g>
<!-- Node1&#45;&gt;Node12 -->
<g id="edge17_Node000001_Node000012" class="edge">
<title>Node1&#45;&gt;Node12</title>
<g id="a_edge17_Node000001_Node000012"><a xlink:title=" ">
<path fill="none" stroke="#63b8ff" d="M483.74,-219.95C492.72,-210.83 503.27,-200.11 511.76,-191.49"/>
<polygon fill="#63b8ff" stroke="#63b8ff" points="514.36,-193.84 518.88,-184.26 509.37,-188.93 514.36,-193.84"/>
</a>
</g>
</g>
<!-- Node13 -->
<g id="Node000013" class="node">
<title>Node13</title>
<g id="a_Node000013"><a xlink:title=" ">
<polygon fill="#e0e0e0" stroke="#999999" points="630.5,-184 580.5,-184 580.5,-165 630.5,-165 630.5,-184"/>
<text text-anchor="middle" x="605.5" y="-172" font-family="Helvetica,sans-Serif" font-size="10.00">cstring</text>
</a>
</g>
</g>
<!-- Node1&#45;&gt;Node13 -->
<g id="edge18_Node000001_Node000013" class="edge">
<title>Node1&#45;&gt;Node13</title>
<g id="a_edge18_Node000001_Node000013"><a xlink:title=" ">
<path fill="none" stroke="#63b8ff" d="M507.57,-219.95C530.26,-209.65 557.44,-197.31 577.4,-188.25"/>
<polygon fill="#63b8ff" stroke="#63b8ff" points="578.91,-191.41 586.57,-184.09 576.02,-185.04 578.91,-191.41"/>
</a>
</g>
</g>
<!-- Node14 -->
<g id="Node000014" class="node">
<title>Node14</title>
<g id="a_Node000014"><a xlink:title=" ">
<polygon fill="#e0e0e0" stroke="#999999" points="708.5,-184 648.5,-184 648.5,-165 708.5,-165 708.5,-184"/>
<text text-anchor="middle" x="678.5" y="-172" font-family="Helvetica,sans-Serif" font-size="10.00">iostream</text>
</a>
</g>
</g>
<!-- Node1&#45;&gt;Node14 -->
<g id="edge19_Node000001_Node000014" class="edge">
<title>Node1&#45;&gt;Node14</title>
<g id="a_edge19_Node000001_Node000014"><a xlink:title=" ">
<path fill="none" stroke="#63b8ff" d="M529.87,-219.95C565.98,-209.15 609.59,-196.11 640.2,-186.95"/>
<polygon fill="#63b8ff" stroke="#63b8ff" points="641.47,-190.23 650.05,-184.01 639.47,-183.52 641.47,-190.23"/>
</a>
</g>
</g>
<!-- Node3 -->
<g id="Node000003" class="node">
<title>Node3</title>
<g id="a_Node000003"><a xlink:title=" ">
<polygon fill="#e0e0e0" stroke="#999999" points="394.5,-19 344.5,-19 344.5,0 394.5,0 394.5,-19"/>
<text text-anchor="middle" x="369.5" y="-7" font-family="Helvetica,sans-Serif" font-size="10.00">cstdint</text>
</a>
</g>
</g>
<!-- Node2&#45;&gt;Node3 -->
<g id="edge2_Node000002_Node000003" class="edge">
<title>Node2&#45;&gt;Node3</title>
<g id="a_edge2_Node000002_Node000003"><a xlink:title=" ">
<path fill="none" stroke="#63b8ff" d="M247.46,-164.8C275.34,-150.25 328.44,-118.17 353.5,-74 361.31,-60.23 365.36,-42.66 367.43,-29.49"/>
<polygon fill="#63b8ff" stroke="#63b8ff" points="370.94,-29.63 368.78,-19.26 364,-28.72 370.94,-29.63"/>
</a>
</g>
</g>
<!-- Node2&#45;&gt;Node4 -->
<g id="edge3_Node000002_Node000004" class="edge">
<title>Node2&#45;&gt;Node4</title>
<g id="a_edge3_Node000002_Node000004"><a xlink:title=" ">
<path fill="none" stroke="#63b8ff" d="M196.73,-164.95C154.53,-152.23 81.83,-124.26 41.5,-74 31.3,-61.29 26.88,-43.11 24.96,-29.46"/>
<polygon fill="#63b8ff" stroke="#63b8ff" points="28.42,-28.84 23.87,-19.27 21.46,-29.59 28.42,-28.84"/>
</a>
</g>
</g>
<!-- Node5 -->
<g id="Node000005" class="node">
<title>Node5</title>
<g id="a_Node000005"><a xlink:href="Decoder_8hpp.html" target="_top" xlink:title=" ">
<polygon fill="white" stroke="#666666" points="289.5,-129 169.5,-129 169.5,-110 289.5,-110 289.5,-129"/>
<text text-anchor="middle" x="229.5" y="-117" font-family="Helvetica,sans-Serif" font-size="10.00">network/Decoder.hpp</text>
</a>
</g>
</g>
<!-- Node2&#45;&gt;Node5 -->
<g id="edge4_Node000002_Node000005" class="edge">
<title>Node2&#45;&gt;Node5</title>
<g id="a_edge4_Node000002_Node000005"><a xlink:title=" ">
<path fill="none" stroke="#63b8ff" d="M229.5,-164.75C229.5,-157.8 229.5,-147.85 229.5,-139.13"/>
<polygon fill="#63b8ff" stroke="#63b8ff" points="233,-139.09 229.5,-129.09 226,-139.09 233,-139.09"/>
</a>
</g>
</g>
<!-- Node8 -->
<g id="Node000008" class="node">
<title>Node8</title>
<g id="a_Node000008"><a xlink:href="Event_8hpp.html" target="_top" xlink:title=" ">
<polygon fill="white" stroke="#666666" points="178.5,-74 70.5,-74 70.5,-55 178.5,-55 178.5,-74"/>
<text text-anchor="middle" x="124.5" y="-62" font-family="Helvetica,sans-Serif" font-size="10.00">network/Event.hpp</text>
</a>
</g>
</g>
<!-- Node2&#45;&gt;Node8 -->
<g id="edge14_Node000002_Node000008" class="edge">
<title>Node2&#45;&gt;Node8</title>
<g id="a_edge14_Node000002_Node000008"><a xlink:title=" ">
<path fill="none" stroke="#63b8ff" d="M211.36,-164.92C196.35,-157.15 175.18,-144.54 160.5,-129 147.88,-115.64 138,-97.04 131.81,-83.42"/>
<polygon fill="#63b8ff" stroke="#63b8ff" points="134.99,-81.94 127.82,-74.15 128.56,-84.72 134.99,-81.94"/>
</a>
</g>
</g>
<!-- Node5&#45;&gt;Node3 -->
<g id="edge6_Node000005_Node000003" class="edge">
<title>Node5&#45;&gt;Node3</title>
<g id="a_edge6_Node000005_Node000003"><a xlink:title=" ">
<path fill="none" stroke="#63b8ff" d="M262.25,-109.93C283.81,-103 311.63,-91.48 331.5,-74 345.64,-61.56 356.05,-42.54 362.36,-28.56"/>
<polygon fill="#63b8ff" stroke="#63b8ff" points="365.72,-29.61 366.39,-19.04 359.27,-26.89 365.72,-29.61"/>
</a>
</g>
</g>
<!-- Node5&#45;&gt;Node4 -->
<g id="edge8_Node000005_Node000004" class="edge">
<title>Node5&#45;&gt;Node4</title>
<g id="a_edge8_Node000005_Node000004"><a xlink:title=" ">
<path fill="none" stroke="#63b8ff" d="M169.44,-113.79C135.01,-108.52 92.6,-97.41 61.5,-74 46.3,-62.56 35.97,-43.11 29.96,-28.75"/>
<polygon fill="#63b8ff" stroke="#63b8ff" points="33.21,-27.44 26.34,-19.37 26.68,-29.96 33.21,-27.44"/>
</a>
</g>
</g>
<!-- Node6 -->
<g id="Node000006" class="node">
<title>Node6</title>
<g id="a_Node000006"><a xlink:title=" ">
<polygon fill="#e0e0e0" stroke="#999999" points="322.5,-74 280.5,-74 280.5,-55 322.5,-55 322.5,-74"/>
<text text-anchor="middle" x="301.5" y="-62" font-family="Helvetica,sans-Serif" font-size="10.00">array</text>
</a>
</g>
</g>
<!-- Node5&#45;&gt;Node6 -->
<g id="edge5_Node000005_Node000006" class="edge">
<title>Node5&#45;&gt;Node6</title>
<g id="a_edge5_Node000005_Node000006"><a xlink:title=" ">
<path fill="none" stroke="#63b8ff" d="M241.07,-109.98C251.92,-102 268.38,-89.88 281.38,-80.31"/>
<polygon fill="#63b8ff" stroke="#63b8ff" points="283.74,-82.92 289.72,-74.17 279.59,-77.28 283.74,-82.92"/>
</a>
</g>
</g>
<!-- Node7 -->
<g id="Node000007" class="node">
<title>Node7</title>
<g id="a_Node000007"><a xlink:title=" ">
<polygon fill="#e0e0e0" stroke="#999999" points="262,-74 197,-74 197,-55 262,-55 262,-74"/>
<text text-anchor="middle" x="229.5" y="-62" font-family="Helvetica,sans-Serif" font-size="10.00">functional</text>
</a>
</g>
</g>
<!-- Node5&#45;&gt;Node7 -->
<g id="edge7_Node000005_Node000007" class="edge">
<title>Node5&#45;&gt;Node7</title>
<g id="a_edge7_Node000005_Node000007"><a xlink:title=" ">
<path fill="none" stroke="#63b8ff" d="M229.5,-109.75C229.5,-102.8 229.5,-92.85 229.5,-84.13"/>
<polygon fill="#63b8ff" stroke="#63b8ff" points="233,-84.09 229.5,-74.09 226,-84.09 233,-84.09"/>
</a>
</g>
</g>
<!-- Node5&#45;&gt;Node8 -->
<g id="edge9_Node000005_Node000008" class="edge">
<title>Node5&#45;&gt;Node8</title>
<g id="a_edge9_Node000005_Node000008"><a xlink:title=" ">
<path fill="none" stroke="#63b8ff" d="M212.63,-109.98C195.89,-101.54 170,-88.47 150.61,-78.68"/>
<polygon fill="#63b8ff" stroke="#63b8ff" points="152.18,-75.55 141.68,-74.17 149.03,-81.8 152.18,-75.55"/>
</a>
</g>
</g>
<!-- Node8&#45;&gt;Node3 -->
<g id="edge10_Node000008_Node000003" class="edge">
<title>Node8&#45;&gt;Node3</title>
<g id="a_edge10_Node000008_Node000003"><a xlink:title=" ">
<path fill="none" stroke="#63b8ff" d="M163.86,-54.98C211.05,-44.78 289.39,-27.83 334.53,-18.06"/>
<polygon fill="#63b8ff" stroke="#63b8ff" points="335.41,-21.46 344.45,-15.92 333.93,-14.61 335.41,-21.46"/>
</a>
</g>
</g>
<!-- Node8&#45;&gt;Node4 -->
<g id="edge13_Node000008_Node000004" class="edge">
<title>Node8&#45;&gt;Node4</title>
<g id="a_edge13_Node000008_Node000004"><a xlink:title=" ">
<path fill="none" stroke="#63b8ff" d="M108.27,-54.98C92.32,-46.61 67.72,-33.7 49.12,-23.95"/>
<polygon fill="#63b8ff" stroke="#63b8ff" points="50.5,-20.72 40.02,-19.17 47.25,-26.92 50.5,-20.72"/>
</a>
</g>
</g>
<!-- Node8&#45;&gt;Node9 -->
<g id="edge11_Node000008_Node000009" class="edge">
<title>Node8&#45;&gt;Node9</title>
<g id="a_edge11_Node000008_Node000009"><a xlink:title=" ">
<path fill="none" stroke="#63b8ff" d="M145.87,-54.98C167.65,-46.3 201.66,-32.75 226.42,-22.88"/>
<polygon fill="#63b8ff" stroke="#63b8ff" points="227.75,-26.12 235.74,-19.17 225.16,-19.62 227.75,-26.12"/>
</a>
</g>
</g>
<!-- Node10 -->
<g id="Node000010" class="node">
<title>Node10</title>
<g id="a_Node000010"><a xlink:title=" ">
<polygon fill="#e0e0e0" stroke="#999999" points="150,-19 99,-19 99,0 150,0 150,-19"/>
<text text-anchor="middle" x="124.5" y="-7" font-family="Helvetica,sans-Serif" font-size="10.00">variant</text>
</a>
</g>
</g>
<!-- Node8&#45;&gt;Node10 -->
<g id="edge12_Node000008_Node000010" class="edge">
<title>Node8&#45;&gt;Node10</title>
<g id="a_edge12_Node000008_Node000010"><a xlink:title=" ">
<path fill="none" stroke="#63b8ff" d="M124.5,-54.75C124.5,-47.8 124.5,-37.85 124.5,-29.13"/>
<polygon fill="#63b8ff" stroke="#63b8ff" points="128,-29.09 124.5,-19.09 121,-29.09 128,-29.09"/>
</a>
</g>
</g>
<!-- Node11&#45;&gt;Node3 -->
<g id="edge16_Node000011_Node000003" class="edge">
<title>Node11&#45;&gt;Node3</title>
<g id="a_edge16_Node000011_Node000003"><a xlink:title=" ">
<path fill="none" stroke="#63b8ff" d="M509.57,-109.89C494.88,-97.3 466.31,-73.36 440.5,-55 425.04,-44 406.9,-32.66 392.83,-24.18"/>
<polygon fill="#63b8ff" stroke="#63b8ff" points="394.62,-21.17 384.24,-19.05 391.03,-27.18 394.62,-21.17"/>
</a>
</g>
</g>
</g>
</svg>
