<?xml version="1.0" encoding="UTF-8" standalone="no"?>
<!DOCTYPE svg PUBLIC "-//W3C//DTD SVG 1.1//EN"
 "http://www.w3.org/Graphics/SVG/1.1/DTD/svg11.dtd">
<!-- Generated by graphviz version 2.43.0 (0)
 -->
<!-- Title: /home/runner/work/R&#45;Type/R&#45;Type/Shared/network/DecodeFunc.cpp Pages: 1 -->
<svg width="679pt" height="269pt"
 viewBox="0.00 0.00 678.50 269.00" xmlns="http://www.w3.org/2000/svg" xmlns:xlink="http://www.w3.org/1999/xlink">
<g id="graph0" class="graph" transform="scale(1 1) rotate(0) translate(4 265)">
<title>/home/runner/work/R&#45;Type/R&#45;Type/Shared/network/DecodeFunc.cpp</title>
<!-- Node1 -->
<g id="Node000001" class="node">
<title>Node1</title>
<g id="a_Node000001"><a xlink:title=" ">
<polygon fill="#999999" stroke="#666666" points="528.5,-261 386.5,-261 386.5,-220 528.5,-220 528.5,-261"/>
<text text-anchor="start" x="394.5" y="-249" font-family="Helvetica,sans-Serif" font-size="10.00">/home/runner/work/R</text>
<text text-anchor="start" x="394.5" y="-238" font-family="Helvetica,sans-Serif" font-size="10.00">&#45;Type/R&#45;Type/Shared</text>
<text text-anchor="middle" x="457.5" y="-227" font-family="Helvetica,sans-Serif" font-size="10.00">/network/DecodeFunc.cpp</text>
</a>
</g>
</g>
<!-- Node2 -->
<g id="Node000002" class="node">
<title>Node2</title>
<g id="a_Node000002"><a xlink:href="DecodeFunc_8hpp.html" target="_top" xlink:title=" ">
<polygon fill="white" stroke="#666666" points="332.5,-184 192.5,-184 192.5,-165 332.5,-165 332.5,-184"/>
<text text-anchor="middle" x="262.5" y="-172" font-family="Helvetica,sans-Serif" font-size="10.00">network/DecodeFunc.hpp</text>
</a>
</g>
</g>
<!-- Node1&#45;&gt;Node2 -->
<g id="edge1_Node000001_Node000002" class="edge">
<title>Node1&#45;&gt;Node2</title>
<g id="a_edge1_Node000001_Node000002"><a xlink:title=" ">
<path fill="none" stroke="#63b8ff" d="M397.93,-219.95C365.31,-209.24 325.98,-196.34 298.13,-187.19"/>
<polygon fill="#63b8ff" stroke="#63b8ff" points="299.02,-183.8 288.42,-184.01 296.83,-190.45 299.02,-183.8"/>
</a>
</g>
</g>
<!-- Node4 -->
<g id="Node000004" class="node">
<title>Node4</title>
<g id="a_Node000004"><a xlink:title=" ">
<polygon fill="#e0e0e0" stroke="#999999" points="47,-19 0,-19 0,0 47,0 47,-19"/>
<text text-anchor="middle" x="23.5" y="-7" font-family="Helvetica,sans-Serif" font-size="10.00">vector</text>
</a>
</g>
</g>
<!-- Node1&#45;&gt;Node4 -->
<g id="edge19_Node000001_Node000004" class="edge">
<title>Node1&#45;&gt;Node4</title>
<g id="a_edge19_Node000001_Node000004"><a xlink:title=" ">
<path fill="none" stroke="#63b8ff" d="M386.42,-236.08C302.22,-228.56 161.86,-204.64 70.5,-129 47.02,-109.56 40.45,-102.45 29.5,-74 23.96,-59.61 22.67,-42.09 22.65,-29.1"/>
<polygon fill="#63b8ff" stroke="#63b8ff" points="26.15,-29.13 22.88,-19.05 19.15,-28.97 26.15,-29.13"/>
</a>
</g>
</g>
<!-- Node9 -->
<g id="Node000009" class="node">
<title>Node9</title>
<g id="a_Node000009"><a xlink:title=" ">
<polygon fill="#e0e0e0" stroke="#999999" points="440.5,-19 396.5,-19 396.5,0 440.5,0 440.5,-19"/>
<text text-anchor="middle" x="418.5" y="-7" font-family="Helvetica,sans-Serif" font-size="10.00">string</text>
</a>
</g>
</g>
<!-- Node1&#45;&gt;Node9 -->
<g id="edge18_Node000001_Node000009" class="edge">
<title>Node1&#45;&gt;Node9</title>
<g id="a_edge18_Node000001_Node000009"><a xlink:title=" ">
<path fill="none" stroke="#63b8ff" d="M453.41,-219.75C451.26,-209.17 448.64,-195.89 446.5,-184 436.41,-127.83 426.12,-61.13 421.3,-29.26"/>
<polygon fill="#63b8ff" stroke="#63b8ff" points="424.74,-28.55 419.79,-19.18 417.81,-29.59 424.74,-28.55"/>
</a>
</g>
</g>
<!-- Node11 -->
<g id="Node000011" class="node">
<title>Node11</title>
<g id="a_Node000011"><a xlink:title=" ">
<polygon fill="#e0e0e0" stroke="#999999" points="524,-184 455,-184 455,-165 524,-165 524,-184"/>
<text text-anchor="middle" x="489.5" y="-172" font-family="Helvetica,sans-Serif" font-size="10.00">arpa/inet.h</text>
</a>
</g>
</g>
<!-- Node1&#45;&gt;Node11 -->
<g id="edge15_Node000001_Node000011" class="edge">
<title>Node1&#45;&gt;Node11</title>
<g id="a_edge15_Node000001_Node000011"><a xlink:title=" ">
<path fill="none" stroke="#63b8ff" d="M467.27,-219.95C471.51,-211.48 476.43,-201.64 480.57,-193.37"/>
<polygon fill="#63b8ff" stroke="#63b8ff" points="483.78,-194.77 485.12,-184.26 477.52,-191.64 483.78,-194.77"/>
</a>
</g>
</g>
<!-- Node12 -->
<g id="Node000012" class="node">
<title>Node12</title>
<g id="a_Node000012"><a xlink:title=" ">
<polygon fill="#e0e0e0" stroke="#999999" points="592.5,-184 542.5,-184 542.5,-165 592.5,-165 592.5,-184"/>
<text text-anchor="middle" x="567.5" y="-172" font-family="Helvetica,sans-Serif" font-size="10.00">cstring</text>
</a>
</g>
</g>
<!-- Node1&#45;&gt;Node12 -->
<g id="edge16_Node000001_Node000012" class="edge">
<title>Node1&#45;&gt;Node12</title>
<g id="a_edge16_Node000001_Node000012"><a xlink:title=" ">
<path fill="none" stroke="#63b8ff" d="M491.1,-219.95C508.16,-210.03 528.47,-198.21 543.86,-189.25"/>
<polygon fill="#63b8ff" stroke="#63b8ff" points="545.85,-192.15 552.73,-184.09 542.33,-186.1 545.85,-192.15"/>
</a>
</g>
</g>
<!-- Node13 -->
<g id="Node000013" class="node">
<title>Node13</title>
<g id="a_Node000013"><a xlink:title=" ">
<polygon fill="#e0e0e0" stroke="#999999" points="670.5,-184 610.5,-184 610.5,-165 670.5,-165 670.5,-184"/>
<text text-anchor="middle" x="640.5" y="-172" font-family="Helvetica,sans-Serif" font-size="10.00">iostream</text>
</a>
</g>
</g>
<!-- Node1&#45;&gt;Node13 -->
<g id="edge17_Node000001_Node000013" class="edge">
<title>Node1&#45;&gt;Node13</title>
<g id="a_edge17_Node000001_Node000013"><a xlink:title=" ">
<path fill="none" stroke="#63b8ff" d="M513.4,-219.95C543.78,-209.32 580.37,-196.53 606.48,-187.4"/>
<polygon fill="#63b8ff" stroke="#63b8ff" points="607.65,-190.7 615.93,-184.09 605.34,-184.09 607.65,-190.7"/>
</a>
</g>
</g>
<!-- Node3 -->
<g id="Node000003" class="node">
<title>Node3</title>
<g id="a_Node000003"><a xlink:title=" ">
<polygon fill="#e0e0e0" stroke="#999999" points="287.5,-19 237.5,-19 237.5,0 287.5,0 287.5,-19"/>
<text text-anchor="middle" x="262.5" y="-7" font-family="Helvetica,sans-Serif" font-size="10.00">cstdint</text>
</a>
</g>
</g>
<!-- Node2&#45;&gt;Node3 -->
<g id="edge2_Node000002_Node000003" class="edge">
<title>Node2&#45;&gt;Node3</title>
<g id="a_edge2_Node000002_Node000003"><a xlink:title=" ">
<path fill="none" stroke="#63b8ff" d="M262.5,-164.74C262.5,-139.31 262.5,-65.08 262.5,-29.69"/>
<polygon fill="#63b8ff" stroke="#63b8ff" points="266,-29.31 262.5,-19.31 259,-29.31 266,-29.31"/>
</a>
</g>
</g>
<!-- Node2&#45;&gt;Node4 -->
<g id="edge3_Node000002_Node000004" class="edge">
<title>Node2&#45;&gt;Node4</title>
<g id="a_edge3_Node000002_Node000004"><a xlink:title=" ">
<path fill="none" stroke="#63b8ff" d="M211.54,-164.99C179.7,-158.27 138.62,-146.96 105.5,-129 72.83,-111.28 62.62,-105.25 42.5,-74 33.74,-60.39 28.87,-42.57 26.26,-29.28"/>
<polygon fill="#63b8ff" stroke="#63b8ff" points="29.7,-28.63 24.57,-19.36 22.8,-29.81 29.7,-28.63"/>
</a>
</g>
</g>
<!-- Node5 -->
<g id="Node000005" class="node">
<title>Node5</title>
<g id="a_Node000005"><a xlink:href="Decoder_8hpp.html" target="_top" xlink:title=" ">
<polygon fill="white" stroke="#666666" points="234.5,-129 114.5,-129 114.5,-110 234.5,-110 234.5,-129"/>
<text text-anchor="middle" x="174.5" y="-117" font-family="Helvetica,sans-Serif" font-size="10.00">network/Decoder.hpp</text>
</a>
</g>
</g>
<!-- Node2&#45;&gt;Node5 -->
<g id="edge4_Node000002_Node000005" class="edge">
<title>Node2&#45;&gt;Node5</title>
<g id="a_edge4_Node000002_Node000005"><a xlink:title=" ">
<path fill="none" stroke="#63b8ff" d="M248.36,-164.98C234.71,-156.77 213.81,-144.18 197.72,-134.49"/>
<polygon fill="#63b8ff" stroke="#63b8ff" points="199.27,-131.33 188.9,-129.17 195.66,-137.33 199.27,-131.33"/>
</a>
</g>
</g>
<!-- Node8 -->
<g id="Node000008" class="node">
<title>Node8</title>
<g id="a_Node000008"><a xlink:href="Event_8hpp.html" target="_top" xlink:title=" ">
<polygon fill="white" stroke="#666666" points="398.5,-74 290.5,-74 290.5,-55 398.5,-55 398.5,-74"/>
<text text-anchor="middle" x="344.5" y="-62" font-family="Helvetica,sans-Serif" font-size="10.00">network/Event.hpp</text>
</a>
</g>
</g>
<!-- Node2&#45;&gt;Node8 -->
<g id="edge14_Node000002_Node000008" class="edge">
<title>Node2&#45;&gt;Node8</title>
<g id="a_edge14_Node000002_Node000008"><a xlink:title=" ">
<path fill="none" stroke="#63b8ff" d="M269.21,-164.66C282.85,-146.69 314.02,-105.64 331.68,-82.38"/>
<polygon fill="#63b8ff" stroke="#63b8ff" points="334.67,-84.24 337.93,-74.16 329.09,-80.01 334.67,-84.24"/>
</a>
</g>
</g>
<!-- Node5&#45;&gt;Node3 -->
<g id="edge6_Node000005_Node000003" class="edge">
<title>Node5&#45;&gt;Node3</title>
<g id="a_edge6_Node000005_Node000003"><a xlink:title=" ">
<path fill="none" stroke="#63b8ff" d="M181.7,-109.66C196.41,-91.61 230.09,-50.28 248.99,-27.08"/>
<polygon fill="#63b8ff" stroke="#63b8ff" points="251.84,-29.12 255.45,-19.16 246.41,-24.7 251.84,-29.12"/>
</a>
</g>
</g>
<!-- Node5&#45;&gt;Node4 -->
<g id="edge8_Node000005_Node000004" class="edge">
<title>Node5&#45;&gt;Node4</title>
<g id="a_edge8_Node000005_Node000004"><a xlink:title=" ">
<path fill="none" stroke="#63b8ff" d="M135.59,-109.96C112.11,-103.27 82.73,-92 61.5,-74 47.13,-61.82 36.76,-42.76 30.51,-28.7"/>
<polygon fill="#63b8ff" stroke="#63b8ff" points="33.61,-27.02 26.55,-19.12 27.14,-29.69 33.61,-27.02"/>
</a>
</g>
</g>
<!-- Node6 -->
<g id="Node000006" class="node">
<title>Node6</title>
<g id="a_Node000006"><a xlink:title=" ">
<polygon fill="#e0e0e0" stroke="#999999" points="196.5,-74 154.5,-74 154.5,-55 196.5,-55 196.5,-74"/>
<text text-anchor="middle" x="175.5" y="-62" font-family="Helvetica,sans-Serif" font-size="10.00">array</text>
</a>
</g>
</g>
<!-- Node5&#45;&gt;Node6 -->
<g id="edge5_Node000005_Node000006" class="edge">
<title>Node5&#45;&gt;Node6</title>
<g id="a_edge5_Node000005_Node000006"><a xlink:title=" ">
<path fill="none" stroke="#63b8ff" d="M174.67,-109.75C174.8,-102.8 174.98,-92.85 175.15,-84.13"/>
<polygon fill="#63b8ff" stroke="#63b8ff" points="178.65,-84.15 175.34,-74.09 171.65,-84.02 178.65,-84.15"/>
</a>
</g>
</g>
<!-- Node7 -->
<g id="Node000007" class="node">
<title>Node7</title>
<g id="a_Node000007"><a xlink:title=" ">
<polygon fill="#e0e0e0" stroke="#999999" points="136,-74 71,-74 71,-55 136,-55 136,-74"/>
<text text-anchor="middle" x="103.5" y="-62" font-family="Helvetica,sans-Serif" font-size="10.00">functional</text>
</a>
</g>
</g>
<!-- Node5&#45;&gt;Node7 -->
<g id="edge7_Node000005_Node000007" class="edge">
<title>Node5&#45;&gt;Node7</title>
<g id="a_edge7_Node000005_Node000007"><a xlink:title=" ">
<path fill="none" stroke="#63b8ff" d="M163.09,-109.98C152.39,-102 136.16,-89.88 123.34,-80.31"/>
<polygon fill="#63b8ff" stroke="#63b8ff" points="125.22,-77.35 115.11,-74.17 121.03,-82.96 125.22,-77.35"/>
</a>
</g>
</g>
<!-- Node5&#45;&gt;Node8 -->
<g id="edge9_Node000005_Node000008" class="edge">
<title>Node5&#45;&gt;Node8</title>
<g id="a_edge9_Node000005_Node000008"><a xlink:title=" ">
<path fill="none" stroke="#63b8ff" d="M201.81,-109.98C230.35,-101.09 275.33,-87.07 307.14,-77.15"/>
<polygon fill="#63b8ff" stroke="#63b8ff" points="308.47,-80.4 316.97,-74.08 306.38,-73.72 308.47,-80.4"/>
</a>
</g>
</g>
<!-- Node8&#45;&gt;Node3 -->
<g id="edge10_Node000008_Node000003" class="edge">
<title>Node8&#45;&gt;Node3</title>
<g id="a_edge10_Node000008_Node000003"><a xlink:title=" ">
<path fill="none" stroke="#63b8ff" d="M331.33,-54.98C318.73,-46.84 299.5,-34.41 284.56,-24.76"/>
<polygon fill="#63b8ff" stroke="#63b8ff" points="286.21,-21.66 275.91,-19.17 282.41,-27.54 286.21,-21.66"/>
</a>
</g>
</g>
<!-- Node8&#45;&gt;Node4 -->
<g id="edge13_Node000008_Node000004" class="edge">
<title>Node8&#45;&gt;Node4</title>
<g id="a_edge13_Node000008_Node000004"><a xlink:title=" ">
<path fill="none" stroke="#63b8ff" d="M292.93,-54.98C226.66,-44.04 113.49,-25.36 57.27,-16.08"/>
<polygon fill="#63b8ff" stroke="#63b8ff" points="57.57,-12.58 47.13,-14.4 56.43,-19.48 57.57,-12.58"/>
</a>
</g>
</g>
<!-- Node8&#45;&gt;Node9 -->
<g id="edge11_Node000008_Node000009" class="edge">
<title>Node8&#45;&gt;Node9</title>
<g id="a_edge11_Node000008_Node000009"><a xlink:title=" ">
<path fill="none" stroke="#63b8ff" d="M356.39,-54.98C367.65,-46.92 384.79,-34.65 398.21,-25.03"/>
<polygon fill="#63b8ff" stroke="#63b8ff" points="400.3,-27.84 406.39,-19.17 396.23,-22.15 400.3,-27.84"/>
</a>
</g>
</g>
<!-- Node10 -->
<g id="Node000010" class="node">
<title>Node10</title>
<g id="a_Node000010"><a xlink:title=" ">
<polygon fill="#e0e0e0" stroke="#999999" points="370,-19 319,-19 319,0 370,0 370,-19"/>
<text text-anchor="middle" x="344.5" y="-7" font-family="Helvetica,sans-Serif" font-size="10.00">variant</text>
</a>
</g>
</g>
<!-- Node8&#45;&gt;Node10 -->
<g id="edge12_Node000008_Node000010" class="edge">
<title>Node8&#45;&gt;Node10</title>
<g id="a_edge12_Node000008_Node000010"><a xlink:title=" ">
<path fill="none" stroke="#63b8ff" d="M344.5,-54.75C344.5,-47.8 344.5,-37.85 344.5,-29.13"/>
<polygon fill="#63b8ff" stroke="#63b8ff" points="348,-29.09 344.5,-19.09 341,-29.09 348,-29.09"/>
</a>
</g>
</g>
</g>
</svg>
