<?xml version="1.0" encoding="UTF-8" standalone="no"?>
<!DOCTYPE svg PUBLIC "-//W3C//DTD SVG 1.1//EN"
 "http://www.w3.org/Graphics/SVG/1.1/DTD/svg11.dtd">
<!-- Generated by graphviz version 2.43.0 (0)
 -->
<!-- Title: /home/runner/work/R&#45;Type/R&#45;Type/Shared/network/DecodeFunc.hpp Pages: 1 -->
<svg width="365pt" height="214pt"
 viewBox="0.00 0.00 364.50 214.00" xmlns="http://www.w3.org/2000/svg" xmlns:xlink="http://www.w3.org/1999/xlink">
<g id="graph0" class="graph" transform="scale(1 1) rotate(0) translate(4 210)">
<title>/home/runner/work/R&#45;Type/R&#45;Type/Shared/network/DecodeFunc.hpp</title>
<!-- Node1 -->
<g id="Node000001" class="node">
<title>Node1</title>
<g id="a_Node000001"><a xlink:title=" ">
<polygon fill="#999999" stroke="#666666" points="234.5,-206 91.5,-206 91.5,-165 234.5,-165 234.5,-206"/>
<text text-anchor="start" x="99.5" y="-194" font-family="Helvetica,sans-Serif" font-size="10.00">/home/runner/work/R</text>
<text text-anchor="start" x="99.5" y="-183" font-family="Helvetica,sans-Serif" font-size="10.00">&#45;Type/R&#45;Type/Shared</text>
<text text-anchor="middle" x="163" y="-172" font-family="Helvetica,sans-Serif" font-size="10.00">/network/DecodeFunc.hpp</text>
</a>
</g>
</g>
<!-- Node2 -->
<g id="Node000002" class="node">
<title>Node2</title>
<g id="a_Node000002"><a xlink:title=" ">
<polygon fill="#e0e0e0" stroke="#999999" points="50,-19 0,-19 0,0 50,0 50,-19"/>
<text text-anchor="middle" x="25" y="-7" font-family="Helvetica,sans-Serif" font-size="10.00">cstdint</text>
</a>
</g>
</g>
<!-- Node1&#45;&gt;Node2 -->
<g id="edge1_Node000001_Node000002" class="edge">
<title>Node1&#45;&gt;Node2</title>
<g id="a_edge1_Node000001_Node000002"><a xlink:title=" ">
<path fill="none" stroke="#63b8ff" d="M124.94,-164.82C93.17,-146.12 49.84,-114.82 29,-74 22.01,-60.3 21.44,-42.72 22.37,-29.54"/>
<polygon fill="#63b8ff" stroke="#63b8ff" points="25.89,-29.6 23.46,-19.28 18.92,-28.86 25.89,-29.6"/>
</a>
</g>
</g>
<!-- Node3 -->
<g id="Node000003" class="node">
<title>Node3</title>
<g id="a_Node000003"><a xlink:title=" ">
<polygon fill="#e0e0e0" stroke="#999999" points="356.5,-19 309.5,-19 309.5,0 356.5,0 356.5,-19"/>
<text text-anchor="middle" x="333" y="-7" font-family="Helvetica,sans-Serif" font-size="10.00">vector</text>
</a>
</g>
</g>
<!-- Node1&#45;&gt;Node3 -->
<g id="edge2_Node000001_Node000003" class="edge">
<title>Node1&#45;&gt;Node3</title>
<g id="a_edge2_Node000001_Node000003"><a xlink:title=" ">
<path fill="none" stroke="#63b8ff" d="M223.43,-164.96C263.82,-148.13 313.09,-119.27 333,-74 339.18,-59.95 338.64,-42.4 336.86,-29.32"/>
<polygon fill="#63b8ff" stroke="#63b8ff" points="340.26,-28.43 335.11,-19.16 333.36,-29.61 340.26,-28.43"/>
</a>
</g>
</g>
<!-- Node4 -->
<g id="Node000004" class="node">
<title>Node4</title>
<g id="a_Node000004"><a xlink:href="Decoder_8hpp.html" target="_top" xlink:title=" ">
<polygon fill="white" stroke="#666666" points="264,-129 144,-129 144,-110 264,-110 264,-129"/>
<text text-anchor="middle" x="204" y="-117" font-family="Helvetica,sans-Serif" font-size="10.00">network/Decoder.hpp</text>
</a>
</g>
</g>
<!-- Node1&#45;&gt;Node4 -->
<g id="edge3_Node000001_Node000004" class="edge">
<title>Node1&#45;&gt;Node4</title>
<g id="a_edge3_Node000001_Node000004"><a xlink:title=" ">
<path fill="none" stroke="#63b8ff" d="M175.52,-164.95C181.07,-156.3 187.53,-146.2 192.9,-137.82"/>
<polygon fill="#63b8ff" stroke="#63b8ff" points="195.94,-139.57 198.39,-129.26 190.05,-135.79 195.94,-139.57"/>
</a>
</g>
</g>
<!-- Node7 -->
<g id="Node000007" class="node">
<title>Node7</title>
<g id="a_Node000007"><a xlink:href="Event_8hpp.html" target="_top" xlink:title=" ">
<polygon fill="white" stroke="#666666" points="161,-74 53,-74 53,-55 161,-55 161,-74"/>
<text text-anchor="middle" x="107" y="-62" font-family="Helvetica,sans-Serif" font-size="10.00">network/Event.hpp</text>
</a>
</g>
</g>
<!-- Node1&#45;&gt;Node7 -->
<g id="edge13_Node000001_Node000007" class="edge">
<title>Node1&#45;&gt;Node7</title>
<g id="a_edge13_Node000001_Node000007"><a xlink:title=" ">
<path fill="none" stroke="#63b8ff" d="M152.77,-164.84C147.35,-154.28 140.67,-141 135,-129 127.84,-113.85 120.2,-96.42 114.71,-83.66"/>
<polygon fill="#63b8ff" stroke="#63b8ff" points="117.81,-82.01 110.66,-74.19 111.38,-84.76 117.81,-82.01"/>
</a>
</g>
</g>
<!-- Node4&#45;&gt;Node2 -->
<g id="edge5_Node000004_Node000002" class="edge">
<title>Node4&#45;&gt;Node2</title>
<g id="a_edge5_Node000004_Node000002"><a xlink:title=" ">
<path fill="none" stroke="#63b8ff" d="M143.76,-115.63C110.35,-110.97 70.35,-99.84 44,-74 32.07,-62.3 27.56,-43.45 25.89,-29.32"/>
<polygon fill="#63b8ff" stroke="#63b8ff" points="29.37,-28.91 25.08,-19.23 22.39,-29.48 29.37,-28.91"/>
</a>
</g>
</g>
<!-- Node4&#45;&gt;Node3 -->
<g id="edge7_Node000004_Node000003" class="edge">
<title>Node4&#45;&gt;Node3</title>
<g id="a_edge7_Node000004_Node000003"><a xlink:title=" ">
<path fill="none" stroke="#63b8ff" d="M248.96,-109.96C271.3,-103.56 297.08,-92.58 314,-74 325.14,-61.77 329.76,-43.25 331.67,-29.36"/>
<polygon fill="#63b8ff" stroke="#63b8ff" points="335.19,-29.33 332.72,-19.03 328.23,-28.62 335.19,-29.33"/>
</a>
</g>
</g>
<!-- Node5 -->
<g id="Node000005" class="node">
<title>Node5</title>
<g id="a_Node000005"><a xlink:title=" ">
<polygon fill="#e0e0e0" stroke="#999999" points="305,-74 263,-74 263,-55 305,-55 305,-74"/>
<text text-anchor="middle" x="284" y="-62" font-family="Helvetica,sans-Serif" font-size="10.00">array</text>
</a>
</g>
</g>
<!-- Node4&#45;&gt;Node5 -->
<g id="edge4_Node000004_Node000005" class="edge">
<title>Node4&#45;&gt;Node5</title>
<g id="a_edge4_Node000004_Node000005"><a xlink:title=" ">
<path fill="none" stroke="#63b8ff" d="M216.85,-109.98C229.14,-101.84 247.91,-89.41 262.48,-79.76"/>
<polygon fill="#63b8ff" stroke="#63b8ff" points="264.51,-82.61 270.91,-74.17 260.64,-76.78 264.51,-82.61"/>
</a>
</g>
</g>
<!-- Node6 -->
<g id="Node000006" class="node">
<title>Node6</title>
<g id="a_Node000006"><a xlink:title=" ">
<polygon fill="#e0e0e0" stroke="#999999" points="244.5,-74 179.5,-74 179.5,-55 244.5,-55 244.5,-74"/>
<text text-anchor="middle" x="212" y="-62" font-family="Helvetica,sans-Serif" font-size="10.00">functional</text>
</a>
</g>
</g>
<!-- Node4&#45;&gt;Node6 -->
<g id="edge6_Node000004_Node000006" class="edge">
<title>Node4&#45;&gt;Node6</title>
<g id="a_edge6_Node000004_Node000006"><a xlink:title=" ">
<path fill="none" stroke="#63b8ff" d="M205.32,-109.75C206.37,-102.8 207.87,-92.85 209.19,-84.13"/>
<polygon fill="#63b8ff" stroke="#63b8ff" points="212.67,-84.5 210.7,-74.09 205.75,-83.45 212.67,-84.5"/>
</a>
</g>
</g>
<!-- Node4&#45;&gt;Node7 -->
<g id="edge8_Node000004_Node000007" class="edge">
<title>Node4&#45;&gt;Node7</title>
<g id="a_edge8_Node000004_Node000007"><a xlink:title=" ">
<path fill="none" stroke="#63b8ff" d="M188.42,-109.98C173.23,-101.69 149.9,-88.94 132.1,-79.22"/>
<polygon fill="#63b8ff" stroke="#63b8ff" points="133.32,-75.89 122.87,-74.17 129.97,-82.04 133.32,-75.89"/>
</a>
</g>
</g>
<!-- Node7&#45;&gt;Node2 -->
<g id="edge9_Node000007_Node000002" class="edge">
<title>Node7&#45;&gt;Node2</title>
<g id="a_edge9_Node000007_Node000002"><a xlink:title=" ">
<path fill="none" stroke="#63b8ff" d="M93.83,-54.98C81.23,-46.84 62,-34.41 47.06,-24.76"/>
<polygon fill="#63b8ff" stroke="#63b8ff" points="48.71,-21.66 38.41,-19.17 44.91,-27.54 48.71,-21.66"/>
</a>
</g>
</g>
<!-- Node7&#45;&gt;Node3 -->
<g id="edge12_Node000007_Node000003" class="edge">
<title>Node7&#45;&gt;Node3</title>
<g id="a_edge12_Node000007_Node000003"><a xlink:title=" ">
<path fill="none" stroke="#63b8ff" d="M143.31,-54.98C186.33,-44.9 257.43,-28.22 299.28,-18.41"/>
<polygon fill="#63b8ff" stroke="#63b8ff" points="300.32,-21.76 309.26,-16.07 298.72,-14.94 300.32,-21.76"/>
</a>
</g>
</g>
<!-- Node8 -->
<g id="Node000008" class="node">
<title>Node8</title>
<g id="a_Node000008"><a xlink:title=" ">
<polygon fill="#e0e0e0" stroke="#999999" points="189,-19 145,-19 145,0 189,0 189,-19"/>
<text text-anchor="middle" x="167" y="-7" font-family="Helvetica,sans-Serif" font-size="10.00">string</text>
</a>
</g>
</g>
<!-- Node7&#45;&gt;Node8 -->
<g id="edge10_Node000007_Node000008" class="edge">
<title>Node7&#45;&gt;Node8</title>
<g id="a_edge10_Node000007_Node000008"><a xlink:title=" ">
<path fill="none" stroke="#63b8ff" d="M116.64,-54.98C125.51,-47.15 138.87,-35.34 149.61,-25.86"/>
<polygon fill="#63b8ff" stroke="#63b8ff" points="152.01,-28.41 157.18,-19.17 147.37,-23.17 152.01,-28.41"/>
</a>
</g>
</g>
<!-- Node9 -->
<g id="Node000009" class="node">
<title>Node9</title>
<g id="a_Node000009"><a xlink:title=" ">
<polygon fill="#e0e0e0" stroke="#999999" points="126.5,-19 75.5,-19 75.5,0 126.5,0 126.5,-19"/>
<text text-anchor="middle" x="101" y="-7" font-family="Helvetica,sans-Serif" font-size="10.00">variant</text>
</a>
</g>
</g>
<!-- Node7&#45;&gt;Node9 -->
<g id="edge11_Node000007_Node000009" class="edge">
<title>Node7&#45;&gt;Node9</title>
<g id="a_edge11_Node000007_Node000009"><a xlink:title=" ">
<path fill="none" stroke="#63b8ff" d="M106.01,-54.75C105.22,-47.8 104.1,-37.85 103.11,-29.13"/>
<polygon fill="#63b8ff" stroke="#63b8ff" points="106.58,-28.63 101.97,-19.09 99.62,-29.42 106.58,-28.63"/>
</a>
</g>
</g>
</g>
</svg>
