<?xml version="1.0" encoding="UTF-8" standalone="no"?>
<!DOCTYPE svg PUBLIC "-//W3C//DTD SVG 1.1//EN"
 "http://www.w3.org/Graphics/SVG/1.1/DTD/svg11.dtd">
<!-- Generated by graphviz version 2.43.0 (0)
 -->
<!-- Title: /home/runner/work/R&#45;Type/R&#45;Type/Shared/network/DecodeFunc.hpp Pages: 1 -->
<svg width="645pt" height="368pt"
 viewBox="0.00 0.00 644.50 368.00" xmlns="http://www.w3.org/2000/svg" xmlns:xlink="http://www.w3.org/1999/xlink">
<g id="graph0" class="graph" transform="scale(1 1) rotate(0) translate(4 364)">
<title>/home/runner/work/R&#45;Type/R&#45;Type/Shared/network/DecodeFunc.hpp</title>
<!-- Node1 -->
<g id="Node000001" class="node">
<title>Node1</title>
<g id="a_Node000001"><a xlink:title=" ">
<polygon fill="#999999" stroke="#666666" points="481,-360 338,-360 338,-319 481,-319 481,-360"/>
<text text-anchor="start" x="346" y="-348" font-family="Helvetica,sans-Serif" font-size="10.00">/home/runner/work/R</text>
<text text-anchor="start" x="346" y="-337" font-family="Helvetica,sans-Serif" font-size="10.00">&#45;Type/R&#45;Type/Shared</text>
<text text-anchor="middle" x="409.5" y="-326" font-family="Helvetica,sans-Serif" font-size="10.00">/network/DecodeFunc.hpp</text>
</a>
</g>
</g>
<!-- Node2 -->
<g id="Node000002" class="node">
<title>Node2</title>
<g id="a_Node000002"><a xlink:href="ServerGame_8hpp.html" target="_top" xlink:title=" ">
<polygon fill="white" stroke="#666666" points="197.5,-118 57.5,-118 57.5,-77 197.5,-77 197.5,-118"/>
<text text-anchor="start" x="65.5" y="-106" font-family="Helvetica,sans-Serif" font-size="10.00">/home/runner/work/R</text>
<text text-anchor="start" x="65.5" y="-95" font-family="Helvetica,sans-Serif" font-size="10.00">&#45;Type/R&#45;Type/Server</text>
<text text-anchor="middle" x="127.5" y="-84" font-family="Helvetica,sans-Serif" font-size="10.00">/include/ServerGame.hpp</text>
</a>
</g>
</g>
<!-- Node1&#45;&gt;Node2 -->
<g id="edge1_Node000001_Node000002" class="edge">
<title>Node1&#45;&gt;Node2</title>
<g id="a_edge1_Node000001_Node000002"><a xlink:title=" ">
<path fill="none" stroke="#63b8ff" d="M327.57,-330.25C251.02,-317.66 141.04,-285.92 89.5,-206 71.58,-178.22 93.21,-140.94 110.42,-118.37"/>
<polygon fill="#63b8ff" stroke="#63b8ff" points="327.25,-333.74 337.67,-331.83 328.34,-326.83 327.25,-333.74"/>
</a>
</g>
</g>
<!-- Node5 -->
<g id="Node000005" class="node">
<title>Node5</title>
<g id="a_Node000005"><a xlink:href="TCPServer_8hpp.html" target="_top" xlink:title=" ">
<polygon fill="white" stroke="#666666" points="438.5,-283 268.5,-283 268.5,-242 438.5,-242 438.5,-283"/>
<text text-anchor="start" x="276.5" y="-271" font-family="Helvetica,sans-Serif" font-size="10.00">/home/runner/work/R</text>
<text text-anchor="start" x="276.5" y="-260" font-family="Helvetica,sans-Serif" font-size="10.00">&#45;Type/R&#45;Type/Server</text>
<text text-anchor="middle" x="353.5" y="-249" font-family="Helvetica,sans-Serif" font-size="10.00">/include/network/TCPServer.hpp</text>
</a>
</g>
</g>
<!-- Node1&#45;&gt;Node5 -->
<g id="edge4_Node000001_Node000005" class="edge">
<title>Node1&#45;&gt;Node5</title>
<g id="a_edge4_Node000001_Node000005"><a xlink:title=" ">
<path fill="none" stroke="#63b8ff" d="M388.72,-310.67C381.87,-301.5 374.4,-291.5 368.12,-283.07"/>
<polygon fill="#63b8ff" stroke="#63b8ff" points="386,-312.88 394.79,-318.79 391.61,-308.69 386,-312.88"/>
</a>
</g>
</g>
<!-- Node7 -->
<g id="Node000007" class="node">
<title>Node7</title>
<g id="a_Node000007"><a xlink:href="ServerNetworkManager_8cpp.html" target="_top" xlink:title=" ">
<polygon fill="white" stroke="#666666" points="502,-118 287,-118 287,-77 502,-77 502,-118"/>
<text text-anchor="start" x="295" y="-106" font-family="Helvetica,sans-Serif" font-size="10.00">/home/runner/work/R</text>
<text text-anchor="start" x="295" y="-95" font-family="Helvetica,sans-Serif" font-size="10.00">&#45;Type/R&#45;Type/Server</text>
<text text-anchor="middle" x="394.5" y="-84" font-family="Helvetica,sans-Serif" font-size="10.00">/src/network/ServerNetworkManager.cpp</text>
</a>
</g>
</g>
<!-- Node1&#45;&gt;Node7 -->
<g id="edge9_Node000001_Node000007" class="edge">
<title>Node1&#45;&gt;Node7</title>
<g id="a_edge9_Node000001_Node000007"><a xlink:title=" ">
<path fill="none" stroke="#63b8ff" d="M433.27,-310.73C439.07,-302.35 444.48,-292.77 447.5,-283 464.45,-228.23 468.83,-207.22 447.5,-154 441.9,-140.03 430.92,-127.57 420.39,-118.02"/>
<polygon fill="#63b8ff" stroke="#63b8ff" points="430.3,-308.86 427.17,-318.98 435.93,-313.02 430.3,-308.86"/>
</a>
</g>
</g>
<!-- Node9 -->
<g id="Node000009" class="node">
<title>Node9</title>
<g id="a_Node000009"><a xlink:href="DecodeFunc_8cpp.html" target="_top" xlink:title=" ">
<polygon fill="white" stroke="#666666" points="636.5,-283 494.5,-283 494.5,-242 636.5,-242 636.5,-283"/>
<text text-anchor="start" x="502.5" y="-271" font-family="Helvetica,sans-Serif" font-size="10.00">/home/runner/work/R</text>
<text text-anchor="start" x="502.5" y="-260" font-family="Helvetica,sans-Serif" font-size="10.00">&#45;Type/R&#45;Type/Shared</text>
<text text-anchor="middle" x="565.5" y="-249" font-family="Helvetica,sans-Serif" font-size="10.00">/network/DecodeFunc.cpp</text>
</a>
</g>
</g>
<!-- Node1&#45;&gt;Node9 -->
<g id="edge10_Node000001_Node000009" class="edge">
<title>Node1&#45;&gt;Node9</title>
<g id="a_edge10_Node000001_Node000009"><a xlink:title=" ">
<path fill="none" stroke="#63b8ff" d="M459.24,-314.59C480.41,-304.41 504.79,-292.69 524.85,-283.04"/>
<polygon fill="#63b8ff" stroke="#63b8ff" points="457.58,-311.5 450.08,-318.99 460.61,-317.81 457.58,-311.5"/>
</a>
</g>
</g>
<!-- Node3 -->
<g id="Node000003" class="node">
<title>Node3</title>
<g id="a_Node000003"><a xlink:href="ServerGame_8cpp.html" target="_top" xlink:title=" ">
<polygon fill="white" stroke="#666666" points="119,-41 0,-41 0,0 119,0 119,-41"/>
<text text-anchor="start" x="8" y="-29" font-family="Helvetica,sans-Serif" font-size="10.00">/home/runner/work/R</text>
<text text-anchor="start" x="8" y="-18" font-family="Helvetica,sans-Serif" font-size="10.00">&#45;Type/R&#45;Type/Server</text>
<text text-anchor="middle" x="59.5" y="-7" font-family="Helvetica,sans-Serif" font-size="10.00">/src/ServerGame.cpp</text>
</a>
</g>
</g>
<!-- Node2&#45;&gt;Node3 -->
<g id="edge2_Node000002_Node000003" class="edge">
<title>Node2&#45;&gt;Node3</title>
<g id="a_edge2_Node000002_Node000003"><a xlink:title=" ">
<path fill="none" stroke="#63b8ff" d="M102.78,-69.23C94.32,-59.91 85.04,-49.67 77.25,-41.07"/>
<polygon fill="#63b8ff" stroke="#63b8ff" points="100.32,-71.74 109.63,-76.79 105.51,-67.04 100.32,-71.74"/>
</a>
</g>
</g>
<!-- Node4 -->
<g id="Node000004" class="node">
<title>Node4</title>
<g id="a_Node000004"><a xlink:href="main_8cpp.html" target="_top" xlink:title=" ">
<polygon fill="white" stroke="#666666" points="256,-41 137,-41 137,0 256,0 256,-41"/>
<text text-anchor="start" x="145" y="-29" font-family="Helvetica,sans-Serif" font-size="10.00">/home/runner/work/R</text>
<text text-anchor="start" x="145" y="-18" font-family="Helvetica,sans-Serif" font-size="10.00">&#45;Type/R&#45;Type/Server</text>
<text text-anchor="middle" x="196.5" y="-7" font-family="Helvetica,sans-Serif" font-size="10.00">/src/main.cpp</text>
</a>
</g>
</g>
<!-- Node2&#45;&gt;Node4 -->
<g id="edge3_Node000002_Node000004" class="edge">
<title>Node2&#45;&gt;Node4</title>
<g id="a_edge3_Node000002_Node000004"><a xlink:title=" ">
<path fill="none" stroke="#63b8ff" d="M152.59,-69.23C161.16,-59.91 170.58,-49.67 178.49,-41.07"/>
<polygon fill="#63b8ff" stroke="#63b8ff" points="149.82,-67.07 145.63,-76.79 154.98,-71.81 149.82,-67.07"/>
</a>
</g>
</g>
<!-- Node6 -->
<g id="Node000006" class="node">
<title>Node6</title>
<g id="a_Node000006"><a xlink:href="ServerNetworkManager_8hpp.html" target="_top" xlink:title=" ">
<polygon fill="white" stroke="#666666" points="272,-206 99,-206 99,-154 272,-154 272,-206"/>
<text text-anchor="start" x="107" y="-194" font-family="Helvetica,sans-Serif" font-size="10.00">/home/runner/work/R</text>
<text text-anchor="start" x="107" y="-183" font-family="Helvetica,sans-Serif" font-size="10.00">&#45;Type/R&#45;Type/Server</text>
<text text-anchor="start" x="107" y="-172" font-family="Helvetica,sans-Serif" font-size="10.00">/include/network/ServerNetwork</text>
<text text-anchor="middle" x="185.5" y="-161" font-family="Helvetica,sans-Serif" font-size="10.00">Manager.hpp</text>
</a>
</g>
</g>
<!-- Node5&#45;&gt;Node6 -->
<g id="edge5_Node000005_Node000006" class="edge">
<title>Node5&#45;&gt;Node6</title>
<g id="a_edge5_Node000005_Node000006"><a xlink:title=" ">
<path fill="none" stroke="#63b8ff" d="M303.19,-237.39C282.59,-227.52 258.75,-216.1 237.94,-206.13"/>
<polygon fill="#63b8ff" stroke="#63b8ff" points="301.87,-240.64 312.4,-241.81 304.9,-234.33 301.87,-240.64"/>
</a>
</g>
</g>
<!-- Node8 -->
<g id="Node000008" class="node">
<title>Node8</title>
<g id="a_Node000008"><a xlink:href="TCPServer_8cpp.html" target="_top" xlink:title=" ">
<polygon fill="white" stroke="#666666" points="439,-200.5 290,-200.5 290,-159.5 439,-159.5 439,-200.5"/>
<text text-anchor="start" x="298" y="-188.5" font-family="Helvetica,sans-Serif" font-size="10.00">/home/runner/work/R</text>
<text text-anchor="start" x="298" y="-177.5" font-family="Helvetica,sans-Serif" font-size="10.00">&#45;Type/R&#45;Type/Server</text>
<text text-anchor="middle" x="364.5" y="-166.5" font-family="Helvetica,sans-Serif" font-size="10.00">/src/network/TCPServer.cpp</text>
</a>
</g>
</g>
<!-- Node5&#45;&gt;Node8 -->
<g id="edge8_Node000005_Node000008" class="edge">
<title>Node5&#45;&gt;Node8</title>
<g id="a_edge8_Node000005_Node000008"><a xlink:title=" ">
<path fill="none" stroke="#63b8ff" d="M357.57,-231.69C358.99,-221.34 360.54,-210 361.81,-200.67"/>
<polygon fill="#63b8ff" stroke="#63b8ff" points="354.11,-231.22 356.22,-241.6 361.04,-232.17 354.11,-231.22"/>
</a>
</g>
</g>
<!-- Node6&#45;&gt;Node2 -->
<g id="edge6_Node000006_Node000002" class="edge">
<title>Node6&#45;&gt;Node2</title>
<g id="a_edge6_Node000006_Node000002"><a xlink:title=" ">
<path fill="none" stroke="#63b8ff" d="M161.43,-145.6C154.7,-136.25 147.61,-126.41 141.65,-118.15"/>
<polygon fill="#63b8ff" stroke="#63b8ff" points="158.78,-147.9 167.47,-153.97 164.46,-143.81 158.78,-147.9"/>
</a>
</g>
</g>
<!-- Node6&#45;&gt;Node7 -->
<g id="edge7_Node000006_Node000007" class="edge">
<title>Node6&#45;&gt;Node7</title>
<g id="a_edge7_Node000006_Node000007"><a xlink:title=" ">
<path fill="none" stroke="#63b8ff" d="M260.16,-150.24C287.91,-139.56 318.72,-127.69 343.83,-118.02"/>
<polygon fill="#63b8ff" stroke="#63b8ff" points="258.56,-147.11 250.48,-153.97 261.07,-153.64 258.56,-147.11"/>
</a>
</g>
</g>
</g>
</svg>
