<?xml version="1.0" encoding="UTF-8" standalone="no"?>
<!DOCTYPE svg PUBLIC "-//W3C//DTD SVG 1.1//EN"
 "http://www.w3.org/Graphics/SVG/1.1/DTD/svg11.dtd">
<!-- Generated by graphviz version 2.43.0 (0)
 -->
<!-- Title: /home/runner/work/R&#45;Type/R&#45;Type/Shared/network/Decoder.hpp Pages: 1 -->
<svg width="1852pt" height="467pt"
 viewBox="0.00 0.00 1852.00 467.00" xmlns="http://www.w3.org/2000/svg" xmlns:xlink="http://www.w3.org/1999/xlink">
<g id="graph0" class="graph" transform="scale(1 1) rotate(0) translate(4 463)">
<title>/home/runner/work/R&#45;Type/R&#45;Type/Shared/network/Decoder.hpp</title>
<!-- Node1 -->
<g id="Node000001" class="node">
<title>Node1</title>
<g id="a_Node000001"><a xlink:title=" ">
<polygon fill="#999999" stroke="#666666" points="1395.5,-459 1272.5,-459 1272.5,-418 1395.5,-418 1395.5,-459"/>
<text text-anchor="start" x="1280.5" y="-447" font-family="Helvetica,sans-Serif" font-size="10.00">/home/runner/work/R</text>
<text text-anchor="start" x="1280.5" y="-436" font-family="Helvetica,sans-Serif" font-size="10.00">&#45;Type/R&#45;Type/Shared</text>
<text text-anchor="middle" x="1334" y="-425" font-family="Helvetica,sans-Serif" font-size="10.00">/network/Decoder.hpp</text>
</a>
</g>
</g>
<!-- Node2 -->
<g id="Node000002" class="node">
<title>Node2</title>
<g id="a_Node000002"><a xlink:href="NetworkManager_8hpp.html" target="_top" xlink:title=" ">
<polygon fill="white" stroke="#666666" points="1055.5,-382 904.5,-382 904.5,-330 1055.5,-330 1055.5,-382"/>
<text text-anchor="start" x="912.5" y="-370" font-family="Helvetica,sans-Serif" font-size="10.00">/home/runner/work/R</text>
<text text-anchor="start" x="912.5" y="-359" font-family="Helvetica,sans-Serif" font-size="10.00">&#45;Type/R&#45;Type/Client</text>
<text text-anchor="start" x="912.5" y="-348" font-family="Helvetica,sans-Serif" font-size="10.00">/src/engine/network/include</text>
<text text-anchor="middle" x="980" y="-337" font-family="Helvetica,sans-Serif" font-size="10.00">/NetworkManager.hpp</text>
</a>
</g>
</g>
<!-- Node1&#45;&gt;Node2 -->
<g id="edge1_Node000001_Node000002" class="edge">
<title>Node1&#45;&gt;Node2</title>
<g id="a_edge1_Node000001_Node000002"><a xlink:title=" ">
<path fill="none" stroke="#63b8ff" d="M1262.56,-421.25C1202.51,-407.6 1116.94,-388.14 1055.72,-374.22"/>
<polygon fill="#63b8ff" stroke="#63b8ff" points="1261.81,-424.67 1272.34,-423.48 1263.36,-417.85 1261.81,-424.67"/>
</a>
</g>
</g>
<!-- Node16 -->
<g id="Node000016" class="node">
<title>Node16</title>
<g id="a_Node000016"><a xlink:href="DecodeFunc_8hpp.html" target="_top" xlink:title=" ">
<polygon fill="white" stroke="#666666" points="1405.5,-376.5 1262.5,-376.5 1262.5,-335.5 1405.5,-335.5 1405.5,-376.5"/>
<text text-anchor="start" x="1270.5" y="-364.5" font-family="Helvetica,sans-Serif" font-size="10.00">/home/runner/work/R</text>
<text text-anchor="start" x="1270.5" y="-353.5" font-family="Helvetica,sans-Serif" font-size="10.00">&#45;Type/R&#45;Type/Shared</text>
<text text-anchor="middle" x="1334" y="-342.5" font-family="Helvetica,sans-Serif" font-size="10.00">/network/DecodeFunc.hpp</text>
</a>
</g>
</g>
<!-- Node1&#45;&gt;Node16 -->
<g id="edge28_Node000001_Node000016" class="edge">
<title>Node1&#45;&gt;Node16</title>
<g id="a_edge28_Node000001_Node000016"><a xlink:title=" ">
<path fill="none" stroke="#63b8ff" d="M1334,-407.37C1334,-397.1 1334,-385.9 1334,-376.67"/>
<polygon fill="#63b8ff" stroke="#63b8ff" points="1330.5,-407.6 1334,-417.6 1337.5,-407.6 1330.5,-407.6"/>
</a>
</g>
</g>
<!-- Node25 -->
<g id="Node000025" class="node">
<title>Node25</title>
<g id="a_Node000025"><a xlink:href="Decoder_8cpp.html" target="_top" xlink:title=" ">
<polygon fill="white" stroke="#666666" points="1546,-376.5 1424,-376.5 1424,-335.5 1546,-335.5 1546,-376.5"/>
<text text-anchor="start" x="1432" y="-364.5" font-family="Helvetica,sans-Serif" font-size="10.00">/home/runner/work/R</text>
<text text-anchor="start" x="1432" y="-353.5" font-family="Helvetica,sans-Serif" font-size="10.00">&#45;Type/R&#45;Type/Shared</text>
<text text-anchor="middle" x="1485" y="-342.5" font-family="Helvetica,sans-Serif" font-size="10.00">/network/Decoder.cpp</text>
</a>
</g>
</g>
<!-- Node1&#45;&gt;Node25 -->
<g id="edge40_Node000001_Node000025" class="edge">
<title>Node1&#45;&gt;Node25</title>
<g id="a_edge40_Node000001_Node000025"><a xlink:title=" ">
<path fill="none" stroke="#63b8ff" d="M1380.04,-412.96C1401.89,-401.31 1427.65,-387.57 1448.18,-376.63"/>
<polygon fill="#63b8ff" stroke="#63b8ff" points="1378.12,-410.01 1370.94,-417.81 1381.41,-416.19 1378.12,-410.01"/>
</a>
</g>
</g>
<!-- Node3 -->
<g id="Node000003" class="node">
<title>Node3</title>
<g id="a_Node000003"><a xlink:href="GameEngine_8hpp.html" target="_top" xlink:title=" ">
<polygon fill="white" stroke="#666666" points="665,-200.5 509,-200.5 509,-159.5 665,-159.5 665,-200.5"/>
<text text-anchor="start" x="517" y="-188.5" font-family="Helvetica,sans-Serif" font-size="10.00">/home/runner/work/R</text>
<text text-anchor="start" x="517" y="-177.5" font-family="Helvetica,sans-Serif" font-size="10.00">&#45;Type/R&#45;Type/Client</text>
<text text-anchor="middle" x="587" y="-166.5" font-family="Helvetica,sans-Serif" font-size="10.00">/src/engine/GameEngine.hpp</text>
</a>
</g>
</g>
<!-- Node2&#45;&gt;Node3 -->
<g id="edge2_Node000002_Node000003" class="edge">
<title>Node2&#45;&gt;Node3</title>
<g id="a_edge2_Node000002_Node000003"><a xlink:title=" ">
<path fill="none" stroke="#63b8ff" d="M894.01,-346.18C812.9,-336.52 698.35,-319.01 661,-294 626.9,-271.17 604.84,-226.75 594.3,-200.92"/>
<polygon fill="#63b8ff" stroke="#63b8ff" points="893.89,-349.69 904.23,-347.38 894.7,-342.74 893.89,-349.69"/>
</a>
</g>
</g>
<!-- Node11 -->
<g id="Node000011" class="node">
<title>Node11</title>
<g id="a_Node000011"><a xlink:href="InputSystem_8cpp.html" target="_top" xlink:title=" ">
<polygon fill="white" stroke="#666666" points="1074,-288.5 886,-288.5 886,-247.5 1074,-247.5 1074,-288.5"/>
<text text-anchor="start" x="894" y="-276.5" font-family="Helvetica,sans-Serif" font-size="10.00">/home/runner/work/R</text>
<text text-anchor="start" x="894" y="-265.5" font-family="Helvetica,sans-Serif" font-size="10.00">&#45;Type/R&#45;Type/Client</text>
<text text-anchor="middle" x="980" y="-254.5" font-family="Helvetica,sans-Serif" font-size="10.00">/src/engine/inputs/InputSystem.cpp</text>
</a>
</g>
</g>
<!-- Node2&#45;&gt;Node11 -->
<g id="edge14_Node000002_Node000011" class="edge">
<title>Node2&#45;&gt;Node11</title>
<g id="a_edge14_Node000002_Node000011"><a xlink:title=" ">
<path fill="none" stroke="#63b8ff" d="M980,-319.45C980,-308.94 980,-297.82 980,-288.7"/>
<polygon fill="#63b8ff" stroke="#63b8ff" points="976.5,-319.66 980,-329.66 983.5,-319.66 976.5,-319.66"/>
</a>
</g>
</g>
<!-- Node12 -->
<g id="Node000012" class="node">
<title>Node12</title>
<g id="a_Node000012"><a xlink:href="NetworkManager_8cpp.html" target="_top" xlink:title=" ">
<polygon fill="white" stroke="#666666" points="1249.5,-294 1092.5,-294 1092.5,-242 1249.5,-242 1249.5,-294"/>
<text text-anchor="start" x="1100.5" y="-282" font-family="Helvetica,sans-Serif" font-size="10.00">/home/runner/work/R</text>
<text text-anchor="start" x="1100.5" y="-271" font-family="Helvetica,sans-Serif" font-size="10.00">&#45;Type/R&#45;Type/Client</text>
<text text-anchor="start" x="1100.5" y="-260" font-family="Helvetica,sans-Serif" font-size="10.00">/src/engine/network/Network</text>
<text text-anchor="middle" x="1171" y="-249" font-family="Helvetica,sans-Serif" font-size="10.00">Manager.cpp</text>
</a>
</g>
</g>
<!-- Node2&#45;&gt;Node12 -->
<g id="edge15_Node000002_Node000012" class="edge">
<title>Node2&#45;&gt;Node12</title>
<g id="a_edge15_Node000002_Node000012"><a xlink:title=" ">
<path fill="none" stroke="#63b8ff" d="M1045.02,-325.73C1067.81,-315.46 1093.2,-304.03 1115.17,-294.14"/>
<polygon fill="#63b8ff" stroke="#63b8ff" points="1043.44,-322.6 1035.76,-329.89 1046.31,-328.98 1043.44,-322.6"/>
</a>
</g>
</g>
<!-- Node13 -->
<g id="Node000013" class="node">
<title>Node13</title>
<g id="a_Node000013"><a xlink:href="SceneManager_8hpp.html" target="_top" xlink:title=" ">
<polygon fill="white" stroke="#666666" points="867.5,-288.5 670.5,-288.5 670.5,-247.5 867.5,-247.5 867.5,-288.5"/>
<text text-anchor="start" x="678.5" y="-276.5" font-family="Helvetica,sans-Serif" font-size="10.00">/home/runner/work/R</text>
<text text-anchor="start" x="678.5" y="-265.5" font-family="Helvetica,sans-Serif" font-size="10.00">&#45;Type/R&#45;Type/Client</text>
<text text-anchor="middle" x="769" y="-254.5" font-family="Helvetica,sans-Serif" font-size="10.00">/src/engine/scene/SceneManager.hpp</text>
</a>
</g>
</g>
<!-- Node2&#45;&gt;Node13 -->
<g id="edge16_Node000002_Node000013" class="edge">
<title>Node2&#45;&gt;Node13</title>
<g id="a_edge16_Node000002_Node000013"><a xlink:title=" ">
<path fill="none" stroke="#63b8ff" d="M909.14,-326.12C878.8,-313.75 844.17,-299.64 816.92,-288.53"/>
<polygon fill="#63b8ff" stroke="#63b8ff" points="907.82,-329.36 918.4,-329.89 910.46,-322.88 907.82,-329.36"/>
</a>
</g>
</g>
<!-- Node4 -->
<g id="Node000004" class="node">
<title>Node4</title>
<g id="a_Node000004"><a xlink:href="Main_8cpp.html" target="_top" xlink:title=" ">
<polygon fill="white" stroke="#666666" points="738.5,-41 619.5,-41 619.5,0 738.5,0 738.5,-41"/>
<text text-anchor="start" x="627.5" y="-29" font-family="Helvetica,sans-Serif" font-size="10.00">/home/runner/work/R</text>
<text text-anchor="start" x="627.5" y="-18" font-family="Helvetica,sans-Serif" font-size="10.00">&#45;Type/R&#45;Type/Client</text>
<text text-anchor="middle" x="679" y="-7" font-family="Helvetica,sans-Serif" font-size="10.00">/src/Main.cpp</text>
</a>
</g>
</g>
<!-- Node3&#45;&gt;Node4 -->
<g id="edge3_Node000003_Node000004" class="edge">
<title>Node3&#45;&gt;Node4</title>
<g id="a_edge3_Node000003_Node000004"><a xlink:title=" ">
<path fill="none" stroke="#63b8ff" d="M498.7,-171.37C388.68,-160.95 212.66,-140.93 193,-118 181.14,-104.16 180.87,-90.6 193,-77 220.95,-45.67 495.71,-29.63 619.31,-23.95"/>
<polygon fill="#63b8ff" stroke="#63b8ff" points="498.52,-174.87 508.8,-172.32 499.17,-167.9 498.52,-174.87"/>
</a>
</g>
</g>
<!-- Node5 -->
<g id="Node000005" class="node">
<title>Node5</title>
<g id="a_Node000005"><a xlink:href="GameEngine_8cpp.html" target="_top" xlink:title=" ">
<polygon fill="white" stroke="#666666" points="357.5,-118 202.5,-118 202.5,-77 357.5,-77 357.5,-118"/>
<text text-anchor="start" x="210.5" y="-106" font-family="Helvetica,sans-Serif" font-size="10.00">/home/runner/work/R</text>
<text text-anchor="start" x="210.5" y="-95" font-family="Helvetica,sans-Serif" font-size="10.00">&#45;Type/R&#45;Type/Client</text>
<text text-anchor="middle" x="280" y="-84" font-family="Helvetica,sans-Serif" font-size="10.00">/src/engine/GameEngine.cpp</text>
</a>
</g>
</g>
<!-- Node3&#45;&gt;Node5 -->
<g id="edge4_Node000003_Node000005" class="edge">
<title>Node3&#45;&gt;Node5</title>
<g id="a_edge4_Node000003_Node000005"><a xlink:title=" ">
<path fill="none" stroke="#63b8ff" d="M502.57,-156.86C456.2,-144.7 399.21,-129.76 354.51,-118.04"/>
<polygon fill="#63b8ff" stroke="#63b8ff" points="501.73,-160.26 512.29,-159.41 503.51,-153.49 501.73,-160.26"/>
</a>
</g>
</g>
<!-- Node6 -->
<g id="Node000006" class="node">
<title>Node6</title>
<g id="a_Node000006"><a xlink:href="SceneManager_8cpp.html" target="_top" xlink:title=" ">
<polygon fill="white" stroke="#666666" points="1044,-118 848,-118 848,-77 1044,-77 1044,-118"/>
<text text-anchor="start" x="856" y="-106" font-family="Helvetica,sans-Serif" font-size="10.00">/home/runner/work/R</text>
<text text-anchor="start" x="856" y="-95" font-family="Helvetica,sans-Serif" font-size="10.00">&#45;Type/R&#45;Type/Client</text>
<text text-anchor="middle" x="946" y="-84" font-family="Helvetica,sans-Serif" font-size="10.00">/src/engine/scene/SceneManager.cpp</text>
</a>
</g>
</g>
<!-- Node3&#45;&gt;Node6 -->
<g id="edge5_Node000003_Node000006" class="edge">
<title>Node3&#45;&gt;Node6</title>
<g id="a_edge5_Node000003_Node000006"><a xlink:title=" ">
<path fill="none" stroke="#63b8ff" d="M675.24,-159.21C731.2,-146.66 803.3,-130.5 859.02,-118"/>
<polygon fill="#63b8ff" stroke="#63b8ff" points="674.33,-155.83 665.34,-161.43 675.86,-162.66 674.33,-155.83"/>
</a>
</g>
</g>
<!-- Node7 -->
<g id="Node000007" class="node">
<title>Node7</title>
<g id="a_Node000007"><a xlink:href="JoinGame_8hpp.html" target="_top" xlink:title=" ">
<polygon fill="white" stroke="#666666" points="830,-118 688,-118 688,-77 830,-77 830,-118"/>
<text text-anchor="start" x="696" y="-106" font-family="Helvetica,sans-Serif" font-size="10.00">/home/runner/work/R</text>
<text text-anchor="start" x="696" y="-95" font-family="Helvetica,sans-Serif" font-size="10.00">&#45;Type/R&#45;Type/Client</text>
<text text-anchor="middle" x="759" y="-84" font-family="Helvetica,sans-Serif" font-size="10.00">/src/scenes/JoinGame.hpp</text>
</a>
</g>
</g>
<!-- Node3&#45;&gt;Node7 -->
<g id="edge6_Node000003_Node000007" class="edge">
<title>Node3&#45;&gt;Node7</title>
<g id="a_edge6_Node000003_Node000007"><a xlink:title=" ">
<path fill="none" stroke="#63b8ff" d="M638.44,-154.92C663.55,-143.17 693.36,-129.22 717.06,-118.13"/>
<polygon fill="#63b8ff" stroke="#63b8ff" points="636.65,-151.9 629.08,-159.31 639.62,-158.24 636.65,-151.9"/>
</a>
</g>
</g>
<!-- Node8 -->
<g id="Node000008" class="node">
<title>Node8</title>
<g id="a_Node000008"><a xlink:href="MainMenu_8hpp.html" target="_top" xlink:title=" ">
<polygon fill="white" stroke="#666666" points="146,-118 0,-118 0,-77 146,-77 146,-118"/>
<text text-anchor="start" x="8" y="-106" font-family="Helvetica,sans-Serif" font-size="10.00">/home/runner/work/R</text>
<text text-anchor="start" x="8" y="-95" font-family="Helvetica,sans-Serif" font-size="10.00">&#45;Type/R&#45;Type/Client</text>
<text text-anchor="middle" x="73" y="-84" font-family="Helvetica,sans-Serif" font-size="10.00">/src/scenes/MainMenu.hpp</text>
</a>
</g>
</g>
<!-- Node3&#45;&gt;Node8 -->
<g id="edge8_Node000003_Node000008" class="edge">
<title>Node3&#45;&gt;Node8</title>
<g id="a_edge8_Node000003_Node000008"><a xlink:title=" ">
<path fill="none" stroke="#63b8ff" d="M498.74,-168.45C412.16,-157.61 276.55,-139.35 160,-118 155.43,-117.16 150.74,-116.25 146.02,-115.3"/>
<polygon fill="#63b8ff" stroke="#63b8ff" points="498.43,-171.94 508.78,-169.7 499.29,-164.99 498.43,-171.94"/>
</a>
</g>
</g>
<!-- Node9 -->
<g id="Node000009" class="node">
<title>Node9</title>
<g id="a_Node000009"><a xlink:href="Options_8hpp.html" target="_top" xlink:title=" ">
<polygon fill="white" stroke="#666666" points="508,-118 376,-118 376,-77 508,-77 508,-118"/>
<text text-anchor="start" x="384" y="-106" font-family="Helvetica,sans-Serif" font-size="10.00">/home/runner/work/R</text>
<text text-anchor="start" x="384" y="-95" font-family="Helvetica,sans-Serif" font-size="10.00">&#45;Type/R&#45;Type/Client</text>
<text text-anchor="middle" x="442" y="-84" font-family="Helvetica,sans-Serif" font-size="10.00">/src/scenes/Options.hpp</text>
</a>
</g>
</g>
<!-- Node3&#45;&gt;Node9 -->
<g id="edge10_Node000003_Node000009" class="edge">
<title>Node3&#45;&gt;Node9</title>
<g id="a_edge10_Node000003_Node000009"><a xlink:title=" ">
<path fill="none" stroke="#63b8ff" d="M542.51,-154.3C521.59,-142.68 496.98,-129.02 477.36,-118.13"/>
<polygon fill="#63b8ff" stroke="#63b8ff" points="541.09,-157.51 551.53,-159.31 544.48,-151.39 541.09,-157.51"/>
</a>
</g>
</g>
<!-- Node10 -->
<g id="Node000010" class="node">
<title>Node10</title>
<g id="a_Node000010"><a xlink:href="WaitLobby_8hpp.html" target="_top" xlink:title=" ">
<polygon fill="white" stroke="#666666" points="670,-118 526,-118 526,-77 670,-77 670,-118"/>
<text text-anchor="start" x="534" y="-106" font-family="Helvetica,sans-Serif" font-size="10.00">/home/runner/work/R</text>
<text text-anchor="start" x="534" y="-95" font-family="Helvetica,sans-Serif" font-size="10.00">&#45;Type/R&#45;Type/Client</text>
<text text-anchor="middle" x="598" y="-84" font-family="Helvetica,sans-Serif" font-size="10.00">/src/scenes/WaitLobby.hpp</text>
</a>
</g>
</g>
<!-- Node3&#45;&gt;Node10 -->
<g id="edge12_Node000003_Node000010" class="edge">
<title>Node3&#45;&gt;Node10</title>
<g id="a_edge12_Node000003_Node000010"><a xlink:title=" ">
<path fill="none" stroke="#63b8ff" d="M591.07,-149.19C592.49,-138.84 594.04,-127.5 595.31,-118.17"/>
<polygon fill="#63b8ff" stroke="#63b8ff" points="587.61,-148.72 589.72,-159.1 594.54,-149.67 587.61,-148.72"/>
</a>
</g>
</g>
<!-- Node7&#45;&gt;Node4 -->
<g id="edge7_Node000007_Node000004" class="edge">
<title>Node7&#45;&gt;Node4</title>
<g id="a_edge7_Node000007_Node000004"><a xlink:title=" ">
<path fill="none" stroke="#63b8ff" d="M730.51,-69.79C720.41,-60.32 709.23,-49.84 699.88,-41.07"/>
<polygon fill="#63b8ff" stroke="#63b8ff" points="728.29,-72.51 737.98,-76.79 733.08,-67.4 728.29,-72.51"/>
</a>
</g>
</g>
<!-- Node8&#45;&gt;Node4 -->
<g id="edge9_Node000008_Node000004" class="edge">
<title>Node8&#45;&gt;Node4</title>
<g id="a_edge9_Node000008_Node000004"><a xlink:title=" ">
<path fill="none" stroke="#63b8ff" d="M156.66,-77.56C157.78,-77.37 158.89,-77.18 160,-77 325.18,-49.75 522.25,-32.92 619.16,-25.67"/>
<polygon fill="#63b8ff" stroke="#63b8ff" points="155.67,-74.19 146.46,-79.42 156.92,-81.07 155.67,-74.19"/>
</a>
</g>
</g>
<!-- Node9&#45;&gt;Node4 -->
<g id="edge11_Node000009_Node000004" class="edge">
<title>Node9&#45;&gt;Node4</title>
<g id="a_edge11_Node000009_Node000004"><a xlink:title=" ">
<path fill="none" stroke="#63b8ff" d="M513.47,-73.88C547.26,-63.19 587.14,-50.57 619.3,-40.39"/>
<polygon fill="#63b8ff" stroke="#63b8ff" points="512.13,-70.64 503.65,-76.99 514.24,-77.31 512.13,-70.64"/>
</a>
</g>
</g>
<!-- Node10&#45;&gt;Node4 -->
<g id="edge13_Node000010_Node000004" class="edge">
<title>Node10&#45;&gt;Node4</title>
<g id="a_edge13_Node000010_Node000004"><a xlink:title=" ">
<path fill="none" stroke="#63b8ff" d="M626.85,-69.79C637.08,-60.32 648.39,-49.84 657.86,-41.07"/>
<polygon fill="#63b8ff" stroke="#63b8ff" points="624.24,-67.43 619.28,-76.79 629,-72.57 624.24,-67.43"/>
</a>
</g>
</g>
<!-- Node13&#45;&gt;Node3 -->
<g id="edge18_Node000013_Node000003" class="edge">
<title>Node13&#45;&gt;Node3</title>
<g id="a_edge18_Node000013_Node000003"><a xlink:title=" ">
<path fill="none" stroke="#63b8ff" d="M718.36,-243.07C690.03,-229.68 655.15,-213.2 628.45,-200.59"/>
<polygon fill="#63b8ff" stroke="#63b8ff" points="717.16,-246.38 727.7,-247.49 720.16,-240.05 717.16,-246.38"/>
</a>
</g>
</g>
<!-- Node13&#45;&gt;Node4 -->
<g id="edge17_Node000013_Node000004" class="edge">
<title>Node13&#45;&gt;Node4</title>
<g id="a_edge17_Node000013_Node000004"><a xlink:title=" ">
<path fill="none" stroke="#63b8ff" d="M817.15,-242.55C835.86,-232.23 857.06,-219.48 875,-206 901.64,-185.99 900.16,-170.69 929,-154 978.67,-125.26 1018.54,-163.89 1053,-118 1063.94,-103.43 1064.9,-90.8 1053,-77 1013.13,-30.77 833.76,-22.42 738.65,-21.31"/>
<polygon fill="#63b8ff" stroke="#63b8ff" points="815.31,-239.57 808.2,-247.42 818.66,-245.72 815.31,-239.57"/>
</a>
</g>
</g>
<!-- Node13&#45;&gt;Node6 -->
<g id="edge19_Node000013_Node000006" class="edge">
<title>Node13&#45;&gt;Node6</title>
<g id="a_edge19_Node000013_Node000006"><a xlink:title=" ">
<path fill="none" stroke="#63b8ff" d="M797.32,-240.04C833.11,-205.97 893.85,-148.14 925.48,-118.03"/>
<polygon fill="#63b8ff" stroke="#63b8ff" points="794.48,-237.91 789.65,-247.34 799.31,-242.98 794.48,-237.91"/>
</a>
</g>
</g>
<!-- Node13&#45;&gt;Node7 -->
<g id="edge22_Node000013_Node000007" class="edge">
<title>Node13&#45;&gt;Node7</title>
<g id="a_edge22_Node000013_Node000007"><a xlink:title=" ">
<path fill="none" stroke="#63b8ff" d="M767.22,-236.97C765.18,-202.59 761.89,-147.26 760.16,-118.03"/>
<polygon fill="#63b8ff" stroke="#63b8ff" points="763.75,-237.57 767.83,-247.34 770.73,-237.15 763.75,-237.57"/>
</a>
</g>
</g>
<!-- Node13&#45;&gt;Node8 -->
<g id="edge25_Node000013_Node000008" class="edge">
<title>Node13&#45;&gt;Node8</title>
<g id="a_edge25_Node000013_Node000008"><a xlink:title=" ">
<path fill="none" stroke="#63b8ff" d="M670.41,-245.23C619.47,-233.83 556.32,-219.47 500,-206 375.47,-176.21 231.1,-139.38 146.16,-117.48"/>
<polygon fill="#63b8ff" stroke="#63b8ff" points="669.91,-248.7 680.43,-247.47 671.44,-241.87 669.91,-248.7"/>
</a>
</g>
</g>
<!-- Node13&#45;&gt;Node9 -->
<g id="edge26_Node000013_Node000009" class="edge">
<title>Node13&#45;&gt;Node9</title>
<g id="a_edge26_Node000013_Node000009"><a xlink:title=" ">
<path fill="none" stroke="#63b8ff" d="M739,-240.16C728.35,-229.95 716.62,-217.91 707,-206 689.8,-184.71 696.35,-169.8 674,-154 615.54,-112.68 586.54,-135.01 517,-118 514.12,-117.3 511.19,-116.57 508.23,-115.83"/>
<polygon fill="#63b8ff" stroke="#63b8ff" points="736.84,-242.93 746.52,-247.23 741.64,-237.83 736.84,-242.93"/>
</a>
</g>
</g>
<!-- Node13&#45;&gt;Node10 -->
<g id="edge27_Node000013_Node000010" class="edge">
<title>Node13&#45;&gt;Node10</title>
<g id="a_edge27_Node000013_Node000010"><a xlink:title=" ">
<path fill="none" stroke="#63b8ff" d="M758.54,-237.52C748.51,-212.69 731.29,-177.55 707,-154 691.37,-138.85 670.79,-126.93 651.72,-118.09"/>
<polygon fill="#63b8ff" stroke="#63b8ff" points="755.4,-239.09 762.28,-247.14 761.92,-236.55 755.4,-239.09"/>
</a>
</g>
</g>
<!-- Node14 -->
<g id="Node000014" class="node">
<title>Node14</title>
<g id="a_Node000014"><a xlink:href="GameOver_8hpp.html" target="_top" xlink:title=" ">
<polygon fill="white" stroke="#666666" points="1084,-200.5 938,-200.5 938,-159.5 1084,-159.5 1084,-200.5"/>
<text text-anchor="start" x="946" y="-188.5" font-family="Helvetica,sans-Serif" font-size="10.00">/home/runner/work/R</text>
<text text-anchor="start" x="946" y="-177.5" font-family="Helvetica,sans-Serif" font-size="10.00">&#45;Type/R&#45;Type/Client</text>
<text text-anchor="middle" x="1011" y="-166.5" font-family="Helvetica,sans-Serif" font-size="10.00">/src/scenes/GameOver.hpp</text>
</a>
</g>
</g>
<!-- Node13&#45;&gt;Node14 -->
<g id="edge20_Node000013_Node000014" class="edge">
<title>Node13&#45;&gt;Node14</title>
<g id="a_edge20_Node000013_Node000014"><a xlink:title=" ">
<path fill="none" stroke="#63b8ff" d="M833.4,-244.11C871.58,-230.55 919.46,-213.53 955.89,-200.59"/>
<polygon fill="#63b8ff" stroke="#63b8ff" points="832.16,-240.84 823.91,-247.49 834.51,-247.43 832.16,-240.84"/>
</a>
</g>
</g>
<!-- Node15 -->
<g id="Node000015" class="node">
<title>Node15</title>
<g id="a_Node000015"><a xlink:href="MainGame_8hpp.html" target="_top" xlink:title=" ">
<polygon fill="white" stroke="#666666" points="1250,-200.5 1102,-200.5 1102,-159.5 1250,-159.5 1250,-200.5"/>
<text text-anchor="start" x="1110" y="-188.5" font-family="Helvetica,sans-Serif" font-size="10.00">/home/runner/work/R</text>
<text text-anchor="start" x="1110" y="-177.5" font-family="Helvetica,sans-Serif" font-size="10.00">&#45;Type/R&#45;Type/Client</text>
<text text-anchor="middle" x="1176" y="-166.5" font-family="Helvetica,sans-Serif" font-size="10.00">/src/scenes/MainGame.hpp</text>
</a>
</g>
</g>
<!-- Node13&#45;&gt;Node15 -->
<g id="edge23_Node000013_Node000015" class="edge">
<title>Node13&#45;&gt;Node15</title>
<g id="a_edge23_Node000013_Node000015"><a xlink:title=" ">
<path fill="none" stroke="#63b8ff" d="M860.76,-245.35C866.25,-244.18 871.69,-243.06 877,-242 972.45,-223.02 998.21,-228.08 1093,-206 1099.89,-204.4 1107.05,-202.54 1114.14,-200.57"/>
<polygon fill="#63b8ff" stroke="#63b8ff" points="859.89,-241.96 850.85,-247.49 861.36,-248.8 859.89,-241.96"/>
</a>
</g>
</g>
<!-- Node14&#45;&gt;Node4 -->
<g id="edge21_Node000014_Node000004" class="edge">
<title>Node14&#45;&gt;Node4</title>
<g id="a_edge21_Node000014_Node000004"><a xlink:title=" ">
<path fill="none" stroke="#63b8ff" d="M1055.49,-153.33C1067.66,-143.9 1079.32,-132.04 1086,-118 1093.83,-101.54 1097.98,-90.73 1086,-77 1063.52,-51.25 846.37,-32.93 738.79,-25.37"/>
<polygon fill="#63b8ff" stroke="#63b8ff" points="1053.08,-150.76 1047.04,-159.46 1057.19,-156.42 1053.08,-150.76"/>
</a>
</g>
</g>
<!-- Node15&#45;&gt;Node4 -->
<g id="edge24_Node000015_Node000004" class="edge">
<title>Node15&#45;&gt;Node4</title>
<g id="a_edge24_Node000015_Node000004"><a xlink:title=" ">
<path fill="none" stroke="#63b8ff" d="M1163.78,-150.21C1152.08,-126.43 1132.05,-93.93 1104,-77 1043.8,-40.67 840.84,-27.73 738.72,-23.45"/>
<polygon fill="#63b8ff" stroke="#63b8ff" points="1160.72,-151.92 1168.14,-159.48 1167.05,-148.94 1160.72,-151.92"/>
</a>
</g>
</g>
<!-- Node16&#45;&gt;Node12 -->
<g id="edge29_Node000016_Node000012" class="edge">
<title>Node16&#45;&gt;Node12</title>
<g id="a_edge29_Node000016_Node000012"><a xlink:title=" ">
<path fill="none" stroke="#63b8ff" d="M1288.01,-330.74C1266.36,-319.31 1240.55,-305.69 1218.68,-294.16"/>
<polygon fill="#63b8ff" stroke="#63b8ff" points="1286.54,-333.91 1297.01,-335.49 1289.8,-327.72 1286.54,-333.91"/>
</a>
</g>
</g>
<!-- Node17 -->
<g id="Node000017" class="node">
<title>Node17</title>
<g id="a_Node000017"><a xlink:href="ServerGame_8hpp.html" target="_top" xlink:title=" ">
<polygon fill="white" stroke="#666666" points="1448,-118 1308,-118 1308,-77 1448,-77 1448,-118"/>
<text text-anchor="start" x="1316" y="-106" font-family="Helvetica,sans-Serif" font-size="10.00">/home/runner/work/R</text>
<text text-anchor="start" x="1316" y="-95" font-family="Helvetica,sans-Serif" font-size="10.00">&#45;Type/R&#45;Type/Server</text>
<text text-anchor="middle" x="1378" y="-84" font-family="Helvetica,sans-Serif" font-size="10.00">/include/ServerGame.hpp</text>
</a>
</g>
</g>
<!-- Node16&#45;&gt;Node17 -->
<g id="edge30_Node000016_Node000017" class="edge">
<title>Node16&#45;&gt;Node17</title>
<g id="a_edge30_Node000016_Node000017"><a xlink:title=" ">
<path fill="none" stroke="#63b8ff" d="M1312.55,-326.86C1306.26,-317 1300.22,-305.51 1297,-294 1280.25,-234.08 1267.99,-209.05 1297,-154 1305.03,-138.77 1319.33,-126.92 1333.7,-118.15"/>
<polygon fill="#63b8ff" stroke="#63b8ff" points="1309.82,-329.08 1318.32,-335.41 1315.63,-325.17 1309.82,-329.08"/>
</a>
</g>
</g>
<!-- Node20 -->
<g id="Node000020" class="node">
<title>Node20</title>
<g id="a_Node000020"><a xlink:href="TCPServer_8hpp.html" target="_top" xlink:title=" ">
<polygon fill="white" stroke="#666666" points="1476,-288.5 1306,-288.5 1306,-247.5 1476,-247.5 1476,-288.5"/>
<text text-anchor="start" x="1314" y="-276.5" font-family="Helvetica,sans-Serif" font-size="10.00">/home/runner/work/R</text>
<text text-anchor="start" x="1314" y="-265.5" font-family="Helvetica,sans-Serif" font-size="10.00">&#45;Type/R&#45;Type/Server</text>
<text text-anchor="middle" x="1391" y="-254.5" font-family="Helvetica,sans-Serif" font-size="10.00">/include/network/TCPServer.hpp</text>
</a>
</g>
</g>
<!-- Node16&#45;&gt;Node20 -->
<g id="edge33_Node000016_Node000020" class="edge">
<title>Node16&#45;&gt;Node20</title>
<g id="a_edge33_Node000016_Node000020"><a xlink:title=" ">
<path fill="none" stroke="#63b8ff" d="M1352.68,-326.82C1360.93,-314.37 1370.44,-300.02 1377.92,-288.74"/>
<polygon fill="#63b8ff" stroke="#63b8ff" points="1349.54,-325.22 1346.93,-335.49 1355.38,-329.08 1349.54,-325.22"/>
</a>
</g>
</g>
<!-- Node22 -->
<g id="Node000022" class="node">
<title>Node22</title>
<g id="a_Node000022"><a xlink:href="ServerNetworkManager_8cpp.html" target="_top" xlink:title=" ">
<polygon fill="white" stroke="#666666" points="1731.5,-118 1516.5,-118 1516.5,-77 1731.5,-77 1731.5,-118"/>
<text text-anchor="start" x="1524.5" y="-106" font-family="Helvetica,sans-Serif" font-size="10.00">/home/runner/work/R</text>
<text text-anchor="start" x="1524.5" y="-95" font-family="Helvetica,sans-Serif" font-size="10.00">&#45;Type/R&#45;Type/Server</text>
<text text-anchor="middle" x="1624" y="-84" font-family="Helvetica,sans-Serif" font-size="10.00">/src/network/ServerNetworkManager.cpp</text>
</a>
</g>
</g>
<!-- Node16&#45;&gt;Node22 -->
<g id="edge38_Node000016_Node000022" class="edge">
<title>Node16&#45;&gt;Node22</title>
<g id="a_edge38_Node000016_Node000022"><a xlink:title=" ">
<path fill="none" stroke="#63b8ff" d="M1405.6,-332.16C1491.51,-303.1 1627.48,-251.23 1655,-206 1671.86,-178.29 1653.53,-140.98 1638.75,-118.4"/>
<polygon fill="#63b8ff" stroke="#63b8ff" points="1404.26,-328.92 1395.9,-335.42 1406.49,-335.55 1404.26,-328.92"/>
</a>
</g>
</g>
<!-- Node24 -->
<g id="Node000024" class="node">
<title>Node24</title>
<g id="a_Node000024"><a xlink:href="DecodeFunc_8cpp.html" target="_top" xlink:title=" ">
<polygon fill="white" stroke="#666666" points="1844,-288.5 1702,-288.5 1702,-247.5 1844,-247.5 1844,-288.5"/>
<text text-anchor="start" x="1710" y="-276.5" font-family="Helvetica,sans-Serif" font-size="10.00">/home/runner/work/R</text>
<text text-anchor="start" x="1710" y="-265.5" font-family="Helvetica,sans-Serif" font-size="10.00">&#45;Type/R&#45;Type/Shared</text>
<text text-anchor="middle" x="1773" y="-254.5" font-family="Helvetica,sans-Serif" font-size="10.00">/network/DecodeFunc.cpp</text>
</a>
</g>
</g>
<!-- Node16&#45;&gt;Node24 -->
<g id="edge39_Node000016_Node000024" class="edge">
<title>Node16&#45;&gt;Node24</title>
<g id="a_edge39_Node000016_Node000024"><a xlink:title=" ">
<path fill="none" stroke="#63b8ff" d="M1403.26,-332.79C1407.21,-331.78 1411.15,-330.84 1415,-330 1534.56,-303.86 1568.27,-319.34 1688,-294 1695.37,-292.44 1703.04,-290.56 1710.61,-288.54"/>
<polygon fill="#63b8ff" stroke="#63b8ff" points="1402.17,-329.46 1393.41,-335.42 1403.98,-336.22 1402.17,-329.46"/>
</a>
</g>
</g>
<!-- Node18 -->
<g id="Node000018" class="node">
<title>Node18</title>
<g id="a_Node000018"><a xlink:href="ServerGame_8cpp.html" target="_top" xlink:title=" ">
<polygon fill="white" stroke="#666666" points="1505.5,-41 1386.5,-41 1386.5,0 1505.5,0 1505.5,-41"/>
<text text-anchor="start" x="1394.5" y="-29" font-family="Helvetica,sans-Serif" font-size="10.00">/home/runner/work/R</text>
<text text-anchor="start" x="1394.5" y="-18" font-family="Helvetica,sans-Serif" font-size="10.00">&#45;Type/R&#45;Type/Server</text>
<text text-anchor="middle" x="1446" y="-7" font-family="Helvetica,sans-Serif" font-size="10.00">/src/ServerGame.cpp</text>
</a>
</g>
</g>
<!-- Node17&#45;&gt;Node18 -->
<g id="edge31_Node000017_Node000018" class="edge">
<title>Node17&#45;&gt;Node18</title>
<g id="a_edge31_Node000017_Node000018"><a xlink:title=" ">
<path fill="none" stroke="#63b8ff" d="M1402.72,-69.23C1411.18,-59.91 1420.46,-49.67 1428.25,-41.07"/>
<polygon fill="#63b8ff" stroke="#63b8ff" points="1399.99,-67.04 1395.87,-76.79 1405.18,-71.74 1399.99,-67.04"/>
</a>
</g>
</g>
<!-- Node19 -->
<g id="Node000019" class="node">
<title>Node19</title>
<g id="a_Node000019"><a xlink:href="main_8cpp.html" target="_top" xlink:title=" ">
<polygon fill="white" stroke="#666666" points="1368.5,-41 1249.5,-41 1249.5,0 1368.5,0 1368.5,-41"/>
<text text-anchor="start" x="1257.5" y="-29" font-family="Helvetica,sans-Serif" font-size="10.00">/home/runner/work/R</text>
<text text-anchor="start" x="1257.5" y="-18" font-family="Helvetica,sans-Serif" font-size="10.00">&#45;Type/R&#45;Type/Server</text>
<text text-anchor="middle" x="1309" y="-7" font-family="Helvetica,sans-Serif" font-size="10.00">/src/main.cpp</text>
</a>
</g>
</g>
<!-- Node17&#45;&gt;Node19 -->
<g id="edge32_Node000017_Node000019" class="edge">
<title>Node17&#45;&gt;Node19</title>
<g id="a_edge32_Node000017_Node000019"><a xlink:title=" ">
<path fill="none" stroke="#63b8ff" d="M1352.91,-69.23C1344.34,-59.91 1334.92,-49.67 1327.01,-41.07"/>
<polygon fill="#63b8ff" stroke="#63b8ff" points="1350.52,-71.81 1359.87,-76.79 1355.68,-67.07 1350.52,-71.81"/>
</a>
</g>
</g>
<!-- Node21 -->
<g id="Node000021" class="node">
<title>Node21</title>
<g id="a_Node000021"><a xlink:href="ServerNetworkManager_8hpp.html" target="_top" xlink:title=" ">
<polygon fill="white" stroke="#666666" points="1645.5,-206 1472.5,-206 1472.5,-154 1645.5,-154 1645.5,-206"/>
<text text-anchor="start" x="1480.5" y="-194" font-family="Helvetica,sans-Serif" font-size="10.00">/home/runner/work/R</text>
<text text-anchor="start" x="1480.5" y="-183" font-family="Helvetica,sans-Serif" font-size="10.00">&#45;Type/R&#45;Type/Server</text>
<text text-anchor="start" x="1480.5" y="-172" font-family="Helvetica,sans-Serif" font-size="10.00">/include/network/ServerNetwork</text>
<text text-anchor="middle" x="1559" y="-161" font-family="Helvetica,sans-Serif" font-size="10.00">Manager.hpp</text>
</a>
</g>
</g>
<!-- Node20&#45;&gt;Node21 -->
<g id="edge34_Node000020_Node000021" class="edge">
<title>Node20&#45;&gt;Node21</title>
<g id="a_edge34_Node000020_Node000021"><a xlink:title=" ">
<path fill="none" stroke="#63b8ff" d="M1438.1,-242.89C1460.48,-231.43 1487.22,-217.74 1509.86,-206.16"/>
<polygon fill="#63b8ff" stroke="#63b8ff" points="1436.43,-239.81 1429.12,-247.49 1439.62,-246.04 1436.43,-239.81"/>
</a>
</g>
</g>
<!-- Node23 -->
<g id="Node000023" class="node">
<title>Node23</title>
<g id="a_Node000023"><a xlink:href="TCPServer_8cpp.html" target="_top" xlink:title=" ">
<polygon fill="white" stroke="#666666" points="1454.5,-200.5 1305.5,-200.5 1305.5,-159.5 1454.5,-159.5 1454.5,-200.5"/>
<text text-anchor="start" x="1313.5" y="-188.5" font-family="Helvetica,sans-Serif" font-size="10.00">/home/runner/work/R</text>
<text text-anchor="start" x="1313.5" y="-177.5" font-family="Helvetica,sans-Serif" font-size="10.00">&#45;Type/R&#45;Type/Server</text>
<text text-anchor="middle" x="1380" y="-166.5" font-family="Helvetica,sans-Serif" font-size="10.00">/src/network/TCPServer.cpp</text>
</a>
</g>
</g>
<!-- Node20&#45;&gt;Node23 -->
<g id="edge37_Node000020_Node000023" class="edge">
<title>Node20&#45;&gt;Node23</title>
<g id="a_edge37_Node000020_Node000023"><a xlink:title=" ">
<path fill="none" stroke="#63b8ff" d="M1387.21,-237.36C1385.66,-225.26 1383.91,-211.58 1382.52,-200.74"/>
<polygon fill="#63b8ff" stroke="#63b8ff" points="1383.76,-238.01 1388.5,-247.49 1390.71,-237.12 1383.76,-238.01"/>
</a>
</g>
</g>
<!-- Node21&#45;&gt;Node17 -->
<g id="edge35_Node000021_Node000017" class="edge">
<title>Node21&#45;&gt;Node17</title>
<g id="a_edge35_Node000021_Node000017"><a xlink:title=" ">
<path fill="none" stroke="#63b8ff" d="M1493.4,-149.82C1469.62,-139.25 1443.34,-127.56 1421.88,-118.02"/>
<polygon fill="#63b8ff" stroke="#63b8ff" points="1492.16,-153.1 1502.72,-153.97 1495.01,-146.71 1492.16,-153.1"/>
</a>
</g>
</g>
<!-- Node21&#45;&gt;Node22 -->
<g id="edge36_Node000021_Node000022" class="edge">
<title>Node21&#45;&gt;Node22</title>
<g id="a_edge36_Node000021_Node000022"><a xlink:title=" ">
<path fill="none" stroke="#63b8ff" d="M1585.51,-146.17C1593.19,-136.66 1601.33,-126.58 1608.14,-118.15"/>
<polygon fill="#63b8ff" stroke="#63b8ff" points="1582.77,-143.99 1579.21,-153.97 1588.22,-148.39 1582.77,-143.99"/>
</a>
</g>
</g>
</g>
</svg>
