<?xml version="1.0" encoding="UTF-8" standalone="no"?>
<!DOCTYPE svg PUBLIC "-//W3C//DTD SVG 1.1//EN"
 "http://www.w3.org/Graphics/SVG/1.1/DTD/svg11.dtd">
<!-- Generated by graphviz version 2.43.0 (0)
 -->
<!-- Title: /home/runner/work/R&#45;Type/R&#45;Type/Client/src/engine Pages: 1 -->
<svg width="304pt" height="290pt"
 viewBox="0.00 0.00 303.71 290.00" xmlns="http://www.w3.org/2000/svg" xmlns:xlink="http://www.w3.org/1999/xlink">
<g id="graph0" class="graph" transform="scale(1 1) rotate(0) translate(4 286)">
<title>/home/runner/work/R&#45;Type/R&#45;Type/Client/src/engine</title>
<g id="clust1" class="cluster">
<title>clusterdir_71db3c9ac669ad0e48d6cd88f7e1e924</title>
<g id="a_clust1"><a xlink:href="dir_71db3c9ac669ad0e48d6cd88f7e1e924.html" target="_top" xlink:title="src">
<polygon fill="#edf0f7" stroke="#7f7f7f" stroke-dasharray="5,2" points="8,-39 8,-274 278,-274 278,-39 8,-39"/>
<text text-anchor="middle" x="143" y="-262" font-family="Helvetica,sans-Serif" font-size="10.00">src</text>
</a>
</g>
</g>
<g id="clust2" class="cluster">
<title>clusterdir_a19b4824e974c71d59ae4ca735096dff</title>
<g id="a_clust2"><a xlink:href="dir_a19b4824e974c71d59ae4ca735096dff.html" target="_top">
<polygon fill="#edf0f7" stroke="#404040" stroke-width="2" points="16,-47 16,-247 270,-247 270,-47 16,-47"/>
</a>
</g>
</g>
<!-- dir_a19b4824e974c71d59ae4ca735096dff -->
<g id="node1" class="node">
<title>dir_a19b4824e974c71d59ae4ca735096dff</title>
<text text-anchor="middle" x="167" y="-227" font-family="Helvetica,sans-Serif" font-size="10.00">engine</text>
</g>
<!-- dir_ab71f7a991687443350cd4cabf249295 -->
<g id="node2" class="node">
<title>dir_ab71f7a991687443350cd4cabf249295</title>
<g id="a_node2"><a xlink:href="dir_ab71f7a991687443350cd4cabf249295.html" target="_top" xlink:title="audio">
<polygon fill="#a2b4d6" stroke="#404040" points="88,-129 44,-129 44,-110 88,-110 88,-129"/>
<text text-anchor="middle" x="66" y="-117" font-family="Helvetica,sans-Serif" font-size="10.00">audio</text>
</a>
</g>
</g>
<!-- dir_a19b4824e974c71d59ae4ca735096dff&#45;&gt;dir_ab71f7a991687443350cd4cabf249295 -->
<g id="edge5" class="edge">
<title>dir_a19b4824e974c71d59ae4ca735096dff&#45;&gt;dir_ab71f7a991687443350cd4cabf249295</title>
<g id="a_edge5"><a xlink:href="dir_000006_000000.html" target="_top">
<path fill="none" stroke="#63b8ff" d="M145.37,-219.91C129.11,-212.5 107.26,-200.4 93,-184 81.71,-171.02 74.59,-152.62 70.52,-138.96"/>
<polygon fill="#63b8ff" stroke="#63b8ff" points="73.87,-137.96 67.88,-129.23 67.11,-139.79 73.87,-137.96"/>
</a>
</g>
<g id="a_edge5&#45;headlabel"><a xlink:href="dir_000006_000000.html" target="_top" xlink:title="2">
<text text-anchor="middle" x="77.55" y="-138.19" font-family="Helvetica,sans-Serif" font-size="10.00" fill="#63b8ff">2</text>
</a>
</g>
</g>
<!-- dir_64944a549c24e7180c12dd28351c77bb -->
<g id="node3" class="node">
<title>dir_64944a549c24e7180c12dd28351c77bb</title>
<g id="a_node3"><a xlink:href="dir_64944a549c24e7180c12dd28351c77bb.html" target="_top" xlink:title="graphics">
<polygon fill="#a2b4d6" stroke="#404040" points="150,-74 92,-74 92,-55 150,-55 150,-74"/>
<text text-anchor="middle" x="121" y="-62" font-family="Helvetica,sans-Serif" font-size="10.00">graphics</text>
</a>
</g>
</g>
<!-- dir_a19b4824e974c71d59ae4ca735096dff&#45;&gt;dir_64944a549c24e7180c12dd28351c77bb -->
<g id="edge3" class="edge">
<title>dir_a19b4824e974c71d59ae4ca735096dff&#45;&gt;dir_64944a549c24e7180c12dd28351c77bb</title>
<g id="a_edge3"><a xlink:href="dir_000006_000007.html" target="_top">
<path fill="none" stroke="#63b8ff" d="M142.31,-219.87C123.16,-212.38 96.64,-200.18 77,-184 53.26,-164.45 44.85,-158.14 35,-129 32.29,-121 30.61,-117.21 35,-110 45.4,-92.91 64.7,-82.1 82.39,-75.41"/>
<polygon fill="#63b8ff" stroke="#63b8ff" points="83.67,-78.68 91.99,-72.11 81.39,-72.06 83.67,-78.68"/>
</a>
</g>
<g id="a_edge3&#45;headlabel"><a xlink:href="dir_000006_000007.html" target="_top" xlink:title="9">
<text text-anchor="middle" x="81.2" y="-80.03" font-family="Helvetica,sans-Serif" font-size="10.00" fill="#63b8ff">9</text>
</a>
</g>
</g>
<!-- dir_9dceccddef60b978df5022f0b41dbc9e -->
<g id="node4" class="node">
<title>dir_9dceccddef60b978df5022f0b41dbc9e</title>
<g id="a_node4"><a xlink:href="dir_9dceccddef60b978df5022f0b41dbc9e.html" target="_top" xlink:title="inputs">
<polygon fill="#a2b4d6" stroke="#404040" points="241.5,-129 194.5,-129 194.5,-110 241.5,-110 241.5,-129"/>
<text text-anchor="middle" x="218" y="-117" font-family="Helvetica,sans-Serif" font-size="10.00">inputs</text>
</a>
</g>
</g>
<!-- dir_a19b4824e974c71d59ae4ca735096dff&#45;&gt;dir_9dceccddef60b978df5022f0b41dbc9e -->
<g id="edge4" class="edge">
<title>dir_a19b4824e974c71d59ae4ca735096dff&#45;&gt;dir_9dceccddef60b978df5022f0b41dbc9e</title>
<g id="a_edge4"><a xlink:href="dir_000006_000011.html" target="_top">
<path fill="none" stroke="#63b8ff" d="M167.81,-219.87C169.25,-207.26 173.02,-183.31 182,-165 187.07,-154.67 194.91,-144.58 201.99,-136.63"/>
<polygon fill="#63b8ff" stroke="#63b8ff" points="204.67,-138.89 208.94,-129.19 199.55,-134.11 204.67,-138.89"/>
</a>
</g>
<g id="a_edge4&#45;headlabel"><a xlink:href="dir_000006_000011.html" target="_top" xlink:title="2">
<text text-anchor="middle" x="204.29" y="-140.96" font-family="Helvetica,sans-Serif" font-size="10.00" fill="#63b8ff">2</text>
</a>
</g>
</g>
<!-- dir_2519441f46465788c30b57c087679e95 -->
<g id="node5" class="node">
<title>dir_2519441f46465788c30b57c087679e95</title>
<g id="a_node5"><a xlink:href="dir_2519441f46465788c30b57c087679e95.html" target="_top" xlink:title="network">
<polygon fill="#a2b4d6" stroke="#404040" points="224,-74 168,-74 168,-55 224,-55 224,-74"/>
<text text-anchor="middle" x="196" y="-62" font-family="Helvetica,sans-Serif" font-size="10.00">network</text>
</a>
</g>
</g>
<!-- dir_a19b4824e974c71d59ae4ca735096dff&#45;&gt;dir_2519441f46465788c30b57c087679e95 -->
<g id="edge1" class="edge">
<title>dir_a19b4824e974c71d59ae4ca735096dff&#45;&gt;dir_2519441f46465788c30b57c087679e95</title>
<g id="a_edge1"><a xlink:href="dir_000006_000013.html" target="_top">
<path fill="none" stroke="#63b8ff" d="M169.44,-219.86C173.45,-206.81 182.5,-181.8 197,-165 215.85,-143.16 237.39,-154.43 251,-129 261.28,-109.8 240.84,-91.39 222.04,-79.38"/>
<polygon fill="#63b8ff" stroke="#63b8ff" points="223.73,-76.31 213.35,-74.18 220.13,-82.32 223.73,-76.31"/>
</a>
</g>
<g id="a_edge1&#45;headlabel"><a xlink:href="dir_000006_000013.html" target="_top" xlink:title="4">
<text text-anchor="middle" x="228.27" y="-73.23" font-family="Helvetica,sans-Serif" font-size="10.00" fill="#63b8ff">4</text>
</a>
</g>
</g>
<!-- dir_34132730235b51c3140aa72d03fae1c1 -->
<g id="node6" class="node">
<title>dir_34132730235b51c3140aa72d03fae1c1</title>
<g id="a_node6"><a xlink:href="dir_34132730235b51c3140aa72d03fae1c1.html" target="_top" xlink:title="scene">
<polygon fill="#a2b4d6" stroke="#404040" points="147.5,-184 102.5,-184 102.5,-165 147.5,-165 147.5,-184"/>
<text text-anchor="middle" x="125" y="-172" font-family="Helvetica,sans-Serif" font-size="10.00">scene</text>
</a>
</g>
</g>
<!-- dir_a19b4824e974c71d59ae4ca735096dff&#45;&gt;dir_34132730235b51c3140aa72d03fae1c1 -->
<g id="edge2" class="edge">
<title>dir_a19b4824e974c71d59ae4ca735096dff&#45;&gt;dir_34132730235b51c3140aa72d03fae1c1</title>
<g id="a_edge2"><a xlink:href="dir_000006_000018.html" target="_top">
<path fill="none" stroke="#63b8ff" d="M160.06,-219.75C154.13,-212.26 145.43,-201.28 138.18,-192.13"/>
<polygon fill="#63b8ff" stroke="#63b8ff" points="140.76,-189.75 131.81,-184.09 135.27,-194.1 140.76,-189.75"/>
</a>
</g>
<g id="a_edge2&#45;headlabel"><a xlink:href="dir_000006_000018.html" target="_top" xlink:title="1">
<text text-anchor="middle" x="145.22" y="-188.31" font-family="Helvetica,sans-Serif" font-size="10.00" fill="#63b8ff">1</text>
</a>
</g>
</g>
<!-- dir_ba3a87137d3f1a09b7800a8a8422176c -->
<g id="node7" class="node">
<title>dir_ba3a87137d3f1a09b7800a8a8422176c</title>
<g id="a_node7"><a xlink:href="dir_ba3a87137d3f1a09b7800a8a8422176c.html" target="_top" xlink:title="settings">
<polygon fill="#a2b4d6" stroke="#404040" points="262,-184 206,-184 206,-165 262,-165 262,-184"/>
<text text-anchor="middle" x="234" y="-172" font-family="Helvetica,sans-Serif" font-size="10.00">settings</text>
</a>
</g>
</g>
<!-- dir_a19b4824e974c71d59ae4ca735096dff&#45;&gt;dir_ba3a87137d3f1a09b7800a8a8422176c -->
<g id="edge6" class="edge">
<title>dir_a19b4824e974c71d59ae4ca735096dff&#45;&gt;dir_ba3a87137d3f1a09b7800a8a8422176c</title>
<g id="a_edge6"><a xlink:href="dir_000006_000021.html" target="_top">
<path fill="none" stroke="#63b8ff" d="M177.76,-219.98C187.77,-212.07 202.89,-200.11 214.93,-190.58"/>
<polygon fill="#63b8ff" stroke="#63b8ff" points="217.37,-193.12 223.04,-184.17 213.03,-187.63 217.37,-193.12"/>
</a>
</g>
<g id="a_edge6&#45;headlabel"><a xlink:href="dir_000006_000021.html" target="_top" xlink:title="1">
<text text-anchor="middle" x="216.31" y="-195.08" font-family="Helvetica,sans-Serif" font-size="10.00" fill="#63b8ff">1</text>
</a>
</g>
</g>
<!-- dir_da555cc5272c9bb1aca8990be5c6787a -->
<g id="node9" class="node">
<title>dir_da555cc5272c9bb1aca8990be5c6787a</title>
<g id="a_node9"><a xlink:href="dir_da555cc5272c9bb1aca8990be5c6787a.html" target="_top" xlink:title="Shared">
<polygon fill="#edf0f7" stroke="red" points="277,-19 227,-19 227,0 277,0 277,-19"/>
<text text-anchor="middle" x="252" y="-7" font-family="Helvetica,sans-Serif" font-size="10.00">Shared</text>
</a>
</g>
</g>
<!-- dir_a19b4824e974c71d59ae4ca735096dff&#45;&gt;dir_da555cc5272c9bb1aca8990be5c6787a -->
<g id="edge7" class="edge">
<title>dir_a19b4824e974c71d59ae4ca735096dff&#45;&gt;dir_da555cc5272c9bb1aca8990be5c6787a</title>
<g id="a_edge7"><a xlink:href="dir_000006_000022.html" target="_top">
<path fill="none" stroke="#63b8ff" d="M192.36,-225.32C216.95,-220.75 253.1,-209.83 271,-184 307.73,-131 298.11,-99.57 276,-39 274.43,-34.69 271.89,-30.59 269.03,-26.9"/>
<polygon fill="#63b8ff" stroke="#63b8ff" points="271.39,-24.29 262.12,-19.16 266.17,-28.95 271.39,-24.29"/>
</a>
</g>
<g id="a_edge7&#45;headlabel"><a xlink:href="dir_000006_000022.html" target="_top" xlink:title="29">
<text text-anchor="middle" x="275.9" y="-22.57" font-family="Helvetica,sans-Serif" font-size="10.00" fill="#63b8ff">29</text>
</a>
</g>
</g>
<!-- dir_64944a549c24e7180c12dd28351c77bb&#45;&gt;dir_da555cc5272c9bb1aca8990be5c6787a -->
<g id="edge8" class="edge">
<title>dir_64944a549c24e7180c12dd28351c77bb&#45;&gt;dir_da555cc5272c9bb1aca8990be5c6787a</title>
<g id="a_edge8"><a xlink:href="dir_000007_000022.html" target="_top">
<path fill="none" stroke="#63b8ff" d="M132.5,-54.9C139.79,-49.74 149.6,-43.37 159,-39 177.43,-30.43 199.1,-23.62 216.87,-18.81"/>
<polygon fill="#63b8ff" stroke="#63b8ff" points="218.04,-22.12 226.84,-16.21 216.28,-15.35 218.04,-22.12"/>
</a>
</g>
<g id="a_edge8&#45;headlabel"><a xlink:href="dir_000007_000022.html" target="_top" xlink:title="4">
<text text-anchor="middle" x="215.28" y="-23.27" font-family="Helvetica,sans-Serif" font-size="10.00" fill="#63b8ff">4</text>
</a>
</g>
</g>
<!-- dir_9dceccddef60b978df5022f0b41dbc9e&#45;&gt;dir_64944a549c24e7180c12dd28351c77bb -->
<g id="edge10" class="edge">
<title>dir_9dceccddef60b978df5022f0b41dbc9e&#45;&gt;dir_64944a549c24e7180c12dd28351c77bb</title>
<g id="a_edge10"><a xlink:href="dir_000011_000007.html" target="_top">
<path fill="none" stroke="#63b8ff" d="M202.42,-109.98C187.23,-101.69 163.9,-88.94 146.1,-79.22"/>
<polygon fill="#63b8ff" stroke="#63b8ff" points="147.32,-75.89 136.87,-74.17 143.97,-82.04 147.32,-75.89"/>
</a>
</g>
<g id="a_edge10&#45;headlabel"><a xlink:href="dir_000011_000007.html" target="_top" xlink:title="1">
<text text-anchor="middle" x="151.84" y="-72.63" font-family="Helvetica,sans-Serif" font-size="10.00" fill="#63b8ff">1</text>
</a>
</g>
</g>
<!-- dir_9dceccddef60b978df5022f0b41dbc9e&#45;&gt;dir_2519441f46465788c30b57c087679e95 -->
<g id="edge9" class="edge">
<title>dir_9dceccddef60b978df5022f0b41dbc9e&#45;&gt;dir_2519441f46465788c30b57c087679e95</title>
<g id="a_edge9"><a xlink:href="dir_000011_000013.html" target="_top">
<path fill="none" stroke="#63b8ff" d="M214.37,-109.75C211.42,-102.65 207.17,-92.4 203.49,-83.56"/>
<polygon fill="#63b8ff" stroke="#63b8ff" points="206.63,-81.98 199.57,-74.09 200.17,-84.67 206.63,-81.98"/>
</a>
</g>
<g id="a_edge9&#45;headlabel"><a xlink:href="dir_000011_000013.html" target="_top" xlink:title="1">
<text text-anchor="middle" x="210.63" y="-81.71" font-family="Helvetica,sans-Serif" font-size="10.00" fill="#63b8ff">1</text>
</a>
</g>
</g>
<!-- dir_9dceccddef60b978df5022f0b41dbc9e&#45;&gt;dir_da555cc5272c9bb1aca8990be5c6787a -->
<g id="edge11" class="edge">
<title>dir_9dceccddef60b978df5022f0b41dbc9e&#45;&gt;dir_da555cc5272c9bb1aca8990be5c6787a</title>
<g id="a_edge11"><a xlink:href="dir_000011_000022.html" target="_top">
<path fill="none" stroke="#63b8ff" d="M220.96,-110C224.05,-101.06 229,-86.59 233,-74 237.8,-58.9 242.93,-41.68 246.65,-28.98"/>
<polygon fill="#63b8ff" stroke="#63b8ff" points="250.08,-29.74 249.51,-19.16 243.36,-27.78 250.08,-29.74"/>
</a>
</g>
<g id="a_edge11&#45;headlabel"><a xlink:href="dir_000011_000022.html" target="_top" xlink:title="7">
<text text-anchor="middle" x="251.8" y="-31.48" font-family="Helvetica,sans-Serif" font-size="10.00" fill="#63b8ff">7</text>
</a>
</g>
</g>
<!-- dir_2519441f46465788c30b57c087679e95&#45;&gt;dir_da555cc5272c9bb1aca8990be5c6787a -->
<g id="edge12" class="edge">
<title>dir_2519441f46465788c30b57c087679e95&#45;&gt;dir_da555cc5272c9bb1aca8990be5c6787a</title>
<g id="a_edge12"><a xlink:href="dir_000013_000022.html" target="_top">
<path fill="none" stroke="#63b8ff" d="M205,-54.98C213.19,-47.23 225.51,-35.58 235.47,-26.14"/>
<polygon fill="#63b8ff" stroke="#63b8ff" points="237.98,-28.59 242.84,-19.17 233.17,-23.5 237.98,-28.59"/>
</a>
</g>
<g id="a_edge12&#45;headlabel"><a xlink:href="dir_000013_000022.html" target="_top" xlink:title="6">
<text text-anchor="middle" x="237.32" y="-30.62" font-family="Helvetica,sans-Serif" font-size="10.00" fill="#63b8ff">6</text>
</a>
</g>
</g>
<!-- dir_34132730235b51c3140aa72d03fae1c1&#45;&gt;dir_ab71f7a991687443350cd4cabf249295 -->
<g id="edge17" class="edge">
<title>dir_34132730235b51c3140aa72d03fae1c1&#45;&gt;dir_ab71f7a991687443350cd4cabf249295</title>
<g id="a_edge17"><a xlink:href="dir_000018_000000.html" target="_top">
<path fill="none" stroke="#63b8ff" d="M115.52,-164.98C106.8,-157.15 93.66,-145.34 83.1,-135.86"/>
<polygon fill="#63b8ff" stroke="#63b8ff" points="85.43,-133.25 75.65,-129.17 80.75,-138.46 85.43,-133.25"/>
</a>
</g>
<g id="a_edge17&#45;headlabel"><a xlink:href="dir_000018_000000.html" target="_top" xlink:title="1">
<text text-anchor="middle" x="90" y="-131.04" font-family="Helvetica,sans-Serif" font-size="10.00" fill="#63b8ff">1</text>
</a>
</g>
</g>
<!-- dir_34132730235b51c3140aa72d03fae1c1&#45;&gt;dir_64944a549c24e7180c12dd28351c77bb -->
<g id="edge15" class="edge">
<title>dir_34132730235b51c3140aa72d03fae1c1&#45;&gt;dir_64944a549c24e7180c12dd28351c77bb</title>
<g id="a_edge15"><a xlink:href="dir_000018_000007.html" target="_top">
<path fill="none" stroke="#63b8ff" d="M130.56,-164.95C137.76,-152.83 148.84,-129.9 144,-110 141.69,-100.51 136.98,-90.78 132.42,-82.85"/>
<polygon fill="#63b8ff" stroke="#63b8ff" points="135.32,-80.89 127.1,-74.2 129.36,-84.55 135.32,-80.89"/>
</a>
</g>
<g id="a_edge15&#45;headlabel"><a xlink:href="dir_000018_000007.html" target="_top" xlink:title="2">
<text text-anchor="middle" x="139.63" y="-79.96" font-family="Helvetica,sans-Serif" font-size="10.00" fill="#63b8ff">2</text>
</a>
</g>
</g>
<!-- dir_34132730235b51c3140aa72d03fae1c1&#45;&gt;dir_9dceccddef60b978df5022f0b41dbc9e -->
<g id="edge16" class="edge">
<title>dir_34132730235b51c3140aa72d03fae1c1&#45;&gt;dir_9dceccddef60b978df5022f0b41dbc9e</title>
<g id="a_edge16"><a xlink:href="dir_000018_000011.html" target="_top">
<path fill="none" stroke="#63b8ff" d="M139.94,-164.98C154.5,-156.69 176.87,-143.94 193.93,-134.22"/>
<polygon fill="#63b8ff" stroke="#63b8ff" points="195.83,-137.16 202.79,-129.17 192.36,-131.08 195.83,-137.16"/>
</a>
</g>
<g id="a_edge16&#45;headlabel"><a xlink:href="dir_000018_000011.html" target="_top" xlink:title="1">
<text text-anchor="middle" x="194.11" y="-138.91" font-family="Helvetica,sans-Serif" font-size="10.00" fill="#63b8ff">1</text>
</a>
</g>
</g>
<!-- dir_34132730235b51c3140aa72d03fae1c1&#45;&gt;dir_2519441f46465788c30b57c087679e95 -->
<g id="edge14" class="edge">
<title>dir_34132730235b51c3140aa72d03fae1c1&#45;&gt;dir_2519441f46465788c30b57c087679e95</title>
<g id="a_edge14"><a xlink:href="dir_000018_000013.html" target="_top">
<path fill="none" stroke="#63b8ff" d="M130.81,-164.66C142.57,-146.77 169.37,-106 184.7,-82.69"/>
<polygon fill="#63b8ff" stroke="#63b8ff" points="187.74,-84.44 190.31,-74.16 181.89,-80.59 187.74,-84.44"/>
</a>
</g>
<g id="a_edge14&#45;headlabel"><a xlink:href="dir_000018_000013.html" target="_top" xlink:title="1">
<text text-anchor="middle" x="188.14" y="-86.5" font-family="Helvetica,sans-Serif" font-size="10.00" fill="#63b8ff">1</text>
</a>
</g>
</g>
<!-- dir_0f7996a2b8c9fc0a787aa05c3c30ab3a -->
<g id="node8" class="node">
<title>dir_0f7996a2b8c9fc0a787aa05c3c30ab3a</title>
<g id="a_node8"><a xlink:href="dir_0f7996a2b8c9fc0a787aa05c3c30ab3a.html" target="_top" xlink:title="ui">
<polygon fill="#a2b4d6" stroke="#404040" points="135.5,-129 106.5,-129 106.5,-110 135.5,-110 135.5,-129"/>
<text text-anchor="middle" x="121" y="-117" font-family="Helvetica,sans-Serif" font-size="10.00">ui</text>
</a>
</g>
</g>
<!-- dir_34132730235b51c3140aa72d03fae1c1&#45;&gt;dir_0f7996a2b8c9fc0a787aa05c3c30ab3a -->
<g id="edge13" class="edge">
<title>dir_34132730235b51c3140aa72d03fae1c1&#45;&gt;dir_0f7996a2b8c9fc0a787aa05c3c30ab3a</title>
<g id="a_edge13"><a xlink:href="dir_000018_000027.html" target="_top">
<path fill="none" stroke="#63b8ff" d="M124.34,-164.75C123.82,-157.8 123.06,-147.85 122.41,-139.13"/>
<polygon fill="#63b8ff" stroke="#63b8ff" points="125.89,-138.8 121.65,-129.09 118.91,-139.32 125.89,-138.8"/>
</a>
</g>
<g id="a_edge13&#45;headlabel"><a xlink:href="dir_000018_000027.html" target="_top" xlink:title="1">
<text text-anchor="middle" x="128.99" y="-139.67" font-family="Helvetica,sans-Serif" font-size="10.00" fill="#63b8ff">1</text>
</a>
</g>
</g>
<!-- dir_34132730235b51c3140aa72d03fae1c1&#45;&gt;dir_da555cc5272c9bb1aca8990be5c6787a -->
<g id="edge18" class="edge">
<title>dir_34132730235b51c3140aa72d03fae1c1&#45;&gt;dir_da555cc5272c9bb1aca8990be5c6787a</title>
<g id="a_edge18"><a xlink:href="dir_000018_000022.html" target="_top">
<path fill="none" stroke="#63b8ff" d="M147.73,-172.84C177.09,-170.63 227.25,-161.93 251,-129 272.28,-99.49 264.64,-54.21 257.88,-29.02"/>
<polygon fill="#63b8ff" stroke="#63b8ff" points="261.19,-27.9 255.03,-19.28 254.48,-29.86 261.19,-27.9"/>
</a>
</g>
<g id="a_edge18&#45;headlabel"><a xlink:href="dir_000018_000022.html" target="_top" xlink:title="1">
<text text-anchor="middle" x="264.93" y="-28.05" font-family="Helvetica,sans-Serif" font-size="10.00" fill="#63b8ff">1</text>
</a>
</g>
</g>
<!-- dir_0f7996a2b8c9fc0a787aa05c3c30ab3a&#45;&gt;dir_64944a549c24e7180c12dd28351c77bb -->
<g id="edge19" class="edge">
<title>dir_0f7996a2b8c9fc0a787aa05c3c30ab3a&#45;&gt;dir_64944a549c24e7180c12dd28351c77bb</title>
<g id="a_edge19"><a xlink:href="dir_000027_000007.html" target="_top">
<path fill="none" stroke="#63b8ff" d="M121,-109.75C121,-102.8 121,-92.85 121,-84.13"/>
<polygon fill="#63b8ff" stroke="#63b8ff" points="124.5,-84.09 121,-74.09 117.5,-84.09 124.5,-84.09"/>
</a>
</g>
<g id="a_edge19&#45;headlabel"><a xlink:href="dir_000027_000007.html" target="_top" xlink:title="2">
<text text-anchor="middle" x="127.34" y="-85.18" font-family="Helvetica,sans-Serif" font-size="10.00" fill="#63b8ff">2</text>
</a>
</g>
</g>
</g>
</svg>
