<?xml version="1.0" encoding="UTF-8" standalone="no"?>
<!DOCTYPE svg PUBLIC "-//W3C//DTD SVG 1.1//EN"
 "http://www.w3.org/Graphics/SVG/1.1/DTD/svg11.dtd">
<!-- Generated by graphviz version 2.43.0 (0)
 -->
<!-- Title: /home/runner/work/R&#45;Type/R&#45;Type/Shared/systems Pages: 1 -->
<svg width="336pt" height="251pt"
 viewBox="0.00 0.00 336.00 251.00" xmlns="http://www.w3.org/2000/svg" xmlns:xlink="http://www.w3.org/1999/xlink">
<g id="graph0" class="graph" transform="scale(1 1) rotate(0) translate(4 247)">
<title>/home/runner/work/R&#45;Type/R&#45;Type/Shared/systems</title>
<g id="clust1" class="cluster">
<title>clusterdir_da555cc5272c9bb1aca8990be5c6787a</title>
<g id="a_clust1"><a xlink:href="dir_da555cc5272c9bb1aca8990be5c6787a.html" target="_top" xlink:title="Shared">
<polygon fill="#edf0f7" stroke="#404040" stroke-dasharray="5,2" points="8,-8 8,-235 320,-235 320,-8 8,-8"/>
<text text-anchor="middle" x="164" y="-223" font-family="Helvetica,sans-Serif" font-size="10.00">Shared</text>
</a>
</g>
</g>
<g id="clust2" class="cluster">
<title>clusterdir_205151da98a479b75597daf800ee84aa</title>
<g id="a_clust2"><a xlink:href="dir_205151da98a479b75597daf800ee84aa.html" target="_top">
<polygon fill="#edf0f7" stroke="#404040" stroke-width="2" points="16,-63 16,-208 300,-208 300,-63 16,-63"/>
</a>
</g>
</g>
<!-- dir_cfe90d69853c3cfc622382556b102c7f -->
<g id="node1" class="node">
<title>dir_cfe90d69853c3cfc622382556b102c7f</title>
<g id="a_node1"><a xlink:href="dir_cfe90d69853c3cfc622382556b102c7f.html" target="_top" xlink:title="components">
<polygon fill="#a2b4d6" stroke="red" points="218.5,-35 141.5,-35 141.5,-16 218.5,-16 218.5,-35"/>
<text text-anchor="middle" x="180" y="-23" font-family="Helvetica,sans-Serif" font-size="10.00">components</text>
</a>
</g>
</g>
<!-- dir_205151da98a479b75597daf800ee84aa -->
<g id="node2" class="node">
<title>dir_205151da98a479b75597daf800ee84aa</title>
<text text-anchor="middle" x="174" y="-188" font-family="Helvetica,sans-Serif" font-size="10.00">systems</text>
</g>
<!-- dir_205151da98a479b75597daf800ee84aa&#45;&gt;dir_cfe90d69853c3cfc622382556b102c7f -->
<g id="edge4" class="edge">
<title>dir_205151da98a479b75597daf800ee84aa&#45;&gt;dir_cfe90d69853c3cfc622382556b102c7f</title>
<g id="a_edge4"><a xlink:href="dir_000022_000003.html" target="_top">
<path fill="none" stroke="#63b8ff" d="M203.11,-188.47C233.23,-185.67 278.9,-176.16 301,-145 332.14,-101.09 256.87,-59.38 211.45,-39.18"/>
<polygon fill="#63b8ff" stroke="#63b8ff" points="212.56,-35.85 201.99,-35.09 209.78,-42.27 212.56,-35.85"/>
</a>
</g>
<g id="a_edge4&#45;headlabel"><a xlink:href="dir_000022_000003.html" target="_top" xlink:title="59">
<text text-anchor="middle" x="216.98" y="-32.17" font-family="Helvetica,sans-Serif" font-size="10.00" fill="#63b8ff">59</text>
</a>
</g>
</g>
<!-- dir_a3ca071bb78cbe25217e6b69de0e0d6e -->
<g id="node3" class="node">
<title>dir_a3ca071bb78cbe25217e6b69de0e0d6e</title>
<g id="a_node3"><a xlink:href="dir_a3ca071bb78cbe25217e6b69de0e0d6e.html" target="_top" xlink:title="Collision">
<polygon fill="#a2b4d6" stroke="#404040" points="291.5,-145 232.5,-145 232.5,-126 291.5,-126 291.5,-145"/>
<text text-anchor="middle" x="262" y="-133" font-family="Helvetica,sans-Serif" font-size="10.00">Collision</text>
</a>
</g>
</g>
<!-- dir_205151da98a479b75597daf800ee84aa&#45;&gt;dir_a3ca071bb78cbe25217e6b69de0e0d6e -->
<g id="edge3" class="edge">
<title>dir_205151da98a479b75597daf800ee84aa&#45;&gt;dir_a3ca071bb78cbe25217e6b69de0e0d6e</title>
<g id="a_edge3"><a xlink:href="dir_000022_000002.html" target="_top">
<path fill="none" stroke="#63b8ff" d="M188.14,-180.98C201.79,-172.77 222.69,-160.18 238.78,-150.49"/>
<polygon fill="#63b8ff" stroke="#63b8ff" points="240.84,-153.33 247.6,-145.17 237.23,-147.33 240.84,-153.33"/>
</a>
</g>
<g id="a_edge3&#45;headlabel"><a xlink:href="dir_000022_000002.html" target="_top" xlink:title="2">
<text text-anchor="middle" x="239.23" y="-155.11" font-family="Helvetica,sans-Serif" font-size="10.00" fill="#63b8ff">2</text>
</a>
</g>
</g>
<!-- dir_10b53c567d47def73222b77e22618aed -->
<g id="node4" class="node">
<title>dir_10b53c567d47def73222b77e22618aed</title>
<g id="a_node4"><a xlink:href="dir_10b53c567d47def73222b77e22618aed.html" target="_top" xlink:title="Helpers">
<polygon fill="#a2b4d6" stroke="#404040" points="120,-90 66,-90 66,-71 120,-71 120,-90"/>
<text text-anchor="middle" x="93" y="-78" font-family="Helvetica,sans-Serif" font-size="10.00">Helpers</text>
</a>
</g>
</g>
<!-- dir_205151da98a479b75597daf800ee84aa&#45;&gt;dir_10b53c567d47def73222b77e22618aed -->
<g id="edge1" class="edge">
<title>dir_205151da98a479b75597daf800ee84aa&#45;&gt;dir_10b53c567d47def73222b77e22618aed</title>
<g id="a_edge1"><a xlink:href="dir_000022_000007.html" target="_top">
<path fill="none" stroke="#63b8ff" d="M144.91,-189.53C112.12,-187.8 60.1,-179.38 35,-145 21.44,-126.43 45.19,-107.22 66.26,-94.86"/>
<polygon fill="#63b8ff" stroke="#63b8ff" points="67.96,-97.92 75.01,-90.01 64.57,-91.8 67.96,-97.92"/>
</a>
</g>
<g id="a_edge1&#45;headlabel"><a xlink:href="dir_000022_000007.html" target="_top" xlink:title="5">
<text text-anchor="middle" x="66.2" y="-99.65" font-family="Helvetica,sans-Serif" font-size="10.00" fill="#63b8ff">5</text>
</a>
</g>
</g>
<!-- dir_41dab95a9fb2c559a6e5120a7e3373fc -->
<g id="node6" class="node">
<title>dir_41dab95a9fb2c559a6e5120a7e3373fc</title>
<g id="a_node6"><a xlink:href="dir_41dab95a9fb2c559a6e5120a7e3373fc.html" target="_top" xlink:title="SpawnEnemy">
<polygon fill="#a2b4d6" stroke="#404040" points="127.5,-145 44.5,-145 44.5,-126 127.5,-126 127.5,-145"/>
<text text-anchor="middle" x="86" y="-133" font-family="Helvetica,sans-Serif" font-size="10.00">SpawnEnemy</text>
</a>
</g>
</g>
<!-- dir_205151da98a479b75597daf800ee84aa&#45;&gt;dir_41dab95a9fb2c559a6e5120a7e3373fc -->
<g id="edge2" class="edge">
<title>dir_205151da98a479b75597daf800ee84aa&#45;&gt;dir_41dab95a9fb2c559a6e5120a7e3373fc</title>
<g id="a_edge2"><a xlink:href="dir_000022_000019.html" target="_top">
<path fill="none" stroke="#63b8ff" d="M159.86,-180.98C146.21,-172.77 125.31,-160.18 109.22,-150.49"/>
<polygon fill="#63b8ff" stroke="#63b8ff" points="110.77,-147.33 100.4,-145.17 107.16,-153.33 110.77,-147.33"/>
</a>
</g>
<g id="a_edge2&#45;headlabel"><a xlink:href="dir_000022_000019.html" target="_top" xlink:title="1">
<text text-anchor="middle" x="115.31" y="-144.25" font-family="Helvetica,sans-Serif" font-size="10.00" fill="#63b8ff">1</text>
</a>
</g>
</g>
<!-- dir_a3ca071bb78cbe25217e6b69de0e0d6e&#45;&gt;dir_cfe90d69853c3cfc622382556b102c7f -->
<g id="edge5" class="edge">
<title>dir_a3ca071bb78cbe25217e6b69de0e0d6e&#45;&gt;dir_cfe90d69853c3cfc622382556b102c7f</title>
<g id="a_edge5"><a xlink:href="dir_000002_000003.html" target="_top">
<path fill="none" stroke="#63b8ff" d="M255.29,-125.66C241.65,-107.69 210.48,-66.64 192.82,-43.38"/>
<polygon fill="#63b8ff" stroke="#63b8ff" points="195.41,-41.01 186.57,-35.16 189.83,-45.24 195.41,-41.01"/>
</a>
</g>
<g id="a_edge5&#45;headlabel"><a xlink:href="dir_000002_000003.html" target="_top" xlink:title="16">
<text text-anchor="middle" x="199.84" y="-39.65" font-family="Helvetica,sans-Serif" font-size="10.00" fill="#63b8ff">16</text>
</a>
</g>
</g>
<!-- dir_10b53c567d47def73222b77e22618aed&#45;&gt;dir_cfe90d69853c3cfc622382556b102c7f -->
<g id="edge6" class="edge">
<title>dir_10b53c567d47def73222b77e22618aed&#45;&gt;dir_cfe90d69853c3cfc622382556b102c7f</title>
<g id="a_edge6"><a xlink:href="dir_000007_000003.html" target="_top">
<path fill="none" stroke="#63b8ff" d="M106.98,-70.98C120.47,-62.77 141.13,-50.18 157.04,-40.49"/>
<polygon fill="#63b8ff" stroke="#63b8ff" points="159.05,-43.36 165.77,-35.17 155.41,-37.38 159.05,-43.36"/>
</a>
</g>
<g id="a_edge6&#45;headlabel"><a xlink:href="dir_000007_000003.html" target="_top" xlink:title="10">
<text text-anchor="middle" x="157.46" y="-45.16" font-family="Helvetica,sans-Serif" font-size="10.00" fill="#63b8ff">10</text>
</a>
</g>
</g>
<!-- dir_206f092d44f48808d372197cdcfd6d06 -->
<g id="node5" class="node">
<title>dir_206f092d44f48808d372197cdcfd6d06</title>
<g id="a_node5"><a xlink:href="dir_206f092d44f48808d372197cdcfd6d06.html" target="_top" xlink:title="Movement">
<polygon fill="#a2b4d6" stroke="#404040" points="214.5,-145 145.5,-145 145.5,-126 214.5,-126 214.5,-145"/>
<text text-anchor="middle" x="180" y="-133" font-family="Helvetica,sans-Serif" font-size="10.00">Movement</text>
</a>
</g>
</g>
<!-- dir_206f092d44f48808d372197cdcfd6d06&#45;&gt;dir_cfe90d69853c3cfc622382556b102c7f -->
<g id="edge8" class="edge">
<title>dir_206f092d44f48808d372197cdcfd6d06&#45;&gt;dir_cfe90d69853c3cfc622382556b102c7f</title>
<g id="a_edge8"><a xlink:href="dir_000010_000003.html" target="_top">
<path fill="none" stroke="#63b8ff" d="M180,-125.66C180,-108.17 180,-68.8 180,-45.27"/>
<polygon fill="#63b8ff" stroke="#63b8ff" points="183.5,-45.16 180,-35.16 176.5,-45.16 183.5,-45.16"/>
</a>
</g>
<g id="a_edge8&#45;headlabel"><a xlink:href="dir_000010_000003.html" target="_top" xlink:title="9">
<text text-anchor="middle" x="186.34" y="-46.25" font-family="Helvetica,sans-Serif" font-size="10.00" fill="#63b8ff">9</text>
</a>
</g>
</g>
<!-- dir_206f092d44f48808d372197cdcfd6d06&#45;&gt;dir_10b53c567d47def73222b77e22618aed -->
<g id="edge7" class="edge">
<title>dir_206f092d44f48808d372197cdcfd6d06&#45;&gt;dir_10b53c567d47def73222b77e22618aed</title>
<g id="a_edge7"><a xlink:href="dir_000010_000007.html" target="_top">
<path fill="none" stroke="#63b8ff" d="M166.02,-125.98C152.53,-117.77 131.87,-105.18 115.96,-95.49"/>
<polygon fill="#63b8ff" stroke="#63b8ff" points="117.59,-92.38 107.23,-90.17 113.95,-98.36 117.59,-92.38"/>
</a>
</g>
<g id="a_edge7&#45;headlabel"><a xlink:href="dir_000010_000007.html" target="_top" xlink:title="1">
<text text-anchor="middle" x="122.14" y="-89.33" font-family="Helvetica,sans-Serif" font-size="10.00" fill="#63b8ff">1</text>
</a>
</g>
</g>
<!-- dir_41dab95a9fb2c559a6e5120a7e3373fc&#45;&gt;dir_cfe90d69853c3cfc622382556b102c7f -->
<g id="edge10" class="edge">
<title>dir_41dab95a9fb2c559a6e5120a7e3373fc&#45;&gt;dir_cfe90d69853c3cfc622382556b102c7f</title>
<g id="a_edge10"><a xlink:href="dir_000019_000003.html" target="_top">
<path fill="none" stroke="#63b8ff" d="M94.81,-125.86C103.68,-117.05 117.63,-102.9 129,-90 142.52,-74.66 157.04,-56.39 167.12,-43.39"/>
<polygon fill="#63b8ff" stroke="#63b8ff" points="169.99,-45.39 173.32,-35.33 164.44,-41.12 169.99,-45.39"/>
</a>
</g>
<g id="a_edge10&#45;headlabel"><a xlink:href="dir_000019_000003.html" target="_top" xlink:title="1">
<text text-anchor="middle" x="170.05" y="-47.47" font-family="Helvetica,sans-Serif" font-size="10.00" fill="#63b8ff">1</text>
</a>
</g>
</g>
<!-- dir_41dab95a9fb2c559a6e5120a7e3373fc&#45;&gt;dir_10b53c567d47def73222b77e22618aed -->
<g id="edge9" class="edge">
<title>dir_41dab95a9fb2c559a6e5120a7e3373fc&#45;&gt;dir_10b53c567d47def73222b77e22618aed</title>
<g id="a_edge9"><a xlink:href="dir_000019_000007.html" target="_top">
<path fill="none" stroke="#63b8ff" d="M87.16,-125.75C88.07,-118.8 89.39,-108.85 90.54,-100.13"/>
<polygon fill="#63b8ff" stroke="#63b8ff" points="94.03,-100.46 91.87,-90.09 87.09,-99.54 94.03,-100.46"/>
</a>
</g>
<g id="a_edge9&#45;headlabel"><a xlink:href="dir_000019_000007.html" target="_top" xlink:title="1">
<text text-anchor="middle" x="96.37" y="-101.9" font-family="Helvetica,sans-Serif" font-size="10.00" fill="#63b8ff">1</text>
</a>
</g>
</g>
</g>
</svg>
