<?xml version="1.0" encoding="UTF-8" standalone="no"?>
<!DOCTYPE svg PUBLIC "-//W3C//DTD SVG 1.1//EN"
 "http://www.w3.org/Graphics/SVG/1.1/DTD/svg11.dtd">
<!-- Generated by graphviz version 2.43.0 (0)
 -->
<!-- Title: /home/runner/work/R&#45;Type/R&#45;Type/Client/src Pages: 1 -->
<svg width="126pt" height="235pt"
 viewBox="0.00 0.00 126.00 235.00" xmlns="http://www.w3.org/2000/svg" xmlns:xlink="http://www.w3.org/1999/xlink">
<g id="graph0" class="graph" transform="scale(1 1) rotate(0) translate(4 231)">
<title>/home/runner/work/R&#45;Type/R&#45;Type/Client/src</title>
<g id="clust1" class="cluster">
<title>clusterdir_922c588100a187620fdc1533bc178f73</title>
<g id="a_clust1"><a xlink:href="dir_922c588100a187620fdc1533bc178f73.html" target="_top" xlink:title="Client">
<polygon fill="#edf0f7" stroke="#404040" stroke-dasharray="5,2" points="8,-39 8,-219 110,-219 110,-39 8,-39"/>
<text text-anchor="middle" x="59" y="-207" font-family="Helvetica,sans-Serif" font-size="10.00">Client</text>
</a>
</g>
</g>
<g id="clust2" class="cluster">
<title>clusterdir_71db3c9ac669ad0e48d6cd88f7e1e924</title>
<g id="a_clust2"><a xlink:href="dir_71db3c9ac669ad0e48d6cd88f7e1e924.html" target="_top">
<polygon fill="#edf0f7" stroke="#404040" stroke-width="2" points="16,-47 16,-192 102,-192 102,-47 16,-47"/>
</a>
</g>
</g>
<!-- dir_71db3c9ac669ad0e48d6cd88f7e1e924 -->
<g id="node1" class="node">
<title>dir_71db3c9ac669ad0e48d6cd88f7e1e924</title>
<text text-anchor="middle" x="54" y="-172" font-family="Helvetica,sans-Serif" font-size="10.00">src</text>
</g>
<!-- dir_a19b4824e974c71d59ae4ca735096dff -->
<g id="node2" class="node">
<title>dir_a19b4824e974c71d59ae4ca735096dff</title>
<g id="a_node2"><a xlink:href="dir_a19b4824e974c71d59ae4ca735096dff.html" target="_top" xlink:title="engine">
<polygon fill="#a2b4d6" stroke="#404040" points="74,-74 24,-74 24,-55 74,-55 74,-74"/>
<text text-anchor="middle" x="49" y="-62" font-family="Helvetica,sans-Serif" font-size="10.00">engine</text>
</a>
</g>
</g>
<!-- dir_71db3c9ac669ad0e48d6cd88f7e1e924&#45;&gt;dir_a19b4824e974c71d59ae4ca735096dff -->
<g id="edge2" class="edge">
<title>dir_71db3c9ac669ad0e48d6cd88f7e1e924&#45;&gt;dir_a19b4824e974c71d59ae4ca735096dff</title>
<g id="a_edge2"><a xlink:href="dir_000024_000006.html" target="_top">
<path fill="none" stroke="#63b8ff" d="M49.12,-164.98C44.44,-156.26 37.69,-142.17 35,-129 31.85,-113.62 36.26,-96.21 40.94,-83.52"/>
<polygon fill="#63b8ff" stroke="#63b8ff" points="44.24,-84.69 44.77,-74.11 37.75,-82.05 44.24,-84.69"/>
</a>
</g>
<g id="a_edge2&#45;headlabel"><a xlink:href="dir_000024_000006.html" target="_top" xlink:title="62">
<text text-anchor="middle" x="45.51" y="-86.59" font-family="Helvetica,sans-Serif" font-size="10.00" fill="#63b8ff">62</text>
</a>
</g>
</g>
<!-- dir_5c8245047cd95780d4d1cda3c24ec45a -->
<g id="node3" class="node">
<title>dir_5c8245047cd95780d4d1cda3c24ec45a</title>
<g id="a_node3"><a xlink:href="dir_5c8245047cd95780d4d1cda3c24ec45a.html" target="_top" xlink:title="scenes">
<polygon fill="#a2b4d6" stroke="#404040" points="94,-129 44,-129 44,-110 94,-110 94,-129"/>
<text text-anchor="middle" x="69" y="-117" font-family="Helvetica,sans-Serif" font-size="10.00">scenes</text>
</a>
</g>
</g>
<!-- dir_71db3c9ac669ad0e48d6cd88f7e1e924&#45;&gt;dir_5c8245047cd95780d4d1cda3c24ec45a -->
<g id="edge1" class="edge">
<title>dir_71db3c9ac669ad0e48d6cd88f7e1e924&#45;&gt;dir_5c8245047cd95780d4d1cda3c24ec45a</title>
<g id="a_edge1"><a xlink:href="dir_000024_000019.html" target="_top">
<path fill="none" stroke="#63b8ff" d="M56.48,-164.75C58.46,-157.72 61.32,-147.62 63.81,-138.84"/>
<polygon fill="#63b8ff" stroke="#63b8ff" points="67.21,-139.66 66.57,-129.09 60.48,-137.76 67.21,-139.66"/>
</a>
</g>
<g id="a_edge1&#45;headlabel"><a xlink:href="dir_000024_000019.html" target="_top" xlink:title="6">
<text text-anchor="middle" x="68.97" y="-141.4" font-family="Helvetica,sans-Serif" font-size="10.00" fill="#63b8ff">6</text>
</a>
</g>
</g>
<!-- dir_da555cc5272c9bb1aca8990be5c6787a -->
<g id="node4" class="node">
<title>dir_da555cc5272c9bb1aca8990be5c6787a</title>
<g id="a_node4"><a xlink:href="dir_da555cc5272c9bb1aca8990be5c6787a.html" target="_top" xlink:title="Shared">
<polygon fill="#edf0f7" stroke="red" points="100,-19 50,-19 50,0 100,0 100,-19"/>
<text text-anchor="middle" x="75" y="-7" font-family="Helvetica,sans-Serif" font-size="10.00">Shared</text>
</a>
</g>
</g>
<!-- dir_a19b4824e974c71d59ae4ca735096dff&#45;&gt;dir_da555cc5272c9bb1aca8990be5c6787a -->
<g id="edge3" class="edge">
<title>dir_a19b4824e974c71d59ae4ca735096dff&#45;&gt;dir_da555cc5272c9bb1aca8990be5c6787a</title>
<g id="a_edge3"><a xlink:href="dir_000006_000022.html" target="_top">
<path fill="none" stroke="#63b8ff" d="M53.29,-54.75C56.81,-47.57 61.91,-37.18 66.28,-28.27"/>
<polygon fill="#63b8ff" stroke="#63b8ff" points="69.52,-29.61 70.79,-19.09 63.24,-26.53 69.52,-29.61"/>
</a>
</g>
<g id="a_edge3&#45;headlabel"><a xlink:href="dir_000006_000022.html" target="_top" xlink:title="29">
<text text-anchor="middle" x="70.49" y="-31.59" font-family="Helvetica,sans-Serif" font-size="10.00" fill="#63b8ff">29</text>
</a>
</g>
</g>
<!-- dir_5c8245047cd95780d4d1cda3c24ec45a&#45;&gt;dir_a19b4824e974c71d59ae4ca735096dff -->
<g id="edge4" class="edge">
<title>dir_5c8245047cd95780d4d1cda3c24ec45a&#45;&gt;dir_a19b4824e974c71d59ae4ca735096dff</title>
<g id="a_edge4"><a xlink:href="dir_000019_000006.html" target="_top">
<path fill="none" stroke="#63b8ff" d="M65.7,-109.75C63.02,-102.65 59.15,-92.4 55.81,-83.56"/>
<polygon fill="#63b8ff" stroke="#63b8ff" points="59.05,-82.21 52.24,-74.09 52.5,-84.68 59.05,-82.21"/>
</a>
</g>
<g id="a_edge4&#45;headlabel"><a xlink:href="dir_000019_000006.html" target="_top" xlink:title="37">
<text text-anchor="middle" x="62.97" y="-82.07" font-family="Helvetica,sans-Serif" font-size="10.00" fill="#63b8ff">37</text>
</a>
</g>
</g>
<!-- dir_5c8245047cd95780d4d1cda3c24ec45a&#45;&gt;dir_da555cc5272c9bb1aca8990be5c6787a -->
<g id="edge5" class="edge">
<title>dir_5c8245047cd95780d4d1cda3c24ec45a&#45;&gt;dir_da555cc5272c9bb1aca8990be5c6787a</title>
<g id="a_edge5"><a xlink:href="dir_000019_000022.html" target="_top">
<path fill="none" stroke="#63b8ff" d="M72.6,-109.82C76.06,-100.99 81.03,-86.81 83,-74 85.36,-58.62 85.12,-54.41 83,-39 82.55,-35.7 81.81,-32.23 80.96,-28.91"/>
<polygon fill="#63b8ff" stroke="#63b8ff" points="84.25,-27.71 78.08,-19.1 77.54,-29.68 84.25,-27.71"/>
</a>
</g>
<g id="a_edge5&#45;headlabel"><a xlink:href="dir_000019_000022.html" target="_top" xlink:title="3">
<text text-anchor="middle" x="87.99" y="-27.86" font-family="Helvetica,sans-Serif" font-size="10.00" fill="#63b8ff">3</text>
</a>
</g>
</g>
</g>
</svg>
