<?xml version="1.0" encoding="UTF-8" standalone="no"?>
<!DOCTYPE svg PUBLIC "-//W3C//DTD SVG 1.1//EN"
 "http://www.w3.org/Graphics/SVG/1.1/DTD/svg11.dtd">
<!-- Generated by graphviz version 2.43.0 (0)
 -->
<!-- Title: /home/runner/work/R&#45;Type/R&#45;Type/Client/src/engine Pages: 1 -->
<svg width="293pt" height="259pt"
 viewBox="0.00 0.00 293.00 259.00" xmlns="http://www.w3.org/2000/svg" xmlns:xlink="http://www.w3.org/1999/xlink">
<g id="graph0" class="graph" transform="scale(1 1) rotate(0) translate(4 255)">
<title>/home/runner/work/R&#45;Type/R&#45;Type/Client/src/engine</title>
<g id="clust1" class="cluster">
<title>clusterdir_71db3c9ac669ad0e48d6cd88f7e1e924</title>
<g id="a_clust1"><a xlink:href="dir_71db3c9ac669ad0e48d6cd88f7e1e924.html" target="_top" xlink:title="src">
<polygon fill="#edf0f7" stroke="#7f7f7f" stroke-dasharray="5,2" points="8,-8 8,-243 277,-243 277,-8 8,-8"/>
<text text-anchor="middle" x="142.5" y="-231" font-family="Helvetica,sans-Serif" font-size="10.00">src</text>
</a>
</g>
</g>
<g id="clust2" class="cluster">
<title>clusterdir_a19b4824e974c71d59ae4ca735096dff</title>
<g id="a_clust2"><a xlink:href="dir_a19b4824e974c71d59ae4ca735096dff.html" target="_top">
<polygon fill="#edf0f7" stroke="#404040" stroke-width="2" points="16,-16 16,-216 269,-216 269,-16 16,-16"/>
</a>
</g>
</g>
<!-- dir_a19b4824e974c71d59ae4ca735096dff -->
<g id="node1" class="node">
<title>dir_a19b4824e974c71d59ae4ca735096dff</title>
<text text-anchor="middle" x="137" y="-196" font-family="Helvetica,sans-Serif" font-size="10.00">engine</text>
</g>
<!-- dir_ab71f7a991687443350cd4cabf249295 -->
<g id="node2" class="node">
<title>dir_ab71f7a991687443350cd4cabf249295</title>
<g id="a_node2"><a xlink:href="dir_ab71f7a991687443350cd4cabf249295.html" target="_top" xlink:title="audio">
<polygon fill="#a2b4d6" stroke="#404040" points="88,-98 44,-98 44,-79 88,-79 88,-98"/>
<text text-anchor="middle" x="66" y="-86" font-family="Helvetica,sans-Serif" font-size="10.00">audio</text>
</a>
</g>
</g>
<!-- dir_a19b4824e974c71d59ae4ca735096dff&#45;&gt;dir_ab71f7a991687443350cd4cabf249295 -->
<g id="edge5" class="edge">
<title>dir_a19b4824e974c71d59ae4ca735096dff&#45;&gt;dir_ab71f7a991687443350cd4cabf249295</title>
<g id="a_edge5"><a xlink:href="dir_000002_000000.html" target="_top">
<path fill="none" stroke="#63b8ff" d="M123.1,-188.93C111.34,-180.99 94.85,-168.14 85,-153 76.17,-139.44 71.31,-121.61 68.72,-108.3"/>
<polygon fill="#63b8ff" stroke="#63b8ff" points="72.16,-107.65 67.04,-98.38 65.26,-108.82 72.16,-107.65"/>
</a>
</g>
<g id="a_edge5&#45;headlabel"><a xlink:href="dir_000002_000000.html" target="_top" xlink:title="2">
<text text-anchor="middle" x="75.56" y="-108.22" font-family="Helvetica,sans-Serif" font-size="10.00" fill="#63b8ff">2</text>
</a>
</g>
</g>
<!-- dir_64944a549c24e7180c12dd28351c77bb -->
<g id="node3" class="node">
<title>dir_64944a549c24e7180c12dd28351c77bb</title>
<g id="a_node3"><a xlink:href="dir_64944a549c24e7180c12dd28351c77bb.html" target="_top" xlink:title="graphics">
<polygon fill="#a2b4d6" stroke="#404040" points="248,-43 190,-43 190,-24 248,-24 248,-43"/>
<text text-anchor="middle" x="219" y="-31" font-family="Helvetica,sans-Serif" font-size="10.00">graphics</text>
</a>
</g>
</g>
<!-- dir_a19b4824e974c71d59ae4ca735096dff&#45;&gt;dir_64944a549c24e7180c12dd28351c77bb -->
<g id="edge3" class="edge">
<title>dir_a19b4824e974c71d59ae4ca735096dff&#45;&gt;dir_64944a549c24e7180c12dd28351c77bb</title>
<g id="a_edge3"><a xlink:href="dir_000002_000003.html" target="_top">
<path fill="none" stroke="#63b8ff" d="M144.75,-188.61C155.77,-176.08 176.79,-152.67 196,-134 213.39,-117.1 227,-120.09 237,-98 243.7,-83.19 237.45,-65.3 230.54,-52.29"/>
<polygon fill="#63b8ff" stroke="#63b8ff" points="233.42,-50.27 225.34,-43.42 227.38,-53.81 233.42,-50.27"/>
</a>
</g>
<g id="a_edge3&#45;headlabel"><a xlink:href="dir_000002_000003.html" target="_top" xlink:title="9">
<text text-anchor="middle" x="237.69" y="-49.43" font-family="Helvetica,sans-Serif" font-size="10.00" fill="#63b8ff">9</text>
</a>
</g>
</g>
<!-- dir_9dceccddef60b978df5022f0b41dbc9e -->
<g id="node4" class="node">
<title>dir_9dceccddef60b978df5022f0b41dbc9e</title>
<g id="a_node4"><a xlink:href="dir_9dceccddef60b978df5022f0b41dbc9e.html" target="_top" xlink:title="inputs">
<polygon fill="#a2b4d6" stroke="#404040" points="173.5,-98 126.5,-98 126.5,-79 173.5,-79 173.5,-98"/>
<text text-anchor="middle" x="150" y="-86" font-family="Helvetica,sans-Serif" font-size="10.00">inputs</text>
</a>
</g>
</g>
<!-- dir_a19b4824e974c71d59ae4ca735096dff&#45;&gt;dir_9dceccddef60b978df5022f0b41dbc9e -->
<g id="edge4" class="edge">
<title>dir_a19b4824e974c71d59ae4ca735096dff&#45;&gt;dir_9dceccddef60b978df5022f0b41dbc9e</title>
<g id="a_edge4"><a xlink:href="dir_000002_000006.html" target="_top">
<path fill="none" stroke="#63b8ff" d="M139.75,-188.74C142.4,-179.84 146.26,-165.61 148,-153 150.05,-138.11 150.49,-121.08 150.44,-108.4"/>
<polygon fill="#63b8ff" stroke="#63b8ff" points="153.94,-108.13 150.3,-98.18 146.94,-108.22 153.94,-108.13"/>
</a>
</g>
<g id="a_edge4&#45;headlabel"><a xlink:href="dir_000002_000006.html" target="_top" xlink:title="2">
<text text-anchor="middle" x="156.83" y="-109.18" font-family="Helvetica,sans-Serif" font-size="10.00" fill="#63b8ff">2</text>
</a>
</g>
</g>
<!-- dir_2519441f46465788c30b57c087679e95 -->
<g id="node5" class="node">
<title>dir_2519441f46465788c30b57c087679e95</title>
<g id="a_node5"><a xlink:href="dir_2519441f46465788c30b57c087679e95.html" target="_top" xlink:title="network">
<polygon fill="#a2b4d6" stroke="#404040" points="135,-43 79,-43 79,-24 135,-24 135,-43"/>
<text text-anchor="middle" x="107" y="-31" font-family="Helvetica,sans-Serif" font-size="10.00">network</text>
</a>
</g>
</g>
<!-- dir_a19b4824e974c71d59ae4ca735096dff&#45;&gt;dir_2519441f46465788c30b57c087679e95 -->
<g id="edge1" class="edge">
<title>dir_a19b4824e974c71d59ae4ca735096dff&#45;&gt;dir_2519441f46465788c30b57c087679e95</title>
<g id="a_edge1"><a xlink:href="dir_000002_000007.html" target="_top">
<path fill="none" stroke="#63b8ff" d="M121.06,-188.9C107.07,-180.85 86.74,-167.86 72,-153 51.25,-132.08 43.6,-126.18 35,-98 32.54,-89.92 30.89,-86.38 35,-79 43.04,-64.58 57.9,-54.24 72.04,-47.18"/>
<polygon fill="#63b8ff" stroke="#63b8ff" points="73.51,-50.36 81.15,-43.01 70.6,-43.99 73.51,-50.36"/>
</a>
</g>
<g id="a_edge1&#45;headlabel"><a xlink:href="dir_000002_000007.html" target="_top" xlink:title="4">
<text text-anchor="middle" x="71.43" y="-51.94" font-family="Helvetica,sans-Serif" font-size="10.00" fill="#63b8ff">4</text>
</a>
</g>
</g>
<!-- dir_34132730235b51c3140aa72d03fae1c1 -->
<g id="node6" class="node">
<title>dir_34132730235b51c3140aa72d03fae1c1</title>
<g id="a_node6"><a xlink:href="dir_34132730235b51c3140aa72d03fae1c1.html" target="_top" xlink:title="scene">
<polygon fill="#a2b4d6" stroke="#404040" points="138.5,-153 93.5,-153 93.5,-134 138.5,-134 138.5,-153"/>
<text text-anchor="middle" x="116" y="-141" font-family="Helvetica,sans-Serif" font-size="10.00">scene</text>
</a>
</g>
</g>
<!-- dir_a19b4824e974c71d59ae4ca735096dff&#45;&gt;dir_34132730235b51c3140aa72d03fae1c1 -->
<g id="edge2" class="edge">
<title>dir_a19b4824e974c71d59ae4ca735096dff&#45;&gt;dir_34132730235b51c3140aa72d03fae1c1</title>
<g id="a_edge2"><a xlink:href="dir_000002_000010.html" target="_top">
<path fill="none" stroke="#63b8ff" d="M133.53,-188.75C130.72,-181.65 126.66,-171.4 123.15,-162.56"/>
<polygon fill="#63b8ff" stroke="#63b8ff" points="126.34,-161.1 119.4,-153.09 119.83,-163.68 126.34,-161.1"/>
</a>
</g>
<g id="a_edge2&#45;headlabel"><a xlink:href="dir_000002_000010.html" target="_top" xlink:title="1">
<text text-anchor="middle" x="130.3" y="-160.89" font-family="Helvetica,sans-Serif" font-size="10.00" fill="#63b8ff">1</text>
</a>
</g>
</g>
<!-- dir_ba3a87137d3f1a09b7800a8a8422176c -->
<g id="node7" class="node">
<title>dir_ba3a87137d3f1a09b7800a8a8422176c</title>
<g id="a_node7"><a xlink:href="dir_ba3a87137d3f1a09b7800a8a8422176c.html" target="_top" xlink:title="settings">
<polygon fill="#a2b4d6" stroke="#404040" points="261,-153 205,-153 205,-134 261,-134 261,-153"/>
<text text-anchor="middle" x="233" y="-141" font-family="Helvetica,sans-Serif" font-size="10.00">settings</text>
</a>
</g>
</g>
<!-- dir_a19b4824e974c71d59ae4ca735096dff&#45;&gt;dir_ba3a87137d3f1a09b7800a8a8422176c -->
<g id="edge6" class="edge">
<title>dir_a19b4824e974c71d59ae4ca735096dff&#45;&gt;dir_ba3a87137d3f1a09b7800a8a8422176c</title>
<g id="a_edge6"><a xlink:href="dir_000002_000013.html" target="_top">
<path fill="none" stroke="#63b8ff" d="M152.42,-188.98C167.45,-180.69 190.54,-167.94 208.16,-158.22"/>
<polygon fill="#63b8ff" stroke="#63b8ff" points="210.23,-161.07 217.3,-153.17 206.85,-154.94 210.23,-161.07"/>
</a>
</g>
<g id="a_edge6&#45;headlabel"><a xlink:href="dir_000002_000013.html" target="_top" xlink:title="1">
<text text-anchor="middle" x="208.46" y="-162.79" font-family="Helvetica,sans-Serif" font-size="10.00" fill="#63b8ff">1</text>
</a>
</g>
</g>
<!-- dir_9dceccddef60b978df5022f0b41dbc9e&#45;&gt;dir_64944a549c24e7180c12dd28351c77bb -->
<g id="edge8" class="edge">
<title>dir_9dceccddef60b978df5022f0b41dbc9e&#45;&gt;dir_64944a549c24e7180c12dd28351c77bb</title>
<g id="a_edge8"><a xlink:href="dir_000006_000003.html" target="_top">
<path fill="none" stroke="#63b8ff" d="M161.09,-78.98C171.49,-71 187.26,-58.88 199.72,-49.31"/>
<polygon fill="#63b8ff" stroke="#63b8ff" points="201.91,-52.04 207.71,-43.17 197.65,-46.49 201.91,-52.04"/>
</a>
</g>
<g id="a_edge8&#45;headlabel"><a xlink:href="dir_000006_000003.html" target="_top" xlink:title="1">
<text text-anchor="middle" x="200.79" y="-53.98" font-family="Helvetica,sans-Serif" font-size="10.00" fill="#63b8ff">1</text>
</a>
</g>
</g>
<!-- dir_9dceccddef60b978df5022f0b41dbc9e&#45;&gt;dir_2519441f46465788c30b57c087679e95 -->
<g id="edge7" class="edge">
<title>dir_9dceccddef60b978df5022f0b41dbc9e&#45;&gt;dir_2519441f46465788c30b57c087679e95</title>
<g id="a_edge7"><a xlink:href="dir_000006_000007.html" target="_top">
<path fill="none" stroke="#63b8ff" d="M142.9,-78.75C136.83,-71.26 127.91,-60.28 120.49,-51.13"/>
<polygon fill="#63b8ff" stroke="#63b8ff" points="122.99,-48.65 113.97,-43.09 117.55,-53.06 122.99,-48.65"/>
</a>
</g>
<g id="a_edge7&#45;headlabel"><a xlink:href="dir_000006_000007.html" target="_top" xlink:title="1">
<text text-anchor="middle" x="127.46" y="-47.15" font-family="Helvetica,sans-Serif" font-size="10.00" fill="#63b8ff">1</text>
</a>
</g>
</g>
<!-- dir_34132730235b51c3140aa72d03fae1c1&#45;&gt;dir_ab71f7a991687443350cd4cabf249295 -->
<g id="edge13" class="edge">
<title>dir_34132730235b51c3140aa72d03fae1c1&#45;&gt;dir_ab71f7a991687443350cd4cabf249295</title>
<g id="a_edge13"><a xlink:href="dir_000010_000000.html" target="_top">
<path fill="none" stroke="#63b8ff" d="M107.74,-133.75C100.54,-126.11 89.89,-114.82 81.15,-105.56"/>
<polygon fill="#63b8ff" stroke="#63b8ff" points="83.51,-102.96 74.1,-98.09 78.42,-107.76 83.51,-102.96"/>
</a>
</g>
<g id="a_edge13&#45;headlabel"><a xlink:href="dir_000010_000000.html" target="_top" xlink:title="1">
<text text-anchor="middle" x="88.04" y="-101.13" font-family="Helvetica,sans-Serif" font-size="10.00" fill="#63b8ff">1</text>
</a>
</g>
</g>
<!-- dir_34132730235b51c3140aa72d03fae1c1&#45;&gt;dir_64944a549c24e7180c12dd28351c77bb -->
<g id="edge11" class="edge">
<title>dir_34132730235b51c3140aa72d03fae1c1&#45;&gt;dir_64944a549c24e7180c12dd28351c77bb</title>
<g id="a_edge11"><a xlink:href="dir_000010_000003.html" target="_top">
<path fill="none" stroke="#63b8ff" d="M138.58,-140.96C165.53,-137.78 209.51,-128 230,-98 239.15,-84.6 234.4,-66 228.57,-52.4"/>
<polygon fill="#63b8ff" stroke="#63b8ff" points="231.6,-50.62 224.11,-43.14 225.29,-53.66 231.6,-50.62"/>
</a>
</g>
<g id="a_edge11&#45;headlabel"><a xlink:href="dir_000010_000003.html" target="_top" xlink:title="2">
<text text-anchor="middle" x="235.72" y="-50.13" font-family="Helvetica,sans-Serif" font-size="10.00" fill="#63b8ff">2</text>
</a>
</g>
</g>
<!-- dir_34132730235b51c3140aa72d03fae1c1&#45;&gt;dir_9dceccddef60b978df5022f0b41dbc9e -->
<g id="edge12" class="edge">
<title>dir_34132730235b51c3140aa72d03fae1c1&#45;&gt;dir_9dceccddef60b978df5022f0b41dbc9e</title>
<g id="a_edge12"><a xlink:href="dir_000010_000006.html" target="_top">
<path fill="none" stroke="#63b8ff" d="M121.61,-133.75C126.32,-126.42 133.17,-115.73 138.97,-106.7"/>
<polygon fill="#63b8ff" stroke="#63b8ff" points="142.04,-108.4 144.49,-98.09 136.14,-104.62 142.04,-108.4"/>
</a>
</g>
<g id="a_edge12&#45;headlabel"><a xlink:href="dir_000010_000006.html" target="_top" xlink:title="1">
<text text-anchor="middle" x="142.49" y="-110.45" font-family="Helvetica,sans-Serif" font-size="10.00" fill="#63b8ff">1</text>
</a>
</g>
</g>
<!-- dir_34132730235b51c3140aa72d03fae1c1&#45;&gt;dir_2519441f46465788c30b57c087679e95 -->
<g id="edge10" class="edge">
<title>dir_34132730235b51c3140aa72d03fae1c1&#45;&gt;dir_2519441f46465788c30b57c087679e95</title>
<g id="a_edge10"><a xlink:href="dir_000010_000007.html" target="_top">
<path fill="none" stroke="#63b8ff" d="M115.26,-133.66C113.81,-116.17 110.53,-76.8 108.56,-53.27"/>
<polygon fill="#63b8ff" stroke="#63b8ff" points="112.04,-52.83 107.72,-43.16 105.06,-53.41 112.04,-52.83"/>
</a>
</g>
<g id="a_edge10&#45;headlabel"><a xlink:href="dir_000010_000007.html" target="_top" xlink:title="1">
<text text-anchor="middle" x="115.17" y="-53.68" font-family="Helvetica,sans-Serif" font-size="10.00" fill="#63b8ff">1</text>
</a>
</g>
</g>
<!-- dir_0f7996a2b8c9fc0a787aa05c3c30ab3a -->
<g id="node8" class="node">
<title>dir_0f7996a2b8c9fc0a787aa05c3c30ab3a</title>
<g id="a_node8"><a xlink:href="dir_0f7996a2b8c9fc0a787aa05c3c30ab3a.html" target="_top" xlink:title="ui">
<polygon fill="#a2b4d6" stroke="#404040" points="220.5,-98 191.5,-98 191.5,-79 220.5,-79 220.5,-98"/>
<text text-anchor="middle" x="206" y="-86" font-family="Helvetica,sans-Serif" font-size="10.00">ui</text>
</a>
</g>
</g>
<!-- dir_34132730235b51c3140aa72d03fae1c1&#45;&gt;dir_0f7996a2b8c9fc0a787aa05c3c30ab3a -->
<g id="edge9" class="edge">
<title>dir_34132730235b51c3140aa72d03fae1c1&#45;&gt;dir_0f7996a2b8c9fc0a787aa05c3c30ab3a</title>
<g id="a_edge9"><a xlink:href="dir_000010_000016.html" target="_top">
<path fill="none" stroke="#63b8ff" d="M130.46,-133.98C144.42,-125.77 165.79,-113.18 182.25,-103.49"/>
<polygon fill="#63b8ff" stroke="#63b8ff" points="184.44,-106.26 191.28,-98.17 180.88,-100.23 184.44,-106.26"/>
</a>
</g>
<g id="a_edge9&#45;headlabel"><a xlink:href="dir_000010_000016.html" target="_top" xlink:title="1">
<text text-anchor="middle" x="182.78" y="-108.03" font-family="Helvetica,sans-Serif" font-size="10.00" fill="#63b8ff">1</text>
</a>
</g>
</g>
<!-- dir_0f7996a2b8c9fc0a787aa05c3c30ab3a&#45;&gt;dir_64944a549c24e7180c12dd28351c77bb -->
<g id="edge14" class="edge">
<title>dir_0f7996a2b8c9fc0a787aa05c3c30ab3a&#45;&gt;dir_64944a549c24e7180c12dd28351c77bb</title>
<g id="a_edge14"><a xlink:href="dir_000016_000003.html" target="_top">
<path fill="none" stroke="#63b8ff" d="M208.15,-78.75C209.87,-71.72 212.35,-61.62 214.5,-52.84"/>
<polygon fill="#63b8ff" stroke="#63b8ff" points="217.91,-53.63 216.89,-43.09 211.11,-51.97 217.91,-53.63"/>
</a>
</g>
<g id="a_edge14&#45;headlabel"><a xlink:href="dir_000016_000003.html" target="_top" xlink:title="2">
<text text-anchor="middle" x="219.81" y="-55.3" font-family="Helvetica,sans-Serif" font-size="10.00" fill="#63b8ff">2</text>
</a>
</g>
</g>
</g>
</svg>
