<?xml version="1.0" encoding="UTF-8" standalone="no"?>
<!DOCTYPE svg PUBLIC "-//W3C//DTD SVG 1.1//EN"
 "http://www.w3.org/Graphics/SVG/1.1/DTD/svg11.dtd">
<!-- Generated by graphviz version 2.43.0 (0)
 -->
<!-- Title: /home/runner/work/R&#45;Type/R&#45;Type/Shared/systems Pages: 1 -->
<svg width="403pt" height="251pt"
 viewBox="0.00 0.00 402.50 251.00" xmlns="http://www.w3.org/2000/svg" xmlns:xlink="http://www.w3.org/1999/xlink">
<g id="graph0" class="graph" transform="scale(1 1) rotate(0) translate(4 247)">
<title>/home/runner/work/R&#45;Type/R&#45;Type/Shared/systems</title>
<g id="clust1" class="cluster">
<title>clusterdir_da555cc5272c9bb1aca8990be5c6787a</title>
<g id="a_clust1"><a xlink:href="dir_da555cc5272c9bb1aca8990be5c6787a.html" target="_top" xlink:title="Shared">
<polygon fill="#edf0f7" stroke="#404040" stroke-dasharray="5,2" points="8,-8 8,-235 341,-235 341,-8 8,-8"/>
<text text-anchor="middle" x="174.5" y="-223" font-family="Helvetica,sans-Serif" font-size="10.00">Shared</text>
</a>
</g>
</g>
<g id="clust2" class="cluster">
<title>clusterdir_205151da98a479b75597daf800ee84aa</title>
<g id="a_clust2"><a xlink:href="dir_205151da98a479b75597daf800ee84aa.html" target="_top">
<polygon fill="#edf0f7" stroke="#404040" stroke-width="2" points="48,-63 48,-208 333,-208 333,-63 48,-63"/>
</a>
</g>
</g>
<!-- dir_cfe90d69853c3cfc622382556b102c7f -->
<g id="node1" class="node">
<title>dir_cfe90d69853c3cfc622382556b102c7f</title>
<g id="a_node1"><a xlink:href="dir_cfe90d69853c3cfc622382556b102c7f.html" target="_top" xlink:title="components">
<polygon fill="#a2b4d6" stroke="red" points="105.5,-35 28.5,-35 28.5,-16 105.5,-16 105.5,-35"/>
<text text-anchor="middle" x="67" y="-23" font-family="Helvetica,sans-Serif" font-size="10.00">components</text>
</a>
</g>
</g>
<!-- dir_db115a137d493abc109e324333776603 -->
<g id="node2" class="node">
<title>dir_db115a137d493abc109e324333776603</title>
<g id="a_node2"><a xlink:href="dir_db115a137d493abc109e324333776603.html" target="_top" xlink:title="ecs">
<polygon fill="#a2b4d6" stroke="#404040" points="191.5,-35 158.5,-35 158.5,-16 191.5,-16 191.5,-35"/>
<text text-anchor="middle" x="175" y="-23" font-family="Helvetica,sans-Serif" font-size="10.00">ecs</text>
</a>
</g>
</g>
<!-- dir_205151da98a479b75597daf800ee84aa -->
<g id="node3" class="node">
<title>dir_205151da98a479b75597daf800ee84aa</title>
<text text-anchor="middle" x="130" y="-188" font-family="Helvetica,sans-Serif" font-size="10.00">systems</text>
</g>
<!-- dir_205151da98a479b75597daf800ee84aa&#45;&gt;dir_cfe90d69853c3cfc622382556b102c7f -->
<g id="edge5" class="edge">
<title>dir_205151da98a479b75597daf800ee84aa&#45;&gt;dir_cfe90d69853c3cfc622382556b102c7f</title>
<g id="a_edge5"><a xlink:href="dir_000026_000004.html" target="_top">
<path fill="none" stroke="#63b8ff" d="M100.88,-183.43C80.24,-177.44 53.99,-166.01 41,-145 21.34,-113.19 41.45,-68.51 55.63,-44.11"/>
<polygon fill="#63b8ff" stroke="#63b8ff" points="58.81,-45.62 61.03,-35.26 52.83,-41.97 58.81,-45.62"/>
</a>
</g>
<g id="a_edge5&#45;headlabel"><a xlink:href="dir_000026_000004.html" target="_top" xlink:title="38">
<text text-anchor="middle" x="59.36" y="-47.67" font-family="Helvetica,sans-Serif" font-size="10.00" fill="#63b8ff">38</text>
</a>
</g>
</g>
<!-- dir_205151da98a479b75597daf800ee84aa&#45;&gt;dir_db115a137d493abc109e324333776603 -->
<g id="edge6" class="edge">
<title>dir_205151da98a479b75597daf800ee84aa&#45;&gt;dir_db115a137d493abc109e324333776603</title>
<g id="a_edge6"><a xlink:href="dir_000026_000005.html" target="_top">
<path fill="none" stroke="#63b8ff" d="M100.94,-181.33C72.26,-171.56 34.39,-153.05 47,-126 67.38,-82.26 117.87,-52.48 149,-37.58"/>
<polygon fill="#63b8ff" stroke="#63b8ff" points="150.75,-40.63 158.37,-33.26 147.82,-34.27 150.75,-40.63"/>
</a>
</g>
<g id="a_edge6&#45;headlabel"><a xlink:href="dir_000026_000005.html" target="_top" xlink:title="19">
<text text-anchor="middle" x="148.67" y="-42.21" font-family="Helvetica,sans-Serif" font-size="10.00" fill="#63b8ff">19</text>
</a>
</g>
</g>
<!-- dir_a3ca071bb78cbe25217e6b69de0e0d6e -->
<g id="node4" class="node">
<title>dir_a3ca071bb78cbe25217e6b69de0e0d6e</title>
<g id="a_node4"><a xlink:href="dir_a3ca071bb78cbe25217e6b69de0e0d6e.html" target="_top" xlink:title="Collision">
<polygon fill="#a2b4d6" stroke="#404040" points="115.5,-145 56.5,-145 56.5,-126 115.5,-126 115.5,-145"/>
<text text-anchor="middle" x="86" y="-133" font-family="Helvetica,sans-Serif" font-size="10.00">Collision</text>
</a>
</g>
</g>
<!-- dir_205151da98a479b75597daf800ee84aa&#45;&gt;dir_a3ca071bb78cbe25217e6b69de0e0d6e -->
<g id="edge4" class="edge">
<title>dir_205151da98a479b75597daf800ee84aa&#45;&gt;dir_a3ca071bb78cbe25217e6b69de0e0d6e</title>
<g id="a_edge4"><a xlink:href="dir_000026_000003.html" target="_top">
<path fill="none" stroke="#63b8ff" d="M122.73,-180.75C116.46,-173.18 107.21,-162.05 99.57,-152.84"/>
<polygon fill="#63b8ff" stroke="#63b8ff" points="102.21,-150.55 93.13,-145.09 96.83,-155.02 102.21,-150.55"/>
</a>
</g>
<g id="a_edge4&#45;headlabel"><a xlink:href="dir_000026_000003.html" target="_top" xlink:title="1">
<text text-anchor="middle" x="106.69" y="-149" font-family="Helvetica,sans-Serif" font-size="10.00" fill="#63b8ff">1</text>
</a>
</g>
</g>
<!-- dir_10b53c567d47def73222b77e22618aed -->
<g id="node5" class="node">
<title>dir_10b53c567d47def73222b77e22618aed</title>
<g id="a_node5"><a xlink:href="dir_10b53c567d47def73222b77e22618aed.html" target="_top" xlink:title="Helpers">
<polygon fill="#a2b4d6" stroke="#404040" points="256,-90 202,-90 202,-71 256,-71 256,-90"/>
<text text-anchor="middle" x="229" y="-78" font-family="Helvetica,sans-Serif" font-size="10.00">Helpers</text>
</a>
</g>
</g>
<!-- dir_205151da98a479b75597daf800ee84aa&#45;&gt;dir_10b53c567d47def73222b77e22618aed -->
<g id="edge1" class="edge">
<title>dir_205151da98a479b75597daf800ee84aa&#45;&gt;dir_10b53c567d47def73222b77e22618aed</title>
<g id="a_edge1"><a xlink:href="dir_000026_000008.html" target="_top">
<path fill="none" stroke="#63b8ff" d="M159.26,-184.09C181.24,-178.36 210.03,-166.98 225,-145 233.84,-132.02 234.09,-113.87 232.57,-100.29"/>
<polygon fill="#63b8ff" stroke="#63b8ff" points="236,-99.54 231.03,-90.18 229.08,-100.6 236,-99.54"/>
</a>
</g>
<g id="a_edge1&#45;headlabel"><a xlink:href="dir_000026_000008.html" target="_top" xlink:title="3">
<text text-anchor="middle" x="239.35" y="-100.16" font-family="Helvetica,sans-Serif" font-size="10.00" fill="#63b8ff">3</text>
</a>
</g>
</g>
<!-- dir_41dab95a9fb2c559a6e5120a7e3373fc -->
<g id="node7" class="node">
<title>dir_41dab95a9fb2c559a6e5120a7e3373fc</title>
<g id="a_node7"><a xlink:href="dir_41dab95a9fb2c559a6e5120a7e3373fc.html" target="_top" xlink:title="SpawnEnemy">
<polygon fill="#a2b4d6" stroke="#404040" points="216.5,-145 133.5,-145 133.5,-126 216.5,-126 216.5,-145"/>
<text text-anchor="middle" x="175" y="-133" font-family="Helvetica,sans-Serif" font-size="10.00">SpawnEnemy</text>
</a>
</g>
</g>
<!-- dir_205151da98a479b75597daf800ee84aa&#45;&gt;dir_41dab95a9fb2c559a6e5120a7e3373fc -->
<g id="edge2" class="edge">
<title>dir_205151da98a479b75597daf800ee84aa&#45;&gt;dir_41dab95a9fb2c559a6e5120a7e3373fc</title>
<g id="a_edge2"><a xlink:href="dir_000026_000023.html" target="_top">
<path fill="none" stroke="#63b8ff" d="M137.43,-180.75C143.85,-173.18 153.31,-162.05 161.12,-152.84"/>
<polygon fill="#63b8ff" stroke="#63b8ff" points="163.9,-154.98 167.71,-145.09 158.57,-150.45 163.9,-154.98"/>
</a>
</g>
<g id="a_edge2&#45;headlabel"><a xlink:href="dir_000026_000023.html" target="_top" xlink:title="1">
<text text-anchor="middle" x="163.74" y="-157.06" font-family="Helvetica,sans-Serif" font-size="10.00" fill="#63b8ff">1</text>
</a>
</g>
</g>
<!-- dir_922c588100a187620fdc1533bc178f73 -->
<g id="node8" class="node">
<title>dir_922c588100a187620fdc1533bc178f73</title>
<g id="a_node8"><a xlink:href="dir_922c588100a187620fdc1533bc178f73.html" target="_top" xlink:title="Client">
<polygon fill="#edf0f7" stroke="red" points="394.5,-35 349.5,-35 349.5,-16 394.5,-16 394.5,-35"/>
<text text-anchor="middle" x="372" y="-23" font-family="Helvetica,sans-Serif" font-size="10.00">Client</text>
</a>
</g>
</g>
<!-- dir_205151da98a479b75597daf800ee84aa&#45;&gt;dir_922c588100a187620fdc1533bc178f73 -->
<g id="edge3" class="edge">
<title>dir_205151da98a479b75597daf800ee84aa&#45;&gt;dir_922c588100a187620fdc1533bc178f73</title>
<g id="a_edge3"><a xlink:href="dir_000026_000001.html" target="_top">
<path fill="none" stroke="#63b8ff" d="M159.4,-186.69C209.54,-181.31 308.65,-168.04 334,-145 362.55,-119.05 369.76,-71.64 371.51,-45.34"/>
<polygon fill="#63b8ff" stroke="#63b8ff" points="375.01,-45.34 371.98,-35.19 368.02,-45.02 375.01,-45.34"/>
</a>
</g>
<g id="a_edge3&#45;headlabel"><a xlink:href="dir_000026_000001.html" target="_top" xlink:title="3">
<text text-anchor="middle" x="377.68" y="-46.56" font-family="Helvetica,sans-Serif" font-size="10.00" fill="#63b8ff">3</text>
</a>
</g>
</g>
<!-- dir_a3ca071bb78cbe25217e6b69de0e0d6e&#45;&gt;dir_cfe90d69853c3cfc622382556b102c7f -->
<g id="edge7" class="edge">
<title>dir_a3ca071bb78cbe25217e6b69de0e0d6e&#45;&gt;dir_cfe90d69853c3cfc622382556b102c7f</title>
<g id="a_edge7"><a xlink:href="dir_000003_000004.html" target="_top">
<path fill="none" stroke="#63b8ff" d="M79.63,-125.84C73.74,-117.25 65.39,-103.45 62,-90 58.27,-75.24 60,-57.99 62.39,-45.2"/>
<polygon fill="#63b8ff" stroke="#63b8ff" points="65.85,-45.79 64.55,-35.28 59.01,-44.31 65.85,-45.79"/>
</a>
</g>
<g id="a_edge7&#45;headlabel"><a xlink:href="dir_000003_000004.html" target="_top" xlink:title="11">
<text text-anchor="middle" x="67.86" y="-47.41" font-family="Helvetica,sans-Serif" font-size="10.00" fill="#63b8ff">11</text>
</a>
</g>
</g>
<!-- dir_a3ca071bb78cbe25217e6b69de0e0d6e&#45;&gt;dir_db115a137d493abc109e324333776603 -->
<g id="edge8" class="edge">
<title>dir_a3ca071bb78cbe25217e6b69de0e0d6e&#45;&gt;dir_db115a137d493abc109e324333776603</title>
<g id="a_edge8"><a xlink:href="dir_000003_000005.html" target="_top">
<path fill="none" stroke="#63b8ff" d="M93.28,-125.66C108.16,-107.61 142.22,-66.28 161.34,-43.08"/>
<polygon fill="#63b8ff" stroke="#63b8ff" points="164.21,-45.1 167.86,-35.16 158.8,-40.65 164.21,-45.1"/>
</a>
</g>
<g id="a_edge8&#45;headlabel"><a xlink:href="dir_000003_000005.html" target="_top" xlink:title="3">
<text text-anchor="middle" x="164.11" y="-47.18" font-family="Helvetica,sans-Serif" font-size="10.00" fill="#63b8ff">3</text>
</a>
</g>
</g>
<!-- dir_10b53c567d47def73222b77e22618aed&#45;&gt;dir_cfe90d69853c3cfc622382556b102c7f -->
<g id="edge10" class="edge">
<title>dir_10b53c567d47def73222b77e22618aed&#45;&gt;dir_cfe90d69853c3cfc622382556b102c7f</title>
<g id="a_edge10"><a xlink:href="dir_000008_000004.html" target="_top">
<path fill="none" stroke="#63b8ff" d="M214.49,-70.94C209.39,-68.16 203.55,-65.22 198,-63 171.41,-52.37 140.61,-43.62 115.56,-37.35"/>
<polygon fill="#63b8ff" stroke="#63b8ff" points="116.1,-33.88 105.56,-34.9 114.44,-40.68 116.1,-33.88"/>
</a>
</g>
<g id="a_edge10&#45;headlabel"><a xlink:href="dir_000008_000004.html" target="_top" xlink:title="7">
<text text-anchor="middle" x="120.27" y="-29.48" font-family="Helvetica,sans-Serif" font-size="10.00" fill="#63b8ff">7</text>
</a>
</g>
</g>
<!-- dir_10b53c567d47def73222b77e22618aed&#45;&gt;dir_db115a137d493abc109e324333776603 -->
<g id="edge11" class="edge">
<title>dir_10b53c567d47def73222b77e22618aed&#45;&gt;dir_db115a137d493abc109e324333776603</title>
<g id="a_edge11"><a xlink:href="dir_000008_000005.html" target="_top">
<path fill="none" stroke="#63b8ff" d="M220.08,-70.75C212.22,-63.03 200.57,-51.6 191.08,-42.28"/>
<polygon fill="#63b8ff" stroke="#63b8ff" points="193.34,-39.6 183.75,-35.09 188.44,-44.59 193.34,-39.6"/>
</a>
</g>
<g id="a_edge11&#45;headlabel"><a xlink:href="dir_000008_000005.html" target="_top" xlink:title="1">
<text text-anchor="middle" x="197.89" y="-37.59" font-family="Helvetica,sans-Serif" font-size="10.00" fill="#63b8ff">1</text>
</a>
</g>
</g>
<!-- dir_10b53c567d47def73222b77e22618aed&#45;&gt;dir_922c588100a187620fdc1533bc178f73 -->
<g id="edge9" class="edge">
<title>dir_10b53c567d47def73222b77e22618aed&#45;&gt;dir_922c588100a187620fdc1533bc178f73</title>
<g id="a_edge9"><a xlink:href="dir_000008_000001.html" target="_top">
<path fill="none" stroke="#63b8ff" d="M251.98,-70.98C275.64,-62.21 312.73,-48.47 339.41,-38.58"/>
<polygon fill="#63b8ff" stroke="#63b8ff" points="340.92,-41.75 349.08,-34.99 338.49,-35.19 340.92,-41.75"/>
</a>
</g>
<g id="a_edge9&#45;headlabel"><a xlink:href="dir_000008_000001.html" target="_top" xlink:title="1">
<text text-anchor="middle" x="338.54" y="-43.16" font-family="Helvetica,sans-Serif" font-size="10.00" fill="#63b8ff">1</text>
</a>
</g>
</g>
<!-- dir_206f092d44f48808d372197cdcfd6d06 -->
<g id="node6" class="node">
<title>dir_206f092d44f48808d372197cdcfd6d06</title>
<g id="a_node6"><a xlink:href="dir_206f092d44f48808d372197cdcfd6d06.html" target="_top" xlink:title="Movement">
<polygon fill="#a2b4d6" stroke="#404040" points="324.5,-145 255.5,-145 255.5,-126 324.5,-126 324.5,-145"/>
<text text-anchor="middle" x="290" y="-133" font-family="Helvetica,sans-Serif" font-size="10.00">Movement</text>
</a>
</g>
</g>
<!-- dir_206f092d44f48808d372197cdcfd6d06&#45;&gt;dir_cfe90d69853c3cfc622382556b102c7f -->
<g id="edge14" class="edge">
<title>dir_206f092d44f48808d372197cdcfd6d06&#45;&gt;dir_cfe90d69853c3cfc622382556b102c7f</title>
<g id="a_edge14"><a xlink:href="dir_000012_000004.html" target="_top">
<path fill="none" stroke="#63b8ff" d="M270.58,-125.84C250.93,-117.02 219.71,-102.85 193,-90 157.96,-73.14 117.94,-52.78 92.58,-39.74"/>
<polygon fill="#63b8ff" stroke="#63b8ff" points="94.11,-36.59 83.62,-35.12 90.9,-42.81 94.11,-36.59"/>
</a>
</g>
<g id="a_edge14&#45;headlabel"><a xlink:href="dir_000012_000004.html" target="_top" xlink:title="10">
<text text-anchor="middle" x="98.6" y="-33.21" font-family="Helvetica,sans-Serif" font-size="10.00" fill="#63b8ff">10</text>
</a>
</g>
</g>
<!-- dir_206f092d44f48808d372197cdcfd6d06&#45;&gt;dir_db115a137d493abc109e324333776603 -->
<g id="edge15" class="edge">
<title>dir_206f092d44f48808d372197cdcfd6d06&#45;&gt;dir_db115a137d493abc109e324333776603</title>
<g id="a_edge15"><a xlink:href="dir_000012_000005.html" target="_top">
<path fill="none" stroke="#63b8ff" d="M289.25,-125.84C287.54,-111.07 282.05,-80.9 265,-63 248.15,-45.3 221.52,-35.94 201.6,-31.15"/>
<polygon fill="#63b8ff" stroke="#63b8ff" points="202.12,-27.69 191.6,-28.99 200.64,-34.53 202.12,-27.69"/>
</a>
</g>
<g id="a_edge15&#45;headlabel"><a xlink:href="dir_000012_000005.html" target="_top" xlink:title="3">
<text text-anchor="middle" x="206.23" y="-23.17" font-family="Helvetica,sans-Serif" font-size="10.00" fill="#63b8ff">3</text>
</a>
</g>
</g>
<!-- dir_206f092d44f48808d372197cdcfd6d06&#45;&gt;dir_10b53c567d47def73222b77e22618aed -->
<g id="edge12" class="edge">
<title>dir_206f092d44f48808d372197cdcfd6d06&#45;&gt;dir_10b53c567d47def73222b77e22618aed</title>
<g id="a_edge12"><a xlink:href="dir_000012_000008.html" target="_top">
<path fill="none" stroke="#63b8ff" d="M280.2,-125.98C271.18,-118.15 257.59,-106.34 246.68,-96.86"/>
<polygon fill="#63b8ff" stroke="#63b8ff" points="248.82,-94.09 238.98,-90.17 244.23,-99.37 248.82,-94.09"/>
</a>
</g>
<g id="a_edge12&#45;headlabel"><a xlink:href="dir_000012_000008.html" target="_top" xlink:title="1">
<text text-anchor="middle" x="253.4" y="-91.8" font-family="Helvetica,sans-Serif" font-size="10.00" fill="#63b8ff">1</text>
</a>
</g>
</g>
<!-- dir_206f092d44f48808d372197cdcfd6d06&#45;&gt;dir_922c588100a187620fdc1533bc178f73 -->
<g id="edge13" class="edge">
<title>dir_206f092d44f48808d372197cdcfd6d06&#45;&gt;dir_922c588100a187620fdc1533bc178f73</title>
<g id="a_edge13"><a xlink:href="dir_000012_000001.html" target="_top">
<path fill="none" stroke="#63b8ff" d="M296.71,-125.66C310.35,-107.69 341.52,-66.64 359.18,-43.38"/>
<polygon fill="#63b8ff" stroke="#63b8ff" points="362.17,-45.24 365.43,-35.16 356.59,-41.01 362.17,-45.24"/>
</a>
</g>
<g id="a_edge13&#45;headlabel"><a xlink:href="dir_000012_000001.html" target="_top" xlink:title="1">
<text text-anchor="middle" x="362.25" y="-47.32" font-family="Helvetica,sans-Serif" font-size="10.00" fill="#63b8ff">1</text>
</a>
</g>
</g>
<!-- dir_41dab95a9fb2c559a6e5120a7e3373fc&#45;&gt;dir_cfe90d69853c3cfc622382556b102c7f -->
<g id="edge17" class="edge">
<title>dir_41dab95a9fb2c559a6e5120a7e3373fc&#45;&gt;dir_cfe90d69853c3cfc622382556b102c7f</title>
<g id="a_edge17"><a xlink:href="dir_000023_000004.html" target="_top">
<path fill="none" stroke="#63b8ff" d="M140.2,-125.94C120.35,-119.31 96.6,-108.12 82,-90 71.89,-77.46 68.39,-59.26 67.27,-45.56"/>
<polygon fill="#63b8ff" stroke="#63b8ff" points="70.75,-45.15 66.79,-35.33 63.76,-45.48 70.75,-45.15"/>
</a>
</g>
<g id="a_edge17&#45;headlabel"><a xlink:href="dir_000023_000004.html" target="_top" xlink:title="2">
<text text-anchor="middle" x="73.75" y="-46.11" font-family="Helvetica,sans-Serif" font-size="10.00" fill="#63b8ff">2</text>
</a>
</g>
</g>
<!-- dir_41dab95a9fb2c559a6e5120a7e3373fc&#45;&gt;dir_db115a137d493abc109e324333776603 -->
<g id="edge18" class="edge">
<title>dir_41dab95a9fb2c559a6e5120a7e3373fc&#45;&gt;dir_db115a137d493abc109e324333776603</title>
<g id="a_edge18"><a xlink:href="dir_000023_000005.html" target="_top">
<path fill="none" stroke="#63b8ff" d="M175,-125.66C175,-108.17 175,-68.8 175,-45.27"/>
<polygon fill="#63b8ff" stroke="#63b8ff" points="178.5,-45.16 175,-35.16 171.5,-45.16 178.5,-45.16"/>
</a>
</g>
<g id="a_edge18&#45;headlabel"><a xlink:href="dir_000023_000005.html" target="_top" xlink:title="2">
<text text-anchor="middle" x="181.34" y="-46.25" font-family="Helvetica,sans-Serif" font-size="10.00" fill="#63b8ff">2</text>
</a>
</g>
</g>
<!-- dir_41dab95a9fb2c559a6e5120a7e3373fc&#45;&gt;dir_10b53c567d47def73222b77e22618aed -->
<g id="edge16" class="edge">
<title>dir_41dab95a9fb2c559a6e5120a7e3373fc&#45;&gt;dir_10b53c567d47def73222b77e22618aed</title>
<g id="a_edge16"><a xlink:href="dir_000023_000008.html" target="_top">
<path fill="none" stroke="#63b8ff" d="M183.92,-125.75C191.78,-118.03 203.43,-106.6 212.92,-97.28"/>
<polygon fill="#63b8ff" stroke="#63b8ff" points="215.56,-99.59 220.25,-90.09 210.66,-94.6 215.56,-99.59"/>
</a>
</g>
<g id="a_edge16&#45;headlabel"><a xlink:href="dir_000023_000008.html" target="_top" xlink:title="1">
<text text-anchor="middle" x="214.99" y="-101.64" font-family="Helvetica,sans-Serif" font-size="10.00" fill="#63b8ff">1</text>
</a>
</g>
</g>
</g>
</svg>
