<?xml version="1.0" encoding="UTF-8" standalone="no"?>
<!DOCTYPE svg PUBLIC "-//W3C//DTD SVG 1.1//EN"
 "http://www.w3.org/Graphics/SVG/1.1/DTD/svg11.dtd">
<!-- Generated by graphviz version 2.43.0 (0)
 -->
<!-- Title: /home/runner/work/R&#45;Type/R&#45;Type/Shared/dynamicLibLoader/DLLoader.hpp Pages: 1 -->
<svg width="343pt" height="203pt"
 viewBox="0.00 0.00 343.00 203.00" xmlns="http://www.w3.org/2000/svg" xmlns:xlink="http://www.w3.org/1999/xlink">
<g id="graph0" class="graph" transform="scale(1 1) rotate(0) translate(4 199)">
<title>/home/runner/work/R&#45;Type/R&#45;Type/Shared/dynamicLibLoader/DLLoader.hpp</title>
<!-- Node1 -->
<g id="Node000001" class="node">
<title>Node1</title>
<g id="a_Node000001"><a xlink:title=" ">
<polygon fill="#999999" stroke="#666666" points="222.5,-195 44.5,-195 44.5,-154 222.5,-154 222.5,-195"/>
<text text-anchor="start" x="52.5" y="-183" font-family="Helvetica,sans-Serif" font-size="10.00">/home/runner/work/R</text>
<text text-anchor="start" x="52.5" y="-172" font-family="Helvetica,sans-Serif" font-size="10.00">&#45;Type/R&#45;Type/Shared</text>
<text text-anchor="middle" x="133.5" y="-161" font-family="Helvetica,sans-Serif" font-size="10.00">/dynamicLibLoader/DLLoader.hpp</text>
</a>
</g>
</g>
<!-- Node2 -->
<g id="Node000002" class="node">
<title>Node2</title>
<g id="a_Node000002"><a xlink:href="Main_8cpp.html" target="_top" xlink:title=" ">
<polygon fill="white" stroke="#666666" points="119,-118 0,-118 0,-77 119,-77 119,-118"/>
<text text-anchor="start" x="8" y="-106" font-family="Helvetica,sans-Serif" font-size="10.00">/home/runner/work/R</text>
<text text-anchor="start" x="8" y="-95" font-family="Helvetica,sans-Serif" font-size="10.00">&#45;Type/R&#45;Type/Client</text>
<text text-anchor="middle" x="59.5" y="-84" font-family="Helvetica,sans-Serif" font-size="10.00">/src/Main.cpp</text>
</a>
</g>
</g>
<!-- Node1&#45;&gt;Node2 -->
<g id="edge1_Node000001_Node000002" class="edge">
<title>Node1&#45;&gt;Node2</title>
<g id="a_edge1_Node000001_Node000002"><a xlink:title=" ">
<path fill="none" stroke="#63b8ff" d="M106.87,-146.51C97.6,-137.11 87.38,-126.76 78.81,-118.07"/>
<polygon fill="#63b8ff" stroke="#63b8ff" points="104.54,-149.13 114.06,-153.79 109.53,-144.22 104.54,-149.13"/>
</a>
</g>
</g>
<!-- Node3 -->
<g id="Node000003" class="node">
<title>Node3</title>
<g id="a_Node000003"><a xlink:href="ServerGame_8hpp.html" target="_top" xlink:title=" ">
<polygon fill="white" stroke="#666666" points="277.5,-118 137.5,-118 137.5,-77 277.5,-77 277.5,-118"/>
<text text-anchor="start" x="145.5" y="-106" font-family="Helvetica,sans-Serif" font-size="10.00">/home/runner/work/R</text>
<text text-anchor="start" x="145.5" y="-95" font-family="Helvetica,sans-Serif" font-size="10.00">&#45;Type/R&#45;Type/Server</text>
<text text-anchor="middle" x="207.5" y="-84" font-family="Helvetica,sans-Serif" font-size="10.00">/include/ServerGame.hpp</text>
</a>
</g>
</g>
<!-- Node1&#45;&gt;Node3 -->
<g id="edge2_Node000001_Node000003" class="edge">
<title>Node1&#45;&gt;Node3</title>
<g id="a_edge2_Node000001_Node000003"><a xlink:title=" ">
<path fill="none" stroke="#63b8ff" d="M160.13,-146.51C169.4,-137.11 179.62,-126.76 188.19,-118.07"/>
<polygon fill="#63b8ff" stroke="#63b8ff" points="157.47,-144.22 152.94,-153.79 162.46,-149.13 157.47,-144.22"/>
</a>
</g>
</g>
<!-- Node4 -->
<g id="Node000004" class="node">
<title>Node4</title>
<g id="a_Node000004"><a xlink:href="ServerGame_8cpp.html" target="_top" xlink:title=" ">
<polygon fill="white" stroke="#666666" points="198,-41 79,-41 79,0 198,0 198,-41"/>
<text text-anchor="start" x="87" y="-29" font-family="Helvetica,sans-Serif" font-size="10.00">/home/runner/work/R</text>
<text text-anchor="start" x="87" y="-18" font-family="Helvetica,sans-Serif" font-size="10.00">&#45;Type/R&#45;Type/Server</text>
<text text-anchor="middle" x="138.5" y="-7" font-family="Helvetica,sans-Serif" font-size="10.00">/src/ServerGame.cpp</text>
</a>
</g>
</g>
<!-- Node3&#45;&gt;Node4 -->
<g id="edge3_Node000003_Node000004" class="edge">
<title>Node3&#45;&gt;Node4</title>
<g id="a_edge3_Node000003_Node000004"><a xlink:title=" ">
<path fill="none" stroke="#63b8ff" d="M182.41,-69.23C173.84,-59.91 164.42,-49.67 156.51,-41.07"/>
<polygon fill="#63b8ff" stroke="#63b8ff" points="180.02,-71.81 189.37,-76.79 185.18,-67.07 180.02,-71.81"/>
</a>
</g>
</g>
<!-- Node5 -->
<g id="Node000005" class="node">
<title>Node5</title>
<g id="a_Node000005"><a xlink:href="main_8cpp.html" target="_top" xlink:title=" ">
<polygon fill="white" stroke="#666666" points="335,-41 216,-41 216,0 335,0 335,-41"/>
<text text-anchor="start" x="224" y="-29" font-family="Helvetica,sans-Serif" font-size="10.00">/home/runner/work/R</text>
<text text-anchor="start" x="224" y="-18" font-family="Helvetica,sans-Serif" font-size="10.00">&#45;Type/R&#45;Type/Server</text>
<text text-anchor="middle" x="275.5" y="-7" font-family="Helvetica,sans-Serif" font-size="10.00">/src/main.cpp</text>
</a>
</g>
</g>
<!-- Node3&#45;&gt;Node5 -->
<g id="edge4_Node000003_Node000005" class="edge">
<title>Node3&#45;&gt;Node5</title>
<g id="a_edge4_Node000003_Node000005"><a xlink:title=" ">
<path fill="none" stroke="#63b8ff" d="M232.22,-69.23C240.68,-59.91 249.96,-49.67 257.75,-41.07"/>
<polygon fill="#63b8ff" stroke="#63b8ff" points="229.49,-67.04 225.37,-76.79 234.68,-71.74 229.49,-67.04"/>
</a>
</g>
</g>
</g>
</svg>
