<?xml version="1.0" encoding="UTF-8" standalone="no"?>
<!DOCTYPE svg PUBLIC "-//W3C//DTD SVG 1.1//EN"
 "http://www.w3.org/Graphics/SVG/1.1/DTD/svg11.dtd">
<!-- Generated by graphviz version 2.43.0 (0)
 -->
<!-- Title: /home/runner/work/R&#45;Type/R&#45;Type/Shared/network/Encoder.hpp Pages: 1 -->
<svg width="1606pt" height="456pt"
 viewBox="0.00 0.00 1605.50 456.00" xmlns="http://www.w3.org/2000/svg" xmlns:xlink="http://www.w3.org/1999/xlink">
<g id="graph0" class="graph" transform="scale(1 1) rotate(0) translate(4 452)">
<title>/home/runner/work/R&#45;Type/R&#45;Type/Shared/network/Encoder.hpp</title>
<!-- Node1 -->
<g id="Node000001" class="node">
<title>Node1</title>
<g id="a_Node000001"><a xlink:title=" ">
<polygon fill="#999999" stroke="#666666" points="1214,-448 1092,-448 1092,-407 1214,-407 1214,-448"/>
<text text-anchor="start" x="1100" y="-436" font-family="Helvetica,sans-Serif" font-size="10.00">/home/runner/work/R</text>
<text text-anchor="start" x="1100" y="-425" font-family="Helvetica,sans-Serif" font-size="10.00">&#45;Type/R&#45;Type/Shared</text>
<text text-anchor="middle" x="1153" y="-414" font-family="Helvetica,sans-Serif" font-size="10.00">/network/Encoder.hpp</text>
</a>
</g>
</g>
<!-- Node2 -->
<g id="Node000002" class="node">
<title>Node2</title>
<g id="a_Node000002"><a xlink:href="NetworkManager_8hpp.html" target="_top" xlink:title=" ">
<polygon fill="white" stroke="#666666" points="998.5,-371 847.5,-371 847.5,-319 998.5,-319 998.5,-371"/>
<text text-anchor="start" x="855.5" y="-359" font-family="Helvetica,sans-Serif" font-size="10.00">/home/runner/work/R</text>
<text text-anchor="start" x="855.5" y="-348" font-family="Helvetica,sans-Serif" font-size="10.00">&#45;Type/R&#45;Type/Client</text>
<text text-anchor="start" x="855.5" y="-337" font-family="Helvetica,sans-Serif" font-size="10.00">/src/engine/network/include</text>
<text text-anchor="middle" x="923" y="-326" font-family="Helvetica,sans-Serif" font-size="10.00">/NetworkManager.hpp</text>
</a>
</g>
</g>
<!-- Node1&#45;&gt;Node2 -->
<g id="edge1_Node000001_Node000002" class="edge">
<title>Node1&#45;&gt;Node2</title>
<g id="a_edge1_Node000001_Node000002"><a xlink:title=" ">
<path fill="none" stroke="#63b8ff" d="M1087.4,-403.54C1058.39,-393.39 1024.2,-381.42 994.54,-371.04"/>
<polygon fill="#63b8ff" stroke="#63b8ff" points="1086.43,-406.91 1097.03,-406.91 1088.75,-400.3 1086.43,-406.91"/>
</a>
</g>
</g>
<!-- Node16 -->
<g id="Node000016" class="node">
<title>Node16</title>
<g id="a_Node000016"><a xlink:href="Encode_8cpp.html" target="_top" xlink:title=" ">
<polygon fill="white" stroke="#666666" points="1212.5,-365.5 1093.5,-365.5 1093.5,-324.5 1212.5,-324.5 1212.5,-365.5"/>
<text text-anchor="start" x="1101.5" y="-353.5" font-family="Helvetica,sans-Serif" font-size="10.00">/home/runner/work/R</text>
<text text-anchor="start" x="1101.5" y="-342.5" font-family="Helvetica,sans-Serif" font-size="10.00">&#45;Type/R&#45;Type/Shared</text>
<text text-anchor="middle" x="1153" y="-331.5" font-family="Helvetica,sans-Serif" font-size="10.00">/network/Encode.cpp</text>
</a>
</g>
</g>
<!-- Node1&#45;&gt;Node16 -->
<g id="edge28_Node000001_Node000016" class="edge">
<title>Node1&#45;&gt;Node16</title>
<g id="a_edge28_Node000001_Node000016"><a xlink:title=" ">
<path fill="none" stroke="#63b8ff" d="M1153,-396.37C1153,-386.1 1153,-374.9 1153,-365.67"/>
<polygon fill="#63b8ff" stroke="#63b8ff" points="1149.5,-396.6 1153,-406.6 1156.5,-396.6 1149.5,-396.6"/>
</a>
</g>
</g>
<!-- Node17 -->
<g id="Node000017" class="node">
<title>Node17</title>
<g id="a_Node000017"><a xlink:href="EncodeFunc_8hpp.html" target="_top" xlink:title=" ">
<polygon fill="white" stroke="#666666" points="1410.5,-365.5 1269.5,-365.5 1269.5,-324.5 1410.5,-324.5 1410.5,-365.5"/>
<text text-anchor="start" x="1277.5" y="-353.5" font-family="Helvetica,sans-Serif" font-size="10.00">/home/runner/work/R</text>
<text text-anchor="start" x="1277.5" y="-342.5" font-family="Helvetica,sans-Serif" font-size="10.00">&#45;Type/R&#45;Type/Shared</text>
<text text-anchor="middle" x="1340" y="-331.5" font-family="Helvetica,sans-Serif" font-size="10.00">/network/EncodeFunc.hpp</text>
</a>
</g>
</g>
<!-- Node1&#45;&gt;Node17 -->
<g id="edge29_Node000001_Node000017" class="edge">
<title>Node1&#45;&gt;Node17</title>
<g id="a_edge29_Node000001_Node000017"><a xlink:title=" ">
<path fill="none" stroke="#63b8ff" d="M1208.21,-402.73C1235.65,-390.92 1268.41,-376.82 1294.4,-365.63"/>
<polygon fill="#63b8ff" stroke="#63b8ff" points="1206.55,-399.64 1198.75,-406.81 1209.31,-406.07 1206.55,-399.64"/>
</a>
</g>
</g>
<!-- Node3 -->
<g id="Node000003" class="node">
<title>Node3</title>
<g id="a_Node000003"><a xlink:href="GameEngine_8hpp.html" target="_top" xlink:title=" ">
<polygon fill="white" stroke="#666666" points="668,-195 512,-195 512,-154 668,-154 668,-195"/>
<text text-anchor="start" x="520" y="-183" font-family="Helvetica,sans-Serif" font-size="10.00">/home/runner/work/R</text>
<text text-anchor="start" x="520" y="-172" font-family="Helvetica,sans-Serif" font-size="10.00">&#45;Type/R&#45;Type/Client</text>
<text text-anchor="middle" x="590" y="-161" font-family="Helvetica,sans-Serif" font-size="10.00">/src/engine/GameEngine.hpp</text>
</a>
</g>
</g>
<!-- Node2&#45;&gt;Node3 -->
<g id="edge2_Node000002_Node000003" class="edge">
<title>Node2&#45;&gt;Node3</title>
<g id="a_edge2_Node000002_Node000003"><a xlink:title=" ">
<path fill="none" stroke="#63b8ff" d="M837.27,-338.11C755.47,-330.65 640.21,-314.74 609,-283 586.15,-259.76 585.42,-219.22 587.41,-195.12"/>
<polygon fill="#63b8ff" stroke="#63b8ff" points="837.05,-341.6 847.32,-339 837.67,-334.63 837.05,-341.6"/>
</a>
</g>
</g>
<!-- Node11 -->
<g id="Node000011" class="node">
<title>Node11</title>
<g id="a_Node000011"><a xlink:href="InputSystem_8cpp.html" target="_top" xlink:title=" ">
<polygon fill="white" stroke="#666666" points="806,-277.5 618,-277.5 618,-236.5 806,-236.5 806,-277.5"/>
<text text-anchor="start" x="626" y="-265.5" font-family="Helvetica,sans-Serif" font-size="10.00">/home/runner/work/R</text>
<text text-anchor="start" x="626" y="-254.5" font-family="Helvetica,sans-Serif" font-size="10.00">&#45;Type/R&#45;Type/Client</text>
<text text-anchor="middle" x="712" y="-243.5" font-family="Helvetica,sans-Serif" font-size="10.00">/src/engine/inputs/InputSystem.cpp</text>
</a>
</g>
</g>
<!-- Node2&#45;&gt;Node11 -->
<g id="edge14_Node000002_Node000011" class="edge">
<title>Node2&#45;&gt;Node11</title>
<g id="a_edge14_Node000002_Node000011"><a xlink:title=" ">
<path fill="none" stroke="#63b8ff" d="M852.14,-315.12C821.8,-302.75 787.17,-288.64 759.92,-277.53"/>
<polygon fill="#63b8ff" stroke="#63b8ff" points="850.82,-318.36 861.4,-318.89 853.46,-311.88 850.82,-318.36"/>
</a>
</g>
</g>
<!-- Node12 -->
<g id="Node000012" class="node">
<title>Node12</title>
<g id="a_Node000012"><a xlink:href="NetworkManager_8cpp.html" target="_top" xlink:title=" ">
<polygon fill="white" stroke="#666666" points="1224.5,-283 1067.5,-283 1067.5,-231 1224.5,-231 1224.5,-283"/>
<text text-anchor="start" x="1075.5" y="-271" font-family="Helvetica,sans-Serif" font-size="10.00">/home/runner/work/R</text>
<text text-anchor="start" x="1075.5" y="-260" font-family="Helvetica,sans-Serif" font-size="10.00">&#45;Type/R&#45;Type/Client</text>
<text text-anchor="start" x="1075.5" y="-249" font-family="Helvetica,sans-Serif" font-size="10.00">/src/engine/network/Network</text>
<text text-anchor="middle" x="1146" y="-238" font-family="Helvetica,sans-Serif" font-size="10.00">Manager.cpp</text>
</a>
</g>
</g>
<!-- Node2&#45;&gt;Node12 -->
<g id="edge15_Node000002_Node000012" class="edge">
<title>Node2&#45;&gt;Node12</title>
<g id="a_edge15_Node000002_Node000012"><a xlink:title=" ">
<path fill="none" stroke="#63b8ff" d="M997.49,-315.27C1024.47,-304.87 1054.71,-293.21 1080.82,-283.14"/>
<polygon fill="#63b8ff" stroke="#63b8ff" points="996.17,-312.03 988.1,-318.89 998.69,-318.56 996.17,-312.03"/>
</a>
</g>
</g>
<!-- Node13 -->
<g id="Node000013" class="node">
<title>Node13</title>
<g id="a_Node000013"><a xlink:href="SceneManager_8hpp.html" target="_top" xlink:title=" ">
<polygon fill="white" stroke="#666666" points="1021.5,-277.5 824.5,-277.5 824.5,-236.5 1021.5,-236.5 1021.5,-277.5"/>
<text text-anchor="start" x="832.5" y="-265.5" font-family="Helvetica,sans-Serif" font-size="10.00">/home/runner/work/R</text>
<text text-anchor="start" x="832.5" y="-254.5" font-family="Helvetica,sans-Serif" font-size="10.00">&#45;Type/R&#45;Type/Client</text>
<text text-anchor="middle" x="923" y="-243.5" font-family="Helvetica,sans-Serif" font-size="10.00">/src/engine/scene/SceneManager.hpp</text>
</a>
</g>
</g>
<!-- Node2&#45;&gt;Node13 -->
<g id="edge16_Node000002_Node000013" class="edge">
<title>Node2&#45;&gt;Node13</title>
<g id="a_edge16_Node000002_Node000013"><a xlink:title=" ">
<path fill="none" stroke="#63b8ff" d="M923,-308.45C923,-297.94 923,-286.82 923,-277.7"/>
<polygon fill="#63b8ff" stroke="#63b8ff" points="919.5,-308.66 923,-318.66 926.5,-308.66 919.5,-308.66"/>
</a>
</g>
</g>
<!-- Node4 -->
<g id="Node000004" class="node">
<title>Node4</title>
<g id="a_Node000004"><a xlink:href="Main_8cpp.html" target="_top" xlink:title=" ">
<polygon fill="white" stroke="#666666" points="949.5,-41 830.5,-41 830.5,0 949.5,0 949.5,-41"/>
<text text-anchor="start" x="838.5" y="-29" font-family="Helvetica,sans-Serif" font-size="10.00">/home/runner/work/R</text>
<text text-anchor="start" x="838.5" y="-18" font-family="Helvetica,sans-Serif" font-size="10.00">&#45;Type/R&#45;Type/Client</text>
<text text-anchor="middle" x="890" y="-7" font-family="Helvetica,sans-Serif" font-size="10.00">/src/Main.cpp</text>
</a>
</g>
</g>
<!-- Node3&#45;&gt;Node4 -->
<g id="edge3_Node000003_Node000004" class="edge">
<title>Node3&#45;&gt;Node4</title>
<g id="a_edge3_Node000003_Node000004"><a xlink:title=" ">
<path fill="none" stroke="#63b8ff" d="M501.74,-166.5C469.77,-159.18 436.71,-145.02 417,-118 406.26,-103.28 404.89,-90.62 417,-77 444.03,-46.61 708.9,-30.15 830.06,-24.16"/>
<polygon fill="#63b8ff" stroke="#63b8ff" points="501.11,-169.94 511.61,-168.55 502.54,-163.09 501.11,-169.94"/>
</a>
</g>
</g>
<!-- Node5 -->
<g id="Node000005" class="node">
<title>Node5</title>
<g id="a_Node000005"><a xlink:href="GameEngine_8cpp.html" target="_top" xlink:title=" ">
<polygon fill="white" stroke="#666666" points="369.5,-118 214.5,-118 214.5,-77 369.5,-77 369.5,-118"/>
<text text-anchor="start" x="222.5" y="-106" font-family="Helvetica,sans-Serif" font-size="10.00">/home/runner/work/R</text>
<text text-anchor="start" x="222.5" y="-95" font-family="Helvetica,sans-Serif" font-size="10.00">&#45;Type/R&#45;Type/Client</text>
<text text-anchor="middle" x="292" y="-84" font-family="Helvetica,sans-Serif" font-size="10.00">/src/engine/GameEngine.cpp</text>
</a>
</g>
</g>
<!-- Node3&#45;&gt;Node5 -->
<g id="edge4_Node000003_Node000005" class="edge">
<title>Node3&#45;&gt;Node5</title>
<g id="a_edge4_Node000003_Node000005"><a xlink:title=" ">
<path fill="none" stroke="#63b8ff" d="M502.52,-151.48C460.42,-140.89 410.38,-128.29 369.65,-118.04"/>
<polygon fill="#63b8ff" stroke="#63b8ff" points="501.93,-154.94 512.48,-153.99 503.64,-148.16 501.93,-154.94"/>
</a>
</g>
</g>
<!-- Node6 -->
<g id="Node000006" class="node">
<title>Node6</title>
<g id="a_Node000006"><a xlink:href="SceneManager_8cpp.html" target="_top" xlink:title=" ">
<polygon fill="white" stroke="#666666" points="196,-118 0,-118 0,-77 196,-77 196,-118"/>
<text text-anchor="start" x="8" y="-106" font-family="Helvetica,sans-Serif" font-size="10.00">/home/runner/work/R</text>
<text text-anchor="start" x="8" y="-95" font-family="Helvetica,sans-Serif" font-size="10.00">&#45;Type/R&#45;Type/Client</text>
<text text-anchor="middle" x="98" y="-84" font-family="Helvetica,sans-Serif" font-size="10.00">/src/engine/scene/SceneManager.cpp</text>
</a>
</g>
</g>
<!-- Node3&#45;&gt;Node6 -->
<g id="edge5_Node000003_Node000006" class="edge">
<title>Node3&#45;&gt;Node6</title>
<g id="a_edge5_Node000003_Node000006"><a xlink:title=" ">
<path fill="none" stroke="#63b8ff" d="M501.42,-161.68C423.3,-151.03 306.42,-134.55 205,-118 202.11,-117.53 199.18,-117.04 196.22,-116.55"/>
<polygon fill="#63b8ff" stroke="#63b8ff" points="501.33,-165.2 511.71,-163.08 502.27,-158.26 501.33,-165.2"/>
</a>
</g>
</g>
<!-- Node7 -->
<g id="Node000007" class="node">
<title>Node7</title>
<g id="a_Node000007"><a xlink:href="JoinGame_8hpp.html" target="_top" xlink:title=" ">
<polygon fill="white" stroke="#666666" points="880,-118 738,-118 738,-77 880,-77 880,-118"/>
<text text-anchor="start" x="746" y="-106" font-family="Helvetica,sans-Serif" font-size="10.00">/home/runner/work/R</text>
<text text-anchor="start" x="746" y="-95" font-family="Helvetica,sans-Serif" font-size="10.00">&#45;Type/R&#45;Type/Client</text>
<text text-anchor="middle" x="809" y="-84" font-family="Helvetica,sans-Serif" font-size="10.00">/src/scenes/JoinGame.hpp</text>
</a>
</g>
</g>
<!-- Node3&#45;&gt;Node7 -->
<g id="edge6_Node000003_Node000007" class="edge">
<title>Node3&#45;&gt;Node7</title>
<g id="a_edge6_Node000003_Node000007"><a xlink:title=" ">
<path fill="none" stroke="#63b8ff" d="M656.65,-150.67C687.08,-140.25 722.76,-128.03 751.94,-118.04"/>
<polygon fill="#63b8ff" stroke="#63b8ff" points="655.29,-147.44 646.97,-153.99 657.56,-154.06 655.29,-147.44"/>
</a>
</g>
</g>
<!-- Node8 -->
<g id="Node000008" class="node">
<title>Node8</title>
<g id="a_Node000008"><a xlink:href="MainMenu_8hpp.html" target="_top" xlink:title=" ">
<polygon fill="white" stroke="#666666" points="1044,-118 898,-118 898,-77 1044,-77 1044,-118"/>
<text text-anchor="start" x="906" y="-106" font-family="Helvetica,sans-Serif" font-size="10.00">/home/runner/work/R</text>
<text text-anchor="start" x="906" y="-95" font-family="Helvetica,sans-Serif" font-size="10.00">&#45;Type/R&#45;Type/Client</text>
<text text-anchor="middle" x="971" y="-84" font-family="Helvetica,sans-Serif" font-size="10.00">/src/scenes/MainMenu.hpp</text>
</a>
</g>
</g>
<!-- Node3&#45;&gt;Node8 -->
<g id="edge8_Node000003_Node000008" class="edge">
<title>Node3&#45;&gt;Node8</title>
<g id="a_edge8_Node000003_Node000008"><a xlink:title=" ">
<path fill="none" stroke="#63b8ff" d="M678.41,-158.28C738.05,-147.73 818.44,-132.93 889,-118 891.86,-117.39 894.78,-116.76 897.72,-116.12"/>
<polygon fill="#63b8ff" stroke="#63b8ff" points="677.52,-154.89 668.28,-160.07 678.73,-161.78 677.52,-154.89"/>
</a>
</g>
</g>
<!-- Node9 -->
<g id="Node000009" class="node">
<title>Node9</title>
<g id="a_Node000009"><a xlink:href="Options_8hpp.html" target="_top" xlink:title=" ">
<polygon fill="white" stroke="#666666" points="558,-118 426,-118 426,-77 558,-77 558,-118"/>
<text text-anchor="start" x="434" y="-106" font-family="Helvetica,sans-Serif" font-size="10.00">/home/runner/work/R</text>
<text text-anchor="start" x="434" y="-95" font-family="Helvetica,sans-Serif" font-size="10.00">&#45;Type/R&#45;Type/Client</text>
<text text-anchor="middle" x="492" y="-84" font-family="Helvetica,sans-Serif" font-size="10.00">/src/scenes/Options.hpp</text>
</a>
</g>
</g>
<!-- Node3&#45;&gt;Node9 -->
<g id="edge10_Node000003_Node000009" class="edge">
<title>Node3&#45;&gt;Node9</title>
<g id="a_edge10_Node000003_Node000009"><a xlink:title=" ">
<path fill="none" stroke="#63b8ff" d="M556.44,-147.82C543.76,-138.11 529.55,-127.24 517.71,-118.17"/>
<polygon fill="#63b8ff" stroke="#63b8ff" points="554.44,-150.69 564.51,-153.99 558.69,-145.13 554.44,-150.69"/>
</a>
</g>
</g>
<!-- Node10 -->
<g id="Node000010" class="node">
<title>Node10</title>
<g id="a_Node000010"><a xlink:href="WaitLobby_8hpp.html" target="_top" xlink:title=" ">
<polygon fill="white" stroke="#666666" points="720,-118 576,-118 576,-77 720,-77 720,-118"/>
<text text-anchor="start" x="584" y="-106" font-family="Helvetica,sans-Serif" font-size="10.00">/home/runner/work/R</text>
<text text-anchor="start" x="584" y="-95" font-family="Helvetica,sans-Serif" font-size="10.00">&#45;Type/R&#45;Type/Client</text>
<text text-anchor="middle" x="648" y="-84" font-family="Helvetica,sans-Serif" font-size="10.00">/src/scenes/WaitLobby.hpp</text>
</a>
</g>
</g>
<!-- Node3&#45;&gt;Node10 -->
<g id="edge12_Node000003_Node000010" class="edge">
<title>Node3&#45;&gt;Node10</title>
<g id="a_edge12_Node000003_Node000010"><a xlink:title=" ">
<path fill="none" stroke="#63b8ff" d="M611.52,-145.67C618.61,-136.5 626.35,-126.5 632.86,-118.07"/>
<polygon fill="#63b8ff" stroke="#63b8ff" points="608.59,-143.74 605.24,-153.79 614.13,-148.03 608.59,-143.74"/>
</a>
</g>
</g>
<!-- Node7&#45;&gt;Node4 -->
<g id="edge7_Node000007_Node000004" class="edge">
<title>Node7&#45;&gt;Node4</title>
<g id="a_edge7_Node000007_Node000004"><a xlink:title=" ">
<path fill="none" stroke="#63b8ff" d="M837.85,-69.79C848.08,-60.32 859.39,-49.84 868.86,-41.07"/>
<polygon fill="#63b8ff" stroke="#63b8ff" points="835.24,-67.43 830.28,-76.79 840,-72.57 835.24,-67.43"/>
</a>
</g>
</g>
<!-- Node8&#45;&gt;Node4 -->
<g id="edge9_Node000008_Node000004" class="edge">
<title>Node8&#45;&gt;Node4</title>
<g id="a_edge9_Node000008_Node000004"><a xlink:title=" ">
<path fill="none" stroke="#63b8ff" d="M942.15,-69.79C931.92,-60.32 920.61,-49.84 911.14,-41.07"/>
<polygon fill="#63b8ff" stroke="#63b8ff" points="940,-72.57 949.72,-76.79 944.76,-67.43 940,-72.57"/>
</a>
</g>
</g>
<!-- Node9&#45;&gt;Node4 -->
<g id="edge11_Node000009_Node000004" class="edge">
<title>Node9&#45;&gt;Node4</title>
<g id="a_edge11_Node000009_Node000004"><a xlink:title=" ">
<path fill="none" stroke="#63b8ff" d="M568.18,-76.83C665.42,-56.17 767.61,-39.71 830.48,-30.19"/>
<polygon fill="#63b8ff" stroke="#63b8ff" points="567.23,-73.45 558.18,-78.97 568.69,-80.3 567.23,-73.45"/>
</a>
</g>
</g>
<!-- Node10&#45;&gt;Node4 -->
<g id="edge13_Node000010_Node000004" class="edge">
<title>Node10&#45;&gt;Node4</title>
<g id="a_edge13_Node000010_Node000004"><a xlink:title=" ">
<path fill="none" stroke="#63b8ff" d="M720.64,-73.99C755.66,-63.14 797.14,-50.28 830.28,-40.01"/>
<polygon fill="#63b8ff" stroke="#63b8ff" points="719.47,-70.69 710.95,-76.99 721.54,-77.37 719.47,-70.69"/>
</a>
</g>
</g>
<!-- Node13&#45;&gt;Node3 -->
<g id="edge18_Node000013_Node000003" class="edge">
<title>Node13&#45;&gt;Node3</title>
<g id="a_edge18_Node000013_Node000003"><a xlink:title=" ">
<path fill="none" stroke="#63b8ff" d="M832.2,-234.05C780.87,-221.64 717.35,-206.29 668.24,-194.41"/>
<polygon fill="#63b8ff" stroke="#63b8ff" points="831.42,-237.46 841.96,-236.41 833.07,-230.66 831.42,-237.46"/>
</a>
</g>
</g>
<!-- Node13&#45;&gt;Node4 -->
<g id="edge17_Node000013_Node000004" class="edge">
<title>Node13&#45;&gt;Node4</title>
<g id="a_edge17_Node000013_Node000004"><a xlink:title=" ">
<path fill="none" stroke="#63b8ff" d="M933.57,-227.14C942.93,-204.85 958.48,-174.45 980,-154 1006.23,-129.09 1033.9,-148.72 1053,-118 1062.62,-102.53 1063.61,-91.82 1053,-77 1029.68,-44.43 986.12,-30.75 949.89,-25.11"/>
<polygon fill="#63b8ff" stroke="#63b8ff" points="930.31,-225.86 929.82,-236.45 936.8,-228.48 930.31,-225.86"/>
</a>
</g>
</g>
<!-- Node13&#45;&gt;Node6 -->
<g id="edge19_Node000013_Node000006" class="edge">
<title>Node13&#45;&gt;Node6</title>
<g id="a_edge19_Node000013_Node000006"><a xlink:title=" ">
<path fill="none" stroke="#63b8ff" d="M833.48,-234.46C827.24,-233.21 821.04,-232.04 815,-231 677.45,-207.22 640.47,-219.22 503,-195 384.66,-174.15 249.22,-139.68 168.8,-118.08"/>
<polygon fill="#63b8ff" stroke="#63b8ff" points="832.79,-237.89 843.29,-236.49 834.2,-231.04 832.79,-237.89"/>
</a>
</g>
</g>
<!-- Node13&#45;&gt;Node7 -->
<g id="edge22_Node000013_Node000007" class="edge">
<title>Node13&#45;&gt;Node7</title>
<g id="a_edge22_Node000013_Node000007"><a xlink:title=" ">
<path fill="none" stroke="#63b8ff" d="M902.75,-228.02C879.94,-196.51 843.45,-146.1 823.39,-118.38"/>
<polygon fill="#63b8ff" stroke="#63b8ff" points="900.09,-230.32 908.79,-236.37 905.76,-226.22 900.09,-230.32"/>
</a>
</g>
</g>
<!-- Node13&#45;&gt;Node8 -->
<g id="edge25_Node000013_Node000008" class="edge">
<title>Node13&#45;&gt;Node8</title>
<g id="a_edge25_Node000013_Node000008"><a xlink:title=" ">
<path fill="none" stroke="#63b8ff" d="M928.57,-226.13C932.76,-205.59 939.11,-177.83 947,-154 951.02,-141.84 956.66,-128.67 961.46,-118.21"/>
<polygon fill="#63b8ff" stroke="#63b8ff" points="925.1,-225.67 926.59,-236.16 931.96,-227.03 925.1,-225.67"/>
</a>
</g>
</g>
<!-- Node13&#45;&gt;Node9 -->
<g id="edge26_Node000013_Node000009" class="edge">
<title>Node13&#45;&gt;Node9</title>
<g id="a_edge26_Node000013_Node000009"><a xlink:title=" ">
<path fill="none" stroke="#63b8ff" d="M848.74,-233.25C817.45,-222.83 780.94,-209.55 749,-195 715.49,-179.74 710.85,-168.49 677,-154 655.42,-144.76 602.12,-129.03 558.24,-116.67"/>
<polygon fill="#63b8ff" stroke="#63b8ff" points="847.68,-236.59 858.28,-236.4 849.88,-229.94 847.68,-236.59"/>
</a>
</g>
</g>
<!-- Node13&#45;&gt;Node10 -->
<g id="edge27_Node000013_Node000010" class="edge">
<title>Node13&#45;&gt;Node10</title>
<g id="a_edge27_Node000013_Node000010"><a xlink:title=" ">
<path fill="none" stroke="#63b8ff" d="M879.98,-231.36C825.39,-200.1 732.33,-146.8 682.27,-118.13"/>
<polygon fill="#63b8ff" stroke="#63b8ff" points="878.31,-234.44 888.73,-236.37 881.79,-228.36 878.31,-234.44"/>
</a>
</g>
</g>
<!-- Node14 -->
<g id="Node000014" class="node">
<title>Node14</title>
<g id="a_Node000014"><a xlink:href="GameOver_8hpp.html" target="_top" xlink:title=" ">
<polygon fill="white" stroke="#666666" points="1135,-195 989,-195 989,-154 1135,-154 1135,-195"/>
<text text-anchor="start" x="997" y="-183" font-family="Helvetica,sans-Serif" font-size="10.00">/home/runner/work/R</text>
<text text-anchor="start" x="997" y="-172" font-family="Helvetica,sans-Serif" font-size="10.00">&#45;Type/R&#45;Type/Client</text>
<text text-anchor="middle" x="1062" y="-161" font-family="Helvetica,sans-Serif" font-size="10.00">/src/scenes/GameOver.hpp</text>
</a>
</g>
</g>
<!-- Node13&#45;&gt;Node14 -->
<g id="edge20_Node000013_Node000014" class="edge">
<title>Node13&#45;&gt;Node14</title>
<g id="a_edge20_Node000013_Node000014"><a xlink:title=" ">
<path fill="none" stroke="#63b8ff" d="M965.89,-231.16C985.81,-219.63 1009.17,-206.1 1027.87,-195.27"/>
<polygon fill="#63b8ff" stroke="#63b8ff" points="963.9,-228.27 957,-236.31 967.41,-234.32 963.9,-228.27"/>
</a>
</g>
</g>
<!-- Node15 -->
<g id="Node000015" class="node">
<title>Node15</title>
<g id="a_Node000015"><a xlink:href="MainGame_8hpp.html" target="_top" xlink:title=" ">
<polygon fill="white" stroke="#666666" points="1301,-195 1153,-195 1153,-154 1301,-154 1301,-195"/>
<text text-anchor="start" x="1161" y="-183" font-family="Helvetica,sans-Serif" font-size="10.00">/home/runner/work/R</text>
<text text-anchor="start" x="1161" y="-172" font-family="Helvetica,sans-Serif" font-size="10.00">&#45;Type/R&#45;Type/Client</text>
<text text-anchor="middle" x="1227" y="-161" font-family="Helvetica,sans-Serif" font-size="10.00">/src/scenes/MainGame.hpp</text>
</a>
</g>
</g>
<!-- Node13&#45;&gt;Node15 -->
<g id="edge23_Node000013_Node000015" class="edge">
<title>Node13&#45;&gt;Node15</title>
<g id="a_edge23_Node000013_Node000015"><a xlink:title=" ">
<path fill="none" stroke="#63b8ff" d="M1006.9,-233.78C1052.76,-221.64 1109.04,-206.73 1153.22,-195.04"/>
<polygon fill="#63b8ff" stroke="#63b8ff" points="1005.75,-230.47 996.98,-236.41 1007.54,-237.23 1005.75,-230.47"/>
</a>
</g>
</g>
<!-- Node14&#45;&gt;Node4 -->
<g id="edge21_Node000014_Node000004" class="edge">
<title>Node14&#45;&gt;Node4</title>
<g id="a_edge21_Node000014_Node000004"><a xlink:title=" ">
<path fill="none" stroke="#63b8ff" d="M1080.78,-144.86C1091.76,-124.19 1100.81,-96.58 1086,-77 1069.47,-55.14 1001.1,-39.4 949.73,-30.39"/>
<polygon fill="#63b8ff" stroke="#63b8ff" points="1077.59,-143.4 1075.69,-153.82 1083.68,-146.86 1077.59,-143.4"/>
</a>
</g>
</g>
<!-- Node15&#45;&gt;Node4 -->
<g id="edge24_Node000015_Node000004" class="edge">
<title>Node15&#45;&gt;Node4</title>
<g id="a_edge24_Node000015_Node000004"><a xlink:title=" ">
<path fill="none" stroke="#63b8ff" d="M1199.99,-146.87C1176.47,-125.1 1140.5,-95.06 1104,-77 1054.81,-52.66 993.8,-38.19 949.52,-30.17"/>
<polygon fill="#63b8ff" stroke="#63b8ff" points="1197.79,-149.61 1207.47,-153.91 1202.58,-144.51 1197.79,-149.61"/>
</a>
</g>
</g>
<!-- Node17&#45;&gt;Node12 -->
<g id="edge30_Node000017_Node000012" class="edge">
<title>Node17&#45;&gt;Node12</title>
<g id="a_edge30_Node000017_Node000012"><a xlink:title=" ">
<path fill="none" stroke="#63b8ff" d="M1286.64,-320.35C1260.59,-308.8 1229.24,-294.9 1202.75,-283.16"/>
<polygon fill="#63b8ff" stroke="#63b8ff" points="1285.42,-323.63 1295.98,-324.49 1288.25,-317.23 1285.42,-323.63"/>
</a>
</g>
</g>
<!-- Node18 -->
<g id="Node000018" class="node">
<title>Node18</title>
<g id="a_Node000018"><a xlink:href="ServerGame_8hpp.html" target="_top" xlink:title=" ">
<polygon fill="white" stroke="#666666" points="1430,-277.5 1290,-277.5 1290,-236.5 1430,-236.5 1430,-277.5"/>
<text text-anchor="start" x="1298" y="-265.5" font-family="Helvetica,sans-Serif" font-size="10.00">/home/runner/work/R</text>
<text text-anchor="start" x="1298" y="-254.5" font-family="Helvetica,sans-Serif" font-size="10.00">&#45;Type/R&#45;Type/Server</text>
<text text-anchor="middle" x="1360" y="-243.5" font-family="Helvetica,sans-Serif" font-size="10.00">/include/ServerGame.hpp</text>
</a>
</g>
</g>
<!-- Node17&#45;&gt;Node18 -->
<g id="edge31_Node000017_Node000018" class="edge">
<title>Node17&#45;&gt;Node18</title>
<g id="a_edge31_Node000017_Node000018"><a xlink:title=" ">
<path fill="none" stroke="#63b8ff" d="M1346.81,-314.73C1349.64,-302.53 1352.86,-288.69 1355.41,-277.74"/>
<polygon fill="#63b8ff" stroke="#63b8ff" points="1343.39,-313.95 1344.54,-324.49 1350.21,-315.54 1343.39,-313.95"/>
</a>
</g>
</g>
<!-- Node21 -->
<g id="Node000021" class="node">
<title>Node21</title>
<g id="a_Node000021"><a xlink:href="TCPServer_8cpp.html" target="_top" xlink:title=" ">
<polygon fill="white" stroke="#666666" points="1597.5,-277.5 1448.5,-277.5 1448.5,-236.5 1597.5,-236.5 1597.5,-277.5"/>
<text text-anchor="start" x="1456.5" y="-265.5" font-family="Helvetica,sans-Serif" font-size="10.00">/home/runner/work/R</text>
<text text-anchor="start" x="1456.5" y="-254.5" font-family="Helvetica,sans-Serif" font-size="10.00">&#45;Type/R&#45;Type/Server</text>
<text text-anchor="middle" x="1523" y="-243.5" font-family="Helvetica,sans-Serif" font-size="10.00">/src/network/TCPServer.cpp</text>
</a>
</g>
</g>
<!-- Node17&#45;&gt;Node21 -->
<g id="edge34_Node000017_Node000021" class="edge">
<title>Node17&#45;&gt;Node21</title>
<g id="a_edge34_Node000017_Node000021"><a xlink:title=" ">
<path fill="none" stroke="#63b8ff" d="M1390.91,-320.07C1419.4,-306.68 1454.48,-290.2 1481.32,-277.59"/>
<polygon fill="#63b8ff" stroke="#63b8ff" points="1389.09,-317.06 1381.53,-324.49 1392.06,-323.4 1389.09,-317.06"/>
</a>
</g>
</g>
<!-- Node19 -->
<g id="Node000019" class="node">
<title>Node19</title>
<g id="a_Node000019"><a xlink:href="ServerGame_8cpp.html" target="_top" xlink:title=" ">
<polygon fill="white" stroke="#666666" points="1575.5,-195 1456.5,-195 1456.5,-154 1575.5,-154 1575.5,-195"/>
<text text-anchor="start" x="1464.5" y="-183" font-family="Helvetica,sans-Serif" font-size="10.00">/home/runner/work/R</text>
<text text-anchor="start" x="1464.5" y="-172" font-family="Helvetica,sans-Serif" font-size="10.00">&#45;Type/R&#45;Type/Server</text>
<text text-anchor="middle" x="1516" y="-161" font-family="Helvetica,sans-Serif" font-size="10.00">/src/ServerGame.cpp</text>
</a>
</g>
</g>
<!-- Node18&#45;&gt;Node19 -->
<g id="edge32_Node000018_Node000019" class="edge">
<title>Node18&#45;&gt;Node19</title>
<g id="a_edge32_Node000018_Node000019"><a xlink:title=" ">
<path fill="none" stroke="#63b8ff" d="M1407.26,-231.61C1429.9,-219.93 1456.66,-206.12 1477.96,-195.13"/>
<polygon fill="#63b8ff" stroke="#63b8ff" points="1405.44,-228.61 1398.16,-236.31 1408.65,-234.83 1405.44,-228.61"/>
</a>
</g>
</g>
<!-- Node20 -->
<g id="Node000020" class="node">
<title>Node20</title>
<g id="a_Node000020"><a xlink:href="main_8cpp.html" target="_top" xlink:title=" ">
<polygon fill="white" stroke="#666666" points="1438.5,-195 1319.5,-195 1319.5,-154 1438.5,-154 1438.5,-195"/>
<text text-anchor="start" x="1327.5" y="-183" font-family="Helvetica,sans-Serif" font-size="10.00">/home/runner/work/R</text>
<text text-anchor="start" x="1327.5" y="-172" font-family="Helvetica,sans-Serif" font-size="10.00">&#45;Type/R&#45;Type/Server</text>
<text text-anchor="middle" x="1379" y="-161" font-family="Helvetica,sans-Serif" font-size="10.00">/src/main.cpp</text>
</a>
</g>
</g>
<!-- Node18&#45;&gt;Node20 -->
<g id="edge33_Node000018_Node000020" class="edge">
<title>Node18&#45;&gt;Node20</title>
<g id="a_edge33_Node000018_Node000020"><a xlink:title=" ">
<path fill="none" stroke="#63b8ff" d="M1367.04,-226.19C1369.48,-215.84 1372.16,-204.5 1374.36,-195.17"/>
<polygon fill="#63b8ff" stroke="#63b8ff" points="1363.59,-225.56 1364.7,-236.1 1370.4,-227.17 1363.59,-225.56"/>
</a>
</g>
</g>
</g>
</svg>
