<?xml version="1.0" encoding="UTF-8" standalone="no"?>
<!DOCTYPE svg PUBLIC "-//W3C//DTD SVG 1.1//EN"
 "http://www.w3.org/Graphics/SVG/1.1/DTD/svg11.dtd">
<!-- Generated by graphviz version 2.43.0 (0)
 -->
<!-- Title: /home/runner/work/R&#45;Type/R&#45;Type/Shared/network/EncodeFunc.cpp Pages: 1 -->
<svg width="547pt" height="269pt"
 viewBox="0.00 0.00 546.50 269.00" xmlns="http://www.w3.org/2000/svg" xmlns:xlink="http://www.w3.org/1999/xlink">
<g id="graph0" class="graph" transform="scale(1 1) rotate(0) translate(4 265)">
<title>/home/runner/work/R&#45;Type/R&#45;Type/Shared/network/EncodeFunc.cpp</title>
<!-- Node1 -->
<g id="Node000001" class="node">
<title>Node1</title>
<g id="a_Node000001"><a xlink:title=" ">
<polygon fill="#999999" stroke="#666666" points="349.5,-261 209.5,-261 209.5,-220 349.5,-220 349.5,-261"/>
<text text-anchor="start" x="217.5" y="-249" font-family="Helvetica,sans-Serif" font-size="10.00">/home/runner/work/R</text>
<text text-anchor="start" x="217.5" y="-238" font-family="Helvetica,sans-Serif" font-size="10.00">&#45;Type/R&#45;Type/Shared</text>
<text text-anchor="middle" x="279.5" y="-227" font-family="Helvetica,sans-Serif" font-size="10.00">/network/EncodeFunc.cpp</text>
</a>
</g>
</g>
<!-- Node2 -->
<g id="Node000002" class="node">
<title>Node2</title>
<g id="a_Node000002"><a xlink:href="EncodeFunc_8hpp.html" target="_top" xlink:title=" ">
<polygon fill="white" stroke="#666666" points="290.5,-184 152.5,-184 152.5,-165 290.5,-165 290.5,-184"/>
<text text-anchor="middle" x="221.5" y="-172" font-family="Helvetica,sans-Serif" font-size="10.00">network/EncodeFunc.hpp</text>
</a>
</g>
</g>
<!-- Node1&#45;&gt;Node2 -->
<g id="edge1_Node000001_Node000002" class="edge">
<title>Node1&#45;&gt;Node2</title>
<g id="a_edge1_Node000001_Node000002"><a xlink:title=" ">
<path fill="none" stroke="#63b8ff" d="M261.78,-219.95C253.6,-210.92 244,-200.33 236.23,-191.75"/>
<polygon fill="#63b8ff" stroke="#63b8ff" points="238.75,-189.32 229.44,-184.26 233.56,-194.02 238.75,-189.32"/>
</a>
</g>
</g>
<!-- Node5 -->
<g id="Node000005" class="node">
<title>Node5</title>
<g id="a_Node000005"><a xlink:title=" ">
<polygon fill="#e0e0e0" stroke="#999999" points="47,-19 0,-19 0,0 47,0 47,-19"/>
<text text-anchor="middle" x="23.5" y="-7" font-family="Helvetica,sans-Serif" font-size="10.00">vector</text>
</a>
</g>
</g>
<!-- Node1&#45;&gt;Node5 -->
<g id="edge17_Node000001_Node000005" class="edge">
<title>Node1&#45;&gt;Node5</title>
<g id="a_edge17_Node000001_Node000005"><a xlink:title=" ">
<path fill="none" stroke="#63b8ff" d="M221.58,-219.95C196.79,-210.55 167.97,-198.23 143.5,-184 109.3,-164.11 101.75,-156.7 73.5,-129 50.95,-106.89 40.28,-103.31 28.5,-74 22.76,-59.72 21.78,-42.19 22.09,-29.17"/>
<polygon fill="#63b8ff" stroke="#63b8ff" points="25.59,-29.25 22.6,-19.08 18.6,-28.89 25.59,-29.25"/>
</a>
</g>
</g>
<!-- Node13 -->
<g id="Node000013" class="node">
<title>Node13</title>
<g id="a_Node000013"><a xlink:title=" ">
<polygon fill="#e0e0e0" stroke="#999999" points="368.5,-184 308.5,-184 308.5,-165 368.5,-165 368.5,-184"/>
<text text-anchor="middle" x="338.5" y="-172" font-family="Helvetica,sans-Serif" font-size="10.00">iostream</text>
</a>
</g>
</g>
<!-- Node1&#45;&gt;Node13 -->
<g id="edge16_Node000001_Node000013" class="edge">
<title>Node1&#45;&gt;Node13</title>
<g id="a_edge16_Node000001_Node000013"><a xlink:title=" ">
<path fill="none" stroke="#63b8ff" d="M297.52,-219.95C305.84,-210.92 315.61,-200.33 323.52,-191.75"/>
<polygon fill="#63b8ff" stroke="#63b8ff" points="326.22,-193.99 330.42,-184.26 321.07,-189.24 326.22,-193.99"/>
</a>
</g>
</g>
<!-- Node14 -->
<g id="Node000014" class="node">
<title>Node14</title>
<g id="a_Node000014"><a xlink:href="DataMask_8hpp.html" target="_top" xlink:title=" ">
<polygon fill="white" stroke="#666666" points="538.5,-129 408.5,-129 408.5,-110 538.5,-110 538.5,-129"/>
<text text-anchor="middle" x="473.5" y="-117" font-family="Helvetica,sans-Serif" font-size="10.00">network/DataMask.hpp</text>
</a>
</g>
</g>
<!-- Node1&#45;&gt;Node14 -->
<g id="edge18_Node000001_Node000014" class="edge">
<title>Node1&#45;&gt;Node14</title>
<g id="a_edge18_Node000001_Node000014"><a xlink:title=" ">
<path fill="none" stroke="#63b8ff" d="M315.69,-219.79C334.33,-209.44 357.33,-196.36 377.5,-184 403.83,-167.86 433.35,-148.07 452.62,-134.92"/>
<polygon fill="#63b8ff" stroke="#63b8ff" points="454.68,-137.75 460.95,-129.21 450.72,-131.97 454.68,-137.75"/>
</a>
</g>
</g>
<!-- Node3 -->
<g id="Node000003" class="node">
<title>Node3</title>
<g id="a_Node000003"><a xlink:title=" ">
<polygon fill="#e0e0e0" stroke="#999999" points="452,-74 383,-74 383,-55 452,-55 452,-74"/>
<text text-anchor="middle" x="417.5" y="-62" font-family="Helvetica,sans-Serif" font-size="10.00">arpa/inet.h</text>
</a>
</g>
</g>
<!-- Node2&#45;&gt;Node3 -->
<g id="edge2_Node000002_Node000003" class="edge">
<title>Node2&#45;&gt;Node3</title>
<g id="a_edge2_Node000002_Node000003"><a xlink:title=" ">
<path fill="none" stroke="#63b8ff" d="M242.59,-165C262.73,-156.63 293.76,-143.08 319.5,-129 347.29,-113.8 377.67,-93.5 397.12,-79.98"/>
<polygon fill="#63b8ff" stroke="#63b8ff" points="399.3,-82.73 405.48,-74.12 395.29,-76.99 399.3,-82.73"/>
</a>
</g>
</g>
<!-- Node4 -->
<g id="Node000004" class="node">
<title>Node4</title>
<g id="a_Node000004"><a xlink:title=" ">
<polygon fill="#e0e0e0" stroke="#999999" points="310.5,-129 260.5,-129 260.5,-110 310.5,-110 310.5,-129"/>
<text text-anchor="middle" x="285.5" y="-117" font-family="Helvetica,sans-Serif" font-size="10.00">cstring</text>
</a>
</g>
</g>
<!-- Node2&#45;&gt;Node4 -->
<g id="edge3_Node000002_Node000004" class="edge">
<title>Node2&#45;&gt;Node4</title>
<g id="a_edge3_Node000002_Node000004"><a xlink:title=" ">
<path fill="none" stroke="#63b8ff" d="M231.78,-164.98C241.34,-157.07 255.78,-145.11 267.28,-135.58"/>
<polygon fill="#63b8ff" stroke="#63b8ff" points="269.56,-138.24 275.03,-129.17 265.1,-132.85 269.56,-138.24"/>
</a>
</g>
</g>
<!-- Node2&#45;&gt;Node5 -->
<g id="edge4_Node000002_Node000005" class="edge">
<title>Node2&#45;&gt;Node5</title>
<g id="a_edge4_Node000002_Node000005"><a xlink:title=" ">
<path fill="none" stroke="#63b8ff" d="M187.6,-164.9C145.83,-152.4 76.14,-124.93 41.5,-74 32.34,-60.53 27.8,-42.43 25.58,-29"/>
<polygon fill="#63b8ff" stroke="#63b8ff" points="29.03,-28.46 24.2,-19.03 22.1,-29.41 29.03,-28.46"/>
</a>
</g>
</g>
<!-- Node6 -->
<g id="Node000006" class="node">
<title>Node6</title>
<g id="a_Node000006"><a xlink:href="Encoder_8hpp.html" target="_top" xlink:title=" ">
<polygon fill="white" stroke="#666666" points="242,-129 123,-129 123,-110 242,-110 242,-129"/>
<text text-anchor="middle" x="182.5" y="-117" font-family="Helvetica,sans-Serif" font-size="10.00">network/Encoder.hpp</text>
</a>
</g>
</g>
<!-- Node2&#45;&gt;Node6 -->
<g id="edge5_Node000002_Node000006" class="edge">
<title>Node2&#45;&gt;Node6</title>
<g id="a_edge5_Node000002_Node000006"><a xlink:title=" ">
<path fill="none" stroke="#63b8ff" d="M215.06,-164.75C209.61,-157.34 201.64,-146.5 194.94,-137.41"/>
<polygon fill="#63b8ff" stroke="#63b8ff" points="197.57,-135.07 188.82,-129.09 191.93,-139.22 197.57,-135.07"/>
</a>
</g>
</g>
<!-- Node6&#45;&gt;Node3 -->
<g id="edge6_Node000006_Node000003" class="edge">
<title>Node6&#45;&gt;Node3</title>
<g id="a_edge6_Node000006_Node000003"><a xlink:title=" ">
<path fill="none" stroke="#63b8ff" d="M220.26,-109.98C261.9,-100.59 328.86,-85.49 373.02,-75.53"/>
<polygon fill="#63b8ff" stroke="#63b8ff" points="373.91,-78.92 382.9,-73.3 372.37,-72.09 373.91,-78.92"/>
</a>
</g>
</g>
<!-- Node6&#45;&gt;Node5 -->
<g id="edge10_Node000006_Node000005" class="edge">
<title>Node6&#45;&gt;Node5</title>
<g id="a_edge10_Node000006_Node000005"><a xlink:title=" ">
<path fill="none" stroke="#63b8ff" d="M138.54,-109.96C113.81,-103.41 83.56,-92.28 61.5,-74 47,-61.98 36.64,-42.9 30.44,-28.79"/>
<polygon fill="#63b8ff" stroke="#63b8ff" points="33.53,-27.1 26.51,-19.16 27.05,-29.75 33.53,-27.1"/>
</a>
</g>
</g>
<!-- Node7 -->
<g id="Node000007" class="node">
<title>Node7</title>
<g id="a_Node000007"><a xlink:title=" ">
<polygon fill="#e0e0e0" stroke="#999999" points="196.5,-74 154.5,-74 154.5,-55 196.5,-55 196.5,-74"/>
<text text-anchor="middle" x="175.5" y="-62" font-family="Helvetica,sans-Serif" font-size="10.00">array</text>
</a>
</g>
</g>
<!-- Node6&#45;&gt;Node7 -->
<g id="edge7_Node000006_Node000007" class="edge">
<title>Node6&#45;&gt;Node7</title>
<g id="a_edge7_Node000006_Node000007"><a xlink:title=" ">
<path fill="none" stroke="#63b8ff" d="M181.34,-109.75C180.43,-102.8 179.11,-92.85 177.96,-84.13"/>
<polygon fill="#63b8ff" stroke="#63b8ff" points="181.41,-83.54 176.63,-74.09 174.47,-84.46 181.41,-83.54"/>
</a>
</g>
</g>
<!-- Node8 -->
<g id="Node000008" class="node">
<title>Node8</title>
<g id="a_Node000008"><a xlink:title=" ">
<polygon fill="#e0e0e0" stroke="#999999" points="379.5,-19 329.5,-19 329.5,0 379.5,0 379.5,-19"/>
<text text-anchor="middle" x="354.5" y="-7" font-family="Helvetica,sans-Serif" font-size="10.00">cstdint</text>
</a>
</g>
</g>
<!-- Node6&#45;&gt;Node8 -->
<g id="edge8_Node000006_Node000008" class="edge">
<title>Node6&#45;&gt;Node8</title>
<g id="a_edge8_Node000006_Node000008"><a xlink:title=" ">
<path fill="none" stroke="#63b8ff" d="M228.46,-109.99C267.44,-101.91 319.38,-88.82 334.5,-74 346.49,-62.26 351.31,-43.41 353.24,-29.29"/>
<polygon fill="#63b8ff" stroke="#63b8ff" points="356.73,-29.51 354.25,-19.21 349.77,-28.81 356.73,-29.51"/>
</a>
</g>
</g>
<!-- Node9 -->
<g id="Node000009" class="node">
<title>Node9</title>
<g id="a_Node000009"><a xlink:title=" ">
<polygon fill="#e0e0e0" stroke="#999999" points="136,-74 71,-74 71,-55 136,-55 136,-74"/>
<text text-anchor="middle" x="103.5" y="-62" font-family="Helvetica,sans-Serif" font-size="10.00">functional</text>
</a>
</g>
</g>
<!-- Node6&#45;&gt;Node9 -->
<g id="edge9_Node000006_Node000009" class="edge">
<title>Node6&#45;&gt;Node9</title>
<g id="a_edge9_Node000006_Node000009"><a xlink:title=" ">
<path fill="none" stroke="#63b8ff" d="M169.81,-109.98C157.67,-101.84 139.14,-89.41 124.75,-79.76"/>
<polygon fill="#63b8ff" stroke="#63b8ff" points="126.68,-76.84 116.42,-74.17 122.78,-82.65 126.68,-76.84"/>
</a>
</g>
</g>
<!-- Node10 -->
<g id="Node000010" class="node">
<title>Node10</title>
<g id="a_Node000010"><a xlink:href="Action_8hpp.html" target="_top" xlink:title=" ">
<polygon fill="white" stroke="#666666" points="326,-74 215,-74 215,-55 326,-55 326,-74"/>
<text text-anchor="middle" x="270.5" y="-62" font-family="Helvetica,sans-Serif" font-size="10.00">network/Action.hpp</text>
</a>
</g>
</g>
<!-- Node6&#45;&gt;Node10 -->
<g id="edge11_Node000006_Node000010" class="edge">
<title>Node6&#45;&gt;Node10</title>
<g id="a_edge11_Node000006_Node000010"><a xlink:title=" ">
<path fill="none" stroke="#63b8ff" d="M196.64,-109.98C210.29,-101.77 231.19,-89.18 247.28,-79.49"/>
<polygon fill="#63b8ff" stroke="#63b8ff" points="249.34,-82.33 256.1,-74.17 245.73,-76.33 249.34,-82.33"/>
</a>
</g>
</g>
<!-- Node10&#45;&gt;Node5 -->
<g id="edge15_Node000010_Node000005" class="edge">
<title>Node10&#45;&gt;Node5</title>
<g id="a_edge15_Node000010_Node000005"><a xlink:title=" ">
<path fill="none" stroke="#63b8ff" d="M230.82,-54.98C182.61,-44.64 102.16,-27.38 56.96,-17.68"/>
<polygon fill="#63b8ff" stroke="#63b8ff" points="57.58,-14.23 47.07,-15.56 56.11,-21.08 57.58,-14.23"/>
</a>
</g>
</g>
<!-- Node10&#45;&gt;Node8 -->
<g id="edge12_Node000010_Node000008" class="edge">
<title>Node10&#45;&gt;Node8</title>
<g id="a_edge12_Node000010_Node000008"><a xlink:title=" ">
<path fill="none" stroke="#63b8ff" d="M284,-54.98C296.9,-46.84 316.6,-34.41 331.9,-24.76"/>
<polygon fill="#63b8ff" stroke="#63b8ff" points="334.17,-27.47 340.76,-19.17 330.43,-21.55 334.17,-27.47"/>
</a>
</g>
</g>
<!-- Node11 -->
<g id="Node000011" class="node">
<title>Node11</title>
<g id="a_Node000011"><a xlink:title=" ">
<polygon fill="#e0e0e0" stroke="#999999" points="301.5,-19 257.5,-19 257.5,0 301.5,0 301.5,-19"/>
<text text-anchor="middle" x="279.5" y="-7" font-family="Helvetica,sans-Serif" font-size="10.00">string</text>
</a>
</g>
</g>
<!-- Node10&#45;&gt;Node11 -->
<g id="edge13_Node000010_Node000011" class="edge">
<title>Node10&#45;&gt;Node11</title>
<g id="a_edge13_Node000010_Node000011"><a xlink:title=" ">
<path fill="none" stroke="#63b8ff" d="M271.99,-54.75C273.17,-47.8 274.86,-37.85 276.34,-29.13"/>
<polygon fill="#63b8ff" stroke="#63b8ff" points="279.82,-29.53 278.04,-19.09 272.92,-28.36 279.82,-29.53"/>
</a>
</g>
</g>
<!-- Node12 -->
<g id="Node000012" class="node">
<title>Node12</title>
<g id="a_Node000012"><a xlink:title=" ">
<polygon fill="#e0e0e0" stroke="#999999" points="239,-19 188,-19 188,0 239,0 239,-19"/>
<text text-anchor="middle" x="213.5" y="-7" font-family="Helvetica,sans-Serif" font-size="10.00">variant</text>
</a>
</g>
</g>
<!-- Node10&#45;&gt;Node12 -->
<g id="edge14_Node000010_Node000012" class="edge">
<title>Node10&#45;&gt;Node12</title>
<g id="a_edge14_Node000010_Node000012"><a xlink:title=" ">
<path fill="none" stroke="#63b8ff" d="M261.34,-54.98C253,-47.23 240.47,-35.58 230.32,-26.14"/>
<polygon fill="#63b8ff" stroke="#63b8ff" points="232.53,-23.42 222.82,-19.17 227.76,-28.54 232.53,-23.42"/>
</a>
</g>
</g>
<!-- Node14&#45;&gt;Node8 -->
<g id="edge19_Node000014_Node000008" class="edge">
<title>Node14&#45;&gt;Node8</title>
<g id="a_edge19_Node000014_Node000008"><a xlink:title=" ">
<path fill="none" stroke="#63b8ff" d="M474.13,-109.62C474.59,-96.24 473.5,-70.83 460.5,-55 442.95,-33.64 413.37,-22.37 389.9,-16.52"/>
<polygon fill="#63b8ff" stroke="#63b8ff" points="390.47,-13.06 379.95,-14.26 388.93,-19.89 390.47,-13.06"/>
</a>
</g>
</g>
</g>
</svg>
