<?xml version="1.0" encoding="UTF-8" standalone="no"?>
<!DOCTYPE svg PUBLIC "-//W3C//DTD SVG 1.1//EN"
 "http://www.w3.org/Graphics/SVG/1.1/DTD/svg11.dtd">
<!-- Generated by graphviz version 2.43.0 (0)
 -->
<!-- Title: /home/runner/work/R&#45;Type/R&#45;Type/Shared/network/EncodeFunc.hpp Pages: 1 -->
<svg width="439pt" height="214pt"
 viewBox="0.00 0.00 439.40 214.00" xmlns="http://www.w3.org/2000/svg" xmlns:xlink="http://www.w3.org/1999/xlink">
<g id="graph0" class="graph" transform="scale(1 1) rotate(0) translate(4 210)">
<title>/home/runner/work/R&#45;Type/R&#45;Type/Shared/network/EncodeFunc.hpp</title>
<!-- Node1 -->
<g id="Node000001" class="node">
<title>Node1</title>
<g id="a_Node000001"><a xlink:title=" ">
<polygon fill="#999999" stroke="#666666" points="258,-206 117,-206 117,-165 258,-165 258,-206"/>
<text text-anchor="start" x="125" y="-194" font-family="Helvetica,sans-Serif" font-size="10.00">/home/runner/work/R</text>
<text text-anchor="start" x="125" y="-183" font-family="Helvetica,sans-Serif" font-size="10.00">&#45;Type/R&#45;Type/Shared</text>
<text text-anchor="middle" x="187.5" y="-172" font-family="Helvetica,sans-Serif" font-size="10.00">/network/EncodeFunc.hpp</text>
</a>
</g>
</g>
<!-- Node2 -->
<g id="Node000002" class="node">
<title>Node2</title>
<g id="a_Node000002"><a xlink:title=" ">
<polygon fill="#e0e0e0" stroke="#999999" points="69,-74 0,-74 0,-55 69,-55 69,-74"/>
<text text-anchor="middle" x="34.5" y="-62" font-family="Helvetica,sans-Serif" font-size="10.00">arpa/inet.h</text>
</a>
</g>
</g>
<!-- Node1&#45;&gt;Node2 -->
<g id="edge1_Node000001_Node000002" class="edge">
<title>Node1&#45;&gt;Node2</title>
<g id="a_edge1_Node000001_Node000002"><a xlink:title=" ">
<path fill="none" stroke="#63b8ff" d="M154.71,-164.94C138.53,-154.84 119.01,-141.94 102.5,-129 83.55,-114.15 63.61,-95.06 50.26,-81.71"/>
<polygon fill="#63b8ff" stroke="#63b8ff" points="52.39,-78.88 42.87,-74.22 47.41,-83.8 52.39,-78.88"/>
</a>
</g>
</g>
<!-- Node3 -->
<g id="Node000003" class="node">
<title>Node3</title>
<g id="a_Node000003"><a xlink:title=" ">
<polygon fill="#e0e0e0" stroke="#999999" points="161.5,-129 111.5,-129 111.5,-110 161.5,-110 161.5,-129"/>
<text text-anchor="middle" x="136.5" y="-117" font-family="Helvetica,sans-Serif" font-size="10.00">cstring</text>
</a>
</g>
</g>
<!-- Node1&#45;&gt;Node3 -->
<g id="edge2_Node000001_Node000003" class="edge">
<title>Node1&#45;&gt;Node3</title>
<g id="a_edge2_Node000001_Node000003"><a xlink:title=" ">
<path fill="none" stroke="#63b8ff" d="M171.92,-164.95C164.88,-156.11 156.64,-145.77 149.88,-137.29"/>
<polygon fill="#63b8ff" stroke="#63b8ff" points="152.45,-134.9 143.48,-129.26 146.98,-139.26 152.45,-134.9"/>
</a>
</g>
</g>
<!-- Node4 -->
<g id="Node000004" class="node">
<title>Node4</title>
<g id="a_Node000004"><a xlink:title=" ">
<polygon fill="#e0e0e0" stroke="#999999" points="372,-19 325,-19 325,0 372,0 372,-19"/>
<text text-anchor="middle" x="348.5" y="-7" font-family="Helvetica,sans-Serif" font-size="10.00">vector</text>
</a>
</g>
</g>
<!-- Node1&#45;&gt;Node4 -->
<g id="edge3_Node000001_Node000004" class="edge">
<title>Node1&#45;&gt;Node4</title>
<g id="a_edge3_Node000001_Node000004"><a xlink:title=" ">
<path fill="none" stroke="#63b8ff" d="M258.08,-173.1C314.66,-159.85 390.49,-131.87 427.5,-74 442.34,-50.79 409.49,-32.22 381.73,-21.3"/>
<polygon fill="#63b8ff" stroke="#63b8ff" points="382.8,-17.96 372.2,-17.76 380.36,-24.52 382.8,-17.96"/>
</a>
</g>
</g>
<!-- Node5 -->
<g id="Node000005" class="node">
<title>Node5</title>
<g id="a_Node000005"><a xlink:href="Encoder_8hpp.html" target="_top" xlink:title=" ">
<polygon fill="white" stroke="#666666" points="299,-129 180,-129 180,-110 299,-110 299,-129"/>
<text text-anchor="middle" x="239.5" y="-117" font-family="Helvetica,sans-Serif" font-size="10.00">network/Encoder.hpp</text>
</a>
</g>
</g>
<!-- Node1&#45;&gt;Node5 -->
<g id="edge4_Node000001_Node000005" class="edge">
<title>Node1&#45;&gt;Node5</title>
<g id="a_edge4_Node000001_Node000005"><a xlink:title=" ">
<path fill="none" stroke="#63b8ff" d="M203.38,-164.95C210.57,-156.11 218.97,-145.77 225.86,-137.29"/>
<polygon fill="#63b8ff" stroke="#63b8ff" points="228.79,-139.23 232.38,-129.26 223.36,-134.81 228.79,-139.23"/>
</a>
</g>
</g>
<!-- Node5&#45;&gt;Node2 -->
<g id="edge5_Node000005_Node000002" class="edge">
<title>Node5&#45;&gt;Node2</title>
<g id="a_edge5_Node000005_Node000002"><a xlink:title=" ">
<path fill="none" stroke="#63b8ff" d="M206.56,-109.98C171.55,-100.93 116.03,-86.58 77.57,-76.64"/>
<polygon fill="#63b8ff" stroke="#63b8ff" points="78.25,-73.2 67.69,-74.08 76.5,-79.97 78.25,-73.2"/>
</a>
</g>
</g>
<!-- Node5&#45;&gt;Node4 -->
<g id="edge9_Node000005_Node000004" class="edge">
<title>Node5&#45;&gt;Node4</title>
<g id="a_edge9_Node000005_Node000004"><a xlink:title=" ">
<path fill="none" stroke="#63b8ff" d="M271.07,-109.97C290.48,-103.2 314.43,-91.85 329.5,-74 340.06,-61.5 344.75,-43.29 346.83,-29.58"/>
<polygon fill="#63b8ff" stroke="#63b8ff" points="350.34,-29.68 348.04,-19.34 343.39,-28.86 350.34,-29.68"/>
</a>
</g>
</g>
<!-- Node6 -->
<g id="Node000006" class="node">
<title>Node6</title>
<g id="a_Node000006"><a xlink:title=" ">
<polygon fill="#e0e0e0" stroke="#999999" points="418.5,-74 376.5,-74 376.5,-55 418.5,-55 418.5,-74"/>
<text text-anchor="middle" x="397.5" y="-62" font-family="Helvetica,sans-Serif" font-size="10.00">array</text>
</a>
</g>
</g>
<!-- Node5&#45;&gt;Node6 -->
<g id="edge6_Node000005_Node000006" class="edge">
<title>Node5&#45;&gt;Node6</title>
<g id="a_edge6_Node000005_Node000006"><a xlink:title=" ">
<path fill="none" stroke="#63b8ff" d="M264.89,-109.98C292.51,-100.72 336.69,-85.9 366.38,-75.94"/>
<polygon fill="#63b8ff" stroke="#63b8ff" points="367.86,-79.13 376.23,-72.63 365.64,-72.5 367.86,-79.13"/>
</a>
</g>
</g>
<!-- Node7 -->
<g id="Node000007" class="node">
<title>Node7</title>
<g id="a_Node000007"><a xlink:title=" ">
<polygon fill="#e0e0e0" stroke="#999999" points="127.5,-19 77.5,-19 77.5,0 127.5,0 127.5,-19"/>
<text text-anchor="middle" x="102.5" y="-7" font-family="Helvetica,sans-Serif" font-size="10.00">cstdint</text>
</a>
</g>
</g>
<!-- Node5&#45;&gt;Node7 -->
<g id="edge7_Node000005_Node000007" class="edge">
<title>Node5&#45;&gt;Node7</title>
<g id="a_edge7_Node000005_Node000007"><a xlink:title=" ">
<path fill="none" stroke="#63b8ff" d="M182.73,-109.93C159.49,-103.65 134.2,-92.79 117.5,-74 106.68,-61.83 103.28,-43.3 102.38,-29.4"/>
<polygon fill="#63b8ff" stroke="#63b8ff" points="105.87,-28.95 102.11,-19.05 98.88,-29.14 105.87,-28.95"/>
</a>
</g>
</g>
<!-- Node8 -->
<g id="Node000008" class="node">
<title>Node8</title>
<g id="a_Node000008"><a xlink:title=" ">
<polygon fill="#e0e0e0" stroke="#999999" points="320,-74 255,-74 255,-55 320,-55 320,-74"/>
<text text-anchor="middle" x="287.5" y="-62" font-family="Helvetica,sans-Serif" font-size="10.00">functional</text>
</a>
</g>
</g>
<!-- Node5&#45;&gt;Node8 -->
<g id="edge8_Node000005_Node000008" class="edge">
<title>Node5&#45;&gt;Node8</title>
<g id="a_edge8_Node000005_Node000008"><a xlink:title=" ">
<path fill="none" stroke="#63b8ff" d="M247.43,-109.75C254.35,-102.11 264.57,-90.82 272.95,-81.56"/>
<polygon fill="#63b8ff" stroke="#63b8ff" points="275.6,-83.85 279.72,-74.09 270.41,-79.15 275.6,-83.85"/>
</a>
</g>
</g>
<!-- Node9 -->
<g id="Node000009" class="node">
<title>Node9</title>
<g id="a_Node000009"><a xlink:href="Action_8hpp.html" target="_top" xlink:title=" ">
<polygon fill="white" stroke="#666666" points="237,-74 126,-74 126,-55 237,-55 237,-74"/>
<text text-anchor="middle" x="181.5" y="-62" font-family="Helvetica,sans-Serif" font-size="10.00">network/Action.hpp</text>
</a>
</g>
</g>
<!-- Node5&#45;&gt;Node9 -->
<g id="edge10_Node000005_Node000009" class="edge">
<title>Node5&#45;&gt;Node9</title>
<g id="a_edge10_Node000005_Node000009"><a xlink:title=" ">
<path fill="none" stroke="#63b8ff" d="M230.18,-109.98C221.69,-102.23 208.94,-90.58 198.62,-81.14"/>
<polygon fill="#63b8ff" stroke="#63b8ff" points="200.73,-78.33 190.99,-74.17 196.01,-83.5 200.73,-78.33"/>
</a>
</g>
</g>
<!-- Node9&#45;&gt;Node4 -->
<g id="edge14_Node000009_Node000004" class="edge">
<title>Node9&#45;&gt;Node4</title>
<g id="a_edge14_Node000009_Node000004"><a xlink:title=" ">
<path fill="none" stroke="#63b8ff" d="M208.33,-54.98C237.45,-45.74 283.98,-30.98 315.36,-21.02"/>
<polygon fill="#63b8ff" stroke="#63b8ff" points="316.5,-24.33 324.97,-17.97 314.38,-17.66 316.5,-24.33"/>
</a>
</g>
</g>
<!-- Node9&#45;&gt;Node7 -->
<g id="edge11_Node000009_Node000007" class="edge">
<title>Node9&#45;&gt;Node7</title>
<g id="a_edge11_Node000009_Node000007"><a xlink:title=" ">
<path fill="none" stroke="#63b8ff" d="M168.81,-54.98C156.67,-46.84 138.14,-34.41 123.75,-24.76"/>
<polygon fill="#63b8ff" stroke="#63b8ff" points="125.68,-21.84 115.42,-19.17 121.78,-27.65 125.68,-21.84"/>
</a>
</g>
</g>
<!-- Node10 -->
<g id="Node000010" class="node">
<title>Node10</title>
<g id="a_Node000010"><a xlink:title=" ">
<polygon fill="#e0e0e0" stroke="#999999" points="194.5,-19 150.5,-19 150.5,0 194.5,0 194.5,-19"/>
<text text-anchor="middle" x="172.5" y="-7" font-family="Helvetica,sans-Serif" font-size="10.00">string</text>
</a>
</g>
</g>
<!-- Node9&#45;&gt;Node10 -->
<g id="edge12_Node000009_Node000010" class="edge">
<title>Node9&#45;&gt;Node10</title>
<g id="a_edge12_Node000009_Node000010"><a xlink:title=" ">
<path fill="none" stroke="#63b8ff" d="M180.01,-54.75C178.83,-47.8 177.14,-37.85 175.66,-29.13"/>
<polygon fill="#63b8ff" stroke="#63b8ff" points="179.08,-28.36 173.96,-19.09 172.18,-29.53 179.08,-28.36"/>
</a>
</g>
</g>
<!-- Node11 -->
<g id="Node000011" class="node">
<title>Node11</title>
<g id="a_Node000011"><a xlink:title=" ">
<polygon fill="#e0e0e0" stroke="#999999" points="264,-19 213,-19 213,0 264,0 264,-19"/>
<text text-anchor="middle" x="238.5" y="-7" font-family="Helvetica,sans-Serif" font-size="10.00">variant</text>
</a>
</g>
</g>
<!-- Node9&#45;&gt;Node11 -->
<g id="edge13_Node000009_Node000011" class="edge">
<title>Node9&#45;&gt;Node11</title>
<g id="a_edge13_Node000009_Node000011"><a xlink:title=" ">
<path fill="none" stroke="#63b8ff" d="M190.66,-54.98C199,-47.23 211.53,-35.58 221.68,-26.14"/>
<polygon fill="#63b8ff" stroke="#63b8ff" points="224.24,-28.54 229.18,-19.17 219.47,-23.42 224.24,-28.54"/>
</a>
</g>
</g>
</g>
</svg>
