<?xml version="1.0" encoding="UTF-8" standalone="no"?>
<!DOCTYPE svg PUBLIC "-//W3C//DTD SVG 1.1//EN"
 "http://www.w3.org/Graphics/SVG/1.1/DTD/svg11.dtd">
<!-- Generated by graphviz version 2.43.0 (0)
 -->
<!-- Title: /home/runner/work/R&#45;Type/R&#45;Type/Shared/network/EncodeFunc.hpp Pages: 1 -->
<svg width="491pt" height="214pt"
 viewBox="0.00 0.00 491.00 214.00" xmlns="http://www.w3.org/2000/svg" xmlns:xlink="http://www.w3.org/1999/xlink">
<g id="graph0" class="graph" transform="scale(1 1) rotate(0) translate(4 210)">
<title>/home/runner/work/R&#45;Type/R&#45;Type/Shared/network/EncodeFunc.hpp</title>
<!-- Node1 -->
<g id="Node000001" class="node">
<title>Node1</title>
<g id="a_Node000001"><a xlink:title=" ">
<polygon fill="#999999" stroke="#666666" points="316,-206 175,-206 175,-165 316,-165 316,-206"/>
<text text-anchor="start" x="183" y="-194" font-family="Helvetica,sans-Serif" font-size="10.00">/home/runner/work/R</text>
<text text-anchor="start" x="183" y="-183" font-family="Helvetica,sans-Serif" font-size="10.00">&#45;Type/R&#45;Type/Shared</text>
<text text-anchor="middle" x="245.5" y="-172" font-family="Helvetica,sans-Serif" font-size="10.00">/network/EncodeFunc.hpp</text>
</a>
</g>
</g>
<!-- Node2 -->
<g id="Node000002" class="node">
<title>Node2</title>
<g id="a_Node000002"><a xlink:href="NetworkManager_8cpp.html" target="_top" xlink:title=" ">
<polygon fill="white" stroke="#666666" points="157,-129 0,-129 0,-77 157,-77 157,-129"/>
<text text-anchor="start" x="8" y="-117" font-family="Helvetica,sans-Serif" font-size="10.00">/home/runner/work/R</text>
<text text-anchor="start" x="8" y="-106" font-family="Helvetica,sans-Serif" font-size="10.00">&#45;Type/R&#45;Type/Client</text>
<text text-anchor="start" x="8" y="-95" font-family="Helvetica,sans-Serif" font-size="10.00">/src/engine/network/Network</text>
<text text-anchor="middle" x="78.5" y="-84" font-family="Helvetica,sans-Serif" font-size="10.00">Manager.cpp</text>
</a>
</g>
</g>
<!-- Node1&#45;&gt;Node2 -->
<g id="edge1_Node000001_Node000002" class="edge">
<title>Node1&#45;&gt;Node2</title>
<g id="a_edge1_Node000001_Node000002"><a xlink:title=" ">
<path fill="none" stroke="#63b8ff" d="M195.49,-160.39C175.01,-150.52 151.32,-139.1 130.63,-129.13"/>
<polygon fill="#63b8ff" stroke="#63b8ff" points="194.12,-163.62 204.65,-164.81 197.16,-157.31 194.12,-163.62"/>
</a>
</g>
</g>
<!-- Node3 -->
<g id="Node000003" class="node">
<title>Node3</title>
<g id="a_Node000003"><a xlink:href="ServerGame_8hpp.html" target="_top" xlink:title=" ">
<polygon fill="white" stroke="#666666" points="315.5,-123.5 175.5,-123.5 175.5,-82.5 315.5,-82.5 315.5,-123.5"/>
<text text-anchor="start" x="183.5" y="-111.5" font-family="Helvetica,sans-Serif" font-size="10.00">/home/runner/work/R</text>
<text text-anchor="start" x="183.5" y="-100.5" font-family="Helvetica,sans-Serif" font-size="10.00">&#45;Type/R&#45;Type/Server</text>
<text text-anchor="middle" x="245.5" y="-89.5" font-family="Helvetica,sans-Serif" font-size="10.00">/include/ServerGame.hpp</text>
</a>
</g>
</g>
<!-- Node1&#45;&gt;Node3 -->
<g id="edge2_Node000001_Node000003" class="edge">
<title>Node1&#45;&gt;Node3</title>
<g id="a_edge2_Node000001_Node000003"><a xlink:title=" ">
<path fill="none" stroke="#63b8ff" d="M245.5,-154.37C245.5,-144.1 245.5,-132.9 245.5,-123.67"/>
<polygon fill="#63b8ff" stroke="#63b8ff" points="242,-154.6 245.5,-164.6 249,-154.6 242,-154.6"/>
</a>
</g>
</g>
<!-- Node6 -->
<g id="Node000006" class="node">
<title>Node6</title>
<g id="a_Node000006"><a xlink:href="TCPServer_8cpp.html" target="_top" xlink:title=" ">
<polygon fill="white" stroke="#666666" points="483,-123.5 334,-123.5 334,-82.5 483,-82.5 483,-123.5"/>
<text text-anchor="start" x="342" y="-111.5" font-family="Helvetica,sans-Serif" font-size="10.00">/home/runner/work/R</text>
<text text-anchor="start" x="342" y="-100.5" font-family="Helvetica,sans-Serif" font-size="10.00">&#45;Type/R&#45;Type/Server</text>
<text text-anchor="middle" x="408.5" y="-89.5" font-family="Helvetica,sans-Serif" font-size="10.00">/src/network/TCPServer.cpp</text>
</a>
</g>
</g>
<!-- Node1&#45;&gt;Node6 -->
<g id="edge5_Node000001_Node000006" class="edge">
<title>Node1&#45;&gt;Node6</title>
<g id="a_edge5_Node000001_Node000006"><a xlink:title=" ">
<path fill="none" stroke="#63b8ff" d="M294.57,-160.27C318.29,-148.55 346.4,-134.67 368.76,-123.63"/>
<polygon fill="#63b8ff" stroke="#63b8ff" points="292.79,-157.24 285.37,-164.81 295.89,-163.52 292.79,-157.24"/>
</a>
</g>
</g>
<!-- Node4 -->
<g id="Node000004" class="node">
<title>Node4</title>
<g id="a_Node000004"><a xlink:href="ServerGame_8cpp.html" target="_top" xlink:title=" ">
<polygon fill="white" stroke="#666666" points="236,-41 117,-41 117,0 236,0 236,-41"/>
<text text-anchor="start" x="125" y="-29" font-family="Helvetica,sans-Serif" font-size="10.00">/home/runner/work/R</text>
<text text-anchor="start" x="125" y="-18" font-family="Helvetica,sans-Serif" font-size="10.00">&#45;Type/R&#45;Type/Server</text>
<text text-anchor="middle" x="176.5" y="-7" font-family="Helvetica,sans-Serif" font-size="10.00">/src/ServerGame.cpp</text>
</a>
</g>
</g>
<!-- Node3&#45;&gt;Node4 -->
<g id="edge3_Node000003_Node000004" class="edge">
<title>Node3&#45;&gt;Node4</title>
<g id="a_edge3_Node000003_Node000004"><a xlink:title=" ">
<path fill="none" stroke="#63b8ff" d="M221.88,-74.44C212.5,-63.5 201.94,-51.18 193.36,-41.17"/>
<polygon fill="#63b8ff" stroke="#63b8ff" points="219.28,-76.79 228.44,-82.1 224.59,-72.23 219.28,-76.79"/>
</a>
</g>
</g>
<!-- Node5 -->
<g id="Node000005" class="node">
<title>Node5</title>
<g id="a_Node000005"><a xlink:href="main_8cpp.html" target="_top" xlink:title=" ">
<polygon fill="white" stroke="#666666" points="373,-41 254,-41 254,0 373,0 373,-41"/>
<text text-anchor="start" x="262" y="-29" font-family="Helvetica,sans-Serif" font-size="10.00">/home/runner/work/R</text>
<text text-anchor="start" x="262" y="-18" font-family="Helvetica,sans-Serif" font-size="10.00">&#45;Type/R&#45;Type/Server</text>
<text text-anchor="middle" x="313.5" y="-7" font-family="Helvetica,sans-Serif" font-size="10.00">/src/main.cpp</text>
</a>
</g>
</g>
<!-- Node3&#45;&gt;Node5 -->
<g id="edge4_Node000003_Node000005" class="edge">
<title>Node3&#45;&gt;Node5</title>
<g id="a_edge4_Node000003_Node000005"><a xlink:title=" ">
<path fill="none" stroke="#63b8ff" d="M268.78,-74.44C278.02,-63.5 288.43,-51.18 296.88,-41.17"/>
<polygon fill="#63b8ff" stroke="#63b8ff" points="266.09,-72.2 262.31,-82.1 271.44,-76.72 266.09,-72.2"/>
</a>
</g>
</g>
</g>
</svg>
