<?xml version="1.0" encoding="UTF-8" standalone="no"?>
<!DOCTYPE svg PUBLIC "-//W3C//DTD SVG 1.1//EN"
 "http://www.w3.org/Graphics/SVG/1.1/DTD/svg11.dtd">
<!-- Generated by graphviz version 2.43.0 (0)
 -->
<!-- Title: /home/runner/work/R&#45;Type/R&#45;Type/Shared/network/Encode.cpp Pages: 1 -->
<svg width="439pt" height="214pt"
 viewBox="0.00 0.00 438.98 214.00" xmlns="http://www.w3.org/2000/svg" xmlns:xlink="http://www.w3.org/1999/xlink">
<g id="graph0" class="graph" transform="scale(1 1) rotate(0) translate(4 210)">
<title>/home/runner/work/R&#45;Type/R&#45;Type/Shared/network/Encode.cpp</title>
<!-- Node1 -->
<g id="Node000001" class="node">
<title>Node1</title>
<g id="a_Node000001"><a xlink:title=" ">
<polygon fill="#999999" stroke="#666666" points="294,-206 175,-206 175,-165 294,-165 294,-206"/>
<text text-anchor="start" x="183" y="-194" font-family="Helvetica,sans-Serif" font-size="10.00">/home/runner/work/R</text>
<text text-anchor="start" x="183" y="-183" font-family="Helvetica,sans-Serif" font-size="10.00">&#45;Type/R&#45;Type/Shared</text>
<text text-anchor="middle" x="234.5" y="-172" font-family="Helvetica,sans-Serif" font-size="10.00">/network/Encode.cpp</text>
</a>
</g>
</g>
<!-- Node2 -->
<g id="Node000002" class="node">
<title>Node2</title>
<g id="a_Node000002"><a xlink:title=" ">
<polygon fill="#e0e0e0" stroke="#999999" points="69,-74 0,-74 0,-55 69,-55 69,-74"/>
<text text-anchor="middle" x="34.5" y="-62" font-family="Helvetica,sans-Serif" font-size="10.00">arpa/inet.h</text>
</a>
</g>
</g>
<!-- Node1&#45;&gt;Node2 -->
<g id="edge1_Node000001_Node000002" class="edge">
<title>Node1&#45;&gt;Node2</title>
<g id="a_edge1_Node000001_Node000002"><a xlink:title=" ">
<path fill="none" stroke="#63b8ff" d="M201.47,-164.85C160.94,-140.73 93.23,-100.45 57.77,-79.35"/>
<polygon fill="#63b8ff" stroke="#63b8ff" points="59.46,-76.28 49.08,-74.18 55.88,-82.3 59.46,-76.28"/>
</a>
</g>
</g>
<!-- Node3 -->
<g id="Node000003" class="node">
<title>Node3</title>
<g id="a_Node000003"><a xlink:title=" ">
<polygon fill="#e0e0e0" stroke="#999999" points="372,-19 325,-19 325,0 372,0 372,-19"/>
<text text-anchor="middle" x="348.5" y="-7" font-family="Helvetica,sans-Serif" font-size="10.00">vector</text>
</a>
</g>
</g>
<!-- Node1&#45;&gt;Node3 -->
<g id="edge2_Node000001_Node000003" class="edge">
<title>Node1&#45;&gt;Node3</title>
<g id="a_edge2_Node000001_Node000003"><a xlink:title=" ">
<path fill="none" stroke="#63b8ff" d="M294.19,-168.17C339.62,-152.25 399.03,-123.1 427.5,-74 441.24,-50.31 409.07,-31.95 381.73,-21.2"/>
<polygon fill="#63b8ff" stroke="#63b8ff" points="382.94,-17.92 372.35,-17.72 380.51,-24.48 382.94,-17.92"/>
</a>
</g>
</g>
<!-- Node4 -->
<g id="Node000004" class="node">
<title>Node4</title>
<g id="a_Node000004"><a xlink:href="Encoder_8hpp.html" target="_top" xlink:title=" ">
<polygon fill="white" stroke="#666666" points="294,-129 175,-129 175,-110 294,-110 294,-129"/>
<text text-anchor="middle" x="234.5" y="-117" font-family="Helvetica,sans-Serif" font-size="10.00">network/Encoder.hpp</text>
</a>
</g>
</g>
<!-- Node1&#45;&gt;Node4 -->
<g id="edge3_Node000001_Node000004" class="edge">
<title>Node1&#45;&gt;Node4</title>
<g id="a_edge3_Node000001_Node000004"><a xlink:title=" ">
<path fill="none" stroke="#63b8ff" d="M234.5,-164.95C234.5,-156.85 234.5,-147.5 234.5,-139.47"/>
<polygon fill="#63b8ff" stroke="#63b8ff" points="238,-139.26 234.5,-129.26 231,-139.26 238,-139.26"/>
</a>
</g>
</g>
<!-- Node4&#45;&gt;Node2 -->
<g id="edge4_Node000004_Node000002" class="edge">
<title>Node4&#45;&gt;Node2</title>
<g id="a_edge4_Node000004_Node000002"><a xlink:title=" ">
<path fill="none" stroke="#63b8ff" d="M202.37,-109.98C168.35,-100.97 114.5,-86.7 77,-76.76"/>
<polygon fill="#63b8ff" stroke="#63b8ff" points="77.45,-73.26 66.89,-74.08 75.66,-80.03 77.45,-73.26"/>
</a>
</g>
</g>
<!-- Node4&#45;&gt;Node3 -->
<g id="edge8_Node000004_Node000003" class="edge">
<title>Node4&#45;&gt;Node3</title>
<g id="a_edge8_Node000004_Node000003"><a xlink:title=" ">
<path fill="none" stroke="#63b8ff" d="M269.18,-109.95C289.41,-103.3 313.92,-92.07 329.5,-74 340.19,-61.61 344.86,-43.39 346.91,-29.65"/>
<polygon fill="#63b8ff" stroke="#63b8ff" points="350.43,-29.71 348.08,-19.37 343.47,-28.91 350.43,-29.71"/>
</a>
</g>
</g>
<!-- Node5 -->
<g id="Node000005" class="node">
<title>Node5</title>
<g id="a_Node000005"><a xlink:title=" ">
<polygon fill="#e0e0e0" stroke="#999999" points="418.5,-74 376.5,-74 376.5,-55 418.5,-55 418.5,-74"/>
<text text-anchor="middle" x="397.5" y="-62" font-family="Helvetica,sans-Serif" font-size="10.00">array</text>
</a>
</g>
</g>
<!-- Node4&#45;&gt;Node5 -->
<g id="edge5_Node000004_Node000005" class="edge">
<title>Node4&#45;&gt;Node5</title>
<g id="a_edge5_Node000004_Node000005"><a xlink:title=" ">
<path fill="none" stroke="#63b8ff" d="M260.69,-109.98C289.47,-100.63 335.68,-85.6 366.32,-75.64"/>
<polygon fill="#63b8ff" stroke="#63b8ff" points="367.63,-78.89 376.06,-72.47 365.47,-72.24 367.63,-78.89"/>
</a>
</g>
</g>
<!-- Node6 -->
<g id="Node000006" class="node">
<title>Node6</title>
<g id="a_Node000006"><a xlink:title=" ">
<polygon fill="#e0e0e0" stroke="#999999" points="127.5,-19 77.5,-19 77.5,0 127.5,0 127.5,-19"/>
<text text-anchor="middle" x="102.5" y="-7" font-family="Helvetica,sans-Serif" font-size="10.00">cstdint</text>
</a>
</g>
</g>
<!-- Node4&#45;&gt;Node6 -->
<g id="edge6_Node000004_Node000006" class="edge">
<title>Node4&#45;&gt;Node6</title>
<g id="a_edge6_Node000004_Node000006"><a xlink:title=" ">
<path fill="none" stroke="#63b8ff" d="M182.11,-109.98C159.26,-103.68 133.97,-92.79 117.5,-74 106.77,-61.75 103.36,-43.24 102.43,-29.36"/>
<polygon fill="#63b8ff" stroke="#63b8ff" points="105.92,-28.92 102.13,-19.02 98.92,-29.12 105.92,-28.92"/>
</a>
</g>
</g>
<!-- Node7 -->
<g id="Node000007" class="node">
<title>Node7</title>
<g id="a_Node000007"><a xlink:title=" ">
<polygon fill="#e0e0e0" stroke="#999999" points="320,-74 255,-74 255,-55 320,-55 320,-74"/>
<text text-anchor="middle" x="287.5" y="-62" font-family="Helvetica,sans-Serif" font-size="10.00">functional</text>
</a>
</g>
</g>
<!-- Node4&#45;&gt;Node7 -->
<g id="edge7_Node000004_Node000007" class="edge">
<title>Node4&#45;&gt;Node7</title>
<g id="a_edge7_Node000004_Node000007"><a xlink:title=" ">
<path fill="none" stroke="#63b8ff" d="M243.25,-109.75C250.97,-102.03 262.4,-90.6 271.72,-81.28"/>
<polygon fill="#63b8ff" stroke="#63b8ff" points="274.31,-83.64 278.91,-74.09 269.36,-78.69 274.31,-83.64"/>
</a>
</g>
</g>
<!-- Node8 -->
<g id="Node000008" class="node">
<title>Node8</title>
<g id="a_Node000008"><a xlink:href="Action_8hpp.html" target="_top" xlink:title=" ">
<polygon fill="white" stroke="#666666" points="237,-74 126,-74 126,-55 237,-55 237,-74"/>
<text text-anchor="middle" x="181.5" y="-62" font-family="Helvetica,sans-Serif" font-size="10.00">network/Action.hpp</text>
</a>
</g>
</g>
<!-- Node4&#45;&gt;Node8 -->
<g id="edge9_Node000004_Node000008" class="edge">
<title>Node4&#45;&gt;Node8</title>
<g id="a_edge9_Node000004_Node000008"><a xlink:title=" ">
<path fill="none" stroke="#63b8ff" d="M225.75,-109.75C218.03,-102.03 206.6,-90.6 197.28,-81.28"/>
<polygon fill="#63b8ff" stroke="#63b8ff" points="199.64,-78.69 190.09,-74.09 194.69,-83.64 199.64,-78.69"/>
</a>
</g>
</g>
<!-- Node8&#45;&gt;Node3 -->
<g id="edge13_Node000008_Node000003" class="edge">
<title>Node8&#45;&gt;Node3</title>
<g id="a_edge13_Node000008_Node000003"><a xlink:title=" ">
<path fill="none" stroke="#63b8ff" d="M208.33,-54.98C237.45,-45.74 283.98,-30.98 315.36,-21.02"/>
<polygon fill="#63b8ff" stroke="#63b8ff" points="316.5,-24.33 324.97,-17.97 314.38,-17.66 316.5,-24.33"/>
</a>
</g>
</g>
<!-- Node8&#45;&gt;Node6 -->
<g id="edge10_Node000008_Node000006" class="edge">
<title>Node8&#45;&gt;Node6</title>
<g id="a_edge10_Node000008_Node000006"><a xlink:title=" ">
<path fill="none" stroke="#63b8ff" d="M168.81,-54.98C156.67,-46.84 138.14,-34.41 123.75,-24.76"/>
<polygon fill="#63b8ff" stroke="#63b8ff" points="125.68,-21.84 115.42,-19.17 121.78,-27.65 125.68,-21.84"/>
</a>
</g>
</g>
<!-- Node9 -->
<g id="Node000009" class="node">
<title>Node9</title>
<g id="a_Node000009"><a xlink:title=" ">
<polygon fill="#e0e0e0" stroke="#999999" points="194.5,-19 150.5,-19 150.5,0 194.5,0 194.5,-19"/>
<text text-anchor="middle" x="172.5" y="-7" font-family="Helvetica,sans-Serif" font-size="10.00">string</text>
</a>
</g>
</g>
<!-- Node8&#45;&gt;Node9 -->
<g id="edge11_Node000008_Node000009" class="edge">
<title>Node8&#45;&gt;Node9</title>
<g id="a_edge11_Node000008_Node000009"><a xlink:title=" ">
<path fill="none" stroke="#63b8ff" d="M180.01,-54.75C178.83,-47.8 177.14,-37.85 175.66,-29.13"/>
<polygon fill="#63b8ff" stroke="#63b8ff" points="179.08,-28.36 173.96,-19.09 172.18,-29.53 179.08,-28.36"/>
</a>
</g>
</g>
<!-- Node10 -->
<g id="Node000010" class="node">
<title>Node10</title>
<g id="a_Node000010"><a xlink:title=" ">
<polygon fill="#e0e0e0" stroke="#999999" points="264,-19 213,-19 213,0 264,0 264,-19"/>
<text text-anchor="middle" x="238.5" y="-7" font-family="Helvetica,sans-Serif" font-size="10.00">variant</text>
</a>
</g>
</g>
<!-- Node8&#45;&gt;Node10 -->
<g id="edge12_Node000008_Node000010" class="edge">
<title>Node8&#45;&gt;Node10</title>
<g id="a_edge12_Node000008_Node000010"><a xlink:title=" ">
<path fill="none" stroke="#63b8ff" d="M190.66,-54.98C199,-47.23 211.53,-35.58 221.68,-26.14"/>
<polygon fill="#63b8ff" stroke="#63b8ff" points="224.24,-28.54 229.18,-19.17 219.47,-23.42 224.24,-28.54"/>
</a>
</g>
</g>
</g>
</svg>
