<?xml version="1.0" encoding="UTF-8" standalone="no"?>
<!DOCTYPE svg PUBLIC "-//W3C//DTD SVG 1.1//EN"
 "http://www.w3.org/Graphics/SVG/1.1/DTD/svg11.dtd">
<!-- Generated by graphviz version 2.43.0 (0)
 -->
<!-- Title: /home/runner/work/R&#45;Type/R&#45;Type/Shared/systems/Helpers/EntityHelper.hpp Pages: 1 -->
<svg width="1981pt" height="324pt"
 viewBox="0.00 0.00 1980.57 324.00" xmlns="http://www.w3.org/2000/svg" xmlns:xlink="http://www.w3.org/1999/xlink">
<g id="graph0" class="graph" transform="scale(1 1) rotate(0) translate(4 320)">
<title>/home/runner/work/R&#45;Type/R&#45;Type/Shared/systems/Helpers/EntityHelper.hpp</title>
<!-- Node1 -->
<g id="Node000001" class="node">
<title>Node1</title>
<g id="a_Node000001"><a xlink:title=" ">
<polygon fill="#999999" stroke="#666666" points="740,-316 555,-316 555,-275 740,-275 740,-316"/>
<text text-anchor="start" x="563" y="-304" font-family="Helvetica,sans-Serif" font-size="10.00">/home/runner/work/R</text>
<text text-anchor="start" x="563" y="-293" font-family="Helvetica,sans-Serif" font-size="10.00">&#45;Type/R&#45;Type/Shared</text>
<text text-anchor="middle" x="647.5" y="-282" font-family="Helvetica,sans-Serif" font-size="10.00">/systems/Helpers/EntityHelper.hpp</text>
</a>
</g>
</g>
<!-- Node2 -->
<g id="Node000002" class="node">
<title>Node2</title>
<g id="a_Node000002"><a xlink:title=" ">
<polygon fill="#e0e0e0" stroke="#999999" points="1410,-74 1365,-74 1365,-55 1410,-55 1410,-74"/>
<text text-anchor="middle" x="1387.5" y="-62" font-family="Helvetica,sans-Serif" font-size="10.00">utility</text>
</a>
</g>
</g>
<!-- Node1&#45;&gt;Node2 -->
<g id="edge1_Node000001_Node000002" class="edge">
<title>Node1&#45;&gt;Node2</title>
<g id="a_edge1_Node000001_Node000002"><a xlink:title=" ">
<path fill="none" stroke="#63b8ff" d="M740.38,-292.56C988.13,-286.36 1659.84,-262.57 1865.5,-184 1907.88,-167.81 1929.71,-168.8 1951.5,-129 1955.56,-121.59 1957.23,-116.2 1951.5,-110 1915.37,-70.91 1536.08,-66.11 1420.65,-65.56"/>
<polygon fill="#63b8ff" stroke="#63b8ff" points="1420.34,-62.06 1410.32,-65.52 1420.31,-69.06 1420.34,-62.06"/>
</a>
</g>
</g>
<!-- Node3 -->
<g id="Node000003" class="node">
<title>Node3</title>
<g id="a_Node000003"><a xlink:title=" ">
<polygon fill="#e0e0e0" stroke="#999999" points="1125,-74 1078,-74 1078,-55 1125,-55 1125,-74"/>
<text text-anchor="middle" x="1101.5" y="-62" font-family="Helvetica,sans-Serif" font-size="10.00">vector</text>
</a>
</g>
</g>
<!-- Node1&#45;&gt;Node3 -->
<g id="edge2_Node000001_Node000003" class="edge">
<title>Node1&#45;&gt;Node3</title>
<g id="a_edge2_Node000001_Node000003"><a xlink:title=" ">
<path fill="none" stroke="#63b8ff" d="M706.05,-274.86C746.72,-257.79 797.87,-228.68 822.5,-184 846.57,-140.34 760.07,-129.99 759.5,-129 755.26,-121.7 753.93,-116.34 759.5,-110 779.68,-87.02 985.45,-72.38 1067.75,-67.4"/>
<polygon fill="#63b8ff" stroke="#63b8ff" points="1068.06,-70.89 1077.84,-66.8 1067.65,-63.9 1068.06,-70.89"/>
</a>
</g>
</g>
<!-- Node4 -->
<g id="Node000004" class="node">
<title>Node4</title>
<g id="a_Node000004"><a xlink:href="Items_8hpp.html" target="_top" xlink:title=" ">
<polygon fill="white" stroke="#666666" points="261.5,-239 151.5,-239 151.5,-220 261.5,-220 261.5,-239"/>
<text text-anchor="middle" x="206.5" y="-227" font-family="Helvetica,sans-Serif" font-size="10.00">Collision/Items.hpp</text>
</a>
</g>
</g>
<!-- Node1&#45;&gt;Node4 -->
<g id="edge3_Node000001_Node000004" class="edge">
<title>Node1&#45;&gt;Node4</title>
<g id="a_edge3_Node000001_Node000004"><a xlink:title=" ">
<path fill="none" stroke="#63b8ff" d="M554.78,-281.04C469.97,-268.74 346.64,-250.84 271.77,-239.97"/>
<polygon fill="#63b8ff" stroke="#63b8ff" points="271.94,-236.46 261.54,-238.49 270.93,-243.39 271.94,-236.46"/>
</a>
</g>
</g>
<!-- Node5 -->
<g id="Node000005" class="node">
<title>Node5</title>
<g id="a_Node000005"><a xlink:href="Boss_8hpp.html" target="_top" xlink:title=" ">
<polygon fill="white" stroke="#666666" points="95,-239 0,-239 0,-220 95,-220 95,-239"/>
<text text-anchor="middle" x="47.5" y="-227" font-family="Helvetica,sans-Serif" font-size="10.00">Player/Boss.hpp</text>
</a>
</g>
</g>
<!-- Node1&#45;&gt;Node5 -->
<g id="edge4_Node000001_Node000005" class="edge">
<title>Node1&#45;&gt;Node5</title>
<g id="a_edge4_Node000001_Node000005"><a xlink:title=" ">
<path fill="none" stroke="#63b8ff" d="M554.57,-285.87C447.25,-275.67 265.42,-257.73 109.5,-239 108.2,-238.84 106.88,-238.68 105.55,-238.52"/>
<polygon fill="#63b8ff" stroke="#63b8ff" points="105.57,-234.99 95.21,-237.2 104.69,-241.94 105.57,-234.99"/>
</a>
</g>
</g>
<!-- Node6 -->
<g id="Node000006" class="node">
<title>Node6</title>
<g id="a_Node000006"><a xlink:href="Physics2D_8hpp.html" target="_top" xlink:title=" ">
<polygon fill="white" stroke="#666666" points="452,-74 355,-74 355,-55 452,-55 452,-74"/>
<text text-anchor="middle" x="403.5" y="-62" font-family="Helvetica,sans-Serif" font-size="10.00">../Physics2D.hpp</text>
</a>
</g>
</g>
<!-- Node1&#45;&gt;Node6 -->
<g id="edge24_Node000001_Node000006" class="edge">
<title>Node1&#45;&gt;Node6</title>
<g id="a_edge24_Node000001_Node000006"><a xlink:title=" ">
<path fill="none" stroke="#63b8ff" d="M554.86,-290.89C416.59,-284.54 169.47,-269.09 142.5,-239 104.24,-196.3 105.52,-153.82 142.5,-110 167.84,-79.97 275.75,-70.2 344.64,-67.03"/>
<polygon fill="#63b8ff" stroke="#63b8ff" points="345.08,-70.51 354.92,-66.59 344.78,-63.52 345.08,-70.51"/>
</a>
</g>
</g>
<!-- Node9 -->
<g id="Node000009" class="node">
<title>Node9</title>
<g id="a_Node000009"><a xlink:href="Enemy_8hpp.html" target="_top" xlink:title=" ">
<polygon fill="white" stroke="#666666" points="554.5,-129 450.5,-129 450.5,-110 554.5,-110 554.5,-129"/>
<text text-anchor="middle" x="502.5" y="-117" font-family="Helvetica,sans-Serif" font-size="10.00">Player/Enemy.hpp</text>
</a>
</g>
</g>
<!-- Node1&#45;&gt;Node9 -->
<g id="edge8_Node000001_Node000009" class="edge">
<title>Node1&#45;&gt;Node9</title>
<g id="a_edge8_Node000001_Node000009"><a xlink:title=" ">
<path fill="none" stroke="#63b8ff" d="M634.85,-274.65C617.67,-248.36 585.34,-201.09 552.5,-165 542.94,-154.5 531.12,-143.88 521.37,-135.65"/>
<polygon fill="#63b8ff" stroke="#63b8ff" points="523.38,-132.77 513.44,-129.1 518.92,-138.17 523.38,-132.77"/>
</a>
</g>
</g>
<!-- Node10 -->
<g id="Node000010" class="node">
<title>Node10</title>
<g id="a_Node000010"><a xlink:href="EnemySpawn_8hpp.html" target="_top" xlink:title=" ">
<polygon fill="white" stroke="#666666" points="813,-184 676,-184 676,-165 813,-165 813,-184"/>
<text text-anchor="middle" x="744.5" y="-172" font-family="Helvetica,sans-Serif" font-size="10.00">Player/EnemySpawn.hpp</text>
</a>
</g>
</g>
<!-- Node1&#45;&gt;Node10 -->
<g id="edge10_Node000001_Node000010" class="edge">
<title>Node1&#45;&gt;Node10</title>
<g id="a_edge10_Node000001_Node000010"><a xlink:title=" ">
<path fill="none" stroke="#63b8ff" d="M663.52,-274.85C682.34,-251.76 713.24,-213.84 730.94,-192.14"/>
<polygon fill="#63b8ff" stroke="#63b8ff" points="733.82,-194.14 737.43,-184.18 728.4,-189.71 733.82,-194.14"/>
</a>
</g>
</g>
<!-- Node11 -->
<g id="Node000011" class="node">
<title>Node11</title>
<g id="a_Node000011"><a xlink:href="PlayerEntity_8hpp.html" target="_top" xlink:title=" ">
<polygon fill="white" stroke="#666666" points="522,-239 393,-239 393,-220 522,-220 522,-239"/>
<text text-anchor="middle" x="457.5" y="-227" font-family="Helvetica,sans-Serif" font-size="10.00">Player/PlayerEntity.hpp</text>
</a>
</g>
</g>
<!-- Node1&#45;&gt;Node11 -->
<g id="edge14_Node000001_Node000011" class="edge">
<title>Node1&#45;&gt;Node11</title>
<g id="a_edge14_Node000001_Node000011"><a xlink:title=" ">
<path fill="none" stroke="#63b8ff" d="M589.46,-274.95C557.82,-264.29 519.69,-251.45 492.58,-242.31"/>
<polygon fill="#63b8ff" stroke="#63b8ff" points="493.35,-238.88 482.76,-239.01 491.12,-245.52 493.35,-238.88"/>
</a>
</g>
</g>
<!-- Node17 -->
<g id="Node000017" class="node">
<title>Node17</title>
<g id="a_Node000017"><a xlink:href="Projectile_8hpp.html" target="_top" xlink:title=" ">
<polygon fill="white" stroke="#666666" points="331.5,-129 151.5,-129 151.5,-110 331.5,-110 331.5,-129"/>
<text text-anchor="middle" x="241.5" y="-117" font-family="Helvetica,sans-Serif" font-size="10.00">components/Player/Projectile.hpp</text>
</a>
</g>
</g>
<!-- Node1&#45;&gt;Node17 -->
<g id="edge23_Node000001_Node000017" class="edge">
<title>Node1&#45;&gt;Node17</title>
<g id="a_edge23_Node000001_Node000017"><a xlink:title=" ">
<path fill="none" stroke="#63b8ff" d="M554.98,-278.27C429.41,-255.28 218.08,-212.84 196.5,-184 184.16,-167.51 202.47,-148.14 219.3,-135.17"/>
<polygon fill="#63b8ff" stroke="#63b8ff" points="221.75,-137.72 227.8,-129.02 217.65,-132.05 221.75,-137.72"/>
</a>
</g>
</g>
<!-- Node18 -->
<g id="Node000018" class="node">
<title>Node18</title>
<g id="a_Node000018"><a xlink:href="Registry_8hpp.html" target="_top" xlink:title=" ">
<polygon fill="white" stroke="#666666" points="1149.5,-184 1053.5,-184 1053.5,-165 1149.5,-165 1149.5,-184"/>
<text text-anchor="middle" x="1101.5" y="-172" font-family="Helvetica,sans-Serif" font-size="10.00">ecs/Registry.hpp</text>
</a>
</g>
</g>
<!-- Node1&#45;&gt;Node18 -->
<g id="edge25_Node000001_Node000018" class="edge">
<title>Node1&#45;&gt;Node18</title>
<g id="a_edge25_Node000001_Node000018"><a xlink:title=" ">
<path fill="none" stroke="#63b8ff" d="M721.96,-274.98C818.02,-249.8 981.91,-206.85 1059.02,-186.64"/>
<polygon fill="#63b8ff" stroke="#63b8ff" points="1060.08,-189.98 1068.87,-184.05 1058.31,-183.2 1060.08,-189.98"/>
</a>
</g>
</g>
<!-- Node28 -->
<g id="Node000028" class="node">
<title>Node28</title>
<g id="a_Node000028"><a xlink:href="InputManager_8hpp.html" target="_top" xlink:title=" ">
<polygon fill="white" stroke="#666666" points="1517,-239 1380,-239 1380,-220 1517,-220 1517,-239"/>
<text text-anchor="middle" x="1448.5" y="-227" font-family="Helvetica,sans-Serif" font-size="10.00">inputs/InputManager.hpp</text>
</a>
</g>
</g>
<!-- Node1&#45;&gt;Node28 -->
<g id="edge41_Node000001_Node000028" class="edge">
<title>Node1&#45;&gt;Node28</title>
<g id="a_edge41_Node000001_Node000028"><a xlink:title=" ">
<path fill="none" stroke="#63b8ff" d="M740.17,-287.1C899.18,-274.39 1221.22,-248.66 1369.95,-236.78"/>
<polygon fill="#63b8ff" stroke="#63b8ff" points="1370.23,-240.26 1379.92,-235.98 1369.67,-233.29 1370.23,-240.26"/>
</a>
</g>
</g>
<!-- Node5&#45;&gt;Node6 -->
<g id="edge5_Node000005_Node000006" class="edge">
<title>Node5&#45;&gt;Node6</title>
<g id="a_edge5_Node000005_Node000006"><a xlink:title=" ">
<path fill="none" stroke="#63b8ff" d="M49.21,-219.88C54.14,-197.58 70.56,-137.77 109.5,-110 146.23,-83.81 269.85,-72.64 344.59,-68.19"/>
<polygon fill="#63b8ff" stroke="#63b8ff" points="345.01,-71.67 354.8,-67.6 344.61,-64.68 345.01,-71.67"/>
</a>
</g>
</g>
<!-- Node7 -->
<g id="Node000007" class="node">
<title>Node7</title>
<g id="a_Node000007"><a xlink:title=" ">
<polygon fill="#e0e0e0" stroke="#999999" points="1919.5,-19 1847.5,-19 1847.5,0 1919.5,0 1919.5,-19"/>
<text text-anchor="middle" x="1883.5" y="-7" font-family="Helvetica,sans-Serif" font-size="10.00">SDL2/SDL.h</text>
</a>
</g>
</g>
<!-- Node6&#45;&gt;Node7 -->
<g id="edge6_Node000006_Node000007" class="edge">
<title>Node6&#45;&gt;Node7</title>
<g id="a_edge6_Node000006_Node000007"><a xlink:title=" ">
<path fill="none" stroke="#63b8ff" d="M452.31,-61.09C489.39,-59.29 541.65,-56.85 587.5,-55 1076.4,-35.31 1669.28,-16.98 1837.21,-11.89"/>
<polygon fill="#63b8ff" stroke="#63b8ff" points="1837.53,-15.38 1847.42,-11.58 1837.32,-8.39 1837.53,-15.38"/>
</a>
</g>
</g>
<!-- Node8 -->
<g id="Node000008" class="node">
<title>Node8</title>
<g id="a_Node000008"><a xlink:title=" ">
<polygon fill="#e0e0e0" stroke="#999999" points="427,-19 380,-19 380,0 427,0 427,-19"/>
<text text-anchor="middle" x="403.5" y="-7" font-family="Helvetica,sans-Serif" font-size="10.00">cmath</text>
</a>
</g>
</g>
<!-- Node6&#45;&gt;Node8 -->
<g id="edge7_Node000006_Node000008" class="edge">
<title>Node6&#45;&gt;Node8</title>
<g id="a_edge7_Node000006_Node000008"><a xlink:title=" ">
<path fill="none" stroke="#63b8ff" d="M403.5,-54.75C403.5,-47.8 403.5,-37.85 403.5,-29.13"/>
<polygon fill="#63b8ff" stroke="#63b8ff" points="407,-29.09 403.5,-19.09 400,-29.09 407,-29.09"/>
</a>
</g>
</g>
<!-- Node9&#45;&gt;Node6 -->
<g id="edge9_Node000009_Node000006" class="edge">
<title>Node9&#45;&gt;Node6</title>
<g id="a_edge9_Node000009_Node000006"><a xlink:title=" ">
<path fill="none" stroke="#63b8ff" d="M486.59,-109.98C470.95,-101.61 446.84,-88.7 428.62,-78.95"/>
<polygon fill="#63b8ff" stroke="#63b8ff" points="430.16,-75.8 419.7,-74.17 426.86,-81.98 430.16,-75.8"/>
</a>
</g>
</g>
<!-- Node10&#45;&gt;Node2 -->
<g id="edge11_Node000010_Node000002" class="edge">
<title>Node10&#45;&gt;Node2</title>
<g id="a_edge11_Node000010_Node000002"><a xlink:title=" ">
<path fill="none" stroke="#63b8ff" d="M813.03,-171.16C957.77,-165.8 1285.08,-151.37 1330.5,-129 1350.78,-119.02 1367.13,-98.38 1377.04,-83.33"/>
<polygon fill="#63b8ff" stroke="#63b8ff" points="1380.27,-84.75 1382.59,-74.42 1374.33,-81.05 1380.27,-84.75"/>
</a>
</g>
</g>
<!-- Node10&#45;&gt;Node3 -->
<g id="edge12_Node000010_Node000003" class="edge">
<title>Node10&#45;&gt;Node3</title>
<g id="a_edge12_Node000010_Node000003"><a xlink:title=" ">
<path fill="none" stroke="#63b8ff" d="M737.71,-165C727.92,-151.67 712.5,-125.76 726.5,-110 748.99,-84.68 979.49,-71.24 1067.55,-67"/>
<polygon fill="#63b8ff" stroke="#63b8ff" points="1067.98,-70.49 1077.8,-66.52 1067.65,-63.49 1067.98,-70.49"/>
</a>
</g>
</g>
<!-- Node10&#45;&gt;Node9 -->
<g id="edge13_Node000010_Node000009" class="edge">
<title>Node10&#45;&gt;Node9</title>
<g id="a_edge13_Node000010_Node000009"><a xlink:title=" ">
<path fill="none" stroke="#63b8ff" d="M705.62,-164.98C663.76,-155.82 597.07,-141.21 551.62,-131.26"/>
<polygon fill="#63b8ff" stroke="#63b8ff" points="552.2,-127.8 541.69,-129.08 550.71,-134.64 552.2,-127.8"/>
</a>
</g>
</g>
<!-- Node11&#45;&gt;Node6 -->
<g id="edge22_Node000011_Node000006" class="edge">
<title>Node11&#45;&gt;Node6</title>
<g id="a_edge22_Node000011_Node000006"><a xlink:title=" ">
<path fill="none" stroke="#63b8ff" d="M415.97,-219.94C396.19,-213.55 374.32,-202.6 362.5,-184 341.49,-150.95 370.26,-105.83 389.22,-81.93"/>
<polygon fill="#63b8ff" stroke="#63b8ff" points="391.98,-84.08 395.65,-74.14 386.58,-79.62 391.98,-84.08"/>
</a>
</g>
</g>
<!-- Node12 -->
<g id="Node000012" class="node">
<title>Node12</title>
<g id="a_Node000012"><a xlink:title=" ">
<polygon fill="#e0e0e0" stroke="#999999" points="969.5,-129 905.5,-129 905.5,-110 969.5,-110 969.5,-129"/>
<text text-anchor="middle" x="937.5" y="-117" font-family="Helvetica,sans-Serif" font-size="10.00">algorithm</text>
</a>
</g>
</g>
<!-- Node11&#45;&gt;Node12 -->
<g id="edge15_Node000011_Node000012" class="edge">
<title>Node11&#45;&gt;Node12</title>
<g id="a_edge15_Node000011_Node000012"><a xlink:title=" ">
<path fill="none" stroke="#63b8ff" d="M481.66,-219.95C520.27,-206.57 598.48,-180.58 666.5,-165 764.2,-142.63 792.92,-147.19 895.17,-129.15"/>
<polygon fill="#63b8ff" stroke="#63b8ff" points="896.08,-132.54 905.3,-127.33 894.84,-125.65 896.08,-132.54"/>
</a>
</g>
</g>
<!-- Node13 -->
<g id="Node000013" class="node">
<title>Node13</title>
<g id="a_Node000013"><a xlink:href="CollisionController_8hpp.html" target="_top" xlink:title=" ">
<polygon fill="white" stroke="#666666" points="543.5,-184 371.5,-184 371.5,-165 543.5,-165 543.5,-184"/>
<text text-anchor="middle" x="457.5" y="-172" font-family="Helvetica,sans-Serif" font-size="10.00">Collision/CollisionController.hpp</text>
</a>
</g>
</g>
<!-- Node11&#45;&gt;Node13 -->
<g id="edge16_Node000011_Node000013" class="edge">
<title>Node11&#45;&gt;Node13</title>
<g id="a_edge16_Node000011_Node000013"><a xlink:title=" ">
<path fill="none" stroke="#63b8ff" d="M457.5,-219.75C457.5,-212.8 457.5,-202.85 457.5,-194.13"/>
<polygon fill="#63b8ff" stroke="#63b8ff" points="461,-194.09 457.5,-184.09 454,-194.09 461,-194.09"/>
</a>
</g>
</g>
<!-- Node16 -->
<g id="Node000016" class="node">
<title>Node16</title>
<g id="a_Node000016"><a xlink:href="Weapon_8hpp.html" target="_top" xlink:title=" ">
<polygon fill="white" stroke="#666666" points="315.5,-184 205.5,-184 205.5,-165 315.5,-165 315.5,-184"/>
<text text-anchor="middle" x="260.5" y="-172" font-family="Helvetica,sans-Serif" font-size="10.00">Player/Weapon.hpp</text>
</a>
</g>
</g>
<!-- Node11&#45;&gt;Node16 -->
<g id="edge19_Node000011_Node000016" class="edge">
<title>Node11&#45;&gt;Node16</title>
<g id="a_edge19_Node000011_Node000016"><a xlink:title=" ">
<path fill="none" stroke="#63b8ff" d="M425.85,-219.98C392.34,-210.97 339.3,-196.7 302.36,-186.76"/>
<polygon fill="#63b8ff" stroke="#63b8ff" points="302.97,-183.3 292.4,-184.08 301.15,-190.06 302.97,-183.3"/>
</a>
</g>
</g>
<!-- Node14 -->
<g id="Node000014" class="node">
<title>Node14</title>
<g id="a_Node000014"><a xlink:href="Entity_8hpp.html" target="_top" xlink:title=" ">
<polygon fill="white" stroke="#666666" points="674.5,-129 572.5,-129 572.5,-110 674.5,-110 674.5,-129"/>
<text text-anchor="middle" x="623.5" y="-117" font-family="Helvetica,sans-Serif" font-size="10.00">../../ecs/Entity.hpp</text>
</a>
</g>
</g>
<!-- Node13&#45;&gt;Node14 -->
<g id="edge17_Node000013_Node000014" class="edge">
<title>Node13&#45;&gt;Node14</title>
<g id="a_edge17_Node000013_Node000014"><a xlink:title=" ">
<path fill="none" stroke="#63b8ff" d="M484.17,-164.98C512.04,-156.09 555.95,-142.07 587.02,-132.15"/>
<polygon fill="#63b8ff" stroke="#63b8ff" points="588.16,-135.46 596.62,-129.08 586.03,-128.79 588.16,-135.46"/>
</a>
</g>
</g>
<!-- Node15 -->
<g id="Node000015" class="node">
<title>Node15</title>
<g id="a_Node000015"><a xlink:title=" ">
<polygon fill="#e0e0e0" stroke="#999999" points="650,-74 597,-74 597,-55 650,-55 650,-74"/>
<text text-anchor="middle" x="623.5" y="-62" font-family="Helvetica,sans-Serif" font-size="10.00">cstddef</text>
</a>
</g>
</g>
<!-- Node14&#45;&gt;Node15 -->
<g id="edge18_Node000014_Node000015" class="edge">
<title>Node14&#45;&gt;Node15</title>
<g id="a_edge18_Node000014_Node000015"><a xlink:title=" ">
<path fill="none" stroke="#63b8ff" d="M623.5,-109.75C623.5,-102.8 623.5,-92.85 623.5,-84.13"/>
<polygon fill="#63b8ff" stroke="#63b8ff" points="627,-84.09 623.5,-74.09 620,-84.09 627,-84.09"/>
</a>
</g>
</g>
<!-- Node16&#45;&gt;Node17 -->
<g id="edge20_Node000016_Node000017" class="edge">
<title>Node16&#45;&gt;Node17</title>
<g id="a_edge20_Node000016_Node000017"><a xlink:title=" ">
<path fill="none" stroke="#63b8ff" d="M257.36,-164.75C254.82,-157.65 251.14,-147.4 247.97,-138.56"/>
<polygon fill="#63b8ff" stroke="#63b8ff" points="251.25,-137.32 244.58,-129.09 244.66,-139.68 251.25,-137.32"/>
</a>
</g>
</g>
<!-- Node17&#45;&gt;Node6 -->
<g id="edge21_Node000017_Node000006" class="edge">
<title>Node17&#45;&gt;Node6</title>
<g id="a_edge21_Node000017_Node000006"><a xlink:title=" ">
<path fill="none" stroke="#63b8ff" d="M267.53,-109.98C294.61,-101.13 337.21,-87.19 367.51,-77.28"/>
<polygon fill="#63b8ff" stroke="#63b8ff" points="368.85,-80.52 377.27,-74.08 366.68,-73.87 368.85,-80.52"/>
</a>
</g>
</g>
<!-- Node18&#45;&gt;Node2 -->
<g id="edge33_Node000018_Node000002" class="edge">
<title>Node18&#45;&gt;Node2</title>
<g id="a_edge33_Node000018_Node000002"><a xlink:title=" ">
<path fill="none" stroke="#63b8ff" d="M1149.7,-170.97C1216.23,-166.55 1331.62,-155.25 1363.5,-129 1376.85,-118.01 1382.78,-98.75 1385.41,-84.31"/>
<polygon fill="#63b8ff" stroke="#63b8ff" points="1388.93,-84.42 1386.89,-74.02 1382.01,-83.42 1388.93,-84.42"/>
</a>
</g>
</g>
<!-- Node18&#45;&gt;Node3 -->
<g id="edge34_Node000018_Node000003" class="edge">
<title>Node18&#45;&gt;Node3</title>
<g id="a_edge34_Node000018_Node000003"><a xlink:title=" ">
<path fill="none" stroke="#63b8ff" d="M1101.5,-164.66C1101.5,-147.17 1101.5,-107.8 1101.5,-84.27"/>
<polygon fill="#63b8ff" stroke="#63b8ff" points="1105,-84.16 1101.5,-74.16 1098,-84.16 1105,-84.16"/>
</a>
</g>
</g>
<!-- Node18&#45;&gt;Node12 -->
<g id="edge26_Node000018_Node000012" class="edge">
<title>Node18&#45;&gt;Node12</title>
<g id="a_edge26_Node000018_Node000012"><a xlink:title=" ">
<path fill="none" stroke="#63b8ff" d="M1075.15,-164.98C1047.74,-156.13 1004.61,-142.19 973.94,-132.28"/>
<polygon fill="#63b8ff" stroke="#63b8ff" points="974.65,-128.83 964.06,-129.08 972.5,-135.49 974.65,-128.83"/>
</a>
</g>
</g>
<!-- Node18&#45;&gt;Node14 -->
<g id="edge35_Node000018_Node000014" class="edge">
<title>Node18&#45;&gt;Node14</title>
<g id="a_edge35_Node000018_Node000014"><a xlink:title=" ">
<path fill="none" stroke="#63b8ff" d="M1053.48,-168.18C966.11,-158.49 781.29,-138 684.9,-127.31"/>
<polygon fill="#63b8ff" stroke="#63b8ff" points="685.05,-123.8 674.73,-126.18 684.28,-130.76 685.05,-123.8"/>
</a>
</g>
</g>
<!-- Node19 -->
<g id="Node000019" class="node">
<title>Node19</title>
<g id="a_Node000019"><a xlink:title=" ">
<polygon fill="#e0e0e0" stroke="#999999" points="804,-129 769,-129 769,-110 804,-110 804,-129"/>
<text text-anchor="middle" x="786.5" y="-117" font-family="Helvetica,sans-Serif" font-size="10.00">any</text>
</a>
</g>
</g>
<!-- Node18&#45;&gt;Node19 -->
<g id="edge27_Node000018_Node000019" class="edge">
<title>Node18&#45;&gt;Node19</title>
<g id="a_edge27_Node000018_Node000019"><a xlink:title=" ">
<path fill="none" stroke="#63b8ff" d="M1053.43,-168.33C997.92,-161.87 903.8,-149.37 813.92,-128.75"/>
<polygon fill="#63b8ff" stroke="#63b8ff" points="814.65,-125.33 804.11,-126.47 813.06,-132.15 814.65,-125.33"/>
</a>
</g>
</g>
<!-- Node20 -->
<g id="Node000020" class="node">
<title>Node20</title>
<g id="a_Node000020"><a xlink:title=" ">
<polygon fill="#e0e0e0" stroke="#999999" points="1481,-129 1416,-129 1416,-110 1481,-110 1481,-129"/>
<text text-anchor="middle" x="1448.5" y="-117" font-family="Helvetica,sans-Serif" font-size="10.00">functional</text>
</a>
</g>
</g>
<!-- Node18&#45;&gt;Node20 -->
<g id="edge28_Node000018_Node000020" class="edge">
<title>Node18&#45;&gt;Node20</title>
<g id="a_edge28_Node000018_Node000020"><a xlink:title=" ">
<path fill="none" stroke="#63b8ff" d="M1149.63,-166.84C1208.95,-158.52 1312.79,-143.6 1401.5,-129 1402.96,-128.76 1404.44,-128.51 1405.94,-128.26"/>
<polygon fill="#63b8ff" stroke="#63b8ff" points="1406.65,-131.69 1415.91,-126.53 1405.46,-124.79 1406.65,-131.69"/>
</a>
</g>
</g>
<!-- Node21 -->
<g id="Node000021" class="node">
<title>Node21</title>
<g id="a_Node000021"><a xlink:title=" ">
<polygon fill="#e0e0e0" stroke="#999999" points="1670.5,-129 1610.5,-129 1610.5,-110 1670.5,-110 1670.5,-129"/>
<text text-anchor="middle" x="1640.5" y="-117" font-family="Helvetica,sans-Serif" font-size="10.00">iostream</text>
</a>
</g>
</g>
<!-- Node18&#45;&gt;Node21 -->
<g id="edge29_Node000018_Node000021" class="edge">
<title>Node18&#45;&gt;Node21</title>
<g id="a_edge29_Node000018_Node000021"><a xlink:title=" ">
<path fill="none" stroke="#63b8ff" d="M1149.66,-171.23C1237.4,-166.66 1429.25,-154.65 1600.39,-128.98"/>
<polygon fill="#63b8ff" stroke="#63b8ff" points="1600.98,-132.43 1610.34,-127.47 1599.92,-125.51 1600.98,-132.43"/>
</a>
</g>
</g>
<!-- Node22 -->
<g id="Node000022" class="node">
<title>Node22</title>
<g id="a_Node000022"><a xlink:title=" ">
<polygon fill="#e0e0e0" stroke="#999999" points="887,-129 822,-129 822,-110 887,-110 887,-129"/>
<text text-anchor="middle" x="854.5" y="-117" font-family="Helvetica,sans-Serif" font-size="10.00">typeindex</text>
</a>
</g>
</g>
<!-- Node18&#45;&gt;Node22 -->
<g id="edge30_Node000018_Node000022" class="edge">
<title>Node18&#45;&gt;Node22</title>
<g id="a_edge30_Node000018_Node000022"><a xlink:title=" ">
<path fill="none" stroke="#63b8ff" d="M1061.82,-164.98C1016.81,-155.33 943.68,-139.64 897.39,-129.7"/>
<polygon fill="#63b8ff" stroke="#63b8ff" points="897.88,-126.23 887.37,-127.55 896.41,-133.07 897.88,-126.23"/>
</a>
</g>
</g>
<!-- Node23 -->
<g id="Node000023" class="node">
<title>Node23</title>
<g id="a_Node000023"><a xlink:title=" ">
<polygon fill="#e0e0e0" stroke="#999999" points="1592,-129 1499,-129 1499,-110 1592,-110 1592,-129"/>
<text text-anchor="middle" x="1545.5" y="-117" font-family="Helvetica,sans-Serif" font-size="10.00">unordered_map</text>
</a>
</g>
</g>
<!-- Node18&#45;&gt;Node23 -->
<g id="edge31_Node000018_Node000023" class="edge">
<title>Node18&#45;&gt;Node23</title>
<g id="a_edge31_Node000018_Node000023"><a xlink:title=" ">
<path fill="none" stroke="#63b8ff" d="M1149.79,-168.59C1221.53,-161.17 1360.76,-146.24 1488.73,-129.2"/>
<polygon fill="#63b8ff" stroke="#63b8ff" points="1489.26,-132.66 1498.71,-127.86 1488.33,-125.72 1489.26,-132.66"/>
</a>
</g>
</g>
<!-- Node24 -->
<g id="Node000024" class="node">
<title>Node24</title>
<g id="a_Node000024"><a xlink:title=" ">
<polygon fill="#e0e0e0" stroke="#999999" points="1073.5,-129 987.5,-129 987.5,-110 1073.5,-110 1073.5,-129"/>
<text text-anchor="middle" x="1030.5" y="-117" font-family="Helvetica,sans-Serif" font-size="10.00">unordered_set</text>
</a>
</g>
</g>
<!-- Node18&#45;&gt;Node24 -->
<g id="edge32_Node000018_Node000024" class="edge">
<title>Node18&#45;&gt;Node24</title>
<g id="a_edge32_Node000018_Node000024"><a xlink:title=" ">
<path fill="none" stroke="#63b8ff" d="M1090.09,-164.98C1079.39,-157 1063.16,-144.88 1050.34,-135.31"/>
<polygon fill="#63b8ff" stroke="#63b8ff" points="1052.22,-132.35 1042.11,-129.17 1048.03,-137.96 1052.22,-132.35"/>
</a>
</g>
</g>
<!-- Node25 -->
<g id="Node000025" class="node">
<title>Node25</title>
<g id="a_Node000025"><a xlink:href="SparseArray_8hpp.html" target="_top" xlink:title=" ">
<polygon fill="white" stroke="#666666" points="1321,-129 1206,-129 1206,-110 1321,-110 1321,-129"/>
<text text-anchor="middle" x="1263.5" y="-117" font-family="Helvetica,sans-Serif" font-size="10.00">ecs/SparseArray.hpp</text>
</a>
</g>
</g>
<!-- Node18&#45;&gt;Node25 -->
<g id="edge36_Node000018_Node000025" class="edge">
<title>Node18&#45;&gt;Node25</title>
<g id="a_edge36_Node000018_Node000025"><a xlink:title=" ">
<path fill="none" stroke="#63b8ff" d="M1127.53,-164.98C1154.61,-156.13 1197.21,-142.19 1227.51,-132.28"/>
<polygon fill="#63b8ff" stroke="#63b8ff" points="1228.85,-135.52 1237.27,-129.08 1226.68,-128.87 1228.85,-135.52"/>
</a>
</g>
</g>
<!-- Node25&#45;&gt;Node2 -->
<g id="edge39_Node000025_Node000002" class="edge">
<title>Node25&#45;&gt;Node2</title>
<g id="a_edge39_Node000025_Node000002"><a xlink:title=" ">
<path fill="none" stroke="#63b8ff" d="M1283.42,-109.98C1303.55,-101.38 1334.88,-87.99 1357.91,-78.15"/>
<polygon fill="#63b8ff" stroke="#63b8ff" points="1359.4,-81.32 1367.21,-74.17 1356.64,-74.88 1359.4,-81.32"/>
</a>
</g>
</g>
<!-- Node25&#45;&gt;Node3 -->
<g id="edge40_Node000025_Node000003" class="edge">
<title>Node25&#45;&gt;Node3</title>
<g id="a_edge40_Node000025_Node000003"><a xlink:title=" ">
<path fill="none" stroke="#63b8ff" d="M1237.47,-109.98C1209.59,-100.86 1165.25,-86.36 1134.83,-76.4"/>
<polygon fill="#63b8ff" stroke="#63b8ff" points="1135.69,-73 1125.09,-73.22 1133.51,-79.65 1135.69,-73"/>
</a>
</g>
</g>
<!-- Node26 -->
<g id="Node000026" class="node">
<title>Node26</title>
<g id="a_Node000026"><a xlink:title=" ">
<polygon fill="#e0e0e0" stroke="#999999" points="1244.5,-74 1186.5,-74 1186.5,-55 1244.5,-55 1244.5,-74"/>
<text text-anchor="middle" x="1215.5" y="-62" font-family="Helvetica,sans-Serif" font-size="10.00">memory</text>
</a>
</g>
</g>
<!-- Node25&#45;&gt;Node26 -->
<g id="edge37_Node000025_Node000026" class="edge">
<title>Node25&#45;&gt;Node26</title>
<g id="a_edge37_Node000025_Node000026"><a xlink:title=" ">
<path fill="none" stroke="#63b8ff" d="M1255.57,-109.75C1248.65,-102.11 1238.43,-90.82 1230.05,-81.56"/>
<polygon fill="#63b8ff" stroke="#63b8ff" points="1232.59,-79.15 1223.28,-74.09 1227.4,-83.85 1232.59,-79.15"/>
</a>
</g>
</g>
<!-- Node27 -->
<g id="Node000027" class="node">
<title>Node27</title>
<g id="a_Node000027"><a xlink:title=" ">
<polygon fill="#e0e0e0" stroke="#999999" points="1318.5,-74 1262.5,-74 1262.5,-55 1318.5,-55 1318.5,-74"/>
<text text-anchor="middle" x="1290.5" y="-62" font-family="Helvetica,sans-Serif" font-size="10.00">optional</text>
</a>
</g>
</g>
<!-- Node25&#45;&gt;Node27 -->
<g id="edge38_Node000025_Node000027" class="edge">
<title>Node25&#45;&gt;Node27</title>
<g id="a_edge38_Node000025_Node000027"><a xlink:title=" ">
<path fill="none" stroke="#63b8ff" d="M1267.96,-109.75C1271.62,-102.57 1276.91,-92.18 1281.45,-83.27"/>
<polygon fill="#63b8ff" stroke="#63b8ff" points="1284.7,-84.59 1286.12,-74.09 1278.47,-81.41 1284.7,-84.59"/>
</a>
</g>
</g>
<!-- Node28&#45;&gt;Node6 -->
<g id="edge43_Node000028_Node000006" class="edge">
<title>Node28&#45;&gt;Node6</title>
<g id="a_edge43_Node000028_Node000006"><a xlink:title=" ">
<path fill="none" stroke="#63b8ff" d="M1379.82,-228.79C1243.18,-228.46 927.92,-223.05 666.5,-184 641.05,-180.2 462.21,-144.28 441.5,-129 426.19,-117.71 415.88,-98.24 409.91,-83.82"/>
<polygon fill="#63b8ff" stroke="#63b8ff" points="413.15,-82.51 406.31,-74.41 406.61,-85 413.15,-82.51"/>
</a>
</g>
</g>
<!-- Node28&#45;&gt;Node7 -->
<g id="edge42_Node000028_Node000007" class="edge">
<title>Node28&#45;&gt;Node7</title>
<g id="a_edge42_Node000028_Node000007"><a xlink:title=" ">
<path fill="none" stroke="#63b8ff" d="M1517.16,-227.27C1647.66,-223.18 1922.65,-205.46 1968.5,-129 1979.29,-111 1965.98,-70.75 1954.5,-55 1944.54,-41.34 1929,-30.92 1914.99,-23.6"/>
<polygon fill="#63b8ff" stroke="#63b8ff" points="1916.15,-20.27 1905.62,-19.03 1913.08,-26.56 1916.15,-20.27"/>
</a>
</g>
</g>
<!-- Node28&#45;&gt;Node18 -->
<g id="edge44_Node000028_Node000018" class="edge">
<title>Node28&#45;&gt;Node18</title>
<g id="a_edge44_Node000028_Node000018"><a xlink:title=" ">
<path fill="none" stroke="#63b8ff" d="M1392.75,-219.98C1328.83,-210.22 1224.53,-194.29 1159.63,-184.38"/>
<polygon fill="#63b8ff" stroke="#63b8ff" points="1159.98,-180.89 1149.57,-182.84 1158.92,-187.81 1159.98,-180.89"/>
</a>
</g>
</g>
<!-- Node29 -->
<g id="Node000029" class="node">
<title>Node29</title>
<g id="a_Node000029"><a xlink:href="Zipper_8hpp.html" target="_top" xlink:title=" ">
<polygon fill="white" stroke="#666666" points="1492.5,-184 1404.5,-184 1404.5,-165 1492.5,-165 1492.5,-184"/>
<text text-anchor="middle" x="1448.5" y="-172" font-family="Helvetica,sans-Serif" font-size="10.00">ecs/Zipper.hpp</text>
</a>
</g>
</g>
<!-- Node28&#45;&gt;Node29 -->
<g id="edge45_Node000028_Node000029" class="edge">
<title>Node28&#45;&gt;Node29</title>
<g id="a_edge45_Node000028_Node000029"><a xlink:title=" ">
<path fill="none" stroke="#63b8ff" d="M1448.5,-219.75C1448.5,-212.8 1448.5,-202.85 1448.5,-194.13"/>
<polygon fill="#63b8ff" stroke="#63b8ff" points="1452,-194.09 1448.5,-184.09 1445,-194.09 1452,-194.09"/>
</a>
</g>
</g>
<!-- Node31 -->
<g id="Node000031" class="node">
<title>Node31</title>
<g id="a_Node000031"><a xlink:href="RenderComponents_8hpp.html" target="_top" xlink:title=" ">
<polygon fill="white" stroke="#666666" points="1706.5,-184 1528.5,-184 1528.5,-165 1706.5,-165 1706.5,-184"/>
<text text-anchor="middle" x="1617.5" y="-172" font-family="Helvetica,sans-Serif" font-size="10.00">graphics/RenderComponents.hpp</text>
</a>
</g>
</g>
<!-- Node28&#45;&gt;Node31 -->
<g id="edge51_Node000028_Node000031" class="edge">
<title>Node28&#45;&gt;Node31</title>
<g id="a_edge51_Node000028_Node000031"><a xlink:title=" ">
<path fill="none" stroke="#63b8ff" d="M1475.65,-219.98C1504.03,-211.09 1548.73,-197.07 1580.36,-187.15"/>
<polygon fill="#63b8ff" stroke="#63b8ff" points="1581.64,-190.41 1590.13,-184.08 1579.55,-183.73 1581.64,-190.41"/>
</a>
</g>
</g>
<!-- Node33 -->
<g id="Node000033" class="node">
<title>Node33</title>
<g id="a_Node000033"><a xlink:href="KeyBindings_8hpp.html" target="_top" xlink:title=" ">
<polygon fill="white" stroke="#666666" points="1856,-184 1725,-184 1725,-165 1856,-165 1856,-184"/>
<text text-anchor="middle" x="1790.5" y="-172" font-family="Helvetica,sans-Serif" font-size="10.00">inputs/KeyBindings.hpp</text>
</a>
</g>
</g>
<!-- Node28&#45;&gt;Node33 -->
<g id="edge55_Node000028_Node000033" class="edge">
<title>Node28&#45;&gt;Node33</title>
<g id="a_edge55_Node000028_Node000033"><a xlink:title=" ">
<path fill="none" stroke="#63b8ff" d="M1503.45,-219.98C1563.94,-210.61 1661.11,-195.55 1725.38,-185.59"/>
<polygon fill="#63b8ff" stroke="#63b8ff" points="1726.06,-189.03 1735.4,-184.04 1724.99,-182.11 1726.06,-189.03"/>
</a>
</g>
</g>
<!-- Node29&#45;&gt;Node2 -->
<g id="edge49_Node000029_Node000002" class="edge">
<title>Node29&#45;&gt;Node2</title>
<g id="a_edge49_Node000029_Node000002"><a xlink:title=" ">
<path fill="none" stroke="#63b8ff" d="M1492.78,-168.25C1572.23,-158.63 1731.52,-138.29 1739.5,-129 1745,-122.59 1745.08,-116.33 1739.5,-110 1718.53,-86.21 1503.44,-71.89 1420.17,-67.21"/>
<polygon fill="#63b8ff" stroke="#63b8ff" points="1420.19,-63.7 1410.01,-66.65 1419.8,-70.69 1420.19,-63.7"/>
</a>
</g>
</g>
<!-- Node29&#45;&gt;Node12 -->
<g id="edge46_Node000029_Node000012" class="edge">
<title>Node29&#45;&gt;Node12</title>
<g id="a_edge46_Node000029_Node000012"><a xlink:title=" ">
<path fill="none" stroke="#63b8ff" d="M1404.24,-170.94C1322.4,-165.85 1141.72,-152.97 979.81,-129.04"/>
<polygon fill="#63b8ff" stroke="#63b8ff" points="980.08,-125.54 969.67,-127.52 979.04,-132.46 980.08,-125.54"/>
</a>
</g>
</g>
<!-- Node29&#45;&gt;Node20 -->
<g id="edge47_Node000029_Node000020" class="edge">
<title>Node29&#45;&gt;Node20</title>
<g id="a_edge47_Node000029_Node000020"><a xlink:title=" ">
<path fill="none" stroke="#63b8ff" d="M1448.5,-164.75C1448.5,-157.8 1448.5,-147.85 1448.5,-139.13"/>
<polygon fill="#63b8ff" stroke="#63b8ff" points="1452,-139.09 1448.5,-129.09 1445,-139.09 1452,-139.09"/>
</a>
</g>
</g>
<!-- Node29&#45;&gt;Node29 -->
<g id="edge50_Node000029_Node000029" class="edge">
<title>Node29&#45;&gt;Node29</title>
<g id="a_edge50_Node000029_Node000029"><a xlink:title=" ">
<path fill="none" stroke="#63b8ff" d="M1477.52,-184.03C1494.56,-186.06 1510.5,-182.88 1510.5,-174.5 1510.5,-167.82 1500.37,-164.44 1487.64,-164.38"/>
<polygon fill="#63b8ff" stroke="#63b8ff" points="1487.3,-160.89 1477.52,-164.97 1487.71,-167.88 1487.3,-160.89"/>
</a>
</g>
</g>
<!-- Node30 -->
<g id="Node000030" class="node">
<title>Node30</title>
<g id="a_Node000030"><a xlink:title=" ">
<polygon fill="#e0e0e0" stroke="#999999" points="1730,-129 1689,-129 1689,-110 1730,-110 1730,-129"/>
<text text-anchor="middle" x="1709.5" y="-117" font-family="Helvetica,sans-Serif" font-size="10.00">tuple</text>
</a>
</g>
</g>
<!-- Node29&#45;&gt;Node30 -->
<g id="edge48_Node000029_Node000030" class="edge">
<title>Node29&#45;&gt;Node30</title>
<g id="a_edge48_Node000029_Node000030"><a xlink:title=" ">
<path fill="none" stroke="#63b8ff" d="M1492.59,-166.17C1537.16,-158.49 1608.19,-145.57 1678.93,-128.95"/>
<polygon fill="#63b8ff" stroke="#63b8ff" points="1679.98,-132.3 1688.9,-126.59 1678.37,-125.49 1679.98,-132.3"/>
</a>
</g>
</g>
<!-- Node31&#45;&gt;Node6 -->
<g id="edge54_Node000031_Node000006" class="edge">
<title>Node31&#45;&gt;Node6</title>
<g id="a_edge54_Node000031_Node000006"><a xlink:title=" ">
<path fill="none" stroke="#63b8ff" d="M1528.38,-165.65C1404.68,-154.63 1192.06,-135.24 1156.5,-129 1123.06,-123.13 1116.03,-115.36 1082.5,-110 1022.17,-100.36 615.95,-77.24 462.26,-68.72"/>
<polygon fill="#63b8ff" stroke="#63b8ff" points="462.25,-65.22 452.07,-68.16 461.86,-72.21 462.25,-65.22"/>
</a>
</g>
</g>
<!-- Node31&#45;&gt;Node7 -->
<g id="edge52_Node000031_Node000007" class="edge">
<title>Node31&#45;&gt;Node7</title>
<g id="a_edge52_Node000031_Node000007"><a xlink:title=" ">
<path fill="none" stroke="#63b8ff" d="M1659.63,-164.96C1688.03,-158.02 1725.63,-146.48 1755.5,-129 1803.43,-100.95 1848.37,-52.28 1870.01,-26.93"/>
<polygon fill="#63b8ff" stroke="#63b8ff" points="1872.92,-28.91 1876.66,-19 1867.55,-24.41 1872.92,-28.91"/>
</a>
</g>
</g>
<!-- Node32 -->
<g id="Node000032" class="node">
<title>Node32</title>
<g id="a_Node000032"><a xlink:title=" ">
<polygon fill="#e0e0e0" stroke="#999999" points="1868.5,-129 1824.5,-129 1824.5,-110 1868.5,-110 1868.5,-129"/>
<text text-anchor="middle" x="1846.5" y="-117" font-family="Helvetica,sans-Serif" font-size="10.00">string</text>
</a>
</g>
</g>
<!-- Node31&#45;&gt;Node32 -->
<g id="edge53_Node000031_Node000032" class="edge">
<title>Node31&#45;&gt;Node32</title>
<g id="a_edge53_Node000031_Node000032"><a xlink:title=" ">
<path fill="none" stroke="#63b8ff" d="M1654.87,-164.94C1693.76,-156.03 1756.42,-141.62 1810.5,-129 1811.77,-128.7 1813.06,-128.4 1814.36,-128.1"/>
<polygon fill="#63b8ff" stroke="#63b8ff" points="1815.49,-131.43 1824.42,-125.73 1813.88,-124.61 1815.49,-131.43"/>
</a>
</g>
</g>
<!-- Node33&#45;&gt;Node3 -->
<g id="edge61_Node000033_Node000003" class="edge">
<title>Node33&#45;&gt;Node3</title>
<g id="a_edge61_Node000033_Node000003"><a xlink:title=" ">
<path fill="none" stroke="#63b8ff" d="M1724.67,-165.88C1721.57,-165.57 1718.5,-165.27 1715.5,-165 1600.59,-154.5 1306.78,-166.05 1197.5,-129 1166.92,-118.63 1136.71,-96.06 1118.57,-80.82"/>
<polygon fill="#63b8ff" stroke="#63b8ff" points="1120.55,-77.9 1110.69,-74.01 1115.97,-83.19 1120.55,-77.9"/>
</a>
</g>
</g>
<!-- Node33&#45;&gt;Node7 -->
<g id="edge56_Node000033_Node000007" class="edge">
<title>Node33&#45;&gt;Node7</title>
<g id="a_edge56_Node000033_Node000007"><a xlink:title=" ">
<path fill="none" stroke="#63b8ff" d="M1848.72,-164.94C1889.49,-157.62 1938.85,-145.61 1951.5,-129 1977.8,-94.45 1931.71,-48.72 1903.32,-25.46"/>
<polygon fill="#63b8ff" stroke="#63b8ff" points="1905.18,-22.47 1895.17,-19 1900.84,-27.96 1905.18,-22.47"/>
</a>
</g>
</g>
<!-- Node33&#45;&gt;Node21 -->
<g id="edge58_Node000033_Node000021" class="edge">
<title>Node33&#45;&gt;Node21</title>
<g id="a_edge58_Node000033_Node000021"><a xlink:title=" ">
<path fill="none" stroke="#63b8ff" d="M1766.4,-164.98C1741.62,-156.23 1702.8,-142.51 1674.81,-132.62"/>
<polygon fill="#63b8ff" stroke="#63b8ff" points="1675.63,-129.2 1665.04,-129.17 1673.3,-135.8 1675.63,-129.2"/>
</a>
</g>
</g>
<!-- Node33&#45;&gt;Node23 -->
<g id="edge60_Node000033_Node000023" class="edge">
<title>Node33&#45;&gt;Node23</title>
<g id="a_edge60_Node000033_Node000023"><a xlink:title=" ">
<path fill="none" stroke="#63b8ff" d="M1751.14,-164.98C1708.76,-155.82 1641.24,-141.21 1595.22,-131.26"/>
<polygon fill="#63b8ff" stroke="#63b8ff" points="1595.69,-127.78 1585.17,-129.08 1594.21,-134.62 1595.69,-127.78"/>
</a>
</g>
</g>
<!-- Node33&#45;&gt;Node32 -->
<g id="edge59_Node000033_Node000032" class="edge">
<title>Node33&#45;&gt;Node32</title>
<g id="a_edge59_Node000033_Node000032"><a xlink:title=" ">
<path fill="none" stroke="#63b8ff" d="M1799.5,-164.98C1807.69,-157.23 1820.01,-145.58 1829.97,-136.14"/>
<polygon fill="#63b8ff" stroke="#63b8ff" points="1832.48,-138.59 1837.34,-129.17 1827.67,-133.5 1832.48,-138.59"/>
</a>
</g>
</g>
<!-- Node34 -->
<g id="Node000034" class="node">
<title>Node34</title>
<g id="a_Node000034"><a xlink:title=" ">
<polygon fill="#e0e0e0" stroke="#999999" points="1942,-129 1887,-129 1887,-110 1942,-110 1942,-129"/>
<text text-anchor="middle" x="1914.5" y="-117" font-family="Helvetica,sans-Serif" font-size="10.00">fstream</text>
</a>
</g>
</g>
<!-- Node33&#45;&gt;Node34 -->
<g id="edge57_Node000033_Node000034" class="edge">
<title>Node33&#45;&gt;Node34</title>
<g id="a_edge57_Node000033_Node000034"><a xlink:title=" ">
<path fill="none" stroke="#63b8ff" d="M1810.42,-164.98C1830.55,-156.38 1861.88,-142.99 1884.91,-133.15"/>
<polygon fill="#63b8ff" stroke="#63b8ff" points="1886.4,-136.32 1894.21,-129.17 1883.64,-129.88 1886.4,-136.32"/>
</a>
</g>
</g>
</g>
</svg>
