<?xml version="1.0" encoding="UTF-8" standalone="no"?>
<!DOCTYPE svg PUBLIC "-//W3C//DTD SVG 1.1//EN"
 "http://www.w3.org/Graphics/SVG/1.1/DTD/svg11.dtd">
<!-- Generated by graphviz version 2.43.0 (0)
 -->
<!-- Title: /home/runner/work/R&#45;Type/R&#45;Type/Shared/systems/Helpers/EntityHelper.hpp Pages: 1 -->
<svg width="1731pt" height="269pt"
 viewBox="0.00 0.00 1730.50 269.00" xmlns="http://www.w3.org/2000/svg" xmlns:xlink="http://www.w3.org/1999/xlink">
<g id="graph0" class="graph" transform="scale(1 1) rotate(0) translate(4 265)">
<title>/home/runner/work/R&#45;Type/R&#45;Type/Shared/systems/Helpers/EntityHelper.hpp</title>
<!-- Node1 -->
<g id="Node000001" class="node">
<title>Node1</title>
<g id="a_Node000001"><a xlink:title=" ">
<polygon fill="#999999" stroke="#666666" points="858.5,-261 673.5,-261 673.5,-220 858.5,-220 858.5,-261"/>
<text text-anchor="start" x="681.5" y="-249" font-family="Helvetica,sans-Serif" font-size="10.00">/home/runner/work/R</text>
<text text-anchor="start" x="681.5" y="-238" font-family="Helvetica,sans-Serif" font-size="10.00">&#45;Type/R&#45;Type/Shared</text>
<text text-anchor="middle" x="766" y="-227" font-family="Helvetica,sans-Serif" font-size="10.00">/systems/Helpers/EntityHelper.hpp</text>
</a>
</g>
</g>
<!-- Node2 -->
<g id="Node000002" class="node">
<title>Node2</title>
<g id="a_Node000002"><a xlink:title=" ">
<polygon fill="#e0e0e0" stroke="#999999" points="60,-184 0,-184 0,-165 60,-165 60,-184"/>
<text text-anchor="middle" x="30" y="-172" font-family="Helvetica,sans-Serif" font-size="10.00">iostream</text>
</a>
</g>
</g>
<!-- Node1&#45;&gt;Node2 -->
<g id="edge1_Node000001_Node000002" class="edge">
<title>Node1&#45;&gt;Node2</title>
<g id="a_edge1_Node000001_Node000002"><a xlink:title=" ">
<path fill="none" stroke="#63b8ff" d="M673.38,-236.11C541.45,-230.39 291.8,-216.29 70.35,-184"/>
<polygon fill="#63b8ff" stroke="#63b8ff" points="70.56,-180.49 60.16,-182.49 69.54,-187.42 70.56,-180.49"/>
</a>
</g>
</g>
<!-- Node3 -->
<g id="Node000003" class="node">
<title>Node3</title>
<g id="a_Node000003"><a xlink:title=" ">
<polygon fill="#e0e0e0" stroke="#999999" points="122,-184 78,-184 78,-165 122,-165 122,-184"/>
<text text-anchor="middle" x="100" y="-172" font-family="Helvetica,sans-Serif" font-size="10.00">string</text>
</a>
</g>
</g>
<!-- Node1&#45;&gt;Node3 -->
<g id="edge2_Node000001_Node000003" class="edge">
<title>Node1&#45;&gt;Node3</title>
<g id="a_edge2_Node000001_Node000003"><a xlink:title=" ">
<path fill="none" stroke="#63b8ff" d="M673.41,-235.52C550.12,-229.27 325.56,-214.57 136,-184 134.75,-183.8 133.48,-183.58 132.2,-183.34"/>
<polygon fill="#63b8ff" stroke="#63b8ff" points="132.87,-179.91 122.37,-181.31 131.45,-186.76 132.87,-179.91"/>
</a>
</g>
</g>
<!-- Node4 -->
<g id="Node000004" class="node">
<title>Node4</title>
<g id="a_Node000004"><a xlink:title=" ">
<polygon fill="#e0e0e0" stroke="#999999" points="193.5,-129 148.5,-129 148.5,-110 193.5,-110 193.5,-129"/>
<text text-anchor="middle" x="171" y="-117" font-family="Helvetica,sans-Serif" font-size="10.00">utility</text>
</a>
</g>
</g>
<!-- Node1&#45;&gt;Node4 -->
<g id="edge3_Node000001_Node000004" class="edge">
<title>Node1&#45;&gt;Node4</title>
<g id="a_edge3_Node000001_Node000004"><a xlink:title=" ">
<path fill="none" stroke="#63b8ff" d="M673.2,-235.58C521.97,-228.43 235.39,-211.44 198,-184 183.69,-173.5 176.9,-153.87 173.72,-139.2"/>
<polygon fill="#63b8ff" stroke="#63b8ff" points="177.13,-138.42 171.92,-129.19 170.24,-139.65 177.13,-138.42"/>
</a>
</g>
</g>
<!-- Node5 -->
<g id="Node000005" class="node">
<title>Node5</title>
<g id="a_Node000005"><a xlink:title=" ">
<polygon fill="#e0e0e0" stroke="#999999" points="402.5,-129 355.5,-129 355.5,-110 402.5,-110 402.5,-129"/>
<text text-anchor="middle" x="379" y="-117" font-family="Helvetica,sans-Serif" font-size="10.00">vector</text>
</a>
</g>
</g>
<!-- Node1&#45;&gt;Node5 -->
<g id="edge4_Node000001_Node000005" class="edge">
<title>Node1&#45;&gt;Node5</title>
<g id="a_edge4_Node000001_Node000005"><a xlink:title=" ">
<path fill="none" stroke="#63b8ff" d="M673.25,-236.13C578.99,-230.86 441.28,-217.52 401,-184 387.84,-173.05 382.54,-153.78 380.41,-139.33"/>
<polygon fill="#63b8ff" stroke="#63b8ff" points="383.85,-138.6 379.29,-129.03 376.89,-139.35 383.85,-138.6"/>
</a>
</g>
</g>
<!-- Node6 -->
<g id="Node000006" class="node">
<title>Node6</title>
<g id="a_Node000006"><a xlink:href="Items_8hpp.html" target="_top" xlink:title=" ">
<polygon fill="white" stroke="#666666" points="1166,-184 1056,-184 1056,-165 1166,-165 1166,-184"/>
<text text-anchor="middle" x="1111" y="-172" font-family="Helvetica,sans-Serif" font-size="10.00">Collision/Items.hpp</text>
</a>
</g>
</g>
<!-- Node1&#45;&gt;Node6 -->
<g id="edge5_Node000001_Node000006" class="edge">
<title>Node1&#45;&gt;Node6</title>
<g id="a_edge5_Node000001_Node000006"><a xlink:title=" ">
<path fill="none" stroke="#63b8ff" d="M858.91,-222.26C921.53,-210.65 1002.08,-195.71 1055.06,-185.88"/>
<polygon fill="#63b8ff" stroke="#63b8ff" points="1055.75,-189.31 1064.95,-184.04 1054.48,-182.43 1055.75,-189.31"/>
</a>
</g>
</g>
<!-- Node7 -->
<g id="Node000007" class="node">
<title>Node7</title>
<g id="a_Node000007"><a xlink:href="Boss_8hpp.html" target="_top" xlink:title=" ">
<polygon fill="white" stroke="#666666" points="734.5,-129 639.5,-129 639.5,-110 734.5,-110 734.5,-129"/>
<text text-anchor="middle" x="687" y="-117" font-family="Helvetica,sans-Serif" font-size="10.00">Player/Boss.hpp</text>
</a>
</g>
</g>
<!-- Node1&#45;&gt;Node7 -->
<g id="edge6_Node000001_Node000007" class="edge">
<title>Node1&#45;&gt;Node7</title>
<g id="a_edge6_Node000001_Node000007"><a xlink:title=" ">
<path fill="none" stroke="#63b8ff" d="M752.95,-219.85C737.76,-196.96 712.9,-159.52 698.43,-137.72"/>
<polygon fill="#63b8ff" stroke="#63b8ff" points="701.21,-135.57 692.76,-129.18 695.37,-139.44 701.21,-135.57"/>
</a>
</g>
</g>
<!-- Node8 -->
<g id="Node000008" class="node">
<title>Node8</title>
<g id="a_Node000008"><a xlink:title=" ">
<polygon fill="#e0e0e0" stroke="#999999" points="899,-19 771,-19 771,0 899,0 899,-19"/>
<text text-anchor="middle" x="835" y="-7" font-family="Helvetica,sans-Serif" font-size="10.00">physics/Physics2D.hpp</text>
</a>
</g>
</g>
<!-- Node1&#45;&gt;Node8 -->
<g id="edge42_Node000001_Node000008" class="edge">
<title>Node1&#45;&gt;Node8</title>
<g id="a_edge42_Node000001_Node000008"><a xlink:title=" ">
<path fill="none" stroke="#63b8ff" d="M858.71,-222.73C903.78,-213.4 958.37,-200.35 1006,-184 1025,-177.48 1027.56,-170.05 1047,-165 1098.87,-151.52 1491.55,-168.29 1528,-129 1614.15,-36.16 1105.17,-15.97 909.37,-11.65"/>
<polygon fill="#63b8ff" stroke="#63b8ff" points="909.24,-8.15 899.16,-11.43 909.09,-15.15 909.24,-8.15"/>
</a>
</g>
</g>
<!-- Node10 -->
<g id="Node000010" class="node">
<title>Node10</title>
<g id="a_Node000010"><a xlink:href="Enemy_8hpp.html" target="_top" xlink:title=" ">
<polygon fill="white" stroke="#666666" points="337,-129 233,-129 233,-110 337,-110 337,-129"/>
<text text-anchor="middle" x="285" y="-117" font-family="Helvetica,sans-Serif" font-size="10.00">Player/Enemy.hpp</text>
</a>
</g>
</g>
<!-- Node1&#45;&gt;Node10 -->
<g id="edge9_Node000001_Node000010" class="edge">
<title>Node1&#45;&gt;Node10</title>
<g id="a_edge9_Node000001_Node000010"><a xlink:title=" ">
<path fill="none" stroke="#63b8ff" d="M673.34,-236.96C522.53,-231.87 237.65,-217.84 207,-184 188.73,-163.82 221.63,-144.68 250.16,-132.78"/>
<polygon fill="#63b8ff" stroke="#63b8ff" points="251.58,-135.98 259.58,-129.04 249,-129.48 251.58,-135.98"/>
</a>
</g>
</g>
<!-- Node11 -->
<g id="Node000011" class="node">
<title>Node11</title>
<g id="a_Node000011"><a xlink:href="EnemySpawn_8hpp.html" target="_top" xlink:title=" ">
<polygon fill="white" stroke="#666666" points="353.5,-184 216.5,-184 216.5,-165 353.5,-165 353.5,-184"/>
<text text-anchor="middle" x="285" y="-172" font-family="Helvetica,sans-Serif" font-size="10.00">Player/EnemySpawn.hpp</text>
</a>
</g>
</g>
<!-- Node1&#45;&gt;Node11 -->
<g id="edge11_Node000001_Node000011" class="edge">
<title>Node1&#45;&gt;Node11</title>
<g id="a_edge11_Node000001_Node000011"><a xlink:title=" ">
<path fill="none" stroke="#63b8ff" d="M673.26,-227.16C581.71,-214.98 443.51,-196.59 359.05,-185.35"/>
<polygon fill="#63b8ff" stroke="#63b8ff" points="359.4,-181.87 349.03,-184.02 358.48,-188.81 359.4,-181.87"/>
</a>
</g>
</g>
<!-- Node12 -->
<g id="Node000012" class="node">
<title>Node12</title>
<g id="a_Node000012"><a xlink:href="PlayerEntity_8hpp.html" target="_top" xlink:title=" ">
<polygon fill="white" stroke="#666666" points="961.5,-184 832.5,-184 832.5,-165 961.5,-165 961.5,-184"/>
<text text-anchor="middle" x="897" y="-172" font-family="Helvetica,sans-Serif" font-size="10.00">Player/PlayerEntity.hpp</text>
</a>
</g>
</g>
<!-- Node1&#45;&gt;Node12 -->
<g id="edge15_Node000001_Node000012" class="edge">
<title>Node1&#45;&gt;Node12</title>
<g id="a_edge15_Node000001_Node000012"><a xlink:title=" ">
<path fill="none" stroke="#63b8ff" d="M806.02,-219.95C826.9,-209.75 851.89,-197.54 870.39,-188.5"/>
<polygon fill="#63b8ff" stroke="#63b8ff" points="871.96,-191.63 879.41,-184.09 868.89,-185.34 871.96,-191.63"/>
</a>
</g>
</g>
<!-- Node16 -->
<g id="Node000016" class="node">
<title>Node16</title>
<g id="a_Node000016"><a xlink:href="Projectile_8hpp.html" target="_top" xlink:title=" ">
<polygon fill="white" stroke="#666666" points="925,-74 745,-74 745,-55 925,-55 925,-74"/>
<text text-anchor="middle" x="835" y="-62" font-family="Helvetica,sans-Serif" font-size="10.00">components/Player/Projectile.hpp</text>
</a>
</g>
</g>
<!-- Node1&#45;&gt;Node16 -->
<g id="edge23_Node000001_Node000016" class="edge">
<title>Node1&#45;&gt;Node16</title>
<g id="a_edge23_Node000001_Node000016"><a xlink:title=" ">
<path fill="none" stroke="#63b8ff" d="M764.14,-219.73C762.54,-193.11 762.97,-145.03 782,-110 788.63,-97.79 800.08,-87.53 810.65,-79.96"/>
<polygon fill="#63b8ff" stroke="#63b8ff" points="812.83,-82.71 819.19,-74.23 808.94,-76.89 812.83,-82.71"/>
</a>
</g>
</g>
<!-- Node17 -->
<g id="Node000017" class="node">
<title>Node17</title>
<g id="a_Node000017"><a xlink:href="BossPart_8hpp.html" target="_top" xlink:title=" ">
<polygon fill="white" stroke="#666666" points="1062.5,-129 919.5,-129 919.5,-110 1062.5,-110 1062.5,-129"/>
<text text-anchor="middle" x="991" y="-117" font-family="Helvetica,sans-Serif" font-size="10.00">components/BossPart.hpp</text>
</a>
</g>
</g>
<!-- Node1&#45;&gt;Node17 -->
<g id="edge24_Node000001_Node000017" class="edge">
<title>Node1&#45;&gt;Node17</title>
<g id="a_edge24_Node000001_Node000017"><a xlink:title=" ">
<path fill="none" stroke="#63b8ff" d="M776.46,-219.75C786.46,-202.75 803.09,-178.85 824,-165 849.4,-148.18 880.92,-137.7 909.71,-131.18"/>
<polygon fill="#63b8ff" stroke="#63b8ff" points="910.72,-134.55 919.77,-129.04 909.26,-127.7 910.72,-134.55"/>
</a>
</g>
</g>
<!-- Node18 -->
<g id="Node000018" class="node">
<title>Node18</title>
<g id="a_Node000018"><a xlink:href="Force_8hpp.html" target="_top" xlink:title=" ">
<polygon fill="white" stroke="#666666" points="1518.5,-129 1391.5,-129 1391.5,-110 1518.5,-110 1518.5,-129"/>
<text text-anchor="middle" x="1455" y="-117" font-family="Helvetica,sans-Serif" font-size="10.00">components/Force.hpp</text>
</a>
</g>
</g>
<!-- Node1&#45;&gt;Node18 -->
<g id="edge27_Node000001_Node000018" class="edge">
<title>Node1&#45;&gt;Node18</title>
<g id="a_edge27_Node000001_Node000018"><a xlink:title=" ">
<path fill="none" stroke="#63b8ff" d="M849.67,-219.91C887.18,-210.35 931.72,-197.9 971,-184 990.7,-177.03 993.79,-170.31 1014,-165 1169.84,-124.08 1216.77,-145.62 1381.33,-129.02"/>
<polygon fill="#63b8ff" stroke="#63b8ff" points="1381.72,-132.5 1391.31,-127.99 1381,-125.54 1381.72,-132.5"/>
</a>
</g>
</g>
<!-- Node19 -->
<g id="Node000019" class="node">
<title>Node19</title>
<g id="a_Node000019"><a xlink:href="Levels_8hpp.html" target="_top" xlink:title=" ">
<polygon fill="white" stroke="#666666" points="700,-184 568,-184 568,-165 700,-165 700,-184"/>
<text text-anchor="middle" x="634" y="-172" font-family="Helvetica,sans-Serif" font-size="10.00">components/Levels.hpp</text>
</a>
</g>
</g>
<!-- Node1&#45;&gt;Node19 -->
<g id="edge30_Node000001_Node000019" class="edge">
<title>Node1&#45;&gt;Node19</title>
<g id="a_edge30_Node000001_Node000019"><a xlink:title=" ">
<path fill="none" stroke="#63b8ff" d="M725.68,-219.95C704.63,-209.75 679.46,-197.54 660.82,-188.5"/>
<polygon fill="#63b8ff" stroke="#63b8ff" points="662.25,-185.31 651.72,-184.09 659.19,-191.6 662.25,-185.31"/>
</a>
</g>
</g>
<!-- Node21 -->
<g id="Node000021" class="node">
<title>Node21</title>
<g id="a_Node000021"><a xlink:href="TileMap_8hpp.html" target="_top" xlink:title=" ">
<polygon fill="white" stroke="#666666" points="550,-184 410,-184 410,-165 550,-165 550,-184"/>
<text text-anchor="middle" x="480" y="-172" font-family="Helvetica,sans-Serif" font-size="10.00">components/TileMap.hpp</text>
</a>
</g>
</g>
<!-- Node1&#45;&gt;Node21 -->
<g id="edge36_Node000001_Node000021" class="edge">
<title>Node1&#45;&gt;Node21</title>
<g id="a_edge36_Node000001_Node000021"><a xlink:title=" ">
<path fill="none" stroke="#63b8ff" d="M678.64,-219.95C629.12,-208.87 569.05,-195.43 528.02,-186.25"/>
<polygon fill="#63b8ff" stroke="#63b8ff" points="528.54,-182.78 518.02,-184.01 527.01,-189.61 528.54,-182.78"/>
</a>
</g>
</g>
<!-- Node23 -->
<g id="Node000023" class="node">
<title>Node23</title>
<g id="a_Node000023"><a xlink:title=" ">
<polygon fill="#e0e0e0" stroke="#999999" points="1280,-184 1184,-184 1184,-165 1280,-165 1280,-184"/>
<text text-anchor="middle" x="1232" y="-172" font-family="Helvetica,sans-Serif" font-size="10.00">ecs/Registry.hpp</text>
</a>
</g>
</g>
<!-- Node1&#45;&gt;Node23 -->
<g id="edge40_Node000001_Node000023" class="edge">
<title>Node1&#45;&gt;Node23</title>
<g id="a_edge40_Node000001_Node000023"><a xlink:title=" ">
<path fill="none" stroke="#63b8ff" d="M858.64,-227.28C939.22,-216.57 1059.42,-200.4 1173.82,-184.15"/>
<polygon fill="#63b8ff" stroke="#63b8ff" points="1174.4,-187.61 1183.8,-182.73 1173.41,-180.68 1174.4,-187.61"/>
</a>
</g>
</g>
<!-- Node24 -->
<g id="Node000024" class="node">
<title>Node24</title>
<g id="a_Node000024"><a xlink:title=" ">
<polygon fill="#e0e0e0" stroke="#999999" points="1442,-184 1298,-184 1298,-165 1442,-165 1442,-184"/>
<text text-anchor="middle" x="1370" y="-172" font-family="Helvetica,sans-Serif" font-size="10.00">input/InputSubsystem.hpp</text>
</a>
</g>
</g>
<!-- Node1&#45;&gt;Node24 -->
<g id="edge41_Node000001_Node000024" class="edge">
<title>Node1&#45;&gt;Node24</title>
<g id="a_edge41_Node000001_Node000024"><a xlink:title=" ">
<path fill="none" stroke="#63b8ff" d="M858.72,-229.68C975.77,-217.27 1175.33,-196.13 1287.38,-184.25"/>
<polygon fill="#63b8ff" stroke="#63b8ff" points="1288.04,-187.7 1297.61,-183.17 1287.3,-180.74 1288.04,-187.7"/>
</a>
</g>
</g>
<!-- Node25 -->
<g id="Node000025" class="node">
<title>Node25</title>
<g id="a_Node000025"><a xlink:title=" ">
<polygon fill="#e0e0e0" stroke="#999999" points="1651.5,-184 1460.5,-184 1460.5,-165 1651.5,-165 1651.5,-184"/>
<text text-anchor="middle" x="1556" y="-172" font-family="Helvetica,sans-Serif" font-size="10.00">rendering/RenderingSubsystem.hpp</text>
</a>
</g>
</g>
<!-- Node1&#45;&gt;Node25 -->
<g id="edge43_Node000001_Node000025" class="edge">
<title>Node1&#45;&gt;Node25</title>
<g id="a_edge43_Node000001_Node000025"><a xlink:title=" ">
<path fill="none" stroke="#63b8ff" d="M858.56,-232C1006.27,-220.03 1294.49,-196.69 1450.16,-184.07"/>
<polygon fill="#63b8ff" stroke="#63b8ff" points="1450.54,-187.56 1460.22,-183.26 1449.97,-180.58 1450.54,-187.56"/>
</a>
</g>
</g>
<!-- Node26 -->
<g id="Node000026" class="node">
<title>Node26</title>
<g id="a_Node000026"><a xlink:title=" ">
<polygon fill="#e0e0e0" stroke="#999999" points="1722.5,-184 1669.5,-184 1669.5,-165 1722.5,-165 1722.5,-184"/>
<text text-anchor="middle" x="1696" y="-172" font-family="Helvetica,sans-Serif" font-size="10.00">stdlib.h</text>
</a>
</g>
</g>
<!-- Node1&#45;&gt;Node26 -->
<g id="edge44_Node000001_Node000026" class="edge">
<title>Node1&#45;&gt;Node26</title>
<g id="a_edge44_Node000001_Node000026"><a xlink:title=" ">
<path fill="none" stroke="#63b8ff" d="M858.69,-239.12C1019.98,-237.28 1362.65,-228.15 1659.25,-184"/>
<polygon fill="#63b8ff" stroke="#63b8ff" points="1659.98,-187.44 1669.34,-182.49 1658.93,-180.51 1659.98,-187.44"/>
</a>
</g>
</g>
<!-- Node7&#45;&gt;Node8 -->
<g id="edge7_Node000007_Node000008" class="edge">
<title>Node7&#45;&gt;Node8</title>
<g id="a_edge7_Node000007_Node000008"><a xlink:title=" ">
<path fill="none" stroke="#63b8ff" d="M691.93,-109.58C699.73,-96.17 716.1,-70.7 736,-55 754.1,-40.72 777.51,-29.93 797.02,-22.55"/>
<polygon fill="#63b8ff" stroke="#63b8ff" points="798.32,-25.8 806.53,-19.1 795.93,-19.22 798.32,-25.8"/>
</a>
</g>
</g>
<!-- Node9 -->
<g id="Node000009" class="node">
<title>Node9</title>
<g id="a_Node000009"><a xlink:title=" ">
<polygon fill="#e0e0e0" stroke="#999999" points="1161,-74 1077,-74 1077,-55 1161,-55 1161,-74"/>
<text text-anchor="middle" x="1119" y="-62" font-family="Helvetica,sans-Serif" font-size="10.00">ecs/Entity.hpp</text>
</a>
</g>
</g>
<!-- Node7&#45;&gt;Node9 -->
<g id="edge8_Node000007_Node000009" class="edge">
<title>Node7&#45;&gt;Node9</title>
<g id="a_edge8_Node000007_Node000009"><a xlink:title=" ">
<path fill="none" stroke="#63b8ff" d="M734.88,-112.63C816.49,-102.61 981.91,-82.32 1066.54,-71.94"/>
<polygon fill="#63b8ff" stroke="#63b8ff" points="1067.2,-75.38 1076.7,-70.69 1066.34,-68.43 1067.2,-75.38"/>
</a>
</g>
</g>
<!-- Node10&#45;&gt;Node8 -->
<g id="edge10_Node000010_Node000008" class="edge">
<title>Node10&#45;&gt;Node8</title>
<g id="a_edge10_Node000010_Node000008"><a xlink:title=" ">
<path fill="none" stroke="#63b8ff" d="M307.43,-109.9C344.05,-96.21 419.18,-69.51 485,-55 578.93,-34.3 689.31,-22.25 760.63,-16.03"/>
<polygon fill="#63b8ff" stroke="#63b8ff" points="761.19,-19.49 770.86,-15.15 760.6,-12.52 761.19,-19.49"/>
</a>
</g>
</g>
<!-- Node11&#45;&gt;Node4 -->
<g id="edge12_Node000011_Node000004" class="edge">
<title>Node11&#45;&gt;Node4</title>
<g id="a_edge12_Node000011_Node000004"><a xlink:title=" ">
<path fill="none" stroke="#63b8ff" d="M266.68,-164.98C248.34,-156.46 219.89,-143.23 198.77,-133.41"/>
<polygon fill="#63b8ff" stroke="#63b8ff" points="200.19,-130.21 189.65,-129.17 197.24,-136.56 200.19,-130.21"/>
</a>
</g>
</g>
<!-- Node11&#45;&gt;Node5 -->
<g id="edge13_Node000011_Node000005" class="edge">
<title>Node11&#45;&gt;Node5</title>
<g id="a_edge13_Node000011_Node000005"><a xlink:title=" ">
<path fill="none" stroke="#63b8ff" d="M300.1,-164.98C314.82,-156.69 337.42,-143.94 354.67,-134.22"/>
<polygon fill="#63b8ff" stroke="#63b8ff" points="356.63,-137.13 363.62,-129.17 353.19,-131.03 356.63,-137.13"/>
</a>
</g>
</g>
<!-- Node11&#45;&gt;Node10 -->
<g id="edge14_Node000011_Node000010" class="edge">
<title>Node11&#45;&gt;Node10</title>
<g id="a_edge14_Node000011_Node000010"><a xlink:title=" ">
<path fill="none" stroke="#63b8ff" d="M285,-164.75C285,-157.8 285,-147.85 285,-139.13"/>
<polygon fill="#63b8ff" stroke="#63b8ff" points="288.5,-139.09 285,-129.09 281.5,-139.09 288.5,-139.09"/>
</a>
</g>
</g>
<!-- Node12&#45;&gt;Node8 -->
<g id="edge22_Node000012_Node000008" class="edge">
<title>Node12&#45;&gt;Node8</title>
<g id="a_edge22_Node000012_Node000008"><a xlink:title=" ">
<path fill="none" stroke="#63b8ff" d="M961.8,-165.63C1066.64,-152.9 1261.85,-129.17 1262,-129 1267.6,-122.68 1266.17,-117.35 1262,-110 1238.5,-68.56 1214.98,-70.68 1170,-55 1083.84,-24.96 978.74,-15 909.5,-11.8"/>
<polygon fill="#63b8ff" stroke="#63b8ff" points="909.27,-8.29 899.13,-11.36 908.97,-15.28 909.27,-8.29"/>
</a>
</g>
</g>
<!-- Node13 -->
<g id="Node000013" class="node">
<title>Node13</title>
<g id="a_Node000013"><a xlink:title=" ">
<polygon fill="#e0e0e0" stroke="#999999" points="1373,-129 1309,-129 1309,-110 1373,-110 1373,-129"/>
<text text-anchor="middle" x="1341" y="-117" font-family="Helvetica,sans-Serif" font-size="10.00">algorithm</text>
</a>
</g>
</g>
<!-- Node12&#45;&gt;Node13 -->
<g id="edge16_Node000012_Node000013" class="edge">
<title>Node12&#45;&gt;Node13</title>
<g id="a_edge16_Node000012_Node000013"><a xlink:title=" ">
<path fill="none" stroke="#63b8ff" d="M961.57,-166.54C1065.83,-155.25 1262.89,-133.76 1295,-129 1296.27,-128.81 1297.55,-128.62 1298.84,-128.41"/>
<polygon fill="#63b8ff" stroke="#63b8ff" points="1299.59,-131.84 1308.88,-126.74 1298.44,-124.93 1299.59,-131.84"/>
</a>
</g>
</g>
<!-- Node14 -->
<g id="Node000014" class="node">
<title>Node14</title>
<g id="a_Node000014"><a xlink:href="CollisionController_8hpp.html" target="_top" xlink:title=" ">
<polygon fill="white" stroke="#666666" points="1253,-129 1081,-129 1081,-110 1253,-110 1253,-129"/>
<text text-anchor="middle" x="1167" y="-117" font-family="Helvetica,sans-Serif" font-size="10.00">Collision/CollisionController.hpp</text>
</a>
</g>
</g>
<!-- Node12&#45;&gt;Node14 -->
<g id="edge17_Node000012_Node000014" class="edge">
<title>Node12&#45;&gt;Node14</title>
<g id="a_edge17_Node000012_Node000014"><a xlink:title=" ">
<path fill="none" stroke="#63b8ff" d="M940.38,-164.98C987.38,-155.76 1062.43,-141.03 1113.16,-131.07"/>
<polygon fill="#63b8ff" stroke="#63b8ff" points="1114.14,-134.44 1123.28,-129.08 1112.79,-127.57 1114.14,-134.44"/>
</a>
</g>
</g>
<!-- Node15 -->
<g id="Node000015" class="node">
<title>Node15</title>
<g id="a_Node000015"><a xlink:href="Weapon_8hpp.html" target="_top" xlink:title=" ">
<polygon fill="white" stroke="#666666" points="901,-129 791,-129 791,-110 901,-110 901,-129"/>
<text text-anchor="middle" x="846" y="-117" font-family="Helvetica,sans-Serif" font-size="10.00">Player/Weapon.hpp</text>
</a>
</g>
</g>
<!-- Node12&#45;&gt;Node15 -->
<g id="edge19_Node000012_Node000015" class="edge">
<title>Node12&#45;&gt;Node15</title>
<g id="a_edge19_Node000012_Node000015"><a xlink:title=" ">
<path fill="none" stroke="#63b8ff" d="M888.58,-164.75C881.23,-157.11 870.37,-145.82 861.46,-136.56"/>
<polygon fill="#63b8ff" stroke="#63b8ff" points="863.72,-133.87 854.26,-129.09 858.68,-138.72 863.72,-133.87"/>
</a>
</g>
</g>
<!-- Node14&#45;&gt;Node9 -->
<g id="edge18_Node000014_Node000009" class="edge">
<title>Node14&#45;&gt;Node9</title>
<g id="a_edge18_Node000014_Node000009"><a xlink:title=" ">
<path fill="none" stroke="#63b8ff" d="M1159.07,-109.75C1152.15,-102.11 1141.93,-90.82 1133.55,-81.56"/>
<polygon fill="#63b8ff" stroke="#63b8ff" points="1136.09,-79.15 1126.78,-74.09 1130.9,-83.85 1136.09,-79.15"/>
</a>
</g>
</g>
<!-- Node15&#45;&gt;Node16 -->
<g id="edge20_Node000015_Node000016" class="edge">
<title>Node15&#45;&gt;Node16</title>
<g id="a_edge20_Node000015_Node000016"><a xlink:title=" ">
<path fill="none" stroke="#63b8ff" d="M844.18,-109.75C842.74,-102.8 840.68,-92.85 838.87,-84.13"/>
<polygon fill="#63b8ff" stroke="#63b8ff" points="842.24,-83.17 836.78,-74.09 835.39,-84.59 842.24,-83.17"/>
</a>
</g>
</g>
<!-- Node16&#45;&gt;Node8 -->
<g id="edge21_Node000016_Node000008" class="edge">
<title>Node16&#45;&gt;Node8</title>
<g id="a_edge21_Node000016_Node000008"><a xlink:title=" ">
<path fill="none" stroke="#63b8ff" d="M835,-54.75C835,-47.8 835,-37.85 835,-29.13"/>
<polygon fill="#63b8ff" stroke="#63b8ff" points="838.5,-29.09 835,-19.09 831.5,-29.09 838.5,-29.09"/>
</a>
</g>
</g>
<!-- Node17&#45;&gt;Node8 -->
<g id="edge25_Node000017_Node000008" class="edge">
<title>Node17&#45;&gt;Node8</title>
<g id="a_edge25_Node000017_Node000008"><a xlink:title=" ">
<path fill="none" stroke="#63b8ff" d="M984.92,-109.64C975.4,-96.29 955.77,-70.9 934,-55 914.99,-41.12 890.97,-30.19 871.35,-22.64"/>
<polygon fill="#63b8ff" stroke="#63b8ff" points="872.41,-19.3 861.82,-19.1 869.98,-25.86 872.41,-19.3"/>
</a>
</g>
</g>
<!-- Node17&#45;&gt;Node9 -->
<g id="edge26_Node000017_Node000009" class="edge">
<title>Node17&#45;&gt;Node9</title>
<g id="a_edge26_Node000017_Node000009"><a xlink:title=" ">
<path fill="none" stroke="#63b8ff" d="M1011.57,-109.98C1032.43,-101.34 1064.97,-87.87 1088.77,-78.02"/>
<polygon fill="#63b8ff" stroke="#63b8ff" points="1090.16,-81.23 1098.06,-74.17 1087.48,-74.76 1090.16,-81.23"/>
</a>
</g>
</g>
<!-- Node18&#45;&gt;Node8 -->
<g id="edge29_Node000018_Node000008" class="edge">
<title>Node18&#45;&gt;Node8</title>
<g id="a_edge29_Node000018_Node000008"><a xlink:title=" ">
<path fill="none" stroke="#63b8ff" d="M1437.77,-109.78C1409.01,-95.66 1349.03,-68.06 1295,-55 1161.57,-22.75 1001.03,-13.73 909.22,-11.3"/>
<polygon fill="#63b8ff" stroke="#63b8ff" points="909.27,-7.8 899.18,-11.05 909.09,-14.79 909.27,-7.8"/>
</a>
</g>
</g>
<!-- Node18&#45;&gt;Node9 -->
<g id="edge28_Node000018_Node000009" class="edge">
<title>Node18&#45;&gt;Node9</title>
<g id="a_edge28_Node000018_Node000009"><a xlink:title=" ">
<path fill="none" stroke="#63b8ff" d="M1401.02,-109.98C1337.76,-100.01 1233.66,-83.59 1171.18,-73.73"/>
<polygon fill="#63b8ff" stroke="#63b8ff" points="1171.57,-70.25 1161.15,-72.15 1170.48,-77.16 1171.57,-70.25"/>
</a>
</g>
</g>
<!-- Node19&#45;&gt;Node5 -->
<g id="edge32_Node000019_Node000005" class="edge">
<title>Node19&#45;&gt;Node5</title>
<g id="a_edge32_Node000019_Node000005"><a xlink:title=" ">
<path fill="none" stroke="#63b8ff" d="M587.5,-164.94C544.58,-156.87 478.87,-144.08 412.54,-129.02"/>
<polygon fill="#63b8ff" stroke="#63b8ff" points="413.28,-125.6 402.76,-126.78 411.72,-132.42 413.28,-125.6"/>
</a>
</g>
</g>
<!-- Node19&#45;&gt;Node7 -->
<g id="edge33_Node000019_Node000007" class="edge">
<title>Node19&#45;&gt;Node7</title>
<g id="a_edge33_Node000019_Node000007"><a xlink:title=" ">
<path fill="none" stroke="#63b8ff" d="M642.75,-164.75C650.47,-157.03 661.9,-145.6 671.22,-136.28"/>
<polygon fill="#63b8ff" stroke="#63b8ff" points="673.81,-138.64 678.41,-129.09 668.86,-133.69 673.81,-138.64"/>
</a>
</g>
</g>
<!-- Node19&#45;&gt;Node8 -->
<g id="edge35_Node000019_Node000008" class="edge">
<title>Node19&#45;&gt;Node8</title>
<g id="a_edge35_Node000019_Node000008"><a xlink:title=" ">
<path fill="none" stroke="#63b8ff" d="M607.46,-164.94C578.67,-154.18 538.94,-134.19 556,-110 601.92,-44.87 694.47,-22.13 760.38,-14.33"/>
<polygon fill="#63b8ff" stroke="#63b8ff" points="761.16,-17.76 770.72,-13.2 760.4,-10.81 761.16,-17.76"/>
</a>
</g>
</g>
<!-- Node19&#45;&gt;Node10 -->
<g id="edge34_Node000019_Node000010" class="edge">
<title>Node19&#45;&gt;Node10</title>
<g id="a_edge34_Node000019_Node000010"><a xlink:title=" ">
<path fill="none" stroke="#63b8ff" d="M577.93,-164.98C514.92,-155.42 412.91,-139.92 347.41,-129.98"/>
<polygon fill="#63b8ff" stroke="#63b8ff" points="347.64,-126.47 337.23,-128.43 346.59,-133.39 347.64,-126.47"/>
</a>
</g>
</g>
<!-- Node20 -->
<g id="Node000020" class="node">
<title>Node20</title>
<g id="a_Node000020"><a xlink:title=" ">
<polygon fill="#e0e0e0" stroke="#999999" points="621,-129 565,-129 565,-110 621,-110 621,-129"/>
<text text-anchor="middle" x="593" y="-117" font-family="Helvetica,sans-Serif" font-size="10.00">optional</text>
</a>
</g>
</g>
<!-- Node19&#45;&gt;Node20 -->
<g id="edge31_Node000019_Node000020" class="edge">
<title>Node19&#45;&gt;Node20</title>
<g id="a_edge31_Node000019_Node000020"><a xlink:title=" ">
<path fill="none" stroke="#63b8ff" d="M627.23,-164.75C621.44,-157.26 612.94,-146.28 605.86,-137.13"/>
<polygon fill="#63b8ff" stroke="#63b8ff" points="608.53,-134.86 599.64,-129.09 602.99,-139.14 608.53,-134.86"/>
</a>
</g>
</g>
<!-- Node21&#45;&gt;Node5 -->
<g id="edge38_Node000021_Node000005" class="edge">
<title>Node21&#45;&gt;Node5</title>
<g id="a_edge38_Node000021_Node000005"><a xlink:title=" ">
<path fill="none" stroke="#63b8ff" d="M463.77,-164.98C447.82,-156.61 423.22,-143.7 404.62,-133.95"/>
<polygon fill="#63b8ff" stroke="#63b8ff" points="406,-130.72 395.52,-129.17 402.75,-136.92 406,-130.72"/>
</a>
</g>
</g>
<!-- Node21&#45;&gt;Node8 -->
<g id="edge39_Node000021_Node000008" class="edge">
<title>Node21&#45;&gt;Node8</title>
<g id="a_edge39_Node000021_Node000008"><a xlink:title=" ">
<path fill="none" stroke="#63b8ff" d="M484.87,-164.88C497.97,-142.55 536.34,-82.71 586,-55 639.57,-25.11 708.81,-14.59 760.68,-11.2"/>
<polygon fill="#63b8ff" stroke="#63b8ff" points="761.03,-14.69 770.81,-10.61 760.62,-7.7 761.03,-14.69"/>
</a>
</g>
</g>
<!-- Node22 -->
<g id="Node000022" class="node">
<title>Node22</title>
<g id="a_Node000022"><a xlink:title=" ">
<polygon fill="#e0e0e0" stroke="#999999" points="471,-129 421,-129 421,-110 471,-110 471,-129"/>
<text text-anchor="middle" x="446" y="-117" font-family="Helvetica,sans-Serif" font-size="10.00">cstdint</text>
</a>
</g>
</g>
<!-- Node21&#45;&gt;Node22 -->
<g id="edge37_Node000021_Node000022" class="edge">
<title>Node21&#45;&gt;Node22</title>
<g id="a_edge37_Node000021_Node000022"><a xlink:title=" ">
<path fill="none" stroke="#63b8ff" d="M474.39,-164.75C469.68,-157.42 462.83,-146.73 457.03,-137.7"/>
<polygon fill="#63b8ff" stroke="#63b8ff" points="459.86,-135.62 451.51,-129.09 453.96,-139.4 459.86,-135.62"/>
</a>
</g>
</g>
</g>
</svg>
