<?xml version="1.0" encoding="UTF-8" standalone="no"?>
<!DOCTYPE svg PUBLIC "-//W3C//DTD SVG 1.1//EN"
 "http://www.w3.org/Graphics/SVG/1.1/DTD/svg11.dtd">
<!-- Generated by graphviz version 2.43.0 (0)
 -->
<!-- Title: /home/runner/work/R&#45;Type/R&#45;Type/Shared/systems/Helpers/EntityHelper.hpp Pages: 1 -->
<svg width="3524pt" height="203pt"
 viewBox="0.00 0.00 3523.50 203.00" xmlns="http://www.w3.org/2000/svg" xmlns:xlink="http://www.w3.org/1999/xlink">
<g id="graph0" class="graph" transform="scale(1 1) rotate(0) translate(4 199)">
<title>/home/runner/work/R&#45;Type/R&#45;Type/Shared/systems/Helpers/EntityHelper.hpp</title>
<!-- Node1 -->
<g id="Node000001" class="node">
<title>Node1</title>
<g id="a_Node000001"><a xlink:title=" ">
<polygon fill="#999999" stroke="#666666" points="1804,-195 1619,-195 1619,-154 1804,-154 1804,-195"/>
<text text-anchor="start" x="1627" y="-183" font-family="Helvetica,sans-Serif" font-size="10.00">/home/runner/work/R</text>
<text text-anchor="start" x="1627" y="-172" font-family="Helvetica,sans-Serif" font-size="10.00">&#45;Type/R&#45;Type/Shared</text>
<text text-anchor="middle" x="1711.5" y="-161" font-family="Helvetica,sans-Serif" font-size="10.00">/systems/Helpers/EntityHelper.hpp</text>
</a>
</g>
</g>
<!-- Node2 -->
<g id="Node000002" class="node">
<title>Node2</title>
<g id="a_Node000002"><a xlink:href="CreateLobby_8hpp.html" target="_top" xlink:title=" ">
<polygon fill="white" stroke="#666666" points="155,-118 0,-118 0,-77 155,-77 155,-118"/>
<text text-anchor="start" x="8" y="-106" font-family="Helvetica,sans-Serif" font-size="10.00">/home/runner/work/R</text>
<text text-anchor="start" x="8" y="-95" font-family="Helvetica,sans-Serif" font-size="10.00">&#45;Type/R&#45;Type/Client</text>
<text text-anchor="middle" x="77.5" y="-84" font-family="Helvetica,sans-Serif" font-size="10.00">/src/scenes/CreateLobby.hpp</text>
</a>
</g>
</g>
<!-- Node1&#45;&gt;Node2 -->
<g id="edge1_Node000001_Node000002" class="edge">
<title>Node1&#45;&gt;Node2</title>
<g id="a_edge1_Node000001_Node000002"><a xlink:title=" ">
<path fill="none" stroke="#63b8ff" d="M1608.6,-172.29C1309.71,-168.37 444.96,-154.15 164.5,-118 161.43,-117.6 158.31,-117.15 155.16,-116.65"/>
<polygon fill="#63b8ff" stroke="#63b8ff" points="1608.95,-175.79 1619,-172.42 1609.04,-168.79 1608.95,-175.79"/>
</a>
</g>
</g>
<!-- Node4 -->
<g id="Node000004" class="node">
<title>Node4</title>
<g id="a_Node000004"><a xlink:href="GameOver_8hpp.html" target="_top" xlink:title=" ">
<polygon fill="white" stroke="#666666" points="319.5,-118 173.5,-118 173.5,-77 319.5,-77 319.5,-118"/>
<text text-anchor="start" x="181.5" y="-106" font-family="Helvetica,sans-Serif" font-size="10.00">/home/runner/work/R</text>
<text text-anchor="start" x="181.5" y="-95" font-family="Helvetica,sans-Serif" font-size="10.00">&#45;Type/R&#45;Type/Client</text>
<text text-anchor="middle" x="246.5" y="-84" font-family="Helvetica,sans-Serif" font-size="10.00">/src/scenes/GameOver.hpp</text>
</a>
</g>
</g>
<!-- Node1&#45;&gt;Node4 -->
<g id="edge3_Node000001_Node000004" class="edge">
<title>Node1&#45;&gt;Node4</title>
<g id="a_edge3_Node000001_Node000004"><a xlink:title=" ">
<path fill="none" stroke="#63b8ff" d="M1608.72,-171.95C1332.03,-167.37 575.7,-152.03 328.5,-118 325.6,-117.6 322.65,-117.15 319.68,-116.64"/>
<polygon fill="#63b8ff" stroke="#63b8ff" points="1608.7,-175.45 1618.76,-172.12 1608.81,-168.45 1608.7,-175.45"/>
</a>
</g>
</g>
<!-- Node6 -->
<g id="Node000006" class="node">
<title>Node6</title>
<g id="a_Node000006"><a xlink:href="JoinGame_8hpp.html" target="_top" xlink:title=" ">
<polygon fill="white" stroke="#666666" points="479.5,-118 337.5,-118 337.5,-77 479.5,-77 479.5,-118"/>
<text text-anchor="start" x="345.5" y="-106" font-family="Helvetica,sans-Serif" font-size="10.00">/home/runner/work/R</text>
<text text-anchor="start" x="345.5" y="-95" font-family="Helvetica,sans-Serif" font-size="10.00">&#45;Type/R&#45;Type/Client</text>
<text text-anchor="middle" x="408.5" y="-84" font-family="Helvetica,sans-Serif" font-size="10.00">/src/scenes/JoinGame.hpp</text>
</a>
</g>
</g>
<!-- Node1&#45;&gt;Node6 -->
<g id="edge5_Node000001_Node000006" class="edge">
<title>Node1&#45;&gt;Node6</title>
<g id="a_edge5_Node000001_Node000006"><a xlink:title=" ">
<path fill="none" stroke="#63b8ff" d="M1608.28,-171.39C1354.17,-165.78 703.42,-148.77 488.5,-118 485.67,-117.59 482.79,-117.13 479.9,-116.63"/>
<polygon fill="#63b8ff" stroke="#63b8ff" points="1608.54,-174.89 1618.61,-171.62 1608.69,-167.9 1608.54,-174.89"/>
</a>
</g>
</g>
<!-- Node8 -->
<g id="Node000008" class="node">
<title>Node8</title>
<g id="a_Node000008"><a xlink:href="LevelScene_8hpp.html" target="_top" xlink:title=" ">
<polygon fill="white" stroke="#666666" points="647.5,-118 497.5,-118 497.5,-77 647.5,-77 647.5,-118"/>
<text text-anchor="start" x="505.5" y="-106" font-family="Helvetica,sans-Serif" font-size="10.00">/home/runner/work/R</text>
<text text-anchor="start" x="505.5" y="-95" font-family="Helvetica,sans-Serif" font-size="10.00">&#45;Type/R&#45;Type/Client</text>
<text text-anchor="middle" x="572.5" y="-84" font-family="Helvetica,sans-Serif" font-size="10.00">/src/scenes/LevelScene.hpp</text>
</a>
</g>
</g>
<!-- Node1&#45;&gt;Node8 -->
<g id="edge7_Node000001_Node000008" class="edge">
<title>Node1&#45;&gt;Node8</title>
<g id="a_edge7_Node000001_Node000008"><a xlink:title=" ">
<path fill="none" stroke="#63b8ff" d="M1608.68,-174.06C1419.32,-173.77 1003.13,-166.96 656.5,-118 653.68,-117.6 650.82,-117.16 647.94,-116.67"/>
<polygon fill="#63b8ff" stroke="#63b8ff" points="1608.89,-177.56 1618.9,-174.07 1608.9,-170.56 1608.89,-177.56"/>
</a>
</g>
</g>
<!-- Node10 -->
<g id="Node000010" class="node">
<title>Node10</title>
<g id="a_Node000010"><a xlink:href="Lobby_8hpp.html" target="_top" xlink:title=" ">
<polygon fill="white" stroke="#666666" points="787.5,-118 665.5,-118 665.5,-77 787.5,-77 787.5,-118"/>
<text text-anchor="start" x="673.5" y="-106" font-family="Helvetica,sans-Serif" font-size="10.00">/home/runner/work/R</text>
<text text-anchor="start" x="673.5" y="-95" font-family="Helvetica,sans-Serif" font-size="10.00">&#45;Type/R&#45;Type/Client</text>
<text text-anchor="middle" x="726.5" y="-84" font-family="Helvetica,sans-Serif" font-size="10.00">/src/scenes/Lobby.hpp</text>
</a>
</g>
</g>
<!-- Node1&#45;&gt;Node10 -->
<g id="edge9_Node000001_Node000010" class="edge">
<title>Node1&#45;&gt;Node10</title>
<g id="a_edge9_Node000001_Node000010"><a xlink:title=" ">
<path fill="none" stroke="#63b8ff" d="M1608.69,-174.3C1438.53,-174.06 1088.17,-166.91 796.5,-118 793.64,-117.52 790.73,-116.97 787.79,-116.36"/>
<polygon fill="#63b8ff" stroke="#63b8ff" points="1608.89,-177.8 1618.89,-174.31 1608.89,-170.8 1608.89,-177.8"/>
</a>
</g>
</g>
<!-- Node12 -->
<g id="Node000012" class="node">
<title>Node12</title>
<g id="a_Node000012"><a xlink:href="LobbyInfo_8hpp.html" target="_top" xlink:title=" ">
<polygon fill="white" stroke="#666666" points="949,-118 806,-118 806,-77 949,-77 949,-118"/>
<text text-anchor="start" x="814" y="-106" font-family="Helvetica,sans-Serif" font-size="10.00">/home/runner/work/R</text>
<text text-anchor="start" x="814" y="-95" font-family="Helvetica,sans-Serif" font-size="10.00">&#45;Type/R&#45;Type/Client</text>
<text text-anchor="middle" x="877.5" y="-84" font-family="Helvetica,sans-Serif" font-size="10.00">/src/scenes/LobbyInfo.hpp</text>
</a>
</g>
</g>
<!-- Node1&#45;&gt;Node12 -->
<g id="edge11_Node000001_Node000012" class="edge">
<title>Node1&#45;&gt;Node12</title>
<g id="a_edge11_Node000001_Node000012"><a xlink:title=" ">
<path fill="none" stroke="#63b8ff" d="M1608.54,-171.21C1462.96,-166.77 1189.01,-154 958.5,-118 955.5,-117.53 952.45,-117.01 949.37,-116.44"/>
<polygon fill="#63b8ff" stroke="#63b8ff" points="1608.69,-174.71 1618.79,-171.51 1608.9,-167.72 1608.69,-174.71"/>
</a>
</g>
</g>
<!-- Node14 -->
<g id="Node000014" class="node">
<title>Node14</title>
<g id="a_Node000014"><a xlink:href="LobbyJoin_8hpp.html" target="_top" xlink:title=" ">
<polygon fill="white" stroke="#666666" points="1109.5,-118 967.5,-118 967.5,-77 1109.5,-77 1109.5,-118"/>
<text text-anchor="start" x="975.5" y="-106" font-family="Helvetica,sans-Serif" font-size="10.00">/home/runner/work/R</text>
<text text-anchor="start" x="975.5" y="-95" font-family="Helvetica,sans-Serif" font-size="10.00">&#45;Type/R&#45;Type/Client</text>
<text text-anchor="middle" x="1038.5" y="-84" font-family="Helvetica,sans-Serif" font-size="10.00">/src/scenes/LobbyJoin.hpp</text>
</a>
</g>
</g>
<!-- Node1&#45;&gt;Node14 -->
<g id="edge13_Node000001_Node000014" class="edge">
<title>Node1&#45;&gt;Node14</title>
<g id="a_edge13_Node000001_Node000014"><a xlink:title=" ">
<path fill="none" stroke="#63b8ff" d="M1608.6,-168.43C1489.87,-161.53 1289.06,-146.61 1118.5,-118 1115.68,-117.53 1112.81,-117.01 1109.92,-116.46"/>
<polygon fill="#63b8ff" stroke="#63b8ff" points="1608.59,-171.93 1618.77,-169.01 1608.99,-164.95 1608.59,-171.93"/>
</a>
</g>
</g>
<!-- Node16 -->
<g id="Node000016" class="node">
<title>Node16</title>
<g id="a_Node000016"><a xlink:href="LobbyPassword_8hpp.html" target="_top" xlink:title=" ">
<polygon fill="white" stroke="#666666" points="1297.5,-118 1127.5,-118 1127.5,-77 1297.5,-77 1297.5,-118"/>
<text text-anchor="start" x="1135.5" y="-106" font-family="Helvetica,sans-Serif" font-size="10.00">/home/runner/work/R</text>
<text text-anchor="start" x="1135.5" y="-95" font-family="Helvetica,sans-Serif" font-size="10.00">&#45;Type/R&#45;Type/Client</text>
<text text-anchor="middle" x="1212.5" y="-84" font-family="Helvetica,sans-Serif" font-size="10.00">/src/scenes/LobbyPassword.hpp</text>
</a>
</g>
</g>
<!-- Node1&#45;&gt;Node16 -->
<g id="edge15_Node000001_Node000016" class="edge">
<title>Node1&#45;&gt;Node16</title>
<g id="a_edge15_Node000001_Node000016"><a xlink:title=" ">
<path fill="none" stroke="#63b8ff" d="M1608.66,-161.38C1526.62,-151.23 1408.89,-135.61 1306.5,-118 1303.54,-117.49 1300.54,-116.96 1297.5,-116.41"/>
<polygon fill="#63b8ff" stroke="#63b8ff" points="1608.38,-164.87 1618.73,-162.62 1609.24,-157.92 1608.38,-164.87"/>
</a>
</g>
</g>
<!-- Node18 -->
<g id="Node000018" class="node">
<title>Node18</title>
<g id="a_Node000018"><a xlink:href="MainGame_8hpp.html" target="_top" xlink:title=" ">
<polygon fill="white" stroke="#666666" points="1463.5,-118 1315.5,-118 1315.5,-77 1463.5,-77 1463.5,-118"/>
<text text-anchor="start" x="1323.5" y="-106" font-family="Helvetica,sans-Serif" font-size="10.00">/home/runner/work/R</text>
<text text-anchor="start" x="1323.5" y="-95" font-family="Helvetica,sans-Serif" font-size="10.00">&#45;Type/R&#45;Type/Client</text>
<text text-anchor="middle" x="1389.5" y="-84" font-family="Helvetica,sans-Serif" font-size="10.00">/src/scenes/MainGame.hpp</text>
</a>
</g>
</g>
<!-- Node1&#45;&gt;Node18 -->
<g id="edge17_Node000001_Node000018" class="edge">
<title>Node1&#45;&gt;Node18</title>
<g id="a_edge17_Node000001_Node000018"><a xlink:title=" ">
<path fill="none" stroke="#63b8ff" d="M1617.33,-151.69C1573.32,-141.48 1520.22,-129.15 1472.5,-118 1469.62,-117.33 1466.68,-116.64 1463.71,-115.94"/>
<polygon fill="#63b8ff" stroke="#63b8ff" points="1616.62,-155.12 1627.15,-153.97 1618.2,-148.3 1616.62,-155.12"/>
</a>
</g>
</g>
<!-- Node20 -->
<g id="Node000020" class="node">
<title>Node20</title>
<g id="a_Node000020"><a xlink:href="MainMenu_8hpp.html" target="_top" xlink:title=" ">
<polygon fill="white" stroke="#666666" points="1627.5,-118 1481.5,-118 1481.5,-77 1627.5,-77 1627.5,-118"/>
<text text-anchor="start" x="1489.5" y="-106" font-family="Helvetica,sans-Serif" font-size="10.00">/home/runner/work/R</text>
<text text-anchor="start" x="1489.5" y="-95" font-family="Helvetica,sans-Serif" font-size="10.00">&#45;Type/R&#45;Type/Client</text>
<text text-anchor="middle" x="1554.5" y="-84" font-family="Helvetica,sans-Serif" font-size="10.00">/src/scenes/MainMenu.hpp</text>
</a>
</g>
</g>
<!-- Node1&#45;&gt;Node20 -->
<g id="edge19_Node000001_Node000020" class="edge">
<title>Node1&#45;&gt;Node20</title>
<g id="a_edge19_Node000001_Node000020"><a xlink:title=" ">
<path fill="none" stroke="#63b8ff" d="M1661.44,-149.59C1640.13,-139.41 1615.6,-127.69 1595.41,-118.04"/>
<polygon fill="#63b8ff" stroke="#63b8ff" points="1660.13,-152.84 1670.66,-153.99 1663.15,-146.52 1660.13,-152.84"/>
</a>
</g>
</g>
<!-- Node22 -->
<g id="Node000022" class="node">
<title>Node22</title>
<g id="a_Node000022"><a xlink:href="Options_8hpp.html" target="_top" xlink:title=" ">
<polygon fill="white" stroke="#666666" points="1777.5,-118 1645.5,-118 1645.5,-77 1777.5,-77 1777.5,-118"/>
<text text-anchor="start" x="1653.5" y="-106" font-family="Helvetica,sans-Serif" font-size="10.00">/home/runner/work/R</text>
<text text-anchor="start" x="1653.5" y="-95" font-family="Helvetica,sans-Serif" font-size="10.00">&#45;Type/R&#45;Type/Client</text>
<text text-anchor="middle" x="1711.5" y="-84" font-family="Helvetica,sans-Serif" font-size="10.00">/src/scenes/Options.hpp</text>
</a>
</g>
</g>
<!-- Node1&#45;&gt;Node22 -->
<g id="edge21_Node000001_Node000022" class="edge">
<title>Node1&#45;&gt;Node22</title>
<g id="a_edge21_Node000001_Node000022"><a xlink:title=" ">
<path fill="none" stroke="#63b8ff" d="M1711.5,-143.69C1711.5,-135.08 1711.5,-125.9 1711.5,-118.07"/>
<polygon fill="#63b8ff" stroke="#63b8ff" points="1708,-143.79 1711.5,-153.79 1715,-143.79 1708,-143.79"/>
</a>
</g>
</g>
<!-- Node24 -->
<g id="Node000024" class="node">
<title>Node24</title>
<g id="a_Node000024"><a xlink:href="RtypeScene_8hpp.html" target="_top" xlink:title=" ">
<polygon fill="white" stroke="#666666" points="1947.5,-118 1795.5,-118 1795.5,-77 1947.5,-77 1947.5,-118"/>
<text text-anchor="start" x="1803.5" y="-106" font-family="Helvetica,sans-Serif" font-size="10.00">/home/runner/work/R</text>
<text text-anchor="start" x="1803.5" y="-95" font-family="Helvetica,sans-Serif" font-size="10.00">&#45;Type/R&#45;Type/Client</text>
<text text-anchor="middle" x="1871.5" y="-84" font-family="Helvetica,sans-Serif" font-size="10.00">/src/scenes/RtypeScene.hpp</text>
</a>
</g>
</g>
<!-- Node1&#45;&gt;Node24 -->
<g id="edge23_Node000001_Node000024" class="edge">
<title>Node1&#45;&gt;Node24</title>
<g id="a_edge23_Node000001_Node000024"><a xlink:title=" ">
<path fill="none" stroke="#63b8ff" d="M1762.23,-149.72C1784,-139.51 1809.14,-127.73 1829.81,-118.04"/>
<polygon fill="#63b8ff" stroke="#63b8ff" points="1760.69,-146.58 1753.12,-153.99 1763.66,-152.92 1760.69,-146.58"/>
</a>
</g>
</g>
<!-- Node26 -->
<g id="Node000026" class="node">
<title>Node26</title>
<g id="a_Node000026"><a xlink:href="SecondGameClient_8hpp.html" target="_top" xlink:title=" ">
<polygon fill="white" stroke="#666666" points="2153.5,-118 1965.5,-118 1965.5,-77 2153.5,-77 2153.5,-118"/>
<text text-anchor="start" x="1973.5" y="-106" font-family="Helvetica,sans-Serif" font-size="10.00">/home/runner/work/R</text>
<text text-anchor="start" x="1973.5" y="-95" font-family="Helvetica,sans-Serif" font-size="10.00">&#45;Type/R&#45;Type/Client</text>
<text text-anchor="middle" x="2059.5" y="-84" font-family="Helvetica,sans-Serif" font-size="10.00">/src/scenes/SecondGameClient.hpp</text>
</a>
</g>
</g>
<!-- Node1&#45;&gt;Node26 -->
<g id="edge25_Node000001_Node000026" class="edge">
<title>Node1&#45;&gt;Node26</title>
<g id="a_edge25_Node000001_Node000026"><a xlink:title=" ">
<path fill="none" stroke="#63b8ff" d="M1812.11,-151.82C1861.58,-141.15 1920.76,-128.4 1968.82,-118.04"/>
<polygon fill="#63b8ff" stroke="#63b8ff" points="1811.06,-148.46 1802.02,-153.99 1812.54,-155.3 1811.06,-148.46"/>
</a>
</g>
</g>
<!-- Node28 -->
<g id="Node000028" class="node">
<title>Node28</title>
<g id="a_Node000028"><a xlink:href="Victory_8hpp.html" target="_top" xlink:title=" ">
<polygon fill="white" stroke="#666666" points="2299.5,-118 2171.5,-118 2171.5,-77 2299.5,-77 2299.5,-118"/>
<text text-anchor="start" x="2179.5" y="-106" font-family="Helvetica,sans-Serif" font-size="10.00">/home/runner/work/R</text>
<text text-anchor="start" x="2179.5" y="-95" font-family="Helvetica,sans-Serif" font-size="10.00">&#45;Type/R&#45;Type/Client</text>
<text text-anchor="middle" x="2235.5" y="-84" font-family="Helvetica,sans-Serif" font-size="10.00">/src/scenes/Victory.hpp</text>
</a>
</g>
</g>
<!-- Node1&#45;&gt;Node28 -->
<g id="edge27_Node000001_Node000028" class="edge">
<title>Node1&#45;&gt;Node28</title>
<g id="a_edge27_Node000001_Node000028"><a xlink:title=" ">
<path fill="none" stroke="#63b8ff" d="M1814.21,-164.95C1906.03,-156.34 2044,-141 2162.5,-118 2165.33,-117.45 2168.22,-116.85 2171.13,-116.21"/>
<polygon fill="#63b8ff" stroke="#63b8ff" points="1813.71,-161.48 1804.08,-165.89 1814.36,-168.45 1813.71,-161.48"/>
</a>
</g>
</g>
<!-- Node30 -->
<g id="Node000030" class="node">
<title>Node30</title>
<g id="a_Node000030"><a xlink:href="WaitLobby_8hpp.html" target="_top" xlink:title=" ">
<polygon fill="white" stroke="#666666" points="2461.5,-118 2317.5,-118 2317.5,-77 2461.5,-77 2461.5,-118"/>
<text text-anchor="start" x="2325.5" y="-106" font-family="Helvetica,sans-Serif" font-size="10.00">/home/runner/work/R</text>
<text text-anchor="start" x="2325.5" y="-95" font-family="Helvetica,sans-Serif" font-size="10.00">&#45;Type/R&#45;Type/Client</text>
<text text-anchor="middle" x="2389.5" y="-84" font-family="Helvetica,sans-Serif" font-size="10.00">/src/scenes/WaitLobby.hpp</text>
</a>
</g>
</g>
<!-- Node1&#45;&gt;Node30 -->
<g id="edge29_Node000001_Node000030" class="edge">
<title>Node1&#45;&gt;Node30</title>
<g id="a_edge29_Node000001_Node000030"><a xlink:title=" ">
<path fill="none" stroke="#63b8ff" d="M1814.3,-168.44C1933.72,-161.52 2136.38,-146.57 2308.5,-118 2311.35,-117.53 2314.26,-117.01 2317.18,-116.45"/>
<polygon fill="#63b8ff" stroke="#63b8ff" points="1813.86,-164.96 1804.07,-169.02 1814.26,-171.94 1813.86,-164.96"/>
</a>
</g>
</g>
<!-- Node32 -->
<g id="Node000032" class="node">
<title>Node32</title>
<g id="a_Node000032"><a xlink:href="ServerGame_8cpp.html" target="_top" xlink:title=" ">
<polygon fill="white" stroke="#666666" points="2599,-118 2480,-118 2480,-77 2599,-77 2599,-118"/>
<text text-anchor="start" x="2488" y="-106" font-family="Helvetica,sans-Serif" font-size="10.00">/home/runner/work/R</text>
<text text-anchor="start" x="2488" y="-95" font-family="Helvetica,sans-Serif" font-size="10.00">&#45;Type/R&#45;Type/Server</text>
<text text-anchor="middle" x="2539.5" y="-84" font-family="Helvetica,sans-Serif" font-size="10.00">/src/ServerGame.cpp</text>
</a>
</g>
</g>
<!-- Node1&#45;&gt;Node32 -->
<g id="edge31_Node000001_Node000032" class="edge">
<title>Node1&#45;&gt;Node32</title>
<g id="a_edge31_Node000001_Node000032"><a xlink:title=" ">
<path fill="none" stroke="#63b8ff" d="M1814.59,-172.55C1961.34,-169.71 2238.43,-158.84 2470.5,-118 2473.56,-117.46 2476.69,-116.84 2479.83,-116.16"/>
<polygon fill="#63b8ff" stroke="#63b8ff" points="1814.18,-169.06 1804.25,-172.74 1814.31,-176.06 1814.18,-169.06"/>
</a>
</g>
</g>
<!-- Node33 -->
<g id="Node000033" class="node">
<title>Node33</title>
<g id="a_Node000033"><a xlink:href="ChargedShoot_8cpp.html" target="_top" xlink:title=" ">
<polygon fill="white" stroke="#666666" points="2769.5,-118 2617.5,-118 2617.5,-77 2769.5,-77 2769.5,-118"/>
<text text-anchor="start" x="2625.5" y="-106" font-family="Helvetica,sans-Serif" font-size="10.00">/home/runner/work/R</text>
<text text-anchor="start" x="2625.5" y="-95" font-family="Helvetica,sans-Serif" font-size="10.00">&#45;Type/R&#45;Type/Shared</text>
<text text-anchor="middle" x="2693.5" y="-84" font-family="Helvetica,sans-Serif" font-size="10.00">/systems/ChargedShoot.cpp</text>
</a>
</g>
</g>
<!-- Node1&#45;&gt;Node33 -->
<g id="edge32_Node000001_Node000033" class="edge">
<title>Node1&#45;&gt;Node33</title>
<g id="a_edge32_Node000001_Node000033"><a xlink:title=" ">
<path fill="none" stroke="#63b8ff" d="M1814.04,-172.6C1981.25,-169.92 2322.68,-159.34 2608.5,-118 2611.35,-117.59 2614.24,-117.13 2617.16,-116.63"/>
<polygon fill="#63b8ff" stroke="#63b8ff" points="1813.96,-169.1 1804.01,-172.76 1814.07,-176.1 1813.96,-169.1"/>
</a>
</g>
</g>
<!-- Node34 -->
<g id="Node000034" class="node">
<title>Node34</title>
<g id="a_Node000034"><a xlink:href="LevelSystem_8cpp.html" target="_top" xlink:title=" ">
<polygon fill="white" stroke="#666666" points="2935,-118 2788,-118 2788,-77 2935,-77 2935,-118"/>
<text text-anchor="start" x="2796" y="-106" font-family="Helvetica,sans-Serif" font-size="10.00">/home/runner/work/R</text>
<text text-anchor="start" x="2796" y="-95" font-family="Helvetica,sans-Serif" font-size="10.00">&#45;Type/R&#45;Type/Shared</text>
<text text-anchor="middle" x="2861.5" y="-84" font-family="Helvetica,sans-Serif" font-size="10.00">/systems/LevelSystem.cpp</text>
</a>
</g>
</g>
<!-- Node1&#45;&gt;Node34 -->
<g id="edge33_Node000001_Node000034" class="edge">
<title>Node1&#45;&gt;Node34</title>
<g id="a_edge33_Node000001_Node000034"><a xlink:title=" ">
<path fill="none" stroke="#63b8ff" d="M1814.11,-174.24C2004.99,-174.26 2427.14,-168 2778.5,-118 2781.58,-117.56 2784.71,-117.06 2787.86,-116.52"/>
<polygon fill="#63b8ff" stroke="#63b8ff" points="1814.09,-170.74 1804.09,-174.23 1814.09,-177.74 1814.09,-170.74"/>
</a>
</g>
</g>
<!-- Node35 -->
<g id="Node000035" class="node">
<title>Node35</title>
<g id="a_Node000035"><a xlink:href="Movement_8cpp.html" target="_top" xlink:title=" ">
<polygon fill="white" stroke="#666666" points="3145.5,-118 2953.5,-118 2953.5,-77 3145.5,-77 3145.5,-118"/>
<text text-anchor="start" x="2961.5" y="-106" font-family="Helvetica,sans-Serif" font-size="10.00">/home/runner/work/R</text>
<text text-anchor="start" x="2961.5" y="-95" font-family="Helvetica,sans-Serif" font-size="10.00">&#45;Type/R&#45;Type/Shared</text>
<text text-anchor="middle" x="3049.5" y="-84" font-family="Helvetica,sans-Serif" font-size="10.00">/systems/Movement/Movement.cpp</text>
</a>
</g>
</g>
<!-- Node1&#45;&gt;Node35 -->
<g id="edge34_Node000001_Node000035" class="edge">
<title>Node1&#45;&gt;Node35</title>
<g id="a_edge34_Node000001_Node000035"><a xlink:title=" ">
<path fill="none" stroke="#63b8ff" d="M1814.45,-173.68C2026.58,-172.98 2527.43,-165.88 2944.5,-118 2947.45,-117.66 2950.44,-117.29 2953.45,-116.89"/>
<polygon fill="#63b8ff" stroke="#63b8ff" points="1814.26,-170.18 1804.27,-173.71 1814.28,-177.18 1814.26,-170.18"/>
</a>
</g>
</g>
<!-- Node36 -->
<g id="Node000036" class="node">
<title>Node36</title>
<g id="a_Node000036"><a xlink:href="Spawn_8cpp.html" target="_top" xlink:title=" ">
<polygon fill="white" stroke="#666666" points="3349,-118 3164,-118 3164,-77 3349,-77 3349,-118"/>
<text text-anchor="start" x="3172" y="-106" font-family="Helvetica,sans-Serif" font-size="10.00">/home/runner/work/R</text>
<text text-anchor="start" x="3172" y="-95" font-family="Helvetica,sans-Serif" font-size="10.00">&#45;Type/R&#45;Type/Shared</text>
<text text-anchor="middle" x="3256.5" y="-84" font-family="Helvetica,sans-Serif" font-size="10.00">/systems/SpawnEnemy/Spawn.cpp</text>
</a>
</g>
</g>
<!-- Node1&#45;&gt;Node36 -->
<g id="edge35_Node000001_Node000036" class="edge">
<title>Node1&#45;&gt;Node36</title>
<g id="a_edge35_Node000001_Node000036"><a xlink:title=" ">
<path fill="none" stroke="#63b8ff" d="M1814.58,-171.55C2099.64,-165.85 2894.61,-147.67 3154.5,-118 3157.55,-117.65 3160.64,-117.26 3163.75,-116.84"/>
<polygon fill="#63b8ff" stroke="#63b8ff" points="1814.17,-168.06 1804.25,-171.76 1814.31,-175.06 1814.17,-168.06"/>
</a>
</g>
</g>
<!-- Node37 -->
<g id="Node000037" class="node">
<title>Node37</title>
<g id="a_Node000037"><a xlink:href="WaveSystem_8cpp.html" target="_top" xlink:title=" ">
<polygon fill="white" stroke="#666666" points="3515.5,-118 3367.5,-118 3367.5,-77 3515.5,-77 3515.5,-118"/>
<text text-anchor="start" x="3375.5" y="-106" font-family="Helvetica,sans-Serif" font-size="10.00">/home/runner/work/R</text>
<text text-anchor="start" x="3375.5" y="-95" font-family="Helvetica,sans-Serif" font-size="10.00">&#45;Type/R&#45;Type/Shared</text>
<text text-anchor="middle" x="3441.5" y="-84" font-family="Helvetica,sans-Serif" font-size="10.00">/systems/WaveSystem.cpp</text>
</a>
</g>
</g>
<!-- Node1&#45;&gt;Node37 -->
<g id="edge36_Node000001_Node000037" class="edge">
<title>Node1&#45;&gt;Node37</title>
<g id="a_edge36_Node000001_Node000037"><a xlink:title=" ">
<path fill="none" stroke="#63b8ff" d="M1814.51,-172.68C2126.49,-169.79 3058.01,-157.96 3358.5,-118 3361.43,-117.61 3364.42,-117.16 3367.42,-116.67"/>
<polygon fill="#63b8ff" stroke="#63b8ff" points="1814.09,-169.19 1804.12,-172.78 1814.15,-176.19 1814.09,-169.19"/>
</a>
</g>
</g>
<!-- Node3 -->
<g id="Node000003" class="node">
<title>Node3</title>
<g id="a_Node000003"><a xlink:href="CreateLobby_8cpp.html" target="_top" xlink:title=" ">
<polygon fill="white" stroke="#666666" points="154.5,-41 0.5,-41 0.5,0 154.5,0 154.5,-41"/>
<text text-anchor="start" x="8.5" y="-29" font-family="Helvetica,sans-Serif" font-size="10.00">/home/runner/work/R</text>
<text text-anchor="start" x="8.5" y="-18" font-family="Helvetica,sans-Serif" font-size="10.00">&#45;Type/R&#45;Type/Client</text>
<text text-anchor="middle" x="77.5" y="-7" font-family="Helvetica,sans-Serif" font-size="10.00">/src/scenes/CreateLobby.cpp</text>
</a>
</g>
</g>
<!-- Node2&#45;&gt;Node3 -->
<g id="edge2_Node000002_Node000003" class="edge">
<title>Node2&#45;&gt;Node3</title>
<g id="a_edge2_Node000002_Node000003"><a xlink:title=" ">
<path fill="none" stroke="#63b8ff" d="M77.5,-66.69C77.5,-58.08 77.5,-48.9 77.5,-41.07"/>
<polygon fill="#63b8ff" stroke="#63b8ff" points="74,-66.79 77.5,-76.79 81,-66.79 74,-66.79"/>
</a>
</g>
</g>
<!-- Node5 -->
<g id="Node000005" class="node">
<title>Node5</title>
<g id="a_Node000005"><a xlink:href="GameOver_8cpp.html" target="_top" xlink:title=" ">
<polygon fill="white" stroke="#666666" points="319.5,-41 173.5,-41 173.5,0 319.5,0 319.5,-41"/>
<text text-anchor="start" x="181.5" y="-29" font-family="Helvetica,sans-Serif" font-size="10.00">/home/runner/work/R</text>
<text text-anchor="start" x="181.5" y="-18" font-family="Helvetica,sans-Serif" font-size="10.00">&#45;Type/R&#45;Type/Client</text>
<text text-anchor="middle" x="246.5" y="-7" font-family="Helvetica,sans-Serif" font-size="10.00">/src/scenes/GameOver.cpp</text>
</a>
</g>
</g>
<!-- Node4&#45;&gt;Node5 -->
<g id="edge4_Node000004_Node000005" class="edge">
<title>Node4&#45;&gt;Node5</title>
<g id="a_edge4_Node000004_Node000005"><a xlink:title=" ">
<path fill="none" stroke="#63b8ff" d="M246.5,-66.69C246.5,-58.08 246.5,-48.9 246.5,-41.07"/>
<polygon fill="#63b8ff" stroke="#63b8ff" points="243,-66.79 246.5,-76.79 250,-66.79 243,-66.79"/>
</a>
</g>
</g>
<!-- Node7 -->
<g id="Node000007" class="node">
<title>Node7</title>
<g id="a_Node000007"><a xlink:href="JoinGame_8cpp.html" target="_top" xlink:title=" ">
<polygon fill="white" stroke="#666666" points="479,-41 338,-41 338,0 479,0 479,-41"/>
<text text-anchor="start" x="346" y="-29" font-family="Helvetica,sans-Serif" font-size="10.00">/home/runner/work/R</text>
<text text-anchor="start" x="346" y="-18" font-family="Helvetica,sans-Serif" font-size="10.00">&#45;Type/R&#45;Type/Client</text>
<text text-anchor="middle" x="408.5" y="-7" font-family="Helvetica,sans-Serif" font-size="10.00">/src/scenes/JoinGame.cpp</text>
</a>
</g>
</g>
<!-- Node6&#45;&gt;Node7 -->
<g id="edge6_Node000006_Node000007" class="edge">
<title>Node6&#45;&gt;Node7</title>
<g id="a_edge6_Node000006_Node000007"><a xlink:title=" ">
<path fill="none" stroke="#63b8ff" d="M408.5,-66.69C408.5,-58.08 408.5,-48.9 408.5,-41.07"/>
<polygon fill="#63b8ff" stroke="#63b8ff" points="405,-66.79 408.5,-76.79 412,-66.79 405,-66.79"/>
</a>
</g>
</g>
<!-- Node9 -->
<g id="Node000009" class="node">
<title>Node9</title>
<g id="a_Node000009"><a xlink:href="LevelScene_8cpp.html" target="_top" xlink:title=" ">
<polygon fill="white" stroke="#666666" points="647,-41 498,-41 498,0 647,0 647,-41"/>
<text text-anchor="start" x="506" y="-29" font-family="Helvetica,sans-Serif" font-size="10.00">/home/runner/work/R</text>
<text text-anchor="start" x="506" y="-18" font-family="Helvetica,sans-Serif" font-size="10.00">&#45;Type/R&#45;Type/Client</text>
<text text-anchor="middle" x="572.5" y="-7" font-family="Helvetica,sans-Serif" font-size="10.00">/src/scenes/LevelScene.cpp</text>
</a>
</g>
</g>
<!-- Node8&#45;&gt;Node9 -->
<g id="edge8_Node000008_Node000009" class="edge">
<title>Node8&#45;&gt;Node9</title>
<g id="a_edge8_Node000008_Node000009"><a xlink:title=" ">
<path fill="none" stroke="#63b8ff" d="M572.5,-66.69C572.5,-58.08 572.5,-48.9 572.5,-41.07"/>
<polygon fill="#63b8ff" stroke="#63b8ff" points="569,-66.79 572.5,-76.79 576,-66.79 569,-66.79"/>
</a>
</g>
</g>
<!-- Node11 -->
<g id="Node000011" class="node">
<title>Node11</title>
<g id="a_Node000011"><a xlink:href="Lobby_8cpp.html" target="_top" xlink:title=" ">
<polygon fill="white" stroke="#666666" points="787.5,-41 665.5,-41 665.5,0 787.5,0 787.5,-41"/>
<text text-anchor="start" x="673.5" y="-29" font-family="Helvetica,sans-Serif" font-size="10.00">/home/runner/work/R</text>
<text text-anchor="start" x="673.5" y="-18" font-family="Helvetica,sans-Serif" font-size="10.00">&#45;Type/R&#45;Type/Client</text>
<text text-anchor="middle" x="726.5" y="-7" font-family="Helvetica,sans-Serif" font-size="10.00">/src/scenes/Lobby.cpp</text>
</a>
</g>
</g>
<!-- Node10&#45;&gt;Node11 -->
<g id="edge10_Node000010_Node000011" class="edge">
<title>Node10&#45;&gt;Node11</title>
<g id="a_edge10_Node000010_Node000011"><a xlink:title=" ">
<path fill="none" stroke="#63b8ff" d="M726.5,-66.69C726.5,-58.08 726.5,-48.9 726.5,-41.07"/>
<polygon fill="#63b8ff" stroke="#63b8ff" points="723,-66.79 726.5,-76.79 730,-66.79 723,-66.79"/>
</a>
</g>
</g>
<!-- Node13 -->
<g id="Node000013" class="node">
<title>Node13</title>
<g id="a_Node000013"><a xlink:href="LobbyInfo_8cpp.html" target="_top" xlink:title=" ">
<polygon fill="white" stroke="#666666" points="948.5,-41 806.5,-41 806.5,0 948.5,0 948.5,-41"/>
<text text-anchor="start" x="814.5" y="-29" font-family="Helvetica,sans-Serif" font-size="10.00">/home/runner/work/R</text>
<text text-anchor="start" x="814.5" y="-18" font-family="Helvetica,sans-Serif" font-size="10.00">&#45;Type/R&#45;Type/Client</text>
<text text-anchor="middle" x="877.5" y="-7" font-family="Helvetica,sans-Serif" font-size="10.00">/src/scenes/LobbyInfo.cpp</text>
</a>
</g>
</g>
<!-- Node12&#45;&gt;Node13 -->
<g id="edge12_Node000012_Node000013" class="edge">
<title>Node12&#45;&gt;Node13</title>
<g id="a_edge12_Node000012_Node000013"><a xlink:title=" ">
<path fill="none" stroke="#63b8ff" d="M877.5,-66.69C877.5,-58.08 877.5,-48.9 877.5,-41.07"/>
<polygon fill="#63b8ff" stroke="#63b8ff" points="874,-66.79 877.5,-76.79 881,-66.79 874,-66.79"/>
</a>
</g>
</g>
<!-- Node15 -->
<g id="Node000015" class="node">
<title>Node15</title>
<g id="a_Node000015"><a xlink:href="LobbyJoin_8cpp.html" target="_top" xlink:title=" ">
<polygon fill="white" stroke="#666666" points="1109,-41 968,-41 968,0 1109,0 1109,-41"/>
<text text-anchor="start" x="976" y="-29" font-family="Helvetica,sans-Serif" font-size="10.00">/home/runner/work/R</text>
<text text-anchor="start" x="976" y="-18" font-family="Helvetica,sans-Serif" font-size="10.00">&#45;Type/R&#45;Type/Client</text>
<text text-anchor="middle" x="1038.5" y="-7" font-family="Helvetica,sans-Serif" font-size="10.00">/src/scenes/LobbyJoin.cpp</text>
</a>
</g>
</g>
<!-- Node14&#45;&gt;Node15 -->
<g id="edge14_Node000014_Node000015" class="edge">
<title>Node14&#45;&gt;Node15</title>
<g id="a_edge14_Node000014_Node000015"><a xlink:title=" ">
<path fill="none" stroke="#63b8ff" d="M1038.5,-66.69C1038.5,-58.08 1038.5,-48.9 1038.5,-41.07"/>
<polygon fill="#63b8ff" stroke="#63b8ff" points="1035,-66.79 1038.5,-76.79 1042,-66.79 1035,-66.79"/>
</a>
</g>
</g>
<!-- Node17 -->
<g id="Node000017" class="node">
<title>Node17</title>
<g id="a_Node000017"><a xlink:href="LobbyPassword_8cpp.html" target="_top" xlink:title=" ">
<polygon fill="white" stroke="#666666" points="1297,-41 1128,-41 1128,0 1297,0 1297,-41"/>
<text text-anchor="start" x="1136" y="-29" font-family="Helvetica,sans-Serif" font-size="10.00">/home/runner/work/R</text>
<text text-anchor="start" x="1136" y="-18" font-family="Helvetica,sans-Serif" font-size="10.00">&#45;Type/R&#45;Type/Client</text>
<text text-anchor="middle" x="1212.5" y="-7" font-family="Helvetica,sans-Serif" font-size="10.00">/src/scenes/LobbyPassword.cpp</text>
</a>
</g>
</g>
<!-- Node16&#45;&gt;Node17 -->
<g id="edge16_Node000016_Node000017" class="edge">
<title>Node16&#45;&gt;Node17</title>
<g id="a_edge16_Node000016_Node000017"><a xlink:title=" ">
<path fill="none" stroke="#63b8ff" d="M1212.5,-66.69C1212.5,-58.08 1212.5,-48.9 1212.5,-41.07"/>
<polygon fill="#63b8ff" stroke="#63b8ff" points="1209,-66.79 1212.5,-76.79 1216,-66.79 1209,-66.79"/>
</a>
</g>
</g>
<!-- Node19 -->
<g id="Node000019" class="node">
<title>Node19</title>
<g id="a_Node000019"><a xlink:href="MainGame_8cpp.html" target="_top" xlink:title=" ">
<polygon fill="white" stroke="#666666" points="1463,-41 1316,-41 1316,0 1463,0 1463,-41"/>
<text text-anchor="start" x="1324" y="-29" font-family="Helvetica,sans-Serif" font-size="10.00">/home/runner/work/R</text>
<text text-anchor="start" x="1324" y="-18" font-family="Helvetica,sans-Serif" font-size="10.00">&#45;Type/R&#45;Type/Client</text>
<text text-anchor="middle" x="1389.5" y="-7" font-family="Helvetica,sans-Serif" font-size="10.00">/src/scenes/MainGame.cpp</text>
</a>
</g>
</g>
<!-- Node18&#45;&gt;Node19 -->
<g id="edge18_Node000018_Node000019" class="edge">
<title>Node18&#45;&gt;Node19</title>
<g id="a_edge18_Node000018_Node000019"><a xlink:title=" ">
<path fill="none" stroke="#63b8ff" d="M1389.5,-66.69C1389.5,-58.08 1389.5,-48.9 1389.5,-41.07"/>
<polygon fill="#63b8ff" stroke="#63b8ff" points="1386,-66.79 1389.5,-76.79 1393,-66.79 1386,-66.79"/>
</a>
</g>
</g>
<!-- Node21 -->
<g id="Node000021" class="node">
<title>Node21</title>
<g id="a_Node000021"><a xlink:href="MainMenu_8cpp.html" target="_top" xlink:title=" ">
<polygon fill="white" stroke="#666666" points="1627,-41 1482,-41 1482,0 1627,0 1627,-41"/>
<text text-anchor="start" x="1490" y="-29" font-family="Helvetica,sans-Serif" font-size="10.00">/home/runner/work/R</text>
<text text-anchor="start" x="1490" y="-18" font-family="Helvetica,sans-Serif" font-size="10.00">&#45;Type/R&#45;Type/Client</text>
<text text-anchor="middle" x="1554.5" y="-7" font-family="Helvetica,sans-Serif" font-size="10.00">/src/scenes/MainMenu.cpp</text>
</a>
</g>
</g>
<!-- Node20&#45;&gt;Node21 -->
<g id="edge20_Node000020_Node000021" class="edge">
<title>Node20&#45;&gt;Node21</title>
<g id="a_edge20_Node000020_Node000021"><a xlink:title=" ">
<path fill="none" stroke="#63b8ff" d="M1554.5,-66.69C1554.5,-58.08 1554.5,-48.9 1554.5,-41.07"/>
<polygon fill="#63b8ff" stroke="#63b8ff" points="1551,-66.79 1554.5,-76.79 1558,-66.79 1551,-66.79"/>
</a>
</g>
</g>
<!-- Node23 -->
<g id="Node000023" class="node">
<title>Node23</title>
<g id="a_Node000023"><a xlink:href="Options_8cpp.html" target="_top" xlink:title=" ">
<polygon fill="white" stroke="#666666" points="1777,-41 1646,-41 1646,0 1777,0 1777,-41"/>
<text text-anchor="start" x="1654" y="-29" font-family="Helvetica,sans-Serif" font-size="10.00">/home/runner/work/R</text>
<text text-anchor="start" x="1654" y="-18" font-family="Helvetica,sans-Serif" font-size="10.00">&#45;Type/R&#45;Type/Client</text>
<text text-anchor="middle" x="1711.5" y="-7" font-family="Helvetica,sans-Serif" font-size="10.00">/src/scenes/Options.cpp</text>
</a>
</g>
</g>
<!-- Node22&#45;&gt;Node23 -->
<g id="edge22_Node000022_Node000023" class="edge">
<title>Node22&#45;&gt;Node23</title>
<g id="a_edge22_Node000022_Node000023"><a xlink:title=" ">
<path fill="none" stroke="#63b8ff" d="M1711.5,-66.69C1711.5,-58.08 1711.5,-48.9 1711.5,-41.07"/>
<polygon fill="#63b8ff" stroke="#63b8ff" points="1708,-66.79 1711.5,-76.79 1715,-66.79 1708,-66.79"/>
</a>
</g>
</g>
<!-- Node25 -->
<g id="Node000025" class="node">
<title>Node25</title>
<g id="a_Node000025"><a xlink:href="RtypeScene_8cpp.html" target="_top" xlink:title=" ">
<polygon fill="white" stroke="#666666" points="1947.5,-41 1795.5,-41 1795.5,0 1947.5,0 1947.5,-41"/>
<text text-anchor="start" x="1803.5" y="-29" font-family="Helvetica,sans-Serif" font-size="10.00">/home/runner/work/R</text>
<text text-anchor="start" x="1803.5" y="-18" font-family="Helvetica,sans-Serif" font-size="10.00">&#45;Type/R&#45;Type/Client</text>
<text text-anchor="middle" x="1871.5" y="-7" font-family="Helvetica,sans-Serif" font-size="10.00">/src/scenes/RtypeScene.cpp</text>
</a>
</g>
</g>
<!-- Node24&#45;&gt;Node25 -->
<g id="edge24_Node000024_Node000025" class="edge">
<title>Node24&#45;&gt;Node25</title>
<g id="a_edge24_Node000024_Node000025"><a xlink:title=" ">
<path fill="none" stroke="#63b8ff" d="M1871.5,-66.69C1871.5,-58.08 1871.5,-48.9 1871.5,-41.07"/>
<polygon fill="#63b8ff" stroke="#63b8ff" points="1868,-66.79 1871.5,-76.79 1875,-66.79 1868,-66.79"/>
</a>
</g>
</g>
<!-- Node27 -->
<g id="Node000027" class="node">
<title>Node27</title>
<g id="a_Node000027"><a xlink:href="SecondGameClient_8cpp.html" target="_top" xlink:title=" ">
<polygon fill="white" stroke="#666666" points="2153,-41 1966,-41 1966,0 2153,0 2153,-41"/>
<text text-anchor="start" x="1974" y="-29" font-family="Helvetica,sans-Serif" font-size="10.00">/home/runner/work/R</text>
<text text-anchor="start" x="1974" y="-18" font-family="Helvetica,sans-Serif" font-size="10.00">&#45;Type/R&#45;Type/Client</text>
<text text-anchor="middle" x="2059.5" y="-7" font-family="Helvetica,sans-Serif" font-size="10.00">/src/scenes/SecondGameClient.cpp</text>
</a>
</g>
</g>
<!-- Node26&#45;&gt;Node27 -->
<g id="edge26_Node000026_Node000027" class="edge">
<title>Node26&#45;&gt;Node27</title>
<g id="a_edge26_Node000026_Node000027"><a xlink:title=" ">
<path fill="none" stroke="#63b8ff" d="M2059.5,-66.69C2059.5,-58.08 2059.5,-48.9 2059.5,-41.07"/>
<polygon fill="#63b8ff" stroke="#63b8ff" points="2056,-66.79 2059.5,-76.79 2063,-66.79 2056,-66.79"/>
</a>
</g>
</g>
<!-- Node29 -->
<g id="Node000029" class="node">
<title>Node29</title>
<g id="a_Node000029"><a xlink:href="Victory_8cpp.html" target="_top" xlink:title=" ">
<polygon fill="white" stroke="#666666" points="2299,-41 2172,-41 2172,0 2299,0 2299,-41"/>
<text text-anchor="start" x="2180" y="-29" font-family="Helvetica,sans-Serif" font-size="10.00">/home/runner/work/R</text>
<text text-anchor="start" x="2180" y="-18" font-family="Helvetica,sans-Serif" font-size="10.00">&#45;Type/R&#45;Type/Client</text>
<text text-anchor="middle" x="2235.5" y="-7" font-family="Helvetica,sans-Serif" font-size="10.00">/src/scenes/Victory.cpp</text>
</a>
</g>
</g>
<!-- Node28&#45;&gt;Node29 -->
<g id="edge28_Node000028_Node000029" class="edge">
<title>Node28&#45;&gt;Node29</title>
<g id="a_edge28_Node000028_Node000029"><a xlink:title=" ">
<path fill="none" stroke="#63b8ff" d="M2235.5,-66.69C2235.5,-58.08 2235.5,-48.9 2235.5,-41.07"/>
<polygon fill="#63b8ff" stroke="#63b8ff" points="2232,-66.79 2235.5,-76.79 2239,-66.79 2232,-66.79"/>
</a>
</g>
</g>
<!-- Node31 -->
<g id="Node000031" class="node">
<title>Node31</title>
<g id="a_Node000031"><a xlink:href="WaitLobby_8cpp.html" target="_top" xlink:title=" ">
<polygon fill="white" stroke="#666666" points="2461,-41 2318,-41 2318,0 2461,0 2461,-41"/>
<text text-anchor="start" x="2326" y="-29" font-family="Helvetica,sans-Serif" font-size="10.00">/home/runner/work/R</text>
<text text-anchor="start" x="2326" y="-18" font-family="Helvetica,sans-Serif" font-size="10.00">&#45;Type/R&#45;Type/Client</text>
<text text-anchor="middle" x="2389.5" y="-7" font-family="Helvetica,sans-Serif" font-size="10.00">/src/scenes/WaitLobby.cpp</text>
</a>
</g>
</g>
<!-- Node30&#45;&gt;Node31 -->
<g id="edge30_Node000030_Node000031" class="edge">
<title>Node30&#45;&gt;Node31</title>
<g id="a_edge30_Node000030_Node000031"><a xlink:title=" ">
<path fill="none" stroke="#63b8ff" d="M2389.5,-66.69C2389.5,-58.08 2389.5,-48.9 2389.5,-41.07"/>
<polygon fill="#63b8ff" stroke="#63b8ff" points="2386,-66.79 2389.5,-76.79 2393,-66.79 2386,-66.79"/>
</a>
</g>
</g>
</g>
</svg>
