<?xml version="1.0" encoding="UTF-8" standalone="no"?>
<!DOCTYPE svg PUBLIC "-//W3C//DTD SVG 1.1//EN"
 "http://www.w3.org/Graphics/SVG/1.1/DTD/svg11.dtd">
<!-- Generated by graphviz version 2.43.0 (0)
 -->
<!-- Title: /home/runner/work/R&#45;Type/R&#45;Type/Shared/systems/Helpers/EntityHelper.hpp Pages: 1 -->
<svg width="3318pt" height="203pt"
 viewBox="0.00 0.00 3317.50 203.00" xmlns="http://www.w3.org/2000/svg" xmlns:xlink="http://www.w3.org/1999/xlink">
<g id="graph0" class="graph" transform="scale(1 1) rotate(0) translate(4 199)">
<title>/home/runner/work/R&#45;Type/R&#45;Type/Shared/systems/Helpers/EntityHelper.hpp</title>
<!-- Node1 -->
<g id="Node000001" class="node">
<title>Node1</title>
<g id="a_Node000001"><a xlink:title=" ">
<polygon fill="#999999" stroke="#666666" points="1725,-195 1540,-195 1540,-154 1725,-154 1725,-195"/>
<text text-anchor="start" x="1548" y="-183" font-family="Helvetica,sans-Serif" font-size="10.00">/home/runner/work/R</text>
<text text-anchor="start" x="1548" y="-172" font-family="Helvetica,sans-Serif" font-size="10.00">&#45;Type/R&#45;Type/Shared</text>
<text text-anchor="middle" x="1632.5" y="-161" font-family="Helvetica,sans-Serif" font-size="10.00">/systems/Helpers/EntityHelper.hpp</text>
</a>
</g>
</g>
<!-- Node2 -->
<g id="Node000002" class="node">
<title>Node2</title>
<g id="a_Node000002"><a xlink:href="CreateLobby_8hpp.html" target="_top" xlink:title=" ">
<polygon fill="white" stroke="#666666" points="155,-118 0,-118 0,-77 155,-77 155,-118"/>
<text text-anchor="start" x="8" y="-106" font-family="Helvetica,sans-Serif" font-size="10.00">/home/runner/work/R</text>
<text text-anchor="start" x="8" y="-95" font-family="Helvetica,sans-Serif" font-size="10.00">&#45;Type/R&#45;Type/Client</text>
<text text-anchor="middle" x="77.5" y="-84" font-family="Helvetica,sans-Serif" font-size="10.00">/src/scenes/CreateLobby.hpp</text>
</a>
</g>
</g>
<!-- Node1&#45;&gt;Node2 -->
<g id="edge1_Node000001_Node000002" class="edge">
<title>Node1&#45;&gt;Node2</title>
<g id="a_edge1_Node000001_Node000002"><a xlink:title=" ">
<path fill="none" stroke="#63b8ff" d="M1529.55,-172.05C1241.12,-167.62 428.98,-152.35 164.5,-118 161.43,-117.6 158.31,-117.15 155.16,-116.65"/>
<polygon fill="#63b8ff" stroke="#63b8ff" points="1529.54,-175.55 1539.59,-172.21 1529.64,-168.56 1529.54,-175.55"/>
</a>
</g>
</g>
<!-- Node4 -->
<g id="Node000004" class="node">
<title>Node4</title>
<g id="a_Node000004"><a xlink:href="GameOver_8hpp.html" target="_top" xlink:title=" ">
<polygon fill="white" stroke="#666666" points="319.5,-118 173.5,-118 173.5,-77 319.5,-77 319.5,-118"/>
<text text-anchor="start" x="181.5" y="-106" font-family="Helvetica,sans-Serif" font-size="10.00">/home/runner/work/R</text>
<text text-anchor="start" x="181.5" y="-95" font-family="Helvetica,sans-Serif" font-size="10.00">&#45;Type/R&#45;Type/Client</text>
<text text-anchor="middle" x="246.5" y="-84" font-family="Helvetica,sans-Serif" font-size="10.00">/src/scenes/GameOver.hpp</text>
</a>
</g>
</g>
<!-- Node1&#45;&gt;Node4 -->
<g id="edge3_Node000001_Node000004" class="edge">
<title>Node1&#45;&gt;Node4</title>
<g id="a_edge3_Node000001_Node000004"><a xlink:title=" ">
<path fill="none" stroke="#63b8ff" d="M1529.54,-171.66C1263.85,-166.49 559.78,-150.12 328.5,-118 325.6,-117.6 322.65,-117.14 319.69,-116.64"/>
<polygon fill="#63b8ff" stroke="#63b8ff" points="1529.51,-175.16 1539.57,-171.85 1529.64,-168.16 1529.51,-175.16"/>
</a>
</g>
</g>
<!-- Node6 -->
<g id="Node000006" class="node">
<title>Node6</title>
<g id="a_Node000006"><a xlink:href="JoinGame_8hpp.html" target="_top" xlink:title=" ">
<polygon fill="white" stroke="#666666" points="479.5,-118 337.5,-118 337.5,-77 479.5,-77 479.5,-118"/>
<text text-anchor="start" x="345.5" y="-106" font-family="Helvetica,sans-Serif" font-size="10.00">/home/runner/work/R</text>
<text text-anchor="start" x="345.5" y="-95" font-family="Helvetica,sans-Serif" font-size="10.00">&#45;Type/R&#45;Type/Client</text>
<text text-anchor="middle" x="408.5" y="-84" font-family="Helvetica,sans-Serif" font-size="10.00">/src/scenes/JoinGame.hpp</text>
</a>
</g>
</g>
<!-- Node1&#45;&gt;Node6 -->
<g id="edge5_Node000001_Node000006" class="edge">
<title>Node1&#45;&gt;Node6</title>
<g id="a_edge5_Node000001_Node000006"><a xlink:title=" ">
<path fill="none" stroke="#63b8ff" d="M1529.48,-171.02C1287.39,-164.78 687.72,-146.84 488.5,-118 485.67,-117.59 482.79,-117.13 479.9,-116.62"/>
<polygon fill="#63b8ff" stroke="#63b8ff" points="1529.6,-174.52 1539.69,-171.28 1529.78,-167.52 1529.6,-174.52"/>
</a>
</g>
</g>
<!-- Node8 -->
<g id="Node000008" class="node">
<title>Node8</title>
<g id="a_Node000008"><a xlink:href="LevelScene_8hpp.html" target="_top" xlink:title=" ">
<polygon fill="white" stroke="#666666" points="647.5,-118 497.5,-118 497.5,-77 647.5,-77 647.5,-118"/>
<text text-anchor="start" x="505.5" y="-106" font-family="Helvetica,sans-Serif" font-size="10.00">/home/runner/work/R</text>
<text text-anchor="start" x="505.5" y="-95" font-family="Helvetica,sans-Serif" font-size="10.00">&#45;Type/R&#45;Type/Client</text>
<text text-anchor="middle" x="572.5" y="-84" font-family="Helvetica,sans-Serif" font-size="10.00">/src/scenes/LevelScene.hpp</text>
</a>
</g>
</g>
<!-- Node1&#45;&gt;Node8 -->
<g id="edge7_Node000001_Node000008" class="edge">
<title>Node1&#45;&gt;Node8</title>
<g id="a_edge7_Node000001_Node000008"><a xlink:title=" ">
<path fill="none" stroke="#63b8ff" d="M1529.63,-173.42C1351.05,-172.01 972.5,-163.32 656.5,-118 653.68,-117.6 650.82,-117.14 647.94,-116.66"/>
<polygon fill="#63b8ff" stroke="#63b8ff" points="1529.77,-176.92 1539.8,-173.5 1529.83,-169.92 1529.77,-176.92"/>
</a>
</g>
</g>
<!-- Node10 -->
<g id="Node000010" class="node">
<title>Node10</title>
<g id="a_Node000010"><a xlink:href="Lobby_8hpp.html" target="_top" xlink:title=" ">
<polygon fill="white" stroke="#666666" points="787.5,-118 665.5,-118 665.5,-77 787.5,-77 787.5,-118"/>
<text text-anchor="start" x="673.5" y="-106" font-family="Helvetica,sans-Serif" font-size="10.00">/home/runner/work/R</text>
<text text-anchor="start" x="673.5" y="-95" font-family="Helvetica,sans-Serif" font-size="10.00">&#45;Type/R&#45;Type/Client</text>
<text text-anchor="middle" x="726.5" y="-84" font-family="Helvetica,sans-Serif" font-size="10.00">/src/scenes/Lobby.hpp</text>
</a>
</g>
</g>
<!-- Node1&#45;&gt;Node10 -->
<g id="edge9_Node000001_Node000010" class="edge">
<title>Node1&#45;&gt;Node10</title>
<g id="a_edge9_Node000001_Node000010"><a xlink:title=" ">
<path fill="none" stroke="#63b8ff" d="M1529.71,-173.44C1371.18,-171.83 1058,-162.61 796.5,-118 793.64,-117.51 790.73,-116.95 787.8,-116.34"/>
<polygon fill="#63b8ff" stroke="#63b8ff" points="1529.89,-176.94 1539.92,-173.53 1529.96,-169.94 1529.89,-176.94"/>
</a>
</g>
</g>
<!-- Node12 -->
<g id="Node000012" class="node">
<title>Node12</title>
<g id="a_Node000012"><a xlink:href="LobbyInfo_8hpp.html" target="_top" xlink:title=" ">
<polygon fill="white" stroke="#666666" points="949,-118 806,-118 806,-77 949,-77 949,-118"/>
<text text-anchor="start" x="814" y="-106" font-family="Helvetica,sans-Serif" font-size="10.00">/home/runner/work/R</text>
<text text-anchor="start" x="814" y="-95" font-family="Helvetica,sans-Serif" font-size="10.00">&#45;Type/R&#45;Type/Client</text>
<text text-anchor="middle" x="877.5" y="-84" font-family="Helvetica,sans-Serif" font-size="10.00">/src/scenes/LobbyInfo.hpp</text>
</a>
</g>
</g>
<!-- Node1&#45;&gt;Node12 -->
<g id="edge11_Node000001_Node000012" class="edge">
<title>Node1&#45;&gt;Node12</title>
<g id="a_edge11_Node000001_Node000012"><a xlink:title=" ">
<path fill="none" stroke="#63b8ff" d="M1529.68,-169.96C1397,-164.26 1159.33,-150.24 958.5,-118 955.5,-117.52 952.45,-116.98 949.37,-116.41"/>
<polygon fill="#63b8ff" stroke="#63b8ff" points="1529.7,-173.46 1539.84,-170.39 1529.99,-166.47 1529.7,-173.46"/>
</a>
</g>
</g>
<!-- Node14 -->
<g id="Node000014" class="node">
<title>Node14</title>
<g id="a_Node000014"><a xlink:href="LobbyJoin_8hpp.html" target="_top" xlink:title=" ">
<polygon fill="white" stroke="#666666" points="1109.5,-118 967.5,-118 967.5,-77 1109.5,-77 1109.5,-118"/>
<text text-anchor="start" x="975.5" y="-106" font-family="Helvetica,sans-Serif" font-size="10.00">/home/runner/work/R</text>
<text text-anchor="start" x="975.5" y="-95" font-family="Helvetica,sans-Serif" font-size="10.00">&#45;Type/R&#45;Type/Client</text>
<text text-anchor="middle" x="1038.5" y="-84" font-family="Helvetica,sans-Serif" font-size="10.00">/src/scenes/LobbyJoin.hpp</text>
</a>
</g>
</g>
<!-- Node1&#45;&gt;Node14 -->
<g id="edge13_Node000001_Node000014" class="edge">
<title>Node1&#45;&gt;Node14</title>
<g id="a_edge13_Node000001_Node000014"><a xlink:title=" ">
<path fill="none" stroke="#63b8ff" d="M1529.4,-166.38C1425.22,-158.24 1259.89,-142.75 1118.5,-118 1115.68,-117.51 1112.82,-116.97 1109.93,-116.4"/>
<polygon fill="#63b8ff" stroke="#63b8ff" points="1529.36,-169.88 1539.6,-167.16 1529.9,-162.9 1529.36,-169.88"/>
</a>
</g>
</g>
<!-- Node16 -->
<g id="Node000016" class="node">
<title>Node16</title>
<g id="a_Node000016"><a xlink:href="LobbyPassword_8hpp.html" target="_top" xlink:title=" ">
<polygon fill="white" stroke="#666666" points="1297.5,-118 1127.5,-118 1127.5,-77 1297.5,-77 1297.5,-118"/>
<text text-anchor="start" x="1135.5" y="-106" font-family="Helvetica,sans-Serif" font-size="10.00">/home/runner/work/R</text>
<text text-anchor="start" x="1135.5" y="-95" font-family="Helvetica,sans-Serif" font-size="10.00">&#45;Type/R&#45;Type/Client</text>
<text text-anchor="middle" x="1212.5" y="-84" font-family="Helvetica,sans-Serif" font-size="10.00">/src/scenes/LobbyPassword.hpp</text>
</a>
</g>
</g>
<!-- Node1&#45;&gt;Node16 -->
<g id="edge15_Node000001_Node000016" class="edge">
<title>Node1&#45;&gt;Node16</title>
<g id="a_edge15_Node000001_Node000016"><a xlink:title=" ">
<path fill="none" stroke="#63b8ff" d="M1529.81,-156.99C1465.54,-146.41 1381.07,-132.08 1306.5,-118 1303.55,-117.44 1300.55,-116.87 1297.53,-116.28"/>
<polygon fill="#63b8ff" stroke="#63b8ff" points="1529.52,-160.49 1539.95,-158.65 1530.65,-153.58 1529.52,-160.49"/>
</a>
</g>
</g>
<!-- Node18 -->
<g id="Node000018" class="node">
<title>Node18</title>
<g id="a_Node000018"><a xlink:href="MainGame_8hpp.html" target="_top" xlink:title=" ">
<polygon fill="white" stroke="#666666" points="1463.5,-118 1315.5,-118 1315.5,-77 1463.5,-77 1463.5,-118"/>
<text text-anchor="start" x="1323.5" y="-106" font-family="Helvetica,sans-Serif" font-size="10.00">/home/runner/work/R</text>
<text text-anchor="start" x="1323.5" y="-95" font-family="Helvetica,sans-Serif" font-size="10.00">&#45;Type/R&#45;Type/Client</text>
<text text-anchor="middle" x="1389.5" y="-84" font-family="Helvetica,sans-Serif" font-size="10.00">/src/scenes/MainGame.hpp</text>
</a>
</g>
</g>
<!-- Node1&#45;&gt;Node18 -->
<g id="edge17_Node000001_Node000018" class="edge">
<title>Node1&#45;&gt;Node18</title>
<g id="a_edge17_Node000001_Node000018"><a xlink:title=" ">
<path fill="none" stroke="#63b8ff" d="M1559.42,-150.94C1525.46,-140.46 1485.47,-128.12 1452.82,-118.04"/>
<polygon fill="#63b8ff" stroke="#63b8ff" points="1558.7,-154.39 1569.29,-153.99 1560.77,-147.7 1558.7,-154.39"/>
</a>
</g>
</g>
<!-- Node20 -->
<g id="Node000020" class="node">
<title>Node20</title>
<g id="a_Node000020"><a xlink:href="MainMenu_8hpp.html" target="_top" xlink:title=" ">
<polygon fill="white" stroke="#666666" points="1627.5,-118 1481.5,-118 1481.5,-77 1627.5,-77 1627.5,-118"/>
<text text-anchor="start" x="1489.5" y="-106" font-family="Helvetica,sans-Serif" font-size="10.00">/home/runner/work/R</text>
<text text-anchor="start" x="1489.5" y="-95" font-family="Helvetica,sans-Serif" font-size="10.00">&#45;Type/R&#45;Type/Client</text>
<text text-anchor="middle" x="1554.5" y="-84" font-family="Helvetica,sans-Serif" font-size="10.00">/src/scenes/MainMenu.hpp</text>
</a>
</g>
</g>
<!-- Node1&#45;&gt;Node20 -->
<g id="edge19_Node000001_Node000020" class="edge">
<title>Node1&#45;&gt;Node20</title>
<g id="a_edge19_Node000001_Node000020"><a xlink:title=" ">
<path fill="none" stroke="#63b8ff" d="M1604.72,-146.79C1594.87,-137.32 1583.97,-126.84 1574.86,-118.07"/>
<polygon fill="#63b8ff" stroke="#63b8ff" points="1602.37,-149.39 1612.01,-153.79 1607.22,-144.34 1602.37,-149.39"/>
</a>
</g>
</g>
<!-- Node22 -->
<g id="Node000022" class="node">
<title>Node22</title>
<g id="a_Node000022"><a xlink:href="Options_8hpp.html" target="_top" xlink:title=" ">
<polygon fill="white" stroke="#666666" points="1777.5,-118 1645.5,-118 1645.5,-77 1777.5,-77 1777.5,-118"/>
<text text-anchor="start" x="1653.5" y="-106" font-family="Helvetica,sans-Serif" font-size="10.00">/home/runner/work/R</text>
<text text-anchor="start" x="1653.5" y="-95" font-family="Helvetica,sans-Serif" font-size="10.00">&#45;Type/R&#45;Type/Client</text>
<text text-anchor="middle" x="1711.5" y="-84" font-family="Helvetica,sans-Serif" font-size="10.00">/src/scenes/Options.hpp</text>
</a>
</g>
</g>
<!-- Node1&#45;&gt;Node22 -->
<g id="edge21_Node000001_Node000022" class="edge">
<title>Node1&#45;&gt;Node22</title>
<g id="a_edge21_Node000001_Node000022"><a xlink:title=" ">
<path fill="none" stroke="#63b8ff" d="M1660.63,-146.79C1670.61,-137.32 1681.65,-126.84 1690.88,-118.07"/>
<polygon fill="#63b8ff" stroke="#63b8ff" points="1658.1,-144.37 1653.26,-153.79 1662.92,-149.45 1658.1,-144.37"/>
</a>
</g>
</g>
<!-- Node24 -->
<g id="Node000024" class="node">
<title>Node24</title>
<g id="a_Node000024"><a xlink:href="RtypeScene_8hpp.html" target="_top" xlink:title=" ">
<polygon fill="white" stroke="#666666" points="1947.5,-118 1795.5,-118 1795.5,-77 1947.5,-77 1947.5,-118"/>
<text text-anchor="start" x="1803.5" y="-106" font-family="Helvetica,sans-Serif" font-size="10.00">/home/runner/work/R</text>
<text text-anchor="start" x="1803.5" y="-95" font-family="Helvetica,sans-Serif" font-size="10.00">&#45;Type/R&#45;Type/Client</text>
<text text-anchor="middle" x="1871.5" y="-84" font-family="Helvetica,sans-Serif" font-size="10.00">/src/scenes/RtypeScene.hpp</text>
</a>
</g>
</g>
<!-- Node1&#45;&gt;Node24 -->
<g id="edge23_Node000001_Node000024" class="edge">
<title>Node1&#45;&gt;Node24</title>
<g id="a_edge23_Node000001_Node000024"><a xlink:title=" ">
<path fill="none" stroke="#63b8ff" d="M1704.38,-150.94C1737.78,-140.46 1777.11,-128.12 1809.23,-118.04"/>
<polygon fill="#63b8ff" stroke="#63b8ff" points="1703.16,-147.66 1694.67,-153.99 1705.26,-154.34 1703.16,-147.66"/>
</a>
</g>
</g>
<!-- Node26 -->
<g id="Node000026" class="node">
<title>Node26</title>
<g id="a_Node000026"><a xlink:href="Victory_8hpp.html" target="_top" xlink:title=" ">
<polygon fill="white" stroke="#666666" points="2093.5,-118 1965.5,-118 1965.5,-77 2093.5,-77 2093.5,-118"/>
<text text-anchor="start" x="1973.5" y="-106" font-family="Helvetica,sans-Serif" font-size="10.00">/home/runner/work/R</text>
<text text-anchor="start" x="1973.5" y="-95" font-family="Helvetica,sans-Serif" font-size="10.00">&#45;Type/R&#45;Type/Client</text>
<text text-anchor="middle" x="2029.5" y="-84" font-family="Helvetica,sans-Serif" font-size="10.00">/src/scenes/Victory.hpp</text>
</a>
</g>
</g>
<!-- Node1&#45;&gt;Node26 -->
<g id="edge25_Node000001_Node000026" class="edge">
<title>Node1&#45;&gt;Node26</title>
<g id="a_edge25_Node000001_Node000026"><a xlink:title=" ">
<path fill="none" stroke="#63b8ff" d="M1735.2,-158.37C1799.14,-148.34 1882.94,-134.09 1956.5,-118 1959.45,-117.36 1962.45,-116.67 1965.49,-115.95"/>
<polygon fill="#63b8ff" stroke="#63b8ff" points="1734.45,-154.94 1725.11,-159.94 1735.53,-161.86 1734.45,-154.94"/>
</a>
</g>
</g>
<!-- Node28 -->
<g id="Node000028" class="node">
<title>Node28</title>
<g id="a_Node000028"><a xlink:href="WaitLobby_8hpp.html" target="_top" xlink:title=" ">
<polygon fill="white" stroke="#666666" points="2255.5,-118 2111.5,-118 2111.5,-77 2255.5,-77 2255.5,-118"/>
<text text-anchor="start" x="2119.5" y="-106" font-family="Helvetica,sans-Serif" font-size="10.00">/home/runner/work/R</text>
<text text-anchor="start" x="2119.5" y="-95" font-family="Helvetica,sans-Serif" font-size="10.00">&#45;Type/R&#45;Type/Client</text>
<text text-anchor="middle" x="2183.5" y="-84" font-family="Helvetica,sans-Serif" font-size="10.00">/src/scenes/WaitLobby.hpp</text>
</a>
</g>
</g>
<!-- Node1&#45;&gt;Node28 -->
<g id="edge27_Node000001_Node000028" class="edge">
<title>Node1&#45;&gt;Node28</title>
<g id="a_edge27_Node000001_Node000028"><a xlink:title=" ">
<path fill="none" stroke="#63b8ff" d="M1735.52,-164.88C1831.09,-156.05 1977.05,-140.43 2102.5,-118 2105.35,-117.49 2108.24,-116.94 2111.17,-116.36"/>
<polygon fill="#63b8ff" stroke="#63b8ff" points="1734.92,-161.42 1725.28,-165.82 1735.56,-168.39 1734.92,-161.42"/>
</a>
</g>
</g>
<!-- Node30 -->
<g id="Node000030" class="node">
<title>Node30</title>
<g id="a_Node000030"><a xlink:href="ServerGame_8cpp.html" target="_top" xlink:title=" ">
<polygon fill="white" stroke="#666666" points="2393,-118 2274,-118 2274,-77 2393,-77 2393,-118"/>
<text text-anchor="start" x="2282" y="-106" font-family="Helvetica,sans-Serif" font-size="10.00">/home/runner/work/R</text>
<text text-anchor="start" x="2282" y="-95" font-family="Helvetica,sans-Serif" font-size="10.00">&#45;Type/R&#45;Type/Server</text>
<text text-anchor="middle" x="2333.5" y="-84" font-family="Helvetica,sans-Serif" font-size="10.00">/src/ServerGame.cpp</text>
</a>
</g>
</g>
<!-- Node1&#45;&gt;Node30 -->
<g id="edge29_Node000001_Node000030" class="edge">
<title>Node1&#45;&gt;Node30</title>
<g id="a_edge29_Node000001_Node000030"><a xlink:title=" ">
<path fill="none" stroke="#63b8ff" d="M1735.07,-170.41C1860.76,-165.26 2079.78,-151.9 2264.5,-118 2267.56,-117.44 2270.68,-116.8 2273.82,-116.11"/>
<polygon fill="#63b8ff" stroke="#63b8ff" points="1734.92,-166.91 1725.07,-170.81 1735.2,-173.91 1734.92,-166.91"/>
</a>
</g>
</g>
<!-- Node31 -->
<g id="Node000031" class="node">
<title>Node31</title>
<g id="a_Node000031"><a xlink:href="ChargedShoot_8cpp.html" target="_top" xlink:title=" ">
<polygon fill="white" stroke="#666666" points="2563.5,-118 2411.5,-118 2411.5,-77 2563.5,-77 2563.5,-118"/>
<text text-anchor="start" x="2419.5" y="-106" font-family="Helvetica,sans-Serif" font-size="10.00">/home/runner/work/R</text>
<text text-anchor="start" x="2419.5" y="-95" font-family="Helvetica,sans-Serif" font-size="10.00">&#45;Type/R&#45;Type/Shared</text>
<text text-anchor="middle" x="2487.5" y="-84" font-family="Helvetica,sans-Serif" font-size="10.00">/systems/ChargedShoot.cpp</text>
</a>
</g>
</g>
<!-- Node1&#45;&gt;Node31 -->
<g id="edge30_Node000001_Node000031" class="edge">
<title>Node1&#45;&gt;Node31</title>
<g id="a_edge30_Node000001_Node000031"><a xlink:title=" ">
<path fill="none" stroke="#63b8ff" d="M1735.15,-171.11C1883.28,-166.52 2165.22,-153.55 2402.5,-118 2405.34,-117.57 2408.24,-117.1 2411.15,-116.6"/>
<polygon fill="#63b8ff" stroke="#63b8ff" points="1735.05,-167.61 1725.16,-171.41 1735.26,-174.61 1735.05,-167.61"/>
</a>
</g>
</g>
<!-- Node32 -->
<g id="Node000032" class="node">
<title>Node32</title>
<g id="a_Node000032"><a xlink:href="LevelSystem_8cpp.html" target="_top" xlink:title=" ">
<polygon fill="white" stroke="#666666" points="2729,-118 2582,-118 2582,-77 2729,-77 2729,-118"/>
<text text-anchor="start" x="2590" y="-106" font-family="Helvetica,sans-Serif" font-size="10.00">/home/runner/work/R</text>
<text text-anchor="start" x="2590" y="-95" font-family="Helvetica,sans-Serif" font-size="10.00">&#45;Type/R&#45;Type/Shared</text>
<text text-anchor="middle" x="2655.5" y="-84" font-family="Helvetica,sans-Serif" font-size="10.00">/systems/LevelSystem.cpp</text>
</a>
</g>
</g>
<!-- Node1&#45;&gt;Node32 -->
<g id="edge31_Node000001_Node000032" class="edge">
<title>Node1&#45;&gt;Node32</title>
<g id="a_edge31_Node000001_Node000032"><a xlink:title=" ">
<path fill="none" stroke="#63b8ff" d="M1735.24,-173.19C1908.72,-171.38 2270.35,-162.08 2572.5,-118 2575.58,-117.55 2578.71,-117.04 2581.86,-116.49"/>
<polygon fill="#63b8ff" stroke="#63b8ff" points="1735.06,-169.69 1725.1,-173.29 1735.13,-176.69 1735.06,-169.69"/>
</a>
</g>
</g>
<!-- Node33 -->
<g id="Node000033" class="node">
<title>Node33</title>
<g id="a_Node000033"><a xlink:href="Movement_8cpp.html" target="_top" xlink:title=" ">
<polygon fill="white" stroke="#666666" points="2939.5,-118 2747.5,-118 2747.5,-77 2939.5,-77 2939.5,-118"/>
<text text-anchor="start" x="2755.5" y="-106" font-family="Helvetica,sans-Serif" font-size="10.00">/home/runner/work/R</text>
<text text-anchor="start" x="2755.5" y="-95" font-family="Helvetica,sans-Serif" font-size="10.00">&#45;Type/R&#45;Type/Shared</text>
<text text-anchor="middle" x="2843.5" y="-84" font-family="Helvetica,sans-Serif" font-size="10.00">/systems/Movement/Movement.cpp</text>
</a>
</g>
</g>
<!-- Node1&#45;&gt;Node33 -->
<g id="edge32_Node000001_Node000033" class="edge">
<title>Node1&#45;&gt;Node33</title>
<g id="a_edge32_Node000001_Node000033"><a xlink:title=" ">
<path fill="none" stroke="#63b8ff" d="M1735.63,-172.91C1931.66,-170.77 2371.3,-161.12 2738.5,-118 2741.45,-117.65 2744.43,-117.28 2747.45,-116.87"/>
<polygon fill="#63b8ff" stroke="#63b8ff" points="1735.3,-169.41 1725.34,-173.02 1735.38,-176.41 1735.3,-169.41"/>
</a>
</g>
</g>
<!-- Node34 -->
<g id="Node000034" class="node">
<title>Node34</title>
<g id="a_Node000034"><a xlink:href="Spawn_8cpp.html" target="_top" xlink:title=" ">
<polygon fill="white" stroke="#666666" points="3143,-118 2958,-118 2958,-77 3143,-77 3143,-118"/>
<text text-anchor="start" x="2966" y="-106" font-family="Helvetica,sans-Serif" font-size="10.00">/home/runner/work/R</text>
<text text-anchor="start" x="2966" y="-95" font-family="Helvetica,sans-Serif" font-size="10.00">&#45;Type/R&#45;Type/Shared</text>
<text text-anchor="middle" x="3050.5" y="-84" font-family="Helvetica,sans-Serif" font-size="10.00">/systems/SpawnEnemy/Spawn.cpp</text>
</a>
</g>
</g>
<!-- Node1&#45;&gt;Node34 -->
<g id="edge33_Node000001_Node000034" class="edge">
<title>Node1&#45;&gt;Node34</title>
<g id="a_edge33_Node000001_Node000034"><a xlink:title=" ">
<path fill="none" stroke="#63b8ff" d="M1735.01,-174.28C1957.02,-174.85 2498.56,-170.21 2948.5,-118 2951.54,-117.65 2954.63,-117.25 2957.75,-116.83"/>
<polygon fill="#63b8ff" stroke="#63b8ff" points="1735.02,-170.78 1725.01,-174.25 1734.99,-177.78 1735.02,-170.78"/>
</a>
</g>
</g>
<!-- Node35 -->
<g id="Node000035" class="node">
<title>Node35</title>
<g id="a_Node000035"><a xlink:href="WaveSystem_8cpp.html" target="_top" xlink:title=" ">
<polygon fill="white" stroke="#666666" points="3309.5,-118 3161.5,-118 3161.5,-77 3309.5,-77 3309.5,-118"/>
<text text-anchor="start" x="3169.5" y="-106" font-family="Helvetica,sans-Serif" font-size="10.00">/home/runner/work/R</text>
<text text-anchor="start" x="3169.5" y="-95" font-family="Helvetica,sans-Serif" font-size="10.00">&#45;Type/R&#45;Type/Shared</text>
<text text-anchor="middle" x="3235.5" y="-84" font-family="Helvetica,sans-Serif" font-size="10.00">/systems/WaveSystem.cpp</text>
</a>
</g>
</g>
<!-- Node1&#45;&gt;Node35 -->
<g id="edge34_Node000001_Node000035" class="edge">
<title>Node1&#45;&gt;Node35</title>
<g id="a_edge34_Node000001_Node000035"><a xlink:title=" ">
<path fill="none" stroke="#63b8ff" d="M1735.44,-172.35C2030.84,-168.62 2877.69,-154.94 3152.5,-118 3155.43,-117.61 3158.42,-117.15 3161.42,-116.66"/>
<polygon fill="#63b8ff" stroke="#63b8ff" points="1735.12,-168.85 1725.16,-172.48 1735.2,-175.85 1735.12,-168.85"/>
</a>
</g>
</g>
<!-- Node3 -->
<g id="Node000003" class="node">
<title>Node3</title>
<g id="a_Node000003"><a xlink:href="CreateLobby_8cpp.html" target="_top" xlink:title=" ">
<polygon fill="white" stroke="#666666" points="154.5,-41 0.5,-41 0.5,0 154.5,0 154.5,-41"/>
<text text-anchor="start" x="8.5" y="-29" font-family="Helvetica,sans-Serif" font-size="10.00">/home/runner/work/R</text>
<text text-anchor="start" x="8.5" y="-18" font-family="Helvetica,sans-Serif" font-size="10.00">&#45;Type/R&#45;Type/Client</text>
<text text-anchor="middle" x="77.5" y="-7" font-family="Helvetica,sans-Serif" font-size="10.00">/src/scenes/CreateLobby.cpp</text>
</a>
</g>
</g>
<!-- Node2&#45;&gt;Node3 -->
<g id="edge2_Node000002_Node000003" class="edge">
<title>Node2&#45;&gt;Node3</title>
<g id="a_edge2_Node000002_Node000003"><a xlink:title=" ">
<path fill="none" stroke="#63b8ff" d="M77.5,-66.69C77.5,-58.08 77.5,-48.9 77.5,-41.07"/>
<polygon fill="#63b8ff" stroke="#63b8ff" points="74,-66.79 77.5,-76.79 81,-66.79 74,-66.79"/>
</a>
</g>
</g>
<!-- Node5 -->
<g id="Node000005" class="node">
<title>Node5</title>
<g id="a_Node000005"><a xlink:href="GameOver_8cpp.html" target="_top" xlink:title=" ">
<polygon fill="white" stroke="#666666" points="319.5,-41 173.5,-41 173.5,0 319.5,0 319.5,-41"/>
<text text-anchor="start" x="181.5" y="-29" font-family="Helvetica,sans-Serif" font-size="10.00">/home/runner/work/R</text>
<text text-anchor="start" x="181.5" y="-18" font-family="Helvetica,sans-Serif" font-size="10.00">&#45;Type/R&#45;Type/Client</text>
<text text-anchor="middle" x="246.5" y="-7" font-family="Helvetica,sans-Serif" font-size="10.00">/src/scenes/GameOver.cpp</text>
</a>
</g>
</g>
<!-- Node4&#45;&gt;Node5 -->
<g id="edge4_Node000004_Node000005" class="edge">
<title>Node4&#45;&gt;Node5</title>
<g id="a_edge4_Node000004_Node000005"><a xlink:title=" ">
<path fill="none" stroke="#63b8ff" d="M246.5,-66.69C246.5,-58.08 246.5,-48.9 246.5,-41.07"/>
<polygon fill="#63b8ff" stroke="#63b8ff" points="243,-66.79 246.5,-76.79 250,-66.79 243,-66.79"/>
</a>
</g>
</g>
<!-- Node7 -->
<g id="Node000007" class="node">
<title>Node7</title>
<g id="a_Node000007"><a xlink:href="JoinGame_8cpp.html" target="_top" xlink:title=" ">
<polygon fill="white" stroke="#666666" points="479,-41 338,-41 338,0 479,0 479,-41"/>
<text text-anchor="start" x="346" y="-29" font-family="Helvetica,sans-Serif" font-size="10.00">/home/runner/work/R</text>
<text text-anchor="start" x="346" y="-18" font-family="Helvetica,sans-Serif" font-size="10.00">&#45;Type/R&#45;Type/Client</text>
<text text-anchor="middle" x="408.5" y="-7" font-family="Helvetica,sans-Serif" font-size="10.00">/src/scenes/JoinGame.cpp</text>
</a>
</g>
</g>
<!-- Node6&#45;&gt;Node7 -->
<g id="edge6_Node000006_Node000007" class="edge">
<title>Node6&#45;&gt;Node7</title>
<g id="a_edge6_Node000006_Node000007"><a xlink:title=" ">
<path fill="none" stroke="#63b8ff" d="M408.5,-66.69C408.5,-58.08 408.5,-48.9 408.5,-41.07"/>
<polygon fill="#63b8ff" stroke="#63b8ff" points="405,-66.79 408.5,-76.79 412,-66.79 405,-66.79"/>
</a>
</g>
</g>
<!-- Node9 -->
<g id="Node000009" class="node">
<title>Node9</title>
<g id="a_Node000009"><a xlink:href="LevelScene_8cpp.html" target="_top" xlink:title=" ">
<polygon fill="white" stroke="#666666" points="647,-41 498,-41 498,0 647,0 647,-41"/>
<text text-anchor="start" x="506" y="-29" font-family="Helvetica,sans-Serif" font-size="10.00">/home/runner/work/R</text>
<text text-anchor="start" x="506" y="-18" font-family="Helvetica,sans-Serif" font-size="10.00">&#45;Type/R&#45;Type/Client</text>
<text text-anchor="middle" x="572.5" y="-7" font-family="Helvetica,sans-Serif" font-size="10.00">/src/scenes/LevelScene.cpp</text>
</a>
</g>
</g>
<!-- Node8&#45;&gt;Node9 -->
<g id="edge8_Node000008_Node000009" class="edge">
<title>Node8&#45;&gt;Node9</title>
<g id="a_edge8_Node000008_Node000009"><a xlink:title=" ">
<path fill="none" stroke="#63b8ff" d="M572.5,-66.69C572.5,-58.08 572.5,-48.9 572.5,-41.07"/>
<polygon fill="#63b8ff" stroke="#63b8ff" points="569,-66.79 572.5,-76.79 576,-66.79 569,-66.79"/>
</a>
</g>
</g>
<!-- Node11 -->
<g id="Node000011" class="node">
<title>Node11</title>
<g id="a_Node000011"><a xlink:href="Lobby_8cpp.html" target="_top" xlink:title=" ">
<polygon fill="white" stroke="#666666" points="787.5,-41 665.5,-41 665.5,0 787.5,0 787.5,-41"/>
<text text-anchor="start" x="673.5" y="-29" font-family="Helvetica,sans-Serif" font-size="10.00">/home/runner/work/R</text>
<text text-anchor="start" x="673.5" y="-18" font-family="Helvetica,sans-Serif" font-size="10.00">&#45;Type/R&#45;Type/Client</text>
<text text-anchor="middle" x="726.5" y="-7" font-family="Helvetica,sans-Serif" font-size="10.00">/src/scenes/Lobby.cpp</text>
</a>
</g>
</g>
<!-- Node10&#45;&gt;Node11 -->
<g id="edge10_Node000010_Node000011" class="edge">
<title>Node10&#45;&gt;Node11</title>
<g id="a_edge10_Node000010_Node000011"><a xlink:title=" ">
<path fill="none" stroke="#63b8ff" d="M726.5,-66.69C726.5,-58.08 726.5,-48.9 726.5,-41.07"/>
<polygon fill="#63b8ff" stroke="#63b8ff" points="723,-66.79 726.5,-76.79 730,-66.79 723,-66.79"/>
</a>
</g>
</g>
<!-- Node13 -->
<g id="Node000013" class="node">
<title>Node13</title>
<g id="a_Node000013"><a xlink:href="LobbyInfo_8cpp.html" target="_top" xlink:title=" ">
<polygon fill="white" stroke="#666666" points="948.5,-41 806.5,-41 806.5,0 948.5,0 948.5,-41"/>
<text text-anchor="start" x="814.5" y="-29" font-family="Helvetica,sans-Serif" font-size="10.00">/home/runner/work/R</text>
<text text-anchor="start" x="814.5" y="-18" font-family="Helvetica,sans-Serif" font-size="10.00">&#45;Type/R&#45;Type/Client</text>
<text text-anchor="middle" x="877.5" y="-7" font-family="Helvetica,sans-Serif" font-size="10.00">/src/scenes/LobbyInfo.cpp</text>
</a>
</g>
</g>
<!-- Node12&#45;&gt;Node13 -->
<g id="edge12_Node000012_Node000013" class="edge">
<title>Node12&#45;&gt;Node13</title>
<g id="a_edge12_Node000012_Node000013"><a xlink:title=" ">
<path fill="none" stroke="#63b8ff" d="M877.5,-66.69C877.5,-58.08 877.5,-48.9 877.5,-41.07"/>
<polygon fill="#63b8ff" stroke="#63b8ff" points="874,-66.79 877.5,-76.79 881,-66.79 874,-66.79"/>
</a>
</g>
</g>
<!-- Node15 -->
<g id="Node000015" class="node">
<title>Node15</title>
<g id="a_Node000015"><a xlink:href="LobbyJoin_8cpp.html" target="_top" xlink:title=" ">
<polygon fill="white" stroke="#666666" points="1109,-41 968,-41 968,0 1109,0 1109,-41"/>
<text text-anchor="start" x="976" y="-29" font-family="Helvetica,sans-Serif" font-size="10.00">/home/runner/work/R</text>
<text text-anchor="start" x="976" y="-18" font-family="Helvetica,sans-Serif" font-size="10.00">&#45;Type/R&#45;Type/Client</text>
<text text-anchor="middle" x="1038.5" y="-7" font-family="Helvetica,sans-Serif" font-size="10.00">/src/scenes/LobbyJoin.cpp</text>
</a>
</g>
</g>
<!-- Node14&#45;&gt;Node15 -->
<g id="edge14_Node000014_Node000015" class="edge">
<title>Node14&#45;&gt;Node15</title>
<g id="a_edge14_Node000014_Node000015"><a xlink:title=" ">
<path fill="none" stroke="#63b8ff" d="M1038.5,-66.69C1038.5,-58.08 1038.5,-48.9 1038.5,-41.07"/>
<polygon fill="#63b8ff" stroke="#63b8ff" points="1035,-66.79 1038.5,-76.79 1042,-66.79 1035,-66.79"/>
</a>
</g>
</g>
<!-- Node17 -->
<g id="Node000017" class="node">
<title>Node17</title>
<g id="a_Node000017"><a xlink:href="LobbyPassword_8cpp.html" target="_top" xlink:title=" ">
<polygon fill="white" stroke="#666666" points="1297,-41 1128,-41 1128,0 1297,0 1297,-41"/>
<text text-anchor="start" x="1136" y="-29" font-family="Helvetica,sans-Serif" font-size="10.00">/home/runner/work/R</text>
<text text-anchor="start" x="1136" y="-18" font-family="Helvetica,sans-Serif" font-size="10.00">&#45;Type/R&#45;Type/Client</text>
<text text-anchor="middle" x="1212.5" y="-7" font-family="Helvetica,sans-Serif" font-size="10.00">/src/scenes/LobbyPassword.cpp</text>
</a>
</g>
</g>
<!-- Node16&#45;&gt;Node17 -->
<g id="edge16_Node000016_Node000017" class="edge">
<title>Node16&#45;&gt;Node17</title>
<g id="a_edge16_Node000016_Node000017"><a xlink:title=" ">
<path fill="none" stroke="#63b8ff" d="M1212.5,-66.69C1212.5,-58.08 1212.5,-48.9 1212.5,-41.07"/>
<polygon fill="#63b8ff" stroke="#63b8ff" points="1209,-66.79 1212.5,-76.79 1216,-66.79 1209,-66.79"/>
</a>
</g>
</g>
<!-- Node19 -->
<g id="Node000019" class="node">
<title>Node19</title>
<g id="a_Node000019"><a xlink:href="MainGame_8cpp.html" target="_top" xlink:title=" ">
<polygon fill="white" stroke="#666666" points="1463,-41 1316,-41 1316,0 1463,0 1463,-41"/>
<text text-anchor="start" x="1324" y="-29" font-family="Helvetica,sans-Serif" font-size="10.00">/home/runner/work/R</text>
<text text-anchor="start" x="1324" y="-18" font-family="Helvetica,sans-Serif" font-size="10.00">&#45;Type/R&#45;Type/Client</text>
<text text-anchor="middle" x="1389.5" y="-7" font-family="Helvetica,sans-Serif" font-size="10.00">/src/scenes/MainGame.cpp</text>
</a>
</g>
</g>
<!-- Node18&#45;&gt;Node19 -->
<g id="edge18_Node000018_Node000019" class="edge">
<title>Node18&#45;&gt;Node19</title>
<g id="a_edge18_Node000018_Node000019"><a xlink:title=" ">
<path fill="none" stroke="#63b8ff" d="M1389.5,-66.69C1389.5,-58.08 1389.5,-48.9 1389.5,-41.07"/>
<polygon fill="#63b8ff" stroke="#63b8ff" points="1386,-66.79 1389.5,-76.79 1393,-66.79 1386,-66.79"/>
</a>
</g>
</g>
<!-- Node21 -->
<g id="Node000021" class="node">
<title>Node21</title>
<g id="a_Node000021"><a xlink:href="MainMenu_8cpp.html" target="_top" xlink:title=" ">
<polygon fill="white" stroke="#666666" points="1627,-41 1482,-41 1482,0 1627,0 1627,-41"/>
<text text-anchor="start" x="1490" y="-29" font-family="Helvetica,sans-Serif" font-size="10.00">/home/runner/work/R</text>
<text text-anchor="start" x="1490" y="-18" font-family="Helvetica,sans-Serif" font-size="10.00">&#45;Type/R&#45;Type/Client</text>
<text text-anchor="middle" x="1554.5" y="-7" font-family="Helvetica,sans-Serif" font-size="10.00">/src/scenes/MainMenu.cpp</text>
</a>
</g>
</g>
<!-- Node20&#45;&gt;Node21 -->
<g id="edge20_Node000020_Node000021" class="edge">
<title>Node20&#45;&gt;Node21</title>
<g id="a_edge20_Node000020_Node000021"><a xlink:title=" ">
<path fill="none" stroke="#63b8ff" d="M1554.5,-66.69C1554.5,-58.08 1554.5,-48.9 1554.5,-41.07"/>
<polygon fill="#63b8ff" stroke="#63b8ff" points="1551,-66.79 1554.5,-76.79 1558,-66.79 1551,-66.79"/>
</a>
</g>
</g>
<!-- Node23 -->
<g id="Node000023" class="node">
<title>Node23</title>
<g id="a_Node000023"><a xlink:href="Options_8cpp.html" target="_top" xlink:title=" ">
<polygon fill="white" stroke="#666666" points="1777,-41 1646,-41 1646,0 1777,0 1777,-41"/>
<text text-anchor="start" x="1654" y="-29" font-family="Helvetica,sans-Serif" font-size="10.00">/home/runner/work/R</text>
<text text-anchor="start" x="1654" y="-18" font-family="Helvetica,sans-Serif" font-size="10.00">&#45;Type/R&#45;Type/Client</text>
<text text-anchor="middle" x="1711.5" y="-7" font-family="Helvetica,sans-Serif" font-size="10.00">/src/scenes/Options.cpp</text>
</a>
</g>
</g>
<!-- Node22&#45;&gt;Node23 -->
<g id="edge22_Node000022_Node000023" class="edge">
<title>Node22&#45;&gt;Node23</title>
<g id="a_edge22_Node000022_Node000023"><a xlink:title=" ">
<path fill="none" stroke="#63b8ff" d="M1711.5,-66.69C1711.5,-58.08 1711.5,-48.9 1711.5,-41.07"/>
<polygon fill="#63b8ff" stroke="#63b8ff" points="1708,-66.79 1711.5,-76.79 1715,-66.79 1708,-66.79"/>
</a>
</g>
</g>
<!-- Node25 -->
<g id="Node000025" class="node">
<title>Node25</title>
<g id="a_Node000025"><a xlink:href="RtypeScene_8cpp.html" target="_top" xlink:title=" ">
<polygon fill="white" stroke="#666666" points="1947.5,-41 1795.5,-41 1795.5,0 1947.5,0 1947.5,-41"/>
<text text-anchor="start" x="1803.5" y="-29" font-family="Helvetica,sans-Serif" font-size="10.00">/home/runner/work/R</text>
<text text-anchor="start" x="1803.5" y="-18" font-family="Helvetica,sans-Serif" font-size="10.00">&#45;Type/R&#45;Type/Client</text>
<text text-anchor="middle" x="1871.5" y="-7" font-family="Helvetica,sans-Serif" font-size="10.00">/src/scenes/RtypeScene.cpp</text>
</a>
</g>
</g>
<!-- Node24&#45;&gt;Node25 -->
<g id="edge24_Node000024_Node000025" class="edge">
<title>Node24&#45;&gt;Node25</title>
<g id="a_edge24_Node000024_Node000025"><a xlink:title=" ">
<path fill="none" stroke="#63b8ff" d="M1871.5,-66.69C1871.5,-58.08 1871.5,-48.9 1871.5,-41.07"/>
<polygon fill="#63b8ff" stroke="#63b8ff" points="1868,-66.79 1871.5,-76.79 1875,-66.79 1868,-66.79"/>
</a>
</g>
</g>
<!-- Node27 -->
<g id="Node000027" class="node">
<title>Node27</title>
<g id="a_Node000027"><a xlink:href="Victory_8cpp.html" target="_top" xlink:title=" ">
<polygon fill="white" stroke="#666666" points="2093,-41 1966,-41 1966,0 2093,0 2093,-41"/>
<text text-anchor="start" x="1974" y="-29" font-family="Helvetica,sans-Serif" font-size="10.00">/home/runner/work/R</text>
<text text-anchor="start" x="1974" y="-18" font-family="Helvetica,sans-Serif" font-size="10.00">&#45;Type/R&#45;Type/Client</text>
<text text-anchor="middle" x="2029.5" y="-7" font-family="Helvetica,sans-Serif" font-size="10.00">/src/scenes/Victory.cpp</text>
</a>
</g>
</g>
<!-- Node26&#45;&gt;Node27 -->
<g id="edge26_Node000026_Node000027" class="edge">
<title>Node26&#45;&gt;Node27</title>
<g id="a_edge26_Node000026_Node000027"><a xlink:title=" ">
<path fill="none" stroke="#63b8ff" d="M2029.5,-66.69C2029.5,-58.08 2029.5,-48.9 2029.5,-41.07"/>
<polygon fill="#63b8ff" stroke="#63b8ff" points="2026,-66.79 2029.5,-76.79 2033,-66.79 2026,-66.79"/>
</a>
</g>
</g>
<!-- Node29 -->
<g id="Node000029" class="node">
<title>Node29</title>
<g id="a_Node000029"><a xlink:href="WaitLobby_8cpp.html" target="_top" xlink:title=" ">
<polygon fill="white" stroke="#666666" points="2255,-41 2112,-41 2112,0 2255,0 2255,-41"/>
<text text-anchor="start" x="2120" y="-29" font-family="Helvetica,sans-Serif" font-size="10.00">/home/runner/work/R</text>
<text text-anchor="start" x="2120" y="-18" font-family="Helvetica,sans-Serif" font-size="10.00">&#45;Type/R&#45;Type/Client</text>
<text text-anchor="middle" x="2183.5" y="-7" font-family="Helvetica,sans-Serif" font-size="10.00">/src/scenes/WaitLobby.cpp</text>
</a>
</g>
</g>
<!-- Node28&#45;&gt;Node29 -->
<g id="edge28_Node000028_Node000029" class="edge">
<title>Node28&#45;&gt;Node29</title>
<g id="a_edge28_Node000028_Node000029"><a xlink:title=" ">
<path fill="none" stroke="#63b8ff" d="M2183.5,-66.69C2183.5,-58.08 2183.5,-48.9 2183.5,-41.07"/>
<polygon fill="#63b8ff" stroke="#63b8ff" points="2180,-66.79 2183.5,-76.79 2187,-66.79 2180,-66.79"/>
</a>
</g>
</g>
</g>
</svg>
