<?xml version="1.0" encoding="UTF-8" standalone="no"?>
<!DOCTYPE svg PUBLIC "-//W3C//DTD SVG 1.1//EN"
 "http://www.w3.org/Graphics/SVG/1.1/DTD/svg11.dtd">
<!-- Generated by graphviz version 2.43.0 (0)
 -->
<!-- Title: /home/runner/work/R&#45;Type/R&#45;Type/Shared/network/Event.hpp Pages: 1 -->
<svg width="481pt" height="522pt"
 viewBox="0.00 0.00 481.00 522.00" xmlns="http://www.w3.org/2000/svg" xmlns:xlink="http://www.w3.org/1999/xlink">
<g id="graph0" class="graph" transform="scale(1 1) rotate(0) translate(4 518)">
<title>/home/runner/work/R&#45;Type/R&#45;Type/Shared/network/Event.hpp</title>
<!-- Node1 -->
<g id="Node000001" class="node">
<title>Node1</title>
<g id="a_Node000001"><a xlink:title=" ">
<polygon fill="#999999" stroke="#666666" points="356,-514 237,-514 237,-473 356,-473 356,-514"/>
<text text-anchor="start" x="245" y="-502" font-family="Helvetica,sans-Serif" font-size="10.00">/home/runner/work/R</text>
<text text-anchor="start" x="245" y="-491" font-family="Helvetica,sans-Serif" font-size="10.00">&#45;Type/R&#45;Type/Shared</text>
<text text-anchor="middle" x="296.5" y="-480" font-family="Helvetica,sans-Serif" font-size="10.00">/network/Event.hpp</text>
</a>
</g>
</g>
<!-- Node2 -->
<g id="Node000002" class="node">
<title>Node2</title>
<g id="a_Node000002"><a xlink:href="DecodeFunc_8hpp.html" target="_top" xlink:title=" ">
<polygon fill="white" stroke="#666666" points="293,-360 150,-360 150,-319 293,-319 293,-360"/>
<text text-anchor="start" x="158" y="-348" font-family="Helvetica,sans-Serif" font-size="10.00">/home/runner/work/R</text>
<text text-anchor="start" x="158" y="-337" font-family="Helvetica,sans-Serif" font-size="10.00">&#45;Type/R&#45;Type/Shared</text>
<text text-anchor="middle" x="221.5" y="-326" font-family="Helvetica,sans-Serif" font-size="10.00">/network/DecodeFunc.hpp</text>
</a>
</g>
</g>
<!-- Node1&#45;&gt;Node2 -->
<g id="edge1_Node000001_Node000002" class="edge">
<title>Node1&#45;&gt;Node2</title>
<g id="a_edge1_Node000001_Node000002"><a xlink:title=" ">
<path fill="none" stroke="#63b8ff" d="M282.32,-463.76C267.42,-433.57 244.38,-386.87 231.35,-360.47"/>
<polygon fill="#63b8ff" stroke="#63b8ff" points="279.28,-465.52 286.85,-472.94 285.56,-462.42 279.28,-465.52"/>
</a>
</g>
</g>
<!-- Node11 -->
<g id="Node000011" class="node">
<title>Node11</title>
<g id="a_Node000011"><a xlink:href="Decoder_8hpp.html" target="_top" xlink:title=" ">
<polygon fill="white" stroke="#666666" points="418,-437 295,-437 295,-396 418,-396 418,-437"/>
<text text-anchor="start" x="303" y="-425" font-family="Helvetica,sans-Serif" font-size="10.00">/home/runner/work/R</text>
<text text-anchor="start" x="303" y="-414" font-family="Helvetica,sans-Serif" font-size="10.00">&#45;Type/R&#45;Type/Shared</text>
<text text-anchor="middle" x="356.5" y="-403" font-family="Helvetica,sans-Serif" font-size="10.00">/network/Decoder.hpp</text>
</a>
</g>
</g>
<!-- Node1&#45;&gt;Node11 -->
<g id="edge12_Node000001_Node000011" class="edge">
<title>Node1&#45;&gt;Node11</title>
<g id="a_edge12_Node000001_Node000011"><a xlink:title=" ">
<path fill="none" stroke="#63b8ff" d="M318.54,-464.95C325.94,-455.7 334.03,-445.58 340.84,-437.07"/>
<polygon fill="#63b8ff" stroke="#63b8ff" points="315.78,-462.8 312.26,-472.79 321.24,-467.17 315.78,-462.8"/>
</a>
</g>
</g>
<!-- Node3 -->
<g id="Node000003" class="node">
<title>Node3</title>
<g id="a_Node000003"><a xlink:href="ServerGame_8hpp.html" target="_top" xlink:title=" ">
<polygon fill="white" stroke="#666666" points="197.5,-118 57.5,-118 57.5,-77 197.5,-77 197.5,-118"/>
<text text-anchor="start" x="65.5" y="-106" font-family="Helvetica,sans-Serif" font-size="10.00">/home/runner/work/R</text>
<text text-anchor="start" x="65.5" y="-95" font-family="Helvetica,sans-Serif" font-size="10.00">&#45;Type/R&#45;Type/Server</text>
<text text-anchor="middle" x="127.5" y="-84" font-family="Helvetica,sans-Serif" font-size="10.00">/include/ServerGame.hpp</text>
</a>
</g>
</g>
<!-- Node2&#45;&gt;Node3 -->
<g id="edge2_Node000002_Node000003" class="edge">
<title>Node2&#45;&gt;Node3</title>
<g id="a_edge2_Node000002_Node000003"><a xlink:title=" ">
<path fill="none" stroke="#63b8ff" d="M139.79,-331.24C107.32,-324.01 72.72,-309.98 51.5,-283 16.02,-237.89 18.59,-204.7 45.5,-154 53.64,-138.66 68.12,-126.79 82.67,-118.03"/>
<polygon fill="#63b8ff" stroke="#63b8ff" points="139.28,-334.71 149.78,-333.27 140.67,-327.85 139.28,-334.71"/>
</a>
</g>
</g>
<!-- Node6 -->
<g id="Node000006" class="node">
<title>Node6</title>
<g id="a_Node000006"><a xlink:href="TCPServer_8hpp.html" target="_top" xlink:title=" ">
<polygon fill="white" stroke="#666666" points="230.5,-283 60.5,-283 60.5,-242 230.5,-242 230.5,-283"/>
<text text-anchor="start" x="68.5" y="-271" font-family="Helvetica,sans-Serif" font-size="10.00">/home/runner/work/R</text>
<text text-anchor="start" x="68.5" y="-260" font-family="Helvetica,sans-Serif" font-size="10.00">&#45;Type/R&#45;Type/Server</text>
<text text-anchor="middle" x="145.5" y="-249" font-family="Helvetica,sans-Serif" font-size="10.00">/include/network/TCPServer.hpp</text>
</a>
</g>
</g>
<!-- Node2&#45;&gt;Node6 -->
<g id="edge5_Node000002_Node000006" class="edge">
<title>Node2&#45;&gt;Node6</title>
<g id="a_edge5_Node000002_Node000006"><a xlink:title=" ">
<path fill="none" stroke="#63b8ff" d="M194.15,-311.51C184.63,-302.11 174.13,-291.76 165.33,-283.07"/>
<polygon fill="#63b8ff" stroke="#63b8ff" points="191.96,-314.26 201.53,-318.79 196.87,-309.28 191.96,-314.26"/>
</a>
</g>
</g>
<!-- Node8 -->
<g id="Node000008" class="node">
<title>Node8</title>
<g id="a_Node000008"><a xlink:href="ServerNetworkManager_8cpp.html" target="_top" xlink:title=" ">
<polygon fill="white" stroke="#666666" points="473,-118 258,-118 258,-77 473,-77 473,-118"/>
<text text-anchor="start" x="266" y="-106" font-family="Helvetica,sans-Serif" font-size="10.00">/home/runner/work/R</text>
<text text-anchor="start" x="266" y="-95" font-family="Helvetica,sans-Serif" font-size="10.00">&#45;Type/R&#45;Type/Server</text>
<text text-anchor="middle" x="365.5" y="-84" font-family="Helvetica,sans-Serif" font-size="10.00">/src/network/ServerNetworkManager.cpp</text>
</a>
</g>
</g>
<!-- Node2&#45;&gt;Node8 -->
<g id="edge10_Node000002_Node000008" class="edge">
<title>Node2&#45;&gt;Node8</title>
<g id="a_edge10_Node000002_Node000008"><a xlink:title=" ">
<path fill="none" stroke="#63b8ff" d="M303.06,-317.58C346.76,-305.59 392.96,-291.31 399.5,-283 434.98,-237.91 421.8,-208.71 404.5,-154 400.35,-140.86 391.84,-128.14 383.83,-118.2"/>
<polygon fill="#63b8ff" stroke="#63b8ff" points="301.94,-314.26 293.21,-320.26 303.78,-321.01 301.94,-314.26"/>
</a>
</g>
</g>
<!-- Node10 -->
<g id="Node000010" class="node">
<title>Node10</title>
<g id="a_Node000010"><a xlink:href="DecodeFunc_8cpp.html" target="_top" xlink:title=" ">
<polygon fill="white" stroke="#666666" points="390.5,-283 248.5,-283 248.5,-242 390.5,-242 390.5,-283"/>
<text text-anchor="start" x="256.5" y="-271" font-family="Helvetica,sans-Serif" font-size="10.00">/home/runner/work/R</text>
<text text-anchor="start" x="256.5" y="-260" font-family="Helvetica,sans-Serif" font-size="10.00">&#45;Type/R&#45;Type/Shared</text>
<text text-anchor="middle" x="319.5" y="-249" font-family="Helvetica,sans-Serif" font-size="10.00">/network/DecodeFunc.cpp</text>
</a>
</g>
</g>
<!-- Node2&#45;&gt;Node10 -->
<g id="edge11_Node000002_Node000010" class="edge">
<title>Node2&#45;&gt;Node10</title>
<g id="a_edge11_Node000002_Node000010"><a xlink:title=" ">
<path fill="none" stroke="#63b8ff" d="M255.06,-312.82C267.74,-303.11 281.95,-292.24 293.79,-283.17"/>
<polygon fill="#63b8ff" stroke="#63b8ff" points="252.81,-310.13 246.99,-318.99 257.06,-315.69 252.81,-310.13"/>
</a>
</g>
</g>
<!-- Node4 -->
<g id="Node000004" class="node">
<title>Node4</title>
<g id="a_Node000004"><a xlink:href="ServerGame_8cpp.html" target="_top" xlink:title=" ">
<polygon fill="white" stroke="#666666" points="119,-41 0,-41 0,0 119,0 119,-41"/>
<text text-anchor="start" x="8" y="-29" font-family="Helvetica,sans-Serif" font-size="10.00">/home/runner/work/R</text>
<text text-anchor="start" x="8" y="-18" font-family="Helvetica,sans-Serif" font-size="10.00">&#45;Type/R&#45;Type/Server</text>
<text text-anchor="middle" x="59.5" y="-7" font-family="Helvetica,sans-Serif" font-size="10.00">/src/ServerGame.cpp</text>
</a>
</g>
</g>
<!-- Node3&#45;&gt;Node4 -->
<g id="edge3_Node000003_Node000004" class="edge">
<title>Node3&#45;&gt;Node4</title>
<g id="a_edge3_Node000003_Node000004"><a xlink:title=" ">
<path fill="none" stroke="#63b8ff" d="M102.78,-69.23C94.32,-59.91 85.04,-49.67 77.25,-41.07"/>
<polygon fill="#63b8ff" stroke="#63b8ff" points="100.32,-71.74 109.63,-76.79 105.51,-67.04 100.32,-71.74"/>
</a>
</g>
</g>
<!-- Node5 -->
<g id="Node000005" class="node">
<title>Node5</title>
<g id="a_Node000005"><a xlink:href="main_8cpp.html" target="_top" xlink:title=" ">
<polygon fill="white" stroke="#666666" points="256,-41 137,-41 137,0 256,0 256,-41"/>
<text text-anchor="start" x="145" y="-29" font-family="Helvetica,sans-Serif" font-size="10.00">/home/runner/work/R</text>
<text text-anchor="start" x="145" y="-18" font-family="Helvetica,sans-Serif" font-size="10.00">&#45;Type/R&#45;Type/Server</text>
<text text-anchor="middle" x="196.5" y="-7" font-family="Helvetica,sans-Serif" font-size="10.00">/src/main.cpp</text>
</a>
</g>
</g>
<!-- Node3&#45;&gt;Node5 -->
<g id="edge4_Node000003_Node000005" class="edge">
<title>Node3&#45;&gt;Node5</title>
<g id="a_edge4_Node000003_Node000005"><a xlink:title=" ">
<path fill="none" stroke="#63b8ff" d="M152.59,-69.23C161.16,-59.91 170.58,-49.67 178.49,-41.07"/>
<polygon fill="#63b8ff" stroke="#63b8ff" points="149.82,-67.07 145.63,-76.79 154.98,-71.81 149.82,-67.07"/>
</a>
</g>
</g>
<!-- Node7 -->
<g id="Node000007" class="node">
<title>Node7</title>
<g id="a_Node000007"><a xlink:href="ServerNetworkManager_8hpp.html" target="_top" xlink:title=" ">
<polygon fill="white" stroke="#666666" points="395,-206 222,-206 222,-154 395,-154 395,-206"/>
<text text-anchor="start" x="230" y="-194" font-family="Helvetica,sans-Serif" font-size="10.00">/home/runner/work/R</text>
<text text-anchor="start" x="230" y="-183" font-family="Helvetica,sans-Serif" font-size="10.00">&#45;Type/R&#45;Type/Server</text>
<text text-anchor="start" x="230" y="-172" font-family="Helvetica,sans-Serif" font-size="10.00">/include/network/ServerNetwork</text>
<text text-anchor="middle" x="308.5" y="-161" font-family="Helvetica,sans-Serif" font-size="10.00">Manager.hpp</text>
</a>
</g>
</g>
<!-- Node6&#45;&gt;Node7 -->
<g id="edge6_Node000006_Node000007" class="edge">
<title>Node6&#45;&gt;Node7</title>
<g id="a_edge6_Node000006_Node000007"><a xlink:title=" ">
<path fill="none" stroke="#63b8ff" d="M194.58,-237.26C214.51,-227.42 237.52,-216.06 257.62,-206.13"/>
<polygon fill="#63b8ff" stroke="#63b8ff" points="192.79,-234.24 185.37,-241.81 195.89,-240.52 192.79,-234.24"/>
</a>
</g>
</g>
<!-- Node9 -->
<g id="Node000009" class="node">
<title>Node9</title>
<g id="a_Node000009"><a xlink:href="TCPServer_8cpp.html" target="_top" xlink:title=" ">
<polygon fill="white" stroke="#666666" points="204,-200.5 55,-200.5 55,-159.5 204,-159.5 204,-200.5"/>
<text text-anchor="start" x="63" y="-188.5" font-family="Helvetica,sans-Serif" font-size="10.00">/home/runner/work/R</text>
<text text-anchor="start" x="63" y="-177.5" font-family="Helvetica,sans-Serif" font-size="10.00">&#45;Type/R&#45;Type/Server</text>
<text text-anchor="middle" x="129.5" y="-166.5" font-family="Helvetica,sans-Serif" font-size="10.00">/src/network/TCPServer.cpp</text>
</a>
</g>
</g>
<!-- Node6&#45;&gt;Node9 -->
<g id="edge9_Node000006_Node000009" class="edge">
<title>Node6&#45;&gt;Node9</title>
<g id="a_edge9_Node000006_Node000009"><a xlink:title=" ">
<path fill="none" stroke="#63b8ff" d="M139.58,-231.69C137.52,-221.34 135.26,-210 133.41,-200.67"/>
<polygon fill="#63b8ff" stroke="#63b8ff" points="136.16,-232.48 141.54,-241.6 143.03,-231.11 136.16,-232.48"/>
</a>
</g>
</g>
<!-- Node7&#45;&gt;Node3 -->
<g id="edge7_Node000007_Node000003" class="edge">
<title>Node7&#45;&gt;Node3</title>
<g id="a_edge7_Node000007_Node000003"><a xlink:title=" ">
<path fill="none" stroke="#63b8ff" d="M242.9,-149.82C219.12,-139.25 192.84,-127.56 171.38,-118.02"/>
<polygon fill="#63b8ff" stroke="#63b8ff" points="241.66,-153.1 252.22,-153.97 244.51,-146.71 241.66,-153.1"/>
</a>
</g>
</g>
<!-- Node7&#45;&gt;Node8 -->
<g id="edge8_Node000007_Node000008" class="edge">
<title>Node7&#45;&gt;Node8</title>
<g id="a_edge8_Node000007_Node000008"><a xlink:title=" ">
<path fill="none" stroke="#63b8ff" d="M332.15,-145.6C338.77,-136.25 345.74,-126.41 351.59,-118.15"/>
<polygon fill="#63b8ff" stroke="#63b8ff" points="329.15,-143.79 326.22,-153.97 334.86,-147.83 329.15,-143.79"/>
</a>
</g>
</g>
<!-- Node11&#45;&gt;Node2 -->
<g id="edge14_Node000011_Node000002" class="edge">
<title>Node11&#45;&gt;Node2</title>
<g id="a_edge14_Node000011_Node000002"><a xlink:title=" ">
<path fill="none" stroke="#63b8ff" d="M312.25,-390.92C294.3,-380.95 273.85,-369.58 256.91,-360.17"/>
<polygon fill="#63b8ff" stroke="#63b8ff" points="310.94,-394.19 321.38,-395.99 314.34,-388.07 310.94,-394.19"/>
</a>
</g>
</g>
<!-- Node11&#45;&gt;Node7 -->
<g id="edge13_Node000011_Node000007" class="edge">
<title>Node11&#45;&gt;Node7</title>
<g id="a_edge13_Node000011_Node000007"><a xlink:title=" ">
<path fill="none" stroke="#63b8ff" d="M413.06,-390.47C424.84,-382.5 435.73,-372.43 442.5,-360 451.22,-344 447.09,-336.63 442.5,-319 432.63,-281.07 426.07,-270.82 399.5,-242 386.74,-228.16 370.24,-215.9 354.8,-206.07"/>
<polygon fill="#63b8ff" stroke="#63b8ff" points="410.99,-387.64 404.37,-395.91 414.7,-393.57 410.99,-387.64"/>
</a>
</g>
</g>
<!-- Node12 -->
<g id="Node000012" class="node">
<title>Node12</title>
<g id="a_Node000012"><a xlink:href="Decoder_8cpp.html" target="_top" xlink:title=" ">
<polygon fill="white" stroke="#666666" points="433.5,-360 311.5,-360 311.5,-319 433.5,-319 433.5,-360"/>
<text text-anchor="start" x="319.5" y="-348" font-family="Helvetica,sans-Serif" font-size="10.00">/home/runner/work/R</text>
<text text-anchor="start" x="319.5" y="-337" font-family="Helvetica,sans-Serif" font-size="10.00">&#45;Type/R&#45;Type/Shared</text>
<text text-anchor="middle" x="372.5" y="-326" font-family="Helvetica,sans-Serif" font-size="10.00">/network/Decoder.cpp</text>
</a>
</g>
</g>
<!-- Node11&#45;&gt;Node12 -->
<g id="edge15_Node000011_Node000012" class="edge">
<title>Node11&#45;&gt;Node12</title>
<g id="a_edge15_Node000011_Node000012"><a xlink:title=" ">
<path fill="none" stroke="#63b8ff" d="M362.8,-385.98C364.65,-377.28 366.64,-367.98 368.32,-360.07"/>
<polygon fill="#63b8ff" stroke="#63b8ff" points="359.37,-385.28 360.7,-395.79 366.21,-386.74 359.37,-385.28"/>
</a>
</g>
</g>
</g>
</svg>
