<?xml version="1.0" encoding="UTF-8" standalone="no"?>
<!DOCTYPE svg PUBLIC "-//W3C//DTD SVG 1.1//EN"
 "http://www.w3.org/Graphics/SVG/1.1/DTD/svg11.dtd">
<!-- Generated by graphviz version 2.43.0 (0)
 -->
<!-- Title: /home/runner/work/R&#45;Type/R&#45;Type/Shared/network/Event.hpp Pages: 1 -->
<svg width="634pt" height="522pt"
 viewBox="0.00 0.00 633.50 522.00" xmlns="http://www.w3.org/2000/svg" xmlns:xlink="http://www.w3.org/1999/xlink">
<g id="graph0" class="graph" transform="scale(1 1) rotate(0) translate(4 518)">
<title>/home/runner/work/R&#45;Type/R&#45;Type/Shared/network/Event.hpp</title>
<!-- Node1 -->
<g id="Node000001" class="node">
<title>Node1</title>
<g id="a_Node000001"><a xlink:title=" ">
<polygon fill="#999999" stroke="#666666" points="388.5,-514 269.5,-514 269.5,-473 388.5,-473 388.5,-514"/>
<text text-anchor="start" x="277.5" y="-502" font-family="Helvetica,sans-Serif" font-size="10.00">/home/runner/work/R</text>
<text text-anchor="start" x="277.5" y="-491" font-family="Helvetica,sans-Serif" font-size="10.00">&#45;Type/R&#45;Type/Shared</text>
<text text-anchor="middle" x="329" y="-480" font-family="Helvetica,sans-Serif" font-size="10.00">/network/Event.hpp</text>
</a>
</g>
</g>
<!-- Node2 -->
<g id="Node000002" class="node">
<title>Node2</title>
<g id="a_Node000002"><a xlink:href="SecondGame_8cpp.html" target="_top" xlink:title=" ">
<polygon fill="white" stroke="#666666" points="158,-437 0,-437 0,-396 158,-396 158,-437"/>
<text text-anchor="start" x="8" y="-425" font-family="Helvetica,sans-Serif" font-size="10.00">/home/runner/work/R</text>
<text text-anchor="start" x="8" y="-414" font-family="Helvetica,sans-Serif" font-size="10.00">&#45;Type/R&#45;Type/Client</text>
<text text-anchor="middle" x="79" y="-403" font-family="Helvetica,sans-Serif" font-size="10.00">/src/scenes/SecondGame.cpp</text>
</a>
</g>
</g>
<!-- Node1&#45;&gt;Node2 -->
<g id="edge1_Node000001_Node000002" class="edge">
<title>Node1&#45;&gt;Node2</title>
<g id="a_edge1_Node000001_Node000002"><a xlink:title=" ">
<path fill="none" stroke="#63b8ff" d="M259.49,-471.65C223.44,-460.83 179.66,-447.7 144.25,-437.08"/>
<polygon fill="#63b8ff" stroke="#63b8ff" points="258.85,-475.11 269.44,-474.63 260.86,-468.4 258.85,-475.11"/>
</a>
</g>
</g>
<!-- Node3 -->
<g id="Node000003" class="node">
<title>Node3</title>
<g id="a_Node000003"><a xlink:href="SecondGameClient_8cpp.html" target="_top" xlink:title=" ">
<polygon fill="white" stroke="#666666" points="362.5,-437 175.5,-437 175.5,-396 362.5,-396 362.5,-437"/>
<text text-anchor="start" x="183.5" y="-425" font-family="Helvetica,sans-Serif" font-size="10.00">/home/runner/work/R</text>
<text text-anchor="start" x="183.5" y="-414" font-family="Helvetica,sans-Serif" font-size="10.00">&#45;Type/R&#45;Type/Client</text>
<text text-anchor="middle" x="269" y="-403" font-family="Helvetica,sans-Serif" font-size="10.00">/src/scenes/SecondGameClient.cpp</text>
</a>
</g>
</g>
<!-- Node1&#45;&gt;Node3 -->
<g id="edge2_Node000001_Node000003" class="edge">
<title>Node1&#45;&gt;Node3</title>
<g id="a_edge2_Node000001_Node000003"><a xlink:title=" ">
<path fill="none" stroke="#63b8ff" d="M306.96,-464.95C299.56,-455.7 291.47,-445.58 284.66,-437.07"/>
<polygon fill="#63b8ff" stroke="#63b8ff" points="304.26,-467.17 313.24,-472.79 309.72,-462.8 304.26,-467.17"/>
</a>
</g>
</g>
<!-- Node4 -->
<g id="Node000004" class="node">
<title>Node4</title>
<g id="a_Node000004"><a xlink:href="DecodeFunc_8hpp.html" target="_top" xlink:title=" ">
<polygon fill="white" stroke="#666666" points="445.5,-360 302.5,-360 302.5,-319 445.5,-319 445.5,-360"/>
<text text-anchor="start" x="310.5" y="-348" font-family="Helvetica,sans-Serif" font-size="10.00">/home/runner/work/R</text>
<text text-anchor="start" x="310.5" y="-337" font-family="Helvetica,sans-Serif" font-size="10.00">&#45;Type/R&#45;Type/Shared</text>
<text text-anchor="middle" x="374" y="-326" font-family="Helvetica,sans-Serif" font-size="10.00">/network/DecodeFunc.hpp</text>
</a>
</g>
</g>
<!-- Node1&#45;&gt;Node4 -->
<g id="edge3_Node000001_Node000004" class="edge">
<title>Node1&#45;&gt;Node4</title>
<g id="a_edge3_Node000001_Node000004"><a xlink:title=" ">
<path fill="none" stroke="#63b8ff" d="M355,-465.05C361.42,-456.66 367.47,-447 371,-437 379.93,-411.71 378.87,-380.34 376.82,-360.36"/>
<polygon fill="#63b8ff" stroke="#63b8ff" points="352.15,-463.01 348.54,-472.97 357.57,-467.44 352.15,-463.01"/>
</a>
</g>
</g>
<!-- Node13 -->
<g id="Node000013" class="node">
<title>Node13</title>
<g id="a_Node000013"><a xlink:href="Decoder_8hpp.html" target="_top" xlink:title=" ">
<polygon fill="white" stroke="#666666" points="571.5,-437 448.5,-437 448.5,-396 571.5,-396 571.5,-437"/>
<text text-anchor="start" x="456.5" y="-425" font-family="Helvetica,sans-Serif" font-size="10.00">/home/runner/work/R</text>
<text text-anchor="start" x="456.5" y="-414" font-family="Helvetica,sans-Serif" font-size="10.00">&#45;Type/R&#45;Type/Shared</text>
<text text-anchor="middle" x="510" y="-403" font-family="Helvetica,sans-Serif" font-size="10.00">/network/Decoder.hpp</text>
</a>
</g>
</g>
<!-- Node1&#45;&gt;Node13 -->
<g id="edge14_Node000001_Node000013" class="edge">
<title>Node1&#45;&gt;Node13</title>
<g id="a_edge14_Node000001_Node000013"><a xlink:title=" ">
<path fill="none" stroke="#63b8ff" d="M385.4,-469.13C410.26,-458.83 439.14,-446.86 462.84,-437.04"/>
<polygon fill="#63b8ff" stroke="#63b8ff" points="383.98,-465.93 376.08,-472.99 386.66,-472.4 383.98,-465.93"/>
</a>
</g>
</g>
<!-- Node5 -->
<g id="Node000005" class="node">
<title>Node5</title>
<g id="a_Node000005"><a xlink:href="ServerGame_8hpp.html" target="_top" xlink:title=" ">
<polygon fill="white" stroke="#666666" points="350,-118 210,-118 210,-77 350,-77 350,-118"/>
<text text-anchor="start" x="218" y="-106" font-family="Helvetica,sans-Serif" font-size="10.00">/home/runner/work/R</text>
<text text-anchor="start" x="218" y="-95" font-family="Helvetica,sans-Serif" font-size="10.00">&#45;Type/R&#45;Type/Server</text>
<text text-anchor="middle" x="280" y="-84" font-family="Helvetica,sans-Serif" font-size="10.00">/include/ServerGame.hpp</text>
</a>
</g>
</g>
<!-- Node4&#45;&gt;Node5 -->
<g id="edge4_Node000004_Node000005" class="edge">
<title>Node4&#45;&gt;Node5</title>
<g id="a_edge4_Node000004_Node000005"><a xlink:title=" ">
<path fill="none" stroke="#63b8ff" d="M292.29,-331.24C259.82,-324.01 225.22,-309.98 204,-283 168.52,-237.89 171.09,-204.7 198,-154 206.14,-138.66 220.62,-126.79 235.17,-118.03"/>
<polygon fill="#63b8ff" stroke="#63b8ff" points="291.78,-334.71 302.28,-333.27 293.17,-327.85 291.78,-334.71"/>
</a>
</g>
</g>
<!-- Node8 -->
<g id="Node000008" class="node">
<title>Node8</title>
<g id="a_Node000008"><a xlink:href="TCPServer_8hpp.html" target="_top" xlink:title=" ">
<polygon fill="white" stroke="#666666" points="383,-283 213,-283 213,-242 383,-242 383,-283"/>
<text text-anchor="start" x="221" y="-271" font-family="Helvetica,sans-Serif" font-size="10.00">/home/runner/work/R</text>
<text text-anchor="start" x="221" y="-260" font-family="Helvetica,sans-Serif" font-size="10.00">&#45;Type/R&#45;Type/Server</text>
<text text-anchor="middle" x="298" y="-249" font-family="Helvetica,sans-Serif" font-size="10.00">/include/network/TCPServer.hpp</text>
</a>
</g>
</g>
<!-- Node4&#45;&gt;Node8 -->
<g id="edge7_Node000004_Node000008" class="edge">
<title>Node4&#45;&gt;Node8</title>
<g id="a_edge7_Node000004_Node000008"><a xlink:title=" ">
<path fill="none" stroke="#63b8ff" d="M346.65,-311.51C337.13,-302.11 326.63,-291.76 317.83,-283.07"/>
<polygon fill="#63b8ff" stroke="#63b8ff" points="344.46,-314.26 354.03,-318.79 349.37,-309.28 344.46,-314.26"/>
</a>
</g>
</g>
<!-- Node10 -->
<g id="Node000010" class="node">
<title>Node10</title>
<g id="a_Node000010"><a xlink:href="ServerNetworkManager_8cpp.html" target="_top" xlink:title=" ">
<polygon fill="white" stroke="#666666" points="625.5,-118 410.5,-118 410.5,-77 625.5,-77 625.5,-118"/>
<text text-anchor="start" x="418.5" y="-106" font-family="Helvetica,sans-Serif" font-size="10.00">/home/runner/work/R</text>
<text text-anchor="start" x="418.5" y="-95" font-family="Helvetica,sans-Serif" font-size="10.00">&#45;Type/R&#45;Type/Server</text>
<text text-anchor="middle" x="518" y="-84" font-family="Helvetica,sans-Serif" font-size="10.00">/src/network/ServerNetworkManager.cpp</text>
</a>
</g>
</g>
<!-- Node4&#45;&gt;Node10 -->
<g id="edge12_Node000004_Node000010" class="edge">
<title>Node4&#45;&gt;Node10</title>
<g id="a_edge12_Node000004_Node000010"><a xlink:title=" ">
<path fill="none" stroke="#63b8ff" d="M455.56,-317.58C499.26,-305.59 545.46,-291.31 552,-283 587.48,-237.91 574.3,-208.71 557,-154 552.85,-140.86 544.34,-128.14 536.33,-118.2"/>
<polygon fill="#63b8ff" stroke="#63b8ff" points="454.44,-314.26 445.71,-320.26 456.28,-321.01 454.44,-314.26"/>
</a>
</g>
</g>
<!-- Node12 -->
<g id="Node000012" class="node">
<title>Node12</title>
<g id="a_Node000012"><a xlink:href="DecodeFunc_8cpp.html" target="_top" xlink:title=" ">
<polygon fill="white" stroke="#666666" points="543,-283 401,-283 401,-242 543,-242 543,-283"/>
<text text-anchor="start" x="409" y="-271" font-family="Helvetica,sans-Serif" font-size="10.00">/home/runner/work/R</text>
<text text-anchor="start" x="409" y="-260" font-family="Helvetica,sans-Serif" font-size="10.00">&#45;Type/R&#45;Type/Shared</text>
<text text-anchor="middle" x="472" y="-249" font-family="Helvetica,sans-Serif" font-size="10.00">/network/DecodeFunc.cpp</text>
</a>
</g>
</g>
<!-- Node4&#45;&gt;Node12 -->
<g id="edge13_Node000004_Node000012" class="edge">
<title>Node4&#45;&gt;Node12</title>
<g id="a_edge13_Node000004_Node000012"><a xlink:title=" ">
<path fill="none" stroke="#63b8ff" d="M407.56,-312.82C420.24,-303.11 434.45,-292.24 446.29,-283.17"/>
<polygon fill="#63b8ff" stroke="#63b8ff" points="405.31,-310.13 399.49,-318.99 409.56,-315.69 405.31,-310.13"/>
</a>
</g>
</g>
<!-- Node6 -->
<g id="Node000006" class="node">
<title>Node6</title>
<g id="a_Node000006"><a xlink:href="ServerGame_8cpp.html" target="_top" xlink:title=" ">
<polygon fill="white" stroke="#666666" points="271.5,-41 152.5,-41 152.5,0 271.5,0 271.5,-41"/>
<text text-anchor="start" x="160.5" y="-29" font-family="Helvetica,sans-Serif" font-size="10.00">/home/runner/work/R</text>
<text text-anchor="start" x="160.5" y="-18" font-family="Helvetica,sans-Serif" font-size="10.00">&#45;Type/R&#45;Type/Server</text>
<text text-anchor="middle" x="212" y="-7" font-family="Helvetica,sans-Serif" font-size="10.00">/src/ServerGame.cpp</text>
</a>
</g>
</g>
<!-- Node5&#45;&gt;Node6 -->
<g id="edge5_Node000005_Node000006" class="edge">
<title>Node5&#45;&gt;Node6</title>
<g id="a_edge5_Node000005_Node000006"><a xlink:title=" ">
<path fill="none" stroke="#63b8ff" d="M255.28,-69.23C246.82,-59.91 237.54,-49.67 229.75,-41.07"/>
<polygon fill="#63b8ff" stroke="#63b8ff" points="252.82,-71.74 262.13,-76.79 258.01,-67.04 252.82,-71.74"/>
</a>
</g>
</g>
<!-- Node7 -->
<g id="Node000007" class="node">
<title>Node7</title>
<g id="a_Node000007"><a xlink:href="main_8cpp.html" target="_top" xlink:title=" ">
<polygon fill="white" stroke="#666666" points="408.5,-41 289.5,-41 289.5,0 408.5,0 408.5,-41"/>
<text text-anchor="start" x="297.5" y="-29" font-family="Helvetica,sans-Serif" font-size="10.00">/home/runner/work/R</text>
<text text-anchor="start" x="297.5" y="-18" font-family="Helvetica,sans-Serif" font-size="10.00">&#45;Type/R&#45;Type/Server</text>
<text text-anchor="middle" x="349" y="-7" font-family="Helvetica,sans-Serif" font-size="10.00">/src/main.cpp</text>
</a>
</g>
</g>
<!-- Node5&#45;&gt;Node7 -->
<g id="edge6_Node000005_Node000007" class="edge">
<title>Node5&#45;&gt;Node7</title>
<g id="a_edge6_Node000005_Node000007"><a xlink:title=" ">
<path fill="none" stroke="#63b8ff" d="M305.09,-69.23C313.66,-59.91 323.08,-49.67 330.99,-41.07"/>
<polygon fill="#63b8ff" stroke="#63b8ff" points="302.32,-67.07 298.13,-76.79 307.48,-71.81 302.32,-67.07"/>
</a>
</g>
</g>
<!-- Node9 -->
<g id="Node000009" class="node">
<title>Node9</title>
<g id="a_Node000009"><a xlink:href="ServerNetworkManager_8hpp.html" target="_top" xlink:title=" ">
<polygon fill="white" stroke="#666666" points="547.5,-206 374.5,-206 374.5,-154 547.5,-154 547.5,-206"/>
<text text-anchor="start" x="382.5" y="-194" font-family="Helvetica,sans-Serif" font-size="10.00">/home/runner/work/R</text>
<text text-anchor="start" x="382.5" y="-183" font-family="Helvetica,sans-Serif" font-size="10.00">&#45;Type/R&#45;Type/Server</text>
<text text-anchor="start" x="382.5" y="-172" font-family="Helvetica,sans-Serif" font-size="10.00">/include/network/ServerNetwork</text>
<text text-anchor="middle" x="461" y="-161" font-family="Helvetica,sans-Serif" font-size="10.00">Manager.hpp</text>
</a>
</g>
</g>
<!-- Node8&#45;&gt;Node9 -->
<g id="edge8_Node000008_Node000009" class="edge">
<title>Node8&#45;&gt;Node9</title>
<g id="a_edge8_Node000008_Node000009"><a xlink:title=" ">
<path fill="none" stroke="#63b8ff" d="M347.08,-237.26C367.01,-227.42 390.02,-216.06 410.12,-206.13"/>
<polygon fill="#63b8ff" stroke="#63b8ff" points="345.29,-234.24 337.87,-241.81 348.39,-240.52 345.29,-234.24"/>
</a>
</g>
</g>
<!-- Node11 -->
<g id="Node000011" class="node">
<title>Node11</title>
<g id="a_Node000011"><a xlink:href="TCPServer_8cpp.html" target="_top" xlink:title=" ">
<polygon fill="white" stroke="#666666" points="356.5,-200.5 207.5,-200.5 207.5,-159.5 356.5,-159.5 356.5,-200.5"/>
<text text-anchor="start" x="215.5" y="-188.5" font-family="Helvetica,sans-Serif" font-size="10.00">/home/runner/work/R</text>
<text text-anchor="start" x="215.5" y="-177.5" font-family="Helvetica,sans-Serif" font-size="10.00">&#45;Type/R&#45;Type/Server</text>
<text text-anchor="middle" x="282" y="-166.5" font-family="Helvetica,sans-Serif" font-size="10.00">/src/network/TCPServer.cpp</text>
</a>
</g>
</g>
<!-- Node8&#45;&gt;Node11 -->
<g id="edge11_Node000008_Node000011" class="edge">
<title>Node8&#45;&gt;Node11</title>
<g id="a_edge11_Node000008_Node000011"><a xlink:title=" ">
<path fill="none" stroke="#63b8ff" d="M292.08,-231.69C290.02,-221.34 287.76,-210 285.91,-200.67"/>
<polygon fill="#63b8ff" stroke="#63b8ff" points="288.66,-232.48 294.04,-241.6 295.53,-231.11 288.66,-232.48"/>
</a>
</g>
</g>
<!-- Node9&#45;&gt;Node5 -->
<g id="edge9_Node000009_Node000005" class="edge">
<title>Node9&#45;&gt;Node5</title>
<g id="a_edge9_Node000009_Node000005"><a xlink:title=" ">
<path fill="none" stroke="#63b8ff" d="M395.4,-149.82C371.62,-139.25 345.34,-127.56 323.88,-118.02"/>
<polygon fill="#63b8ff" stroke="#63b8ff" points="394.16,-153.1 404.72,-153.97 397.01,-146.71 394.16,-153.1"/>
</a>
</g>
</g>
<!-- Node9&#45;&gt;Node10 -->
<g id="edge10_Node000009_Node000010" class="edge">
<title>Node9&#45;&gt;Node10</title>
<g id="a_edge10_Node000009_Node000010"><a xlink:title=" ">
<path fill="none" stroke="#63b8ff" d="M484.65,-145.6C491.27,-136.25 498.24,-126.41 504.09,-118.15"/>
<polygon fill="#63b8ff" stroke="#63b8ff" points="481.65,-143.79 478.72,-153.97 487.36,-147.83 481.65,-143.79"/>
</a>
</g>
</g>
<!-- Node13&#45;&gt;Node4 -->
<g id="edge16_Node000013_Node000004" class="edge">
<title>Node13&#45;&gt;Node4</title>
<g id="a_edge16_Node000013_Node000004"><a xlink:title=" ">
<path fill="none" stroke="#63b8ff" d="M465.43,-390.92C447.34,-380.95 426.74,-369.58 409.67,-360.17"/>
<polygon fill="#63b8ff" stroke="#63b8ff" points="464.18,-394.23 474.62,-395.99 467.56,-388.1 464.18,-394.23"/>
</a>
</g>
</g>
<!-- Node13&#45;&gt;Node9 -->
<g id="edge15_Node000013_Node000009" class="edge">
<title>Node13&#45;&gt;Node9</title>
<g id="a_edge15_Node000013_Node000009"><a xlink:title=" ">
<path fill="none" stroke="#63b8ff" d="M565.92,-390.35C577.56,-382.38 588.32,-372.35 595,-360 603.68,-343.98 599.59,-336.63 595,-319 585.13,-281.07 578.57,-270.82 552,-242 539.24,-228.16 522.74,-215.9 507.3,-206.07"/>
<polygon fill="#63b8ff" stroke="#63b8ff" points="563.9,-387.49 557.32,-395.79 567.64,-393.4 563.9,-387.49"/>
</a>
</g>
</g>
<!-- Node14 -->
<g id="Node000014" class="node">
<title>Node14</title>
<g id="a_Node000014"><a xlink:href="Decoder_8cpp.html" target="_top" xlink:title=" ">
<polygon fill="white" stroke="#666666" points="586,-360 464,-360 464,-319 586,-319 586,-360"/>
<text text-anchor="start" x="472" y="-348" font-family="Helvetica,sans-Serif" font-size="10.00">/home/runner/work/R</text>
<text text-anchor="start" x="472" y="-337" font-family="Helvetica,sans-Serif" font-size="10.00">&#45;Type/R&#45;Type/Shared</text>
<text text-anchor="middle" x="525" y="-326" font-family="Helvetica,sans-Serif" font-size="10.00">/network/Decoder.cpp</text>
</a>
</g>
</g>
<!-- Node13&#45;&gt;Node14 -->
<g id="edge17_Node000013_Node000014" class="edge">
<title>Node13&#45;&gt;Node14</title>
<g id="a_edge17_Node000013_Node000014"><a xlink:title=" ">
<path fill="none" stroke="#63b8ff" d="M515.9,-385.98C517.64,-377.28 519.5,-367.98 521.09,-360.07"/>
<polygon fill="#63b8ff" stroke="#63b8ff" points="512.47,-385.3 513.94,-395.79 519.33,-386.68 512.47,-385.3"/>
</a>
</g>
</g>
</g>
</svg>
