<?xml version="1.0" encoding="UTF-8" standalone="no"?>
<!DOCTYPE svg PUBLIC "-//W3C//DTD SVG 1.1//EN"
 "http://www.w3.org/Graphics/SVG/1.1/DTD/svg11.dtd">
<!-- Generated by graphviz version 2.43.0 (0)
 -->
<!-- Title: /home/runner/work/R&#45;Type/R&#45;Type/Shared/components/Force.hpp Pages: 1 -->
<svg width="3745pt" height="280pt"
 viewBox="0.00 0.00 3745.00 280.00" xmlns="http://www.w3.org/2000/svg" xmlns:xlink="http://www.w3.org/1999/xlink">
<g id="graph0" class="graph" transform="scale(1 1) rotate(0) translate(4 276)">
<title>/home/runner/work/R&#45;Type/R&#45;Type/Shared/components/Force.hpp</title>
<!-- Node1 -->
<g id="Node000001" class="node">
<title>Node1</title>
<g id="a_Node000001"><a xlink:title=" ">
<polygon fill="#999999" stroke="#666666" points="438,-272 308,-272 308,-231 438,-231 438,-272"/>
<text text-anchor="start" x="316" y="-260" font-family="Helvetica,sans-Serif" font-size="10.00">/home/runner/work/R</text>
<text text-anchor="start" x="316" y="-249" font-family="Helvetica,sans-Serif" font-size="10.00">&#45;Type/R&#45;Type/Shared</text>
<text text-anchor="middle" x="373" y="-238" font-family="Helvetica,sans-Serif" font-size="10.00">/components/Force.hpp</text>
</a>
</g>
</g>
<!-- Node2 -->
<g id="Node000002" class="node">
<title>Node2</title>
<g id="a_Node000002"><a xlink:href="ServerGame_8cpp.html" target="_top" xlink:title=" ">
<polygon fill="white" stroke="#666666" points="303.5,-118 184.5,-118 184.5,-77 303.5,-77 303.5,-118"/>
<text text-anchor="start" x="192.5" y="-106" font-family="Helvetica,sans-Serif" font-size="10.00">/home/runner/work/R</text>
<text text-anchor="start" x="192.5" y="-95" font-family="Helvetica,sans-Serif" font-size="10.00">&#45;Type/R&#45;Type/Server</text>
<text text-anchor="middle" x="244" y="-84" font-family="Helvetica,sans-Serif" font-size="10.00">/src/ServerGame.cpp</text>
</a>
</g>
</g>
<!-- Node1&#45;&gt;Node2 -->
<g id="edge1_Node000001_Node000002" class="edge">
<title>Node1&#45;&gt;Node2</title>
<g id="a_edge1_Node000001_Node000002"><a xlink:title=" ">
<path fill="none" stroke="#63b8ff" d="M305.55,-226.19C291.06,-218.22 277.09,-207.97 267,-195 249.66,-172.71 245.09,-139.37 244.06,-118.29"/>
<polygon fill="#63b8ff" stroke="#63b8ff" points="304.12,-229.39 314.61,-230.87 307.33,-223.17 304.12,-229.39"/>
</a>
</g>
</g>
<!-- Node3 -->
<g id="Node000003" class="node">
<title>Node3</title>
<g id="a_Node000003"><a xlink:href="Collision_8cpp.html" target="_top" xlink:title=" ">
<polygon fill="white" stroke="#666666" points="2112.5,-195 1941.5,-195 1941.5,-154 2112.5,-154 2112.5,-195"/>
<text text-anchor="start" x="1949.5" y="-183" font-family="Helvetica,sans-Serif" font-size="10.00">/home/runner/work/R</text>
<text text-anchor="start" x="1949.5" y="-172" font-family="Helvetica,sans-Serif" font-size="10.00">&#45;Type/R&#45;Type/Shared</text>
<text text-anchor="middle" x="2027" y="-161" font-family="Helvetica,sans-Serif" font-size="10.00">/systems/Collision/Collision.cpp</text>
</a>
</g>
</g>
<!-- Node1&#45;&gt;Node3 -->
<g id="edge2_Node000001_Node000003" class="edge">
<title>Node1&#45;&gt;Node3</title>
<g id="a_edge2_Node000001_Node000003"><a xlink:title=" ">
<path fill="none" stroke="#63b8ff" d="M448.56,-249.5C719.32,-245.67 1640.47,-230.29 1933,-195 1935.73,-194.67 1938.5,-194.3 1941.29,-193.9"/>
<polygon fill="#63b8ff" stroke="#63b8ff" points="448.39,-246.01 438.44,-249.65 448.48,-253.01 448.39,-246.01"/>
</a>
</g>
</g>
<!-- Node4 -->
<g id="Node000004" class="node">
<title>Node4</title>
<g id="a_Node000004"><a xlink:href="ForceCtrl_8hpp.html" target="_top" xlink:title=" ">
<polygon fill="white" stroke="#666666" points="220,-195 92,-195 92,-154 220,-154 220,-195"/>
<text text-anchor="start" x="100" y="-183" font-family="Helvetica,sans-Serif" font-size="10.00">/home/runner/work/R</text>
<text text-anchor="start" x="100" y="-172" font-family="Helvetica,sans-Serif" font-size="10.00">&#45;Type/R&#45;Type/Shared</text>
<text text-anchor="middle" x="156" y="-161" font-family="Helvetica,sans-Serif" font-size="10.00">/systems/ForceCtrl.hpp</text>
</a>
</g>
</g>
<!-- Node1&#45;&gt;Node4 -->
<g id="edge3_Node000001_Node000004" class="edge">
<title>Node1&#45;&gt;Node4</title>
<g id="a_edge3_Node000001_Node000004"><a xlink:title=" ">
<path fill="none" stroke="#63b8ff" d="M306.96,-227.67C276.8,-217.25 241.45,-205.03 212.54,-195.04"/>
<polygon fill="#63b8ff" stroke="#63b8ff" points="305.96,-231.03 316.55,-230.99 308.24,-224.42 305.96,-231.03"/>
</a>
</g>
</g>
<!-- Node7 -->
<g id="Node000007" class="node">
<title>Node7</title>
<g id="a_Node000007"><a xlink:href="EntityHelper_8hpp.html" target="_top" xlink:title=" ">
<polygon fill="white" stroke="#666666" points="1923.5,-195 1738.5,-195 1738.5,-154 1923.5,-154 1923.5,-195"/>
<text text-anchor="start" x="1746.5" y="-183" font-family="Helvetica,sans-Serif" font-size="10.00">/home/runner/work/R</text>
<text text-anchor="start" x="1746.5" y="-172" font-family="Helvetica,sans-Serif" font-size="10.00">&#45;Type/R&#45;Type/Shared</text>
<text text-anchor="middle" x="1831" y="-161" font-family="Helvetica,sans-Serif" font-size="10.00">/systems/Helpers/EntityHelper.hpp</text>
</a>
</g>
</g>
<!-- Node1&#45;&gt;Node7 -->
<g id="edge7_Node000001_Node000007" class="edge">
<title>Node1&#45;&gt;Node7</title>
<g id="a_edge7_Node000001_Node000007"><a xlink:title=" ">
<path fill="none" stroke="#63b8ff" d="M448.24,-246.63C693.46,-234.02 1469.22,-194.11 1738.14,-180.28"/>
<polygon fill="#63b8ff" stroke="#63b8ff" points="447.81,-243.15 438,-247.16 448.17,-250.14 447.81,-243.15"/>
</a>
</g>
</g>
<!-- Node42 -->
<g id="Node000042" class="node">
<title>Node42</title>
<g id="a_Node000042"><a xlink:href="Movement_8hpp.html" target="_top" xlink:title=" ">
<polygon fill="white" stroke="#666666" points="469.5,-195 276.5,-195 276.5,-154 469.5,-154 469.5,-195"/>
<text text-anchor="start" x="284.5" y="-183" font-family="Helvetica,sans-Serif" font-size="10.00">/home/runner/work/R</text>
<text text-anchor="start" x="284.5" y="-172" font-family="Helvetica,sans-Serif" font-size="10.00">&#45;Type/R&#45;Type/Shared</text>
<text text-anchor="middle" x="373" y="-161" font-family="Helvetica,sans-Serif" font-size="10.00">/systems/Movement/Movement.hpp</text>
</a>
</g>
</g>
<!-- Node1&#45;&gt;Node42 -->
<g id="edge44_Node000001_Node000042" class="edge">
<title>Node1&#45;&gt;Node42</title>
<g id="a_edge44_Node000001_Node000042"><a xlink:title=" ">
<path fill="none" stroke="#63b8ff" d="M373,-220.69C373,-212.08 373,-202.9 373,-195.07"/>
<polygon fill="#63b8ff" stroke="#63b8ff" points="369.5,-220.79 373,-230.79 376.5,-220.79 369.5,-220.79"/>
</a>
</g>
</g>
<!-- Node4&#45;&gt;Node2 -->
<g id="edge5_Node000004_Node000002" class="edge">
<title>Node4&#45;&gt;Node2</title>
<g id="a_edge5_Node000004_Node000002"><a xlink:title=" ">
<path fill="none" stroke="#63b8ff" d="M187.01,-147.07C198.21,-137.52 210.65,-126.93 221.03,-118.07"/>
<polygon fill="#63b8ff" stroke="#63b8ff" points="184.46,-144.64 179.12,-153.79 189,-149.97 184.46,-144.64"/>
</a>
</g>
</g>
<!-- Node5 -->
<g id="Node000005" class="node">
<title>Node5</title>
<g id="a_Node000005"><a xlink:href="RtypeScene_8cpp.html" target="_top" xlink:title=" ">
<polygon fill="white" stroke="#666666" points="408,-41 256,-41 256,0 408,0 408,-41"/>
<text text-anchor="start" x="264" y="-29" font-family="Helvetica,sans-Serif" font-size="10.00">/home/runner/work/R</text>
<text text-anchor="start" x="264" y="-18" font-family="Helvetica,sans-Serif" font-size="10.00">&#45;Type/R&#45;Type/Client</text>
<text text-anchor="middle" x="332" y="-7" font-family="Helvetica,sans-Serif" font-size="10.00">/src/scenes/RtypeScene.cpp</text>
</a>
</g>
</g>
<!-- Node4&#45;&gt;Node5 -->
<g id="edge4_Node000004_Node000005" class="edge">
<title>Node4&#45;&gt;Node5</title>
<g id="a_edge4_Node000004_Node000005"><a xlink:title=" ">
<path fill="none" stroke="#63b8ff" d="M154.53,-143.38C155.12,-122.45 159.31,-95.15 175,-77 195.42,-53.38 226.55,-39.81 255.72,-32.01"/>
<polygon fill="#63b8ff" stroke="#63b8ff" points="151.03,-143.66 154.51,-153.67 158.03,-143.68 151.03,-143.66"/>
</a>
</g>
</g>
<!-- Node6 -->
<g id="Node000006" class="node">
<title>Node6</title>
<g id="a_Node000006"><a xlink:href="ForceCtrl_8cpp.html" target="_top" xlink:title=" ">
<polygon fill="white" stroke="#666666" points="128,-118 0,-118 0,-77 128,-77 128,-118"/>
<text text-anchor="start" x="8" y="-106" font-family="Helvetica,sans-Serif" font-size="10.00">/home/runner/work/R</text>
<text text-anchor="start" x="8" y="-95" font-family="Helvetica,sans-Serif" font-size="10.00">&#45;Type/R&#45;Type/Shared</text>
<text text-anchor="middle" x="64" y="-84" font-family="Helvetica,sans-Serif" font-size="10.00">/systems/ForceCtrl.cpp</text>
</a>
</g>
</g>
<!-- Node4&#45;&gt;Node6 -->
<g id="edge6_Node000004_Node000006" class="edge">
<title>Node4&#45;&gt;Node6</title>
<g id="a_edge6_Node000004_Node000006"><a xlink:title=" ">
<path fill="none" stroke="#63b8ff" d="M123.92,-147.35C112.12,-137.73 98.98,-127.01 88.01,-118.07"/>
<polygon fill="#63b8ff" stroke="#63b8ff" points="121.87,-150.19 131.83,-153.79 126.29,-144.76 121.87,-150.19"/>
</a>
</g>
</g>
<!-- Node7&#45;&gt;Node2 -->
<g id="edge38_Node000007_Node000002" class="edge">
<title>Node7&#45;&gt;Node2</title>
<g id="a_edge38_Node000007_Node000002"><a xlink:title=" ">
<path fill="none" stroke="#63b8ff" d="M1728.3,-171.56C1438.59,-165.78 618.61,-147.25 351,-118 335.61,-116.32 319.1,-113.71 303.77,-110.95"/>
<polygon fill="#63b8ff" stroke="#63b8ff" points="1728.32,-175.06 1738.38,-171.76 1728.45,-168.06 1728.32,-175.06"/>
</a>
</g>
</g>
<!-- Node8 -->
<g id="Node000008" class="node">
<title>Node8</title>
<g id="a_Node000008"><a xlink:href="CreateLobby_8hpp.html" target="_top" xlink:title=" ">
<polygon fill="white" stroke="#666666" points="1908.5,-118 1753.5,-118 1753.5,-77 1908.5,-77 1908.5,-118"/>
<text text-anchor="start" x="1761.5" y="-106" font-family="Helvetica,sans-Serif" font-size="10.00">/home/runner/work/R</text>
<text text-anchor="start" x="1761.5" y="-95" font-family="Helvetica,sans-Serif" font-size="10.00">&#45;Type/R&#45;Type/Client</text>
<text text-anchor="middle" x="1831" y="-84" font-family="Helvetica,sans-Serif" font-size="10.00">/src/scenes/CreateLobby.hpp</text>
</a>
</g>
</g>
<!-- Node7&#45;&gt;Node8 -->
<g id="edge8_Node000007_Node000008" class="edge">
<title>Node7&#45;&gt;Node8</title>
<g id="a_edge8_Node000007_Node000008"><a xlink:title=" ">
<path fill="none" stroke="#63b8ff" d="M1831,-143.69C1831,-135.08 1831,-125.9 1831,-118.07"/>
<polygon fill="#63b8ff" stroke="#63b8ff" points="1827.5,-143.79 1831,-153.79 1834.5,-143.79 1827.5,-143.79"/>
</a>
</g>
</g>
<!-- Node10 -->
<g id="Node000010" class="node">
<title>Node10</title>
<g id="a_Node000010"><a xlink:href="GameOver_8hpp.html" target="_top" xlink:title=" ">
<polygon fill="white" stroke="#666666" points="2073,-118 1927,-118 1927,-77 2073,-77 2073,-118"/>
<text text-anchor="start" x="1935" y="-106" font-family="Helvetica,sans-Serif" font-size="10.00">/home/runner/work/R</text>
<text text-anchor="start" x="1935" y="-95" font-family="Helvetica,sans-Serif" font-size="10.00">&#45;Type/R&#45;Type/Client</text>
<text text-anchor="middle" x="2000" y="-84" font-family="Helvetica,sans-Serif" font-size="10.00">/src/scenes/GameOver.hpp</text>
</a>
</g>
</g>
<!-- Node7&#45;&gt;Node10 -->
<g id="edge10_Node000007_Node000010" class="edge">
<title>Node7&#45;&gt;Node10</title>
<g id="a_edge10_Node000007_Node000010"><a xlink:title=" ">
<path fill="none" stroke="#63b8ff" d="M1884.27,-149.86C1907.35,-139.62 1934.04,-127.77 1955.97,-118.04"/>
<polygon fill="#63b8ff" stroke="#63b8ff" points="1882.68,-146.73 1874.96,-153.99 1885.52,-153.13 1882.68,-146.73"/>
</a>
</g>
</g>
<!-- Node12 -->
<g id="Node000012" class="node">
<title>Node12</title>
<g id="a_Node000012"><a xlink:href="JoinGame_8hpp.html" target="_top" xlink:title=" ">
<polygon fill="white" stroke="#666666" points="2233,-118 2091,-118 2091,-77 2233,-77 2233,-118"/>
<text text-anchor="start" x="2099" y="-106" font-family="Helvetica,sans-Serif" font-size="10.00">/home/runner/work/R</text>
<text text-anchor="start" x="2099" y="-95" font-family="Helvetica,sans-Serif" font-size="10.00">&#45;Type/R&#45;Type/Client</text>
<text text-anchor="middle" x="2162" y="-84" font-family="Helvetica,sans-Serif" font-size="10.00">/src/scenes/JoinGame.hpp</text>
</a>
</g>
</g>
<!-- Node7&#45;&gt;Node12 -->
<g id="edge12_Node000007_Node000012" class="edge">
<title>Node7&#45;&gt;Node12</title>
<g id="a_edge12_Node000007_Node000012"><a xlink:title=" ">
<path fill="none" stroke="#63b8ff" d="M1931.39,-151.82C1977.35,-141.76 2032.49,-129.51 2082,-118 2084.92,-117.32 2087.91,-116.62 2090.92,-115.91"/>
<polygon fill="#63b8ff" stroke="#63b8ff" points="1930.45,-148.44 1921.43,-154 1931.95,-155.28 1930.45,-148.44"/>
</a>
</g>
</g>
<!-- Node14 -->
<g id="Node000014" class="node">
<title>Node14</title>
<g id="a_Node000014"><a xlink:href="LevelScene_8hpp.html" target="_top" xlink:title=" ">
<polygon fill="white" stroke="#666666" points="2401,-118 2251,-118 2251,-77 2401,-77 2401,-118"/>
<text text-anchor="start" x="2259" y="-106" font-family="Helvetica,sans-Serif" font-size="10.00">/home/runner/work/R</text>
<text text-anchor="start" x="2259" y="-95" font-family="Helvetica,sans-Serif" font-size="10.00">&#45;Type/R&#45;Type/Client</text>
<text text-anchor="middle" x="2326" y="-84" font-family="Helvetica,sans-Serif" font-size="10.00">/src/scenes/LevelScene.hpp</text>
</a>
</g>
</g>
<!-- Node7&#45;&gt;Node14 -->
<g id="edge14_Node000007_Node000014" class="edge">
<title>Node7&#45;&gt;Node14</title>
<g id="a_edge14_Node000007_Node000014"><a xlink:title=" ">
<path fill="none" stroke="#63b8ff" d="M1933.61,-153.98C2071.41,-133.39 2108.97,-141.12 2242,-118 2244.95,-117.49 2247.95,-116.94 2250.98,-116.35"/>
<polygon fill="#63b8ff" stroke="#63b8ff" points="1932.88,-150.55 1923.52,-155.51 1933.93,-157.47 1932.88,-150.55"/>
</a>
</g>
</g>
<!-- Node16 -->
<g id="Node000016" class="node">
<title>Node16</title>
<g id="a_Node000016"><a xlink:href="Lobby_8hpp.html" target="_top" xlink:title=" ">
<polygon fill="white" stroke="#666666" points="2541,-118 2419,-118 2419,-77 2541,-77 2541,-118"/>
<text text-anchor="start" x="2427" y="-106" font-family="Helvetica,sans-Serif" font-size="10.00">/home/runner/work/R</text>
<text text-anchor="start" x="2427" y="-95" font-family="Helvetica,sans-Serif" font-size="10.00">&#45;Type/R&#45;Type/Client</text>
<text text-anchor="middle" x="2480" y="-84" font-family="Helvetica,sans-Serif" font-size="10.00">/src/scenes/Lobby.hpp</text>
</a>
</g>
</g>
<!-- Node7&#45;&gt;Node16 -->
<g id="edge16_Node000007_Node000016" class="edge">
<title>Node7&#45;&gt;Node16</title>
<g id="a_edge16_Node000007_Node000016"><a xlink:title=" ">
<path fill="none" stroke="#63b8ff" d="M1933.96,-153.97C2145.56,-126.88 2203.86,-154.13 2410,-118 2412.86,-117.5 2415.77,-116.93 2418.7,-116.31"/>
<polygon fill="#63b8ff" stroke="#63b8ff" points="1933.23,-150.54 1923.77,-155.3 1934.14,-157.48 1933.23,-150.54"/>
</a>
</g>
</g>
<!-- Node18 -->
<g id="Node000018" class="node">
<title>Node18</title>
<g id="a_Node000018"><a xlink:href="LobbyInfo_8hpp.html" target="_top" xlink:title=" ">
<polygon fill="white" stroke="#666666" points="2702.5,-118 2559.5,-118 2559.5,-77 2702.5,-77 2702.5,-118"/>
<text text-anchor="start" x="2567.5" y="-106" font-family="Helvetica,sans-Serif" font-size="10.00">/home/runner/work/R</text>
<text text-anchor="start" x="2567.5" y="-95" font-family="Helvetica,sans-Serif" font-size="10.00">&#45;Type/R&#45;Type/Client</text>
<text text-anchor="middle" x="2631" y="-84" font-family="Helvetica,sans-Serif" font-size="10.00">/src/scenes/LobbyInfo.hpp</text>
</a>
</g>
</g>
<!-- Node7&#45;&gt;Node18 -->
<g id="edge18_Node000007_Node000018" class="edge">
<title>Node7&#45;&gt;Node18</title>
<g id="a_edge18_Node000007_Node000018"><a xlink:title=" ">
<path fill="none" stroke="#63b8ff" d="M1933.99,-153.98C2207.4,-121.06 2281.6,-157.81 2550,-118 2553,-117.55 2556.06,-117.05 2559.14,-116.5"/>
<polygon fill="#63b8ff" stroke="#63b8ff" points="1933.26,-150.54 1923.76,-155.23 1934.11,-157.49 1933.26,-150.54"/>
</a>
</g>
</g>
<!-- Node20 -->
<g id="Node000020" class="node">
<title>Node20</title>
<g id="a_Node000020"><a xlink:href="LobbyJoin_8hpp.html" target="_top" xlink:title=" ">
<polygon fill="white" stroke="#666666" points="2863,-118 2721,-118 2721,-77 2863,-77 2863,-118"/>
<text text-anchor="start" x="2729" y="-106" font-family="Helvetica,sans-Serif" font-size="10.00">/home/runner/work/R</text>
<text text-anchor="start" x="2729" y="-95" font-family="Helvetica,sans-Serif" font-size="10.00">&#45;Type/R&#45;Type/Client</text>
<text text-anchor="middle" x="2792" y="-84" font-family="Helvetica,sans-Serif" font-size="10.00">/src/scenes/LobbyJoin.hpp</text>
</a>
</g>
</g>
<!-- Node7&#45;&gt;Node20 -->
<g id="edge20_Node000007_Node000020" class="edge">
<title>Node7&#45;&gt;Node20</title>
<g id="a_edge20_Node000007_Node000020"><a xlink:title=" ">
<path fill="none" stroke="#63b8ff" d="M1933.78,-154.02C2278.97,-114.37 2372.19,-166.8 2712,-118 2714.83,-117.59 2717.71,-117.13 2720.6,-116.63"/>
<polygon fill="#63b8ff" stroke="#63b8ff" points="1933.28,-150.55 1923.75,-155.19 1934.09,-157.5 1933.28,-150.55"/>
</a>
</g>
</g>
<!-- Node22 -->
<g id="Node000022" class="node">
<title>Node22</title>
<g id="a_Node000022"><a xlink:href="LobbyPassword_8hpp.html" target="_top" xlink:title=" ">
<polygon fill="white" stroke="#666666" points="3051,-118 2881,-118 2881,-77 3051,-77 3051,-118"/>
<text text-anchor="start" x="2889" y="-106" font-family="Helvetica,sans-Serif" font-size="10.00">/home/runner/work/R</text>
<text text-anchor="start" x="2889" y="-95" font-family="Helvetica,sans-Serif" font-size="10.00">&#45;Type/R&#45;Type/Client</text>
<text text-anchor="middle" x="2966" y="-84" font-family="Helvetica,sans-Serif" font-size="10.00">/src/scenes/LobbyPassword.hpp</text>
</a>
</g>
</g>
<!-- Node7&#45;&gt;Node22 -->
<g id="edge22_Node000007_Node000022" class="edge">
<title>Node7&#45;&gt;Node22</title>
<g id="a_edge22_Node000007_Node000022"><a xlink:title=" ">
<path fill="none" stroke="#63b8ff" d="M1933.94,-154C2349.73,-107.65 2460.78,-168.18 2872,-118 2874.9,-117.65 2877.83,-117.25 2880.8,-116.82"/>
<polygon fill="#63b8ff" stroke="#63b8ff" points="1933.29,-150.56 1923.75,-155.16 1934.08,-157.51 1933.29,-150.56"/>
</a>
</g>
</g>
<!-- Node24 -->
<g id="Node000024" class="node">
<title>Node24</title>
<g id="a_Node000024"><a xlink:href="MainGame_8hpp.html" target="_top" xlink:title=" ">
<polygon fill="white" stroke="#666666" points="3217,-118 3069,-118 3069,-77 3217,-77 3217,-118"/>
<text text-anchor="start" x="3077" y="-106" font-family="Helvetica,sans-Serif" font-size="10.00">/home/runner/work/R</text>
<text text-anchor="start" x="3077" y="-95" font-family="Helvetica,sans-Serif" font-size="10.00">&#45;Type/R&#45;Type/Client</text>
<text text-anchor="middle" x="3143" y="-84" font-family="Helvetica,sans-Serif" font-size="10.00">/src/scenes/MainGame.hpp</text>
</a>
</g>
</g>
<!-- Node7&#45;&gt;Node24 -->
<g id="edge24_Node000007_Node000024" class="edge">
<title>Node7&#45;&gt;Node24</title>
<g id="a_edge24_Node000007_Node000024"><a xlink:title=" ">
<path fill="none" stroke="#63b8ff" d="M1933.73,-154.03C2432.85,-99.89 2566.45,-183.2 3060,-118 3062.93,-117.61 3065.92,-117.17 3068.92,-116.67"/>
<polygon fill="#63b8ff" stroke="#63b8ff" points="1933.3,-150.56 1923.74,-155.13 1934.07,-157.52 1933.3,-150.56"/>
</a>
</g>
</g>
<!-- Node26 -->
<g id="Node000026" class="node">
<title>Node26</title>
<g id="a_Node000026"><a xlink:href="MainMenu_8hpp.html" target="_top" xlink:title=" ">
<polygon fill="white" stroke="#666666" points="3381,-118 3235,-118 3235,-77 3381,-77 3381,-118"/>
<text text-anchor="start" x="3243" y="-106" font-family="Helvetica,sans-Serif" font-size="10.00">/home/runner/work/R</text>
<text text-anchor="start" x="3243" y="-95" font-family="Helvetica,sans-Serif" font-size="10.00">&#45;Type/R&#45;Type/Client</text>
<text text-anchor="middle" x="3308" y="-84" font-family="Helvetica,sans-Serif" font-size="10.00">/src/scenes/MainMenu.hpp</text>
</a>
</g>
</g>
<!-- Node7&#45;&gt;Node26 -->
<g id="edge26_Node000007_Node000026" class="edge">
<title>Node7&#45;&gt;Node26</title>
<g id="a_edge26_Node000007_Node000026"><a xlink:title=" ">
<path fill="none" stroke="#63b8ff" d="M1933.91,-154.02C2506.31,-93 2659.35,-192.46 3226,-118 3228.9,-117.62 3231.85,-117.18 3234.82,-116.69"/>
<polygon fill="#63b8ff" stroke="#63b8ff" points="1933.31,-150.56 1923.74,-155.11 1934.06,-157.52 1933.31,-150.56"/>
</a>
</g>
</g>
<!-- Node28 -->
<g id="Node000028" class="node">
<title>Node28</title>
<g id="a_Node000028"><a xlink:href="Options_8hpp.html" target="_top" xlink:title=" ">
<polygon fill="white" stroke="#666666" points="3531,-118 3399,-118 3399,-77 3531,-77 3531,-118"/>
<text text-anchor="start" x="3407" y="-106" font-family="Helvetica,sans-Serif" font-size="10.00">/home/runner/work/R</text>
<text text-anchor="start" x="3407" y="-95" font-family="Helvetica,sans-Serif" font-size="10.00">&#45;Type/R&#45;Type/Client</text>
<text text-anchor="middle" x="3465" y="-84" font-family="Helvetica,sans-Serif" font-size="10.00">/src/scenes/Options.hpp</text>
</a>
</g>
</g>
<!-- Node7&#45;&gt;Node28 -->
<g id="edge28_Node000007_Node000028" class="edge">
<title>Node7&#45;&gt;Node28</title>
<g id="a_edge28_Node000007_Node000028"><a xlink:title=" ">
<path fill="none" stroke="#63b8ff" d="M1933.75,-154.04C2578.83,-86.21 2751.83,-207.63 3390,-118 3392.93,-117.59 3395.91,-117.1 3398.91,-116.56"/>
<polygon fill="#63b8ff" stroke="#63b8ff" points="1933.32,-150.56 1923.74,-155.1 1934.06,-157.52 1933.32,-150.56"/>
</a>
</g>
</g>
<!-- Node30 -->
<g id="Node000030" class="node">
<title>Node30</title>
<g id="a_Node000030"><a xlink:href="RtypeScene_8hpp.html" target="_top" xlink:title=" ">
<polygon fill="white" stroke="#666666" points="1427,-118 1275,-118 1275,-77 1427,-77 1427,-118"/>
<text text-anchor="start" x="1283" y="-106" font-family="Helvetica,sans-Serif" font-size="10.00">/home/runner/work/R</text>
<text text-anchor="start" x="1283" y="-95" font-family="Helvetica,sans-Serif" font-size="10.00">&#45;Type/R&#45;Type/Client</text>
<text text-anchor="middle" x="1351" y="-84" font-family="Helvetica,sans-Serif" font-size="10.00">/src/scenes/RtypeScene.hpp</text>
</a>
</g>
</g>
<!-- Node7&#45;&gt;Node30 -->
<g id="edge30_Node000007_Node000030" class="edge">
<title>Node7&#45;&gt;Node30</title>
<g id="a_edge30_Node000007_Node000030"><a xlink:title=" ">
<path fill="none" stroke="#63b8ff" d="M1728.38,-161.54C1648.42,-151.62 1534.78,-136.23 1436,-118 1433.17,-117.48 1430.29,-116.93 1427.39,-116.35"/>
<polygon fill="#63b8ff" stroke="#63b8ff" points="1728.1,-165.03 1738.45,-162.78 1728.96,-158.08 1728.1,-165.03"/>
</a>
</g>
</g>
<!-- Node31 -->
<g id="Node000031" class="node">
<title>Node31</title>
<g id="a_Node000031"><a xlink:href="SecondGameClient_8hpp.html" target="_top" xlink:title=" ">
<polygon fill="white" stroke="#666666" points="3737,-118 3549,-118 3549,-77 3737,-77 3737,-118"/>
<text text-anchor="start" x="3557" y="-106" font-family="Helvetica,sans-Serif" font-size="10.00">/home/runner/work/R</text>
<text text-anchor="start" x="3557" y="-95" font-family="Helvetica,sans-Serif" font-size="10.00">&#45;Type/R&#45;Type/Client</text>
<text text-anchor="middle" x="3643" y="-84" font-family="Helvetica,sans-Serif" font-size="10.00">/src/scenes/SecondGameClient.hpp</text>
</a>
</g>
</g>
<!-- Node7&#45;&gt;Node31 -->
<g id="edge32_Node000007_Node000031" class="edge">
<title>Node7&#45;&gt;Node31</title>
<g id="a_edge32_Node000007_Node000031"><a xlink:title=" ">
<path fill="none" stroke="#63b8ff" d="M1933.72,-154.04C2645.16,-79.72 2832.81,-192.35 3540,-118 3542.9,-117.7 3545.83,-117.35 3548.79,-116.98"/>
<polygon fill="#63b8ff" stroke="#63b8ff" points="1933.32,-150.56 1923.74,-155.09 1934.05,-157.52 1933.32,-150.56"/>
</a>
</g>
</g>
<!-- Node33 -->
<g id="Node000033" class="node">
<title>Node33</title>
<g id="a_Node000033"><a xlink:href="Victory_8hpp.html" target="_top" xlink:title=" ">
<polygon fill="white" stroke="#666666" points="1573,-118 1445,-118 1445,-77 1573,-77 1573,-118"/>
<text text-anchor="start" x="1453" y="-106" font-family="Helvetica,sans-Serif" font-size="10.00">/home/runner/work/R</text>
<text text-anchor="start" x="1453" y="-95" font-family="Helvetica,sans-Serif" font-size="10.00">&#45;Type/R&#45;Type/Client</text>
<text text-anchor="middle" x="1509" y="-84" font-family="Helvetica,sans-Serif" font-size="10.00">/src/scenes/Victory.hpp</text>
</a>
</g>
</g>
<!-- Node7&#45;&gt;Node33 -->
<g id="edge34_Node000007_Node000033" class="edge">
<title>Node7&#45;&gt;Node33</title>
<g id="a_edge34_Node000007_Node000033"><a xlink:title=" ">
<path fill="none" stroke="#63b8ff" d="M1729.33,-151.84C1684.12,-141.95 1630.29,-129.83 1582,-118 1579.07,-117.28 1576.08,-116.54 1573.06,-115.77"/>
<polygon fill="#63b8ff" stroke="#63b8ff" points="1728.62,-155.27 1739.14,-153.98 1730.11,-148.43 1728.62,-155.27"/>
</a>
</g>
</g>
<!-- Node35 -->
<g id="Node000035" class="node">
<title>Node35</title>
<g id="a_Node000035"><a xlink:href="WaitLobby_8hpp.html" target="_top" xlink:title=" ">
<polygon fill="white" stroke="#666666" points="1735,-118 1591,-118 1591,-77 1735,-77 1735,-118"/>
<text text-anchor="start" x="1599" y="-106" font-family="Helvetica,sans-Serif" font-size="10.00">/home/runner/work/R</text>
<text text-anchor="start" x="1599" y="-95" font-family="Helvetica,sans-Serif" font-size="10.00">&#45;Type/R&#45;Type/Client</text>
<text text-anchor="middle" x="1663" y="-84" font-family="Helvetica,sans-Serif" font-size="10.00">/src/scenes/WaitLobby.hpp</text>
</a>
</g>
</g>
<!-- Node7&#45;&gt;Node35 -->
<g id="edge36_Node000007_Node000035" class="edge">
<title>Node7&#45;&gt;Node35</title>
<g id="a_edge36_Node000007_Node000035"><a xlink:title=" ">
<path fill="none" stroke="#63b8ff" d="M1778.04,-149.86C1755.11,-139.62 1728.57,-127.77 1706.77,-118.04"/>
<polygon fill="#63b8ff" stroke="#63b8ff" points="1776.74,-153.11 1787.3,-153.99 1779.59,-146.72 1776.74,-153.11"/>
</a>
</g>
</g>
<!-- Node37 -->
<g id="Node000037" class="node">
<title>Node37</title>
<g id="a_Node000037"><a xlink:href="ChargedShoot_8cpp.html" target="_top" xlink:title=" ">
<polygon fill="white" stroke="#666666" points="722,-118 570,-118 570,-77 722,-77 722,-118"/>
<text text-anchor="start" x="578" y="-106" font-family="Helvetica,sans-Serif" font-size="10.00">/home/runner/work/R</text>
<text text-anchor="start" x="578" y="-95" font-family="Helvetica,sans-Serif" font-size="10.00">&#45;Type/R&#45;Type/Shared</text>
<text text-anchor="middle" x="646" y="-84" font-family="Helvetica,sans-Serif" font-size="10.00">/systems/ChargedShoot.cpp</text>
</a>
</g>
</g>
<!-- Node7&#45;&gt;Node37 -->
<g id="edge39_Node000007_Node000037" class="edge">
<title>Node7&#45;&gt;Node37</title>
<g id="a_edge39_Node000007_Node000037"><a xlink:title=" ">
<path fill="none" stroke="#63b8ff" d="M1727.98,-174.2C1532.72,-174.23 1095.73,-168.04 732,-118 728.81,-117.56 725.57,-117.06 722.31,-116.52"/>
<polygon fill="#63b8ff" stroke="#63b8ff" points="1728.23,-177.7 1738.23,-174.19 1728.23,-170.7 1728.23,-177.7"/>
</a>
</g>
</g>
<!-- Node38 -->
<g id="Node000038" class="node">
<title>Node38</title>
<g id="a_Node000038"><a xlink:href="LevelSystem_8cpp.html" target="_top" xlink:title=" ">
<polygon fill="white" stroke="#666666" points="887.5,-118 740.5,-118 740.5,-77 887.5,-77 887.5,-118"/>
<text text-anchor="start" x="748.5" y="-106" font-family="Helvetica,sans-Serif" font-size="10.00">/home/runner/work/R</text>
<text text-anchor="start" x="748.5" y="-95" font-family="Helvetica,sans-Serif" font-size="10.00">&#45;Type/R&#45;Type/Shared</text>
<text text-anchor="middle" x="814" y="-84" font-family="Helvetica,sans-Serif" font-size="10.00">/systems/LevelSystem.cpp</text>
</a>
</g>
</g>
<!-- Node7&#45;&gt;Node38 -->
<g id="edge40_Node000007_Node000038" class="edge">
<title>Node7&#45;&gt;Node38</title>
<g id="a_edge40_Node000007_Node000038"><a xlink:title=" ">
<path fill="none" stroke="#63b8ff" d="M1728.24,-173.13C1555.6,-171.24 1196.82,-161.8 897,-118 893.92,-117.55 890.79,-117.04 887.64,-116.49"/>
<polygon fill="#63b8ff" stroke="#63b8ff" points="1728.29,-176.63 1738.33,-173.24 1728.37,-169.63 1728.29,-176.63"/>
</a>
</g>
</g>
<!-- Node39 -->
<g id="Node000039" class="node">
<title>Node39</title>
<g id="a_Node000039"><a xlink:href="Movement_8cpp.html" target="_top" xlink:title=" ">
<polygon fill="white" stroke="#666666" points="552,-118 360,-118 360,-77 552,-77 552,-118"/>
<text text-anchor="start" x="368" y="-106" font-family="Helvetica,sans-Serif" font-size="10.00">/home/runner/work/R</text>
<text text-anchor="start" x="368" y="-95" font-family="Helvetica,sans-Serif" font-size="10.00">&#45;Type/R&#45;Type/Shared</text>
<text text-anchor="middle" x="456" y="-84" font-family="Helvetica,sans-Serif" font-size="10.00">/systems/Movement/Movement.cpp</text>
</a>
</g>
</g>
<!-- Node7&#45;&gt;Node39 -->
<g id="edge41_Node000007_Node000039" class="edge">
<title>Node7&#45;&gt;Node39</title>
<g id="a_edge41_Node000007_Node000039"><a xlink:title=" ">
<path fill="none" stroke="#63b8ff" d="M1728.14,-173.87C1511.52,-173.58 992.69,-167.27 561,-118 558.05,-117.66 555.06,-117.29 552.05,-116.89"/>
<polygon fill="#63b8ff" stroke="#63b8ff" points="1728.23,-177.37 1738.23,-173.88 1728.23,-170.37 1728.23,-177.37"/>
</a>
</g>
</g>
<!-- Node40 -->
<g id="Node000040" class="node">
<title>Node40</title>
<g id="a_Node000040"><a xlink:href="Spawn_8cpp.html" target="_top" xlink:title=" ">
<polygon fill="white" stroke="#666666" points="1090.5,-118 905.5,-118 905.5,-77 1090.5,-77 1090.5,-118"/>
<text text-anchor="start" x="913.5" y="-106" font-family="Helvetica,sans-Serif" font-size="10.00">/home/runner/work/R</text>
<text text-anchor="start" x="913.5" y="-95" font-family="Helvetica,sans-Serif" font-size="10.00">&#45;Type/R&#45;Type/Shared</text>
<text text-anchor="middle" x="998" y="-84" font-family="Helvetica,sans-Serif" font-size="10.00">/systems/SpawnEnemy/Spawn.cpp</text>
</a>
</g>
</g>
<!-- Node7&#45;&gt;Node40 -->
<g id="edge42_Node000007_Node000040" class="edge">
<title>Node7&#45;&gt;Node40</title>
<g id="a_edge42_Node000007_Node000040"><a xlink:title=" ">
<path fill="none" stroke="#63b8ff" d="M1728.34,-169.37C1586.55,-162.84 1323,-147.68 1100,-118 1096.96,-117.6 1093.88,-117.16 1090.77,-116.7"/>
<polygon fill="#63b8ff" stroke="#63b8ff" points="1728.19,-172.87 1738.34,-169.83 1728.51,-165.88 1728.19,-172.87"/>
</a>
</g>
</g>
<!-- Node41 -->
<g id="Node000041" class="node">
<title>Node41</title>
<g id="a_Node000041"><a xlink:href="WaveSystem_8cpp.html" target="_top" xlink:title=" ">
<polygon fill="white" stroke="#666666" points="1257,-118 1109,-118 1109,-77 1257,-77 1257,-118"/>
<text text-anchor="start" x="1117" y="-106" font-family="Helvetica,sans-Serif" font-size="10.00">/home/runner/work/R</text>
<text text-anchor="start" x="1117" y="-95" font-family="Helvetica,sans-Serif" font-size="10.00">&#45;Type/R&#45;Type/Shared</text>
<text text-anchor="middle" x="1183" y="-84" font-family="Helvetica,sans-Serif" font-size="10.00">/systems/WaveSystem.cpp</text>
</a>
</g>
</g>
<!-- Node7&#45;&gt;Node41 -->
<g id="edge43_Node000007_Node000041" class="edge">
<title>Node7&#45;&gt;Node41</title>
<g id="a_edge43_Node000007_Node000041"><a xlink:title=" ">
<path fill="none" stroke="#63b8ff" d="M1727.93,-167.5C1614.26,-159.93 1426.22,-144.57 1266,-118 1263.08,-117.52 1260.11,-116.99 1257.11,-116.43"/>
<polygon fill="#63b8ff" stroke="#63b8ff" points="1727.81,-171 1738.02,-168.17 1728.27,-164.02 1727.81,-171"/>
</a>
</g>
</g>
<!-- Node9 -->
<g id="Node000009" class="node">
<title>Node9</title>
<g id="a_Node000009"><a xlink:href="CreateLobby_8cpp.html" target="_top" xlink:title=" ">
<polygon fill="white" stroke="#666666" points="1908,-41 1754,-41 1754,0 1908,0 1908,-41"/>
<text text-anchor="start" x="1762" y="-29" font-family="Helvetica,sans-Serif" font-size="10.00">/home/runner/work/R</text>
<text text-anchor="start" x="1762" y="-18" font-family="Helvetica,sans-Serif" font-size="10.00">&#45;Type/R&#45;Type/Client</text>
<text text-anchor="middle" x="1831" y="-7" font-family="Helvetica,sans-Serif" font-size="10.00">/src/scenes/CreateLobby.cpp</text>
</a>
</g>
</g>
<!-- Node8&#45;&gt;Node9 -->
<g id="edge9_Node000008_Node000009" class="edge">
<title>Node8&#45;&gt;Node9</title>
<g id="a_edge9_Node000008_Node000009"><a xlink:title=" ">
<path fill="none" stroke="#63b8ff" d="M1831,-66.69C1831,-58.08 1831,-48.9 1831,-41.07"/>
<polygon fill="#63b8ff" stroke="#63b8ff" points="1827.5,-66.79 1831,-76.79 1834.5,-66.79 1827.5,-66.79"/>
</a>
</g>
</g>
<!-- Node11 -->
<g id="Node000011" class="node">
<title>Node11</title>
<g id="a_Node000011"><a xlink:href="GameOver_8cpp.html" target="_top" xlink:title=" ">
<polygon fill="white" stroke="#666666" points="2073,-41 1927,-41 1927,0 2073,0 2073,-41"/>
<text text-anchor="start" x="1935" y="-29" font-family="Helvetica,sans-Serif" font-size="10.00">/home/runner/work/R</text>
<text text-anchor="start" x="1935" y="-18" font-family="Helvetica,sans-Serif" font-size="10.00">&#45;Type/R&#45;Type/Client</text>
<text text-anchor="middle" x="2000" y="-7" font-family="Helvetica,sans-Serif" font-size="10.00">/src/scenes/GameOver.cpp</text>
</a>
</g>
</g>
<!-- Node10&#45;&gt;Node11 -->
<g id="edge11_Node000010_Node000011" class="edge">
<title>Node10&#45;&gt;Node11</title>
<g id="a_edge11_Node000010_Node000011"><a xlink:title=" ">
<path fill="none" stroke="#63b8ff" d="M2000,-66.69C2000,-58.08 2000,-48.9 2000,-41.07"/>
<polygon fill="#63b8ff" stroke="#63b8ff" points="1996.5,-66.79 2000,-76.79 2003.5,-66.79 1996.5,-66.79"/>
</a>
</g>
</g>
<!-- Node13 -->
<g id="Node000013" class="node">
<title>Node13</title>
<g id="a_Node000013"><a xlink:href="JoinGame_8cpp.html" target="_top" xlink:title=" ">
<polygon fill="white" stroke="#666666" points="2232.5,-41 2091.5,-41 2091.5,0 2232.5,0 2232.5,-41"/>
<text text-anchor="start" x="2099.5" y="-29" font-family="Helvetica,sans-Serif" font-size="10.00">/home/runner/work/R</text>
<text text-anchor="start" x="2099.5" y="-18" font-family="Helvetica,sans-Serif" font-size="10.00">&#45;Type/R&#45;Type/Client</text>
<text text-anchor="middle" x="2162" y="-7" font-family="Helvetica,sans-Serif" font-size="10.00">/src/scenes/JoinGame.cpp</text>
</a>
</g>
</g>
<!-- Node12&#45;&gt;Node13 -->
<g id="edge13_Node000012_Node000013" class="edge">
<title>Node12&#45;&gt;Node13</title>
<g id="a_edge13_Node000012_Node000013"><a xlink:title=" ">
<path fill="none" stroke="#63b8ff" d="M2162,-66.69C2162,-58.08 2162,-48.9 2162,-41.07"/>
<polygon fill="#63b8ff" stroke="#63b8ff" points="2158.5,-66.79 2162,-76.79 2165.5,-66.79 2158.5,-66.79"/>
</a>
</g>
</g>
<!-- Node15 -->
<g id="Node000015" class="node">
<title>Node15</title>
<g id="a_Node000015"><a xlink:href="LevelScene_8cpp.html" target="_top" xlink:title=" ">
<polygon fill="white" stroke="#666666" points="2400.5,-41 2251.5,-41 2251.5,0 2400.5,0 2400.5,-41"/>
<text text-anchor="start" x="2259.5" y="-29" font-family="Helvetica,sans-Serif" font-size="10.00">/home/runner/work/R</text>
<text text-anchor="start" x="2259.5" y="-18" font-family="Helvetica,sans-Serif" font-size="10.00">&#45;Type/R&#45;Type/Client</text>
<text text-anchor="middle" x="2326" y="-7" font-family="Helvetica,sans-Serif" font-size="10.00">/src/scenes/LevelScene.cpp</text>
</a>
</g>
</g>
<!-- Node14&#45;&gt;Node15 -->
<g id="edge15_Node000014_Node000015" class="edge">
<title>Node14&#45;&gt;Node15</title>
<g id="a_edge15_Node000014_Node000015"><a xlink:title=" ">
<path fill="none" stroke="#63b8ff" d="M2326,-66.69C2326,-58.08 2326,-48.9 2326,-41.07"/>
<polygon fill="#63b8ff" stroke="#63b8ff" points="2322.5,-66.79 2326,-76.79 2329.5,-66.79 2322.5,-66.79"/>
</a>
</g>
</g>
<!-- Node17 -->
<g id="Node000017" class="node">
<title>Node17</title>
<g id="a_Node000017"><a xlink:href="Lobby_8cpp.html" target="_top" xlink:title=" ">
<polygon fill="white" stroke="#666666" points="2541,-41 2419,-41 2419,0 2541,0 2541,-41"/>
<text text-anchor="start" x="2427" y="-29" font-family="Helvetica,sans-Serif" font-size="10.00">/home/runner/work/R</text>
<text text-anchor="start" x="2427" y="-18" font-family="Helvetica,sans-Serif" font-size="10.00">&#45;Type/R&#45;Type/Client</text>
<text text-anchor="middle" x="2480" y="-7" font-family="Helvetica,sans-Serif" font-size="10.00">/src/scenes/Lobby.cpp</text>
</a>
</g>
</g>
<!-- Node16&#45;&gt;Node17 -->
<g id="edge17_Node000016_Node000017" class="edge">
<title>Node16&#45;&gt;Node17</title>
<g id="a_edge17_Node000016_Node000017"><a xlink:title=" ">
<path fill="none" stroke="#63b8ff" d="M2480,-66.69C2480,-58.08 2480,-48.9 2480,-41.07"/>
<polygon fill="#63b8ff" stroke="#63b8ff" points="2476.5,-66.79 2480,-76.79 2483.5,-66.79 2476.5,-66.79"/>
</a>
</g>
</g>
<!-- Node19 -->
<g id="Node000019" class="node">
<title>Node19</title>
<g id="a_Node000019"><a xlink:href="LobbyInfo_8cpp.html" target="_top" xlink:title=" ">
<polygon fill="white" stroke="#666666" points="2702,-41 2560,-41 2560,0 2702,0 2702,-41"/>
<text text-anchor="start" x="2568" y="-29" font-family="Helvetica,sans-Serif" font-size="10.00">/home/runner/work/R</text>
<text text-anchor="start" x="2568" y="-18" font-family="Helvetica,sans-Serif" font-size="10.00">&#45;Type/R&#45;Type/Client</text>
<text text-anchor="middle" x="2631" y="-7" font-family="Helvetica,sans-Serif" font-size="10.00">/src/scenes/LobbyInfo.cpp</text>
</a>
</g>
</g>
<!-- Node18&#45;&gt;Node19 -->
<g id="edge19_Node000018_Node000019" class="edge">
<title>Node18&#45;&gt;Node19</title>
<g id="a_edge19_Node000018_Node000019"><a xlink:title=" ">
<path fill="none" stroke="#63b8ff" d="M2631,-66.69C2631,-58.08 2631,-48.9 2631,-41.07"/>
<polygon fill="#63b8ff" stroke="#63b8ff" points="2627.5,-66.79 2631,-76.79 2634.5,-66.79 2627.5,-66.79"/>
</a>
</g>
</g>
<!-- Node21 -->
<g id="Node000021" class="node">
<title>Node21</title>
<g id="a_Node000021"><a xlink:href="LobbyJoin_8cpp.html" target="_top" xlink:title=" ">
<polygon fill="white" stroke="#666666" points="2862.5,-41 2721.5,-41 2721.5,0 2862.5,0 2862.5,-41"/>
<text text-anchor="start" x="2729.5" y="-29" font-family="Helvetica,sans-Serif" font-size="10.00">/home/runner/work/R</text>
<text text-anchor="start" x="2729.5" y="-18" font-family="Helvetica,sans-Serif" font-size="10.00">&#45;Type/R&#45;Type/Client</text>
<text text-anchor="middle" x="2792" y="-7" font-family="Helvetica,sans-Serif" font-size="10.00">/src/scenes/LobbyJoin.cpp</text>
</a>
</g>
</g>
<!-- Node20&#45;&gt;Node21 -->
<g id="edge21_Node000020_Node000021" class="edge">
<title>Node20&#45;&gt;Node21</title>
<g id="a_edge21_Node000020_Node000021"><a xlink:title=" ">
<path fill="none" stroke="#63b8ff" d="M2792,-66.69C2792,-58.08 2792,-48.9 2792,-41.07"/>
<polygon fill="#63b8ff" stroke="#63b8ff" points="2788.5,-66.79 2792,-76.79 2795.5,-66.79 2788.5,-66.79"/>
</a>
</g>
</g>
<!-- Node23 -->
<g id="Node000023" class="node">
<title>Node23</title>
<g id="a_Node000023"><a xlink:href="LobbyPassword_8cpp.html" target="_top" xlink:title=" ">
<polygon fill="white" stroke="#666666" points="3050.5,-41 2881.5,-41 2881.5,0 3050.5,0 3050.5,-41"/>
<text text-anchor="start" x="2889.5" y="-29" font-family="Helvetica,sans-Serif" font-size="10.00">/home/runner/work/R</text>
<text text-anchor="start" x="2889.5" y="-18" font-family="Helvetica,sans-Serif" font-size="10.00">&#45;Type/R&#45;Type/Client</text>
<text text-anchor="middle" x="2966" y="-7" font-family="Helvetica,sans-Serif" font-size="10.00">/src/scenes/LobbyPassword.cpp</text>
</a>
</g>
</g>
<!-- Node22&#45;&gt;Node23 -->
<g id="edge23_Node000022_Node000023" class="edge">
<title>Node22&#45;&gt;Node23</title>
<g id="a_edge23_Node000022_Node000023"><a xlink:title=" ">
<path fill="none" stroke="#63b8ff" d="M2966,-66.69C2966,-58.08 2966,-48.9 2966,-41.07"/>
<polygon fill="#63b8ff" stroke="#63b8ff" points="2962.5,-66.79 2966,-76.79 2969.5,-66.79 2962.5,-66.79"/>
</a>
</g>
</g>
<!-- Node25 -->
<g id="Node000025" class="node">
<title>Node25</title>
<g id="a_Node000025"><a xlink:href="MainGame_8cpp.html" target="_top" xlink:title=" ">
<polygon fill="white" stroke="#666666" points="3216.5,-41 3069.5,-41 3069.5,0 3216.5,0 3216.5,-41"/>
<text text-anchor="start" x="3077.5" y="-29" font-family="Helvetica,sans-Serif" font-size="10.00">/home/runner/work/R</text>
<text text-anchor="start" x="3077.5" y="-18" font-family="Helvetica,sans-Serif" font-size="10.00">&#45;Type/R&#45;Type/Client</text>
<text text-anchor="middle" x="3143" y="-7" font-family="Helvetica,sans-Serif" font-size="10.00">/src/scenes/MainGame.cpp</text>
</a>
</g>
</g>
<!-- Node24&#45;&gt;Node25 -->
<g id="edge25_Node000024_Node000025" class="edge">
<title>Node24&#45;&gt;Node25</title>
<g id="a_edge25_Node000024_Node000025"><a xlink:title=" ">
<path fill="none" stroke="#63b8ff" d="M3143,-66.69C3143,-58.08 3143,-48.9 3143,-41.07"/>
<polygon fill="#63b8ff" stroke="#63b8ff" points="3139.5,-66.79 3143,-76.79 3146.5,-66.79 3139.5,-66.79"/>
</a>
</g>
</g>
<!-- Node27 -->
<g id="Node000027" class="node">
<title>Node27</title>
<g id="a_Node000027"><a xlink:href="MainMenu_8cpp.html" target="_top" xlink:title=" ">
<polygon fill="white" stroke="#666666" points="3380.5,-41 3235.5,-41 3235.5,0 3380.5,0 3380.5,-41"/>
<text text-anchor="start" x="3243.5" y="-29" font-family="Helvetica,sans-Serif" font-size="10.00">/home/runner/work/R</text>
<text text-anchor="start" x="3243.5" y="-18" font-family="Helvetica,sans-Serif" font-size="10.00">&#45;Type/R&#45;Type/Client</text>
<text text-anchor="middle" x="3308" y="-7" font-family="Helvetica,sans-Serif" font-size="10.00">/src/scenes/MainMenu.cpp</text>
</a>
</g>
</g>
<!-- Node26&#45;&gt;Node27 -->
<g id="edge27_Node000026_Node000027" class="edge">
<title>Node26&#45;&gt;Node27</title>
<g id="a_edge27_Node000026_Node000027"><a xlink:title=" ">
<path fill="none" stroke="#63b8ff" d="M3308,-66.69C3308,-58.08 3308,-48.9 3308,-41.07"/>
<polygon fill="#63b8ff" stroke="#63b8ff" points="3304.5,-66.79 3308,-76.79 3311.5,-66.79 3304.5,-66.79"/>
</a>
</g>
</g>
<!-- Node29 -->
<g id="Node000029" class="node">
<title>Node29</title>
<g id="a_Node000029"><a xlink:href="Options_8cpp.html" target="_top" xlink:title=" ">
<polygon fill="white" stroke="#666666" points="3530.5,-41 3399.5,-41 3399.5,0 3530.5,0 3530.5,-41"/>
<text text-anchor="start" x="3407.5" y="-29" font-family="Helvetica,sans-Serif" font-size="10.00">/home/runner/work/R</text>
<text text-anchor="start" x="3407.5" y="-18" font-family="Helvetica,sans-Serif" font-size="10.00">&#45;Type/R&#45;Type/Client</text>
<text text-anchor="middle" x="3465" y="-7" font-family="Helvetica,sans-Serif" font-size="10.00">/src/scenes/Options.cpp</text>
</a>
</g>
</g>
<!-- Node28&#45;&gt;Node29 -->
<g id="edge29_Node000028_Node000029" class="edge">
<title>Node28&#45;&gt;Node29</title>
<g id="a_edge29_Node000028_Node000029"><a xlink:title=" ">
<path fill="none" stroke="#63b8ff" d="M3465,-66.69C3465,-58.08 3465,-48.9 3465,-41.07"/>
<polygon fill="#63b8ff" stroke="#63b8ff" points="3461.5,-66.79 3465,-76.79 3468.5,-66.79 3461.5,-66.79"/>
</a>
</g>
</g>
<!-- Node30&#45;&gt;Node5 -->
<g id="edge31_Node000030_Node000005" class="edge">
<title>Node30&#45;&gt;Node5</title>
<g id="a_edge31_Node000030_Node000005"><a xlink:title=" ">
<path fill="none" stroke="#63b8ff" d="M1264.64,-76.93C941.83,-31.46 566.23,-23.2 408.1,-21.75"/>
<polygon fill="#63b8ff" stroke="#63b8ff" points="1264.26,-80.41 1274.66,-78.36 1265.25,-73.48 1264.26,-80.41"/>
</a>
</g>
</g>
<!-- Node32 -->
<g id="Node000032" class="node">
<title>Node32</title>
<g id="a_Node000032"><a xlink:href="SecondGameClient_8cpp.html" target="_top" xlink:title=" ">
<polygon fill="white" stroke="#666666" points="3736.5,-41 3549.5,-41 3549.5,0 3736.5,0 3736.5,-41"/>
<text text-anchor="start" x="3557.5" y="-29" font-family="Helvetica,sans-Serif" font-size="10.00">/home/runner/work/R</text>
<text text-anchor="start" x="3557.5" y="-18" font-family="Helvetica,sans-Serif" font-size="10.00">&#45;Type/R&#45;Type/Client</text>
<text text-anchor="middle" x="3643" y="-7" font-family="Helvetica,sans-Serif" font-size="10.00">/src/scenes/SecondGameClient.cpp</text>
</a>
</g>
</g>
<!-- Node31&#45;&gt;Node32 -->
<g id="edge33_Node000031_Node000032" class="edge">
<title>Node31&#45;&gt;Node32</title>
<g id="a_edge33_Node000031_Node000032"><a xlink:title=" ">
<path fill="none" stroke="#63b8ff" d="M3643,-66.69C3643,-58.08 3643,-48.9 3643,-41.07"/>
<polygon fill="#63b8ff" stroke="#63b8ff" points="3639.5,-66.79 3643,-76.79 3646.5,-66.79 3639.5,-66.79"/>
</a>
</g>
</g>
<!-- Node34 -->
<g id="Node000034" class="node">
<title>Node34</title>
<g id="a_Node000034"><a xlink:href="Victory_8cpp.html" target="_top" xlink:title=" ">
<polygon fill="white" stroke="#666666" points="1572.5,-41 1445.5,-41 1445.5,0 1572.5,0 1572.5,-41"/>
<text text-anchor="start" x="1453.5" y="-29" font-family="Helvetica,sans-Serif" font-size="10.00">/home/runner/work/R</text>
<text text-anchor="start" x="1453.5" y="-18" font-family="Helvetica,sans-Serif" font-size="10.00">&#45;Type/R&#45;Type/Client</text>
<text text-anchor="middle" x="1509" y="-7" font-family="Helvetica,sans-Serif" font-size="10.00">/src/scenes/Victory.cpp</text>
</a>
</g>
</g>
<!-- Node33&#45;&gt;Node34 -->
<g id="edge35_Node000033_Node000034" class="edge">
<title>Node33&#45;&gt;Node34</title>
<g id="a_edge35_Node000033_Node000034"><a xlink:title=" ">
<path fill="none" stroke="#63b8ff" d="M1509,-66.69C1509,-58.08 1509,-48.9 1509,-41.07"/>
<polygon fill="#63b8ff" stroke="#63b8ff" points="1505.5,-66.79 1509,-76.79 1512.5,-66.79 1505.5,-66.79"/>
</a>
</g>
</g>
<!-- Node36 -->
<g id="Node000036" class="node">
<title>Node36</title>
<g id="a_Node000036"><a xlink:href="WaitLobby_8cpp.html" target="_top" xlink:title=" ">
<polygon fill="white" stroke="#666666" points="1734.5,-41 1591.5,-41 1591.5,0 1734.5,0 1734.5,-41"/>
<text text-anchor="start" x="1599.5" y="-29" font-family="Helvetica,sans-Serif" font-size="10.00">/home/runner/work/R</text>
<text text-anchor="start" x="1599.5" y="-18" font-family="Helvetica,sans-Serif" font-size="10.00">&#45;Type/R&#45;Type/Client</text>
<text text-anchor="middle" x="1663" y="-7" font-family="Helvetica,sans-Serif" font-size="10.00">/src/scenes/WaitLobby.cpp</text>
</a>
</g>
</g>
<!-- Node35&#45;&gt;Node36 -->
<g id="edge37_Node000035_Node000036" class="edge">
<title>Node35&#45;&gt;Node36</title>
<g id="a_edge37_Node000035_Node000036"><a xlink:title=" ">
<path fill="none" stroke="#63b8ff" d="M1663,-66.69C1663,-58.08 1663,-48.9 1663,-41.07"/>
<polygon fill="#63b8ff" stroke="#63b8ff" points="1659.5,-66.79 1663,-76.79 1666.5,-66.79 1659.5,-66.79"/>
</a>
</g>
</g>
<!-- Node42&#45;&gt;Node2 -->
<g id="edge46_Node000042_Node000002" class="edge">
<title>Node42&#45;&gt;Node2</title>
<g id="a_edge46_Node000042_Node000002"><a xlink:title=" ">
<path fill="none" stroke="#63b8ff" d="M330.72,-148.92C313.57,-138.95 294.02,-127.58 277.84,-118.17"/>
<polygon fill="#63b8ff" stroke="#63b8ff" points="329.04,-151.99 339.44,-153.99 332.56,-145.94 329.04,-151.99"/>
</a>
</g>
</g>
<!-- Node42&#45;&gt;Node5 -->
<g id="edge45_Node000042_Node000005" class="edge">
<title>Node42&#45;&gt;Node5</title>
<g id="a_edge45_Node000042_Node000005"><a xlink:title=" ">
<path fill="none" stroke="#63b8ff" d="M360.3,-144.38C356.95,-135.98 353.56,-126.72 351,-118 343.34,-91.95 337.87,-61.04 334.82,-41.35"/>
<polygon fill="#63b8ff" stroke="#63b8ff" points="357.12,-145.85 364.16,-153.77 363.59,-143.19 357.12,-145.85"/>
</a>
</g>
</g>
<!-- Node42&#45;&gt;Node39 -->
<g id="edge47_Node000042_Node000039" class="edge">
<title>Node42&#45;&gt;Node39</title>
<g id="a_edge47_Node000042_Node000039"><a xlink:title=" ">
<path fill="none" stroke="#63b8ff" d="M402.25,-147.07C412.81,-137.52 424.54,-126.93 434.34,-118.07"/>
<polygon fill="#63b8ff" stroke="#63b8ff" points="399.88,-144.49 394.81,-153.79 404.57,-149.69 399.88,-144.49"/>
</a>
</g>
</g>
</g>
</svg>
