<?xml version="1.0" encoding="UTF-8" standalone="no"?>
<!DOCTYPE svg PUBLIC "-//W3C//DTD SVG 1.1//EN"
 "http://www.w3.org/Graphics/SVG/1.1/DTD/svg11.dtd">
<!-- Generated by graphviz version 2.43.0 (0)
 -->
<!-- Title: /home/runner/work/R&#45;Type/R&#45;Type/Shared/systems/ForceCtrl.cpp Pages: 1 -->
<svg width="1393pt" height="324pt"
 viewBox="0.00 0.00 1393.34 324.00" xmlns="http://www.w3.org/2000/svg" xmlns:xlink="http://www.w3.org/1999/xlink">
<g id="graph0" class="graph" transform="scale(1 1) rotate(0) translate(4 320)">
<title>/home/runner/work/R&#45;Type/R&#45;Type/Shared/systems/ForceCtrl.cpp</title>
<!-- Node1 -->
<g id="Node000001" class="node">
<title>Node1</title>
<g id="a_Node000001"><a xlink:title=" ">
<polygon fill="#999999" stroke="#666666" points="1250.34,-316 1122.34,-316 1122.34,-275 1250.34,-275 1250.34,-316"/>
<text text-anchor="start" x="1130.34" y="-304" font-family="Helvetica,sans-Serif" font-size="10.00">/home/runner/work/R</text>
<text text-anchor="start" x="1130.34" y="-293" font-family="Helvetica,sans-Serif" font-size="10.00">&#45;Type/R&#45;Type/Shared</text>
<text text-anchor="middle" x="1186.34" y="-282" font-family="Helvetica,sans-Serif" font-size="10.00">/systems/ForceCtrl.cpp</text>
</a>
</g>
</g>
<!-- Node2 -->
<g id="Node000002" class="node">
<title>Node2</title>
<g id="a_Node000002"><a xlink:href="ForceCtrl_8hpp.html" target="_top" xlink:title=" ">
<polygon fill="white" stroke="#666666" points="803.84,-239 678.84,-239 678.84,-220 803.84,-220 803.84,-239"/>
<text text-anchor="middle" x="741.34" y="-227" font-family="Helvetica,sans-Serif" font-size="10.00">systems/ForceCtrl.hpp</text>
</a>
</g>
</g>
<!-- Node1&#45;&gt;Node2 -->
<g id="edge1_Node000001_Node000002" class="edge">
<title>Node1&#45;&gt;Node2</title>
<g id="a_edge1_Node000001_Node000002"><a xlink:title=" ">
<path fill="none" stroke="#63b8ff" d="M1122.11,-285.26C1039.31,-273.35 895.88,-252.73 810.67,-240.47"/>
<polygon fill="#63b8ff" stroke="#63b8ff" points="810.98,-236.98 800.58,-239.02 809.98,-243.91 810.98,-236.98"/>
</a>
</g>
</g>
<!-- Node10 -->
<g id="Node000010" class="node">
<title>Node10</title>
<g id="a_Node000010"><a xlink:href="BossPart_8hpp.html" target="_top" xlink:title=" ">
<polygon fill="white" stroke="#666666" points="1046.84,-129 903.84,-129 903.84,-110 1046.84,-110 1046.84,-129"/>
<text text-anchor="middle" x="975.34" y="-117" font-family="Helvetica,sans-Serif" font-size="10.00">components/BossPart.hpp</text>
</a>
</g>
</g>
<!-- Node1&#45;&gt;Node10 -->
<g id="edge27_Node000001_Node000010" class="edge">
<title>Node1&#45;&gt;Node10</title>
<g id="a_edge27_Node000001_Node000010"><a xlink:title=" ">
<path fill="none" stroke="#63b8ff" d="M1217.9,-274.82C1255.93,-248.71 1311.02,-201.65 1279.34,-165 1251.12,-132.35 1137.1,-123.19 1057.03,-120.88"/>
<polygon fill="#63b8ff" stroke="#63b8ff" points="1057.04,-117.38 1046.96,-120.62 1056.86,-124.38 1057.04,-117.38"/>
</a>
</g>
</g>
<!-- Node13 -->
<g id="Node000013" class="node">
<title>Node13</title>
<g id="a_Node000013"><a xlink:href="Enemy_8hpp.html" target="_top" xlink:title=" ">
<polygon fill="white" stroke="#666666" points="1269.84,-184 1102.84,-184 1102.84,-165 1269.84,-165 1269.84,-184"/>
<text text-anchor="middle" x="1186.34" y="-172" font-family="Helvetica,sans-Serif" font-size="10.00">components/Player/Enemy.hpp</text>
</a>
</g>
</g>
<!-- Node1&#45;&gt;Node13 -->
<g id="edge28_Node000001_Node000013" class="edge">
<title>Node1&#45;&gt;Node13</title>
<g id="a_edge28_Node000001_Node000013"><a xlink:title=" ">
<path fill="none" stroke="#63b8ff" d="M1186.34,-274.85C1186.34,-252.48 1186.34,-216.19 1186.34,-194.21"/>
<polygon fill="#63b8ff" stroke="#63b8ff" points="1189.84,-194.18 1186.34,-184.18 1182.84,-194.18 1189.84,-194.18"/>
</a>
</g>
</g>
<!-- Node18 -->
<g id="Node000018" class="node">
<title>Node18</title>
<g id="a_Node000018"><a xlink:title=" ">
<polygon fill="#e0e0e0" stroke="#999999" points="1385.34,-239 1325.34,-239 1325.34,-220 1385.34,-220 1385.34,-239"/>
<text text-anchor="middle" x="1355.34" y="-227" font-family="Helvetica,sans-Serif" font-size="10.00">iostream</text>
</a>
</g>
</g>
<!-- Node1&#45;&gt;Node18 -->
<g id="edge26_Node000001_Node000018" class="edge">
<title>Node1&#45;&gt;Node18</title>
<g id="a_edge26_Node000001_Node000018"><a xlink:title=" ">
<path fill="none" stroke="#63b8ff" d="M1237.97,-274.95C1265.78,-264.42 1299.22,-251.75 1323.29,-242.64"/>
<polygon fill="#63b8ff" stroke="#63b8ff" points="1324.54,-245.91 1332.66,-239.09 1322.07,-239.36 1324.54,-245.91"/>
</a>
</g>
</g>
<!-- Node19 -->
<g id="Node000019" class="node">
<title>Node19</title>
<g id="a_Node000019"><a xlink:href="Collision_8hpp.html" target="_top" xlink:title=" ">
<polygon fill="white" stroke="#666666" points="472.84,-239 303.84,-239 303.84,-220 472.84,-220 472.84,-239"/>
<text text-anchor="middle" x="388.34" y="-227" font-family="Helvetica,sans-Serif" font-size="10.00">systems/Collision/Collision.hpp</text>
</a>
</g>
</g>
<!-- Node1&#45;&gt;Node19 -->
<g id="edge29_Node000001_Node000019" class="edge">
<title>Node1&#45;&gt;Node19</title>
<g id="a_edge29_Node000001_Node000019"><a xlink:title=" ">
<path fill="none" stroke="#63b8ff" d="M1122.05,-289.34C981.72,-278.09 647.4,-251.28 482.97,-238.09"/>
<polygon fill="#63b8ff" stroke="#63b8ff" points="483.11,-234.59 472.86,-237.28 482.55,-241.57 483.11,-234.59"/>
</a>
</g>
</g>
<!-- Node3 -->
<g id="Node000003" class="node">
<title>Node3</title>
<g id="a_Node000003"><a xlink:href="PlayerEntity_8hpp.html" target="_top" xlink:title=" ">
<polygon fill="white" stroke="#666666" points="340.84,-184 211.84,-184 211.84,-165 340.84,-165 340.84,-184"/>
<text text-anchor="middle" x="276.34" y="-172" font-family="Helvetica,sans-Serif" font-size="10.00">Player/PlayerEntity.hpp</text>
</a>
</g>
</g>
<!-- Node2&#45;&gt;Node3 -->
<g id="edge2_Node000002_Node000003" class="edge">
<title>Node2&#45;&gt;Node3</title>
<g id="a_edge2_Node000002_Node000003"><a xlink:title=" ">
<path fill="none" stroke="#63b8ff" d="M678.63,-221.35C593.57,-211.66 441.83,-194.36 351,-184.01"/>
<polygon fill="#63b8ff" stroke="#63b8ff" points="351.38,-180.53 341.05,-182.87 350.59,-187.48 351.38,-180.53"/>
</a>
</g>
</g>
<!-- Node9 -->
<g id="Node000009" class="node">
<title>Node9</title>
<g id="a_Node000009"><a xlink:title=" ">
<polygon fill="#e0e0e0" stroke="#999999" points="806.34,-19 678.34,-19 678.34,0 806.34,0 806.34,-19"/>
<text text-anchor="middle" x="742.34" y="-7" font-family="Helvetica,sans-Serif" font-size="10.00">physics/Physics2D.hpp</text>
</a>
</g>
</g>
<!-- Node2&#45;&gt;Node9 -->
<g id="edge16_Node000002_Node000009" class="edge">
<title>Node2&#45;&gt;Node9</title>
<g id="a_edge16_Node000002_Node000009"><a xlink:title=" ">
<path fill="none" stroke="#63b8ff" d="M804.01,-228.94C886.37,-228.03 1024.34,-220.85 1056.34,-184 1077.91,-159.17 1075.77,-136.54 1056.34,-110 1026.11,-68.7 884.59,-36.5 802.23,-20.87"/>
<polygon fill="#63b8ff" stroke="#63b8ff" points="802.72,-17.4 792.24,-19.01 801.43,-24.28 802.72,-17.4"/>
</a>
</g>
</g>
<!-- Node2&#45;&gt;Node10 -->
<g id="edge10_Node000002_Node000010" class="edge">
<title>Node2&#45;&gt;Node10</title>
<g id="a_edge10_Node000002_Node000010"><a xlink:title=" ">
<path fill="none" stroke="#63b8ff" d="M741.46,-219.64C742.14,-205.83 745.57,-179.27 761.34,-165 772.45,-154.95 851.24,-140.37 910.01,-130.67"/>
<polygon fill="#63b8ff" stroke="#63b8ff" points="910.69,-134.11 919.99,-129.04 909.56,-127.2 910.69,-134.11"/>
</a>
</g>
</g>
<!-- Node11 -->
<g id="Node000011" class="node">
<title>Node11</title>
<g id="a_Node000011"><a xlink:href="Force_8hpp.html" target="_top" xlink:title=" ">
<polygon fill="white" stroke="#666666" points="885.84,-129 758.84,-129 758.84,-110 885.84,-110 885.84,-129"/>
<text text-anchor="middle" x="822.34" y="-117" font-family="Helvetica,sans-Serif" font-size="10.00">components/Force.hpp</text>
</a>
</g>
</g>
<!-- Node2&#45;&gt;Node11 -->
<g id="edge13_Node000002_Node000011" class="edge">
<title>Node2&#45;&gt;Node11</title>
<g id="a_edge13_Node000002_Node000011"><a xlink:title=" ">
<path fill="none" stroke="#63b8ff" d="M735.75,-220C728.05,-207.12 716.32,-182.34 727.34,-165 737.23,-149.45 754.13,-139.25 770.97,-132.58"/>
<polygon fill="#63b8ff" stroke="#63b8ff" points="772.58,-135.72 780.82,-129.06 770.22,-129.13 772.58,-135.72"/>
</a>
</g>
</g>
<!-- Node12 -->
<g id="Node000012" class="node">
<title>Node12</title>
<g id="a_Node000012"><a xlink:href="Boss_8hpp.html" target="_top" xlink:title=" ">
<polygon fill="white" stroke="#666666" points="740.34,-129 582.34,-129 582.34,-110 740.34,-110 740.34,-129"/>
<text text-anchor="middle" x="661.34" y="-117" font-family="Helvetica,sans-Serif" font-size="10.00">components/Player/Boss.hpp</text>
</a>
</g>
</g>
<!-- Node2&#45;&gt;Node12 -->
<g id="edge17_Node000002_Node000012" class="edge">
<title>Node2&#45;&gt;Node12</title>
<g id="a_edge17_Node000002_Node000012"><a xlink:title=" ">
<path fill="none" stroke="#63b8ff" d="M728.36,-219.93C716.86,-211.81 700.26,-198.69 689.34,-184 679.14,-170.27 671.64,-152.22 666.98,-138.88"/>
<polygon fill="#63b8ff" stroke="#63b8ff" points="670.3,-137.78 663.86,-129.36 663.65,-139.96 670.3,-137.78"/>
</a>
</g>
</g>
<!-- Node2&#45;&gt;Node13 -->
<g id="edge20_Node000002_Node000013" class="edge">
<title>Node2&#45;&gt;Node13</title>
<g id="a_edge20_Node000002_Node000013"><a xlink:title=" ">
<path fill="none" stroke="#63b8ff" d="M804.16,-221.02C882.86,-211.65 1017.89,-195.56 1104.58,-185.24"/>
<polygon fill="#63b8ff" stroke="#63b8ff" points="1105.13,-188.7 1114.64,-184.04 1104.3,-181.75 1105.13,-188.7"/>
</a>
</g>
</g>
<!-- Node14 -->
<g id="Node000014" class="node">
<title>Node14</title>
<g id="a_Node000014"><a xlink:title=" ">
<polygon fill="#e0e0e0" stroke="#999999" points="531.34,-184 435.34,-184 435.34,-165 531.34,-165 531.34,-184"/>
<text text-anchor="middle" x="483.34" y="-172" font-family="Helvetica,sans-Serif" font-size="10.00">ecs/Registry.hpp</text>
</a>
</g>
</g>
<!-- Node2&#45;&gt;Node14 -->
<g id="edge22_Node000002_Node000014" class="edge">
<title>Node2&#45;&gt;Node14</title>
<g id="a_edge22_Node000002_Node000014"><a xlink:title=" ">
<path fill="none" stroke="#63b8ff" d="M699.89,-219.98C655.08,-210.78 583.57,-196.09 535.1,-186.13"/>
<polygon fill="#63b8ff" stroke="#63b8ff" points="535.62,-182.67 525.12,-184.08 534.21,-189.52 535.62,-182.67"/>
</a>
</g>
</g>
<!-- Node15 -->
<g id="Node000015" class="node">
<title>Node15</title>
<g id="a_Node000015"><a xlink:title=" ">
<polygon fill="#e0e0e0" stroke="#999999" points="884.84,-184 769.84,-184 769.84,-165 884.84,-165 884.84,-184"/>
<text text-anchor="middle" x="827.34" y="-172" font-family="Helvetica,sans-Serif" font-size="10.00">ecs/SparseArray.hpp</text>
</a>
</g>
</g>
<!-- Node2&#45;&gt;Node15 -->
<g id="edge23_Node000002_Node000015" class="edge">
<title>Node2&#45;&gt;Node15</title>
<g id="a_edge23_Node000002_Node000015"><a xlink:title=" ">
<path fill="none" stroke="#63b8ff" d="M755.16,-219.98C768.5,-211.77 788.93,-199.18 804.65,-189.49"/>
<polygon fill="#63b8ff" stroke="#63b8ff" points="806.6,-192.4 813.28,-184.17 802.93,-186.44 806.6,-192.4"/>
</a>
</g>
</g>
<!-- Node16 -->
<g id="Node000016" class="node">
<title>Node16</title>
<g id="a_Node000016"><a xlink:title=" ">
<polygon fill="#e0e0e0" stroke="#999999" points="637.34,-184 549.34,-184 549.34,-165 637.34,-165 637.34,-184"/>
<text text-anchor="middle" x="593.34" y="-172" font-family="Helvetica,sans-Serif" font-size="10.00">ecs/Zipper.hpp</text>
</a>
</g>
</g>
<!-- Node2&#45;&gt;Node16 -->
<g id="edge24_Node000002_Node000016" class="edge">
<title>Node2&#45;&gt;Node16</title>
<g id="a_edge24_Node000002_Node000016"><a xlink:title=" ">
<path fill="none" stroke="#63b8ff" d="M717.57,-219.98C693.11,-211.23 654.81,-197.51 627.2,-187.62"/>
<polygon fill="#63b8ff" stroke="#63b8ff" points="628.15,-184.25 617.56,-184.17 625.79,-190.84 628.15,-184.25"/>
</a>
</g>
</g>
<!-- Node17 -->
<g id="Node000017" class="node">
<title>Node17</title>
<g id="a_Node000017"><a xlink:title=" ">
<polygon fill="#e0e0e0" stroke="#999999" points="1047.34,-184 903.34,-184 903.34,-165 1047.34,-165 1047.34,-184"/>
<text text-anchor="middle" x="975.34" y="-172" font-family="Helvetica,sans-Serif" font-size="10.00">input/InputSubsystem.hpp</text>
</a>
</g>
</g>
<!-- Node2&#45;&gt;Node17 -->
<g id="edge25_Node000002_Node000017" class="edge">
<title>Node2&#45;&gt;Node17</title>
<g id="a_edge25_Node000002_Node000017"><a xlink:title=" ">
<path fill="none" stroke="#63b8ff" d="M778.94,-219.98C819.33,-210.84 883.63,-196.27 927.58,-186.32"/>
<polygon fill="#63b8ff" stroke="#63b8ff" points="928.47,-189.7 937.45,-184.08 926.93,-182.88 928.47,-189.7"/>
</a>
</g>
</g>
<!-- Node4 -->
<g id="Node000004" class="node">
<title>Node4</title>
<g id="a_Node000004"><a xlink:title=" ">
<polygon fill="#e0e0e0" stroke="#999999" points="374.34,-129 310.34,-129 310.34,-110 374.34,-110 374.34,-129"/>
<text text-anchor="middle" x="342.34" y="-117" font-family="Helvetica,sans-Serif" font-size="10.00">algorithm</text>
</a>
</g>
</g>
<!-- Node3&#45;&gt;Node4 -->
<g id="edge3_Node000003_Node000004" class="edge">
<title>Node3&#45;&gt;Node4</title>
<g id="a_edge3_Node000003_Node000004"><a xlink:title=" ">
<path fill="none" stroke="#63b8ff" d="M286.95,-164.98C296.8,-157.07 311.7,-145.11 323.56,-135.58"/>
<polygon fill="#63b8ff" stroke="#63b8ff" points="325.94,-138.16 331.55,-129.17 321.56,-132.7 325.94,-138.16"/>
</a>
</g>
</g>
<!-- Node5 -->
<g id="Node000005" class="node">
<title>Node5</title>
<g id="a_Node000005"><a xlink:href="CollisionController_8hpp.html" target="_top" xlink:title=" ">
<polygon fill="white" stroke="#666666" points="564.34,-129 392.34,-129 392.34,-110 564.34,-110 564.34,-129"/>
<text text-anchor="middle" x="478.34" y="-117" font-family="Helvetica,sans-Serif" font-size="10.00">Collision/CollisionController.hpp</text>
</a>
</g>
</g>
<!-- Node3&#45;&gt;Node5 -->
<g id="edge4_Node000003_Node000005" class="edge">
<title>Node3&#45;&gt;Node5</title>
<g id="a_edge4_Node000003_Node000005"><a xlink:title=" ">
<path fill="none" stroke="#63b8ff" d="M308.8,-164.98C343.3,-155.93 398.01,-141.58 435.9,-131.64"/>
<polygon fill="#63b8ff" stroke="#63b8ff" points="436.85,-135.01 445.64,-129.08 435.07,-128.23 436.85,-135.01"/>
</a>
</g>
</g>
<!-- Node7 -->
<g id="Node000007" class="node">
<title>Node7</title>
<g id="a_Node000007"><a xlink:href="Weapon_8hpp.html" target="_top" xlink:title=" ">
<polygon fill="white" stroke="#666666" points="254.34,-129 144.34,-129 144.34,-110 254.34,-110 254.34,-129"/>
<text text-anchor="middle" x="199.34" y="-117" font-family="Helvetica,sans-Serif" font-size="10.00">Player/Weapon.hpp</text>
</a>
</g>
</g>
<!-- Node3&#45;&gt;Node7 -->
<g id="edge6_Node000003_Node000007" class="edge">
<title>Node3&#45;&gt;Node7</title>
<g id="a_edge6_Node000003_Node000007"><a xlink:title=" ">
<path fill="none" stroke="#63b8ff" d="M263.97,-164.98C252.26,-156.92 234.42,-144.65 220.46,-135.03"/>
<polygon fill="#63b8ff" stroke="#63b8ff" points="222.16,-131.96 211.94,-129.17 218.19,-137.72 222.16,-131.96"/>
</a>
</g>
</g>
<!-- Node3&#45;&gt;Node9 -->
<g id="edge9_Node000003_Node000009" class="edge">
<title>Node3&#45;&gt;Node9</title>
<g id="a_edge9_Node000003_Node000009"><a xlink:title=" ">
<path fill="none" stroke="#63b8ff" d="M277.24,-164.62C279.12,-150.79 284.8,-124.19 301.34,-110 355.8,-63.31 557.33,-32.56 668.14,-18.8"/>
<polygon fill="#63b8ff" stroke="#63b8ff" points="668.75,-22.25 678.25,-17.56 667.89,-15.3 668.75,-22.25"/>
</a>
</g>
</g>
<!-- Node6 -->
<g id="Node000006" class="node">
<title>Node6</title>
<g id="a_Node000006"><a xlink:title=" ">
<polygon fill="#e0e0e0" stroke="#999999" points="786.34,-74 702.34,-74 702.34,-55 786.34,-55 786.34,-74"/>
<text text-anchor="middle" x="744.34" y="-62" font-family="Helvetica,sans-Serif" font-size="10.00">ecs/Entity.hpp</text>
</a>
</g>
</g>
<!-- Node5&#45;&gt;Node6 -->
<g id="edge5_Node000005_Node000006" class="edge">
<title>Node5&#45;&gt;Node6</title>
<g id="a_edge5_Node000005_Node000006"><a xlink:title=" ">
<path fill="none" stroke="#63b8ff" d="M521.08,-109.98C567.66,-100.7 642.2,-85.85 692.19,-75.89"/>
<polygon fill="#63b8ff" stroke="#63b8ff" points="693.03,-79.29 702.15,-73.91 691.66,-72.43 693.03,-79.29"/>
</a>
</g>
</g>
<!-- Node8 -->
<g id="Node000008" class="node">
<title>Node8</title>
<g id="a_Node000008"><a xlink:href="Projectile_8hpp.html" target="_top" xlink:title=" ">
<polygon fill="white" stroke="#666666" points="254.34,-74 74.34,-74 74.34,-55 254.34,-55 254.34,-74"/>
<text text-anchor="middle" x="164.34" y="-62" font-family="Helvetica,sans-Serif" font-size="10.00">components/Player/Projectile.hpp</text>
</a>
</g>
</g>
<!-- Node7&#45;&gt;Node8 -->
<g id="edge7_Node000007_Node000008" class="edge">
<title>Node7&#45;&gt;Node8</title>
<g id="a_edge7_Node000007_Node000008"><a xlink:title=" ">
<path fill="none" stroke="#63b8ff" d="M193.57,-109.75C188.72,-102.42 181.67,-91.73 175.7,-82.7"/>
<polygon fill="#63b8ff" stroke="#63b8ff" points="178.45,-80.5 170.02,-74.09 172.61,-84.36 178.45,-80.5"/>
</a>
</g>
</g>
<!-- Node8&#45;&gt;Node9 -->
<g id="edge8_Node000008_Node000009" class="edge">
<title>Node8&#45;&gt;Node9</title>
<g id="a_edge8_Node000008_Node000009"><a xlink:title=" ">
<path fill="none" stroke="#63b8ff" d="M254.66,-55.22C368.5,-44.78 562.07,-27.03 667.87,-17.33"/>
<polygon fill="#63b8ff" stroke="#63b8ff" points="668.5,-20.79 678.14,-16.39 667.86,-13.82 668.5,-20.79"/>
</a>
</g>
</g>
<!-- Node10&#45;&gt;Node6 -->
<g id="edge12_Node000010_Node000006" class="edge">
<title>Node10&#45;&gt;Node6</title>
<g id="a_edge12_Node000010_Node000006"><a xlink:title=" ">
<path fill="none" stroke="#63b8ff" d="M938.23,-109.98C898.36,-100.84 834.88,-86.27 791.5,-76.32"/>
<polygon fill="#63b8ff" stroke="#63b8ff" points="792.28,-72.91 781.75,-74.08 790.71,-79.73 792.28,-72.91"/>
</a>
</g>
</g>
<!-- Node10&#45;&gt;Node9 -->
<g id="edge11_Node000010_Node000009" class="edge">
<title>Node10&#45;&gt;Node9</title>
<g id="a_edge11_Node000010_Node000009"><a xlink:title=" ">
<path fill="none" stroke="#63b8ff" d="M956.67,-109.84C915.75,-90.88 818.02,-45.58 769.97,-23.31"/>
<polygon fill="#63b8ff" stroke="#63b8ff" points="771.33,-20.08 760.78,-19.05 768.38,-26.43 771.33,-20.08"/>
</a>
</g>
</g>
<!-- Node11&#45;&gt;Node6 -->
<g id="edge14_Node000011_Node000006" class="edge">
<title>Node11&#45;&gt;Node6</title>
<g id="a_edge14_Node000011_Node000006"><a xlink:title=" ">
<path fill="none" stroke="#63b8ff" d="M809.81,-109.98C797.94,-101.92 779.88,-89.65 765.73,-80.03"/>
<polygon fill="#63b8ff" stroke="#63b8ff" points="767.34,-76.9 757.1,-74.17 763.41,-82.69 767.34,-76.9"/>
</a>
</g>
</g>
<!-- Node11&#45;&gt;Node9 -->
<g id="edge15_Node000011_Node000009" class="edge">
<title>Node11&#45;&gt;Node9</title>
<g id="a_edge15_Node000011_Node000009"><a xlink:title=" ">
<path fill="none" stroke="#63b8ff" d="M820.01,-109.62C816.31,-96.68 808.17,-72.33 795.34,-55 786.86,-43.53 774.84,-33.13 764.39,-25.27"/>
<polygon fill="#63b8ff" stroke="#63b8ff" points="766.26,-22.3 756.1,-19.3 762.17,-27.98 766.26,-22.3"/>
</a>
</g>
</g>
<!-- Node12&#45;&gt;Node6 -->
<g id="edge19_Node000012_Node000006" class="edge">
<title>Node12&#45;&gt;Node6</title>
<g id="a_edge19_Node000012_Node000006"><a xlink:title=" ">
<path fill="none" stroke="#63b8ff" d="M674.68,-109.98C687.43,-101.84 706.9,-89.41 722.02,-79.76"/>
<polygon fill="#63b8ff" stroke="#63b8ff" points="724.22,-82.5 730.77,-74.17 720.45,-76.6 724.22,-82.5"/>
</a>
</g>
</g>
<!-- Node12&#45;&gt;Node9 -->
<g id="edge18_Node000012_Node000009" class="edge">
<title>Node12&#45;&gt;Node9</title>
<g id="a_edge18_Node000012_Node000009"><a xlink:title=" ">
<path fill="none" stroke="#63b8ff" d="M664.57,-109.71C669.54,-96.9 679.89,-72.69 693.34,-55 701.74,-43.96 713.1,-33.45 722.78,-25.41"/>
<polygon fill="#63b8ff" stroke="#63b8ff" points="725.11,-28.02 730.72,-19.03 720.73,-22.56 725.11,-28.02"/>
</a>
</g>
</g>
<!-- Node13&#45;&gt;Node9 -->
<g id="edge21_Node000013_Node000009" class="edge">
<title>Node13&#45;&gt;Node9</title>
<g id="a_edge21_Node000013_Node000009"><a xlink:title=" ">
<path fill="none" stroke="#63b8ff" d="M1182.17,-164.74C1170.87,-142.1 1137.24,-81.55 1089.34,-55 1043.93,-29.82 904.39,-18.43 816.72,-13.63"/>
<polygon fill="#63b8ff" stroke="#63b8ff" points="816.73,-10.13 806.55,-13.1 816.35,-17.12 816.73,-10.13"/>
</a>
</g>
</g>
<!-- Node19&#45;&gt;Node3 -->
<g id="edge34_Node000019_Node000003" class="edge">
<title>Node19&#45;&gt;Node3</title>
<g id="a_edge34_Node000019_Node000003"><a xlink:title=" ">
<path fill="none" stroke="#63b8ff" d="M370.35,-219.98C352.41,-211.5 324.63,-198.35 303.91,-188.54"/>
<polygon fill="#63b8ff" stroke="#63b8ff" points="305.2,-185.28 294.67,-184.17 302.21,-191.61 305.2,-185.28"/>
</a>
</g>
</g>
<!-- Node19&#45;&gt;Node5 -->
<g id="edge30_Node000019_Node000005" class="edge">
<title>Node19&#45;&gt;Node5</title>
<g id="a_edge30_Node000019_Node000005"><a xlink:title=" ">
<path fill="none" stroke="#63b8ff" d="M386.58,-219.86C384.41,-206.8 382.26,-181.8 393.34,-165 403.23,-150.04 419.83,-139.79 435.75,-132.94"/>
<polygon fill="#63b8ff" stroke="#63b8ff" points="437.49,-136.01 445.51,-129.1 434.92,-129.5 437.49,-136.01"/>
</a>
</g>
</g>
<!-- Node19&#45;&gt;Node8 -->
<g id="edge35_Node000019_Node000008" class="edge">
<title>Node19&#45;&gt;Node8</title>
<g id="a_edge35_Node000019_Node000008"><a xlink:title=" ">
<path fill="none" stroke="#63b8ff" d="M321.27,-219.97C284.73,-213.51 239.51,-202.47 202.34,-184 167.84,-166.86 151.81,-163.83 135.34,-129 127.78,-113 138.28,-94.6 148.7,-81.73"/>
<polygon fill="#63b8ff" stroke="#63b8ff" points="151.38,-83.99 155.34,-74.16 146.11,-79.37 151.38,-83.99"/>
</a>
</g>
</g>
<!-- Node19&#45;&gt;Node9 -->
<g id="edge36_Node000019_Node000009" class="edge">
<title>Node19&#45;&gt;Node9</title>
<g id="a_edge36_Node000019_Node000009"><a xlink:title=" ">
<path fill="none" stroke="#63b8ff" d="M303.45,-224.58C196.14,-218.74 22.96,-206.01 3.34,-184 -2.27,-177.7 1.2,-173.17 3.34,-165 17.59,-110.72 17.84,-84.89 65.34,-55 115.36,-23.53 502.96,-14.05 668.16,-11.43"/>
<polygon fill="#63b8ff" stroke="#63b8ff" points="668.29,-14.93 678.24,-11.27 668.18,-7.93 668.29,-14.93"/>
</a>
</g>
</g>
<!-- Node19&#45;&gt;Node12 -->
<g id="edge32_Node000019_Node000012" class="edge">
<title>Node19&#45;&gt;Node12</title>
<g id="a_edge32_Node000019_Node000012"><a xlink:title=" ">
<path fill="none" stroke="#63b8ff" d="M390.92,-219.92C395.57,-206 406.75,-178.68 426.34,-165 449.79,-148.63 516.03,-137 572.23,-129.74"/>
<polygon fill="#63b8ff" stroke="#63b8ff" points="572.75,-133.2 582.23,-128.48 571.88,-126.26 572.75,-133.2"/>
</a>
</g>
</g>
<!-- Node19&#45;&gt;Node13 -->
<g id="edge33_Node000019_Node000013" class="edge">
<title>Node19&#45;&gt;Node13</title>
<g id="a_edge33_Node000019_Node000013"><a xlink:title=" ">
<path fill="none" stroke="#63b8ff" d="M472.99,-222.88C623.32,-212.89 935.78,-192.14 1092.48,-181.73"/>
<polygon fill="#63b8ff" stroke="#63b8ff" points="1092.82,-185.22 1102.57,-181.06 1092.36,-178.23 1092.82,-185.22"/>
</a>
</g>
</g>
<!-- Node19&#45;&gt;Node14 -->
<g id="edge37_Node000019_Node000014" class="edge">
<title>Node19&#45;&gt;Node14</title>
<g id="a_edge37_Node000019_Node000014"><a xlink:title=" ">
<path fill="none" stroke="#63b8ff" d="M403.61,-219.98C418.48,-211.69 441.33,-198.94 458.76,-189.22"/>
<polygon fill="#63b8ff" stroke="#63b8ff" points="460.78,-192.1 467.8,-184.17 457.37,-185.99 460.78,-192.1"/>
</a>
</g>
</g>
<!-- Node19&#45;&gt;Node16 -->
<g id="edge38_Node000019_Node000016" class="edge">
<title>Node19&#45;&gt;Node16</title>
<g id="a_edge38_Node000019_Node000016"><a xlink:title=" ">
<path fill="none" stroke="#63b8ff" d="M421.28,-219.98C456.29,-210.93 511.81,-196.58 550.27,-186.64"/>
<polygon fill="#63b8ff" stroke="#63b8ff" points="551.34,-189.97 560.15,-184.08 549.59,-183.2 551.34,-189.97"/>
</a>
</g>
</g>
<!-- Node20 -->
<g id="Node000020" class="node">
<title>Node20</title>
<g id="a_Node000020"><a xlink:href="Items_8hpp.html" target="_top" xlink:title=" ">
<polygon fill="white" stroke="#666666" points="122.34,-184 12.34,-184 12.34,-165 122.34,-165 122.34,-184"/>
<text text-anchor="middle" x="67.34" y="-172" font-family="Helvetica,sans-Serif" font-size="10.00">Collision/Items.hpp</text>
</a>
</g>
</g>
<!-- Node19&#45;&gt;Node20 -->
<g id="edge31_Node000019_Node000020" class="edge">
<title>Node19&#45;&gt;Node20</title>
<g id="a_edge31_Node000019_Node000020"><a xlink:title=" ">
<path fill="none" stroke="#63b8ff" d="M336.77,-219.98C280.23,-210.65 189.54,-195.67 129.21,-185.71"/>
<polygon fill="#63b8ff" stroke="#63b8ff" points="129.49,-182.21 119.06,-184.04 128.35,-189.12 129.49,-182.21"/>
</a>
</g>
</g>
</g>
</svg>
