<?xml version="1.0" encoding="UTF-8" standalone="no"?>
<!DOCTYPE svg PUBLIC "-//W3C//DTD SVG 1.1//EN"
 "http://www.w3.org/Graphics/SVG/1.1/DTD/svg11.dtd">
<!-- Generated by graphviz version 2.43.0 (0)
 -->
<!-- Title: /home/runner/work/R&#45;Type/R&#45;Type/Shared/systems/ForceCtrl.hpp Pages: 1 -->
<svg width="1515pt" height="269pt"
 viewBox="0.00 0.00 1515.00 269.00" xmlns="http://www.w3.org/2000/svg" xmlns:xlink="http://www.w3.org/1999/xlink">
<g id="graph0" class="graph" transform="scale(1 1) rotate(0) translate(4 265)">
<title>/home/runner/work/R&#45;Type/R&#45;Type/Shared/systems/ForceCtrl.hpp</title>
<!-- Node1 -->
<g id="Node000001" class="node">
<title>Node1</title>
<g id="a_Node000001"><a xlink:title=" ">
<polygon fill="#999999" stroke="#666666" points="1026,-261 898,-261 898,-220 1026,-220 1026,-261"/>
<text text-anchor="start" x="906" y="-249" font-family="Helvetica,sans-Serif" font-size="10.00">/home/runner/work/R</text>
<text text-anchor="start" x="906" y="-238" font-family="Helvetica,sans-Serif" font-size="10.00">&#45;Type/R&#45;Type/Shared</text>
<text text-anchor="middle" x="962" y="-227" font-family="Helvetica,sans-Serif" font-size="10.00">/systems/ForceCtrl.hpp</text>
</a>
</g>
</g>
<!-- Node2 -->
<g id="Node000002" class="node">
<title>Node2</title>
<g id="a_Node000002"><a xlink:href="PlayerEntity_8hpp.html" target="_top" xlink:title=" ">
<polygon fill="white" stroke="#666666" points="295.5,-184 166.5,-184 166.5,-165 295.5,-165 295.5,-184"/>
<text text-anchor="middle" x="231" y="-172" font-family="Helvetica,sans-Serif" font-size="10.00">Player/PlayerEntity.hpp</text>
</a>
</g>
</g>
<!-- Node1&#45;&gt;Node2 -->
<g id="edge1_Node000001_Node000002" class="edge">
<title>Node1&#45;&gt;Node2</title>
<g id="a_edge1_Node000001_Node000002"><a xlink:title=" ">
<path fill="none" stroke="#63b8ff" d="M897.77,-233.88C762.61,-222.04 449.48,-194.63 305.67,-182.04"/>
<polygon fill="#63b8ff" stroke="#63b8ff" points="305.88,-178.54 295.61,-181.16 305.26,-185.52 305.88,-178.54"/>
</a>
</g>
</g>
<!-- Node8 -->
<g id="Node000008" class="node">
<title>Node8</title>
<g id="a_Node000008"><a xlink:title=" ">
<polygon fill="#e0e0e0" stroke="#999999" points="738,-19 610,-19 610,0 738,0 738,-19"/>
<text text-anchor="middle" x="674" y="-7" font-family="Helvetica,sans-Serif" font-size="10.00">physics/Physics2D.hpp</text>
</a>
</g>
</g>
<!-- Node1&#45;&gt;Node8 -->
<g id="edge15_Node000001_Node000008" class="edge">
<title>Node1&#45;&gt;Node8</title>
<g id="a_edge15_Node000001_Node000008"><a xlink:title=" ">
<path fill="none" stroke="#63b8ff" d="M961.42,-219.82C959.57,-191.97 952.24,-141.01 924,-110 877.04,-58.44 799.84,-33.18 743.63,-21.08"/>
<polygon fill="#63b8ff" stroke="#63b8ff" points="744.24,-17.63 733.74,-19.04 742.83,-24.49 744.24,-17.63"/>
</a>
</g>
</g>
<!-- Node9 -->
<g id="Node000009" class="node">
<title>Node9</title>
<g id="a_Node000009"><a xlink:href="BossPart_8hpp.html" target="_top" xlink:title=" ">
<polygon fill="white" stroke="#666666" points="914.5,-129 771.5,-129 771.5,-110 914.5,-110 914.5,-129"/>
<text text-anchor="middle" x="843" y="-117" font-family="Helvetica,sans-Serif" font-size="10.00">components/BossPart.hpp</text>
</a>
</g>
</g>
<!-- Node1&#45;&gt;Node9 -->
<g id="edge9_Node000001_Node000009" class="edge">
<title>Node1&#45;&gt;Node9</title>
<g id="a_edge9_Node000001_Node000009"><a xlink:title=" ">
<path fill="none" stroke="#63b8ff" d="M942.35,-219.85C918.95,-196.45 880.33,-157.83 858.78,-136.28"/>
<polygon fill="#63b8ff" stroke="#63b8ff" points="861.22,-133.77 851.68,-129.18 856.27,-138.72 861.22,-133.77"/>
</a>
</g>
</g>
<!-- Node10 -->
<g id="Node000010" class="node">
<title>Node10</title>
<g id="a_Node000010"><a xlink:href="Force_8hpp.html" target="_top" xlink:title=" ">
<polygon fill="white" stroke="#666666" points="386.5,-129 259.5,-129 259.5,-110 386.5,-110 386.5,-129"/>
<text text-anchor="middle" x="323" y="-117" font-family="Helvetica,sans-Serif" font-size="10.00">components/Force.hpp</text>
</a>
</g>
</g>
<!-- Node1&#45;&gt;Node10 -->
<g id="edge12_Node000001_Node000010" class="edge">
<title>Node1&#45;&gt;Node10</title>
<g id="a_edge12_Node000001_Node000010"><a xlink:title=" ">
<path fill="none" stroke="#63b8ff" d="M897.8,-227.54C772.49,-204.21 497.22,-152.94 378.88,-130.91"/>
<polygon fill="#63b8ff" stroke="#63b8ff" points="379.41,-127.45 368.94,-129.06 378.13,-134.33 379.41,-127.45"/>
</a>
</g>
</g>
<!-- Node11 -->
<g id="Node000011" class="node">
<title>Node11</title>
<g id="a_Node000011"><a xlink:href="Boss_8hpp.html" target="_top" xlink:title=" ">
<polygon fill="white" stroke="#666666" points="753,-129 595,-129 595,-110 753,-110 753,-129"/>
<text text-anchor="middle" x="674" y="-117" font-family="Helvetica,sans-Serif" font-size="10.00">components/Player/Boss.hpp</text>
</a>
</g>
</g>
<!-- Node1&#45;&gt;Node11 -->
<g id="edge16_Node000001_Node000011" class="edge">
<title>Node1&#45;&gt;Node11</title>
<g id="a_edge16_Node000001_Node000011"><a xlink:title=" ">
<path fill="none" stroke="#63b8ff" d="M914.77,-219.98C855.07,-195.32 754.09,-153.59 704.01,-132.9"/>
<polygon fill="#63b8ff" stroke="#63b8ff" points="705.28,-129.64 694.7,-129.05 702.61,-136.11 705.28,-129.64"/>
</a>
</g>
</g>
<!-- Node12 -->
<g id="Node000012" class="node">
<title>Node12</title>
<g id="a_Node000012"><a xlink:href="Enemy_8hpp.html" target="_top" xlink:title=" ">
<polygon fill="white" stroke="#666666" points="1137.5,-74 970.5,-74 970.5,-55 1137.5,-55 1137.5,-74"/>
<text text-anchor="middle" x="1054" y="-62" font-family="Helvetica,sans-Serif" font-size="10.00">components/Player/Enemy.hpp</text>
</a>
</g>
</g>
<!-- Node1&#45;&gt;Node12 -->
<g id="edge19_Node000001_Node000012" class="edge">
<title>Node1&#45;&gt;Node12</title>
<g id="a_edge19_Node000001_Node000012"><a xlink:title=" ">
<path fill="none" stroke="#63b8ff" d="M971.86,-219.82C979.46,-204.76 990.26,-183.5 1000,-165 1015.19,-136.13 1033.38,-102.88 1044.3,-83.06"/>
<polygon fill="#63b8ff" stroke="#63b8ff" points="1047.39,-84.69 1049.16,-74.24 1041.26,-81.31 1047.39,-84.69"/>
</a>
</g>
</g>
<!-- Node13 -->
<g id="Node000013" class="node">
<title>Node13</title>
<g id="a_Node000013"><a xlink:title=" ">
<polygon fill="#e0e0e0" stroke="#999999" points="1105,-184 1009,-184 1009,-165 1105,-165 1105,-184"/>
<text text-anchor="middle" x="1057" y="-172" font-family="Helvetica,sans-Serif" font-size="10.00">ecs/Registry.hpp</text>
</a>
</g>
</g>
<!-- Node1&#45;&gt;Node13 -->
<g id="edge21_Node000001_Node000013" class="edge">
<title>Node1&#45;&gt;Node13</title>
<g id="a_edge21_Node000001_Node000013"><a xlink:title=" ">
<path fill="none" stroke="#63b8ff" d="M991.02,-219.95C1005.38,-210.27 1022.42,-198.8 1035.58,-189.93"/>
<polygon fill="#63b8ff" stroke="#63b8ff" points="1037.66,-192.75 1044,-184.26 1033.75,-186.95 1037.66,-192.75"/>
</a>
</g>
</g>
<!-- Node14 -->
<g id="Node000014" class="node">
<title>Node14</title>
<g id="a_Node000014"><a xlink:title=" ">
<polygon fill="#e0e0e0" stroke="#999999" points="1238.5,-184 1123.5,-184 1123.5,-165 1238.5,-165 1238.5,-184"/>
<text text-anchor="middle" x="1181" y="-172" font-family="Helvetica,sans-Serif" font-size="10.00">ecs/SparseArray.hpp</text>
</a>
</g>
</g>
<!-- Node1&#45;&gt;Node14 -->
<g id="edge22_Node000001_Node000014" class="edge">
<title>Node1&#45;&gt;Node14</title>
<g id="a_edge22_Node000001_Node000014"><a xlink:title=" ">
<path fill="none" stroke="#63b8ff" d="M1026.23,-220.73C1063.7,-209.78 1109.75,-196.32 1141.83,-186.95"/>
<polygon fill="#63b8ff" stroke="#63b8ff" points="1143.11,-190.22 1151.73,-184.05 1141.15,-183.5 1143.11,-190.22"/>
</a>
</g>
</g>
<!-- Node15 -->
<g id="Node000015" class="node">
<title>Node15</title>
<g id="a_Node000015"><a xlink:title=" ">
<polygon fill="#e0e0e0" stroke="#999999" points="1345,-184 1257,-184 1257,-165 1345,-165 1345,-184"/>
<text text-anchor="middle" x="1301" y="-172" font-family="Helvetica,sans-Serif" font-size="10.00">ecs/Zipper.hpp</text>
</a>
</g>
</g>
<!-- Node1&#45;&gt;Node15 -->
<g id="edge23_Node000001_Node000015" class="edge">
<title>Node1&#45;&gt;Node15</title>
<g id="a_edge23_Node000001_Node000015"><a xlink:title=" ">
<path fill="none" stroke="#63b8ff" d="M1026.16,-227.39C1089.94,-215.35 1186.69,-197.08 1246.76,-185.74"/>
<polygon fill="#63b8ff" stroke="#63b8ff" points="1247.62,-189.14 1256.8,-183.84 1246.32,-182.26 1247.62,-189.14"/>
</a>
</g>
</g>
<!-- Node16 -->
<g id="Node000016" class="node">
<title>Node16</title>
<g id="a_Node000016"><a xlink:title=" ">
<polygon fill="#e0e0e0" stroke="#999999" points="1507,-184 1363,-184 1363,-165 1507,-165 1507,-184"/>
<text text-anchor="middle" x="1435" y="-172" font-family="Helvetica,sans-Serif" font-size="10.00">input/InputSubsystem.hpp</text>
</a>
</g>
</g>
<!-- Node1&#45;&gt;Node16 -->
<g id="edge24_Node000001_Node000016" class="edge">
<title>Node1&#45;&gt;Node16</title>
<g id="a_edge24_Node000001_Node000016"><a xlink:title=" ">
<path fill="none" stroke="#63b8ff" d="M1026.28,-230.8C1113.81,-218.96 1270.07,-197.82 1361.94,-185.39"/>
<polygon fill="#63b8ff" stroke="#63b8ff" points="1362.55,-188.84 1371.99,-184.03 1361.61,-181.9 1362.55,-188.84"/>
</a>
</g>
</g>
<!-- Node3 -->
<g id="Node000003" class="node">
<title>Node3</title>
<g id="a_Node000003"><a xlink:title=" ">
<polygon fill="#e0e0e0" stroke="#999999" points="203,-129 139,-129 139,-110 203,-110 203,-129"/>
<text text-anchor="middle" x="171" y="-117" font-family="Helvetica,sans-Serif" font-size="10.00">algorithm</text>
</a>
</g>
</g>
<!-- Node2&#45;&gt;Node3 -->
<g id="edge2_Node000002_Node000003" class="edge">
<title>Node2&#45;&gt;Node3</title>
<g id="a_edge2_Node000002_Node000003"><a xlink:title=" ">
<path fill="none" stroke="#63b8ff" d="M221.36,-164.98C212.49,-157.15 199.13,-145.34 188.39,-135.86"/>
<polygon fill="#63b8ff" stroke="#63b8ff" points="190.63,-133.17 180.82,-129.17 185.99,-138.41 190.63,-133.17"/>
</a>
</g>
</g>
<!-- Node4 -->
<g id="Node000004" class="node">
<title>Node4</title>
<g id="a_Node000004"><a xlink:href="CollisionController_8hpp.html" target="_top" xlink:title=" ">
<polygon fill="white" stroke="#666666" points="577,-129 405,-129 405,-110 577,-110 577,-129"/>
<text text-anchor="middle" x="491" y="-117" font-family="Helvetica,sans-Serif" font-size="10.00">Collision/CollisionController.hpp</text>
</a>
</g>
</g>
<!-- Node2&#45;&gt;Node4 -->
<g id="edge3_Node000002_Node000004" class="edge">
<title>Node2&#45;&gt;Node4</title>
<g id="a_edge3_Node000002_Node000004"><a xlink:title=" ">
<path fill="none" stroke="#63b8ff" d="M272.77,-164.98C317.94,-155.78 390,-141.09 438.85,-131.13"/>
<polygon fill="#63b8ff" stroke="#63b8ff" points="439.8,-134.51 448.9,-129.08 438.4,-127.65 439.8,-134.51"/>
</a>
</g>
</g>
<!-- Node6 -->
<g id="Node000006" class="node">
<title>Node6</title>
<g id="a_Node000006"><a xlink:href="Weapon_8hpp.html" target="_top" xlink:title=" ">
<polygon fill="white" stroke="#666666" points="121,-129 11,-129 11,-110 121,-110 121,-129"/>
<text text-anchor="middle" x="66" y="-117" font-family="Helvetica,sans-Serif" font-size="10.00">Player/Weapon.hpp</text>
</a>
</g>
</g>
<!-- Node2&#45;&gt;Node6 -->
<g id="edge5_Node000002_Node000006" class="edge">
<title>Node2&#45;&gt;Node6</title>
<g id="a_edge5_Node000002_Node000006"><a xlink:title=" ">
<path fill="none" stroke="#63b8ff" d="M204.49,-164.98C176.79,-156.09 133.14,-142.07 102.26,-132.15"/>
<polygon fill="#63b8ff" stroke="#63b8ff" points="103.31,-128.81 92.72,-129.08 101.17,-135.47 103.31,-128.81"/>
</a>
</g>
</g>
<!-- Node2&#45;&gt;Node8 -->
<g id="edge8_Node000002_Node000008" class="edge">
<title>Node2&#45;&gt;Node8</title>
<g id="a_edge8_Node000002_Node000008"><a xlink:title=" ">
<path fill="none" stroke="#63b8ff" d="M231.09,-164.79C231.73,-151.19 234.96,-124.9 250,-110 298.77,-61.66 491.79,-31.83 599.81,-18.57"/>
<polygon fill="#63b8ff" stroke="#63b8ff" points="600.48,-22.02 609.99,-17.34 599.64,-15.07 600.48,-22.02"/>
</a>
</g>
</g>
<!-- Node5 -->
<g id="Node000005" class="node">
<title>Node5</title>
<g id="a_Node000005"><a xlink:title=" ">
<polygon fill="#e0e0e0" stroke="#999999" points="589,-74 505,-74 505,-55 589,-55 589,-74"/>
<text text-anchor="middle" x="547" y="-62" font-family="Helvetica,sans-Serif" font-size="10.00">ecs/Entity.hpp</text>
</a>
</g>
</g>
<!-- Node4&#45;&gt;Node5 -->
<g id="edge4_Node000004_Node000005" class="edge">
<title>Node4&#45;&gt;Node5</title>
<g id="a_edge4_Node000004_Node000005"><a xlink:title=" ">
<path fill="none" stroke="#63b8ff" d="M500,-109.98C508.19,-102.23 520.51,-90.58 530.47,-81.14"/>
<polygon fill="#63b8ff" stroke="#63b8ff" points="532.98,-83.59 537.84,-74.17 528.17,-78.5 532.98,-83.59"/>
</a>
</g>
</g>
<!-- Node7 -->
<g id="Node000007" class="node">
<title>Node7</title>
<g id="a_Node000007"><a xlink:href="Projectile_8hpp.html" target="_top" xlink:title=" ">
<polygon fill="white" stroke="#666666" points="180,-74 0,-74 0,-55 180,-55 180,-74"/>
<text text-anchor="middle" x="90" y="-62" font-family="Helvetica,sans-Serif" font-size="10.00">components/Player/Projectile.hpp</text>
</a>
</g>
</g>
<!-- Node6&#45;&gt;Node7 -->
<g id="edge6_Node000006_Node000007" class="edge">
<title>Node6&#45;&gt;Node7</title>
<g id="a_edge6_Node000006_Node000007"><a xlink:title=" ">
<path fill="none" stroke="#63b8ff" d="M69.96,-109.75C73.21,-102.57 77.92,-92.18 81.95,-83.27"/>
<polygon fill="#63b8ff" stroke="#63b8ff" points="85.17,-84.64 86.11,-74.09 78.8,-81.75 85.17,-84.64"/>
</a>
</g>
</g>
<!-- Node7&#45;&gt;Node8 -->
<g id="edge7_Node000007_Node000008" class="edge">
<title>Node7&#45;&gt;Node8</title>
<g id="a_edge7_Node000007_Node000008"><a xlink:title=" ">
<path fill="none" stroke="#63b8ff" d="M180.29,-55.31C295.51,-44.85 492.69,-26.95 599.67,-17.25"/>
<polygon fill="#63b8ff" stroke="#63b8ff" points="600.1,-20.72 609.74,-16.33 599.47,-13.75 600.1,-20.72"/>
</a>
</g>
</g>
<!-- Node9&#45;&gt;Node5 -->
<g id="edge11_Node000009_Node000005" class="edge">
<title>Node9&#45;&gt;Node5</title>
<g id="a_edge11_Node000009_Node000005"><a xlink:title=" ">
<path fill="none" stroke="#63b8ff" d="M795.44,-109.98C741.75,-100.37 654.66,-84.78 599.15,-74.84"/>
<polygon fill="#63b8ff" stroke="#63b8ff" points="599.63,-71.37 589.17,-73.05 598.39,-78.26 599.63,-71.37"/>
</a>
</g>
</g>
<!-- Node9&#45;&gt;Node8 -->
<g id="edge10_Node000009_Node000008" class="edge">
<title>Node9&#45;&gt;Node8</title>
<g id="a_edge10_Node000009_Node000008"><a xlink:title=" ">
<path fill="none" stroke="#63b8ff" d="M829.46,-109.84C800.41,-91.28 731.88,-47.49 696.3,-24.75"/>
<polygon fill="#63b8ff" stroke="#63b8ff" points="697.92,-21.63 687.61,-19.2 694.15,-27.53 697.92,-21.63"/>
</a>
</g>
</g>
<!-- Node10&#45;&gt;Node5 -->
<g id="edge13_Node000010_Node000005" class="edge">
<title>Node10&#45;&gt;Node5</title>
<g id="a_edge13_Node000010_Node000005"><a xlink:title=" ">
<path fill="none" stroke="#63b8ff" d="M358.99,-109.98C397.49,-100.87 458.69,-86.4 500.74,-76.45"/>
<polygon fill="#63b8ff" stroke="#63b8ff" points="501.8,-79.79 510.73,-74.08 500.19,-72.98 501.8,-79.79"/>
</a>
</g>
</g>
<!-- Node10&#45;&gt;Node8 -->
<g id="edge14_Node000010_Node000008" class="edge">
<title>Node10&#45;&gt;Node8</title>
<g id="a_edge14_Node000010_Node000008"><a xlink:title=" ">
<path fill="none" stroke="#63b8ff" d="M344.06,-109.94C376.38,-96.99 440.34,-72.12 496,-55 539.14,-41.73 589.05,-29.52 625.02,-21.26"/>
<polygon fill="#63b8ff" stroke="#63b8ff" points="625.81,-24.67 634.78,-19.04 624.25,-17.84 625.81,-24.67"/>
</a>
</g>
</g>
<!-- Node11&#45;&gt;Node5 -->
<g id="edge18_Node000011_Node000005" class="edge">
<title>Node11&#45;&gt;Node5</title>
<g id="a_edge18_Node000011_Node000005"><a xlink:title=" ">
<path fill="none" stroke="#63b8ff" d="M653.6,-109.98C632.98,-101.38 600.89,-87.99 577.31,-78.15"/>
<polygon fill="#63b8ff" stroke="#63b8ff" points="578.35,-74.79 567.78,-74.17 575.66,-81.25 578.35,-74.79"/>
</a>
</g>
</g>
<!-- Node11&#45;&gt;Node8 -->
<g id="edge17_Node000011_Node000008" class="edge">
<title>Node11&#45;&gt;Node8</title>
<g id="a_edge17_Node000011_Node000008"><a xlink:title=" ">
<path fill="none" stroke="#63b8ff" d="M674,-109.66C674,-92.17 674,-52.8 674,-29.27"/>
<polygon fill="#63b8ff" stroke="#63b8ff" points="677.5,-29.16 674,-19.16 670.5,-29.16 677.5,-29.16"/>
</a>
</g>
</g>
<!-- Node12&#45;&gt;Node8 -->
<g id="edge20_Node000012_Node000008" class="edge">
<title>Node12&#45;&gt;Node8</title>
<g id="a_edge20_Node000012_Node000008"><a xlink:title=" ">
<path fill="none" stroke="#63b8ff" d="M992.95,-54.98C925.46,-45.57 816.87,-30.43 745.47,-20.47"/>
<polygon fill="#63b8ff" stroke="#63b8ff" points="745.6,-16.95 735.22,-19.04 744.64,-23.89 745.6,-16.95"/>
</a>
</g>
</g>
</g>
</svg>
