<?xml version="1.0" encoding="UTF-8" standalone="no"?>
<!DOCTYPE svg PUBLIC "-//W3C//DTD SVG 1.1//EN"
 "http://www.w3.org/Graphics/SVG/1.1/DTD/svg11.dtd">
<!-- Generated by graphviz version 2.43.0 (0)
 -->
<!-- Title: /home/runner/work/R&#45;Type/R&#45;Type/Client/src/engine/GameEngine.hpp Pages: 1 -->
<svg width="1032pt" height="203pt"
 viewBox="0.00 0.00 1032.17 203.00" xmlns="http://www.w3.org/2000/svg" xmlns:xlink="http://www.w3.org/1999/xlink">
<g id="graph0" class="graph" transform="scale(1 1) rotate(0) translate(4 199)">
<title>/home/runner/work/R&#45;Type/R&#45;Type/Client/src/engine/GameEngine.hpp</title>
<!-- Node1 -->
<g id="Node000001" class="node">
<title>Node1</title>
<g id="a_Node000001"><a xlink:title=" ">
<polygon fill="#999999" stroke="#666666" points="555.17,-195 399.17,-195 399.17,-154 555.17,-154 555.17,-195"/>
<text text-anchor="start" x="407.17" y="-183" font-family="Helvetica,sans-Serif" font-size="10.00">/home/runner/work/R</text>
<text text-anchor="start" x="407.17" y="-172" font-family="Helvetica,sans-Serif" font-size="10.00">&#45;Type/R&#45;Type/Client</text>
<text text-anchor="middle" x="477.17" y="-161" font-family="Helvetica,sans-Serif" font-size="10.00">/src/engine/GameEngine.hpp</text>
</a>
</g>
</g>
<!-- Node2 -->
<g id="Node000002" class="node">
<title>Node2</title>
<g id="a_Node000002"><a xlink:href="Main_8cpp.html" target="_top" xlink:title=" ">
<polygon fill="white" stroke="#666666" points="698.67,-41 579.67,-41 579.67,0 698.67,0 698.67,-41"/>
<text text-anchor="start" x="587.67" y="-29" font-family="Helvetica,sans-Serif" font-size="10.00">/home/runner/work/R</text>
<text text-anchor="start" x="587.67" y="-18" font-family="Helvetica,sans-Serif" font-size="10.00">&#45;Type/R&#45;Type/Client</text>
<text text-anchor="middle" x="639.17" y="-7" font-family="Helvetica,sans-Serif" font-size="10.00">/src/Main.cpp</text>
</a>
</g>
</g>
<!-- Node1&#45;&gt;Node2 -->
<g id="edge1_Node000001_Node000002" class="edge">
<title>Node1&#45;&gt;Node2</title>
<g id="a_edge1_Node000001_Node000002"><a xlink:title=" ">
<path fill="none" stroke="#63b8ff" d="M388.8,-169.25C260.18,-162.15 33.9,-145.84 9.17,-118 -2.94,-104.38 -3.14,-90.44 9.17,-77 47.24,-35.42 429.69,-24.84 579.47,-22.28"/>
<polygon fill="#63b8ff" stroke="#63b8ff" points="388.86,-172.76 399.03,-169.81 389.24,-165.77 388.86,-172.76"/>
</a>
</g>
</g>
<!-- Node3 -->
<g id="Node000003" class="node">
<title>Node3</title>
<g id="a_Node000003"><a xlink:href="GameEngine_8cpp.html" target="_top" xlink:title=" ">
<polygon fill="white" stroke="#666666" points="173.67,-118 18.67,-118 18.67,-77 173.67,-77 173.67,-118"/>
<text text-anchor="start" x="26.67" y="-106" font-family="Helvetica,sans-Serif" font-size="10.00">/home/runner/work/R</text>
<text text-anchor="start" x="26.67" y="-95" font-family="Helvetica,sans-Serif" font-size="10.00">&#45;Type/R&#45;Type/Client</text>
<text text-anchor="middle" x="96.17" y="-84" font-family="Helvetica,sans-Serif" font-size="10.00">/src/engine/GameEngine.cpp</text>
</a>
</g>
</g>
<!-- Node1&#45;&gt;Node3 -->
<g id="edge2_Node000001_Node000003" class="edge">
<title>Node1&#45;&gt;Node3</title>
<g id="a_edge2_Node000001_Node000003"><a xlink:title=" ">
<path fill="none" stroke="#63b8ff" d="M389.09,-157.68C330.6,-146.97 252.17,-132.24 183.17,-118 180.13,-117.37 177.05,-116.73 173.93,-116.07"/>
<polygon fill="#63b8ff" stroke="#63b8ff" points="388.56,-161.14 399.03,-159.49 389.82,-154.26 388.56,-161.14"/>
</a>
</g>
</g>
<!-- Node4 -->
<g id="Node000004" class="node">
<title>Node4</title>
<g id="a_Node000004"><a xlink:href="SceneManager_8cpp.html" target="_top" xlink:title=" ">
<polygon fill="white" stroke="#666666" points="388.17,-118 192.17,-118 192.17,-77 388.17,-77 388.17,-118"/>
<text text-anchor="start" x="200.17" y="-106" font-family="Helvetica,sans-Serif" font-size="10.00">/home/runner/work/R</text>
<text text-anchor="start" x="200.17" y="-95" font-family="Helvetica,sans-Serif" font-size="10.00">&#45;Type/R&#45;Type/Client</text>
<text text-anchor="middle" x="290.17" y="-84" font-family="Helvetica,sans-Serif" font-size="10.00">/src/engine/scene/SceneManager.cpp</text>
</a>
</g>
</g>
<!-- Node1&#45;&gt;Node4 -->
<g id="edge3_Node000001_Node000004" class="edge">
<title>Node1&#45;&gt;Node4</title>
<g id="a_edge3_Node000001_Node000004"><a xlink:title=" ">
<path fill="none" stroke="#63b8ff" d="M419.24,-150.27C393.48,-139.94 363.48,-127.9 338.89,-118.04"/>
<polygon fill="#63b8ff" stroke="#63b8ff" points="417.94,-153.52 428.52,-153.99 420.54,-147.02 417.94,-153.52"/>
</a>
</g>
</g>
<!-- Node5 -->
<g id="Node000005" class="node">
<title>Node5</title>
<g id="a_Node000005"><a xlink:href="JoinGame_8hpp.html" target="_top" xlink:title=" ">
<polygon fill="white" stroke="#666666" points="548.17,-118 406.17,-118 406.17,-77 548.17,-77 548.17,-118"/>
<text text-anchor="start" x="414.17" y="-106" font-family="Helvetica,sans-Serif" font-size="10.00">/home/runner/work/R</text>
<text text-anchor="start" x="414.17" y="-95" font-family="Helvetica,sans-Serif" font-size="10.00">&#45;Type/R&#45;Type/Client</text>
<text text-anchor="middle" x="477.17" y="-84" font-family="Helvetica,sans-Serif" font-size="10.00">/src/scenes/JoinGame.hpp</text>
</a>
</g>
</g>
<!-- Node1&#45;&gt;Node5 -->
<g id="edge4_Node000001_Node000005" class="edge">
<title>Node1&#45;&gt;Node5</title>
<g id="a_edge4_Node000001_Node000005"><a xlink:title=" ">
<path fill="none" stroke="#63b8ff" d="M477.17,-143.69C477.17,-135.08 477.17,-125.9 477.17,-118.07"/>
<polygon fill="#63b8ff" stroke="#63b8ff" points="473.67,-143.79 477.17,-153.79 480.67,-143.79 473.67,-143.79"/>
</a>
</g>
</g>
<!-- Node6 -->
<g id="Node000006" class="node">
<title>Node6</title>
<g id="a_Node000006"><a xlink:href="MainMenu_8hpp.html" target="_top" xlink:title=" ">
<polygon fill="white" stroke="#666666" points="712.17,-118 566.17,-118 566.17,-77 712.17,-77 712.17,-118"/>
<text text-anchor="start" x="574.17" y="-106" font-family="Helvetica,sans-Serif" font-size="10.00">/home/runner/work/R</text>
<text text-anchor="start" x="574.17" y="-95" font-family="Helvetica,sans-Serif" font-size="10.00">&#45;Type/R&#45;Type/Client</text>
<text text-anchor="middle" x="639.17" y="-84" font-family="Helvetica,sans-Serif" font-size="10.00">/src/scenes/MainMenu.hpp</text>
</a>
</g>
</g>
<!-- Node1&#45;&gt;Node6 -->
<g id="edge6_Node000001_Node000006" class="edge">
<title>Node1&#45;&gt;Node6</title>
<g id="a_edge6_Node000001_Node000006"><a xlink:title=" ">
<path fill="none" stroke="#63b8ff" d="M528.53,-149.72C550.58,-139.51 576.03,-127.73 596.96,-118.04"/>
<polygon fill="#63b8ff" stroke="#63b8ff" points="526.91,-146.61 519.31,-153.99 529.85,-152.97 526.91,-146.61"/>
</a>
</g>
</g>
<!-- Node7 -->
<g id="Node000007" class="node">
<title>Node7</title>
<g id="a_Node000007"><a xlink:href="Options_8hpp.html" target="_top" xlink:title=" ">
<polygon fill="white" stroke="#666666" points="862.17,-118 730.17,-118 730.17,-77 862.17,-77 862.17,-118"/>
<text text-anchor="start" x="738.17" y="-106" font-family="Helvetica,sans-Serif" font-size="10.00">/home/runner/work/R</text>
<text text-anchor="start" x="738.17" y="-95" font-family="Helvetica,sans-Serif" font-size="10.00">&#45;Type/R&#45;Type/Client</text>
<text text-anchor="middle" x="796.17" y="-84" font-family="Helvetica,sans-Serif" font-size="10.00">/src/scenes/Options.hpp</text>
</a>
</g>
</g>
<!-- Node1&#45;&gt;Node7 -->
<g id="edge8_Node000001_Node000007" class="edge">
<title>Node1&#45;&gt;Node7</title>
<g id="a_edge8_Node000001_Node000007"><a xlink:title=" ">
<path fill="none" stroke="#63b8ff" d="M565.36,-154.13C611.8,-143.75 669.65,-130.55 721.17,-118 724.04,-117.3 726.98,-116.57 729.94,-115.84"/>
<polygon fill="#63b8ff" stroke="#63b8ff" points="564.33,-150.77 555.33,-156.36 565.85,-157.6 564.33,-150.77"/>
</a>
</g>
</g>
<!-- Node8 -->
<g id="Node000008" class="node">
<title>Node8</title>
<g id="a_Node000008"><a xlink:href="WaitLobby_8hpp.html" target="_top" xlink:title=" ">
<polygon fill="white" stroke="#666666" points="1024.17,-118 880.17,-118 880.17,-77 1024.17,-77 1024.17,-118"/>
<text text-anchor="start" x="888.17" y="-106" font-family="Helvetica,sans-Serif" font-size="10.00">/home/runner/work/R</text>
<text text-anchor="start" x="888.17" y="-95" font-family="Helvetica,sans-Serif" font-size="10.00">&#45;Type/R&#45;Type/Client</text>
<text text-anchor="middle" x="952.17" y="-84" font-family="Helvetica,sans-Serif" font-size="10.00">/src/scenes/WaitLobby.hpp</text>
</a>
</g>
</g>
<!-- Node1&#45;&gt;Node8 -->
<g id="edge10_Node000001_Node000008" class="edge">
<title>Node1&#45;&gt;Node8</title>
<g id="a_edge10_Node000001_Node000008"><a xlink:title=" ">
<path fill="none" stroke="#63b8ff" d="M565.33,-163.55C645.44,-153.92 766.72,-137.88 871.17,-118 874.01,-117.46 876.9,-116.88 879.82,-116.28"/>
<polygon fill="#63b8ff" stroke="#63b8ff" points="564.79,-160.09 555.28,-164.75 565.62,-167.04 564.79,-160.09"/>
</a>
</g>
</g>
<!-- Node5&#45;&gt;Node2 -->
<g id="edge5_Node000005_Node000002" class="edge">
<title>Node5&#45;&gt;Node2</title>
<g id="a_edge5_Node000005_Node000002"><a xlink:title=" ">
<path fill="none" stroke="#63b8ff" d="M528.53,-72.72C550.58,-62.51 576.03,-50.73 596.96,-41.04"/>
<polygon fill="#63b8ff" stroke="#63b8ff" points="526.91,-69.61 519.31,-76.99 529.85,-75.97 526.91,-69.61"/>
</a>
</g>
</g>
<!-- Node6&#45;&gt;Node2 -->
<g id="edge7_Node000006_Node000002" class="edge">
<title>Node6&#45;&gt;Node2</title>
<g id="a_edge7_Node000006_Node000002"><a xlink:title=" ">
<path fill="none" stroke="#63b8ff" d="M639.17,-66.69C639.17,-58.08 639.17,-48.9 639.17,-41.07"/>
<polygon fill="#63b8ff" stroke="#63b8ff" points="635.67,-66.79 639.17,-76.79 642.67,-66.79 635.67,-66.79"/>
</a>
</g>
</g>
<!-- Node7&#45;&gt;Node2 -->
<g id="edge9_Node000007_Node000002" class="edge">
<title>Node7&#45;&gt;Node2</title>
<g id="a_edge9_Node000007_Node000002"><a xlink:title=" ">
<path fill="none" stroke="#63b8ff" d="M746.11,-72.59C724.8,-62.41 700.27,-50.69 680.07,-41.04"/>
<polygon fill="#63b8ff" stroke="#63b8ff" points="744.79,-75.84 755.33,-76.99 747.81,-69.52 744.79,-75.84"/>
</a>
</g>
</g>
<!-- Node8&#45;&gt;Node2 -->
<g id="edge11_Node000008_Node000002" class="edge">
<title>Node8&#45;&gt;Node2</title>
<g id="a_edge11_Node000008_Node000002"><a xlink:title=" ">
<path fill="none" stroke="#63b8ff" d="M869.91,-76.7C806.08,-61.39 743.35,-46.39 698.77,-35.73"/>
<polygon fill="#63b8ff" stroke="#63b8ff" points="869.2,-80.13 879.74,-79.06 870.84,-73.32 869.2,-80.13"/>
</a>
</g>
</g>
</g>
</svg>
