<?xml version="1.0" encoding="UTF-8" standalone="no"?>
<!DOCTYPE svg PUBLIC "-//W3C//DTD SVG 1.1//EN"
 "http://www.w3.org/Graphics/SVG/1.1/DTD/svg11.dtd">
<!-- Generated by graphviz version 2.43.0 (0)
 -->
<!-- Title: /home/runner/work/R&#45;Type/R&#45;Type/Client/src/scenes/GameOver.hpp Pages: 1 -->
<svg width="2848pt" height="324pt"
 viewBox="0.00 0.00 2848.00 324.00" xmlns="http://www.w3.org/2000/svg" xmlns:xlink="http://www.w3.org/1999/xlink">
<g id="graph0" class="graph" transform="scale(1 1) rotate(0) translate(4 320)">
<title>/home/runner/work/R&#45;Type/R&#45;Type/Client/src/scenes/GameOver.hpp</title>
<!-- Node1 -->
<g id="Node000001" class="node">
<title>Node1</title>
<g id="a_Node000001"><a xlink:title=" ">
<polygon fill="#999999" stroke="#666666" points="2392,-316 2246,-316 2246,-275 2392,-275 2392,-316"/>
<text text-anchor="start" x="2254" y="-304" font-family="Helvetica,sans-Serif" font-size="10.00">/home/runner/work/R</text>
<text text-anchor="start" x="2254" y="-293" font-family="Helvetica,sans-Serif" font-size="10.00">&#45;Type/R&#45;Type/Client</text>
<text text-anchor="middle" x="2319" y="-282" font-family="Helvetica,sans-Serif" font-size="10.00">/src/scenes/GameOver.hpp</text>
</a>
</g>
</g>
<!-- Node2 -->
<g id="Node000002" class="node">
<title>Node2</title>
<g id="a_Node000002"><a xlink:title=" ">
<polygon fill="#e0e0e0" stroke="#999999" points="2488,-19 2416,-19 2416,0 2488,0 2488,-19"/>
<text text-anchor="middle" x="2452" y="-7" font-family="Helvetica,sans-Serif" font-size="10.00">SDL2/SDL.h</text>
</a>
</g>
</g>
<!-- Node1&#45;&gt;Node2 -->
<g id="edge1_Node000001_Node000002" class="edge">
<title>Node1&#45;&gt;Node2</title>
<g id="a_edge1_Node000001_Node000002"><a xlink:title=" ">
<path fill="none" stroke="#63b8ff" d="M2392.27,-292.91C2535.77,-287.79 2840,-266.25 2840,-175.5 2840,-175.5 2840,-175.5 2840,-118.5 2840,-48.28 2601.16,-21.77 2498.26,-13.6"/>
<polygon fill="#63b8ff" stroke="#63b8ff" points="2498.39,-10.1 2488.15,-12.82 2497.86,-17.08 2498.39,-10.1"/>
</a>
</g>
</g>
<!-- Node3 -->
<g id="Node000003" class="node">
<title>Node3</title>
<g id="a_Node000003"><a xlink:title=" ">
<polygon fill="#e0e0e0" stroke="#999999" points="68,-19 8,-19 8,0 68,0 68,-19"/>
<text text-anchor="middle" x="38" y="-7" font-family="Helvetica,sans-Serif" font-size="10.00">iostream</text>
</a>
</g>
</g>
<!-- Node1&#45;&gt;Node3 -->
<g id="edge2_Node000001_Node000003" class="edge">
<title>Node1&#45;&gt;Node3</title>
<g id="a_edge2_Node000001_Node000003"><a xlink:title=" ">
<path fill="none" stroke="#63b8ff" d="M2245.77,-294.66C1851.58,-295.05 0,-290.77 0,-175.5 0,-175.5 0,-175.5 0,-118.5 0,-85.02 16.45,-48.84 27.7,-28.01"/>
<polygon fill="#63b8ff" stroke="#63b8ff" points="30.87,-29.53 32.72,-19.1 24.76,-26.1 30.87,-29.53"/>
</a>
</g>
</g>
<!-- Node4 -->
<g id="Node000004" class="node">
<title>Node4</title>
<g id="a_Node000004"><a xlink:href="SceneManager_8hpp.html" target="_top" xlink:title=" ">
<polygon fill="white" stroke="#666666" points="2180,-239 2040,-239 2040,-220 2180,-220 2180,-239"/>
<text text-anchor="middle" x="2110" y="-227" font-family="Helvetica,sans-Serif" font-size="10.00">scene/SceneManager.hpp</text>
</a>
</g>
</g>
<!-- Node1&#45;&gt;Node4 -->
<g id="edge3_Node000001_Node000004" class="edge">
<title>Node1&#45;&gt;Node4</title>
<g id="a_edge3_Node000001_Node000004"><a xlink:title=" ">
<path fill="none" stroke="#63b8ff" d="M2255.16,-274.95C2219.89,-264.15 2177.3,-251.11 2147.41,-241.95"/>
<polygon fill="#63b8ff" stroke="#63b8ff" points="2148.37,-238.59 2137.78,-239.01 2146.32,-245.28 2148.37,-238.59"/>
</a>
</g>
</g>
<!-- Node36 -->
<g id="Node000036" class="node">
<title>Node36</title>
<g id="a_Node000036"><a xlink:href="UIManager_8hpp.html" target="_top" xlink:title=" ">
<polygon fill="white" stroke="#666666" points="2370,-184 2268,-184 2268,-165 2370,-165 2370,-184"/>
<text text-anchor="middle" x="2319" y="-172" font-family="Helvetica,sans-Serif" font-size="10.00">ui/UIManager.hpp</text>
</a>
</g>
</g>
<!-- Node1&#45;&gt;Node36 -->
<g id="edge71_Node000001_Node000036" class="edge">
<title>Node1&#45;&gt;Node36</title>
<g id="a_edge71_Node000001_Node000036"><a xlink:title=" ">
<path fill="none" stroke="#63b8ff" d="M2319,-274.85C2319,-252.48 2319,-216.19 2319,-194.21"/>
<polygon fill="#63b8ff" stroke="#63b8ff" points="2322.5,-194.18 2319,-184.18 2315.5,-194.18 2322.5,-194.18"/>
</a>
</g>
</g>
<!-- Node38 -->
<g id="Node000038" class="node">
<title>Node38</title>
<g id="a_Node000038"><a xlink:href="UIText_8hpp.html" target="_top" xlink:title=" ">
<polygon fill="white" stroke="#666666" points="2728,-184 2648,-184 2648,-165 2728,-165 2728,-184"/>
<text text-anchor="middle" x="2688" y="-172" font-family="Helvetica,sans-Serif" font-size="10.00">ui/UIText.hpp</text>
</a>
</g>
</g>
<!-- Node1&#45;&gt;Node38 -->
<g id="edge72_Node000001_Node000038" class="edge">
<title>Node1&#45;&gt;Node38</title>
<g id="a_edge72_Node000001_Node000038"><a xlink:title=" ">
<path fill="none" stroke="#63b8ff" d="M2379.52,-274.98C2456.96,-250.01 2588.63,-207.55 2651.92,-187.13"/>
<polygon fill="#63b8ff" stroke="#63b8ff" points="2653.03,-190.45 2661.48,-184.05 2650.88,-183.79 2653.03,-190.45"/>
</a>
</g>
</g>
<!-- Node4&#45;&gt;Node2 -->
<g id="edge4_Node000004_Node000002" class="edge">
<title>Node4&#45;&gt;Node2</title>
<g id="a_edge4_Node000004_Node000002"><a xlink:title=" ">
<path fill="none" stroke="#63b8ff" d="M2180.08,-224.63C2299.25,-216.38 2533.06,-192.32 2580,-129 2595.65,-107.89 2572.18,-70.25 2557,-55 2540.92,-38.84 2518.06,-28.21 2497.77,-21.41"/>
<polygon fill="#63b8ff" stroke="#63b8ff" points="2498.65,-18.02 2488.06,-18.37 2496.56,-24.7 2498.65,-18.02"/>
</a>
</g>
</g>
<!-- Node4&#45;&gt;Node3 -->
<g id="edge6_Node000004_Node000003" class="edge">
<title>Node4&#45;&gt;Node3</title>
<g id="a_edge6_Node000004_Node000003"><a xlink:title=" ">
<path fill="none" stroke="#63b8ff" d="M2039.78,-228.87C1755.52,-230.02 689.48,-231.06 356,-184 260.04,-170.46 229.92,-175.69 145,-129 100.44,-104.5 64.79,-54.25 48.17,-27.75"/>
<polygon fill="#63b8ff" stroke="#63b8ff" points="51.12,-25.86 42.92,-19.15 45.14,-29.51 51.12,-25.86"/>
</a>
</g>
</g>
<!-- Node5 -->
<g id="Node000005" class="node">
<title>Node5</title>
<g id="a_Node000005"><a xlink:title=" ">
<polygon fill="#e0e0e0" stroke="#999999" points="2249.5,-184 2214.5,-184 2214.5,-165 2249.5,-165 2249.5,-184"/>
<text text-anchor="middle" x="2232" y="-172" font-family="Helvetica,sans-Serif" font-size="10.00">any</text>
</a>
</g>
</g>
<!-- Node4&#45;&gt;Node5 -->
<g id="edge5_Node000004_Node000005" class="edge">
<title>Node4&#45;&gt;Node5</title>
<g id="a_edge5_Node000004_Node000005"><a xlink:title=" ">
<path fill="none" stroke="#63b8ff" d="M2129.6,-219.98C2150.02,-211.11 2182.16,-197.15 2204.98,-187.24"/>
<polygon fill="#63b8ff" stroke="#63b8ff" points="2206.65,-190.33 2214.43,-183.13 2203.86,-183.91 2206.65,-190.33"/>
</a>
</g>
</g>
<!-- Node6 -->
<g id="Node000006" class="node">
<title>Node6</title>
<g id="a_Node000006"><a xlink:title=" ">
<polygon fill="#e0e0e0" stroke="#999999" points="2319,-129 2261,-129 2261,-110 2319,-110 2319,-129"/>
<text text-anchor="middle" x="2290" y="-117" font-family="Helvetica,sans-Serif" font-size="10.00">memory</text>
</a>
</g>
</g>
<!-- Node4&#45;&gt;Node6 -->
<g id="edge7_Node000004_Node000006" class="edge">
<title>Node4&#45;&gt;Node6</title>
<g id="a_edge7_Node000004_Node000006"><a xlink:title=" ">
<path fill="none" stroke="#63b8ff" d="M2122.18,-219.89C2140.18,-207.3 2175.07,-183.36 2206,-165 2224.86,-153.8 2246.78,-142.24 2263.5,-133.7"/>
<polygon fill="#63b8ff" stroke="#63b8ff" points="2265.34,-136.7 2272.68,-129.06 2262.18,-130.45 2265.34,-136.7"/>
</a>
</g>
</g>
<!-- Node7 -->
<g id="Node000007" class="node">
<title>Node7</title>
<g id="a_Node000007"><a xlink:title=" ">
<polygon fill="#e0e0e0" stroke="#999999" points="2157,-19 2113,-19 2113,0 2157,0 2157,-19"/>
<text text-anchor="middle" x="2135" y="-7" font-family="Helvetica,sans-Serif" font-size="10.00">string</text>
</a>
</g>
</g>
<!-- Node4&#45;&gt;Node7 -->
<g id="edge8_Node000004_Node000007" class="edge">
<title>Node4&#45;&gt;Node7</title>
<g id="a_edge8_Node000004_Node000007"><a xlink:title=" ">
<path fill="none" stroke="#63b8ff" d="M2112.6,-219.74C2119.24,-198.61 2138.64,-144.04 2171,-110 2192.95,-86.91 2217.1,-101.61 2233,-74 2250.12,-44.26 2201.74,-26.08 2167.01,-17.18"/>
<polygon fill="#63b8ff" stroke="#63b8ff" points="2167.74,-13.76 2157.19,-14.82 2166.1,-20.56 2167.74,-13.76"/>
</a>
</g>
</g>
<!-- Node8 -->
<g id="Node000008" class="node">
<title>Node8</title>
<g id="a_Node000008"><a xlink:title=" ">
<polygon fill="#e0e0e0" stroke="#999999" points="1588.5,-19 1495.5,-19 1495.5,0 1588.5,0 1588.5,-19"/>
<text text-anchor="middle" x="1542" y="-7" font-family="Helvetica,sans-Serif" font-size="10.00">unordered_map</text>
</a>
</g>
</g>
<!-- Node4&#45;&gt;Node8 -->
<g id="edge9_Node000004_Node000008" class="edge">
<title>Node4&#45;&gt;Node8</title>
<g id="a_edge9_Node000004_Node000008"><a xlink:title=" ">
<path fill="none" stroke="#63b8ff" d="M2039.89,-227.53C1737.58,-222.64 555.92,-195.79 450,-74 444.46,-67.63 444.14,-61.08 450,-55 487.14,-16.44 1359.53,-21.76 1413,-19 1436.71,-17.78 1462.86,-16.11 1485.38,-14.58"/>
<polygon fill="#63b8ff" stroke="#63b8ff" points="1485.71,-18.07 1495.45,-13.89 1485.23,-11.08 1485.71,-18.07"/>
</a>
</g>
</g>
<!-- Node9 -->
<g id="Node000009" class="node">
<title>Node9</title>
<g id="a_Node000009"><a xlink:title=" ">
<polygon fill="#e0e0e0" stroke="#999999" points="2224.5,-129 2179.5,-129 2179.5,-110 2224.5,-110 2224.5,-129"/>
<text text-anchor="middle" x="2202" y="-117" font-family="Helvetica,sans-Serif" font-size="10.00">utility</text>
</a>
</g>
</g>
<!-- Node4&#45;&gt;Node9 -->
<g id="edge10_Node000004_Node000009" class="edge">
<title>Node4&#45;&gt;Node9</title>
<g id="a_edge10_Node000004_Node000009"><a xlink:title=" ">
<path fill="none" stroke="#63b8ff" d="M2117.53,-219.66C2132.9,-201.61 2168.12,-160.28 2187.88,-137.08"/>
<polygon fill="#63b8ff" stroke="#63b8ff" points="2190.8,-139.04 2194.62,-129.16 2185.48,-134.5 2190.8,-139.04"/>
</a>
</g>
</g>
<!-- Node10 -->
<g id="Node000010" class="node">
<title>Node10</title>
<g id="a_Node000010"><a xlink:href="AudioManager_8hpp.html" target="_top" xlink:title=" ">
<polygon fill="white" stroke="#666666" points="241.5,-74 104.5,-74 104.5,-55 241.5,-55 241.5,-74"/>
<text text-anchor="middle" x="173" y="-62" font-family="Helvetica,sans-Serif" font-size="10.00">audio/AudioManager.hpp</text>
</a>
</g>
</g>
<!-- Node4&#45;&gt;Node10 -->
<g id="edge11_Node000004_Node000010" class="edge">
<title>Node4&#45;&gt;Node10</title>
<g id="a_edge11_Node000004_Node000010"><a xlink:title=" ">
<path fill="none" stroke="#63b8ff" d="M2040,-228.41C1740.53,-227.81 575.18,-222.95 416,-184 328.23,-162.52 235.06,-106.34 194.23,-79.79"/>
<polygon fill="#63b8ff" stroke="#63b8ff" points="195.95,-76.73 185.67,-74.16 192.1,-82.58 195.95,-76.73"/>
</a>
</g>
</g>
<!-- Node13 -->
<g id="Node000013" class="node">
<title>Node13</title>
<g id="a_Node000013"><a xlink:title=" ">
<polygon fill="#e0e0e0" stroke="#999999" points="1504,-74 1408,-74 1408,-55 1504,-55 1504,-74"/>
<text text-anchor="middle" x="1456" y="-62" font-family="Helvetica,sans-Serif" font-size="10.00">ecs/Registry.hpp</text>
</a>
</g>
</g>
<!-- Node4&#45;&gt;Node13 -->
<g id="edge18_Node000004_Node000013" class="edge">
<title>Node4&#45;&gt;Node13</title>
<g id="a_edge18_Node000004_Node000013"><a xlink:title=" ">
<path fill="none" stroke="#63b8ff" d="M2075.76,-219.97C1965.96,-192.6 1622.74,-107.06 1500.11,-76.49"/>
<polygon fill="#63b8ff" stroke="#63b8ff" points="1500.85,-73.07 1490.3,-74.05 1499.15,-79.86 1500.85,-73.07"/>
</a>
</g>
</g>
<!-- Node14 -->
<g id="Node000014" class="node">
<title>Node14</title>
<g id="a_Node000014"><a xlink:href="AnimationManager_8hpp.html" target="_top" xlink:title=" ">
<polygon fill="white" stroke="#666666" points="2028,-74 1854,-74 1854,-55 2028,-55 2028,-74"/>
<text text-anchor="middle" x="1941" y="-62" font-family="Helvetica,sans-Serif" font-size="10.00">graphics/AnimationManager.hpp</text>
</a>
</g>
</g>
<!-- Node4&#45;&gt;Node14 -->
<g id="edge19_Node000004_Node000014" class="edge">
<title>Node4&#45;&gt;Node14</title>
<g id="a_edge19_Node000004_Node000014"><a xlink:title=" ">
<path fill="none" stroke="#63b8ff" d="M2100.91,-219.74C2073.75,-193.53 1992.85,-115.51 1957.66,-81.57"/>
<polygon fill="#63b8ff" stroke="#63b8ff" points="1959.76,-78.73 1950.13,-74.31 1954.9,-83.77 1959.76,-78.73"/>
</a>
</g>
</g>
<!-- Node16 -->
<g id="Node000016" class="node">
<title>Node16</title>
<g id="a_Node000016"><a xlink:href="TextureManager_8hpp.html" target="_top" xlink:title=" ">
<polygon fill="white" stroke="#666666" points="2478,-74 2318,-74 2318,-55 2478,-55 2478,-74"/>
<text text-anchor="middle" x="2398" y="-62" font-family="Helvetica,sans-Serif" font-size="10.00">graphics/TextureManager.hpp</text>
</a>
</g>
</g>
<!-- Node4&#45;&gt;Node16 -->
<g id="edge24_Node000004_Node000016" class="edge">
<title>Node4&#45;&gt;Node16</title>
<g id="a_edge24_Node000004_Node000016"><a xlink:title=" ">
<path fill="none" stroke="#63b8ff" d="M2180.26,-225.96C2250.49,-221.88 2351.83,-211.31 2379,-184 2405.24,-157.63 2404.12,-110.39 2401.04,-84.22"/>
<polygon fill="#63b8ff" stroke="#63b8ff" points="2404.48,-83.55 2399.63,-74.13 2397.55,-84.52 2404.48,-83.55"/>
</a>
</g>
</g>
<!-- Node18 -->
<g id="Node000018" class="node">
<title>Node18</title>
<g id="a_Node000018"><a xlink:href="NetworkManager_8hpp.html" target="_top" xlink:title=" ">
<polygon fill="white" stroke="#666666" points="1161.5,-129 1002.5,-129 1002.5,-110 1161.5,-110 1161.5,-129"/>
<text text-anchor="middle" x="1082" y="-117" font-family="Helvetica,sans-Serif" font-size="10.00">include/NetworkManager.hpp</text>
</a>
</g>
</g>
<!-- Node4&#45;&gt;Node18 -->
<g id="edge29_Node000004_Node000018" class="edge">
<title>Node4&#45;&gt;Node18</title>
<g id="a_edge29_Node000004_Node000018"><a xlink:title=" ">
<path fill="none" stroke="#63b8ff" d="M2039.95,-229.09C1902.53,-229.24 1588.32,-224.6 1328,-184 1252.07,-172.16 1165.56,-147.02 1118.03,-132.18"/>
<polygon fill="#63b8ff" stroke="#63b8ff" points="1118.81,-128.75 1108.22,-129.08 1116.7,-135.43 1118.81,-128.75"/>
</a>
</g>
</g>
<!-- Node30 -->
<g id="Node000030" class="node">
<title>Node30</title>
<g id="a_Node000030"><a xlink:href="InputManager_8hpp.html" target="_top" xlink:title=" ">
<polygon fill="white" stroke="#666666" points="1894.5,-129 1757.5,-129 1757.5,-110 1894.5,-110 1894.5,-129"/>
<text text-anchor="middle" x="1826" y="-117" font-family="Helvetica,sans-Serif" font-size="10.00">inputs/InputManager.hpp</text>
</a>
</g>
</g>
<!-- Node4&#45;&gt;Node30 -->
<g id="edge44_Node000004_Node000030" class="edge">
<title>Node4&#45;&gt;Node30</title>
<g id="a_edge44_Node000004_Node000030"><a xlink:title=" ">
<path fill="none" stroke="#63b8ff" d="M2087.24,-219.84C2036.85,-200.68 1915.75,-154.63 1857.86,-132.62"/>
<polygon fill="#63b8ff" stroke="#63b8ff" points="1859.07,-129.33 1848.48,-129.05 1856.58,-135.87 1859.07,-129.33"/>
</a>
</g>
</g>
<!-- Node4&#45;&gt;Node36 -->
<g id="edge60_Node000004_Node000036" class="edge">
<title>Node4&#45;&gt;Node36</title>
<g id="a_edge60_Node000004_Node000036"><a xlink:title=" ">
<path fill="none" stroke="#63b8ff" d="M2143.58,-219.98C2179.35,-210.91 2236.12,-196.52 2275.34,-186.57"/>
<polygon fill="#63b8ff" stroke="#63b8ff" points="2276.32,-189.93 2285.16,-184.08 2274.6,-183.15 2276.32,-189.93"/>
</a>
</g>
</g>
<!-- Node10&#45;&gt;Node2 -->
<g id="edge12_Node000010_Node000002" class="edge">
<title>Node10&#45;&gt;Node2</title>
<g id="a_edge12_Node000010_Node000002"><a xlink:title=" ">
<path fill="none" stroke="#63b8ff" d="M241.87,-55.65C244.96,-55.41 248.01,-55.19 251,-55 725.97,-25.22 1913.91,-67.07 2405.67,-18.91"/>
<polygon fill="#63b8ff" stroke="#63b8ff" points="2406.13,-22.38 2415.73,-17.9 2405.43,-15.41 2406.13,-22.38"/>
</a>
</g>
</g>
<!-- Node10&#45;&gt;Node3 -->
<g id="edge15_Node000010_Node000003" class="edge">
<title>Node10&#45;&gt;Node3</title>
<g id="a_edge15_Node000010_Node000003"><a xlink:title=" ">
<path fill="none" stroke="#63b8ff" d="M151.31,-54.98C129.2,-46.3 94.68,-32.75 69.55,-22.88"/>
<polygon fill="#63b8ff" stroke="#63b8ff" points="70.67,-19.57 60.08,-19.17 68.11,-26.08 70.67,-19.57"/>
</a>
</g>
</g>
<!-- Node10&#45;&gt;Node7 -->
<g id="edge16_Node000010_Node000007" class="edge">
<title>Node10&#45;&gt;Node7</title>
<g id="a_edge16_Node000010_Node000007"><a xlink:title=" ">
<path fill="none" stroke="#63b8ff" d="M241.87,-55.66C244.96,-55.42 248.01,-55.19 251,-55 1029.98,-4.67 1227.13,-52.87 2007,-19 2039.66,-17.58 2076.94,-15 2102.82,-13.05"/>
<polygon fill="#63b8ff" stroke="#63b8ff" points="2103.11,-16.53 2112.82,-12.28 2102.58,-9.55 2103.11,-16.53"/>
</a>
</g>
</g>
<!-- Node10&#45;&gt;Node8 -->
<g id="edge17_Node000010_Node000008" class="edge">
<title>Node10&#45;&gt;Node8</title>
<g id="a_edge17_Node000010_Node000008"><a xlink:title=" ">
<path fill="none" stroke="#63b8ff" d="M241.88,-55.7C244.96,-55.44 248.01,-55.21 251,-55 766.44,-18.99 896.91,-43.99 1413,-19 1436.72,-17.85 1462.86,-16.2 1485.38,-14.66"/>
<polygon fill="#63b8ff" stroke="#63b8ff" points="1485.72,-18.14 1495.45,-13.96 1485.23,-11.16 1485.72,-18.14"/>
</a>
</g>
</g>
<!-- Node11 -->
<g id="Node000011" class="node">
<title>Node11</title>
<g id="a_Node000011"><a xlink:title=" ">
<polygon fill="#e0e0e0" stroke="#999999" points="272,-19 168,-19 168,0 272,0 272,-19"/>
<text text-anchor="middle" x="220" y="-7" font-family="Helvetica,sans-Serif" font-size="10.00">SDL2/SDL_mixer.h</text>
</a>
</g>
</g>
<!-- Node10&#45;&gt;Node11 -->
<g id="edge13_Node000010_Node000011" class="edge">
<title>Node10&#45;&gt;Node11</title>
<g id="a_edge13_Node000010_Node000011"><a xlink:title=" ">
<path fill="none" stroke="#63b8ff" d="M180.76,-54.75C187.47,-47.18 197.34,-36.05 205.51,-26.84"/>
<polygon fill="#63b8ff" stroke="#63b8ff" points="208.37,-28.89 212.38,-19.09 203.13,-24.25 208.37,-28.89"/>
</a>
</g>
</g>
<!-- Node12 -->
<g id="Node000012" class="node">
<title>Node12</title>
<g id="a_Node000012"><a xlink:title=" ">
<polygon fill="#e0e0e0" stroke="#999999" points="150,-19 86,-19 86,0 150,0 150,-19"/>
<text text-anchor="middle" x="118" y="-7" font-family="Helvetica,sans-Serif" font-size="10.00">algorithm</text>
</a>
</g>
</g>
<!-- Node10&#45;&gt;Node12 -->
<g id="edge14_Node000010_Node000012" class="edge">
<title>Node10&#45;&gt;Node12</title>
<g id="a_edge14_Node000010_Node000012"><a xlink:title=" ">
<path fill="none" stroke="#63b8ff" d="M163.92,-54.75C155.91,-47.03 144.04,-35.6 134.38,-26.28"/>
<polygon fill="#63b8ff" stroke="#63b8ff" points="136.54,-23.51 126.91,-19.09 131.69,-28.55 136.54,-23.51"/>
</a>
</g>
</g>
<!-- Node14&#45;&gt;Node2 -->
<g id="edge20_Node000014_Node000002" class="edge">
<title>Node14&#45;&gt;Node2</title>
<g id="a_edge20_Node000014_Node000002"><a xlink:title=" ">
<path fill="none" stroke="#63b8ff" d="M2028.18,-55.61C2145.18,-44.96 2344.55,-26.57 2405.66,-18.98"/>
<polygon fill="#63b8ff" stroke="#63b8ff" points="2406.24,-22.43 2415.7,-17.65 2405.33,-15.49 2406.24,-22.43"/>
</a>
</g>
</g>
<!-- Node14&#45;&gt;Node7 -->
<g id="edge21_Node000014_Node000007" class="edge">
<title>Node14&#45;&gt;Node7</title>
<g id="a_edge21_Node000014_Node000007"><a xlink:title=" ">
<path fill="none" stroke="#63b8ff" d="M1972.17,-54.98C2008.04,-45.18 2066.66,-29.17 2102.92,-19.26"/>
<polygon fill="#63b8ff" stroke="#63b8ff" points="2104.23,-22.53 2112.96,-16.52 2102.39,-15.78 2104.23,-22.53"/>
</a>
</g>
</g>
<!-- Node14&#45;&gt;Node8 -->
<g id="edge22_Node000014_Node000008" class="edge">
<title>Node14&#45;&gt;Node8</title>
<g id="a_edge22_Node000014_Node000008"><a xlink:title=" ">
<path fill="none" stroke="#63b8ff" d="M1871.96,-54.99C1804.88,-46.62 1699.88,-33.24 1598.82,-19.09"/>
<polygon fill="#63b8ff" stroke="#63b8ff" points="1599.13,-15.6 1588.74,-17.67 1598.16,-22.53 1599.13,-15.6"/>
</a>
</g>
</g>
<!-- Node15 -->
<g id="Node000015" class="node">
<title>Node15</title>
<g id="a_Node000015"><a xlink:title=" ">
<polygon fill="#e0e0e0" stroke="#999999" points="1403.5,-19 1356.5,-19 1356.5,0 1403.5,0 1403.5,-19"/>
<text text-anchor="middle" x="1380" y="-7" font-family="Helvetica,sans-Serif" font-size="10.00">vector</text>
</a>
</g>
</g>
<!-- Node14&#45;&gt;Node15 -->
<g id="edge23_Node000014_Node000015" class="edge">
<title>Node14&#45;&gt;Node15</title>
<g id="a_edge23_Node000014_Node000015"><a xlink:title=" ">
<path fill="none" stroke="#63b8ff" d="M1853.96,-55.28C1727.66,-43.34 1499.33,-21.77 1413.67,-13.68"/>
<polygon fill="#63b8ff" stroke="#63b8ff" points="1414,-10.2 1403.72,-12.74 1413.34,-17.17 1414,-10.2"/>
</a>
</g>
</g>
<!-- Node16&#45;&gt;Node2 -->
<g id="edge25_Node000016_Node000002" class="edge">
<title>Node16&#45;&gt;Node2</title>
<g id="a_edge25_Node000016_Node000002"><a xlink:title=" ">
<path fill="none" stroke="#63b8ff" d="M2406.92,-54.75C2414.78,-47.03 2426.43,-35.6 2435.92,-26.28"/>
<polygon fill="#63b8ff" stroke="#63b8ff" points="2438.56,-28.59 2443.25,-19.09 2433.66,-23.6 2438.56,-28.59"/>
</a>
</g>
</g>
<!-- Node16&#45;&gt;Node7 -->
<g id="edge27_Node000016_Node000007" class="edge">
<title>Node16&#45;&gt;Node7</title>
<g id="a_edge27_Node000016_Node000007"><a xlink:title=" ">
<path fill="none" stroke="#63b8ff" d="M2355.74,-54.98C2303.23,-44.4 2214.77,-26.58 2167.34,-17.02"/>
<polygon fill="#63b8ff" stroke="#63b8ff" points="2167.81,-13.54 2157.32,-15 2166.43,-20.4 2167.81,-13.54"/>
</a>
</g>
</g>
<!-- Node16&#45;&gt;Node8 -->
<g id="edge28_Node000016_Node000008" class="edge">
<title>Node16&#45;&gt;Node8</title>
<g id="a_edge28_Node000016_Node000008"><a xlink:title=" ">
<path fill="none" stroke="#63b8ff" d="M2317.83,-59.25C2132.07,-49.37 1682.23,-25.28 1598.85,-18.81"/>
<polygon fill="#63b8ff" stroke="#63b8ff" points="1598.97,-15.31 1588.71,-17.93 1598.37,-22.28 1598.97,-15.31"/>
</a>
</g>
</g>
<!-- Node17 -->
<g id="Node000017" class="node">
<title>Node17</title>
<g id="a_Node000017"><a xlink:title=" ">
<polygon fill="#e0e0e0" stroke="#999999" points="2398,-19 2290,-19 2290,0 2398,0 2398,-19"/>
<text text-anchor="middle" x="2344" y="-7" font-family="Helvetica,sans-Serif" font-size="10.00">SDL2/SDL_image.h</text>
</a>
</g>
</g>
<!-- Node16&#45;&gt;Node17 -->
<g id="edge26_Node000016_Node000017" class="edge">
<title>Node16&#45;&gt;Node17</title>
<g id="a_edge26_Node000016_Node000017"><a xlink:title=" ">
<path fill="none" stroke="#63b8ff" d="M2389.08,-54.75C2381.22,-47.03 2369.57,-35.6 2360.08,-26.28"/>
<polygon fill="#63b8ff" stroke="#63b8ff" points="2362.34,-23.6 2352.75,-19.09 2357.44,-28.59 2362.34,-23.6"/>
</a>
</g>
</g>
<!-- Node18&#45;&gt;Node7 -->
<g id="edge33_Node000018_Node000007" class="edge">
<title>Node18&#45;&gt;Node7</title>
<g id="a_edge33_Node000018_Node000007"><a xlink:title=" ">
<path fill="none" stroke="#63b8ff" d="M1161.63,-116.19C1298.09,-111.6 1570.87,-99.5 1663,-74 1681.2,-68.96 1682.87,-60.27 1701,-55 1739.34,-43.85 2009,-20.88 2102.87,-13.12"/>
<polygon fill="#63b8ff" stroke="#63b8ff" points="2103.24,-16.6 2112.92,-12.29 2102.66,-9.63 2103.24,-16.6"/>
</a>
</g>
</g>
<!-- Node18&#45;&gt;Node15 -->
<g id="edge35_Node000018_Node000015" class="edge">
<title>Node18&#45;&gt;Node15</title>
<g id="a_edge35_Node000018_Node000015"><a xlink:title=" ">
<path fill="none" stroke="#63b8ff" d="M1161.54,-116.69C1210.76,-112.56 1273.73,-101.62 1323,-74 1342.72,-62.95 1359.18,-42.51 1369.26,-27.81"/>
<polygon fill="#63b8ff" stroke="#63b8ff" points="1372.39,-29.41 1374.94,-19.12 1366.54,-25.58 1372.39,-29.41"/>
</a>
</g>
</g>
<!-- Node19 -->
<g id="Node000019" class="node">
<title>Node19</title>
<g id="a_Node000019"><a xlink:title=" ">
<polygon fill="#e0e0e0" stroke="#999999" points="1040,-74 990,-74 990,-55 1040,-55 1040,-74"/>
<text text-anchor="middle" x="1015" y="-62" font-family="Helvetica,sans-Serif" font-size="10.00">cstring</text>
</a>
</g>
</g>
<!-- Node18&#45;&gt;Node19 -->
<g id="edge30_Node000018_Node000019" class="edge">
<title>Node18&#45;&gt;Node19</title>
<g id="a_edge30_Node000018_Node000019"><a xlink:title=" ">
<path fill="none" stroke="#63b8ff" d="M1071.24,-109.98C1061.23,-102.07 1046.11,-90.11 1034.07,-80.58"/>
<polygon fill="#63b8ff" stroke="#63b8ff" points="1035.97,-77.63 1025.96,-74.17 1031.63,-83.12 1035.97,-77.63"/>
</a>
</g>
</g>
<!-- Node20 -->
<g id="Node000020" class="node">
<title>Node20</title>
<g id="a_Node000020"><a xlink:title=" ">
<polygon fill="#e0e0e0" stroke="#999999" points="1106,-74 1058,-74 1058,-55 1106,-55 1106,-74"/>
<text text-anchor="middle" x="1082" y="-62" font-family="Helvetica,sans-Serif" font-size="10.00">mutex</text>
</a>
</g>
</g>
<!-- Node18&#45;&gt;Node20 -->
<g id="edge31_Node000018_Node000020" class="edge">
<title>Node18&#45;&gt;Node20</title>
<g id="a_edge31_Node000018_Node000020"><a xlink:title=" ">
<path fill="none" stroke="#63b8ff" d="M1082,-109.75C1082,-102.8 1082,-92.85 1082,-84.13"/>
<polygon fill="#63b8ff" stroke="#63b8ff" points="1085.5,-84.09 1082,-74.09 1078.5,-84.09 1085.5,-84.09"/>
</a>
</g>
</g>
<!-- Node21 -->
<g id="Node000021" class="node">
<title>Node21</title>
<g id="a_Node000021"><a xlink:title=" ">
<polygon fill="#e0e0e0" stroke="#999999" points="1171.5,-74 1124.5,-74 1124.5,-55 1171.5,-55 1171.5,-74"/>
<text text-anchor="middle" x="1148" y="-62" font-family="Helvetica,sans-Serif" font-size="10.00">queue</text>
</a>
</g>
</g>
<!-- Node18&#45;&gt;Node21 -->
<g id="edge32_Node000018_Node000021" class="edge">
<title>Node18&#45;&gt;Node21</title>
<g id="a_edge32_Node000018_Node000021"><a xlink:title=" ">
<path fill="none" stroke="#63b8ff" d="M1092.6,-109.98C1102.46,-102.07 1117.35,-90.11 1129.22,-80.58"/>
<polygon fill="#63b8ff" stroke="#63b8ff" points="1131.6,-83.16 1137.2,-74.17 1127.21,-77.7 1131.6,-83.16"/>
</a>
</g>
</g>
<!-- Node22 -->
<g id="Node000022" class="node">
<title>Node22</title>
<g id="a_Node000022"><a xlink:title=" ">
<polygon fill="#e0e0e0" stroke="#999999" points="1238,-74 1190,-74 1190,-55 1238,-55 1238,-74"/>
<text text-anchor="middle" x="1214" y="-62" font-family="Helvetica,sans-Serif" font-size="10.00">thread</text>
</a>
</g>
</g>
<!-- Node18&#45;&gt;Node22 -->
<g id="edge34_Node000018_Node000022" class="edge">
<title>Node18&#45;&gt;Node22</title>
<g id="a_edge34_Node000018_Node000022"><a xlink:title=" ">
<path fill="none" stroke="#63b8ff" d="M1103.21,-109.98C1124.73,-101.34 1158.28,-87.87 1182.83,-78.02"/>
<polygon fill="#63b8ff" stroke="#63b8ff" points="1184.43,-81.14 1192.41,-74.17 1181.82,-74.65 1184.43,-81.14"/>
</a>
</g>
</g>
<!-- Node23 -->
<g id="Node000023" class="node">
<title>Node23</title>
<g id="a_Node000023"><a xlink:title=" ">
<polygon fill="#e0e0e0" stroke="#999999" points="1314,-74 1256,-74 1256,-55 1314,-55 1314,-74"/>
<text text-anchor="middle" x="1285" y="-62" font-family="Helvetica,sans-Serif" font-size="10.00">asio.hpp</text>
</a>
</g>
</g>
<!-- Node18&#45;&gt;Node23 -->
<g id="edge36_Node000018_Node000023" class="edge">
<title>Node18&#45;&gt;Node23</title>
<g id="a_edge36_Node000018_Node000023"><a xlink:title=" ">
<path fill="none" stroke="#63b8ff" d="M1114.62,-109.98C1150.42,-100.64 1207.87,-85.64 1246.02,-75.68"/>
<polygon fill="#63b8ff" stroke="#63b8ff" points="1246.97,-79.05 1255.76,-73.13 1245.2,-72.27 1246.97,-79.05"/>
</a>
</g>
</g>
<!-- Node24 -->
<g id="Node000024" class="node">
<title>Node24</title>
<g id="a_Node000024"><a xlink:href="CircularBuffer_8hpp.html" target="_top" xlink:title=" ">
<polygon fill="white" stroke="#666666" points="402,-74 260,-74 260,-55 402,-55 402,-74"/>
<text text-anchor="middle" x="331" y="-62" font-family="Helvetica,sans-Serif" font-size="10.00">include/CircularBuffer.hpp</text>
</a>
</g>
</g>
<!-- Node18&#45;&gt;Node24 -->
<g id="edge37_Node000018_Node000024" class="edge">
<title>Node18&#45;&gt;Node24</title>
<g id="a_edge37_Node000018_Node000024"><a xlink:title=" ">
<path fill="none" stroke="#63b8ff" d="M1002.18,-112.91C882.29,-104.5 648.59,-88.08 450,-74 437.77,-73.13 424.84,-72.21 412.18,-71.31"/>
<polygon fill="#63b8ff" stroke="#63b8ff" points="412.33,-67.81 402.11,-70.59 411.83,-74.79 412.33,-67.81"/>
</a>
</g>
</g>
<!-- Node26 -->
<g id="Node000026" class="node">
<title>Node26</title>
<g id="a_Node000026"><a xlink:title=" ">
<polygon fill="#e0e0e0" stroke="#999999" points="569.5,-74 458.5,-74 458.5,-55 569.5,-55 569.5,-74"/>
<text text-anchor="middle" x="514" y="-62" font-family="Helvetica,sans-Serif" font-size="10.00">network/Action.hpp</text>
</a>
</g>
</g>
<!-- Node18&#45;&gt;Node26 -->
<g id="edge40_Node000018_Node000026" class="edge">
<title>Node18&#45;&gt;Node26</title>
<g id="a_edge40_Node000018_Node000026"><a xlink:title=" ">
<path fill="none" stroke="#63b8ff" d="M1002.19,-112.47C905.03,-104.91 735.71,-90.97 579.89,-74.05"/>
<polygon fill="#63b8ff" stroke="#63b8ff" points="579.97,-70.54 569.65,-72.93 579.21,-77.5 579.97,-70.54"/>
</a>
</g>
</g>
<!-- Node27 -->
<g id="Node000027" class="node">
<title>Node27</title>
<g id="a_Node000027"><a xlink:title=" ">
<polygon fill="#e0e0e0" stroke="#999999" points="708,-74 588,-74 588,-55 708,-55 708,-74"/>
<text text-anchor="middle" x="648" y="-62" font-family="Helvetica,sans-Serif" font-size="10.00">network/Decoder.hpp</text>
</a>
</g>
</g>
<!-- Node18&#45;&gt;Node27 -->
<g id="edge41_Node000018_Node000027" class="edge">
<title>Node18&#45;&gt;Node27</title>
<g id="a_edge41_Node000018_Node000027"><a xlink:title=" ">
<path fill="none" stroke="#63b8ff" d="M1012.27,-109.98C931.5,-100.12 799.19,-83.96 718.22,-74.07"/>
<polygon fill="#63b8ff" stroke="#63b8ff" points="718.47,-70.58 708.12,-72.84 717.62,-77.53 718.47,-70.58"/>
</a>
</g>
</g>
<!-- Node28 -->
<g id="Node000028" class="node">
<title>Node28</title>
<g id="a_Node000028"><a xlink:title=" ">
<polygon fill="#e0e0e0" stroke="#999999" points="845.5,-74 726.5,-74 726.5,-55 845.5,-55 845.5,-74"/>
<text text-anchor="middle" x="786" y="-62" font-family="Helvetica,sans-Serif" font-size="10.00">network/Encoder.hpp</text>
</a>
</g>
</g>
<!-- Node18&#45;&gt;Node28 -->
<g id="edge42_Node000018_Node000028" class="edge">
<title>Node18&#45;&gt;Node28</title>
<g id="a_edge42_Node000018_Node000028"><a xlink:title=" ">
<path fill="none" stroke="#63b8ff" d="M1034.44,-109.98C982.6,-100.7 899.61,-85.84 843.99,-75.88"/>
<polygon fill="#63b8ff" stroke="#63b8ff" points="844.39,-72.4 833.93,-74.08 843.16,-79.29 844.39,-72.4"/>
</a>
</g>
</g>
<!-- Node29 -->
<g id="Node000029" class="node">
<title>Node29</title>
<g id="a_Node000029"><a xlink:title=" ">
<polygon fill="#e0e0e0" stroke="#999999" points="972,-74 864,-74 864,-55 972,-55 972,-74"/>
<text text-anchor="middle" x="918" y="-62" font-family="Helvetica,sans-Serif" font-size="10.00">network/Event.hpp</text>
</a>
</g>
</g>
<!-- Node18&#45;&gt;Node29 -->
<g id="edge43_Node000018_Node000029" class="edge">
<title>Node18&#45;&gt;Node29</title>
<g id="a_edge43_Node000018_Node000029"><a xlink:title=" ">
<path fill="none" stroke="#63b8ff" d="M1055.65,-109.98C1028.24,-101.13 985.11,-87.19 954.44,-77.28"/>
<polygon fill="#63b8ff" stroke="#63b8ff" points="955.15,-73.83 944.56,-74.08 953,-80.49 955.15,-73.83"/>
</a>
</g>
</g>
<!-- Node24&#45;&gt;Node15 -->
<g id="edge39_Node000024_Node000015" class="edge">
<title>Node24&#45;&gt;Node15</title>
<g id="a_edge39_Node000024_Node000015"><a xlink:title=" ">
<path fill="none" stroke="#63b8ff" d="M402.4,-56.08C407,-55.69 411.56,-55.32 416,-55 779.73,-28.44 1221.89,-14.87 1346.12,-11.41"/>
<polygon fill="#63b8ff" stroke="#63b8ff" points="1346.59,-14.9 1356.48,-11.12 1346.39,-7.9 1346.59,-14.9"/>
</a>
</g>
</g>
<!-- Node25 -->
<g id="Node000025" class="node">
<title>Node25</title>
<g id="a_Node000025"><a xlink:title=" ">
<polygon fill="#e0e0e0" stroke="#999999" points="359,-19 303,-19 303,0 359,0 359,-19"/>
<text text-anchor="middle" x="331" y="-7" font-family="Helvetica,sans-Serif" font-size="10.00">optional</text>
</a>
</g>
</g>
<!-- Node24&#45;&gt;Node25 -->
<g id="edge38_Node000024_Node000025" class="edge">
<title>Node24&#45;&gt;Node25</title>
<g id="a_edge38_Node000024_Node000025"><a xlink:title=" ">
<path fill="none" stroke="#63b8ff" d="M331,-54.75C331,-47.8 331,-37.85 331,-29.13"/>
<polygon fill="#63b8ff" stroke="#63b8ff" points="334.5,-29.09 331,-19.09 327.5,-29.09 334.5,-29.09"/>
</a>
</g>
</g>
<!-- Node30&#45;&gt;Node2 -->
<g id="edge45_Node000030_Node000002" class="edge">
<title>Node30&#45;&gt;Node2</title>
<g id="a_edge45_Node000030_Node000002"><a xlink:title=" ">
<path fill="none" stroke="#63b8ff" d="M1894.6,-114.64C1975.95,-109.22 2115.34,-97.31 2233,-74 2268.02,-67.06 2362.41,-38.38 2415.13,-22.03"/>
<polygon fill="#63b8ff" stroke="#63b8ff" points="2416.26,-25.35 2424.77,-19.04 2414.18,-18.66 2416.26,-25.35"/>
</a>
</g>
</g>
<!-- Node30&#45;&gt;Node13 -->
<g id="edge47_Node000030_Node000013" class="edge">
<title>Node30&#45;&gt;Node13</title>
<g id="a_edge47_Node000030_Node000013"><a xlink:title=" ">
<path fill="none" stroke="#63b8ff" d="M1765.89,-110C1705.2,-101.39 1608.48,-87.64 1514.11,-74.01"/>
<polygon fill="#63b8ff" stroke="#63b8ff" points="1514.5,-70.53 1504.1,-72.56 1513.5,-77.46 1514.5,-70.53"/>
</a>
</g>
</g>
<!-- Node31 -->
<g id="Node000031" class="node">
<title>Node31</title>
<g id="a_Node000031"><a xlink:title=" ">
<polygon fill="#e0e0e0" stroke="#999999" points="1997.5,-19 1846.5,-19 1846.5,0 1997.5,0 1997.5,-19"/>
<text text-anchor="middle" x="1922" y="-7" font-family="Helvetica,sans-Serif" font-size="10.00">components/Physics2D.hpp</text>
</a>
</g>
</g>
<!-- Node30&#45;&gt;Node31 -->
<g id="edge46_Node000030_Node000031" class="edge">
<title>Node30&#45;&gt;Node31</title>
<g id="a_edge46_Node000030_Node000031"><a xlink:title=" ">
<path fill="none" stroke="#63b8ff" d="M1826.59,-109.77C1827.89,-96.59 1832.02,-71.43 1845,-55 1856.18,-40.85 1873.18,-30.36 1888.36,-23.12"/>
<polygon fill="#63b8ff" stroke="#63b8ff" points="1889.81,-26.31 1897.52,-19.03 1886.96,-19.91 1889.81,-26.31"/>
</a>
</g>
</g>
<!-- Node32 -->
<g id="Node000032" class="node">
<title>Node32</title>
<g id="a_Node000032"><a xlink:title=" ">
<polygon fill="#e0e0e0" stroke="#999999" points="1798,-74 1710,-74 1710,-55 1798,-55 1798,-74"/>
<text text-anchor="middle" x="1754" y="-62" font-family="Helvetica,sans-Serif" font-size="10.00">ecs/Zipper.hpp</text>
</a>
</g>
</g>
<!-- Node30&#45;&gt;Node32 -->
<g id="edge48_Node000030_Node000032" class="edge">
<title>Node30&#45;&gt;Node32</title>
<g id="a_edge48_Node000030_Node000032"><a xlink:title=" ">
<path fill="none" stroke="#63b8ff" d="M1814.43,-109.98C1803.58,-102 1787.12,-89.88 1774.12,-80.31"/>
<polygon fill="#63b8ff" stroke="#63b8ff" points="1775.91,-77.28 1765.78,-74.17 1771.76,-82.92 1775.91,-77.28"/>
</a>
</g>
</g>
<!-- Node33 -->
<g id="Node000033" class="node">
<title>Node33</title>
<g id="a_Node000033"><a xlink:href="RenderComponents_8hpp.html" target="_top" xlink:title=" ">
<polygon fill="white" stroke="#666666" points="2224,-74 2046,-74 2046,-55 2224,-55 2224,-74"/>
<text text-anchor="middle" x="2135" y="-62" font-family="Helvetica,sans-Serif" font-size="10.00">graphics/RenderComponents.hpp</text>
</a>
</g>
</g>
<!-- Node30&#45;&gt;Node33 -->
<g id="edge49_Node000030_Node000033" class="edge">
<title>Node30&#45;&gt;Node33</title>
<g id="a_edge49_Node000030_Node000033"><a xlink:title=" ">
<path fill="none" stroke="#63b8ff" d="M1875.65,-109.98C1929.96,-100.67 2017.02,-85.74 2075.09,-75.78"/>
<polygon fill="#63b8ff" stroke="#63b8ff" points="2075.96,-79.18 2085.22,-74.04 2074.77,-72.28 2075.96,-79.18"/>
</a>
</g>
</g>
<!-- Node34 -->
<g id="Node000034" class="node">
<title>Node34</title>
<g id="a_Node000034"><a xlink:href="KeyBindings_8hpp.html" target="_top" xlink:title=" ">
<polygon fill="white" stroke="#666666" points="1653.5,-74 1522.5,-74 1522.5,-55 1653.5,-55 1653.5,-74"/>
<text text-anchor="middle" x="1588" y="-62" font-family="Helvetica,sans-Serif" font-size="10.00">inputs/KeyBindings.hpp</text>
</a>
</g>
</g>
<!-- Node30&#45;&gt;Node34 -->
<g id="edge53_Node000030_Node000034" class="edge">
<title>Node30&#45;&gt;Node34</title>
<g id="a_edge53_Node000030_Node000034"><a xlink:title=" ">
<path fill="none" stroke="#63b8ff" d="M1787.76,-109.98C1746.59,-100.82 1681.01,-86.21 1636.3,-76.26"/>
<polygon fill="#63b8ff" stroke="#63b8ff" points="1637.06,-72.84 1626.54,-74.08 1635.54,-79.67 1637.06,-72.84"/>
</a>
</g>
</g>
<!-- Node33&#45;&gt;Node2 -->
<g id="edge50_Node000033_Node000002" class="edge">
<title>Node33&#45;&gt;Node2</title>
<g id="a_edge50_Node000033_Node000002"><a xlink:title=" ">
<path fill="none" stroke="#63b8ff" d="M2189.51,-54.98C2242.33,-46.64 2324.95,-33.35 2405.81,-19.18"/>
<polygon fill="#63b8ff" stroke="#63b8ff" points="2406.42,-22.62 2415.66,-17.44 2405.21,-15.73 2406.42,-22.62"/>
</a>
</g>
</g>
<!-- Node33&#45;&gt;Node7 -->
<g id="edge51_Node000033_Node000007" class="edge">
<title>Node33&#45;&gt;Node7</title>
<g id="a_edge51_Node000033_Node000007"><a xlink:title=" ">
<path fill="none" stroke="#63b8ff" d="M2135,-54.75C2135,-47.8 2135,-37.85 2135,-29.13"/>
<polygon fill="#63b8ff" stroke="#63b8ff" points="2138.5,-29.09 2135,-19.09 2131.5,-29.09 2138.5,-29.09"/>
</a>
</g>
</g>
<!-- Node33&#45;&gt;Node31 -->
<g id="edge52_Node000033_Node000031" class="edge">
<title>Node33&#45;&gt;Node31</title>
<g id="a_edge52_Node000033_Node000031"><a xlink:title=" ">
<path fill="none" stroke="#63b8ff" d="M2100.78,-54.98C2064.24,-45.89 2006.22,-31.46 1966.24,-21.51"/>
<polygon fill="#63b8ff" stroke="#63b8ff" points="1967.04,-18.1 1956.49,-19.08 1965.35,-24.89 1967.04,-18.1"/>
</a>
</g>
</g>
<!-- Node34&#45;&gt;Node2 -->
<g id="edge54_Node000034_Node000002" class="edge">
<title>Node34&#45;&gt;Node2</title>
<g id="a_edge54_Node000034_Node000002"><a xlink:title=" ">
<path fill="none" stroke="#63b8ff" d="M1653.71,-58.29C1669.21,-57.13 1685.69,-55.97 1701,-55 2011.19,-35.43 2093.27,-55.8 2405.46,-19.01"/>
<polygon fill="#63b8ff" stroke="#63b8ff" points="2406.2,-22.45 2415.72,-17.79 2405.37,-15.5 2406.2,-22.45"/>
</a>
</g>
</g>
<!-- Node34&#45;&gt;Node3 -->
<g id="edge56_Node000034_Node000003" class="edge">
<title>Node34&#45;&gt;Node3</title>
<g id="a_edge56_Node000034_Node000003"><a xlink:title=" ">
<path fill="none" stroke="#63b8ff" d="M1522.18,-55.71C1519.08,-55.45 1516.01,-55.21 1513,-55 879.52,-11.25 712.63,-94.42 78.45,-18.9"/>
<polygon fill="#63b8ff" stroke="#63b8ff" points="78.48,-15.38 68.14,-17.66 77.65,-22.33 78.48,-15.38"/>
</a>
</g>
</g>
<!-- Node34&#45;&gt;Node7 -->
<g id="edge57_Node000034_Node000007" class="edge">
<title>Node34&#45;&gt;Node7</title>
<g id="a_edge57_Node000034_Node000007"><a xlink:title=" ">
<path fill="none" stroke="#63b8ff" d="M1653.92,-56.44C1658.68,-55.95 1663.41,-55.46 1668,-55 1830.97,-38.58 2026.09,-20.5 2102.27,-13.5"/>
<polygon fill="#63b8ff" stroke="#63b8ff" points="2102.99,-16.94 2112.63,-12.54 2102.35,-9.97 2102.99,-16.94"/>
</a>
</g>
</g>
<!-- Node34&#45;&gt;Node8 -->
<g id="edge58_Node000034_Node000008" class="edge">
<title>Node34&#45;&gt;Node8</title>
<g id="a_edge58_Node000034_Node000008"><a xlink:title=" ">
<path fill="none" stroke="#63b8ff" d="M1580.4,-54.75C1573.84,-47.18 1564.18,-36.05 1556.19,-26.84"/>
<polygon fill="#63b8ff" stroke="#63b8ff" points="1558.65,-24.35 1549.45,-19.09 1553.37,-28.94 1558.65,-24.35"/>
</a>
</g>
</g>
<!-- Node34&#45;&gt;Node15 -->
<g id="edge59_Node000034_Node000015" class="edge">
<title>Node34&#45;&gt;Node15</title>
<g id="a_edge59_Node000034_Node000015"><a xlink:title=" ">
<path fill="none" stroke="#63b8ff" d="M1554.58,-54.98C1515.79,-45.1 1452.19,-28.89 1413.4,-19.01"/>
<polygon fill="#63b8ff" stroke="#63b8ff" points="1414.19,-15.6 1403.63,-16.52 1412.46,-22.38 1414.19,-15.6"/>
</a>
</g>
</g>
<!-- Node35 -->
<g id="Node000035" class="node">
<title>Node35</title>
<g id="a_Node000035"><a xlink:title=" ">
<polygon fill="#e0e0e0" stroke="#999999" points="1661.5,-19 1606.5,-19 1606.5,0 1661.5,0 1661.5,-19"/>
<text text-anchor="middle" x="1634" y="-7" font-family="Helvetica,sans-Serif" font-size="10.00">fstream</text>
</a>
</g>
</g>
<!-- Node34&#45;&gt;Node35 -->
<g id="edge55_Node000034_Node000035" class="edge">
<title>Node34&#45;&gt;Node35</title>
<g id="a_edge55_Node000034_Node000035"><a xlink:title=" ">
<path fill="none" stroke="#63b8ff" d="M1595.6,-54.75C1602.16,-47.18 1611.82,-36.05 1619.81,-26.84"/>
<polygon fill="#63b8ff" stroke="#63b8ff" points="1622.63,-28.94 1626.55,-19.09 1617.35,-24.35 1622.63,-28.94"/>
</a>
</g>
</g>
<!-- Node36&#45;&gt;Node2 -->
<g id="edge61_Node000036_Node000002" class="edge">
<title>Node36&#45;&gt;Node2</title>
<g id="a_edge61_Node000036_Node000002"><a xlink:title=" ">
<path fill="none" stroke="#63b8ff" d="M2370.13,-171.61C2434.31,-168.05 2538.94,-157.85 2563,-129 2581.38,-106.96 2553.55,-73.94 2535,-55 2521.33,-41.03 2502.33,-30.41 2485.95,-23.05"/>
<polygon fill="#63b8ff" stroke="#63b8ff" points="2487.25,-19.8 2476.68,-19.09 2484.5,-26.23 2487.25,-19.8"/>
</a>
</g>
</g>
<!-- Node36&#45;&gt;Node6 -->
<g id="edge63_Node000036_Node000006" class="edge">
<title>Node36&#45;&gt;Node6</title>
<g id="a_edge63_Node000036_Node000006"><a xlink:title=" ">
<path fill="none" stroke="#63b8ff" d="M2314.21,-164.75C2310.24,-157.49 2304.47,-146.95 2299.57,-137.98"/>
<polygon fill="#63b8ff" stroke="#63b8ff" points="2302.57,-136.18 2294.7,-129.09 2296.43,-139.54 2302.57,-136.18"/>
</a>
</g>
</g>
<!-- Node36&#45;&gt;Node9 -->
<g id="edge64_Node000036_Node000009" class="edge">
<title>Node36&#45;&gt;Node9</title>
<g id="a_edge64_Node000036_Node000009"><a xlink:title=" ">
<path fill="none" stroke="#63b8ff" d="M2300.2,-164.98C2281.38,-156.46 2252.18,-143.23 2230.5,-133.41"/>
<polygon fill="#63b8ff" stroke="#63b8ff" points="2231.69,-130.11 2221.14,-129.17 2228.8,-136.48 2231.69,-130.11"/>
</a>
</g>
</g>
<!-- Node36&#45;&gt;Node12 -->
<g id="edge62_Node000036_Node000012" class="edge">
<title>Node36&#45;&gt;Node12</title>
<g id="a_edge62_Node000036_Node000012"><a xlink:title=" ">
<path fill="none" stroke="#63b8ff" d="M2267.98,-165.88C2264.95,-165.55 2261.94,-165.25 2259,-165 1698.56,-117.48 1555.89,-154.18 994,-129 794.05,-120.04 232.14,-219.79 95,-74 82.76,-60.99 93.24,-40.97 103.73,-26.89"/>
<polygon fill="#63b8ff" stroke="#63b8ff" points="106.52,-29 110.06,-19.01 101.07,-24.62 106.52,-29"/>
</a>
</g>
</g>
<!-- Node36&#45;&gt;Node15 -->
<g id="edge65_Node000036_Node000015" class="edge">
<title>Node36&#45;&gt;Node15</title>
<g id="a_edge65_Node000036_Node000015"><a xlink:title=" ">
<path fill="none" stroke="#63b8ff" d="M2267.97,-166.02C2264.94,-165.65 2261.93,-165.31 2259,-165 2067.89,-144.74 1543.74,-200.42 1399,-74 1386.42,-63.01 1382,-44.06 1380.53,-29.72"/>
<polygon fill="#63b8ff" stroke="#63b8ff" points="1384,-29.2 1379.88,-19.44 1377.01,-29.64 1384,-29.2"/>
</a>
</g>
</g>
<!-- Node36&#45;&gt;Node16 -->
<g id="edge66_Node000036_Node000016" class="edge">
<title>Node36&#45;&gt;Node16</title>
<g id="a_edge66_Node000036_Node000016"><a xlink:title=" ">
<path fill="none" stroke="#63b8ff" d="M2325.46,-164.66C2338.61,-146.69 2368.64,-105.64 2385.65,-82.38"/>
<polygon fill="#63b8ff" stroke="#63b8ff" points="2388.59,-84.3 2391.67,-74.16 2382.94,-80.16 2388.59,-84.3"/>
</a>
</g>
</g>
<!-- Node37 -->
<g id="Node000037" class="node">
<title>Node37</title>
<g id="a_Node000037"><a xlink:href="UIElement_8hpp.html" target="_top" xlink:title=" ">
<polygon fill="white" stroke="#666666" points="2553.5,-129 2452.5,-129 2452.5,-110 2553.5,-110 2553.5,-129"/>
<text text-anchor="middle" x="2503" y="-117" font-family="Helvetica,sans-Serif" font-size="10.00">ui/UIElement.hpp</text>
</a>
</g>
</g>
<!-- Node36&#45;&gt;Node37 -->
<g id="edge67_Node000036_Node000037" class="edge">
<title>Node36&#45;&gt;Node37</title>
<g id="a_edge67_Node000036_Node000037"><a xlink:title=" ">
<path fill="none" stroke="#63b8ff" d="M2348.56,-164.98C2379.72,-156.01 2428.97,-141.82 2463.46,-131.89"/>
<polygon fill="#63b8ff" stroke="#63b8ff" points="2464.57,-135.21 2473.21,-129.08 2462.63,-128.49 2464.57,-135.21"/>
</a>
</g>
</g>
<!-- Node37&#45;&gt;Node2 -->
<g id="edge68_Node000037_Node000002" class="edge">
<title>Node37&#45;&gt;Node2</title>
<g id="a_edge68_Node000037_Node000002"><a xlink:title=" ">
<path fill="none" stroke="#63b8ff" d="M2509.19,-109.81C2517.4,-97.12 2529.77,-73.07 2520,-55 2512.42,-40.98 2498.3,-30.67 2484.87,-23.53"/>
<polygon fill="#63b8ff" stroke="#63b8ff" points="2486.3,-20.33 2475.78,-19.08 2483.23,-26.62 2486.3,-20.33"/>
</a>
</g>
</g>
<!-- Node37&#45;&gt;Node7 -->
<g id="edge69_Node000037_Node000007" class="edge">
<title>Node37&#45;&gt;Node7</title>
<g id="a_edge69_Node000037_Node000007"><a xlink:title=" ">
<path fill="none" stroke="#63b8ff" d="M2503.62,-110C2504.1,-96.19 2502.83,-69.02 2487,-55 2463.23,-33.95 2249.36,-17.94 2167.07,-12.51"/>
<polygon fill="#63b8ff" stroke="#63b8ff" points="2167.24,-9.01 2157.03,-11.85 2166.78,-15.99 2167.24,-9.01"/>
</a>
</g>
</g>
<!-- Node37&#45;&gt;Node16 -->
<g id="edge70_Node000037_Node000016" class="edge">
<title>Node37&#45;&gt;Node16</title>
<g id="a_edge70_Node000037_Node000016"><a xlink:title=" ">
<path fill="none" stroke="#63b8ff" d="M2486.13,-109.98C2469.39,-101.54 2443.5,-88.47 2424.11,-78.68"/>
<polygon fill="#63b8ff" stroke="#63b8ff" points="2425.68,-75.55 2415.18,-74.17 2422.53,-81.8 2425.68,-75.55"/>
</a>
</g>
</g>
<!-- Node38&#45;&gt;Node2 -->
<g id="edge73_Node000038_Node000002" class="edge">
<title>Node38&#45;&gt;Node2</title>
<g id="a_edge73_Node000038_Node000002"><a xlink:title=" ">
<path fill="none" stroke="#63b8ff" d="M2689.81,-164.96C2693.85,-143.36 2701.09,-86.06 2672,-55 2648.87,-30.3 2555.85,-18.63 2498.43,-13.68"/>
<polygon fill="#63b8ff" stroke="#63b8ff" points="2498.4,-10.17 2488.15,-12.84 2497.83,-17.14 2498.4,-10.17"/>
</a>
</g>
</g>
<!-- Node38&#45;&gt;Node7 -->
<g id="edge75_Node000038_Node000007" class="edge">
<title>Node38&#45;&gt;Node7</title>
<g id="a_edge75_Node000038_Node000007"><a xlink:title=" ">
<path fill="none" stroke="#63b8ff" d="M2678.24,-164.74C2652.37,-142.09 2579.01,-81.51 2506,-55 2443.98,-32.48 2246.25,-17.65 2167.66,-12.51"/>
<polygon fill="#63b8ff" stroke="#63b8ff" points="2167.59,-9 2157.39,-11.85 2167.14,-15.98 2167.59,-9"/>
</a>
</g>
</g>
<!-- Node38&#45;&gt;Node37 -->
<g id="edge76_Node000038_Node000037" class="edge">
<title>Node38&#45;&gt;Node37</title>
<g id="a_edge76_Node000038_Node000037"><a xlink:title=" ">
<path fill="none" stroke="#63b8ff" d="M2658.28,-164.98C2626.95,-156.01 2577.43,-141.82 2542.76,-131.89"/>
<polygon fill="#63b8ff" stroke="#63b8ff" points="2543.53,-128.47 2532.96,-129.08 2541.61,-135.2 2543.53,-128.47"/>
</a>
</g>
</g>
<!-- Node39 -->
<g id="Node000039" class="node">
<title>Node39</title>
<g id="a_Node000039"><a xlink:title=" ">
<polygon fill="#e0e0e0" stroke="#999999" points="2812,-129 2724,-129 2724,-110 2812,-110 2812,-129"/>
<text text-anchor="middle" x="2768" y="-117" font-family="Helvetica,sans-Serif" font-size="10.00">SDL2/SDL_ttf.h</text>
</a>
</g>
</g>
<!-- Node38&#45;&gt;Node39 -->
<g id="edge74_Node000038_Node000039" class="edge">
<title>Node38&#45;&gt;Node39</title>
<g id="a_edge74_Node000038_Node000039"><a xlink:title=" ">
<path fill="none" stroke="#63b8ff" d="M2700.85,-164.98C2713.14,-156.84 2731.91,-144.41 2746.48,-134.76"/>
<polygon fill="#63b8ff" stroke="#63b8ff" points="2748.51,-137.61 2754.91,-129.17 2744.64,-131.78 2748.51,-137.61"/>
</a>
</g>
</g>
</g>
</svg>
