<?xml version="1.0" encoding="UTF-8" standalone="no"?>
<!DOCTYPE svg PUBLIC "-//W3C//DTD SVG 1.1//EN"
 "http://www.w3.org/Graphics/SVG/1.1/DTD/svg11.dtd">
<!-- Generated by graphviz version 2.43.0 (0)
 -->
<!-- Title: /home/runner/work/R&#45;Type/R&#45;Type/Server/include/network/HandleClient.hpp Pages: 1 -->
<svg width="338pt" height="104pt"
 viewBox="0.00 0.00 338.00 104.00" xmlns="http://www.w3.org/2000/svg" xmlns:xlink="http://www.w3.org/1999/xlink">
<g id="graph0" class="graph" transform="scale(1 1) rotate(0) translate(4 100)">
<title>/home/runner/work/R&#45;Type/R&#45;Type/Server/include/network/HandleClient.hpp</title>
<!-- Node1 -->
<g id="Node000001" class="node">
<title>Node1</title>
<g id="a_Node000001"><a xlink:title=" ">
<polygon fill="#999999" stroke="#666666" points="256.5,-96 71.5,-96 71.5,-55 256.5,-55 256.5,-96"/>
<text text-anchor="start" x="79.5" y="-84" font-family="Helvetica,sans-Serif" font-size="10.00">/home/runner/work/R</text>
<text text-anchor="start" x="79.5" y="-73" font-family="Helvetica,sans-Serif" font-size="10.00">&#45;Type/R&#45;Type/Server</text>
<text text-anchor="middle" x="164" y="-62" font-family="Helvetica,sans-Serif" font-size="10.00">/include/network/HandleClient.hpp</text>
</a>
</g>
</g>
<!-- Node2 -->
<g id="Node000002" class="node">
<title>Node2</title>
<g id="a_Node000002"><a xlink:title=" ">
<polygon fill="#e0e0e0" stroke="#999999" points="50,-19 0,-19 0,0 50,0 50,-19"/>
<text text-anchor="middle" x="25" y="-7" font-family="Helvetica,sans-Serif" font-size="10.00">chrono</text>
</a>
</g>
</g>
<!-- Node1&#45;&gt;Node2 -->
<g id="edge1_Node000001_Node000002" class="edge">
<title>Node1&#45;&gt;Node2</title>
<g id="a_edge1_Node000001_Node000002"><a xlink:title=" ">
<path fill="none" stroke="#63b8ff" d="M121.54,-54.95C99.27,-44.7 72.62,-32.43 52.97,-23.38"/>
<polygon fill="#63b8ff" stroke="#63b8ff" points="54.21,-20.1 43.66,-19.09 51.28,-26.45 54.21,-20.1"/>
</a>
</g>
</g>
<!-- Node3 -->
<g id="Node000003" class="node">
<title>Node3</title>
<g id="a_Node000003"><a xlink:title=" ">
<polygon fill="#e0e0e0" stroke="#999999" points="118,-19 68,-19 68,0 118,0 118,-19"/>
<text text-anchor="middle" x="93" y="-7" font-family="Helvetica,sans-Serif" font-size="10.00">cstdint</text>
</a>
</g>
</g>
<!-- Node1&#45;&gt;Node3 -->
<g id="edge2_Node000001_Node000003" class="edge">
<title>Node1&#45;&gt;Node3</title>
<g id="a_edge2_Node000001_Node000003"><a xlink:title=" ">
<path fill="none" stroke="#63b8ff" d="M142.31,-54.95C131.99,-45.65 119.82,-34.68 110.15,-25.96"/>
<polygon fill="#63b8ff" stroke="#63b8ff" points="112.49,-23.36 102.72,-19.26 107.8,-28.56 112.49,-23.36"/>
</a>
</g>
</g>
<!-- Node4 -->
<g id="Node000004" class="node">
<title>Node4</title>
<g id="a_Node000004"><a xlink:title=" ">
<polygon fill="#e0e0e0" stroke="#999999" points="192,-19 136,-19 136,0 192,0 192,-19"/>
<text text-anchor="middle" x="164" y="-7" font-family="Helvetica,sans-Serif" font-size="10.00">optional</text>
</a>
</g>
</g>
<!-- Node1&#45;&gt;Node4 -->
<g id="edge3_Node000001_Node000004" class="edge">
<title>Node1&#45;&gt;Node4</title>
<g id="a_edge3_Node000001_Node000004"><a xlink:title=" ">
<path fill="none" stroke="#63b8ff" d="M164,-54.95C164,-46.85 164,-37.5 164,-29.47"/>
<polygon fill="#63b8ff" stroke="#63b8ff" points="167.5,-29.26 164,-19.26 160.5,-29.26 167.5,-29.26"/>
</a>
</g>
</g>
<!-- Node5 -->
<g id="Node000005" class="node">
<title>Node5</title>
<g id="a_Node000005"><a xlink:title=" ">
<polygon fill="#e0e0e0" stroke="#999999" points="254,-19 210,-19 210,0 254,0 254,-19"/>
<text text-anchor="middle" x="232" y="-7" font-family="Helvetica,sans-Serif" font-size="10.00">string</text>
</a>
</g>
</g>
<!-- Node1&#45;&gt;Node5 -->
<g id="edge4_Node000001_Node000005" class="edge">
<title>Node1&#45;&gt;Node5</title>
<g id="a_edge4_Node000001_Node000005"><a xlink:title=" ">
<path fill="none" stroke="#63b8ff" d="M184.77,-54.95C194.56,-45.74 206.08,-34.9 215.29,-26.23"/>
<polygon fill="#63b8ff" stroke="#63b8ff" points="217.81,-28.66 222.69,-19.26 213.01,-23.57 217.81,-28.66"/>
</a>
</g>
</g>
<!-- Node6 -->
<g id="Node000006" class="node">
<title>Node6</title>
<g id="a_Node000006"><a xlink:title=" ">
<polygon fill="#e0e0e0" stroke="#999999" points="330,-19 272,-19 272,0 330,0 330,-19"/>
<text text-anchor="middle" x="301" y="-7" font-family="Helvetica,sans-Serif" font-size="10.00">asio.hpp</text>
</a>
</g>
</g>
<!-- Node1&#45;&gt;Node6 -->
<g id="edge5_Node000001_Node000006" class="edge">
<title>Node1&#45;&gt;Node6</title>
<g id="a_edge5_Node000001_Node000006"><a xlink:title=" ">
<path fill="none" stroke="#63b8ff" d="M205.85,-54.95C227.79,-44.7 254.06,-32.43 273.43,-23.38"/>
<polygon fill="#63b8ff" stroke="#63b8ff" points="275.03,-26.5 282.61,-19.09 272.07,-20.15 275.03,-26.5"/>
</a>
</g>
</g>
</g>
</svg>
