<?xml version="1.0" encoding="UTF-8" standalone="no"?>
<!DOCTYPE svg PUBLIC "-//W3C//DTD SVG 1.1//EN"
 "http://www.w3.org/Graphics/SVG/1.1/DTD/svg11.dtd">
<!-- Generated by graphviz version 2.43.0 (0)
 -->
<!-- Title: /home/runner/work/R&#45;Type/R&#45;Type/Server/include/network/INetworkManager.hpp Pages: 1 -->
<svg width="474pt" height="159pt"
 viewBox="0.00 0.00 473.70 159.00" xmlns="http://www.w3.org/2000/svg" xmlns:xlink="http://www.w3.org/1999/xlink">
<g id="graph0" class="graph" transform="scale(1 1) rotate(0) translate(4 155)">
<title>/home/runner/work/R&#45;Type/R&#45;Type/Server/include/network/INetworkManager.hpp</title>
<!-- Node1 -->
<g id="Node000001" class="node">
<title>Node1</title>
<g id="a_Node000001"><a xlink:title=" ">
<polygon fill="#999999" stroke="#666666" points="350.2,-151 142.2,-151 142.2,-110 350.2,-110 350.2,-151"/>
<text text-anchor="start" x="150.2" y="-139" font-family="Helvetica,sans-Serif" font-size="10.00">/home/runner/work/R</text>
<text text-anchor="start" x="150.2" y="-128" font-family="Helvetica,sans-Serif" font-size="10.00">&#45;Type/R&#45;Type/Server</text>
<text text-anchor="middle" x="246.2" y="-117" font-family="Helvetica,sans-Serif" font-size="10.00">/include/network/INetworkManager.hpp</text>
</a>
</g>
</g>
<!-- Node2 -->
<g id="Node000002" class="node">
<title>Node2</title>
<g id="a_Node000002"><a xlink:title=" ">
<polygon fill="#e0e0e0" stroke="#999999" points="120.2,-19 70.2,-19 70.2,0 120.2,0 120.2,-19"/>
<text text-anchor="middle" x="95.2" y="-7" font-family="Helvetica,sans-Serif" font-size="10.00">cstdint</text>
</a>
</g>
</g>
<!-- Node1&#45;&gt;Node2 -->
<g id="edge1_Node000001_Node000002" class="edge">
<title>Node1&#45;&gt;Node2</title>
<g id="a_edge1_Node000001_Node000002"><a xlink:title=" ">
<path fill="none" stroke="#63b8ff" d="M142.13,-118.42C85.17,-109.97 22.67,-95.96 5.2,-74 -14.18,-49.66 27.41,-30.61 60.31,-19.96"/>
<polygon fill="#63b8ff" stroke="#63b8ff" points="61.63,-23.21 70.16,-16.93 59.57,-16.52 61.63,-23.21"/>
</a>
</g>
</g>
<!-- Node3 -->
<g id="Node000003" class="node">
<title>Node3</title>
<g id="a_Node000003"><a xlink:title=" ">
<polygon fill="#e0e0e0" stroke="#999999" points="465.7,-74 400.7,-74 400.7,-55 465.7,-55 465.7,-74"/>
<text text-anchor="middle" x="433.2" y="-62" font-family="Helvetica,sans-Serif" font-size="10.00">functional</text>
</a>
</g>
</g>
<!-- Node1&#45;&gt;Node3 -->
<g id="edge2_Node000001_Node000003" class="edge">
<title>Node1&#45;&gt;Node3</title>
<g id="a_edge2_Node000001_Node000003"><a xlink:title=" ">
<path fill="none" stroke="#63b8ff" d="M303.32,-109.95C334.37,-99.32 371.76,-86.53 398.43,-77.4"/>
<polygon fill="#63b8ff" stroke="#63b8ff" points="399.76,-80.64 408.09,-74.09 397.5,-74.02 399.76,-80.64"/>
</a>
</g>
</g>
<!-- Node4 -->
<g id="Node000004" class="node">
<title>Node4</title>
<g id="a_Node000004"><a xlink:title=" ">
<polygon fill="#e0e0e0" stroke="#999999" points="385.2,-19 341.2,-19 341.2,0 385.2,0 385.2,-19"/>
<text text-anchor="middle" x="363.2" y="-7" font-family="Helvetica,sans-Serif" font-size="10.00">string</text>
</a>
</g>
</g>
<!-- Node1&#45;&gt;Node4 -->
<g id="edge3_Node000001_Node000004" class="edge">
<title>Node1&#45;&gt;Node4</title>
<g id="a_edge3_Node000001_Node000004"><a xlink:title=" ">
<path fill="none" stroke="#63b8ff" d="M306,-109.91C323.34,-101.45 340.69,-89.78 352.2,-74 361.57,-61.15 363.92,-42.98 364.16,-29.37"/>
<polygon fill="#63b8ff" stroke="#63b8ff" points="367.66,-29.16 363.98,-19.23 360.66,-29.29 367.66,-29.16"/>
</a>
</g>
</g>
<!-- Node5 -->
<g id="Node000005" class="node">
<title>Node5</title>
<g id="a_Node000005"><a xlink:title=" ">
<polygon fill="#e0e0e0" stroke="#999999" points="227.7,-19 180.7,-19 180.7,0 227.7,0 227.7,-19"/>
<text text-anchor="middle" x="204.2" y="-7" font-family="Helvetica,sans-Serif" font-size="10.00">vector</text>
</a>
</g>
</g>
<!-- Node1&#45;&gt;Node5 -->
<g id="edge4_Node000001_Node000005" class="edge">
<title>Node1&#45;&gt;Node5</title>
<g id="a_edge4_Node000001_Node000005"><a xlink:title=" ">
<path fill="none" stroke="#63b8ff" d="M237.5,-109.91C232.97,-99.37 227.5,-86.09 223.2,-74 217.89,-59.07 212.79,-41.84 209.22,-29.09"/>
<polygon fill="#63b8ff" stroke="#63b8ff" points="212.53,-27.93 206.5,-19.22 205.78,-29.79 212.53,-27.93"/>
</a>
</g>
</g>
<!-- Node6 -->
<g id="Node000006" class="node">
<title>Node6</title>
<g id="a_Node000006"><a xlink:href="include_2NetworkMessage_8hpp.html" target="_top" xlink:title=" ">
<polygon fill="white" stroke="#666666" points="175.7,-74 14.7,-74 14.7,-55 175.7,-55 175.7,-74"/>
<text text-anchor="middle" x="95.2" y="-62" font-family="Helvetica,sans-Serif" font-size="10.00">include/NetworkMessage.hpp</text>
</a>
</g>
</g>
<!-- Node1&#45;&gt;Node6 -->
<g id="edge5_Node000001_Node000006" class="edge">
<title>Node1&#45;&gt;Node6</title>
<g id="a_edge5_Node000001_Node000006"><a xlink:title=" ">
<path fill="none" stroke="#63b8ff" d="M200.07,-109.95C175.55,-99.56 146.13,-87.09 124.7,-78.01"/>
<polygon fill="#63b8ff" stroke="#63b8ff" points="126.04,-74.77 115.47,-74.09 123.31,-81.22 126.04,-74.77"/>
</a>
</g>
</g>
<!-- Node7 -->
<g id="Node000007" class="node">
<title>Node7</title>
<g id="a_Node000007"><a xlink:href="Action_8hpp.html" target="_top" xlink:title=" ">
<polygon fill="white" stroke="#666666" points="343.7,-74 232.7,-74 232.7,-55 343.7,-55 343.7,-74"/>
<text text-anchor="middle" x="288.2" y="-62" font-family="Helvetica,sans-Serif" font-size="10.00">network/Action.hpp</text>
</a>
</g>
</g>
<!-- Node1&#45;&gt;Node7 -->
<g id="edge8_Node000001_Node000007" class="edge">
<title>Node1&#45;&gt;Node7</title>
<g id="a_edge8_Node000001_Node000007"><a xlink:title=" ">
<path fill="none" stroke="#63b8ff" d="M259.02,-109.95C264.7,-101.3 271.33,-91.2 276.83,-82.82"/>
<polygon fill="#63b8ff" stroke="#63b8ff" points="279.89,-84.54 282.45,-74.26 274.03,-80.7 279.89,-84.54"/>
</a>
</g>
</g>
<!-- Node6&#45;&gt;Node2 -->
<g id="edge6_Node000006_Node000002" class="edge">
<title>Node6&#45;&gt;Node2</title>
<g id="a_edge6_Node000006_Node000002"><a xlink:title=" ">
<path fill="none" stroke="#63b8ff" d="M95.2,-54.75C95.2,-47.8 95.2,-37.85 95.2,-29.13"/>
<polygon fill="#63b8ff" stroke="#63b8ff" points="98.7,-29.09 95.2,-19.09 91.7,-29.09 98.7,-29.09"/>
</a>
</g>
</g>
<!-- Node6&#45;&gt;Node5 -->
<g id="edge7_Node000006_Node000005" class="edge">
<title>Node6&#45;&gt;Node5</title>
<g id="a_edge7_Node000006_Node000005"><a xlink:title=" ">
<path fill="none" stroke="#63b8ff" d="M112.71,-54.98C130.16,-46.5 157.2,-33.35 177.37,-23.54"/>
<polygon fill="#63b8ff" stroke="#63b8ff" points="178.9,-26.69 186.36,-19.17 175.84,-20.4 178.9,-26.69"/>
</a>
</g>
</g>
<!-- Node7&#45;&gt;Node2 -->
<g id="edge9_Node000007_Node000002" class="edge">
<title>Node7&#45;&gt;Node2</title>
<g id="a_edge9_Node000007_Node000002"><a xlink:title=" ">
<path fill="none" stroke="#63b8ff" d="M257.19,-54.98C222.42,-45.44 166.16,-29.99 129.94,-20.04"/>
<polygon fill="#63b8ff" stroke="#63b8ff" points="130.86,-16.66 120.29,-17.39 129,-23.41 130.86,-16.66"/>
</a>
</g>
</g>
<!-- Node7&#45;&gt;Node4 -->
<g id="edge10_Node000007_Node000004" class="edge">
<title>Node7&#45;&gt;Node4</title>
<g id="a_edge10_Node000007_Node000004"><a xlink:title=" ">
<path fill="none" stroke="#63b8ff" d="M300.25,-54.98C311.66,-46.92 329.03,-34.65 342.63,-25.03"/>
<polygon fill="#63b8ff" stroke="#63b8ff" points="344.78,-27.8 350.93,-19.17 340.74,-22.08 344.78,-27.8"/>
</a>
</g>
</g>
<!-- Node7&#45;&gt;Node5 -->
<g id="edge12_Node000007_Node000005" class="edge">
<title>Node7&#45;&gt;Node5</title>
<g id="a_edge12_Node000007_Node000005"><a xlink:title=" ">
<path fill="none" stroke="#63b8ff" d="M274.7,-54.98C261.79,-46.84 242.09,-34.41 226.79,-24.76"/>
<polygon fill="#63b8ff" stroke="#63b8ff" points="228.26,-21.55 217.94,-19.17 224.53,-27.47 228.26,-21.55"/>
</a>
</g>
</g>
<!-- Node8 -->
<g id="Node000008" class="node">
<title>Node8</title>
<g id="a_Node000008"><a xlink:title=" ">
<polygon fill="#e0e0e0" stroke="#999999" points="313.7,-19 262.7,-19 262.7,0 313.7,0 313.7,-19"/>
<text text-anchor="middle" x="288.2" y="-7" font-family="Helvetica,sans-Serif" font-size="10.00">variant</text>
</a>
</g>
</g>
<!-- Node7&#45;&gt;Node8 -->
<g id="edge11_Node000007_Node000008" class="edge">
<title>Node7&#45;&gt;Node8</title>
<g id="a_edge11_Node000007_Node000008"><a xlink:title=" ">
<path fill="none" stroke="#63b8ff" d="M288.2,-54.75C288.2,-47.8 288.2,-37.85 288.2,-29.13"/>
<polygon fill="#63b8ff" stroke="#63b8ff" points="291.7,-29.09 288.2,-19.09 284.7,-29.09 291.7,-29.09"/>
</a>
</g>
</g>
</g>
</svg>
