<?xml version="1.0" encoding="UTF-8" standalone="no"?>
<!DOCTYPE svg PUBLIC "-//W3C//DTD SVG 1.1//EN"
 "http://www.w3.org/Graphics/SVG/1.1/DTD/svg11.dtd">
<!-- Generated by graphviz version 2.43.0 (0)
 -->
<!-- Title: /home/runner/work/R&#45;Type/R&#45;Type/Server/include/network/INetworkManager.hpp Pages: 1 -->
<svg width="279pt" height="159pt"
 viewBox="0.00 0.00 278.96 159.00" xmlns="http://www.w3.org/2000/svg" xmlns:xlink="http://www.w3.org/1999/xlink">
<g id="graph0" class="graph" transform="scale(1 1) rotate(0) translate(4 155)">
<title>/home/runner/work/R&#45;Type/R&#45;Type/Server/include/network/INetworkManager.hpp</title>
<!-- Node1 -->
<g id="Node000001" class="node">
<title>Node1</title>
<g id="a_Node000001"><a xlink:title=" ">
<polygon fill="#999999" stroke="#666666" points="215.05,-151 7.05,-151 7.05,-110 215.05,-110 215.05,-151"/>
<text text-anchor="start" x="15.05" y="-139" font-family="Helvetica,sans-Serif" font-size="10.00">/home/runner/work/R</text>
<text text-anchor="start" x="15.05" y="-128" font-family="Helvetica,sans-Serif" font-size="10.00">&#45;Type/R&#45;Type/Server</text>
<text text-anchor="middle" x="111.05" y="-117" font-family="Helvetica,sans-Serif" font-size="10.00">/include/network/INetworkManager.hpp</text>
</a>
</g>
</g>
<!-- Node2 -->
<g id="Node000002" class="node">
<title>Node2</title>
<g id="a_Node000002"><a xlink:title=" ">
<polygon fill="#e0e0e0" stroke="#999999" points="127.05,-19 77.05,-19 77.05,0 127.05,0 127.05,-19"/>
<text text-anchor="middle" x="102.05" y="-7" font-family="Helvetica,sans-Serif" font-size="10.00">cstdint</text>
</a>
</g>
</g>
<!-- Node1&#45;&gt;Node2 -->
<g id="edge1_Node000001_Node000002" class="edge">
<title>Node1&#45;&gt;Node2</title>
<g id="a_edge1_Node000001_Node000002"><a xlink:title=" ">
<path fill="none" stroke="#63b8ff" d="M46.48,-109.92C29.78,-101.6 13.78,-90 4.05,-74 -13.3,-45.46 32.26,-27.36 66.95,-18.08"/>
<polygon fill="#63b8ff" stroke="#63b8ff" points="67.99,-21.42 76.83,-15.58 66.28,-14.63 67.99,-21.42"/>
</a>
</g>
</g>
<!-- Node3 -->
<g id="Node000003" class="node">
<title>Node3</title>
<g id="a_Node000003"><a xlink:title=" ">
<polygon fill="#e0e0e0" stroke="#999999" points="78.55,-74 13.55,-74 13.55,-55 78.55,-55 78.55,-74"/>
<text text-anchor="middle" x="46.05" y="-62" font-family="Helvetica,sans-Serif" font-size="10.00">functional</text>
</a>
</g>
</g>
<!-- Node1&#45;&gt;Node3 -->
<g id="edge2_Node000001_Node000003" class="edge">
<title>Node1&#45;&gt;Node3</title>
<g id="a_edge2_Node000001_Node000003"><a xlink:title=" ">
<path fill="none" stroke="#63b8ff" d="M91.19,-109.95C81.93,-100.83 71.05,-90.11 62.29,-81.49"/>
<polygon fill="#63b8ff" stroke="#63b8ff" points="64.53,-78.78 54.94,-74.26 59.61,-83.77 64.53,-78.78"/>
</a>
</g>
</g>
<!-- Node4 -->
<g id="Node000004" class="node">
<title>Node4</title>
<g id="a_Node000004"><a xlink:title=" ">
<polygon fill="#e0e0e0" stroke="#999999" points="254.55,-19 207.55,-19 207.55,0 254.55,0 254.55,-19"/>
<text text-anchor="middle" x="231.05" y="-7" font-family="Helvetica,sans-Serif" font-size="10.00">vector</text>
</a>
</g>
</g>
<!-- Node1&#45;&gt;Node4 -->
<g id="edge3_Node000001_Node000004" class="edge">
<title>Node1&#45;&gt;Node4</title>
<g id="a_edge3_Node000001_Node000004"><a xlink:title=" ">
<path fill="none" stroke="#63b8ff" d="M215.28,-112.25C235.59,-103.99 254.45,-91.85 267.05,-74 278.04,-58.42 263.67,-39.22 249.96,-26.03"/>
<polygon fill="#63b8ff" stroke="#63b8ff" points="251.94,-23.11 242.16,-19.04 247.27,-28.32 251.94,-23.11"/>
</a>
</g>
</g>
<!-- Node5 -->
<g id="Node000005" class="node">
<title>Node5</title>
<g id="a_Node000005"><a xlink:href="include_2NetworkMessage_8hpp.html" target="_top" xlink:title=" ">
<polygon fill="white" stroke="#666666" points="257.55,-74 96.55,-74 96.55,-55 257.55,-55 257.55,-74"/>
<text text-anchor="middle" x="177.05" y="-62" font-family="Helvetica,sans-Serif" font-size="10.00">include/NetworkMessage.hpp</text>
</a>
</g>
</g>
<!-- Node1&#45;&gt;Node5 -->
<g id="edge4_Node000001_Node000005" class="edge">
<title>Node1&#45;&gt;Node5</title>
<g id="a_edge4_Node000001_Node000005"><a xlink:title=" ">
<path fill="none" stroke="#63b8ff" d="M131.21,-109.95C140.71,-100.74 151.89,-89.9 160.83,-81.23"/>
<polygon fill="#63b8ff" stroke="#63b8ff" points="163.27,-83.73 168.01,-74.26 158.4,-78.71 163.27,-83.73"/>
</a>
</g>
</g>
<!-- Node5&#45;&gt;Node2 -->
<g id="edge5_Node000005_Node000002" class="edge">
<title>Node5&#45;&gt;Node2</title>
<g id="a_edge5_Node000005_Node000002"><a xlink:title=" ">
<path fill="none" stroke="#63b8ff" d="M165,-54.98C153.58,-46.92 136.22,-34.65 122.61,-25.03"/>
<polygon fill="#63b8ff" stroke="#63b8ff" points="124.5,-22.08 114.32,-19.17 120.46,-27.8 124.5,-22.08"/>
</a>
</g>
</g>
<!-- Node5&#45;&gt;Node4 -->
<g id="edge6_Node000005_Node000004" class="edge">
<title>Node5&#45;&gt;Node4</title>
<g id="a_edge6_Node000005_Node000004"><a xlink:title=" ">
<path fill="none" stroke="#63b8ff" d="M185.96,-54.75C193.83,-47.03 205.48,-35.6 214.97,-26.28"/>
<polygon fill="#63b8ff" stroke="#63b8ff" points="217.61,-28.59 222.3,-19.09 212.71,-23.6 217.61,-28.59"/>
</a>
</g>
</g>
</g>
</svg>
