<?xml version="1.0" encoding="UTF-8" standalone="no"?>
<!DOCTYPE svg PUBLIC "-//W3C//DTD SVG 1.1//EN"
 "http://www.w3.org/Graphics/SVG/1.1/DTD/svg11.dtd">
<!-- Generated by graphviz version 2.43.0 (0)
 -->
<!-- Title: Graphical Class Hierarchy Pages: 1 -->
<svg width="189pt" height="175pt"
 viewBox="0.00 0.00 189.00 175.00" xmlns="http://www.w3.org/2000/svg" xmlns:xlink="http://www.w3.org/1999/xlink">
<g id="graph0" class="graph" transform="scale(1 1) rotate(0) translate(4 171)">
<title>Graphical Class Hierarchy</title>
<!-- Node0 -->
<g id="Node000000" class="node">
<title>Node0</title>
<g id="a_Node000000"><a xlink:href="classUIElement.html" target="_top" xlink:title=" ">
<polygon fill="white" stroke="#666666" points="68,-93 0,-93 0,-74 68,-74 68,-93"/>
<text text-anchor="middle" x="34" y="-81" font-family="Helvetica,sans-Serif" font-size="10.00">UIElement</text>
</a>
</g>
</g>
<!-- Node1 -->
<g id="Node000001" class="node">
<title>Node1</title>
<g id="a_Node000001"><a xlink:href="classUIButton.html" target="_top" xlink:title=" ">
<polygon fill="white" stroke="#666666" points="172,-167 113,-167 113,-148 172,-148 172,-167"/>
<text text-anchor="middle" x="142.5" y="-155" font-family="Helvetica,sans-Serif" font-size="10.00">UIButton</text>
</a>
</g>
</g>
<!-- Node0&#45;&gt;Node1 -->
<g id="edge9_Node000000_Node000001" class="edge">
<title>Node0&#45;&gt;Node1</title>
<g id="a_edge9_Node000000_Node000001"><a xlink:title=" ">
<path fill="none" stroke="#63b8ff" d="M52.73,-99.84C66.17,-111.73 85.44,-127.74 104,-139.5 108.76,-142.51 114.1,-145.36 119.22,-147.87"/>
<polygon fill="#63b8ff" stroke="#63b8ff" points="54.95,-97.13 45.17,-93.04 50.27,-102.33 54.95,-97.13"/>
</a>
</g>
</g>
<!-- Node2 -->
<g id="Node000002" class="node">
<title>Node2</title>
<g id="a_Node000002"><a xlink:href="classUIImage.html" target="_top" xlink:title=" ">
<polygon fill="white" stroke="#666666" points="171.5,-130 113.5,-130 113.5,-111 171.5,-111 171.5,-130"/>
<text text-anchor="middle" x="142.5" y="-118" font-family="Helvetica,sans-Serif" font-size="10.00">UIImage</text>
</a>
</g>
</g>
<!-- Node0&#45;&gt;Node2 -->
<g id="edge10_Node000000_Node000002" class="edge">
<title>Node0&#45;&gt;Node2</title>
<g id="a_edge10_Node000000_Node000002"><a xlink:title=" ">
<path fill="none" stroke="#63b8ff" d="M72.07,-96.38C85.78,-101.14 101.06,-106.45 113.8,-110.88"/>
<polygon fill="#63b8ff" stroke="#63b8ff" points="73.02,-93 62.43,-93.03 70.72,-99.62 73.02,-93"/>
</a>
</g>
</g>
<!-- Node3 -->
<g id="Node000003" class="node">
<title>Node3</title>
<g id="a_Node000003"><a xlink:href="classUISolidColor.html" target="_top" xlink:title=" ">
<polygon fill="white" stroke="#666666" points="181,-93 104,-93 104,-74 181,-74 181,-93"/>
<text text-anchor="middle" x="142.5" y="-81" font-family="Helvetica,sans-Serif" font-size="10.00">UISolidColor</text>
</a>
</g>
</g>
<!-- Node0&#45;&gt;Node3 -->
<g id="edge11_Node000000_Node000003" class="edge">
<title>Node0&#45;&gt;Node3</title>
<g id="a_edge11_Node000000_Node000003"><a xlink:title=" ">
<path fill="none" stroke="#63b8ff" d="M78.26,-83.5C86.77,-83.5 95.64,-83.5 103.95,-83.5"/>
<polygon fill="#63b8ff" stroke="#63b8ff" points="78.11,-80 68.11,-83.5 78.11,-87 78.11,-80"/>
</a>
</g>
</g>
<!-- Node4 -->
<g id="Node000004" class="node">
<title>Node4</title>
<g id="a_Node000004"><a xlink:href="classUIText.html" target="_top" xlink:title=" ">
<polygon fill="white" stroke="#666666" points="166,-56 119,-56 119,-37 166,-37 166,-56"/>
<text text-anchor="middle" x="142.5" y="-44" font-family="Helvetica,sans-Serif" font-size="10.00">UIText</text>
</a>
</g>
</g>
<!-- Node0&#45;&gt;Node4 -->
<g id="edge12_Node000000_Node000004" class="edge">
<title>Node0&#45;&gt;Node4</title>
<g id="a_edge12_Node000000_Node000004"><a xlink:title=" ">
<path fill="none" stroke="#63b8ff" d="M72.27,-70.55C87.79,-65.16 105.31,-59.07 118.84,-54.37"/>
<polygon fill="#63b8ff" stroke="#63b8ff" points="70.72,-67.38 62.43,-73.97 73.02,-74 70.72,-67.38"/>
</a>
</g>
</g>
<!-- Node5 -->
<g id="Node000005" class="node">
<title>Node5</title>
<g id="a_Node000005"><a xlink:href="classUITextInput.html" target="_top" xlink:title=" ">
<polygon fill="white" stroke="#666666" points="178.5,-19 106.5,-19 106.5,0 178.5,0 178.5,-19"/>
<text text-anchor="middle" x="142.5" y="-7" font-family="Helvetica,sans-Serif" font-size="10.00">UITextInput</text>
</a>
</g>
</g>
<!-- Node0&#45;&gt;Node5 -->
<g id="edge13_Node000000_Node000005" class="edge">
<title>Node0&#45;&gt;Node5</title>
<g id="a_edge13_Node000000_Node000005"><a xlink:title=" ">
<path fill="none" stroke="#63b8ff" d="M53.32,-67.19C66.8,-55.62 85.85,-40.16 104,-28.5 109.28,-25.11 115.25,-21.85 120.84,-19.02"/>
<polygon fill="#63b8ff" stroke="#63b8ff" points="50.96,-64.61 45.71,-73.81 55.55,-69.89 50.96,-64.61"/>
</a>
</g>
</g>
</g>
</svg>
