<?xml version="1.0" encoding="UTF-8" standalone="no"?>
<!DOCTYPE svg PUBLIC "-//W3C//DTD SVG 1.1//EN"
 "http://www.w3.org/Graphics/SVG/1.1/DTD/svg11.dtd">
<!-- Generated by graphviz version 2.43.0 (0)
 -->
<!-- Title: Graphical Class Hierarchy Pages: 1 -->
<svg width="188pt" height="212pt"
 viewBox="0.00 0.00 188.00 212.00" xmlns="http://www.w3.org/2000/svg" xmlns:xlink="http://www.w3.org/1999/xlink">
<g id="graph0" class="graph" transform="scale(1 1) rotate(0) translate(4 208)">
<title>Graphical Class Hierarchy</title>
<!-- Node0 -->
<g id="Node000000" class="node">
<title>Node0</title>
<g id="a_Node000000"><a xlink:href="classScene.html" target="_top" xlink:title=" ">
<polygon fill="white" stroke="#666666" points="46,-111 0,-111 0,-92 46,-92 46,-111"/>
<text text-anchor="middle" x="23" y="-99" font-family="Helvetica,sans-Serif" font-size="10.00">Scene</text>
</a>
</g>
</g>
<!-- Node1 -->
<g id="Node000001" class="node">
<title>Node1</title>
<g id="a_Node000001"><a xlink:href="classGameOverScene.html" target="_top" xlink:title=" ">
<polygon fill="white" stroke="#666666" points="180,-204 82,-204 82,-185 180,-185 180,-204"/>
<text text-anchor="middle" x="131" y="-192" font-family="Helvetica,sans-Serif" font-size="10.00">GameOverScene</text>
</a>
</g>
</g>
<!-- Node0&#45;&gt;Node1 -->
<g id="edge2_Node000000_Node000001" class="edge">
<title>Node0&#45;&gt;Node1</title>
<g id="a_edge2_Node000000_Node000001"><a xlink:title=" ">
<path fill="none" stroke="#63b8ff" d="M34.28,-120.08C44.43,-136.9 61.41,-161.31 82,-176.5 86.51,-179.83 91.71,-182.61 96.98,-184.91"/>
<polygon fill="#63b8ff" stroke="#63b8ff" points="37.16,-118.07 29.11,-111.18 31.1,-121.58 37.16,-118.07"/>
</a>
</g>
</g>
<!-- Node2 -->
<g id="Node000002" class="node">
<title>Node2</title>
<g id="a_Node000002"><a xlink:href="classJoinGame.html" target="_top" xlink:title=" ">
<polygon fill="white" stroke="#666666" points="163,-167 99,-167 99,-148 163,-148 163,-167"/>
<text text-anchor="middle" x="131" y="-155" font-family="Helvetica,sans-Serif" font-size="10.00">JoinGame</text>
</a>
</g>
</g>
<!-- Node0&#45;&gt;Node2 -->
<g id="edge3_Node000000_Node000002" class="edge">
<title>Node0&#45;&gt;Node2</title>
<g id="a_edge3_Node000000_Node000002"><a xlink:title=" ">
<path fill="none" stroke="#63b8ff" d="M45.14,-116.98C55.85,-124.39 69.25,-133.03 82,-139.5 88.11,-142.6 94.89,-145.46 101.38,-147.95"/>
<polygon fill="#63b8ff" stroke="#63b8ff" points="47.05,-114.04 36.86,-111.12 43,-119.75 47.05,-114.04"/>
</a>
</g>
</g>
<!-- Node3 -->
<g id="Node000003" class="node">
<title>Node3</title>
<g id="a_Node000003"><a xlink:href="classMainMenu.html" target="_top" xlink:title=" ">
<polygon fill="white" stroke="#666666" points="165,-130 97,-130 97,-111 165,-111 165,-130"/>
<text text-anchor="middle" x="131" y="-118" font-family="Helvetica,sans-Serif" font-size="10.00">MainMenu</text>
</a>
</g>
</g>
<!-- Node0&#45;&gt;Node3 -->
<g id="edge4_Node000000_Node000003" class="edge">
<title>Node0&#45;&gt;Node3</title>
<g id="a_edge4_Node000000_Node000003"><a xlink:title=" ">
<path fill="none" stroke="#63b8ff" d="M56.09,-107.25C69.01,-109.57 83.91,-112.24 96.93,-114.57"/>
<polygon fill="#63b8ff" stroke="#63b8ff" points="56.68,-103.8 46.22,-105.48 55.45,-110.69 56.68,-103.8"/>
</a>
</g>
</g>
<!-- Node4 -->
<g id="Node000004" class="node">
<title>Node4</title>
<g id="a_Node000004"><a xlink:href="classMyGameScene.html" target="_top" xlink:title=" ">
<polygon fill="white" stroke="#666666" points="176,-93 86,-93 86,-74 176,-74 176,-93"/>
<text text-anchor="middle" x="131" y="-81" font-family="Helvetica,sans-Serif" font-size="10.00">MyGameScene</text>
</a>
</g>
</g>
<!-- Node0&#45;&gt;Node4 -->
<g id="edge5_Node000000_Node000004" class="edge">
<title>Node0&#45;&gt;Node4</title>
<g id="a_edge5_Node000000_Node000004"><a xlink:title=" ">
<path fill="none" stroke="#63b8ff" d="M56.27,-96.02C65.63,-94.43 76.01,-92.67 85.96,-90.98"/>
<polygon fill="#63b8ff" stroke="#63b8ff" points="55.49,-92.6 46.22,-97.73 56.67,-99.5 55.49,-92.6"/>
</a>
</g>
</g>
<!-- Node5 -->
<g id="Node000005" class="node">
<title>Node5</title>
<g id="a_Node000005"><a xlink:href="classOptionsScene.html" target="_top" xlink:title=" ">
<polygon fill="white" stroke="#666666" points="172.5,-56 89.5,-56 89.5,-37 172.5,-37 172.5,-56"/>
<text text-anchor="middle" x="131" y="-44" font-family="Helvetica,sans-Serif" font-size="10.00">OptionsScene</text>
</a>
</g>
</g>
<!-- Node0&#45;&gt;Node5 -->
<g id="edge6_Node000000_Node000005" class="edge">
<title>Node0&#45;&gt;Node5</title>
<g id="a_edge6_Node000000_Node000005"><a xlink:title=" ">
<path fill="none" stroke="#63b8ff" d="M46.47,-86.25C57,-79.44 69.88,-71.6 82,-65.5 88.81,-62.08 96.38,-58.83 103.47,-56.02"/>
<polygon fill="#63b8ff" stroke="#63b8ff" points="44.32,-83.47 37.89,-91.89 48.17,-89.32 44.32,-83.47"/>
</a>
</g>
</g>
<!-- Node6 -->
<g id="Node000006" class="node">
<title>Node6</title>
<g id="a_Node000006"><a xlink:href="classWaitLobby.html" target="_top" xlink:title=" ">
<polygon fill="white" stroke="#666666" points="165,-19 97,-19 97,0 165,0 165,-19"/>
<text text-anchor="middle" x="131" y="-7" font-family="Helvetica,sans-Serif" font-size="10.00">WaitLobby</text>
</a>
</g>
</g>
<!-- Node0&#45;&gt;Node6 -->
<g id="edge7_Node000000_Node000006" class="edge">
<title>Node0&#45;&gt;Node6</title>
<g id="a_edge7_Node000000_Node000006"><a xlink:title=" ">
<path fill="none" stroke="#63b8ff" d="M34.79,-82.98C45.1,-66.69 62,-43.33 82,-28.5 87.04,-24.76 92.91,-21.65 98.78,-19.1"/>
<polygon fill="#63b8ff" stroke="#63b8ff" points="31.73,-81.28 29.51,-91.64 37.7,-84.92 31.73,-81.28"/>
</a>
</g>
</g>
</g>
</svg>
