<?xml version="1.0" encoding="UTF-8" standalone="no"?>
<!DOCTYPE svg PUBLIC "-//W3C//DTD SVG 1.1//EN"
 "http://www.w3.org/Graphics/SVG/1.1/DTD/svg11.dtd">
<!-- Generated by graphviz version 2.43.0 (0)
 -->
<!-- Title: Graphical Class Hierarchy Pages: 1 -->
<svg width="188pt" height="508pt"
 viewBox="0.00 0.00 188.00 508.00" xmlns="http://www.w3.org/2000/svg" xmlns:xlink="http://www.w3.org/1999/xlink">
<g id="graph0" class="graph" transform="scale(1 1) rotate(0) translate(4 504)">
<title>Graphical Class Hierarchy</title>
<!-- Node0 -->
<g id="Node000000" class="node">
<title>Node0</title>
<g id="a_Node000000"><a xlink:title=" ">
<polygon fill="#e0e0e0" stroke="#999999" points="46,-259 0,-259 0,-240 46,-240 46,-259"/>
<text text-anchor="middle" x="23" y="-247" font-family="Helvetica,sans-Serif" font-size="10.00">Scene</text>
</a>
</g>
</g>
<!-- Node1 -->
<g id="Node000001" class="node">
<title>Node1</title>
<g id="a_Node000001"><a xlink:href="classCreateLobby.html" target="_top" xlink:title=" ">
<polygon fill="white" stroke="#666666" points="170,-500 92,-500 92,-481 170,-481 170,-500"/>
<text text-anchor="middle" x="131" y="-488" font-family="Helvetica,sans-Serif" font-size="10.00">CreateLobby</text>
</a>
</g>
</g>
<!-- Node0&#45;&gt;Node1 -->
<g id="edge3_Node000000_Node000001" class="edge">
<title>Node0&#45;&gt;Node1</title>
<g id="a_edge3_Node000000_Node000001"><a xlink:title=" ">
<path fill="none" stroke="#63b8ff" d="M23.42,-269.68C23.29,-312.58 29.03,-413.69 82,-472.5 85.1,-475.94 88.92,-478.72 93.04,-480.98"/>
<polygon fill="#63b8ff" stroke="#63b8ff" points="26.92,-269.48 23.57,-259.43 19.92,-269.38 26.92,-269.48"/>
</a>
</g>
</g>
<!-- Node2 -->
<g id="Node000002" class="node">
<title>Node2</title>
<g id="a_Node000002"><a xlink:href="classGameOverScene.html" target="_top" xlink:title=" ">
<polygon fill="white" stroke="#666666" points="180,-463 82,-463 82,-444 180,-444 180,-463"/>
<text text-anchor="middle" x="131" y="-451" font-family="Helvetica,sans-Serif" font-size="10.00">GameOverScene</text>
</a>
</g>
</g>
<!-- Node0&#45;&gt;Node2 -->
<g id="edge4_Node000000_Node000002" class="edge">
<title>Node0&#45;&gt;Node2</title>
<g id="a_edge4_Node000000_Node000002"><a xlink:title=" ">
<path fill="none" stroke="#63b8ff" d="M24.66,-269.11C26.96,-306.4 37.15,-388.05 82,-435.5 85.18,-438.86 89.05,-441.6 93.19,-443.83"/>
<polygon fill="#63b8ff" stroke="#63b8ff" points="28.15,-268.87 24.17,-259.05 21.16,-269.21 28.15,-268.87"/>
</a>
</g>
</g>
<!-- Node3 -->
<g id="Node000003" class="node">
<title>Node3</title>
<g id="a_Node000003"><a xlink:href="classJoinGame.html" target="_top" xlink:title=" ">
<polygon fill="white" stroke="#666666" points="163,-426 99,-426 99,-407 163,-407 163,-426"/>
<text text-anchor="middle" x="131" y="-414" font-family="Helvetica,sans-Serif" font-size="10.00">JoinGame</text>
</a>
</g>
</g>
<!-- Node0&#45;&gt;Node3 -->
<g id="edge5_Node000000_Node000003" class="edge">
<title>Node0&#45;&gt;Node3</title>
<g id="a_edge5_Node000000_Node000003"><a xlink:title=" ">
<path fill="none" stroke="#63b8ff" d="M26.53,-269.53C31.54,-301.1 45.59,-362.54 82,-398.5 86.69,-403.13 92.67,-406.58 98.82,-409.16"/>
<polygon fill="#63b8ff" stroke="#63b8ff" points="29.95,-268.75 25.07,-259.35 23.03,-269.74 29.95,-268.75"/>
</a>
</g>
</g>
<!-- Node4 -->
<g id="Node000004" class="node">
<title>Node4</title>
<g id="a_Node000004"><a xlink:href="classLevel.html" target="_top" xlink:title=" ">
<polygon fill="white" stroke="#666666" points="152.5,-389 109.5,-389 109.5,-370 152.5,-370 152.5,-389"/>
<text text-anchor="middle" x="131" y="-377" font-family="Helvetica,sans-Serif" font-size="10.00">Level</text>
</a>
</g>
</g>
<!-- Node0&#45;&gt;Node4 -->
<g id="edge6_Node000000_Node000004" class="edge">
<title>Node0&#45;&gt;Node4</title>
<g id="a_edge6_Node000000_Node000004"><a xlink:title=" ">
<path fill="none" stroke="#63b8ff" d="M29.24,-268.73C36.91,-293.45 53.47,-336.18 82,-361.5 89.59,-368.23 99.94,-372.54 109.08,-375.25"/>
<polygon fill="#63b8ff" stroke="#63b8ff" points="32.58,-267.68 26.41,-259.06 25.86,-269.64 32.58,-267.68"/>
</a>
</g>
</g>
<!-- Node5 -->
<g id="Node000005" class="node">
<title>Node5</title>
<g id="a_Node000005"><a xlink:href="classLobbyInfoPlayer.html" target="_top" xlink:title=" ">
<polygon fill="white" stroke="#666666" points="178.5,-352 83.5,-352 83.5,-333 178.5,-333 178.5,-352"/>
<text text-anchor="middle" x="131" y="-340" font-family="Helvetica,sans-Serif" font-size="10.00">LobbyInfoPlayer</text>
</a>
</g>
</g>
<!-- Node0&#45;&gt;Node5 -->
<g id="edge7_Node000000_Node000005" class="edge">
<title>Node0&#45;&gt;Node5</title>
<g id="a_edge7_Node000000_Node000005"><a xlink:title=" ">
<path fill="none" stroke="#63b8ff" d="M34.28,-268.08C44.43,-284.9 61.41,-309.31 82,-324.5 86.51,-327.83 91.71,-330.61 96.98,-332.91"/>
<polygon fill="#63b8ff" stroke="#63b8ff" points="37.16,-266.07 29.11,-259.18 31.1,-269.58 37.16,-266.07"/>
</a>
</g>
</g>
<!-- Node6 -->
<g id="Node000006" class="node">
<title>Node6</title>
<g id="a_Node000006"><a xlink:href="classLobbyJoin.html" target="_top" xlink:title=" ">
<polygon fill="white" stroke="#666666" points="163,-315 99,-315 99,-296 163,-296 163,-315"/>
<text text-anchor="middle" x="131" y="-303" font-family="Helvetica,sans-Serif" font-size="10.00">LobbyJoin</text>
</a>
</g>
</g>
<!-- Node0&#45;&gt;Node6 -->
<g id="edge8_Node000000_Node000006" class="edge">
<title>Node0&#45;&gt;Node6</title>
<g id="a_edge8_Node000000_Node000006"><a xlink:title=" ">
<path fill="none" stroke="#63b8ff" d="M45.14,-264.98C55.85,-272.39 69.25,-281.03 82,-287.5 88.11,-290.6 94.89,-293.46 101.38,-295.95"/>
<polygon fill="#63b8ff" stroke="#63b8ff" points="47.05,-262.04 36.86,-259.12 43,-267.75 47.05,-262.04"/>
</a>
</g>
</g>
<!-- Node7 -->
<g id="Node000007" class="node">
<title>Node7</title>
<g id="a_Node000007"><a xlink:href="classLobbyMenu.html" target="_top" xlink:title=" ">
<polygon fill="white" stroke="#666666" points="167.5,-278 94.5,-278 94.5,-259 167.5,-259 167.5,-278"/>
<text text-anchor="middle" x="131" y="-266" font-family="Helvetica,sans-Serif" font-size="10.00">LobbyMenu</text>
</a>
</g>
</g>
<!-- Node0&#45;&gt;Node7 -->
<g id="edge9_Node000000_Node000007" class="edge">
<title>Node0&#45;&gt;Node7</title>
<g id="a_edge9_Node000000_Node000007"><a xlink:title=" ">
<path fill="none" stroke="#63b8ff" d="M56.3,-255.29C68.37,-257.45 82.12,-259.92 94.46,-262.13"/>
<polygon fill="#63b8ff" stroke="#63b8ff" points="56.68,-251.8 46.22,-253.48 55.45,-258.69 56.68,-251.8"/>
</a>
</g>
</g>
<!-- Node8 -->
<g id="Node000008" class="node">
<title>Node8</title>
<g id="a_Node000008"><a xlink:href="classLobbyPassword.html" target="_top" xlink:title=" ">
<polygon fill="white" stroke="#666666" points="177,-241 85,-241 85,-222 177,-222 177,-241"/>
<text text-anchor="middle" x="131" y="-229" font-family="Helvetica,sans-Serif" font-size="10.00">LobbyPassword</text>
</a>
</g>
</g>
<!-- Node0&#45;&gt;Node8 -->
<g id="edge10_Node000000_Node000008" class="edge">
<title>Node0&#45;&gt;Node8</title>
<g id="a_edge10_Node000000_Node000008"><a xlink:title=" ">
<path fill="none" stroke="#63b8ff" d="M56.23,-244.03C65.19,-242.5 75.09,-240.82 84.66,-239.2"/>
<polygon fill="#63b8ff" stroke="#63b8ff" points="55.49,-240.6 46.22,-245.73 56.67,-247.5 55.49,-240.6"/>
</a>
</g>
</g>
<!-- Node9 -->
<g id="Node000009" class="node">
<title>Node9</title>
<g id="a_Node000009"><a xlink:href="classMainMenu.html" target="_top" xlink:title=" ">
<polygon fill="white" stroke="#666666" points="165,-204 97,-204 97,-185 165,-185 165,-204"/>
<text text-anchor="middle" x="131" y="-192" font-family="Helvetica,sans-Serif" font-size="10.00">MainMenu</text>
</a>
</g>
</g>
<!-- Node0&#45;&gt;Node9 -->
<g id="edge11_Node000000_Node000009" class="edge">
<title>Node0&#45;&gt;Node9</title>
<g id="a_edge11_Node000000_Node000009"><a xlink:title=" ">
<path fill="none" stroke="#63b8ff" d="M46.47,-234.25C57,-227.44 69.88,-219.6 82,-213.5 88.81,-210.08 96.38,-206.83 103.47,-204.02"/>
<polygon fill="#63b8ff" stroke="#63b8ff" points="44.32,-231.47 37.89,-239.89 48.17,-237.32 44.32,-231.47"/>
</a>
</g>
</g>
<!-- Node10 -->
<g id="Node000010" class="node">
<title>Node10</title>
<g id="a_Node000010"><a xlink:href="classMyGameScene.html" target="_top" xlink:title=" ">
<polygon fill="white" stroke="#666666" points="176,-167 86,-167 86,-148 176,-148 176,-167"/>
<text text-anchor="middle" x="131" y="-155" font-family="Helvetica,sans-Serif" font-size="10.00">MyGameScene</text>
</a>
</g>
</g>
<!-- Node0&#45;&gt;Node10 -->
<g id="edge12_Node000000_Node000010" class="edge">
<title>Node0&#45;&gt;Node10</title>
<g id="a_edge12_Node000000_Node000010"><a xlink:title=" ">
<path fill="none" stroke="#63b8ff" d="M34.79,-230.98C45.1,-214.69 62,-191.33 82,-176.5 87.04,-172.76 92.91,-169.65 98.78,-167.1"/>
<polygon fill="#63b8ff" stroke="#63b8ff" points="31.73,-229.28 29.51,-239.64 37.7,-232.92 31.73,-229.28"/>
</a>
</g>
</g>
<!-- Node11 -->
<g id="Node000011" class="node">
<title>Node11</title>
<g id="a_Node000011"><a xlink:href="classOptionsScene.html" target="_top" xlink:title=" ">
<polygon fill="white" stroke="#666666" points="172.5,-130 89.5,-130 89.5,-111 172.5,-111 172.5,-130"/>
<text text-anchor="middle" x="131" y="-118" font-family="Helvetica,sans-Serif" font-size="10.00">OptionsScene</text>
</a>
</g>
</g>
<!-- Node0&#45;&gt;Node11 -->
<g id="edge13_Node000000_Node000011" class="edge">
<title>Node0&#45;&gt;Node11</title>
<g id="a_edge13_Node000000_Node000011"><a xlink:title=" ">
<path fill="none" stroke="#63b8ff" d="M29.63,-229.99C37.57,-205.7 54.27,-164.38 82,-139.5 86.27,-135.67 91.4,-132.57 96.7,-130.07"/>
<polygon fill="#63b8ff" stroke="#63b8ff" points="26.2,-229.25 26.59,-239.84 32.88,-231.31 26.2,-229.25"/>
</a>
</g>
</g>
<!-- Node12 -->
<g id="Node000012" class="node">
<title>Node12</title>
<g id="a_Node000012"><a xlink:href="classRtypeScene.html" target="_top" xlink:title=" ">
<polygon fill="white" stroke="#666666" points="168,-93 94,-93 94,-74 168,-74 168,-93"/>
<text text-anchor="middle" x="131" y="-81" font-family="Helvetica,sans-Serif" font-size="10.00">RtypeScene</text>
</a>
</g>
</g>
<!-- Node0&#45;&gt;Node12 -->
<g id="edge14_Node000000_Node000012" class="edge">
<title>Node0&#45;&gt;Node12</title>
<g id="a_edge14_Node000000_Node000012"><a xlink:title=" ">
<path fill="none" stroke="#63b8ff" d="M26.69,-229.81C31.91,-198.77 46.25,-138.29 82,-102.5 85.8,-98.7 90.46,-95.63 95.36,-93.17"/>
<polygon fill="#63b8ff" stroke="#63b8ff" points="23.21,-229.41 25.15,-239.82 30.13,-230.47 23.21,-229.41"/>
</a>
</g>
</g>
<!-- Node13 -->
<g id="Node000013" class="node">
<title>Node13</title>
<g id="a_Node000013"><a xlink:href="classVictoryScene.html" target="_top" xlink:title=" ">
<polygon fill="white" stroke="#666666" points="171,-56 91,-56 91,-37 171,-37 171,-56"/>
<text text-anchor="middle" x="131" y="-44" font-family="Helvetica,sans-Serif" font-size="10.00">VictoryScene</text>
</a>
</g>
</g>
<!-- Node0&#45;&gt;Node13 -->
<g id="edge15_Node000000_Node000013" class="edge">
<title>Node0&#45;&gt;Node13</title>
<g id="a_edge15_Node000000_Node000013"><a xlink:title=" ">
<path fill="none" stroke="#63b8ff" d="M24.84,-229.65C27.45,-192.64 38.15,-112.6 82,-65.5 85.54,-61.7 89.94,-58.64 94.63,-56.19"/>
<polygon fill="#63b8ff" stroke="#63b8ff" points="21.35,-229.48 24.26,-239.67 28.33,-229.89 21.35,-229.48"/>
</a>
</g>
</g>
<!-- Node14 -->
<g id="Node000014" class="node">
<title>Node14</title>
<g id="a_Node000014"><a xlink:href="classWaitLobby.html" target="_top" xlink:title=" ">
<polygon fill="white" stroke="#666666" points="165,-19 97,-19 97,0 165,0 165,-19"/>
<text text-anchor="middle" x="131" y="-7" font-family="Helvetica,sans-Serif" font-size="10.00">WaitLobby</text>
</a>
</g>
</g>
<!-- Node0&#45;&gt;Node14 -->
<g id="edge16_Node000000_Node000014" class="edge">
<title>Node0&#45;&gt;Node14</title>
<g id="a_edge16_Node000000_Node000014"><a xlink:title=" ">
<path fill="none" stroke="#63b8ff" d="M23.56,-229.57C23.71,-187.19 29.94,-87.23 82,-28.5 86.04,-23.94 91.32,-20.46 96.9,-17.81"/>
<polygon fill="#63b8ff" stroke="#63b8ff" points="20.06,-229.72 23.64,-239.7 27.06,-229.67 20.06,-229.72"/>
</a>
</g>
</g>
</g>
</svg>
