<?xml version="1.0" encoding="UTF-8" standalone="no"?>
<!DOCTYPE svg PUBLIC "-//W3C//DTD SVG 1.1//EN"
 "http://www.w3.org/Graphics/SVG/1.1/DTD/svg11.dtd">
<!-- Generated by graphviz version 2.43.0 (0)
 -->
<!-- Title: Graphical Class Hierarchy Pages: 1 -->
<svg width="200pt" height="582pt"
 viewBox="0.00 0.00 200.00 582.00" xmlns="http://www.w3.org/2000/svg" xmlns:xlink="http://www.w3.org/1999/xlink">
<g id="graph0" class="graph" transform="scale(1 1) rotate(0) translate(4 578)">
<title>Graphical Class Hierarchy</title>
<!-- Node0 -->
<g id="Node000000" class="node">
<title>Node0</title>
<g id="a_Node000000"><a xlink:title=" ">
<polygon fill="#e0e0e0" stroke="#999999" points="46,-296 0,-296 0,-277 46,-277 46,-296"/>
<text text-anchor="middle" x="23" y="-284" font-family="Helvetica,sans-Serif" font-size="10.00">Scene</text>
</a>
</g>
</g>
<!-- Node1 -->
<g id="Node000001" class="node">
<title>Node1</title>
<g id="a_Node000001"><a xlink:href="classCreateLobby.html" target="_top" xlink:title=" ">
<polygon fill="white" stroke="#666666" points="176,-574 98,-574 98,-555 176,-555 176,-574"/>
<text text-anchor="middle" x="137" y="-562" font-family="Helvetica,sans-Serif" font-size="10.00">CreateLobby</text>
</a>
</g>
</g>
<!-- Node0&#45;&gt;Node1 -->
<g id="edge3_Node000000_Node000001" class="edge">
<title>Node0&#45;&gt;Node1</title>
<g id="a_edge3_Node000000_Node000001"><a xlink:title=" ">
<path fill="none" stroke="#63b8ff" d="M25.9,-306.21C31.51,-360.52 49.67,-510.68 82,-546.5 86.3,-551.27 91.9,-554.78 97.86,-557.35"/>
<polygon fill="#63b8ff" stroke="#63b8ff" points="29.37,-305.75 24.89,-296.15 22.41,-306.45 29.37,-305.75"/>
</a>
</g>
</g>
<!-- Node2 -->
<g id="Node000002" class="node">
<title>Node2</title>
<g id="a_Node000002"><a xlink:href="classGameOverScene.html" target="_top" xlink:title=" ">
<polygon fill="white" stroke="#666666" points="186,-537 88,-537 88,-518 186,-518 186,-537"/>
<text text-anchor="middle" x="137" y="-525" font-family="Helvetica,sans-Serif" font-size="10.00">GameOverScene</text>
</a>
</g>
</g>
<!-- Node0&#45;&gt;Node2 -->
<g id="edge4_Node000000_Node000002" class="edge">
<title>Node0&#45;&gt;Node2</title>
<g id="a_edge4_Node000000_Node000002"><a xlink:title=" ">
<path fill="none" stroke="#63b8ff" d="M23.26,-306.24C22.75,-349.08 27.7,-451.41 82,-509.5 85.17,-512.89 89,-515.65 93.13,-517.88"/>
<polygon fill="#63b8ff" stroke="#63b8ff" points="26.76,-306.11 23.5,-296.03 19.76,-305.95 26.76,-306.11"/>
</a>
</g>
</g>
<!-- Node3 -->
<g id="Node000003" class="node">
<title>Node3</title>
<g id="a_Node000003"><a xlink:href="classJoinGame.html" target="_top" xlink:title=" ">
<polygon fill="white" stroke="#666666" points="169,-500 105,-500 105,-481 169,-481 169,-500"/>
<text text-anchor="middle" x="137" y="-488" font-family="Helvetica,sans-Serif" font-size="10.00">JoinGame</text>
</a>
</g>
</g>
<!-- Node0&#45;&gt;Node3 -->
<g id="edge5_Node000000_Node000003" class="edge">
<title>Node0&#45;&gt;Node3</title>
<g id="a_edge5_Node000000_Node000003"><a xlink:title=" ">
<path fill="none" stroke="#63b8ff" d="M24.5,-306.26C26.53,-343.82 36.28,-425.88 82,-472.5 88.16,-478.78 96.56,-482.87 104.9,-485.53"/>
<polygon fill="#63b8ff" stroke="#63b8ff" points="27.99,-305.98 24.09,-296.13 21,-306.26 27.99,-305.98"/>
</a>
</g>
</g>
<!-- Node4 -->
<g id="Node000004" class="node">
<title>Node4</title>
<g id="a_Node000004"><a xlink:href="classLevel.html" target="_top" xlink:title=" ">
<polygon fill="white" stroke="#666666" points="158.5,-463 115.5,-463 115.5,-444 158.5,-444 158.5,-463"/>
<text text-anchor="middle" x="137" y="-451" font-family="Helvetica,sans-Serif" font-size="10.00">Level</text>
</a>
</g>
</g>
<!-- Node0&#45;&gt;Node4 -->
<g id="edge6_Node000000_Node000004" class="edge">
<title>Node0&#45;&gt;Node4</title>
<g id="a_edge6_Node000000_Node000004"><a xlink:title=" ">
<path fill="none" stroke="#63b8ff" d="M26.31,-306.23C31.04,-337.88 44.75,-400.05 82,-435.5 91.02,-444.08 104.24,-448.58 115.34,-450.93"/>
<polygon fill="#63b8ff" stroke="#63b8ff" points="29.74,-305.5 24.94,-296.05 22.8,-306.43 29.74,-305.5"/>
</a>
</g>
</g>
<!-- Node5 -->
<g id="Node000005" class="node">
<title>Node5</title>
<g id="a_Node000005"><a xlink:href="classLobbyInfoPlayer.html" target="_top" xlink:title=" ">
<polygon fill="white" stroke="#666666" points="184.5,-426 89.5,-426 89.5,-407 184.5,-407 184.5,-426"/>
<text text-anchor="middle" x="137" y="-414" font-family="Helvetica,sans-Serif" font-size="10.00">LobbyInfoPlayer</text>
</a>
</g>
</g>
<!-- Node0&#45;&gt;Node5 -->
<g id="edge7_Node000000_Node000005" class="edge">
<title>Node0&#45;&gt;Node5</title>
<g id="a_edge7_Node000000_Node000005"><a xlink:title=" ">
<path fill="none" stroke="#63b8ff" d="M29.1,-305.9C36.61,-330.79 53,-373.71 82,-398.5 85.98,-401.9 90.63,-404.67 95.49,-406.92"/>
<polygon fill="#63b8ff" stroke="#63b8ff" points="32.43,-304.81 26.33,-296.15 25.69,-306.72 32.43,-304.81"/>
</a>
</g>
</g>
<!-- Node6 -->
<g id="Node000006" class="node">
<title>Node6</title>
<g id="a_Node000006"><a xlink:href="classLobbyJoin.html" target="_top" xlink:title=" ">
<polygon fill="white" stroke="#666666" points="169,-389 105,-389 105,-370 169,-370 169,-389"/>
<text text-anchor="middle" x="137" y="-377" font-family="Helvetica,sans-Serif" font-size="10.00">LobbyJoin</text>
</a>
</g>
</g>
<!-- Node0&#45;&gt;Node6 -->
<g id="edge8_Node000000_Node000006" class="edge">
<title>Node0&#45;&gt;Node6</title>
<g id="a_edge8_Node000000_Node000006"><a xlink:title=" ">
<path fill="none" stroke="#63b8ff" d="M33.99,-304.98C44.03,-321.94 61.02,-346.61 82,-361.5 88.77,-366.3 96.91,-369.89 104.79,-372.55"/>
<polygon fill="#63b8ff" stroke="#63b8ff" points="36.88,-302.99 28.9,-296.03 30.8,-306.45 36.88,-302.99"/>
</a>
</g>
</g>
<!-- Node7 -->
<g id="Node000007" class="node">
<title>Node7</title>
<g id="a_Node000007"><a xlink:href="classLobbyMenu.html" target="_top" xlink:title=" ">
<polygon fill="white" stroke="#666666" points="173.5,-352 100.5,-352 100.5,-333 173.5,-333 173.5,-352"/>
<text text-anchor="middle" x="137" y="-340" font-family="Helvetica,sans-Serif" font-size="10.00">LobbyMenu</text>
</a>
</g>
</g>
<!-- Node0&#45;&gt;Node7 -->
<g id="edge9_Node000000_Node000007" class="edge">
<title>Node0&#45;&gt;Node7</title>
<g id="a_edge9_Node000000_Node000007"><a xlink:title=" ">
<path fill="none" stroke="#63b8ff" d="M45.04,-302.18C55.72,-309.64 69.13,-318.27 82,-324.5 88.58,-327.69 95.87,-330.53 102.91,-332.97"/>
<polygon fill="#63b8ff" stroke="#63b8ff" points="46.95,-299.25 36.79,-296.27 42.88,-304.94 46.95,-299.25"/>
</a>
</g>
</g>
<!-- Node8 -->
<g id="Node000008" class="node">
<title>Node8</title>
<g id="a_Node000008"><a xlink:href="classLobbyPassword.html" target="_top" xlink:title=" ">
<polygon fill="white" stroke="#666666" points="183,-315 91,-315 91,-296 183,-296 183,-315"/>
<text text-anchor="middle" x="137" y="-303" font-family="Helvetica,sans-Serif" font-size="10.00">LobbyPassword</text>
</a>
</g>
</g>
<!-- Node0&#45;&gt;Node8 -->
<g id="edge10_Node000000_Node000008" class="edge">
<title>Node0&#45;&gt;Node8</title>
<g id="a_edge10_Node000000_Node000008"><a xlink:title=" ">
<path fill="none" stroke="#63b8ff" d="M56.32,-291.98C67.06,-293.8 79.22,-295.87 90.76,-297.83"/>
<polygon fill="#63b8ff" stroke="#63b8ff" points="56.57,-288.48 46.13,-290.25 55.4,-295.38 56.57,-288.48"/>
</a>
</g>
</g>
<!-- Node9 -->
<g id="Node000009" class="node">
<title>Node9</title>
<g id="a_Node000009"><a xlink:href="classMainMenu.html" target="_top" xlink:title=" ">
<polygon fill="white" stroke="#666666" points="171,-278 103,-278 103,-259 171,-259 171,-278"/>
<text text-anchor="middle" x="137" y="-266" font-family="Helvetica,sans-Serif" font-size="10.00">MainMenu</text>
</a>
</g>
</g>
<!-- Node0&#45;&gt;Node9 -->
<g id="edge11_Node000000_Node000009" class="edge">
<title>Node0&#45;&gt;Node9</title>
<g id="a_edge11_Node000000_Node000009"><a xlink:title=" ">
<path fill="none" stroke="#63b8ff" d="M56.23,-281.32C70.86,-278.97 88.14,-276.19 102.87,-273.82"/>
<polygon fill="#63b8ff" stroke="#63b8ff" points="55.45,-277.9 46.13,-282.94 56.56,-284.81 55.45,-277.9"/>
</a>
</g>
</g>
<!-- Node10 -->
<g id="Node000010" class="node">
<title>Node10</title>
<g id="a_Node000010"><a xlink:href="classMyGameScene.html" target="_top" xlink:title=" ">
<polygon fill="white" stroke="#666666" points="182,-241 92,-241 92,-222 182,-222 182,-241"/>
<text text-anchor="middle" x="137" y="-229" font-family="Helvetica,sans-Serif" font-size="10.00">MyGameScene</text>
</a>
</g>
</g>
<!-- Node0&#45;&gt;Node10 -->
<g id="edge12_Node000000_Node000010" class="edge">
<title>Node0&#45;&gt;Node10</title>
<g id="a_edge12_Node000000_Node000010"><a xlink:title=" ">
<path fill="none" stroke="#63b8ff" d="M46.36,-271.03C56.88,-264.18 69.77,-256.36 82,-250.5 89.35,-246.98 97.53,-243.76 105.26,-241.02"/>
<polygon fill="#63b8ff" stroke="#63b8ff" points="44.19,-268.27 37.81,-276.73 48.08,-274.1 44.19,-268.27"/>
</a>
</g>
</g>
<!-- Node11 -->
<g id="Node000011" class="node">
<title>Node11</title>
<g id="a_Node000011"><a xlink:href="classOptionsScene.html" target="_top" xlink:title=" ">
<polygon fill="white" stroke="#666666" points="178.5,-204 95.5,-204 95.5,-185 178.5,-185 178.5,-204"/>
<text text-anchor="middle" x="137" y="-192" font-family="Helvetica,sans-Serif" font-size="10.00">OptionsScene</text>
</a>
</g>
</g>
<!-- Node0&#45;&gt;Node11 -->
<g id="edge13_Node000000_Node000011" class="edge">
<title>Node0&#45;&gt;Node11</title>
<g id="a_edge13_Node000000_Node000011"><a xlink:title=" ">
<path fill="none" stroke="#63b8ff" d="M34.65,-267.8C44.87,-251.38 61.72,-227.94 82,-213.5 87.34,-209.69 93.52,-206.59 99.75,-204.07"/>
<polygon fill="#63b8ff" stroke="#63b8ff" points="31.56,-266.15 29.43,-276.52 37.57,-269.74 31.56,-266.15"/>
</a>
</g>
</g>
<!-- Node12 -->
<g id="Node000012" class="node">
<title>Node12</title>
<g id="a_Node000012"><a xlink:href="classRtypeScene.html" target="_top" xlink:title=" ">
<polygon fill="white" stroke="#666666" points="174,-167 100,-167 100,-148 174,-148 174,-167"/>
<text text-anchor="middle" x="137" y="-155" font-family="Helvetica,sans-Serif" font-size="10.00">RtypeScene</text>
</a>
</g>
</g>
<!-- Node0&#45;&gt;Node12 -->
<g id="edge14_Node000000_Node000012" class="edge">
<title>Node0&#45;&gt;Node12</title>
<g id="a_edge14_Node000000_Node000012"><a xlink:title=" ">
<path fill="none" stroke="#63b8ff" d="M29.37,-267.15C37.11,-242.72 53.67,-200.95 82,-176.5 87.19,-172.02 93.51,-168.57 99.96,-165.93"/>
<polygon fill="#63b8ff" stroke="#63b8ff" points="26.02,-266.16 26.51,-276.74 32.72,-268.16 26.02,-266.16"/>
</a>
</g>
</g>
<!-- Node13 -->
<g id="Node000013" class="node">
<title>Node13</title>
<g id="a_Node000013"><a xlink:href="classSecondGame.html" target="_top" xlink:title=" ">
<polygon fill="white" stroke="#666666" points="177.5,-130 96.5,-130 96.5,-111 177.5,-111 177.5,-130"/>
<text text-anchor="middle" x="137" y="-118" font-family="Helvetica,sans-Serif" font-size="10.00">SecondGame</text>
</a>
</g>
</g>
<!-- Node0&#45;&gt;Node13 -->
<g id="edge15_Node000000_Node000013" class="edge">
<title>Node0&#45;&gt;Node13</title>
<g id="a_edge15_Node000000_Node000013"><a xlink:title=" ">
<path fill="none" stroke="#63b8ff" d="M26.53,-266.65C31.53,-235.38 45.57,-174.59 82,-139.5 86.08,-135.57 91.02,-132.45 96.24,-129.97"/>
<polygon fill="#63b8ff" stroke="#63b8ff" points="23.03,-266.34 25.07,-276.74 29.96,-267.34 23.03,-266.34"/>
</a>
</g>
</g>
<!-- Node14 -->
<g id="Node000014" class="node">
<title>Node14</title>
<g id="a_Node000014"><a xlink:href="classSecondGameClient.html" target="_top" xlink:title=" ">
<polygon fill="white" stroke="#666666" points="192,-93 82,-93 82,-74 192,-74 192,-93"/>
<text text-anchor="middle" x="137" y="-81" font-family="Helvetica,sans-Serif" font-size="10.00">SecondGameClient</text>
</a>
</g>
</g>
<!-- Node0&#45;&gt;Node14 -->
<g id="edge16_Node000000_Node000014" class="edge">
<title>Node0&#45;&gt;Node14</title>
<g id="a_edge16_Node000000_Node000014"><a xlink:title=" ">
<path fill="none" stroke="#63b8ff" d="M24.67,-266.49C27,-229.21 37.25,-148.75 82,-102.5 85.73,-98.64 90.29,-95.57 95.16,-93.12"/>
<polygon fill="#63b8ff" stroke="#63b8ff" points="21.17,-266.42 24.18,-276.58 28.16,-266.77 21.17,-266.42"/>
</a>
</g>
</g>
<!-- Node15 -->
<g id="Node000015" class="node">
<title>Node15</title>
<g id="a_Node000015"><a xlink:href="classVictoryScene.html" target="_top" xlink:title=" ">
<polygon fill="white" stroke="#666666" points="177,-56 97,-56 97,-37 177,-37 177,-56"/>
<text text-anchor="middle" x="137" y="-44" font-family="Helvetica,sans-Serif" font-size="10.00">VictoryScene</text>
</a>
</g>
</g>
<!-- Node0&#45;&gt;Node15 -->
<g id="edge17_Node000000_Node000015" class="edge">
<title>Node0&#45;&gt;Node15</title>
<g id="a_edge17_Node000000_Node000015"><a xlink:title=" ">
<path fill="none" stroke="#63b8ff" d="M23.39,-266.41C23.2,-223.73 28.81,-123.22 82,-65.5 86.11,-61.04 91.32,-57.63 96.89,-55.02"/>
<polygon fill="#63b8ff" stroke="#63b8ff" points="19.89,-266.67 23.55,-276.61 26.89,-266.56 19.89,-266.67"/>
</a>
</g>
</g>
<!-- Node16 -->
<g id="Node000016" class="node">
<title>Node16</title>
<g id="a_Node000016"><a xlink:href="classWaitLobby.html" target="_top" xlink:title=" ">
<polygon fill="white" stroke="#666666" points="171,-19 103,-19 103,0 171,0 171,-19"/>
<text text-anchor="middle" x="137" y="-7" font-family="Helvetica,sans-Serif" font-size="10.00">WaitLobby</text>
</a>
</g>
</g>
<!-- Node0&#45;&gt;Node16 -->
<g id="edge18_Node000000_Node000016" class="edge">
<title>Node0&#45;&gt;Node16</title>
<g id="a_edge18_Node000000_Node000016"><a xlink:title=" ">
<path fill="none" stroke="#63b8ff" d="M25.95,-266.97C31.7,-213.14 50.17,-64.29 82,-28.5 87.48,-22.34 95.08,-18.17 102.86,-15.36"/>
<polygon fill="#63b8ff" stroke="#63b8ff" points="22.47,-266.63 24.92,-276.93 29.43,-267.35 22.47,-266.63"/>
</a>
</g>
</g>
</g>
</svg>
