<?xml version="1.0" encoding="UTF-8" standalone="no"?>
<!DOCTYPE svg PUBLIC "-//W3C//DTD SVG 1.1//EN"
 "http://www.w3.org/Graphics/SVG/1.1/DTD/svg11.dtd">
<!-- Generated by graphviz version 2.43.0 (0)
 -->
<!-- Title: /home/runner/work/R&#45;Type/R&#45;Type/Client/src/engine/inputs/InputSystem.hpp Pages: 1 -->
<svg width="1558pt" height="324pt"
 viewBox="0.00 0.00 1557.94 324.00" xmlns="http://www.w3.org/2000/svg" xmlns:xlink="http://www.w3.org/1999/xlink">
<g id="graph0" class="graph" transform="scale(1 1) rotate(0) translate(4 320)">
<title>/home/runner/work/R&#45;Type/R&#45;Type/Client/src/engine/inputs/InputSystem.hpp</title>
<!-- Node1 -->
<g id="Node000001" class="node">
<title>Node1</title>
<g id="a_Node000001"><a xlink:title=" ">
<polygon fill="#999999" stroke="#666666" points="358.44,-316 170.44,-316 170.44,-275 358.44,-275 358.44,-316"/>
<text text-anchor="start" x="178.44" y="-304" font-family="Helvetica,sans-Serif" font-size="10.00">/home/runner/work/R</text>
<text text-anchor="start" x="178.44" y="-293" font-family="Helvetica,sans-Serif" font-size="10.00">&#45;Type/R&#45;Type/Client</text>
<text text-anchor="middle" x="264.44" y="-282" font-family="Helvetica,sans-Serif" font-size="10.00">/src/engine/inputs/InputSystem.hpp</text>
</a>
</g>
</g>
<!-- Node2 -->
<g id="Node000002" class="node">
<title>Node2</title>
<g id="a_Node000002"><a xlink:href="PlayerEntity_8hpp.html" target="_top" xlink:title=" ">
<polygon fill="white" stroke="#666666" points="421.94,-239 292.94,-239 292.94,-220 421.94,-220 421.94,-239"/>
<text text-anchor="middle" x="357.44" y="-227" font-family="Helvetica,sans-Serif" font-size="10.00">Player/PlayerEntity.hpp</text>
</a>
</g>
</g>
<!-- Node1&#45;&gt;Node2 -->
<g id="edge1_Node000001_Node000002" class="edge">
<title>Node1&#45;&gt;Node2</title>
<g id="a_edge1_Node000001_Node000002"><a xlink:title=" ">
<path fill="none" stroke="#63b8ff" d="M292.85,-274.95C306.77,-265.37 323.27,-254.02 336.1,-245.19"/>
<polygon fill="#63b8ff" stroke="#63b8ff" points="338.45,-247.81 344.71,-239.26 334.49,-242.05 338.45,-247.81"/>
</a>
</g>
</g>
<!-- Node9 -->
<g id="Node000009" class="node">
<title>Node9</title>
<g id="a_Node000009"><a xlink:href="Physics2D_8hpp.html" target="_top" xlink:title=" ">
<polygon fill="white" stroke="#666666" points="197.94,-74 100.94,-74 100.94,-55 197.94,-55 197.94,-74"/>
<text text-anchor="middle" x="149.44" y="-62" font-family="Helvetica,sans-Serif" font-size="10.00">../Physics2D.hpp</text>
</a>
</g>
</g>
<!-- Node1&#45;&gt;Node9 -->
<g id="edge12_Node000001_Node000009" class="edge">
<title>Node1&#45;&gt;Node9</title>
<g id="a_edge12_Node000001_Node000009"><a xlink:title=" ">
<path fill="none" stroke="#63b8ff" d="M189.1,-274.94C122.02,-252.61 30.31,-208.45 2.44,-129 -11.66,-88.8 43.8,-73.97 90.59,-68.55"/>
<polygon fill="#63b8ff" stroke="#63b8ff" points="91.14,-72.01 100.72,-67.5 90.42,-65.05 91.14,-72.01"/>
</a>
</g>
</g>
<!-- Node12 -->
<g id="Node000012" class="node">
<title>Node12</title>
<g id="a_Node000012"><a xlink:href="InputManager_8hpp.html" target="_top" xlink:title=" ">
<polygon fill="white" stroke="#666666" points="450.94,-184 313.94,-184 313.94,-165 450.94,-165 450.94,-184"/>
<text text-anchor="middle" x="382.44" y="-172" font-family="Helvetica,sans-Serif" font-size="10.00">inputs/InputManager.hpp</text>
</a>
</g>
</g>
<!-- Node1&#45;&gt;Node12 -->
<g id="edge13_Node000001_Node000012" class="edge">
<title>Node1&#45;&gt;Node12</title>
<g id="a_edge13_Node000001_Node000012"><a xlink:title=" ">
<path fill="none" stroke="#63b8ff" d="M264.86,-274.97C266.19,-258.58 270.47,-235.43 283.44,-220 296.49,-204.47 316.07,-194.13 334.39,-187.37"/>
<polygon fill="#63b8ff" stroke="#63b8ff" points="335.76,-190.6 344.09,-184.06 333.5,-183.97 335.76,-190.6"/>
</a>
</g>
</g>
<!-- Node3 -->
<g id="Node000003" class="node">
<title>Node3</title>
<g id="a_Node000003"><a xlink:title=" ">
<polygon fill="#e0e0e0" stroke="#999999" points="1370.44,-74 1306.44,-74 1306.44,-55 1370.44,-55 1370.44,-74"/>
<text text-anchor="middle" x="1338.44" y="-62" font-family="Helvetica,sans-Serif" font-size="10.00">algorithm</text>
</a>
</g>
</g>
<!-- Node2&#45;&gt;Node3 -->
<g id="edge2_Node000002_Node000003" class="edge">
<title>Node2&#45;&gt;Node3</title>
<g id="a_edge2_Node000002_Node000003"><a xlink:title=" ">
<path fill="none" stroke="#63b8ff" d="M422.27,-225.28C624.37,-214.76 1233.8,-179.15 1306.44,-129 1321.5,-118.6 1329.84,-98.96 1334.21,-84.26"/>
<polygon fill="#63b8ff" stroke="#63b8ff" points="1337.69,-84.78 1336.81,-74.22 1330.91,-83.02 1337.69,-84.78"/>
</a>
</g>
</g>
<!-- Node4 -->
<g id="Node000004" class="node">
<title>Node4</title>
<g id="a_Node000004"><a xlink:href="CollisionController_8hpp.html" target="_top" xlink:title=" ">
<polygon fill="white" stroke="#666666" points="1525.44,-184 1353.44,-184 1353.44,-165 1525.44,-165 1525.44,-184"/>
<text text-anchor="middle" x="1439.44" y="-172" font-family="Helvetica,sans-Serif" font-size="10.00">Collision/CollisionController.hpp</text>
</a>
</g>
</g>
<!-- Node2&#45;&gt;Node4 -->
<g id="edge3_Node000002_Node000004" class="edge">
<title>Node2&#45;&gt;Node4</title>
<g id="a_edge3_Node000002_Node000004"><a xlink:title=" ">
<path fill="none" stroke="#63b8ff" d="M422.12,-226.45C579.32,-221.29 993.94,-206.5 1339.44,-184 1340.71,-183.92 1341.99,-183.83 1343.28,-183.75"/>
<polygon fill="#63b8ff" stroke="#63b8ff" points="1343.54,-187.24 1353.27,-183.04 1343.05,-180.25 1343.54,-187.24"/>
</a>
</g>
</g>
<!-- Node7 -->
<g id="Node000007" class="node">
<title>Node7</title>
<g id="a_Node000007"><a xlink:href="Weapon_8hpp.html" target="_top" xlink:title=" ">
<polygon fill="white" stroke="#666666" points="229.44,-184 119.44,-184 119.44,-165 229.44,-165 229.44,-184"/>
<text text-anchor="middle" x="174.44" y="-172" font-family="Helvetica,sans-Serif" font-size="10.00">Player/Weapon.hpp</text>
</a>
</g>
</g>
<!-- Node2&#45;&gt;Node7 -->
<g id="edge6_Node000002_Node000007" class="edge">
<title>Node2&#45;&gt;Node7</title>
<g id="a_edge6_Node000002_Node000007"><a xlink:title=" ">
<path fill="none" stroke="#63b8ff" d="M328.04,-219.98C297.05,-211.01 248.06,-196.82 213.77,-186.89"/>
<polygon fill="#63b8ff" stroke="#63b8ff" points="214.65,-183.5 204.07,-184.08 212.7,-190.23 214.65,-183.5"/>
</a>
</g>
</g>
<!-- Node2&#45;&gt;Node9 -->
<g id="edge11_Node000002_Node000009" class="edge">
<title>Node2&#45;&gt;Node9</title>
<g id="a_edge11_Node000002_Node000009"><a xlink:title=" ">
<path fill="none" stroke="#63b8ff" d="M292.77,-222.65C242.06,-216.69 170.3,-205.21 110.44,-184 62.63,-167.06 36.25,-172.66 10.44,-129 -10.32,-93.89 43.97,-78.05 90.67,-71"/>
<polygon fill="#63b8ff" stroke="#63b8ff" points="91.37,-74.43 100.79,-69.58 90.4,-67.5 91.37,-74.43"/>
</a>
</g>
</g>
<!-- Node5 -->
<g id="Node000005" class="node">
<title>Node5</title>
<g id="a_Node000005"><a xlink:href="Entity_8hpp.html" target="_top" xlink:title=" ">
<polygon fill="white" stroke="#666666" points="1490.44,-74 1388.44,-74 1388.44,-55 1490.44,-55 1490.44,-74"/>
<text text-anchor="middle" x="1439.44" y="-62" font-family="Helvetica,sans-Serif" font-size="10.00">../../ecs/Entity.hpp</text>
</a>
</g>
</g>
<!-- Node4&#45;&gt;Node5 -->
<g id="edge4_Node000004_Node000005" class="edge">
<title>Node4&#45;&gt;Node5</title>
<g id="a_edge4_Node000004_Node000005"><a xlink:title=" ">
<path fill="none" stroke="#63b8ff" d="M1439.44,-164.66C1439.44,-147.17 1439.44,-107.8 1439.44,-84.27"/>
<polygon fill="#63b8ff" stroke="#63b8ff" points="1442.94,-84.16 1439.44,-74.16 1435.94,-84.16 1442.94,-84.16"/>
</a>
</g>
</g>
<!-- Node6 -->
<g id="Node000006" class="node">
<title>Node6</title>
<g id="a_Node000006"><a xlink:title=" ">
<polygon fill="#e0e0e0" stroke="#999999" points="1465.94,-19 1412.94,-19 1412.94,0 1465.94,0 1465.94,-19"/>
<text text-anchor="middle" x="1439.44" y="-7" font-family="Helvetica,sans-Serif" font-size="10.00">cstddef</text>
</a>
</g>
</g>
<!-- Node5&#45;&gt;Node6 -->
<g id="edge5_Node000005_Node000006" class="edge">
<title>Node5&#45;&gt;Node6</title>
<g id="a_edge5_Node000005_Node000006"><a xlink:title=" ">
<path fill="none" stroke="#63b8ff" d="M1439.44,-54.75C1439.44,-47.8 1439.44,-37.85 1439.44,-29.13"/>
<polygon fill="#63b8ff" stroke="#63b8ff" points="1442.94,-29.09 1439.44,-19.09 1435.94,-29.09 1442.94,-29.09"/>
</a>
</g>
</g>
<!-- Node8 -->
<g id="Node000008" class="node">
<title>Node8</title>
<g id="a_Node000008"><a xlink:href="Projectile_8hpp.html" target="_top" xlink:title=" ">
<polygon fill="white" stroke="#666666" points="199.44,-129 19.44,-129 19.44,-110 199.44,-110 199.44,-129"/>
<text text-anchor="middle" x="109.44" y="-117" font-family="Helvetica,sans-Serif" font-size="10.00">components/Player/Projectile.hpp</text>
</a>
</g>
</g>
<!-- Node7&#45;&gt;Node8 -->
<g id="edge7_Node000007_Node000008" class="edge">
<title>Node7&#45;&gt;Node8</title>
<g id="a_edge7_Node000007_Node000008"><a xlink:title=" ">
<path fill="none" stroke="#63b8ff" d="M164,-164.98C154.29,-157.07 139.62,-145.11 127.94,-135.58"/>
<polygon fill="#63b8ff" stroke="#63b8ff" points="130.03,-132.78 120.07,-129.17 125.61,-138.2 130.03,-132.78"/>
</a>
</g>
</g>
<!-- Node8&#45;&gt;Node9 -->
<g id="edge8_Node000008_Node000009" class="edge">
<title>Node8&#45;&gt;Node9</title>
<g id="a_edge8_Node000008_Node000009"><a xlink:title=" ">
<path fill="none" stroke="#63b8ff" d="M116.04,-109.75C121.69,-102.26 129.98,-91.28 136.89,-82.13"/>
<polygon fill="#63b8ff" stroke="#63b8ff" points="139.73,-84.18 142.96,-74.09 134.14,-79.96 139.73,-84.18"/>
</a>
</g>
</g>
<!-- Node10 -->
<g id="Node000010" class="node">
<title>Node10</title>
<g id="a_Node000010"><a xlink:title=" ">
<polygon fill="#e0e0e0" stroke="#999999" points="321.44,-19 249.44,-19 249.44,0 321.44,0 321.44,-19"/>
<text text-anchor="middle" x="285.44" y="-7" font-family="Helvetica,sans-Serif" font-size="10.00">SDL2/SDL.h</text>
</a>
</g>
</g>
<!-- Node9&#45;&gt;Node10 -->
<g id="edge9_Node000009_Node000010" class="edge">
<title>Node9&#45;&gt;Node10</title>
<g id="a_edge9_Node000009_Node000010"><a xlink:title=" ">
<path fill="none" stroke="#63b8ff" d="M171.29,-54.98C193.56,-46.3 228.34,-32.75 253.66,-22.88"/>
<polygon fill="#63b8ff" stroke="#63b8ff" points="255.14,-26.06 263.19,-19.17 252.6,-19.54 255.14,-26.06"/>
</a>
</g>
</g>
<!-- Node11 -->
<g id="Node000011" class="node">
<title>Node11</title>
<g id="a_Node000011"><a xlink:title=" ">
<polygon fill="#e0e0e0" stroke="#999999" points="172.94,-19 125.94,-19 125.94,0 172.94,0 172.94,-19"/>
<text text-anchor="middle" x="149.44" y="-7" font-family="Helvetica,sans-Serif" font-size="10.00">cmath</text>
</a>
</g>
</g>
<!-- Node9&#45;&gt;Node11 -->
<g id="edge10_Node000009_Node000011" class="edge">
<title>Node9&#45;&gt;Node11</title>
<g id="a_edge10_Node000009_Node000011"><a xlink:title=" ">
<path fill="none" stroke="#63b8ff" d="M149.44,-54.75C149.44,-47.8 149.44,-37.85 149.44,-29.13"/>
<polygon fill="#63b8ff" stroke="#63b8ff" points="152.94,-29.09 149.44,-19.09 145.94,-29.09 152.94,-29.09"/>
</a>
</g>
</g>
<!-- Node12&#45;&gt;Node9 -->
<g id="edge15_Node000012_Node000009" class="edge">
<title>Node12&#45;&gt;Node9</title>
<g id="a_edge15_Node000012_Node000009"><a xlink:title=" ">
<path fill="none" stroke="#63b8ff" d="M350.68,-164.94C323.64,-157.13 284.11,-144.47 251.44,-129 221.52,-114.84 189.5,-93.83 169.48,-79.91"/>
<polygon fill="#63b8ff" stroke="#63b8ff" points="171.37,-76.96 161.17,-74.06 167.33,-82.68 171.37,-76.96"/>
</a>
</g>
</g>
<!-- Node12&#45;&gt;Node10 -->
<g id="edge14_Node000012_Node000010" class="edge">
<title>Node12&#45;&gt;Node10</title>
<g id="a_edge14_Node000012_Node000010"><a xlink:title=" ">
<path fill="none" stroke="#63b8ff" d="M338.63,-164.97C318.5,-158.62 296.48,-147.69 284.44,-129 264.74,-98.42 272.73,-53.54 279.56,-28.71"/>
<polygon fill="#63b8ff" stroke="#63b8ff" points="282.92,-29.7 282.42,-19.12 276.21,-27.7 282.92,-29.7"/>
</a>
</g>
</g>
<!-- Node13 -->
<g id="Node000013" class="node">
<title>Node13</title>
<g id="a_Node000013"><a xlink:href="Registry_8hpp.html" target="_top" xlink:title=" ">
<polygon fill="white" stroke="#666666" points="952.44,-129 856.44,-129 856.44,-110 952.44,-110 952.44,-129"/>
<text text-anchor="middle" x="904.44" y="-117" font-family="Helvetica,sans-Serif" font-size="10.00">ecs/Registry.hpp</text>
</a>
</g>
</g>
<!-- Node12&#45;&gt;Node13 -->
<g id="edge16_Node000012_Node000013" class="edge">
<title>Node12&#45;&gt;Node13</title>
<g id="a_edge16_Node000012_Node000013"><a xlink:title=" ">
<path fill="none" stroke="#63b8ff" d="M450.95,-166.54C554.5,-156.03 749.06,-136.28 846.19,-126.41"/>
<polygon fill="#63b8ff" stroke="#63b8ff" points="846.81,-129.87 856.41,-125.38 846.11,-122.9 846.81,-129.87"/>
</a>
</g>
</g>
<!-- Node25 -->
<g id="Node000025" class="node">
<title>Node25</title>
<g id="a_Node000025"><a xlink:href="Zipper_8hpp.html" target="_top" xlink:title=" ">
<polygon fill="white" stroke="#666666" points="1279.44,-129 1191.44,-129 1191.44,-110 1279.44,-110 1279.44,-129"/>
<text text-anchor="middle" x="1235.44" y="-117" font-family="Helvetica,sans-Serif" font-size="10.00">ecs/Zipper.hpp</text>
</a>
</g>
</g>
<!-- Node12&#45;&gt;Node25 -->
<g id="edge32_Node000012_Node000025" class="edge">
<title>Node12&#45;&gt;Node25</title>
<g id="a_edge32_Node000012_Node000025"><a xlink:title=" ">
<path fill="none" stroke="#63b8ff" d="M451.16,-169.23C616.09,-158.98 1031.68,-133.16 1180.98,-123.88"/>
<polygon fill="#63b8ff" stroke="#63b8ff" points="1181.5,-127.36 1191.26,-123.24 1181.06,-120.37 1181.5,-127.36"/>
</a>
</g>
</g>
<!-- Node27 -->
<g id="Node000027" class="node">
<title>Node27</title>
<g id="a_Node000027"><a xlink:href="RenderComponents_8hpp.html" target="_top" xlink:title=" ">
<polygon fill="white" stroke="#666666" points="471.44,-129 293.44,-129 293.44,-110 471.44,-110 471.44,-129"/>
<text text-anchor="middle" x="382.44" y="-117" font-family="Helvetica,sans-Serif" font-size="10.00">graphics/RenderComponents.hpp</text>
</a>
</g>
</g>
<!-- Node12&#45;&gt;Node27 -->
<g id="edge38_Node000012_Node000027" class="edge">
<title>Node12&#45;&gt;Node27</title>
<g id="a_edge38_Node000012_Node000027"><a xlink:title=" ">
<path fill="none" stroke="#63b8ff" d="M382.44,-164.75C382.44,-157.8 382.44,-147.85 382.44,-139.13"/>
<polygon fill="#63b8ff" stroke="#63b8ff" points="385.94,-139.09 382.44,-129.09 378.94,-139.09 385.94,-139.09"/>
</a>
</g>
</g>
<!-- Node29 -->
<g id="Node000029" class="node">
<title>Node29</title>
<g id="a_Node000029"><a xlink:href="KeyBindings_8hpp.html" target="_top" xlink:title=" ">
<polygon fill="white" stroke="#666666" points="620.94,-129 489.94,-129 489.94,-110 620.94,-110 620.94,-129"/>
<text text-anchor="middle" x="555.44" y="-117" font-family="Helvetica,sans-Serif" font-size="10.00">inputs/KeyBindings.hpp</text>
</a>
</g>
</g>
<!-- Node12&#45;&gt;Node29 -->
<g id="edge42_Node000012_Node000029" class="edge">
<title>Node12&#45;&gt;Node29</title>
<g id="a_edge42_Node000012_Node000029"><a xlink:title=" ">
<path fill="none" stroke="#63b8ff" d="M410.23,-164.98C439.4,-156.05 485.44,-141.94 517.84,-132.02"/>
<polygon fill="#63b8ff" stroke="#63b8ff" points="518.89,-135.36 527.43,-129.08 516.84,-128.66 518.89,-135.36"/>
</a>
</g>
</g>
<!-- Node13&#45;&gt;Node3 -->
<g id="edge17_Node000013_Node000003" class="edge">
<title>Node13&#45;&gt;Node3</title>
<g id="a_edge17_Node000013_Node000003"><a xlink:title=" ">
<path fill="none" stroke="#63b8ff" d="M952.54,-112.63C1037.98,-102.19 1214.83,-80.6 1296.01,-70.68"/>
<polygon fill="#63b8ff" stroke="#63b8ff" points="1296.85,-74.1 1306.35,-69.42 1296,-67.16 1296.85,-74.1"/>
</a>
</g>
</g>
<!-- Node13&#45;&gt;Node5 -->
<g id="edge26_Node000013_Node000005" class="edge">
<title>Node13&#45;&gt;Node5</title>
<g id="a_edge26_Node000013_Node000005"><a xlink:title=" ">
<path fill="none" stroke="#63b8ff" d="M952.73,-114.74C1036.91,-108.01 1216.21,-92.94 1378.24,-74.09"/>
<polygon fill="#63b8ff" stroke="#63b8ff" points="1378.87,-77.54 1388.4,-72.9 1378.06,-70.59 1378.87,-77.54"/>
</a>
</g>
</g>
<!-- Node14 -->
<g id="Node000014" class="node">
<title>Node14</title>
<g id="a_Node000014"><a xlink:title=" ">
<polygon fill="#e0e0e0" stroke="#999999" points="806.94,-74 771.94,-74 771.94,-55 806.94,-55 806.94,-74"/>
<text text-anchor="middle" x="789.44" y="-62" font-family="Helvetica,sans-Serif" font-size="10.00">any</text>
</a>
</g>
</g>
<!-- Node13&#45;&gt;Node14 -->
<g id="edge18_Node000013_Node000014" class="edge">
<title>Node13&#45;&gt;Node14</title>
<g id="a_edge18_Node000013_Node000014"><a xlink:title=" ">
<path fill="none" stroke="#63b8ff" d="M885.96,-109.98C867.13,-101.31 837.73,-87.76 816.32,-77.89"/>
<polygon fill="#63b8ff" stroke="#63b8ff" points="817.66,-74.65 807.11,-73.65 814.73,-81.01 817.66,-74.65"/>
</a>
</g>
</g>
<!-- Node15 -->
<g id="Node000015" class="node">
<title>Node15</title>
<g id="a_Node000015"><a xlink:title=" ">
<polygon fill="#e0e0e0" stroke="#999999" points="1249.94,-74 1184.94,-74 1184.94,-55 1249.94,-55 1249.94,-74"/>
<text text-anchor="middle" x="1217.44" y="-62" font-family="Helvetica,sans-Serif" font-size="10.00">functional</text>
</a>
</g>
</g>
<!-- Node13&#45;&gt;Node15 -->
<g id="edge19_Node000013_Node000015" class="edge">
<title>Node13&#45;&gt;Node15</title>
<g id="a_edge19_Node000013_Node000015"><a xlink:title=" ">
<path fill="none" stroke="#63b8ff" d="M952.52,-110.65C1005.83,-101.91 1094.33,-87.25 1170.44,-74 1171.89,-73.75 1173.37,-73.49 1174.87,-73.22"/>
<polygon fill="#63b8ff" stroke="#63b8ff" points="1175.6,-76.65 1184.83,-71.45 1174.37,-69.76 1175.6,-76.65"/>
</a>
</g>
</g>
<!-- Node16 -->
<g id="Node000016" class="node">
<title>Node16</title>
<g id="a_Node000016"><a xlink:title=" ">
<polygon fill="#e0e0e0" stroke="#999999" points="603.44,-74 543.44,-74 543.44,-55 603.44,-55 603.44,-74"/>
<text text-anchor="middle" x="573.44" y="-62" font-family="Helvetica,sans-Serif" font-size="10.00">iostream</text>
</a>
</g>
</g>
<!-- Node13&#45;&gt;Node16 -->
<g id="edge20_Node000013_Node000016" class="edge">
<title>Node13&#45;&gt;Node16</title>
<g id="a_edge20_Node000013_Node000016"><a xlink:title=" ">
<path fill="none" stroke="#63b8ff" d="M856.41,-112.02C798.6,-104.02 698.66,-89.56 613.44,-74 613.34,-73.98 613.24,-73.96 613.14,-73.94"/>
<polygon fill="#63b8ff" stroke="#63b8ff" points="614.03,-70.55 603.54,-72.09 612.7,-77.42 614.03,-70.55"/>
</a>
</g>
</g>
<!-- Node17 -->
<g id="Node000017" class="node">
<title>Node17</title>
<g id="a_Node000017"><a xlink:title=" ">
<polygon fill="#e0e0e0" stroke="#999999" points="889.94,-74 824.94,-74 824.94,-55 889.94,-55 889.94,-74"/>
<text text-anchor="middle" x="857.44" y="-62" font-family="Helvetica,sans-Serif" font-size="10.00">typeindex</text>
</a>
</g>
</g>
<!-- Node13&#45;&gt;Node17 -->
<g id="edge21_Node000013_Node000017" class="edge">
<title>Node13&#45;&gt;Node17</title>
<g id="a_edge21_Node000013_Node000017"><a xlink:title=" ">
<path fill="none" stroke="#63b8ff" d="M896.68,-109.75C889.97,-102.18 880.1,-91.05 871.93,-81.84"/>
<polygon fill="#63b8ff" stroke="#63b8ff" points="874.31,-79.25 865.06,-74.09 869.07,-83.89 874.31,-79.25"/>
</a>
</g>
</g>
<!-- Node18 -->
<g id="Node000018" class="node">
<title>Node18</title>
<g id="a_Node000018"><a xlink:title=" ">
<polygon fill="#e0e0e0" stroke="#999999" points="714.94,-74 621.94,-74 621.94,-55 714.94,-55 714.94,-74"/>
<text text-anchor="middle" x="668.44" y="-62" font-family="Helvetica,sans-Serif" font-size="10.00">unordered_map</text>
</a>
</g>
</g>
<!-- Node13&#45;&gt;Node18 -->
<g id="edge22_Node000013_Node000018" class="edge">
<title>Node13&#45;&gt;Node18</title>
<g id="a_edge22_Node000013_Node000018"><a xlink:title=" ">
<path fill="none" stroke="#63b8ff" d="M866.52,-109.98C825.78,-100.84 760.94,-86.27 716.62,-76.32"/>
<polygon fill="#63b8ff" stroke="#63b8ff" points="717.18,-72.86 706.65,-74.08 715.64,-79.69 717.18,-72.86"/>
</a>
</g>
</g>
<!-- Node19 -->
<g id="Node000019" class="node">
<title>Node19</title>
<g id="a_Node000019"><a xlink:title=" ">
<polygon fill="#e0e0e0" stroke="#999999" points="994.44,-74 908.44,-74 908.44,-55 994.44,-55 994.44,-74"/>
<text text-anchor="middle" x="951.44" y="-62" font-family="Helvetica,sans-Serif" font-size="10.00">unordered_set</text>
</a>
</g>
</g>
<!-- Node13&#45;&gt;Node19 -->
<g id="edge23_Node000013_Node000019" class="edge">
<title>Node13&#45;&gt;Node19</title>
<g id="a_edge23_Node000013_Node000019"><a xlink:title=" ">
<path fill="none" stroke="#63b8ff" d="M912.2,-109.75C918.91,-102.18 928.78,-91.05 936.94,-81.84"/>
<polygon fill="#63b8ff" stroke="#63b8ff" points="939.81,-83.89 943.82,-74.09 934.57,-79.25 939.81,-83.89"/>
</a>
</g>
</g>
<!-- Node20 -->
<g id="Node000020" class="node">
<title>Node20</title>
<g id="a_Node000020"><a xlink:title=" ">
<polygon fill="#e0e0e0" stroke="#999999" points="1178.94,-19 1133.94,-19 1133.94,0 1178.94,0 1178.94,-19"/>
<text text-anchor="middle" x="1156.44" y="-7" font-family="Helvetica,sans-Serif" font-size="10.00">utility</text>
</a>
</g>
</g>
<!-- Node13&#45;&gt;Node20 -->
<g id="edge24_Node000013_Node000020" class="edge">
<title>Node13&#45;&gt;Node20</title>
<g id="a_edge24_Node000013_Node000020"><a xlink:title=" ">
<path fill="none" stroke="#63b8ff" d="M952.66,-115.12C1012.76,-109.94 1110.85,-98.01 1137.44,-74 1149.84,-62.8 1154.29,-43.88 1155.81,-29.6"/>
<polygon fill="#63b8ff" stroke="#63b8ff" points="1159.32,-29.59 1156.5,-19.38 1152.34,-29.12 1159.32,-29.59"/>
</a>
</g>
</g>
<!-- Node21 -->
<g id="Node000021" class="node">
<title>Node21</title>
<g id="a_Node000021"><a xlink:title=" ">
<polygon fill="#e0e0e0" stroke="#999999" points="766.94,-19 719.94,-19 719.94,0 766.94,0 766.94,-19"/>
<text text-anchor="middle" x="743.44" y="-7" font-family="Helvetica,sans-Serif" font-size="10.00">vector</text>
</a>
</g>
</g>
<!-- Node13&#45;&gt;Node21 -->
<g id="edge25_Node000013_Node000021" class="edge">
<title>Node13&#45;&gt;Node21</title>
<g id="a_edge25_Node000013_Node000021"><a xlink:title=" ">
<path fill="none" stroke="#63b8ff" d="M856.13,-114.5C825.81,-109.55 787.94,-98.51 763.44,-74 751.58,-62.13 746.74,-43.3 744.77,-29.22"/>
<polygon fill="#63b8ff" stroke="#63b8ff" points="748.24,-28.76 743.73,-19.17 741.28,-29.48 748.24,-28.76"/>
</a>
</g>
</g>
<!-- Node22 -->
<g id="Node000022" class="node">
<title>Node22</title>
<g id="a_Node000022"><a xlink:href="SparseArray_8hpp.html" target="_top" xlink:title=" ">
<polygon fill="white" stroke="#666666" points="1127.94,-74 1012.94,-74 1012.94,-55 1127.94,-55 1127.94,-74"/>
<text text-anchor="middle" x="1070.44" y="-62" font-family="Helvetica,sans-Serif" font-size="10.00">ecs/SparseArray.hpp</text>
</a>
</g>
</g>
<!-- Node13&#45;&gt;Node22 -->
<g id="edge27_Node000013_Node000022" class="edge">
<title>Node13&#45;&gt;Node22</title>
<g id="a_edge27_Node000013_Node000022"><a xlink:title=" ">
<path fill="none" stroke="#63b8ff" d="M931.11,-109.98C958.98,-101.09 1002.89,-87.07 1033.96,-77.15"/>
<polygon fill="#63b8ff" stroke="#63b8ff" points="1035.1,-80.46 1043.56,-74.08 1032.97,-73.79 1035.1,-80.46"/>
</a>
</g>
</g>
<!-- Node22&#45;&gt;Node20 -->
<g id="edge30_Node000022_Node000020" class="edge">
<title>Node22&#45;&gt;Node20</title>
<g id="a_edge30_Node000022_Node000020"><a xlink:title=" ">
<path fill="none" stroke="#63b8ff" d="M1084.26,-54.98C1097.59,-46.77 1118.02,-34.18 1133.74,-24.49"/>
<polygon fill="#63b8ff" stroke="#63b8ff" points="1135.69,-27.4 1142.37,-19.17 1132.02,-21.44 1135.69,-27.4"/>
</a>
</g>
</g>
<!-- Node22&#45;&gt;Node21 -->
<g id="edge31_Node000022_Node000021" class="edge">
<title>Node22&#45;&gt;Node21</title>
<g id="a_edge31_Node000022_Node000021"><a xlink:title=" ">
<path fill="none" stroke="#63b8ff" d="M1017.9,-54.98C950.09,-43.99 834.05,-25.19 777.05,-15.95"/>
<polygon fill="#63b8ff" stroke="#63b8ff" points="777.55,-12.48 767.12,-14.34 776.43,-19.39 777.55,-12.48"/>
</a>
</g>
</g>
<!-- Node23 -->
<g id="Node000023" class="node">
<title>Node23</title>
<g id="a_Node000023"><a xlink:title=" ">
<polygon fill="#e0e0e0" stroke="#999999" points="1032.44,-19 974.44,-19 974.44,0 1032.44,0 1032.44,-19"/>
<text text-anchor="middle" x="1003.44" y="-7" font-family="Helvetica,sans-Serif" font-size="10.00">memory</text>
</a>
</g>
</g>
<!-- Node22&#45;&gt;Node23 -->
<g id="edge28_Node000022_Node000023" class="edge">
<title>Node22&#45;&gt;Node23</title>
<g id="a_edge28_Node000022_Node000023"><a xlink:title=" ">
<path fill="none" stroke="#63b8ff" d="M1059.67,-54.98C1049.67,-47.07 1034.55,-35.11 1022.51,-25.58"/>
<polygon fill="#63b8ff" stroke="#63b8ff" points="1024.41,-22.63 1014.4,-19.17 1020.07,-28.12 1024.41,-22.63"/>
</a>
</g>
</g>
<!-- Node24 -->
<g id="Node000024" class="node">
<title>Node24</title>
<g id="a_Node000024"><a xlink:title=" ">
<polygon fill="#e0e0e0" stroke="#999999" points="1106.44,-19 1050.44,-19 1050.44,0 1106.44,0 1106.44,-19"/>
<text text-anchor="middle" x="1078.44" y="-7" font-family="Helvetica,sans-Serif" font-size="10.00">optional</text>
</a>
</g>
</g>
<!-- Node22&#45;&gt;Node24 -->
<g id="edge29_Node000022_Node000024" class="edge">
<title>Node22&#45;&gt;Node24</title>
<g id="a_edge29_Node000022_Node000024"><a xlink:title=" ">
<path fill="none" stroke="#63b8ff" d="M1071.76,-54.75C1072.81,-47.8 1074.31,-37.85 1075.63,-29.13"/>
<polygon fill="#63b8ff" stroke="#63b8ff" points="1079.11,-29.5 1077.14,-19.09 1072.19,-28.45 1079.11,-29.5"/>
</a>
</g>
</g>
<!-- Node25&#45;&gt;Node3 -->
<g id="edge33_Node000025_Node000003" class="edge">
<title>Node25&#45;&gt;Node3</title>
<g id="a_edge33_Node000025_Node000003"><a xlink:title=" ">
<path fill="none" stroke="#63b8ff" d="M1251.99,-109.98C1268.33,-101.57 1293.57,-88.59 1312.57,-78.81"/>
<polygon fill="#63b8ff" stroke="#63b8ff" points="1314.3,-81.86 1321.59,-74.17 1311.1,-75.63 1314.3,-81.86"/>
</a>
</g>
</g>
<!-- Node25&#45;&gt;Node15 -->
<g id="edge34_Node000025_Node000015" class="edge">
<title>Node25&#45;&gt;Node15</title>
<g id="a_edge34_Node000025_Node000015"><a xlink:title=" ">
<path fill="none" stroke="#63b8ff" d="M1232.47,-109.75C1230.08,-102.72 1226.65,-92.62 1223.67,-83.84"/>
<polygon fill="#63b8ff" stroke="#63b8ff" points="1226.89,-82.43 1220.36,-74.09 1220.26,-84.68 1226.89,-82.43"/>
</a>
</g>
</g>
<!-- Node25&#45;&gt;Node20 -->
<g id="edge36_Node000025_Node000020" class="edge">
<title>Node25&#45;&gt;Node20</title>
<g id="a_edge36_Node000025_Node000020"><a xlink:title=" ">
<path fill="none" stroke="#63b8ff" d="M1243.61,-109.72C1254.49,-96.92 1271.09,-72.73 1259.44,-55 1243.97,-31.46 1213.11,-20.32 1189.19,-15.07"/>
<polygon fill="#63b8ff" stroke="#63b8ff" points="1189.58,-11.58 1179.09,-13.11 1188.24,-18.46 1189.58,-11.58"/>
</a>
</g>
</g>
<!-- Node25&#45;&gt;Node25 -->
<g id="edge37_Node000025_Node000025" class="edge">
<title>Node25&#45;&gt;Node25</title>
<g id="a_edge37_Node000025_Node000025"><a xlink:title=" ">
<path fill="none" stroke="#63b8ff" d="M1264.46,-129.03C1281.49,-131.06 1297.44,-127.88 1297.44,-119.5 1297.44,-112.82 1287.31,-109.44 1274.58,-109.38"/>
<polygon fill="#63b8ff" stroke="#63b8ff" points="1274.24,-105.89 1264.46,-109.97 1274.65,-112.88 1274.24,-105.89"/>
</a>
</g>
</g>
<!-- Node26 -->
<g id="Node000026" class="node">
<title>Node26</title>
<g id="a_Node000026"><a xlink:title=" ">
<polygon fill="#e0e0e0" stroke="#999999" points="1549.94,-74 1508.94,-74 1508.94,-55 1549.94,-55 1549.94,-74"/>
<text text-anchor="middle" x="1529.44" y="-62" font-family="Helvetica,sans-Serif" font-size="10.00">tuple</text>
</a>
</g>
</g>
<!-- Node25&#45;&gt;Node26 -->
<g id="edge35_Node000025_Node000026" class="edge">
<title>Node25&#45;&gt;Node26</title>
<g id="a_edge35_Node000025_Node000026"><a xlink:title=" ">
<path fill="none" stroke="#63b8ff" d="M1279.63,-112.56C1330.29,-105.41 1415.97,-92.31 1499.01,-73.87"/>
<polygon fill="#63b8ff" stroke="#63b8ff" points="1499.87,-77.26 1508.86,-71.65 1498.33,-70.43 1499.87,-77.26"/>
</a>
</g>
</g>
<!-- Node27&#45;&gt;Node9 -->
<g id="edge41_Node000027_Node000009" class="edge">
<title>Node27&#45;&gt;Node9</title>
<g id="a_edge41_Node000027_Node000009"><a xlink:title=" ">
<path fill="none" stroke="#63b8ff" d="M345,-109.98C304.78,-100.84 240.76,-86.27 197,-76.32"/>
<polygon fill="#63b8ff" stroke="#63b8ff" points="197.69,-72.89 187.17,-74.08 196.14,-79.71 197.69,-72.89"/>
</a>
</g>
</g>
<!-- Node27&#45;&gt;Node10 -->
<g id="edge39_Node000027_Node000010" class="edge">
<title>Node27&#45;&gt;Node10</title>
<g id="a_edge39_Node000027_Node000010"><a xlink:title=" ">
<path fill="none" stroke="#63b8ff" d="M367.54,-109.87C354.52,-101.79 335.67,-88.78 322.44,-74 310.1,-60.21 299.86,-41.67 293.31,-28.18"/>
<polygon fill="#63b8ff" stroke="#63b8ff" points="296.44,-26.6 289.04,-19.01 290.09,-29.56 296.44,-26.6"/>
</a>
</g>
</g>
<!-- Node28 -->
<g id="Node000028" class="node">
<title>Node28</title>
<g id="a_Node000028"><a xlink:title=" ">
<polygon fill="#e0e0e0" stroke="#999999" points="375.44,-74 331.44,-74 331.44,-55 375.44,-55 375.44,-74"/>
<text text-anchor="middle" x="353.44" y="-62" font-family="Helvetica,sans-Serif" font-size="10.00">string</text>
</a>
</g>
</g>
<!-- Node27&#45;&gt;Node28 -->
<g id="edge40_Node000027_Node000028" class="edge">
<title>Node27&#45;&gt;Node28</title>
<g id="a_edge40_Node000027_Node000028"><a xlink:title=" ">
<path fill="none" stroke="#63b8ff" d="M377.65,-109.75C373.68,-102.49 367.91,-91.95 363,-82.98"/>
<polygon fill="#63b8ff" stroke="#63b8ff" points="366.01,-81.18 358.14,-74.09 359.87,-84.54 366.01,-81.18"/>
</a>
</g>
</g>
<!-- Node29&#45;&gt;Node10 -->
<g id="edge43_Node000029_Node000010" class="edge">
<title>Node29&#45;&gt;Node10</title>
<g id="a_edge43_Node000029_Node000010"><a xlink:title=" ">
<path fill="none" stroke="#63b8ff" d="M526.73,-109.99C499.72,-101.71 458.34,-88.32 423.44,-74 405.6,-66.68 401.9,-63.18 384.44,-55 360.93,-43.99 334.06,-31.95 314.25,-23.17"/>
<polygon fill="#63b8ff" stroke="#63b8ff" points="315.43,-19.86 304.87,-19.02 312.6,-26.27 315.43,-19.86"/>
</a>
</g>
</g>
<!-- Node29&#45;&gt;Node16 -->
<g id="edge45_Node000029_Node000016" class="edge">
<title>Node29&#45;&gt;Node16</title>
<g id="a_edge45_Node000029_Node000016"><a xlink:title=" ">
<path fill="none" stroke="#63b8ff" d="M558.41,-109.75C560.8,-102.72 564.23,-92.62 567.21,-83.84"/>
<polygon fill="#63b8ff" stroke="#63b8ff" points="570.62,-84.68 570.52,-74.09 563.99,-82.43 570.62,-84.68"/>
</a>
</g>
</g>
<!-- Node29&#45;&gt;Node18 -->
<g id="edge47_Node000029_Node000018" class="edge">
<title>Node29&#45;&gt;Node18</title>
<g id="a_edge47_Node000029_Node000018"><a xlink:title=" ">
<path fill="none" stroke="#63b8ff" d="M573.59,-109.98C591.69,-101.5 619.72,-88.35 640.63,-78.54"/>
<polygon fill="#63b8ff" stroke="#63b8ff" points="642.39,-81.59 649.95,-74.17 639.41,-75.25 642.39,-81.59"/>
</a>
</g>
</g>
<!-- Node29&#45;&gt;Node21 -->
<g id="edge48_Node000029_Node000021" class="edge">
<title>Node29&#45;&gt;Node21</title>
<g id="a_edge48_Node000029_Node000021"><a xlink:title=" ">
<path fill="none" stroke="#63b8ff" d="M547.86,-109.77C537.37,-96.59 521.14,-71.43 534.44,-55 556.1,-28.24 656.23,-16.89 709.65,-12.67"/>
<polygon fill="#63b8ff" stroke="#63b8ff" points="709.96,-16.16 719.67,-11.92 709.44,-9.18 709.96,-16.16"/>
</a>
</g>
</g>
<!-- Node29&#45;&gt;Node28 -->
<g id="edge46_Node000029_Node000028" class="edge">
<title>Node29&#45;&gt;Node28</title>
<g id="a_edge46_Node000029_Node000028"><a xlink:title=" ">
<path fill="none" stroke="#63b8ff" d="M522.98,-109.98C485.16,-100.06 423.07,-83.77 385.44,-73.9"/>
<polygon fill="#63b8ff" stroke="#63b8ff" points="386.08,-70.45 375.52,-71.29 384.3,-77.22 386.08,-70.45"/>
</a>
</g>
</g>
<!-- Node30 -->
<g id="Node000030" class="node">
<title>Node30</title>
<g id="a_Node000030"><a xlink:title=" ">
<polygon fill="#e0e0e0" stroke="#999999" points="486.94,-74 431.94,-74 431.94,-55 486.94,-55 486.94,-74"/>
<text text-anchor="middle" x="459.44" y="-62" font-family="Helvetica,sans-Serif" font-size="10.00">fstream</text>
</a>
</g>
</g>
<!-- Node29&#45;&gt;Node30 -->
<g id="edge44_Node000029_Node000030" class="edge">
<title>Node29&#45;&gt;Node30</title>
<g id="a_edge44_Node000029_Node000030"><a xlink:title=" ">
<path fill="none" stroke="#63b8ff" d="M540.01,-109.98C524.99,-101.69 501.9,-88.94 484.28,-79.22"/>
<polygon fill="#63b8ff" stroke="#63b8ff" points="485.59,-75.94 475.14,-74.17 482.21,-82.07 485.59,-75.94"/>
</a>
</g>
</g>
</g>
</svg>
