<?xml version="1.0" encoding="UTF-8" standalone="no"?>
<!DOCTYPE svg PUBLIC "-//W3C//DTD SVG 1.1//EN"
 "http://www.w3.org/Graphics/SVG/1.1/DTD/svg11.dtd">
<!-- Generated by graphviz version 2.43.0 (0)
 -->
<!-- Title: /home/runner/work/R&#45;Type/R&#45;Type/Client/src/engine/inputs/InputSystem.cpp Pages: 1 -->
<svg width="1965pt" height="269pt"
 viewBox="0.00 0.00 1965.00 269.00" xmlns="http://www.w3.org/2000/svg" xmlns:xlink="http://www.w3.org/1999/xlink">
<g id="graph0" class="graph" transform="scale(1 1) rotate(0) translate(4 265)">
<title>/home/runner/work/R&#45;Type/R&#45;Type/Client/src/engine/inputs/InputSystem.cpp</title>
<!-- Node1 -->
<g id="Node000001" class="node">
<title>Node1</title>
<g id="a_Node000001"><a xlink:title=" ">
<polygon fill="#999999" stroke="#666666" points="969.5,-261 781.5,-261 781.5,-220 969.5,-220 969.5,-261"/>
<text text-anchor="start" x="789.5" y="-249" font-family="Helvetica,sans-Serif" font-size="10.00">/home/runner/work/R</text>
<text text-anchor="start" x="789.5" y="-238" font-family="Helvetica,sans-Serif" font-size="10.00">&#45;Type/R&#45;Type/Client</text>
<text text-anchor="middle" x="875.5" y="-227" font-family="Helvetica,sans-Serif" font-size="10.00">/src/engine/inputs/InputSystem.cpp</text>
</a>
</g>
</g>
<!-- Node2 -->
<g id="Node000002" class="node">
<title>Node2</title>
<g id="a_Node000002"><a xlink:href="InputSystem_8hpp.html" target="_top" xlink:title=" ">
<polygon fill="white" stroke="#666666" points="315.5,-184 183.5,-184 183.5,-165 315.5,-165 315.5,-184"/>
<text text-anchor="middle" x="249.5" y="-172" font-family="Helvetica,sans-Serif" font-size="10.00">inputs/InputSystem.hpp</text>
</a>
</g>
</g>
<!-- Node1&#45;&gt;Node2 -->
<g id="edge1_Node000001_Node000002" class="edge">
<title>Node1&#45;&gt;Node2</title>
<g id="a_edge1_Node000001_Node000002"><a xlink:title=" ">
<path fill="none" stroke="#63b8ff" d="M781.44,-229.88C657.2,-217.18 440.74,-195.05 325.99,-183.32"/>
<polygon fill="#63b8ff" stroke="#63b8ff" points="326.19,-179.82 315.88,-182.29 325.48,-186.79 326.19,-179.82"/>
</a>
</g>
</g>
<!-- Node3 -->
<g id="Node000003" class="node">
<title>Node3</title>
<g id="a_Node000003"><a xlink:title=" ">
<polygon fill="#e0e0e0" stroke="#999999" points="129,-129 0,-129 0,-110 129,-110 129,-129"/>
<text text-anchor="middle" x="64.5" y="-117" font-family="Helvetica,sans-Serif" font-size="10.00">Player/PlayerEntity.hpp</text>
</a>
</g>
</g>
<!-- Node1&#45;&gt;Node3 -->
<g id="edge21_Node000001_Node000003" class="edge">
<title>Node1&#45;&gt;Node3</title>
<g id="a_edge21_Node000001_Node000003"><a xlink:title=" ">
<path fill="none" stroke="#63b8ff" d="M781.18,-237.18C616.87,-232.28 285.11,-218.37 174.5,-184 140.04,-173.29 104.7,-150.33 83.67,-135.16"/>
<polygon fill="#63b8ff" stroke="#63b8ff" points="85.71,-132.31 75.58,-129.19 81.55,-137.94 85.71,-132.31"/>
</a>
</g>
</g>
<!-- Node13 -->
<g id="Node000013" class="node">
<title>Node13</title>
<g id="a_Node000013"><a xlink:title=" ">
<polygon fill="#e0e0e0" stroke="#999999" points="905.5,-19 845.5,-19 845.5,0 905.5,0 905.5,-19"/>
<text text-anchor="middle" x="875.5" y="-7" font-family="Helvetica,sans-Serif" font-size="10.00">iostream</text>
</a>
</g>
</g>
<!-- Node1&#45;&gt;Node13 -->
<g id="edge20_Node000001_Node000013" class="edge">
<title>Node1&#45;&gt;Node13</title>
<g id="a_edge20_Node000001_Node000013"><a xlink:title=" ">
<path fill="none" stroke="#63b8ff" d="M875.5,-219.98C875.5,-176.58 875.5,-72.56 875.5,-29.58"/>
<polygon fill="#63b8ff" stroke="#63b8ff" points="879,-29.39 875.5,-19.39 872,-29.39 879,-29.39"/>
</a>
</g>
</g>
<!-- Node16 -->
<g id="Node000016" class="node">
<title>Node16</title>
<g id="a_Node000016"><a xlink:href="NetworkManager_8hpp.html" target="_top" xlink:title=" ">
<polygon fill="white" stroke="#666666" points="1389,-129 1230,-129 1230,-110 1389,-110 1389,-129"/>
<text text-anchor="middle" x="1309.5" y="-117" font-family="Helvetica,sans-Serif" font-size="10.00">include/NetworkManager.hpp</text>
</a>
</g>
</g>
<!-- Node1&#45;&gt;Node16 -->
<g id="edge22_Node000001_Node000016" class="edge">
<title>Node1&#45;&gt;Node16</title>
<g id="a_edge22_Node000001_Node000016"><a xlink:title=" ">
<path fill="none" stroke="#63b8ff" d="M946.68,-219.98C1038.32,-194.86 1194.54,-152.02 1268.44,-131.76"/>
<polygon fill="#63b8ff" stroke="#63b8ff" points="1269.58,-135.07 1278.3,-129.05 1267.73,-128.32 1269.58,-135.07"/>
</a>
</g>
</g>
<!-- Node24 -->
<g id="Node000024" class="node">
<title>Node24</title>
<g id="a_Node000024"><a xlink:title=" ">
<polygon fill="#e0e0e0" stroke="#999999" points="1957,-74 1846,-74 1846,-55 1957,-55 1957,-74"/>
<text text-anchor="middle" x="1901.5" y="-62" font-family="Helvetica,sans-Serif" font-size="10.00">network/Action.hpp</text>
</a>
</g>
</g>
<!-- Node1&#45;&gt;Node24 -->
<g id="edge37_Node000001_Node000024" class="edge">
<title>Node1&#45;&gt;Node24</title>
<g id="a_edge37_Node000001_Node000024"><a xlink:title=" ">
<path fill="none" stroke="#63b8ff" d="M969.73,-223.52C1177.39,-188.3 1669.59,-104.83 1841.22,-75.72"/>
<polygon fill="#63b8ff" stroke="#63b8ff" points="1842.05,-79.13 1851.33,-74.01 1840.88,-72.23 1842.05,-79.13"/>
</a>
</g>
</g>
<!-- Node2&#45;&gt;Node3 -->
<g id="edge2_Node000002_Node000003" class="edge">
<title>Node2&#45;&gt;Node3</title>
<g id="a_edge2_Node000002_Node000003"><a xlink:title=" ">
<path fill="none" stroke="#63b8ff" d="M219.78,-164.98C188.45,-156.01 138.93,-141.82 104.26,-131.89"/>
<polygon fill="#63b8ff" stroke="#63b8ff" points="105.03,-128.47 94.46,-129.08 103.11,-135.2 105.03,-128.47"/>
</a>
</g>
</g>
<!-- Node4 -->
<g id="Node000004" class="node">
<title>Node4</title>
<g id="a_Node000004"><a xlink:title=" ">
<polygon fill="#e0e0e0" stroke="#999999" points="377,-19 226,-19 226,0 377,0 377,-19"/>
<text text-anchor="middle" x="301.5" y="-7" font-family="Helvetica,sans-Serif" font-size="10.00">components/Physics2D.hpp</text>
</a>
</g>
</g>
<!-- Node2&#45;&gt;Node4 -->
<g id="edge3_Node000002_Node000004" class="edge">
<title>Node2&#45;&gt;Node4</title>
<g id="a_edge3_Node000002_Node000004"><a xlink:title=" ">
<path fill="none" stroke="#63b8ff" d="M236.96,-164.94C209.47,-145.1 148.5,-94.69 176.5,-55 187.75,-39.05 205.25,-28.79 223.62,-22.19"/>
<polygon fill="#63b8ff" stroke="#63b8ff" points="224.85,-25.47 233.28,-19.06 222.69,-18.81 224.85,-25.47"/>
</a>
</g>
</g>
<!-- Node5 -->
<g id="Node000005" class="node">
<title>Node5</title>
<g id="a_Node000005"><a xlink:href="InputManager_8hpp.html" target="_top" xlink:title=" ">
<polygon fill="white" stroke="#666666" points="408,-129 271,-129 271,-110 408,-110 408,-129"/>
<text text-anchor="middle" x="339.5" y="-117" font-family="Helvetica,sans-Serif" font-size="10.00">inputs/InputManager.hpp</text>
</a>
</g>
</g>
<!-- Node2&#45;&gt;Node5 -->
<g id="edge4_Node000002_Node000005" class="edge">
<title>Node2&#45;&gt;Node5</title>
<g id="a_edge4_Node000002_Node000005"><a xlink:title=" ">
<path fill="none" stroke="#63b8ff" d="M263.96,-164.98C277.92,-156.77 299.29,-144.18 315.75,-134.49"/>
<polygon fill="#63b8ff" stroke="#63b8ff" points="317.94,-137.26 324.78,-129.17 314.38,-131.23 317.94,-137.26"/>
</a>
</g>
</g>
<!-- Node5&#45;&gt;Node4 -->
<g id="edge6_Node000005_Node000004" class="edge">
<title>Node5&#45;&gt;Node4</title>
<g id="a_edge6_Node000005_Node000004"><a xlink:title=" ">
<path fill="none" stroke="#63b8ff" d="M336.39,-109.66C330.18,-92.01 316.13,-52.09 307.88,-28.64"/>
<polygon fill="#63b8ff" stroke="#63b8ff" points="311.17,-27.43 304.55,-19.16 304.56,-29.75 311.17,-27.43"/>
</a>
</g>
</g>
<!-- Node6 -->
<g id="Node000006" class="node">
<title>Node6</title>
<g id="a_Node000006"><a xlink:title=" ">
<polygon fill="#e0e0e0" stroke="#999999" points="492.5,-19 420.5,-19 420.5,0 492.5,0 492.5,-19"/>
<text text-anchor="middle" x="456.5" y="-7" font-family="Helvetica,sans-Serif" font-size="10.00">SDL2/SDL.h</text>
</a>
</g>
</g>
<!-- Node5&#45;&gt;Node6 -->
<g id="edge5_Node000005_Node000006" class="edge">
<title>Node5&#45;&gt;Node6</title>
<g id="a_edge5_Node000005_Node000006"><a xlink:title=" ">
<path fill="none" stroke="#63b8ff" d="M339.89,-109.6C340.93,-96.22 344.73,-70.78 358.5,-55 372.1,-39.42 392.27,-28.99 410.77,-22.17"/>
<polygon fill="#63b8ff" stroke="#63b8ff" points="411.93,-25.48 420.26,-18.93 409.66,-18.85 411.93,-25.48"/>
</a>
</g>
</g>
<!-- Node7 -->
<g id="Node000007" class="node">
<title>Node7</title>
<g id="a_Node000007"><a xlink:title=" ">
<polygon fill="#e0e0e0" stroke="#999999" points="659.5,-74 563.5,-74 563.5,-55 659.5,-55 659.5,-74"/>
<text text-anchor="middle" x="611.5" y="-62" font-family="Helvetica,sans-Serif" font-size="10.00">ecs/Registry.hpp</text>
</a>
</g>
</g>
<!-- Node5&#45;&gt;Node7 -->
<g id="edge7_Node000005_Node000007" class="edge">
<title>Node5&#45;&gt;Node7</title>
<g id="a_edge7_Node000005_Node000007"><a xlink:title=" ">
<path fill="none" stroke="#63b8ff" d="M383.2,-109.98C430.65,-100.74 506.47,-85.97 557.58,-76.01"/>
<polygon fill="#63b8ff" stroke="#63b8ff" points="558.31,-79.43 567.46,-74.08 556.97,-72.56 558.31,-79.43"/>
</a>
</g>
</g>
<!-- Node8 -->
<g id="Node000008" class="node">
<title>Node8</title>
<g id="a_Node000008"><a xlink:title=" ">
<polygon fill="#e0e0e0" stroke="#999999" points="273.5,-74 185.5,-74 185.5,-55 273.5,-55 273.5,-74"/>
<text text-anchor="middle" x="229.5" y="-62" font-family="Helvetica,sans-Serif" font-size="10.00">ecs/Zipper.hpp</text>
</a>
</g>
</g>
<!-- Node5&#45;&gt;Node8 -->
<g id="edge8_Node000005_Node000008" class="edge">
<title>Node5&#45;&gt;Node8</title>
<g id="a_edge8_Node000005_Node000008"><a xlink:title=" ">
<path fill="none" stroke="#63b8ff" d="M321.83,-109.98C304.21,-101.5 276.92,-88.35 256.57,-78.54"/>
<polygon fill="#63b8ff" stroke="#63b8ff" points="258.02,-75.36 247.49,-74.17 254.98,-81.66 258.02,-75.36"/>
</a>
</g>
</g>
<!-- Node9 -->
<g id="Node000009" class="node">
<title>Node9</title>
<g id="a_Node000009"><a xlink:href="RenderComponents_8hpp.html" target="_top" xlink:title=" ">
<polygon fill="white" stroke="#666666" points="545.5,-74 367.5,-74 367.5,-55 545.5,-55 545.5,-74"/>
<text text-anchor="middle" x="456.5" y="-62" font-family="Helvetica,sans-Serif" font-size="10.00">graphics/RenderComponents.hpp</text>
</a>
</g>
</g>
<!-- Node5&#45;&gt;Node9 -->
<g id="edge9_Node000005_Node000009" class="edge">
<title>Node5&#45;&gt;Node9</title>
<g id="a_edge9_Node000005_Node000009"><a xlink:title=" ">
<path fill="none" stroke="#63b8ff" d="M358.3,-109.98C377.12,-101.46 406.32,-88.23 428,-78.41"/>
<polygon fill="#63b8ff" stroke="#63b8ff" points="429.7,-81.48 437.36,-74.17 426.81,-75.11 429.7,-81.48"/>
</a>
</g>
</g>
<!-- Node11 -->
<g id="Node000011" class="node">
<title>Node11</title>
<g id="a_Node000011"><a xlink:href="KeyBindings_8hpp.html" target="_top" xlink:title=" ">
<polygon fill="white" stroke="#666666" points="847,-74 716,-74 716,-55 847,-55 847,-74"/>
<text text-anchor="middle" x="781.5" y="-62" font-family="Helvetica,sans-Serif" font-size="10.00">inputs/KeyBindings.hpp</text>
</a>
</g>
</g>
<!-- Node5&#45;&gt;Node11 -->
<g id="edge13_Node000005_Node000011" class="edge">
<title>Node5&#45;&gt;Node11</title>
<g id="a_edge13_Node000005_Node000011"><a xlink:title=" ">
<path fill="none" stroke="#63b8ff" d="M408.08,-110.28C488.7,-100.61 622.08,-84.62 705.71,-74.59"/>
<polygon fill="#63b8ff" stroke="#63b8ff" points="706.14,-78.06 715.65,-73.4 705.31,-71.11 706.14,-78.06"/>
</a>
</g>
</g>
<!-- Node9&#45;&gt;Node4 -->
<g id="edge12_Node000009_Node000004" class="edge">
<title>Node9&#45;&gt;Node4</title>
<g id="a_edge12_Node000009_Node000004"><a xlink:title=" ">
<path fill="none" stroke="#63b8ff" d="M431.6,-54.98C405.8,-46.16 365.28,-32.31 336.32,-22.41"/>
<polygon fill="#63b8ff" stroke="#63b8ff" points="337.19,-19.01 326.6,-19.08 334.93,-25.63 337.19,-19.01"/>
</a>
</g>
</g>
<!-- Node9&#45;&gt;Node6 -->
<g id="edge10_Node000009_Node000006" class="edge">
<title>Node9&#45;&gt;Node6</title>
<g id="a_edge10_Node000009_Node000006"><a xlink:title=" ">
<path fill="none" stroke="#63b8ff" d="M456.5,-54.75C456.5,-47.8 456.5,-37.85 456.5,-29.13"/>
<polygon fill="#63b8ff" stroke="#63b8ff" points="460,-29.09 456.5,-19.09 453,-29.09 460,-29.09"/>
</a>
</g>
</g>
<!-- Node10 -->
<g id="Node000010" class="node">
<title>Node10</title>
<g id="a_Node000010"><a xlink:title=" ">
<polygon fill="#e0e0e0" stroke="#999999" points="642.5,-19 598.5,-19 598.5,0 642.5,0 642.5,-19"/>
<text text-anchor="middle" x="620.5" y="-7" font-family="Helvetica,sans-Serif" font-size="10.00">string</text>
</a>
</g>
</g>
<!-- Node9&#45;&gt;Node10 -->
<g id="edge11_Node000009_Node000010" class="edge">
<title>Node9&#45;&gt;Node10</title>
<g id="a_edge11_Node000009_Node000010"><a xlink:title=" ">
<path fill="none" stroke="#63b8ff" d="M482.85,-54.98C511.65,-45.68 557.78,-30.77 588.6,-20.81"/>
<polygon fill="#63b8ff" stroke="#63b8ff" points="589.98,-24.04 598.42,-17.63 587.83,-17.38 589.98,-24.04"/>
</a>
</g>
</g>
<!-- Node11&#45;&gt;Node6 -->
<g id="edge14_Node000011_Node000006" class="edge">
<title>Node11&#45;&gt;Node6</title>
<g id="a_edge14_Node000011_Node000006"><a xlink:title=" ">
<path fill="none" stroke="#63b8ff" d="M729.28,-54.98C666.69,-44.78 562.77,-27.83 502.89,-18.07"/>
<polygon fill="#63b8ff" stroke="#63b8ff" points="503.39,-14.6 492.96,-16.45 502.26,-21.51 503.39,-14.6"/>
</a>
</g>
</g>
<!-- Node11&#45;&gt;Node10 -->
<g id="edge17_Node000011_Node000010" class="edge">
<title>Node11&#45;&gt;Node10</title>
<g id="a_edge17_Node000011_Node000010"><a xlink:title=" ">
<path fill="none" stroke="#63b8ff" d="M755.63,-54.98C727.52,-45.73 682.58,-30.94 652.33,-20.98"/>
<polygon fill="#63b8ff" stroke="#63b8ff" points="653.27,-17.6 642.68,-17.8 651.08,-24.25 653.27,-17.6"/>
</a>
</g>
</g>
<!-- Node12 -->
<g id="Node000012" class="node">
<title>Node12</title>
<g id="a_Node000012"><a xlink:title=" ">
<polygon fill="#e0e0e0" stroke="#999999" points="827,-19 772,-19 772,0 827,0 827,-19"/>
<text text-anchor="middle" x="799.5" y="-7" font-family="Helvetica,sans-Serif" font-size="10.00">fstream</text>
</a>
</g>
</g>
<!-- Node11&#45;&gt;Node12 -->
<g id="edge15_Node000011_Node000012" class="edge">
<title>Node11&#45;&gt;Node12</title>
<g id="a_edge15_Node000011_Node000012"><a xlink:title=" ">
<path fill="none" stroke="#63b8ff" d="M784.47,-54.75C786.86,-47.72 790.29,-37.62 793.27,-28.84"/>
<polygon fill="#63b8ff" stroke="#63b8ff" points="796.68,-29.68 796.58,-19.09 790.05,-27.43 796.68,-29.68"/>
</a>
</g>
</g>
<!-- Node11&#45;&gt;Node13 -->
<g id="edge16_Node000011_Node000013" class="edge">
<title>Node11&#45;&gt;Node13</title>
<g id="a_edge16_Node000011_Node000013"><a xlink:title=" ">
<path fill="none" stroke="#63b8ff" d="M796.6,-54.98C811.32,-46.69 833.92,-33.94 851.17,-24.22"/>
<polygon fill="#63b8ff" stroke="#63b8ff" points="853.13,-27.13 860.12,-19.17 849.69,-21.03 853.13,-27.13"/>
</a>
</g>
</g>
<!-- Node14 -->
<g id="Node000014" class="node">
<title>Node14</title>
<g id="a_Node000014"><a xlink:title=" ">
<polygon fill="#e0e0e0" stroke="#999999" points="754,-19 661,-19 661,0 754,0 754,-19"/>
<text text-anchor="middle" x="707.5" y="-7" font-family="Helvetica,sans-Serif" font-size="10.00">unordered_map</text>
</a>
</g>
</g>
<!-- Node11&#45;&gt;Node14 -->
<g id="edge18_Node000011_Node000014" class="edge">
<title>Node11&#45;&gt;Node14</title>
<g id="a_edge18_Node000011_Node000014"><a xlink:title=" ">
<path fill="none" stroke="#63b8ff" d="M769.61,-54.98C758.35,-46.92 741.21,-34.65 727.79,-25.03"/>
<polygon fill="#63b8ff" stroke="#63b8ff" points="729.77,-22.15 719.61,-19.17 725.7,-27.84 729.77,-22.15"/>
</a>
</g>
</g>
<!-- Node15 -->
<g id="Node000015" class="node">
<title>Node15</title>
<g id="a_Node000015"><a xlink:title=" ">
<polygon fill="#e0e0e0" stroke="#999999" points="1547,-19 1500,-19 1500,0 1547,0 1547,-19"/>
<text text-anchor="middle" x="1523.5" y="-7" font-family="Helvetica,sans-Serif" font-size="10.00">vector</text>
</a>
</g>
</g>
<!-- Node11&#45;&gt;Node15 -->
<g id="edge19_Node000011_Node000015" class="edge">
<title>Node11&#45;&gt;Node15</title>
<g id="a_edge19_Node000011_Node000015"><a xlink:title=" ">
<path fill="none" stroke="#63b8ff" d="M847.22,-58.51C862.73,-57.34 879.2,-56.12 894.5,-55 1121.85,-38.41 1395.49,-19.37 1489.71,-12.84"/>
<polygon fill="#63b8ff" stroke="#63b8ff" points="1490.06,-16.32 1499.79,-12.14 1489.57,-9.34 1490.06,-16.32"/>
</a>
</g>
</g>
<!-- Node16&#45;&gt;Node10 -->
<g id="edge26_Node000016_Node000010" class="edge">
<title>Node16&#45;&gt;Node10</title>
<g id="a_edge26_Node000016_Node000010"><a xlink:title=" ">
<path fill="none" stroke="#63b8ff" d="M1229.97,-118.08C1088.76,-116.43 800.32,-108.76 706.5,-74 678.93,-63.79 652.56,-41.9 636.45,-26.7"/>
<polygon fill="#63b8ff" stroke="#63b8ff" points="638.62,-23.93 629.01,-19.46 633.74,-28.94 638.62,-23.93"/>
</a>
</g>
</g>
<!-- Node16&#45;&gt;Node15 -->
<g id="edge28_Node000016_Node000015" class="edge">
<title>Node16&#45;&gt;Node15</title>
<g id="a_edge28_Node000016_Node000015"><a xlink:title=" ">
<path fill="none" stroke="#63b8ff" d="M1379.85,-109.98C1428.06,-102.78 1486.43,-90.9 1504.5,-74 1516.7,-62.58 1521.17,-43.69 1522.76,-29.48"/>
<polygon fill="#63b8ff" stroke="#63b8ff" points="1526.26,-29.54 1523.51,-19.31 1519.28,-29.03 1526.26,-29.54"/>
</a>
</g>
</g>
<!-- Node17 -->
<g id="Node000017" class="node">
<title>Node17</title>
<g id="a_Node000017"><a xlink:title=" ">
<polygon fill="#e0e0e0" stroke="#999999" points="1761.5,-74 1711.5,-74 1711.5,-55 1761.5,-55 1761.5,-74"/>
<text text-anchor="middle" x="1736.5" y="-62" font-family="Helvetica,sans-Serif" font-size="10.00">cstring</text>
</a>
</g>
</g>
<!-- Node16&#45;&gt;Node17 -->
<g id="edge23_Node000016_Node000017" class="edge">
<title>Node16&#45;&gt;Node17</title>
<g id="a_edge23_Node000016_Node000017"><a xlink:title=" ">
<path fill="none" stroke="#63b8ff" d="M1389.36,-112.57C1466.83,-106.11 1587.81,-94.16 1701.42,-73.97"/>
<polygon fill="#63b8ff" stroke="#63b8ff" points="1702.11,-77.4 1711.33,-72.19 1700.87,-70.51 1702.11,-77.4"/>
</a>
</g>
</g>
<!-- Node18 -->
<g id="Node000018" class="node">
<title>Node18</title>
<g id="a_Node000018"><a xlink:title=" ">
<polygon fill="#e0e0e0" stroke="#999999" points="1827.5,-74 1779.5,-74 1779.5,-55 1827.5,-55 1827.5,-74"/>
<text text-anchor="middle" x="1803.5" y="-62" font-family="Helvetica,sans-Serif" font-size="10.00">mutex</text>
</a>
</g>
</g>
<!-- Node16&#45;&gt;Node18 -->
<g id="edge24_Node000016_Node000018" class="edge">
<title>Node16&#45;&gt;Node18</title>
<g id="a_edge24_Node000016_Node000018"><a xlink:title=" ">
<path fill="none" stroke="#63b8ff" d="M1389.13,-114.59C1479.27,-109.31 1630.56,-97.89 1769.47,-73.91"/>
<polygon fill="#63b8ff" stroke="#63b8ff" points="1770.2,-77.33 1779.44,-72.16 1768.99,-70.44 1770.2,-77.33"/>
</a>
</g>
</g>
<!-- Node19 -->
<g id="Node000019" class="node">
<title>Node19</title>
<g id="a_Node000019"><a xlink:title=" ">
<polygon fill="#e0e0e0" stroke="#999999" points="951,-74 904,-74 904,-55 951,-55 951,-74"/>
<text text-anchor="middle" x="927.5" y="-62" font-family="Helvetica,sans-Serif" font-size="10.00">queue</text>
</a>
</g>
</g>
<!-- Node16&#45;&gt;Node19 -->
<g id="edge25_Node000016_Node000019" class="edge">
<title>Node16&#45;&gt;Node19</title>
<g id="a_edge25_Node000016_Node000019"><a xlink:title=" ">
<path fill="none" stroke="#63b8ff" d="M1229.7,-111.2C1161.03,-104.26 1059.17,-92.39 961.28,-73.91"/>
<polygon fill="#63b8ff" stroke="#63b8ff" points="961.69,-70.43 951.21,-71.99 960.38,-77.3 961.69,-70.43"/>
</a>
</g>
</g>
<!-- Node20 -->
<g id="Node000020" class="node">
<title>Node20</title>
<g id="a_Node000020"><a xlink:title=" ">
<polygon fill="#e0e0e0" stroke="#999999" points="1017.5,-74 969.5,-74 969.5,-55 1017.5,-55 1017.5,-74"/>
<text text-anchor="middle" x="993.5" y="-62" font-family="Helvetica,sans-Serif" font-size="10.00">thread</text>
</a>
</g>
</g>
<!-- Node16&#45;&gt;Node20 -->
<g id="edge27_Node000016_Node000020" class="edge">
<title>Node16&#45;&gt;Node20</title>
<g id="a_edge27_Node000016_Node000020"><a xlink:title=" ">
<path fill="none" stroke="#63b8ff" d="M1243.7,-109.98C1188.5,-102.41 1107.39,-90.33 1027.79,-74.1"/>
<polygon fill="#63b8ff" stroke="#63b8ff" points="1028.09,-70.58 1017.59,-71.99 1026.67,-77.44 1028.09,-70.58"/>
</a>
</g>
</g>
<!-- Node21 -->
<g id="Node000021" class="node">
<title>Node21</title>
<g id="a_Node000021"><a xlink:title=" ">
<polygon fill="#e0e0e0" stroke="#999999" points="1093.5,-74 1035.5,-74 1035.5,-55 1093.5,-55 1093.5,-74"/>
<text text-anchor="middle" x="1064.5" y="-62" font-family="Helvetica,sans-Serif" font-size="10.00">asio.hpp</text>
</a>
</g>
</g>
<!-- Node16&#45;&gt;Node21 -->
<g id="edge29_Node000016_Node000021" class="edge">
<title>Node16&#45;&gt;Node21</title>
<g id="a_edge29_Node000016_Node000021"><a xlink:title=" ">
<path fill="none" stroke="#63b8ff" d="M1269.41,-109.98C1229.73,-101.53 1166.99,-88.11 1103.35,-74.17"/>
<polygon fill="#63b8ff" stroke="#63b8ff" points="1104.06,-70.74 1093.54,-72.02 1102.56,-77.58 1104.06,-70.74"/>
</a>
</g>
</g>
<!-- Node22 -->
<g id="Node000022" class="node">
<title>Node22</title>
<g id="a_Node000022"><a xlink:href="CircularBuffer_8hpp.html" target="_top" xlink:title=" ">
<polygon fill="white" stroke="#666666" points="1693.5,-74 1551.5,-74 1551.5,-55 1693.5,-55 1693.5,-74"/>
<text text-anchor="middle" x="1622.5" y="-62" font-family="Helvetica,sans-Serif" font-size="10.00">include/CircularBuffer.hpp</text>
</a>
</g>
</g>
<!-- Node16&#45;&gt;Node22 -->
<g id="edge30_Node000016_Node000022" class="edge">
<title>Node16&#45;&gt;Node22</title>
<g id="a_edge30_Node000016_Node000022"><a xlink:title=" ">
<path fill="none" stroke="#63b8ff" d="M1359.79,-109.98C1414.92,-100.65 1503.35,-85.67 1562.18,-75.71"/>
<polygon fill="#63b8ff" stroke="#63b8ff" points="1562.8,-79.16 1572.08,-74.04 1561.63,-72.26 1562.8,-79.16"/>
</a>
</g>
</g>
<!-- Node16&#45;&gt;Node24 -->
<g id="edge33_Node000016_Node000024" class="edge">
<title>Node16&#45;&gt;Node24</title>
<g id="a_edge33_Node000016_Node000024"><a xlink:title=" ">
<path fill="none" stroke="#63b8ff" d="M1389.07,-112.92C1490.23,-105.57 1670.52,-91.62 1835.51,-74.06"/>
<polygon fill="#63b8ff" stroke="#63b8ff" points="1836.28,-77.49 1845.85,-72.95 1835.53,-70.53 1836.28,-77.49"/>
</a>
</g>
</g>
<!-- Node25 -->
<g id="Node000025" class="node">
<title>Node25</title>
<g id="a_Node000025"><a xlink:title=" ">
<polygon fill="#e0e0e0" stroke="#999999" points="1231.5,-74 1111.5,-74 1111.5,-55 1231.5,-55 1231.5,-74"/>
<text text-anchor="middle" x="1171.5" y="-62" font-family="Helvetica,sans-Serif" font-size="10.00">network/Decoder.hpp</text>
</a>
</g>
</g>
<!-- Node16&#45;&gt;Node25 -->
<g id="edge34_Node000016_Node000025" class="edge">
<title>Node16&#45;&gt;Node25</title>
<g id="a_edge34_Node000016_Node000025"><a xlink:title=" ">
<path fill="none" stroke="#63b8ff" d="M1287.33,-109.98C1264.73,-101.3 1229.44,-87.75 1203.75,-77.88"/>
<polygon fill="#63b8ff" stroke="#63b8ff" points="1204.67,-74.49 1194.08,-74.17 1202.16,-81.02 1204.67,-74.49"/>
</a>
</g>
</g>
<!-- Node26 -->
<g id="Node000026" class="node">
<title>Node26</title>
<g id="a_Node000026"><a xlink:title=" ">
<polygon fill="#e0e0e0" stroke="#999999" points="1369,-74 1250,-74 1250,-55 1369,-55 1369,-74"/>
<text text-anchor="middle" x="1309.5" y="-62" font-family="Helvetica,sans-Serif" font-size="10.00">network/Encoder.hpp</text>
</a>
</g>
</g>
<!-- Node16&#45;&gt;Node26 -->
<g id="edge35_Node000016_Node000026" class="edge">
<title>Node16&#45;&gt;Node26</title>
<g id="a_edge35_Node000016_Node000026"><a xlink:title=" ">
<path fill="none" stroke="#63b8ff" d="M1309.5,-109.75C1309.5,-102.8 1309.5,-92.85 1309.5,-84.13"/>
<polygon fill="#63b8ff" stroke="#63b8ff" points="1313,-84.09 1309.5,-74.09 1306,-84.09 1313,-84.09"/>
</a>
</g>
</g>
<!-- Node27 -->
<g id="Node000027" class="node">
<title>Node27</title>
<g id="a_Node000027"><a xlink:title=" ">
<polygon fill="#e0e0e0" stroke="#999999" points="1495.5,-74 1387.5,-74 1387.5,-55 1495.5,-55 1495.5,-74"/>
<text text-anchor="middle" x="1441.5" y="-62" font-family="Helvetica,sans-Serif" font-size="10.00">network/Event.hpp</text>
</a>
</g>
</g>
<!-- Node16&#45;&gt;Node27 -->
<g id="edge36_Node000016_Node000027" class="edge">
<title>Node16&#45;&gt;Node27</title>
<g id="a_edge36_Node000016_Node000027"><a xlink:title=" ">
<path fill="none" stroke="#63b8ff" d="M1330.71,-109.98C1352.23,-101.34 1385.78,-87.87 1410.33,-78.02"/>
<polygon fill="#63b8ff" stroke="#63b8ff" points="1411.93,-81.14 1419.91,-74.17 1409.32,-74.65 1411.93,-81.14"/>
</a>
</g>
</g>
<!-- Node22&#45;&gt;Node15 -->
<g id="edge32_Node000022_Node000015" class="edge">
<title>Node22&#45;&gt;Node15</title>
<g id="a_edge32_Node000022_Node000015"><a xlink:title=" ">
<path fill="none" stroke="#63b8ff" d="M1606.59,-54.98C1590.95,-46.61 1566.84,-33.7 1548.62,-23.95"/>
<polygon fill="#63b8ff" stroke="#63b8ff" points="1550.16,-20.8 1539.7,-19.17 1546.86,-26.98 1550.16,-20.8"/>
</a>
</g>
</g>
<!-- Node23 -->
<g id="Node000023" class="node">
<title>Node23</title>
<g id="a_Node000023"><a xlink:title=" ">
<polygon fill="#e0e0e0" stroke="#999999" points="1650.5,-19 1594.5,-19 1594.5,0 1650.5,0 1650.5,-19"/>
<text text-anchor="middle" x="1622.5" y="-7" font-family="Helvetica,sans-Serif" font-size="10.00">optional</text>
</a>
</g>
</g>
<!-- Node22&#45;&gt;Node23 -->
<g id="edge31_Node000022_Node000023" class="edge">
<title>Node22&#45;&gt;Node23</title>
<g id="a_edge31_Node000022_Node000023"><a xlink:title=" ">
<path fill="none" stroke="#63b8ff" d="M1622.5,-54.75C1622.5,-47.8 1622.5,-37.85 1622.5,-29.13"/>
<polygon fill="#63b8ff" stroke="#63b8ff" points="1626,-29.09 1622.5,-19.09 1619,-29.09 1626,-29.09"/>
</a>
</g>
</g>
</g>
</svg>
