<?xml version="1.0" encoding="UTF-8" standalone="no"?>
<!DOCTYPE svg PUBLIC "-//W3C//DTD SVG 1.1//EN"
 "http://www.w3.org/Graphics/SVG/1.1/DTD/svg11.dtd">
<!-- Generated by graphviz version 2.43.0 (0)
 -->
<!-- Title: /home/runner/work/R&#45;Type/R&#45;Type/Client/src/engine/inputs/InputManager.cpp Pages: 1 -->
<svg width="1404pt" height="269pt"
 viewBox="0.00 0.00 1404.35 269.00" xmlns="http://www.w3.org/2000/svg" xmlns:xlink="http://www.w3.org/1999/xlink">
<g id="graph0" class="graph" transform="scale(1 1) rotate(0) translate(4 265)">
<title>/home/runner/work/R&#45;Type/R&#45;Type/Client/src/engine/inputs/InputManager.cpp</title>
<!-- Node1 -->
<g id="Node000001" class="node">
<title>Node1</title>
<g id="a_Node000001"><a xlink:title=" ">
<polygon fill="#999999" stroke="#666666" points="1073.28,-261 880.28,-261 880.28,-220 1073.28,-220 1073.28,-261"/>
<text text-anchor="start" x="888.28" y="-249" font-family="Helvetica,sans-Serif" font-size="10.00">/home/runner/work/R</text>
<text text-anchor="start" x="888.28" y="-238" font-family="Helvetica,sans-Serif" font-size="10.00">&#45;Type/R&#45;Type/Client</text>
<text text-anchor="middle" x="976.78" y="-227" font-family="Helvetica,sans-Serif" font-size="10.00">/src/engine/inputs/InputManager.cpp</text>
</a>
</g>
</g>
<!-- Node2 -->
<g id="Node000002" class="node">
<title>Node2</title>
<g id="a_Node000002"><a xlink:href="InputManager_8hpp.html" target="_top" xlink:title=" ">
<polygon fill="white" stroke="#666666" points="1094.28,-184 957.28,-184 957.28,-165 1094.28,-165 1094.28,-184"/>
<text text-anchor="middle" x="1025.78" y="-172" font-family="Helvetica,sans-Serif" font-size="10.00">inputs/InputManager.hpp</text>
</a>
</g>
</g>
<!-- Node1&#45;&gt;Node2 -->
<g id="edge1_Node000001_Node000002" class="edge">
<title>Node1&#45;&gt;Node2</title>
<g id="a_edge1_Node000001_Node000002"><a xlink:title=" ">
<path fill="none" stroke="#63b8ff" d="M991.75,-219.95C998.51,-211.11 1006.43,-200.77 1012.93,-192.29"/>
<polygon fill="#63b8ff" stroke="#63b8ff" points="1015.77,-194.33 1019.07,-184.26 1010.21,-190.07 1015.77,-194.33"/>
</a>
</g>
</g>
<!-- Node10 -->
<g id="Node000010" class="node">
<title>Node10</title>
<g id="a_Node000010"><a xlink:title=" ">
<polygon fill="#e0e0e0" stroke="#999999" points="963.78,-74 903.78,-74 903.78,-55 963.78,-55 963.78,-74"/>
<text text-anchor="middle" x="933.78" y="-62" font-family="Helvetica,sans-Serif" font-size="10.00">iostream</text>
</a>
</g>
</g>
<!-- Node1&#45;&gt;Node10 -->
<g id="edge40_Node000001_Node000010" class="edge">
<title>Node1&#45;&gt;Node10</title>
<g id="a_edge40_Node000001_Node000010"><a xlink:title=" ">
<path fill="none" stroke="#63b8ff" d="M964.81,-219.89C959.06,-209.57 952.59,-196.49 948.78,-184 938.31,-149.74 935.14,-107.77 934.18,-84.08"/>
<polygon fill="#63b8ff" stroke="#63b8ff" points="937.68,-83.93 933.87,-74.04 930.68,-84.14 937.68,-83.93"/>
</a>
</g>
</g>
<!-- Node3 -->
<g id="Node000003" class="node">
<title>Node3</title>
<g id="a_Node000003"><a xlink:title=" ">
<polygon fill="#e0e0e0" stroke="#999999" points="1252.78,-19 1180.78,-19 1180.78,0 1252.78,0 1252.78,-19"/>
<text text-anchor="middle" x="1216.78" y="-7" font-family="Helvetica,sans-Serif" font-size="10.00">SDL2/SDL.h</text>
</a>
</g>
</g>
<!-- Node2&#45;&gt;Node3 -->
<g id="edge2_Node000002_Node000003" class="edge">
<title>Node2&#45;&gt;Node3</title>
<g id="a_edge2_Node000002_Node000003"><a xlink:title=" ">
<path fill="none" stroke="#63b8ff" d="M1094.42,-171.42C1154.01,-167.64 1241.67,-157.24 1312.78,-129 1352.88,-113.07 1372.69,-112.19 1392.78,-74 1396.71,-66.53 1397.97,-61.66 1392.78,-55 1384.69,-44.62 1312.26,-28.84 1262.88,-19.13"/>
<polygon fill="#63b8ff" stroke="#63b8ff" points="1263.51,-15.69 1253.03,-17.21 1262.17,-22.56 1263.51,-15.69"/>
</a>
</g>
</g>
<!-- Node4 -->
<g id="Node000004" class="node">
<title>Node4</title>
<g id="a_Node000004"><a xlink:href="Physics2D_8hpp.html" target="_top" xlink:title=" ">
<polygon fill="white" stroke="#666666" points="1383.28,-74 1232.28,-74 1232.28,-55 1383.28,-55 1383.28,-74"/>
<text text-anchor="middle" x="1307.78" y="-62" font-family="Helvetica,sans-Serif" font-size="10.00">components/Physics2D.hpp</text>
</a>
</g>
</g>
<!-- Node2&#45;&gt;Node4 -->
<g id="edge3_Node000002_Node000004" class="edge">
<title>Node2&#45;&gt;Node4</title>
<g id="a_edge3_Node000002_Node000004"><a xlink:title=" ">
<path fill="none" stroke="#63b8ff" d="M1094.51,-170.66C1164.25,-166.33 1265.81,-155.54 1293.78,-129 1305.67,-117.72 1308.57,-98.81 1308.86,-84.55"/>
<polygon fill="#63b8ff" stroke="#63b8ff" points="1312.36,-84.28 1308.65,-74.35 1305.36,-84.42 1312.36,-84.28"/>
</a>
</g>
</g>
<!-- Node6 -->
<g id="Node000006" class="node">
<title>Node6</title>
<g id="a_Node000006"><a xlink:href="Registry_8hpp.html" target="_top" xlink:title=" ">
<polygon fill="white" stroke="#666666" points="565.78,-129 469.78,-129 469.78,-110 565.78,-110 565.78,-129"/>
<text text-anchor="middle" x="517.78" y="-117" font-family="Helvetica,sans-Serif" font-size="10.00">ecs/Registry.hpp</text>
</a>
</g>
</g>
<!-- Node2&#45;&gt;Node6 -->
<g id="edge6_Node000002_Node000006" class="edge">
<title>Node2&#45;&gt;Node6</title>
<g id="a_edge6_Node000002_Node000006"><a xlink:title=" ">
<path fill="none" stroke="#63b8ff" d="M957.27,-166.35C856.64,-155.85 670.6,-136.44 576.12,-126.59"/>
<polygon fill="#63b8ff" stroke="#63b8ff" points="576.19,-123.08 565.89,-125.52 575.47,-130.04 576.19,-123.08"/>
</a>
</g>
</g>
<!-- Node21 -->
<g id="Node000021" class="node">
<title>Node21</title>
<g id="a_Node000021"><a xlink:href="Zipper_8hpp.html" target="_top" xlink:title=" ">
<polygon fill="white" stroke="#666666" points="150.78,-129 62.78,-129 62.78,-110 150.78,-110 150.78,-129"/>
<text text-anchor="middle" x="106.78" y="-117" font-family="Helvetica,sans-Serif" font-size="10.00">ecs/Zipper.hpp</text>
</a>
</g>
</g>
<!-- Node2&#45;&gt;Node21 -->
<g id="edge23_Node000002_Node000021" class="edge">
<title>Node2&#45;&gt;Node21</title>
<g id="a_edge23_Node000002_Node000021"><a xlink:title=" ">
<path fill="none" stroke="#63b8ff" d="M957.08,-169.54C781.54,-159.41 319.26,-132.75 160.9,-123.62"/>
<polygon fill="#63b8ff" stroke="#63b8ff" points="161.1,-120.13 150.92,-123.05 160.7,-127.12 161.1,-120.13"/>
</a>
</g>
</g>
<!-- Node23 -->
<g id="Node000023" class="node">
<title>Node23</title>
<g id="a_Node000023"><a xlink:href="RenderComponents_8hpp.html" target="_top" xlink:title=" ">
<polygon fill="white" stroke="#666666" points="1284.78,-129 1106.78,-129 1106.78,-110 1284.78,-110 1284.78,-129"/>
<text text-anchor="middle" x="1195.78" y="-117" font-family="Helvetica,sans-Serif" font-size="10.00">graphics/RenderComponents.hpp</text>
</a>
</g>
</g>
<!-- Node2&#45;&gt;Node23 -->
<g id="edge29_Node000002_Node000023" class="edge">
<title>Node2&#45;&gt;Node23</title>
<g id="a_edge29_Node000002_Node000023"><a xlink:title=" ">
<path fill="none" stroke="#63b8ff" d="M1053.09,-164.98C1081.63,-156.09 1126.6,-142.07 1158.42,-132.15"/>
<polygon fill="#63b8ff" stroke="#63b8ff" points="1159.75,-135.4 1168.25,-129.08 1157.66,-128.72 1159.75,-135.4"/>
</a>
</g>
</g>
<!-- Node25 -->
<g id="Node000025" class="node">
<title>Node25</title>
<g id="a_Node000025"><a xlink:href="KeyBindings_8hpp.html" target="_top" xlink:title=" ">
<polygon fill="white" stroke="#666666" points="1088.28,-129 957.28,-129 957.28,-110 1088.28,-110 1088.28,-129"/>
<text text-anchor="middle" x="1022.78" y="-117" font-family="Helvetica,sans-Serif" font-size="10.00">inputs/KeyBindings.hpp</text>
</a>
</g>
</g>
<!-- Node2&#45;&gt;Node25 -->
<g id="edge33_Node000002_Node000025" class="edge">
<title>Node2&#45;&gt;Node25</title>
<g id="a_edge33_Node000002_Node000025"><a xlink:title=" ">
<path fill="none" stroke="#63b8ff" d="M1025.28,-164.75C1024.89,-157.8 1024.33,-147.85 1023.83,-139.13"/>
<polygon fill="#63b8ff" stroke="#63b8ff" points="1027.32,-138.88 1023.26,-129.09 1020.33,-139.27 1027.32,-138.88"/>
</a>
</g>
</g>
<!-- Node4&#45;&gt;Node3 -->
<g id="edge4_Node000004_Node000003" class="edge">
<title>Node4&#45;&gt;Node3</title>
<g id="a_edge4_Node000004_Node000003"><a xlink:title=" ">
<path fill="none" stroke="#63b8ff" d="M1293.16,-54.98C1278.91,-46.69 1257.03,-33.94 1240.33,-24.22"/>
<polygon fill="#63b8ff" stroke="#63b8ff" points="1242.07,-21.18 1231.66,-19.17 1238.54,-27.23 1242.07,-21.18"/>
</a>
</g>
</g>
<!-- Node5 -->
<g id="Node000005" class="node">
<title>Node5</title>
<g id="a_Node000005"><a xlink:title=" ">
<polygon fill="#e0e0e0" stroke="#999999" points="1331.28,-19 1284.28,-19 1284.28,0 1331.28,0 1331.28,-19"/>
<text text-anchor="middle" x="1307.78" y="-7" font-family="Helvetica,sans-Serif" font-size="10.00">cmath</text>
</a>
</g>
</g>
<!-- Node4&#45;&gt;Node5 -->
<g id="edge5_Node000004_Node000005" class="edge">
<title>Node4&#45;&gt;Node5</title>
<g id="a_edge5_Node000004_Node000005"><a xlink:title=" ">
<path fill="none" stroke="#63b8ff" d="M1307.78,-54.75C1307.78,-47.8 1307.78,-37.85 1307.78,-29.13"/>
<polygon fill="#63b8ff" stroke="#63b8ff" points="1311.28,-29.09 1307.78,-19.09 1304.28,-29.09 1311.28,-29.09"/>
</a>
</g>
</g>
<!-- Node7 -->
<g id="Node000007" class="node">
<title>Node7</title>
<g id="a_Node000007"><a xlink:title=" ">
<polygon fill="#e0e0e0" stroke="#999999" points="221.78,-74 157.78,-74 157.78,-55 221.78,-55 221.78,-74"/>
<text text-anchor="middle" x="189.78" y="-62" font-family="Helvetica,sans-Serif" font-size="10.00">algorithm</text>
</a>
</g>
</g>
<!-- Node6&#45;&gt;Node7 -->
<g id="edge7_Node000006_Node000007" class="edge">
<title>Node6&#45;&gt;Node7</title>
<g id="a_edge7_Node000006_Node000007"><a xlink:title=" ">
<path fill="none" stroke="#63b8ff" d="M469.56,-111.28C413.37,-102.78 317.73,-88.04 235.78,-74 234.52,-73.78 233.24,-73.56 231.95,-73.34"/>
<polygon fill="#63b8ff" stroke="#63b8ff" points="232.39,-69.86 221.93,-71.55 231.16,-76.75 232.39,-69.86"/>
</a>
</g>
</g>
<!-- Node8 -->
<g id="Node000008" class="node">
<title>Node8</title>
<g id="a_Node000008"><a xlink:title=" ">
<polygon fill="#e0e0e0" stroke="#999999" points="313.28,-74 278.28,-74 278.28,-55 313.28,-55 313.28,-74"/>
<text text-anchor="middle" x="295.78" y="-62" font-family="Helvetica,sans-Serif" font-size="10.00">any</text>
</a>
</g>
</g>
<!-- Node6&#45;&gt;Node8 -->
<g id="edge8_Node000006_Node000008" class="edge">
<title>Node6&#45;&gt;Node8</title>
<g id="a_edge8_Node000006_Node000008"><a xlink:title=" ">
<path fill="none" stroke="#63b8ff" d="M475.05,-109.99C437.34,-102.22 380.69,-89.89 323.3,-74.23"/>
<polygon fill="#63b8ff" stroke="#63b8ff" points="323.9,-70.77 313.33,-71.48 322.04,-77.52 323.9,-70.77"/>
</a>
</g>
</g>
<!-- Node9 -->
<g id="Node000009" class="node">
<title>Node9</title>
<g id="a_Node000009"><a xlink:title=" ">
<polygon fill="#e0e0e0" stroke="#999999" points="139.28,-74 74.28,-74 74.28,-55 139.28,-55 139.28,-74"/>
<text text-anchor="middle" x="106.78" y="-62" font-family="Helvetica,sans-Serif" font-size="10.00">functional</text>
</a>
</g>
</g>
<!-- Node6&#45;&gt;Node9 -->
<g id="edge9_Node000006_Node000009" class="edge">
<title>Node6&#45;&gt;Node9</title>
<g id="a_edge9_Node000006_Node000009"><a xlink:title=" ">
<path fill="none" stroke="#63b8ff" d="M469.55,-113.92C400.84,-107.13 270.65,-93.25 149.49,-73.98"/>
<polygon fill="#63b8ff" stroke="#63b8ff" points="149.72,-70.48 139.29,-72.35 148.61,-77.39 149.72,-70.48"/>
</a>
</g>
</g>
<!-- Node6&#45;&gt;Node10 -->
<g id="edge10_Node000006_Node000010" class="edge">
<title>Node6&#45;&gt;Node10</title>
<g id="a_edge10_Node000006_Node000010"><a xlink:title=" ">
<path fill="none" stroke="#63b8ff" d="M565.9,-114.33C635.87,-107.93 769.98,-94.43 893.58,-74.05"/>
<polygon fill="#63b8ff" stroke="#63b8ff" points="894.31,-77.48 903.6,-72.38 893.16,-70.57 894.31,-77.48"/>
</a>
</g>
</g>
<!-- Node11 -->
<g id="Node000011" class="node">
<title>Node11</title>
<g id="a_Node000011"><a xlink:title=" ">
<polygon fill="#e0e0e0" stroke="#999999" points="396.28,-74 331.28,-74 331.28,-55 396.28,-55 396.28,-74"/>
<text text-anchor="middle" x="363.78" y="-62" font-family="Helvetica,sans-Serif" font-size="10.00">typeindex</text>
</a>
</g>
</g>
<!-- Node6&#45;&gt;Node11 -->
<g id="edge11_Node000006_Node000011" class="edge">
<title>Node6&#45;&gt;Node11</title>
<g id="a_edge11_Node000006_Node000011"><a xlink:title=" ">
<path fill="none" stroke="#63b8ff" d="M493.04,-109.98C467.4,-101.16 427.15,-87.31 398.37,-77.41"/>
<polygon fill="#63b8ff" stroke="#63b8ff" points="399.31,-74.03 388.71,-74.08 397.03,-80.65 399.31,-74.03"/>
</a>
</g>
</g>
<!-- Node12 -->
<g id="Node000012" class="node">
<title>Node12</title>
<g id="a_Node000012"><a xlink:title=" ">
<polygon fill="#e0e0e0" stroke="#999999" points="885.28,-74 792.28,-74 792.28,-55 885.28,-55 885.28,-74"/>
<text text-anchor="middle" x="838.78" y="-62" font-family="Helvetica,sans-Serif" font-size="10.00">unordered_map</text>
</a>
</g>
</g>
<!-- Node6&#45;&gt;Node12 -->
<g id="edge12_Node000006_Node000012" class="edge">
<title>Node6&#45;&gt;Node12</title>
<g id="a_edge12_Node000006_Node000012"><a xlink:title=" ">
<path fill="none" stroke="#63b8ff" d="M565.83,-110.57C623.74,-101 720.88,-84.97 782.31,-74.82"/>
<polygon fill="#63b8ff" stroke="#63b8ff" points="782.92,-78.27 792.22,-73.19 781.78,-71.36 782.92,-78.27"/>
</a>
</g>
</g>
<!-- Node13 -->
<g id="Node000013" class="node">
<title>Node13</title>
<g id="a_Node000013"><a xlink:title=" ">
<polygon fill="#e0e0e0" stroke="#999999" points="500.78,-74 414.78,-74 414.78,-55 500.78,-55 500.78,-74"/>
<text text-anchor="middle" x="457.78" y="-62" font-family="Helvetica,sans-Serif" font-size="10.00">unordered_set</text>
</a>
</g>
</g>
<!-- Node6&#45;&gt;Node13 -->
<g id="edge13_Node000006_Node000013" class="edge">
<title>Node6&#45;&gt;Node13</title>
<g id="a_edge13_Node000006_Node000013"><a xlink:title=" ">
<path fill="none" stroke="#63b8ff" d="M508.14,-109.98C499.27,-102.15 485.9,-90.34 475.17,-80.86"/>
<polygon fill="#63b8ff" stroke="#63b8ff" points="477.41,-78.17 467.59,-74.17 472.77,-83.41 477.41,-78.17"/>
</a>
</g>
</g>
<!-- Node14 -->
<g id="Node000014" class="node">
<title>Node14</title>
<g id="a_Node000014"><a xlink:title=" ">
<polygon fill="#e0e0e0" stroke="#999999" points="272.28,-19 227.28,-19 227.28,0 272.28,0 272.28,-19"/>
<text text-anchor="middle" x="249.78" y="-7" font-family="Helvetica,sans-Serif" font-size="10.00">utility</text>
</a>
</g>
</g>
<!-- Node6&#45;&gt;Node14 -->
<g id="edge14_Node000006_Node000014" class="edge">
<title>Node6&#45;&gt;Node14</title>
<g id="a_edge14_Node000006_Node000014"><a xlink:title=" ">
<path fill="none" stroke="#63b8ff" d="M469.56,-115.79C405.71,-111.24 297.78,-99.87 268.78,-74 256.31,-62.88 251.87,-43.95 250.37,-29.64"/>
<polygon fill="#63b8ff" stroke="#63b8ff" points="253.84,-29.15 249.69,-19.4 246.86,-29.61 253.84,-29.15"/>
</a>
</g>
</g>
<!-- Node15 -->
<g id="Node000015" class="node">
<title>Node15</title>
<g id="a_Node000015"><a xlink:title=" ">
<polygon fill="#e0e0e0" stroke="#999999" points="686.28,-19 639.28,-19 639.28,0 686.28,0 686.28,-19"/>
<text text-anchor="middle" x="662.78" y="-7" font-family="Helvetica,sans-Serif" font-size="10.00">vector</text>
</a>
</g>
</g>
<!-- Node6&#45;&gt;Node15 -->
<g id="edge15_Node000006_Node000015" class="edge">
<title>Node6&#45;&gt;Node15</title>
<g id="a_edge15_Node000006_Node000015"><a xlink:title=" ">
<path fill="none" stroke="#63b8ff" d="M565.85,-111.97C591.8,-106.09 622.56,-94.98 642.78,-74 654.42,-61.92 659.29,-43.12 661.33,-29.1"/>
<polygon fill="#63b8ff" stroke="#63b8ff" points="664.81,-29.43 662.42,-19.11 657.85,-28.67 664.81,-29.43"/>
</a>
</g>
</g>
<!-- Node16 -->
<g id="Node000016" class="node">
<title>Node16</title>
<g id="a_Node000016"><a xlink:href="Entity_8hpp.html" target="_top" xlink:title=" ">
<polygon fill="white" stroke="#666666" points="774.78,-74 690.78,-74 690.78,-55 774.78,-55 774.78,-74"/>
<text text-anchor="middle" x="732.78" y="-62" font-family="Helvetica,sans-Serif" font-size="10.00">ecs/Entity.hpp</text>
</a>
</g>
</g>
<!-- Node6&#45;&gt;Node16 -->
<g id="edge16_Node000006_Node000016" class="edge">
<title>Node6&#45;&gt;Node16</title>
<g id="a_edge16_Node000006_Node000016"><a xlink:title=" ">
<path fill="none" stroke="#63b8ff" d="M552.32,-109.98C589.2,-100.89 647.76,-86.46 688.12,-76.51"/>
<polygon fill="#63b8ff" stroke="#63b8ff" points="689.09,-79.87 697.96,-74.08 687.42,-73.08 689.09,-79.87"/>
</a>
</g>
</g>
<!-- Node18 -->
<g id="Node000018" class="node">
<title>Node18</title>
<g id="a_Node000018"><a xlink:href="SparseArray_8hpp.html" target="_top" xlink:title=" ">
<polygon fill="white" stroke="#666666" points="634.28,-74 519.28,-74 519.28,-55 634.28,-55 634.28,-74"/>
<text text-anchor="middle" x="576.78" y="-62" font-family="Helvetica,sans-Serif" font-size="10.00">ecs/SparseArray.hpp</text>
</a>
</g>
</g>
<!-- Node6&#45;&gt;Node18 -->
<g id="edge18_Node000006_Node000018" class="edge">
<title>Node6&#45;&gt;Node18</title>
<g id="a_edge18_Node000006_Node000018"><a xlink:title=" ">
<path fill="none" stroke="#63b8ff" d="M527.26,-109.98C535.98,-102.15 549.12,-90.34 559.68,-80.86"/>
<polygon fill="#63b8ff" stroke="#63b8ff" points="562.03,-83.46 567.13,-74.17 557.35,-78.25 562.03,-83.46"/>
</a>
</g>
</g>
<!-- Node17 -->
<g id="Node000017" class="node">
<title>Node17</title>
<g id="a_Node000017"><a xlink:title=" ">
<polygon fill="#e0e0e0" stroke="#999999" points="759.28,-19 706.28,-19 706.28,0 759.28,0 759.28,-19"/>
<text text-anchor="middle" x="732.78" y="-7" font-family="Helvetica,sans-Serif" font-size="10.00">cstddef</text>
</a>
</g>
</g>
<!-- Node16&#45;&gt;Node17 -->
<g id="edge17_Node000016_Node000017" class="edge">
<title>Node16&#45;&gt;Node17</title>
<g id="a_edge17_Node000016_Node000017"><a xlink:title=" ">
<path fill="none" stroke="#63b8ff" d="M732.78,-54.75C732.78,-47.8 732.78,-37.85 732.78,-29.13"/>
<polygon fill="#63b8ff" stroke="#63b8ff" points="736.28,-29.09 732.78,-19.09 729.28,-29.09 736.28,-29.09"/>
</a>
</g>
</g>
<!-- Node18&#45;&gt;Node14 -->
<g id="edge21_Node000018_Node000014" class="edge">
<title>Node18&#45;&gt;Node14</title>
<g id="a_edge21_Node000018_Node000014"><a xlink:title=" ">
<path fill="none" stroke="#63b8ff" d="M524.24,-54.98C456.06,-43.93 339.13,-24.98 282.47,-15.8"/>
<polygon fill="#63b8ff" stroke="#63b8ff" points="282.72,-12.29 272.29,-14.15 281.6,-19.2 282.72,-12.29"/>
</a>
</g>
</g>
<!-- Node18&#45;&gt;Node15 -->
<g id="edge22_Node000018_Node000015" class="edge">
<title>Node18&#45;&gt;Node15</title>
<g id="a_edge22_Node000018_Node000015"><a xlink:title=" ">
<path fill="none" stroke="#63b8ff" d="M590.6,-54.98C603.93,-46.77 624.36,-34.18 640.08,-24.49"/>
<polygon fill="#63b8ff" stroke="#63b8ff" points="642.03,-27.4 648.71,-19.17 638.36,-21.44 642.03,-27.4"/>
</a>
</g>
</g>
<!-- Node19 -->
<g id="Node000019" class="node">
<title>Node19</title>
<g id="a_Node000019"><a xlink:title=" ">
<polygon fill="#e0e0e0" stroke="#999999" points="538.78,-19 480.78,-19 480.78,0 538.78,0 538.78,-19"/>
<text text-anchor="middle" x="509.78" y="-7" font-family="Helvetica,sans-Serif" font-size="10.00">memory</text>
</a>
</g>
</g>
<!-- Node18&#45;&gt;Node19 -->
<g id="edge19_Node000018_Node000019" class="edge">
<title>Node18&#45;&gt;Node19</title>
<g id="a_edge19_Node000018_Node000019"><a xlink:title=" ">
<path fill="none" stroke="#63b8ff" d="M566.01,-54.98C556.01,-47.07 540.89,-35.11 528.85,-25.58"/>
<polygon fill="#63b8ff" stroke="#63b8ff" points="530.75,-22.63 520.74,-19.17 526.41,-28.12 530.75,-22.63"/>
</a>
</g>
</g>
<!-- Node20 -->
<g id="Node000020" class="node">
<title>Node20</title>
<g id="a_Node000020"><a xlink:title=" ">
<polygon fill="#e0e0e0" stroke="#999999" points="612.78,-19 556.78,-19 556.78,0 612.78,0 612.78,-19"/>
<text text-anchor="middle" x="584.78" y="-7" font-family="Helvetica,sans-Serif" font-size="10.00">optional</text>
</a>
</g>
</g>
<!-- Node18&#45;&gt;Node20 -->
<g id="edge20_Node000018_Node000020" class="edge">
<title>Node18&#45;&gt;Node20</title>
<g id="a_edge20_Node000018_Node000020"><a xlink:title=" ">
<path fill="none" stroke="#63b8ff" d="M578.1,-54.75C579.15,-47.8 580.65,-37.85 581.97,-29.13"/>
<polygon fill="#63b8ff" stroke="#63b8ff" points="585.45,-29.5 583.48,-19.09 578.53,-28.45 585.45,-29.5"/>
</a>
</g>
</g>
<!-- Node21&#45;&gt;Node7 -->
<g id="edge24_Node000021_Node000007" class="edge">
<title>Node21&#45;&gt;Node7</title>
<g id="a_edge24_Node000021_Node000007"><a xlink:title=" ">
<path fill="none" stroke="#63b8ff" d="M120.11,-109.98C132.86,-101.84 152.33,-89.41 167.45,-79.76"/>
<polygon fill="#63b8ff" stroke="#63b8ff" points="169.66,-82.5 176.2,-74.17 165.89,-76.6 169.66,-82.5"/>
</a>
</g>
</g>
<!-- Node21&#45;&gt;Node9 -->
<g id="edge25_Node000021_Node000009" class="edge">
<title>Node21&#45;&gt;Node9</title>
<g id="a_edge25_Node000021_Node000009"><a xlink:title=" ">
<path fill="none" stroke="#63b8ff" d="M106.78,-109.75C106.78,-102.8 106.78,-92.85 106.78,-84.13"/>
<polygon fill="#63b8ff" stroke="#63b8ff" points="110.28,-84.09 106.78,-74.09 103.28,-84.09 110.28,-84.09"/>
</a>
</g>
</g>
<!-- Node21&#45;&gt;Node14 -->
<g id="edge27_Node000021_Node000014" class="edge">
<title>Node21&#45;&gt;Node14</title>
<g id="a_edge27_Node000021_Node000014"><a xlink:title=" ">
<path fill="none" stroke="#63b8ff" d="M68.93,-109.99C31.88,-99.92 -16.05,-81.16 5.78,-55 32.32,-23.18 156.84,-14.05 217.04,-11.48"/>
<polygon fill="#63b8ff" stroke="#63b8ff" points="217.29,-14.98 227.15,-11.09 217.02,-7.98 217.29,-14.98"/>
</a>
</g>
</g>
<!-- Node21&#45;&gt;Node21 -->
<g id="edge28_Node000021_Node000021" class="edge">
<title>Node21&#45;&gt;Node21</title>
<g id="a_edge28_Node000021_Node000021"><a xlink:title=" ">
<path fill="none" stroke="#63b8ff" d="M135.8,-129.03C152.83,-131.06 168.78,-127.88 168.78,-119.5 168.78,-112.82 158.65,-109.44 145.92,-109.38"/>
<polygon fill="#63b8ff" stroke="#63b8ff" points="145.58,-105.89 135.8,-109.97 145.99,-112.88 145.58,-105.89"/>
</a>
</g>
</g>
<!-- Node22 -->
<g id="Node000022" class="node">
<title>Node22</title>
<g id="a_Node000022"><a xlink:title=" ">
<polygon fill="#e0e0e0" stroke="#999999" points="56.28,-74 15.28,-74 15.28,-55 56.28,-55 56.28,-74"/>
<text text-anchor="middle" x="35.78" y="-62" font-family="Helvetica,sans-Serif" font-size="10.00">tuple</text>
</a>
</g>
</g>
<!-- Node21&#45;&gt;Node22 -->
<g id="edge26_Node000021_Node000022" class="edge">
<title>Node21&#45;&gt;Node22</title>
<g id="a_edge26_Node000021_Node000022"><a xlink:title=" ">
<path fill="none" stroke="#63b8ff" d="M95.37,-109.98C84.67,-102 68.44,-89.88 55.62,-80.31"/>
<polygon fill="#63b8ff" stroke="#63b8ff" points="57.5,-77.35 47.39,-74.17 53.31,-82.96 57.5,-77.35"/>
</a>
</g>
</g>
<!-- Node23&#45;&gt;Node3 -->
<g id="edge30_Node000023_Node000003" class="edge">
<title>Node23&#45;&gt;Node3</title>
<g id="a_edge30_Node000023_Node000003"><a xlink:title=" ">
<path fill="none" stroke="#63b8ff" d="M1197.5,-109.66C1200.9,-92.17 1208.55,-52.8 1213.13,-29.27"/>
<polygon fill="#63b8ff" stroke="#63b8ff" points="1216.62,-29.64 1215.09,-19.16 1209.75,-28.31 1216.62,-29.64"/>
</a>
</g>
</g>
<!-- Node23&#45;&gt;Node4 -->
<g id="edge32_Node000023_Node000004" class="edge">
<title>Node23&#45;&gt;Node4</title>
<g id="a_edge32_Node000023_Node000004"><a xlink:title=" ">
<path fill="none" stroke="#63b8ff" d="M1213.77,-109.98C1231.71,-101.5 1259.49,-88.35 1280.21,-78.54"/>
<polygon fill="#63b8ff" stroke="#63b8ff" points="1281.91,-81.61 1289.46,-74.17 1278.92,-75.28 1281.91,-81.61"/>
</a>
</g>
</g>
<!-- Node24 -->
<g id="Node000024" class="node">
<title>Node24</title>
<g id="a_Node000024"><a xlink:title=" ">
<polygon fill="#e0e0e0" stroke="#999999" points="1175.78,-74 1131.78,-74 1131.78,-55 1175.78,-55 1175.78,-74"/>
<text text-anchor="middle" x="1153.78" y="-62" font-family="Helvetica,sans-Serif" font-size="10.00">string</text>
</a>
</g>
</g>
<!-- Node23&#45;&gt;Node24 -->
<g id="edge31_Node000023_Node000024" class="edge">
<title>Node23&#45;&gt;Node24</title>
<g id="a_edge31_Node000023_Node000024"><a xlink:title=" ">
<path fill="none" stroke="#63b8ff" d="M1188.84,-109.75C1182.91,-102.26 1174.21,-91.28 1166.95,-82.13"/>
<polygon fill="#63b8ff" stroke="#63b8ff" points="1169.54,-79.75 1160.58,-74.09 1164.05,-84.1 1169.54,-79.75"/>
</a>
</g>
</g>
<!-- Node25&#45;&gt;Node3 -->
<g id="edge34_Node000025_Node000003" class="edge">
<title>Node25&#45;&gt;Node3</title>
<g id="a_edge34_Node000025_Node000003"><a xlink:title=" ">
<path fill="none" stroke="#63b8ff" d="M1024.03,-109.68C1026.46,-95.93 1033.13,-69.44 1049.78,-55 1083.2,-26.01 1133.52,-15.65 1170.19,-12.08"/>
<polygon fill="#63b8ff" stroke="#63b8ff" points="1170.94,-15.53 1180.62,-11.21 1170.36,-8.55 1170.94,-15.53"/>
</a>
</g>
</g>
<!-- Node25&#45;&gt;Node10 -->
<g id="edge36_Node000025_Node000010" class="edge">
<title>Node25&#45;&gt;Node10</title>
<g id="a_edge36_Node000025_Node000010"><a xlink:title=" ">
<path fill="none" stroke="#63b8ff" d="M1008.48,-109.98C994.68,-101.77 973.54,-89.18 957.26,-79.49"/>
<polygon fill="#63b8ff" stroke="#63b8ff" points="958.72,-76.28 948.34,-74.17 955.14,-82.29 958.72,-76.28"/>
</a>
</g>
</g>
<!-- Node25&#45;&gt;Node12 -->
<g id="edge38_Node000025_Node000012" class="edge">
<title>Node25&#45;&gt;Node12</title>
<g id="a_edge38_Node000025_Node000012"><a xlink:title=" ">
<path fill="none" stroke="#63b8ff" d="M993.22,-109.98C962.06,-101.01 912.8,-86.82 878.32,-76.89"/>
<polygon fill="#63b8ff" stroke="#63b8ff" points="879.15,-73.49 868.57,-74.08 877.21,-80.21 879.15,-73.49"/>
</a>
</g>
</g>
<!-- Node25&#45;&gt;Node15 -->
<g id="edge39_Node000025_Node000015" class="edge">
<title>Node25&#45;&gt;Node15</title>
<g id="a_edge39_Node000025_Node000015"><a xlink:title=" ">
<path fill="none" stroke="#63b8ff" d="M1018.7,-109.75C1011.58,-95.58 995.47,-67.9 972.78,-55 865.62,5.92 818.96,-41.58 697.78,-19 697.32,-18.91 696.85,-18.83 696.39,-18.74"/>
<polygon fill="#63b8ff" stroke="#63b8ff" points="696.94,-15.27 686.43,-16.61 695.47,-22.12 696.94,-15.27"/>
</a>
</g>
</g>
<!-- Node25&#45;&gt;Node24 -->
<g id="edge37_Node000025_Node000024" class="edge">
<title>Node25&#45;&gt;Node24</title>
<g id="a_edge37_Node000025_Node000024"><a xlink:title=" ">
<path fill="none" stroke="#63b8ff" d="M1043.83,-109.98C1065.18,-101.34 1098.48,-87.87 1122.84,-78.02"/>
<polygon fill="#63b8ff" stroke="#63b8ff" points="1124.39,-81.17 1132.35,-74.17 1121.76,-74.68 1124.39,-81.17"/>
</a>
</g>
</g>
<!-- Node26 -->
<g id="Node000026" class="node">
<title>Node26</title>
<g id="a_Node000026"><a xlink:title=" ">
<polygon fill="#e0e0e0" stroke="#999999" points="1113.28,-74 1058.28,-74 1058.28,-55 1113.28,-55 1113.28,-74"/>
<text text-anchor="middle" x="1085.78" y="-62" font-family="Helvetica,sans-Serif" font-size="10.00">fstream</text>
</a>
</g>
</g>
<!-- Node25&#45;&gt;Node26 -->
<g id="edge35_Node000025_Node000026" class="edge">
<title>Node25&#45;&gt;Node26</title>
<g id="a_edge35_Node000025_Node000026"><a xlink:title=" ">
<path fill="none" stroke="#63b8ff" d="M1032.9,-109.98C1042.21,-102.15 1056.25,-90.34 1067.52,-80.86"/>
<polygon fill="#63b8ff" stroke="#63b8ff" points="1070.07,-83.29 1075.47,-74.17 1065.57,-77.93 1070.07,-83.29"/>
</a>
</g>
</g>
</g>
</svg>
