<?xml version="1.0" encoding="UTF-8" standalone="no"?>
<!DOCTYPE svg PUBLIC "-//W3C//DTD SVG 1.1//EN"
 "http://www.w3.org/Graphics/SVG/1.1/DTD/svg11.dtd">
<!-- Generated by graphviz version 2.43.0 (0)
 -->
<!-- Title: /home/runner/work/R&#45;Type/R&#45;Type/Client/src/engine/inputs/InputManager.hpp Pages: 1 -->
<svg width="1474pt" height="214pt"
 viewBox="0.00 0.00 1474.00 214.00" xmlns="http://www.w3.org/2000/svg" xmlns:xlink="http://www.w3.org/1999/xlink">
<g id="graph0" class="graph" transform="scale(1 1) rotate(0) translate(4 210)">
<title>/home/runner/work/R&#45;Type/R&#45;Type/Client/src/engine/inputs/InputManager.hpp</title>
<!-- Node1 -->
<g id="Node000001" class="node">
<title>Node1</title>
<g id="a_Node000001"><a xlink:title=" ">
<polygon fill="#999999" stroke="#666666" points="475.5,-206 281.5,-206 281.5,-165 475.5,-165 475.5,-206"/>
<text text-anchor="start" x="289.5" y="-194" font-family="Helvetica,sans-Serif" font-size="10.00">/home/runner/work/R</text>
<text text-anchor="start" x="289.5" y="-183" font-family="Helvetica,sans-Serif" font-size="10.00">&#45;Type/R&#45;Type/Client</text>
<text text-anchor="middle" x="378.5" y="-172" font-family="Helvetica,sans-Serif" font-size="10.00">/src/engine/inputs/InputManager.hpp</text>
</a>
</g>
</g>
<!-- Node2 -->
<g id="Node000002" class="node">
<title>Node2</title>
<g id="a_Node000002"><a xlink:title=" ">
<polygon fill="#e0e0e0" stroke="#999999" points="241.5,-19 169.5,-19 169.5,0 241.5,0 241.5,-19"/>
<text text-anchor="middle" x="205.5" y="-7" font-family="Helvetica,sans-Serif" font-size="10.00">SDL2/SDL.h</text>
</a>
</g>
</g>
<!-- Node1&#45;&gt;Node2 -->
<g id="edge1_Node000001_Node000002" class="edge">
<title>Node1&#45;&gt;Node2</title>
<g id="a_edge1_Node000001_Node000002"><a xlink:title=" ">
<path fill="none" stroke="#63b8ff" d="M281.37,-178.18C248.46,-170.82 214.89,-156.45 194.5,-129 172.61,-99.54 186.4,-53.91 196.88,-28.74"/>
<polygon fill="#63b8ff" stroke="#63b8ff" points="200.21,-29.87 201.06,-19.3 193.81,-27.03 200.21,-29.87"/>
</a>
</g>
</g>
<!-- Node3 -->
<g id="Node000003" class="node">
<title>Node3</title>
<g id="a_Node000003"><a xlink:href="Physics2D_8hpp.html" target="_top" xlink:title=" ">
<polygon fill="white" stroke="#666666" points="151,-74 0,-74 0,-55 151,-55 151,-74"/>
<text text-anchor="middle" x="75.5" y="-62" font-family="Helvetica,sans-Serif" font-size="10.00">components/Physics2D.hpp</text>
</a>
</g>
</g>
<!-- Node1&#45;&gt;Node3 -->
<g id="edge2_Node000001_Node000003" class="edge">
<title>Node1&#45;&gt;Node3</title>
<g id="a_edge2_Node000001_Node000003"><a xlink:title=" ">
<path fill="none" stroke="#63b8ff" d="M281.47,-168.06C242.96,-159.41 199,-146.8 161.5,-129 135.23,-116.53 108.9,-95.54 92.43,-81.12"/>
<polygon fill="#63b8ff" stroke="#63b8ff" points="94.55,-78.33 84.76,-74.27 89.88,-83.54 94.55,-78.33"/>
</a>
</g>
</g>
<!-- Node5 -->
<g id="Node000005" class="node">
<title>Node5</title>
<g id="a_Node000005"><a xlink:href="Registry_8hpp.html" target="_top" xlink:title=" ">
<polygon fill="white" stroke="#666666" points="1056.5,-129 960.5,-129 960.5,-110 1056.5,-110 1056.5,-129"/>
<text text-anchor="middle" x="1008.5" y="-117" font-family="Helvetica,sans-Serif" font-size="10.00">ecs/Registry.hpp</text>
</a>
</g>
</g>
<!-- Node1&#45;&gt;Node5 -->
<g id="edge5_Node000001_Node000005" class="edge">
<title>Node1&#45;&gt;Node5</title>
<g id="a_edge5_Node000001_Node000005"><a xlink:title=" ">
<path fill="none" stroke="#63b8ff" d="M475.56,-174.64C608.13,-161.17 841.74,-137.44 950.17,-126.43"/>
<polygon fill="#63b8ff" stroke="#63b8ff" points="950.67,-129.89 960.27,-125.4 949.96,-122.93 950.67,-129.89"/>
</a>
</g>
</g>
<!-- Node20 -->
<g id="Node000020" class="node">
<title>Node20</title>
<g id="a_Node000020"><a xlink:href="Zipper_8hpp.html" target="_top" xlink:title=" ">
<polygon fill="white" stroke="#666666" points="670.5,-129 582.5,-129 582.5,-110 670.5,-110 670.5,-129"/>
<text text-anchor="middle" x="626.5" y="-117" font-family="Helvetica,sans-Serif" font-size="10.00">ecs/Zipper.hpp</text>
</a>
</g>
</g>
<!-- Node1&#45;&gt;Node20 -->
<g id="edge22_Node000001_Node000020" class="edge">
<title>Node1&#45;&gt;Node20</title>
<g id="a_edge22_Node000001_Node000020"><a xlink:title=" ">
<path fill="none" stroke="#63b8ff" d="M454.26,-164.95C496.65,-154.01 547.96,-140.77 583.49,-131.6"/>
<polygon fill="#63b8ff" stroke="#63b8ff" points="584.72,-134.9 593.53,-129.01 582.97,-128.12 584.72,-134.9"/>
</a>
</g>
</g>
<!-- Node22 -->
<g id="Node000022" class="node">
<title>Node22</title>
<g id="a_Node000022"><a xlink:href="RenderComponents_8hpp.html" target="_top" xlink:title=" ">
<polygon fill="white" stroke="#666666" points="381.5,-129 203.5,-129 203.5,-110 381.5,-110 381.5,-129"/>
<text text-anchor="middle" x="292.5" y="-117" font-family="Helvetica,sans-Serif" font-size="10.00">graphics/RenderComponents.hpp</text>
</a>
</g>
</g>
<!-- Node1&#45;&gt;Node22 -->
<g id="edge28_Node000001_Node000022" class="edge">
<title>Node1&#45;&gt;Node22</title>
<g id="a_edge28_Node000001_Node000022"><a xlink:title=" ">
<path fill="none" stroke="#63b8ff" d="M352.23,-164.95C339.48,-155.46 324.4,-144.24 312.58,-135.44"/>
<polygon fill="#63b8ff" stroke="#63b8ff" points="314.38,-132.42 304.27,-129.26 310.2,-138.04 314.38,-132.42"/>
</a>
</g>
</g>
<!-- Node24 -->
<g id="Node000024" class="node">
<title>Node24</title>
<g id="a_Node000024"><a xlink:href="KeyBindings_8hpp.html" target="_top" xlink:title=" ">
<polygon fill="white" stroke="#666666" points="531,-129 400,-129 400,-110 531,-110 531,-129"/>
<text text-anchor="middle" x="465.5" y="-117" font-family="Helvetica,sans-Serif" font-size="10.00">inputs/KeyBindings.hpp</text>
</a>
</g>
</g>
<!-- Node1&#45;&gt;Node24 -->
<g id="edge32_Node000001_Node000024" class="edge">
<title>Node1&#45;&gt;Node24</title>
<g id="a_edge32_Node000001_Node000024"><a xlink:title=" ">
<path fill="none" stroke="#63b8ff" d="M405.08,-164.95C417.98,-155.46 433.23,-144.24 445.19,-135.44"/>
<polygon fill="#63b8ff" stroke="#63b8ff" points="447.61,-138.01 453.59,-129.26 443.46,-132.37 447.61,-138.01"/>
</a>
</g>
</g>
<!-- Node3&#45;&gt;Node2 -->
<g id="edge3_Node000003_Node000002" class="edge">
<title>Node3&#45;&gt;Node2</title>
<g id="a_edge3_Node000003_Node000002"><a xlink:title=" ">
<path fill="none" stroke="#63b8ff" d="M96.39,-54.98C117.58,-46.34 150.63,-32.87 174.8,-23.02"/>
<polygon fill="#63b8ff" stroke="#63b8ff" points="176.29,-26.19 184.23,-19.17 173.65,-19.7 176.29,-26.19"/>
</a>
</g>
</g>
<!-- Node4 -->
<g id="Node000004" class="node">
<title>Node4</title>
<g id="a_Node000004"><a xlink:title=" ">
<polygon fill="#e0e0e0" stroke="#999999" points="99,-19 52,-19 52,0 99,0 99,-19"/>
<text text-anchor="middle" x="75.5" y="-7" font-family="Helvetica,sans-Serif" font-size="10.00">cmath</text>
</a>
</g>
</g>
<!-- Node3&#45;&gt;Node4 -->
<g id="edge4_Node000003_Node000004" class="edge">
<title>Node3&#45;&gt;Node4</title>
<g id="a_edge4_Node000003_Node000004"><a xlink:title=" ">
<path fill="none" stroke="#63b8ff" d="M75.5,-54.75C75.5,-47.8 75.5,-37.85 75.5,-29.13"/>
<polygon fill="#63b8ff" stroke="#63b8ff" points="79,-29.09 75.5,-19.09 72,-29.09 79,-29.09"/>
</a>
</g>
</g>
<!-- Node6 -->
<g id="Node000006" class="node">
<title>Node6</title>
<g id="a_Node000006"><a xlink:title=" ">
<polygon fill="#e0e0e0" stroke="#999999" points="913.5,-74 849.5,-74 849.5,-55 913.5,-55 913.5,-74"/>
<text text-anchor="middle" x="881.5" y="-62" font-family="Helvetica,sans-Serif" font-size="10.00">algorithm</text>
</a>
</g>
</g>
<!-- Node5&#45;&gt;Node6 -->
<g id="edge6_Node000005_Node000006" class="edge">
<title>Node5&#45;&gt;Node6</title>
<g id="a_edge6_Node000005_Node000006"><a xlink:title=" ">
<path fill="none" stroke="#63b8ff" d="M988.1,-109.98C967.48,-101.38 935.39,-87.99 911.81,-78.15"/>
<polygon fill="#63b8ff" stroke="#63b8ff" points="912.85,-74.79 902.28,-74.17 910.16,-81.25 912.85,-74.79"/>
</a>
</g>
</g>
<!-- Node7 -->
<g id="Node000007" class="node">
<title>Node7</title>
<g id="a_Node000007"><a xlink:title=" ">
<polygon fill="#e0e0e0" stroke="#999999" points="1466,-74 1431,-74 1431,-55 1466,-55 1466,-74"/>
<text text-anchor="middle" x="1448.5" y="-62" font-family="Helvetica,sans-Serif" font-size="10.00">any</text>
</a>
</g>
</g>
<!-- Node5&#45;&gt;Node7 -->
<g id="edge7_Node000005_Node000007" class="edge">
<title>Node5&#45;&gt;Node7</title>
<g id="a_edge7_Node000005_Node000007"><a xlink:title=" ">
<path fill="none" stroke="#63b8ff" d="M1056.51,-116.59C1132.37,-112.87 1284.57,-102.54 1420.94,-73.94"/>
<polygon fill="#63b8ff" stroke="#63b8ff" points="1421.68,-77.36 1430.73,-71.85 1420.22,-70.52 1421.68,-77.36"/>
</a>
</g>
</g>
<!-- Node8 -->
<g id="Node000008" class="node">
<title>Node8</title>
<g id="a_Node000008"><a xlink:title=" ">
<polygon fill="#e0e0e0" stroke="#999999" points="831,-74 766,-74 766,-55 831,-55 831,-74"/>
<text text-anchor="middle" x="798.5" y="-62" font-family="Helvetica,sans-Serif" font-size="10.00">functional</text>
</a>
</g>
</g>
<!-- Node5&#45;&gt;Node8 -->
<g id="edge8_Node000005_Node000008" class="edge">
<title>Node5&#45;&gt;Node8</title>
<g id="a_edge8_Node000005_Node000008"><a xlink:title=" ">
<path fill="none" stroke="#63b8ff" d="M974.76,-109.98C938.39,-100.81 880.42,-86.18 840.97,-76.22"/>
<polygon fill="#63b8ff" stroke="#63b8ff" points="841.67,-72.79 831.12,-73.73 839.96,-79.57 841.67,-72.79"/>
</a>
</g>
</g>
<!-- Node9 -->
<g id="Node000009" class="node">
<title>Node9</title>
<g id="a_Node000009"><a xlink:title=" ">
<polygon fill="#e0e0e0" stroke="#999999" points="538.5,-74 478.5,-74 478.5,-55 538.5,-55 538.5,-74"/>
<text text-anchor="middle" x="508.5" y="-62" font-family="Helvetica,sans-Serif" font-size="10.00">iostream</text>
</a>
</g>
</g>
<!-- Node5&#45;&gt;Node9 -->
<g id="edge9_Node000005_Node000009" class="edge">
<title>Node5&#45;&gt;Node9</title>
<g id="a_edge9_Node000005_Node000009"><a xlink:title=" ">
<path fill="none" stroke="#63b8ff" d="M960.48,-115.74C878.22,-110.61 704.89,-98.02 548.92,-74.04"/>
<polygon fill="#63b8ff" stroke="#63b8ff" points="549.09,-70.52 538.67,-72.44 548.01,-77.44 549.09,-70.52"/>
</a>
</g>
</g>
<!-- Node10 -->
<g id="Node000010" class="node">
<title>Node10</title>
<g id="a_Node000010"><a xlink:title=" ">
<polygon fill="#e0e0e0" stroke="#999999" points="1137,-74 1072,-74 1072,-55 1137,-55 1137,-74"/>
<text text-anchor="middle" x="1104.5" y="-62" font-family="Helvetica,sans-Serif" font-size="10.00">typeindex</text>
</a>
</g>
</g>
<!-- Node5&#45;&gt;Node10 -->
<g id="edge10_Node000005_Node000010" class="edge">
<title>Node5&#45;&gt;Node10</title>
<g id="a_edge10_Node000005_Node000010"><a xlink:title=" ">
<path fill="none" stroke="#63b8ff" d="M1023.92,-109.98C1038.95,-101.69 1062.04,-88.94 1079.66,-79.22"/>
<polygon fill="#63b8ff" stroke="#63b8ff" points="1081.73,-82.07 1088.8,-74.17 1078.35,-75.94 1081.73,-82.07"/>
</a>
</g>
</g>
<!-- Node11 -->
<g id="Node000011" class="node">
<title>Node11</title>
<g id="a_Node000011"><a xlink:title=" ">
<polygon fill="#e0e0e0" stroke="#999999" points="748,-74 655,-74 655,-55 748,-55 748,-74"/>
<text text-anchor="middle" x="701.5" y="-62" font-family="Helvetica,sans-Serif" font-size="10.00">unordered_map</text>
</a>
</g>
</g>
<!-- Node5&#45;&gt;Node11 -->
<g id="edge11_Node000005_Node000011" class="edge">
<title>Node5&#45;&gt;Node11</title>
<g id="a_edge11_Node000005_Node000011"><a xlink:title=" ">
<path fill="none" stroke="#63b8ff" d="M960.19,-110.16C905.4,-100.7 816.14,-85.29 758.12,-75.27"/>
<polygon fill="#63b8ff" stroke="#63b8ff" points="758.47,-71.78 748.02,-73.53 757.28,-78.68 758.47,-71.78"/>
</a>
</g>
</g>
<!-- Node12 -->
<g id="Node000012" class="node">
<title>Node12</title>
<g id="a_Node000012"><a xlink:title=" ">
<polygon fill="#e0e0e0" stroke="#999999" points="1241.5,-74 1155.5,-74 1155.5,-55 1241.5,-55 1241.5,-74"/>
<text text-anchor="middle" x="1198.5" y="-62" font-family="Helvetica,sans-Serif" font-size="10.00">unordered_set</text>
</a>
</g>
</g>
<!-- Node5&#45;&gt;Node12 -->
<g id="edge12_Node000005_Node000012" class="edge">
<title>Node5&#45;&gt;Node12</title>
<g id="a_edge12_Node000005_Node000012"><a xlink:title=" ">
<path fill="none" stroke="#63b8ff" d="M1039.03,-109.98C1071.2,-101.01 1122.06,-86.82 1157.67,-76.89"/>
<polygon fill="#63b8ff" stroke="#63b8ff" points="1159.04,-80.14 1167.73,-74.08 1157.16,-73.4 1159.04,-80.14"/>
</a>
</g>
</g>
<!-- Node13 -->
<g id="Node000013" class="node">
<title>Node13</title>
<g id="a_Node000013"><a xlink:title=" ">
<polygon fill="#e0e0e0" stroke="#999999" points="1292,-19 1247,-19 1247,0 1292,0 1292,-19"/>
<text text-anchor="middle" x="1269.5" y="-7" font-family="Helvetica,sans-Serif" font-size="10.00">utility</text>
</a>
</g>
</g>
<!-- Node5&#45;&gt;Node13 -->
<g id="edge13_Node000005_Node000013" class="edge">
<title>Node5&#45;&gt;Node13</title>
<g id="a_edge13_Node000005_Node000013"><a xlink:title=" ">
<path fill="none" stroke="#63b8ff" d="M1056.69,-115.51C1118.92,-110.69 1222.55,-99.06 1250.5,-74 1262.94,-62.85 1267.38,-43.92 1268.89,-29.62"/>
<polygon fill="#63b8ff" stroke="#63b8ff" points="1272.4,-29.6 1269.58,-19.39 1265.42,-29.13 1272.4,-29.6"/>
</a>
</g>
</g>
<!-- Node14 -->
<g id="Node000014" class="node">
<title>Node14</title>
<g id="a_Node000014"><a xlink:title=" ">
<polygon fill="#e0e0e0" stroke="#999999" points="1067,-19 1020,-19 1020,0 1067,0 1067,-19"/>
<text text-anchor="middle" x="1043.5" y="-7" font-family="Helvetica,sans-Serif" font-size="10.00">vector</text>
</a>
</g>
</g>
<!-- Node5&#45;&gt;Node14 -->
<g id="edge14_Node000005_Node000014" class="edge">
<title>Node5&#45;&gt;Node14</title>
<g id="a_edge14_Node000005_Node000014"><a xlink:title=" ">
<path fill="none" stroke="#63b8ff" d="M1011.83,-109.68C1015.17,-100.74 1020.39,-86.48 1024.5,-74 1029.45,-58.95 1034.57,-41.72 1038.25,-29.01"/>
<polygon fill="#63b8ff" stroke="#63b8ff" points="1041.68,-29.75 1041.07,-19.17 1034.95,-27.82 1041.68,-29.75"/>
</a>
</g>
</g>
<!-- Node15 -->
<g id="Node000015" class="node">
<title>Node15</title>
<g id="a_Node000015"><a xlink:href="Entity_8hpp.html" target="_top" xlink:title=" ">
<polygon fill="white" stroke="#666666" points="1015.5,-74 931.5,-74 931.5,-55 1015.5,-55 1015.5,-74"/>
<text text-anchor="middle" x="973.5" y="-62" font-family="Helvetica,sans-Serif" font-size="10.00">ecs/Entity.hpp</text>
</a>
</g>
</g>
<!-- Node5&#45;&gt;Node15 -->
<g id="edge15_Node000005_Node000015" class="edge">
<title>Node5&#45;&gt;Node15</title>
<g id="a_edge15_Node000005_Node000015"><a xlink:title=" ">
<path fill="none" stroke="#63b8ff" d="M1002.72,-109.75C997.88,-102.42 990.82,-91.73 984.86,-82.7"/>
<polygon fill="#63b8ff" stroke="#63b8ff" points="987.6,-80.5 979.17,-74.09 981.76,-84.36 987.6,-80.5"/>
</a>
</g>
</g>
<!-- Node17 -->
<g id="Node000017" class="node">
<title>Node17</title>
<g id="a_Node000017"><a xlink:href="SparseArray_8hpp.html" target="_top" xlink:title=" ">
<polygon fill="white" stroke="#666666" points="1413,-74 1298,-74 1298,-55 1413,-55 1413,-74"/>
<text text-anchor="middle" x="1355.5" y="-62" font-family="Helvetica,sans-Serif" font-size="10.00">ecs/SparseArray.hpp</text>
</a>
</g>
</g>
<!-- Node5&#45;&gt;Node17 -->
<g id="edge17_Node000005_Node000017" class="edge">
<title>Node5&#45;&gt;Node17</title>
<g id="a_edge17_Node000005_Node000017"><a xlink:title=" ">
<path fill="none" stroke="#63b8ff" d="M1056.75,-111.13C1117.33,-101.88 1221.53,-85.96 1289.46,-75.59"/>
<polygon fill="#63b8ff" stroke="#63b8ff" points="1290.27,-79 1299.63,-74.03 1289.21,-72.08 1290.27,-79"/>
</a>
</g>
</g>
<!-- Node16 -->
<g id="Node000016" class="node">
<title>Node16</title>
<g id="a_Node000016"><a xlink:title=" ">
<polygon fill="#e0e0e0" stroke="#999999" points="1000,-19 947,-19 947,0 1000,0 1000,-19"/>
<text text-anchor="middle" x="973.5" y="-7" font-family="Helvetica,sans-Serif" font-size="10.00">cstddef</text>
</a>
</g>
</g>
<!-- Node15&#45;&gt;Node16 -->
<g id="edge16_Node000015_Node000016" class="edge">
<title>Node15&#45;&gt;Node16</title>
<g id="a_edge16_Node000015_Node000016"><a xlink:title=" ">
<path fill="none" stroke="#63b8ff" d="M973.5,-54.75C973.5,-47.8 973.5,-37.85 973.5,-29.13"/>
<polygon fill="#63b8ff" stroke="#63b8ff" points="977,-29.09 973.5,-19.09 970,-29.09 977,-29.09"/>
</a>
</g>
</g>
<!-- Node17&#45;&gt;Node13 -->
<g id="edge20_Node000017_Node000013" class="edge">
<title>Node17&#45;&gt;Node13</title>
<g id="a_edge20_Node000017_Node000013"><a xlink:title=" ">
<path fill="none" stroke="#63b8ff" d="M1341.68,-54.98C1328.35,-46.77 1307.92,-34.18 1292.19,-24.49"/>
<polygon fill="#63b8ff" stroke="#63b8ff" points="1293.92,-21.44 1283.57,-19.17 1290.25,-27.4 1293.92,-21.44"/>
</a>
</g>
</g>
<!-- Node17&#45;&gt;Node14 -->
<g id="edge21_Node000017_Node000014" class="edge">
<title>Node17&#45;&gt;Node14</title>
<g id="a_edge21_Node000017_Node000014"><a xlink:title=" ">
<path fill="none" stroke="#63b8ff" d="M1305.37,-54.98C1241.29,-44.1 1132.07,-25.55 1077.15,-16.22"/>
<polygon fill="#63b8ff" stroke="#63b8ff" points="1077.68,-12.76 1067.23,-14.53 1076.5,-19.66 1077.68,-12.76"/>
</a>
</g>
</g>
<!-- Node18 -->
<g id="Node000018" class="node">
<title>Node18</title>
<g id="a_Node000018"><a xlink:title=" ">
<polygon fill="#e0e0e0" stroke="#999999" points="1450.5,-19 1392.5,-19 1392.5,0 1450.5,0 1450.5,-19"/>
<text text-anchor="middle" x="1421.5" y="-7" font-family="Helvetica,sans-Serif" font-size="10.00">memory</text>
</a>
</g>
</g>
<!-- Node17&#45;&gt;Node18 -->
<g id="edge18_Node000017_Node000018" class="edge">
<title>Node17&#45;&gt;Node18</title>
<g id="a_edge18_Node000017_Node000018"><a xlink:title=" ">
<path fill="none" stroke="#63b8ff" d="M1366.1,-54.98C1375.96,-47.07 1390.85,-35.11 1402.72,-25.58"/>
<polygon fill="#63b8ff" stroke="#63b8ff" points="1405.1,-28.16 1410.7,-19.17 1400.71,-22.7 1405.1,-28.16"/>
</a>
</g>
</g>
<!-- Node19 -->
<g id="Node000019" class="node">
<title>Node19</title>
<g id="a_Node000019"><a xlink:title=" ">
<polygon fill="#e0e0e0" stroke="#999999" points="1374.5,-19 1318.5,-19 1318.5,0 1374.5,0 1374.5,-19"/>
<text text-anchor="middle" x="1346.5" y="-7" font-family="Helvetica,sans-Serif" font-size="10.00">optional</text>
</a>
</g>
</g>
<!-- Node17&#45;&gt;Node19 -->
<g id="edge19_Node000017_Node000019" class="edge">
<title>Node17&#45;&gt;Node19</title>
<g id="a_edge19_Node000017_Node000019"><a xlink:title=" ">
<path fill="none" stroke="#63b8ff" d="M1354.01,-54.75C1352.83,-47.8 1351.14,-37.85 1349.66,-29.13"/>
<polygon fill="#63b8ff" stroke="#63b8ff" points="1353.08,-28.36 1347.96,-19.09 1346.18,-29.53 1353.08,-28.36"/>
</a>
</g>
</g>
<!-- Node20&#45;&gt;Node6 -->
<g id="edge23_Node000020_Node000006" class="edge">
<title>Node20&#45;&gt;Node6</title>
<g id="a_edge23_Node000020_Node000006"><a xlink:title=" ">
<path fill="none" stroke="#63b8ff" d="M667.47,-109.98C714.56,-100.2 791.46,-84.21 839.13,-74.31"/>
<polygon fill="#63b8ff" stroke="#63b8ff" points="840.05,-77.69 849.13,-72.23 838.62,-70.84 840.05,-77.69"/>
</a>
</g>
</g>
<!-- Node20&#45;&gt;Node8 -->
<g id="edge24_Node000020_Node000008" class="edge">
<title>Node20&#45;&gt;Node8</title>
<g id="a_edge24_Node000020_Node000008"><a xlink:title=" ">
<path fill="none" stroke="#63b8ff" d="M654.13,-109.98C683.01,-101.09 728.51,-87.07 760.7,-77.15"/>
<polygon fill="#63b8ff" stroke="#63b8ff" points="762.12,-80.37 770.65,-74.08 760.06,-73.68 762.12,-80.37"/>
</a>
</g>
</g>
<!-- Node20&#45;&gt;Node13 -->
<g id="edge26_Node000020_Node000013" class="edge">
<title>Node20&#45;&gt;Node13</title>
<g id="a_edge26_Node000020_Node000013"><a xlink:title=" ">
<path fill="none" stroke="#63b8ff" d="M626.24,-109.86C626.34,-95.84 628.8,-68.39 645.5,-55 657.14,-45.67 1108.97,-19.55 1236.37,-12.35"/>
<polygon fill="#63b8ff" stroke="#63b8ff" points="1236.88,-15.83 1246.66,-11.77 1236.48,-8.84 1236.88,-15.83"/>
</a>
</g>
</g>
<!-- Node20&#45;&gt;Node20 -->
<g id="edge27_Node000020_Node000020" class="edge">
<title>Node20&#45;&gt;Node20</title>
<g id="a_edge27_Node000020_Node000020"><a xlink:title=" ">
<path fill="none" stroke="#63b8ff" d="M655.52,-129.03C672.56,-131.06 688.5,-127.88 688.5,-119.5 688.5,-112.82 678.37,-109.44 665.64,-109.38"/>
<polygon fill="#63b8ff" stroke="#63b8ff" points="665.3,-105.89 655.52,-109.97 665.71,-112.88 665.3,-105.89"/>
</a>
</g>
</g>
<!-- Node21 -->
<g id="Node000021" class="node">
<title>Node21</title>
<g id="a_Node000021"><a xlink:title=" ">
<polygon fill="#e0e0e0" stroke="#999999" points="598,-74 557,-74 557,-55 598,-55 598,-74"/>
<text text-anchor="middle" x="577.5" y="-62" font-family="Helvetica,sans-Serif" font-size="10.00">tuple</text>
</a>
</g>
</g>
<!-- Node20&#45;&gt;Node21 -->
<g id="edge25_Node000020_Node000021" class="edge">
<title>Node20&#45;&gt;Node21</title>
<g id="a_edge25_Node000020_Node000021"><a xlink:title=" ">
<path fill="none" stroke="#63b8ff" d="M618.41,-109.75C611.34,-102.11 600.91,-90.82 592.35,-81.56"/>
<polygon fill="#63b8ff" stroke="#63b8ff" points="594.8,-79.06 585.44,-74.09 589.66,-83.81 594.8,-79.06"/>
</a>
</g>
</g>
<!-- Node22&#45;&gt;Node2 -->
<g id="edge29_Node000022_Node000002" class="edge">
<title>Node22&#45;&gt;Node2</title>
<g id="a_edge29_Node000022_Node000002"><a xlink:title=" ">
<path fill="none" stroke="#63b8ff" d="M285.38,-109.66C270.84,-91.61 237.54,-50.28 218.85,-27.08"/>
<polygon fill="#63b8ff" stroke="#63b8ff" points="221.47,-24.75 212.47,-19.16 216.02,-29.14 221.47,-24.75"/>
</a>
</g>
</g>
<!-- Node22&#45;&gt;Node3 -->
<g id="edge31_Node000022_Node000003" class="edge">
<title>Node22&#45;&gt;Node3</title>
<g id="a_edge31_Node000022_Node000003"><a xlink:title=" ">
<path fill="none" stroke="#63b8ff" d="M257.64,-109.98C220.41,-100.89 161.3,-86.46 120.57,-76.51"/>
<polygon fill="#63b8ff" stroke="#63b8ff" points="121.18,-73.05 110.64,-74.08 119.52,-79.85 121.18,-73.05"/>
</a>
</g>
</g>
<!-- Node23 -->
<g id="Node000023" class="node">
<title>Node23</title>
<g id="a_Node000023"><a xlink:title=" ">
<polygon fill="#e0e0e0" stroke="#999999" points="310.5,-74 266.5,-74 266.5,-55 310.5,-55 310.5,-74"/>
<text text-anchor="middle" x="288.5" y="-62" font-family="Helvetica,sans-Serif" font-size="10.00">string</text>
</a>
</g>
</g>
<!-- Node22&#45;&gt;Node23 -->
<g id="edge30_Node000022_Node000023" class="edge">
<title>Node22&#45;&gt;Node23</title>
<g id="a_edge30_Node000022_Node000023"><a xlink:title=" ">
<path fill="none" stroke="#63b8ff" d="M291.84,-109.75C291.32,-102.8 290.56,-92.85 289.91,-84.13"/>
<polygon fill="#63b8ff" stroke="#63b8ff" points="293.39,-83.8 289.15,-74.09 286.41,-84.32 293.39,-83.8"/>
</a>
</g>
</g>
<!-- Node24&#45;&gt;Node2 -->
<g id="edge33_Node000024_Node000002" class="edge">
<title>Node24&#45;&gt;Node2</title>
<g id="a_edge33_Node000024_Node000002"><a xlink:title=" ">
<path fill="none" stroke="#63b8ff" d="M443.37,-109.93C421.4,-101.29 386.85,-87.36 357.5,-74 340.31,-66.18 336.76,-62.66 319.5,-55 292.77,-43.13 261.84,-31.16 238.94,-22.63"/>
<polygon fill="#63b8ff" stroke="#63b8ff" points="239.93,-19.27 229.34,-19.08 237.5,-25.83 239.93,-19.27"/>
</a>
</g>
</g>
<!-- Node24&#45;&gt;Node9 -->
<g id="edge35_Node000024_Node000009" class="edge">
<title>Node24&#45;&gt;Node9</title>
<g id="a_edge35_Node000024_Node000009"><a xlink:title=" ">
<path fill="none" stroke="#63b8ff" d="M472.6,-109.75C478.67,-102.26 487.59,-91.28 495.01,-82.13"/>
<polygon fill="#63b8ff" stroke="#63b8ff" points="497.95,-84.06 501.53,-74.09 492.51,-79.65 497.95,-84.06"/>
</a>
</g>
</g>
<!-- Node24&#45;&gt;Node11 -->
<g id="edge37_Node000024_Node000011" class="edge">
<title>Node24&#45;&gt;Node11</title>
<g id="a_edge37_Node000024_Node000011"><a xlink:title=" ">
<path fill="none" stroke="#63b8ff" d="M503.42,-109.98C544.15,-100.84 609,-86.27 653.32,-76.32"/>
<polygon fill="#63b8ff" stroke="#63b8ff" points="654.3,-79.69 663.29,-74.08 652.76,-72.86 654.3,-79.69"/>
</a>
</g>
</g>
<!-- Node24&#45;&gt;Node14 -->
<g id="edge38_Node000024_Node000014" class="edge">
<title>Node24&#45;&gt;Node14</title>
<g id="a_edge38_Node000024_Node000014"><a xlink:title=" ">
<path fill="none" stroke="#63b8ff" d="M462.87,-109.67C459.36,-95.9 455.16,-69.4 469.5,-55 511.86,-12.48 949.17,-28.12 1008.5,-19 1008.96,-18.93 1009.43,-18.85 1009.9,-18.78"/>
<polygon fill="#63b8ff" stroke="#63b8ff" points="1010.75,-22.18 1019.89,-16.82 1009.4,-15.31 1010.75,-22.18"/>
</a>
</g>
</g>
<!-- Node24&#45;&gt;Node23 -->
<g id="edge36_Node000024_Node000023" class="edge">
<title>Node24&#45;&gt;Node23</title>
<g id="a_edge36_Node000024_Node000023"><a xlink:title=" ">
<path fill="none" stroke="#63b8ff" d="M437.06,-109.98C405.18,-100.44 353.61,-85 320.38,-75.05"/>
<polygon fill="#63b8ff" stroke="#63b8ff" points="321.29,-71.66 310.7,-72.15 319.28,-78.37 321.29,-71.66"/>
</a>
</g>
</g>
<!-- Node25 -->
<g id="Node000025" class="node">
<title>Node25</title>
<g id="a_Node000025"><a xlink:title=" ">
<polygon fill="#e0e0e0" stroke="#999999" points="422,-74 367,-74 367,-55 422,-55 422,-74"/>
<text text-anchor="middle" x="394.5" y="-62" font-family="Helvetica,sans-Serif" font-size="10.00">fstream</text>
</a>
</g>
</g>
<!-- Node24&#45;&gt;Node25 -->
<g id="edge34_Node000024_Node000025" class="edge">
<title>Node24&#45;&gt;Node25</title>
<g id="a_edge34_Node000024_Node000025"><a xlink:title=" ">
<path fill="none" stroke="#63b8ff" d="M454.09,-109.98C443.39,-102 427.16,-89.88 414.34,-80.31"/>
<polygon fill="#63b8ff" stroke="#63b8ff" points="416.22,-77.35 406.11,-74.17 412.03,-82.96 416.22,-77.35"/>
</a>
</g>
</g>
</g>
</svg>
