<?xml version="1.0" encoding="UTF-8" standalone="no"?>
<!DOCTYPE svg PUBLIC "-//W3C//DTD SVG 1.1//EN"
 "http://www.w3.org/Graphics/SVG/1.1/DTD/svg11.dtd">
<!-- Generated by graphviz version 2.43.0 (0)
 -->
<!-- Title: /home/runner/work/R&#45;Type/R&#45;Type/Client/src/engine/inputs/InputSystem.hpp Pages: 1 -->
<svg width="1104pt" height="280pt"
 viewBox="0.00 0.00 1104.23 280.00" xmlns="http://www.w3.org/2000/svg" xmlns:xlink="http://www.w3.org/1999/xlink">
<g id="graph0" class="graph" transform="scale(1 1) rotate(0) translate(4 276)">
<title>/home/runner/work/R&#45;Type/R&#45;Type/Client/src/engine/inputs/InputSystem.hpp</title>
<!-- Node1 -->
<g id="Node000001" class="node">
<title>Node1</title>
<g id="a_Node000001"><a xlink:title=" ">
<polygon fill="#999999" stroke="#666666" points="901.23,-272 713.23,-272 713.23,-231 901.23,-231 901.23,-272"/>
<text text-anchor="start" x="721.23" y="-260" font-family="Helvetica,sans-Serif" font-size="10.00">/home/runner/work/R</text>
<text text-anchor="start" x="721.23" y="-249" font-family="Helvetica,sans-Serif" font-size="10.00">&#45;Type/R&#45;Type/Client</text>
<text text-anchor="middle" x="807.23" y="-238" font-family="Helvetica,sans-Serif" font-size="10.00">/src/engine/inputs/InputSystem.hpp</text>
</a>
</g>
</g>
<!-- Node2 -->
<g id="Node000002" class="node">
<title>Node2</title>
<g id="a_Node000002"><a xlink:href="GameEngine_8hpp.html" target="_top" xlink:title=" ">
<polygon fill="white" stroke="#666666" points="636.23,-195 480.23,-195 480.23,-154 636.23,-154 636.23,-195"/>
<text text-anchor="start" x="488.23" y="-183" font-family="Helvetica,sans-Serif" font-size="10.00">/home/runner/work/R</text>
<text text-anchor="start" x="488.23" y="-172" font-family="Helvetica,sans-Serif" font-size="10.00">&#45;Type/R&#45;Type/Client</text>
<text text-anchor="middle" x="558.23" y="-161" font-family="Helvetica,sans-Serif" font-size="10.00">/src/engine/GameEngine.hpp</text>
</a>
</g>
</g>
<!-- Node1&#45;&gt;Node2 -->
<g id="edge1_Node000001_Node000002" class="edge">
<title>Node1&#45;&gt;Node2</title>
<g id="a_edge1_Node000001_Node000002"><a xlink:title=" ">
<path fill="none" stroke="#63b8ff" d="M732.8,-228.08C697.9,-217.57 656.71,-205.16 623.11,-195.04"/>
<polygon fill="#63b8ff" stroke="#63b8ff" points="731.87,-231.46 742.46,-230.99 733.89,-224.76 731.87,-231.46"/>
</a>
</g>
</g>
<!-- Node10 -->
<g id="Node000010" class="node">
<title>Node10</title>
<g id="a_Node000010"><a xlink:href="InputSystem_8cpp.html" target="_top" xlink:title=" ">
<polygon fill="white" stroke="#666666" points="901.23,-195 713.23,-195 713.23,-154 901.23,-154 901.23,-195"/>
<text text-anchor="start" x="721.23" y="-183" font-family="Helvetica,sans-Serif" font-size="10.00">/home/runner/work/R</text>
<text text-anchor="start" x="721.23" y="-172" font-family="Helvetica,sans-Serif" font-size="10.00">&#45;Type/R&#45;Type/Client</text>
<text text-anchor="middle" x="807.23" y="-161" font-family="Helvetica,sans-Serif" font-size="10.00">/src/engine/inputs/InputSystem.cpp</text>
</a>
</g>
</g>
<!-- Node1&#45;&gt;Node10 -->
<g id="edge13_Node000001_Node000010" class="edge">
<title>Node1&#45;&gt;Node10</title>
<g id="a_edge13_Node000001_Node000010"><a xlink:title=" ">
<path fill="none" stroke="#63b8ff" d="M807.23,-220.69C807.23,-212.08 807.23,-202.9 807.23,-195.07"/>
<polygon fill="#63b8ff" stroke="#63b8ff" points="803.73,-220.79 807.23,-230.79 810.73,-220.79 803.73,-220.79"/>
</a>
</g>
</g>
<!-- Node11 -->
<g id="Node000011" class="node">
<title>Node11</title>
<g id="a_Node000011"><a xlink:href="MainGame_8hpp.html" target="_top" xlink:title=" ">
<polygon fill="white" stroke="#666666" points="1096.23,-195 948.23,-195 948.23,-154 1096.23,-154 1096.23,-195"/>
<text text-anchor="start" x="956.23" y="-183" font-family="Helvetica,sans-Serif" font-size="10.00">/home/runner/work/R</text>
<text text-anchor="start" x="956.23" y="-172" font-family="Helvetica,sans-Serif" font-size="10.00">&#45;Type/R&#45;Type/Client</text>
<text text-anchor="middle" x="1022.23" y="-161" font-family="Helvetica,sans-Serif" font-size="10.00">/src/scenes/MainGame.hpp</text>
</a>
</g>
</g>
<!-- Node1&#45;&gt;Node11 -->
<g id="edge14_Node000001_Node000011" class="edge">
<title>Node1&#45;&gt;Node11</title>
<g id="a_edge14_Node000001_Node000011"><a xlink:title=" ">
<path fill="none" stroke="#63b8ff" d="M872.66,-227.67C902.54,-217.25 937.57,-205.03 966.21,-195.04"/>
<polygon fill="#63b8ff" stroke="#63b8ff" points="871.45,-224.39 863.16,-230.99 873.75,-231 871.45,-224.39"/>
</a>
</g>
</g>
<!-- Node3 -->
<g id="Node000003" class="node">
<title>Node3</title>
<g id="a_Node000003"><a xlink:href="Main_8cpp.html" target="_top" xlink:title=" ">
<polygon fill="white" stroke="#666666" points="776.73,-41 657.73,-41 657.73,0 776.73,0 776.73,-41"/>
<text text-anchor="start" x="665.73" y="-29" font-family="Helvetica,sans-Serif" font-size="10.00">/home/runner/work/R</text>
<text text-anchor="start" x="665.73" y="-18" font-family="Helvetica,sans-Serif" font-size="10.00">&#45;Type/R&#45;Type/Client</text>
<text text-anchor="middle" x="717.23" y="-7" font-family="Helvetica,sans-Serif" font-size="10.00">/src/Main.cpp</text>
</a>
</g>
</g>
<!-- Node2&#45;&gt;Node3 -->
<g id="edge2_Node000002_Node000003" class="edge">
<title>Node2&#45;&gt;Node3</title>
<g id="a_edge2_Node000002_Node000003"><a xlink:title=" ">
<path fill="none" stroke="#63b8ff" d="M469.83,-170.93C322.42,-165.73 39.48,-151.46 9.23,-118 -2.99,-104.48 -3.14,-90.38 9.23,-77 52.86,-29.81 495.06,-22.67 657.66,-21.65"/>
<polygon fill="#63b8ff" stroke="#63b8ff" points="470.09,-174.44 480.2,-171.29 470.33,-167.45 470.09,-174.44"/>
</a>
</g>
</g>
<!-- Node4 -->
<g id="Node000004" class="node">
<title>Node4</title>
<g id="a_Node000004"><a xlink:href="GameEngine_8cpp.html" target="_top" xlink:title=" ">
<polygon fill="white" stroke="#666666" points="173.73,-118 18.73,-118 18.73,-77 173.73,-77 173.73,-118"/>
<text text-anchor="start" x="26.73" y="-106" font-family="Helvetica,sans-Serif" font-size="10.00">/home/runner/work/R</text>
<text text-anchor="start" x="26.73" y="-95" font-family="Helvetica,sans-Serif" font-size="10.00">&#45;Type/R&#45;Type/Client</text>
<text text-anchor="middle" x="96.23" y="-84" font-family="Helvetica,sans-Serif" font-size="10.00">/src/engine/GameEngine.cpp</text>
</a>
</g>
</g>
<!-- Node2&#45;&gt;Node4 -->
<g id="edge3_Node000002_Node000004" class="edge">
<title>Node2&#45;&gt;Node4</title>
<g id="a_edge3_Node000002_Node000004"><a xlink:title=" ">
<path fill="none" stroke="#63b8ff" d="M469.99,-162.31C393.81,-152.2 280.92,-136.15 183.23,-118 180.19,-117.43 177.09,-116.84 173.96,-116.22"/>
<polygon fill="#63b8ff" stroke="#63b8ff" points="469.65,-165.79 480.03,-163.63 470.57,-158.85 469.65,-165.79"/>
</a>
</g>
</g>
<!-- Node5 -->
<g id="Node000005" class="node">
<title>Node5</title>
<g id="a_Node000005"><a xlink:href="SceneManager_8cpp.html" target="_top" xlink:title=" ">
<polygon fill="white" stroke="#666666" points="388.23,-118 192.23,-118 192.23,-77 388.23,-77 388.23,-118"/>
<text text-anchor="start" x="200.23" y="-106" font-family="Helvetica,sans-Serif" font-size="10.00">/home/runner/work/R</text>
<text text-anchor="start" x="200.23" y="-95" font-family="Helvetica,sans-Serif" font-size="10.00">&#45;Type/R&#45;Type/Client</text>
<text text-anchor="middle" x="290.23" y="-84" font-family="Helvetica,sans-Serif" font-size="10.00">/src/engine/scene/SceneManager.cpp</text>
</a>
</g>
</g>
<!-- Node2&#45;&gt;Node5 -->
<g id="edge4_Node000002_Node000005" class="edge">
<title>Node2&#45;&gt;Node5</title>
<g id="a_edge4_Node000002_Node000005"><a xlink:title=" ">
<path fill="none" stroke="#63b8ff" d="M478.6,-151.21C440.94,-140.68 396.38,-128.21 360.06,-118.04"/>
<polygon fill="#63b8ff" stroke="#63b8ff" points="477.94,-154.67 488.52,-153.99 479.83,-147.92 477.94,-154.67"/>
</a>
</g>
</g>
<!-- Node6 -->
<g id="Node000006" class="node">
<title>Node6</title>
<g id="a_Node000006"><a xlink:href="JoinGame_8hpp.html" target="_top" xlink:title=" ">
<polygon fill="white" stroke="#666666" points="548.23,-118 406.23,-118 406.23,-77 548.23,-77 548.23,-118"/>
<text text-anchor="start" x="414.23" y="-106" font-family="Helvetica,sans-Serif" font-size="10.00">/home/runner/work/R</text>
<text text-anchor="start" x="414.23" y="-95" font-family="Helvetica,sans-Serif" font-size="10.00">&#45;Type/R&#45;Type/Client</text>
<text text-anchor="middle" x="477.23" y="-84" font-family="Helvetica,sans-Serif" font-size="10.00">/src/scenes/JoinGame.hpp</text>
</a>
</g>
</g>
<!-- Node2&#45;&gt;Node6 -->
<g id="edge5_Node000002_Node000006" class="edge">
<title>Node2&#45;&gt;Node6</title>
<g id="a_edge5_Node000002_Node000006"><a xlink:title=" ">
<path fill="none" stroke="#63b8ff" d="M529.39,-146.79C519.16,-137.32 507.84,-126.84 498.37,-118.07"/>
<polygon fill="#63b8ff" stroke="#63b8ff" points="527.23,-149.57 536.95,-153.79 531.99,-144.43 527.23,-149.57"/>
</a>
</g>
</g>
<!-- Node7 -->
<g id="Node000007" class="node">
<title>Node7</title>
<g id="a_Node000007"><a xlink:href="MainMenu_8hpp.html" target="_top" xlink:title=" ">
<polygon fill="white" stroke="#666666" points="712.23,-118 566.23,-118 566.23,-77 712.23,-77 712.23,-118"/>
<text text-anchor="start" x="574.23" y="-106" font-family="Helvetica,sans-Serif" font-size="10.00">/home/runner/work/R</text>
<text text-anchor="start" x="574.23" y="-95" font-family="Helvetica,sans-Serif" font-size="10.00">&#45;Type/R&#45;Type/Client</text>
<text text-anchor="middle" x="639.23" y="-84" font-family="Helvetica,sans-Serif" font-size="10.00">/src/scenes/MainMenu.hpp</text>
</a>
</g>
</g>
<!-- Node2&#45;&gt;Node7 -->
<g id="edge7_Node000002_Node000007" class="edge">
<title>Node2&#45;&gt;Node7</title>
<g id="a_edge7_Node000002_Node000007"><a xlink:title=" ">
<path fill="none" stroke="#63b8ff" d="M587.08,-146.79C597.31,-137.32 608.62,-126.84 618.09,-118.07"/>
<polygon fill="#63b8ff" stroke="#63b8ff" points="584.47,-144.43 579.51,-153.79 589.23,-149.57 584.47,-144.43"/>
</a>
</g>
</g>
<!-- Node8 -->
<g id="Node000008" class="node">
<title>Node8</title>
<g id="a_Node000008"><a xlink:href="Options_8hpp.html" target="_top" xlink:title=" ">
<polygon fill="white" stroke="#666666" points="862.23,-118 730.23,-118 730.23,-77 862.23,-77 862.23,-118"/>
<text text-anchor="start" x="738.23" y="-106" font-family="Helvetica,sans-Serif" font-size="10.00">/home/runner/work/R</text>
<text text-anchor="start" x="738.23" y="-95" font-family="Helvetica,sans-Serif" font-size="10.00">&#45;Type/R&#45;Type/Client</text>
<text text-anchor="middle" x="796.23" y="-84" font-family="Helvetica,sans-Serif" font-size="10.00">/src/scenes/Options.hpp</text>
</a>
</g>
</g>
<!-- Node2&#45;&gt;Node8 -->
<g id="edge9_Node000002_Node000008" class="edge">
<title>Node2&#45;&gt;Node8</title>
<g id="a_edge9_Node000002_Node000008"><a xlink:title=" ">
<path fill="none" stroke="#63b8ff" d="M629.81,-150.94C663.07,-140.46 702.24,-128.12 734.22,-118.04"/>
<polygon fill="#63b8ff" stroke="#63b8ff" points="628.63,-147.65 620.14,-153.99 630.73,-154.32 628.63,-147.65"/>
</a>
</g>
</g>
<!-- Node9 -->
<g id="Node000009" class="node">
<title>Node9</title>
<g id="a_Node000009"><a xlink:href="WaitLobby_8hpp.html" target="_top" xlink:title=" ">
<polygon fill="white" stroke="#666666" points="1024.23,-118 880.23,-118 880.23,-77 1024.23,-77 1024.23,-118"/>
<text text-anchor="start" x="888.23" y="-106" font-family="Helvetica,sans-Serif" font-size="10.00">/home/runner/work/R</text>
<text text-anchor="start" x="888.23" y="-95" font-family="Helvetica,sans-Serif" font-size="10.00">&#45;Type/R&#45;Type/Client</text>
<text text-anchor="middle" x="952.23" y="-84" font-family="Helvetica,sans-Serif" font-size="10.00">/src/scenes/WaitLobby.hpp</text>
</a>
</g>
</g>
<!-- Node2&#45;&gt;Node9 -->
<g id="edge11_Node000002_Node000009" class="edge">
<title>Node2&#45;&gt;Node9</title>
<g id="a_edge11_Node000002_Node000009"><a xlink:title=" ">
<path fill="none" stroke="#63b8ff" d="M646.19,-159.37C709.07,-148.91 795.59,-133.8 871.23,-118 874.06,-117.41 876.95,-116.79 879.86,-116.15"/>
<polygon fill="#63b8ff" stroke="#63b8ff" points="645.6,-155.92 636.3,-161.01 646.74,-162.83 645.6,-155.92"/>
</a>
</g>
</g>
<!-- Node6&#45;&gt;Node3 -->
<g id="edge6_Node000006_Node000003" class="edge">
<title>Node6&#45;&gt;Node3</title>
<g id="a_edge6_Node000006_Node000003"><a xlink:title=" ">
<path fill="none" stroke="#63b8ff" d="M549.24,-74C583.82,-63.19 624.78,-50.39 657.59,-40.14"/>
<polygon fill="#63b8ff" stroke="#63b8ff" points="548.16,-70.67 539.66,-76.99 550.25,-77.35 548.16,-70.67"/>
</a>
</g>
</g>
<!-- Node7&#45;&gt;Node3 -->
<g id="edge8_Node000007_Node000003" class="edge">
<title>Node7&#45;&gt;Node3</title>
<g id="a_edge8_Node000007_Node000003"><a xlink:title=" ">
<path fill="none" stroke="#63b8ff" d="M667.01,-69.79C676.86,-60.32 687.76,-49.84 696.87,-41.07"/>
<polygon fill="#63b8ff" stroke="#63b8ff" points="664.51,-67.34 659.72,-76.79 669.36,-72.39 664.51,-67.34"/>
</a>
</g>
</g>
<!-- Node8&#45;&gt;Node3 -->
<g id="edge10_Node000008_Node000003" class="edge">
<title>Node8&#45;&gt;Node3</title>
<g id="a_edge10_Node000008_Node000003"><a xlink:title=" ">
<path fill="none" stroke="#63b8ff" d="M768.1,-69.79C758.12,-60.32 747.08,-49.84 737.85,-41.07"/>
<polygon fill="#63b8ff" stroke="#63b8ff" points="765.81,-72.45 775.47,-76.79 770.63,-67.37 765.81,-72.45"/>
</a>
</g>
</g>
<!-- Node9&#45;&gt;Node3 -->
<g id="edge12_Node000009_Node000003" class="edge">
<title>Node9&#45;&gt;Node3</title>
<g id="a_edge12_Node000009_Node000003"><a xlink:title=" ">
<path fill="none" stroke="#63b8ff" d="M881.41,-73.9C848.03,-63.24 808.66,-50.68 776.84,-40.52"/>
<polygon fill="#63b8ff" stroke="#63b8ff" points="880.51,-77.28 891.1,-76.99 882.64,-70.62 880.51,-77.28"/>
</a>
</g>
</g>
<!-- Node11&#45;&gt;Node3 -->
<g id="edge15_Node000011_Node000003" class="edge">
<title>Node11&#45;&gt;Node3</title>
<g id="a_edge15_Node000011_Node000003"><a xlink:title=" ">
<path fill="none" stroke="#63b8ff" d="M1035.92,-144.24C1043.53,-123.19 1048.68,-95.39 1033.23,-77 1001.13,-38.77 859.06,-26.87 776.75,-23.17"/>
<polygon fill="#63b8ff" stroke="#63b8ff" points="1032.62,-143.08 1032.19,-153.67 1039.13,-145.65 1032.62,-143.08"/>
</a>
</g>
</g>
</g>
</svg>
