<?xml version="1.0" encoding="UTF-8" standalone="no"?>
<!DOCTYPE svg PUBLIC "-//W3C//DTD SVG 1.1//EN"
 "http://www.w3.org/Graphics/SVG/1.1/DTD/svg11.dtd">
<!-- Generated by graphviz version 2.43.0 (0)
 -->
<!-- Title: /home/runner/work/R&#45;Type/R&#45;Type/Client/src/engine/inputs/InputManager.cpp Pages: 1 -->
<svg width="766pt" height="214pt"
 viewBox="0.00 0.00 765.63 214.00" xmlns="http://www.w3.org/2000/svg" xmlns:xlink="http://www.w3.org/1999/xlink">
<g id="graph0" class="graph" transform="scale(1 1) rotate(0) translate(4 210)">
<title>/home/runner/work/R&#45;Type/R&#45;Type/Client/src/engine/inputs/InputManager.cpp</title>
<!-- Node1 -->
<g id="Node000001" class="node">
<title>Node1</title>
<g id="a_Node000001"><a xlink:title=" ">
<polygon fill="#999999" stroke="#666666" points="572.13,-206 379.13,-206 379.13,-165 572.13,-165 572.13,-206"/>
<text text-anchor="start" x="387.13" y="-194" font-family="Helvetica,sans-Serif" font-size="10.00">/home/runner/work/R</text>
<text text-anchor="start" x="387.13" y="-183" font-family="Helvetica,sans-Serif" font-size="10.00">&#45;Type/R&#45;Type/Client</text>
<text text-anchor="middle" x="475.63" y="-172" font-family="Helvetica,sans-Serif" font-size="10.00">/src/engine/inputs/InputManager.cpp</text>
</a>
</g>
</g>
<!-- Node2 -->
<g id="Node000002" class="node">
<title>Node2</title>
<g id="a_Node000002"><a xlink:href="InputManager_8hpp.html" target="_top" xlink:title=" ">
<polygon fill="white" stroke="#666666" points="392.13,-129 255.13,-129 255.13,-110 392.13,-110 392.13,-129"/>
<text text-anchor="middle" x="323.63" y="-117" font-family="Helvetica,sans-Serif" font-size="10.00">inputs/InputManager.hpp</text>
</a>
</g>
</g>
<!-- Node1&#45;&gt;Node2 -->
<g id="edge1_Node000001_Node000002" class="edge">
<title>Node1&#45;&gt;Node2</title>
<g id="a_edge1_Node000001_Node000002"><a xlink:title=" ">
<path fill="none" stroke="#63b8ff" d="M429.2,-164.95C404.52,-154.56 374.91,-142.09 353.34,-133.01"/>
<polygon fill="#63b8ff" stroke="#63b8ff" points="354.61,-129.75 344.04,-129.09 351.89,-136.2 354.61,-129.75"/>
</a>
</g>
</g>
<!-- Node11 -->
<g id="Node000011" class="node">
<title>Node11</title>
<g id="a_Node000011"><a xlink:title=" ">
<polygon fill="#e0e0e0" stroke="#999999" points="757.63,-19 697.63,-19 697.63,0 757.63,0 757.63,-19"/>
<text text-anchor="middle" x="727.63" y="-7" font-family="Helvetica,sans-Serif" font-size="10.00">iostream</text>
</a>
</g>
</g>
<!-- Node1&#45;&gt;Node11 -->
<g id="edge17_Node000001_Node000011" class="edge">
<title>Node1&#45;&gt;Node11</title>
<g id="a_edge17_Node000001_Node000011"><a xlink:title=" ">
<path fill="none" stroke="#63b8ff" d="M504.05,-164.88C555.23,-129.54 661.75,-55.99 706.8,-24.88"/>
<polygon fill="#63b8ff" stroke="#63b8ff" points="708.96,-27.65 715.2,-19.09 704.98,-21.89 708.96,-27.65"/>
</a>
</g>
</g>
<!-- Node3 -->
<g id="Node000003" class="node">
<title>Node3</title>
<g id="a_Node000003"><a xlink:title=" ">
<polygon fill="#e0e0e0" stroke="#999999" points="429.63,-19 357.63,-19 357.63,0 429.63,0 429.63,-19"/>
<text text-anchor="middle" x="393.63" y="-7" font-family="Helvetica,sans-Serif" font-size="10.00">SDL2/SDL.h</text>
</a>
</g>
</g>
<!-- Node2&#45;&gt;Node3 -->
<g id="edge2_Node000002_Node000003" class="edge">
<title>Node2&#45;&gt;Node3</title>
<g id="a_edge2_Node000002_Node000003"><a xlink:title=" ">
<path fill="none" stroke="#63b8ff" d="M367.44,-109.97C387.57,-103.62 409.59,-92.69 421.63,-74 431.27,-59.04 420.47,-40.22 409.61,-26.96"/>
<polygon fill="#63b8ff" stroke="#63b8ff" points="411.93,-24.3 402.67,-19.15 406.7,-28.95 411.93,-24.3"/>
</a>
</g>
</g>
<!-- Node4 -->
<g id="Node000004" class="node">
<title>Node4</title>
<g id="a_Node000004"><a xlink:title=" ">
<polygon fill="#e0e0e0" stroke="#999999" points="173.13,-19 22.13,-19 22.13,0 173.13,0 173.13,-19"/>
<text text-anchor="middle" x="97.63" y="-7" font-family="Helvetica,sans-Serif" font-size="10.00">components/Physics2D.hpp</text>
</a>
</g>
</g>
<!-- Node2&#45;&gt;Node4 -->
<g id="edge3_Node000002_Node000004" class="edge">
<title>Node2&#45;&gt;Node4</title>
<g id="a_edge3_Node000002_Node000004"><a xlink:title=" ">
<path fill="none" stroke="#63b8ff" d="M255,-118.97C171.38,-117.91 37.28,-110.38 5.63,-74 -13.82,-51.64 22.67,-33.36 55.28,-22.25"/>
<polygon fill="#63b8ff" stroke="#63b8ff" points="56.78,-25.45 65.21,-19.04 54.62,-18.79 56.78,-25.45"/>
</a>
</g>
</g>
<!-- Node5 -->
<g id="Node000005" class="node">
<title>Node5</title>
<g id="a_Node000005"><a xlink:title=" ">
<polygon fill="#e0e0e0" stroke="#999999" points="110.63,-74 14.63,-74 14.63,-55 110.63,-55 110.63,-74"/>
<text text-anchor="middle" x="62.63" y="-62" font-family="Helvetica,sans-Serif" font-size="10.00">ecs/Registry.hpp</text>
</a>
</g>
</g>
<!-- Node2&#45;&gt;Node5 -->
<g id="edge4_Node000002_Node000005" class="edge">
<title>Node2&#45;&gt;Node5</title>
<g id="a_edge4_Node000002_Node000005"><a xlink:title=" ">
<path fill="none" stroke="#63b8ff" d="M281.7,-109.98C236.36,-100.78 164.02,-86.09 114.99,-76.13"/>
<polygon fill="#63b8ff" stroke="#63b8ff" points="115.39,-72.64 104.89,-74.08 114,-79.5 115.39,-72.64"/>
</a>
</g>
</g>
<!-- Node6 -->
<g id="Node000006" class="node">
<title>Node6</title>
<g id="a_Node000006"><a xlink:title=" ">
<polygon fill="#e0e0e0" stroke="#999999" points="216.63,-74 128.63,-74 128.63,-55 216.63,-55 216.63,-74"/>
<text text-anchor="middle" x="172.63" y="-62" font-family="Helvetica,sans-Serif" font-size="10.00">ecs/Zipper.hpp</text>
</a>
</g>
</g>
<!-- Node2&#45;&gt;Node6 -->
<g id="edge5_Node000002_Node000006" class="edge">
<title>Node2&#45;&gt;Node6</title>
<g id="a_edge5_Node000002_Node000006"><a xlink:title=" ">
<path fill="none" stroke="#63b8ff" d="M299.37,-109.98C274.31,-101.19 235,-87.39 206.8,-77.49"/>
<polygon fill="#63b8ff" stroke="#63b8ff" points="207.93,-74.18 197.33,-74.17 205.61,-80.78 207.93,-74.18"/>
</a>
</g>
</g>
<!-- Node7 -->
<g id="Node000007" class="node">
<title>Node7</title>
<g id="a_Node000007"><a xlink:href="RenderComponents_8hpp.html" target="_top" xlink:title=" ">
<polygon fill="white" stroke="#666666" points="412.63,-74 234.63,-74 234.63,-55 412.63,-55 412.63,-74"/>
<text text-anchor="middle" x="323.63" y="-62" font-family="Helvetica,sans-Serif" font-size="10.00">graphics/RenderComponents.hpp</text>
</a>
</g>
</g>
<!-- Node2&#45;&gt;Node7 -->
<g id="edge6_Node000002_Node000007" class="edge">
<title>Node2&#45;&gt;Node7</title>
<g id="a_edge6_Node000002_Node000007"><a xlink:title=" ">
<path fill="none" stroke="#63b8ff" d="M323.63,-109.75C323.63,-102.8 323.63,-92.85 323.63,-84.13"/>
<polygon fill="#63b8ff" stroke="#63b8ff" points="327.13,-84.09 323.63,-74.09 320.13,-84.09 327.13,-84.09"/>
</a>
</g>
</g>
<!-- Node9 -->
<g id="Node000009" class="node">
<title>Node9</title>
<g id="a_Node000009"><a xlink:href="KeyBindings_8hpp.html" target="_top" xlink:title=" ">
<polygon fill="white" stroke="#666666" points="600.13,-74 469.13,-74 469.13,-55 600.13,-55 600.13,-74"/>
<text text-anchor="middle" x="534.63" y="-62" font-family="Helvetica,sans-Serif" font-size="10.00">inputs/KeyBindings.hpp</text>
</a>
</g>
</g>
<!-- Node2&#45;&gt;Node9 -->
<g id="edge10_Node000002_Node000009" class="edge">
<title>Node2&#45;&gt;Node9</title>
<g id="a_edge10_Node000002_Node000009"><a xlink:title=" ">
<path fill="none" stroke="#63b8ff" d="M357.53,-109.98C393.65,-100.91 450.96,-86.52 490.55,-76.57"/>
<polygon fill="#63b8ff" stroke="#63b8ff" points="491.62,-79.91 500.46,-74.08 489.91,-73.12 491.62,-79.91"/>
</a>
</g>
</g>
<!-- Node7&#45;&gt;Node3 -->
<g id="edge7_Node000007_Node000003" class="edge">
<title>Node7&#45;&gt;Node3</title>
<g id="a_edge7_Node000007_Node000003"><a xlink:title=" ">
<path fill="none" stroke="#63b8ff" d="M334.88,-54.98C345.43,-47 361.43,-34.88 374.07,-25.31"/>
<polygon fill="#63b8ff" stroke="#63b8ff" points="376.32,-28 382.18,-19.17 372.09,-22.42 376.32,-28"/>
</a>
</g>
</g>
<!-- Node7&#45;&gt;Node4 -->
<g id="edge9_Node000007_Node000004" class="edge">
<title>Node7&#45;&gt;Node4</title>
<g id="a_edge9_Node000007_Node000004"><a xlink:title=" ">
<path fill="none" stroke="#63b8ff" d="M287.32,-54.98C248.39,-45.86 186.47,-31.33 144.04,-21.38"/>
<polygon fill="#63b8ff" stroke="#63b8ff" points="144.76,-17.96 134.23,-19.08 143.16,-24.77 144.76,-17.96"/>
</a>
</g>
</g>
<!-- Node8 -->
<g id="Node000008" class="node">
<title>Node8</title>
<g id="a_Node000008"><a xlink:title=" ">
<polygon fill="#e0e0e0" stroke="#999999" points="339.63,-19 295.63,-19 295.63,0 339.63,0 339.63,-19"/>
<text text-anchor="middle" x="317.63" y="-7" font-family="Helvetica,sans-Serif" font-size="10.00">string</text>
</a>
</g>
</g>
<!-- Node7&#45;&gt;Node8 -->
<g id="edge8_Node000007_Node000008" class="edge">
<title>Node7&#45;&gt;Node8</title>
<g id="a_edge8_Node000007_Node000008"><a xlink:title=" ">
<path fill="none" stroke="#63b8ff" d="M322.64,-54.75C321.85,-47.8 320.73,-37.85 319.74,-29.13"/>
<polygon fill="#63b8ff" stroke="#63b8ff" points="323.21,-28.63 318.6,-19.09 316.25,-29.42 323.21,-28.63"/>
</a>
</g>
</g>
<!-- Node9&#45;&gt;Node3 -->
<g id="edge11_Node000009_Node000003" class="edge">
<title>Node9&#45;&gt;Node3</title>
<g id="a_edge11_Node000009_Node000003"><a xlink:title=" ">
<path fill="none" stroke="#63b8ff" d="M511.98,-54.98C488.78,-46.27 452.51,-32.63 426.23,-22.75"/>
<polygon fill="#63b8ff" stroke="#63b8ff" points="427.29,-19.41 416.7,-19.17 424.83,-25.97 427.29,-19.41"/>
</a>
</g>
</g>
<!-- Node9&#45;&gt;Node8 -->
<g id="edge14_Node000009_Node000008" class="edge">
<title>Node9&#45;&gt;Node8</title>
<g id="a_edge14_Node000009_Node000008"><a xlink:title=" ">
<path fill="none" stroke="#63b8ff" d="M497.49,-54.99C461.94,-46.76 406.56,-33.73 349.82,-19.24"/>
<polygon fill="#63b8ff" stroke="#63b8ff" points="350.51,-15.81 339.96,-16.72 348.78,-22.59 350.51,-15.81"/>
</a>
</g>
</g>
<!-- Node10 -->
<g id="Node000010" class="node">
<title>Node10</title>
<g id="a_Node000010"><a xlink:title=" ">
<polygon fill="#e0e0e0" stroke="#999999" points="568.13,-19 513.13,-19 513.13,0 568.13,0 568.13,-19"/>
<text text-anchor="middle" x="540.63" y="-7" font-family="Helvetica,sans-Serif" font-size="10.00">fstream</text>
</a>
</g>
</g>
<!-- Node9&#45;&gt;Node10 -->
<g id="edge12_Node000009_Node000010" class="edge">
<title>Node9&#45;&gt;Node10</title>
<g id="a_edge12_Node000009_Node000010"><a xlink:title=" ">
<path fill="none" stroke="#63b8ff" d="M535.62,-54.75C536.41,-47.8 537.54,-37.85 538.52,-29.13"/>
<polygon fill="#63b8ff" stroke="#63b8ff" points="542.01,-29.42 539.66,-19.09 535.06,-28.63 542.01,-29.42"/>
</a>
</g>
</g>
<!-- Node9&#45;&gt;Node11 -->
<g id="edge13_Node000009_Node000011" class="edge">
<title>Node9&#45;&gt;Node11</title>
<g id="a_edge13_Node000009_Node000011"><a xlink:title=" ">
<path fill="none" stroke="#63b8ff" d="M565.64,-54.98C598.76,-45.89 651.35,-31.45 687.58,-21.5"/>
<polygon fill="#63b8ff" stroke="#63b8ff" points="688.62,-24.84 697.34,-18.82 686.77,-18.09 688.62,-24.84"/>
</a>
</g>
</g>
<!-- Node12 -->
<g id="Node000012" class="node">
<title>Node12</title>
<g id="a_Node000012"><a xlink:title=" ">
<polygon fill="#e0e0e0" stroke="#999999" points="679.13,-19 586.13,-19 586.13,0 679.13,0 679.13,-19"/>
<text text-anchor="middle" x="632.63" y="-7" font-family="Helvetica,sans-Serif" font-size="10.00">unordered_map</text>
</a>
</g>
</g>
<!-- Node9&#45;&gt;Node12 -->
<g id="edge15_Node000009_Node000012" class="edge">
<title>Node9&#45;&gt;Node12</title>
<g id="a_edge15_Node000009_Node000012"><a xlink:title=" ">
<path fill="none" stroke="#63b8ff" d="M550.38,-54.98C565.86,-46.61 589.72,-33.7 607.77,-23.95"/>
<polygon fill="#63b8ff" stroke="#63b8ff" points="609.47,-27.01 616.6,-19.17 606.14,-20.85 609.47,-27.01"/>
</a>
</g>
</g>
<!-- Node13 -->
<g id="Node000013" class="node">
<title>Node13</title>
<g id="a_Node000013"><a xlink:title=" ">
<polygon fill="#e0e0e0" stroke="#999999" points="495.13,-19 448.13,-19 448.13,0 495.13,0 495.13,-19"/>
<text text-anchor="middle" x="471.63" y="-7" font-family="Helvetica,sans-Serif" font-size="10.00">vector</text>
</a>
</g>
</g>
<!-- Node9&#45;&gt;Node13 -->
<g id="edge16_Node000009_Node000013" class="edge">
<title>Node9&#45;&gt;Node13</title>
<g id="a_edge16_Node000009_Node000013"><a xlink:title=" ">
<path fill="none" stroke="#63b8ff" d="M524.51,-54.98C515.2,-47.15 501.16,-35.34 489.89,-25.86"/>
<polygon fill="#63b8ff" stroke="#63b8ff" points="491.84,-22.93 481.94,-19.17 487.34,-28.29 491.84,-22.93"/>
</a>
</g>
</g>
</g>
</svg>
