<?xml version="1.0" encoding="UTF-8" standalone="no"?>
<!DOCTYPE svg PUBLIC "-//W3C//DTD SVG 1.1//EN"
 "http://www.w3.org/Graphics/SVG/1.1/DTD/svg11.dtd">
<!-- Generated by graphviz version 2.43.0 (0)
 -->
<!-- Title: /home/runner/work/R&#45;Type/R&#45;Type/Shared/components/Collision/Items.hpp Pages: 1 -->
<svg width="4083pt" height="291pt"
 viewBox="0.00 0.00 4082.50 291.00" xmlns="http://www.w3.org/2000/svg" xmlns:xlink="http://www.w3.org/1999/xlink">
<g id="graph0" class="graph" transform="scale(1 1) rotate(0) translate(4 287)">
<title>/home/runner/work/R&#45;Type/R&#45;Type/Shared/components/Collision/Items.hpp</title>
<!-- Node1 -->
<g id="Node000001" class="node">
<title>Node1</title>
<g id="a_Node000001"><a xlink:title=" ">
<polygon fill="#999999" stroke="#666666" points="602,-283 477,-283 477,-231 602,-231 602,-283"/>
<text text-anchor="start" x="485" y="-271" font-family="Helvetica,sans-Serif" font-size="10.00">/home/runner/work/R</text>
<text text-anchor="start" x="485" y="-260" font-family="Helvetica,sans-Serif" font-size="10.00">&#45;Type/R&#45;Type/Shared</text>
<text text-anchor="start" x="485" y="-249" font-family="Helvetica,sans-Serif" font-size="10.00">/components/Collision</text>
<text text-anchor="middle" x="539.5" y="-238" font-family="Helvetica,sans-Serif" font-size="10.00">/Items.hpp</text>
</a>
</g>
</g>
<!-- Node2 -->
<g id="Node000002" class="node">
<title>Node2</title>
<g id="a_Node000002"><a xlink:href="ServerGame_8cpp.html" target="_top" xlink:title=" ">
<polygon fill="white" stroke="#666666" points="678,-118 559,-118 559,-77 678,-77 678,-118"/>
<text text-anchor="start" x="567" y="-106" font-family="Helvetica,sans-Serif" font-size="10.00">/home/runner/work/R</text>
<text text-anchor="start" x="567" y="-95" font-family="Helvetica,sans-Serif" font-size="10.00">&#45;Type/R&#45;Type/Server</text>
<text text-anchor="middle" x="618.5" y="-84" font-family="Helvetica,sans-Serif" font-size="10.00">/src/ServerGame.cpp</text>
</a>
</g>
</g>
<!-- Node1&#45;&gt;Node2 -->
<g id="edge1_Node000001_Node000002" class="edge">
<title>Node1&#45;&gt;Node2</title>
<g id="a_edge1_Node000001_Node000002"><a xlink:title=" ">
<path fill="none" stroke="#63b8ff" d="M556.87,-221.37C572.74,-189.73 595.64,-144.08 608.59,-118.26"/>
<polygon fill="#63b8ff" stroke="#63b8ff" points="553.55,-220.19 552.19,-230.69 559.8,-223.33 553.55,-220.19"/>
</a>
</g>
</g>
<!-- Node3 -->
<g id="Node000003" class="node">
<title>Node3</title>
<g id="a_Node000003"><a xlink:href="Collision_8cpp.html" target="_top" xlink:title=" ">
<polygon fill="white" stroke="#666666" points="171,-118 0,-118 0,-77 171,-77 171,-118"/>
<text text-anchor="start" x="8" y="-106" font-family="Helvetica,sans-Serif" font-size="10.00">/home/runner/work/R</text>
<text text-anchor="start" x="8" y="-95" font-family="Helvetica,sans-Serif" font-size="10.00">&#45;Type/R&#45;Type/Shared</text>
<text text-anchor="middle" x="85.5" y="-84" font-family="Helvetica,sans-Serif" font-size="10.00">/systems/Collision/Collision.cpp</text>
</a>
</g>
</g>
<!-- Node1&#45;&gt;Node3 -->
<g id="edge2_Node000001_Node000003" class="edge">
<title>Node1&#45;&gt;Node3</title>
<g id="a_edge2_Node000001_Node000003"><a xlink:title=" ">
<path fill="none" stroke="#63b8ff" d="M467.17,-234.21C430.56,-222.94 385.51,-208.71 345.5,-195 272.17,-169.88 188.24,-138.19 136.04,-118.13"/>
<polygon fill="#63b8ff" stroke="#63b8ff" points="466.18,-237.57 476.77,-237.16 468.24,-230.88 466.18,-237.57"/>
</a>
</g>
</g>
<!-- Node4 -->
<g id="Node000004" class="node">
<title>Node4</title>
<g id="a_Node000004"><a xlink:href="Collision_8hpp.html" target="_top" xlink:title=" ">
<polygon fill="white" stroke="#666666" points="526.5,-195 354.5,-195 354.5,-154 526.5,-154 526.5,-195"/>
<text text-anchor="start" x="362.5" y="-183" font-family="Helvetica,sans-Serif" font-size="10.00">/home/runner/work/R</text>
<text text-anchor="start" x="362.5" y="-172" font-family="Helvetica,sans-Serif" font-size="10.00">&#45;Type/R&#45;Type/Shared</text>
<text text-anchor="middle" x="440.5" y="-161" font-family="Helvetica,sans-Serif" font-size="10.00">/systems/Collision/Collision.hpp</text>
</a>
</g>
</g>
<!-- Node1&#45;&gt;Node4 -->
<g id="edge3_Node000001_Node000004" class="edge">
<title>Node1&#45;&gt;Node4</title>
<g id="a_edge3_Node000001_Node000004"><a xlink:title=" ">
<path fill="none" stroke="#63b8ff" d="M500.87,-224.59C488.67,-214.67 475.55,-204 464.66,-195.15"/>
<polygon fill="#63b8ff" stroke="#63b8ff" points="498.75,-227.38 508.72,-230.97 503.17,-221.95 498.75,-227.38"/>
</a>
</g>
</g>
<!-- Node8 -->
<g id="Node000008" class="node">
<title>Node8</title>
<g id="a_Node000008"><a xlink:href="EntityHelper_8hpp.html" target="_top" xlink:title=" ">
<polygon fill="white" stroke="#666666" points="2271,-195 2086,-195 2086,-154 2271,-154 2271,-195"/>
<text text-anchor="start" x="2094" y="-183" font-family="Helvetica,sans-Serif" font-size="10.00">/home/runner/work/R</text>
<text text-anchor="start" x="2094" y="-172" font-family="Helvetica,sans-Serif" font-size="10.00">&#45;Type/R&#45;Type/Shared</text>
<text text-anchor="middle" x="2178.5" y="-161" font-family="Helvetica,sans-Serif" font-size="10.00">/systems/Helpers/EntityHelper.hpp</text>
</a>
</g>
</g>
<!-- Node1&#45;&gt;Node8 -->
<g id="edge9_Node000001_Node000008" class="edge">
<title>Node1&#45;&gt;Node8</title>
<g id="a_edge9_Node000001_Node000008"><a xlink:title=" ">
<path fill="none" stroke="#63b8ff" d="M612.53,-252.41C877.93,-239.38 1791.12,-194.53 2085.93,-180.05"/>
<polygon fill="#63b8ff" stroke="#63b8ff" points="612.06,-248.93 602.25,-252.92 612.41,-255.92 612.06,-248.93"/>
</a>
</g>
</g>
<!-- Node4&#45;&gt;Node2 -->
<g id="edge5_Node000004_Node000002" class="edge">
<title>Node4&#45;&gt;Node2</title>
<g id="a_edge5_Node000004_Node000002"><a xlink:title=" ">
<path fill="none" stroke="#63b8ff" d="M496.28,-150C520.66,-139.72 548.92,-127.82 572.12,-118.04"/>
<polygon fill="#63b8ff" stroke="#63b8ff" points="494.66,-146.88 486.8,-153.99 497.38,-153.33 494.66,-146.88"/>
</a>
</g>
</g>
<!-- Node4&#45;&gt;Node3 -->
<g id="edge6_Node000004_Node000003" class="edge">
<title>Node4&#45;&gt;Node3</title>
<g id="a_edge6_Node000004_Node000003"><a xlink:title=" ">
<path fill="none" stroke="#63b8ff" d="M344.17,-153.15C290.11,-141.73 223.25,-127.6 171.05,-116.57"/>
<polygon fill="#63b8ff" stroke="#63b8ff" points="343.6,-156.61 354.11,-155.25 345.05,-149.76 343.6,-156.61"/>
</a>
</g>
</g>
<!-- Node5 -->
<g id="Node000005" class="node">
<title>Node5</title>
<g id="a_Node000005"><a xlink:href="RtypeScene_8cpp.html" target="_top" xlink:title=" ">
<polygon fill="white" stroke="#666666" points="727.5,-41 575.5,-41 575.5,0 727.5,0 727.5,-41"/>
<text text-anchor="start" x="583.5" y="-29" font-family="Helvetica,sans-Serif" font-size="10.00">/home/runner/work/R</text>
<text text-anchor="start" x="583.5" y="-18" font-family="Helvetica,sans-Serif" font-size="10.00">&#45;Type/R&#45;Type/Client</text>
<text text-anchor="middle" x="651.5" y="-7" font-family="Helvetica,sans-Serif" font-size="10.00">/src/scenes/RtypeScene.cpp</text>
</a>
</g>
</g>
<!-- Node4&#45;&gt;Node5 -->
<g id="edge4_Node000004_Node000005" class="edge">
<title>Node4&#45;&gt;Node5</title>
<g id="a_edge4_Node000004_Node000005"><a xlink:title=" ">
<path fill="none" stroke="#63b8ff" d="M475.87,-147.63C487.55,-138.63 500.38,-128.22 511.5,-118 529.79,-101.18 529.89,-92.25 549.5,-77 567.48,-63.02 589.47,-50.57 608.41,-41.02"/>
<polygon fill="#63b8ff" stroke="#63b8ff" points="473.46,-145.07 467.62,-153.91 477.7,-150.64 473.46,-145.07"/>
</a>
</g>
</g>
<!-- Node6 -->
<g id="Node000006" class="node">
<title>Node6</title>
<g id="a_Node000006"><a xlink:href="ForceCtrl_8cpp.html" target="_top" xlink:title=" ">
<polygon fill="white" stroke="#666666" points="317.5,-118 189.5,-118 189.5,-77 317.5,-77 317.5,-118"/>
<text text-anchor="start" x="197.5" y="-106" font-family="Helvetica,sans-Serif" font-size="10.00">/home/runner/work/R</text>
<text text-anchor="start" x="197.5" y="-95" font-family="Helvetica,sans-Serif" font-size="10.00">&#45;Type/R&#45;Type/Shared</text>
<text text-anchor="middle" x="253.5" y="-84" font-family="Helvetica,sans-Serif" font-size="10.00">/systems/ForceCtrl.cpp</text>
</a>
</g>
</g>
<!-- Node4&#45;&gt;Node6 -->
<g id="edge7_Node000004_Node000006" class="edge">
<title>Node4&#45;&gt;Node6</title>
<g id="a_edge7_Node000004_Node000006"><a xlink:title=" ">
<path fill="none" stroke="#63b8ff" d="M382.57,-150.27C356.81,-139.94 326.81,-127.9 302.22,-118.04"/>
<polygon fill="#63b8ff" stroke="#63b8ff" points="381.27,-153.52 391.86,-153.99 383.88,-147.02 381.27,-153.52"/>
</a>
</g>
</g>
<!-- Node7 -->
<g id="Node000007" class="node">
<title>Node7</title>
<g id="a_Node000007"><a xlink:href="ProjectileSystem_8cpp.html" target="_top" xlink:title=" ">
<polygon fill="white" stroke="#666666" points="503,-118 336,-118 336,-77 503,-77 503,-118"/>
<text text-anchor="start" x="344" y="-106" font-family="Helvetica,sans-Serif" font-size="10.00">/home/runner/work/R</text>
<text text-anchor="start" x="344" y="-95" font-family="Helvetica,sans-Serif" font-size="10.00">&#45;Type/R&#45;Type/Shared</text>
<text text-anchor="middle" x="419.5" y="-84" font-family="Helvetica,sans-Serif" font-size="10.00">/systems/ProjectileSystem.cpp</text>
</a>
</g>
</g>
<!-- Node4&#45;&gt;Node7 -->
<g id="edge8_Node000004_Node000007" class="edge">
<title>Node4&#45;&gt;Node7</title>
<g id="a_edge8_Node000004_Node000007"><a xlink:title=" ">
<path fill="none" stroke="#63b8ff" d="M432.23,-143.98C429.8,-135.28 427.19,-125.98 424.98,-118.07"/>
<polygon fill="#63b8ff" stroke="#63b8ff" points="428.92,-145.11 434.98,-153.79 435.66,-143.22 428.92,-145.11"/>
</a>
</g>
</g>
<!-- Node8&#45;&gt;Node2 -->
<g id="edge40_Node000008_Node000002" class="edge">
<title>Node8&#45;&gt;Node2</title>
<g id="a_edge40_Node000008_Node000002"><a xlink:title=" ">
<path fill="none" stroke="#63b8ff" d="M2075.39,-172.85C1783.53,-170.52 955.55,-160.25 687.5,-118 684.43,-117.52 681.29,-116.94 678.15,-116.29"/>
<polygon fill="#63b8ff" stroke="#63b8ff" points="2075.51,-176.35 2085.54,-172.93 2075.57,-169.35 2075.51,-176.35"/>
</a>
</g>
</g>
<!-- Node9 -->
<g id="Node000009" class="node">
<title>Node9</title>
<g id="a_Node000009"><a xlink:href="CreateLobby_8hpp.html" target="_top" xlink:title=" ">
<polygon fill="white" stroke="#666666" points="3582,-118 3427,-118 3427,-77 3582,-77 3582,-118"/>
<text text-anchor="start" x="3435" y="-106" font-family="Helvetica,sans-Serif" font-size="10.00">/home/runner/work/R</text>
<text text-anchor="start" x="3435" y="-95" font-family="Helvetica,sans-Serif" font-size="10.00">&#45;Type/R&#45;Type/Client</text>
<text text-anchor="middle" x="3504.5" y="-84" font-family="Helvetica,sans-Serif" font-size="10.00">/src/scenes/CreateLobby.hpp</text>
</a>
</g>
</g>
<!-- Node8&#45;&gt;Node9 -->
<g id="edge10_Node000008_Node000009" class="edge">
<title>Node8&#45;&gt;Node9</title>
<g id="a_edge10_Node000008_Node000009"><a xlink:title=" ">
<path fill="none" stroke="#63b8ff" d="M2281.26,-171.22C2537.35,-165.18 3198.99,-147.15 3417.5,-118 3420.57,-117.59 3423.69,-117.13 3426.83,-116.62"/>
<polygon fill="#63b8ff" stroke="#63b8ff" points="2281.13,-167.73 2271.22,-171.46 2281.3,-174.72 2281.13,-167.73"/>
</a>
</g>
</g>
<!-- Node11 -->
<g id="Node000011" class="node">
<title>Node11</title>
<g id="a_Node000011"><a xlink:href="GameOver_8hpp.html" target="_top" xlink:title=" ">
<polygon fill="white" stroke="#666666" points="3746.5,-118 3600.5,-118 3600.5,-77 3746.5,-77 3746.5,-118"/>
<text text-anchor="start" x="3608.5" y="-106" font-family="Helvetica,sans-Serif" font-size="10.00">/home/runner/work/R</text>
<text text-anchor="start" x="3608.5" y="-95" font-family="Helvetica,sans-Serif" font-size="10.00">&#45;Type/R&#45;Type/Client</text>
<text text-anchor="middle" x="3673.5" y="-84" font-family="Helvetica,sans-Serif" font-size="10.00">/src/scenes/GameOver.hpp</text>
</a>
</g>
</g>
<!-- Node8&#45;&gt;Node11 -->
<g id="edge12_Node000008_Node000011" class="edge">
<title>Node8&#45;&gt;Node11</title>
<g id="a_edge12_Node000008_Node000011"><a xlink:title=" ">
<path fill="none" stroke="#63b8ff" d="M2281.5,-172.05C2562.52,-167.68 3338.33,-152.74 3591.5,-118 3594.4,-117.6 3597.35,-117.15 3600.32,-116.65"/>
<polygon fill="#63b8ff" stroke="#63b8ff" points="2281.26,-168.55 2271.31,-172.21 2281.36,-175.55 2281.26,-168.55"/>
</a>
</g>
</g>
<!-- Node13 -->
<g id="Node000013" class="node">
<title>Node13</title>
<g id="a_Node000013"><a xlink:href="JoinGame_8hpp.html" target="_top" xlink:title=" ">
<polygon fill="white" stroke="#666666" points="3906.5,-118 3764.5,-118 3764.5,-77 3906.5,-77 3906.5,-118"/>
<text text-anchor="start" x="3772.5" y="-106" font-family="Helvetica,sans-Serif" font-size="10.00">/home/runner/work/R</text>
<text text-anchor="start" x="3772.5" y="-95" font-family="Helvetica,sans-Serif" font-size="10.00">&#45;Type/R&#45;Type/Client</text>
<text text-anchor="middle" x="3835.5" y="-84" font-family="Helvetica,sans-Serif" font-size="10.00">/src/scenes/JoinGame.hpp</text>
</a>
</g>
</g>
<!-- Node8&#45;&gt;Node13 -->
<g id="edge14_Node000008_Node000013" class="edge">
<title>Node8&#45;&gt;Node13</title>
<g id="a_edge14_Node000008_Node000013"><a xlink:title=" ">
<path fill="none" stroke="#63b8ff" d="M2281.1,-172.62C2583.71,-169.59 3469.22,-157.51 3755.5,-118 3758.33,-117.61 3761.21,-117.16 3764.11,-116.67"/>
<polygon fill="#63b8ff" stroke="#63b8ff" points="2280.99,-169.12 2271.02,-172.72 2281.05,-176.12 2280.99,-169.12"/>
</a>
</g>
</g>
<!-- Node15 -->
<g id="Node000015" class="node">
<title>Node15</title>
<g id="a_Node000015"><a xlink:href="LevelScene_8hpp.html" target="_top" xlink:title=" ">
<polygon fill="white" stroke="#666666" points="4074.5,-118 3924.5,-118 3924.5,-77 4074.5,-77 4074.5,-118"/>
<text text-anchor="start" x="3932.5" y="-106" font-family="Helvetica,sans-Serif" font-size="10.00">/home/runner/work/R</text>
<text text-anchor="start" x="3932.5" y="-95" font-family="Helvetica,sans-Serif" font-size="10.00">&#45;Type/R&#45;Type/Client</text>
<text text-anchor="middle" x="3999.5" y="-84" font-family="Helvetica,sans-Serif" font-size="10.00">/src/scenes/LevelScene.hpp</text>
</a>
</g>
</g>
<!-- Node8&#45;&gt;Node15 -->
<g id="edge16_Node000008_Node000015" class="edge">
<title>Node8&#45;&gt;Node15</title>
<g id="a_edge16_Node000008_Node000015"><a xlink:title=" ">
<path fill="none" stroke="#63b8ff" d="M2281.53,-172.86C2604.83,-170.43 3596.7,-159.69 3915.5,-118 3918.32,-117.63 3921.19,-117.21 3924.07,-116.75"/>
<polygon fill="#63b8ff" stroke="#63b8ff" points="2281.21,-169.36 2271.23,-172.94 2281.26,-176.36 2281.21,-169.36"/>
</a>
</g>
</g>
<!-- Node17 -->
<g id="Node000017" class="node">
<title>Node17</title>
<g id="a_Node000017"><a xlink:href="Lobby_8hpp.html" target="_top" xlink:title=" ">
<polygon fill="white" stroke="#666666" points="988.5,-118 866.5,-118 866.5,-77 988.5,-77 988.5,-118"/>
<text text-anchor="start" x="874.5" y="-106" font-family="Helvetica,sans-Serif" font-size="10.00">/home/runner/work/R</text>
<text text-anchor="start" x="874.5" y="-95" font-family="Helvetica,sans-Serif" font-size="10.00">&#45;Type/R&#45;Type/Client</text>
<text text-anchor="middle" x="927.5" y="-84" font-family="Helvetica,sans-Serif" font-size="10.00">/src/scenes/Lobby.hpp</text>
</a>
</g>
</g>
<!-- Node8&#45;&gt;Node17 -->
<g id="edge18_Node000008_Node000017" class="edge">
<title>Node8&#45;&gt;Node17</title>
<g id="a_edge18_Node000008_Node000017"><a xlink:title=" ">
<path fill="none" stroke="#63b8ff" d="M2075.63,-171.63C1827.92,-166.65 1203.64,-151.12 997.5,-118 994.64,-117.54 991.72,-117 988.79,-116.41"/>
<polygon fill="#63b8ff" stroke="#63b8ff" points="2075.64,-175.13 2085.71,-171.83 2075.78,-168.13 2075.64,-175.13"/>
</a>
</g>
</g>
<!-- Node19 -->
<g id="Node000019" class="node">
<title>Node19</title>
<g id="a_Node000019"><a xlink:href="LobbyInfo_8hpp.html" target="_top" xlink:title=" ">
<polygon fill="white" stroke="#666666" points="1150,-118 1007,-118 1007,-77 1150,-77 1150,-118"/>
<text text-anchor="start" x="1015" y="-106" font-family="Helvetica,sans-Serif" font-size="10.00">/home/runner/work/R</text>
<text text-anchor="start" x="1015" y="-95" font-family="Helvetica,sans-Serif" font-size="10.00">&#45;Type/R&#45;Type/Client</text>
<text text-anchor="middle" x="1078.5" y="-84" font-family="Helvetica,sans-Serif" font-size="10.00">/src/scenes/LobbyInfo.hpp</text>
</a>
</g>
</g>
<!-- Node8&#45;&gt;Node19 -->
<g id="edge20_Node000008_Node000019" class="edge">
<title>Node8&#45;&gt;Node19</title>
<g id="a_edge20_Node000008_Node000019"><a xlink:title=" ">
<path fill="none" stroke="#63b8ff" d="M2075.67,-174.05C1891.14,-173.68 1491.99,-166.66 1159.5,-118 1156.49,-117.56 1153.44,-117.06 1150.36,-116.52"/>
<polygon fill="#63b8ff" stroke="#63b8ff" points="2075.9,-177.55 2085.91,-174.07 2075.91,-170.55 2075.9,-177.55"/>
</a>
</g>
</g>
<!-- Node21 -->
<g id="Node000021" class="node">
<title>Node21</title>
<g id="a_Node000021"><a xlink:href="LobbyJoin_8hpp.html" target="_top" xlink:title=" ">
<polygon fill="white" stroke="#666666" points="1310.5,-118 1168.5,-118 1168.5,-77 1310.5,-77 1310.5,-118"/>
<text text-anchor="start" x="1176.5" y="-106" font-family="Helvetica,sans-Serif" font-size="10.00">/home/runner/work/R</text>
<text text-anchor="start" x="1176.5" y="-95" font-family="Helvetica,sans-Serif" font-size="10.00">&#45;Type/R&#45;Type/Client</text>
<text text-anchor="middle" x="1239.5" y="-84" font-family="Helvetica,sans-Serif" font-size="10.00">/src/scenes/LobbyJoin.hpp</text>
</a>
</g>
</g>
<!-- Node8&#45;&gt;Node21 -->
<g id="edge22_Node000008_Node000021" class="edge">
<title>Node8&#45;&gt;Node21</title>
<g id="a_edge22_Node000008_Node000021"><a xlink:title=" ">
<path fill="none" stroke="#63b8ff" d="M2075.34,-172.63C1913.43,-169.97 1590.17,-159.41 1319.5,-118 1316.67,-117.57 1313.8,-117.08 1310.91,-116.56"/>
<polygon fill="#63b8ff" stroke="#63b8ff" points="2075.71,-176.14 2085.77,-172.8 2075.82,-169.14 2075.71,-176.14"/>
</a>
</g>
</g>
<!-- Node23 -->
<g id="Node000023" class="node">
<title>Node23</title>
<g id="a_Node000023"><a xlink:href="LobbyPassword_8hpp.html" target="_top" xlink:title=" ">
<polygon fill="white" stroke="#666666" points="1498.5,-118 1328.5,-118 1328.5,-77 1498.5,-77 1498.5,-118"/>
<text text-anchor="start" x="1336.5" y="-106" font-family="Helvetica,sans-Serif" font-size="10.00">/home/runner/work/R</text>
<text text-anchor="start" x="1336.5" y="-95" font-family="Helvetica,sans-Serif" font-size="10.00">&#45;Type/R&#45;Type/Client</text>
<text text-anchor="middle" x="1413.5" y="-84" font-family="Helvetica,sans-Serif" font-size="10.00">/src/scenes/LobbyPassword.hpp</text>
</a>
</g>
</g>
<!-- Node8&#45;&gt;Node23 -->
<g id="edge24_Node000008_Node000023" class="edge">
<title>Node8&#45;&gt;Node23</title>
<g id="a_edge24_Node000008_Node000023"><a xlink:title=" ">
<path fill="none" stroke="#63b8ff" d="M2075.73,-168.9C1943.69,-162.1 1707.63,-146.93 1507.5,-118 1504.61,-117.58 1501.68,-117.13 1498.73,-116.65"/>
<polygon fill="#63b8ff" stroke="#63b8ff" points="2075.68,-172.4 2085.84,-169.42 2076.03,-165.41 2075.68,-172.4"/>
</a>
</g>
</g>
<!-- Node25 -->
<g id="Node000025" class="node">
<title>Node25</title>
<g id="a_Node000025"><a xlink:href="MainGame_8hpp.html" target="_top" xlink:title=" ">
<polygon fill="white" stroke="#666666" points="1664.5,-118 1516.5,-118 1516.5,-77 1664.5,-77 1664.5,-118"/>
<text text-anchor="start" x="1524.5" y="-106" font-family="Helvetica,sans-Serif" font-size="10.00">/home/runner/work/R</text>
<text text-anchor="start" x="1524.5" y="-95" font-family="Helvetica,sans-Serif" font-size="10.00">&#45;Type/R&#45;Type/Client</text>
<text text-anchor="middle" x="1590.5" y="-84" font-family="Helvetica,sans-Serif" font-size="10.00">/src/scenes/MainGame.hpp</text>
</a>
</g>
</g>
<!-- Node8&#45;&gt;Node25 -->
<g id="edge26_Node000008_Node000025" class="edge">
<title>Node8&#45;&gt;Node25</title>
<g id="a_edge26_Node000008_Node000025"><a xlink:title=" ">
<path fill="none" stroke="#63b8ff" d="M2075.85,-165.89C1973.45,-157.44 1811.89,-141.77 1673.5,-118 1670.58,-117.5 1667.61,-116.96 1664.62,-116.38"/>
<polygon fill="#63b8ff" stroke="#63b8ff" points="2075.63,-169.38 2085.88,-166.71 2076.2,-162.41 2075.63,-169.38"/>
</a>
</g>
</g>
<!-- Node27 -->
<g id="Node000027" class="node">
<title>Node27</title>
<g id="a_Node000027"><a xlink:href="MainMenu_8hpp.html" target="_top" xlink:title=" ">
<polygon fill="white" stroke="#666666" points="1828.5,-118 1682.5,-118 1682.5,-77 1828.5,-77 1828.5,-118"/>
<text text-anchor="start" x="1690.5" y="-106" font-family="Helvetica,sans-Serif" font-size="10.00">/home/runner/work/R</text>
<text text-anchor="start" x="1690.5" y="-95" font-family="Helvetica,sans-Serif" font-size="10.00">&#45;Type/R&#45;Type/Client</text>
<text text-anchor="middle" x="1755.5" y="-84" font-family="Helvetica,sans-Serif" font-size="10.00">/src/scenes/MainMenu.hpp</text>
</a>
</g>
</g>
<!-- Node8&#45;&gt;Node27 -->
<g id="edge28_Node000008_Node000027" class="edge">
<title>Node8&#45;&gt;Node27</title>
<g id="a_edge28_Node000008_Node000027"><a xlink:title=" ">
<path fill="none" stroke="#63b8ff" d="M2075.65,-158.74C2007.8,-148.51 1917.08,-133.92 1837.5,-118 1834.63,-117.43 1831.71,-116.82 1828.76,-116.2"/>
<polygon fill="#63b8ff" stroke="#63b8ff" points="2075.5,-162.25 2085.91,-160.28 2076.54,-155.33 2075.5,-162.25"/>
</a>
</g>
</g>
<!-- Node29 -->
<g id="Node000029" class="node">
<title>Node29</title>
<g id="a_Node000029"><a xlink:href="Options_8hpp.html" target="_top" xlink:title=" ">
<polygon fill="white" stroke="#666666" points="1978.5,-118 1846.5,-118 1846.5,-77 1978.5,-77 1978.5,-118"/>
<text text-anchor="start" x="1854.5" y="-106" font-family="Helvetica,sans-Serif" font-size="10.00">/home/runner/work/R</text>
<text text-anchor="start" x="1854.5" y="-95" font-family="Helvetica,sans-Serif" font-size="10.00">&#45;Type/R&#45;Type/Client</text>
<text text-anchor="middle" x="1912.5" y="-84" font-family="Helvetica,sans-Serif" font-size="10.00">/src/scenes/Options.hpp</text>
</a>
</g>
</g>
<!-- Node8&#45;&gt;Node29 -->
<g id="edge30_Node000008_Node000029" class="edge">
<title>Node8&#45;&gt;Node29</title>
<g id="a_edge30_Node000008_Node000029"><a xlink:title=" ">
<path fill="none" stroke="#63b8ff" d="M2099.68,-151.28C2061.14,-140.41 2015.28,-127.48 1978.6,-117.14"/>
<polygon fill="#63b8ff" stroke="#63b8ff" points="2098.73,-154.65 2109.31,-153.99 2100.63,-147.91 2098.73,-154.65"/>
</a>
</g>
</g>
<!-- Node31 -->
<g id="Node000031" class="node">
<title>Node31</title>
<g id="a_Node000031"><a xlink:href="RtypeScene_8hpp.html" target="_top" xlink:title=" ">
<polygon fill="white" stroke="#666666" points="848.5,-118 696.5,-118 696.5,-77 848.5,-77 848.5,-118"/>
<text text-anchor="start" x="704.5" y="-106" font-family="Helvetica,sans-Serif" font-size="10.00">/home/runner/work/R</text>
<text text-anchor="start" x="704.5" y="-95" font-family="Helvetica,sans-Serif" font-size="10.00">&#45;Type/R&#45;Type/Client</text>
<text text-anchor="middle" x="772.5" y="-84" font-family="Helvetica,sans-Serif" font-size="10.00">/src/scenes/RtypeScene.hpp</text>
</a>
</g>
</g>
<!-- Node8&#45;&gt;Node31 -->
<g id="edge32_Node000008_Node000031" class="edge">
<title>Node8&#45;&gt;Node31</title>
<g id="a_edge32_Node000008_Node000031"><a xlink:title=" ">
<path fill="none" stroke="#63b8ff" d="M2075.66,-171.62C1807.66,-166.33 1092.35,-149.6 857.5,-118 854.65,-117.62 851.75,-117.18 848.83,-116.71"/>
<polygon fill="#63b8ff" stroke="#63b8ff" points="2075.71,-175.12 2085.78,-171.82 2075.85,-168.12 2075.71,-175.12"/>
</a>
</g>
</g>
<!-- Node32 -->
<g id="Node000032" class="node">
<title>Node32</title>
<g id="a_Node000032"><a xlink:href="SecondGameClient_8hpp.html" target="_top" xlink:title=" ">
<polygon fill="white" stroke="#666666" points="2184.5,-118 1996.5,-118 1996.5,-77 2184.5,-77 2184.5,-118"/>
<text text-anchor="start" x="2004.5" y="-106" font-family="Helvetica,sans-Serif" font-size="10.00">/home/runner/work/R</text>
<text text-anchor="start" x="2004.5" y="-95" font-family="Helvetica,sans-Serif" font-size="10.00">&#45;Type/R&#45;Type/Client</text>
<text text-anchor="middle" x="2090.5" y="-84" font-family="Helvetica,sans-Serif" font-size="10.00">/src/scenes/SecondGameClient.hpp</text>
</a>
</g>
</g>
<!-- Node8&#45;&gt;Node32 -->
<g id="edge34_Node000008_Node000032" class="edge">
<title>Node8&#45;&gt;Node32</title>
<g id="a_edge34_Node000008_Node000032"><a xlink:title=" ">
<path fill="none" stroke="#63b8ff" d="M2147.49,-147.07C2136.29,-137.52 2123.85,-126.93 2113.47,-118.07"/>
<polygon fill="#63b8ff" stroke="#63b8ff" points="2145.5,-149.97 2155.38,-153.79 2150.04,-144.64 2145.5,-149.97"/>
</a>
</g>
</g>
<!-- Node34 -->
<g id="Node000034" class="node">
<title>Node34</title>
<g id="a_Node000034"><a xlink:href="Victory_8hpp.html" target="_top" xlink:title=" ">
<polygon fill="white" stroke="#666666" points="2330.5,-118 2202.5,-118 2202.5,-77 2330.5,-77 2330.5,-118"/>
<text text-anchor="start" x="2210.5" y="-106" font-family="Helvetica,sans-Serif" font-size="10.00">/home/runner/work/R</text>
<text text-anchor="start" x="2210.5" y="-95" font-family="Helvetica,sans-Serif" font-size="10.00">&#45;Type/R&#45;Type/Client</text>
<text text-anchor="middle" x="2266.5" y="-84" font-family="Helvetica,sans-Serif" font-size="10.00">/src/scenes/Victory.hpp</text>
</a>
</g>
</g>
<!-- Node8&#45;&gt;Node34 -->
<g id="edge36_Node000008_Node000034" class="edge">
<title>Node8&#45;&gt;Node34</title>
<g id="a_edge36_Node000008_Node000034"><a xlink:title=" ">
<path fill="none" stroke="#63b8ff" d="M2209.51,-147.07C2220.71,-137.52 2233.15,-126.93 2243.53,-118.07"/>
<polygon fill="#63b8ff" stroke="#63b8ff" points="2206.96,-144.64 2201.62,-153.79 2211.5,-149.97 2206.96,-144.64"/>
</a>
</g>
</g>
<!-- Node36 -->
<g id="Node000036" class="node">
<title>Node36</title>
<g id="a_Node000036"><a xlink:href="WaitLobby_8hpp.html" target="_top" xlink:title=" ">
<polygon fill="white" stroke="#666666" points="3408.5,-118 3264.5,-118 3264.5,-77 3408.5,-77 3408.5,-118"/>
<text text-anchor="start" x="3272.5" y="-106" font-family="Helvetica,sans-Serif" font-size="10.00">/home/runner/work/R</text>
<text text-anchor="start" x="3272.5" y="-95" font-family="Helvetica,sans-Serif" font-size="10.00">&#45;Type/R&#45;Type/Client</text>
<text text-anchor="middle" x="3336.5" y="-84" font-family="Helvetica,sans-Serif" font-size="10.00">/src/scenes/WaitLobby.hpp</text>
</a>
</g>
</g>
<!-- Node8&#45;&gt;Node36 -->
<g id="edge38_Node000008_Node000036" class="edge">
<title>Node8&#45;&gt;Node36</title>
<g id="a_edge38_Node000008_Node000036"><a xlink:title=" ">
<path fill="none" stroke="#63b8ff" d="M2281.3,-170.63C2512.85,-163.76 3069.5,-144.95 3255.5,-118 3258.36,-117.59 3261.27,-117.12 3264.21,-116.6"/>
<polygon fill="#63b8ff" stroke="#63b8ff" points="2281.08,-167.13 2271.19,-170.93 2281.29,-174.13 2281.08,-167.13"/>
</a>
</g>
</g>
<!-- Node38 -->
<g id="Node000038" class="node">
<title>Node38</title>
<g id="a_Node000038"><a xlink:href="ChargedShoot_8cpp.html" target="_top" xlink:title=" ">
<polygon fill="white" stroke="#666666" points="2500.5,-118 2348.5,-118 2348.5,-77 2500.5,-77 2500.5,-118"/>
<text text-anchor="start" x="2356.5" y="-106" font-family="Helvetica,sans-Serif" font-size="10.00">/home/runner/work/R</text>
<text text-anchor="start" x="2356.5" y="-95" font-family="Helvetica,sans-Serif" font-size="10.00">&#45;Type/R&#45;Type/Shared</text>
<text text-anchor="middle" x="2424.5" y="-84" font-family="Helvetica,sans-Serif" font-size="10.00">/systems/ChargedShoot.cpp</text>
</a>
</g>
</g>
<!-- Node8&#45;&gt;Node38 -->
<g id="edge41_Node000008_Node000038" class="edge">
<title>Node8&#45;&gt;Node38</title>
<g id="a_edge41_Node000008_Node000038"><a xlink:title=" ">
<path fill="none" stroke="#63b8ff" d="M2252.48,-150.94C2286.86,-140.46 2327.35,-128.12 2360.4,-118.04"/>
<polygon fill="#63b8ff" stroke="#63b8ff" points="2251.04,-147.73 2242.49,-153.99 2253.08,-154.42 2251.04,-147.73"/>
</a>
</g>
</g>
<!-- Node39 -->
<g id="Node000039" class="node">
<title>Node39</title>
<g id="a_Node000039"><a xlink:href="LevelSystem_8cpp.html" target="_top" xlink:title=" ">
<polygon fill="white" stroke="#666666" points="2666,-118 2519,-118 2519,-77 2666,-77 2666,-118"/>
<text text-anchor="start" x="2527" y="-106" font-family="Helvetica,sans-Serif" font-size="10.00">/home/runner/work/R</text>
<text text-anchor="start" x="2527" y="-95" font-family="Helvetica,sans-Serif" font-size="10.00">&#45;Type/R&#45;Type/Shared</text>
<text text-anchor="middle" x="2592.5" y="-84" font-family="Helvetica,sans-Serif" font-size="10.00">/systems/LevelSystem.cpp</text>
</a>
</g>
</g>
<!-- Node8&#45;&gt;Node39 -->
<g id="edge42_Node000008_Node000039" class="edge">
<title>Node8&#45;&gt;Node39</title>
<g id="a_edge42_Node000008_Node000039"><a xlink:title=" ">
<path fill="none" stroke="#63b8ff" d="M2281.1,-158.05C2346.63,-147.75 2433.3,-133.32 2509.5,-118 2512.55,-117.39 2515.65,-116.74 2518.79,-116.08"/>
<polygon fill="#63b8ff" stroke="#63b8ff" points="2280.52,-154.6 2271.18,-159.6 2281.6,-161.51 2280.52,-154.6"/>
</a>
</g>
</g>
<!-- Node40 -->
<g id="Node000040" class="node">
<title>Node40</title>
<g id="a_Node000040"><a xlink:href="Movement_8cpp.html" target="_top" xlink:title=" ">
<polygon fill="white" stroke="#666666" points="2876.5,-118 2684.5,-118 2684.5,-77 2876.5,-77 2876.5,-118"/>
<text text-anchor="start" x="2692.5" y="-106" font-family="Helvetica,sans-Serif" font-size="10.00">/home/runner/work/R</text>
<text text-anchor="start" x="2692.5" y="-95" font-family="Helvetica,sans-Serif" font-size="10.00">&#45;Type/R&#45;Type/Shared</text>
<text text-anchor="middle" x="2780.5" y="-84" font-family="Helvetica,sans-Serif" font-size="10.00">/systems/Movement/Movement.cpp</text>
</a>
</g>
</g>
<!-- Node8&#45;&gt;Node40 -->
<g id="edge43_Node000008_Node000040" class="edge">
<title>Node8&#45;&gt;Node40</title>
<g id="a_edge43_Node000008_Node000040"><a xlink:title=" ">
<path fill="none" stroke="#63b8ff" d="M2281.23,-164.14C2381.73,-154.48 2539,-138.02 2674.5,-118 2677.74,-117.52 2681.03,-117.02 2684.35,-116.49"/>
<polygon fill="#63b8ff" stroke="#63b8ff" points="2280.7,-160.67 2271.08,-165.11 2281.37,-167.64 2280.7,-160.67"/>
</a>
</g>
</g>
<!-- Node41 -->
<g id="Node000041" class="node">
<title>Node41</title>
<g id="a_Node000041"><a xlink:href="Spawn_8cpp.html" target="_top" xlink:title=" ">
<polygon fill="white" stroke="#666666" points="3080,-118 2895,-118 2895,-77 3080,-77 3080,-118"/>
<text text-anchor="start" x="2903" y="-106" font-family="Helvetica,sans-Serif" font-size="10.00">/home/runner/work/R</text>
<text text-anchor="start" x="2903" y="-95" font-family="Helvetica,sans-Serif" font-size="10.00">&#45;Type/R&#45;Type/Shared</text>
<text text-anchor="middle" x="2987.5" y="-84" font-family="Helvetica,sans-Serif" font-size="10.00">/systems/SpawnEnemy/Spawn.cpp</text>
</a>
</g>
</g>
<!-- Node8&#45;&gt;Node41 -->
<g id="edge44_Node000008_Node000041" class="edge">
<title>Node8&#45;&gt;Node41</title>
<g id="a_edge44_Node000008_Node000041"><a xlink:title=" ">
<path fill="none" stroke="#63b8ff" d="M2281.35,-169C2419.3,-162.14 2671.67,-146.74 2885.5,-118 2888.54,-117.59 2891.62,-117.15 2894.73,-116.69"/>
<polygon fill="#63b8ff" stroke="#63b8ff" points="2281.02,-165.51 2271.21,-169.5 2281.37,-172.5 2281.02,-165.51"/>
</a>
</g>
</g>
<!-- Node42 -->
<g id="Node000042" class="node">
<title>Node42</title>
<g id="a_Node000042"><a xlink:href="WaveSystem_8cpp.html" target="_top" xlink:title=" ">
<polygon fill="white" stroke="#666666" points="3246.5,-118 3098.5,-118 3098.5,-77 3246.5,-77 3246.5,-118"/>
<text text-anchor="start" x="3106.5" y="-106" font-family="Helvetica,sans-Serif" font-size="10.00">/home/runner/work/R</text>
<text text-anchor="start" x="3106.5" y="-95" font-family="Helvetica,sans-Serif" font-size="10.00">&#45;Type/R&#45;Type/Shared</text>
<text text-anchor="middle" x="3172.5" y="-84" font-family="Helvetica,sans-Serif" font-size="10.00">/systems/WaveSystem.cpp</text>
</a>
</g>
</g>
<!-- Node8&#45;&gt;Node42 -->
<g id="edge45_Node000008_Node000042" class="edge">
<title>Node8&#45;&gt;Node42</title>
<g id="a_edge45_Node000008_Node000042"><a xlink:title=" ">
<path fill="none" stroke="#63b8ff" d="M2281.2,-172.81C2450.35,-170.44 2797.82,-160.3 3088.5,-118 3091.76,-117.53 3095.08,-116.99 3098.42,-116.4"/>
<polygon fill="#63b8ff" stroke="#63b8ff" points="2281.01,-169.32 2271.05,-172.95 2281.1,-176.32 2281.01,-169.32"/>
</a>
</g>
</g>
<!-- Node10 -->
<g id="Node000010" class="node">
<title>Node10</title>
<g id="a_Node000010"><a xlink:href="CreateLobby_8cpp.html" target="_top" xlink:title=" ">
<polygon fill="white" stroke="#666666" points="3581.5,-41 3427.5,-41 3427.5,0 3581.5,0 3581.5,-41"/>
<text text-anchor="start" x="3435.5" y="-29" font-family="Helvetica,sans-Serif" font-size="10.00">/home/runner/work/R</text>
<text text-anchor="start" x="3435.5" y="-18" font-family="Helvetica,sans-Serif" font-size="10.00">&#45;Type/R&#45;Type/Client</text>
<text text-anchor="middle" x="3504.5" y="-7" font-family="Helvetica,sans-Serif" font-size="10.00">/src/scenes/CreateLobby.cpp</text>
</a>
</g>
</g>
<!-- Node9&#45;&gt;Node10 -->
<g id="edge11_Node000009_Node000010" class="edge">
<title>Node9&#45;&gt;Node10</title>
<g id="a_edge11_Node000009_Node000010"><a xlink:title=" ">
<path fill="none" stroke="#63b8ff" d="M3504.5,-66.69C3504.5,-58.08 3504.5,-48.9 3504.5,-41.07"/>
<polygon fill="#63b8ff" stroke="#63b8ff" points="3501,-66.79 3504.5,-76.79 3508,-66.79 3501,-66.79"/>
</a>
</g>
</g>
<!-- Node12 -->
<g id="Node000012" class="node">
<title>Node12</title>
<g id="a_Node000012"><a xlink:href="GameOver_8cpp.html" target="_top" xlink:title=" ">
<polygon fill="white" stroke="#666666" points="3746.5,-41 3600.5,-41 3600.5,0 3746.5,0 3746.5,-41"/>
<text text-anchor="start" x="3608.5" y="-29" font-family="Helvetica,sans-Serif" font-size="10.00">/home/runner/work/R</text>
<text text-anchor="start" x="3608.5" y="-18" font-family="Helvetica,sans-Serif" font-size="10.00">&#45;Type/R&#45;Type/Client</text>
<text text-anchor="middle" x="3673.5" y="-7" font-family="Helvetica,sans-Serif" font-size="10.00">/src/scenes/GameOver.cpp</text>
</a>
</g>
</g>
<!-- Node11&#45;&gt;Node12 -->
<g id="edge13_Node000011_Node000012" class="edge">
<title>Node11&#45;&gt;Node12</title>
<g id="a_edge13_Node000011_Node000012"><a xlink:title=" ">
<path fill="none" stroke="#63b8ff" d="M3673.5,-66.69C3673.5,-58.08 3673.5,-48.9 3673.5,-41.07"/>
<polygon fill="#63b8ff" stroke="#63b8ff" points="3670,-66.79 3673.5,-76.79 3677,-66.79 3670,-66.79"/>
</a>
</g>
</g>
<!-- Node14 -->
<g id="Node000014" class="node">
<title>Node14</title>
<g id="a_Node000014"><a xlink:href="JoinGame_8cpp.html" target="_top" xlink:title=" ">
<polygon fill="white" stroke="#666666" points="3906,-41 3765,-41 3765,0 3906,0 3906,-41"/>
<text text-anchor="start" x="3773" y="-29" font-family="Helvetica,sans-Serif" font-size="10.00">/home/runner/work/R</text>
<text text-anchor="start" x="3773" y="-18" font-family="Helvetica,sans-Serif" font-size="10.00">&#45;Type/R&#45;Type/Client</text>
<text text-anchor="middle" x="3835.5" y="-7" font-family="Helvetica,sans-Serif" font-size="10.00">/src/scenes/JoinGame.cpp</text>
</a>
</g>
</g>
<!-- Node13&#45;&gt;Node14 -->
<g id="edge15_Node000013_Node000014" class="edge">
<title>Node13&#45;&gt;Node14</title>
<g id="a_edge15_Node000013_Node000014"><a xlink:title=" ">
<path fill="none" stroke="#63b8ff" d="M3835.5,-66.69C3835.5,-58.08 3835.5,-48.9 3835.5,-41.07"/>
<polygon fill="#63b8ff" stroke="#63b8ff" points="3832,-66.79 3835.5,-76.79 3839,-66.79 3832,-66.79"/>
</a>
</g>
</g>
<!-- Node16 -->
<g id="Node000016" class="node">
<title>Node16</title>
<g id="a_Node000016"><a xlink:href="LevelScene_8cpp.html" target="_top" xlink:title=" ">
<polygon fill="white" stroke="#666666" points="4074,-41 3925,-41 3925,0 4074,0 4074,-41"/>
<text text-anchor="start" x="3933" y="-29" font-family="Helvetica,sans-Serif" font-size="10.00">/home/runner/work/R</text>
<text text-anchor="start" x="3933" y="-18" font-family="Helvetica,sans-Serif" font-size="10.00">&#45;Type/R&#45;Type/Client</text>
<text text-anchor="middle" x="3999.5" y="-7" font-family="Helvetica,sans-Serif" font-size="10.00">/src/scenes/LevelScene.cpp</text>
</a>
</g>
</g>
<!-- Node15&#45;&gt;Node16 -->
<g id="edge17_Node000015_Node000016" class="edge">
<title>Node15&#45;&gt;Node16</title>
<g id="a_edge17_Node000015_Node000016"><a xlink:title=" ">
<path fill="none" stroke="#63b8ff" d="M3999.5,-66.69C3999.5,-58.08 3999.5,-48.9 3999.5,-41.07"/>
<polygon fill="#63b8ff" stroke="#63b8ff" points="3996,-66.79 3999.5,-76.79 4003,-66.79 3996,-66.79"/>
</a>
</g>
</g>
<!-- Node18 -->
<g id="Node000018" class="node">
<title>Node18</title>
<g id="a_Node000018"><a xlink:href="Lobby_8cpp.html" target="_top" xlink:title=" ">
<polygon fill="white" stroke="#666666" points="988.5,-41 866.5,-41 866.5,0 988.5,0 988.5,-41"/>
<text text-anchor="start" x="874.5" y="-29" font-family="Helvetica,sans-Serif" font-size="10.00">/home/runner/work/R</text>
<text text-anchor="start" x="874.5" y="-18" font-family="Helvetica,sans-Serif" font-size="10.00">&#45;Type/R&#45;Type/Client</text>
<text text-anchor="middle" x="927.5" y="-7" font-family="Helvetica,sans-Serif" font-size="10.00">/src/scenes/Lobby.cpp</text>
</a>
</g>
</g>
<!-- Node17&#45;&gt;Node18 -->
<g id="edge19_Node000017_Node000018" class="edge">
<title>Node17&#45;&gt;Node18</title>
<g id="a_edge19_Node000017_Node000018"><a xlink:title=" ">
<path fill="none" stroke="#63b8ff" d="M927.5,-66.69C927.5,-58.08 927.5,-48.9 927.5,-41.07"/>
<polygon fill="#63b8ff" stroke="#63b8ff" points="924,-66.79 927.5,-76.79 931,-66.79 924,-66.79"/>
</a>
</g>
</g>
<!-- Node20 -->
<g id="Node000020" class="node">
<title>Node20</title>
<g id="a_Node000020"><a xlink:href="LobbyInfo_8cpp.html" target="_top" xlink:title=" ">
<polygon fill="white" stroke="#666666" points="1149.5,-41 1007.5,-41 1007.5,0 1149.5,0 1149.5,-41"/>
<text text-anchor="start" x="1015.5" y="-29" font-family="Helvetica,sans-Serif" font-size="10.00">/home/runner/work/R</text>
<text text-anchor="start" x="1015.5" y="-18" font-family="Helvetica,sans-Serif" font-size="10.00">&#45;Type/R&#45;Type/Client</text>
<text text-anchor="middle" x="1078.5" y="-7" font-family="Helvetica,sans-Serif" font-size="10.00">/src/scenes/LobbyInfo.cpp</text>
</a>
</g>
</g>
<!-- Node19&#45;&gt;Node20 -->
<g id="edge21_Node000019_Node000020" class="edge">
<title>Node19&#45;&gt;Node20</title>
<g id="a_edge21_Node000019_Node000020"><a xlink:title=" ">
<path fill="none" stroke="#63b8ff" d="M1078.5,-66.69C1078.5,-58.08 1078.5,-48.9 1078.5,-41.07"/>
<polygon fill="#63b8ff" stroke="#63b8ff" points="1075,-66.79 1078.5,-76.79 1082,-66.79 1075,-66.79"/>
</a>
</g>
</g>
<!-- Node22 -->
<g id="Node000022" class="node">
<title>Node22</title>
<g id="a_Node000022"><a xlink:href="LobbyJoin_8cpp.html" target="_top" xlink:title=" ">
<polygon fill="white" stroke="#666666" points="1310,-41 1169,-41 1169,0 1310,0 1310,-41"/>
<text text-anchor="start" x="1177" y="-29" font-family="Helvetica,sans-Serif" font-size="10.00">/home/runner/work/R</text>
<text text-anchor="start" x="1177" y="-18" font-family="Helvetica,sans-Serif" font-size="10.00">&#45;Type/R&#45;Type/Client</text>
<text text-anchor="middle" x="1239.5" y="-7" font-family="Helvetica,sans-Serif" font-size="10.00">/src/scenes/LobbyJoin.cpp</text>
</a>
</g>
</g>
<!-- Node21&#45;&gt;Node22 -->
<g id="edge23_Node000021_Node000022" class="edge">
<title>Node21&#45;&gt;Node22</title>
<g id="a_edge23_Node000021_Node000022"><a xlink:title=" ">
<path fill="none" stroke="#63b8ff" d="M1239.5,-66.69C1239.5,-58.08 1239.5,-48.9 1239.5,-41.07"/>
<polygon fill="#63b8ff" stroke="#63b8ff" points="1236,-66.79 1239.5,-76.79 1243,-66.79 1236,-66.79"/>
</a>
</g>
</g>
<!-- Node24 -->
<g id="Node000024" class="node">
<title>Node24</title>
<g id="a_Node000024"><a xlink:href="LobbyPassword_8cpp.html" target="_top" xlink:title=" ">
<polygon fill="white" stroke="#666666" points="1498,-41 1329,-41 1329,0 1498,0 1498,-41"/>
<text text-anchor="start" x="1337" y="-29" font-family="Helvetica,sans-Serif" font-size="10.00">/home/runner/work/R</text>
<text text-anchor="start" x="1337" y="-18" font-family="Helvetica,sans-Serif" font-size="10.00">&#45;Type/R&#45;Type/Client</text>
<text text-anchor="middle" x="1413.5" y="-7" font-family="Helvetica,sans-Serif" font-size="10.00">/src/scenes/LobbyPassword.cpp</text>
</a>
</g>
</g>
<!-- Node23&#45;&gt;Node24 -->
<g id="edge25_Node000023_Node000024" class="edge">
<title>Node23&#45;&gt;Node24</title>
<g id="a_edge25_Node000023_Node000024"><a xlink:title=" ">
<path fill="none" stroke="#63b8ff" d="M1413.5,-66.69C1413.5,-58.08 1413.5,-48.9 1413.5,-41.07"/>
<polygon fill="#63b8ff" stroke="#63b8ff" points="1410,-66.79 1413.5,-76.79 1417,-66.79 1410,-66.79"/>
</a>
</g>
</g>
<!-- Node26 -->
<g id="Node000026" class="node">
<title>Node26</title>
<g id="a_Node000026"><a xlink:href="MainGame_8cpp.html" target="_top" xlink:title=" ">
<polygon fill="white" stroke="#666666" points="1664,-41 1517,-41 1517,0 1664,0 1664,-41"/>
<text text-anchor="start" x="1525" y="-29" font-family="Helvetica,sans-Serif" font-size="10.00">/home/runner/work/R</text>
<text text-anchor="start" x="1525" y="-18" font-family="Helvetica,sans-Serif" font-size="10.00">&#45;Type/R&#45;Type/Client</text>
<text text-anchor="middle" x="1590.5" y="-7" font-family="Helvetica,sans-Serif" font-size="10.00">/src/scenes/MainGame.cpp</text>
</a>
</g>
</g>
<!-- Node25&#45;&gt;Node26 -->
<g id="edge27_Node000025_Node000026" class="edge">
<title>Node25&#45;&gt;Node26</title>
<g id="a_edge27_Node000025_Node000026"><a xlink:title=" ">
<path fill="none" stroke="#63b8ff" d="M1590.5,-66.69C1590.5,-58.08 1590.5,-48.9 1590.5,-41.07"/>
<polygon fill="#63b8ff" stroke="#63b8ff" points="1587,-66.79 1590.5,-76.79 1594,-66.79 1587,-66.79"/>
</a>
</g>
</g>
<!-- Node28 -->
<g id="Node000028" class="node">
<title>Node28</title>
<g id="a_Node000028"><a xlink:href="MainMenu_8cpp.html" target="_top" xlink:title=" ">
<polygon fill="white" stroke="#666666" points="1828,-41 1683,-41 1683,0 1828,0 1828,-41"/>
<text text-anchor="start" x="1691" y="-29" font-family="Helvetica,sans-Serif" font-size="10.00">/home/runner/work/R</text>
<text text-anchor="start" x="1691" y="-18" font-family="Helvetica,sans-Serif" font-size="10.00">&#45;Type/R&#45;Type/Client</text>
<text text-anchor="middle" x="1755.5" y="-7" font-family="Helvetica,sans-Serif" font-size="10.00">/src/scenes/MainMenu.cpp</text>
</a>
</g>
</g>
<!-- Node27&#45;&gt;Node28 -->
<g id="edge29_Node000027_Node000028" class="edge">
<title>Node27&#45;&gt;Node28</title>
<g id="a_edge29_Node000027_Node000028"><a xlink:title=" ">
<path fill="none" stroke="#63b8ff" d="M1755.5,-66.69C1755.5,-58.08 1755.5,-48.9 1755.5,-41.07"/>
<polygon fill="#63b8ff" stroke="#63b8ff" points="1752,-66.79 1755.5,-76.79 1759,-66.79 1752,-66.79"/>
</a>
</g>
</g>
<!-- Node30 -->
<g id="Node000030" class="node">
<title>Node30</title>
<g id="a_Node000030"><a xlink:href="Options_8cpp.html" target="_top" xlink:title=" ">
<polygon fill="white" stroke="#666666" points="1978,-41 1847,-41 1847,0 1978,0 1978,-41"/>
<text text-anchor="start" x="1855" y="-29" font-family="Helvetica,sans-Serif" font-size="10.00">/home/runner/work/R</text>
<text text-anchor="start" x="1855" y="-18" font-family="Helvetica,sans-Serif" font-size="10.00">&#45;Type/R&#45;Type/Client</text>
<text text-anchor="middle" x="1912.5" y="-7" font-family="Helvetica,sans-Serif" font-size="10.00">/src/scenes/Options.cpp</text>
</a>
</g>
</g>
<!-- Node29&#45;&gt;Node30 -->
<g id="edge31_Node000029_Node000030" class="edge">
<title>Node29&#45;&gt;Node30</title>
<g id="a_edge31_Node000029_Node000030"><a xlink:title=" ">
<path fill="none" stroke="#63b8ff" d="M1912.5,-66.69C1912.5,-58.08 1912.5,-48.9 1912.5,-41.07"/>
<polygon fill="#63b8ff" stroke="#63b8ff" points="1909,-66.79 1912.5,-76.79 1916,-66.79 1909,-66.79"/>
</a>
</g>
</g>
<!-- Node31&#45;&gt;Node5 -->
<g id="edge33_Node000031_Node000005" class="edge">
<title>Node31&#45;&gt;Node5</title>
<g id="a_edge33_Node000031_Node000005"><a xlink:title=" ">
<path fill="none" stroke="#63b8ff" d="M732.4,-71.64C716.42,-61.74 698.28,-50.5 683.24,-41.17"/>
<polygon fill="#63b8ff" stroke="#63b8ff" points="730.68,-74.7 741.02,-76.99 734.37,-68.75 730.68,-74.7"/>
</a>
</g>
</g>
<!-- Node33 -->
<g id="Node000033" class="node">
<title>Node33</title>
<g id="a_Node000033"><a xlink:href="SecondGameClient_8cpp.html" target="_top" xlink:title=" ">
<polygon fill="white" stroke="#666666" points="2184,-41 1997,-41 1997,0 2184,0 2184,-41"/>
<text text-anchor="start" x="2005" y="-29" font-family="Helvetica,sans-Serif" font-size="10.00">/home/runner/work/R</text>
<text text-anchor="start" x="2005" y="-18" font-family="Helvetica,sans-Serif" font-size="10.00">&#45;Type/R&#45;Type/Client</text>
<text text-anchor="middle" x="2090.5" y="-7" font-family="Helvetica,sans-Serif" font-size="10.00">/src/scenes/SecondGameClient.cpp</text>
</a>
</g>
</g>
<!-- Node32&#45;&gt;Node33 -->
<g id="edge35_Node000032_Node000033" class="edge">
<title>Node32&#45;&gt;Node33</title>
<g id="a_edge35_Node000032_Node000033"><a xlink:title=" ">
<path fill="none" stroke="#63b8ff" d="M2090.5,-66.69C2090.5,-58.08 2090.5,-48.9 2090.5,-41.07"/>
<polygon fill="#63b8ff" stroke="#63b8ff" points="2087,-66.79 2090.5,-76.79 2094,-66.79 2087,-66.79"/>
</a>
</g>
</g>
<!-- Node35 -->
<g id="Node000035" class="node">
<title>Node35</title>
<g id="a_Node000035"><a xlink:href="Victory_8cpp.html" target="_top" xlink:title=" ">
<polygon fill="white" stroke="#666666" points="2330,-41 2203,-41 2203,0 2330,0 2330,-41"/>
<text text-anchor="start" x="2211" y="-29" font-family="Helvetica,sans-Serif" font-size="10.00">/home/runner/work/R</text>
<text text-anchor="start" x="2211" y="-18" font-family="Helvetica,sans-Serif" font-size="10.00">&#45;Type/R&#45;Type/Client</text>
<text text-anchor="middle" x="2266.5" y="-7" font-family="Helvetica,sans-Serif" font-size="10.00">/src/scenes/Victory.cpp</text>
</a>
</g>
</g>
<!-- Node34&#45;&gt;Node35 -->
<g id="edge37_Node000034_Node000035" class="edge">
<title>Node34&#45;&gt;Node35</title>
<g id="a_edge37_Node000034_Node000035"><a xlink:title=" ">
<path fill="none" stroke="#63b8ff" d="M2266.5,-66.69C2266.5,-58.08 2266.5,-48.9 2266.5,-41.07"/>
<polygon fill="#63b8ff" stroke="#63b8ff" points="2263,-66.79 2266.5,-76.79 2270,-66.79 2263,-66.79"/>
</a>
</g>
</g>
<!-- Node37 -->
<g id="Node000037" class="node">
<title>Node37</title>
<g id="a_Node000037"><a xlink:href="WaitLobby_8cpp.html" target="_top" xlink:title=" ">
<polygon fill="white" stroke="#666666" points="3408,-41 3265,-41 3265,0 3408,0 3408,-41"/>
<text text-anchor="start" x="3273" y="-29" font-family="Helvetica,sans-Serif" font-size="10.00">/home/runner/work/R</text>
<text text-anchor="start" x="3273" y="-18" font-family="Helvetica,sans-Serif" font-size="10.00">&#45;Type/R&#45;Type/Client</text>
<text text-anchor="middle" x="3336.5" y="-7" font-family="Helvetica,sans-Serif" font-size="10.00">/src/scenes/WaitLobby.cpp</text>
</a>
</g>
</g>
<!-- Node36&#45;&gt;Node37 -->
<g id="edge39_Node000036_Node000037" class="edge">
<title>Node36&#45;&gt;Node37</title>
<g id="a_edge39_Node000036_Node000037"><a xlink:title=" ">
<path fill="none" stroke="#63b8ff" d="M3336.5,-66.69C3336.5,-58.08 3336.5,-48.9 3336.5,-41.07"/>
<polygon fill="#63b8ff" stroke="#63b8ff" points="3333,-66.79 3336.5,-76.79 3340,-66.79 3333,-66.79"/>
</a>
</g>
</g>
</g>
</svg>
