<?xml version="1.0" encoding="UTF-8" standalone="no"?>
<!DOCTYPE svg PUBLIC "-//W3C//DTD SVG 1.1//EN"
 "http://www.w3.org/Graphics/SVG/1.1/DTD/svg11.dtd">
<!-- Generated by graphviz version 2.43.0 (0)
 -->
<!-- Title: /home/runner/work/R&#45;Type/R&#45;Type/Shared/components/Collision/Items.hpp Pages: 1 -->
<svg width="3877pt" height="291pt"
 viewBox="0.00 0.00 3876.50 291.00" xmlns="http://www.w3.org/2000/svg" xmlns:xlink="http://www.w3.org/1999/xlink">
<g id="graph0" class="graph" transform="scale(1 1) rotate(0) translate(4 287)">
<title>/home/runner/work/R&#45;Type/R&#45;Type/Shared/components/Collision/Items.hpp</title>
<!-- Node1 -->
<g id="Node000001" class="node">
<title>Node1</title>
<g id="a_Node000001"><a xlink:title=" ">
<polygon fill="#999999" stroke="#666666" points="602,-283 477,-283 477,-231 602,-231 602,-283"/>
<text text-anchor="start" x="485" y="-271" font-family="Helvetica,sans-Serif" font-size="10.00">/home/runner/work/R</text>
<text text-anchor="start" x="485" y="-260" font-family="Helvetica,sans-Serif" font-size="10.00">&#45;Type/R&#45;Type/Shared</text>
<text text-anchor="start" x="485" y="-249" font-family="Helvetica,sans-Serif" font-size="10.00">/components/Collision</text>
<text text-anchor="middle" x="539.5" y="-238" font-family="Helvetica,sans-Serif" font-size="10.00">/Items.hpp</text>
</a>
</g>
</g>
<!-- Node2 -->
<g id="Node000002" class="node">
<title>Node2</title>
<g id="a_Node000002"><a xlink:href="ServerGame_8cpp.html" target="_top" xlink:title=" ">
<polygon fill="white" stroke="#666666" points="678,-118 559,-118 559,-77 678,-77 678,-118"/>
<text text-anchor="start" x="567" y="-106" font-family="Helvetica,sans-Serif" font-size="10.00">/home/runner/work/R</text>
<text text-anchor="start" x="567" y="-95" font-family="Helvetica,sans-Serif" font-size="10.00">&#45;Type/R&#45;Type/Server</text>
<text text-anchor="middle" x="618.5" y="-84" font-family="Helvetica,sans-Serif" font-size="10.00">/src/ServerGame.cpp</text>
</a>
</g>
</g>
<!-- Node1&#45;&gt;Node2 -->
<g id="edge1_Node000001_Node000002" class="edge">
<title>Node1&#45;&gt;Node2</title>
<g id="a_edge1_Node000001_Node000002"><a xlink:title=" ">
<path fill="none" stroke="#63b8ff" d="M556.87,-221.37C572.74,-189.73 595.64,-144.08 608.59,-118.26"/>
<polygon fill="#63b8ff" stroke="#63b8ff" points="553.55,-220.19 552.19,-230.69 559.8,-223.33 553.55,-220.19"/>
</a>
</g>
</g>
<!-- Node3 -->
<g id="Node000003" class="node">
<title>Node3</title>
<g id="a_Node000003"><a xlink:href="Collision_8cpp.html" target="_top" xlink:title=" ">
<polygon fill="white" stroke="#666666" points="171,-118 0,-118 0,-77 171,-77 171,-118"/>
<text text-anchor="start" x="8" y="-106" font-family="Helvetica,sans-Serif" font-size="10.00">/home/runner/work/R</text>
<text text-anchor="start" x="8" y="-95" font-family="Helvetica,sans-Serif" font-size="10.00">&#45;Type/R&#45;Type/Shared</text>
<text text-anchor="middle" x="85.5" y="-84" font-family="Helvetica,sans-Serif" font-size="10.00">/systems/Collision/Collision.cpp</text>
</a>
</g>
</g>
<!-- Node1&#45;&gt;Node3 -->
<g id="edge2_Node000001_Node000003" class="edge">
<title>Node1&#45;&gt;Node3</title>
<g id="a_edge2_Node000001_Node000003"><a xlink:title=" ">
<path fill="none" stroke="#63b8ff" d="M467.17,-234.21C430.56,-222.94 385.51,-208.71 345.5,-195 272.17,-169.88 188.24,-138.19 136.04,-118.13"/>
<polygon fill="#63b8ff" stroke="#63b8ff" points="466.18,-237.57 476.77,-237.16 468.24,-230.88 466.18,-237.57"/>
</a>
</g>
</g>
<!-- Node4 -->
<g id="Node000004" class="node">
<title>Node4</title>
<g id="a_Node000004"><a xlink:href="Collision_8hpp.html" target="_top" xlink:title=" ">
<polygon fill="white" stroke="#666666" points="526.5,-195 354.5,-195 354.5,-154 526.5,-154 526.5,-195"/>
<text text-anchor="start" x="362.5" y="-183" font-family="Helvetica,sans-Serif" font-size="10.00">/home/runner/work/R</text>
<text text-anchor="start" x="362.5" y="-172" font-family="Helvetica,sans-Serif" font-size="10.00">&#45;Type/R&#45;Type/Shared</text>
<text text-anchor="middle" x="440.5" y="-161" font-family="Helvetica,sans-Serif" font-size="10.00">/systems/Collision/Collision.hpp</text>
</a>
</g>
</g>
<!-- Node1&#45;&gt;Node4 -->
<g id="edge3_Node000001_Node000004" class="edge">
<title>Node1&#45;&gt;Node4</title>
<g id="a_edge3_Node000001_Node000004"><a xlink:title=" ">
<path fill="none" stroke="#63b8ff" d="M500.87,-224.59C488.67,-214.67 475.55,-204 464.66,-195.15"/>
<polygon fill="#63b8ff" stroke="#63b8ff" points="498.75,-227.38 508.72,-230.97 503.17,-221.95 498.75,-227.38"/>
</a>
</g>
</g>
<!-- Node8 -->
<g id="Node000008" class="node">
<title>Node8</title>
<g id="a_Node000008"><a xlink:href="EntityHelper_8hpp.html" target="_top" xlink:title=" ">
<polygon fill="white" stroke="#666666" points="2153,-195 1968,-195 1968,-154 2153,-154 2153,-195"/>
<text text-anchor="start" x="1976" y="-183" font-family="Helvetica,sans-Serif" font-size="10.00">/home/runner/work/R</text>
<text text-anchor="start" x="1976" y="-172" font-family="Helvetica,sans-Serif" font-size="10.00">&#45;Type/R&#45;Type/Shared</text>
<text text-anchor="middle" x="2060.5" y="-161" font-family="Helvetica,sans-Serif" font-size="10.00">/systems/Helpers/EntityHelper.hpp</text>
</a>
</g>
</g>
<!-- Node1&#45;&gt;Node8 -->
<g id="edge9_Node000001_Node000008" class="edge">
<title>Node1&#45;&gt;Node8</title>
<g id="a_edge9_Node000001_Node000008"><a xlink:title=" ">
<path fill="none" stroke="#63b8ff" d="M612.53,-252.13C863.28,-238.86 1688.93,-195.17 1967.65,-180.41"/>
<polygon fill="#63b8ff" stroke="#63b8ff" points="612.24,-248.65 602.44,-252.67 612.61,-255.64 612.24,-248.65"/>
</a>
</g>
</g>
<!-- Node4&#45;&gt;Node2 -->
<g id="edge5_Node000004_Node000002" class="edge">
<title>Node4&#45;&gt;Node2</title>
<g id="a_edge5_Node000004_Node000002"><a xlink:title=" ">
<path fill="none" stroke="#63b8ff" d="M496.28,-150C520.66,-139.72 548.92,-127.82 572.12,-118.04"/>
<polygon fill="#63b8ff" stroke="#63b8ff" points="494.66,-146.88 486.8,-153.99 497.38,-153.33 494.66,-146.88"/>
</a>
</g>
</g>
<!-- Node4&#45;&gt;Node3 -->
<g id="edge6_Node000004_Node000003" class="edge">
<title>Node4&#45;&gt;Node3</title>
<g id="a_edge6_Node000004_Node000003"><a xlink:title=" ">
<path fill="none" stroke="#63b8ff" d="M344.17,-153.15C290.11,-141.73 223.25,-127.6 171.05,-116.57"/>
<polygon fill="#63b8ff" stroke="#63b8ff" points="343.6,-156.61 354.11,-155.25 345.05,-149.76 343.6,-156.61"/>
</a>
</g>
</g>
<!-- Node5 -->
<g id="Node000005" class="node">
<title>Node5</title>
<g id="a_Node000005"><a xlink:href="RtypeScene_8cpp.html" target="_top" xlink:title=" ">
<polygon fill="white" stroke="#666666" points="727.5,-41 575.5,-41 575.5,0 727.5,0 727.5,-41"/>
<text text-anchor="start" x="583.5" y="-29" font-family="Helvetica,sans-Serif" font-size="10.00">/home/runner/work/R</text>
<text text-anchor="start" x="583.5" y="-18" font-family="Helvetica,sans-Serif" font-size="10.00">&#45;Type/R&#45;Type/Client</text>
<text text-anchor="middle" x="651.5" y="-7" font-family="Helvetica,sans-Serif" font-size="10.00">/src/scenes/RtypeScene.cpp</text>
</a>
</g>
</g>
<!-- Node4&#45;&gt;Node5 -->
<g id="edge4_Node000004_Node000005" class="edge">
<title>Node4&#45;&gt;Node5</title>
<g id="a_edge4_Node000004_Node000005"><a xlink:title=" ">
<path fill="none" stroke="#63b8ff" d="M475.87,-147.63C487.55,-138.63 500.38,-128.22 511.5,-118 529.79,-101.18 529.89,-92.25 549.5,-77 567.48,-63.02 589.47,-50.57 608.41,-41.02"/>
<polygon fill="#63b8ff" stroke="#63b8ff" points="473.46,-145.07 467.62,-153.91 477.7,-150.64 473.46,-145.07"/>
</a>
</g>
</g>
<!-- Node6 -->
<g id="Node000006" class="node">
<title>Node6</title>
<g id="a_Node000006"><a xlink:href="ForceCtrl_8cpp.html" target="_top" xlink:title=" ">
<polygon fill="white" stroke="#666666" points="317.5,-118 189.5,-118 189.5,-77 317.5,-77 317.5,-118"/>
<text text-anchor="start" x="197.5" y="-106" font-family="Helvetica,sans-Serif" font-size="10.00">/home/runner/work/R</text>
<text text-anchor="start" x="197.5" y="-95" font-family="Helvetica,sans-Serif" font-size="10.00">&#45;Type/R&#45;Type/Shared</text>
<text text-anchor="middle" x="253.5" y="-84" font-family="Helvetica,sans-Serif" font-size="10.00">/systems/ForceCtrl.cpp</text>
</a>
</g>
</g>
<!-- Node4&#45;&gt;Node6 -->
<g id="edge7_Node000004_Node000006" class="edge">
<title>Node4&#45;&gt;Node6</title>
<g id="a_edge7_Node000004_Node000006"><a xlink:title=" ">
<path fill="none" stroke="#63b8ff" d="M382.57,-150.27C356.81,-139.94 326.81,-127.9 302.22,-118.04"/>
<polygon fill="#63b8ff" stroke="#63b8ff" points="381.27,-153.52 391.86,-153.99 383.88,-147.02 381.27,-153.52"/>
</a>
</g>
</g>
<!-- Node7 -->
<g id="Node000007" class="node">
<title>Node7</title>
<g id="a_Node000007"><a xlink:href="ProjectileSystem_8cpp.html" target="_top" xlink:title=" ">
<polygon fill="white" stroke="#666666" points="503,-118 336,-118 336,-77 503,-77 503,-118"/>
<text text-anchor="start" x="344" y="-106" font-family="Helvetica,sans-Serif" font-size="10.00">/home/runner/work/R</text>
<text text-anchor="start" x="344" y="-95" font-family="Helvetica,sans-Serif" font-size="10.00">&#45;Type/R&#45;Type/Shared</text>
<text text-anchor="middle" x="419.5" y="-84" font-family="Helvetica,sans-Serif" font-size="10.00">/systems/ProjectileSystem.cpp</text>
</a>
</g>
</g>
<!-- Node4&#45;&gt;Node7 -->
<g id="edge8_Node000004_Node000007" class="edge">
<title>Node4&#45;&gt;Node7</title>
<g id="a_edge8_Node000004_Node000007"><a xlink:title=" ">
<path fill="none" stroke="#63b8ff" d="M432.23,-143.98C429.8,-135.28 427.19,-125.98 424.98,-118.07"/>
<polygon fill="#63b8ff" stroke="#63b8ff" points="428.92,-145.11 434.98,-153.79 435.66,-143.22 428.92,-145.11"/>
</a>
</g>
</g>
<!-- Node8&#45;&gt;Node2 -->
<g id="edge38_Node000008_Node000002" class="edge">
<title>Node8&#45;&gt;Node2</title>
<g id="a_edge38_Node000008_Node000002"><a xlink:title=" ">
<path fill="none" stroke="#63b8ff" d="M1957.48,-172.47C1681.85,-169.21 931.88,-156.91 687.5,-118 684.43,-117.51 681.3,-116.93 678.15,-116.28"/>
<polygon fill="#63b8ff" stroke="#63b8ff" points="1957.84,-175.97 1967.88,-172.59 1957.92,-168.97 1957.84,-175.97"/>
</a>
</g>
</g>
<!-- Node9 -->
<g id="Node000009" class="node">
<title>Node9</title>
<g id="a_Node000009"><a xlink:href="CreateLobby_8hpp.html" target="_top" xlink:title=" ">
<polygon fill="white" stroke="#666666" points="3376,-118 3221,-118 3221,-77 3376,-77 3376,-118"/>
<text text-anchor="start" x="3229" y="-106" font-family="Helvetica,sans-Serif" font-size="10.00">/home/runner/work/R</text>
<text text-anchor="start" x="3229" y="-95" font-family="Helvetica,sans-Serif" font-size="10.00">&#45;Type/R&#45;Type/Client</text>
<text text-anchor="middle" x="3298.5" y="-84" font-family="Helvetica,sans-Serif" font-size="10.00">/src/scenes/CreateLobby.hpp</text>
</a>
</g>
</g>
<!-- Node8&#45;&gt;Node9 -->
<g id="edge10_Node000008_Node000009" class="edge">
<title>Node8&#45;&gt;Node9</title>
<g id="a_edge10_Node000008_Node000009"><a xlink:title=" ">
<path fill="none" stroke="#63b8ff" d="M2163.42,-174.46C2365.37,-175.04 2827.37,-169.92 3211.5,-118 3214.57,-117.59 3217.69,-117.12 3220.83,-116.6"/>
<polygon fill="#63b8ff" stroke="#63b8ff" points="2163.13,-170.96 2153.12,-174.42 2163.11,-177.96 2163.13,-170.96"/>
</a>
</g>
</g>
<!-- Node11 -->
<g id="Node000011" class="node">
<title>Node11</title>
<g id="a_Node000011"><a xlink:href="GameOver_8hpp.html" target="_top" xlink:title=" ">
<polygon fill="white" stroke="#666666" points="3540.5,-118 3394.5,-118 3394.5,-77 3540.5,-77 3540.5,-118"/>
<text text-anchor="start" x="3402.5" y="-106" font-family="Helvetica,sans-Serif" font-size="10.00">/home/runner/work/R</text>
<text text-anchor="start" x="3402.5" y="-95" font-family="Helvetica,sans-Serif" font-size="10.00">&#45;Type/R&#45;Type/Client</text>
<text text-anchor="middle" x="3467.5" y="-84" font-family="Helvetica,sans-Serif" font-size="10.00">/src/scenes/GameOver.hpp</text>
</a>
</g>
</g>
<!-- Node8&#45;&gt;Node11 -->
<g id="edge12_Node000008_Node000011" class="edge">
<title>Node8&#45;&gt;Node11</title>
<g id="a_edge12_Node000008_Node000011"><a xlink:title=" ">
<path fill="none" stroke="#63b8ff" d="M2163.18,-171.74C2431.65,-166.74 3149.92,-150.64 3385.5,-118 3388.4,-117.6 3391.35,-117.14 3394.31,-116.64"/>
<polygon fill="#63b8ff" stroke="#63b8ff" points="2162.99,-168.25 2153.05,-171.93 2163.11,-175.24 2162.99,-168.25"/>
</a>
</g>
</g>
<!-- Node13 -->
<g id="Node000013" class="node">
<title>Node13</title>
<g id="a_Node000013"><a xlink:href="JoinGame_8hpp.html" target="_top" xlink:title=" ">
<polygon fill="white" stroke="#666666" points="3700.5,-118 3558.5,-118 3558.5,-77 3700.5,-77 3700.5,-118"/>
<text text-anchor="start" x="3566.5" y="-106" font-family="Helvetica,sans-Serif" font-size="10.00">/home/runner/work/R</text>
<text text-anchor="start" x="3566.5" y="-95" font-family="Helvetica,sans-Serif" font-size="10.00">&#45;Type/R&#45;Type/Client</text>
<text text-anchor="middle" x="3629.5" y="-84" font-family="Helvetica,sans-Serif" font-size="10.00">/src/scenes/JoinGame.hpp</text>
</a>
</g>
</g>
<!-- Node8&#45;&gt;Node13 -->
<g id="edge14_Node000008_Node000013" class="edge">
<title>Node8&#45;&gt;Node13</title>
<g id="a_edge14_Node000008_Node000013"><a xlink:title=" ">
<path fill="none" stroke="#63b8ff" d="M2163.4,-172.37C2454.67,-168.73 3281.09,-155.32 3549.5,-118 3552.33,-117.61 3555.21,-117.15 3558.11,-116.66"/>
<polygon fill="#63b8ff" stroke="#63b8ff" points="2163.23,-168.87 2153.27,-172.49 2163.31,-175.87 2163.23,-168.87"/>
</a>
</g>
</g>
<!-- Node15 -->
<g id="Node000015" class="node">
<title>Node15</title>
<g id="a_Node000015"><a xlink:href="LevelScene_8hpp.html" target="_top" xlink:title=" ">
<polygon fill="white" stroke="#666666" points="3868.5,-118 3718.5,-118 3718.5,-77 3868.5,-77 3868.5,-118"/>
<text text-anchor="start" x="3726.5" y="-106" font-family="Helvetica,sans-Serif" font-size="10.00">/home/runner/work/R</text>
<text text-anchor="start" x="3726.5" y="-95" font-family="Helvetica,sans-Serif" font-size="10.00">&#45;Type/R&#45;Type/Client</text>
<text text-anchor="middle" x="3793.5" y="-84" font-family="Helvetica,sans-Serif" font-size="10.00">/src/scenes/LevelScene.hpp</text>
</a>
</g>
</g>
<!-- Node8&#45;&gt;Node15 -->
<g id="edge16_Node000008_Node000015" class="edge">
<title>Node8&#45;&gt;Node15</title>
<g id="a_edge16_Node000008_Node000015"><a xlink:title=" ">
<path fill="none" stroke="#63b8ff" d="M2163.63,-172.65C2475.98,-169.67 3408.6,-157.61 3709.5,-118 3712.32,-117.63 3715.18,-117.21 3718.07,-116.74"/>
<polygon fill="#63b8ff" stroke="#63b8ff" points="2163.2,-169.16 2153.23,-172.75 2163.26,-176.16 2163.2,-169.16"/>
</a>
</g>
</g>
<!-- Node17 -->
<g id="Node000017" class="node">
<title>Node17</title>
<g id="a_Node000017"><a xlink:href="Lobby_8hpp.html" target="_top" xlink:title=" ">
<polygon fill="white" stroke="#666666" points="988.5,-118 866.5,-118 866.5,-77 988.5,-77 988.5,-118"/>
<text text-anchor="start" x="874.5" y="-106" font-family="Helvetica,sans-Serif" font-size="10.00">/home/runner/work/R</text>
<text text-anchor="start" x="874.5" y="-95" font-family="Helvetica,sans-Serif" font-size="10.00">&#45;Type/R&#45;Type/Client</text>
<text text-anchor="middle" x="927.5" y="-84" font-family="Helvetica,sans-Serif" font-size="10.00">/src/scenes/Lobby.hpp</text>
</a>
</g>
</g>
<!-- Node8&#45;&gt;Node17 -->
<g id="edge18_Node000008_Node000017" class="edge">
<title>Node8&#45;&gt;Node17</title>
<g id="a_edge18_Node000008_Node000017"><a xlink:title=" ">
<path fill="none" stroke="#63b8ff" d="M1957.7,-171.01C1728.26,-164.98 1180.24,-147.85 997.5,-118 994.64,-117.53 991.72,-116.99 988.79,-116.39"/>
<polygon fill="#63b8ff" stroke="#63b8ff" points="1957.63,-174.51 1967.72,-171.27 1957.81,-167.51 1957.63,-174.51"/>
</a>
</g>
</g>
<!-- Node19 -->
<g id="Node000019" class="node">
<title>Node19</title>
<g id="a_Node000019"><a xlink:href="LobbyInfo_8hpp.html" target="_top" xlink:title=" ">
<polygon fill="white" stroke="#666666" points="1150,-118 1007,-118 1007,-77 1150,-77 1150,-118"/>
<text text-anchor="start" x="1015" y="-106" font-family="Helvetica,sans-Serif" font-size="10.00">/home/runner/work/R</text>
<text text-anchor="start" x="1015" y="-95" font-family="Helvetica,sans-Serif" font-size="10.00">&#45;Type/R&#45;Type/Client</text>
<text text-anchor="middle" x="1078.5" y="-84" font-family="Helvetica,sans-Serif" font-size="10.00">/src/scenes/LobbyInfo.hpp</text>
</a>
</g>
</g>
<!-- Node8&#45;&gt;Node19 -->
<g id="edge20_Node000008_Node000019" class="edge">
<title>Node8&#45;&gt;Node19</title>
<g id="a_edge20_Node000008_Node000019"><a xlink:title=" ">
<path fill="none" stroke="#63b8ff" d="M1957.78,-172.99C1789.88,-170.86 1446.56,-161.06 1159.5,-118 1156.5,-117.55 1153.44,-117.04 1150.36,-116.49"/>
<polygon fill="#63b8ff" stroke="#63b8ff" points="1957.81,-176.49 1967.85,-173.11 1957.89,-169.49 1957.81,-176.49"/>
</a>
</g>
</g>
<!-- Node21 -->
<g id="Node000021" class="node">
<title>Node21</title>
<g id="a_Node000021"><a xlink:href="LobbyJoin_8hpp.html" target="_top" xlink:title=" ">
<polygon fill="white" stroke="#666666" points="1310.5,-118 1168.5,-118 1168.5,-77 1310.5,-77 1310.5,-118"/>
<text text-anchor="start" x="1176.5" y="-106" font-family="Helvetica,sans-Serif" font-size="10.00">/home/runner/work/R</text>
<text text-anchor="start" x="1176.5" y="-95" font-family="Helvetica,sans-Serif" font-size="10.00">&#45;Type/R&#45;Type/Client</text>
<text text-anchor="middle" x="1239.5" y="-84" font-family="Helvetica,sans-Serif" font-size="10.00">/src/scenes/LobbyJoin.hpp</text>
</a>
</g>
</g>
<!-- Node8&#45;&gt;Node21 -->
<g id="edge22_Node000008_Node000021" class="edge">
<title>Node8&#45;&gt;Node21</title>
<g id="a_edge22_Node000008_Node000021"><a xlink:title=" ">
<path fill="none" stroke="#63b8ff" d="M1957.68,-171.13C1814.04,-166.61 1545.5,-153.76 1319.5,-118 1316.68,-117.55 1313.81,-117.06 1310.91,-116.52"/>
<polygon fill="#63b8ff" stroke="#63b8ff" points="1957.71,-174.63 1967.81,-171.44 1957.92,-167.63 1957.71,-174.63"/>
</a>
</g>
</g>
<!-- Node23 -->
<g id="Node000023" class="node">
<title>Node23</title>
<g id="a_Node000023"><a xlink:href="LobbyPassword_8hpp.html" target="_top" xlink:title=" ">
<polygon fill="white" stroke="#666666" points="1498.5,-118 1328.5,-118 1328.5,-77 1498.5,-77 1498.5,-118"/>
<text text-anchor="start" x="1336.5" y="-106" font-family="Helvetica,sans-Serif" font-size="10.00">/home/runner/work/R</text>
<text text-anchor="start" x="1336.5" y="-95" font-family="Helvetica,sans-Serif" font-size="10.00">&#45;Type/R&#45;Type/Client</text>
<text text-anchor="middle" x="1413.5" y="-84" font-family="Helvetica,sans-Serif" font-size="10.00">/src/scenes/LobbyPassword.hpp</text>
</a>
</g>
</g>
<!-- Node8&#45;&gt;Node23 -->
<g id="edge24_Node000008_Node000023" class="edge">
<title>Node8&#45;&gt;Node23</title>
<g id="a_edge24_Node000008_Node000023"><a xlink:title=" ">
<path fill="none" stroke="#63b8ff" d="M1957.44,-166.39C1846.07,-157.96 1663.57,-141.95 1507.5,-118 1504.62,-117.56 1501.69,-117.08 1498.74,-116.59"/>
<polygon fill="#63b8ff" stroke="#63b8ff" points="1957.43,-169.9 1967.66,-167.16 1957.95,-162.92 1957.43,-169.9"/>
</a>
</g>
</g>
<!-- Node25 -->
<g id="Node000025" class="node">
<title>Node25</title>
<g id="a_Node000025"><a xlink:href="MainGame_8hpp.html" target="_top" xlink:title=" ">
<polygon fill="white" stroke="#666666" points="1664.5,-118 1516.5,-118 1516.5,-77 1664.5,-77 1664.5,-118"/>
<text text-anchor="start" x="1524.5" y="-106" font-family="Helvetica,sans-Serif" font-size="10.00">/home/runner/work/R</text>
<text text-anchor="start" x="1524.5" y="-95" font-family="Helvetica,sans-Serif" font-size="10.00">&#45;Type/R&#45;Type/Client</text>
<text text-anchor="middle" x="1590.5" y="-84" font-family="Helvetica,sans-Serif" font-size="10.00">/src/scenes/MainGame.hpp</text>
</a>
</g>
</g>
<!-- Node8&#45;&gt;Node25 -->
<g id="edge26_Node000008_Node000025" class="edge">
<title>Node8&#45;&gt;Node25</title>
<g id="a_edge26_Node000008_Node000025"><a xlink:title=" ">
<path fill="none" stroke="#63b8ff" d="M1957.52,-161.25C1879.3,-151.33 1769.25,-136.08 1673.5,-118 1670.59,-117.45 1667.63,-116.87 1664.64,-116.26"/>
<polygon fill="#63b8ff" stroke="#63b8ff" points="1957.49,-164.77 1967.85,-162.55 1958.37,-157.83 1957.49,-164.77"/>
</a>
</g>
</g>
<!-- Node27 -->
<g id="Node000027" class="node">
<title>Node27</title>
<g id="a_Node000027"><a xlink:href="MainMenu_8hpp.html" target="_top" xlink:title=" ">
<polygon fill="white" stroke="#666666" points="1828.5,-118 1682.5,-118 1682.5,-77 1828.5,-77 1828.5,-118"/>
<text text-anchor="start" x="1690.5" y="-106" font-family="Helvetica,sans-Serif" font-size="10.00">/home/runner/work/R</text>
<text text-anchor="start" x="1690.5" y="-95" font-family="Helvetica,sans-Serif" font-size="10.00">&#45;Type/R&#45;Type/Client</text>
<text text-anchor="middle" x="1755.5" y="-84" font-family="Helvetica,sans-Serif" font-size="10.00">/src/scenes/MainMenu.hpp</text>
</a>
</g>
</g>
<!-- Node8&#45;&gt;Node27 -->
<g id="edge28_Node000008_Node000027" class="edge">
<title>Node8&#45;&gt;Node27</title>
<g id="a_edge28_Node000008_Node000027"><a xlink:title=" ">
<path fill="none" stroke="#63b8ff" d="M1971.33,-151.57C1925.98,-140.42 1871.55,-127.04 1828.69,-116.5"/>
<polygon fill="#63b8ff" stroke="#63b8ff" points="1970.61,-155 1981.16,-153.99 1972.29,-148.2 1970.61,-155"/>
</a>
</g>
</g>
<!-- Node29 -->
<g id="Node000029" class="node">
<title>Node29</title>
<g id="a_Node000029"><a xlink:href="Options_8hpp.html" target="_top" xlink:title=" ">
<polygon fill="white" stroke="#666666" points="1978.5,-118 1846.5,-118 1846.5,-77 1978.5,-77 1978.5,-118"/>
<text text-anchor="start" x="1854.5" y="-106" font-family="Helvetica,sans-Serif" font-size="10.00">/home/runner/work/R</text>
<text text-anchor="start" x="1854.5" y="-95" font-family="Helvetica,sans-Serif" font-size="10.00">&#45;Type/R&#45;Type/Client</text>
<text text-anchor="middle" x="1912.5" y="-84" font-family="Helvetica,sans-Serif" font-size="10.00">/src/scenes/Options.hpp</text>
</a>
</g>
</g>
<!-- Node8&#45;&gt;Node29 -->
<g id="edge30_Node000008_Node000029" class="edge">
<title>Node8&#45;&gt;Node29</title>
<g id="a_edge30_Node000008_Node000029"><a xlink:title=" ">
<path fill="none" stroke="#63b8ff" d="M2013.04,-149.45C1993.02,-139.3 1970.01,-127.64 1951.06,-118.04"/>
<polygon fill="#63b8ff" stroke="#63b8ff" points="2011.5,-152.59 2022,-153.99 2014.66,-146.35 2011.5,-152.59"/>
</a>
</g>
</g>
<!-- Node31 -->
<g id="Node000031" class="node">
<title>Node31</title>
<g id="a_Node000031"><a xlink:href="RtypeScene_8hpp.html" target="_top" xlink:title=" ">
<polygon fill="white" stroke="#666666" points="848.5,-118 696.5,-118 696.5,-77 848.5,-77 848.5,-118"/>
<text text-anchor="start" x="704.5" y="-106" font-family="Helvetica,sans-Serif" font-size="10.00">/home/runner/work/R</text>
<text text-anchor="start" x="704.5" y="-95" font-family="Helvetica,sans-Serif" font-size="10.00">&#45;Type/R&#45;Type/Client</text>
<text text-anchor="middle" x="772.5" y="-84" font-family="Helvetica,sans-Serif" font-size="10.00">/src/scenes/RtypeScene.hpp</text>
</a>
</g>
</g>
<!-- Node8&#45;&gt;Node31 -->
<g id="edge32_Node000008_Node000031" class="edge">
<title>Node8&#45;&gt;Node31</title>
<g id="a_edge32_Node000008_Node000031"><a xlink:title=" ">
<path fill="none" stroke="#63b8ff" d="M1957.63,-171.13C1706.78,-164.96 1068.71,-146.86 857.5,-118 854.65,-117.61 851.75,-117.17 848.84,-116.69"/>
<polygon fill="#63b8ff" stroke="#63b8ff" points="1957.75,-174.63 1967.84,-171.38 1957.92,-167.63 1957.75,-174.63"/>
</a>
</g>
</g>
<!-- Node32 -->
<g id="Node000032" class="node">
<title>Node32</title>
<g id="a_Node000032"><a xlink:href="Victory_8hpp.html" target="_top" xlink:title=" ">
<polygon fill="white" stroke="#666666" points="2124.5,-118 1996.5,-118 1996.5,-77 2124.5,-77 2124.5,-118"/>
<text text-anchor="start" x="2004.5" y="-106" font-family="Helvetica,sans-Serif" font-size="10.00">/home/runner/work/R</text>
<text text-anchor="start" x="2004.5" y="-95" font-family="Helvetica,sans-Serif" font-size="10.00">&#45;Type/R&#45;Type/Client</text>
<text text-anchor="middle" x="2060.5" y="-84" font-family="Helvetica,sans-Serif" font-size="10.00">/src/scenes/Victory.hpp</text>
</a>
</g>
</g>
<!-- Node8&#45;&gt;Node32 -->
<g id="edge34_Node000008_Node000032" class="edge">
<title>Node8&#45;&gt;Node32</title>
<g id="a_edge34_Node000008_Node000032"><a xlink:title=" ">
<path fill="none" stroke="#63b8ff" d="M2060.5,-143.69C2060.5,-135.08 2060.5,-125.9 2060.5,-118.07"/>
<polygon fill="#63b8ff" stroke="#63b8ff" points="2057,-143.79 2060.5,-153.79 2064,-143.79 2057,-143.79"/>
</a>
</g>
</g>
<!-- Node34 -->
<g id="Node000034" class="node">
<title>Node34</title>
<g id="a_Node000034"><a xlink:href="WaitLobby_8hpp.html" target="_top" xlink:title=" ">
<polygon fill="white" stroke="#666666" points="3202.5,-118 3058.5,-118 3058.5,-77 3202.5,-77 3202.5,-118"/>
<text text-anchor="start" x="3066.5" y="-106" font-family="Helvetica,sans-Serif" font-size="10.00">/home/runner/work/R</text>
<text text-anchor="start" x="3066.5" y="-95" font-family="Helvetica,sans-Serif" font-size="10.00">&#45;Type/R&#45;Type/Client</text>
<text text-anchor="middle" x="3130.5" y="-84" font-family="Helvetica,sans-Serif" font-size="10.00">/src/scenes/WaitLobby.hpp</text>
</a>
</g>
</g>
<!-- Node8&#45;&gt;Node34 -->
<g id="edge36_Node000008_Node000034" class="edge">
<title>Node8&#45;&gt;Node34</title>
<g id="a_edge36_Node000008_Node000034"><a xlink:title=" ">
<path fill="none" stroke="#63b8ff" d="M2163.1,-173.81C2343.41,-173 2728.48,-165.25 3049.5,-118 3052.36,-117.58 3055.27,-117.1 3058.2,-116.59"/>
<polygon fill="#63b8ff" stroke="#63b8ff" points="2163.08,-170.31 2153.09,-173.85 2163.11,-177.31 2163.08,-170.31"/>
</a>
</g>
</g>
<!-- Node36 -->
<g id="Node000036" class="node">
<title>Node36</title>
<g id="a_Node000036"><a xlink:href="ChargedShoot_8cpp.html" target="_top" xlink:title=" ">
<polygon fill="white" stroke="#666666" points="2294.5,-118 2142.5,-118 2142.5,-77 2294.5,-77 2294.5,-118"/>
<text text-anchor="start" x="2150.5" y="-106" font-family="Helvetica,sans-Serif" font-size="10.00">/home/runner/work/R</text>
<text text-anchor="start" x="2150.5" y="-95" font-family="Helvetica,sans-Serif" font-size="10.00">&#45;Type/R&#45;Type/Shared</text>
<text text-anchor="middle" x="2218.5" y="-84" font-family="Helvetica,sans-Serif" font-size="10.00">/systems/ChargedShoot.cpp</text>
</a>
</g>
</g>
<!-- Node8&#45;&gt;Node36 -->
<g id="edge39_Node000008_Node000036" class="edge">
<title>Node8&#45;&gt;Node36</title>
<g id="a_edge39_Node000008_Node000036"><a xlink:title=" ">
<path fill="none" stroke="#63b8ff" d="M2110.88,-149.59C2132.32,-139.41 2157.01,-127.69 2177.33,-118.04"/>
<polygon fill="#63b8ff" stroke="#63b8ff" points="2109.13,-146.54 2101.6,-153.99 2112.13,-152.86 2109.13,-146.54"/>
</a>
</g>
</g>
<!-- Node37 -->
<g id="Node000037" class="node">
<title>Node37</title>
<g id="a_Node000037"><a xlink:href="LevelSystem_8cpp.html" target="_top" xlink:title=" ">
<polygon fill="white" stroke="#666666" points="2460,-118 2313,-118 2313,-77 2460,-77 2460,-118"/>
<text text-anchor="start" x="2321" y="-106" font-family="Helvetica,sans-Serif" font-size="10.00">/home/runner/work/R</text>
<text text-anchor="start" x="2321" y="-95" font-family="Helvetica,sans-Serif" font-size="10.00">&#45;Type/R&#45;Type/Shared</text>
<text text-anchor="middle" x="2386.5" y="-84" font-family="Helvetica,sans-Serif" font-size="10.00">/systems/LevelSystem.cpp</text>
</a>
</g>
</g>
<!-- Node8&#45;&gt;Node37 -->
<g id="edge40_Node000008_Node000037" class="edge">
<title>Node8&#45;&gt;Node37</title>
<g id="a_edge40_Node000008_Node000037"><a xlink:title=" ">
<path fill="none" stroke="#63b8ff" d="M2156.54,-151.71C2201.23,-141.53 2255.1,-129.21 2303.5,-118 2306.53,-117.3 2309.62,-116.58 2312.74,-115.85"/>
<polygon fill="#63b8ff" stroke="#63b8ff" points="2155.54,-148.35 2146.56,-153.98 2157.09,-155.17 2155.54,-148.35"/>
</a>
</g>
</g>
<!-- Node38 -->
<g id="Node000038" class="node">
<title>Node38</title>
<g id="a_Node000038"><a xlink:href="Movement_8cpp.html" target="_top" xlink:title=" ">
<polygon fill="white" stroke="#666666" points="2670.5,-118 2478.5,-118 2478.5,-77 2670.5,-77 2670.5,-118"/>
<text text-anchor="start" x="2486.5" y="-106" font-family="Helvetica,sans-Serif" font-size="10.00">/home/runner/work/R</text>
<text text-anchor="start" x="2486.5" y="-95" font-family="Helvetica,sans-Serif" font-size="10.00">&#45;Type/R&#45;Type/Shared</text>
<text text-anchor="middle" x="2574.5" y="-84" font-family="Helvetica,sans-Serif" font-size="10.00">/systems/Movement/Movement.cpp</text>
</a>
</g>
</g>
<!-- Node8&#45;&gt;Node38 -->
<g id="edge41_Node000008_Node000038" class="edge">
<title>Node8&#45;&gt;Node38</title>
<g id="a_edge41_Node000008_Node000038"><a xlink:title=" ">
<path fill="none" stroke="#63b8ff" d="M2163.19,-160.88C2245.81,-150.4 2364.82,-134.58 2468.5,-118 2471.73,-117.48 2475.02,-116.95 2478.34,-116.39"/>
<polygon fill="#63b8ff" stroke="#63b8ff" points="2162.53,-157.44 2153.04,-162.16 2163.4,-164.38 2162.53,-157.44"/>
</a>
</g>
</g>
<!-- Node39 -->
<g id="Node000039" class="node">
<title>Node39</title>
<g id="a_Node000039"><a xlink:href="Spawn_8cpp.html" target="_top" xlink:title=" ">
<polygon fill="white" stroke="#666666" points="2874,-118 2689,-118 2689,-77 2874,-77 2874,-118"/>
<text text-anchor="start" x="2697" y="-106" font-family="Helvetica,sans-Serif" font-size="10.00">/home/runner/work/R</text>
<text text-anchor="start" x="2697" y="-95" font-family="Helvetica,sans-Serif" font-size="10.00">&#45;Type/R&#45;Type/Shared</text>
<text text-anchor="middle" x="2781.5" y="-84" font-family="Helvetica,sans-Serif" font-size="10.00">/systems/SpawnEnemy/Spawn.cpp</text>
</a>
</g>
</g>
<!-- Node8&#45;&gt;Node39 -->
<g id="edge42_Node000008_Node000039" class="edge">
<title>Node8&#45;&gt;Node39</title>
<g id="a_edge42_Node000008_Node000039"><a xlink:title=" ">
<path fill="none" stroke="#63b8ff" d="M2163.28,-167.43C2286.39,-159.42 2498.66,-143.33 2679.5,-118 2682.54,-117.57 2685.62,-117.12 2688.73,-116.64"/>
<polygon fill="#63b8ff" stroke="#63b8ff" points="2162.87,-163.94 2153.11,-168.08 2163.32,-170.93 2162.87,-163.94"/>
</a>
</g>
</g>
<!-- Node40 -->
<g id="Node000040" class="node">
<title>Node40</title>
<g id="a_Node000040"><a xlink:href="WaveSystem_8cpp.html" target="_top" xlink:title=" ">
<polygon fill="white" stroke="#666666" points="3040.5,-118 2892.5,-118 2892.5,-77 3040.5,-77 3040.5,-118"/>
<text text-anchor="start" x="2900.5" y="-106" font-family="Helvetica,sans-Serif" font-size="10.00">/home/runner/work/R</text>
<text text-anchor="start" x="2900.5" y="-95" font-family="Helvetica,sans-Serif" font-size="10.00">&#45;Type/R&#45;Type/Shared</text>
<text text-anchor="middle" x="2966.5" y="-84" font-family="Helvetica,sans-Serif" font-size="10.00">/systems/WaveSystem.cpp</text>
</a>
</g>
</g>
<!-- Node8&#45;&gt;Node40 -->
<g id="edge43_Node000008_Node000040" class="edge">
<title>Node8&#45;&gt;Node40</title>
<g id="a_edge43_Node000008_Node000040"><a xlink:title=" ">
<path fill="none" stroke="#63b8ff" d="M2163.23,-171.85C2319.4,-168.16 2625.53,-156.25 2882.5,-118 2885.76,-117.52 2889.08,-116.97 2892.42,-116.38"/>
<polygon fill="#63b8ff" stroke="#63b8ff" points="2163.08,-168.36 2153.17,-172.09 2163.25,-175.35 2163.08,-168.36"/>
</a>
</g>
</g>
<!-- Node10 -->
<g id="Node000010" class="node">
<title>Node10</title>
<g id="a_Node000010"><a xlink:href="CreateLobby_8cpp.html" target="_top" xlink:title=" ">
<polygon fill="white" stroke="#666666" points="3375.5,-41 3221.5,-41 3221.5,0 3375.5,0 3375.5,-41"/>
<text text-anchor="start" x="3229.5" y="-29" font-family="Helvetica,sans-Serif" font-size="10.00">/home/runner/work/R</text>
<text text-anchor="start" x="3229.5" y="-18" font-family="Helvetica,sans-Serif" font-size="10.00">&#45;Type/R&#45;Type/Client</text>
<text text-anchor="middle" x="3298.5" y="-7" font-family="Helvetica,sans-Serif" font-size="10.00">/src/scenes/CreateLobby.cpp</text>
</a>
</g>
</g>
<!-- Node9&#45;&gt;Node10 -->
<g id="edge11_Node000009_Node000010" class="edge">
<title>Node9&#45;&gt;Node10</title>
<g id="a_edge11_Node000009_Node000010"><a xlink:title=" ">
<path fill="none" stroke="#63b8ff" d="M3298.5,-66.69C3298.5,-58.08 3298.5,-48.9 3298.5,-41.07"/>
<polygon fill="#63b8ff" stroke="#63b8ff" points="3295,-66.79 3298.5,-76.79 3302,-66.79 3295,-66.79"/>
</a>
</g>
</g>
<!-- Node12 -->
<g id="Node000012" class="node">
<title>Node12</title>
<g id="a_Node000012"><a xlink:href="GameOver_8cpp.html" target="_top" xlink:title=" ">
<polygon fill="white" stroke="#666666" points="3540.5,-41 3394.5,-41 3394.5,0 3540.5,0 3540.5,-41"/>
<text text-anchor="start" x="3402.5" y="-29" font-family="Helvetica,sans-Serif" font-size="10.00">/home/runner/work/R</text>
<text text-anchor="start" x="3402.5" y="-18" font-family="Helvetica,sans-Serif" font-size="10.00">&#45;Type/R&#45;Type/Client</text>
<text text-anchor="middle" x="3467.5" y="-7" font-family="Helvetica,sans-Serif" font-size="10.00">/src/scenes/GameOver.cpp</text>
</a>
</g>
</g>
<!-- Node11&#45;&gt;Node12 -->
<g id="edge13_Node000011_Node000012" class="edge">
<title>Node11&#45;&gt;Node12</title>
<g id="a_edge13_Node000011_Node000012"><a xlink:title=" ">
<path fill="none" stroke="#63b8ff" d="M3467.5,-66.69C3467.5,-58.08 3467.5,-48.9 3467.5,-41.07"/>
<polygon fill="#63b8ff" stroke="#63b8ff" points="3464,-66.79 3467.5,-76.79 3471,-66.79 3464,-66.79"/>
</a>
</g>
</g>
<!-- Node14 -->
<g id="Node000014" class="node">
<title>Node14</title>
<g id="a_Node000014"><a xlink:href="JoinGame_8cpp.html" target="_top" xlink:title=" ">
<polygon fill="white" stroke="#666666" points="3700,-41 3559,-41 3559,0 3700,0 3700,-41"/>
<text text-anchor="start" x="3567" y="-29" font-family="Helvetica,sans-Serif" font-size="10.00">/home/runner/work/R</text>
<text text-anchor="start" x="3567" y="-18" font-family="Helvetica,sans-Serif" font-size="10.00">&#45;Type/R&#45;Type/Client</text>
<text text-anchor="middle" x="3629.5" y="-7" font-family="Helvetica,sans-Serif" font-size="10.00">/src/scenes/JoinGame.cpp</text>
</a>
</g>
</g>
<!-- Node13&#45;&gt;Node14 -->
<g id="edge15_Node000013_Node000014" class="edge">
<title>Node13&#45;&gt;Node14</title>
<g id="a_edge15_Node000013_Node000014"><a xlink:title=" ">
<path fill="none" stroke="#63b8ff" d="M3629.5,-66.69C3629.5,-58.08 3629.5,-48.9 3629.5,-41.07"/>
<polygon fill="#63b8ff" stroke="#63b8ff" points="3626,-66.79 3629.5,-76.79 3633,-66.79 3626,-66.79"/>
</a>
</g>
</g>
<!-- Node16 -->
<g id="Node000016" class="node">
<title>Node16</title>
<g id="a_Node000016"><a xlink:href="LevelScene_8cpp.html" target="_top" xlink:title=" ">
<polygon fill="white" stroke="#666666" points="3868,-41 3719,-41 3719,0 3868,0 3868,-41"/>
<text text-anchor="start" x="3727" y="-29" font-family="Helvetica,sans-Serif" font-size="10.00">/home/runner/work/R</text>
<text text-anchor="start" x="3727" y="-18" font-family="Helvetica,sans-Serif" font-size="10.00">&#45;Type/R&#45;Type/Client</text>
<text text-anchor="middle" x="3793.5" y="-7" font-family="Helvetica,sans-Serif" font-size="10.00">/src/scenes/LevelScene.cpp</text>
</a>
</g>
</g>
<!-- Node15&#45;&gt;Node16 -->
<g id="edge17_Node000015_Node000016" class="edge">
<title>Node15&#45;&gt;Node16</title>
<g id="a_edge17_Node000015_Node000016"><a xlink:title=" ">
<path fill="none" stroke="#63b8ff" d="M3793.5,-66.69C3793.5,-58.08 3793.5,-48.9 3793.5,-41.07"/>
<polygon fill="#63b8ff" stroke="#63b8ff" points="3790,-66.79 3793.5,-76.79 3797,-66.79 3790,-66.79"/>
</a>
</g>
</g>
<!-- Node18 -->
<g id="Node000018" class="node">
<title>Node18</title>
<g id="a_Node000018"><a xlink:href="Lobby_8cpp.html" target="_top" xlink:title=" ">
<polygon fill="white" stroke="#666666" points="988.5,-41 866.5,-41 866.5,0 988.5,0 988.5,-41"/>
<text text-anchor="start" x="874.5" y="-29" font-family="Helvetica,sans-Serif" font-size="10.00">/home/runner/work/R</text>
<text text-anchor="start" x="874.5" y="-18" font-family="Helvetica,sans-Serif" font-size="10.00">&#45;Type/R&#45;Type/Client</text>
<text text-anchor="middle" x="927.5" y="-7" font-family="Helvetica,sans-Serif" font-size="10.00">/src/scenes/Lobby.cpp</text>
</a>
</g>
</g>
<!-- Node17&#45;&gt;Node18 -->
<g id="edge19_Node000017_Node000018" class="edge">
<title>Node17&#45;&gt;Node18</title>
<g id="a_edge19_Node000017_Node000018"><a xlink:title=" ">
<path fill="none" stroke="#63b8ff" d="M927.5,-66.69C927.5,-58.08 927.5,-48.9 927.5,-41.07"/>
<polygon fill="#63b8ff" stroke="#63b8ff" points="924,-66.79 927.5,-76.79 931,-66.79 924,-66.79"/>
</a>
</g>
</g>
<!-- Node20 -->
<g id="Node000020" class="node">
<title>Node20</title>
<g id="a_Node000020"><a xlink:href="LobbyInfo_8cpp.html" target="_top" xlink:title=" ">
<polygon fill="white" stroke="#666666" points="1149.5,-41 1007.5,-41 1007.5,0 1149.5,0 1149.5,-41"/>
<text text-anchor="start" x="1015.5" y="-29" font-family="Helvetica,sans-Serif" font-size="10.00">/home/runner/work/R</text>
<text text-anchor="start" x="1015.5" y="-18" font-family="Helvetica,sans-Serif" font-size="10.00">&#45;Type/R&#45;Type/Client</text>
<text text-anchor="middle" x="1078.5" y="-7" font-family="Helvetica,sans-Serif" font-size="10.00">/src/scenes/LobbyInfo.cpp</text>
</a>
</g>
</g>
<!-- Node19&#45;&gt;Node20 -->
<g id="edge21_Node000019_Node000020" class="edge">
<title>Node19&#45;&gt;Node20</title>
<g id="a_edge21_Node000019_Node000020"><a xlink:title=" ">
<path fill="none" stroke="#63b8ff" d="M1078.5,-66.69C1078.5,-58.08 1078.5,-48.9 1078.5,-41.07"/>
<polygon fill="#63b8ff" stroke="#63b8ff" points="1075,-66.79 1078.5,-76.79 1082,-66.79 1075,-66.79"/>
</a>
</g>
</g>
<!-- Node22 -->
<g id="Node000022" class="node">
<title>Node22</title>
<g id="a_Node000022"><a xlink:href="LobbyJoin_8cpp.html" target="_top" xlink:title=" ">
<polygon fill="white" stroke="#666666" points="1310,-41 1169,-41 1169,0 1310,0 1310,-41"/>
<text text-anchor="start" x="1177" y="-29" font-family="Helvetica,sans-Serif" font-size="10.00">/home/runner/work/R</text>
<text text-anchor="start" x="1177" y="-18" font-family="Helvetica,sans-Serif" font-size="10.00">&#45;Type/R&#45;Type/Client</text>
<text text-anchor="middle" x="1239.5" y="-7" font-family="Helvetica,sans-Serif" font-size="10.00">/src/scenes/LobbyJoin.cpp</text>
</a>
</g>
</g>
<!-- Node21&#45;&gt;Node22 -->
<g id="edge23_Node000021_Node000022" class="edge">
<title>Node21&#45;&gt;Node22</title>
<g id="a_edge23_Node000021_Node000022"><a xlink:title=" ">
<path fill="none" stroke="#63b8ff" d="M1239.5,-66.69C1239.5,-58.08 1239.5,-48.9 1239.5,-41.07"/>
<polygon fill="#63b8ff" stroke="#63b8ff" points="1236,-66.79 1239.5,-76.79 1243,-66.79 1236,-66.79"/>
</a>
</g>
</g>
<!-- Node24 -->
<g id="Node000024" class="node">
<title>Node24</title>
<g id="a_Node000024"><a xlink:href="LobbyPassword_8cpp.html" target="_top" xlink:title=" ">
<polygon fill="white" stroke="#666666" points="1498,-41 1329,-41 1329,0 1498,0 1498,-41"/>
<text text-anchor="start" x="1337" y="-29" font-family="Helvetica,sans-Serif" font-size="10.00">/home/runner/work/R</text>
<text text-anchor="start" x="1337" y="-18" font-family="Helvetica,sans-Serif" font-size="10.00">&#45;Type/R&#45;Type/Client</text>
<text text-anchor="middle" x="1413.5" y="-7" font-family="Helvetica,sans-Serif" font-size="10.00">/src/scenes/LobbyPassword.cpp</text>
</a>
</g>
</g>
<!-- Node23&#45;&gt;Node24 -->
<g id="edge25_Node000023_Node000024" class="edge">
<title>Node23&#45;&gt;Node24</title>
<g id="a_edge25_Node000023_Node000024"><a xlink:title=" ">
<path fill="none" stroke="#63b8ff" d="M1413.5,-66.69C1413.5,-58.08 1413.5,-48.9 1413.5,-41.07"/>
<polygon fill="#63b8ff" stroke="#63b8ff" points="1410,-66.79 1413.5,-76.79 1417,-66.79 1410,-66.79"/>
</a>
</g>
</g>
<!-- Node26 -->
<g id="Node000026" class="node">
<title>Node26</title>
<g id="a_Node000026"><a xlink:href="MainGame_8cpp.html" target="_top" xlink:title=" ">
<polygon fill="white" stroke="#666666" points="1664,-41 1517,-41 1517,0 1664,0 1664,-41"/>
<text text-anchor="start" x="1525" y="-29" font-family="Helvetica,sans-Serif" font-size="10.00">/home/runner/work/R</text>
<text text-anchor="start" x="1525" y="-18" font-family="Helvetica,sans-Serif" font-size="10.00">&#45;Type/R&#45;Type/Client</text>
<text text-anchor="middle" x="1590.5" y="-7" font-family="Helvetica,sans-Serif" font-size="10.00">/src/scenes/MainGame.cpp</text>
</a>
</g>
</g>
<!-- Node25&#45;&gt;Node26 -->
<g id="edge27_Node000025_Node000026" class="edge">
<title>Node25&#45;&gt;Node26</title>
<g id="a_edge27_Node000025_Node000026"><a xlink:title=" ">
<path fill="none" stroke="#63b8ff" d="M1590.5,-66.69C1590.5,-58.08 1590.5,-48.9 1590.5,-41.07"/>
<polygon fill="#63b8ff" stroke="#63b8ff" points="1587,-66.79 1590.5,-76.79 1594,-66.79 1587,-66.79"/>
</a>
</g>
</g>
<!-- Node28 -->
<g id="Node000028" class="node">
<title>Node28</title>
<g id="a_Node000028"><a xlink:href="MainMenu_8cpp.html" target="_top" xlink:title=" ">
<polygon fill="white" stroke="#666666" points="1828,-41 1683,-41 1683,0 1828,0 1828,-41"/>
<text text-anchor="start" x="1691" y="-29" font-family="Helvetica,sans-Serif" font-size="10.00">/home/runner/work/R</text>
<text text-anchor="start" x="1691" y="-18" font-family="Helvetica,sans-Serif" font-size="10.00">&#45;Type/R&#45;Type/Client</text>
<text text-anchor="middle" x="1755.5" y="-7" font-family="Helvetica,sans-Serif" font-size="10.00">/src/scenes/MainMenu.cpp</text>
</a>
</g>
</g>
<!-- Node27&#45;&gt;Node28 -->
<g id="edge29_Node000027_Node000028" class="edge">
<title>Node27&#45;&gt;Node28</title>
<g id="a_edge29_Node000027_Node000028"><a xlink:title=" ">
<path fill="none" stroke="#63b8ff" d="M1755.5,-66.69C1755.5,-58.08 1755.5,-48.9 1755.5,-41.07"/>
<polygon fill="#63b8ff" stroke="#63b8ff" points="1752,-66.79 1755.5,-76.79 1759,-66.79 1752,-66.79"/>
</a>
</g>
</g>
<!-- Node30 -->
<g id="Node000030" class="node">
<title>Node30</title>
<g id="a_Node000030"><a xlink:href="Options_8cpp.html" target="_top" xlink:title=" ">
<polygon fill="white" stroke="#666666" points="1978,-41 1847,-41 1847,0 1978,0 1978,-41"/>
<text text-anchor="start" x="1855" y="-29" font-family="Helvetica,sans-Serif" font-size="10.00">/home/runner/work/R</text>
<text text-anchor="start" x="1855" y="-18" font-family="Helvetica,sans-Serif" font-size="10.00">&#45;Type/R&#45;Type/Client</text>
<text text-anchor="middle" x="1912.5" y="-7" font-family="Helvetica,sans-Serif" font-size="10.00">/src/scenes/Options.cpp</text>
</a>
</g>
</g>
<!-- Node29&#45;&gt;Node30 -->
<g id="edge31_Node000029_Node000030" class="edge">
<title>Node29&#45;&gt;Node30</title>
<g id="a_edge31_Node000029_Node000030"><a xlink:title=" ">
<path fill="none" stroke="#63b8ff" d="M1912.5,-66.69C1912.5,-58.08 1912.5,-48.9 1912.5,-41.07"/>
<polygon fill="#63b8ff" stroke="#63b8ff" points="1909,-66.79 1912.5,-76.79 1916,-66.79 1909,-66.79"/>
</a>
</g>
</g>
<!-- Node31&#45;&gt;Node5 -->
<g id="edge33_Node000031_Node000005" class="edge">
<title>Node31&#45;&gt;Node5</title>
<g id="a_edge33_Node000031_Node000005"><a xlink:title=" ">
<path fill="none" stroke="#63b8ff" d="M732.4,-71.64C716.42,-61.74 698.28,-50.5 683.24,-41.17"/>
<polygon fill="#63b8ff" stroke="#63b8ff" points="730.68,-74.7 741.02,-76.99 734.37,-68.75 730.68,-74.7"/>
</a>
</g>
</g>
<!-- Node33 -->
<g id="Node000033" class="node">
<title>Node33</title>
<g id="a_Node000033"><a xlink:href="Victory_8cpp.html" target="_top" xlink:title=" ">
<polygon fill="white" stroke="#666666" points="2124,-41 1997,-41 1997,0 2124,0 2124,-41"/>
<text text-anchor="start" x="2005" y="-29" font-family="Helvetica,sans-Serif" font-size="10.00">/home/runner/work/R</text>
<text text-anchor="start" x="2005" y="-18" font-family="Helvetica,sans-Serif" font-size="10.00">&#45;Type/R&#45;Type/Client</text>
<text text-anchor="middle" x="2060.5" y="-7" font-family="Helvetica,sans-Serif" font-size="10.00">/src/scenes/Victory.cpp</text>
</a>
</g>
</g>
<!-- Node32&#45;&gt;Node33 -->
<g id="edge35_Node000032_Node000033" class="edge">
<title>Node32&#45;&gt;Node33</title>
<g id="a_edge35_Node000032_Node000033"><a xlink:title=" ">
<path fill="none" stroke="#63b8ff" d="M2060.5,-66.69C2060.5,-58.08 2060.5,-48.9 2060.5,-41.07"/>
<polygon fill="#63b8ff" stroke="#63b8ff" points="2057,-66.79 2060.5,-76.79 2064,-66.79 2057,-66.79"/>
</a>
</g>
</g>
<!-- Node35 -->
<g id="Node000035" class="node">
<title>Node35</title>
<g id="a_Node000035"><a xlink:href="WaitLobby_8cpp.html" target="_top" xlink:title=" ">
<polygon fill="white" stroke="#666666" points="3202,-41 3059,-41 3059,0 3202,0 3202,-41"/>
<text text-anchor="start" x="3067" y="-29" font-family="Helvetica,sans-Serif" font-size="10.00">/home/runner/work/R</text>
<text text-anchor="start" x="3067" y="-18" font-family="Helvetica,sans-Serif" font-size="10.00">&#45;Type/R&#45;Type/Client</text>
<text text-anchor="middle" x="3130.5" y="-7" font-family="Helvetica,sans-Serif" font-size="10.00">/src/scenes/WaitLobby.cpp</text>
</a>
</g>
</g>
<!-- Node34&#45;&gt;Node35 -->
<g id="edge37_Node000034_Node000035" class="edge">
<title>Node34&#45;&gt;Node35</title>
<g id="a_edge37_Node000034_Node000035"><a xlink:title=" ">
<path fill="none" stroke="#63b8ff" d="M3130.5,-66.69C3130.5,-58.08 3130.5,-48.9 3130.5,-41.07"/>
<polygon fill="#63b8ff" stroke="#63b8ff" points="3127,-66.79 3130.5,-76.79 3134,-66.79 3127,-66.79"/>
</a>
</g>
</g>
</g>
</svg>
