<?xml version="1.0" encoding="UTF-8" standalone="no"?>
<!DOCTYPE svg PUBLIC "-//W3C//DTD SVG 1.1//EN"
 "http://www.w3.org/Graphics/SVG/1.1/DTD/svg11.dtd">
<!-- Generated by graphviz version 2.43.0 (0)
 -->
<!-- Title: /home/runner/work/R&#45;Type/R&#45;Type/Client/src/engine/inputs/KeyBindings.hpp Pages: 1 -->
<svg width="1897pt" height="434pt"
 viewBox="0.00 0.00 1896.50 434.00" xmlns="http://www.w3.org/2000/svg" xmlns:xlink="http://www.w3.org/1999/xlink">
<g id="graph0" class="graph" transform="scale(1 1) rotate(0) translate(4 430)">
<title>/home/runner/work/R&#45;Type/R&#45;Type/Client/src/engine/inputs/KeyBindings.hpp</title>
<!-- Node1 -->
<g id="Node000001" class="node">
<title>Node1</title>
<g id="a_Node000001"><a xlink:title=" ">
<polygon fill="#999999" stroke="#666666" points="1349,-426 1162,-426 1162,-385 1349,-385 1349,-426"/>
<text text-anchor="start" x="1170" y="-414" font-family="Helvetica,sans-Serif" font-size="10.00">/home/runner/work/R</text>
<text text-anchor="start" x="1170" y="-403" font-family="Helvetica,sans-Serif" font-size="10.00">&#45;Type/R&#45;Type/Client</text>
<text text-anchor="middle" x="1255.5" y="-392" font-family="Helvetica,sans-Serif" font-size="10.00">/src/engine/inputs/KeyBindings.hpp</text>
</a>
</g>
</g>
<!-- Node2 -->
<g id="Node000002" class="node">
<title>Node2</title>
<g id="a_Node000002"><a xlink:href="InputManager_8hpp.html" target="_top" xlink:title=" ">
<polygon fill="white" stroke="#666666" points="947.5,-349 753.5,-349 753.5,-308 947.5,-308 947.5,-349"/>
<text text-anchor="start" x="761.5" y="-337" font-family="Helvetica,sans-Serif" font-size="10.00">/home/runner/work/R</text>
<text text-anchor="start" x="761.5" y="-326" font-family="Helvetica,sans-Serif" font-size="10.00">&#45;Type/R&#45;Type/Client</text>
<text text-anchor="middle" x="850.5" y="-315" font-family="Helvetica,sans-Serif" font-size="10.00">/src/engine/inputs/InputManager.hpp</text>
</a>
</g>
</g>
<!-- Node1&#45;&gt;Node2 -->
<g id="edge1_Node000001_Node000002" class="edge">
<title>Node1&#45;&gt;Node2</title>
<g id="a_edge1_Node000001_Node000002"><a xlink:title=" ">
<path fill="none" stroke="#63b8ff" d="M1151.88,-385.31C1088.99,-373.66 1009.23,-358.89 947.56,-347.47"/>
<polygon fill="#63b8ff" stroke="#63b8ff" points="1151.35,-388.77 1161.82,-387.15 1152.63,-381.89 1151.35,-388.77"/>
</a>
</g>
</g>
<!-- Node11 -->
<g id="Node000011" class="node">
<title>Node11</title>
<g id="a_Node000011"><a xlink:href="Options_8hpp.html" target="_top" xlink:title=" ">
<polygon fill="white" stroke="#666666" points="1888.5,-118 1756.5,-118 1756.5,-77 1888.5,-77 1888.5,-118"/>
<text text-anchor="start" x="1764.5" y="-106" font-family="Helvetica,sans-Serif" font-size="10.00">/home/runner/work/R</text>
<text text-anchor="start" x="1764.5" y="-95" font-family="Helvetica,sans-Serif" font-size="10.00">&#45;Type/R&#45;Type/Client</text>
<text text-anchor="middle" x="1822.5" y="-84" font-family="Helvetica,sans-Serif" font-size="10.00">/src/scenes/Options.hpp</text>
</a>
</g>
</g>
<!-- Node1&#45;&gt;Node11 -->
<g id="edge36_Node000001_Node000011" class="edge">
<title>Node1&#45;&gt;Node11</title>
<g id="a_edge36_Node000001_Node000011"><a xlink:title=" ">
<path fill="none" stroke="#63b8ff" d="M1359.08,-386.87C1474.57,-362.33 1660.58,-307.53 1778.5,-195 1800.61,-173.9 1812.55,-139.59 1818.21,-118.07"/>
<polygon fill="#63b8ff" stroke="#63b8ff" points="1358.24,-383.47 1349.16,-388.94 1359.67,-390.33 1358.24,-383.47"/>
</a>
</g>
</g>
<!-- Node3 -->
<g id="Node000003" class="node">
<title>Node3</title>
<g id="a_Node000003"><a xlink:href="InputManager_8cpp.html" target="_top" xlink:title=" ">
<polygon fill="white" stroke="#666666" points="398,-272 205,-272 205,-231 398,-231 398,-272"/>
<text text-anchor="start" x="213" y="-260" font-family="Helvetica,sans-Serif" font-size="10.00">/home/runner/work/R</text>
<text text-anchor="start" x="213" y="-249" font-family="Helvetica,sans-Serif" font-size="10.00">&#45;Type/R&#45;Type/Client</text>
<text text-anchor="middle" x="301.5" y="-238" font-family="Helvetica,sans-Serif" font-size="10.00">/src/engine/inputs/InputManager.cpp</text>
</a>
</g>
</g>
<!-- Node2&#45;&gt;Node3 -->
<g id="edge2_Node000002_Node000003" class="edge">
<title>Node2&#45;&gt;Node3</title>
<g id="a_edge2_Node000002_Node000003"><a xlink:title=" ">
<path fill="none" stroke="#63b8ff" d="M743.29,-315.81C653.42,-305.59 521.83,-289.66 407.5,-272 404.45,-271.53 401.35,-271.04 398.22,-270.53"/>
<polygon fill="#63b8ff" stroke="#63b8ff" points="743.16,-319.32 753.49,-316.97 743.95,-312.36 743.16,-319.32"/>
</a>
</g>
</g>
<!-- Node4 -->
<g id="Node000004" class="node">
<title>Node4</title>
<g id="a_Node000004"><a xlink:href="InputSystem_8hpp.html" target="_top" xlink:title=" ">
<polygon fill="white" stroke="#666666" points="1005.5,-272 817.5,-272 817.5,-231 1005.5,-231 1005.5,-272"/>
<text text-anchor="start" x="825.5" y="-260" font-family="Helvetica,sans-Serif" font-size="10.00">/home/runner/work/R</text>
<text text-anchor="start" x="825.5" y="-249" font-family="Helvetica,sans-Serif" font-size="10.00">&#45;Type/R&#45;Type/Client</text>
<text text-anchor="middle" x="911.5" y="-238" font-family="Helvetica,sans-Serif" font-size="10.00">/src/engine/inputs/InputSystem.hpp</text>
</a>
</g>
</g>
<!-- Node2&#45;&gt;Node4 -->
<g id="edge3_Node000002_Node000004" class="edge">
<title>Node2&#45;&gt;Node4</title>
<g id="a_edge3_Node000002_Node000004"><a xlink:title=" ">
<path fill="none" stroke="#63b8ff" d="M872.9,-299.95C880.43,-290.7 888.66,-280.58 895.58,-272.07"/>
<polygon fill="#63b8ff" stroke="#63b8ff" points="870.12,-297.83 866.53,-307.79 875.55,-302.25 870.12,-297.83"/>
</a>
</g>
</g>
<!-- Node15 -->
<g id="Node000015" class="node">
<title>Node15</title>
<g id="a_Node000015"><a xlink:href="SceneManager_8hpp.html" target="_top" xlink:title=" ">
<polygon fill="white" stroke="#666666" points="1428,-272 1231,-272 1231,-231 1428,-231 1428,-272"/>
<text text-anchor="start" x="1239" y="-260" font-family="Helvetica,sans-Serif" font-size="10.00">/home/runner/work/R</text>
<text text-anchor="start" x="1239" y="-249" font-family="Helvetica,sans-Serif" font-size="10.00">&#45;Type/R&#45;Type/Client</text>
<text text-anchor="middle" x="1329.5" y="-238" font-family="Helvetica,sans-Serif" font-size="10.00">/src/engine/scene/SceneManager.hpp</text>
</a>
</g>
</g>
<!-- Node2&#45;&gt;Node15 -->
<g id="edge19_Node000002_Node000015" class="edge">
<title>Node2&#45;&gt;Node15</title>
<g id="a_edge19_Node000002_Node000015"><a xlink:title=" ">
<path fill="none" stroke="#63b8ff" d="M958.04,-310.66C1039.77,-297.87 1151.3,-280.4 1230.77,-267.96"/>
<polygon fill="#63b8ff" stroke="#63b8ff" points="957.06,-307.27 947.72,-312.28 958.14,-314.19 957.06,-307.27"/>
</a>
</g>
</g>
<!-- Node17 -->
<g id="Node000017" class="node">
<title>Node17</title>
<g id="a_Node000017"><a xlink:href="EntityHelper_8hpp.html" target="_top" xlink:title=" ">
<polygon fill="white" stroke="#666666" points="601,-272 416,-272 416,-231 601,-231 601,-272"/>
<text text-anchor="start" x="424" y="-260" font-family="Helvetica,sans-Serif" font-size="10.00">/home/runner/work/R</text>
<text text-anchor="start" x="424" y="-249" font-family="Helvetica,sans-Serif" font-size="10.00">&#45;Type/R&#45;Type/Shared</text>
<text text-anchor="middle" x="508.5" y="-238" font-family="Helvetica,sans-Serif" font-size="10.00">/systems/Helpers/EntityHelper.hpp</text>
</a>
</g>
</g>
<!-- Node2&#45;&gt;Node17 -->
<g id="edge30_Node000002_Node000017" class="edge">
<title>Node2&#45;&gt;Node17</title>
<g id="a_edge30_Node000002_Node000017"><a xlink:title=" ">
<path fill="none" stroke="#63b8ff" d="M751.63,-305.82C703,-295.15 644.85,-282.4 597.61,-272.04"/>
<polygon fill="#63b8ff" stroke="#63b8ff" points="751.02,-309.27 761.54,-307.99 752.52,-302.43 751.02,-309.27"/>
</a>
</g>
</g>
<!-- Node19 -->
<g id="Node000019" class="node">
<title>Node19</title>
<g id="a_Node000019"><a xlink:href="Movement_8cpp.html" target="_top" xlink:title=" ">
<polygon fill="white" stroke="#666666" points="698.5,-195 506.5,-195 506.5,-154 698.5,-154 698.5,-195"/>
<text text-anchor="start" x="514.5" y="-183" font-family="Helvetica,sans-Serif" font-size="10.00">/home/runner/work/R</text>
<text text-anchor="start" x="514.5" y="-172" font-family="Helvetica,sans-Serif" font-size="10.00">&#45;Type/R&#45;Type/Shared</text>
<text text-anchor="middle" x="602.5" y="-161" font-family="Helvetica,sans-Serif" font-size="10.00">/systems/Movement/Movement.cpp</text>
</a>
</g>
</g>
<!-- Node2&#45;&gt;Node19 -->
<g id="edge35_Node000002_Node000019" class="edge">
<title>Node2&#45;&gt;Node19</title>
<g id="a_edge35_Node000002_Node000019"><a xlink:title=" ">
<path fill="none" stroke="#63b8ff" d="M809.83,-302.57C760.84,-272.54 679.54,-222.72 634.68,-195.23"/>
<polygon fill="#63b8ff" stroke="#63b8ff" points="808.23,-305.7 818.59,-307.94 811.89,-299.73 808.23,-305.7"/>
</a>
</g>
</g>
<!-- Node5 -->
<g id="Node000005" class="node">
<title>Node5</title>
<g id="a_Node000005"><a xlink:href="GameEngine_8hpp.html" target="_top" xlink:title=" ">
<polygon fill="white" stroke="#666666" points="1282.5,-195 1126.5,-195 1126.5,-154 1282.5,-154 1282.5,-195"/>
<text text-anchor="start" x="1134.5" y="-183" font-family="Helvetica,sans-Serif" font-size="10.00">/home/runner/work/R</text>
<text text-anchor="start" x="1134.5" y="-172" font-family="Helvetica,sans-Serif" font-size="10.00">&#45;Type/R&#45;Type/Client</text>
<text text-anchor="middle" x="1204.5" y="-161" font-family="Helvetica,sans-Serif" font-size="10.00">/src/engine/GameEngine.hpp</text>
</a>
</g>
</g>
<!-- Node4&#45;&gt;Node5 -->
<g id="edge4_Node000004_Node000005" class="edge">
<title>Node4&#45;&gt;Node5</title>
<g id="a_edge4_Node000004_Node000005"><a xlink:title=" ">
<path fill="none" stroke="#63b8ff" d="M997.51,-228.48C1038.9,-217.89 1088.11,-205.29 1128.16,-195.04"/>
<polygon fill="#63b8ff" stroke="#63b8ff" points="996.54,-225.12 987.72,-230.99 998.27,-231.9 996.54,-225.12"/>
</a>
</g>
</g>
<!-- Node13 -->
<g id="Node000013" class="node">
<title>Node13</title>
<g id="a_Node000013"><a xlink:href="InputSystem_8cpp.html" target="_top" xlink:title=" ">
<polygon fill="white" stroke="#666666" points="904.5,-195 716.5,-195 716.5,-154 904.5,-154 904.5,-195"/>
<text text-anchor="start" x="724.5" y="-183" font-family="Helvetica,sans-Serif" font-size="10.00">/home/runner/work/R</text>
<text text-anchor="start" x="724.5" y="-172" font-family="Helvetica,sans-Serif" font-size="10.00">&#45;Type/R&#45;Type/Client</text>
<text text-anchor="middle" x="810.5" y="-161" font-family="Helvetica,sans-Serif" font-size="10.00">/src/engine/inputs/InputSystem.cpp</text>
</a>
</g>
</g>
<!-- Node4&#45;&gt;Node13 -->
<g id="edge16_Node000004_Node000013" class="edge">
<title>Node4&#45;&gt;Node13</title>
<g id="a_edge16_Node000004_Node000013"><a xlink:title=" ">
<path fill="none" stroke="#63b8ff" d="M876.91,-224.82C863.85,-215.11 849.2,-204.24 836.99,-195.17"/>
<polygon fill="#63b8ff" stroke="#63b8ff" points="875.11,-227.84 885.23,-230.99 879.29,-222.22 875.11,-227.84"/>
</a>
</g>
</g>
<!-- Node14 -->
<g id="Node000014" class="node">
<title>Node14</title>
<g id="a_Node000014"><a xlink:href="MainGame_8hpp.html" target="_top" xlink:title=" ">
<polygon fill="white" stroke="#666666" points="1070.5,-195 922.5,-195 922.5,-154 1070.5,-154 1070.5,-195"/>
<text text-anchor="start" x="930.5" y="-183" font-family="Helvetica,sans-Serif" font-size="10.00">/home/runner/work/R</text>
<text text-anchor="start" x="930.5" y="-172" font-family="Helvetica,sans-Serif" font-size="10.00">&#45;Type/R&#45;Type/Client</text>
<text text-anchor="middle" x="996.5" y="-161" font-family="Helvetica,sans-Serif" font-size="10.00">/src/scenes/MainGame.hpp</text>
</a>
</g>
</g>
<!-- Node4&#45;&gt;Node14 -->
<g id="edge17_Node000004_Node000014" class="edge">
<title>Node4&#45;&gt;Node14</title>
<g id="a_edge17_Node000004_Node000014"><a xlink:title=" ">
<path fill="none" stroke="#63b8ff" d="M941.45,-224.07C952.27,-214.52 964.28,-203.93 974.32,-195.07"/>
<polygon fill="#63b8ff" stroke="#63b8ff" points="939.02,-221.55 933.83,-230.79 943.65,-226.8 939.02,-221.55"/>
</a>
</g>
</g>
<!-- Node6 -->
<g id="Node000006" class="node">
<title>Node6</title>
<g id="a_Node000006"><a xlink:href="Main_8cpp.html" target="_top" xlink:title=" ">
<polygon fill="white" stroke="#666666" points="1335,-41 1216,-41 1216,0 1335,0 1335,-41"/>
<text text-anchor="start" x="1224" y="-29" font-family="Helvetica,sans-Serif" font-size="10.00">/home/runner/work/R</text>
<text text-anchor="start" x="1224" y="-18" font-family="Helvetica,sans-Serif" font-size="10.00">&#45;Type/R&#45;Type/Client</text>
<text text-anchor="middle" x="1275.5" y="-7" font-family="Helvetica,sans-Serif" font-size="10.00">/src/Main.cpp</text>
</a>
</g>
</g>
<!-- Node5&#45;&gt;Node6 -->
<g id="edge5_Node000005_Node000006" class="edge">
<title>Node5&#45;&gt;Node6</title>
<g id="a_edge5_Node000005_Node000006"><a xlink:title=" ">
<path fill="none" stroke="#63b8ff" d="M1116.33,-154.66C1115.04,-154.44 1113.77,-154.22 1112.5,-154 985.26,-132.37 747.1,-173.77 832.5,-77 857.47,-48.71 1100.83,-31.34 1215.85,-24.65"/>
<polygon fill="#63b8ff" stroke="#63b8ff" points="1115.82,-158.13 1126.29,-156.47 1117.07,-151.24 1115.82,-158.13"/>
</a>
</g>
</g>
<!-- Node7 -->
<g id="Node000007" class="node">
<title>Node7</title>
<g id="a_Node000007"><a xlink:href="GameEngine_8cpp.html" target="_top" xlink:title=" ">
<polygon fill="white" stroke="#666666" points="996,-118 841,-118 841,-77 996,-77 996,-118"/>
<text text-anchor="start" x="849" y="-106" font-family="Helvetica,sans-Serif" font-size="10.00">/home/runner/work/R</text>
<text text-anchor="start" x="849" y="-95" font-family="Helvetica,sans-Serif" font-size="10.00">&#45;Type/R&#45;Type/Client</text>
<text text-anchor="middle" x="918.5" y="-84" font-family="Helvetica,sans-Serif" font-size="10.00">/src/engine/GameEngine.cpp</text>
</a>
</g>
</g>
<!-- Node5&#45;&gt;Node7 -->
<g id="edge6_Node000005_Node000007" class="edge">
<title>Node5&#45;&gt;Node7</title>
<g id="a_edge6_Node000005_Node000007"><a xlink:title=" ">
<path fill="none" stroke="#63b8ff" d="M1120.29,-151.42C1079.94,-140.84 1032.03,-128.27 993.02,-118.04"/>
<polygon fill="#63b8ff" stroke="#63b8ff" points="1119.54,-154.84 1130.1,-153.99 1121.32,-148.07 1119.54,-154.84"/>
</a>
</g>
</g>
<!-- Node8 -->
<g id="Node000008" class="node">
<title>Node8</title>
<g id="a_Node000008"><a xlink:href="SceneManager_8cpp.html" target="_top" xlink:title=" ">
<polygon fill="white" stroke="#666666" points="1374.5,-118 1178.5,-118 1178.5,-77 1374.5,-77 1374.5,-118"/>
<text text-anchor="start" x="1186.5" y="-106" font-family="Helvetica,sans-Serif" font-size="10.00">/home/runner/work/R</text>
<text text-anchor="start" x="1186.5" y="-95" font-family="Helvetica,sans-Serif" font-size="10.00">&#45;Type/R&#45;Type/Client</text>
<text text-anchor="middle" x="1276.5" y="-84" font-family="Helvetica,sans-Serif" font-size="10.00">/src/engine/scene/SceneManager.cpp</text>
</a>
</g>
</g>
<!-- Node5&#45;&gt;Node8 -->
<g id="edge7_Node000005_Node000008" class="edge">
<title>Node5&#45;&gt;Node8</title>
<g id="a_edge7_Node000005_Node000008"><a xlink:title=" ">
<path fill="none" stroke="#63b8ff" d="M1230.41,-146.51C1239.43,-137.11 1249.37,-126.76 1257.71,-118.07"/>
<polygon fill="#63b8ff" stroke="#63b8ff" points="1227.82,-144.16 1223.42,-153.79 1232.87,-149 1227.82,-144.16"/>
</a>
</g>
</g>
<!-- Node9 -->
<g id="Node000009" class="node">
<title>Node9</title>
<g id="a_Node000009"><a xlink:href="JoinGame_8hpp.html" target="_top" xlink:title=" ">
<polygon fill="white" stroke="#666666" points="784.5,-118 642.5,-118 642.5,-77 784.5,-77 784.5,-118"/>
<text text-anchor="start" x="650.5" y="-106" font-family="Helvetica,sans-Serif" font-size="10.00">/home/runner/work/R</text>
<text text-anchor="start" x="650.5" y="-95" font-family="Helvetica,sans-Serif" font-size="10.00">&#45;Type/R&#45;Type/Client</text>
<text text-anchor="middle" x="713.5" y="-84" font-family="Helvetica,sans-Serif" font-size="10.00">/src/scenes/JoinGame.hpp</text>
</a>
</g>
</g>
<!-- Node5&#45;&gt;Node9 -->
<g id="edge8_Node000005_Node000009" class="edge">
<title>Node5&#45;&gt;Node9</title>
<g id="a_edge8_Node000005_Node000009"><a xlink:title=" ">
<path fill="none" stroke="#63b8ff" d="M1116.33,-154.64C1115.05,-154.42 1113.77,-154.21 1112.5,-154 973.86,-131.41 936.95,-141.74 798.5,-118 794.02,-117.23 789.43,-116.38 784.8,-115.46"/>
<polygon fill="#63b8ff" stroke="#63b8ff" points="1115.84,-158.1 1126.3,-156.4 1117.06,-151.21 1115.84,-158.1"/>
</a>
</g>
</g>
<!-- Node10 -->
<g id="Node000010" class="node">
<title>Node10</title>
<g id="a_Node000010"><a xlink:href="MainMenu_8hpp.html" target="_top" xlink:title=" ">
<polygon fill="white" stroke="#666666" points="1160.5,-118 1014.5,-118 1014.5,-77 1160.5,-77 1160.5,-118"/>
<text text-anchor="start" x="1022.5" y="-106" font-family="Helvetica,sans-Serif" font-size="10.00">/home/runner/work/R</text>
<text text-anchor="start" x="1022.5" y="-95" font-family="Helvetica,sans-Serif" font-size="10.00">&#45;Type/R&#45;Type/Client</text>
<text text-anchor="middle" x="1087.5" y="-84" font-family="Helvetica,sans-Serif" font-size="10.00">/src/scenes/MainMenu.hpp</text>
</a>
</g>
</g>
<!-- Node5&#45;&gt;Node10 -->
<g id="edge10_Node000005_Node000010" class="edge">
<title>Node5&#45;&gt;Node10</title>
<g id="a_edge10_Node000005_Node000010"><a xlink:title=" ">
<path fill="none" stroke="#63b8ff" d="M1165.3,-148.37C1149.95,-138.53 1132.6,-127.41 1118.19,-118.17"/>
<polygon fill="#63b8ff" stroke="#63b8ff" points="1163.76,-151.54 1174.07,-153.99 1167.54,-145.65 1163.76,-151.54"/>
</a>
</g>
</g>
<!-- Node5&#45;&gt;Node11 -->
<g id="edge12_Node000005_Node000011" class="edge">
<title>Node5&#45;&gt;Node11</title>
<g id="a_edge12_Node000005_Node000011"><a xlink:title=" ">
<path fill="none" stroke="#63b8ff" d="M1292.7,-165.46C1393.65,-155.88 1563.85,-138.55 1709.5,-118 1724.68,-115.86 1740.95,-113.24 1756.28,-110.63"/>
<polygon fill="#63b8ff" stroke="#63b8ff" points="1292.17,-162 1282.55,-166.42 1292.83,-168.97 1292.17,-162"/>
</a>
</g>
</g>
<!-- Node12 -->
<g id="Node000012" class="node">
<title>Node12</title>
<g id="a_Node000012"><a xlink:href="WaitLobby_8hpp.html" target="_top" xlink:title=" ">
<polygon fill="white" stroke="#666666" points="1536.5,-118 1392.5,-118 1392.5,-77 1536.5,-77 1536.5,-118"/>
<text text-anchor="start" x="1400.5" y="-106" font-family="Helvetica,sans-Serif" font-size="10.00">/home/runner/work/R</text>
<text text-anchor="start" x="1400.5" y="-95" font-family="Helvetica,sans-Serif" font-size="10.00">&#45;Type/R&#45;Type/Client</text>
<text text-anchor="middle" x="1464.5" y="-84" font-family="Helvetica,sans-Serif" font-size="10.00">/src/scenes/WaitLobby.hpp</text>
</a>
</g>
</g>
<!-- Node5&#45;&gt;Node12 -->
<g id="edge14_Node000005_Node000012" class="edge">
<title>Node5&#45;&gt;Node12</title>
<g id="a_edge14_Node000005_Node000012"><a xlink:title=" ">
<path fill="none" stroke="#63b8ff" d="M1281.76,-151.21C1318.29,-140.68 1361.52,-128.21 1396.75,-118.04"/>
<polygon fill="#63b8ff" stroke="#63b8ff" points="1280.77,-147.86 1272.13,-153.99 1282.71,-154.58 1280.77,-147.86"/>
</a>
</g>
</g>
<!-- Node9&#45;&gt;Node6 -->
<g id="edge9_Node000009_Node000006" class="edge">
<title>Node9&#45;&gt;Node6</title>
<g id="a_edge9_Node000009_Node000006"><a xlink:title=" ">
<path fill="none" stroke="#63b8ff" d="M794.7,-77.67C795.97,-77.44 797.24,-77.22 798.5,-77 947.62,-51.3 1125.06,-34.14 1215.71,-26.34"/>
<polygon fill="#63b8ff" stroke="#63b8ff" points="793.98,-74.24 784.81,-79.54 795.28,-81.12 793.98,-74.24"/>
</a>
</g>
</g>
<!-- Node10&#45;&gt;Node6 -->
<g id="edge11_Node000010_Node000006" class="edge">
<title>Node10&#45;&gt;Node6</title>
<g id="a_edge11_Node000010_Node000006"><a xlink:title=" ">
<path fill="none" stroke="#63b8ff" d="M1145.74,-73.27C1171.64,-62.94 1201.79,-50.9 1226.51,-41.04"/>
<polygon fill="#63b8ff" stroke="#63b8ff" points="1144.4,-70.03 1136.4,-76.99 1146.99,-76.54 1144.4,-70.03"/>
</a>
</g>
</g>
<!-- Node11&#45;&gt;Node6 -->
<g id="edge13_Node000011_Node000006" class="edge">
<title>Node11&#45;&gt;Node6</title>
<g id="a_edge13_Node000011_Node000006"><a xlink:title=" ">
<path fill="none" stroke="#63b8ff" d="M1746.33,-77.71C1745.04,-77.47 1743.77,-77.23 1742.5,-77 1597.27,-50.77 1424.32,-33.91 1335.19,-26.27"/>
<polygon fill="#63b8ff" stroke="#63b8ff" points="1745.78,-81.17 1756.28,-79.71 1747.16,-74.31 1745.78,-81.17"/>
</a>
</g>
</g>
<!-- Node12&#45;&gt;Node6 -->
<g id="edge15_Node000012_Node000006" class="edge">
<title>Node12&#45;&gt;Node6</title>
<g id="a_edge15_Node000012_Node000006"><a xlink:title=" ">
<path fill="none" stroke="#63b8ff" d="M1405.95,-73.27C1379.92,-62.94 1349.6,-50.9 1324.75,-41.04"/>
<polygon fill="#63b8ff" stroke="#63b8ff" points="1404.75,-76.56 1415.34,-76.99 1407.33,-70.05 1404.75,-76.56"/>
</a>
</g>
</g>
<!-- Node14&#45;&gt;Node6 -->
<g id="edge18_Node000014_Node000006" class="edge">
<title>Node14&#45;&gt;Node6</title>
<g id="a_edge18_Node000014_Node000006"><a xlink:title=" ">
<path fill="none" stroke="#63b8ff" d="M912.24,-153.99C774.97,-132.91 548.39,-169.79 633.5,-77 672.42,-34.57 1063.95,-24.49 1215.78,-22.17"/>
<polygon fill="#63b8ff" stroke="#63b8ff" points="911.93,-157.49 922.37,-155.68 913.08,-150.58 911.93,-157.49"/>
</a>
</g>
</g>
<!-- Node15&#45;&gt;Node5 -->
<g id="edge21_Node000015_Node000005" class="edge">
<title>Node15&#45;&gt;Node5</title>
<g id="a_edge21_Node000015_Node000005"><a xlink:title=" ">
<path fill="none" stroke="#63b8ff" d="M1288.07,-225.64C1271.56,-215.74 1252.83,-204.5 1237.29,-195.17"/>
<polygon fill="#63b8ff" stroke="#63b8ff" points="1286.61,-228.85 1296.98,-230.99 1290.21,-222.84 1286.61,-228.85"/>
</a>
</g>
</g>
<!-- Node15&#45;&gt;Node6 -->
<g id="edge20_Node000015_Node000006" class="edge">
<title>Node15&#45;&gt;Node6</title>
<g id="a_edge20_Node000015_Node000006"><a xlink:title=" ">
<path fill="none" stroke="#63b8ff" d="M1438.22,-238.9C1578.41,-219.79 1794.67,-173.75 1709.5,-77 1685.16,-49.35 1448.47,-31.73 1335.25,-24.82"/>
<polygon fill="#63b8ff" stroke="#63b8ff" points="1437.71,-235.43 1428.26,-240.23 1438.64,-242.37 1437.71,-235.43"/>
</a>
</g>
</g>
<!-- Node15&#45;&gt;Node8 -->
<g id="edge22_Node000015_Node000008" class="edge">
<title>Node15&#45;&gt;Node8</title>
<g id="a_edge22_Node000015_Node000008"><a xlink:title=" ">
<path fill="none" stroke="#63b8ff" d="M1332.85,-220.65C1333.89,-201.02 1333,-175.14 1324.5,-154 1319.03,-140.41 1308.79,-127.83 1299.17,-118.09"/>
<polygon fill="#63b8ff" stroke="#63b8ff" points="1329.34,-220.62 1332.11,-230.85 1336.32,-221.13 1329.34,-220.62"/>
</a>
</g>
</g>
<!-- Node15&#45;&gt;Node9 -->
<g id="edge25_Node000015_Node000009" class="edge">
<title>Node15&#45;&gt;Node9</title>
<g id="a_edge25_Node000015_Node000009"><a xlink:title=" ">
<path fill="none" stroke="#63b8ff" d="M1220.58,-234.38C1185.96,-226.09 1148.62,-213.64 1117.5,-195 1096.19,-182.23 1101.56,-165.43 1079.5,-154 972,-98.32 928.89,-138.06 809.5,-118 801.45,-116.65 793.04,-115.12 784.7,-113.52"/>
<polygon fill="#63b8ff" stroke="#63b8ff" points="1220.21,-237.89 1230.74,-236.72 1221.78,-231.07 1220.21,-237.89"/>
</a>
</g>
</g>
<!-- Node15&#45;&gt;Node10 -->
<g id="edge27_Node000015_Node000010" class="edge">
<title>Node15&#45;&gt;Node10</title>
<g id="a_edge27_Node000015_Node000010"><a xlink:title=" ">
<path fill="none" stroke="#63b8ff" d="M1325.08,-220.97C1320.35,-199.48 1310.74,-171.24 1291.5,-154 1286.37,-149.4 1216.99,-131.08 1160.54,-116.73"/>
<polygon fill="#63b8ff" stroke="#63b8ff" points="1321.67,-221.76 1327.03,-230.9 1328.54,-220.41 1321.67,-221.76"/>
</a>
</g>
</g>
<!-- Node15&#45;&gt;Node11 -->
<g id="edge28_Node000015_Node000011" class="edge">
<title>Node15&#45;&gt;Node11</title>
<g id="a_edge28_Node000015_Node000011"><a xlink:title=" ">
<path fill="none" stroke="#63b8ff" d="M1438.49,-244.8C1542.9,-237.75 1691.83,-223.09 1742.5,-195 1774.67,-177.17 1799.23,-140.83 1812.21,-118.18"/>
<polygon fill="#63b8ff" stroke="#63b8ff" points="1437.97,-241.33 1428.22,-245.48 1438.43,-248.31 1437.97,-241.33"/>
</a>
</g>
</g>
<!-- Node15&#45;&gt;Node12 -->
<g id="edge29_Node000015_Node000012" class="edge">
<title>Node15&#45;&gt;Node12</title>
<g id="a_edge29_Node000015_Node000012"><a xlink:title=" ">
<path fill="none" stroke="#63b8ff" d="M1353.64,-223.32C1380.4,-193.19 1422.91,-145.33 1446.77,-118.47"/>
<polygon fill="#63b8ff" stroke="#63b8ff" points="1350.9,-221.14 1346.87,-230.94 1356.13,-225.79 1350.9,-221.14"/>
</a>
</g>
</g>
<!-- Node15&#45;&gt;Node14 -->
<g id="edge26_Node000015_Node000014" class="edge">
<title>Node15&#45;&gt;Node14</title>
<g id="a_edge26_Node000015_Node000014"><a xlink:title=" ">
<path fill="none" stroke="#63b8ff" d="M1233.01,-228.77C1181.24,-217.11 1118.43,-202.96 1070.55,-192.18"/>
<polygon fill="#63b8ff" stroke="#63b8ff" points="1232.35,-232.21 1242.88,-230.99 1233.89,-225.38 1232.35,-232.21"/>
</a>
</g>
</g>
<!-- Node16 -->
<g id="Node000016" class="node">
<title>Node16</title>
<g id="a_Node000016"><a xlink:href="GameOver_8hpp.html" target="_top" xlink:title=" ">
<polygon fill="white" stroke="#666666" points="1700.5,-118 1554.5,-118 1554.5,-77 1700.5,-77 1700.5,-118"/>
<text text-anchor="start" x="1562.5" y="-106" font-family="Helvetica,sans-Serif" font-size="10.00">/home/runner/work/R</text>
<text text-anchor="start" x="1562.5" y="-95" font-family="Helvetica,sans-Serif" font-size="10.00">&#45;Type/R&#45;Type/Client</text>
<text text-anchor="middle" x="1627.5" y="-84" font-family="Helvetica,sans-Serif" font-size="10.00">/src/scenes/GameOver.hpp</text>
</a>
</g>
</g>
<!-- Node15&#45;&gt;Node16 -->
<g id="edge23_Node000015_Node000016" class="edge">
<title>Node15&#45;&gt;Node16</title>
<g id="a_edge23_Node000015_Node000016"><a xlink:title=" ">
<path fill="none" stroke="#63b8ff" d="M1376.91,-226.32C1435.62,-196.37 1534.48,-145.94 1588.83,-118.23"/>
<polygon fill="#63b8ff" stroke="#63b8ff" points="1375.17,-223.28 1367.85,-230.94 1378.35,-229.51 1375.17,-223.28"/>
</a>
</g>
</g>
<!-- Node16&#45;&gt;Node6 -->
<g id="edge24_Node000016_Node000006" class="edge">
<title>Node16&#45;&gt;Node6</title>
<g id="a_edge24_Node000016_Node000006"><a xlink:title=" ">
<path fill="none" stroke="#63b8ff" d="M1544.24,-76.75C1466.52,-59.63 1387.67,-43.65 1335.13,-33.21"/>
<polygon fill="#63b8ff" stroke="#63b8ff" points="1543.69,-80.21 1554.21,-78.95 1545.2,-73.38 1543.69,-80.21"/>
</a>
</g>
</g>
<!-- Node18 -->
<g id="Node000018" class="node">
<title>Node18</title>
<g id="a_Node000018"><a xlink:href="ServerGame_8cpp.html" target="_top" xlink:title=" ">
<polygon fill="white" stroke="#666666" points="119,-195 0,-195 0,-154 119,-154 119,-195"/>
<text text-anchor="start" x="8" y="-183" font-family="Helvetica,sans-Serif" font-size="10.00">/home/runner/work/R</text>
<text text-anchor="start" x="8" y="-172" font-family="Helvetica,sans-Serif" font-size="10.00">&#45;Type/R&#45;Type/Server</text>
<text text-anchor="middle" x="59.5" y="-161" font-family="Helvetica,sans-Serif" font-size="10.00">/src/ServerGame.cpp</text>
</a>
</g>
</g>
<!-- Node17&#45;&gt;Node18 -->
<g id="edge31_Node000017_Node000018" class="edge">
<title>Node17&#45;&gt;Node18</title>
<g id="a_edge31_Node000017_Node000018"><a xlink:title=" ">
<path fill="none" stroke="#63b8ff" d="M406.04,-230.99C281.3,-211.69 246.83,-219.66 127.5,-195 124.73,-194.43 121.92,-193.8 119.08,-193.14"/>
<polygon fill="#63b8ff" stroke="#63b8ff" points="405.55,-234.46 415.98,-232.56 406.64,-227.54 405.55,-234.46"/>
</a>
</g>
</g>
<!-- Node17&#45;&gt;Node19 -->
<g id="edge32_Node000017_Node000019" class="edge">
<title>Node17&#45;&gt;Node19</title>
<g id="a_edge32_Node000017_Node000019"><a xlink:title=" ">
<path fill="none" stroke="#63b8ff" d="M541.28,-224.35C553.33,-214.73 566.76,-204.01 577.97,-195.07"/>
<polygon fill="#63b8ff" stroke="#63b8ff" points="538.83,-221.82 533.2,-230.79 543.2,-227.29 538.83,-221.82"/>
</a>
</g>
</g>
<!-- Node20 -->
<g id="Node000020" class="node">
<title>Node20</title>
<g id="a_Node000020"><a xlink:href="Spawn_8cpp.html" target="_top" xlink:title=" ">
<polygon fill="white" stroke="#666666" points="322,-195 137,-195 137,-154 322,-154 322,-195"/>
<text text-anchor="start" x="145" y="-183" font-family="Helvetica,sans-Serif" font-size="10.00">/home/runner/work/R</text>
<text text-anchor="start" x="145" y="-172" font-family="Helvetica,sans-Serif" font-size="10.00">&#45;Type/R&#45;Type/Shared</text>
<text text-anchor="middle" x="229.5" y="-161" font-family="Helvetica,sans-Serif" font-size="10.00">/systems/SpawnEnemy/Spawn.cpp</text>
</a>
</g>
</g>
<!-- Node17&#45;&gt;Node20 -->
<g id="edge33_Node000017_Node000020" class="edge">
<title>Node17&#45;&gt;Node20</title>
<g id="a_edge33_Node000017_Node000020"><a xlink:title=" ">
<path fill="none" stroke="#63b8ff" d="M426.1,-228.35C386.79,-217.78 340.17,-205.25 302.2,-195.04"/>
<polygon fill="#63b8ff" stroke="#63b8ff" points="425.36,-231.77 435.92,-230.99 427.18,-225.01 425.36,-231.77"/>
</a>
</g>
</g>
<!-- Node21 -->
<g id="Node000021" class="node">
<title>Node21</title>
<g id="a_Node000021"><a xlink:href="WaveSystem_8cpp.html" target="_top" xlink:title=" ">
<polygon fill="white" stroke="#666666" points="488.5,-195 340.5,-195 340.5,-154 488.5,-154 488.5,-195"/>
<text text-anchor="start" x="348.5" y="-183" font-family="Helvetica,sans-Serif" font-size="10.00">/home/runner/work/R</text>
<text text-anchor="start" x="348.5" y="-172" font-family="Helvetica,sans-Serif" font-size="10.00">&#45;Type/R&#45;Type/Shared</text>
<text text-anchor="middle" x="414.5" y="-161" font-family="Helvetica,sans-Serif" font-size="10.00">/systems/WaveSystem.cpp</text>
</a>
</g>
</g>
<!-- Node17&#45;&gt;Node21 -->
<g id="edge34_Node000017_Node000021" class="edge">
<title>Node17&#45;&gt;Node21</title>
<g id="a_edge34_Node000017_Node000021"><a xlink:title=" ">
<path fill="none" stroke="#63b8ff" d="M475.72,-224.35C463.67,-214.73 450.24,-204.01 439.03,-195.07"/>
<polygon fill="#63b8ff" stroke="#63b8ff" points="473.8,-227.29 483.8,-230.79 478.17,-221.82 473.8,-227.29"/>
</a>
</g>
</g>
</g>
</svg>
