<?xml version="1.0" encoding="UTF-8" standalone="no"?>
<!DOCTYPE svg PUBLIC "-//W3C//DTD SVG 1.1//EN"
 "http://www.w3.org/Graphics/SVG/1.1/DTD/svg11.dtd">
<!-- Generated by graphviz version 2.43.0 (0)
 -->
<!-- Title: /home/runner/work/R&#45;Type/R&#45;Type/Client/src/engine/inputs/KeyBindings.hpp Pages: 1 -->
<svg width="1105pt" height="434pt"
 viewBox="0.00 0.00 1105.22 434.00" xmlns="http://www.w3.org/2000/svg" xmlns:xlink="http://www.w3.org/1999/xlink">
<g id="graph0" class="graph" transform="scale(1 1) rotate(0) translate(4 430)">
<title>/home/runner/work/R&#45;Type/R&#45;Type/Client/src/engine/inputs/KeyBindings.hpp</title>
<!-- Node1 -->
<g id="Node000001" class="node">
<title>Node1</title>
<g id="a_Node000001"><a xlink:title=" ">
<polygon fill="#999999" stroke="#666666" points="969.76,-426 782.76,-426 782.76,-385 969.76,-385 969.76,-426"/>
<text text-anchor="start" x="790.76" y="-414" font-family="Helvetica,sans-Serif" font-size="10.00">/home/runner/work/R</text>
<text text-anchor="start" x="790.76" y="-403" font-family="Helvetica,sans-Serif" font-size="10.00">&#45;Type/R&#45;Type/Client</text>
<text text-anchor="middle" x="876.26" y="-392" font-family="Helvetica,sans-Serif" font-size="10.00">/src/engine/inputs/KeyBindings.hpp</text>
</a>
</g>
</g>
<!-- Node2 -->
<g id="Node000002" class="node">
<title>Node2</title>
<g id="a_Node000002"><a xlink:href="InputManager_8hpp.html" target="_top" xlink:title=" ">
<polygon fill="white" stroke="#666666" points="911.26,-349 717.26,-349 717.26,-308 911.26,-308 911.26,-349"/>
<text text-anchor="start" x="725.26" y="-337" font-family="Helvetica,sans-Serif" font-size="10.00">/home/runner/work/R</text>
<text text-anchor="start" x="725.26" y="-326" font-family="Helvetica,sans-Serif" font-size="10.00">&#45;Type/R&#45;Type/Client</text>
<text text-anchor="middle" x="814.26" y="-315" font-family="Helvetica,sans-Serif" font-size="10.00">/src/engine/inputs/InputManager.hpp</text>
</a>
</g>
</g>
<!-- Node1&#45;&gt;Node2 -->
<g id="edge1_Node000001_Node000002" class="edge">
<title>Node1&#45;&gt;Node2</title>
<g id="a_edge1_Node000001_Node000002"><a xlink:title=" ">
<path fill="none" stroke="#63b8ff" d="M853.49,-376.95C845.84,-367.7 837.48,-357.58 830.44,-349.07"/>
<polygon fill="#63b8ff" stroke="#63b8ff" points="850.9,-379.32 859.97,-384.79 856.3,-374.86 850.9,-379.32"/>
</a>
</g>
</g>
<!-- Node11 -->
<g id="Node000011" class="node">
<title>Node11</title>
<g id="a_Node000011"><a xlink:href="Options_8hpp.html" target="_top" xlink:title=" ">
<polygon fill="white" stroke="#666666" points="1070.26,-118 938.26,-118 938.26,-77 1070.26,-77 1070.26,-118"/>
<text text-anchor="start" x="946.26" y="-106" font-family="Helvetica,sans-Serif" font-size="10.00">/home/runner/work/R</text>
<text text-anchor="start" x="946.26" y="-95" font-family="Helvetica,sans-Serif" font-size="10.00">&#45;Type/R&#45;Type/Client</text>
<text text-anchor="middle" x="1004.26" y="-84" font-family="Helvetica,sans-Serif" font-size="10.00">/src/scenes/Options.hpp</text>
</a>
</g>
</g>
<!-- Node1&#45;&gt;Node11 -->
<g id="edge30_Node000001_Node000011" class="edge">
<title>Node1&#45;&gt;Node11</title>
<g id="a_edge30_Node000001_Node000011"><a xlink:title=" ">
<path fill="none" stroke="#63b8ff" d="M920.65,-379.36C956.09,-356.5 1003.18,-319.17 1024.26,-272 1047.4,-220.23 1026.06,-151.52 1012.88,-118.24"/>
<polygon fill="#63b8ff" stroke="#63b8ff" points="918.52,-376.57 911.92,-384.86 922.25,-382.5 918.52,-376.57"/>
</a>
</g>
</g>
<!-- Node3 -->
<g id="Node000003" class="node">
<title>Node3</title>
<g id="a_Node000003"><a xlink:href="InputManager_8cpp.html" target="_top" xlink:title=" ">
<polygon fill="white" stroke="#666666" points="1014.76,-272 821.76,-272 821.76,-231 1014.76,-231 1014.76,-272"/>
<text text-anchor="start" x="829.76" y="-260" font-family="Helvetica,sans-Serif" font-size="10.00">/home/runner/work/R</text>
<text text-anchor="start" x="829.76" y="-249" font-family="Helvetica,sans-Serif" font-size="10.00">&#45;Type/R&#45;Type/Client</text>
<text text-anchor="middle" x="918.26" y="-238" font-family="Helvetica,sans-Serif" font-size="10.00">/src/engine/inputs/InputManager.cpp</text>
</a>
</g>
</g>
<!-- Node2&#45;&gt;Node3 -->
<g id="edge2_Node000002_Node000003" class="edge">
<title>Node2&#45;&gt;Node3</title>
<g id="a_edge2_Node000002_Node000003"><a xlink:title=" ">
<path fill="none" stroke="#63b8ff" d="M849.49,-302.09C863.04,-292.32 878.29,-281.32 890.98,-272.17"/>
<polygon fill="#63b8ff" stroke="#63b8ff" points="847.38,-299.3 841.32,-307.99 851.47,-304.98 847.38,-299.3"/>
</a>
</g>
</g>
<!-- Node4 -->
<g id="Node000004" class="node">
<title>Node4</title>
<g id="a_Node000004"><a xlink:href="InputSystem_8hpp.html" target="_top" xlink:title=" ">
<polygon fill="white" stroke="#666666" points="803.26,-272 615.26,-272 615.26,-231 803.26,-231 803.26,-272"/>
<text text-anchor="start" x="623.26" y="-260" font-family="Helvetica,sans-Serif" font-size="10.00">/home/runner/work/R</text>
<text text-anchor="start" x="623.26" y="-249" font-family="Helvetica,sans-Serif" font-size="10.00">&#45;Type/R&#45;Type/Client</text>
<text text-anchor="middle" x="709.26" y="-238" font-family="Helvetica,sans-Serif" font-size="10.00">/src/engine/inputs/InputSystem.hpp</text>
</a>
</g>
</g>
<!-- Node2&#45;&gt;Node4 -->
<g id="edge3_Node000002_Node000004" class="edge">
<title>Node2&#45;&gt;Node4</title>
<g id="a_edge3_Node000002_Node000004"><a xlink:title=" ">
<path fill="none" stroke="#63b8ff" d="M778.69,-302.09C765.01,-292.32 749.62,-281.32 736.8,-272.17"/>
<polygon fill="#63b8ff" stroke="#63b8ff" points="776.78,-305.03 786.95,-307.99 780.85,-299.33 776.78,-305.03"/>
</a>
</g>
</g>
<!-- Node15 -->
<g id="Node000015" class="node">
<title>Node15</title>
<g id="a_Node000015"><a xlink:href="SceneManager_8hpp.html" target="_top" xlink:title=" ">
<polygon fill="white" stroke="#666666" points="500.76,-272 303.76,-272 303.76,-231 500.76,-231 500.76,-272"/>
<text text-anchor="start" x="311.76" y="-260" font-family="Helvetica,sans-Serif" font-size="10.00">/home/runner/work/R</text>
<text text-anchor="start" x="311.76" y="-249" font-family="Helvetica,sans-Serif" font-size="10.00">&#45;Type/R&#45;Type/Client</text>
<text text-anchor="middle" x="402.26" y="-238" font-family="Helvetica,sans-Serif" font-size="10.00">/src/engine/scene/SceneManager.hpp</text>
</a>
</g>
</g>
<!-- Node2&#45;&gt;Node15 -->
<g id="edge19_Node000002_Node000015" class="edge">
<title>Node2&#45;&gt;Node15</title>
<g id="a_edge19_Node000002_Node000015"><a xlink:title=" ">
<path fill="none" stroke="#63b8ff" d="M707.06,-307.99C643.32,-296.38 563.04,-281.77 500.87,-270.45"/>
<polygon fill="#63b8ff" stroke="#63b8ff" points="706.68,-311.47 717.15,-309.82 707.93,-304.59 706.68,-311.47"/>
</a>
</g>
</g>
<!-- Node5 -->
<g id="Node000005" class="node">
<title>Node5</title>
<g id="a_Node000005"><a xlink:href="GameEngine_8hpp.html" target="_top" xlink:title=" ">
<polygon fill="white" stroke="#666666" points="605.26,-195 449.26,-195 449.26,-154 605.26,-154 605.26,-195"/>
<text text-anchor="start" x="457.26" y="-183" font-family="Helvetica,sans-Serif" font-size="10.00">/home/runner/work/R</text>
<text text-anchor="start" x="457.26" y="-172" font-family="Helvetica,sans-Serif" font-size="10.00">&#45;Type/R&#45;Type/Client</text>
<text text-anchor="middle" x="527.26" y="-161" font-family="Helvetica,sans-Serif" font-size="10.00">/src/engine/GameEngine.hpp</text>
</a>
</g>
</g>
<!-- Node4&#45;&gt;Node5 -->
<g id="edge4_Node000004_Node000005" class="edge">
<title>Node4&#45;&gt;Node5</title>
<g id="a_edge4_Node000004_Node000005"><a xlink:title=" ">
<path fill="none" stroke="#63b8ff" d="M652.55,-227.13C627.56,-216.83 598.51,-204.86 574.68,-195.04"/>
<polygon fill="#63b8ff" stroke="#63b8ff" points="651.34,-230.42 661.92,-230.99 654.01,-223.94 651.34,-230.42"/>
</a>
</g>
</g>
<!-- Node13 -->
<g id="Node000013" class="node">
<title>Node13</title>
<g id="a_Node000013"><a xlink:href="InputSystem_8cpp.html" target="_top" xlink:title=" ">
<polygon fill="white" stroke="#666666" points="1015.26,-195 827.26,-195 827.26,-154 1015.26,-154 1015.26,-195"/>
<text text-anchor="start" x="835.26" y="-183" font-family="Helvetica,sans-Serif" font-size="10.00">/home/runner/work/R</text>
<text text-anchor="start" x="835.26" y="-172" font-family="Helvetica,sans-Serif" font-size="10.00">&#45;Type/R&#45;Type/Client</text>
<text text-anchor="middle" x="921.26" y="-161" font-family="Helvetica,sans-Serif" font-size="10.00">/src/engine/inputs/InputSystem.cpp</text>
</a>
</g>
</g>
<!-- Node4&#45;&gt;Node13 -->
<g id="edge16_Node000004_Node000013" class="edge">
<title>Node4&#45;&gt;Node13</title>
<g id="a_edge16_Node000004_Node000013"><a xlink:title=" ">
<path fill="none" stroke="#63b8ff" d="M774.16,-227.54C803.54,-217.15 837.9,-204.99 866.02,-195.04"/>
<polygon fill="#63b8ff" stroke="#63b8ff" points="772.67,-224.36 764.41,-230.99 775,-230.95 772.67,-224.36"/>
</a>
</g>
</g>
<!-- Node14 -->
<g id="Node000014" class="node">
<title>Node14</title>
<g id="a_Node000014"><a xlink:href="MainGame_8hpp.html" target="_top" xlink:title=" ">
<polygon fill="white" stroke="#666666" points="809.26,-195 661.26,-195 661.26,-154 809.26,-154 809.26,-195"/>
<text text-anchor="start" x="669.26" y="-183" font-family="Helvetica,sans-Serif" font-size="10.00">/home/runner/work/R</text>
<text text-anchor="start" x="669.26" y="-172" font-family="Helvetica,sans-Serif" font-size="10.00">&#45;Type/R&#45;Type/Client</text>
<text text-anchor="middle" x="735.26" y="-161" font-family="Helvetica,sans-Serif" font-size="10.00">/src/scenes/MainGame.hpp</text>
</a>
</g>
</g>
<!-- Node4&#45;&gt;Node14 -->
<g id="edge17_Node000004_Node000014" class="edge">
<title>Node4&#45;&gt;Node14</title>
<g id="a_edge17_Node000004_Node000014"><a xlink:title=" ">
<path fill="none" stroke="#63b8ff" d="M719.4,-221.26C722.44,-212.48 725.71,-203.07 728.48,-195.07"/>
<polygon fill="#63b8ff" stroke="#63b8ff" points="716.06,-220.2 716.09,-230.79 722.68,-222.49 716.06,-220.2"/>
</a>
</g>
</g>
<!-- Node6 -->
<g id="Node000006" class="node">
<title>Node6</title>
<g id="a_Node000006"><a xlink:href="Main_8cpp.html" target="_top" xlink:title=" ">
<polygon fill="white" stroke="#666666" points="401.76,-41 282.76,-41 282.76,0 401.76,0 401.76,-41"/>
<text text-anchor="start" x="290.76" y="-29" font-family="Helvetica,sans-Serif" font-size="10.00">/home/runner/work/R</text>
<text text-anchor="start" x="290.76" y="-18" font-family="Helvetica,sans-Serif" font-size="10.00">&#45;Type/R&#45;Type/Client</text>
<text text-anchor="middle" x="342.26" y="-7" font-family="Helvetica,sans-Serif" font-size="10.00">/src/Main.cpp</text>
</a>
</g>
</g>
<!-- Node5&#45;&gt;Node6 -->
<g id="edge5_Node000005_Node000006" class="edge">
<title>Node5&#45;&gt;Node6</title>
<g id="a_edge5_Node000005_Node000006"><a xlink:title=" ">
<path fill="none" stroke="#63b8ff" d="M615.16,-152.9C661.67,-141.11 710.56,-126.94 717.26,-118 728.19,-103.42 729.17,-90.8 717.26,-77 677.28,-30.66 497.43,-22.36 402.07,-21.29"/>
<polygon fill="#63b8ff" stroke="#63b8ff" points="614.14,-149.54 605.29,-155.37 615.84,-156.33 614.14,-149.54"/>
</a>
</g>
</g>
<!-- Node7 -->
<g id="Node000007" class="node">
<title>Node7</title>
<g id="a_Node000007"><a xlink:href="GameEngine_8cpp.html" target="_top" xlink:title=" ">
<polygon fill="white" stroke="#666666" points="919.76,-118 764.76,-118 764.76,-77 919.76,-77 919.76,-118"/>
<text text-anchor="start" x="772.76" y="-106" font-family="Helvetica,sans-Serif" font-size="10.00">/home/runner/work/R</text>
<text text-anchor="start" x="772.76" y="-95" font-family="Helvetica,sans-Serif" font-size="10.00">&#45;Type/R&#45;Type/Client</text>
<text text-anchor="middle" x="842.26" y="-84" font-family="Helvetica,sans-Serif" font-size="10.00">/src/engine/GameEngine.cpp</text>
</a>
</g>
</g>
<!-- Node5&#45;&gt;Node7 -->
<g id="edge6_Node000005_Node000007" class="edge">
<title>Node5&#45;&gt;Node7</title>
<g id="a_edge6_Node000005_Node000007"><a xlink:title=" ">
<path fill="none" stroke="#63b8ff" d="M615.38,-152.52C662.28,-141.35 719.45,-127.74 764.67,-116.97"/>
<polygon fill="#63b8ff" stroke="#63b8ff" points="614.45,-149.14 605.53,-154.86 616.07,-155.95 614.45,-149.14"/>
</a>
</g>
</g>
<!-- Node8 -->
<g id="Node000008" class="node">
<title>Node8</title>
<g id="a_Node000008"><a xlink:href="SceneManager_8cpp.html" target="_top" xlink:title=" ">
<polygon fill="white" stroke="#666666" points="708.26,-118 512.26,-118 512.26,-77 708.26,-77 708.26,-118"/>
<text text-anchor="start" x="520.26" y="-106" font-family="Helvetica,sans-Serif" font-size="10.00">/home/runner/work/R</text>
<text text-anchor="start" x="520.26" y="-95" font-family="Helvetica,sans-Serif" font-size="10.00">&#45;Type/R&#45;Type/Client</text>
<text text-anchor="middle" x="610.26" y="-84" font-family="Helvetica,sans-Serif" font-size="10.00">/src/engine/scene/SceneManager.cpp</text>
</a>
</g>
</g>
<!-- Node5&#45;&gt;Node8 -->
<g id="edge7_Node000005_Node000008" class="edge">
<title>Node5&#45;&gt;Node8</title>
<g id="a_edge7_Node000005_Node000008"><a xlink:title=" ">
<path fill="none" stroke="#63b8ff" d="M556.51,-147.07C567.08,-137.52 578.8,-126.93 588.6,-118.07"/>
<polygon fill="#63b8ff" stroke="#63b8ff" points="554.14,-144.49 549.07,-153.79 558.84,-149.69 554.14,-144.49"/>
</a>
</g>
</g>
<!-- Node9 -->
<g id="Node000009" class="node">
<title>Node9</title>
<g id="a_Node000009"><a xlink:href="JoinGame_8hpp.html" target="_top" xlink:title=" ">
<polygon fill="white" stroke="#666666" points="494.26,-118 352.26,-118 352.26,-77 494.26,-77 494.26,-118"/>
<text text-anchor="start" x="360.26" y="-106" font-family="Helvetica,sans-Serif" font-size="10.00">/home/runner/work/R</text>
<text text-anchor="start" x="360.26" y="-95" font-family="Helvetica,sans-Serif" font-size="10.00">&#45;Type/R&#45;Type/Client</text>
<text text-anchor="middle" x="423.26" y="-84" font-family="Helvetica,sans-Serif" font-size="10.00">/src/scenes/JoinGame.hpp</text>
</a>
</g>
</g>
<!-- Node5&#45;&gt;Node9 -->
<g id="edge8_Node000005_Node000009" class="edge">
<title>Node5&#45;&gt;Node9</title>
<g id="a_edge8_Node000005_Node000009"><a xlink:title=" ">
<path fill="none" stroke="#63b8ff" d="M492.03,-148.09C478.48,-138.32 463.23,-127.32 450.54,-118.17"/>
<polygon fill="#63b8ff" stroke="#63b8ff" points="490.05,-150.98 500.21,-153.99 494.15,-145.3 490.05,-150.98"/>
</a>
</g>
</g>
<!-- Node10 -->
<g id="Node000010" class="node">
<title>Node10</title>
<g id="a_Node000010"><a xlink:href="MainMenu_8hpp.html" target="_top" xlink:title=" ">
<polygon fill="white" stroke="#666666" points="172.26,-118 26.26,-118 26.26,-77 172.26,-77 172.26,-118"/>
<text text-anchor="start" x="34.26" y="-106" font-family="Helvetica,sans-Serif" font-size="10.00">/home/runner/work/R</text>
<text text-anchor="start" x="34.26" y="-95" font-family="Helvetica,sans-Serif" font-size="10.00">&#45;Type/R&#45;Type/Client</text>
<text text-anchor="middle" x="99.26" y="-84" font-family="Helvetica,sans-Serif" font-size="10.00">/src/scenes/MainMenu.hpp</text>
</a>
</g>
</g>
<!-- Node5&#45;&gt;Node10 -->
<g id="edge10_Node000005_Node000010" class="edge">
<title>Node5&#45;&gt;Node10</title>
<g id="a_edge10_Node000005_Node000010"><a xlink:title=" ">
<path fill="none" stroke="#63b8ff" d="M438.86,-161.17C368.76,-150.95 268.42,-135.33 181.26,-118 178.39,-117.43 175.47,-116.83 172.52,-116.21"/>
<polygon fill="#63b8ff" stroke="#63b8ff" points="438.58,-164.67 448.98,-162.64 439.59,-157.74 438.58,-164.67"/>
</a>
</g>
</g>
<!-- Node5&#45;&gt;Node11 -->
<g id="edge12_Node000005_Node000011" class="edge">
<title>Node5&#45;&gt;Node11</title>
<g id="a_edge12_Node000005_Node000011"><a xlink:title=" ">
<path fill="none" stroke="#63b8ff" d="M615.43,-154.64C616.72,-154.42 617.99,-154.21 619.26,-154 756.14,-131.6 792.92,-143.51 929.26,-118 932.17,-117.46 935.13,-116.86 938.12,-116.23"/>
<polygon fill="#63b8ff" stroke="#63b8ff" points="614.7,-151.21 605.47,-156.41 615.92,-158.11 614.7,-151.21"/>
</a>
</g>
</g>
<!-- Node12 -->
<g id="Node000012" class="node">
<title>Node12</title>
<g id="a_Node000012"><a xlink:href="WaitLobby_8hpp.html" target="_top" xlink:title=" ">
<polygon fill="white" stroke="#666666" points="334.26,-118 190.26,-118 190.26,-77 334.26,-77 334.26,-118"/>
<text text-anchor="start" x="198.26" y="-106" font-family="Helvetica,sans-Serif" font-size="10.00">/home/runner/work/R</text>
<text text-anchor="start" x="198.26" y="-95" font-family="Helvetica,sans-Serif" font-size="10.00">&#45;Type/R&#45;Type/Client</text>
<text text-anchor="middle" x="262.26" y="-84" font-family="Helvetica,sans-Serif" font-size="10.00">/src/scenes/WaitLobby.hpp</text>
</a>
</g>
</g>
<!-- Node5&#45;&gt;Node12 -->
<g id="edge14_Node000005_Node000012" class="edge">
<title>Node5&#45;&gt;Node12</title>
<g id="a_edge14_Node000005_Node000012"><a xlink:title=" ">
<path fill="none" stroke="#63b8ff" d="M448.52,-151.21C411.28,-140.68 367.23,-128.21 331.31,-118.04"/>
<polygon fill="#63b8ff" stroke="#63b8ff" points="447.75,-154.63 458.33,-153.99 449.66,-147.9 447.75,-154.63"/>
</a>
</g>
</g>
<!-- Node9&#45;&gt;Node6 -->
<g id="edge9_Node000009_Node000006" class="edge">
<title>Node9&#45;&gt;Node6</title>
<g id="a_edge9_Node000009_Node000006"><a xlink:title=" ">
<path fill="none" stroke="#63b8ff" d="M394.42,-69.79C384.19,-60.32 372.87,-49.84 363.4,-41.07"/>
<polygon fill="#63b8ff" stroke="#63b8ff" points="392.26,-72.57 401.98,-76.79 397.02,-67.43 392.26,-72.57"/>
</a>
</g>
</g>
<!-- Node10&#45;&gt;Node6 -->
<g id="edge11_Node000010_Node000006" class="edge">
<title>Node10&#45;&gt;Node6</title>
<g id="a_edge11_Node000010_Node000006"><a xlink:title=" ">
<path fill="none" stroke="#63b8ff" d="M172.24,-73.98C207.54,-63.08 249.37,-50.17 282.71,-39.88"/>
<polygon fill="#63b8ff" stroke="#63b8ff" points="171,-70.7 162.47,-76.99 173.06,-77.39 171,-70.7"/>
</a>
</g>
</g>
<!-- Node11&#45;&gt;Node6 -->
<g id="edge13_Node000011_Node000006" class="edge">
<title>Node11&#45;&gt;Node6</title>
<g id="a_edge13_Node000011_Node000006"><a xlink:title=" ">
<path fill="none" stroke="#63b8ff" d="M928.15,-76.95C730.62,-42.89 506.6,-29.03 401.84,-23.98"/>
<polygon fill="#63b8ff" stroke="#63b8ff" points="927.68,-80.42 938.13,-78.69 928.89,-73.53 927.68,-80.42"/>
</a>
</g>
</g>
<!-- Node12&#45;&gt;Node6 -->
<g id="edge15_Node000012_Node000006" class="edge">
<title>Node12&#45;&gt;Node6</title>
<g id="a_edge15_Node000012_Node000006"><a xlink:title=" ">
<path fill="none" stroke="#63b8ff" d="M290.75,-69.79C300.86,-60.32 312.03,-49.84 321.38,-41.07"/>
<polygon fill="#63b8ff" stroke="#63b8ff" points="288.18,-67.4 283.28,-76.79 292.97,-72.51 288.18,-67.4"/>
</a>
</g>
</g>
<!-- Node14&#45;&gt;Node6 -->
<g id="edge18_Node000014_Node000006" class="edge">
<title>Node14&#45;&gt;Node6</title>
<g id="a_edge18_Node000014_Node000006"><a xlink:title=" ">
<path fill="none" stroke="#63b8ff" d="M819.31,-154.01C948.36,-133.52 1159.42,-163.42 1079.26,-77 1033.56,-27.73 569.08,-21.93 401.85,-21.45"/>
<polygon fill="#63b8ff" stroke="#63b8ff" points="818.66,-150.57 809.4,-155.72 819.85,-157.47 818.66,-150.57"/>
</a>
</g>
</g>
<!-- Node15&#45;&gt;Node5 -->
<g id="edge21_Node000015_Node000005" class="edge">
<title>Node15&#45;&gt;Node5</title>
<g id="a_edge21_Node000015_Node000005"><a xlink:title=" ">
<path fill="none" stroke="#63b8ff" d="M443.69,-225.64C460.2,-215.74 478.93,-204.5 494.47,-195.17"/>
<polygon fill="#63b8ff" stroke="#63b8ff" points="441.55,-222.84 434.78,-230.99 445.15,-228.85 441.55,-222.84"/>
</a>
</g>
</g>
<!-- Node15&#45;&gt;Node6 -->
<g id="edge20_Node000015_Node000006" class="edge">
<title>Node15&#45;&gt;Node6</title>
<g id="a_edge20_Node000015_Node000006"><a xlink:title=" ">
<path fill="none" stroke="#63b8ff" d="M293.33,-245.86C200.11,-239.79 74.99,-225.99 36.26,-195 7.59,-172.05 13.05,-154.1 6.26,-118 2.9,-100.09 -5.53,-90.9 6.26,-77 41.02,-36.03 195.78,-25.26 282.63,-22.46"/>
<polygon fill="#63b8ff" stroke="#63b8ff" points="293.19,-249.36 303.39,-246.49 293.63,-242.37 293.19,-249.36"/>
</a>
</g>
</g>
<!-- Node15&#45;&gt;Node8 -->
<g id="edge22_Node000015_Node000008" class="edge">
<title>Node15&#45;&gt;Node8</title>
<g id="a_edge22_Node000015_Node000008"><a xlink:title=" ">
<path fill="none" stroke="#63b8ff" d="M407.02,-220.86C411.91,-199.56 421.57,-171.61 440.26,-154 453.82,-141.23 492.02,-128.23 528.78,-118.03"/>
<polygon fill="#63b8ff" stroke="#63b8ff" points="403.58,-220.2 404.98,-230.7 410.44,-221.62 403.58,-220.2"/>
</a>
</g>
</g>
<!-- Node15&#45;&gt;Node9 -->
<g id="edge25_Node000015_Node000009" class="edge">
<title>Node15&#45;&gt;Node9</title>
<g id="a_edge25_Node000015_Node000009"><a xlink:title=" ">
<path fill="none" stroke="#63b8ff" d="M402.06,-220.55C402.36,-201.39 403.56,-176.09 407.26,-154 409.3,-141.84 413.08,-128.55 416.45,-118.03"/>
<polygon fill="#63b8ff" stroke="#63b8ff" points="398.55,-220.74 401.97,-230.77 405.55,-220.8 398.55,-220.74"/>
</a>
</g>
</g>
<!-- Node15&#45;&gt;Node10 -->
<g id="edge27_Node000015_Node000010" class="edge">
<title>Node15&#45;&gt;Node10</title>
<g id="a_edge27_Node000015_Node000010"><a xlink:title=" ">
<path fill="none" stroke="#63b8ff" d="M354.05,-226.32C294.36,-196.37 193.84,-145.94 138.58,-118.23"/>
<polygon fill="#63b8ff" stroke="#63b8ff" points="352.76,-229.58 363.27,-230.94 355.9,-223.33 352.76,-229.58"/>
</a>
</g>
</g>
<!-- Node15&#45;&gt;Node11 -->
<g id="edge28_Node000015_Node000011" class="edge">
<title>Node15&#45;&gt;Node11</title>
<g id="a_edge28_Node000015_Node000011"><a xlink:title=" ">
<path fill="none" stroke="#63b8ff" d="M511.19,-234.38C545.8,-226.09 583.15,-213.64 614.26,-195 635.58,-182.23 630.18,-165.39 652.26,-154 762.59,-97.08 807.39,-141.67 929.26,-118 932.17,-117.44 935.13,-116.82 938.11,-116.18"/>
<polygon fill="#63b8ff" stroke="#63b8ff" points="509.99,-231.07 501.02,-236.72 511.55,-237.89 509.99,-231.07"/>
</a>
</g>
</g>
<!-- Node15&#45;&gt;Node12 -->
<g id="edge29_Node000015_Node000012" class="edge">
<title>Node15&#45;&gt;Node12</title>
<g id="a_edge29_Node000015_Node000012"><a xlink:title=" ">
<path fill="none" stroke="#63b8ff" d="M377.22,-223.32C349.48,-193.19 305.39,-145.33 280.65,-118.47"/>
<polygon fill="#63b8ff" stroke="#63b8ff" points="374.9,-225.96 384.25,-230.94 380.05,-221.21 374.9,-225.96"/>
</a>
</g>
</g>
<!-- Node15&#45;&gt;Node14 -->
<g id="edge26_Node000015_Node000014" class="edge">
<title>Node15&#45;&gt;Node14</title>
<g id="a_edge26_Node000015_Node000014"><a xlink:title=" ">
<path fill="none" stroke="#63b8ff" d="M498.75,-228.77C550.52,-217.11 613.33,-202.96 661.21,-192.18"/>
<polygon fill="#63b8ff" stroke="#63b8ff" points="497.87,-225.38 488.88,-230.99 499.41,-232.21 497.87,-225.38"/>
</a>
</g>
</g>
<!-- Node16 -->
<g id="Node000016" class="node">
<title>Node16</title>
<g id="a_Node000016"><a xlink:href="GameOver_8hpp.html" target="_top" xlink:title=" ">
<polygon fill="white" stroke="#666666" points="191.26,-195 45.26,-195 45.26,-154 191.26,-154 191.26,-195"/>
<text text-anchor="start" x="53.26" y="-183" font-family="Helvetica,sans-Serif" font-size="10.00">/home/runner/work/R</text>
<text text-anchor="start" x="53.26" y="-172" font-family="Helvetica,sans-Serif" font-size="10.00">&#45;Type/R&#45;Type/Client</text>
<text text-anchor="middle" x="118.26" y="-161" font-family="Helvetica,sans-Serif" font-size="10.00">/src/scenes/GameOver.hpp</text>
</a>
</g>
</g>
<!-- Node15&#45;&gt;Node16 -->
<g id="edge23_Node000015_Node000016" class="edge">
<title>Node15&#45;&gt;Node16</title>
<g id="a_edge23_Node000015_Node000016"><a xlink:title=" ">
<path fill="none" stroke="#63b8ff" d="M318.56,-228.4C278.17,-217.73 230.16,-205.05 191.28,-194.78"/>
<polygon fill="#63b8ff" stroke="#63b8ff" points="317.82,-231.82 328.39,-230.99 319.61,-225.05 317.82,-231.82"/>
</a>
</g>
</g>
<!-- Node16&#45;&gt;Node6 -->
<g id="edge24_Node000016_Node000006" class="edge">
<title>Node16&#45;&gt;Node6</title>
<g id="a_edge24_Node000016_Node000006"><a xlink:title=" ">
<path fill="none" stroke="#63b8ff" d="M49.73,-148.92C36.78,-141.07 24.92,-130.94 17.26,-118 7.98,-102.32 5.51,-90.93 17.26,-77 50.53,-37.57 198.07,-26.15 282.47,-22.85"/>
<polygon fill="#63b8ff" stroke="#63b8ff" points="48.38,-152.18 58.82,-153.99 51.8,-146.06 48.38,-152.18"/>
</a>
</g>
</g>
</g>
</svg>
