<?xml version="1.0" encoding="UTF-8" standalone="no"?>
<!DOCTYPE svg PUBLIC "-//W3C//DTD SVG 1.1//EN"
 "http://www.w3.org/Graphics/SVG/1.1/DTD/svg11.dtd">
<!-- Generated by graphviz version 2.43.0 (0)
 -->
<!-- Title: /home/runner/work/R&#45;Type/R&#45;Type/Shared/systems/LevelSystem.cpp Pages: 1 -->
<svg width="2060pt" height="324pt"
 viewBox="0.00 0.00 2060.17 324.00" xmlns="http://www.w3.org/2000/svg" xmlns:xlink="http://www.w3.org/1999/xlink">
<g id="graph0" class="graph" transform="scale(1 1) rotate(0) translate(4 320)">
<title>/home/runner/work/R&#45;Type/R&#45;Type/Shared/systems/LevelSystem.cpp</title>
<!-- Node1 -->
<g id="Node000001" class="node">
<title>Node1</title>
<g id="a_Node000001"><a xlink:title=" ">
<polygon fill="#999999" stroke="#666666" points="403.67,-316 256.67,-316 256.67,-275 403.67,-275 403.67,-316"/>
<text text-anchor="start" x="264.67" y="-304" font-family="Helvetica,sans-Serif" font-size="10.00">/home/runner/work/R</text>
<text text-anchor="start" x="264.67" y="-293" font-family="Helvetica,sans-Serif" font-size="10.00">&#45;Type/R&#45;Type/Shared</text>
<text text-anchor="middle" x="330.17" y="-282" font-family="Helvetica,sans-Serif" font-size="10.00">/systems/LevelSystem.cpp</text>
</a>
</g>
</g>
<!-- Node2 -->
<g id="Node000002" class="node">
<title>Node2</title>
<g id="a_Node000002"><a xlink:href="LevelSystem_8hpp.html" target="_top" xlink:title=" ">
<polygon fill="white" stroke="#666666" points="352.67,-239 207.67,-239 207.67,-220 352.67,-220 352.67,-239"/>
<text text-anchor="middle" x="280.17" y="-227" font-family="Helvetica,sans-Serif" font-size="10.00">systems/LevelSystem.hpp</text>
</a>
</g>
</g>
<!-- Node1&#45;&gt;Node2 -->
<g id="edge1_Node000001_Node000002" class="edge">
<title>Node1&#45;&gt;Node2</title>
<g id="a_edge1_Node000001_Node000002"><a xlink:title=" ">
<path fill="none" stroke="#63b8ff" d="M314.9,-274.95C307.99,-266.11 299.91,-255.77 293.29,-247.29"/>
<polygon fill="#63b8ff" stroke="#63b8ff" points="295.93,-244.99 287.01,-239.26 290.41,-249.3 295.93,-244.99"/>
</a>
</g>
</g>
<!-- Node3 -->
<g id="Node000003" class="node">
<title>Node3</title>
<g id="a_Node000003"><a xlink:title=" ">
<polygon fill="#e0e0e0" stroke="#999999" points="776.67,-129 729.67,-129 729.67,-110 776.67,-110 776.67,-129"/>
<text text-anchor="middle" x="753.17" y="-117" font-family="Helvetica,sans-Serif" font-size="10.00">vector</text>
</a>
</g>
</g>
<!-- Node1&#45;&gt;Node3 -->
<g id="edge14_Node000001_Node000003" class="edge">
<title>Node1&#45;&gt;Node3</title>
<g id="a_edge14_Node000001_Node000003"><a xlink:title=" ">
<path fill="none" stroke="#63b8ff" d="M342.29,-274.77C348.53,-264.3 356.08,-251.12 362.17,-239 378.26,-206.98 365.49,-186.48 394.17,-165 419.96,-145.68 635.11,-128.74 719.45,-122.78"/>
<polygon fill="#63b8ff" stroke="#63b8ff" points="719.79,-126.26 729.52,-122.07 719.3,-119.28 719.79,-126.26"/>
</a>
</g>
</g>
<!-- Node4 -->
<g id="Node000004" class="node">
<title>Node4</title>
<g id="a_Node000004"><a xlink:href="Levels_8hpp.html" target="_top" xlink:title=" ">
<polygon fill="white" stroke="#666666" points="157.17,-184 25.17,-184 25.17,-165 157.17,-165 157.17,-184"/>
<text text-anchor="middle" x="91.17" y="-172" font-family="Helvetica,sans-Serif" font-size="10.00">components/Levels.hpp</text>
</a>
</g>
</g>
<!-- Node1&#45;&gt;Node4 -->
<g id="edge53_Node000001_Node000004" class="edge">
<title>Node1&#45;&gt;Node4</title>
<g id="a_edge53_Node000001_Node000004"><a xlink:title=" ">
<path fill="none" stroke="#63b8ff" d="M256.53,-276.35C227.04,-267.41 193.42,-255.05 165.17,-239 142.53,-226.13 120.38,-205.8 106.31,-191.63"/>
<polygon fill="#63b8ff" stroke="#63b8ff" points="108.48,-188.84 99.01,-184.09 103.45,-193.71 108.48,-188.84"/>
</a>
</g>
</g>
<!-- Node6 -->
<g id="Node000006" class="node">
<title>Node6</title>
<g id="a_Node000006"><a xlink:href="Boss_8hpp.html" target="_top" xlink:title=" ">
<polygon fill="white" stroke="#666666" points="616.67,-129 521.67,-129 521.67,-110 616.67,-110 616.67,-129"/>
<text text-anchor="middle" x="569.17" y="-117" font-family="Helvetica,sans-Serif" font-size="10.00">Player/Boss.hpp</text>
</a>
</g>
</g>
<!-- Node1&#45;&gt;Node6 -->
<g id="edge52_Node000001_Node000006" class="edge">
<title>Node1&#45;&gt;Node6</title>
<g id="a_edge52_Node000001_Node000006"><a xlink:title=" ">
<path fill="none" stroke="#63b8ff" d="M256.65,-279.98C234.41,-271.78 212.4,-258.97 199.17,-239 180.68,-211.08 220.01,-173.49 233.17,-165 283.35,-132.64 435.7,-137.11 511.43,-128.91"/>
<polygon fill="#63b8ff" stroke="#63b8ff" points="512.1,-132.36 521.6,-127.67 511.24,-125.41 512.1,-132.36"/>
</a>
</g>
</g>
<!-- Node9 -->
<g id="Node000009" class="node">
<title>Node9</title>
<g id="a_Node000009"><a xlink:href="Enemy_8hpp.html" target="_top" xlink:title=" ">
<polygon fill="white" stroke="#666666" points="503.17,-129 399.17,-129 399.17,-110 503.17,-110 503.17,-129"/>
<text text-anchor="middle" x="451.17" y="-117" font-family="Helvetica,sans-Serif" font-size="10.00">Player/Enemy.hpp</text>
</a>
</g>
</g>
<!-- Node1&#45;&gt;Node9 -->
<g id="edge54_Node000001_Node000009" class="edge">
<title>Node1&#45;&gt;Node9</title>
<g id="a_edge54_Node000001_Node000009"><a xlink:title=" ">
<path fill="none" stroke="#63b8ff" d="M256.55,-289.05C142.27,-277.97 -57.43,-246.52 16.17,-165 40.68,-137.86 274.73,-126.36 389,-122.34"/>
<polygon fill="#63b8ff" stroke="#63b8ff" points="389.14,-125.84 399.01,-121.99 388.9,-118.84 389.14,-125.84"/>
</a>
</g>
</g>
<!-- Node11 -->
<g id="Node000011" class="node">
<title>Node11</title>
<g id="a_Node000011"><a xlink:title=" ">
<polygon fill="#e0e0e0" stroke="#999999" points="463.17,-184 403.17,-184 403.17,-165 463.17,-165 463.17,-184"/>
<text text-anchor="middle" x="433.17" y="-172" font-family="Helvetica,sans-Serif" font-size="10.00">iostream</text>
</a>
</g>
</g>
<!-- Node1&#45;&gt;Node11 -->
<g id="edge13_Node000001_Node000011" class="edge">
<title>Node1&#45;&gt;Node11</title>
<g id="a_edge13_Node000001_Node000011"><a xlink:title=" ">
<path fill="none" stroke="#63b8ff" d="M356.94,-274.91C369.42,-264.99 383.96,-252.26 395.17,-239 407.07,-224.93 417.56,-206.69 424.49,-193.37"/>
<polygon fill="#63b8ff" stroke="#63b8ff" points="427.69,-194.8 429.06,-184.3 421.44,-191.65 427.69,-194.8"/>
</a>
</g>
</g>
<!-- Node12 -->
<g id="Node000012" class="node">
<title>Node12</title>
<g id="a_Node000012"><a xlink:href="EntityHelper_8hpp.html" target="_top" xlink:title=" ">
<polygon fill="white" stroke="#666666" points="1014.17,-239 876.17,-239 876.17,-220 1014.17,-220 1014.17,-239"/>
<text text-anchor="middle" x="945.17" y="-227" font-family="Helvetica,sans-Serif" font-size="10.00">Helpers/EntityHelper.hpp</text>
</a>
</g>
</g>
<!-- Node1&#45;&gt;Node12 -->
<g id="edge15_Node000001_Node000012" class="edge">
<title>Node1&#45;&gt;Node12</title>
<g id="a_edge15_Node000001_Node000012"><a xlink:title=" ">
<path fill="none" stroke="#63b8ff" d="M403.74,-286.84C520.07,-274.74 745.56,-251.27 865.55,-238.79"/>
<polygon fill="#63b8ff" stroke="#63b8ff" points="866.19,-242.24 875.77,-237.72 865.46,-235.28 866.19,-242.24"/>
</a>
</g>
</g>
<!-- Node29 -->
<g id="Node000029" class="node">
<title>Node29</title>
<g id="a_Node000029"><a xlink:title=" ">
<polygon fill="#e0e0e0" stroke="#999999" points="1120.17,-239 1032.17,-239 1032.17,-220 1120.17,-220 1120.17,-239"/>
<text text-anchor="middle" x="1076.17" y="-227" font-family="Helvetica,sans-Serif" font-size="10.00">ecs/Zipper.hpp</text>
</a>
</g>
</g>
<!-- Node1&#45;&gt;Node29 -->
<g id="edge55_Node000001_Node000029" class="edge">
<title>Node1&#45;&gt;Node29</title>
<g id="a_edge55_Node000001_Node000029"><a xlink:title=" ">
<path fill="none" stroke="#63b8ff" d="M403.7,-290.53C528.66,-283.36 790.62,-266.5 1022.01,-239.05"/>
<polygon fill="#63b8ff" stroke="#63b8ff" points="1022.45,-242.52 1031.96,-237.86 1021.62,-235.57 1022.45,-242.52"/>
</a>
</g>
</g>
<!-- Node2&#45;&gt;Node3 -->
<g id="edge2_Node000002_Node000003" class="edge">
<title>Node2&#45;&gt;Node3</title>
<g id="a_edge2_Node000002_Node000003"><a xlink:title=" ">
<path fill="none" stroke="#63b8ff" d="M268.52,-219.97C252.24,-207.06 226.37,-182.24 242.17,-165 250.28,-156.16 607,-130.66 719.53,-122.82"/>
<polygon fill="#63b8ff" stroke="#63b8ff" points="719.91,-126.3 729.64,-122.12 719.42,-119.32 719.91,-126.3"/>
</a>
</g>
</g>
<!-- Node2&#45;&gt;Node4 -->
<g id="edge3_Node000002_Node000004" class="edge">
<title>Node2&#45;&gt;Node4</title>
<g id="a_edge3_Node000002_Node000004"><a xlink:title=" ">
<path fill="none" stroke="#63b8ff" d="M249.8,-219.98C217.8,-211.01 167.21,-196.82 131.79,-186.89"/>
<polygon fill="#63b8ff" stroke="#63b8ff" points="132.35,-183.41 121.77,-184.08 130.46,-190.15 132.35,-183.41"/>
</a>
</g>
</g>
<!-- Node10 -->
<g id="Node000010" class="node">
<title>Node10</title>
<g id="a_Node000010"><a xlink:title=" ">
<polygon fill="#e0e0e0" stroke="#999999" points="347.17,-184 251.17,-184 251.17,-165 347.17,-165 347.17,-184"/>
<text text-anchor="middle" x="299.17" y="-172" font-family="Helvetica,sans-Serif" font-size="10.00">ecs/Registry.hpp</text>
</a>
</g>
</g>
<!-- Node2&#45;&gt;Node10 -->
<g id="edge12_Node000002_Node000010" class="edge">
<title>Node2&#45;&gt;Node10</title>
<g id="a_edge12_Node000002_Node000010"><a xlink:title=" ">
<path fill="none" stroke="#63b8ff" d="M283.31,-219.75C285.85,-212.65 289.53,-202.4 292.7,-193.56"/>
<polygon fill="#63b8ff" stroke="#63b8ff" points="296.01,-194.68 296.09,-184.09 289.42,-192.32 296.01,-194.68"/>
</a>
</g>
</g>
<!-- Node4&#45;&gt;Node3 -->
<g id="edge5_Node000004_Node000003" class="edge">
<title>Node4&#45;&gt;Node3</title>
<g id="a_edge5_Node000004_Node000003"><a xlink:title=" ">
<path fill="none" stroke="#63b8ff" d="M157.37,-168.2C296.51,-157.06 615.05,-131.56 719.4,-123.2"/>
<polygon fill="#63b8ff" stroke="#63b8ff" points="719.68,-126.69 729.37,-122.41 719.12,-119.71 719.68,-126.69"/>
</a>
</g>
</g>
<!-- Node5 -->
<g id="Node000005" class="node">
<title>Node5</title>
<g id="a_Node000005"><a xlink:title=" ">
<polygon fill="#e0e0e0" stroke="#999999" points="119.17,-129 63.17,-129 63.17,-110 119.17,-110 119.17,-129"/>
<text text-anchor="middle" x="91.17" y="-117" font-family="Helvetica,sans-Serif" font-size="10.00">optional</text>
</a>
</g>
</g>
<!-- Node4&#45;&gt;Node5 -->
<g id="edge4_Node000004_Node000005" class="edge">
<title>Node4&#45;&gt;Node5</title>
<g id="a_edge4_Node000004_Node000005"><a xlink:title=" ">
<path fill="none" stroke="#63b8ff" d="M91.17,-164.75C91.17,-157.8 91.17,-147.85 91.17,-139.13"/>
<polygon fill="#63b8ff" stroke="#63b8ff" points="94.67,-139.09 91.17,-129.09 87.67,-139.09 94.67,-139.09"/>
</a>
</g>
</g>
<!-- Node4&#45;&gt;Node6 -->
<g id="edge6_Node000004_Node000006" class="edge">
<title>Node4&#45;&gt;Node6</title>
<g id="a_edge6_Node000004_Node000006"><a xlink:title=" ">
<path fill="none" stroke="#63b8ff" d="M157.52,-166.45C162.14,-165.96 166.73,-165.47 171.17,-165 319.46,-149.29 359.3,-148.28 511.42,-129.04"/>
<polygon fill="#63b8ff" stroke="#63b8ff" points="512.13,-132.48 521.61,-127.75 511.24,-125.54 512.13,-132.48"/>
</a>
</g>
</g>
<!-- Node7 -->
<g id="Node000007" class="node">
<title>Node7</title>
<g id="a_Node000007"><a xlink:title=" ">
<polygon fill="#e0e0e0" stroke="#999999" points="1200.17,-19 1072.17,-19 1072.17,0 1200.17,0 1200.17,-19"/>
<text text-anchor="middle" x="1136.17" y="-7" font-family="Helvetica,sans-Serif" font-size="10.00">physics/Physics2D.hpp</text>
</a>
</g>
</g>
<!-- Node4&#45;&gt;Node7 -->
<g id="edge11_Node000004_Node000007" class="edge">
<title>Node4&#45;&gt;Node7</title>
<g id="a_edge11_Node000004_Node000007"><a xlink:title=" ">
<path fill="none" stroke="#63b8ff" d="M129.32,-164.97C186.07,-152.37 296.15,-128.32 390.17,-110 527.52,-83.24 561.58,-74.34 700.17,-55 826.84,-37.32 975.14,-23.67 1062.06,-16.38"/>
<polygon fill="#63b8ff" stroke="#63b8ff" points="1062.41,-19.87 1072.09,-15.55 1061.83,-12.89 1062.41,-19.87"/>
</a>
</g>
</g>
<!-- Node4&#45;&gt;Node9 -->
<g id="edge9_Node000004_Node000009" class="edge">
<title>Node4&#45;&gt;Node9</title>
<g id="a_edge9_Node000004_Node000009"><a xlink:title=" ">
<path fill="none" stroke="#63b8ff" d="M149.01,-164.98C214.71,-155.31 321.51,-139.59 388.96,-129.66"/>
<polygon fill="#63b8ff" stroke="#63b8ff" points="389.65,-133.1 399.03,-128.18 388.63,-126.17 389.65,-133.1"/>
</a>
</g>
</g>
<!-- Node6&#45;&gt;Node7 -->
<g id="edge7_Node000006_Node000007" class="edge">
<title>Node6&#45;&gt;Node7</title>
<g id="a_edge7_Node000006_Node000007"><a xlink:title=" ">
<path fill="none" stroke="#63b8ff" d="M614.14,-109.94C717.01,-90.34 969.22,-42.3 1081.14,-20.98"/>
<polygon fill="#63b8ff" stroke="#63b8ff" points="1082.03,-24.38 1091.2,-19.07 1080.72,-17.5 1082.03,-24.38"/>
</a>
</g>
</g>
<!-- Node8 -->
<g id="Node000008" class="node">
<title>Node8</title>
<g id="a_Node000008"><a xlink:title=" ">
<polygon fill="#e0e0e0" stroke="#999999" points="1417.17,-74 1333.17,-74 1333.17,-55 1417.17,-55 1417.17,-74"/>
<text text-anchor="middle" x="1375.17" y="-62" font-family="Helvetica,sans-Serif" font-size="10.00">ecs/Entity.hpp</text>
</a>
</g>
</g>
<!-- Node6&#45;&gt;Node8 -->
<g id="edge8_Node000006_Node000008" class="edge">
<title>Node6&#45;&gt;Node8</title>
<g id="a_edge8_Node000006_Node000008"><a xlink:title=" ">
<path fill="none" stroke="#63b8ff" d="M616.88,-115.36C758.39,-106.06 1175.11,-78.66 1322.66,-68.95"/>
<polygon fill="#63b8ff" stroke="#63b8ff" points="1323.06,-72.43 1332.81,-68.29 1322.6,-65.45 1323.06,-72.43"/>
</a>
</g>
</g>
<!-- Node9&#45;&gt;Node7 -->
<g id="edge10_Node000009_Node000007" class="edge">
<title>Node9&#45;&gt;Node7</title>
<g id="a_edge10_Node000009_Node000007"><a xlink:title=" ">
<path fill="none" stroke="#63b8ff" d="M496.93,-109.95C565.67,-97.24 699.76,-72.91 814.17,-55 898.85,-41.75 996.39,-28.56 1061.72,-20.02"/>
<polygon fill="#63b8ff" stroke="#63b8ff" points="1062.46,-23.45 1071.92,-18.69 1061.55,-16.51 1062.46,-23.45"/>
</a>
</g>
</g>
<!-- Node12&#45;&gt;Node3 -->
<g id="edge19_Node000012_Node000003" class="edge">
<title>Node12&#45;&gt;Node3</title>
<g id="a_edge19_Node000012_Node000003"><a xlink:title=" ">
<path fill="none" stroke="#63b8ff" d="M929.78,-219.84C896.42,-201.08 817.21,-156.52 777.19,-134.01"/>
<polygon fill="#63b8ff" stroke="#63b8ff" points="778.8,-130.9 768.37,-129.05 775.36,-137 778.8,-130.9"/>
</a>
</g>
</g>
<!-- Node12&#45;&gt;Node4 -->
<g id="edge42_Node000012_Node000004" class="edge">
<title>Node12&#45;&gt;Node4</title>
<g id="a_edge42_Node000012_Node000004"><a xlink:title=" ">
<path fill="none" stroke="#63b8ff" d="M876.01,-224.21C718.1,-214.41 332.02,-190.45 167.47,-180.24"/>
<polygon fill="#63b8ff" stroke="#63b8ff" points="167.63,-176.74 157.43,-179.61 167.19,-183.72 167.63,-176.74"/>
</a>
</g>
</g>
<!-- Node12&#45;&gt;Node6 -->
<g id="edge21_Node000012_Node000006" class="edge">
<title>Node12&#45;&gt;Node6</title>
<g id="a_edge21_Node000012_Node000006"><a xlink:title=" ">
<path fill="none" stroke="#63b8ff" d="M876.04,-225.66C768.34,-220.51 570.52,-207.89 549.17,-184 537.67,-171.13 546.39,-151.68 555.65,-137.69"/>
<polygon fill="#63b8ff" stroke="#63b8ff" points="558.61,-139.58 561.61,-129.42 552.92,-135.49 558.61,-139.58"/>
</a>
</g>
</g>
<!-- Node12&#45;&gt;Node7 -->
<g id="edge49_Node000012_Node000007" class="edge">
<title>Node12&#45;&gt;Node7</title>
<g id="a_edge49_Node000012_Node000007"><a xlink:title=" ">
<path fill="none" stroke="#63b8ff" d="M1014.47,-220.74C1017.41,-220.48 1020.32,-220.23 1023.17,-220 1328.82,-195.38 1413.64,-254.04 1712.17,-184 1772.05,-169.95 1797.36,-174.12 1839.17,-129 1856.75,-110.03 1853.89,-99.51 1858.17,-74 1859.57,-65.67 1863.96,-61.15 1858.17,-55 1836.23,-31.66 1390.61,-17.26 1210.62,-12.37"/>
<polygon fill="#63b8ff" stroke="#63b8ff" points="1210.53,-8.87 1200.44,-12.1 1210.34,-15.87 1210.53,-8.87"/>
</a>
</g>
</g>
<!-- Node12&#45;&gt;Node9 -->
<g id="edge22_Node000012_Node000009" class="edge">
<title>Node12&#45;&gt;Node9</title>
<g id="a_edge22_Node000012_Node000009"><a xlink:title=" ">
<path fill="none" stroke="#63b8ff" d="M876.06,-225.19C776.73,-219.71 598.98,-207 539.17,-184 511.32,-173.29 484.24,-151.52 467.65,-136.48"/>
<polygon fill="#63b8ff" stroke="#63b8ff" points="469.67,-133.59 459.97,-129.33 464.9,-138.71 469.67,-133.59"/>
</a>
</g>
</g>
<!-- Node12&#45;&gt;Node10 -->
<g id="edge47_Node000012_Node000010" class="edge">
<title>Node12&#45;&gt;Node10</title>
<g id="a_edge47_Node000012_Node000010"><a xlink:title=" ">
<path fill="none" stroke="#63b8ff" d="M876,-223.11C771.59,-214.92 567.49,-198.75 394.17,-184 382.31,-182.99 369.62,-181.88 357.51,-180.8"/>
<polygon fill="#63b8ff" stroke="#63b8ff" points="357.76,-177.31 347.49,-179.9 357.14,-184.28 357.76,-177.31"/>
</a>
</g>
</g>
<!-- Node12&#45;&gt;Node11 -->
<g id="edge16_Node000012_Node000011" class="edge">
<title>Node12&#45;&gt;Node11</title>
<g id="a_edge16_Node000012_Node000011"><a xlink:title=" ">
<path fill="none" stroke="#63b8ff" d="M875.94,-224C784.38,-217.58 618.14,-204.27 477.17,-184 475.91,-183.82 474.64,-183.63 473.35,-183.43"/>
<polygon fill="#63b8ff" stroke="#63b8ff" points="473.85,-179.96 463.4,-181.74 472.68,-186.86 473.85,-179.96"/>
</a>
</g>
</g>
<!-- Node13 -->
<g id="Node000013" class="node">
<title>Node13</title>
<g id="a_Node000013"><a xlink:title=" ">
<polygon fill="#e0e0e0" stroke="#999999" points="1076.17,-184 1032.17,-184 1032.17,-165 1076.17,-165 1076.17,-184"/>
<text text-anchor="middle" x="1054.17" y="-172" font-family="Helvetica,sans-Serif" font-size="10.00">string</text>
</a>
</g>
</g>
<!-- Node12&#45;&gt;Node13 -->
<g id="edge17_Node000012_Node000013" class="edge">
<title>Node12&#45;&gt;Node13</title>
<g id="a_edge17_Node000012_Node000013"><a xlink:title=" ">
<path fill="none" stroke="#63b8ff" d="M962.68,-219.98C980.14,-211.5 1007.18,-198.35 1027.34,-188.54"/>
<polygon fill="#63b8ff" stroke="#63b8ff" points="1028.88,-191.69 1036.34,-184.17 1025.82,-185.4 1028.88,-191.69"/>
</a>
</g>
</g>
<!-- Node14 -->
<g id="Node000014" class="node">
<title>Node14</title>
<g id="a_Node000014"><a xlink:title=" ">
<polygon fill="#e0e0e0" stroke="#999999" points="962.67,-129 917.67,-129 917.67,-110 962.67,-110 962.67,-129"/>
<text text-anchor="middle" x="940.17" y="-117" font-family="Helvetica,sans-Serif" font-size="10.00">utility</text>
</a>
</g>
</g>
<!-- Node12&#45;&gt;Node14 -->
<g id="edge18_Node000012_Node000014" class="edge">
<title>Node12&#45;&gt;Node14</title>
<g id="a_edge18_Node000012_Node000014"><a xlink:title=" ">
<path fill="none" stroke="#63b8ff" d="M1014.25,-220.75C1102.11,-210.57 1243.45,-192.92 1251.17,-184 1256.7,-177.61 1256.75,-171.34 1251.17,-165 1211.75,-120.16 1049.09,-139.13 972.96,-128.6"/>
<polygon fill="#63b8ff" stroke="#63b8ff" points="973.25,-125.1 962.81,-126.91 972.1,-132 973.25,-125.1"/>
</a>
</g>
</g>
<!-- Node15 -->
<g id="Node000015" class="node">
<title>Node15</title>
<g id="a_Node000015"><a xlink:href="Items_8hpp.html" target="_top" xlink:title=" ">
<polygon fill="white" stroke="#666666" points="1242.17,-184 1132.17,-184 1132.17,-165 1242.17,-165 1242.17,-184"/>
<text text-anchor="middle" x="1187.17" y="-172" font-family="Helvetica,sans-Serif" font-size="10.00">Collision/Items.hpp</text>
</a>
</g>
</g>
<!-- Node12&#45;&gt;Node15 -->
<g id="edge20_Node000012_Node000015" class="edge">
<title>Node12&#45;&gt;Node15</title>
<g id="a_edge20_Node000012_Node000015"><a xlink:title=" ">
<path fill="none" stroke="#63b8ff" d="M984.05,-219.98C1025.91,-210.82 1092.6,-196.21 1138.06,-186.26"/>
<polygon fill="#63b8ff" stroke="#63b8ff" points="1138.96,-189.64 1147.98,-184.08 1137.47,-182.8 1138.96,-189.64"/>
</a>
</g>
</g>
<!-- Node16 -->
<g id="Node000016" class="node">
<title>Node16</title>
<g id="a_Node000016"><a xlink:href="EnemySpawn_8hpp.html" target="_top" xlink:title=" ">
<polygon fill="white" stroke="#666666" points="1013.67,-184 876.67,-184 876.67,-165 1013.67,-165 1013.67,-184"/>
<text text-anchor="middle" x="945.17" y="-172" font-family="Helvetica,sans-Serif" font-size="10.00">Player/EnemySpawn.hpp</text>
</a>
</g>
</g>
<!-- Node12&#45;&gt;Node16 -->
<g id="edge23_Node000012_Node000016" class="edge">
<title>Node12&#45;&gt;Node16</title>
<g id="a_edge23_Node000012_Node000016"><a xlink:title=" ">
<path fill="none" stroke="#63b8ff" d="M945.17,-219.75C945.17,-212.8 945.17,-202.85 945.17,-194.13"/>
<polygon fill="#63b8ff" stroke="#63b8ff" points="948.67,-194.09 945.17,-184.09 941.67,-194.09 948.67,-194.09"/>
</a>
</g>
</g>
<!-- Node17 -->
<g id="Node000017" class="node">
<title>Node17</title>
<g id="a_Node000017"><a xlink:href="PlayerEntity_8hpp.html" target="_top" xlink:title=" ">
<polygon fill="white" stroke="#666666" points="1585.67,-184 1456.67,-184 1456.67,-165 1585.67,-165 1585.67,-184"/>
<text text-anchor="middle" x="1521.17" y="-172" font-family="Helvetica,sans-Serif" font-size="10.00">Player/PlayerEntity.hpp</text>
</a>
</g>
</g>
<!-- Node12&#45;&gt;Node17 -->
<g id="edge27_Node000012_Node000017" class="edge">
<title>Node12&#45;&gt;Node17</title>
<g id="a_edge27_Node000012_Node000017"><a xlink:title=" ">
<path fill="none" stroke="#63b8ff" d="M1014.48,-220.86C1017.42,-220.56 1020.32,-220.28 1023.17,-220 1208.19,-202.07 1257.32,-202.76 1446.61,-184.03"/>
<polygon fill="#63b8ff" stroke="#63b8ff" points="1447,-187.5 1456.61,-183.03 1446.31,-180.54 1447,-187.5"/>
</a>
</g>
</g>
<!-- Node21 -->
<g id="Node000021" class="node">
<title>Node21</title>
<g id="a_Node000021"><a xlink:href="Projectile_8hpp.html" target="_top" xlink:title=" ">
<polygon fill="white" stroke="#666666" points="1849.17,-74 1669.17,-74 1669.17,-55 1849.17,-55 1849.17,-74"/>
<text text-anchor="middle" x="1759.17" y="-62" font-family="Helvetica,sans-Serif" font-size="10.00">components/Player/Projectile.hpp</text>
</a>
</g>
</g>
<!-- Node12&#45;&gt;Node21 -->
<g id="edge35_Node000012_Node000021" class="edge">
<title>Node12&#45;&gt;Node21</title>
<g id="a_edge35_Node000012_Node000021"><a xlink:title=" ">
<path fill="none" stroke="#63b8ff" d="M1014.48,-220.77C1017.41,-220.5 1020.32,-220.24 1023.17,-220 1285.82,-197.72 1354.92,-225.9 1615.17,-184 1709.58,-168.8 1764.84,-204.77 1823.17,-129 1837.92,-109.84 1811.56,-90.68 1788.34,-78.5"/>
<polygon fill="#63b8ff" stroke="#63b8ff" points="1789.87,-75.35 1779.36,-74.03 1786.75,-81.62 1789.87,-75.35"/>
</a>
</g>
</g>
<!-- Node22 -->
<g id="Node000022" class="node">
<title>Node22</title>
<g id="a_Node000022"><a xlink:href="BossPart_8hpp.html" target="_top" xlink:title=" ">
<polygon fill="white" stroke="#666666" points="1685.67,-129 1542.67,-129 1542.67,-110 1685.67,-110 1685.67,-129"/>
<text text-anchor="middle" x="1614.17" y="-117" font-family="Helvetica,sans-Serif" font-size="10.00">components/BossPart.hpp</text>
</a>
</g>
</g>
<!-- Node12&#45;&gt;Node22 -->
<g id="edge36_Node000012_Node000022" class="edge">
<title>Node12&#45;&gt;Node22</title>
<g id="a_edge36_Node000012_Node000022"><a xlink:title=" ">
<path fill="none" stroke="#63b8ff" d="M1014.48,-220.78C1017.41,-220.51 1020.32,-220.24 1023.17,-220 1086.62,-214.55 1545.31,-223.62 1595.17,-184 1608.39,-173.49 1612.7,-154.16 1613.97,-139.58"/>
<polygon fill="#63b8ff" stroke="#63b8ff" points="1617.48,-139.31 1614.44,-129.16 1610.49,-138.99 1617.48,-139.31"/>
</a>
</g>
</g>
<!-- Node23 -->
<g id="Node000023" class="node">
<title>Node23</title>
<g id="a_Node000023"><a xlink:href="Force_8hpp.html" target="_top" xlink:title=" ">
<polygon fill="white" stroke="#666666" points="1107.67,-129 980.67,-129 980.67,-110 1107.67,-110 1107.67,-129"/>
<text text-anchor="middle" x="1044.17" y="-117" font-family="Helvetica,sans-Serif" font-size="10.00">components/Force.hpp</text>
</a>
</g>
</g>
<!-- Node12&#45;&gt;Node23 -->
<g id="edge39_Node000012_Node000023" class="edge">
<title>Node12&#45;&gt;Node23</title>
<g id="a_edge39_Node000012_Node000023"><a xlink:title=" ">
<path fill="none" stroke="#63b8ff" d="M991.13,-219.95C1027.45,-212.15 1073.84,-199.49 1085.17,-184 1096.98,-167.86 1080.19,-148.42 1064.67,-135.34"/>
<polygon fill="#63b8ff" stroke="#63b8ff" points="1066.84,-132.6 1056.83,-129.13 1062.5,-138.09 1066.84,-132.6"/>
</a>
</g>
</g>
<!-- Node24 -->
<g id="Node000024" class="node">
<title>Node24</title>
<g id="a_Node000024"><a xlink:href="TileMap_8hpp.html" target="_top" xlink:title=" ">
<polygon fill="white" stroke="#666666" points="1438.17,-184 1298.17,-184 1298.17,-165 1438.17,-165 1438.17,-184"/>
<text text-anchor="middle" x="1368.17" y="-172" font-family="Helvetica,sans-Serif" font-size="10.00">components/TileMap.hpp</text>
</a>
</g>
</g>
<!-- Node12&#45;&gt;Node24 -->
<g id="edge43_Node000012_Node000024" class="edge">
<title>Node12&#45;&gt;Node24</title>
<g id="a_edge43_Node000012_Node000024"><a xlink:title=" ">
<path fill="none" stroke="#63b8ff" d="M1013.13,-219.98C1088.72,-210.51 1210.62,-195.24 1290.07,-185.29"/>
<polygon fill="#63b8ff" stroke="#63b8ff" points="1290.54,-188.75 1300.03,-184.04 1289.67,-181.81 1290.54,-188.75"/>
</a>
</g>
</g>
<!-- Node26 -->
<g id="Node000026" class="node">
<title>Node26</title>
<g id="a_Node000026"><a xlink:title=" ">
<polygon fill="#e0e0e0" stroke="#999999" points="2052.17,-184 1908.17,-184 1908.17,-165 2052.17,-165 2052.17,-184"/>
<text text-anchor="middle" x="1980.17" y="-172" font-family="Helvetica,sans-Serif" font-size="10.00">input/InputSubsystem.hpp</text>
</a>
</g>
</g>
<!-- Node12&#45;&gt;Node26 -->
<g id="edge48_Node000012_Node000026" class="edge">
<title>Node12&#45;&gt;Node26</title>
<g id="a_edge48_Node000012_Node000026"><a xlink:title=" ">
<path fill="none" stroke="#63b8ff" d="M1014.47,-220.7C1017.41,-220.45 1020.32,-220.21 1023.17,-220 1409.53,-191 1507.68,-211.07 1894.17,-184 1895.29,-183.92 1896.42,-183.84 1897.56,-183.76"/>
<polygon fill="#63b8ff" stroke="#63b8ff" points="1898.24,-187.21 1907.93,-182.94 1897.69,-180.24 1898.24,-187.21"/>
</a>
</g>
</g>
<!-- Node27 -->
<g id="Node000027" class="node">
<title>Node27</title>
<g id="a_Node000027"><a xlink:title=" ">
<polygon fill="#e0e0e0" stroke="#999999" points="748.67,-184 557.67,-184 557.67,-165 748.67,-165 748.67,-184"/>
<text text-anchor="middle" x="653.17" y="-172" font-family="Helvetica,sans-Serif" font-size="10.00">rendering/RenderingSubsystem.hpp</text>
</a>
</g>
</g>
<!-- Node12&#45;&gt;Node27 -->
<g id="edge50_Node000012_Node000027" class="edge">
<title>Node12&#45;&gt;Node27</title>
<g id="a_edge50_Node000012_Node000027"><a xlink:title=" ">
<path fill="none" stroke="#63b8ff" d="M898.26,-219.98C847.11,-210.7 765.25,-195.84 710.37,-185.88"/>
<polygon fill="#63b8ff" stroke="#63b8ff" points="710.92,-182.42 700.45,-184.08 709.67,-189.31 710.92,-182.42"/>
</a>
</g>
</g>
<!-- Node28 -->
<g id="Node000028" class="node">
<title>Node28</title>
<g id="a_Node000028"><a xlink:title=" ">
<polygon fill="#e0e0e0" stroke="#999999" points="819.67,-184 766.67,-184 766.67,-165 819.67,-165 819.67,-184"/>
<text text-anchor="middle" x="793.17" y="-172" font-family="Helvetica,sans-Serif" font-size="10.00">stdlib.h</text>
</a>
</g>
</g>
<!-- Node12&#45;&gt;Node28 -->
<g id="edge51_Node000012_Node000028" class="edge">
<title>Node12&#45;&gt;Node28</title>
<g id="a_edge51_Node000012_Node000028"><a xlink:title=" ">
<path fill="none" stroke="#63b8ff" d="M920.75,-219.98C895.45,-211.16 855.72,-197.31 827.31,-187.41"/>
<polygon fill="#63b8ff" stroke="#63b8ff" points="828.38,-184.07 817.78,-184.08 826.07,-190.68 828.38,-184.07"/>
</a>
</g>
</g>
<!-- Node16&#45;&gt;Node3 -->
<g id="edge25_Node000016_Node000003" class="edge">
<title>Node16&#45;&gt;Node3</title>
<g id="a_edge25_Node000016_Node000003"><a xlink:title=" ">
<path fill="none" stroke="#63b8ff" d="M914.32,-164.98C879.4,-155.34 822.69,-139.69 786.69,-129.75"/>
<polygon fill="#63b8ff" stroke="#63b8ff" points="787.25,-126.28 776.68,-126.99 785.39,-133.02 787.25,-126.28"/>
</a>
</g>
</g>
<!-- Node16&#45;&gt;Node9 -->
<g id="edge26_Node000016_Node000009" class="edge">
<title>Node16&#45;&gt;Node9</title>
<g id="a_edge26_Node000016_Node000009"><a xlink:title=" ">
<path fill="none" stroke="#63b8ff" d="M876.63,-167.16C793.45,-159.3 648.65,-145.1 513.39,-128.98"/>
<polygon fill="#63b8ff" stroke="#63b8ff" points="513.59,-125.48 503.25,-127.77 512.76,-132.43 513.59,-125.48"/>
</a>
</g>
</g>
<!-- Node16&#45;&gt;Node14 -->
<g id="edge24_Node000016_Node000014" class="edge">
<title>Node16&#45;&gt;Node14</title>
<g id="a_edge24_Node000016_Node000014"><a xlink:title=" ">
<path fill="none" stroke="#63b8ff" d="M944.35,-164.75C943.69,-157.8 942.75,-147.85 941.93,-139.13"/>
<polygon fill="#63b8ff" stroke="#63b8ff" points="945.4,-138.72 940.98,-129.09 938.44,-139.37 945.4,-138.72"/>
</a>
</g>
</g>
<!-- Node17&#45;&gt;Node7 -->
<g id="edge34_Node000017_Node000007" class="edge">
<title>Node17&#45;&gt;Node7</title>
<g id="a_edge34_Node000017_Node000007"><a xlink:title=" ">
<path fill="none" stroke="#63b8ff" d="M1460.32,-164.98C1389.13,-154.72 1278.7,-137.78 1261.17,-129 1211.9,-104.33 1168.79,-53.78 1148.51,-27.39"/>
<polygon fill="#63b8ff" stroke="#63b8ff" points="1151.11,-25.03 1142.31,-19.14 1145.52,-29.24 1151.11,-25.03"/>
</a>
</g>
</g>
<!-- Node18 -->
<g id="Node000018" class="node">
<title>Node18</title>
<g id="a_Node000018"><a xlink:title=" ">
<polygon fill="#e0e0e0" stroke="#999999" points="1334.17,-129 1270.17,-129 1270.17,-110 1334.17,-110 1334.17,-129"/>
<text text-anchor="middle" x="1302.17" y="-117" font-family="Helvetica,sans-Serif" font-size="10.00">algorithm</text>
</a>
</g>
</g>
<!-- Node17&#45;&gt;Node18 -->
<g id="edge28_Node000017_Node000018" class="edge">
<title>Node17&#45;&gt;Node18</title>
<g id="a_edge28_Node000017_Node000018"><a xlink:title=" ">
<path fill="none" stroke="#63b8ff" d="M1485.98,-164.98C1447.34,-155.63 1385.3,-140.62 1344.14,-130.66"/>
<polygon fill="#63b8ff" stroke="#63b8ff" points="1344.96,-127.25 1334.41,-128.3 1343.31,-134.06 1344.96,-127.25"/>
</a>
</g>
</g>
<!-- Node19 -->
<g id="Node000019" class="node">
<title>Node19</title>
<g id="a_Node000019"><a xlink:href="CollisionController_8hpp.html" target="_top" xlink:title=" ">
<polygon fill="white" stroke="#666666" points="1524.17,-129 1352.17,-129 1352.17,-110 1524.17,-110 1524.17,-129"/>
<text text-anchor="middle" x="1438.17" y="-117" font-family="Helvetica,sans-Serif" font-size="10.00">Collision/CollisionController.hpp</text>
</a>
</g>
</g>
<!-- Node17&#45;&gt;Node19 -->
<g id="edge29_Node000017_Node000019" class="edge">
<title>Node17&#45;&gt;Node19</title>
<g id="a_edge29_Node000017_Node000019"><a xlink:title=" ">
<path fill="none" stroke="#63b8ff" d="M1507.84,-164.98C1495.08,-156.84 1475.62,-144.41 1460.5,-134.76"/>
<polygon fill="#63b8ff" stroke="#63b8ff" points="1462.06,-131.6 1451.75,-129.17 1458.29,-137.5 1462.06,-131.6"/>
</a>
</g>
</g>
<!-- Node20 -->
<g id="Node000020" class="node">
<title>Node20</title>
<g id="a_Node000020"><a xlink:href="Weapon_8hpp.html" target="_top" xlink:title=" ">
<polygon fill="white" stroke="#666666" points="1814.17,-129 1704.17,-129 1704.17,-110 1814.17,-110 1814.17,-129"/>
<text text-anchor="middle" x="1759.17" y="-117" font-family="Helvetica,sans-Serif" font-size="10.00">Player/Weapon.hpp</text>
</a>
</g>
</g>
<!-- Node17&#45;&gt;Node20 -->
<g id="edge31_Node000017_Node000020" class="edge">
<title>Node17&#45;&gt;Node20</title>
<g id="a_edge31_Node000017_Node000020"><a xlink:title=" ">
<path fill="none" stroke="#63b8ff" d="M1559.41,-164.98C1600.58,-155.82 1666.16,-141.21 1710.87,-131.26"/>
<polygon fill="#63b8ff" stroke="#63b8ff" points="1711.63,-134.67 1720.63,-129.08 1710.11,-127.84 1711.63,-134.67"/>
</a>
</g>
</g>
<!-- Node19&#45;&gt;Node8 -->
<g id="edge30_Node000019_Node000008" class="edge">
<title>Node19&#45;&gt;Node8</title>
<g id="a_edge30_Node000019_Node000008"><a xlink:title=" ">
<path fill="none" stroke="#63b8ff" d="M1428.05,-109.98C1418.74,-102.15 1404.7,-90.34 1393.43,-80.86"/>
<polygon fill="#63b8ff" stroke="#63b8ff" points="1395.38,-77.93 1385.48,-74.17 1390.88,-83.29 1395.38,-77.93"/>
</a>
</g>
</g>
<!-- Node20&#45;&gt;Node21 -->
<g id="edge32_Node000020_Node000021" class="edge">
<title>Node20&#45;&gt;Node21</title>
<g id="a_edge32_Node000020_Node000021"><a xlink:title=" ">
<path fill="none" stroke="#63b8ff" d="M1759.17,-109.75C1759.17,-102.8 1759.17,-92.85 1759.17,-84.13"/>
<polygon fill="#63b8ff" stroke="#63b8ff" points="1762.67,-84.09 1759.17,-74.09 1755.67,-84.09 1762.67,-84.09"/>
</a>
</g>
</g>
<!-- Node21&#45;&gt;Node7 -->
<g id="edge33_Node000021_Node000007" class="edge">
<title>Node21&#45;&gt;Node7</title>
<g id="a_edge33_Node000021_Node000007"><a xlink:title=" ">
<path fill="none" stroke="#63b8ff" d="M1668.91,-55.82C1545.18,-45.3 1325.18,-26.58 1210.44,-16.82"/>
<polygon fill="#63b8ff" stroke="#63b8ff" points="1210.61,-13.32 1200.35,-15.96 1210.02,-20.29 1210.61,-13.32"/>
</a>
</g>
</g>
<!-- Node22&#45;&gt;Node7 -->
<g id="edge37_Node000022_Node000007" class="edge">
<title>Node22&#45;&gt;Node7</title>
<g id="a_edge37_Node000022_Node000007"><a xlink:title=" ">
<path fill="none" stroke="#63b8ff" d="M1592.82,-109.93C1558.32,-96.39 1487.93,-70.05 1426.17,-55 1353.78,-37.36 1269.42,-25.35 1210.42,-18.29"/>
<polygon fill="#63b8ff" stroke="#63b8ff" points="1210.78,-14.81 1200.44,-17.12 1209.96,-21.77 1210.78,-14.81"/>
</a>
</g>
</g>
<!-- Node22&#45;&gt;Node8 -->
<g id="edge38_Node000022_Node000008" class="edge">
<title>Node22&#45;&gt;Node8</title>
<g id="a_edge38_Node000022_Node000008"><a xlink:title=" ">
<path fill="none" stroke="#63b8ff" d="M1575.77,-109.98C1534.43,-100.82 1468.57,-86.21 1423.68,-76.26"/>
<polygon fill="#63b8ff" stroke="#63b8ff" points="1424.39,-72.83 1413.87,-74.08 1422.88,-79.66 1424.39,-72.83"/>
</a>
</g>
</g>
<!-- Node23&#45;&gt;Node7 -->
<g id="edge41_Node000023_Node000007" class="edge">
<title>Node23&#45;&gt;Node7</title>
<g id="a_edge41_Node000023_Node000007"><a xlink:title=" ">
<path fill="none" stroke="#63b8ff" d="M1051.7,-109.66C1067.07,-91.61 1102.29,-50.28 1122.05,-27.08"/>
<polygon fill="#63b8ff" stroke="#63b8ff" points="1124.97,-29.04 1128.8,-19.16 1119.65,-24.5 1124.97,-29.04"/>
</a>
</g>
</g>
<!-- Node23&#45;&gt;Node8 -->
<g id="edge40_Node000023_Node000008" class="edge">
<title>Node23&#45;&gt;Node8</title>
<g id="a_edge40_Node000023_Node000008"><a xlink:title=" ">
<path fill="none" stroke="#63b8ff" d="M1097.35,-109.98C1159.5,-100.03 1261.65,-83.68 1323.25,-73.81"/>
<polygon fill="#63b8ff" stroke="#63b8ff" points="1323.83,-77.27 1333.15,-72.23 1322.72,-70.35 1323.83,-77.27"/>
</a>
</g>
</g>
<!-- Node24&#45;&gt;Node3 -->
<g id="edge45_Node000024_Node000003" class="edge">
<title>Node24&#45;&gt;Node3</title>
<g id="a_edge45_Node000024_Node000003"><a xlink:title=" ">
<path fill="none" stroke="#63b8ff" d="M1297.92,-167.45C1165.63,-156.04 884.1,-131.78 786.96,-123.41"/>
<polygon fill="#63b8ff" stroke="#63b8ff" points="787.09,-119.91 776.83,-122.54 786.49,-126.88 787.09,-119.91"/>
</a>
</g>
</g>
<!-- Node24&#45;&gt;Node7 -->
<g id="edge46_Node000024_Node000007" class="edge">
<title>Node24&#45;&gt;Node7</title>
<g id="a_edge46_Node000024_Node000007"><a xlink:title=" ">
<path fill="none" stroke="#63b8ff" d="M1298.1,-167.38C1243.8,-161.14 1174.63,-149.4 1155.17,-129 1129.49,-102.08 1130.39,-55.06 1133.29,-29.07"/>
<polygon fill="#63b8ff" stroke="#63b8ff" points="1136.77,-29.43 1134.62,-19.06 1129.83,-28.5 1136.77,-29.43"/>
</a>
</g>
</g>
<!-- Node25 -->
<g id="Node000025" class="node">
<title>Node25</title>
<g id="a_Node000025"><a xlink:title=" ">
<polygon fill="#e0e0e0" stroke="#999999" points="1214.17,-129 1164.17,-129 1164.17,-110 1214.17,-110 1214.17,-129"/>
<text text-anchor="middle" x="1189.17" y="-117" font-family="Helvetica,sans-Serif" font-size="10.00">cstdint</text>
</a>
</g>
</g>
<!-- Node24&#45;&gt;Node25 -->
<g id="edge44_Node000024_Node000025" class="edge">
<title>Node24&#45;&gt;Node25</title>
<g id="a_edge44_Node000024_Node000025"><a xlink:title=" ">
<path fill="none" stroke="#63b8ff" d="M1339.41,-164.98C1308.06,-155.7 1257.9,-140.85 1224.26,-130.89"/>
<polygon fill="#63b8ff" stroke="#63b8ff" points="1224.97,-127.45 1214.39,-127.97 1222.98,-134.16 1224.97,-127.45"/>
</a>
</g>
</g>
</g>
</svg>
