<?xml version="1.0" encoding="UTF-8" standalone="no"?>
<!DOCTYPE svg PUBLIC "-//W3C//DTD SVG 1.1//EN"
 "http://www.w3.org/Graphics/SVG/1.1/DTD/svg11.dtd">
<!-- Generated by graphviz version 2.43.0 (0)
 -->
<!-- Title: /home/runner/work/R&#45;Type/R&#45;Type/Shared/components/Levels.hpp Pages: 1 -->
<svg width="3699pt" height="280pt"
 viewBox="0.00 0.00 3698.50 280.00" xmlns="http://www.w3.org/2000/svg" xmlns:xlink="http://www.w3.org/1999/xlink">
<g id="graph0" class="graph" transform="scale(1 1) rotate(0) translate(4 276)">
<title>/home/runner/work/R&#45;Type/R&#45;Type/Shared/components/Levels.hpp</title>
<!-- Node1 -->
<g id="Node000001" class="node">
<title>Node1</title>
<g id="a_Node000001"><a xlink:title=" ">
<polygon fill="#999999" stroke="#666666" points="3422.5,-272 3287.5,-272 3287.5,-231 3422.5,-231 3422.5,-272"/>
<text text-anchor="start" x="3295.5" y="-260" font-family="Helvetica,sans-Serif" font-size="10.00">/home/runner/work/R</text>
<text text-anchor="start" x="3295.5" y="-249" font-family="Helvetica,sans-Serif" font-size="10.00">&#45;Type/R&#45;Type/Shared</text>
<text text-anchor="middle" x="3355" y="-238" font-family="Helvetica,sans-Serif" font-size="10.00">/components/Levels.hpp</text>
</a>
</g>
</g>
<!-- Node2 -->
<g id="Node000002" class="node">
<title>Node2</title>
<g id="a_Node000002"><a xlink:href="ServerGame_8hpp.html" target="_top" xlink:title=" ">
<polygon fill="white" stroke="#666666" points="3638,-195 3498,-195 3498,-154 3638,-154 3638,-195"/>
<text text-anchor="start" x="3506" y="-183" font-family="Helvetica,sans-Serif" font-size="10.00">/home/runner/work/R</text>
<text text-anchor="start" x="3506" y="-172" font-family="Helvetica,sans-Serif" font-size="10.00">&#45;Type/R&#45;Type/Server</text>
<text text-anchor="middle" x="3568" y="-161" font-family="Helvetica,sans-Serif" font-size="10.00">/include/ServerGame.hpp</text>
</a>
</g>
</g>
<!-- Node1&#45;&gt;Node2 -->
<g id="edge1_Node000001_Node000002" class="edge">
<title>Node1&#45;&gt;Node2</title>
<g id="a_edge1_Node000001_Node000002"><a xlink:title=" ">
<path fill="none" stroke="#63b8ff" d="M3420.21,-227.54C3449.72,-217.15 3484.25,-204.99 3512.5,-195.04"/>
<polygon fill="#63b8ff" stroke="#63b8ff" points="3418.68,-224.37 3410.41,-230.99 3421,-230.97 3418.68,-224.37"/>
</a>
</g>
</g>
<!-- Node5 -->
<g id="Node000005" class="node">
<title>Node5</title>
<g id="a_Node000005"><a xlink:href="EntityHelper_8hpp.html" target="_top" xlink:title=" ">
<polygon fill="white" stroke="#666666" points="1985.5,-195 1800.5,-195 1800.5,-154 1985.5,-154 1985.5,-195"/>
<text text-anchor="start" x="1808.5" y="-183" font-family="Helvetica,sans-Serif" font-size="10.00">/home/runner/work/R</text>
<text text-anchor="start" x="1808.5" y="-172" font-family="Helvetica,sans-Serif" font-size="10.00">&#45;Type/R&#45;Type/Shared</text>
<text text-anchor="middle" x="1893" y="-161" font-family="Helvetica,sans-Serif" font-size="10.00">/systems/Helpers/EntityHelper.hpp</text>
</a>
</g>
</g>
<!-- Node1&#45;&gt;Node5 -->
<g id="edge4_Node000001_Node000005" class="edge">
<title>Node1&#45;&gt;Node5</title>
<g id="a_edge4_Node000001_Node000005"><a xlink:title=" ">
<path fill="none" stroke="#63b8ff" d="M3277.39,-246.52C3028.99,-233.78 2254.04,-194.02 1985.63,-180.25"/>
<polygon fill="#63b8ff" stroke="#63b8ff" points="3277.25,-250.02 3287.42,-247.03 3277.61,-243.03 3277.25,-250.02"/>
</a>
</g>
</g>
<!-- Node37 -->
<g id="Node000037" class="node">
<title>Node37</title>
<g id="a_Node000037"><a xlink:href="LevelSystem_8cpp.html" target="_top" xlink:title=" ">
<polygon fill="white" stroke="#666666" points="3377.5,-118 3230.5,-118 3230.5,-77 3377.5,-77 3377.5,-118"/>
<text text-anchor="start" x="3238.5" y="-106" font-family="Helvetica,sans-Serif" font-size="10.00">/home/runner/work/R</text>
<text text-anchor="start" x="3238.5" y="-95" font-family="Helvetica,sans-Serif" font-size="10.00">&#45;Type/R&#45;Type/Shared</text>
<text text-anchor="middle" x="3304" y="-84" font-family="Helvetica,sans-Serif" font-size="10.00">/systems/LevelSystem.cpp</text>
</a>
</g>
</g>
<!-- Node1&#45;&gt;Node37 -->
<g id="edge41_Node000001_Node000037" class="edge">
<title>Node1&#45;&gt;Node37</title>
<g id="a_edge41_Node000001_Node000037"><a xlink:title=" ">
<path fill="none" stroke="#63b8ff" d="M3336.33,-222.25C3331.39,-213.77 3326.47,-204.25 3323,-195 3313.41,-169.42 3308.38,-138.12 3305.97,-118.24"/>
<polygon fill="#63b8ff" stroke="#63b8ff" points="3333.45,-224.26 3341.63,-230.99 3339.43,-220.62 3333.45,-224.26"/>
</a>
</g>
</g>
<!-- Node41 -->
<g id="Node000041" class="node">
<title>Node41</title>
<g id="a_Node000041"><a xlink:href="LevelSystem_8hpp.html" target="_top" xlink:title=" ">
<polygon fill="white" stroke="#666666" points="3480,-195 3332,-195 3332,-154 3480,-154 3480,-195"/>
<text text-anchor="start" x="3340" y="-183" font-family="Helvetica,sans-Serif" font-size="10.00">/home/runner/work/R</text>
<text text-anchor="start" x="3340" y="-172" font-family="Helvetica,sans-Serif" font-size="10.00">&#45;Type/R&#45;Type/Shared</text>
<text text-anchor="middle" x="3406" y="-161" font-family="Helvetica,sans-Serif" font-size="10.00">/systems/LevelSystem.hpp</text>
</a>
</g>
</g>
<!-- Node1&#45;&gt;Node41 -->
<g id="edge42_Node000001_Node000041" class="edge">
<title>Node1&#45;&gt;Node41</title>
<g id="a_edge42_Node000001_Node000041"><a xlink:title=" ">
<path fill="none" stroke="#63b8ff" d="M3374.11,-222.39C3380.3,-213.3 3387.02,-203.41 3392.69,-195.07"/>
<polygon fill="#63b8ff" stroke="#63b8ff" points="3371.13,-220.56 3368.4,-230.79 3376.92,-224.49 3371.13,-220.56"/>
</a>
</g>
</g>
<!-- Node3 -->
<g id="Node000003" class="node">
<title>Node3</title>
<g id="a_Node000003"><a xlink:href="ServerGame_8cpp.html" target="_top" xlink:title=" ">
<polygon fill="white" stroke="#666666" points="3514.5,-118 3395.5,-118 3395.5,-77 3514.5,-77 3514.5,-118"/>
<text text-anchor="start" x="3403.5" y="-106" font-family="Helvetica,sans-Serif" font-size="10.00">/home/runner/work/R</text>
<text text-anchor="start" x="3403.5" y="-95" font-family="Helvetica,sans-Serif" font-size="10.00">&#45;Type/R&#45;Type/Server</text>
<text text-anchor="middle" x="3455" y="-84" font-family="Helvetica,sans-Serif" font-size="10.00">/src/ServerGame.cpp</text>
</a>
</g>
</g>
<!-- Node2&#45;&gt;Node3 -->
<g id="edge2_Node000002_Node000003" class="edge">
<title>Node2&#45;&gt;Node3</title>
<g id="a_edge2_Node000002_Node000003"><a xlink:title=" ">
<path fill="none" stroke="#63b8ff" d="M3530.14,-148.37C3515.31,-138.53 3498.56,-127.41 3484.64,-118.17"/>
<polygon fill="#63b8ff" stroke="#63b8ff" points="3528.34,-151.38 3538.61,-153.99 3532.21,-145.54 3528.34,-151.38"/>
</a>
</g>
</g>
<!-- Node4 -->
<g id="Node000004" class="node">
<title>Node4</title>
<g id="a_Node000004"><a xlink:href="main_8cpp.html" target="_top" xlink:title=" ">
<polygon fill="white" stroke="#666666" points="3690.5,-118 3571.5,-118 3571.5,-77 3690.5,-77 3690.5,-118"/>
<text text-anchor="start" x="3579.5" y="-106" font-family="Helvetica,sans-Serif" font-size="10.00">/home/runner/work/R</text>
<text text-anchor="start" x="3579.5" y="-95" font-family="Helvetica,sans-Serif" font-size="10.00">&#45;Type/R&#45;Type/Server</text>
<text text-anchor="middle" x="3631" y="-84" font-family="Helvetica,sans-Serif" font-size="10.00">/src/main.cpp</text>
</a>
</g>
</g>
<!-- Node2&#45;&gt;Node4 -->
<g id="edge3_Node000002_Node000004" class="edge">
<title>Node2&#45;&gt;Node4</title>
<g id="a_edge3_Node000002_Node000004"><a xlink:title=" ">
<path fill="none" stroke="#63b8ff" d="M3591.14,-145.95C3598.91,-136.7 3607.41,-126.58 3614.56,-118.07"/>
<polygon fill="#63b8ff" stroke="#63b8ff" points="3588.3,-143.89 3584.55,-153.79 3593.66,-148.39 3588.3,-143.89"/>
</a>
</g>
</g>
<!-- Node5&#45;&gt;Node3 -->
<g id="edge35_Node000005_Node000003" class="edge">
<title>Node5&#45;&gt;Node3</title>
<g id="a_edge35_Node000005_Node000003"><a xlink:title=" ">
<path fill="none" stroke="#63b8ff" d="M1995.81,-172.92C2287.81,-170.74 3118.33,-160.86 3387,-118 3389.79,-117.55 3392.63,-117.03 3395.48,-116.45"/>
<polygon fill="#63b8ff" stroke="#63b8ff" points="1995.63,-169.42 1985.65,-172.99 1995.68,-176.42 1995.63,-169.42"/>
</a>
</g>
</g>
<!-- Node6 -->
<g id="Node000006" class="node">
<title>Node6</title>
<g id="a_Node000006"><a xlink:href="CreateLobby_8hpp.html" target="_top" xlink:title=" ">
<polygon fill="white" stroke="#666666" points="3041.5,-118 2886.5,-118 2886.5,-77 3041.5,-77 3041.5,-118"/>
<text text-anchor="start" x="2894.5" y="-106" font-family="Helvetica,sans-Serif" font-size="10.00">/home/runner/work/R</text>
<text text-anchor="start" x="2894.5" y="-95" font-family="Helvetica,sans-Serif" font-size="10.00">&#45;Type/R&#45;Type/Client</text>
<text text-anchor="middle" x="2964" y="-84" font-family="Helvetica,sans-Serif" font-size="10.00">/src/scenes/CreateLobby.hpp</text>
</a>
</g>
</g>
<!-- Node5&#45;&gt;Node6 -->
<g id="edge5_Node000005_Node000006" class="edge">
<title>Node5&#45;&gt;Node6</title>
<g id="a_edge5_Node000005_Node000006"><a xlink:title=" ">
<path fill="none" stroke="#63b8ff" d="M1995.98,-173.24C2175.67,-171.54 2557.82,-162.47 2877,-118 2880.07,-117.57 2883.18,-117.09 2886.33,-116.57"/>
<polygon fill="#63b8ff" stroke="#63b8ff" points="1995.71,-169.74 1985.74,-173.33 1995.77,-176.74 1995.71,-169.74"/>
</a>
</g>
</g>
<!-- Node8 -->
<g id="Node000008" class="node">
<title>Node8</title>
<g id="a_Node000008"><a xlink:href="GameOver_8hpp.html" target="_top" xlink:title=" ">
<polygon fill="white" stroke="#666666" points="146,-118 0,-118 0,-77 146,-77 146,-118"/>
<text text-anchor="start" x="8" y="-106" font-family="Helvetica,sans-Serif" font-size="10.00">/home/runner/work/R</text>
<text text-anchor="start" x="8" y="-95" font-family="Helvetica,sans-Serif" font-size="10.00">&#45;Type/R&#45;Type/Client</text>
<text text-anchor="middle" x="73" y="-84" font-family="Helvetica,sans-Serif" font-size="10.00">/src/scenes/GameOver.hpp</text>
</a>
</g>
</g>
<!-- Node5&#45;&gt;Node8 -->
<g id="edge7_Node000005_Node000008" class="edge">
<title>Node5&#45;&gt;Node8</title>
<g id="a_edge7_Node000005_Node000008"><a xlink:title=" ">
<path fill="none" stroke="#63b8ff" d="M1790.18,-172.93C1466.96,-170.73 473.96,-160.58 155,-118 152.1,-117.61 149.15,-117.17 146.18,-116.67"/>
<polygon fill="#63b8ff" stroke="#63b8ff" points="1790.45,-176.44 1800.48,-173 1790.5,-169.44 1790.45,-176.44"/>
</a>
</g>
</g>
<!-- Node10 -->
<g id="Node000010" class="node">
<title>Node10</title>
<g id="a_Node000010"><a xlink:href="JoinGame_8hpp.html" target="_top" xlink:title=" ">
<polygon fill="white" stroke="#666666" points="1570,-118 1428,-118 1428,-77 1570,-77 1570,-118"/>
<text text-anchor="start" x="1436" y="-106" font-family="Helvetica,sans-Serif" font-size="10.00">/home/runner/work/R</text>
<text text-anchor="start" x="1436" y="-95" font-family="Helvetica,sans-Serif" font-size="10.00">&#45;Type/R&#45;Type/Client</text>
<text text-anchor="middle" x="1499" y="-84" font-family="Helvetica,sans-Serif" font-size="10.00">/src/scenes/JoinGame.hpp</text>
</a>
</g>
</g>
<!-- Node5&#45;&gt;Node10 -->
<g id="edge9_Node000005_Node000010" class="edge">
<title>Node5&#45;&gt;Node10</title>
<g id="a_edge9_Node000005_Node000010"><a xlink:title=" ">
<path fill="none" stroke="#63b8ff" d="M1790.21,-157.04C1728.73,-146.77 1649.18,-132.74 1579,-118 1576.06,-117.38 1573.07,-116.74 1570.05,-116.07"/>
<polygon fill="#63b8ff" stroke="#63b8ff" points="1789.86,-160.53 1800.3,-158.72 1791.01,-153.63 1789.86,-160.53"/>
</a>
</g>
</g>
<!-- Node12 -->
<g id="Node000012" class="node">
<title>Node12</title>
<g id="a_Node000012"><a xlink:href="LevelScene_8hpp.html" target="_top" xlink:title=" ">
<polygon fill="white" stroke="#666666" points="1738,-118 1588,-118 1588,-77 1738,-77 1738,-118"/>
<text text-anchor="start" x="1596" y="-106" font-family="Helvetica,sans-Serif" font-size="10.00">/home/runner/work/R</text>
<text text-anchor="start" x="1596" y="-95" font-family="Helvetica,sans-Serif" font-size="10.00">&#45;Type/R&#45;Type/Client</text>
<text text-anchor="middle" x="1663" y="-84" font-family="Helvetica,sans-Serif" font-size="10.00">/src/scenes/LevelScene.hpp</text>
</a>
</g>
</g>
<!-- Node5&#45;&gt;Node12 -->
<g id="edge11_Node000005_Node000012" class="edge">
<title>Node5&#45;&gt;Node12</title>
<g id="a_edge11_Node000005_Node000012"><a xlink:title=" ">
<path fill="none" stroke="#63b8ff" d="M1823.42,-150.81C1791.36,-140.36 1753.7,-128.08 1722.93,-118.04"/>
<polygon fill="#63b8ff" stroke="#63b8ff" points="1822.58,-154.22 1833.17,-153.99 1824.75,-147.56 1822.58,-154.22"/>
</a>
</g>
</g>
<!-- Node14 -->
<g id="Node000014" class="node">
<title>Node14</title>
<g id="a_Node000014"><a xlink:href="Lobby_8hpp.html" target="_top" xlink:title=" ">
<polygon fill="white" stroke="#666666" points="1878,-118 1756,-118 1756,-77 1878,-77 1878,-118"/>
<text text-anchor="start" x="1764" y="-106" font-family="Helvetica,sans-Serif" font-size="10.00">/home/runner/work/R</text>
<text text-anchor="start" x="1764" y="-95" font-family="Helvetica,sans-Serif" font-size="10.00">&#45;Type/R&#45;Type/Client</text>
<text text-anchor="middle" x="1817" y="-84" font-family="Helvetica,sans-Serif" font-size="10.00">/src/scenes/Lobby.hpp</text>
</a>
</g>
</g>
<!-- Node5&#45;&gt;Node14 -->
<g id="edge13_Node000005_Node000014" class="edge">
<title>Node5&#45;&gt;Node14</title>
<g id="a_edge13_Node000005_Node000014"><a xlink:title=" ">
<path fill="none" stroke="#63b8ff" d="M1865.65,-146.51C1856.13,-137.11 1845.63,-126.76 1836.83,-118.07"/>
<polygon fill="#63b8ff" stroke="#63b8ff" points="1863.46,-149.26 1873.03,-153.79 1868.37,-144.28 1863.46,-149.26"/>
</a>
</g>
</g>
<!-- Node16 -->
<g id="Node000016" class="node">
<title>Node16</title>
<g id="a_Node000016"><a xlink:href="LobbyInfo_8hpp.html" target="_top" xlink:title=" ">
<polygon fill="white" stroke="#666666" points="2039.5,-118 1896.5,-118 1896.5,-77 2039.5,-77 2039.5,-118"/>
<text text-anchor="start" x="1904.5" y="-106" font-family="Helvetica,sans-Serif" font-size="10.00">/home/runner/work/R</text>
<text text-anchor="start" x="1904.5" y="-95" font-family="Helvetica,sans-Serif" font-size="10.00">&#45;Type/R&#45;Type/Client</text>
<text text-anchor="middle" x="1968" y="-84" font-family="Helvetica,sans-Serif" font-size="10.00">/src/scenes/LobbyInfo.hpp</text>
</a>
</g>
</g>
<!-- Node5&#45;&gt;Node16 -->
<g id="edge15_Node000005_Node000016" class="edge">
<title>Node5&#45;&gt;Node16</title>
<g id="a_edge15_Node000005_Node000016"><a xlink:title=" ">
<path fill="none" stroke="#63b8ff" d="M1919.99,-146.51C1929.39,-137.11 1939.74,-126.76 1948.43,-118.07"/>
<polygon fill="#63b8ff" stroke="#63b8ff" points="1917.3,-144.25 1912.71,-153.79 1922.25,-149.2 1917.3,-144.25"/>
</a>
</g>
</g>
<!-- Node18 -->
<g id="Node000018" class="node">
<title>Node18</title>
<g id="a_Node000018"><a xlink:href="LobbyJoin_8hpp.html" target="_top" xlink:title=" ">
<polygon fill="white" stroke="#666666" points="2200,-118 2058,-118 2058,-77 2200,-77 2200,-118"/>
<text text-anchor="start" x="2066" y="-106" font-family="Helvetica,sans-Serif" font-size="10.00">/home/runner/work/R</text>
<text text-anchor="start" x="2066" y="-95" font-family="Helvetica,sans-Serif" font-size="10.00">&#45;Type/R&#45;Type/Client</text>
<text text-anchor="middle" x="2129" y="-84" font-family="Helvetica,sans-Serif" font-size="10.00">/src/scenes/LobbyJoin.hpp</text>
</a>
</g>
</g>
<!-- Node5&#45;&gt;Node18 -->
<g id="edge17_Node000005_Node000018" class="edge">
<title>Node5&#45;&gt;Node18</title>
<g id="a_edge17_Node000005_Node000018"><a xlink:title=" ">
<path fill="none" stroke="#63b8ff" d="M1963.97,-150.94C1996.95,-140.46 2035.8,-128.12 2067.51,-118.04"/>
<polygon fill="#63b8ff" stroke="#63b8ff" points="1962.86,-147.63 1954.39,-153.99 1964.98,-154.3 1962.86,-147.63"/>
</a>
</g>
</g>
<!-- Node20 -->
<g id="Node000020" class="node">
<title>Node20</title>
<g id="a_Node000020"><a xlink:href="LobbyPassword_8hpp.html" target="_top" xlink:title=" ">
<polygon fill="white" stroke="#666666" points="2388,-118 2218,-118 2218,-77 2388,-77 2388,-118"/>
<text text-anchor="start" x="2226" y="-106" font-family="Helvetica,sans-Serif" font-size="10.00">/home/runner/work/R</text>
<text text-anchor="start" x="2226" y="-95" font-family="Helvetica,sans-Serif" font-size="10.00">&#45;Type/R&#45;Type/Client</text>
<text text-anchor="middle" x="2303" y="-84" font-family="Helvetica,sans-Serif" font-size="10.00">/src/scenes/LobbyPassword.hpp</text>
</a>
</g>
</g>
<!-- Node5&#45;&gt;Node20 -->
<g id="edge19_Node000005_Node000020" class="edge">
<title>Node5&#45;&gt;Node20</title>
<g id="a_edge19_Node000005_Node000020"><a xlink:title=" ">
<path fill="none" stroke="#63b8ff" d="M1995.93,-156.24C2057.78,-145.67 2138,-131.6 2209,-118 2211.95,-117.44 2214.94,-116.85 2217.97,-116.26"/>
<polygon fill="#63b8ff" stroke="#63b8ff" points="1995.05,-152.84 1985.78,-157.98 1996.23,-159.74 1995.05,-152.84"/>
</a>
</g>
</g>
<!-- Node22 -->
<g id="Node000022" class="node">
<title>Node22</title>
<g id="a_Node000022"><a xlink:href="MainGame_8hpp.html" target="_top" xlink:title=" ">
<polygon fill="white" stroke="#666666" points="2554,-118 2406,-118 2406,-77 2554,-77 2554,-118"/>
<text text-anchor="start" x="2414" y="-106" font-family="Helvetica,sans-Serif" font-size="10.00">/home/runner/work/R</text>
<text text-anchor="start" x="2414" y="-95" font-family="Helvetica,sans-Serif" font-size="10.00">&#45;Type/R&#45;Type/Client</text>
<text text-anchor="middle" x="2480" y="-84" font-family="Helvetica,sans-Serif" font-size="10.00">/src/scenes/MainGame.hpp</text>
</a>
</g>
</g>
<!-- Node5&#45;&gt;Node22 -->
<g id="edge21_Node000005_Node000022" class="edge">
<title>Node5&#45;&gt;Node22</title>
<g id="a_edge21_Node000005_Node000022"><a xlink:title=" ">
<path fill="none" stroke="#63b8ff" d="M1995.91,-165.84C2098.13,-157.37 2259.09,-141.7 2397,-118 2399.92,-117.5 2402.89,-116.96 2405.88,-116.38"/>
<polygon fill="#63b8ff" stroke="#63b8ff" points="1995.58,-162.35 1985.9,-166.66 1996.15,-169.33 1995.58,-162.35"/>
</a>
</g>
</g>
<!-- Node24 -->
<g id="Node000024" class="node">
<title>Node24</title>
<g id="a_Node000024"><a xlink:href="MainMenu_8hpp.html" target="_top" xlink:title=" ">
<polygon fill="white" stroke="#666666" points="2718,-118 2572,-118 2572,-77 2718,-77 2718,-118"/>
<text text-anchor="start" x="2580" y="-106" font-family="Helvetica,sans-Serif" font-size="10.00">/home/runner/work/R</text>
<text text-anchor="start" x="2580" y="-95" font-family="Helvetica,sans-Serif" font-size="10.00">&#45;Type/R&#45;Type/Client</text>
<text text-anchor="middle" x="2645" y="-84" font-family="Helvetica,sans-Serif" font-size="10.00">/src/scenes/MainMenu.hpp</text>
</a>
</g>
</g>
<!-- Node5&#45;&gt;Node24 -->
<g id="edge23_Node000005_Node000024" class="edge">
<title>Node5&#45;&gt;Node24</title>
<g id="a_edge23_Node000005_Node000024"><a xlink:title=" ">
<path fill="none" stroke="#63b8ff" d="M1995.75,-169.8C2127.74,-163.95 2363.6,-149.78 2563,-118 2565.89,-117.54 2568.83,-117.03 2571.79,-116.49"/>
<polygon fill="#63b8ff" stroke="#63b8ff" points="1995.49,-166.31 1985.65,-170.24 1995.79,-173.3 1995.49,-166.31"/>
</a>
</g>
</g>
<!-- Node26 -->
<g id="Node000026" class="node">
<title>Node26</title>
<g id="a_Node000026"><a xlink:href="Options_8hpp.html" target="_top" xlink:title=" ">
<polygon fill="white" stroke="#666666" points="2868,-118 2736,-118 2736,-77 2868,-77 2868,-118"/>
<text text-anchor="start" x="2744" y="-106" font-family="Helvetica,sans-Serif" font-size="10.00">/home/runner/work/R</text>
<text text-anchor="start" x="2744" y="-95" font-family="Helvetica,sans-Serif" font-size="10.00">&#45;Type/R&#45;Type/Client</text>
<text text-anchor="middle" x="2802" y="-84" font-family="Helvetica,sans-Serif" font-size="10.00">/src/scenes/Options.hpp</text>
</a>
</g>
</g>
<!-- Node5&#45;&gt;Node26 -->
<g id="edge25_Node000005_Node000026" class="edge">
<title>Node5&#45;&gt;Node26</title>
<g id="a_edge25_Node000005_Node000026"><a xlink:title=" ">
<path fill="none" stroke="#63b8ff" d="M1995.77,-172.85C2153.89,-170.47 2465.93,-160.24 2727,-118 2729.92,-117.53 2732.9,-116.99 2735.89,-116.41"/>
<polygon fill="#63b8ff" stroke="#63b8ff" points="1995.53,-169.36 1985.58,-173 1995.63,-176.35 1995.53,-169.36"/>
</a>
</g>
</g>
<!-- Node28 -->
<g id="Node000028" class="node">
<title>Node28</title>
<g id="a_Node000028"><a xlink:href="RtypeScene_8hpp.html" target="_top" xlink:title=" ">
<polygon fill="white" stroke="#666666" points="3212,-118 3060,-118 3060,-77 3212,-77 3212,-118"/>
<text text-anchor="start" x="3068" y="-106" font-family="Helvetica,sans-Serif" font-size="10.00">/home/runner/work/R</text>
<text text-anchor="start" x="3068" y="-95" font-family="Helvetica,sans-Serif" font-size="10.00">&#45;Type/R&#45;Type/Client</text>
<text text-anchor="middle" x="3136" y="-84" font-family="Helvetica,sans-Serif" font-size="10.00">/src/scenes/RtypeScene.hpp</text>
</a>
</g>
</g>
<!-- Node5&#45;&gt;Node28 -->
<g id="edge27_Node000005_Node000028" class="edge">
<title>Node5&#45;&gt;Node28</title>
<g id="a_edge27_Node000005_Node000028"><a xlink:title=" ">
<path fill="none" stroke="#63b8ff" d="M1995.92,-170.91C2240.03,-164.4 2848.78,-145.82 3051,-118 3053.85,-117.61 3056.74,-117.17 3059.66,-116.69"/>
<polygon fill="#63b8ff" stroke="#63b8ff" points="1995.53,-167.42 1985.63,-171.19 1995.71,-174.42 1995.53,-167.42"/>
</a>
</g>
</g>
<!-- Node30 -->
<g id="Node000030" class="node">
<title>Node30</title>
<g id="a_Node000030"><a xlink:href="SecondGameClient_8hpp.html" target="_top" xlink:title=" ">
<polygon fill="white" stroke="#666666" points="352,-118 164,-118 164,-77 352,-77 352,-118"/>
<text text-anchor="start" x="172" y="-106" font-family="Helvetica,sans-Serif" font-size="10.00">/home/runner/work/R</text>
<text text-anchor="start" x="172" y="-95" font-family="Helvetica,sans-Serif" font-size="10.00">&#45;Type/R&#45;Type/Client</text>
<text text-anchor="middle" x="258" y="-84" font-family="Helvetica,sans-Serif" font-size="10.00">/src/scenes/SecondGameClient.hpp</text>
</a>
</g>
</g>
<!-- Node5&#45;&gt;Node30 -->
<g id="edge29_Node000005_Node000030" class="edge">
<title>Node5&#45;&gt;Node30</title>
<g id="a_edge29_Node000005_Node000030"><a xlink:title=" ">
<path fill="none" stroke="#63b8ff" d="M1790.11,-171.8C1493.29,-166.57 638.97,-149.17 361,-118 358.11,-117.68 355.17,-117.32 352.21,-116.93"/>
<polygon fill="#63b8ff" stroke="#63b8ff" points="1790.37,-175.3 1800.43,-171.98 1790.5,-168.3 1790.37,-175.3"/>
</a>
</g>
</g>
<!-- Node32 -->
<g id="Node000032" class="node">
<title>Node32</title>
<g id="a_Node000032"><a xlink:href="Victory_8hpp.html" target="_top" xlink:title=" ">
<polygon fill="white" stroke="#666666" points="498,-118 370,-118 370,-77 498,-77 498,-118"/>
<text text-anchor="start" x="378" y="-106" font-family="Helvetica,sans-Serif" font-size="10.00">/home/runner/work/R</text>
<text text-anchor="start" x="378" y="-95" font-family="Helvetica,sans-Serif" font-size="10.00">&#45;Type/R&#45;Type/Client</text>
<text text-anchor="middle" x="434" y="-84" font-family="Helvetica,sans-Serif" font-size="10.00">/src/scenes/Victory.hpp</text>
</a>
</g>
</g>
<!-- Node5&#45;&gt;Node32 -->
<g id="edge31_Node000005_Node000032" class="edge">
<title>Node5&#45;&gt;Node32</title>
<g id="a_edge31_Node000005_Node000032"><a xlink:title=" ">
<path fill="none" stroke="#63b8ff" d="M1790.44,-172.33C1513.42,-168.7 754.39,-155.52 507,-118 504.15,-117.57 501.24,-117.06 498.32,-116.51"/>
<polygon fill="#63b8ff" stroke="#63b8ff" points="1790.44,-175.83 1800.49,-172.46 1790.53,-168.83 1790.44,-175.83"/>
</a>
</g>
</g>
<!-- Node34 -->
<g id="Node000034" class="node">
<title>Node34</title>
<g id="a_Node000034"><a xlink:href="WaitLobby_8hpp.html" target="_top" xlink:title=" ">
<polygon fill="white" stroke="#666666" points="660,-118 516,-118 516,-77 660,-77 660,-118"/>
<text text-anchor="start" x="524" y="-106" font-family="Helvetica,sans-Serif" font-size="10.00">/home/runner/work/R</text>
<text text-anchor="start" x="524" y="-95" font-family="Helvetica,sans-Serif" font-size="10.00">&#45;Type/R&#45;Type/Client</text>
<text text-anchor="middle" x="588" y="-84" font-family="Helvetica,sans-Serif" font-size="10.00">/src/scenes/WaitLobby.hpp</text>
</a>
</g>
</g>
<!-- Node5&#45;&gt;Node34 -->
<g id="edge33_Node000005_Node000034" class="edge">
<title>Node5&#45;&gt;Node34</title>
<g id="a_edge33_Node000005_Node000034"><a xlink:title=" ">
<path fill="none" stroke="#63b8ff" d="M1790.16,-171.36C1536.18,-165.68 884.26,-148.51 669,-118 666.14,-117.59 663.22,-117.13 660.29,-116.63"/>
<polygon fill="#63b8ff" stroke="#63b8ff" points="1790.41,-174.87 1800.49,-171.59 1790.57,-167.87 1790.41,-174.87"/>
</a>
</g>
</g>
<!-- Node36 -->
<g id="Node000036" class="node">
<title>Node36</title>
<g id="a_Node000036"><a xlink:href="ChargedShoot_8cpp.html" target="_top" xlink:title=" ">
<polygon fill="white" stroke="#666666" points="830,-118 678,-118 678,-77 830,-77 830,-118"/>
<text text-anchor="start" x="686" y="-106" font-family="Helvetica,sans-Serif" font-size="10.00">/home/runner/work/R</text>
<text text-anchor="start" x="686" y="-95" font-family="Helvetica,sans-Serif" font-size="10.00">&#45;Type/R&#45;Type/Shared</text>
<text text-anchor="middle" x="754" y="-84" font-family="Helvetica,sans-Serif" font-size="10.00">/systems/ChargedShoot.cpp</text>
</a>
</g>
</g>
<!-- Node5&#45;&gt;Node36 -->
<g id="edge36_Node000005_Node000036" class="edge">
<title>Node5&#45;&gt;Node36</title>
<g id="a_edge36_Node000005_Node000036"><a xlink:title=" ">
<path fill="none" stroke="#63b8ff" d="M1790.29,-173.96C1601.13,-173.52 1185.36,-166.48 839,-118 836.15,-117.6 833.26,-117.15 830.34,-116.67"/>
<polygon fill="#63b8ff" stroke="#63b8ff" points="1790.49,-177.46 1800.5,-173.98 1790.5,-170.46 1790.49,-177.46"/>
</a>
</g>
</g>
<!-- Node5&#45;&gt;Node37 -->
<g id="edge37_Node000005_Node000037" class="edge">
<title>Node5&#45;&gt;Node37</title>
<g id="a_edge37_Node000005_Node000037"><a xlink:title=" ">
<path fill="none" stroke="#63b8ff" d="M1995.91,-171.71C2264.98,-166.64 2984.85,-150.38 3221,-118 3224.08,-117.58 3227.21,-117.09 3230.37,-116.56"/>
<polygon fill="#63b8ff" stroke="#63b8ff" points="1995.69,-168.22 1985.76,-171.9 1995.82,-175.22 1995.69,-168.22"/>
</a>
</g>
</g>
<!-- Node38 -->
<g id="Node000038" class="node">
<title>Node38</title>
<g id="a_Node000038"><a xlink:href="Movement_8cpp.html" target="_top" xlink:title=" ">
<polygon fill="white" stroke="#666666" points="1040,-118 848,-118 848,-77 1040,-77 1040,-118"/>
<text text-anchor="start" x="856" y="-106" font-family="Helvetica,sans-Serif" font-size="10.00">/home/runner/work/R</text>
<text text-anchor="start" x="856" y="-95" font-family="Helvetica,sans-Serif" font-size="10.00">&#45;Type/R&#45;Type/Shared</text>
<text text-anchor="middle" x="944" y="-84" font-family="Helvetica,sans-Serif" font-size="10.00">/systems/Movement/Movement.cpp</text>
</a>
</g>
</g>
<!-- Node5&#45;&gt;Node38 -->
<g id="edge38_Node000005_Node000038" class="edge">
<title>Node5&#45;&gt;Node38</title>
<g id="a_edge38_Node000005_Node000038"><a xlink:title=" ">
<path fill="none" stroke="#63b8ff" d="M1790.1,-170.58C1630.93,-165.19 1315.61,-151.06 1050,-118 1046.75,-117.6 1043.45,-117.16 1040.12,-116.69"/>
<polygon fill="#63b8ff" stroke="#63b8ff" points="1790.25,-174.08 1800.36,-170.92 1790.48,-167.09 1790.25,-174.08"/>
</a>
</g>
</g>
<!-- Node39 -->
<g id="Node000039" class="node">
<title>Node39</title>
<g id="a_Node000039"><a xlink:href="Spawn_8cpp.html" target="_top" xlink:title=" ">
<polygon fill="white" stroke="#666666" points="1243.5,-118 1058.5,-118 1058.5,-77 1243.5,-77 1243.5,-118"/>
<text text-anchor="start" x="1066.5" y="-106" font-family="Helvetica,sans-Serif" font-size="10.00">/home/runner/work/R</text>
<text text-anchor="start" x="1066.5" y="-95" font-family="Helvetica,sans-Serif" font-size="10.00">&#45;Type/R&#45;Type/Shared</text>
<text text-anchor="middle" x="1151" y="-84" font-family="Helvetica,sans-Serif" font-size="10.00">/systems/SpawnEnemy/Spawn.cpp</text>
</a>
</g>
</g>
<!-- Node5&#45;&gt;Node39 -->
<g id="edge39_Node000005_Node000039" class="edge">
<title>Node5&#45;&gt;Node39</title>
<g id="a_edge39_Node000005_Node000039"><a xlink:title=" ">
<path fill="none" stroke="#63b8ff" d="M1790.38,-167.85C1663.67,-160.12 1441.77,-144.16 1253,-118 1249.96,-117.58 1246.88,-117.13 1243.77,-116.65"/>
<polygon fill="#63b8ff" stroke="#63b8ff" points="1790.27,-171.35 1800.46,-168.46 1790.69,-164.36 1790.27,-171.35"/>
</a>
</g>
</g>
<!-- Node40 -->
<g id="Node000040" class="node">
<title>Node40</title>
<g id="a_Node000040"><a xlink:href="WaveSystem_8cpp.html" target="_top" xlink:title=" ">
<polygon fill="white" stroke="#666666" points="1410,-118 1262,-118 1262,-77 1410,-77 1410,-118"/>
<text text-anchor="start" x="1270" y="-106" font-family="Helvetica,sans-Serif" font-size="10.00">/home/runner/work/R</text>
<text text-anchor="start" x="1270" y="-95" font-family="Helvetica,sans-Serif" font-size="10.00">&#45;Type/R&#45;Type/Shared</text>
<text text-anchor="middle" x="1336" y="-84" font-family="Helvetica,sans-Serif" font-size="10.00">/systems/WaveSystem.cpp</text>
</a>
</g>
</g>
<!-- Node5&#45;&gt;Node40 -->
<g id="edge40_Node000005_Node000040" class="edge">
<title>Node5&#45;&gt;Node40</title>
<g id="a_edge40_Node000005_Node000040"><a xlink:title=" ">
<path fill="none" stroke="#63b8ff" d="M1790.32,-164.89C1693.98,-156 1546.09,-140.3 1419,-118 1416.08,-117.49 1413.12,-116.94 1410.13,-116.36"/>
<polygon fill="#63b8ff" stroke="#63b8ff" points="1790.07,-168.38 1800.35,-165.81 1790.71,-161.41 1790.07,-168.38"/>
</a>
</g>
</g>
<!-- Node7 -->
<g id="Node000007" class="node">
<title>Node7</title>
<g id="a_Node000007"><a xlink:href="CreateLobby_8cpp.html" target="_top" xlink:title=" ">
<polygon fill="white" stroke="#666666" points="3041,-41 2887,-41 2887,0 3041,0 3041,-41"/>
<text text-anchor="start" x="2895" y="-29" font-family="Helvetica,sans-Serif" font-size="10.00">/home/runner/work/R</text>
<text text-anchor="start" x="2895" y="-18" font-family="Helvetica,sans-Serif" font-size="10.00">&#45;Type/R&#45;Type/Client</text>
<text text-anchor="middle" x="2964" y="-7" font-family="Helvetica,sans-Serif" font-size="10.00">/src/scenes/CreateLobby.cpp</text>
</a>
</g>
</g>
<!-- Node6&#45;&gt;Node7 -->
<g id="edge6_Node000006_Node000007" class="edge">
<title>Node6&#45;&gt;Node7</title>
<g id="a_edge6_Node000006_Node000007"><a xlink:title=" ">
<path fill="none" stroke="#63b8ff" d="M2964,-66.69C2964,-58.08 2964,-48.9 2964,-41.07"/>
<polygon fill="#63b8ff" stroke="#63b8ff" points="2960.5,-66.79 2964,-76.79 2967.5,-66.79 2960.5,-66.79"/>
</a>
</g>
</g>
<!-- Node9 -->
<g id="Node000009" class="node">
<title>Node9</title>
<g id="a_Node000009"><a xlink:href="GameOver_8cpp.html" target="_top" xlink:title=" ">
<polygon fill="white" stroke="#666666" points="146,-41 0,-41 0,0 146,0 146,-41"/>
<text text-anchor="start" x="8" y="-29" font-family="Helvetica,sans-Serif" font-size="10.00">/home/runner/work/R</text>
<text text-anchor="start" x="8" y="-18" font-family="Helvetica,sans-Serif" font-size="10.00">&#45;Type/R&#45;Type/Client</text>
<text text-anchor="middle" x="73" y="-7" font-family="Helvetica,sans-Serif" font-size="10.00">/src/scenes/GameOver.cpp</text>
</a>
</g>
</g>
<!-- Node8&#45;&gt;Node9 -->
<g id="edge8_Node000008_Node000009" class="edge">
<title>Node8&#45;&gt;Node9</title>
<g id="a_edge8_Node000008_Node000009"><a xlink:title=" ">
<path fill="none" stroke="#63b8ff" d="M73,-66.69C73,-58.08 73,-48.9 73,-41.07"/>
<polygon fill="#63b8ff" stroke="#63b8ff" points="69.5,-66.79 73,-76.79 76.5,-66.79 69.5,-66.79"/>
</a>
</g>
</g>
<!-- Node11 -->
<g id="Node000011" class="node">
<title>Node11</title>
<g id="a_Node000011"><a xlink:href="JoinGame_8cpp.html" target="_top" xlink:title=" ">
<polygon fill="white" stroke="#666666" points="1569.5,-41 1428.5,-41 1428.5,0 1569.5,0 1569.5,-41"/>
<text text-anchor="start" x="1436.5" y="-29" font-family="Helvetica,sans-Serif" font-size="10.00">/home/runner/work/R</text>
<text text-anchor="start" x="1436.5" y="-18" font-family="Helvetica,sans-Serif" font-size="10.00">&#45;Type/R&#45;Type/Client</text>
<text text-anchor="middle" x="1499" y="-7" font-family="Helvetica,sans-Serif" font-size="10.00">/src/scenes/JoinGame.cpp</text>
</a>
</g>
</g>
<!-- Node10&#45;&gt;Node11 -->
<g id="edge10_Node000010_Node000011" class="edge">
<title>Node10&#45;&gt;Node11</title>
<g id="a_edge10_Node000010_Node000011"><a xlink:title=" ">
<path fill="none" stroke="#63b8ff" d="M1499,-66.69C1499,-58.08 1499,-48.9 1499,-41.07"/>
<polygon fill="#63b8ff" stroke="#63b8ff" points="1495.5,-66.79 1499,-76.79 1502.5,-66.79 1495.5,-66.79"/>
</a>
</g>
</g>
<!-- Node13 -->
<g id="Node000013" class="node">
<title>Node13</title>
<g id="a_Node000013"><a xlink:href="LevelScene_8cpp.html" target="_top" xlink:title=" ">
<polygon fill="white" stroke="#666666" points="1737.5,-41 1588.5,-41 1588.5,0 1737.5,0 1737.5,-41"/>
<text text-anchor="start" x="1596.5" y="-29" font-family="Helvetica,sans-Serif" font-size="10.00">/home/runner/work/R</text>
<text text-anchor="start" x="1596.5" y="-18" font-family="Helvetica,sans-Serif" font-size="10.00">&#45;Type/R&#45;Type/Client</text>
<text text-anchor="middle" x="1663" y="-7" font-family="Helvetica,sans-Serif" font-size="10.00">/src/scenes/LevelScene.cpp</text>
</a>
</g>
</g>
<!-- Node12&#45;&gt;Node13 -->
<g id="edge12_Node000012_Node000013" class="edge">
<title>Node12&#45;&gt;Node13</title>
<g id="a_edge12_Node000012_Node000013"><a xlink:title=" ">
<path fill="none" stroke="#63b8ff" d="M1663,-66.69C1663,-58.08 1663,-48.9 1663,-41.07"/>
<polygon fill="#63b8ff" stroke="#63b8ff" points="1659.5,-66.79 1663,-76.79 1666.5,-66.79 1659.5,-66.79"/>
</a>
</g>
</g>
<!-- Node15 -->
<g id="Node000015" class="node">
<title>Node15</title>
<g id="a_Node000015"><a xlink:href="Lobby_8cpp.html" target="_top" xlink:title=" ">
<polygon fill="white" stroke="#666666" points="1878,-41 1756,-41 1756,0 1878,0 1878,-41"/>
<text text-anchor="start" x="1764" y="-29" font-family="Helvetica,sans-Serif" font-size="10.00">/home/runner/work/R</text>
<text text-anchor="start" x="1764" y="-18" font-family="Helvetica,sans-Serif" font-size="10.00">&#45;Type/R&#45;Type/Client</text>
<text text-anchor="middle" x="1817" y="-7" font-family="Helvetica,sans-Serif" font-size="10.00">/src/scenes/Lobby.cpp</text>
</a>
</g>
</g>
<!-- Node14&#45;&gt;Node15 -->
<g id="edge14_Node000014_Node000015" class="edge">
<title>Node14&#45;&gt;Node15</title>
<g id="a_edge14_Node000014_Node000015"><a xlink:title=" ">
<path fill="none" stroke="#63b8ff" d="M1817,-66.69C1817,-58.08 1817,-48.9 1817,-41.07"/>
<polygon fill="#63b8ff" stroke="#63b8ff" points="1813.5,-66.79 1817,-76.79 1820.5,-66.79 1813.5,-66.79"/>
</a>
</g>
</g>
<!-- Node17 -->
<g id="Node000017" class="node">
<title>Node17</title>
<g id="a_Node000017"><a xlink:href="LobbyInfo_8cpp.html" target="_top" xlink:title=" ">
<polygon fill="white" stroke="#666666" points="2039,-41 1897,-41 1897,0 2039,0 2039,-41"/>
<text text-anchor="start" x="1905" y="-29" font-family="Helvetica,sans-Serif" font-size="10.00">/home/runner/work/R</text>
<text text-anchor="start" x="1905" y="-18" font-family="Helvetica,sans-Serif" font-size="10.00">&#45;Type/R&#45;Type/Client</text>
<text text-anchor="middle" x="1968" y="-7" font-family="Helvetica,sans-Serif" font-size="10.00">/src/scenes/LobbyInfo.cpp</text>
</a>
</g>
</g>
<!-- Node16&#45;&gt;Node17 -->
<g id="edge16_Node000016_Node000017" class="edge">
<title>Node16&#45;&gt;Node17</title>
<g id="a_edge16_Node000016_Node000017"><a xlink:title=" ">
<path fill="none" stroke="#63b8ff" d="M1968,-66.69C1968,-58.08 1968,-48.9 1968,-41.07"/>
<polygon fill="#63b8ff" stroke="#63b8ff" points="1964.5,-66.79 1968,-76.79 1971.5,-66.79 1964.5,-66.79"/>
</a>
</g>
</g>
<!-- Node19 -->
<g id="Node000019" class="node">
<title>Node19</title>
<g id="a_Node000019"><a xlink:href="LobbyJoin_8cpp.html" target="_top" xlink:title=" ">
<polygon fill="white" stroke="#666666" points="2199.5,-41 2058.5,-41 2058.5,0 2199.5,0 2199.5,-41"/>
<text text-anchor="start" x="2066.5" y="-29" font-family="Helvetica,sans-Serif" font-size="10.00">/home/runner/work/R</text>
<text text-anchor="start" x="2066.5" y="-18" font-family="Helvetica,sans-Serif" font-size="10.00">&#45;Type/R&#45;Type/Client</text>
<text text-anchor="middle" x="2129" y="-7" font-family="Helvetica,sans-Serif" font-size="10.00">/src/scenes/LobbyJoin.cpp</text>
</a>
</g>
</g>
<!-- Node18&#45;&gt;Node19 -->
<g id="edge18_Node000018_Node000019" class="edge">
<title>Node18&#45;&gt;Node19</title>
<g id="a_edge18_Node000018_Node000019"><a xlink:title=" ">
<path fill="none" stroke="#63b8ff" d="M2129,-66.69C2129,-58.08 2129,-48.9 2129,-41.07"/>
<polygon fill="#63b8ff" stroke="#63b8ff" points="2125.5,-66.79 2129,-76.79 2132.5,-66.79 2125.5,-66.79"/>
</a>
</g>
</g>
<!-- Node21 -->
<g id="Node000021" class="node">
<title>Node21</title>
<g id="a_Node000021"><a xlink:href="LobbyPassword_8cpp.html" target="_top" xlink:title=" ">
<polygon fill="white" stroke="#666666" points="2387.5,-41 2218.5,-41 2218.5,0 2387.5,0 2387.5,-41"/>
<text text-anchor="start" x="2226.5" y="-29" font-family="Helvetica,sans-Serif" font-size="10.00">/home/runner/work/R</text>
<text text-anchor="start" x="2226.5" y="-18" font-family="Helvetica,sans-Serif" font-size="10.00">&#45;Type/R&#45;Type/Client</text>
<text text-anchor="middle" x="2303" y="-7" font-family="Helvetica,sans-Serif" font-size="10.00">/src/scenes/LobbyPassword.cpp</text>
</a>
</g>
</g>
<!-- Node20&#45;&gt;Node21 -->
<g id="edge20_Node000020_Node000021" class="edge">
<title>Node20&#45;&gt;Node21</title>
<g id="a_edge20_Node000020_Node000021"><a xlink:title=" ">
<path fill="none" stroke="#63b8ff" d="M2303,-66.69C2303,-58.08 2303,-48.9 2303,-41.07"/>
<polygon fill="#63b8ff" stroke="#63b8ff" points="2299.5,-66.79 2303,-76.79 2306.5,-66.79 2299.5,-66.79"/>
</a>
</g>
</g>
<!-- Node23 -->
<g id="Node000023" class="node">
<title>Node23</title>
<g id="a_Node000023"><a xlink:href="MainGame_8cpp.html" target="_top" xlink:title=" ">
<polygon fill="white" stroke="#666666" points="2553.5,-41 2406.5,-41 2406.5,0 2553.5,0 2553.5,-41"/>
<text text-anchor="start" x="2414.5" y="-29" font-family="Helvetica,sans-Serif" font-size="10.00">/home/runner/work/R</text>
<text text-anchor="start" x="2414.5" y="-18" font-family="Helvetica,sans-Serif" font-size="10.00">&#45;Type/R&#45;Type/Client</text>
<text text-anchor="middle" x="2480" y="-7" font-family="Helvetica,sans-Serif" font-size="10.00">/src/scenes/MainGame.cpp</text>
</a>
</g>
</g>
<!-- Node22&#45;&gt;Node23 -->
<g id="edge22_Node000022_Node000023" class="edge">
<title>Node22&#45;&gt;Node23</title>
<g id="a_edge22_Node000022_Node000023"><a xlink:title=" ">
<path fill="none" stroke="#63b8ff" d="M2480,-66.69C2480,-58.08 2480,-48.9 2480,-41.07"/>
<polygon fill="#63b8ff" stroke="#63b8ff" points="2476.5,-66.79 2480,-76.79 2483.5,-66.79 2476.5,-66.79"/>
</a>
</g>
</g>
<!-- Node25 -->
<g id="Node000025" class="node">
<title>Node25</title>
<g id="a_Node000025"><a xlink:href="MainMenu_8cpp.html" target="_top" xlink:title=" ">
<polygon fill="white" stroke="#666666" points="2717.5,-41 2572.5,-41 2572.5,0 2717.5,0 2717.5,-41"/>
<text text-anchor="start" x="2580.5" y="-29" font-family="Helvetica,sans-Serif" font-size="10.00">/home/runner/work/R</text>
<text text-anchor="start" x="2580.5" y="-18" font-family="Helvetica,sans-Serif" font-size="10.00">&#45;Type/R&#45;Type/Client</text>
<text text-anchor="middle" x="2645" y="-7" font-family="Helvetica,sans-Serif" font-size="10.00">/src/scenes/MainMenu.cpp</text>
</a>
</g>
</g>
<!-- Node24&#45;&gt;Node25 -->
<g id="edge24_Node000024_Node000025" class="edge">
<title>Node24&#45;&gt;Node25</title>
<g id="a_edge24_Node000024_Node000025"><a xlink:title=" ">
<path fill="none" stroke="#63b8ff" d="M2645,-66.69C2645,-58.08 2645,-48.9 2645,-41.07"/>
<polygon fill="#63b8ff" stroke="#63b8ff" points="2641.5,-66.79 2645,-76.79 2648.5,-66.79 2641.5,-66.79"/>
</a>
</g>
</g>
<!-- Node27 -->
<g id="Node000027" class="node">
<title>Node27</title>
<g id="a_Node000027"><a xlink:href="Options_8cpp.html" target="_top" xlink:title=" ">
<polygon fill="white" stroke="#666666" points="2867.5,-41 2736.5,-41 2736.5,0 2867.5,0 2867.5,-41"/>
<text text-anchor="start" x="2744.5" y="-29" font-family="Helvetica,sans-Serif" font-size="10.00">/home/runner/work/R</text>
<text text-anchor="start" x="2744.5" y="-18" font-family="Helvetica,sans-Serif" font-size="10.00">&#45;Type/R&#45;Type/Client</text>
<text text-anchor="middle" x="2802" y="-7" font-family="Helvetica,sans-Serif" font-size="10.00">/src/scenes/Options.cpp</text>
</a>
</g>
</g>
<!-- Node26&#45;&gt;Node27 -->
<g id="edge26_Node000026_Node000027" class="edge">
<title>Node26&#45;&gt;Node27</title>
<g id="a_edge26_Node000026_Node000027"><a xlink:title=" ">
<path fill="none" stroke="#63b8ff" d="M2802,-66.69C2802,-58.08 2802,-48.9 2802,-41.07"/>
<polygon fill="#63b8ff" stroke="#63b8ff" points="2798.5,-66.79 2802,-76.79 2805.5,-66.79 2798.5,-66.79"/>
</a>
</g>
</g>
<!-- Node29 -->
<g id="Node000029" class="node">
<title>Node29</title>
<g id="a_Node000029"><a xlink:href="RtypeScene_8cpp.html" target="_top" xlink:title=" ">
<polygon fill="white" stroke="#666666" points="3415,-41 3263,-41 3263,0 3415,0 3415,-41"/>
<text text-anchor="start" x="3271" y="-29" font-family="Helvetica,sans-Serif" font-size="10.00">/home/runner/work/R</text>
<text text-anchor="start" x="3271" y="-18" font-family="Helvetica,sans-Serif" font-size="10.00">&#45;Type/R&#45;Type/Client</text>
<text text-anchor="middle" x="3339" y="-7" font-family="Helvetica,sans-Serif" font-size="10.00">/src/scenes/RtypeScene.cpp</text>
</a>
</g>
</g>
<!-- Node28&#45;&gt;Node29 -->
<g id="edge28_Node000028_Node000029" class="edge">
<title>Node28&#45;&gt;Node29</title>
<g id="a_edge28_Node000028_Node000029"><a xlink:title=" ">
<path fill="none" stroke="#63b8ff" d="M3198.51,-73.4C3226.56,-63.04 3259.3,-50.95 3286.11,-41.04"/>
<polygon fill="#63b8ff" stroke="#63b8ff" points="3196.97,-70.24 3188.81,-76.99 3199.4,-76.81 3196.97,-70.24"/>
</a>
</g>
</g>
<!-- Node31 -->
<g id="Node000031" class="node">
<title>Node31</title>
<g id="a_Node000031"><a xlink:href="SecondGameClient_8cpp.html" target="_top" xlink:title=" ">
<polygon fill="white" stroke="#666666" points="351.5,-41 164.5,-41 164.5,0 351.5,0 351.5,-41"/>
<text text-anchor="start" x="172.5" y="-29" font-family="Helvetica,sans-Serif" font-size="10.00">/home/runner/work/R</text>
<text text-anchor="start" x="172.5" y="-18" font-family="Helvetica,sans-Serif" font-size="10.00">&#45;Type/R&#45;Type/Client</text>
<text text-anchor="middle" x="258" y="-7" font-family="Helvetica,sans-Serif" font-size="10.00">/src/scenes/SecondGameClient.cpp</text>
</a>
</g>
</g>
<!-- Node30&#45;&gt;Node31 -->
<g id="edge30_Node000030_Node000031" class="edge">
<title>Node30&#45;&gt;Node31</title>
<g id="a_edge30_Node000030_Node000031"><a xlink:title=" ">
<path fill="none" stroke="#63b8ff" d="M258,-66.69C258,-58.08 258,-48.9 258,-41.07"/>
<polygon fill="#63b8ff" stroke="#63b8ff" points="254.5,-66.79 258,-76.79 261.5,-66.79 254.5,-66.79"/>
</a>
</g>
</g>
<!-- Node33 -->
<g id="Node000033" class="node">
<title>Node33</title>
<g id="a_Node000033"><a xlink:href="Victory_8cpp.html" target="_top" xlink:title=" ">
<polygon fill="white" stroke="#666666" points="497.5,-41 370.5,-41 370.5,0 497.5,0 497.5,-41"/>
<text text-anchor="start" x="378.5" y="-29" font-family="Helvetica,sans-Serif" font-size="10.00">/home/runner/work/R</text>
<text text-anchor="start" x="378.5" y="-18" font-family="Helvetica,sans-Serif" font-size="10.00">&#45;Type/R&#45;Type/Client</text>
<text text-anchor="middle" x="434" y="-7" font-family="Helvetica,sans-Serif" font-size="10.00">/src/scenes/Victory.cpp</text>
</a>
</g>
</g>
<!-- Node32&#45;&gt;Node33 -->
<g id="edge32_Node000032_Node000033" class="edge">
<title>Node32&#45;&gt;Node33</title>
<g id="a_edge32_Node000032_Node000033"><a xlink:title=" ">
<path fill="none" stroke="#63b8ff" d="M434,-66.69C434,-58.08 434,-48.9 434,-41.07"/>
<polygon fill="#63b8ff" stroke="#63b8ff" points="430.5,-66.79 434,-76.79 437.5,-66.79 430.5,-66.79"/>
</a>
</g>
</g>
<!-- Node35 -->
<g id="Node000035" class="node">
<title>Node35</title>
<g id="a_Node000035"><a xlink:href="WaitLobby_8cpp.html" target="_top" xlink:title=" ">
<polygon fill="white" stroke="#666666" points="659.5,-41 516.5,-41 516.5,0 659.5,0 659.5,-41"/>
<text text-anchor="start" x="524.5" y="-29" font-family="Helvetica,sans-Serif" font-size="10.00">/home/runner/work/R</text>
<text text-anchor="start" x="524.5" y="-18" font-family="Helvetica,sans-Serif" font-size="10.00">&#45;Type/R&#45;Type/Client</text>
<text text-anchor="middle" x="588" y="-7" font-family="Helvetica,sans-Serif" font-size="10.00">/src/scenes/WaitLobby.cpp</text>
</a>
</g>
</g>
<!-- Node34&#45;&gt;Node35 -->
<g id="edge34_Node000034_Node000035" class="edge">
<title>Node34&#45;&gt;Node35</title>
<g id="a_edge34_Node000034_Node000035"><a xlink:title=" ">
<path fill="none" stroke="#63b8ff" d="M588,-66.69C588,-58.08 588,-48.9 588,-41.07"/>
<polygon fill="#63b8ff" stroke="#63b8ff" points="584.5,-66.79 588,-76.79 591.5,-66.79 584.5,-66.79"/>
</a>
</g>
</g>
<!-- Node41&#45;&gt;Node3 -->
<g id="edge44_Node000041_Node000003" class="edge">
<title>Node41&#45;&gt;Node3</title>
<g id="a_edge44_Node000041_Node000003"><a xlink:title=" ">
<path fill="none" stroke="#63b8ff" d="M3424.36,-145.39C3430.31,-136.3 3436.76,-126.41 3442.21,-118.07"/>
<polygon fill="#63b8ff" stroke="#63b8ff" points="3421.41,-143.51 3418.87,-153.79 3427.27,-147.34 3421.41,-143.51"/>
</a>
</g>
</g>
<!-- Node41&#45;&gt;Node29 -->
<g id="edge43_Node000041_Node000029" class="edge">
<title>Node41&#45;&gt;Node29</title>
<g id="a_edge43_Node000041_Node000029"><a xlink:title=" ">
<path fill="none" stroke="#63b8ff" d="M3489.32,-149.14C3503.08,-141.39 3515.59,-131.25 3524,-118 3533.77,-102.62 3534.88,-91.62 3524,-77 3510.54,-58.91 3460.16,-44.51 3415.36,-34.91"/>
<polygon fill="#63b8ff" stroke="#63b8ff" points="3487.39,-146.19 3480.12,-153.89 3490.61,-152.41 3487.39,-146.19"/>
</a>
</g>
</g>
<!-- Node41&#45;&gt;Node37 -->
<g id="edge45_Node000041_Node000037" class="edge">
<title>Node41&#45;&gt;Node37</title>
<g id="a_edge45_Node000041_Node000037"><a xlink:title=" ">
<path fill="none" stroke="#63b8ff" d="M3371.07,-147.82C3357.88,-138.11 3343.08,-127.24 3330.75,-118.17"/>
<polygon fill="#63b8ff" stroke="#63b8ff" points="3369.34,-150.89 3379.47,-153.99 3373.48,-145.25 3369.34,-150.89"/>
</a>
</g>
</g>
</g>
</svg>
