<?xml version="1.0" encoding="UTF-8" standalone="no"?>
<!DOCTYPE svg PUBLIC "-//W3C//DTD SVG 1.1//EN"
 "http://www.w3.org/Graphics/SVG/1.1/DTD/svg11.dtd">
<!-- Generated by graphviz version 2.43.0 (0)
 -->
<!-- Title: /home/runner/work/R&#45;Type/R&#45;Type/Shared/systems/LevelSystem.hpp Pages: 1 -->
<svg width="403pt" height="214pt"
 viewBox="0.00 0.00 403.00 214.00" xmlns="http://www.w3.org/2000/svg" xmlns:xlink="http://www.w3.org/1999/xlink">
<g id="graph0" class="graph" transform="scale(1 1) rotate(0) translate(4 210)">
<title>/home/runner/work/R&#45;Type/R&#45;Type/Shared/systems/LevelSystem.hpp</title>
<!-- Node1 -->
<g id="Node000001" class="node">
<title>Node1</title>
<g id="a_Node000001"><a xlink:title=" ">
<polygon fill="#999999" stroke="#666666" points="215.5,-206 67.5,-206 67.5,-165 215.5,-165 215.5,-206"/>
<text text-anchor="start" x="75.5" y="-194" font-family="Helvetica,sans-Serif" font-size="10.00">/home/runner/work/R</text>
<text text-anchor="start" x="75.5" y="-183" font-family="Helvetica,sans-Serif" font-size="10.00">&#45;Type/R&#45;Type/Shared</text>
<text text-anchor="middle" x="141.5" y="-172" font-family="Helvetica,sans-Serif" font-size="10.00">/systems/LevelSystem.hpp</text>
</a>
</g>
</g>
<!-- Node2 -->
<g id="Node000002" class="node">
<title>Node2</title>
<g id="a_Node000002"><a xlink:title=" ">
<polygon fill="#e0e0e0" stroke="#999999" points="47,-74 0,-74 0,-55 47,-55 47,-74"/>
<text text-anchor="middle" x="23.5" y="-62" font-family="Helvetica,sans-Serif" font-size="10.00">vector</text>
</a>
</g>
</g>
<!-- Node1&#45;&gt;Node2 -->
<g id="edge1_Node000001_Node000002" class="edge">
<title>Node1&#45;&gt;Node2</title>
<g id="a_edge1_Node000001_Node000002"><a xlink:title=" ">
<path fill="none" stroke="#63b8ff" d="M110.04,-164.77C95.84,-155.01 79.39,-142.44 66.5,-129 53.15,-115.08 41.14,-96.59 33.23,-83.15"/>
<polygon fill="#63b8ff" stroke="#63b8ff" points="36.23,-81.34 28.23,-74.39 30.15,-84.81 36.23,-81.34"/>
</a>
</g>
</g>
<!-- Node3 -->
<g id="Node000003" class="node">
<title>Node3</title>
<g id="a_Node000003"><a xlink:href="Levels_8hpp.html" target="_top" xlink:title=" ">
<polygon fill="white" stroke="#666666" points="207.5,-129 75.5,-129 75.5,-110 207.5,-110 207.5,-129"/>
<text text-anchor="middle" x="141.5" y="-117" font-family="Helvetica,sans-Serif" font-size="10.00">components/Levels.hpp</text>
</a>
</g>
</g>
<!-- Node1&#45;&gt;Node3 -->
<g id="edge2_Node000001_Node000003" class="edge">
<title>Node1&#45;&gt;Node3</title>
<g id="a_edge2_Node000001_Node000003"><a xlink:title=" ">
<path fill="none" stroke="#63b8ff" d="M141.5,-164.95C141.5,-156.85 141.5,-147.5 141.5,-139.47"/>
<polygon fill="#63b8ff" stroke="#63b8ff" points="145,-139.26 141.5,-129.26 138,-139.26 145,-139.26"/>
</a>
</g>
</g>
<!-- Node9 -->
<g id="Node000009" class="node">
<title>Node9</title>
<g id="a_Node000009"><a xlink:title=" ">
<polygon fill="#e0e0e0" stroke="#999999" points="321.5,-129 225.5,-129 225.5,-110 321.5,-110 321.5,-129"/>
<text text-anchor="middle" x="273.5" y="-117" font-family="Helvetica,sans-Serif" font-size="10.00">ecs/Registry.hpp</text>
</a>
</g>
</g>
<!-- Node1&#45;&gt;Node9 -->
<g id="edge11_Node000001_Node000009" class="edge">
<title>Node1&#45;&gt;Node9</title>
<g id="a_edge11_Node000001_Node000009"><a xlink:title=" ">
<path fill="none" stroke="#63b8ff" d="M181.82,-164.95C202.87,-154.75 228.04,-142.54 246.68,-133.5"/>
<polygon fill="#63b8ff" stroke="#63b8ff" points="248.31,-136.6 255.78,-129.09 245.25,-130.31 248.31,-136.6"/>
</a>
</g>
</g>
<!-- Node3&#45;&gt;Node2 -->
<g id="edge4_Node000003_Node000002" class="edge">
<title>Node3&#45;&gt;Node2</title>
<g id="a_edge4_Node000003_Node000002"><a xlink:title=" ">
<path fill="none" stroke="#63b8ff" d="M122.54,-109.98C103.47,-101.42 73.84,-88.11 51.95,-78.28"/>
<polygon fill="#63b8ff" stroke="#63b8ff" points="53.36,-75.07 42.8,-74.17 50.49,-81.46 53.36,-75.07"/>
</a>
</g>
</g>
<!-- Node4 -->
<g id="Node000004" class="node">
<title>Node4</title>
<g id="a_Node000004"><a xlink:title=" ">
<polygon fill="#e0e0e0" stroke="#999999" points="121.5,-74 65.5,-74 65.5,-55 121.5,-55 121.5,-74"/>
<text text-anchor="middle" x="93.5" y="-62" font-family="Helvetica,sans-Serif" font-size="10.00">optional</text>
</a>
</g>
</g>
<!-- Node3&#45;&gt;Node4 -->
<g id="edge3_Node000003_Node000004" class="edge">
<title>Node3&#45;&gt;Node4</title>
<g id="a_edge3_Node000003_Node000004"><a xlink:title=" ">
<path fill="none" stroke="#63b8ff" d="M133.57,-109.75C126.65,-102.11 116.43,-90.82 108.05,-81.56"/>
<polygon fill="#63b8ff" stroke="#63b8ff" points="110.59,-79.15 101.28,-74.09 105.4,-83.85 110.59,-79.15"/>
</a>
</g>
</g>
<!-- Node5 -->
<g id="Node000005" class="node">
<title>Node5</title>
<g id="a_Node000005"><a xlink:href="Boss_8hpp.html" target="_top" xlink:title=" ">
<polygon fill="white" stroke="#666666" points="395,-74 300,-74 300,-55 395,-55 395,-74"/>
<text text-anchor="middle" x="347.5" y="-62" font-family="Helvetica,sans-Serif" font-size="10.00">Player/Boss.hpp</text>
</a>
</g>
</g>
<!-- Node3&#45;&gt;Node5 -->
<g id="edge5_Node000003_Node000005" class="edge">
<title>Node3&#45;&gt;Node5</title>
<g id="a_edge5_Node000003_Node000005"><a xlink:title=" ">
<path fill="none" stroke="#63b8ff" d="M174.6,-109.98C209.78,-100.93 265.57,-86.58 304.22,-76.64"/>
<polygon fill="#63b8ff" stroke="#63b8ff" points="305.33,-79.96 314.14,-74.08 303.59,-73.18 305.33,-79.96"/>
</a>
</g>
</g>
<!-- Node6 -->
<g id="Node000006" class="node">
<title>Node6</title>
<g id="a_Node000006"><a xlink:title=" ">
<polygon fill="#e0e0e0" stroke="#999999" points="290.5,-19 162.5,-19 162.5,0 290.5,0 290.5,-19"/>
<text text-anchor="middle" x="226.5" y="-7" font-family="Helvetica,sans-Serif" font-size="10.00">physics/Physics2D.hpp</text>
</a>
</g>
</g>
<!-- Node3&#45;&gt;Node6 -->
<g id="edge10_Node000003_Node000006" class="edge">
<title>Node3&#45;&gt;Node6</title>
<g id="a_edge10_Node000003_Node000006"><a xlink:title=" ">
<path fill="none" stroke="#63b8ff" d="M143.62,-109.97C147.13,-97.06 155.15,-72.23 168.5,-55 177.82,-42.97 191.14,-32.44 202.66,-24.65"/>
<polygon fill="#63b8ff" stroke="#63b8ff" points="204.9,-27.37 211.41,-19.02 201.11,-21.49 204.9,-27.37"/>
</a>
</g>
</g>
<!-- Node8 -->
<g id="Node000008" class="node">
<title>Node8</title>
<g id="a_Node000008"><a xlink:href="Enemy_8hpp.html" target="_top" xlink:title=" ">
<polygon fill="white" stroke="#666666" points="281.5,-74 177.5,-74 177.5,-55 281.5,-55 281.5,-74"/>
<text text-anchor="middle" x="229.5" y="-62" font-family="Helvetica,sans-Serif" font-size="10.00">Player/Enemy.hpp</text>
</a>
</g>
</g>
<!-- Node3&#45;&gt;Node8 -->
<g id="edge8_Node000003_Node000008" class="edge">
<title>Node3&#45;&gt;Node8</title>
<g id="a_edge8_Node000003_Node000008"><a xlink:title=" ">
<path fill="none" stroke="#63b8ff" d="M155.64,-109.98C169.29,-101.77 190.19,-89.18 206.28,-79.49"/>
<polygon fill="#63b8ff" stroke="#63b8ff" points="208.34,-82.33 215.1,-74.17 204.73,-76.33 208.34,-82.33"/>
</a>
</g>
</g>
<!-- Node5&#45;&gt;Node6 -->
<g id="edge6_Node000005_Node000006" class="edge">
<title>Node5&#45;&gt;Node6</title>
<g id="a_edge6_Node000005_Node000006"><a xlink:title=" ">
<path fill="none" stroke="#63b8ff" d="M328.06,-54.98C308.51,-46.42 278.12,-33.11 255.68,-23.28"/>
<polygon fill="#63b8ff" stroke="#63b8ff" points="256.86,-19.98 246.29,-19.17 254.05,-26.39 256.86,-19.98"/>
</a>
</g>
</g>
<!-- Node7 -->
<g id="Node000007" class="node">
<title>Node7</title>
<g id="a_Node000007"><a xlink:title=" ">
<polygon fill="#e0e0e0" stroke="#999999" points="392.5,-19 308.5,-19 308.5,0 392.5,0 392.5,-19"/>
<text text-anchor="middle" x="350.5" y="-7" font-family="Helvetica,sans-Serif" font-size="10.00">ecs/Entity.hpp</text>
</a>
</g>
</g>
<!-- Node5&#45;&gt;Node7 -->
<g id="edge7_Node000005_Node000007" class="edge">
<title>Node5&#45;&gt;Node7</title>
<g id="a_edge7_Node000005_Node000007"><a xlink:title=" ">
<path fill="none" stroke="#63b8ff" d="M348,-54.75C348.39,-47.8 348.95,-37.85 349.45,-29.13"/>
<polygon fill="#63b8ff" stroke="#63b8ff" points="352.94,-29.27 350.01,-19.09 345.95,-28.88 352.94,-29.27"/>
</a>
</g>
</g>
<!-- Node8&#45;&gt;Node6 -->
<g id="edge9_Node000008_Node000006" class="edge">
<title>Node8&#45;&gt;Node6</title>
<g id="a_edge9_Node000008_Node000006"><a xlink:title=" ">
<path fill="none" stroke="#63b8ff" d="M229,-54.75C228.61,-47.8 228.05,-37.85 227.55,-29.13"/>
<polygon fill="#63b8ff" stroke="#63b8ff" points="231.05,-28.88 226.99,-19.09 224.06,-29.27 231.05,-28.88"/>
</a>
</g>
</g>
</g>
</svg>
