<?xml version="1.0" encoding="UTF-8" standalone="no"?>
<!DOCTYPE svg PUBLIC "-//W3C//DTD SVG 1.1//EN"
 "http://www.w3.org/Graphics/SVG/1.1/DTD/svg11.dtd">
<!-- Generated by graphviz version 2.43.0 (0)
 -->
<!-- Title: /home/runner/work/R&#45;Type/R&#45;Type/Client/src/scenes/LobbyInfo.cpp Pages: 1 -->
<svg width="2847pt" height="379pt"
 viewBox="0.00 0.00 2846.50 379.00" xmlns="http://www.w3.org/2000/svg" xmlns:xlink="http://www.w3.org/1999/xlink">
<g id="graph0" class="graph" transform="scale(1 1) rotate(0) translate(4 375)">
<title>/home/runner/work/R&#45;Type/R&#45;Type/Client/src/scenes/LobbyInfo.cpp</title>
<!-- Node1 -->
<g id="Node000001" class="node">
<title>Node1</title>
<g id="a_Node000001"><a xlink:title=" ">
<polygon fill="#999999" stroke="#666666" points="1899,-371 1757,-371 1757,-330 1899,-330 1899,-371"/>
<text text-anchor="start" x="1765" y="-359" font-family="Helvetica,sans-Serif" font-size="10.00">/home/runner/work/R</text>
<text text-anchor="start" x="1765" y="-348" font-family="Helvetica,sans-Serif" font-size="10.00">&#45;Type/R&#45;Type/Client</text>
<text text-anchor="middle" x="1828" y="-337" font-family="Helvetica,sans-Serif" font-size="10.00">/src/scenes/LobbyInfo.cpp</text>
</a>
</g>
</g>
<!-- Node2 -->
<g id="Node000002" class="node">
<title>Node2</title>
<g id="a_Node000002"><a xlink:href="LobbyInfo_8hpp.html" target="_top" xlink:title=" ">
<polygon fill="white" stroke="#666666" points="1889,-294 1767,-294 1767,-275 1889,-275 1889,-294"/>
<text text-anchor="middle" x="1828" y="-282" font-family="Helvetica,sans-Serif" font-size="10.00">scenes/LobbyInfo.hpp</text>
</a>
</g>
</g>
<!-- Node1&#45;&gt;Node2 -->
<g id="edge1_Node000001_Node000002" class="edge">
<title>Node1&#45;&gt;Node2</title>
<g id="a_edge1_Node000001_Node000002"><a xlink:title=" ">
<path fill="none" stroke="#63b8ff" d="M1828,-329.95C1828,-321.85 1828,-312.5 1828,-304.47"/>
<polygon fill="#63b8ff" stroke="#63b8ff" points="1831.5,-304.26 1828,-294.26 1824.5,-304.26 1831.5,-304.26"/>
</a>
</g>
</g>
<!-- Node3 -->
<g id="Node000003" class="node">
<title>Node3</title>
<g id="a_Node000003"><a xlink:title=" ">
<polygon fill="#e0e0e0" stroke="#999999" points="879,-239 807,-239 807,-220 879,-220 879,-239"/>
<text text-anchor="middle" x="843" y="-227" font-family="Helvetica,sans-Serif" font-size="10.00">SDL2/SDL.h</text>
</a>
</g>
</g>
<!-- Node2&#45;&gt;Node3 -->
<g id="edge2_Node000002_Node000003" class="edge">
<title>Node2&#45;&gt;Node3</title>
<g id="a_edge2_Node000002_Node000003"><a xlink:title=" ">
<path fill="none" stroke="#63b8ff" d="M1766.82,-283.14C1617.22,-281.71 1221.18,-274.57 893,-239 891.74,-238.86 890.47,-238.72 889.19,-238.56"/>
<polygon fill="#63b8ff" stroke="#63b8ff" points="889.63,-235.09 879.25,-237.19 888.68,-242.02 889.63,-235.09"/>
</a>
</g>
</g>
<!-- Node4 -->
<g id="Node000004" class="node">
<title>Node4</title>
<g id="a_Node000004"><a xlink:title=" ">
<polygon fill="#e0e0e0" stroke="#999999" points="60,-184 0,-184 0,-165 60,-165 60,-184"/>
<text text-anchor="middle" x="30" y="-172" font-family="Helvetica,sans-Serif" font-size="10.00">iostream</text>
</a>
</g>
</g>
<!-- Node2&#45;&gt;Node4 -->
<g id="edge3_Node000002_Node000004" class="edge">
<title>Node2&#45;&gt;Node4</title>
<g id="a_edge3_Node000002_Node000004"><a xlink:title=" ">
<path fill="none" stroke="#63b8ff" d="M1766.98,-282.17C1576.63,-277.77 1001.6,-262.67 921,-239 904.76,-234.23 904.25,-224.73 888,-220 716.07,-169.97 265.41,-206.2 70.1,-183.82"/>
<polygon fill="#63b8ff" stroke="#63b8ff" points="70.5,-180.35 60.14,-182.6 69.64,-187.29 70.5,-180.35"/>
</a>
</g>
</g>
<!-- Node5 -->
<g id="Node000005" class="node">
<title>Node5</title>
<g id="a_Node000005"><a xlink:title=" ">
<polygon fill="#e0e0e0" stroke="#999999" points="122,-184 78,-184 78,-165 122,-165 122,-184"/>
<text text-anchor="middle" x="100" y="-172" font-family="Helvetica,sans-Serif" font-size="10.00">string</text>
</a>
</g>
</g>
<!-- Node2&#45;&gt;Node5 -->
<g id="edge4_Node000002_Node000005" class="edge">
<title>Node2&#45;&gt;Node5</title>
<g id="a_edge4_Node000002_Node000005"><a xlink:title=" ">
<path fill="none" stroke="#63b8ff" d="M1766.77,-283.23C1595.94,-282.01 1116.69,-275.36 964,-239 943.67,-234.16 941.34,-224.79 921,-220 754.05,-180.67 320.53,-202.41 150,-184 144.31,-183.39 138.29,-182.54 132.46,-181.61"/>
<polygon fill="#63b8ff" stroke="#63b8ff" points="132.76,-178.11 122.32,-179.89 131.6,-185.01 132.76,-178.11"/>
</a>
</g>
</g>
<!-- Node6 -->
<g id="Node000006" class="node">
<title>Node6</title>
<g id="a_Node000006"><a xlink:title=" ">
<polygon fill="#e0e0e0" stroke="#999999" points="1487.5,-239 1394.5,-239 1394.5,-220 1487.5,-220 1487.5,-239"/>
<text text-anchor="middle" x="1441" y="-227" font-family="Helvetica,sans-Serif" font-size="10.00">unordered_map</text>
</a>
</g>
</g>
<!-- Node2&#45;&gt;Node6 -->
<g id="edge5_Node000002_Node000006" class="edge">
<title>Node2&#45;&gt;Node6</title>
<g id="a_edge5_Node000002_Node000006"><a xlink:title=" ">
<path fill="none" stroke="#63b8ff" d="M1766.95,-275.61C1702.64,-267.22 1598.14,-253.4 1497.75,-239.09"/>
<polygon fill="#63b8ff" stroke="#63b8ff" points="1498.14,-235.61 1487.74,-237.66 1497.15,-242.54 1498.14,-235.61"/>
</a>
</g>
</g>
<!-- Node7 -->
<g id="Node000007" class="node">
<title>Node7</title>
<g id="a_Node000007"><a xlink:title=" ">
<polygon fill="#e0e0e0" stroke="#999999" points="1578.5,-129 1531.5,-129 1531.5,-110 1578.5,-110 1578.5,-129"/>
<text text-anchor="middle" x="1555" y="-117" font-family="Helvetica,sans-Serif" font-size="10.00">vector</text>
</a>
</g>
</g>
<!-- Node2&#45;&gt;Node7 -->
<g id="edge6_Node000002_Node000007" class="edge">
<title>Node2&#45;&gt;Node7</title>
<g id="a_edge6_Node000002_Node000007"><a xlink:title=" ">
<path fill="none" stroke="#63b8ff" d="M1766.61,-281.81C1650.97,-277.99 1410.12,-266.77 1385,-239 1379.34,-232.74 1379.68,-226.56 1385,-220 1433.94,-159.69 1507.06,-244.31 1556,-184 1566.09,-171.57 1564.41,-152.81 1561.07,-138.91"/>
<polygon fill="#63b8ff" stroke="#63b8ff" points="1564.35,-137.65 1558.23,-129.01 1557.62,-139.58 1564.35,-137.65"/>
</a>
</g>
</g>
<!-- Node8 -->
<g id="Node000008" class="node">
<title>Node8</title>
<g id="a_Node000008"><a xlink:href="EntityHelper_8hpp.html" target="_top" xlink:title=" ">
<polygon fill="white" stroke="#666666" points="1111,-239 973,-239 973,-220 1111,-220 1111,-239"/>
<text text-anchor="middle" x="1042" y="-227" font-family="Helvetica,sans-Serif" font-size="10.00">Helpers/EntityHelper.hpp</text>
</a>
</g>
</g>
<!-- Node2&#45;&gt;Node8 -->
<g id="edge7_Node000002_Node000008" class="edge">
<title>Node2&#45;&gt;Node8</title>
<g id="a_edge7_Node000002_Node000008"><a xlink:title=" ">
<path fill="none" stroke="#63b8ff" d="M1766.98,-279.39C1626.07,-269.88 1278.1,-246.42 1121.1,-235.83"/>
<polygon fill="#63b8ff" stroke="#63b8ff" points="1121.25,-232.34 1111.04,-235.16 1120.78,-239.32 1121.25,-232.34"/>
</a>
</g>
</g>
<!-- Node31 -->
<g id="Node000031" class="node">
<title>Node31</title>
<g id="a_Node000031"><a xlink:title=" ">
<polygon fill="#e0e0e0" stroke="#999999" points="1654.5,-239 1505.5,-239 1505.5,-220 1654.5,-220 1654.5,-239"/>
<text text-anchor="middle" x="1580" y="-227" font-family="Helvetica,sans-Serif" font-size="10.00">audio/AudioSubsystem.hpp</text>
</a>
</g>
</g>
<!-- Node2&#45;&gt;Node31 -->
<g id="edge52_Node000002_Node000031" class="edge">
<title>Node2&#45;&gt;Node31</title>
<g id="a_edge52_Node000002_Node000031"><a xlink:title=" ">
<path fill="none" stroke="#63b8ff" d="M1788.15,-274.98C1745.17,-265.8 1676.63,-251.15 1630.04,-241.19"/>
<polygon fill="#63b8ff" stroke="#63b8ff" points="1630.67,-237.75 1620.16,-239.08 1629.21,-244.59 1630.67,-237.75"/>
</a>
</g>
</g>
<!-- Node32 -->
<g id="Node000032" class="node">
<title>Node32</title>
<g id="a_Node000032"><a xlink:title=" ">
<polygon fill="#e0e0e0" stroke="#999999" points="1809,-239 1673,-239 1673,-220 1809,-220 1809,-239"/>
<text text-anchor="middle" x="1741" y="-227" font-family="Helvetica,sans-Serif" font-size="10.00">engine/GameEngine.hpp</text>
</a>
</g>
</g>
<!-- Node2&#45;&gt;Node32 -->
<g id="edge53_Node000002_Node000032" class="edge">
<title>Node2&#45;&gt;Node32</title>
<g id="a_edge53_Node000002_Node000032"><a xlink:title=" ">
<path fill="none" stroke="#63b8ff" d="M1814.02,-274.98C1800.53,-266.77 1779.87,-254.18 1763.96,-244.49"/>
<polygon fill="#63b8ff" stroke="#63b8ff" points="1765.59,-241.38 1755.23,-239.17 1761.95,-247.36 1765.59,-241.38"/>
</a>
</g>
</g>
<!-- Node33 -->
<g id="Node000033" class="node">
<title>Node33</title>
<g id="a_Node000033"><a xlink:title=" ">
<polygon fill="#e0e0e0" stroke="#999999" points="2003,-239 1827,-239 1827,-220 2003,-220 2003,-239"/>
<text text-anchor="middle" x="1915" y="-227" font-family="Helvetica,sans-Serif" font-size="10.00">network/NetworkSubsystem.hpp</text>
</a>
</g>
</g>
<!-- Node2&#45;&gt;Node33 -->
<g id="edge54_Node000002_Node000033" class="edge">
<title>Node2&#45;&gt;Node33</title>
<g id="a_edge54_Node000002_Node000033"><a xlink:title=" ">
<path fill="none" stroke="#63b8ff" d="M1841.98,-274.98C1855.47,-266.77 1876.13,-254.18 1892.04,-244.49"/>
<polygon fill="#63b8ff" stroke="#63b8ff" points="1894.05,-247.36 1900.77,-239.17 1890.41,-241.38 1894.05,-247.36"/>
</a>
</g>
</g>
<!-- Node34 -->
<g id="Node000034" class="node">
<title>Node34</title>
<g id="a_Node000034"><a xlink:title=" ">
<polygon fill="#e0e0e0" stroke="#999999" points="2119,-239 2021,-239 2021,-220 2119,-220 2119,-239"/>
<text text-anchor="middle" x="2070" y="-227" font-family="Helvetica,sans-Serif" font-size="10.00">scene/Scene.hpp</text>
</a>
</g>
</g>
<!-- Node2&#45;&gt;Node34 -->
<g id="edge55_Node000002_Node000034" class="edge">
<title>Node2&#45;&gt;Node34</title>
<g id="a_edge55_Node000002_Node000034"><a xlink:title=" ">
<path fill="none" stroke="#63b8ff" d="M1866.88,-274.98C1908.74,-265.82 1975.43,-251.21 2020.88,-241.26"/>
<polygon fill="#63b8ff" stroke="#63b8ff" points="2021.79,-244.64 2030.81,-239.08 2020.3,-237.8 2021.79,-244.64"/>
</a>
</g>
</g>
<!-- Node35 -->
<g id="Node000035" class="node">
<title>Node35</title>
<g id="a_Node000035"><a xlink:title=" ">
<polygon fill="#e0e0e0" stroke="#999999" points="2277,-239 2137,-239 2137,-220 2277,-220 2277,-239"/>
<text text-anchor="middle" x="2207" y="-227" font-family="Helvetica,sans-Serif" font-size="10.00">scene/SceneManager.hpp</text>
</a>
</g>
</g>
<!-- Node2&#45;&gt;Node35 -->
<g id="edge56_Node000002_Node000035" class="edge">
<title>Node2&#45;&gt;Node35</title>
<g id="a_edge56_Node000002_Node000035"><a xlink:title=" ">
<path fill="none" stroke="#63b8ff" d="M1888.89,-274.98C1956.2,-265.57 2064.5,-250.43 2135.72,-240.47"/>
<polygon fill="#63b8ff" stroke="#63b8ff" points="2136.53,-243.89 2145.94,-239.04 2135.56,-236.96 2136.53,-243.89"/>
</a>
</g>
</g>
<!-- Node36 -->
<g id="Node000036" class="node">
<title>Node36</title>
<g id="a_Node000036"><a xlink:title=" ">
<polygon fill="#e0e0e0" stroke="#999999" points="2387,-239 2295,-239 2295,-220 2387,-220 2387,-239"/>
<text text-anchor="middle" x="2341" y="-227" font-family="Helvetica,sans-Serif" font-size="10.00">ui/UIButton.hpp</text>
</a>
</g>
</g>
<!-- Node2&#45;&gt;Node36 -->
<g id="edge57_Node000002_Node000036" class="edge">
<title>Node2&#45;&gt;Node36</title>
<g id="a_edge57_Node000002_Node000036"><a xlink:title=" ">
<path fill="none" stroke="#63b8ff" d="M1889.24,-278.66C1975.22,-271.61 2136.85,-257.47 2284.65,-239.1"/>
<polygon fill="#63b8ff" stroke="#63b8ff" points="2285.33,-242.55 2294.81,-237.83 2284.46,-235.6 2285.33,-242.55"/>
</a>
</g>
</g>
<!-- Node37 -->
<g id="Node000037" class="node">
<title>Node37</title>
<g id="a_Node000037"><a xlink:title=" ">
<polygon fill="#e0e0e0" stroke="#999999" points="2496.5,-239 2405.5,-239 2405.5,-220 2496.5,-220 2496.5,-239"/>
<text text-anchor="middle" x="2451" y="-227" font-family="Helvetica,sans-Serif" font-size="10.00">ui/UIImage.hpp</text>
</a>
</g>
</g>
<!-- Node2&#45;&gt;Node37 -->
<g id="edge58_Node000002_Node000037" class="edge">
<title>Node2&#45;&gt;Node37</title>
<g id="a_edge58_Node000002_Node000037"><a xlink:title=" ">
<path fill="none" stroke="#63b8ff" d="M1889.09,-280.22C1991.52,-274.4 2204.58,-260.87 2395.48,-238.96"/>
<polygon fill="#63b8ff" stroke="#63b8ff" points="2395.89,-242.44 2405.42,-237.81 2395.08,-235.49 2395.89,-242.44"/>
</a>
</g>
</g>
<!-- Node38 -->
<g id="Node000038" class="node">
<title>Node38</title>
<g id="a_Node000038"><a xlink:title=" ">
<polygon fill="#e0e0e0" stroke="#999999" points="2617,-239 2515,-239 2515,-220 2617,-220 2617,-239"/>
<text text-anchor="middle" x="2566" y="-227" font-family="Helvetica,sans-Serif" font-size="10.00">ui/UIManager.hpp</text>
</a>
</g>
</g>
<!-- Node2&#45;&gt;Node38 -->
<g id="edge59_Node000002_Node000038" class="edge">
<title>Node2&#45;&gt;Node38</title>
<g id="a_edge59_Node000002_Node000038"><a xlink:title=" ">
<path fill="none" stroke="#63b8ff" d="M1889.37,-281.02C2006.8,-275.94 2271.61,-262.85 2504.93,-239.03"/>
<polygon fill="#63b8ff" stroke="#63b8ff" points="2505.38,-242.5 2514.97,-238 2504.66,-235.54 2505.38,-242.5"/>
</a>
</g>
</g>
<!-- Node39 -->
<g id="Node000039" class="node">
<title>Node39</title>
<g id="a_Node000039"><a xlink:title=" ">
<polygon fill="#e0e0e0" stroke="#999999" points="2715,-239 2635,-239 2635,-220 2715,-220 2715,-239"/>
<text text-anchor="middle" x="2675" y="-227" font-family="Helvetica,sans-Serif" font-size="10.00">ui/UIText.hpp</text>
</a>
</g>
</g>
<!-- Node2&#45;&gt;Node39 -->
<g id="edge60_Node000002_Node000039" class="edge">
<title>Node2&#45;&gt;Node39</title>
<g id="a_edge60_Node000002_Node000039"><a xlink:title=" ">
<path fill="none" stroke="#63b8ff" d="M1889.02,-282.51C2021.3,-279.84 2344.48,-270.5 2624.98,-238.97"/>
<polygon fill="#63b8ff" stroke="#63b8ff" points="2625.4,-242.44 2634.94,-237.84 2624.61,-235.49 2625.4,-242.44"/>
</a>
</g>
</g>
<!-- Node40 -->
<g id="Node000040" class="node">
<title>Node40</title>
<g id="a_Node000040"><a xlink:title=" ">
<polygon fill="#e0e0e0" stroke="#999999" points="2838.5,-239 2733.5,-239 2733.5,-220 2838.5,-220 2838.5,-239"/>
<text text-anchor="middle" x="2786" y="-227" font-family="Helvetica,sans-Serif" font-size="10.00">ui/UITextInput.hpp</text>
</a>
</g>
</g>
<!-- Node2&#45;&gt;Node40 -->
<g id="edge61_Node000002_Node000040" class="edge">
<title>Node2&#45;&gt;Node40</title>
<g id="a_edge61_Node000002_Node000040"><a xlink:title=" ">
<path fill="none" stroke="#63b8ff" d="M1889.24,-282.29C2032.89,-279.05 2402.88,-268.41 2722.86,-239.01"/>
<polygon fill="#63b8ff" stroke="#63b8ff" points="2723.64,-242.45 2733.27,-238.05 2722.99,-235.48 2723.64,-242.45"/>
</a>
</g>
</g>
<!-- Node8&#45;&gt;Node4 -->
<g id="edge8_Node000008_Node000004" class="edge">
<title>Node8&#45;&gt;Node4</title>
<g id="a_edge8_Node000008_Node000004"><a xlink:title=" ">
<path fill="none" stroke="#63b8ff" d="M972.91,-223.31C955.94,-222.13 937.82,-220.95 921,-220 545.92,-198.91 446.62,-231.94 70.22,-183.9"/>
<polygon fill="#63b8ff" stroke="#63b8ff" points="70.51,-180.41 60.14,-182.61 69.62,-187.36 70.51,-180.41"/>
</a>
</g>
</g>
<!-- Node8&#45;&gt;Node5 -->
<g id="edge9_Node000008_Node000005" class="edge">
<title>Node8&#45;&gt;Node5</title>
<g id="a_edge9_Node000008_Node000005"><a xlink:title=" ">
<path fill="none" stroke="#63b8ff" d="M972.73,-221.1C968.09,-220.7 963.48,-220.33 959,-220 593.84,-193.34 498.66,-234.29 136,-184 134.75,-183.83 133.48,-183.63 132.19,-183.41"/>
<polygon fill="#63b8ff" stroke="#63b8ff" points="132.83,-179.97 122.35,-181.46 131.48,-186.84 132.83,-179.97"/>
</a>
</g>
</g>
<!-- Node8&#45;&gt;Node7 -->
<g id="edge11_Node000008_Node000007" class="edge">
<title>Node8&#45;&gt;Node7</title>
<g id="a_edge11_Node000008_Node000007"><a xlink:title=" ">
<path fill="none" stroke="#63b8ff" d="M1111.01,-226.47C1238.89,-222.09 1502.7,-210 1535,-184 1548.21,-173.36 1552.85,-154.05 1554.4,-139.51"/>
<polygon fill="#63b8ff" stroke="#63b8ff" points="1557.92,-139.33 1555.09,-129.12 1550.93,-138.87 1557.92,-139.33"/>
</a>
</g>
</g>
<!-- Node9 -->
<g id="Node000009" class="node">
<title>Node9</title>
<g id="a_Node000009"><a xlink:title=" ">
<polygon fill="#e0e0e0" stroke="#999999" points="1459.5,-129 1414.5,-129 1414.5,-110 1459.5,-110 1459.5,-129"/>
<text text-anchor="middle" x="1437" y="-117" font-family="Helvetica,sans-Serif" font-size="10.00">utility</text>
</a>
</g>
</g>
<!-- Node8&#45;&gt;Node9 -->
<g id="edge10_Node000008_Node000009" class="edge">
<title>Node8&#45;&gt;Node9</title>
<g id="a_edge10_Node000008_Node000009"><a xlink:title=" ">
<path fill="none" stroke="#63b8ff" d="M1111.15,-224.58C1169.51,-219.64 1254.57,-208.59 1325,-184 1359.35,-172.01 1395.29,-149.6 1416.92,-134.87"/>
<polygon fill="#63b8ff" stroke="#63b8ff" points="1419.04,-137.65 1425.26,-129.07 1415.05,-131.9 1419.04,-137.65"/>
</a>
</g>
</g>
<!-- Node10 -->
<g id="Node000010" class="node">
<title>Node10</title>
<g id="a_Node000010"><a xlink:href="Items_8hpp.html" target="_top" xlink:title=" ">
<polygon fill="white" stroke="#666666" points="512,-184 402,-184 402,-165 512,-165 512,-184"/>
<text text-anchor="middle" x="457" y="-172" font-family="Helvetica,sans-Serif" font-size="10.00">Collision/Items.hpp</text>
</a>
</g>
</g>
<!-- Node8&#45;&gt;Node10 -->
<g id="edge12_Node000008_Node000010" class="edge">
<title>Node8&#45;&gt;Node10</title>
<g id="a_edge12_Node000008_Node000010"><a xlink:title=" ">
<path fill="none" stroke="#63b8ff" d="M972.72,-221.3C968.08,-220.85 963.47,-220.41 959,-220 767.73,-202.35 716.88,-204.78 522.12,-184.07"/>
<polygon fill="#63b8ff" stroke="#63b8ff" points="522.45,-180.58 512.14,-183 521.71,-187.55 522.45,-180.58"/>
</a>
</g>
</g>
<!-- Node11 -->
<g id="Node000011" class="node">
<title>Node11</title>
<g id="a_Node000011"><a xlink:href="Boss_8hpp.html" target="_top" xlink:title=" ">
<polygon fill="white" stroke="#666666" points="877.5,-129 782.5,-129 782.5,-110 877.5,-110 877.5,-129"/>
<text text-anchor="middle" x="830" y="-117" font-family="Helvetica,sans-Serif" font-size="10.00">Player/Boss.hpp</text>
</a>
</g>
</g>
<!-- Node8&#45;&gt;Node11 -->
<g id="edge13_Node000008_Node000011" class="edge">
<title>Node8&#45;&gt;Node11</title>
<g id="a_edge13_Node000008_Node000011"><a xlink:title=" ">
<path fill="none" stroke="#63b8ff" d="M972.73,-221.2C968.08,-220.78 963.47,-220.37 959,-220 896.2,-214.79 436.12,-229.95 393,-184 387.22,-177.84 387.34,-171.27 393,-165 405.56,-151.1 656.48,-132.31 772.31,-124.33"/>
<polygon fill="#63b8ff" stroke="#63b8ff" points="772.68,-127.82 782.42,-123.64 772.2,-120.83 772.68,-127.82"/>
</a>
</g>
</g>
<!-- Node12 -->
<g id="Node000012" class="node">
<title>Node12</title>
<g id="a_Node000012"><a xlink:title=" ">
<polygon fill="#e0e0e0" stroke="#999999" points="1075,-19 947,-19 947,0 1075,0 1075,-19"/>
<text text-anchor="middle" x="1011" y="-7" font-family="Helvetica,sans-Serif" font-size="10.00">physics/Physics2D.hpp</text>
</a>
</g>
</g>
<!-- Node8&#45;&gt;Node12 -->
<g id="edge49_Node000008_Node000012" class="edge">
<title>Node8&#45;&gt;Node12</title>
<g id="a_edge49_Node000008_Node000012"><a xlink:title=" ">
<path fill="none" stroke="#63b8ff" d="M1057.73,-219.88C1069.88,-212.23 1085.8,-199.83 1093,-184 1097.98,-173.04 1102.45,-140.73 1091,-110 1078.13,-75.47 1048.24,-43.83 1028.86,-25.88"/>
<polygon fill="#63b8ff" stroke="#63b8ff" points="1031.05,-23.15 1021.28,-19.06 1026.37,-28.35 1031.05,-23.15"/>
</a>
</g>
</g>
<!-- Node14 -->
<g id="Node000014" class="node">
<title>Node14</title>
<g id="a_Node000014"><a xlink:href="Enemy_8hpp.html" target="_top" xlink:title=" ">
<polygon fill="white" stroke="#666666" points="1377,-129 1273,-129 1273,-110 1377,-110 1377,-129"/>
<text text-anchor="middle" x="1325" y="-117" font-family="Helvetica,sans-Serif" font-size="10.00">Player/Enemy.hpp</text>
</a>
</g>
</g>
<!-- Node8&#45;&gt;Node14 -->
<g id="edge16_Node000008_Node000014" class="edge">
<title>Node8&#45;&gt;Node14</title>
<g id="a_edge16_Node000008_Node000014"><a xlink:title=" ">
<path fill="none" stroke="#63b8ff" d="M1111.19,-224.71C1178.87,-219.64 1275.74,-208.28 1304,-184 1316.79,-173.01 1321.82,-154.06 1323.79,-139.72"/>
<polygon fill="#63b8ff" stroke="#63b8ff" points="1327.3,-139.73 1324.8,-129.44 1320.34,-139.05 1327.3,-139.73"/>
</a>
</g>
</g>
<!-- Node15 -->
<g id="Node000015" class="node">
<title>Node15</title>
<g id="a_Node000015"><a xlink:href="EnemySpawn_8hpp.html" target="_top" xlink:title=" ">
<polygon fill="white" stroke="#666666" points="1526.5,-184 1389.5,-184 1389.5,-165 1526.5,-165 1526.5,-184"/>
<text text-anchor="middle" x="1458" y="-172" font-family="Helvetica,sans-Serif" font-size="10.00">Player/EnemySpawn.hpp</text>
</a>
</g>
</g>
<!-- Node8&#45;&gt;Node15 -->
<g id="edge18_Node000008_Node000015" class="edge">
<title>Node8&#45;&gt;Node15</title>
<g id="a_edge18_Node000008_Node000015"><a xlink:title=" ">
<path fill="none" stroke="#63b8ff" d="M1108.84,-219.98C1183.02,-210.53 1302.57,-195.3 1380.72,-185.35"/>
<polygon fill="#63b8ff" stroke="#63b8ff" points="1381.51,-188.77 1390.98,-184.04 1380.62,-181.83 1381.51,-188.77"/>
</a>
</g>
</g>
<!-- Node16 -->
<g id="Node000016" class="node">
<title>Node16</title>
<g id="a_Node000016"><a xlink:href="PlayerEntity_8hpp.html" target="_top" xlink:title=" ">
<polygon fill="white" stroke="#666666" points="307.5,-184 178.5,-184 178.5,-165 307.5,-165 307.5,-184"/>
<text text-anchor="middle" x="243" y="-172" font-family="Helvetica,sans-Serif" font-size="10.00">Player/PlayerEntity.hpp</text>
</a>
</g>
</g>
<!-- Node8&#45;&gt;Node16 -->
<g id="edge22_Node000008_Node000016" class="edge">
<title>Node8&#45;&gt;Node16</title>
<g id="a_edge22_Node000008_Node000016"><a xlink:title=" ">
<path fill="none" stroke="#63b8ff" d="M972.73,-221.17C968.09,-220.75 963.48,-220.36 959,-220 676.33,-197.55 604.61,-207.17 322,-184 320.69,-183.89 319.36,-183.78 318.02,-183.67"/>
<polygon fill="#63b8ff" stroke="#63b8ff" points="317.92,-180.14 307.64,-182.73 317.29,-187.11 317.92,-180.14"/>
</a>
</g>
</g>
<!-- Node20 -->
<g id="Node000020" class="node">
<title>Node20</title>
<g id="a_Node000020"><a xlink:href="Projectile_8hpp.html" target="_top" xlink:title=" ">
<polygon fill="white" stroke="#666666" points="532,-74 352,-74 352,-55 532,-55 532,-74"/>
<text text-anchor="middle" x="442" y="-62" font-family="Helvetica,sans-Serif" font-size="10.00">components/Player/Projectile.hpp</text>
</a>
</g>
</g>
<!-- Node8&#45;&gt;Node20 -->
<g id="edge30_Node000008_Node000020" class="edge">
<title>Node8&#45;&gt;Node20</title>
<g id="a_edge30_Node000008_Node000020"><a xlink:title=" ">
<path fill="none" stroke="#63b8ff" d="M972.9,-221.38C967.52,-220.89 962.17,-220.42 957,-220 893.53,-214.83 428.59,-230.42 385,-184 361.74,-159.23 415.72,-140.84 423,-129 431.48,-115.22 436.38,-97.42 439.07,-84.17"/>
<polygon fill="#63b8ff" stroke="#63b8ff" points="442.52,-84.76 440.84,-74.3 435.63,-83.53 442.52,-84.76"/>
</a>
</g>
</g>
<!-- Node21 -->
<g id="Node000021" class="node">
<title>Node21</title>
<g id="a_Node000021"><a xlink:href="BossPart_8hpp.html" target="_top" xlink:title=" ">
<polygon fill="white" stroke="#666666" points="1082.5,-129 939.5,-129 939.5,-110 1082.5,-110 1082.5,-129"/>
<text text-anchor="middle" x="1011" y="-117" font-family="Helvetica,sans-Serif" font-size="10.00">components/BossPart.hpp</text>
</a>
</g>
</g>
<!-- Node8&#45;&gt;Node21 -->
<g id="edge31_Node000008_Node000021" class="edge">
<title>Node8&#45;&gt;Node21</title>
<g id="a_edge31_Node000008_Node000021"><a xlink:title=" ">
<path fill="none" stroke="#63b8ff" d="M1052.7,-219.92C1066.49,-207.75 1087.52,-184.78 1077,-165 1069.69,-151.25 1056.03,-140.99 1043.03,-133.8"/>
<polygon fill="#63b8ff" stroke="#63b8ff" points="1044.28,-130.51 1033.78,-129.11 1041.11,-136.75 1044.28,-130.51"/>
</a>
</g>
</g>
<!-- Node22 -->
<g id="Node000022" class="node">
<title>Node22</title>
<g id="a_Node000022"><a xlink:href="Force_8hpp.html" target="_top" xlink:title=" ">
<polygon fill="white" stroke="#666666" points="203.5,-129 76.5,-129 76.5,-110 203.5,-110 203.5,-129"/>
<text text-anchor="middle" x="140" y="-117" font-family="Helvetica,sans-Serif" font-size="10.00">components/Force.hpp</text>
</a>
</g>
</g>
<!-- Node8&#45;&gt;Node22 -->
<g id="edge34_Node000008_Node000022" class="edge">
<title>Node8&#45;&gt;Node22</title>
<g id="a_edge34_Node000008_Node000022"><a xlink:title=" ">
<path fill="none" stroke="#63b8ff" d="M972.73,-221.11C968.09,-220.71 963.48,-220.33 959,-220 871.37,-213.52 241.82,-233.18 169,-184 154.11,-173.95 146.74,-154.25 143.18,-139.44"/>
<polygon fill="#63b8ff" stroke="#63b8ff" points="146.54,-138.42 141.13,-129.32 139.68,-139.81 146.54,-138.42"/>
</a>
</g>
</g>
<!-- Node23 -->
<g id="Node000023" class="node">
<title>Node23</title>
<g id="a_Node000023"><a xlink:href="Levels_8hpp.html" target="_top" xlink:title=" ">
<polygon fill="white" stroke="#666666" points="1295,-184 1163,-184 1163,-165 1295,-165 1295,-184"/>
<text text-anchor="middle" x="1229" y="-172" font-family="Helvetica,sans-Serif" font-size="10.00">components/Levels.hpp</text>
</a>
</g>
</g>
<!-- Node8&#45;&gt;Node23 -->
<g id="edge37_Node000008_Node000023" class="edge">
<title>Node8&#45;&gt;Node23</title>
<g id="a_edge37_Node000008_Node000023"><a xlink:title=" ">
<path fill="none" stroke="#63b8ff" d="M1072.04,-219.98C1103.71,-211.01 1153.77,-196.82 1188.81,-186.89"/>
<polygon fill="#63b8ff" stroke="#63b8ff" points="1190.05,-190.18 1198.72,-184.08 1188.14,-183.44 1190.05,-190.18"/>
</a>
</g>
</g>
<!-- Node25 -->
<g id="Node000025" class="node">
<title>Node25</title>
<g id="a_Node000025"><a xlink:href="TileMap_8hpp.html" target="_top" xlink:title=" ">
<polygon fill="white" stroke="#666666" points="1761,-184 1621,-184 1621,-165 1761,-165 1761,-184"/>
<text text-anchor="middle" x="1691" y="-172" font-family="Helvetica,sans-Serif" font-size="10.00">components/TileMap.hpp</text>
</a>
</g>
</g>
<!-- Node8&#45;&gt;Node25 -->
<g id="edge43_Node000008_Node000025" class="edge">
<title>Node8&#45;&gt;Node25</title>
<g id="a_edge43_Node000008_Node000025"><a xlink:title=" ">
<path fill="none" stroke="#63b8ff" d="M1111.15,-222.85C1232.31,-212.96 1482.28,-192.54 1610.81,-182.05"/>
<polygon fill="#63b8ff" stroke="#63b8ff" points="1611.3,-185.52 1620.99,-181.22 1610.73,-178.54 1611.3,-185.52"/>
</a>
</g>
</g>
<!-- Node27 -->
<g id="Node000027" class="node">
<title>Node27</title>
<g id="a_Node000027"><a xlink:title=" ">
<polygon fill="#e0e0e0" stroke="#999999" points="626,-184 530,-184 530,-165 626,-165 626,-184"/>
<text text-anchor="middle" x="578" y="-172" font-family="Helvetica,sans-Serif" font-size="10.00">ecs/Registry.hpp</text>
</a>
</g>
</g>
<!-- Node8&#45;&gt;Node27 -->
<g id="edge47_Node000008_Node000027" class="edge">
<title>Node8&#45;&gt;Node27</title>
<g id="a_edge47_Node000008_Node000027"><a xlink:title=" ">
<path fill="none" stroke="#63b8ff" d="M972.87,-221.27C878.8,-211.38 714.18,-193.87 636.54,-184.14"/>
<polygon fill="#63b8ff" stroke="#63b8ff" points="636.55,-180.61 626.18,-182.82 635.66,-187.56 636.55,-180.61"/>
</a>
</g>
</g>
<!-- Node28 -->
<g id="Node000028" class="node">
<title>Node28</title>
<g id="a_Node000028"><a xlink:title=" ">
<polygon fill="#e0e0e0" stroke="#999999" points="788,-184 644,-184 644,-165 788,-165 788,-184"/>
<text text-anchor="middle" x="716" y="-172" font-family="Helvetica,sans-Serif" font-size="10.00">input/InputSubsystem.hpp</text>
</a>
</g>
</g>
<!-- Node8&#45;&gt;Node28 -->
<g id="edge48_Node000008_Node000028" class="edge">
<title>Node8&#45;&gt;Node28</title>
<g id="a_edge48_Node000008_Node000028"><a xlink:title=" ">
<path fill="none" stroke="#63b8ff" d="M989.62,-219.98C932.08,-210.63 839.71,-195.61 778.45,-185.65"/>
<polygon fill="#63b8ff" stroke="#63b8ff" points="778.95,-182.19 768.52,-184.04 777.83,-189.1 778.95,-182.19"/>
</a>
</g>
</g>
<!-- Node29 -->
<g id="Node000029" class="node">
<title>Node29</title>
<g id="a_Node000029"><a xlink:title=" ">
<polygon fill="#e0e0e0" stroke="#999999" points="997.5,-184 806.5,-184 806.5,-165 997.5,-165 997.5,-184"/>
<text text-anchor="middle" x="902" y="-172" font-family="Helvetica,sans-Serif" font-size="10.00">rendering/RenderingSubsystem.hpp</text>
</a>
</g>
</g>
<!-- Node8&#45;&gt;Node29 -->
<g id="edge50_Node000008_Node000029" class="edge">
<title>Node8&#45;&gt;Node29</title>
<g id="a_edge50_Node000008_Node000029"><a xlink:title=" ">
<path fill="none" stroke="#63b8ff" d="M1019.51,-219.98C996.48,-211.27 960.46,-197.63 934.37,-187.75"/>
<polygon fill="#63b8ff" stroke="#63b8ff" points="935.49,-184.44 924.9,-184.17 933.02,-190.98 935.49,-184.44"/>
</a>
</g>
</g>
<!-- Node30 -->
<g id="Node000030" class="node">
<title>Node30</title>
<g id="a_Node000030"><a xlink:title=" ">
<polygon fill="#e0e0e0" stroke="#999999" points="1068.5,-184 1015.5,-184 1015.5,-165 1068.5,-165 1068.5,-184"/>
<text text-anchor="middle" x="1042" y="-172" font-family="Helvetica,sans-Serif" font-size="10.00">stdlib.h</text>
</a>
</g>
</g>
<!-- Node8&#45;&gt;Node30 -->
<g id="edge51_Node000008_Node000030" class="edge">
<title>Node8&#45;&gt;Node30</title>
<g id="a_edge51_Node000008_Node000030"><a xlink:title=" ">
<path fill="none" stroke="#63b8ff" d="M1042,-219.75C1042,-212.8 1042,-202.85 1042,-194.13"/>
<polygon fill="#63b8ff" stroke="#63b8ff" points="1045.5,-194.09 1042,-184.09 1038.5,-194.09 1045.5,-194.09"/>
</a>
</g>
</g>
<!-- Node11&#45;&gt;Node12 -->
<g id="edge14_Node000011_Node000012" class="edge">
<title>Node11&#45;&gt;Node12</title>
<g id="a_edge14_Node000011_Node000012"><a xlink:title=" ">
<path fill="none" stroke="#63b8ff" d="M844.51,-109.84C875.83,-91.16 950,-46.9 987.88,-24.3"/>
<polygon fill="#63b8ff" stroke="#63b8ff" points="989.88,-27.18 996.68,-19.05 986.3,-21.17 989.88,-27.18"/>
</a>
</g>
</g>
<!-- Node13 -->
<g id="Node000013" class="node">
<title>Node13</title>
<g id="a_Node000013"><a xlink:title=" ">
<polygon fill="#e0e0e0" stroke="#999999" points="795,-74 711,-74 711,-55 795,-55 795,-74"/>
<text text-anchor="middle" x="753" y="-62" font-family="Helvetica,sans-Serif" font-size="10.00">ecs/Entity.hpp</text>
</a>
</g>
</g>
<!-- Node11&#45;&gt;Node13 -->
<g id="edge15_Node000011_Node000013" class="edge">
<title>Node11&#45;&gt;Node13</title>
<g id="a_edge15_Node000011_Node000013"><a xlink:title=" ">
<path fill="none" stroke="#63b8ff" d="M817.63,-109.98C805.91,-101.92 788.08,-89.65 774.11,-80.03"/>
<polygon fill="#63b8ff" stroke="#63b8ff" points="775.82,-76.96 765.6,-74.17 771.85,-82.72 775.82,-76.96"/>
</a>
</g>
</g>
<!-- Node14&#45;&gt;Node12 -->
<g id="edge17_Node000014_Node000012" class="edge">
<title>Node14&#45;&gt;Node12</title>
<g id="a_edge17_Node000014_Node000012"><a xlink:title=" ">
<path fill="none" stroke="#63b8ff" d="M1318.8,-109.87C1308.25,-95.87 1285.34,-68.44 1259,-55 1204.85,-27.37 1136.4,-16.62 1085.13,-12.57"/>
<polygon fill="#63b8ff" stroke="#63b8ff" points="1085.35,-9.08 1075.12,-11.85 1084.84,-16.06 1085.35,-9.08"/>
</a>
</g>
</g>
<!-- Node15&#45;&gt;Node7 -->
<g id="edge20_Node000015_Node000007" class="edge">
<title>Node15&#45;&gt;Node7</title>
<g id="a_edge20_Node000015_Node000007"><a xlink:title=" ">
<path fill="none" stroke="#63b8ff" d="M1473.58,-164.98C1488.77,-156.69 1512.1,-143.94 1529.9,-134.22"/>
<polygon fill="#63b8ff" stroke="#63b8ff" points="1532.03,-137.04 1539.13,-129.17 1528.68,-130.89 1532.03,-137.04"/>
</a>
</g>
</g>
<!-- Node15&#45;&gt;Node9 -->
<g id="edge19_Node000015_Node000009" class="edge">
<title>Node15&#45;&gt;Node9</title>
<g id="a_edge19_Node000015_Node000009"><a xlink:title=" ">
<path fill="none" stroke="#63b8ff" d="M1454.53,-164.75C1451.72,-157.65 1447.66,-147.4 1444.15,-138.56"/>
<polygon fill="#63b8ff" stroke="#63b8ff" points="1447.34,-137.1 1440.4,-129.09 1440.83,-139.68 1447.34,-137.1"/>
</a>
</g>
</g>
<!-- Node15&#45;&gt;Node14 -->
<g id="edge21_Node000015_Node000014" class="edge">
<title>Node15&#45;&gt;Node14</title>
<g id="a_edge21_Node000015_Node000014"><a xlink:title=" ">
<path fill="none" stroke="#63b8ff" d="M1436.63,-164.98C1414.85,-156.3 1380.84,-142.75 1356.08,-132.88"/>
<polygon fill="#63b8ff" stroke="#63b8ff" points="1357.34,-129.62 1346.76,-129.17 1354.75,-136.12 1357.34,-129.62"/>
</a>
</g>
</g>
<!-- Node16&#45;&gt;Node12 -->
<g id="edge29_Node000016_Node000012" class="edge">
<title>Node16&#45;&gt;Node12</title>
<g id="a_edge29_Node000016_Node000012"><a xlink:title=" ">
<path fill="none" stroke="#63b8ff" d="M178.49,-165.54C134.14,-158.58 80.84,-146.78 67,-129 61.81,-122.34 61.89,-116.72 67,-110 122.57,-36.98 175.48,-70.04 266,-55 508.92,-14.64 801.75,-9.68 936.51,-9.8"/>
<polygon fill="#63b8ff" stroke="#63b8ff" points="936.71,-13.3 946.71,-9.82 936.72,-6.3 936.71,-13.3"/>
</a>
</g>
</g>
<!-- Node17 -->
<g id="Node000017" class="node">
<title>Node17</title>
<g id="a_Node000017"><a xlink:title=" ">
<polygon fill="#e0e0e0" stroke="#999999" points="286,-129 222,-129 222,-110 286,-110 286,-129"/>
<text text-anchor="middle" x="254" y="-117" font-family="Helvetica,sans-Serif" font-size="10.00">algorithm</text>
</a>
</g>
</g>
<!-- Node16&#45;&gt;Node17 -->
<g id="edge23_Node000016_Node000017" class="edge">
<title>Node16&#45;&gt;Node17</title>
<g id="a_edge23_Node000016_Node000017"><a xlink:title=" ">
<path fill="none" stroke="#63b8ff" d="M244.82,-164.75C246.26,-157.8 248.32,-147.85 250.13,-139.13"/>
<polygon fill="#63b8ff" stroke="#63b8ff" points="253.61,-139.59 252.22,-129.09 246.76,-138.17 253.61,-139.59"/>
</a>
</g>
</g>
<!-- Node18 -->
<g id="Node000018" class="node">
<title>Node18</title>
<g id="a_Node000018"><a xlink:href="CollisionController_8hpp.html" target="_top" xlink:title=" ">
<polygon fill="white" stroke="#666666" points="676,-129 504,-129 504,-110 676,-110 676,-129"/>
<text text-anchor="middle" x="590" y="-117" font-family="Helvetica,sans-Serif" font-size="10.00">Collision/CollisionController.hpp</text>
</a>
</g>
</g>
<!-- Node16&#45;&gt;Node18 -->
<g id="edge24_Node000016_Node000018" class="edge">
<title>Node16&#45;&gt;Node18</title>
<g id="a_edge24_Node000016_Node000018"><a xlink:title=" ">
<path fill="none" stroke="#63b8ff" d="M298.75,-164.98C360.13,-155.61 458.72,-140.55 523.93,-130.59"/>
<polygon fill="#63b8ff" stroke="#63b8ff" points="524.74,-134.01 534.1,-129.04 523.69,-127.09 524.74,-134.01"/>
</a>
</g>
</g>
<!-- Node19 -->
<g id="Node000019" class="node">
<title>Node19</title>
<g id="a_Node000019"><a xlink:href="Weapon_8hpp.html" target="_top" xlink:title=" ">
<polygon fill="white" stroke="#666666" points="414,-129 304,-129 304,-110 414,-110 414,-129"/>
<text text-anchor="middle" x="359" y="-117" font-family="Helvetica,sans-Serif" font-size="10.00">Player/Weapon.hpp</text>
</a>
</g>
</g>
<!-- Node16&#45;&gt;Node19 -->
<g id="edge26_Node000016_Node000019" class="edge">
<title>Node16&#45;&gt;Node19</title>
<g id="a_edge26_Node000016_Node000019"><a xlink:title=" ">
<path fill="none" stroke="#63b8ff" d="M261.64,-164.98C280.3,-156.46 309.25,-143.23 330.74,-133.41"/>
<polygon fill="#63b8ff" stroke="#63b8ff" points="332.38,-136.51 340.02,-129.17 329.47,-130.14 332.38,-136.51"/>
</a>
</g>
</g>
<!-- Node18&#45;&gt;Node13 -->
<g id="edge25_Node000018_Node000013" class="edge">
<title>Node18&#45;&gt;Node13</title>
<g id="a_edge25_Node000018_Node000013"><a xlink:title=" ">
<path fill="none" stroke="#63b8ff" d="M616.19,-109.98C643.44,-101.13 686.3,-87.19 716.78,-77.28"/>
<polygon fill="#63b8ff" stroke="#63b8ff" points="718.18,-80.5 726.61,-74.08 716.01,-73.85 718.18,-80.5"/>
</a>
</g>
</g>
<!-- Node19&#45;&gt;Node20 -->
<g id="edge27_Node000019_Node000020" class="edge">
<title>Node19&#45;&gt;Node20</title>
<g id="a_edge27_Node000019_Node000020"><a xlink:title=" ">
<path fill="none" stroke="#63b8ff" d="M372.34,-109.98C385.09,-101.84 404.55,-89.41 419.67,-79.76"/>
<polygon fill="#63b8ff" stroke="#63b8ff" points="421.88,-82.5 428.42,-74.17 418.11,-76.6 421.88,-82.5"/>
</a>
</g>
</g>
<!-- Node20&#45;&gt;Node12 -->
<g id="edge28_Node000020_Node000012" class="edge">
<title>Node20&#45;&gt;Node12</title>
<g id="a_edge28_Node000020_Node000012"><a xlink:title=" ">
<path fill="none" stroke="#63b8ff" d="M532.16,-55.1C644.06,-44.68 832.81,-27.1 936.77,-17.41"/>
<polygon fill="#63b8ff" stroke="#63b8ff" points="937.23,-20.89 946.87,-16.47 936.59,-13.92 937.23,-20.89"/>
</a>
</g>
</g>
<!-- Node21&#45;&gt;Node12 -->
<g id="edge32_Node000021_Node000012" class="edge">
<title>Node21&#45;&gt;Node12</title>
<g id="a_edge32_Node000021_Node000012"><a xlink:title=" ">
<path fill="none" stroke="#63b8ff" d="M1011,-109.66C1011,-92.17 1011,-52.8 1011,-29.27"/>
<polygon fill="#63b8ff" stroke="#63b8ff" points="1014.5,-29.16 1011,-19.16 1007.5,-29.16 1014.5,-29.16"/>
</a>
</g>
</g>
<!-- Node21&#45;&gt;Node13 -->
<g id="edge33_Node000021_Node000013" class="edge">
<title>Node21&#45;&gt;Node13</title>
<g id="a_edge33_Node000021_Node000013"><a xlink:title=" ">
<path fill="none" stroke="#63b8ff" d="M969.55,-109.98C924.73,-100.78 853.23,-86.09 804.75,-76.13"/>
<polygon fill="#63b8ff" stroke="#63b8ff" points="805.28,-72.67 794.78,-74.08 803.87,-79.52 805.28,-72.67"/>
</a>
</g>
</g>
<!-- Node22&#45;&gt;Node12 -->
<g id="edge36_Node000022_Node000012" class="edge">
<title>Node22&#45;&gt;Node12</title>
<g id="a_edge36_Node000022_Node000012"><a xlink:title=" ">
<path fill="none" stroke="#63b8ff" d="M161.5,-109.91C198.09,-95.72 275.12,-67.69 343,-55 555.81,-15.21 812.57,-9.76 936.67,-9.75"/>
<polygon fill="#63b8ff" stroke="#63b8ff" points="936.82,-13.25 946.82,-9.76 936.82,-6.25 936.82,-13.25"/>
</a>
</g>
</g>
<!-- Node22&#45;&gt;Node13 -->
<g id="edge35_Node000022_Node000013" class="edge">
<title>Node22&#45;&gt;Node13</title>
<g id="a_edge35_Node000022_Node000013"><a xlink:title=" ">
<path fill="none" stroke="#63b8ff" d="M203.69,-110.96C206.84,-110.62 209.95,-110.3 213,-110 391.83,-92.23 604.47,-76.2 700.88,-69.21"/>
<polygon fill="#63b8ff" stroke="#63b8ff" points="701.22,-72.69 710.95,-68.48 700.72,-65.71 701.22,-72.69"/>
</a>
</g>
</g>
<!-- Node23&#45;&gt;Node7 -->
<g id="edge39_Node000023_Node000007" class="edge">
<title>Node23&#45;&gt;Node7</title>
<g id="a_edge39_Node000023_Node000007"><a xlink:title=" ">
<path fill="none" stroke="#63b8ff" d="M1281.38,-164.98C1348.98,-153.99 1464.66,-135.19 1521.49,-125.95"/>
<polygon fill="#63b8ff" stroke="#63b8ff" points="1522.08,-129.4 1531.39,-124.34 1520.96,-122.49 1522.08,-129.4"/>
</a>
</g>
</g>
<!-- Node23&#45;&gt;Node11 -->
<g id="edge40_Node000023_Node000011" class="edge">
<title>Node23&#45;&gt;Node11</title>
<g id="a_edge40_Node000023_Node000011"><a xlink:title=" ">
<path fill="none" stroke="#63b8ff" d="M1164.89,-164.98C1088.31,-154.81 961.33,-137.94 887.7,-128.16"/>
<polygon fill="#63b8ff" stroke="#63b8ff" points="888.04,-124.68 877.67,-126.83 887.12,-131.62 888.04,-124.68"/>
</a>
</g>
</g>
<!-- Node23&#45;&gt;Node12 -->
<g id="edge42_Node000023_Node000012" class="edge">
<title>Node23&#45;&gt;Node12</title>
<g id="a_edge42_Node000023_Node000012"><a xlink:title=" ">
<path fill="none" stroke="#63b8ff" d="M1230.9,-164.63C1233.19,-151.72 1235.61,-127.39 1226,-110 1197.37,-58.2 1132.99,-33.19 1082.1,-21.23"/>
<polygon fill="#63b8ff" stroke="#63b8ff" points="1082.63,-17.76 1072.11,-19.01 1081.11,-24.6 1082.63,-17.76"/>
</a>
</g>
</g>
<!-- Node23&#45;&gt;Node14 -->
<g id="edge41_Node000023_Node000014" class="edge">
<title>Node23&#45;&gt;Node14</title>
<g id="a_edge41_Node000023_Node000014"><a xlink:title=" ">
<path fill="none" stroke="#63b8ff" d="M1244.42,-164.98C1259.45,-156.69 1282.54,-143.94 1300.16,-134.22"/>
<polygon fill="#63b8ff" stroke="#63b8ff" points="1302.23,-137.07 1309.3,-129.17 1298.85,-130.94 1302.23,-137.07"/>
</a>
</g>
</g>
<!-- Node24 -->
<g id="Node000024" class="node">
<title>Node24</title>
<g id="a_Node000024"><a xlink:title=" ">
<polygon fill="#e0e0e0" stroke="#999999" points="1217,-129 1161,-129 1161,-110 1217,-110 1217,-129"/>
<text text-anchor="middle" x="1189" y="-117" font-family="Helvetica,sans-Serif" font-size="10.00">optional</text>
</a>
</g>
</g>
<!-- Node23&#45;&gt;Node24 -->
<g id="edge38_Node000023_Node000024" class="edge">
<title>Node23&#45;&gt;Node24</title>
<g id="a_edge38_Node000023_Node000024"><a xlink:title=" ">
<path fill="none" stroke="#63b8ff" d="M1222.39,-164.75C1216.74,-157.26 1208.46,-146.28 1201.55,-137.13"/>
<polygon fill="#63b8ff" stroke="#63b8ff" points="1204.3,-134.96 1195.48,-129.09 1198.71,-139.18 1204.3,-134.96"/>
</a>
</g>
</g>
<!-- Node25&#45;&gt;Node7 -->
<g id="edge45_Node000025_Node000007" class="edge">
<title>Node25&#45;&gt;Node7</title>
<g id="a_edge45_Node000025_Node000007"><a xlink:title=" ">
<path fill="none" stroke="#63b8ff" d="M1669.15,-164.98C1646.88,-156.3 1612.1,-142.75 1586.78,-132.88"/>
<polygon fill="#63b8ff" stroke="#63b8ff" points="1587.84,-129.54 1577.25,-129.17 1585.29,-136.06 1587.84,-129.54"/>
</a>
</g>
</g>
<!-- Node25&#45;&gt;Node12 -->
<g id="edge46_Node000025_Node000012" class="edge">
<title>Node25&#45;&gt;Node12</title>
<g id="a_edge46_Node000025_Node000012"><a xlink:title=" ">
<path fill="none" stroke="#63b8ff" d="M1680.29,-164.99C1662.32,-151.18 1624.48,-124.01 1588,-110 1415.68,-43.84 1197.52,-21.47 1085.25,-14.06"/>
<polygon fill="#63b8ff" stroke="#63b8ff" points="1085.25,-10.56 1075.04,-13.41 1084.8,-17.54 1085.25,-10.56"/>
</a>
</g>
</g>
<!-- Node26 -->
<g id="Node000026" class="node">
<title>Node26</title>
<g id="a_Node000026"><a xlink:title=" ">
<polygon fill="#e0e0e0" stroke="#999999" points="1716,-129 1666,-129 1666,-110 1716,-110 1716,-129"/>
<text text-anchor="middle" x="1691" y="-117" font-family="Helvetica,sans-Serif" font-size="10.00">cstdint</text>
</a>
</g>
</g>
<!-- Node25&#45;&gt;Node26 -->
<g id="edge44_Node000025_Node000026" class="edge">
<title>Node25&#45;&gt;Node26</title>
<g id="a_edge44_Node000025_Node000026"><a xlink:title=" ">
<path fill="none" stroke="#63b8ff" d="M1691,-164.75C1691,-157.8 1691,-147.85 1691,-139.13"/>
<polygon fill="#63b8ff" stroke="#63b8ff" points="1694.5,-139.09 1691,-129.09 1687.5,-139.09 1694.5,-139.09"/>
</a>
</g>
</g>
</g>
</svg>
