<?xml version="1.0" encoding="UTF-8" standalone="no"?>
<!DOCTYPE svg PUBLIC "-//W3C//DTD SVG 1.1//EN"
 "http://www.w3.org/Graphics/SVG/1.1/DTD/svg11.dtd">
<!-- Generated by graphviz version 2.43.0 (0)
 -->
<!-- Title: /home/runner/work/R&#45;Type/R&#45;Type/Client/src/scenes/LobbyJoin.cpp Pages: 1 -->
<svg width="2755pt" height="379pt"
 viewBox="0.00 0.00 2755.00 379.00" xmlns="http://www.w3.org/2000/svg" xmlns:xlink="http://www.w3.org/1999/xlink">
<g id="graph0" class="graph" transform="scale(1 1) rotate(0) translate(4 375)">
<title>/home/runner/work/R&#45;Type/R&#45;Type/Client/src/scenes/LobbyJoin.cpp</title>
<!-- Node1 -->
<g id="Node000001" class="node">
<title>Node1</title>
<g id="a_Node000001"><a xlink:title=" ">
<polygon fill="#999999" stroke="#666666" points="1792.5,-371 1651.5,-371 1651.5,-330 1792.5,-330 1792.5,-371"/>
<text text-anchor="start" x="1659.5" y="-359" font-family="Helvetica,sans-Serif" font-size="10.00">/home/runner/work/R</text>
<text text-anchor="start" x="1659.5" y="-348" font-family="Helvetica,sans-Serif" font-size="10.00">&#45;Type/R&#45;Type/Client</text>
<text text-anchor="middle" x="1722" y="-337" font-family="Helvetica,sans-Serif" font-size="10.00">/src/scenes/LobbyJoin.cpp</text>
</a>
</g>
</g>
<!-- Node2 -->
<g id="Node000002" class="node">
<title>Node2</title>
<g id="a_Node000002"><a xlink:href="LobbyJoin_8hpp.html" target="_top" xlink:title=" ">
<polygon fill="white" stroke="#666666" points="1783,-294 1661,-294 1661,-275 1783,-275 1783,-294"/>
<text text-anchor="middle" x="1722" y="-282" font-family="Helvetica,sans-Serif" font-size="10.00">scenes/LobbyJoin.hpp</text>
</a>
</g>
</g>
<!-- Node1&#45;&gt;Node2 -->
<g id="edge1_Node000001_Node000002" class="edge">
<title>Node1&#45;&gt;Node2</title>
<g id="a_edge1_Node000001_Node000002"><a xlink:title=" ">
<path fill="none" stroke="#63b8ff" d="M1722,-329.95C1722,-321.85 1722,-312.5 1722,-304.47"/>
<polygon fill="#63b8ff" stroke="#63b8ff" points="1725.5,-304.26 1722,-294.26 1718.5,-304.26 1725.5,-304.26"/>
</a>
</g>
</g>
<!-- Node3 -->
<g id="Node000003" class="node">
<title>Node3</title>
<g id="a_Node000003"><a xlink:title=" ">
<polygon fill="#e0e0e0" stroke="#999999" points="708,-239 636,-239 636,-220 708,-220 708,-239"/>
<text text-anchor="middle" x="672" y="-227" font-family="Helvetica,sans-Serif" font-size="10.00">SDL2/SDL.h</text>
</a>
</g>
</g>
<!-- Node2&#45;&gt;Node3 -->
<g id="edge2_Node000002_Node000003" class="edge">
<title>Node2&#45;&gt;Node3</title>
<g id="a_edge2_Node000002_Node000003"><a xlink:title=" ">
<path fill="none" stroke="#63b8ff" d="M1660.93,-283.41C1504.39,-282.61 1076.24,-276.84 722,-239 720.74,-238.87 719.47,-238.72 718.19,-238.56"/>
<polygon fill="#63b8ff" stroke="#63b8ff" points="718.63,-235.09 708.25,-237.2 717.68,-242.03 718.63,-235.09"/>
</a>
</g>
</g>
<!-- Node4 -->
<g id="Node000004" class="node">
<title>Node4</title>
<g id="a_Node000004"><a xlink:title=" ">
<polygon fill="#e0e0e0" stroke="#999999" points="60,-184 0,-184 0,-165 60,-165 60,-184"/>
<text text-anchor="middle" x="30" y="-172" font-family="Helvetica,sans-Serif" font-size="10.00">iostream</text>
</a>
</g>
</g>
<!-- Node2&#45;&gt;Node4 -->
<g id="edge3_Node000002_Node000004" class="edge">
<title>Node2&#45;&gt;Node4</title>
<g id="a_edge3_Node000002_Node000004"><a xlink:title=" ">
<path fill="none" stroke="#63b8ff" d="M1660.86,-282.38C1461.32,-278.49 837.01,-264.4 750,-239 733.75,-234.26 733.22,-224.82 717,-220 581.73,-179.79 227.57,-202.39 70.22,-183.85"/>
<polygon fill="#63b8ff" stroke="#63b8ff" points="70.51,-180.36 60.15,-182.57 69.63,-187.3 70.51,-180.36"/>
</a>
</g>
</g>
<!-- Node5 -->
<g id="Node000005" class="node">
<title>Node5</title>
<g id="a_Node000005"><a xlink:title=" ">
<polygon fill="#e0e0e0" stroke="#999999" points="122,-184 78,-184 78,-165 122,-165 122,-184"/>
<text text-anchor="middle" x="100" y="-172" font-family="Helvetica,sans-Serif" font-size="10.00">string</text>
</a>
</g>
</g>
<!-- Node2&#45;&gt;Node5 -->
<g id="edge4_Node000002_Node000005" class="edge">
<title>Node2&#45;&gt;Node5</title>
<g id="a_edge4_Node000002_Node000005"><a xlink:title=" ">
<path fill="none" stroke="#63b8ff" d="M1660.71,-283.49C1481.15,-282.99 958.59,-278.12 793,-239 772.67,-234.2 770.31,-224.91 750,-220 484.3,-155.74 406.48,-223.56 136,-184 134.75,-183.82 133.48,-183.61 132.2,-183.39"/>
<polygon fill="#63b8ff" stroke="#63b8ff" points="132.85,-179.95 122.35,-181.41 131.47,-186.81 132.85,-179.95"/>
</a>
</g>
</g>
<!-- Node6 -->
<g id="Node000006" class="node">
<title>Node6</title>
<g id="a_Node000006"><a xlink:title=" ">
<polygon fill="#e0e0e0" stroke="#999999" points="1629.5,-239 1536.5,-239 1536.5,-220 1629.5,-220 1629.5,-239"/>
<text text-anchor="middle" x="1583" y="-227" font-family="Helvetica,sans-Serif" font-size="10.00">unordered_map</text>
</a>
</g>
</g>
<!-- Node2&#45;&gt;Node6 -->
<g id="edge5_Node000002_Node000006" class="edge">
<title>Node2&#45;&gt;Node6</title>
<g id="a_edge5_Node000002_Node000006"><a xlink:title=" ">
<path fill="none" stroke="#63b8ff" d="M1699.67,-274.98C1676.8,-266.27 1641.04,-252.63 1615.14,-242.75"/>
<polygon fill="#63b8ff" stroke="#63b8ff" points="1616.33,-239.46 1605.74,-239.17 1613.84,-246 1616.33,-239.46"/>
</a>
</g>
</g>
<!-- Node7 -->
<g id="Node000007" class="node">
<title>Node7</title>
<g id="a_Node000007"><a xlink:title=" ">
<polygon fill="#e0e0e0" stroke="#999999" points="1369.5,-129 1322.5,-129 1322.5,-110 1369.5,-110 1369.5,-129"/>
<text text-anchor="middle" x="1346" y="-117" font-family="Helvetica,sans-Serif" font-size="10.00">vector</text>
</a>
</g>
</g>
<!-- Node2&#45;&gt;Node7 -->
<g id="edge6_Node000002_Node000007" class="edge">
<title>Node2&#45;&gt;Node7</title>
<g id="a_edge6_Node000002_Node000007"><a xlink:title=" ">
<path fill="none" stroke="#63b8ff" d="M1660.74,-277.77C1609.98,-271.61 1543.56,-259.77 1527,-239 1502.71,-208.54 1598.77,-195.07 1574,-165 1549.8,-135.62 1437.34,-125.37 1379.92,-122.02"/>
<polygon fill="#63b8ff" stroke="#63b8ff" points="1380.05,-118.52 1369.88,-121.47 1379.67,-125.51 1380.05,-118.52"/>
</a>
</g>
</g>
<!-- Node8 -->
<g id="Node000008" class="node">
<title>Node8</title>
<g id="a_Node000008"><a xlink:href="EntityHelper_8hpp.html" target="_top" xlink:title=" ">
<polygon fill="white" stroke="#666666" points="940,-239 802,-239 802,-220 940,-220 940,-239"/>
<text text-anchor="middle" x="871" y="-227" font-family="Helvetica,sans-Serif" font-size="10.00">Helpers/EntityHelper.hpp</text>
</a>
</g>
</g>
<!-- Node2&#45;&gt;Node8 -->
<g id="edge7_Node000002_Node000008" class="edge">
<title>Node2&#45;&gt;Node8</title>
<g id="a_edge7_Node000002_Node000008"><a xlink:title=" ">
<path fill="none" stroke="#63b8ff" d="M1660.8,-279.69C1509.63,-270.27 1118.68,-245.93 950.19,-235.43"/>
<polygon fill="#63b8ff" stroke="#63b8ff" points="950.34,-231.93 940.14,-234.81 949.91,-238.92 950.34,-231.93"/>
</a>
</g>
</g>
<!-- Node29 -->
<g id="Node000029" class="node">
<title>Node29</title>
<g id="a_Node000029"><a xlink:title=" ">
<polygon fill="#e0e0e0" stroke="#999999" points="1565.5,-184 1374.5,-184 1374.5,-165 1565.5,-165 1565.5,-184"/>
<text text-anchor="middle" x="1470" y="-172" font-family="Helvetica,sans-Serif" font-size="10.00">rendering/RenderingSubsystem.hpp</text>
</a>
</g>
</g>
<!-- Node2&#45;&gt;Node29 -->
<g id="edge55_Node000002_Node000029" class="edge">
<title>Node2&#45;&gt;Node29</title>
<g id="a_edge55_Node000002_Node000029"><a xlink:title=" ">
<path fill="none" stroke="#63b8ff" d="M1660.81,-278.26C1602.07,-272.07 1518.73,-259.88 1494,-239 1480.92,-227.96 1474.96,-209.02 1472.25,-194.69"/>
<polygon fill="#63b8ff" stroke="#63b8ff" points="1475.65,-193.79 1470.7,-184.42 1468.73,-194.83 1475.65,-193.79"/>
</a>
</g>
</g>
<!-- Node31 -->
<g id="Node000031" class="node">
<title>Node31</title>
<g id="a_Node000031"><a xlink:title=" ">
<polygon fill="#e0e0e0" stroke="#999999" points="1796.5,-239 1647.5,-239 1647.5,-220 1796.5,-220 1796.5,-239"/>
<text text-anchor="middle" x="1722" y="-227" font-family="Helvetica,sans-Serif" font-size="10.00">audio/AudioSubsystem.hpp</text>
</a>
</g>
</g>
<!-- Node2&#45;&gt;Node31 -->
<g id="edge52_Node000002_Node000031" class="edge">
<title>Node2&#45;&gt;Node31</title>
<g id="a_edge52_Node000002_Node000031"><a xlink:title=" ">
<path fill="none" stroke="#63b8ff" d="M1722,-274.75C1722,-267.8 1722,-257.85 1722,-249.13"/>
<polygon fill="#63b8ff" stroke="#63b8ff" points="1725.5,-249.09 1722,-239.09 1718.5,-249.09 1725.5,-249.09"/>
</a>
</g>
</g>
<!-- Node32 -->
<g id="Node000032" class="node">
<title>Node32</title>
<g id="a_Node000032"><a xlink:title=" ">
<polygon fill="#e0e0e0" stroke="#999999" points="1951,-239 1815,-239 1815,-220 1951,-220 1951,-239"/>
<text text-anchor="middle" x="1883" y="-227" font-family="Helvetica,sans-Serif" font-size="10.00">engine/GameEngine.hpp</text>
</a>
</g>
</g>
<!-- Node2&#45;&gt;Node32 -->
<g id="edge53_Node000002_Node000032" class="edge">
<title>Node2&#45;&gt;Node32</title>
<g id="a_edge53_Node000002_Node000032"><a xlink:title=" ">
<path fill="none" stroke="#63b8ff" d="M1747.87,-274.98C1774.78,-266.13 1817.12,-252.19 1847.23,-242.28"/>
<polygon fill="#63b8ff" stroke="#63b8ff" points="1848.53,-245.53 1856.93,-239.08 1846.34,-238.88 1848.53,-245.53"/>
</a>
</g>
</g>
<!-- Node33 -->
<g id="Node000033" class="node">
<title>Node33</title>
<g id="a_Node000033"><a xlink:title=" ">
<polygon fill="#e0e0e0" stroke="#999999" points="2145,-239 1969,-239 1969,-220 2145,-220 2145,-239"/>
<text text-anchor="middle" x="2057" y="-227" font-family="Helvetica,sans-Serif" font-size="10.00">network/NetworkSubsystem.hpp</text>
</a>
</g>
</g>
<!-- Node2&#45;&gt;Node33 -->
<g id="edge54_Node000002_Node000033" class="edge">
<title>Node2&#45;&gt;Node33</title>
<g id="a_edge54_Node000002_Node000033"><a xlink:title=" ">
<path fill="none" stroke="#63b8ff" d="M1775.82,-274.98C1834.95,-265.63 1929.87,-250.61 1992.83,-240.65"/>
<polygon fill="#63b8ff" stroke="#63b8ff" points="1993.7,-244.06 2003.03,-239.04 1992.61,-237.14 1993.7,-244.06"/>
</a>
</g>
</g>
<!-- Node34 -->
<g id="Node000034" class="node">
<title>Node34</title>
<g id="a_Node000034"><a xlink:title=" ">
<polygon fill="#e0e0e0" stroke="#999999" points="2261,-239 2163,-239 2163,-220 2261,-220 2261,-239"/>
<text text-anchor="middle" x="2212" y="-227" font-family="Helvetica,sans-Serif" font-size="10.00">scene/Scene.hpp</text>
</a>
</g>
</g>
<!-- Node2&#45;&gt;Node34 -->
<g id="edge56_Node000002_Node000034" class="edge">
<title>Node2&#45;&gt;Node34</title>
<g id="a_edge56_Node000002_Node000034"><a xlink:title=" ">
<path fill="none" stroke="#63b8ff" d="M1783.26,-278.02C1865.11,-270.52 2014.91,-256.14 2153.05,-239.07"/>
<polygon fill="#63b8ff" stroke="#63b8ff" points="2153.48,-242.54 2162.97,-237.84 2152.62,-235.6 2153.48,-242.54"/>
</a>
</g>
</g>
<!-- Node35 -->
<g id="Node000035" class="node">
<title>Node35</title>
<g id="a_Node000035"><a xlink:title=" ">
<polygon fill="#e0e0e0" stroke="#999999" points="2419,-239 2279,-239 2279,-220 2419,-220 2419,-239"/>
<text text-anchor="middle" x="2349" y="-227" font-family="Helvetica,sans-Serif" font-size="10.00">scene/SceneManager.hpp</text>
</a>
</g>
</g>
<!-- Node2&#45;&gt;Node35 -->
<g id="edge57_Node000002_Node000035" class="edge">
<title>Node2&#45;&gt;Node35</title>
<g id="a_edge57_Node000002_Node000035"><a xlink:title=" ">
<path fill="none" stroke="#63b8ff" d="M1783.27,-279.05C1882.78,-271.71 2085.97,-256.23 2268.73,-239.1"/>
<polygon fill="#63b8ff" stroke="#63b8ff" points="2269.17,-242.57 2278.8,-238.15 2268.51,-235.6 2269.17,-242.57"/>
</a>
</g>
</g>
<!-- Node36 -->
<g id="Node000036" class="node">
<title>Node36</title>
<g id="a_Node000036"><a xlink:title=" ">
<polygon fill="#e0e0e0" stroke="#999999" points="2529,-239 2437,-239 2437,-220 2529,-220 2529,-239"/>
<text text-anchor="middle" x="2483" y="-227" font-family="Helvetica,sans-Serif" font-size="10.00">ui/UIButton.hpp</text>
</a>
</g>
</g>
<!-- Node2&#45;&gt;Node36 -->
<g id="edge58_Node000002_Node000036" class="edge">
<title>Node2&#45;&gt;Node36</title>
<g id="a_edge58_Node000002_Node000036"><a xlink:title=" ">
<path fill="none" stroke="#63b8ff" d="M1783.07,-281.51C1903.96,-277.17 2182.47,-265.15 2426.69,-239.04"/>
<polygon fill="#63b8ff" stroke="#63b8ff" points="2427.26,-242.5 2436.83,-237.95 2426.51,-235.54 2427.26,-242.5"/>
</a>
</g>
</g>
<!-- Node37 -->
<g id="Node000037" class="node">
<title>Node37</title>
<g id="a_Node000037"><a xlink:title=" ">
<polygon fill="#e0e0e0" stroke="#999999" points="2649,-239 2547,-239 2547,-220 2649,-220 2649,-239"/>
<text text-anchor="middle" x="2598" y="-227" font-family="Helvetica,sans-Serif" font-size="10.00">ui/UIManager.hpp</text>
</a>
</g>
</g>
<!-- Node2&#45;&gt;Node37 -->
<g id="edge59_Node000002_Node000037" class="edge">
<title>Node2&#45;&gt;Node37</title>
<g id="a_edge59_Node000002_Node000037"><a xlink:title=" ">
<path fill="none" stroke="#63b8ff" d="M1783.04,-281.97C1917.35,-278.22 2248.77,-266.82 2536.75,-239.03"/>
<polygon fill="#63b8ff" stroke="#63b8ff" points="2537.36,-242.49 2546.97,-238.03 2536.68,-235.52 2537.36,-242.49"/>
</a>
</g>
</g>
<!-- Node38 -->
<g id="Node000038" class="node">
<title>Node38</title>
<g id="a_Node000038"><a xlink:title=" ">
<polygon fill="#e0e0e0" stroke="#999999" points="2747,-239 2667,-239 2667,-220 2747,-220 2747,-239"/>
<text text-anchor="middle" x="2707" y="-227" font-family="Helvetica,sans-Serif" font-size="10.00">ui/UIText.hpp</text>
</a>
</g>
</g>
<!-- Node2&#45;&gt;Node38 -->
<g id="edge60_Node000002_Node000038" class="edge">
<title>Node2&#45;&gt;Node38</title>
<g id="a_edge60_Node000002_Node000038"><a xlink:title=" ">
<path fill="none" stroke="#63b8ff" d="M1783.26,-283.22C1931.5,-281.96 2321.43,-275.29 2656.55,-239"/>
<polygon fill="#63b8ff" stroke="#63b8ff" points="2657.39,-242.43 2666.95,-237.87 2656.62,-235.47 2657.39,-242.43"/>
</a>
</g>
</g>
<!-- Node8&#45;&gt;Node4 -->
<g id="edge8_Node000008_Node000004" class="edge">
<title>Node8&#45;&gt;Node4</title>
<g id="a_edge8_Node000008_Node000004"><a xlink:title=" ">
<path fill="none" stroke="#63b8ff" d="M801.91,-223.44C784.94,-222.25 766.82,-221.03 750,-220 450.88,-201.59 371.17,-223.89 70.48,-183.96"/>
<polygon fill="#63b8ff" stroke="#63b8ff" points="70.52,-180.43 60.15,-182.58 69.59,-187.37 70.52,-180.43"/>
</a>
</g>
</g>
<!-- Node8&#45;&gt;Node5 -->
<g id="edge9_Node000008_Node000005" class="edge">
<title>Node8&#45;&gt;Node5</title>
<g id="a_edge9_Node000008_Node000005"><a xlink:title=" ">
<path fill="none" stroke="#63b8ff" d="M801.73,-221.16C797.09,-220.74 792.48,-220.35 788,-220 498.68,-197.21 423.24,-225.51 136,-184 134.75,-183.82 133.48,-183.62 132.2,-183.39"/>
<polygon fill="#63b8ff" stroke="#63b8ff" points="132.84,-179.96 122.35,-181.42 131.47,-186.82 132.84,-179.96"/>
</a>
</g>
</g>
<!-- Node8&#45;&gt;Node7 -->
<g id="edge11_Node000008_Node000007" class="edge">
<title>Node8&#45;&gt;Node7</title>
<g id="a_edge11_Node000008_Node000007"><a xlink:title=" ">
<path fill="none" stroke="#63b8ff" d="M940.01,-225.96C1060.15,-220.93 1297.79,-208.04 1327,-184 1340.04,-173.27 1344.37,-153.97 1345.7,-139.46"/>
<polygon fill="#63b8ff" stroke="#63b8ff" points="1349.21,-139.26 1346.22,-129.1 1342.22,-138.91 1349.21,-139.26"/>
</a>
</g>
</g>
<!-- Node9 -->
<g id="Node000009" class="node">
<title>Node9</title>
<g id="a_Node000009"><a xlink:title=" ">
<polygon fill="#e0e0e0" stroke="#999999" points="1056.5,-129 1011.5,-129 1011.5,-110 1056.5,-110 1056.5,-129"/>
<text text-anchor="middle" x="1034" y="-117" font-family="Helvetica,sans-Serif" font-size="10.00">utility</text>
</a>
</g>
</g>
<!-- Node8&#45;&gt;Node9 -->
<g id="edge10_Node000008_Node000009" class="edge">
<title>Node8&#45;&gt;Node9</title>
<g id="a_edge10_Node000008_Node000009"><a xlink:title=" ">
<path fill="none" stroke="#63b8ff" d="M884.54,-219.89C898.49,-210.98 920.85,-196.64 940,-184 965.28,-167.31 994.12,-147.75 1013.11,-134.8"/>
<polygon fill="#63b8ff" stroke="#63b8ff" points="1015.3,-137.54 1021.59,-129.01 1011.36,-131.76 1015.3,-137.54"/>
</a>
</g>
</g>
<!-- Node10 -->
<g id="Node000010" class="node">
<title>Node10</title>
<g id="a_Node000010"><a xlink:href="Items_8hpp.html" target="_top" xlink:title=" ">
<polygon fill="white" stroke="#666666" points="550,-184 440,-184 440,-165 550,-165 550,-184"/>
<text text-anchor="middle" x="495" y="-172" font-family="Helvetica,sans-Serif" font-size="10.00">Collision/Items.hpp</text>
</a>
</g>
</g>
<!-- Node8&#45;&gt;Node10 -->
<g id="edge12_Node000008_Node000010" class="edge">
<title>Node8&#45;&gt;Node10</title>
<g id="a_edge12_Node000008_Node000010"><a xlink:title=" ">
<path fill="none" stroke="#63b8ff" d="M810.59,-219.98C742.03,-210.32 630.61,-194.62 560.15,-184.68"/>
<polygon fill="#63b8ff" stroke="#63b8ff" points="560.45,-181.19 550.06,-183.26 559.47,-188.12 560.45,-181.19"/>
</a>
</g>
</g>
<!-- Node11 -->
<g id="Node000011" class="node">
<title>Node11</title>
<g id="a_Node000011"><a xlink:href="Boss_8hpp.html" target="_top" xlink:title=" ">
<polygon fill="white" stroke="#666666" points="665.5,-129 570.5,-129 570.5,-110 665.5,-110 665.5,-129"/>
<text text-anchor="middle" x="618" y="-117" font-family="Helvetica,sans-Serif" font-size="10.00">Player/Boss.hpp</text>
</a>
</g>
</g>
<!-- Node8&#45;&gt;Node11 -->
<g id="edge13_Node000008_Node000011" class="edge">
<title>Node8&#45;&gt;Node11</title>
<g id="a_edge13_Node000008_Node000011"><a xlink:title=" ">
<path fill="none" stroke="#63b8ff" d="M801.71,-221.38C797.07,-220.91 792.47,-220.45 788,-220 747.45,-215.92 450.37,-214.2 423,-184 417.33,-177.74 417.73,-171.6 423,-165 431.69,-154.11 506.14,-139.38 560.47,-129.91"/>
<polygon fill="#63b8ff" stroke="#63b8ff" points="561.1,-133.35 570.36,-128.2 559.91,-126.45 561.1,-133.35"/>
</a>
</g>
</g>
<!-- Node12 -->
<g id="Node000012" class="node">
<title>Node12</title>
<g id="a_Node000012"><a xlink:title=" ">
<polygon fill="#e0e0e0" stroke="#999999" points="819,-19 691,-19 691,0 819,0 819,-19"/>
<text text-anchor="middle" x="755" y="-7" font-family="Helvetica,sans-Serif" font-size="10.00">physics/Physics2D.hpp</text>
</a>
</g>
</g>
<!-- Node8&#45;&gt;Node12 -->
<g id="edge49_Node000008_Node000012" class="edge">
<title>Node8&#45;&gt;Node12</title>
<g id="a_edge49_Node000008_Node000012"><a xlink:title=" ">
<path fill="none" stroke="#63b8ff" d="M801.9,-221.36C796.52,-220.87 791.17,-220.41 786,-220 653.3,-209.37 314.26,-226.22 188,-184 146.03,-169.97 125.94,-167.99 105,-129 49.41,-25.48 499.11,-11.76 680.94,-10.4"/>
<polygon fill="#63b8ff" stroke="#63b8ff" points="680.98,-13.9 690.96,-10.34 680.93,-6.9 680.98,-13.9"/>
</a>
</g>
</g>
<!-- Node14 -->
<g id="Node000014" class="node">
<title>Node14</title>
<g id="a_Node000014"><a xlink:href="Enemy_8hpp.html" target="_top" xlink:title=" ">
<polygon fill="white" stroke="#666666" points="1179,-129 1075,-129 1075,-110 1179,-110 1179,-129"/>
<text text-anchor="middle" x="1127" y="-117" font-family="Helvetica,sans-Serif" font-size="10.00">Player/Enemy.hpp</text>
</a>
</g>
</g>
<!-- Node8&#45;&gt;Node14 -->
<g id="edge16_Node000008_Node000014" class="edge">
<title>Node8&#45;&gt;Node14</title>
<g id="a_edge16_Node000008_Node000014"><a xlink:title=" ">
<path fill="none" stroke="#63b8ff" d="M940.01,-226.78C1010.52,-223.4 1113.09,-213.4 1138,-184 1148.71,-171.36 1143.35,-152.1 1136.93,-138.11"/>
<polygon fill="#63b8ff" stroke="#63b8ff" points="1139.95,-136.32 1132.28,-129.02 1133.72,-139.51 1139.95,-136.32"/>
</a>
</g>
</g>
<!-- Node15 -->
<g id="Node000015" class="node">
<title>Node15</title>
<g id="a_Node000015"><a xlink:href="EnemySpawn_8hpp.html" target="_top" xlink:title=" ">
<polygon fill="white" stroke="#666666" points="1129.5,-184 992.5,-184 992.5,-165 1129.5,-165 1129.5,-184"/>
<text text-anchor="middle" x="1061" y="-172" font-family="Helvetica,sans-Serif" font-size="10.00">Player/EnemySpawn.hpp</text>
</a>
</g>
</g>
<!-- Node8&#45;&gt;Node15 -->
<g id="edge18_Node000008_Node000015" class="edge">
<title>Node8&#45;&gt;Node15</title>
<g id="a_edge18_Node000008_Node000015"><a xlink:title=" ">
<path fill="none" stroke="#63b8ff" d="M901.53,-219.98C933.7,-211.01 984.56,-196.82 1020.17,-186.89"/>
<polygon fill="#63b8ff" stroke="#63b8ff" points="1021.54,-190.14 1030.23,-184.08 1019.66,-183.4 1021.54,-190.14"/>
</a>
</g>
</g>
<!-- Node16 -->
<g id="Node000016" class="node">
<title>Node16</title>
<g id="a_Node000016"><a xlink:href="PlayerEntity_8hpp.html" target="_top" xlink:title=" ">
<polygon fill="white" stroke="#666666" points="345.5,-184 216.5,-184 216.5,-165 345.5,-165 345.5,-184"/>
<text text-anchor="middle" x="281" y="-172" font-family="Helvetica,sans-Serif" font-size="10.00">Player/PlayerEntity.hpp</text>
</a>
</g>
</g>
<!-- Node8&#45;&gt;Node16 -->
<g id="edge22_Node000008_Node000016" class="edge">
<title>Node8&#45;&gt;Node16</title>
<g id="a_edge22_Node000008_Node000016"><a xlink:title=" ">
<path fill="none" stroke="#63b8ff" d="M801.72,-221.31C797.08,-220.86 792.47,-220.42 788,-220 597.93,-202.28 550.02,-202.21 360,-184 358.69,-183.87 357.36,-183.75 356.03,-183.62"/>
<polygon fill="#63b8ff" stroke="#63b8ff" points="355.96,-180.09 345.66,-182.58 355.26,-187.06 355.96,-180.09"/>
</a>
</g>
</g>
<!-- Node20 -->
<g id="Node000020" class="node">
<title>Node20</title>
<g id="a_Node000020"><a xlink:href="Projectile_8hpp.html" target="_top" xlink:title=" ">
<polygon fill="white" stroke="#666666" points="990,-74 810,-74 810,-55 990,-55 990,-74"/>
<text text-anchor="middle" x="900" y="-62" font-family="Helvetica,sans-Serif" font-size="10.00">components/Player/Projectile.hpp</text>
</a>
</g>
</g>
<!-- Node8&#45;&gt;Node20 -->
<g id="edge30_Node000008_Node000020" class="edge">
<title>Node8&#45;&gt;Node20</title>
<g id="a_edge30_Node000008_Node000020"><a xlink:title=" ">
<path fill="none" stroke="#63b8ff" d="M880.83,-219.76C902.92,-199.84 955.28,-151.1 964,-129 967.1,-121.14 967.91,-117.48 964,-110 956.89,-96.39 943.51,-86.1 930.81,-78.87"/>
<polygon fill="#63b8ff" stroke="#63b8ff" points="932.27,-75.68 921.79,-74.13 929.02,-81.88 932.27,-75.68"/>
</a>
</g>
</g>
<!-- Node21 -->
<g id="Node000021" class="node">
<title>Node21</title>
<g id="a_Node000021"><a xlink:href="BossPart_8hpp.html" target="_top" xlink:title=" ">
<polygon fill="white" stroke="#666666" points="826.5,-129 683.5,-129 683.5,-110 826.5,-110 826.5,-129"/>
<text text-anchor="middle" x="755" y="-117" font-family="Helvetica,sans-Serif" font-size="10.00">components/BossPart.hpp</text>
</a>
</g>
</g>
<!-- Node8&#45;&gt;Node21 -->
<g id="edge31_Node000008_Node000021" class="edge">
<title>Node8&#45;&gt;Node21</title>
<g id="a_edge31_Node000008_Node000021"><a xlink:title=" ">
<path fill="none" stroke="#63b8ff" d="M801.71,-221.4C797.07,-220.92 792.47,-220.45 788,-220 748.34,-215.97 457.74,-213.57 431,-184 425.34,-177.74 425.45,-171.36 431,-165 435.01,-160.4 579.86,-141.9 674.51,-130.25"/>
<polygon fill="#63b8ff" stroke="#63b8ff" points="675.15,-133.69 684.65,-129 674.29,-126.75 675.15,-133.69"/>
</a>
</g>
</g>
<!-- Node22 -->
<g id="Node000022" class="node">
<title>Node22</title>
<g id="a_Node000022"><a xlink:href="Force_8hpp.html" target="_top" xlink:title=" ">
<polygon fill="white" stroke="#666666" points="241.5,-129 114.5,-129 114.5,-110 241.5,-110 241.5,-129"/>
<text text-anchor="middle" x="178" y="-117" font-family="Helvetica,sans-Serif" font-size="10.00">components/Force.hpp</text>
</a>
</g>
</g>
<!-- Node8&#45;&gt;Node22 -->
<g id="edge34_Node000008_Node000022" class="edge">
<title>Node8&#45;&gt;Node22</title>
<g id="a_edge34_Node000008_Node000022"><a xlink:title=" ">
<path fill="none" stroke="#63b8ff" d="M801.73,-221.2C797.08,-220.77 792.48,-220.37 788,-220 723.54,-214.7 260.3,-220.63 207,-184 192.2,-173.83 184.81,-154.15 181.22,-139.38"/>
<polygon fill="#63b8ff" stroke="#63b8ff" points="184.59,-138.38 179.15,-129.28 177.73,-139.78 184.59,-138.38"/>
</a>
</g>
</g>
<!-- Node23 -->
<g id="Node000023" class="node">
<title>Node23</title>
<g id="a_Node000023"><a xlink:href="Levels_8hpp.html" target="_top" xlink:title=" ">
<polygon fill="white" stroke="#666666" points="1318,-184 1186,-184 1186,-165 1318,-165 1318,-184"/>
<text text-anchor="middle" x="1252" y="-172" font-family="Helvetica,sans-Serif" font-size="10.00">components/Levels.hpp</text>
</a>
</g>
</g>
<!-- Node8&#45;&gt;Node23 -->
<g id="edge37_Node000008_Node000023" class="edge">
<title>Node8&#45;&gt;Node23</title>
<g id="a_edge37_Node000008_Node000023"><a xlink:title=" ">
<path fill="none" stroke="#63b8ff" d="M932.21,-219.98C999.88,-210.57 1108.75,-195.43 1180.34,-185.47"/>
<polygon fill="#63b8ff" stroke="#63b8ff" points="1181.2,-188.88 1190.62,-184.04 1180.24,-181.95 1181.2,-188.88"/>
</a>
</g>
</g>
<!-- Node25 -->
<g id="Node000025" class="node">
<title>Node25</title>
<g id="a_Node000025"><a xlink:href="TileMap_8hpp.html" target="_top" xlink:title=" ">
<polygon fill="white" stroke="#666666" points="1762,-184 1622,-184 1622,-165 1762,-165 1762,-184"/>
<text text-anchor="middle" x="1692" y="-172" font-family="Helvetica,sans-Serif" font-size="10.00">components/TileMap.hpp</text>
</a>
</g>
</g>
<!-- Node8&#45;&gt;Node25 -->
<g id="edge43_Node000008_Node000025" class="edge">
<title>Node8&#45;&gt;Node25</title>
<g id="a_edge43_Node000008_Node000025"><a xlink:title=" ">
<path fill="none" stroke="#63b8ff" d="M940.36,-224.31C1066.5,-216.65 1341.87,-199.71 1574,-184 1586.21,-183.17 1599.12,-182.27 1611.76,-181.37"/>
<polygon fill="#63b8ff" stroke="#63b8ff" points="1612.09,-184.86 1621.81,-180.66 1611.59,-177.88 1612.09,-184.86"/>
</a>
</g>
</g>
<!-- Node27 -->
<g id="Node000027" class="node">
<title>Node27</title>
<g id="a_Node000027"><a xlink:title=" ">
<polygon fill="#e0e0e0" stroke="#999999" points="664,-184 568,-184 568,-165 664,-165 664,-184"/>
<text text-anchor="middle" x="616" y="-172" font-family="Helvetica,sans-Serif" font-size="10.00">ecs/Registry.hpp</text>
</a>
</g>
</g>
<!-- Node8&#45;&gt;Node27 -->
<g id="edge47_Node000008_Node000027" class="edge">
<title>Node8&#45;&gt;Node27</title>
<g id="a_edge47_Node000008_Node000027"><a xlink:title=" ">
<path fill="none" stroke="#63b8ff" d="M830.03,-219.98C785.74,-210.78 715.06,-196.09 667.15,-186.13"/>
<polygon fill="#63b8ff" stroke="#63b8ff" points="667.79,-182.69 657.29,-184.08 666.37,-189.54 667.79,-182.69"/>
</a>
</g>
</g>
<!-- Node28 -->
<g id="Node000028" class="node">
<title>Node28</title>
<g id="a_Node000028"><a xlink:title=" ">
<polygon fill="#e0e0e0" stroke="#999999" points="826,-184 682,-184 682,-165 826,-165 826,-184"/>
<text text-anchor="middle" x="754" y="-172" font-family="Helvetica,sans-Serif" font-size="10.00">input/InputSubsystem.hpp</text>
</a>
</g>
</g>
<!-- Node8&#45;&gt;Node28 -->
<g id="edge48_Node000008_Node000028" class="edge">
<title>Node8&#45;&gt;Node28</title>
<g id="a_edge48_Node000008_Node000028"><a xlink:title=" ">
<path fill="none" stroke="#63b8ff" d="M852.2,-219.98C833.38,-211.46 804.18,-198.23 782.5,-188.41"/>
<polygon fill="#63b8ff" stroke="#63b8ff" points="783.69,-185.11 773.14,-184.17 780.8,-191.48 783.69,-185.11"/>
</a>
</g>
</g>
<!-- Node8&#45;&gt;Node29 -->
<g id="edge50_Node000008_Node000029" class="edge">
<title>Node8&#45;&gt;Node29</title>
<g id="a_edge50_Node000008_Node000029"><a xlink:title=" ">
<path fill="none" stroke="#63b8ff" d="M940.01,-222.39C1044.06,-213.19 1241.94,-195.68 1364.26,-184.86"/>
<polygon fill="#63b8ff" stroke="#63b8ff" points="1364.74,-188.33 1374.39,-183.96 1364.12,-181.35 1364.74,-188.33"/>
</a>
</g>
</g>
<!-- Node30 -->
<g id="Node000030" class="node">
<title>Node30</title>
<g id="a_Node000030"><a xlink:title=" ">
<polygon fill="#e0e0e0" stroke="#999999" points="897.5,-184 844.5,-184 844.5,-165 897.5,-165 897.5,-184"/>
<text text-anchor="middle" x="871" y="-172" font-family="Helvetica,sans-Serif" font-size="10.00">stdlib.h</text>
</a>
</g>
</g>
<!-- Node8&#45;&gt;Node30 -->
<g id="edge51_Node000008_Node000030" class="edge">
<title>Node8&#45;&gt;Node30</title>
<g id="a_edge51_Node000008_Node000030"><a xlink:title=" ">
<path fill="none" stroke="#63b8ff" d="M871,-219.75C871,-212.8 871,-202.85 871,-194.13"/>
<polygon fill="#63b8ff" stroke="#63b8ff" points="874.5,-194.09 871,-184.09 867.5,-194.09 874.5,-194.09"/>
</a>
</g>
</g>
<!-- Node11&#45;&gt;Node12 -->
<g id="edge14_Node000011_Node000012" class="edge">
<title>Node11&#45;&gt;Node12</title>
<g id="a_edge14_Node000011_Node000012"><a xlink:title=" ">
<path fill="none" stroke="#63b8ff" d="M629.21,-109.66C652.61,-91.22 706.87,-48.45 735.88,-25.57"/>
<polygon fill="#63b8ff" stroke="#63b8ff" points="738.33,-28.1 744.02,-19.16 734,-22.6 738.33,-28.1"/>
</a>
</g>
</g>
<!-- Node13 -->
<g id="Node000013" class="node">
<title>Node13</title>
<g id="a_Node000013"><a xlink:title=" ">
<polygon fill="#e0e0e0" stroke="#999999" points="573,-74 489,-74 489,-55 573,-55 573,-74"/>
<text text-anchor="middle" x="531" y="-62" font-family="Helvetica,sans-Serif" font-size="10.00">ecs/Entity.hpp</text>
</a>
</g>
</g>
<!-- Node11&#45;&gt;Node13 -->
<g id="edge15_Node000011_Node000013" class="edge">
<title>Node11&#45;&gt;Node13</title>
<g id="a_edge15_Node000011_Node000013"><a xlink:title=" ">
<path fill="none" stroke="#63b8ff" d="M604.02,-109.98C590.53,-101.77 569.87,-89.18 553.96,-79.49"/>
<polygon fill="#63b8ff" stroke="#63b8ff" points="555.59,-76.38 545.23,-74.17 551.95,-82.36 555.59,-76.38"/>
</a>
</g>
</g>
<!-- Node14&#45;&gt;Node12 -->
<g id="edge17_Node000014_Node000012" class="edge">
<title>Node14&#45;&gt;Node12</title>
<g id="a_edge17_Node000014_Node000012"><a xlink:title=" ">
<path fill="none" stroke="#63b8ff" d="M1112.98,-109.89C1090.01,-96.18 1042.56,-69.46 999,-55 943.58,-36.61 878.41,-25.21 829.37,-18.57"/>
<polygon fill="#63b8ff" stroke="#63b8ff" points="829.53,-15.06 819.16,-17.22 828.61,-22 829.53,-15.06"/>
</a>
</g>
</g>
<!-- Node15&#45;&gt;Node7 -->
<g id="edge20_Node000015_Node000007" class="edge">
<title>Node15&#45;&gt;Node7</title>
<g id="a_edge20_Node000015_Node000007"><a xlink:title=" ">
<path fill="none" stroke="#63b8ff" d="M1106.79,-164.98C1164.2,-154.31 1261.27,-136.26 1312.31,-126.76"/>
<polygon fill="#63b8ff" stroke="#63b8ff" points="1312.99,-130.2 1322.18,-124.93 1311.71,-123.32 1312.99,-130.2"/>
</a>
</g>
</g>
<!-- Node15&#45;&gt;Node9 -->
<g id="edge19_Node000015_Node000009" class="edge">
<title>Node15&#45;&gt;Node9</title>
<g id="a_edge19_Node000015_Node000009"><a xlink:title=" ">
<path fill="none" stroke="#63b8ff" d="M1056.54,-164.75C1052.88,-157.57 1047.59,-147.18 1043.05,-138.27"/>
<polygon fill="#63b8ff" stroke="#63b8ff" points="1046.03,-136.41 1038.38,-129.09 1039.8,-139.59 1046.03,-136.41"/>
</a>
</g>
</g>
<!-- Node15&#45;&gt;Node14 -->
<g id="edge21_Node000015_Node000014" class="edge">
<title>Node15&#45;&gt;Node14</title>
<g id="a_edge21_Node000015_Node000014"><a xlink:title=" ">
<path fill="none" stroke="#63b8ff" d="M1071.6,-164.98C1081.46,-157.07 1096.35,-145.11 1108.22,-135.58"/>
<polygon fill="#63b8ff" stroke="#63b8ff" points="1110.6,-138.16 1116.2,-129.17 1106.21,-132.7 1110.6,-138.16"/>
</a>
</g>
</g>
<!-- Node16&#45;&gt;Node12 -->
<g id="edge29_Node000016_Node000012" class="edge">
<title>Node16&#45;&gt;Node12</title>
<g id="a_edge29_Node000016_Node000012"><a xlink:title=" ">
<path fill="none" stroke="#63b8ff" d="M279.39,-164.94C277.39,-151.54 275.71,-125.53 289,-110 339.05,-51.52 562.54,-25.49 680.9,-15.63"/>
<polygon fill="#63b8ff" stroke="#63b8ff" points="681.29,-19.11 690.97,-14.81 680.72,-12.13 681.29,-19.11"/>
</a>
</g>
</g>
<!-- Node17 -->
<g id="Node000017" class="node">
<title>Node17</title>
<g id="a_Node000017"><a xlink:title=" ">
<polygon fill="#e0e0e0" stroke="#999999" points="362,-129 298,-129 298,-110 362,-110 362,-129"/>
<text text-anchor="middle" x="330" y="-117" font-family="Helvetica,sans-Serif" font-size="10.00">algorithm</text>
</a>
</g>
</g>
<!-- Node16&#45;&gt;Node17 -->
<g id="edge23_Node000016_Node000017" class="edge">
<title>Node16&#45;&gt;Node17</title>
<g id="a_edge23_Node000016_Node000017"><a xlink:title=" ">
<path fill="none" stroke="#63b8ff" d="M289.09,-164.75C296.16,-157.11 306.59,-145.82 315.15,-136.56"/>
<polygon fill="#63b8ff" stroke="#63b8ff" points="317.84,-138.81 322.06,-129.09 312.7,-134.06 317.84,-138.81"/>
</a>
</g>
</g>
<!-- Node18 -->
<g id="Node000018" class="node">
<title>Node18</title>
<g id="a_Node000018"><a xlink:href="CollisionController_8hpp.html" target="_top" xlink:title=" ">
<polygon fill="white" stroke="#666666" points="552,-129 380,-129 380,-110 552,-110 552,-129"/>
<text text-anchor="middle" x="466" y="-117" font-family="Helvetica,sans-Serif" font-size="10.00">Collision/CollisionController.hpp</text>
</a>
</g>
</g>
<!-- Node16&#45;&gt;Node18 -->
<g id="edge24_Node000016_Node000018" class="edge">
<title>Node16&#45;&gt;Node18</title>
<g id="a_edge24_Node000016_Node000018"><a xlink:title=" ">
<path fill="none" stroke="#63b8ff" d="M310.72,-164.98C342.05,-156.01 391.57,-141.82 426.24,-131.89"/>
<polygon fill="#63b8ff" stroke="#63b8ff" points="427.39,-135.2 436.04,-129.08 425.47,-128.47 427.39,-135.2"/>
</a>
</g>
</g>
<!-- Node19 -->
<g id="Node000019" class="node">
<title>Node19</title>
<g id="a_Node000019"><a xlink:href="Weapon_8hpp.html" target="_top" xlink:title=" ">
<polygon fill="white" stroke="#666666" points="955,-129 845,-129 845,-110 955,-110 955,-129"/>
<text text-anchor="middle" x="900" y="-117" font-family="Helvetica,sans-Serif" font-size="10.00">Player/Weapon.hpp</text>
</a>
</g>
</g>
<!-- Node16&#45;&gt;Node19 -->
<g id="edge26_Node000016_Node000019" class="edge">
<title>Node16&#45;&gt;Node19</title>
<g id="a_edge26_Node000016_Node000019"><a xlink:title=" ">
<path fill="none" stroke="#63b8ff" d="M345.92,-169.34C447.62,-162.59 650.92,-148.16 834.59,-128.98"/>
<polygon fill="#63b8ff" stroke="#63b8ff" points="835.12,-132.45 844.7,-127.92 834.39,-125.49 835.12,-132.45"/>
</a>
</g>
</g>
<!-- Node18&#45;&gt;Node13 -->
<g id="edge25_Node000018_Node000013" class="edge">
<title>Node18&#45;&gt;Node13</title>
<g id="a_edge25_Node000018_Node000013"><a xlink:title=" ">
<path fill="none" stroke="#63b8ff" d="M476.44,-109.98C486.15,-102.07 500.82,-90.11 512.5,-80.58"/>
<polygon fill="#63b8ff" stroke="#63b8ff" points="514.83,-83.2 520.37,-74.17 510.4,-77.78 514.83,-83.2"/>
</a>
</g>
</g>
<!-- Node19&#45;&gt;Node20 -->
<g id="edge27_Node000019_Node000020" class="edge">
<title>Node19&#45;&gt;Node20</title>
<g id="a_edge27_Node000019_Node000020"><a xlink:title=" ">
<path fill="none" stroke="#63b8ff" d="M900,-109.75C900,-102.8 900,-92.85 900,-84.13"/>
<polygon fill="#63b8ff" stroke="#63b8ff" points="903.5,-84.09 900,-74.09 896.5,-84.09 903.5,-84.09"/>
</a>
</g>
</g>
<!-- Node20&#45;&gt;Node12 -->
<g id="edge28_Node000020_Node000012" class="edge">
<title>Node20&#45;&gt;Node12</title>
<g id="a_edge28_Node000020_Node000012"><a xlink:title=" ">
<path fill="none" stroke="#63b8ff" d="M876.7,-54.98C852.75,-46.23 815.22,-32.51 788.17,-22.62"/>
<polygon fill="#63b8ff" stroke="#63b8ff" points="789.31,-19.32 778.72,-19.17 786.91,-25.89 789.31,-19.32"/>
</a>
</g>
</g>
<!-- Node21&#45;&gt;Node12 -->
<g id="edge32_Node000021_Node000012" class="edge">
<title>Node21&#45;&gt;Node12</title>
<g id="a_edge32_Node000021_Node000012"><a xlink:title=" ">
<path fill="none" stroke="#63b8ff" d="M755,-109.66C755,-92.17 755,-52.8 755,-29.27"/>
<polygon fill="#63b8ff" stroke="#63b8ff" points="758.5,-29.16 755,-19.16 751.5,-29.16 758.5,-29.16"/>
</a>
</g>
</g>
<!-- Node21&#45;&gt;Node13 -->
<g id="edge33_Node000021_Node000013" class="edge">
<title>Node21&#45;&gt;Node13</title>
<g id="a_edge33_Node000021_Node000013"><a xlink:title=" ">
<path fill="none" stroke="#63b8ff" d="M719.01,-109.98C680.51,-100.87 619.31,-86.4 577.26,-76.45"/>
<polygon fill="#63b8ff" stroke="#63b8ff" points="577.81,-72.98 567.27,-74.08 576.2,-79.79 577.81,-72.98"/>
</a>
</g>
</g>
<!-- Node22&#45;&gt;Node12 -->
<g id="edge36_Node000022_Node000012" class="edge">
<title>Node22&#45;&gt;Node12</title>
<g id="a_edge36_Node000022_Node000012"><a xlink:title=" ">
<path fill="none" stroke="#63b8ff" d="M185.56,-109.6C198.37,-95.21 225.91,-67.23 256,-55 330.96,-24.53 560.59,-14.84 680.43,-11.83"/>
<polygon fill="#63b8ff" stroke="#63b8ff" points="680.71,-15.32 690.62,-11.58 680.54,-8.32 680.71,-15.32"/>
</a>
</g>
</g>
<!-- Node22&#45;&gt;Node13 -->
<g id="edge35_Node000022_Node000013" class="edge">
<title>Node22&#45;&gt;Node13</title>
<g id="a_edge35_Node000022_Node000013"><a xlink:title=" ">
<path fill="none" stroke="#63b8ff" d="M234.72,-109.98C302.05,-99.87 413.44,-83.15 478.75,-73.34"/>
<polygon fill="#63b8ff" stroke="#63b8ff" points="479.46,-76.78 488.83,-71.83 478.42,-69.86 479.46,-76.78"/>
</a>
</g>
</g>
<!-- Node23&#45;&gt;Node7 -->
<g id="edge39_Node000023_Node000007" class="edge">
<title>Node23&#45;&gt;Node7</title>
<g id="a_edge39_Node000023_Node000007"><a xlink:title=" ">
<path fill="none" stroke="#63b8ff" d="M1267.1,-164.98C1281.82,-156.69 1304.42,-143.94 1321.67,-134.22"/>
<polygon fill="#63b8ff" stroke="#63b8ff" points="1323.63,-137.13 1330.62,-129.17 1320.19,-131.03 1323.63,-137.13"/>
</a>
</g>
</g>
<!-- Node23&#45;&gt;Node11 -->
<g id="edge40_Node000023_Node000011" class="edge">
<title>Node23&#45;&gt;Node11</title>
<g id="a_edge40_Node000023_Node000011"><a xlink:title=" ">
<path fill="none" stroke="#63b8ff" d="M1185.81,-168.54C1048.85,-158.25 742.13,-135.11 675.78,-128.99"/>
<polygon fill="#63b8ff" stroke="#63b8ff" points="675.93,-125.48 665.63,-127.97 675.23,-132.45 675.93,-125.48"/>
</a>
</g>
</g>
<!-- Node23&#45;&gt;Node12 -->
<g id="edge42_Node000023_Node000012" class="edge">
<title>Node23&#45;&gt;Node12</title>
<g id="a_edge42_Node000023_Node000012"><a xlink:title=" ">
<path fill="none" stroke="#63b8ff" d="M1245.44,-164.91C1234.76,-151.45 1212.35,-125.38 1188,-110 1076.38,-39.51 920.47,-18.8 829.38,-12.81"/>
<polygon fill="#63b8ff" stroke="#63b8ff" points="829.34,-9.31 819.14,-12.19 828.91,-16.29 829.34,-9.31"/>
</a>
</g>
</g>
<!-- Node23&#45;&gt;Node14 -->
<g id="edge41_Node000023_Node000014" class="edge">
<title>Node23&#45;&gt;Node14</title>
<g id="a_edge41_Node000023_Node000014"><a xlink:title=" ">
<path fill="none" stroke="#63b8ff" d="M1231.92,-164.98C1211.63,-156.38 1180.04,-142.99 1156.83,-133.15"/>
<polygon fill="#63b8ff" stroke="#63b8ff" points="1158.02,-129.85 1147.45,-129.17 1155.29,-136.3 1158.02,-129.85"/>
</a>
</g>
</g>
<!-- Node24 -->
<g id="Node000024" class="node">
<title>Node24</title>
<g id="a_Node000024"><a xlink:title=" ">
<polygon fill="#e0e0e0" stroke="#999999" points="1291,-129 1235,-129 1235,-110 1291,-110 1291,-129"/>
<text text-anchor="middle" x="1263" y="-117" font-family="Helvetica,sans-Serif" font-size="10.00">optional</text>
</a>
</g>
</g>
<!-- Node23&#45;&gt;Node24 -->
<g id="edge38_Node000023_Node000024" class="edge">
<title>Node23&#45;&gt;Node24</title>
<g id="a_edge38_Node000023_Node000024"><a xlink:title=" ">
<path fill="none" stroke="#63b8ff" d="M1253.82,-164.75C1255.26,-157.8 1257.32,-147.85 1259.13,-139.13"/>
<polygon fill="#63b8ff" stroke="#63b8ff" points="1262.61,-139.59 1261.22,-129.09 1255.76,-138.17 1262.61,-139.59"/>
</a>
</g>
</g>
<!-- Node25&#45;&gt;Node7 -->
<g id="edge45_Node000025_Node000007" class="edge">
<title>Node25&#45;&gt;Node7</title>
<g id="a_edge45_Node000025_Node000007"><a xlink:title=" ">
<path fill="none" stroke="#63b8ff" d="M1636.41,-164.98C1563.97,-153.89 1439.52,-134.82 1379.84,-125.68"/>
<polygon fill="#63b8ff" stroke="#63b8ff" points="1380.24,-122.2 1369.82,-124.15 1379.18,-129.12 1380.24,-122.2"/>
</a>
</g>
</g>
<!-- Node25&#45;&gt;Node12 -->
<g id="edge46_Node000025_Node000012" class="edge">
<title>Node25&#45;&gt;Node12</title>
<g id="a_edge46_Node000025_Node000012"><a xlink:title=" ">
<path fill="none" stroke="#63b8ff" d="M1692.21,-164.92C1692.03,-151.01 1689.45,-123.69 1673,-110 1608.55,-56.37 1036.3,-23.94 829.31,-13.88"/>
<polygon fill="#63b8ff" stroke="#63b8ff" points="829.3,-10.38 819.14,-13.39 828.96,-17.37 829.3,-10.38"/>
</a>
</g>
</g>
<!-- Node26 -->
<g id="Node000026" class="node">
<title>Node26</title>
<g id="a_Node000026"><a xlink:title=" ">
<polygon fill="#e0e0e0" stroke="#999999" points="1664,-129 1614,-129 1614,-110 1664,-110 1664,-129"/>
<text text-anchor="middle" x="1639" y="-117" font-family="Helvetica,sans-Serif" font-size="10.00">cstdint</text>
</a>
</g>
</g>
<!-- Node25&#45;&gt;Node26 -->
<g id="edge44_Node000025_Node000026" class="edge">
<title>Node25&#45;&gt;Node26</title>
<g id="a_edge44_Node000025_Node000026"><a xlink:title=" ">
<path fill="none" stroke="#63b8ff" d="M1683.25,-164.75C1675.53,-157.03 1664.1,-145.6 1654.78,-136.28"/>
<polygon fill="#63b8ff" stroke="#63b8ff" points="1657.14,-133.69 1647.59,-129.09 1652.19,-138.64 1657.14,-133.69"/>
</a>
</g>
</g>
</g>
</svg>
