<?xml version="1.0" encoding="UTF-8" standalone="no"?>
<!DOCTYPE svg PUBLIC "-//W3C//DTD SVG 1.1//EN"
 "http://www.w3.org/Graphics/SVG/1.1/DTD/svg11.dtd">
<!-- Generated by graphviz version 2.43.0 (0)
 -->
<!-- Title: /home/runner/work/R&#45;Type/R&#45;Type/Server/src/main.cpp Pages: 1 -->
<svg width="1635pt" height="324pt"
 viewBox="0.00 0.00 1634.85 324.00" xmlns="http://www.w3.org/2000/svg" xmlns:xlink="http://www.w3.org/1999/xlink">
<g id="graph0" class="graph" transform="scale(1 1) rotate(0) translate(4 320)">
<title>/home/runner/work/R&#45;Type/R&#45;Type/Server/src/main.cpp</title>
<!-- Node1 -->
<g id="Node000001" class="node">
<title>Node1</title>
<g id="a_Node000001"><a xlink:title=" ">
<polygon fill="#999999" stroke="#666666" points="572.35,-316 453.35,-316 453.35,-275 572.35,-275 572.35,-316"/>
<text text-anchor="start" x="461.35" y="-304" font-family="Helvetica,sans-Serif" font-size="10.00">/home/runner/work/R</text>
<text text-anchor="start" x="461.35" y="-293" font-family="Helvetica,sans-Serif" font-size="10.00">&#45;Type/R&#45;Type/Server</text>
<text text-anchor="middle" x="512.85" y="-282" font-family="Helvetica,sans-Serif" font-size="10.00">/src/main.cpp</text>
</a>
</g>
</g>
<!-- Node2 -->
<g id="Node000002" class="node">
<title>Node2</title>
<g id="a_Node000002"><a xlink:href="ServerGame_8hpp.html" target="_top" xlink:title=" ">
<polygon fill="white" stroke="#666666" points="581.35,-239 444.35,-239 444.35,-220 581.35,-220 581.35,-239"/>
<text text-anchor="middle" x="512.85" y="-227" font-family="Helvetica,sans-Serif" font-size="10.00">include/ServerGame.hpp</text>
</a>
</g>
</g>
<!-- Node1&#45;&gt;Node2 -->
<g id="edge1_Node000001_Node000002" class="edge">
<title>Node1&#45;&gt;Node2</title>
<g id="a_edge1_Node000001_Node000002"><a xlink:title=" ">
<path fill="none" stroke="#63b8ff" d="M512.85,-274.95C512.85,-266.85 512.85,-257.5 512.85,-249.47"/>
<polygon fill="#63b8ff" stroke="#63b8ff" points="516.35,-249.26 512.85,-239.26 509.35,-249.26 516.35,-249.26"/>
</a>
</g>
</g>
<!-- Node3 -->
<g id="Node000003" class="node">
<title>Node3</title>
<g id="a_Node000003"><a xlink:title=" ">
<polygon fill="#e0e0e0" stroke="#999999" points="789.85,-19 739.85,-19 739.85,0 789.85,0 789.85,-19"/>
<text text-anchor="middle" x="764.85" y="-7" font-family="Helvetica,sans-Serif" font-size="10.00">chrono</text>
</a>
</g>
</g>
<!-- Node2&#45;&gt;Node3 -->
<g id="edge2_Node000002_Node000003" class="edge">
<title>Node2&#45;&gt;Node3</title>
<g id="a_edge2_Node000002_Node000003"><a xlink:title=" ">
<path fill="none" stroke="#63b8ff" d="M444.33,-227.72C398.17,-224.22 337.74,-213.6 292.85,-184 238.56,-148.21 179.8,-102.82 223.85,-55 241.03,-36.35 611.89,-17.6 729.44,-12.1"/>
<polygon fill="#63b8ff" stroke="#63b8ff" points="729.87,-15.59 739.69,-11.63 729.54,-8.6 729.87,-15.59"/>
</a>
</g>
</g>
<!-- Node4 -->
<g id="Node000004" class="node">
<title>Node4</title>
<g id="a_Node000004"><a xlink:title=" ">
<polygon fill="#e0e0e0" stroke="#999999" points="526.85,-74 466.85,-74 466.85,-55 526.85,-55 526.85,-74"/>
<text text-anchor="middle" x="496.85" y="-62" font-family="Helvetica,sans-Serif" font-size="10.00">iostream</text>
</a>
</g>
</g>
<!-- Node2&#45;&gt;Node4 -->
<g id="edge3_Node000002_Node000004" class="edge">
<title>Node2&#45;&gt;Node4</title>
<g id="a_edge3_Node000002_Node000004"><a xlink:title=" ">
<path fill="none" stroke="#63b8ff" d="M524.4,-219.78C549.1,-200.03 602.93,-150.47 578.85,-110 569.5,-94.29 552.46,-83.79 536.32,-76.95"/>
<polygon fill="#63b8ff" stroke="#63b8ff" points="537.58,-73.68 526.99,-73.33 535.05,-80.21 537.58,-73.68"/>
</a>
</g>
</g>
<!-- Node5 -->
<g id="Node000005" class="node">
<title>Node5</title>
<g id="a_Node000005"><a xlink:title=" ">
<polygon fill="#e0e0e0" stroke="#999999" points="1595.85,-74 1547.85,-74 1547.85,-55 1595.85,-55 1595.85,-74"/>
<text text-anchor="middle" x="1571.85" y="-62" font-family="Helvetica,sans-Serif" font-size="10.00">mutex</text>
</a>
</g>
</g>
<!-- Node2&#45;&gt;Node5 -->
<g id="edge4_Node000002_Node000005" class="edge">
<title>Node2&#45;&gt;Node5</title>
<g id="a_edge4_Node000002_Node000005"><a xlink:title=" ">
<path fill="none" stroke="#63b8ff" d="M581.52,-224.93C769.13,-214.6 1287.14,-181.95 1448.85,-129 1486.35,-116.72 1526.35,-94.07 1550.21,-79.4"/>
<polygon fill="#63b8ff" stroke="#63b8ff" points="1552.19,-82.29 1558.82,-74.03 1548.48,-76.36 1552.19,-82.29"/>
</a>
</g>
</g>
<!-- Node6 -->
<g id="Node000006" class="node">
<title>Node6</title>
<g id="a_Node000006"><a xlink:title=" ">
<polygon fill="#e0e0e0" stroke="#999999" points="318.35,-129 271.35,-129 271.35,-110 318.35,-110 318.35,-129"/>
<text text-anchor="middle" x="294.85" y="-117" font-family="Helvetica,sans-Serif" font-size="10.00">queue</text>
</a>
</g>
</g>
<!-- Node2&#45;&gt;Node6 -->
<g id="edge5_Node000002_Node000006" class="edge">
<title>Node2&#45;&gt;Node6</title>
<g id="a_edge5_Node000002_Node000006"><a xlink:title=" ">
<path fill="none" stroke="#63b8ff" d="M495.59,-219.98C477.47,-211.02 448.15,-196.53 422.85,-184 387.76,-166.62 347.28,-146.54 321.4,-133.68"/>
<polygon fill="#63b8ff" stroke="#63b8ff" points="322.75,-130.45 312.24,-129.13 319.64,-136.72 322.75,-130.45"/>
</a>
</g>
</g>
<!-- Node7 -->
<g id="Node000007" class="node">
<title>Node7</title>
<g id="a_Node000007"><a xlink:title=" ">
<polygon fill="#e0e0e0" stroke="#999999" points="384.85,-129 336.85,-129 336.85,-110 384.85,-110 384.85,-129"/>
<text text-anchor="middle" x="360.85" y="-117" font-family="Helvetica,sans-Serif" font-size="10.00">thread</text>
</a>
</g>
</g>
<!-- Node2&#45;&gt;Node7 -->
<g id="edge6_Node000002_Node000007" class="edge">
<title>Node2&#45;&gt;Node7</title>
<g id="a_edge6_Node000002_Node000007"><a xlink:title=" ">
<path fill="none" stroke="#63b8ff" d="M500.67,-219.84C474.65,-201.36 413.43,-157.86 381.32,-135.05"/>
<polygon fill="#63b8ff" stroke="#63b8ff" points="383.27,-132.14 373.09,-129.2 379.21,-137.84 383.27,-132.14"/>
</a>
</g>
</g>
<!-- Node8 -->
<g id="Node000008" class="node">
<title>Node8</title>
<g id="a_Node000008"><a xlink:title=" ">
<polygon fill="#e0e0e0" stroke="#999999" points="533.35,-184 492.35,-184 492.35,-165 533.35,-165 533.35,-184"/>
<text text-anchor="middle" x="512.85" y="-172" font-family="Helvetica,sans-Serif" font-size="10.00">tuple</text>
</a>
</g>
</g>
<!-- Node2&#45;&gt;Node8 -->
<g id="edge7_Node000002_Node000008" class="edge">
<title>Node2&#45;&gt;Node8</title>
<g id="a_edge7_Node000002_Node000008"><a xlink:title=" ">
<path fill="none" stroke="#63b8ff" d="M512.85,-219.75C512.85,-212.8 512.85,-202.85 512.85,-194.13"/>
<polygon fill="#63b8ff" stroke="#63b8ff" points="516.35,-194.09 512.85,-184.09 509.35,-194.09 516.35,-194.09"/>
</a>
</g>
</g>
<!-- Node9 -->
<g id="Node000009" class="node">
<title>Node9</title>
<g id="a_Node000009"><a xlink:title=" ">
<polygon fill="#e0e0e0" stroke="#999999" points="462.35,-19 415.35,-19 415.35,0 462.35,0 462.35,-19"/>
<text text-anchor="middle" x="438.85" y="-7" font-family="Helvetica,sans-Serif" font-size="10.00">vector</text>
</a>
</g>
</g>
<!-- Node2&#45;&gt;Node9 -->
<g id="edge8_Node000002_Node000009" class="edge">
<title>Node2&#45;&gt;Node9</title>
<g id="a_edge8_Node000002_Node000009"><a xlink:title=" ">
<path fill="none" stroke="#63b8ff" d="M444.09,-226.87C377.61,-223.48 274.87,-213.43 190.85,-184 100.57,-152.38 53.14,-157.15 5.85,-74 1.67,-66.66 0.19,-61.27 5.85,-55 32.48,-25.5 307.72,-14.43 405.01,-11.43"/>
<polygon fill="#63b8ff" stroke="#63b8ff" points="405.29,-14.92 415.18,-11.12 405.08,-7.92 405.29,-14.92"/>
</a>
</g>
</g>
<!-- Node10 -->
<g id="Node000010" class="node">
<title>Node10</title>
<g id="a_Node000010"><a xlink:title=" ">
<polygon fill="#e0e0e0" stroke="#999999" points="720.85,-184 624.85,-184 624.85,-165 720.85,-165 720.85,-184"/>
<text text-anchor="middle" x="672.85" y="-172" font-family="Helvetica,sans-Serif" font-size="10.00">ecs/Registry.hpp</text>
</a>
</g>
</g>
<!-- Node2&#45;&gt;Node10 -->
<g id="edge9_Node000002_Node000010" class="edge">
<title>Node2&#45;&gt;Node10</title>
<g id="a_edge9_Node000002_Node000010"><a xlink:title=" ">
<path fill="none" stroke="#63b8ff" d="M538.55,-219.98C565.3,-211.13 607.38,-197.19 637.3,-187.28"/>
<polygon fill="#63b8ff" stroke="#63b8ff" points="638.55,-190.55 646.94,-184.08 636.35,-183.9 638.55,-190.55"/>
</a>
</g>
</g>
<!-- Node11 -->
<g id="Node000011" class="node">
<title>Node11</title>
<g id="a_Node000011"><a xlink:title=" ">
<polygon fill="#e0e0e0" stroke="#999999" points="372.85,-74 232.85,-74 232.85,-55 372.85,-55 372.85,-74"/>
<text text-anchor="middle" x="302.85" y="-62" font-family="Helvetica,sans-Serif" font-size="10.00">network/DecodeFunc.hpp</text>
</a>
</g>
</g>
<!-- Node2&#45;&gt;Node11 -->
<g id="edge10_Node000002_Node000011" class="edge">
<title>Node2&#45;&gt;Node11</title>
<g id="a_edge10_Node000002_Node000011"><a xlink:title=" ">
<path fill="none" stroke="#63b8ff" d="M444.26,-222.7C384.36,-213.53 301.06,-189.89 261.85,-129 251.18,-112.43 267.14,-93.45 282.16,-80.58"/>
<polygon fill="#63b8ff" stroke="#63b8ff" points="284.61,-83.11 290.23,-74.12 280.23,-77.64 284.61,-83.11"/>
</a>
</g>
</g>
<!-- Node12 -->
<g id="Node000012" class="node">
<title>Node12</title>
<g id="a_Node000012"><a xlink:title=" ">
<polygon fill="#e0e0e0" stroke="#999999" points="1090.85,-184 952.85,-184 952.85,-165 1090.85,-165 1090.85,-184"/>
<text text-anchor="middle" x="1021.85" y="-172" font-family="Helvetica,sans-Serif" font-size="10.00">network/EncodeFunc.hpp</text>
</a>
</g>
</g>
<!-- Node2&#45;&gt;Node12 -->
<g id="edge11_Node000002_Node000012" class="edge">
<title>Node2&#45;&gt;Node12</title>
<g id="a_edge11_Node000002_Node000012"><a xlink:title=" ">
<path fill="none" stroke="#63b8ff" d="M581.54,-221.53C664.52,-213.08 808.68,-198.32 942.5,-184.14"/>
<polygon fill="#63b8ff" stroke="#63b8ff" points="942.95,-187.61 952.53,-183.07 942.21,-180.65 942.95,-187.61"/>
</a>
</g>
</g>
<!-- Node13 -->
<g id="Node000013" class="node">
<title>Node13</title>
<g id="a_Node000013"><a xlink:href="ServerNetworkManager_8hpp.html" target="_top" xlink:title=" ">
<polygon fill="white" stroke="#666666" points="934.35,-184 739.35,-184 739.35,-165 934.35,-165 934.35,-184"/>
<text text-anchor="middle" x="836.85" y="-172" font-family="Helvetica,sans-Serif" font-size="10.00">network/ServerNetworkManager.hpp</text>
</a>
</g>
</g>
<!-- Node2&#45;&gt;Node13 -->
<g id="edge12_Node000002_Node000013" class="edge">
<title>Node2&#45;&gt;Node13</title>
<g id="a_edge12_Node000002_Node000013"><a xlink:title=" ">
<path fill="none" stroke="#63b8ff" d="M564.9,-219.98C622.09,-210.63 713.89,-195.61 774.78,-185.65"/>
<polygon fill="#63b8ff" stroke="#63b8ff" points="775.35,-189.11 784.65,-184.04 774.22,-182.2 775.35,-189.11"/>
</a>
</g>
</g>
<!-- Node13&#45;&gt;Node4 -->
<g id="edge13_Node000013_Node000004" class="edge">
<title>Node13&#45;&gt;Node4</title>
<g id="a_edge13_Node000013_Node000004"><a xlink:title=" ">
<path fill="none" stroke="#63b8ff" d="M812.62,-164.96C776.91,-152.46 707.99,-128.64 648.85,-110 611.03,-98.08 567.59,-85.47 536.86,-76.73"/>
<polygon fill="#63b8ff" stroke="#63b8ff" points="537.53,-73.28 526.95,-73.92 535.62,-80.02 537.53,-73.28"/>
</a>
</g>
</g>
<!-- Node13&#45;&gt;Node5 -->
<g id="edge15_Node000013_Node000005" class="edge">
<title>Node13&#45;&gt;Node5</title>
<g id="a_edge15_Node000013_Node000005"><a xlink:title=" ">
<path fill="none" stroke="#63b8ff" d="M934.52,-165.74C937.67,-165.49 940.78,-165.24 943.85,-165 1148.73,-148.86 1204.32,-173.98 1404.85,-129 1456.14,-117.5 1512.71,-93.4 1545.09,-78.42"/>
<polygon fill="#63b8ff" stroke="#63b8ff" points="1546.76,-81.5 1554.33,-74.09 1543.79,-75.16 1546.76,-81.5"/>
</a>
</g>
</g>
<!-- Node13&#45;&gt;Node6 -->
<g id="edge16_Node000013_Node000006" class="edge">
<title>Node13&#45;&gt;Node6</title>
<g id="a_edge16_Node000013_Node000006"><a xlink:title=" ">
<path fill="none" stroke="#63b8ff" d="M739.12,-165.37C607.51,-154.37 384.15,-135.49 328.55,-128.53"/>
<polygon fill="#63b8ff" stroke="#63b8ff" points="328.94,-125.05 318.54,-127.1 327.94,-131.98 328.94,-125.05"/>
</a>
</g>
</g>
<!-- Node13&#45;&gt;Node7 -->
<g id="edge18_Node000013_Node000007" class="edge">
<title>Node13&#45;&gt;Node7</title>
<g id="a_edge18_Node000013_Node000007"><a xlink:title=" ">
<path fill="none" stroke="#63b8ff" d="M738.95,-165.41C633.81,-156.43 472.47,-141.72 394.84,-128.87"/>
<polygon fill="#63b8ff" stroke="#63b8ff" points="395.36,-125.4 384.91,-127.15 394.16,-132.3 395.36,-125.4"/>
</a>
</g>
</g>
<!-- Node13&#45;&gt;Node9 -->
<g id="edge19_Node000013_Node000009" class="edge">
<title>Node13&#45;&gt;Node9</title>
<g id="a_edge19_Node000013_Node000009"><a xlink:title=" ">
<path fill="none" stroke="#63b8ff" d="M798.19,-164.92C760.09,-156.33 700.27,-142.48 648.85,-129 643.51,-127.6 461.77,-77.88 457.85,-74 445.97,-62.25 441.46,-43.4 439.77,-29.29"/>
<polygon fill="#63b8ff" stroke="#63b8ff" points="443.25,-28.89 438.94,-19.21 436.27,-29.46 443.25,-28.89"/>
</a>
</g>
</g>
<!-- Node14 -->
<g id="Node000014" class="node">
<title>Node14</title>
<g id="a_Node000014"><a xlink:title=" ">
<polygon fill="#e0e0e0" stroke="#999999" points="1179.85,-74 1121.85,-74 1121.85,-55 1179.85,-55 1179.85,-74"/>
<text text-anchor="middle" x="1150.85" y="-62" font-family="Helvetica,sans-Serif" font-size="10.00">memory</text>
</a>
</g>
</g>
<!-- Node13&#45;&gt;Node14 -->
<g id="edge14_Node000013_Node000014" class="edge">
<title>Node13&#45;&gt;Node14</title>
<g id="a_edge14_Node000013_Node000014"><a xlink:title=" ">
<path fill="none" stroke="#63b8ff" d="M912.05,-165C973.95,-157.1 1056.17,-144.27 1085.85,-129 1107.45,-117.88 1126.59,-97.15 1138.41,-82.41"/>
<polygon fill="#63b8ff" stroke="#63b8ff" points="1141.45,-84.19 1144.78,-74.14 1135.9,-79.92 1141.45,-84.19"/>
</a>
</g>
</g>
<!-- Node15 -->
<g id="Node000015" class="node">
<title>Node15</title>
<g id="a_Node000015"><a xlink:title=" ">
<polygon fill="#e0e0e0" stroke="#999999" points="1525.85,-19 1481.85,-19 1481.85,0 1525.85,0 1525.85,-19"/>
<text text-anchor="middle" x="1503.85" y="-7" font-family="Helvetica,sans-Serif" font-size="10.00">string</text>
</a>
</g>
</g>
<!-- Node13&#45;&gt;Node15 -->
<g id="edge17_Node000013_Node000015" class="edge">
<title>Node13&#45;&gt;Node15</title>
<g id="a_edge17_Node000013_Node000015"><a xlink:title=" ">
<path fill="none" stroke="#63b8ff" d="M934.52,-165.66C937.66,-165.43 940.78,-165.21 943.85,-165 1078.43,-155.66 1423.72,-176.86 1549.85,-129 1592.18,-112.94 1645.49,-92.31 1619.85,-55 1601.1,-27.73 1563.17,-17.17 1535.78,-13.07"/>
<polygon fill="#63b8ff" stroke="#63b8ff" points="1536.22,-9.6 1525.86,-11.8 1535.33,-16.55 1536.22,-9.6"/>
</a>
</g>
</g>
<!-- Node16 -->
<g id="Node000016" class="node">
<title>Node16</title>
<g id="a_Node000016"><a xlink:title=" ">
<polygon fill="#e0e0e0" stroke="#999999" points="1248.85,-19 1190.85,-19 1190.85,0 1248.85,0 1248.85,-19"/>
<text text-anchor="middle" x="1219.85" y="-7" font-family="Helvetica,sans-Serif" font-size="10.00">asio.hpp</text>
</a>
</g>
</g>
<!-- Node13&#45;&gt;Node16 -->
<g id="edge20_Node000013_Node000016" class="edge">
<title>Node13&#45;&gt;Node16</title>
<g id="a_edge20_Node000013_Node000016"><a xlink:title=" ">
<path fill="none" stroke="#63b8ff" d="M934.52,-165.71C937.67,-165.47 940.78,-165.23 943.85,-165 1091.7,-153.86 1519.19,-195.03 1604.85,-74 1609.73,-67.11 1610.47,-61.3 1604.85,-55 1582.08,-29.45 1352.43,-16.41 1259.03,-12.13"/>
<polygon fill="#63b8ff" stroke="#63b8ff" points="1259.01,-8.62 1248.86,-11.67 1258.69,-15.62 1259.01,-8.62"/>
</a>
</g>
</g>
<!-- Node17 -->
<g id="Node000017" class="node">
<title>Node17</title>
<g id="a_Node000017"><a xlink:href="ClientManager_8hpp.html" target="_top" xlink:title=" ">
<polygon fill="white" stroke="#666666" points="1395.35,-129 1244.35,-129 1244.35,-110 1395.35,-110 1395.35,-129"/>
<text text-anchor="middle" x="1319.85" y="-117" font-family="Helvetica,sans-Serif" font-size="10.00">network/ClientManager.hpp</text>
</a>
</g>
</g>
<!-- Node13&#45;&gt;Node17 -->
<g id="edge21_Node000013_Node000017" class="edge">
<title>Node13&#45;&gt;Node17</title>
<g id="a_edge21_Node000013_Node000017"><a xlink:title=" ">
<path fill="none" stroke="#63b8ff" d="M914.45,-164.98C1001.84,-155.4 1143.45,-139.86 1234.06,-129.91"/>
<polygon fill="#63b8ff" stroke="#63b8ff" points="1234.47,-133.39 1244.03,-128.82 1233.71,-126.43 1234.47,-133.39"/>
</a>
</g>
</g>
<!-- Node22 -->
<g id="Node000022" class="node">
<title>Node22</title>
<g id="a_Node000022"><a xlink:href="INetworkManager_8hpp.html" target="_top" xlink:title=" ">
<polygon fill="white" stroke="#666666" points="569.35,-129 402.35,-129 402.35,-110 569.35,-110 569.35,-129"/>
<text text-anchor="middle" x="485.85" y="-117" font-family="Helvetica,sans-Serif" font-size="10.00">network/INetworkManager.hpp</text>
</a>
</g>
</g>
<!-- Node13&#45;&gt;Node22 -->
<g id="edge33_Node000013_Node000022" class="edge">
<title>Node13&#45;&gt;Node22</title>
<g id="a_edge33_Node000013_Node000022"><a xlink:title=" ">
<path fill="none" stroke="#63b8ff" d="M780.45,-164.98C718.37,-155.61 618.64,-140.55 552.68,-130.59"/>
<polygon fill="#63b8ff" stroke="#63b8ff" points="552.8,-127.07 542.39,-129.04 551.76,-133.99 552.8,-127.07"/>
</a>
</g>
</g>
<!-- Node25 -->
<g id="Node000025" class="node">
<title>Node25</title>
<g id="a_Node000025"><a xlink:href="TCPServer_8hpp.html" target="_top" xlink:title=" ">
<polygon fill="white" stroke="#666666" points="900.35,-129 771.35,-129 771.35,-110 900.35,-110 900.35,-129"/>
<text text-anchor="middle" x="835.85" y="-117" font-family="Helvetica,sans-Serif" font-size="10.00">network/TCPServer.hpp</text>
</a>
</g>
</g>
<!-- Node13&#45;&gt;Node25 -->
<g id="edge40_Node000013_Node000025" class="edge">
<title>Node13&#45;&gt;Node25</title>
<g id="a_edge40_Node000013_Node000025"><a xlink:title=" ">
<path fill="none" stroke="#63b8ff" d="M836.68,-164.75C836.55,-157.8 836.36,-147.85 836.2,-139.13"/>
<polygon fill="#63b8ff" stroke="#63b8ff" points="839.7,-139.02 836.01,-129.09 832.7,-139.15 839.7,-139.02"/>
</a>
</g>
</g>
<!-- Node28 -->
<g id="Node000028" class="node">
<title>Node28</title>
<g id="a_Node000028"><a xlink:href="UDPServer_8hpp.html" target="_top" xlink:title=" ">
<polygon fill="white" stroke="#666666" points="1076.85,-129 944.85,-129 944.85,-110 1076.85,-110 1076.85,-129"/>
<text text-anchor="middle" x="1010.85" y="-117" font-family="Helvetica,sans-Serif" font-size="10.00">network/UDPServer.hpp</text>
</a>
</g>
</g>
<!-- Node13&#45;&gt;Node28 -->
<g id="edge51_Node000013_Node000028" class="edge">
<title>Node13&#45;&gt;Node28</title>
<g id="a_edge51_Node000013_Node000028"><a xlink:title=" ">
<path fill="none" stroke="#63b8ff" d="M864.8,-164.98C894.14,-156.05 940.44,-141.94 973.03,-132.02"/>
<polygon fill="#63b8ff" stroke="#63b8ff" points="974.13,-135.34 982.67,-129.08 972.09,-128.65 974.13,-135.34"/>
</a>
</g>
</g>
<!-- Node17&#45;&gt;Node5 -->
<g id="edge23_Node000017_Node000005" class="edge">
<title>Node17&#45;&gt;Node5</title>
<g id="a_edge23_Node000017_Node000005"><a xlink:title=" ">
<path fill="none" stroke="#63b8ff" d="M1361.71,-109.99C1404.88,-101.17 1474.13,-86.89 1533.85,-74 1535.11,-73.73 1536.4,-73.45 1537.7,-73.16"/>
<polygon fill="#63b8ff" stroke="#63b8ff" points="1538.73,-76.52 1547.74,-70.95 1537.22,-69.69 1538.73,-76.52"/>
</a>
</g>
</g>
<!-- Node17&#45;&gt;Node9 -->
<g id="edge26_Node000017_Node000009" class="edge">
<title>Node17&#45;&gt;Node9</title>
<g id="a_edge26_Node000017_Node000009"><a xlink:title=" ">
<path fill="none" stroke="#63b8ff" d="M1320.14,-109.82C1320.08,-95.75 1317.68,-68.22 1300.85,-55 1284.27,-41.98 630.51,-17.46 472.81,-11.72"/>
<polygon fill="#63b8ff" stroke="#63b8ff" points="472.86,-8.22 462.74,-11.36 472.61,-15.22 472.86,-8.22"/>
</a>
</g>
</g>
<!-- Node17&#45;&gt;Node14 -->
<g id="edge22_Node000017_Node000014" class="edge">
<title>Node17&#45;&gt;Node14</title>
<g id="a_edge22_Node000017_Node000014"><a xlink:title=" ">
<path fill="none" stroke="#63b8ff" d="M1292.7,-109.98C1264.32,-101.09 1219.62,-87.07 1187.99,-77.15"/>
<polygon fill="#63b8ff" stroke="#63b8ff" points="1188.8,-73.73 1178.21,-74.08 1186.71,-80.41 1188.8,-73.73"/>
</a>
</g>
</g>
<!-- Node17&#45;&gt;Node15 -->
<g id="edge24_Node000017_Node000015" class="edge">
<title>Node17&#45;&gt;Node15</title>
<g id="a_edge24_Node000017_Node000015"><a xlink:title=" ">
<path fill="none" stroke="#63b8ff" d="M1389.76,-109.99C1434.43,-102.99 1486.56,-91.37 1500.85,-74 1511.03,-61.63 1510.63,-42.86 1508.37,-28.94"/>
<polygon fill="#63b8ff" stroke="#63b8ff" points="1511.77,-28.11 1506.33,-19.02 1504.92,-29.52 1511.77,-28.11"/>
</a>
</g>
</g>
<!-- Node18 -->
<g id="Node000018" class="node">
<title>Node18</title>
<g id="a_Node000018"><a xlink:title=" ">
<polygon fill="#e0e0e0" stroke="#999999" points="1291.35,-74 1198.35,-74 1198.35,-55 1291.35,-55 1291.35,-74"/>
<text text-anchor="middle" x="1244.85" y="-62" font-family="Helvetica,sans-Serif" font-size="10.00">unordered_map</text>
</a>
</g>
</g>
<!-- Node17&#45;&gt;Node18 -->
<g id="edge25_Node000017_Node000018" class="edge">
<title>Node17&#45;&gt;Node18</title>
<g id="a_edge25_Node000017_Node000018"><a xlink:title=" ">
<path fill="none" stroke="#63b8ff" d="M1307.8,-109.98C1296.39,-101.92 1279.02,-89.65 1265.41,-80.03"/>
<polygon fill="#63b8ff" stroke="#63b8ff" points="1267.3,-77.08 1257.12,-74.17 1263.26,-82.8 1267.3,-77.08"/>
</a>
</g>
</g>
<!-- Node19 -->
<g id="Node000019" class="node">
<title>Node19</title>
<g id="a_Node000019"><a xlink:href="HandleClient_8hpp.html" target="_top" xlink:title=" ">
<polygon fill="white" stroke="#666666" points="1491.35,-74 1348.35,-74 1348.35,-55 1491.35,-55 1491.35,-74"/>
<text text-anchor="middle" x="1419.85" y="-62" font-family="Helvetica,sans-Serif" font-size="10.00">network/HandleClient.hpp</text>
</a>
</g>
</g>
<!-- Node17&#45;&gt;Node19 -->
<g id="edge27_Node000017_Node000019" class="edge">
<title>Node17&#45;&gt;Node19</title>
<g id="a_edge27_Node000017_Node000019"><a xlink:title=" ">
<path fill="none" stroke="#63b8ff" d="M1335.91,-109.98C1351.71,-101.61 1376.07,-88.7 1394.48,-78.95"/>
<polygon fill="#63b8ff" stroke="#63b8ff" points="1396.29,-81.95 1403.49,-74.17 1393.01,-75.76 1396.29,-81.95"/>
</a>
</g>
</g>
<!-- Node19&#45;&gt;Node3 -->
<g id="edge28_Node000019_Node000003" class="edge">
<title>Node19&#45;&gt;Node3</title>
<g id="a_edge28_Node000019_Node000003"><a xlink:title=" ">
<path fill="none" stroke="#63b8ff" d="M1348.06,-56.29C1343.25,-55.85 1338.48,-55.41 1333.85,-55 1132.07,-37.14 889.69,-19.43 800.24,-13.01"/>
<polygon fill="#63b8ff" stroke="#63b8ff" points="800.33,-9.51 790.1,-12.29 799.83,-16.49 800.33,-9.51"/>
</a>
</g>
</g>
<!-- Node19&#45;&gt;Node15 -->
<g id="edge31_Node000019_Node000015" class="edge">
<title>Node19&#45;&gt;Node15</title>
<g id="a_edge31_Node000019_Node000015"><a xlink:title=" ">
<path fill="none" stroke="#63b8ff" d="M1433.34,-54.98C1446.25,-46.84 1465.95,-34.41 1481.25,-24.76"/>
<polygon fill="#63b8ff" stroke="#63b8ff" points="1483.52,-27.47 1490.11,-19.17 1479.78,-21.55 1483.52,-27.47"/>
</a>
</g>
</g>
<!-- Node19&#45;&gt;Node16 -->
<g id="edge32_Node000019_Node000016" class="edge">
<title>Node19&#45;&gt;Node16</title>
<g id="a_edge32_Node000019_Node000016"><a xlink:title=" ">
<path fill="none" stroke="#63b8ff" d="M1387.71,-54.98C1352.69,-45.7 1296.64,-30.85 1259.05,-20.89"/>
<polygon fill="#63b8ff" stroke="#63b8ff" points="1259.54,-17.4 1248.98,-18.22 1257.74,-24.16 1259.54,-17.4"/>
</a>
</g>
</g>
<!-- Node20 -->
<g id="Node000020" class="node">
<title>Node20</title>
<g id="a_Node000020"><a xlink:title=" ">
<polygon fill="#e0e0e0" stroke="#999999" points="120.85,-19 70.85,-19 70.85,0 120.85,0 120.85,-19"/>
<text text-anchor="middle" x="95.85" y="-7" font-family="Helvetica,sans-Serif" font-size="10.00">cstdint</text>
</a>
</g>
</g>
<!-- Node19&#45;&gt;Node20 -->
<g id="edge29_Node000019_Node000020" class="edge">
<title>Node19&#45;&gt;Node20</title>
<g id="a_edge29_Node000019_Node000020"><a xlink:title=" ">
<path fill="none" stroke="#63b8ff" d="M1348.14,-57.98C1332.55,-56.89 1316.15,-55.83 1300.85,-55 838.43,-29.95 275.41,-14.97 130.93,-11.35"/>
<polygon fill="#63b8ff" stroke="#63b8ff" points="130.97,-7.85 120.88,-11.1 130.79,-14.85 130.97,-7.85"/>
</a>
</g>
</g>
<!-- Node21 -->
<g id="Node000021" class="node">
<title>Node21</title>
<g id="a_Node000021"><a xlink:title=" ">
<polygon fill="#e0e0e0" stroke="#999999" points="1447.85,-19 1391.85,-19 1391.85,0 1447.85,0 1447.85,-19"/>
<text text-anchor="middle" x="1419.85" y="-7" font-family="Helvetica,sans-Serif" font-size="10.00">optional</text>
</a>
</g>
</g>
<!-- Node19&#45;&gt;Node21 -->
<g id="edge30_Node000019_Node000021" class="edge">
<title>Node19&#45;&gt;Node21</title>
<g id="a_edge30_Node000019_Node000021"><a xlink:title=" ">
<path fill="none" stroke="#63b8ff" d="M1419.85,-54.75C1419.85,-47.8 1419.85,-37.85 1419.85,-29.13"/>
<polygon fill="#63b8ff" stroke="#63b8ff" points="1423.35,-29.09 1419.85,-19.09 1416.35,-29.09 1423.35,-29.09"/>
</a>
</g>
</g>
<!-- Node22&#45;&gt;Node9 -->
<g id="edge36_Node000022_Node000009" class="edge">
<title>Node22&#45;&gt;Node9</title>
<g id="a_edge36_Node000022_Node000009"><a xlink:title=" ">
<path fill="none" stroke="#63b8ff" d="M465.65,-109.91C451.38,-102.64 433.34,-90.71 424.85,-74 417.51,-59.57 422.79,-41.37 428.85,-28.16"/>
<polygon fill="#63b8ff" stroke="#63b8ff" points="432.01,-29.67 433.44,-19.18 425.78,-26.49 432.01,-29.67"/>
</a>
</g>
</g>
<!-- Node22&#45;&gt;Node20 -->
<g id="edge34_Node000022_Node000020" class="edge">
<title>Node22&#45;&gt;Node20</title>
<g id="a_edge34_Node000022_Node000020"><a xlink:title=" ">
<path fill="none" stroke="#63b8ff" d="M402.24,-110.75C264.72,-98 5.85,-74 5.85,-74 -15.26,-50.85 27.51,-31.32 61.04,-20.26"/>
<polygon fill="#63b8ff" stroke="#63b8ff" points="62.15,-23.59 70.63,-17.24 60.04,-16.91 62.15,-23.59"/>
</a>
</g>
</g>
<!-- Node23 -->
<g id="Node000023" class="node">
<title>Node23</title>
<g id="a_Node000023"><a xlink:title=" ">
<polygon fill="#e0e0e0" stroke="#999999" points="967.35,-74 902.35,-74 902.35,-55 967.35,-55 967.35,-74"/>
<text text-anchor="middle" x="934.85" y="-62" font-family="Helvetica,sans-Serif" font-size="10.00">functional</text>
</a>
</g>
</g>
<!-- Node22&#45;&gt;Node23 -->
<g id="edge35_Node000022_Node000023" class="edge">
<title>Node22&#45;&gt;Node23</title>
<g id="a_edge35_Node000022_Node000023"><a xlink:title=" ">
<path fill="none" stroke="#63b8ff" d="M557.99,-109.98C652.45,-98.83 815.07,-79.64 892.06,-70.55"/>
<polygon fill="#63b8ff" stroke="#63b8ff" points="892.81,-73.99 902.33,-69.34 891.99,-67.03 892.81,-73.99"/>
</a>
</g>
</g>
<!-- Node24 -->
<g id="Node000024" class="node">
<title>Node24</title>
<g id="a_Node000024"><a xlink:href="include_2NetworkMessage_8hpp.html" target="_top" xlink:title=" ">
<polygon fill="white" stroke="#666666" points="176.35,-74 15.35,-74 15.35,-55 176.35,-55 176.35,-74"/>
<text text-anchor="middle" x="95.85" y="-62" font-family="Helvetica,sans-Serif" font-size="10.00">include/NetworkMessage.hpp</text>
</a>
</g>
</g>
<!-- Node22&#45;&gt;Node24 -->
<g id="edge37_Node000022_Node000024" class="edge">
<title>Node22&#45;&gt;Node24</title>
<g id="a_edge37_Node000022_Node000024"><a xlink:title=" ">
<path fill="none" stroke="#63b8ff" d="M423.19,-109.98C353.78,-100.55 242.02,-85.36 168.75,-75.41"/>
<polygon fill="#63b8ff" stroke="#63b8ff" points="169.06,-71.92 158.68,-74.04 168.11,-78.85 169.06,-71.92"/>
</a>
</g>
</g>
<!-- Node24&#45;&gt;Node9 -->
<g id="edge39_Node000024_Node000009" class="edge">
<title>Node24&#45;&gt;Node9</title>
<g id="a_edge39_Node000024_Node000009"><a xlink:title=" ">
<path fill="none" stroke="#63b8ff" d="M150.96,-54.98C222.77,-43.89 346.14,-24.82 405.3,-15.68"/>
<polygon fill="#63b8ff" stroke="#63b8ff" points="405.89,-19.13 415.23,-14.15 404.82,-12.22 405.89,-19.13"/>
</a>
</g>
</g>
<!-- Node24&#45;&gt;Node20 -->
<g id="edge38_Node000024_Node000020" class="edge">
<title>Node24&#45;&gt;Node20</title>
<g id="a_edge38_Node000024_Node000020"><a xlink:title=" ">
<path fill="none" stroke="#63b8ff" d="M95.85,-54.75C95.85,-47.8 95.85,-37.85 95.85,-29.13"/>
<polygon fill="#63b8ff" stroke="#63b8ff" points="99.35,-29.09 95.85,-19.09 92.35,-29.09 99.35,-29.09"/>
</a>
</g>
</g>
<!-- Node25&#45;&gt;Node4 -->
<g id="edge43_Node000025_Node000004" class="edge">
<title>Node25&#45;&gt;Node4</title>
<g id="a_edge43_Node000025_Node000004"><a xlink:title=" ">
<path fill="none" stroke="#63b8ff" d="M774.43,-109.99C714.67,-101.52 621.37,-87.85 540.85,-74 539.6,-73.78 538.33,-73.56 537.05,-73.34"/>
<polygon fill="#63b8ff" stroke="#63b8ff" points="537.58,-69.88 527.11,-71.52 536.32,-76.76 537.58,-69.88"/>
</a>
</g>
</g>
<!-- Node25&#45;&gt;Node9 -->
<g id="edge47_Node000025_Node000009" class="edge">
<title>Node25&#45;&gt;Node9</title>
<g id="a_edge47_Node000025_Node000009"><a xlink:title=" ">
<path fill="none" stroke="#63b8ff" d="M771.35,-112.66C717.77,-106.6 640.05,-94.97 574.85,-74 556.49,-68.1 553.28,-63.24 535.85,-55 512.78,-44.09 486.46,-32.04 467.06,-23.23"/>
<polygon fill="#63b8ff" stroke="#63b8ff" points="468.42,-20.01 457.87,-19.07 465.53,-26.38 468.42,-20.01"/>
</a>
</g>
</g>
<!-- Node25&#45;&gt;Node11 -->
<g id="edge50_Node000025_Node000011" class="edge">
<title>Node25&#45;&gt;Node11</title>
<g id="a_edge50_Node000025_Node000011"><a xlink:title=" ">
<path fill="none" stroke="#63b8ff" d="M771.29,-112.08C673.83,-102.39 489.26,-84.04 383.22,-73.49"/>
<polygon fill="#63b8ff" stroke="#63b8ff" points="383.51,-70 373.21,-72.5 382.82,-76.97 383.51,-70"/>
</a>
</g>
</g>
<!-- Node25&#45;&gt;Node14 -->
<g id="edge44_Node000025_Node000014" class="edge">
<title>Node25&#45;&gt;Node14</title>
<g id="a_edge44_Node000025_Node000014"><a xlink:title=" ">
<path fill="none" stroke="#63b8ff" d="M886.46,-109.98C949.16,-99.43 1054.67,-81.68 1111.6,-72.1"/>
<polygon fill="#63b8ff" stroke="#63b8ff" points="1112.36,-75.53 1121.64,-70.41 1111.2,-68.62 1112.36,-75.53"/>
</a>
</g>
</g>
<!-- Node25&#45;&gt;Node15 -->
<g id="edge45_Node000025_Node000015" class="edge">
<title>Node25&#45;&gt;Node15</title>
<g id="a_edge45_Node000025_Node000015"><a xlink:title=" ">
<path fill="none" stroke="#63b8ff" d="M840.87,-109.55C849.54,-95.09 868.81,-67.01 893.85,-55 1006.88,-0.78 1332.4,-34.18 1456.85,-19 1461.64,-18.42 1466.68,-17.66 1471.61,-16.84"/>
<polygon fill="#63b8ff" stroke="#63b8ff" points="1472.22,-20.28 1481.46,-15.09 1471,-13.39 1472.22,-20.28"/>
</a>
</g>
</g>
<!-- Node25&#45;&gt;Node16 -->
<g id="edge48_Node000025_Node000016" class="edge">
<title>Node25&#45;&gt;Node16</title>
<g id="a_edge48_Node000025_Node000016"><a xlink:title=" ">
<path fill="none" stroke="#63b8ff" d="M836.38,-109.89C837.75,-95.93 842.61,-68.55 859.85,-55 908.93,-16.42 1097.93,-10.91 1180.67,-10.38"/>
<polygon fill="#63b8ff" stroke="#63b8ff" points="1180.7,-13.88 1190.69,-10.34 1180.67,-6.88 1180.7,-13.88"/>
</a>
</g>
</g>
<!-- Node25&#45;&gt;Node18 -->
<g id="edge46_Node000025_Node000018" class="edge">
<title>Node25&#45;&gt;Node18</title>
<g id="a_edge46_Node000025_Node000018"><a xlink:title=" ">
<path fill="none" stroke="#63b8ff" d="M900.65,-110.83C969.36,-102.58 1081.32,-88.82 1188.12,-74.07"/>
<polygon fill="#63b8ff" stroke="#63b8ff" points="1188.69,-77.52 1198.11,-72.68 1187.72,-70.59 1188.69,-77.52"/>
</a>
</g>
</g>
<!-- Node25&#45;&gt;Node23 -->
<g id="edge42_Node000025_Node000023" class="edge">
<title>Node25&#45;&gt;Node23</title>
<g id="a_edge42_Node000025_Node000023"><a xlink:title=" ">
<path fill="none" stroke="#63b8ff" d="M851.75,-109.98C867.39,-101.61 891.5,-88.7 909.73,-78.95"/>
<polygon fill="#63b8ff" stroke="#63b8ff" points="911.49,-81.98 918.65,-74.17 908.18,-75.8 911.49,-81.98"/>
</a>
</g>
</g>
<!-- Node26 -->
<g id="Node000026" class="node">
<title>Node26</title>
<g id="a_Node000026"><a xlink:title=" ">
<polygon fill="#e0e0e0" stroke="#999999" points="652.35,-74 583.35,-74 583.35,-55 652.35,-55 652.35,-74"/>
<text text-anchor="middle" x="617.85" y="-62" font-family="Helvetica,sans-Serif" font-size="10.00">arpa/inet.h</text>
</a>
</g>
</g>
<!-- Node25&#45;&gt;Node26 -->
<g id="edge41_Node000025_Node000026" class="edge">
<title>Node25&#45;&gt;Node26</title>
<g id="a_edge41_Node000025_Node000026"><a xlink:title=" ">
<path fill="none" stroke="#63b8ff" d="M800.82,-109.98C763.21,-100.84 703.34,-86.29 662.4,-76.33"/>
<polygon fill="#63b8ff" stroke="#63b8ff" points="662.97,-72.87 652.43,-73.91 661.32,-79.67 662.97,-72.87"/>
</a>
</g>
</g>
<!-- Node27 -->
<g id="Node000027" class="node">
<title>Node27</title>
<g id="a_Node000027"><a xlink:href="ServerMacro_8hpp.html" target="_top" xlink:title="Server configuration constants and macros.">
<polygon fill="white" stroke="#666666" points="807.35,-74 670.35,-74 670.35,-55 807.35,-55 807.35,-74"/>
<text text-anchor="middle" x="738.85" y="-62" font-family="Helvetica,sans-Serif" font-size="10.00">include/ServerMacro.hpp</text>
</a>
</g>
</g>
<!-- Node25&#45;&gt;Node27 -->
<g id="edge49_Node000025_Node000027" class="edge">
<title>Node25&#45;&gt;Node27</title>
<g id="a_edge49_Node000025_Node000027"><a xlink:title=" ">
<path fill="none" stroke="#63b8ff" d="M820.26,-109.98C805.08,-101.69 781.75,-88.94 763.95,-79.22"/>
<polygon fill="#63b8ff" stroke="#63b8ff" points="765.17,-75.89 754.72,-74.17 761.81,-82.04 765.17,-75.89"/>
</a>
</g>
</g>
<!-- Node28&#45;&gt;Node9 -->
<g id="edge54_Node000028_Node000009" class="edge">
<title>Node28&#45;&gt;Node9</title>
<g id="a_edge54_Node000028_Node000009"><a xlink:title=" ">
<path fill="none" stroke="#63b8ff" d="M1008.97,-109.72C1005.43,-95.5 996.29,-67.76 976.85,-55 934.77,-27.38 584.39,-14.78 472.83,-11.44"/>
<polygon fill="#63b8ff" stroke="#63b8ff" points="472.59,-7.93 462.5,-11.14 472.39,-14.93 472.59,-7.93"/>
</a>
</g>
</g>
<!-- Node28&#45;&gt;Node14 -->
<g id="edge53_Node000028_Node000014" class="edge">
<title>Node28&#45;&gt;Node14</title>
<g id="a_edge53_Node000028_Node000014"><a xlink:title=" ">
<path fill="none" stroke="#63b8ff" d="M1033.34,-109.98C1056.37,-101.27 1092.39,-87.63 1118.48,-77.75"/>
<polygon fill="#63b8ff" stroke="#63b8ff" points="1119.83,-80.98 1127.95,-74.17 1117.35,-74.44 1119.83,-80.98"/>
</a>
</g>
</g>
<!-- Node28&#45;&gt;Node16 -->
<g id="edge56_Node000028_Node000016" class="edge">
<title>Node28&#45;&gt;Node16</title>
<g id="a_edge56_Node000028_Node000016"><a xlink:title=" ">
<path fill="none" stroke="#63b8ff" d="M1023.34,-109.79C1042.19,-96.87 1079.28,-72.28 1112.85,-55 1136.78,-42.68 1164.93,-31.08 1186.35,-22.81"/>
<polygon fill="#63b8ff" stroke="#63b8ff" points="1187.87,-25.98 1195.97,-19.15 1185.38,-19.44 1187.87,-25.98"/>
</a>
</g>
</g>
<!-- Node28&#45;&gt;Node23 -->
<g id="edge52_Node000028_Node000023" class="edge">
<title>Node28&#45;&gt;Node23</title>
<g id="a_edge52_Node000028_Node000023"><a xlink:title=" ">
<path fill="none" stroke="#63b8ff" d="M998.64,-109.98C987.07,-101.92 969.47,-89.65 955.69,-80.03"/>
<polygon fill="#63b8ff" stroke="#63b8ff" points="957.49,-77.02 947.28,-74.17 953.48,-82.76 957.49,-77.02"/>
</a>
</g>
</g>
<!-- Node29 -->
<g id="Node000029" class="node">
<title>Node29</title>
<g id="a_Node000029"><a xlink:title=" ">
<polygon fill="#e0e0e0" stroke="#999999" points="1065.85,-74 1023.85,-74 1023.85,-55 1065.85,-55 1065.85,-74"/>
<text text-anchor="middle" x="1044.85" y="-62" font-family="Helvetica,sans-Serif" font-size="10.00">array</text>
</a>
</g>
</g>
<!-- Node28&#45;&gt;Node29 -->
<g id="edge55_Node000028_Node000029" class="edge">
<title>Node28&#45;&gt;Node29</title>
<g id="a_edge55_Node000028_Node000029"><a xlink:title=" ">
<path fill="none" stroke="#63b8ff" d="M1016.46,-109.75C1021.17,-102.42 1028.02,-91.73 1033.82,-82.7"/>
<polygon fill="#63b8ff" stroke="#63b8ff" points="1036.88,-84.4 1039.34,-74.09 1030.99,-80.62 1036.88,-84.4"/>
</a>
</g>
</g>
</g>
</svg>
