<?xml version="1.0" encoding="UTF-8" standalone="no"?>
<!DOCTYPE svg PUBLIC "-//W3C//DTD SVG 1.1//EN"
 "http://www.w3.org/Graphics/SVG/1.1/DTD/svg11.dtd">
<!-- Generated by graphviz version 2.43.0 (0)
 -->
<!-- Title: /home/runner/work/R&#45;Type/R&#45;Type/Client/src/Main.cpp Pages: 1 -->
<svg width="1009pt" height="159pt"
 viewBox="0.00 0.00 1008.50 159.00" xmlns="http://www.w3.org/2000/svg" xmlns:xlink="http://www.w3.org/1999/xlink">
<g id="graph0" class="graph" transform="scale(1 1) rotate(0) translate(4 155)">
<title>/home/runner/work/R&#45;Type/R&#45;Type/Client/src/Main.cpp</title>
<!-- Node1 -->
<g id="Node000001" class="node">
<title>Node1</title>
<g id="a_Node000001"><a xlink:title=" ">
<polygon fill="#999999" stroke="#666666" points="464.5,-151 345.5,-151 345.5,-110 464.5,-110 464.5,-151"/>
<text text-anchor="start" x="353.5" y="-139" font-family="Helvetica,sans-Serif" font-size="10.00">/home/runner/work/R</text>
<text text-anchor="start" x="353.5" y="-128" font-family="Helvetica,sans-Serif" font-size="10.00">&#45;Type/R&#45;Type/Client</text>
<text text-anchor="middle" x="405" y="-117" font-family="Helvetica,sans-Serif" font-size="10.00">/src/Main.cpp</text>
</a>
</g>
</g>
<!-- Node2 -->
<g id="Node000002" class="node">
<title>Node2</title>
<g id="a_Node000002"><a xlink:title=" ">
<polygon fill="#e0e0e0" stroke="#999999" points="60,-74 0,-74 0,-55 60,-55 60,-74"/>
<text text-anchor="middle" x="30" y="-62" font-family="Helvetica,sans-Serif" font-size="10.00">iostream</text>
</a>
</g>
</g>
<!-- Node1&#45;&gt;Node2 -->
<g id="edge1_Node000001_Node000002" class="edge">
<title>Node1&#45;&gt;Node2</title>
<g id="a_edge1_Node000001_Node000002"><a xlink:title=" ">
<path fill="none" stroke="#63b8ff" d="M345.36,-120.59C280.16,-110.63 172.39,-93.56 70.08,-74.13"/>
<polygon fill="#63b8ff" stroke="#63b8ff" points="70.68,-70.68 60.2,-72.24 69.37,-77.56 70.68,-70.68"/>
</a>
</g>
</g>
<!-- Node3 -->
<g id="Node000003" class="node">
<title>Node3</title>
<g id="a_Node000003"><a xlink:title=" ">
<polygon fill="#e0e0e0" stroke="#999999" points="125.5,-74 78.5,-74 78.5,-55 125.5,-55 125.5,-74"/>
<text text-anchor="middle" x="102" y="-62" font-family="Helvetica,sans-Serif" font-size="10.00">vector</text>
</a>
</g>
</g>
<!-- Node1&#45;&gt;Node3 -->
<g id="edge2_Node000001_Node000003" class="edge">
<title>Node1&#45;&gt;Node3</title>
<g id="a_edge2_Node000001_Node000003"><a xlink:title=" ">
<path fill="none" stroke="#63b8ff" d="M345.31,-118.3C292.51,-108.16 213.18,-92.36 135.66,-74.3"/>
<polygon fill="#63b8ff" stroke="#63b8ff" points="136.26,-70.84 125.73,-71.97 134.66,-77.66 136.26,-70.84"/>
</a>
</g>
</g>
<!-- Node4 -->
<g id="Node000004" class="node">
<title>Node4</title>
<g id="a_Node000004"><a xlink:href="DLLoader_8hpp.html" target="_top" xlink:title=" ">
<polygon fill="white" stroke="#666666" points="318.5,-74 143.5,-74 143.5,-55 318.5,-55 318.5,-74"/>
<text text-anchor="middle" x="231" y="-62" font-family="Helvetica,sans-Serif" font-size="10.00">dynamicLibLoader/DLLoader.hpp</text>
</a>
</g>
</g>
<!-- Node1&#45;&gt;Node4 -->
<g id="edge3_Node000001_Node000004" class="edge">
<title>Node1&#45;&gt;Node4</title>
<g id="a_edge3_Node000001_Node000004"><a xlink:title=" ">
<path fill="none" stroke="#63b8ff" d="M351.85,-109.95C323.21,-99.42 288.78,-86.75 264.01,-77.64"/>
<polygon fill="#63b8ff" stroke="#63b8ff" points="264.95,-74.26 254.36,-74.09 262.54,-80.83 264.95,-74.26"/>
</a>
</g>
</g>
<!-- Node8 -->
<g id="Node000008" class="node">
<title>Node8</title>
<g id="a_Node000008"><a xlink:title=" ">
<polygon fill="#e0e0e0" stroke="#999999" points="473,-74 337,-74 337,-55 473,-55 473,-74"/>
<text text-anchor="middle" x="405" y="-62" font-family="Helvetica,sans-Serif" font-size="10.00">engine/GameEngine.hpp</text>
</a>
</g>
</g>
<!-- Node1&#45;&gt;Node8 -->
<g id="edge7_Node000001_Node000008" class="edge">
<title>Node1&#45;&gt;Node8</title>
<g id="a_edge7_Node000001_Node000008"><a xlink:title=" ">
<path fill="none" stroke="#63b8ff" d="M405,-109.95C405,-101.85 405,-92.5 405,-84.47"/>
<polygon fill="#63b8ff" stroke="#63b8ff" points="408.5,-84.26 405,-74.26 401.5,-84.26 408.5,-84.26"/>
</a>
</g>
</g>
<!-- Node9 -->
<g id="Node000009" class="node">
<title>Node9</title>
<g id="a_Node000009"><a xlink:title=" ">
<polygon fill="#e0e0e0" stroke="#999999" points="622.5,-74 491.5,-74 491.5,-55 622.5,-55 622.5,-74"/>
<text text-anchor="middle" x="557" y="-62" font-family="Helvetica,sans-Serif" font-size="10.00">engine/ISubsystem.hpp</text>
</a>
</g>
</g>
<!-- Node1&#45;&gt;Node9 -->
<g id="edge8_Node000001_Node000009" class="edge">
<title>Node1&#45;&gt;Node9</title>
<g id="a_edge8_Node000001_Node000009"><a xlink:title=" ">
<path fill="none" stroke="#63b8ff" d="M451.43,-109.95C476.11,-99.56 505.72,-87.09 527.3,-78.01"/>
<polygon fill="#63b8ff" stroke="#63b8ff" points="528.74,-81.2 536.59,-74.09 526.02,-74.75 528.74,-81.2"/>
</a>
</g>
</g>
<!-- Node10 -->
<g id="Node000010" class="node">
<title>Node10</title>
<g id="a_Node000010"><a xlink:title=" ">
<polygon fill="#e0e0e0" stroke="#999999" points="791.5,-74 640.5,-74 640.5,-55 791.5,-55 791.5,-74"/>
<text text-anchor="middle" x="716" y="-62" font-family="Helvetica,sans-Serif" font-size="10.00">physics/PhysicsSystem.hpp</text>
</a>
</g>
</g>
<!-- Node1&#45;&gt;Node10 -->
<g id="edge9_Node000001_Node000010" class="edge">
<title>Node1&#45;&gt;Node10</title>
<g id="a_edge9_Node000001_Node000010"><a xlink:title=" ">
<path fill="none" stroke="#63b8ff" d="M464.6,-117.24C522.54,-105.31 609.64,-87.39 664.62,-76.07"/>
<polygon fill="#63b8ff" stroke="#63b8ff" points="665.41,-79.48 674.5,-74.04 664,-72.63 665.41,-79.48"/>
</a>
</g>
</g>
<!-- Node11 -->
<g id="Node000011" class="node">
<title>Node11</title>
<g id="a_Node000011"><a xlink:title=" ">
<polygon fill="#e0e0e0" stroke="#999999" points="1000.5,-74 809.5,-74 809.5,-55 1000.5,-55 1000.5,-74"/>
<text text-anchor="middle" x="905" y="-62" font-family="Helvetica,sans-Serif" font-size="10.00">rendering/RenderingSubsystem.hpp</text>
</a>
</g>
</g>
<!-- Node1&#45;&gt;Node11 -->
<g id="edge10_Node000001_Node000011" class="edge">
<title>Node1&#45;&gt;Node11</title>
<g id="a_edge10_Node000001_Node000011"><a xlink:title=" ">
<path fill="none" stroke="#63b8ff" d="M464.82,-121.84C555.66,-110.22 728.38,-88.11 828.33,-75.31"/>
<polygon fill="#63b8ff" stroke="#63b8ff" points="828.89,-78.77 838.36,-74.03 828,-71.83 828.89,-78.77"/>
</a>
</g>
</g>
<!-- Node5 -->
<g id="Node000005" class="node">
<title>Node5</title>
<g id="a_Node000005"><a xlink:title=" ">
<polygon fill="#e0e0e0" stroke="#999999" points="190.5,-19 125.5,-19 125.5,0 190.5,0 190.5,-19"/>
<text text-anchor="middle" x="158" y="-7" font-family="Helvetica,sans-Serif" font-size="10.00">stdexcept</text>
</a>
</g>
</g>
<!-- Node4&#45;&gt;Node5 -->
<g id="edge4_Node000004_Node000005" class="edge">
<title>Node4&#45;&gt;Node5</title>
<g id="a_edge4_Node000004_Node000005"><a xlink:title=" ">
<path fill="none" stroke="#63b8ff" d="M219.27,-54.98C208.27,-47 191.58,-34.88 178.4,-25.31"/>
<polygon fill="#63b8ff" stroke="#63b8ff" points="180.09,-22.21 169.94,-19.17 175.98,-27.88 180.09,-22.21"/>
</a>
</g>
</g>
<!-- Node6 -->
<g id="Node000006" class="node">
<title>Node6</title>
<g id="a_Node000006"><a xlink:title=" ">
<polygon fill="#e0e0e0" stroke="#999999" points="253,-19 209,-19 209,0 253,0 253,-19"/>
<text text-anchor="middle" x="231" y="-7" font-family="Helvetica,sans-Serif" font-size="10.00">string</text>
</a>
</g>
</g>
<!-- Node4&#45;&gt;Node6 -->
<g id="edge5_Node000004_Node000006" class="edge">
<title>Node4&#45;&gt;Node6</title>
<g id="a_edge5_Node000004_Node000006"><a xlink:title=" ">
<path fill="none" stroke="#63b8ff" d="M231,-54.75C231,-47.8 231,-37.85 231,-29.13"/>
<polygon fill="#63b8ff" stroke="#63b8ff" points="234.5,-29.09 231,-19.09 227.5,-29.09 234.5,-29.09"/>
</a>
</g>
</g>
<!-- Node7 -->
<g id="Node000007" class="node">
<title>Node7</title>
<g id="a_Node000007"><a xlink:title=" ">
<polygon fill="#e0e0e0" stroke="#999999" points="321,-19 271,-19 271,0 321,0 321,-19"/>
<text text-anchor="middle" x="296" y="-7" font-family="Helvetica,sans-Serif" font-size="10.00">dlfcn.h</text>
</a>
</g>
</g>
<!-- Node4&#45;&gt;Node7 -->
<g id="edge6_Node000004_Node000007" class="edge">
<title>Node4&#45;&gt;Node7</title>
<g id="a_edge6_Node000004_Node000007"><a xlink:title=" ">
<path fill="none" stroke="#63b8ff" d="M241.44,-54.98C251.15,-47.07 265.82,-35.11 277.5,-25.58"/>
<polygon fill="#63b8ff" stroke="#63b8ff" points="279.83,-28.2 285.37,-19.17 275.4,-22.78 279.83,-28.2"/>
</a>
</g>
</g>
</g>
</svg>
