<?xml version="1.0" encoding="UTF-8" standalone="no"?>
<!DOCTYPE svg PUBLIC "-//W3C//DTD SVG 1.1//EN"
 "http://www.w3.org/Graphics/SVG/1.1/DTD/svg11.dtd">
<!-- Generated by graphviz version 2.43.0 (0)
 -->
<!-- Title: /home/runner/work/R&#45;Type/R&#45;Type/Shared/systems/Collision/MapCollisionSystem.cpp Pages: 1 -->
<svg width="1040pt" height="280pt"
 viewBox="0.00 0.00 1039.54 280.00" xmlns="http://www.w3.org/2000/svg" xmlns:xlink="http://www.w3.org/1999/xlink">
<g id="graph0" class="graph" transform="scale(1 1) rotate(0) translate(4 276)">
<title>/home/runner/work/R&#45;Type/R&#45;Type/Shared/systems/Collision/MapCollisionSystem.cpp</title>
<!-- Node1 -->
<g id="Node000001" class="node">
<title>Node1</title>
<g id="a_Node000001"><a xlink:title=" ">
<polygon fill="#999999" stroke="#666666" points="711,-272 539,-272 539,-220 711,-220 711,-272"/>
<text text-anchor="start" x="547" y="-260" font-family="Helvetica,sans-Serif" font-size="10.00">/home/runner/work/R</text>
<text text-anchor="start" x="547" y="-249" font-family="Helvetica,sans-Serif" font-size="10.00">&#45;Type/R&#45;Type/Shared</text>
<text text-anchor="start" x="547" y="-238" font-family="Helvetica,sans-Serif" font-size="10.00">/systems/Collision/MapCollision</text>
<text text-anchor="middle" x="625" y="-227" font-family="Helvetica,sans-Serif" font-size="10.00">System.cpp</text>
</a>
</g>
</g>
<!-- Node2 -->
<g id="Node000002" class="node">
<title>Node2</title>
<g id="a_Node000002"><a xlink:href="Enemy_8hpp.html" target="_top" xlink:title=" ">
<polygon fill="white" stroke="#666666" points="104,-74 0,-74 0,-55 104,-55 104,-74"/>
<text text-anchor="middle" x="52" y="-62" font-family="Helvetica,sans-Serif" font-size="10.00">Player/Enemy.hpp</text>
</a>
</g>
</g>
<!-- Node1&#45;&gt;Node2 -->
<g id="edge1_Node000001_Node000002" class="edge">
<title>Node1&#45;&gt;Node2</title>
<g id="a_edge1_Node000001_Node000002"><a xlink:title=" ">
<path fill="none" stroke="#63b8ff" d="M538.76,-237.62C400.6,-224.1 138.33,-190.88 71,-129 58.7,-117.69 54.24,-98.79 52.68,-84.54"/>
<polygon fill="#63b8ff" stroke="#63b8ff" points="56.16,-84.07 51.96,-74.34 49.18,-84.57 56.16,-84.07"/>
</a>
</g>
</g>
<!-- Node3 -->
<g id="Node000003" class="node">
<title>Node3</title>
<g id="a_Node000003"><a xlink:title=" ">
<polygon fill="#e0e0e0" stroke="#999999" points="554,-19 426,-19 426,0 554,0 554,-19"/>
<text text-anchor="middle" x="490" y="-7" font-family="Helvetica,sans-Serif" font-size="10.00">physics/Physics2D.hpp</text>
</a>
</g>
</g>
<!-- Node1&#45;&gt;Node3 -->
<g id="edge18_Node000001_Node000003" class="edge">
<title>Node1&#45;&gt;Node3</title>
<g id="a_edge18_Node000001_Node000003"><a xlink:title=" ">
<path fill="none" stroke="#63b8ff" d="M604.26,-219.78C595.76,-209.01 586.05,-196.15 578,-184 542.65,-130.62 511.4,-61.16 497.56,-28.7"/>
<polygon fill="#63b8ff" stroke="#63b8ff" points="500.66,-27.05 493.55,-19.19 494.21,-29.76 500.66,-27.05"/>
</a>
</g>
</g>
<!-- Node4 -->
<g id="Node000004" class="node">
<title>Node4</title>
<g id="a_Node000004"><a xlink:href="PlayerEntity_8hpp.html" target="_top" xlink:title=" ">
<polygon fill="white" stroke="#666666" points="494.5,-184 365.5,-184 365.5,-165 494.5,-165 494.5,-184"/>
<text text-anchor="middle" x="430" y="-172" font-family="Helvetica,sans-Serif" font-size="10.00">Player/PlayerEntity.hpp</text>
</a>
</g>
</g>
<!-- Node1&#45;&gt;Node4 -->
<g id="edge3_Node000001_Node000004" class="edge">
<title>Node1&#45;&gt;Node4</title>
<g id="a_edge3_Node000001_Node000004"><a xlink:title=" ">
<path fill="none" stroke="#63b8ff" d="M554.6,-219.91C523.73,-208.91 488.91,-196.5 463.95,-187.6"/>
<polygon fill="#63b8ff" stroke="#63b8ff" points="464.82,-184.2 454.23,-184.14 462.47,-190.79 464.82,-184.2"/>
</a>
</g>
</g>
<!-- Node10 -->
<g id="Node000010" class="node">
<title>Node10</title>
<g id="a_Node000010"><a xlink:href="TileMap_8hpp.html" target="_top" xlink:title=" ">
<polygon fill="white" stroke="#666666" points="696,-129 556,-129 556,-110 696,-110 696,-129"/>
<text text-anchor="middle" x="626" y="-117" font-family="Helvetica,sans-Serif" font-size="10.00">components/TileMap.hpp</text>
</a>
</g>
</g>
<!-- Node1&#45;&gt;Node10 -->
<g id="edge11_Node000001_Node000010" class="edge">
<title>Node1&#45;&gt;Node10</title>
<g id="a_edge11_Node000001_Node000010"><a xlink:title=" ">
<path fill="none" stroke="#63b8ff" d="M600.41,-219.96C588.25,-204.45 577.6,-183.95 585,-165 589.4,-153.73 598.14,-143.59 606.43,-135.85"/>
<polygon fill="#63b8ff" stroke="#63b8ff" points="608.82,-138.4 614.07,-129.2 604.23,-133.12 608.82,-138.4"/>
</a>
</g>
</g>
<!-- Node13 -->
<g id="Node000013" class="node">
<title>Node13</title>
<g id="a_Node000013"><a xlink:title=" ">
<polygon fill="#e0e0e0" stroke="#999999" points="951,-129 855,-129 855,-110 951,-110 951,-129"/>
<text text-anchor="middle" x="903" y="-117" font-family="Helvetica,sans-Serif" font-size="10.00">ecs/Registry.hpp</text>
</a>
</g>
</g>
<!-- Node1&#45;&gt;Node13 -->
<g id="edge15_Node000001_Node000013" class="edge">
<title>Node1&#45;&gt;Node13</title>
<g id="a_edge15_Node000001_Node000013"><a xlink:title=" ">
<path fill="none" stroke="#63b8ff" d="M711.39,-244.46C816.65,-241.75 985.4,-230.09 1025,-184 1048.19,-157 1003.02,-139.92 961.23,-130.35"/>
<polygon fill="#63b8ff" stroke="#63b8ff" points="961.8,-126.89 951.28,-128.2 960.31,-133.74 961.8,-126.89"/>
</a>
</g>
</g>
<!-- Node14 -->
<g id="Node000014" class="node">
<title>Node14</title>
<g id="a_Node000014"><a xlink:title=" ">
<polygon fill="#e0e0e0" stroke="#999999" points="909.5,-184 794.5,-184 794.5,-165 909.5,-165 909.5,-184"/>
<text text-anchor="middle" x="852" y="-172" font-family="Helvetica,sans-Serif" font-size="10.00">ecs/SparseArray.hpp</text>
</a>
</g>
</g>
<!-- Node1&#45;&gt;Node14 -->
<g id="edge16_Node000001_Node000014" class="edge">
<title>Node1&#45;&gt;Node14</title>
<g id="a_edge16_Node000001_Node000014"><a xlink:title=" ">
<path fill="none" stroke="#63b8ff" d="M706.95,-219.91C743.65,-208.67 785.12,-195.98 814.29,-187.05"/>
<polygon fill="#63b8ff" stroke="#63b8ff" points="815.53,-190.33 824.07,-184.05 813.48,-183.63 815.53,-190.33"/>
</a>
</g>
</g>
<!-- Node15 -->
<g id="Node000015" class="node">
<title>Node15</title>
<g id="a_Node000015"><a xlink:title=" ">
<polygon fill="#e0e0e0" stroke="#999999" points="1016,-184 928,-184 928,-165 1016,-165 1016,-184"/>
<text text-anchor="middle" x="972" y="-172" font-family="Helvetica,sans-Serif" font-size="10.00">ecs/Zipper.hpp</text>
</a>
</g>
</g>
<!-- Node1&#45;&gt;Node15 -->
<g id="edge17_Node000001_Node000015" class="edge">
<title>Node1&#45;&gt;Node15</title>
<g id="a_edge17_Node000001_Node000015"><a xlink:title=" ">
<path fill="none" stroke="#63b8ff" d="M711.22,-227.73C776.6,-214.64 864.34,-197.06 919.53,-186.01"/>
<polygon fill="#63b8ff" stroke="#63b8ff" points="920.32,-189.42 929.44,-184.02 918.95,-182.56 920.32,-189.42"/>
</a>
</g>
</g>
<!-- Node16 -->
<g id="Node000016" class="node">
<title>Node16</title>
<g id="a_Node000016"><a xlink:href="MapCollisionSystem_8hpp.html" target="_top" xlink:title=" ">
<polygon fill="white" stroke="#666666" points="776,-184 594,-184 594,-165 776,-165 776,-184"/>
<text text-anchor="middle" x="685" y="-172" font-family="Helvetica,sans-Serif" font-size="10.00">Collision/MapCollisionSystem.hpp</text>
</a>
</g>
</g>
<!-- Node1&#45;&gt;Node16 -->
<g id="edge19_Node000001_Node000016" class="edge">
<title>Node1&#45;&gt;Node16</title>
<g id="a_edge19_Node000001_Node000016"><a xlink:title=" ">
<path fill="none" stroke="#63b8ff" d="M646.66,-219.91C654.72,-210.58 663.64,-200.24 670.86,-191.88"/>
<polygon fill="#63b8ff" stroke="#63b8ff" points="673.52,-194.16 677.4,-184.3 668.22,-189.58 673.52,-194.16"/>
</a>
</g>
</g>
<!-- Node2&#45;&gt;Node3 -->
<g id="edge2_Node000002_Node000003" class="edge">
<title>Node2&#45;&gt;Node3</title>
<g id="a_edge2_Node000002_Node000003"><a xlink:title=" ">
<path fill="none" stroke="#63b8ff" d="M104.23,-56.15C107.2,-55.75 110.14,-55.37 113,-55 218.1,-41.48 339.89,-27.39 415.95,-18.78"/>
<polygon fill="#63b8ff" stroke="#63b8ff" points="416.37,-22.25 425.91,-17.65 415.58,-15.3 416.37,-22.25"/>
</a>
</g>
</g>
<!-- Node4&#45;&gt;Node3 -->
<g id="edge10_Node000004_Node000003" class="edge">
<title>Node4&#45;&gt;Node3</title>
<g id="a_edge10_Node000004_Node000003"><a xlink:title=" ">
<path fill="none" stroke="#63b8ff" d="M440.98,-164.87C450.54,-156.7 463.94,-143.55 471,-129 486.79,-96.46 489.9,-53.56 490.27,-29.32"/>
<polygon fill="#63b8ff" stroke="#63b8ff" points="493.77,-29.04 490.27,-19.04 486.77,-29.04 493.77,-29.04"/>
</a>
</g>
</g>
<!-- Node5 -->
<g id="Node000005" class="node">
<title>Node5</title>
<g id="a_Node000005"><a xlink:title=" ">
<polygon fill="#e0e0e0" stroke="#999999" points="462,-129 398,-129 398,-110 462,-110 462,-129"/>
<text text-anchor="middle" x="430" y="-117" font-family="Helvetica,sans-Serif" font-size="10.00">algorithm</text>
</a>
</g>
</g>
<!-- Node4&#45;&gt;Node5 -->
<g id="edge4_Node000004_Node000005" class="edge">
<title>Node4&#45;&gt;Node5</title>
<g id="a_edge4_Node000004_Node000005"><a xlink:title=" ">
<path fill="none" stroke="#63b8ff" d="M430,-164.75C430,-157.8 430,-147.85 430,-139.13"/>
<polygon fill="#63b8ff" stroke="#63b8ff" points="433.5,-139.09 430,-129.09 426.5,-139.09 433.5,-139.09"/>
</a>
</g>
</g>
<!-- Node6 -->
<g id="Node000006" class="node">
<title>Node6</title>
<g id="a_Node000006"><a xlink:href="CollisionController_8hpp.html" target="_top" xlink:title=" ">
<polygon fill="white" stroke="#666666" points="380,-129 208,-129 208,-110 380,-110 380,-129"/>
<text text-anchor="middle" x="294" y="-117" font-family="Helvetica,sans-Serif" font-size="10.00">Collision/CollisionController.hpp</text>
</a>
</g>
</g>
<!-- Node4&#45;&gt;Node6 -->
<g id="edge5_Node000004_Node000006" class="edge">
<title>Node4&#45;&gt;Node6</title>
<g id="a_edge5_Node000004_Node000006"><a xlink:title=" ">
<path fill="none" stroke="#63b8ff" d="M408.15,-164.98C385.88,-156.3 351.1,-142.75 325.78,-132.88"/>
<polygon fill="#63b8ff" stroke="#63b8ff" points="326.84,-129.54 316.25,-129.17 324.29,-136.06 326.84,-129.54"/>
</a>
</g>
</g>
<!-- Node8 -->
<g id="Node000008" class="node">
<title>Node8</title>
<g id="a_Node000008"><a xlink:href="Weapon_8hpp.html" target="_top" xlink:title=" ">
<polygon fill="white" stroke="#666666" points="190,-129 80,-129 80,-110 190,-110 190,-129"/>
<text text-anchor="middle" x="135" y="-117" font-family="Helvetica,sans-Serif" font-size="10.00">Player/Weapon.hpp</text>
</a>
</g>
</g>
<!-- Node4&#45;&gt;Node8 -->
<g id="edge7_Node000004_Node000008" class="edge">
<title>Node4&#45;&gt;Node8</title>
<g id="a_edge7_Node000004_Node000008"><a xlink:title=" ">
<path fill="none" stroke="#63b8ff" d="M382.6,-164.98C330.93,-155.7 248.23,-140.84 192.79,-130.88"/>
<polygon fill="#63b8ff" stroke="#63b8ff" points="193.23,-127.41 182.77,-129.08 191.99,-134.3 193.23,-127.41"/>
</a>
</g>
</g>
<!-- Node7 -->
<g id="Node000007" class="node">
<title>Node7</title>
<g id="a_Node000007"><a xlink:title=" ">
<polygon fill="#e0e0e0" stroke="#999999" points="404,-74 320,-74 320,-55 404,-55 404,-74"/>
<text text-anchor="middle" x="362" y="-62" font-family="Helvetica,sans-Serif" font-size="10.00">ecs/Entity.hpp</text>
</a>
</g>
</g>
<!-- Node6&#45;&gt;Node7 -->
<g id="edge6_Node000006_Node000007" class="edge">
<title>Node6&#45;&gt;Node7</title>
<g id="a_edge6_Node000006_Node000007"><a xlink:title=" ">
<path fill="none" stroke="#63b8ff" d="M304.93,-109.98C315.08,-102.07 330.42,-90.11 342.65,-80.58"/>
<polygon fill="#63b8ff" stroke="#63b8ff" points="345.14,-83.08 350.88,-74.17 340.84,-77.56 345.14,-83.08"/>
</a>
</g>
</g>
<!-- Node9 -->
<g id="Node000009" class="node">
<title>Node9</title>
<g id="a_Node000009"><a xlink:href="Projectile_8hpp.html" target="_top" xlink:title=" ">
<polygon fill="white" stroke="#666666" points="302,-74 122,-74 122,-55 302,-55 302,-74"/>
<text text-anchor="middle" x="212" y="-62" font-family="Helvetica,sans-Serif" font-size="10.00">components/Player/Projectile.hpp</text>
</a>
</g>
</g>
<!-- Node8&#45;&gt;Node9 -->
<g id="edge8_Node000008_Node000009" class="edge">
<title>Node8&#45;&gt;Node9</title>
<g id="a_edge8_Node000008_Node000009"><a xlink:title=" ">
<path fill="none" stroke="#63b8ff" d="M147.37,-109.98C159.09,-101.92 176.92,-89.65 190.89,-80.03"/>
<polygon fill="#63b8ff" stroke="#63b8ff" points="193.15,-82.72 199.4,-74.17 189.18,-76.96 193.15,-82.72"/>
</a>
</g>
</g>
<!-- Node9&#45;&gt;Node3 -->
<g id="edge9_Node000009_Node000003" class="edge">
<title>Node9&#45;&gt;Node3</title>
<g id="a_edge9_Node000009_Node000003"><a xlink:title=" ">
<path fill="none" stroke="#63b8ff" d="M256.67,-54.98C305.16,-45.74 382.65,-30.97 434.89,-21.01"/>
<polygon fill="#63b8ff" stroke="#63b8ff" points="435.82,-24.39 444.98,-19.08 434.51,-17.52 435.82,-24.39"/>
</a>
</g>
</g>
<!-- Node10&#45;&gt;Node3 -->
<g id="edge14_Node000010_Node000003" class="edge">
<title>Node10&#45;&gt;Node3</title>
<g id="a_edge14_Node000010_Node000003"><a xlink:title=" ">
<path fill="none" stroke="#63b8ff" d="M614.87,-109.66C591.64,-91.22 537.78,-48.45 508.98,-25.57"/>
<polygon fill="#63b8ff" stroke="#63b8ff" points="510.91,-22.64 500.9,-19.16 506.56,-28.12 510.91,-22.64"/>
</a>
</g>
</g>
<!-- Node11 -->
<g id="Node000011" class="node">
<title>Node11</title>
<g id="a_Node000011"><a xlink:title=" ">
<polygon fill="#e0e0e0" stroke="#999999" points="716,-74 666,-74 666,-55 716,-55 716,-74"/>
<text text-anchor="middle" x="691" y="-62" font-family="Helvetica,sans-Serif" font-size="10.00">cstdint</text>
</a>
</g>
</g>
<!-- Node10&#45;&gt;Node11 -->
<g id="edge12_Node000010_Node000011" class="edge">
<title>Node10&#45;&gt;Node11</title>
<g id="a_edge12_Node000010_Node000011"><a xlink:title=" ">
<path fill="none" stroke="#63b8ff" d="M636.44,-109.98C646.15,-102.07 660.82,-90.11 672.5,-80.58"/>
<polygon fill="#63b8ff" stroke="#63b8ff" points="674.83,-83.2 680.37,-74.17 670.4,-77.78 674.83,-83.2"/>
</a>
</g>
</g>
<!-- Node12 -->
<g id="Node000012" class="node">
<title>Node12</title>
<g id="a_Node000012"><a xlink:title=" ">
<polygon fill="#e0e0e0" stroke="#999999" points="647.5,-74 600.5,-74 600.5,-55 647.5,-55 647.5,-74"/>
<text text-anchor="middle" x="624" y="-62" font-family="Helvetica,sans-Serif" font-size="10.00">vector</text>
</a>
</g>
</g>
<!-- Node10&#45;&gt;Node12 -->
<g id="edge13_Node000010_Node000012" class="edge">
<title>Node10&#45;&gt;Node12</title>
<g id="a_edge13_Node000010_Node000012"><a xlink:title=" ">
<path fill="none" stroke="#63b8ff" d="M625.67,-109.75C625.41,-102.8 625.03,-92.85 624.7,-84.13"/>
<polygon fill="#63b8ff" stroke="#63b8ff" points="628.2,-83.95 624.32,-74.09 621.2,-84.21 628.2,-83.95"/>
</a>
</g>
</g>
<!-- Node16&#45;&gt;Node10 -->
<g id="edge20_Node000016_Node000010" class="edge">
<title>Node16&#45;&gt;Node10</title>
<g id="a_edge20_Node000016_Node000010"><a xlink:title=" ">
<path fill="none" stroke="#63b8ff" d="M675.52,-164.98C666.8,-157.15 653.66,-145.34 643.1,-135.86"/>
<polygon fill="#63b8ff" stroke="#63b8ff" points="645.43,-133.25 635.65,-129.17 640.75,-138.46 645.43,-133.25"/>
</a>
</g>
</g>
<!-- Node16&#45;&gt;Node13 -->
<g id="edge21_Node000016_Node000013" class="edge">
<title>Node16&#45;&gt;Node13</title>
<g id="a_edge21_Node000016_Node000013"><a xlink:title=" ">
<path fill="none" stroke="#63b8ff" d="M720.03,-164.98C757.5,-155.87 817.05,-141.4 857.98,-131.45"/>
<polygon fill="#63b8ff" stroke="#63b8ff" points="858.81,-134.85 867.7,-129.08 857.16,-128.04 858.81,-134.85"/>
</a>
</g>
</g>
</g>
</svg>
