<?xml version="1.0" encoding="UTF-8" standalone="no"?>
<!DOCTYPE svg PUBLIC "-//W3C//DTD SVG 1.1//EN"
 "http://www.w3.org/Graphics/SVG/1.1/DTD/svg11.dtd">
<!-- Generated by graphviz version 2.43.0 (0)
 -->
<!-- Title: /home/runner/work/R&#45;Type/R&#45;Type/Shared/systems/MapGenerator.hpp Pages: 1 -->
<svg width="414pt" height="159pt"
 viewBox="0.00 0.00 414.44 159.00" xmlns="http://www.w3.org/2000/svg" xmlns:xlink="http://www.w3.org/1999/xlink">
<g id="graph0" class="graph" transform="scale(1 1) rotate(0) translate(4 155)">
<title>/home/runner/work/R&#45;Type/R&#45;Type/Shared/systems/MapGenerator.hpp</title>
<!-- Node1 -->
<g id="Node000001" class="node">
<title>Node1</title>
<g id="a_Node000001"><a xlink:title=" ">
<polygon fill="#999999" stroke="#666666" points="212.94,-151 58.94,-151 58.94,-110 212.94,-110 212.94,-151"/>
<text text-anchor="start" x="66.94" y="-139" font-family="Helvetica,sans-Serif" font-size="10.00">/home/runner/work/R</text>
<text text-anchor="start" x="66.94" y="-128" font-family="Helvetica,sans-Serif" font-size="10.00">&#45;Type/R&#45;Type/Shared</text>
<text text-anchor="middle" x="135.94" y="-117" font-family="Helvetica,sans-Serif" font-size="10.00">/systems/MapGenerator.hpp</text>
</a>
</g>
</g>
<!-- Node2 -->
<g id="Node000002" class="node">
<title>Node2</title>
<g id="a_Node000002"><a xlink:title=" ">
<polygon fill="#e0e0e0" stroke="#999999" points="102.94,-19 52.94,-19 52.94,0 102.94,0 102.94,-19"/>
<text text-anchor="middle" x="77.94" y="-7" font-family="Helvetica,sans-Serif" font-size="10.00">cstdint</text>
</a>
</g>
</g>
<!-- Node1&#45;&gt;Node2 -->
<g id="edge1_Node000001_Node000002" class="edge">
<title>Node1&#45;&gt;Node2</title>
<g id="a_edge1_Node000001_Node000002"><a xlink:title=" ">
<path fill="none" stroke="#63b8ff" d="M58.75,-113.94C37.42,-105.71 16.66,-93.15 3.94,-74 -10.25,-52.65 18.23,-34.34 43.87,-22.95"/>
<polygon fill="#63b8ff" stroke="#63b8ff" points="45.24,-26.17 53.1,-19.07 42.53,-19.71 45.24,-26.17"/>
</a>
</g>
</g>
<!-- Node3 -->
<g id="Node000003" class="node">
<title>Node3</title>
<g id="a_Node000003"><a xlink:title=" ">
<polygon fill="#e0e0e0" stroke="#999999" points="62.44,-74 13.44,-74 13.44,-55 62.44,-55 62.44,-74"/>
<text text-anchor="middle" x="37.94" y="-62" font-family="Helvetica,sans-Serif" font-size="10.00">cstdlib</text>
</a>
</g>
</g>
<!-- Node1&#45;&gt;Node3 -->
<g id="edge2_Node000001_Node000003" class="edge">
<title>Node1&#45;&gt;Node3</title>
<g id="a_edge2_Node000001_Node000003"><a xlink:title=" ">
<path fill="none" stroke="#63b8ff" d="M106,-109.95C91.09,-100.21 73.39,-88.65 59.78,-79.76"/>
<polygon fill="#63b8ff" stroke="#63b8ff" points="61.38,-76.63 51.09,-74.09 57.55,-82.49 61.38,-76.63"/>
</a>
</g>
</g>
<!-- Node4 -->
<g id="Node000004" class="node">
<title>Node4</title>
<g id="a_Node000004"><a xlink:title=" ">
<polygon fill="#e0e0e0" stroke="#999999" points="124.94,-74 80.94,-74 80.94,-55 124.94,-55 124.94,-74"/>
<text text-anchor="middle" x="102.94" y="-62" font-family="Helvetica,sans-Serif" font-size="10.00">ctime</text>
</a>
</g>
</g>
<!-- Node1&#45;&gt;Node4 -->
<g id="edge3_Node000001_Node000004" class="edge">
<title>Node1&#45;&gt;Node4</title>
<g id="a_edge3_Node000001_Node000004"><a xlink:title=" ">
<path fill="none" stroke="#63b8ff" d="M125.86,-109.95C121.49,-101.48 116.41,-91.64 112.15,-83.37"/>
<polygon fill="#63b8ff" stroke="#63b8ff" points="115.15,-81.54 107.45,-74.26 108.93,-84.75 115.15,-81.54"/>
</a>
</g>
</g>
<!-- Node5 -->
<g id="Node000005" class="node">
<title>Node5</title>
<g id="a_Node000005"><a xlink:title=" ">
<polygon fill="#e0e0e0" stroke="#999999" points="196.94,-74 142.94,-74 142.94,-55 196.94,-55 196.94,-74"/>
<text text-anchor="middle" x="169.94" y="-62" font-family="Helvetica,sans-Serif" font-size="10.00">random</text>
</a>
</g>
</g>
<!-- Node1&#45;&gt;Node5 -->
<g id="edge4_Node000001_Node000005" class="edge">
<title>Node1&#45;&gt;Node5</title>
<g id="a_edge4_Node000001_Node000005"><a xlink:title=" ">
<path fill="none" stroke="#63b8ff" d="M146.32,-109.95C150.87,-101.39 156.17,-91.42 160.59,-83.1"/>
<polygon fill="#63b8ff" stroke="#63b8ff" points="163.68,-84.73 165.28,-74.26 157.5,-81.45 163.68,-84.73"/>
</a>
</g>
</g>
<!-- Node6 -->
<g id="Node000006" class="node">
<title>Node6</title>
<g id="a_Node000006"><a xlink:title=" ">
<polygon fill="#e0e0e0" stroke="#999999" points="406.44,-19 359.44,-19 359.44,0 406.44,0 406.44,-19"/>
<text text-anchor="middle" x="382.94" y="-7" font-family="Helvetica,sans-Serif" font-size="10.00">vector</text>
</a>
</g>
</g>
<!-- Node1&#45;&gt;Node6 -->
<g id="edge5_Node000001_Node000006" class="edge">
<title>Node1&#45;&gt;Node6</title>
<g id="a_edge5_Node000001_Node000006"><a xlink:title=" ">
<path fill="none" stroke="#63b8ff" d="M213.22,-119.05C270.51,-109.8 342.26,-94.58 363.94,-74 376.05,-62.5 380.54,-43.62 382.15,-29.43"/>
<polygon fill="#63b8ff" stroke="#63b8ff" points="385.65,-29.52 382.92,-19.28 378.67,-28.99 385.65,-29.52"/>
</a>
</g>
</g>
<!-- Node7 -->
<g id="Node000007" class="node">
<title>Node7</title>
<g id="a_Node000007"><a xlink:href="TileMap_8hpp.html" target="_top" xlink:title=" ">
<polygon fill="white" stroke="#666666" points="354.94,-74 214.94,-74 214.94,-55 354.94,-55 354.94,-74"/>
<text text-anchor="middle" x="284.94" y="-62" font-family="Helvetica,sans-Serif" font-size="10.00">components/TileMap.hpp</text>
</a>
</g>
</g>
<!-- Node1&#45;&gt;Node7 -->
<g id="edge6_Node000001_Node000007" class="edge">
<title>Node1&#45;&gt;Node7</title>
<g id="a_edge6_Node000001_Node000007"><a xlink:title=" ">
<path fill="none" stroke="#63b8ff" d="M181.45,-109.95C205.54,-99.6 234.41,-87.2 255.53,-78.13"/>
<polygon fill="#63b8ff" stroke="#63b8ff" points="257.13,-81.25 264.93,-74.09 254.36,-74.82 257.13,-81.25"/>
</a>
</g>
</g>
<!-- Node7&#45;&gt;Node2 -->
<g id="edge7_Node000007_Node000002" class="edge">
<title>Node7&#45;&gt;Node2</title>
<g id="a_edge7_Node000007_Node000002"><a xlink:title=" ">
<path fill="none" stroke="#63b8ff" d="M251.68,-54.98C213.6,-45.23 151.49,-29.33 112.76,-19.42"/>
<polygon fill="#63b8ff" stroke="#63b8ff" points="113.53,-16 102.97,-16.91 111.79,-22.78 113.53,-16"/>
</a>
</g>
</g>
<!-- Node7&#45;&gt;Node6 -->
<g id="edge8_Node000007_Node000006" class="edge">
<title>Node7&#45;&gt;Node6</title>
<g id="a_edge8_Node000007_Node000006"><a xlink:title=" ">
<path fill="none" stroke="#63b8ff" d="M300.68,-54.98C316.16,-46.61 340.03,-33.7 358.07,-23.95"/>
<polygon fill="#63b8ff" stroke="#63b8ff" points="359.77,-27.01 366.9,-19.17 356.44,-20.85 359.77,-27.01"/>
</a>
</g>
</g>
<!-- Node8 -->
<g id="Node000008" class="node">
<title>Node8</title>
<g id="a_Node000008"><a xlink:title=" ">
<polygon fill="#e0e0e0" stroke="#999999" points="340.94,-19 212.94,-19 212.94,0 340.94,0 340.94,-19"/>
<text text-anchor="middle" x="276.94" y="-7" font-family="Helvetica,sans-Serif" font-size="10.00">physics/Physics2D.hpp</text>
</a>
</g>
</g>
<!-- Node7&#45;&gt;Node8 -->
<g id="edge9_Node000007_Node000008" class="edge">
<title>Node7&#45;&gt;Node8</title>
<g id="a_edge9_Node000007_Node000008"><a xlink:title=" ">
<path fill="none" stroke="#63b8ff" d="M283.62,-54.75C282.57,-47.8 281.06,-37.85 279.75,-29.13"/>
<polygon fill="#63b8ff" stroke="#63b8ff" points="283.19,-28.45 278.23,-19.09 276.26,-29.5 283.19,-28.45"/>
</a>
</g>
</g>
</g>
</svg>
