<?xml version="1.0" encoding="UTF-8" standalone="no"?>
<!DOCTYPE svg PUBLIC "-//W3C//DTD SVG 1.1//EN"
 "http://www.w3.org/Graphics/SVG/1.1/DTD/svg11.dtd">
<!-- Generated by graphviz version 2.43.0 (0)
 -->
<!-- Title: /home/runner/work/R&#45;Type/R&#45;Type/Shared/systems/Movement/Movement.cpp Pages: 1 -->
<svg width="2247pt" height="335pt"
 viewBox="0.00 0.00 2247.45 335.00" xmlns="http://www.w3.org/2000/svg" xmlns:xlink="http://www.w3.org/1999/xlink">
<g id="graph0" class="graph" transform="scale(1 1) rotate(0) translate(4 331)">
<title>/home/runner/work/R&#45;Type/R&#45;Type/Shared/systems/Movement/Movement.cpp</title>
<!-- Node1 -->
<g id="Node000001" class="node">
<title>Node1</title>
<g id="a_Node000001"><a xlink:title=" ">
<polygon fill="#999999" stroke="#666666" points="704.45,-327 512.45,-327 512.45,-286 704.45,-286 704.45,-327"/>
<text text-anchor="start" x="520.45" y="-315" font-family="Helvetica,sans-Serif" font-size="10.00">/home/runner/work/R</text>
<text text-anchor="start" x="520.45" y="-304" font-family="Helvetica,sans-Serif" font-size="10.00">&#45;Type/R&#45;Type/Shared</text>
<text text-anchor="middle" x="608.45" y="-293" font-family="Helvetica,sans-Serif" font-size="10.00">/systems/Movement/Movement.cpp</text>
</a>
</g>
</g>
<!-- Node2 -->
<g id="Node000002" class="node">
<title>Node2</title>
<g id="a_Node000002"><a xlink:href="Movement_8hpp.html" target="_top" xlink:title=" ">
<polygon fill="white" stroke="#666666" points="580.45,-250 484.45,-250 484.45,-231 580.45,-231 580.45,-250"/>
<text text-anchor="middle" x="532.45" y="-238" font-family="Helvetica,sans-Serif" font-size="10.00">./Movement.hpp</text>
</a>
</g>
</g>
<!-- Node1&#45;&gt;Node2 -->
<g id="edge1_Node000001_Node000002" class="edge">
<title>Node1&#45;&gt;Node2</title>
<g id="a_edge1_Node000001_Node000002"><a xlink:title=" ">
<path fill="none" stroke="#63b8ff" d="M585.23,-285.95C574.07,-276.55 560.89,-265.46 550.5,-256.7"/>
<polygon fill="#63b8ff" stroke="#63b8ff" points="552.75,-254.02 542.85,-250.26 548.24,-259.38 552.75,-254.02"/>
</a>
</g>
</g>
<!-- Node5 -->
<g id="Node000005" class="node">
<title>Node5</title>
<g id="a_Node000005"><a xlink:title=" ">
<polygon fill="#e0e0e0" stroke="#999999" points="1144.45,-19 1016.45,-19 1016.45,0 1144.45,0 1144.45,-19"/>
<text text-anchor="middle" x="1080.45" y="-7" font-family="Helvetica,sans-Serif" font-size="10.00">physics/Physics2D.hpp</text>
</a>
</g>
</g>
<!-- Node1&#45;&gt;Node5 -->
<g id="edge63_Node000001_Node000005" class="edge">
<title>Node1&#45;&gt;Node5</title>
<g id="a_edge63_Node000001_Node000005"><a xlink:title=" ">
<path fill="none" stroke="#63b8ff" d="M704.68,-303.22C1054.68,-294.32 2239.45,-258.45 2239.45,-181 2239.45,-181 2239.45,-181 2239.45,-118.5 2239.45,-63.84 1411.46,-24.43 1155.15,-13.53"/>
<polygon fill="#63b8ff" stroke="#63b8ff" points="1154.96,-10.02 1144.82,-13.1 1154.67,-17.02 1154.96,-10.02"/>
</a>
</g>
</g>
<!-- Node6 -->
<g id="Node000006" class="node">
<title>Node6</title>
<g id="a_Node000006"><a xlink:href="Boss_8hpp.html" target="_top" xlink:title=" ">
<polygon fill="white" stroke="#666666" points="1054.45,-129 896.45,-129 896.45,-110 1054.45,-110 1054.45,-129"/>
<text text-anchor="middle" x="975.45" y="-117" font-family="Helvetica,sans-Serif" font-size="10.00">components/Player/Boss.hpp</text>
</a>
</g>
</g>
<!-- Node1&#45;&gt;Node6 -->
<g id="edge58_Node000001_Node000006" class="edge">
<title>Node1&#45;&gt;Node6</title>
<g id="a_edge58_Node000001_Node000006"><a xlink:title=" ">
<path fill="none" stroke="#63b8ff" d="M616.42,-285.85C630.17,-254.66 661.48,-194.36 708.45,-165 724.38,-155.04 824.67,-140.15 897.66,-130.38"/>
<polygon fill="#63b8ff" stroke="#63b8ff" points="898.31,-133.82 907.76,-129.04 897.39,-126.89 898.31,-133.82"/>
</a>
</g>
</g>
<!-- Node7 -->
<g id="Node000007" class="node">
<title>Node7</title>
<g id="a_Node000007"><a xlink:href="Enemy_8hpp.html" target="_top" xlink:title=" ">
<polygon fill="white" stroke="#666666" points="1400.95,-129 1233.95,-129 1233.95,-110 1400.95,-110 1400.95,-129"/>
<text text-anchor="middle" x="1317.45" y="-117" font-family="Helvetica,sans-Serif" font-size="10.00">components/Player/Enemy.hpp</text>
</a>
</g>
</g>
<!-- Node1&#45;&gt;Node7 -->
<g id="edge59_Node000001_Node000007" class="edge">
<title>Node1&#45;&gt;Node7</title>
<g id="a_edge59_Node000001_Node000007"><a xlink:title=" ">
<path fill="none" stroke="#63b8ff" d="M625.48,-286C657.94,-249.07 726.73,-171.99 741.45,-165 836.1,-120.03 1102.3,-136.92 1223.49,-129.05"/>
<polygon fill="#63b8ff" stroke="#63b8ff" points="1224,-132.53 1233.71,-128.3 1223.48,-125.54 1224,-132.53"/>
</a>
</g>
</g>
<!-- Node8 -->
<g id="Node000008" class="node">
<title>Node8</title>
<g id="a_Node000008"><a xlink:href="PlayerEntity_8hpp.html" target="_top" xlink:title=" ">
<polygon fill="white" stroke="#666666" points="466.45,-195 322.45,-195 322.45,-165 466.45,-165 466.45,-195"/>
<text text-anchor="start" x="330.45" y="-183" font-family="Helvetica,sans-Serif" font-size="10.00">components/Player/Player</text>
<text text-anchor="middle" x="394.45" y="-172" font-family="Helvetica,sans-Serif" font-size="10.00">Entity.hpp</text>
</a>
</g>
</g>
<!-- Node1&#45;&gt;Node8 -->
<g id="edge60_Node000001_Node000008" class="edge">
<title>Node1&#45;&gt;Node8</title>
<g id="a_edge60_Node000001_Node000008"><a xlink:title=" ">
<path fill="none" stroke="#63b8ff" d="M550.9,-285.98C526.76,-276.67 498.9,-264.4 475.45,-250 453.46,-236.51 431.35,-217.2 415.8,-202.44"/>
<polygon fill="#63b8ff" stroke="#63b8ff" points="417.93,-199.62 408.31,-195.19 413.06,-204.66 417.93,-199.62"/>
</a>
</g>
</g>
<!-- Node9 -->
<g id="Node000009" class="node">
<title>Node9</title>
<g id="a_Node000009"><a xlink:title=" ">
<polygon fill="#e0e0e0" stroke="#999999" points="195.45,-129 131.45,-129 131.45,-110 195.45,-110 195.45,-129"/>
<text text-anchor="middle" x="163.45" y="-117" font-family="Helvetica,sans-Serif" font-size="10.00">algorithm</text>
</a>
</g>
</g>
<!-- Node1&#45;&gt;Node9 -->
<g id="edge22_Node000001_Node000009" class="edge">
<title>Node1&#45;&gt;Node9</title>
<g id="a_edge22_Node000001_Node000009"><a xlink:title=" ">
<path fill="none" stroke="#63b8ff" d="M512.26,-288.1C366.86,-261.34 106.54,-211.46 93.45,-195 85.14,-184.57 87.03,-176.69 93.45,-165 101.22,-150.85 115.61,-140.56 129.33,-133.46"/>
<polygon fill="#63b8ff" stroke="#63b8ff" points="131.1,-136.49 138.64,-129.05 128.1,-130.17 131.1,-136.49"/>
</a>
</g>
</g>
<!-- Node12 -->
<g id="Node000012" class="node">
<title>Node12</title>
<g id="a_Node000012"><a xlink:href="Projectile_8hpp.html" target="_top" xlink:title=" ">
<polygon fill="white" stroke="#666666" points="501.45,-74 321.45,-74 321.45,-55 501.45,-55 501.45,-74"/>
<text text-anchor="middle" x="411.45" y="-62" font-family="Helvetica,sans-Serif" font-size="10.00">components/Player/Projectile.hpp</text>
</a>
</g>
</g>
<!-- Node1&#45;&gt;Node12 -->
<g id="edge61_Node000001_Node000012" class="edge">
<title>Node1&#45;&gt;Node12</title>
<g id="a_edge61_Node000001_Node000012"><a xlink:title=" ">
<path fill="none" stroke="#63b8ff" d="M512.4,-303.41C353.5,-298.96 50.05,-285.81 17.45,-250 -28.87,-199.14 26.52,-148.63 83.45,-110 119.62,-85.45 228.66,-74.36 311.17,-69.41"/>
<polygon fill="#63b8ff" stroke="#63b8ff" points="311.57,-72.89 321.35,-68.82 311.17,-65.9 311.57,-72.89"/>
</a>
</g>
</g>
<!-- Node14 -->
<g id="Node000014" class="node">
<title>Node14</title>
<g id="a_Node000014"><a xlink:title=" ">
<polygon fill="#e0e0e0" stroke="#999999" points="190.45,-189.5 102.45,-189.5 102.45,-170.5 190.45,-170.5 190.45,-189.5"/>
<text text-anchor="middle" x="146.45" y="-177.5" font-family="Helvetica,sans-Serif" font-size="10.00">ecs/Zipper.hpp</text>
</a>
</g>
</g>
<!-- Node1&#45;&gt;Node14 -->
<g id="edge62_Node000001_Node000014" class="edge">
<title>Node1&#45;&gt;Node14</title>
<g id="a_edge62_Node000001_Node000014"><a xlink:title=" ">
<path fill="none" stroke="#63b8ff" d="M536,-285.98C438.18,-259.62 267.05,-213.5 188.29,-192.28"/>
<polygon fill="#63b8ff" stroke="#63b8ff" points="188.82,-188.79 178.25,-189.57 187,-195.55 188.82,-188.79"/>
</a>
</g>
</g>
<!-- Node15 -->
<g id="Node000015" class="node">
<title>Node15</title>
<g id="a_Node000015"><a xlink:title=" ">
<polygon fill="#e0e0e0" stroke="#999999" points="810.45,-189.5 750.45,-189.5 750.45,-170.5 810.45,-170.5 810.45,-189.5"/>
<text text-anchor="middle" x="780.45" y="-177.5" font-family="Helvetica,sans-Serif" font-size="10.00">iostream</text>
</a>
</g>
</g>
<!-- Node1&#45;&gt;Node15 -->
<g id="edge23_Node000001_Node000015" class="edge">
<title>Node1&#45;&gt;Node15</title>
<g id="a_edge23_Node000001_Node000015"><a xlink:title=" ">
<path fill="none" stroke="#63b8ff" d="M673.57,-285.91C695.16,-277.27 718.29,-265.48 736.45,-250 752.78,-236.07 765.16,-214.54 772.57,-199.24"/>
<polygon fill="#63b8ff" stroke="#63b8ff" points="775.9,-200.36 776.89,-189.81 769.54,-197.44 775.9,-200.36"/>
</a>
</g>
</g>
<!-- Node16 -->
<g id="Node000016" class="node">
<title>Node16</title>
<g id="a_Node000016"><a xlink:title=" ">
<polygon fill="#e0e0e0" stroke="#999999" points="842.45,-250 788.45,-250 788.45,-231 842.45,-231 842.45,-250"/>
<text text-anchor="middle" x="815.45" y="-238" font-family="Helvetica,sans-Serif" font-size="10.00">random</text>
</a>
</g>
</g>
<!-- Node1&#45;&gt;Node16 -->
<g id="edge24_Node000001_Node000016" class="edge">
<title>Node1&#45;&gt;Node16</title>
<g id="a_edge24_Node000001_Node000016"><a xlink:title=" ">
<path fill="none" stroke="#63b8ff" d="M671.68,-285.95C706.56,-275.16 748.68,-262.14 778.28,-252.99"/>
<polygon fill="#63b8ff" stroke="#63b8ff" points="779.68,-256.22 788.2,-249.92 777.61,-249.53 779.68,-256.22"/>
</a>
</g>
</g>
<!-- Node17 -->
<g id="Node000017" class="node">
<title>Node17</title>
<g id="a_Node000017"><a xlink:href="EntityHelper_8hpp.html" target="_top" xlink:title=" ">
<polygon fill="white" stroke="#666666" points="1253.45,-250 1115.45,-250 1115.45,-231 1253.45,-231 1253.45,-250"/>
<text text-anchor="middle" x="1184.45" y="-238" font-family="Helvetica,sans-Serif" font-size="10.00">Helpers/EntityHelper.hpp</text>
</a>
</g>
</g>
<!-- Node1&#45;&gt;Node17 -->
<g id="edge25_Node000001_Node000017" class="edge">
<title>Node1&#45;&gt;Node17</title>
<g id="a_edge25_Node000001_Node000017"><a xlink:title=" ">
<path fill="none" stroke="#63b8ff" d="M704.53,-294.82C816.82,-282.35 1000.54,-261.93 1105.09,-250.32"/>
<polygon fill="#63b8ff" stroke="#63b8ff" points="1105.71,-253.77 1115.27,-249.19 1104.94,-246.81 1105.71,-253.77"/>
</a>
</g>
</g>
<!-- Node31 -->
<g id="Node000031" class="node">
<title>Node31</title>
<g id="a_Node000031"><a xlink:href="ProjectileSystem_8hpp.html" target="_top" xlink:title=" ">
<polygon fill="white" stroke="#666666" points="190.45,-250 26.45,-250 26.45,-231 190.45,-231 190.45,-250"/>
<text text-anchor="middle" x="108.45" y="-238" font-family="Helvetica,sans-Serif" font-size="10.00">systems/ProjectileSystem.hpp</text>
</a>
</g>
</g>
<!-- Node1&#45;&gt;Node31 -->
<g id="edge64_Node000001_Node000031" class="edge">
<title>Node1&#45;&gt;Node31</title>
<g id="a_edge64_Node000001_Node000031"><a xlink:title=" ">
<path fill="none" stroke="#63b8ff" d="M512.34,-293.2C417.11,-281.01 273.12,-262.58 185.25,-251.33"/>
<polygon fill="#63b8ff" stroke="#63b8ff" points="185.45,-247.83 175.09,-250.03 184.56,-254.77 185.45,-247.83"/>
</a>
</g>
</g>
<!-- Node3 -->
<g id="Node000003" class="node">
<title>Node3</title>
<g id="a_Node000003"><a xlink:href="Force_8hpp.html" target="_top" xlink:title=" ">
<polygon fill="white" stroke="#666666" points="877.95,-129 750.95,-129 750.95,-110 877.95,-110 877.95,-129"/>
<text text-anchor="middle" x="814.45" y="-117" font-family="Helvetica,sans-Serif" font-size="10.00">components/Force.hpp</text>
</a>
</g>
</g>
<!-- Node2&#45;&gt;Node3 -->
<g id="edge2_Node000002_Node000003" class="edge">
<title>Node2&#45;&gt;Node3</title>
<g id="a_edge2_Node000002_Node000003"><a xlink:title=" ">
<path fill="none" stroke="#63b8ff" d="M536.93,-230.96C545.7,-215.19 566.7,-181.56 594.45,-165 618.86,-150.43 686.92,-138.01 740.93,-130.03"/>
<polygon fill="#63b8ff" stroke="#63b8ff" points="741.45,-133.49 750.84,-128.59 740.44,-126.56 741.45,-133.49"/>
</a>
</g>
</g>
<!-- Node2&#45;&gt;Node5 -->
<g id="edge5_Node000002_Node000005" class="edge">
<title>Node2&#45;&gt;Node5</title>
<g id="a_edge5_Node000002_Node000005"><a xlink:title=" ">
<path fill="none" stroke="#63b8ff" d="M530.69,-230.81C526.55,-207.66 518.88,-143.94 551.45,-110 613.03,-45.83 875.49,-22.08 1006.06,-14.11"/>
<polygon fill="#63b8ff" stroke="#63b8ff" points="1006.6,-17.59 1016.37,-13.5 1006.18,-10.6 1006.6,-17.59"/>
</a>
</g>
</g>
<!-- Node2&#45;&gt;Node6 -->
<g id="edge6_Node000002_Node000006" class="edge">
<title>Node2&#45;&gt;Node6</title>
<g id="a_edge6_Node000002_Node000006"><a xlink:title=" ">
<path fill="none" stroke="#63b8ff" d="M543.96,-230.99C556.05,-222.04 575.6,-207.56 592.45,-195 610.26,-181.71 611.86,-173.37 632.45,-165 655.49,-155.63 792.42,-139.74 886.14,-129.7"/>
<polygon fill="#63b8ff" stroke="#63b8ff" points="886.64,-133.17 896.21,-128.63 885.89,-126.21 886.64,-133.17"/>
</a>
</g>
</g>
<!-- Node2&#45;&gt;Node7 -->
<g id="edge9_Node000002_Node000007" class="edge">
<title>Node2&#45;&gt;Node7</title>
<g id="a_edge9_Node000002_Node000007"><a xlink:title=" ">
<path fill="none" stroke="#63b8ff" d="M550.53,-230.94C588.69,-213.03 676.5,-172.65 708.45,-165 929.28,-112.13 994.03,-146.59 1223.72,-129.1"/>
<polygon fill="#63b8ff" stroke="#63b8ff" points="1224.02,-132.59 1233.72,-128.32 1223.47,-125.61 1224.02,-132.59"/>
</a>
</g>
</g>
<!-- Node2&#45;&gt;Node8 -->
<g id="edge11_Node000002_Node000008" class="edge">
<title>Node2&#45;&gt;Node8</title>
<g id="a_edge11_Node000002_Node000008"><a xlink:title=" ">
<path fill="none" stroke="#63b8ff" d="M512.38,-230.99C492.69,-222.65 462.06,-209.66 436.94,-199.02"/>
<polygon fill="#63b8ff" stroke="#63b8ff" points="438.2,-195.74 427.62,-195.06 435.46,-202.19 438.2,-195.74"/>
</a>
</g>
</g>
<!-- Node2&#45;&gt;Node12 -->
<g id="edge19_Node000002_Node000012" class="edge">
<title>Node2&#45;&gt;Node12</title>
<g id="a_edge19_Node000002_Node000012"><a xlink:title=" ">
<path fill="none" stroke="#63b8ff" d="M526.28,-230.63C507.18,-203.17 448.78,-119.18 423.41,-82.71"/>
<polygon fill="#63b8ff" stroke="#63b8ff" points="426.04,-80.36 417.46,-74.14 420.29,-84.35 426.04,-80.36"/>
</a>
</g>
</g>
<!-- Node13 -->
<g id="Node000013" class="node">
<title>Node13</title>
<g id="a_Node000013"><a xlink:title=" ">
<polygon fill="#e0e0e0" stroke="#999999" points="304.45,-189.5 208.45,-189.5 208.45,-170.5 304.45,-170.5 304.45,-189.5"/>
<text text-anchor="middle" x="256.45" y="-177.5" font-family="Helvetica,sans-Serif" font-size="10.00">ecs/Registry.hpp</text>
</a>
</g>
</g>
<!-- Node2&#45;&gt;Node13 -->
<g id="edge20_Node000002_Node000013" class="edge">
<title>Node2&#45;&gt;Node13</title>
<g id="a_edge20_Node000002_Node000013"><a xlink:title=" ">
<path fill="none" stroke="#63b8ff" d="M487.87,-230.99C443.54,-222.4 373.64,-208.5 313.45,-195 309.08,-194.02 304.53,-192.96 299.99,-191.89"/>
<polygon fill="#63b8ff" stroke="#63b8ff" points="300.69,-188.46 290.15,-189.52 299.05,-195.26 300.69,-188.46"/>
</a>
</g>
</g>
<!-- Node2&#45;&gt;Node14 -->
<g id="edge21_Node000002_Node000014" class="edge">
<title>Node2&#45;&gt;Node14</title>
<g id="a_edge21_Node000002_Node000014"><a xlink:title=" ">
<path fill="none" stroke="#63b8ff" d="M484.44,-234.99C419.44,-228.46 300,-214.92 199.45,-195 195.02,-194.12 190.42,-193.09 185.85,-191.99"/>
<polygon fill="#63b8ff" stroke="#63b8ff" points="186.56,-188.56 176.01,-189.51 184.85,-195.35 186.56,-188.56"/>
</a>
</g>
</g>
<!-- Node4 -->
<g id="Node000004" class="node">
<title>Node4</title>
<g id="a_Node000004"><a xlink:title=" ">
<polygon fill="#e0e0e0" stroke="#999999" points="963.45,-74 879.45,-74 879.45,-55 963.45,-55 963.45,-74"/>
<text text-anchor="middle" x="921.45" y="-62" font-family="Helvetica,sans-Serif" font-size="10.00">ecs/Entity.hpp</text>
</a>
</g>
</g>
<!-- Node3&#45;&gt;Node4 -->
<g id="edge3_Node000003_Node000004" class="edge">
<title>Node3&#45;&gt;Node4</title>
<g id="a_edge3_Node000003_Node000004"><a xlink:title=" ">
<path fill="none" stroke="#63b8ff" d="M831.64,-109.98C848.69,-101.54 875.08,-88.47 894.84,-78.68"/>
<polygon fill="#63b8ff" stroke="#63b8ff" points="896.53,-81.75 903.94,-74.17 893.43,-75.47 896.53,-81.75"/>
</a>
</g>
</g>
<!-- Node3&#45;&gt;Node5 -->
<g id="edge4_Node000003_Node000005" class="edge">
<title>Node3&#45;&gt;Node5</title>
<g id="a_edge4_Node000003_Node000005"><a xlink:title=" ">
<path fill="none" stroke="#63b8ff" d="M819.42,-109.95C827.97,-96.06 846.83,-68.78 870.45,-55 911.48,-31.04 963.72,-19.91 1005.84,-14.77"/>
<polygon fill="#63b8ff" stroke="#63b8ff" points="1006.49,-18.22 1016.03,-13.62 1005.7,-11.27 1006.49,-18.22"/>
</a>
</g>
</g>
<!-- Node6&#45;&gt;Node4 -->
<g id="edge8_Node000006_Node000004" class="edge">
<title>Node6&#45;&gt;Node4</title>
<g id="a_edge8_Node000006_Node000004"><a xlink:title=" ">
<path fill="none" stroke="#63b8ff" d="M966.53,-109.75C958.66,-102.03 947.01,-90.6 937.53,-81.28"/>
<polygon fill="#63b8ff" stroke="#63b8ff" points="939.78,-78.6 930.2,-74.09 934.88,-83.59 939.78,-78.6"/>
</a>
</g>
</g>
<!-- Node6&#45;&gt;Node5 -->
<g id="edge7_Node000006_Node000005" class="edge">
<title>Node6&#45;&gt;Node5</title>
<g id="a_edge7_Node000006_Node000005"><a xlink:title=" ">
<path fill="none" stroke="#63b8ff" d="M984.04,-109.66C1001.74,-91.46 1042.48,-49.55 1064.92,-26.47"/>
<polygon fill="#63b8ff" stroke="#63b8ff" points="1067.57,-28.77 1072.03,-19.16 1062.55,-23.89 1067.57,-28.77"/>
</a>
</g>
</g>
<!-- Node7&#45;&gt;Node5 -->
<g id="edge10_Node000007_Node000005" class="edge">
<title>Node7&#45;&gt;Node5</title>
<g id="a_edge10_Node000007_Node000005"><a xlink:title=" ">
<path fill="none" stroke="#63b8ff" d="M1298.45,-109.84C1256.83,-90.88 1157.42,-45.58 1108.55,-23.31"/>
<polygon fill="#63b8ff" stroke="#63b8ff" points="1109.75,-20.01 1099.2,-19.05 1106.85,-26.38 1109.75,-20.01"/>
</a>
</g>
</g>
<!-- Node8&#45;&gt;Node5 -->
<g id="edge18_Node000008_Node000005" class="edge">
<title>Node8&#45;&gt;Node5</title>
<g id="a_edge18_Node000008_Node000005"><a xlink:title=" ">
<path fill="none" stroke="#63b8ff" d="M352.61,-164.93C336.11,-157.09 318.88,-145.5 309.45,-129 301.03,-114.29 292.51,-75 312.45,-55 336.7,-30.66 818.47,-16.69 1006.33,-12.15"/>
<polygon fill="#63b8ff" stroke="#63b8ff" points="1006.49,-15.65 1016.4,-11.91 1006.32,-8.65 1006.49,-15.65"/>
</a>
</g>
</g>
<!-- Node8&#45;&gt;Node9 -->
<g id="edge12_Node000008_Node000009" class="edge">
<title>Node8&#45;&gt;Node9</title>
<g id="a_edge12_Node000008_Node000009"><a xlink:title=" ">
<path fill="none" stroke="#63b8ff" d="M339.12,-164.99C298.12,-154.61 243.1,-140.67 205.63,-131.18"/>
<polygon fill="#63b8ff" stroke="#63b8ff" points="206.1,-127.69 195.55,-128.63 204.38,-134.48 206.1,-127.69"/>
</a>
</g>
</g>
<!-- Node10 -->
<g id="Node000010" class="node">
<title>Node10</title>
<g id="a_Node000010"><a xlink:href="CollisionController_8hpp.html" target="_top" xlink:title=" ">
<polygon fill="white" stroke="#666666" points="732.45,-129 560.45,-129 560.45,-110 732.45,-110 732.45,-129"/>
<text text-anchor="middle" x="646.45" y="-117" font-family="Helvetica,sans-Serif" font-size="10.00">Collision/CollisionController.hpp</text>
</a>
</g>
</g>
<!-- Node8&#45;&gt;Node10 -->
<g id="edge13_Node000008_Node000010" class="edge">
<title>Node8&#45;&gt;Node10</title>
<g id="a_edge13_Node000008_Node000010"><a xlink:title=" ">
<path fill="none" stroke="#63b8ff" d="M454.81,-164.99C499.24,-154.67 558.78,-140.85 599.63,-131.37"/>
<polygon fill="#63b8ff" stroke="#63b8ff" points="600.65,-134.72 609.6,-129.05 599.07,-127.91 600.65,-134.72"/>
</a>
</g>
</g>
<!-- Node11 -->
<g id="Node000011" class="node">
<title>Node11</title>
<g id="a_Node000011"><a xlink:href="Weapon_8hpp.html" target="_top" xlink:title=" ">
<polygon fill="white" stroke="#666666" points="428.45,-129 318.45,-129 318.45,-110 428.45,-110 428.45,-129"/>
<text text-anchor="middle" x="373.45" y="-117" font-family="Helvetica,sans-Serif" font-size="10.00">Player/Weapon.hpp</text>
</a>
</g>
</g>
<!-- Node8&#45;&gt;Node11 -->
<g id="edge15_Node000008_Node000011" class="edge">
<title>Node8&#45;&gt;Node11</title>
<g id="a_edge15_Node000008_Node000011"><a xlink:title=" ">
<path fill="none" stroke="#63b8ff" d="M389.36,-164.84C386.56,-157.04 383.06,-147.27 380.05,-138.89"/>
<polygon fill="#63b8ff" stroke="#63b8ff" points="383.26,-137.5 376.59,-129.27 376.68,-139.86 383.26,-137.5"/>
</a>
</g>
</g>
<!-- Node10&#45;&gt;Node4 -->
<g id="edge14_Node000010_Node000004" class="edge">
<title>Node10&#45;&gt;Node4</title>
<g id="a_edge14_Node000010_Node000004"><a xlink:title=" ">
<path fill="none" stroke="#63b8ff" d="M690.63,-109.98C739.31,-100.6 817.54,-85.53 869.21,-75.57"/>
<polygon fill="#63b8ff" stroke="#63b8ff" points="870.02,-78.98 879.18,-73.65 868.7,-72.1 870.02,-78.98"/>
</a>
</g>
</g>
<!-- Node11&#45;&gt;Node12 -->
<g id="edge16_Node000011_Node000012" class="edge">
<title>Node11&#45;&gt;Node12</title>
<g id="a_edge16_Node000011_Node000012"><a xlink:title=" ">
<path fill="none" stroke="#63b8ff" d="M379.72,-109.75C385.03,-102.34 392.8,-91.5 399.32,-82.41"/>
<polygon fill="#63b8ff" stroke="#63b8ff" points="402.3,-84.26 405.29,-74.09 396.62,-80.18 402.3,-84.26"/>
</a>
</g>
</g>
<!-- Node12&#45;&gt;Node5 -->
<g id="edge17_Node000012_Node000005" class="edge">
<title>Node12&#45;&gt;Node5</title>
<g id="a_edge17_Node000012_Node000005"><a xlink:title=" ">
<path fill="none" stroke="#63b8ff" d="M501.64,-56.33C507.33,-55.88 512.97,-55.43 518.45,-55 693.31,-41.13 898.77,-24.87 1006.29,-16.37"/>
<polygon fill="#63b8ff" stroke="#63b8ff" points="1006.7,-19.84 1016.39,-15.57 1006.14,-12.87 1006.7,-19.84"/>
</a>
</g>
</g>
<!-- Node17&#45;&gt;Node3 -->
<g id="edge42_Node000017_Node000003" class="edge">
<title>Node17&#45;&gt;Node3</title>
<g id="a_edge42_Node000017_Node000003"><a xlink:title=" ">
<path fill="none" stroke="#63b8ff" d="M1115.23,-231.85C1068.32,-225.32 1005.47,-213.89 952.45,-195 908.63,-179.39 861.83,-151.43 835.55,-134.56"/>
<polygon fill="#63b8ff" stroke="#63b8ff" points="837.43,-131.61 827.14,-129.09 833.62,-137.48 837.43,-131.61"/>
</a>
</g>
</g>
<!-- Node17&#45;&gt;Node5 -->
<g id="edge55_Node000017_Node000005" class="edge">
<title>Node17&#45;&gt;Node5</title>
<g id="a_edge55_Node000017_Node000005"><a xlink:title=" ">
<path fill="none" stroke="#63b8ff" d="M1253.71,-238.4C1335.89,-235.66 1466.34,-226.33 1502.45,-195 1531.68,-169.63 1544.5,-141.1 1521.45,-110 1478.4,-51.93 1269,-25.91 1154.92,-15.89"/>
<polygon fill="#63b8ff" stroke="#63b8ff" points="1155.12,-12.39 1144.85,-15.02 1154.52,-19.37 1155.12,-12.39"/>
</a>
</g>
</g>
<!-- Node17&#45;&gt;Node6 -->
<g id="edge31_Node000017_Node000006" class="edge">
<title>Node17&#45;&gt;Node6</title>
<g id="a_edge31_Node000017_Node000006"><a xlink:title=" ">
<path fill="none" stroke="#63b8ff" d="M1115.43,-234.89C1058.22,-229.46 983.32,-218.07 964.45,-195 951.56,-179.24 958.41,-155.1 965.77,-138.59"/>
<polygon fill="#63b8ff" stroke="#63b8ff" points="968.99,-139.97 970.24,-129.45 962.7,-136.9 968.99,-139.97"/>
</a>
</g>
</g>
<!-- Node17&#45;&gt;Node7 -->
<g id="edge32_Node000017_Node000007" class="edge">
<title>Node17&#45;&gt;Node7</title>
<g id="a_edge32_Node000017_Node000007"><a xlink:title=" ">
<path fill="none" stroke="#63b8ff" d="M1115.17,-232.74C1052.85,-223.98 975.98,-204.82 1010.45,-165 1017.71,-156.61 1142.99,-140.56 1231.24,-130.21"/>
<polygon fill="#63b8ff" stroke="#63b8ff" points="1231.74,-133.67 1241.26,-129.04 1230.93,-126.72 1231.74,-133.67"/>
</a>
</g>
</g>
<!-- Node17&#45;&gt;Node8 -->
<g id="edge37_Node000017_Node000008" class="edge">
<title>Node17&#45;&gt;Node8</title>
<g id="a_edge37_Node000017_Node000008"><a xlink:title=" ">
<path fill="none" stroke="#63b8ff" d="M1115.38,-234.39C969.97,-223.62 632.87,-198.66 476.65,-187.09"/>
<polygon fill="#63b8ff" stroke="#63b8ff" points="476.86,-183.59 466.63,-186.35 476.34,-190.57 476.86,-183.59"/>
</a>
</g>
</g>
<!-- Node17&#45;&gt;Node12 -->
<g id="edge38_Node000017_Node000012" class="edge">
<title>Node17&#45;&gt;Node12</title>
<g id="a_edge38_Node000017_Node000012"><a xlink:title=" ">
<path fill="none" stroke="#63b8ff" d="M1115.28,-234.7C1053.91,-229.16 962.33,-217.71 885.45,-195 854.54,-185.87 850.41,-173.91 819.45,-165 703.95,-131.78 666.96,-162.18 551.45,-129 508.76,-116.74 462.43,-93.59 435.21,-78.89"/>
<polygon fill="#63b8ff" stroke="#63b8ff" points="436.87,-75.81 426.42,-74.07 433.51,-81.95 436.87,-75.81"/>
</a>
</g>
</g>
<!-- Node17&#45;&gt;Node13 -->
<g id="edge53_Node000017_Node000013" class="edge">
<title>Node17&#45;&gt;Node13</title>
<g id="a_edge53_Node000017_Node000013"><a xlink:title=" ">
<path fill="none" stroke="#63b8ff" d="M1115.4,-237.67C937.71,-232.67 467.74,-217.68 313.45,-195 307.96,-194.19 302.24,-193.1 296.62,-191.87"/>
<polygon fill="#63b8ff" stroke="#63b8ff" points="297.24,-188.42 286.7,-189.56 295.65,-195.24 297.24,-188.42"/>
</a>
</g>
</g>
<!-- Node17&#45;&gt;Node15 -->
<g id="edge26_Node000017_Node000015" class="edge">
<title>Node17&#45;&gt;Node15</title>
<g id="a_edge26_Node000017_Node000015"><a xlink:title=" ">
<path fill="none" stroke="#63b8ff" d="M1115.13,-234.76C1042.16,-228.88 924.26,-216.85 824.45,-195 821.05,-194.26 817.55,-193.37 814.07,-192.4"/>
<polygon fill="#63b8ff" stroke="#63b8ff" points="815.02,-189.03 804.43,-189.52 813.01,-195.73 815.02,-189.03"/>
</a>
</g>
</g>
<!-- Node18 -->
<g id="Node000018" class="node">
<title>Node18</title>
<g id="a_Node000018"><a xlink:title=" ">
<polygon fill="#e0e0e0" stroke="#999999" points="1493.45,-189.5 1449.45,-189.5 1449.45,-170.5 1493.45,-170.5 1493.45,-189.5"/>
<text text-anchor="middle" x="1471.45" y="-177.5" font-family="Helvetica,sans-Serif" font-size="10.00">string</text>
</a>
</g>
</g>
<!-- Node17&#45;&gt;Node18 -->
<g id="edge27_Node000017_Node000018" class="edge">
<title>Node17&#45;&gt;Node18</title>
<g id="a_edge27_Node000017_Node000018"><a xlink:title=" ">
<path fill="none" stroke="#63b8ff" d="M1253.46,-232.29C1305.62,-225.7 1378.57,-214.02 1440.45,-195 1441.89,-194.56 1443.36,-194.06 1444.83,-193.53"/>
<polygon fill="#63b8ff" stroke="#63b8ff" points="1446.43,-196.66 1454.36,-189.64 1443.78,-190.17 1446.43,-196.66"/>
</a>
</g>
</g>
<!-- Node19 -->
<g id="Node000019" class="node">
<title>Node19</title>
<g id="a_Node000019"><a xlink:title=" ">
<polygon fill="#e0e0e0" stroke="#999999" points="1710.95,-129 1665.95,-129 1665.95,-110 1710.95,-110 1710.95,-129"/>
<text text-anchor="middle" x="1688.45" y="-117" font-family="Helvetica,sans-Serif" font-size="10.00">utility</text>
</a>
</g>
</g>
<!-- Node17&#45;&gt;Node19 -->
<g id="edge28_Node000017_Node000019" class="edge">
<title>Node17&#45;&gt;Node19</title>
<g id="a_edge28_Node000017_Node000019"><a xlink:title=" ">
<path fill="none" stroke="#63b8ff" d="M1253.69,-234.67C1340.93,-227.9 1485.5,-214.23 1535.45,-195 1557.19,-186.62 1557.96,-176.11 1578.45,-165 1603.57,-151.38 1633.78,-139.45 1656.17,-131.38"/>
<polygon fill="#63b8ff" stroke="#63b8ff" points="1657.6,-134.59 1665.87,-127.95 1655.27,-127.99 1657.6,-134.59"/>
</a>
</g>
</g>
<!-- Node20 -->
<g id="Node000020" class="node">
<title>Node20</title>
<g id="a_Node000020"><a xlink:title=" ">
<polygon fill="#e0e0e0" stroke="#999999" points="1878.95,-129 1831.95,-129 1831.95,-110 1878.95,-110 1878.95,-129"/>
<text text-anchor="middle" x="1855.45" y="-117" font-family="Helvetica,sans-Serif" font-size="10.00">vector</text>
</a>
</g>
</g>
<!-- Node17&#45;&gt;Node20 -->
<g id="edge29_Node000017_Node000020" class="edge">
<title>Node17&#45;&gt;Node20</title>
<g id="a_edge29_Node000017_Node000020"><a xlink:title=" ">
<path fill="none" stroke="#63b8ff" d="M1253.72,-240.18C1418.18,-241.08 1821.47,-238.75 1862.45,-195 1876.42,-180.08 1870.57,-155.36 1863.99,-138.52"/>
<polygon fill="#63b8ff" stroke="#63b8ff" points="1867.15,-137 1859.97,-129.21 1860.72,-139.78 1867.15,-137"/>
</a>
</g>
</g>
<!-- Node21 -->
<g id="Node000021" class="node">
<title>Node21</title>
<g id="a_Node000021"><a xlink:href="Items_8hpp.html" target="_top" xlink:title=" ">
<polygon fill="white" stroke="#666666" points="1697.45,-189.5 1587.45,-189.5 1587.45,-170.5 1697.45,-170.5 1697.45,-189.5"/>
<text text-anchor="middle" x="1642.45" y="-177.5" font-family="Helvetica,sans-Serif" font-size="10.00">Collision/Items.hpp</text>
</a>
</g>
</g>
<!-- Node17&#45;&gt;Node21 -->
<g id="edge30_Node000017_Node000021" class="edge">
<title>Node17&#45;&gt;Node21</title>
<g id="a_edge30_Node000017_Node000021"><a xlink:title=" ">
<path fill="none" stroke="#63b8ff" d="M1253.55,-233.41C1331.52,-226.12 1462,-212.65 1573.45,-195 1579.86,-193.98 1586.59,-192.79 1593.22,-191.53"/>
<polygon fill="#63b8ff" stroke="#63b8ff" points="1594.37,-194.87 1603.51,-189.51 1593.02,-188 1594.37,-194.87"/>
</a>
</g>
</g>
<!-- Node22 -->
<g id="Node000022" class="node">
<title>Node22</title>
<g id="a_Node000022"><a xlink:href="EnemySpawn_8hpp.html" target="_top" xlink:title=" ">
<polygon fill="white" stroke="#666666" points="1852.95,-189.5 1715.95,-189.5 1715.95,-170.5 1852.95,-170.5 1852.95,-189.5"/>
<text text-anchor="middle" x="1784.45" y="-177.5" font-family="Helvetica,sans-Serif" font-size="10.00">Player/EnemySpawn.hpp</text>
</a>
</g>
</g>
<!-- Node17&#45;&gt;Node22 -->
<g id="edge33_Node000017_Node000022" class="edge">
<title>Node17&#45;&gt;Node22</title>
<g id="a_edge33_Node000017_Node000022"><a xlink:title=" ">
<path fill="none" stroke="#63b8ff" d="M1253.49,-235.66C1353.61,-229.62 1544.81,-216.35 1706.45,-195 1714.4,-193.95 1722.77,-192.65 1730.96,-191.27"/>
<polygon fill="#63b8ff" stroke="#63b8ff" points="1731.57,-194.72 1740.83,-189.56 1730.38,-187.82 1731.57,-194.72"/>
</a>
</g>
</g>
<!-- Node23 -->
<g id="Node000023" class="node">
<title>Node23</title>
<g id="a_Node000023"><a xlink:href="BossPart_8hpp.html" target="_top" xlink:title=" ">
<polygon fill="white" stroke="#666666" points="1215.95,-129 1072.95,-129 1072.95,-110 1215.95,-110 1215.95,-129"/>
<text text-anchor="middle" x="1144.45" y="-117" font-family="Helvetica,sans-Serif" font-size="10.00">components/BossPart.hpp</text>
</a>
</g>
</g>
<!-- Node17&#45;&gt;Node23 -->
<g id="edge39_Node000017_Node000023" class="edge">
<title>Node17&#45;&gt;Node23</title>
<g id="a_edge39_Node000017_Node000023"><a xlink:title=" ">
<path fill="none" stroke="#63b8ff" d="M1115.41,-233.95C1061.82,-228.03 993.8,-216.46 976.45,-195 947.02,-158.61 1006.48,-139.46 1062.62,-129.74"/>
<polygon fill="#63b8ff" stroke="#63b8ff" points="1063.37,-133.17 1072.67,-128.09 1062.24,-126.26 1063.37,-133.17"/>
</a>
</g>
</g>
<!-- Node24 -->
<g id="Node000024" class="node">
<title>Node24</title>
<g id="a_Node000024"><a xlink:href="Levels_8hpp.html" target="_top" xlink:title=" ">
<polygon fill="white" stroke="#666666" points="1431.45,-189.5 1299.45,-189.5 1299.45,-170.5 1431.45,-170.5 1431.45,-189.5"/>
<text text-anchor="middle" x="1365.45" y="-177.5" font-family="Helvetica,sans-Serif" font-size="10.00">components/Levels.hpp</text>
</a>
</g>
</g>
<!-- Node17&#45;&gt;Node24 -->
<g id="edge43_Node000017_Node000024" class="edge">
<title>Node17&#45;&gt;Node24</title>
<g id="a_edge43_Node000017_Node000024"><a xlink:title=" ">
<path fill="none" stroke="#63b8ff" d="M1210.76,-230.99C1242,-220.9 1294.24,-204.01 1329.26,-192.69"/>
<polygon fill="#63b8ff" stroke="#63b8ff" points="1330.66,-195.92 1339.09,-189.52 1328.5,-189.26 1330.66,-195.92"/>
</a>
</g>
</g>
<!-- Node26 -->
<g id="Node000026" class="node">
<title>Node26</title>
<g id="a_Node000026"><a xlink:href="TileMap_8hpp.html" target="_top" xlink:title=" ">
<polygon fill="white" stroke="#666666" points="2049.45,-189.5 1909.45,-189.5 1909.45,-170.5 2049.45,-170.5 2049.45,-189.5"/>
<text text-anchor="middle" x="1979.45" y="-177.5" font-family="Helvetica,sans-Serif" font-size="10.00">components/TileMap.hpp</text>
</a>
</g>
</g>
<!-- Node17&#45;&gt;Node26 -->
<g id="edge49_Node000017_Node000026" class="edge">
<title>Node17&#45;&gt;Node26</title>
<g id="a_edge49_Node000017_Node000026"><a xlink:title=" ">
<path fill="none" stroke="#63b8ff" d="M1253.54,-237.53C1380.85,-233.38 1660.9,-221.81 1895.45,-195 1904.51,-193.96 1914.08,-192.61 1923.39,-191.16"/>
<polygon fill="#63b8ff" stroke="#63b8ff" points="1924.04,-194.6 1933.35,-189.56 1922.92,-187.69 1924.04,-194.6"/>
</a>
</g>
</g>
<!-- Node28 -->
<g id="Node000028" class="node">
<title>Node28</title>
<g id="a_Node000028"><a xlink:title=" ">
<polygon fill="#e0e0e0" stroke="#999999" points="2211.45,-189.5 2067.45,-189.5 2067.45,-170.5 2211.45,-170.5 2211.45,-189.5"/>
<text text-anchor="middle" x="2139.45" y="-177.5" font-family="Helvetica,sans-Serif" font-size="10.00">input/InputSubsystem.hpp</text>
</a>
</g>
</g>
<!-- Node17&#45;&gt;Node28 -->
<g id="edge54_Node000017_Node000028" class="edge">
<title>Node17&#45;&gt;Node28</title>
<g id="a_edge54_Node000017_Node000028"><a xlink:title=" ">
<path fill="none" stroke="#63b8ff" d="M1253.51,-238.8C1401.5,-236.69 1760.04,-228.26 2058.45,-195 2067.31,-194.01 2076.67,-192.67 2085.76,-191.21"/>
<polygon fill="#63b8ff" stroke="#63b8ff" points="2086.58,-194.62 2095.86,-189.52 2085.42,-187.72 2086.58,-194.62"/>
</a>
</g>
</g>
<!-- Node29 -->
<g id="Node000029" class="node">
<title>Node29</title>
<g id="a_Node000029"><a xlink:title=" ">
<polygon fill="#e0e0e0" stroke="#999999" points="1209.95,-189.5 1018.95,-189.5 1018.95,-170.5 1209.95,-170.5 1209.95,-189.5"/>
<text text-anchor="middle" x="1114.45" y="-177.5" font-family="Helvetica,sans-Serif" font-size="10.00">rendering/RenderingSubsystem.hpp</text>
</a>
</g>
</g>
<!-- Node17&#45;&gt;Node29 -->
<g id="edge56_Node000017_Node000029" class="edge">
<title>Node17&#45;&gt;Node29</title>
<g id="a_edge56_Node000017_Node000029"><a xlink:title=" ">
<path fill="none" stroke="#63b8ff" d="M1174.12,-230.87C1163.26,-221.8 1145.96,-207.34 1132.78,-196.32"/>
<polygon fill="#63b8ff" stroke="#63b8ff" points="1134.73,-193.39 1124.82,-189.67 1130.25,-198.77 1134.73,-193.39"/>
</a>
</g>
</g>
<!-- Node30 -->
<g id="Node000030" class="node">
<title>Node30</title>
<g id="a_Node000030"><a xlink:title=" ">
<polygon fill="#e0e0e0" stroke="#999999" points="1280.95,-189.5 1227.95,-189.5 1227.95,-170.5 1280.95,-170.5 1280.95,-189.5"/>
<text text-anchor="middle" x="1254.45" y="-177.5" font-family="Helvetica,sans-Serif" font-size="10.00">stdlib.h</text>
</a>
</g>
</g>
<!-- Node17&#45;&gt;Node30 -->
<g id="edge57_Node000017_Node000030" class="edge">
<title>Node17&#45;&gt;Node30</title>
<g id="a_edge57_Node000017_Node000030"><a xlink:title=" ">
<path fill="none" stroke="#63b8ff" d="M1194.77,-230.87C1205.63,-221.8 1222.93,-207.34 1236.11,-196.32"/>
<polygon fill="#63b8ff" stroke="#63b8ff" points="1238.65,-198.77 1244.07,-189.67 1234.16,-193.39 1238.65,-198.77"/>
</a>
</g>
</g>
<!-- Node22&#45;&gt;Node7 -->
<g id="edge36_Node000022_Node000007" class="edge">
<title>Node22&#45;&gt;Node7</title>
<g id="a_edge36_Node000022_Node000007"><a xlink:title=" ">
<path fill="none" stroke="#63b8ff" d="M1739.57,-170.44C1728.74,-168.52 1717.2,-166.58 1706.45,-165 1606.04,-150.26 1490.44,-137.58 1411.52,-129.57"/>
<polygon fill="#63b8ff" stroke="#63b8ff" points="1411.42,-126.04 1401.12,-128.52 1410.71,-133 1411.42,-126.04"/>
</a>
</g>
</g>
<!-- Node22&#45;&gt;Node19 -->
<g id="edge34_Node000022_Node000019" class="edge">
<title>Node22&#45;&gt;Node19</title>
<g id="a_edge34_Node000022_Node000019"><a xlink:title=" ">
<path fill="none" stroke="#63b8ff" d="M1770.28,-170.37C1754.75,-160.91 1729.62,-145.59 1711.29,-134.42"/>
<polygon fill="#63b8ff" stroke="#63b8ff" points="1713.03,-131.38 1702.67,-129.17 1709.39,-137.36 1713.03,-131.38"/>
</a>
</g>
</g>
<!-- Node22&#45;&gt;Node20 -->
<g id="edge35_Node000022_Node000020" class="edge">
<title>Node22&#45;&gt;Node20</title>
<g id="a_edge35_Node000022_Node000020"><a xlink:title=" ">
<path fill="none" stroke="#63b8ff" d="M1794.92,-170.37C1805.93,-161.3 1823.48,-146.84 1836.85,-135.82"/>
<polygon fill="#63b8ff" stroke="#63b8ff" points="1839.43,-138.23 1844.93,-129.17 1834.98,-132.83 1839.43,-138.23"/>
</a>
</g>
</g>
<!-- Node23&#45;&gt;Node4 -->
<g id="edge41_Node000023_Node000004" class="edge">
<title>Node23&#45;&gt;Node4</title>
<g id="a_edge41_Node000023_Node000004"><a xlink:title=" ">
<path fill="none" stroke="#63b8ff" d="M1108.62,-109.98C1070.29,-100.87 1009.36,-86.4 967.5,-76.45"/>
<polygon fill="#63b8ff" stroke="#63b8ff" points="968.09,-72.99 957.55,-74.08 966.47,-79.8 968.09,-72.99"/>
</a>
</g>
</g>
<!-- Node23&#45;&gt;Node5 -->
<g id="edge40_Node000023_Node000005" class="edge">
<title>Node23&#45;&gt;Node5</title>
<g id="a_edge40_Node000023_Node000005"><a xlink:title=" ">
<path fill="none" stroke="#63b8ff" d="M1139.21,-109.66C1128.65,-91.85 1104.66,-51.37 1090.82,-28.01"/>
<polygon fill="#63b8ff" stroke="#63b8ff" points="1093.69,-25.98 1085.58,-19.16 1087.66,-29.55 1093.69,-25.98"/>
</a>
</g>
</g>
<!-- Node24&#45;&gt;Node5 -->
<g id="edge48_Node000024_Node000005" class="edge">
<title>Node24&#45;&gt;Node5</title>
<g id="a_edge48_Node000024_Node000005"><a xlink:title=" ">
<path fill="none" stroke="#63b8ff" d="M1378.14,-170.49C1396.35,-157.24 1426.05,-131.01 1410.45,-110 1378.74,-67.32 1232.02,-35.95 1145.26,-20.75"/>
<polygon fill="#63b8ff" stroke="#63b8ff" points="1145.69,-17.27 1135.24,-19.02 1144.5,-24.17 1145.69,-17.27"/>
</a>
</g>
</g>
<!-- Node24&#45;&gt;Node6 -->
<g id="edge46_Node000024_Node000006" class="edge">
<title>Node24&#45;&gt;Node6</title>
<g id="a_edge46_Node000024_Node000006"><a xlink:title=" ">
<path fill="none" stroke="#63b8ff" d="M1321.48,-170.46C1311.31,-168.57 1300.51,-166.65 1290.45,-165 1209.22,-151.69 1115.81,-138.79 1051.94,-130.34"/>
<polygon fill="#63b8ff" stroke="#63b8ff" points="1052.32,-126.86 1041.94,-129.03 1051.4,-133.8 1052.32,-126.86"/>
</a>
</g>
</g>
<!-- Node24&#45;&gt;Node7 -->
<g id="edge47_Node000024_Node000007" class="edge">
<title>Node24&#45;&gt;Node7</title>
<g id="a_edge47_Node000024_Node000007"><a xlink:title=" ">
<path fill="none" stroke="#63b8ff" d="M1358.36,-170.37C1351.2,-161.64 1339.95,-147.93 1331.06,-137.09"/>
<polygon fill="#63b8ff" stroke="#63b8ff" points="1333.61,-134.68 1324.56,-129.17 1328.19,-139.12 1333.61,-134.68"/>
</a>
</g>
</g>
<!-- Node24&#45;&gt;Node20 -->
<g id="edge45_Node000024_Node000020" class="edge">
<title>Node24&#45;&gt;Node20</title>
<g id="a_edge45_Node000024_Node000020"><a xlink:title=" ">
<path fill="none" stroke="#63b8ff" d="M1408.18,-170.43C1418.71,-168.48 1429.96,-166.54 1440.45,-165 1581.26,-144.34 1750.3,-129.19 1821.35,-123.25"/>
<polygon fill="#63b8ff" stroke="#63b8ff" points="1821.83,-126.72 1831.5,-122.41 1821.25,-119.75 1821.83,-126.72"/>
</a>
</g>
</g>
<!-- Node25 -->
<g id="Node000025" class="node">
<title>Node25</title>
<g id="a_Node000025"><a xlink:title=" ">
<polygon fill="#e0e0e0" stroke="#999999" points="1512.45,-129 1456.45,-129 1456.45,-110 1512.45,-110 1512.45,-129"/>
<text text-anchor="middle" x="1484.45" y="-117" font-family="Helvetica,sans-Serif" font-size="10.00">optional</text>
</a>
</g>
</g>
<!-- Node24&#45;&gt;Node25 -->
<g id="edge44_Node000024_Node000025" class="edge">
<title>Node24&#45;&gt;Node25</title>
<g id="a_edge44_Node000024_Node000025"><a xlink:title=" ">
<path fill="none" stroke="#63b8ff" d="M1382.75,-170.49C1402.49,-160.79 1435,-144.81 1457.94,-133.53"/>
<polygon fill="#63b8ff" stroke="#63b8ff" points="1459.69,-136.57 1467.12,-129.02 1456.6,-130.29 1459.69,-136.57"/>
</a>
</g>
</g>
<!-- Node26&#45;&gt;Node5 -->
<g id="edge52_Node000026_Node000005" class="edge">
<title>Node26&#45;&gt;Node5</title>
<g id="a_edge52_Node000026_Node000005"><a xlink:title=" ">
<path fill="none" stroke="#63b8ff" d="M1970.84,-170.1C1955.71,-155.03 1922.69,-124.72 1888.45,-110 1757.07,-53.53 1328.58,-24.17 1154.74,-14.34"/>
<polygon fill="#63b8ff" stroke="#63b8ff" points="1154.84,-10.84 1144.66,-13.77 1154.44,-17.83 1154.84,-10.84"/>
</a>
</g>
</g>
<!-- Node26&#45;&gt;Node20 -->
<g id="edge51_Node000026_Node000020" class="edge">
<title>Node26&#45;&gt;Node20</title>
<g id="a_edge51_Node000026_Node000020"><a xlink:title=" ">
<path fill="none" stroke="#63b8ff" d="M1961.41,-170.49C1940.75,-160.75 1906.67,-144.66 1882.74,-133.38"/>
<polygon fill="#63b8ff" stroke="#63b8ff" points="1884.04,-130.12 1873.5,-129.02 1881.05,-136.45 1884.04,-130.12"/>
</a>
</g>
</g>
<!-- Node27 -->
<g id="Node000027" class="node">
<title>Node27</title>
<g id="a_Node000027"><a xlink:title=" ">
<polygon fill="#e0e0e0" stroke="#999999" points="2004.45,-129 1954.45,-129 1954.45,-110 2004.45,-110 2004.45,-129"/>
<text text-anchor="middle" x="1979.45" y="-117" font-family="Helvetica,sans-Serif" font-size="10.00">cstdint</text>
</a>
</g>
</g>
<!-- Node26&#45;&gt;Node27 -->
<g id="edge50_Node000026_Node000027" class="edge">
<title>Node26&#45;&gt;Node27</title>
<g id="a_edge50_Node000026_Node000027"><a xlink:title=" ">
<path fill="none" stroke="#63b8ff" d="M1979.45,-170.37C1979.45,-162.25 1979.45,-149.81 1979.45,-139.39"/>
<polygon fill="#63b8ff" stroke="#63b8ff" points="1982.95,-139.17 1979.45,-129.17 1975.95,-139.17 1982.95,-139.17"/>
</a>
</g>
</g>
<!-- Node31&#45;&gt;Node5 -->
<g id="edge65_Node000031_Node000005" class="edge">
<title>Node31&#45;&gt;Node5</title>
<g id="a_edge65_Node000031_Node000005"><a xlink:title=" ">
<path fill="none" stroke="#63b8ff" d="M90.68,-230.96C77.43,-223.51 60.33,-211.33 52.45,-195 34.97,-158.79 51.53,-134.46 83.45,-110 161.73,-50 200.97,-70.09 298.45,-55 556.22,-15.08 866.76,-10 1006.25,-9.96"/>
<polygon fill="#63b8ff" stroke="#63b8ff" points="1006.4,-13.46 1016.4,-9.97 1006.4,-6.46 1006.4,-13.46"/>
</a>
</g>
</g>
<!-- Node31&#45;&gt;Node12 -->
<g id="edge66_Node000031_Node000012" class="edge">
<title>Node31&#45;&gt;Node12</title>
<g id="a_edge66_Node000031_Node000012"><a xlink:title=" ">
<path fill="none" stroke="#63b8ff" d="M94.08,-230.96C82.57,-223.21 67.26,-210.62 60.45,-195 55.11,-182.78 54.98,-177.16 60.45,-165 75.55,-131.4 89.11,-125.66 122.45,-110 181.29,-82.36 253.58,-71.23 311.14,-67.02"/>
<polygon fill="#63b8ff" stroke="#63b8ff" points="311.6,-70.5 321.34,-66.33 311.13,-63.51 311.6,-70.5"/>
</a>
</g>
</g>
<!-- Node31&#45;&gt;Node13 -->
<g id="edge67_Node000031_Node000013" class="edge">
<title>Node31&#45;&gt;Node13</title>
<g id="a_edge67_Node000031_Node000013"><a xlink:title=" ">
<path fill="none" stroke="#63b8ff" d="M129.97,-230.99C155.07,-221.07 196.76,-204.59 225.37,-193.28"/>
<polygon fill="#63b8ff" stroke="#63b8ff" points="226.89,-196.45 234.9,-189.52 224.31,-189.94 226.89,-196.45"/>
</a>
</g>
</g>
</g>
</svg>
