<?xml version="1.0" encoding="UTF-8" standalone="no"?>
<!DOCTYPE svg PUBLIC "-//W3C//DTD SVG 1.1//EN"
 "http://www.w3.org/Graphics/SVG/1.1/DTD/svg11.dtd">
<!-- Generated by graphviz version 2.43.0 (0)
 -->
<!-- Title: /home/runner/work/R&#45;Type/R&#45;Type/Shared/systems/Movement/Movement.hpp Pages: 1 -->
<svg width="1084pt" height="280pt"
 viewBox="0.00 0.00 1084.00 280.00" xmlns="http://www.w3.org/2000/svg" xmlns:xlink="http://www.w3.org/1999/xlink">
<g id="graph0" class="graph" transform="scale(1 1) rotate(0) translate(4 276)">
<title>/home/runner/work/R&#45;Type/R&#45;Type/Shared/systems/Movement/Movement.hpp</title>
<!-- Node1 -->
<g id="Node000001" class="node">
<title>Node1</title>
<g id="a_Node000001"><a xlink:title=" ">
<polygon fill="#999999" stroke="#666666" points="885.5,-272 692.5,-272 692.5,-231 885.5,-231 885.5,-272"/>
<text text-anchor="start" x="700.5" y="-260" font-family="Helvetica,sans-Serif" font-size="10.00">/home/runner/work/R</text>
<text text-anchor="start" x="700.5" y="-249" font-family="Helvetica,sans-Serif" font-size="10.00">&#45;Type/R&#45;Type/Shared</text>
<text text-anchor="middle" x="789" y="-238" font-family="Helvetica,sans-Serif" font-size="10.00">/systems/Movement/Movement.hpp</text>
</a>
</g>
</g>
<!-- Node2 -->
<g id="Node000002" class="node">
<title>Node2</title>
<g id="a_Node000002"><a xlink:href="Force_8hpp.html" target="_top" xlink:title=" ">
<polygon fill="white" stroke="#666666" points="303.5,-129 176.5,-129 176.5,-110 303.5,-110 303.5,-129"/>
<text text-anchor="middle" x="240" y="-117" font-family="Helvetica,sans-Serif" font-size="10.00">components/Force.hpp</text>
</a>
</g>
</g>
<!-- Node1&#45;&gt;Node2 -->
<g id="edge1_Node000001_Node000002" class="edge">
<title>Node1&#45;&gt;Node2</title>
<g id="a_edge1_Node000001_Node000002"><a xlink:title=" ">
<path fill="none" stroke="#63b8ff" d="M692.22,-234.04C636.12,-223.95 564.27,-210.1 501,-195 420.17,-175.71 326.85,-147.65 276.6,-132.05"/>
<polygon fill="#63b8ff" stroke="#63b8ff" points="277.44,-128.64 266.85,-129.01 275.35,-135.32 277.44,-128.64"/>
</a>
</g>
</g>
<!-- Node4 -->
<g id="Node000004" class="node">
<title>Node4</title>
<g id="a_Node000004"><a xlink:title=" ">
<polygon fill="#e0e0e0" stroke="#999999" points="668,-19 540,-19 540,0 668,0 668,-19"/>
<text text-anchor="middle" x="604" y="-7" font-family="Helvetica,sans-Serif" font-size="10.00">physics/Physics2D.hpp</text>
</a>
</g>
</g>
<!-- Node1&#45;&gt;Node4 -->
<g id="edge4_Node000001_Node000004" class="edge">
<title>Node1&#45;&gt;Node4</title>
<g id="a_edge4_Node000001_Node000004"><a xlink:title=" ">
<path fill="none" stroke="#63b8ff" d="M795.9,-230.84C808.1,-192.17 828.4,-105.61 786,-55 771.95,-38.23 722.41,-26.79 678.56,-19.72"/>
<polygon fill="#63b8ff" stroke="#63b8ff" points="678.86,-16.22 668.44,-18.15 677.78,-23.14 678.86,-16.22"/>
</a>
</g>
</g>
<!-- Node5 -->
<g id="Node000005" class="node">
<title>Node5</title>
<g id="a_Node000005"><a xlink:href="Boss_8hpp.html" target="_top" xlink:title=" ">
<polygon fill="white" stroke="#666666" points="158,-129 0,-129 0,-110 158,-110 158,-129"/>
<text text-anchor="middle" x="79" y="-117" font-family="Helvetica,sans-Serif" font-size="10.00">components/Player/Boss.hpp</text>
</a>
</g>
</g>
<!-- Node1&#45;&gt;Node5 -->
<g id="edge5_Node000001_Node000005" class="edge">
<title>Node1&#45;&gt;Node5</title>
<g id="a_edge5_Node000001_Node000005"><a xlink:title=" ">
<path fill="none" stroke="#63b8ff" d="M692.14,-239.82C610.65,-230.19 491.24,-214.54 388,-195 291.07,-176.65 178.84,-147.6 119.94,-131.74"/>
<polygon fill="#63b8ff" stroke="#63b8ff" points="120.49,-128.26 109.92,-129.03 118.66,-135.02 120.49,-128.26"/>
</a>
</g>
</g>
<!-- Node6 -->
<g id="Node000006" class="node">
<title>Node6</title>
<g id="a_Node000006"><a xlink:href="Enemy_8hpp.html" target="_top" xlink:title=" ">
<polygon fill="white" stroke="#666666" points="1002.5,-74 835.5,-74 835.5,-55 1002.5,-55 1002.5,-74"/>
<text text-anchor="middle" x="919" y="-62" font-family="Helvetica,sans-Serif" font-size="10.00">components/Player/Enemy.hpp</text>
</a>
</g>
</g>
<!-- Node1&#45;&gt;Node6 -->
<g id="edge8_Node000001_Node000006" class="edge">
<title>Node1&#45;&gt;Node6</title>
<g id="a_edge8_Node000001_Node000006"><a xlink:title=" ">
<path fill="none" stroke="#63b8ff" d="M802.91,-230.7C828.54,-194.24 882.78,-117.04 906.95,-82.65"/>
<polygon fill="#63b8ff" stroke="#63b8ff" points="910.03,-84.35 912.92,-74.16 904.3,-80.33 910.03,-84.35"/>
</a>
</g>
</g>
<!-- Node7 -->
<g id="Node000007" class="node">
<title>Node7</title>
<g id="a_Node000007"><a xlink:href="PlayerEntity_8hpp.html" target="_top" xlink:title=" ">
<polygon fill="white" stroke="#666666" points="654,-195 510,-195 510,-165 654,-165 654,-195"/>
<text text-anchor="start" x="518" y="-183" font-family="Helvetica,sans-Serif" font-size="10.00">components/Player/Player</text>
<text text-anchor="middle" x="582" y="-172" font-family="Helvetica,sans-Serif" font-size="10.00">Entity.hpp</text>
</a>
</g>
</g>
<!-- Node1&#45;&gt;Node7 -->
<g id="edge10_Node000001_Node000007" class="edge">
<title>Node1&#45;&gt;Node7</title>
<g id="a_edge10_Node000001_Node000007"><a xlink:title=" ">
<path fill="none" stroke="#63b8ff" d="M730.79,-230.96C700.17,-220.68 662.96,-208.18 633.42,-198.26"/>
<polygon fill="#63b8ff" stroke="#63b8ff" points="634.3,-194.87 623.71,-195 632.08,-201.5 634.3,-194.87"/>
</a>
</g>
</g>
<!-- Node11 -->
<g id="Node000011" class="node">
<title>Node11</title>
<g id="a_Node000011"><a xlink:href="Projectile_8hpp.html" target="_top" xlink:title=" ">
<polygon fill="white" stroke="#666666" points="777,-74 597,-74 597,-55 777,-55 777,-74"/>
<text text-anchor="middle" x="687" y="-62" font-family="Helvetica,sans-Serif" font-size="10.00">components/Player/Projectile.hpp</text>
</a>
</g>
</g>
<!-- Node1&#45;&gt;Node11 -->
<g id="edge18_Node000001_Node000011" class="edge">
<title>Node1&#45;&gt;Node11</title>
<g id="a_edge18_Node000001_Node000011"><a xlink:title=" ">
<path fill="none" stroke="#63b8ff" d="M787.87,-230.54C785.34,-201.54 777.19,-147.18 751,-110 741.84,-97 727.61,-86.56 714.89,-79.07"/>
<polygon fill="#63b8ff" stroke="#63b8ff" points="716.44,-75.92 705.99,-74.14 713.04,-82.05 716.44,-75.92"/>
</a>
</g>
</g>
<!-- Node12 -->
<g id="Node000012" class="node">
<title>Node12</title>
<g id="a_Node000012"><a xlink:title=" ">
<polygon fill="#e0e0e0" stroke="#999999" points="970,-189.5 874,-189.5 874,-170.5 970,-170.5 970,-189.5"/>
<text text-anchor="middle" x="922" y="-177.5" font-family="Helvetica,sans-Serif" font-size="10.00">ecs/Registry.hpp</text>
</a>
</g>
</g>
<!-- Node1&#45;&gt;Node12 -->
<g id="edge19_Node000001_Node000012" class="edge">
<title>Node1&#45;&gt;Node12</title>
<g id="a_edge19_Node000001_Node000012"><a xlink:title=" ">
<path fill="none" stroke="#63b8ff" d="M826.4,-230.96C848.85,-219.22 876.81,-204.61 896.68,-194.23"/>
<polygon fill="#63b8ff" stroke="#63b8ff" points="898.49,-197.24 905.73,-189.5 895.24,-191.03 898.49,-197.24"/>
</a>
</g>
</g>
<!-- Node13 -->
<g id="Node000013" class="node">
<title>Node13</title>
<g id="a_Node000013"><a xlink:title=" ">
<polygon fill="#e0e0e0" stroke="#999999" points="1076,-189.5 988,-189.5 988,-170.5 1076,-170.5 1076,-189.5"/>
<text text-anchor="middle" x="1032" y="-177.5" font-family="Helvetica,sans-Serif" font-size="10.00">ecs/Zipper.hpp</text>
</a>
</g>
</g>
<!-- Node1&#45;&gt;Node13 -->
<g id="edge20_Node000001_Node000013" class="edge">
<title>Node1&#45;&gt;Node13</title>
<g id="a_edge20_Node000001_Node000013"><a xlink:title=" ">
<path fill="none" stroke="#63b8ff" d="M857.34,-230.96C900.96,-218.48 955.98,-202.74 992.49,-192.3"/>
<polygon fill="#63b8ff" stroke="#63b8ff" points="993.62,-195.62 1002.27,-189.5 991.69,-188.89 993.62,-195.62"/>
</a>
</g>
</g>
<!-- Node3 -->
<g id="Node000003" class="node">
<title>Node3</title>
<g id="a_Node000003"><a xlink:title=" ">
<polygon fill="#e0e0e0" stroke="#999999" points="352,-74 268,-74 268,-55 352,-55 352,-74"/>
<text text-anchor="middle" x="310" y="-62" font-family="Helvetica,sans-Serif" font-size="10.00">ecs/Entity.hpp</text>
</a>
</g>
</g>
<!-- Node2&#45;&gt;Node3 -->
<g id="edge2_Node000002_Node000003" class="edge">
<title>Node2&#45;&gt;Node3</title>
<g id="a_edge2_Node000002_Node000003"><a xlink:title=" ">
<path fill="none" stroke="#63b8ff" d="M251.25,-109.98C261.8,-102 277.8,-89.88 290.44,-80.31"/>
<polygon fill="#63b8ff" stroke="#63b8ff" points="292.69,-83 298.55,-74.17 288.46,-77.42 292.69,-83"/>
</a>
</g>
</g>
<!-- Node2&#45;&gt;Node4 -->
<g id="edge3_Node000002_Node000004" class="edge">
<title>Node2&#45;&gt;Node4</title>
<g id="a_edge3_Node000002_Node000004"><a xlink:title=" ">
<path fill="none" stroke="#63b8ff" d="M239.83,-109.96C240.05,-96.1 242.69,-68.86 259,-55 298.61,-21.35 440.91,-12.83 529.91,-10.86"/>
<polygon fill="#63b8ff" stroke="#63b8ff" points="530.02,-14.36 539.95,-10.67 529.88,-7.36 530.02,-14.36"/>
</a>
</g>
</g>
<!-- Node5&#45;&gt;Node3 -->
<g id="edge7_Node000005_Node000003" class="edge">
<title>Node5&#45;&gt;Node3</title>
<g id="a_edge7_Node000005_Node000003"><a xlink:title=" ">
<path fill="none" stroke="#63b8ff" d="M116.11,-109.98C155.99,-100.84 219.46,-86.27 262.84,-76.32"/>
<polygon fill="#63b8ff" stroke="#63b8ff" points="263.63,-79.73 272.59,-74.08 262.07,-72.91 263.63,-79.73"/>
</a>
</g>
</g>
<!-- Node5&#45;&gt;Node4 -->
<g id="edge6_Node000005_Node000004" class="edge">
<title>Node5&#45;&gt;Node4</title>
<g id="a_edge6_Node000005_Node000004"><a xlink:title=" ">
<path fill="none" stroke="#63b8ff" d="M96.73,-109.96C126.3,-96.09 187.92,-68.83 243,-55 340.39,-30.54 456.09,-19.3 529.76,-14.29"/>
<polygon fill="#63b8ff" stroke="#63b8ff" points="530.12,-17.77 539.87,-13.62 529.66,-10.79 530.12,-17.77"/>
</a>
</g>
</g>
<!-- Node6&#45;&gt;Node4 -->
<g id="edge9_Node000006_Node000004" class="edge">
<title>Node6&#45;&gt;Node4</title>
<g id="a_edge9_Node000006_Node000004"><a xlink:title=" ">
<path fill="none" stroke="#63b8ff" d="M868.39,-54.98C812.9,-45.65 723.91,-30.67 664.71,-20.71"/>
<polygon fill="#63b8ff" stroke="#63b8ff" points="665.19,-17.25 654.75,-19.04 664.03,-24.15 665.19,-17.25"/>
</a>
</g>
</g>
<!-- Node7&#45;&gt;Node4 -->
<g id="edge17_Node000007_Node000004" class="edge">
<title>Node7&#45;&gt;Node4</title>
<g id="a_edge17_Node000007_Node000004"><a xlink:title=" ">
<path fill="none" stroke="#63b8ff" d="M565.97,-164.99C556.73,-155.81 545.99,-142.95 541,-129 538.16,-121.05 538.65,-118.11 541,-110 550.39,-77.62 573.82,-45.67 589.31,-27.04"/>
<polygon fill="#63b8ff" stroke="#63b8ff" points="592.14,-29.11 595.98,-19.23 586.82,-24.56 592.14,-29.11"/>
</a>
</g>
</g>
<!-- Node8 -->
<g id="Node000008" class="node">
<title>Node8</title>
<g id="a_Node000008"><a xlink:title=" ">
<polygon fill="#e0e0e0" stroke="#999999" points="614,-129 550,-129 550,-110 614,-110 614,-129"/>
<text text-anchor="middle" x="582" y="-117" font-family="Helvetica,sans-Serif" font-size="10.00">algorithm</text>
</a>
</g>
</g>
<!-- Node7&#45;&gt;Node8 -->
<g id="edge11_Node000007_Node000008" class="edge">
<title>Node7&#45;&gt;Node8</title>
<g id="a_edge11_Node000007_Node000008"><a xlink:title=" ">
<path fill="none" stroke="#63b8ff" d="M582,-164.84C582,-157.21 582,-147.7 582,-139.45"/>
<polygon fill="#63b8ff" stroke="#63b8ff" points="585.5,-139.27 582,-129.27 578.5,-139.27 585.5,-139.27"/>
</a>
</g>
</g>
<!-- Node9 -->
<g id="Node000009" class="node">
<title>Node9</title>
<g id="a_Node000009"><a xlink:href="CollisionController_8hpp.html" target="_top" xlink:title=" ">
<polygon fill="white" stroke="#666666" points="494,-129 322,-129 322,-110 494,-110 494,-129"/>
<text text-anchor="middle" x="408" y="-117" font-family="Helvetica,sans-Serif" font-size="10.00">Collision/CollisionController.hpp</text>
</a>
</g>
</g>
<!-- Node7&#45;&gt;Node9 -->
<g id="edge12_Node000007_Node000009" class="edge">
<title>Node7&#45;&gt;Node9</title>
<g id="a_edge12_Node000007_Node000009"><a xlink:title=" ">
<path fill="none" stroke="#63b8ff" d="M540.32,-164.99C510.68,-155.02 471.31,-141.78 443.23,-132.35"/>
<polygon fill="#63b8ff" stroke="#63b8ff" points="444.04,-128.92 433.44,-129.05 441.8,-135.56 444.04,-128.92"/>
</a>
</g>
</g>
<!-- Node10 -->
<g id="Node000010" class="node">
<title>Node10</title>
<g id="a_Node000010"><a xlink:href="Weapon_8hpp.html" target="_top" xlink:title=" ">
<polygon fill="white" stroke="#666666" points="742,-129 632,-129 632,-110 742,-110 742,-129"/>
<text text-anchor="middle" x="687" y="-117" font-family="Helvetica,sans-Serif" font-size="10.00">Player/Weapon.hpp</text>
</a>
</g>
</g>
<!-- Node7&#45;&gt;Node10 -->
<g id="edge14_Node000007_Node000010" class="edge">
<title>Node7&#45;&gt;Node10</title>
<g id="a_edge14_Node000007_Node000010"><a xlink:title=" ">
<path fill="none" stroke="#63b8ff" d="M607.15,-164.99C623.89,-155.66 645.77,-143.47 662.39,-134.21"/>
<polygon fill="#63b8ff" stroke="#63b8ff" points="664.46,-137.06 671.49,-129.14 661.05,-130.95 664.46,-137.06"/>
</a>
</g>
</g>
<!-- Node9&#45;&gt;Node3 -->
<g id="edge13_Node000009_Node000003" class="edge">
<title>Node9&#45;&gt;Node3</title>
<g id="a_edge13_Node000009_Node000003"><a xlink:title=" ">
<path fill="none" stroke="#63b8ff" d="M392.25,-109.98C376.77,-101.61 352.91,-88.7 334.86,-78.95"/>
<polygon fill="#63b8ff" stroke="#63b8ff" points="336.49,-75.85 326.03,-74.17 333.16,-82.01 336.49,-75.85"/>
</a>
</g>
</g>
<!-- Node10&#45;&gt;Node11 -->
<g id="edge15_Node000010_Node000011" class="edge">
<title>Node10&#45;&gt;Node11</title>
<g id="a_edge15_Node000010_Node000011"><a xlink:title=" ">
<path fill="none" stroke="#63b8ff" d="M687,-109.75C687,-102.8 687,-92.85 687,-84.13"/>
<polygon fill="#63b8ff" stroke="#63b8ff" points="690.5,-84.09 687,-74.09 683.5,-84.09 690.5,-84.09"/>
</a>
</g>
</g>
<!-- Node11&#45;&gt;Node4 -->
<g id="edge16_Node000011_Node000004" class="edge">
<title>Node11&#45;&gt;Node4</title>
<g id="a_edge16_Node000011_Node000004"><a xlink:title=" ">
<path fill="none" stroke="#63b8ff" d="M673.66,-54.98C660.91,-46.84 641.45,-34.41 626.33,-24.76"/>
<polygon fill="#63b8ff" stroke="#63b8ff" points="627.89,-21.6 617.58,-19.17 624.12,-27.5 627.89,-21.6"/>
</a>
</g>
</g>
</g>
</svg>
