<?xml version="1.0" encoding="UTF-8" standalone="no"?>
<!DOCTYPE svg PUBLIC "-//W3C//DTD SVG 1.1//EN"
 "http://www.w3.org/Graphics/SVG/1.1/DTD/svg11.dtd">
<!-- Generated by graphviz version 2.43.0 (0)
 -->
<!-- Title: /home/runner/work/R&#45;Type/R&#45;Type/Shared/systems/Movement/Movement.hpp Pages: 1 -->
<svg width="1656pt" height="335pt"
 viewBox="0.00 0.00 1655.50 335.00" xmlns="http://www.w3.org/2000/svg" xmlns:xlink="http://www.w3.org/1999/xlink">
<g id="graph0" class="graph" transform="scale(1 1) rotate(0) translate(4 331)">
<title>/home/runner/work/R&#45;Type/R&#45;Type/Shared/systems/Movement/Movement.hpp</title>
<!-- Node1 -->
<g id="Node000001" class="node">
<title>Node1</title>
<g id="a_Node000001"><a xlink:title=" ">
<polygon fill="#999999" stroke="#666666" points="490.5,-327 297.5,-327 297.5,-286 490.5,-286 490.5,-327"/>
<text text-anchor="start" x="305.5" y="-315" font-family="Helvetica,sans-Serif" font-size="10.00">/home/runner/work/R</text>
<text text-anchor="start" x="305.5" y="-304" font-family="Helvetica,sans-Serif" font-size="10.00">&#45;Type/R&#45;Type/Shared</text>
<text text-anchor="middle" x="394" y="-293" font-family="Helvetica,sans-Serif" font-size="10.00">/systems/Movement/Movement.hpp</text>
</a>
</g>
</g>
<!-- Node2 -->
<g id="Node000002" class="node">
<title>Node2</title>
<g id="a_Node000002"><a xlink:href="Physics2D_8hpp.html" target="_top" xlink:title=" ">
<polygon fill="white" stroke="#666666" points="321.5,-74 170.5,-74 170.5,-55 321.5,-55 321.5,-74"/>
<text text-anchor="middle" x="246" y="-62" font-family="Helvetica,sans-Serif" font-size="10.00">components/Physics2D.hpp</text>
</a>
</g>
</g>
<!-- Node1&#45;&gt;Node2 -->
<g id="edge1_Node000001_Node000002" class="edge">
<title>Node1&#45;&gt;Node2</title>
<g id="a_edge1_Node000001_Node000002"><a xlink:title=" ">
<path fill="none" stroke="#63b8ff" d="M297.07,-305.16C197.06,-302.5 50.77,-291.38 15,-250 -52.01,-172.46 126.04,-103.64 207.64,-77.1"/>
<polygon fill="#63b8ff" stroke="#63b8ff" points="208.86,-80.39 217.32,-74.01 206.73,-73.72 208.86,-80.39"/>
</a>
</g>
</g>
<!-- Node5 -->
<g id="Node000005" class="node">
<title>Node5</title>
<g id="a_Node000005"><a xlink:href="Boss_8hpp.html" target="_top" xlink:title=" ">
<polygon fill="white" stroke="#666666" points="182,-244.5 24,-244.5 24,-225.5 182,-225.5 182,-244.5"/>
<text text-anchor="middle" x="103" y="-232.5" font-family="Helvetica,sans-Serif" font-size="10.00">components/Player/Boss.hpp</text>
</a>
</g>
</g>
<!-- Node1&#45;&gt;Node5 -->
<g id="edge4_Node000001_Node000005" class="edge">
<title>Node1&#45;&gt;Node5</title>
<g id="a_edge4_Node000001_Node000005"><a xlink:title=" ">
<path fill="none" stroke="#63b8ff" d="M312.17,-285.96C259.14,-273.29 192.06,-257.27 148.37,-246.84"/>
<polygon fill="#63b8ff" stroke="#63b8ff" points="149.15,-243.42 138.61,-244.5 147.52,-250.23 149.15,-243.42"/>
</a>
</g>
</g>
<!-- Node6 -->
<g id="Node000006" class="node">
<title>Node6</title>
<g id="a_Node000006"><a xlink:href="Enemy_8hpp.html" target="_top" xlink:title=" ">
<polygon fill="white" stroke="#666666" points="366.5,-244.5 199.5,-244.5 199.5,-225.5 366.5,-225.5 366.5,-244.5"/>
<text text-anchor="middle" x="283" y="-232.5" font-family="Helvetica,sans-Serif" font-size="10.00">components/Player/Enemy.hpp</text>
</a>
</g>
</g>
<!-- Node1&#45;&gt;Node6 -->
<g id="edge6_Node000001_Node000006" class="edge">
<title>Node1&#45;&gt;Node6</title>
<g id="a_edge6_Node000001_Node000006"><a xlink:title=" ">
<path fill="none" stroke="#63b8ff" d="M362.79,-285.96C344.56,-274.54 321.98,-260.41 305.5,-250.09"/>
<polygon fill="#63b8ff" stroke="#63b8ff" points="306.92,-246.84 296.58,-244.5 303.2,-252.78 306.92,-246.84"/>
</a>
</g>
</g>
<!-- Node7 -->
<g id="Node000007" class="node">
<title>Node7</title>
<g id="a_Node000007"><a xlink:href="PlayerEntity_8hpp.html" target="_top" xlink:title=" ">
<polygon fill="white" stroke="#666666" points="578,-250 434,-250 434,-220 578,-220 578,-250"/>
<text text-anchor="start" x="442" y="-238" font-family="Helvetica,sans-Serif" font-size="10.00">components/Player/Player</text>
<text text-anchor="middle" x="506" y="-227" font-family="Helvetica,sans-Serif" font-size="10.00">Entity.hpp</text>
</a>
</g>
</g>
<!-- Node1&#45;&gt;Node7 -->
<g id="edge8_Node000001_Node000007" class="edge">
<title>Node1&#45;&gt;Node7</title>
<g id="a_edge8_Node000001_Node000007"><a xlink:title=" ">
<path fill="none" stroke="#63b8ff" d="M425.5,-285.96C440.86,-276.42 459.28,-264.99 474.63,-255.47"/>
<polygon fill="#63b8ff" stroke="#63b8ff" points="476.61,-258.36 483.26,-250.11 472.92,-252.41 476.61,-258.36"/>
</a>
</g>
</g>
<!-- Node13 -->
<g id="Node000013" class="node">
<title>Node13</title>
<g id="a_Node000013"><a xlink:href="Projectile_8hpp.html" target="_top" xlink:title=" ">
<polygon fill="white" stroke="#666666" points="454,-129 274,-129 274,-110 454,-110 454,-129"/>
<text text-anchor="middle" x="364" y="-117" font-family="Helvetica,sans-Serif" font-size="10.00">components/Player/Projectile.hpp</text>
</a>
</g>
</g>
<!-- Node1&#45;&gt;Node13 -->
<g id="edge17_Node000001_Node000013" class="edge">
<title>Node1&#45;&gt;Node13</title>
<g id="a_edge17_Node000001_Node000013"><a xlink:title=" ">
<path fill="none" stroke="#63b8ff" d="M390.79,-285.85C387.65,-268.32 382.29,-242.1 375,-220 369.52,-203.37 362.64,-201.13 359,-184 357.25,-175.74 358.53,-173.43 359,-165 359.48,-156.45 360.47,-147.03 361.45,-139.06"/>
<polygon fill="#63b8ff" stroke="#63b8ff" points="364.94,-139.38 362.76,-129.01 357.99,-138.47 364.94,-139.38"/>
</a>
</g>
</g>
<!-- Node14 -->
<g id="Node000014" class="node">
<title>Node14</title>
<g id="a_Node000014"><a xlink:href="Registry_8hpp.html" target="_top" xlink:title=" ">
<polygon fill="white" stroke="#666666" points="1151,-244.5 1055,-244.5 1055,-225.5 1151,-225.5 1151,-244.5"/>
<text text-anchor="middle" x="1103" y="-232.5" font-family="Helvetica,sans-Serif" font-size="10.00">ecs/Registry.hpp</text>
</a>
</g>
</g>
<!-- Node1&#45;&gt;Node14 -->
<g id="edge18_Node000001_Node000014" class="edge">
<title>Node1&#45;&gt;Node14</title>
<g id="a_edge18_Node000001_Node000014"><a xlink:title=" ">
<path fill="none" stroke="#63b8ff" d="M490.73,-296.02C640.22,-281.36 922.84,-253.66 1044.68,-241.72"/>
<polygon fill="#63b8ff" stroke="#63b8ff" points="1045.31,-245.17 1054.92,-240.71 1044.63,-238.21 1045.31,-245.17"/>
</a>
</g>
</g>
<!-- Node26 -->
<g id="Node000026" class="node">
<title>Node26</title>
<g id="a_Node000026"><a xlink:href="Zipper_8hpp.html" target="_top" xlink:title=" ">
<polygon fill="white" stroke="#666666" points="838,-244.5 750,-244.5 750,-225.5 838,-225.5 838,-244.5"/>
<text text-anchor="middle" x="794" y="-232.5" font-family="Helvetica,sans-Serif" font-size="10.00">ecs/Zipper.hpp</text>
</a>
</g>
</g>
<!-- Node1&#45;&gt;Node26 -->
<g id="edge34_Node000001_Node000026" class="edge">
<title>Node1&#45;&gt;Node26</title>
<g id="a_edge34_Node000001_Node000026"><a xlink:title=" ">
<path fill="none" stroke="#63b8ff" d="M490.58,-288.72C568.81,-275.13 676.17,-256.47 739.99,-245.38"/>
<polygon fill="#63b8ff" stroke="#63b8ff" points="740.59,-248.83 749.85,-243.67 739.39,-241.94 740.59,-248.83"/>
</a>
</g>
</g>
<!-- Node3 -->
<g id="Node000003" class="node">
<title>Node3</title>
<g id="a_Node000003"><a xlink:title=" ">
<polygon fill="#e0e0e0" stroke="#999999" points="243,-19 171,-19 171,0 243,0 243,-19"/>
<text text-anchor="middle" x="207" y="-7" font-family="Helvetica,sans-Serif" font-size="10.00">SDL2/SDL.h</text>
</a>
</g>
</g>
<!-- Node2&#45;&gt;Node3 -->
<g id="edge2_Node000002_Node000003" class="edge">
<title>Node2&#45;&gt;Node3</title>
<g id="a_edge2_Node000002_Node000003"><a xlink:title=" ">
<path fill="none" stroke="#63b8ff" d="M239.56,-54.75C234.11,-47.34 226.14,-36.5 219.45,-27.41"/>
<polygon fill="#63b8ff" stroke="#63b8ff" points="222.07,-25.07 213.32,-19.09 216.43,-29.22 222.07,-25.07"/>
</a>
</g>
</g>
<!-- Node4 -->
<g id="Node000004" class="node">
<title>Node4</title>
<g id="a_Node000004"><a xlink:title=" ">
<polygon fill="#e0e0e0" stroke="#999999" points="308.5,-19 261.5,-19 261.5,0 308.5,0 308.5,-19"/>
<text text-anchor="middle" x="285" y="-7" font-family="Helvetica,sans-Serif" font-size="10.00">cmath</text>
</a>
</g>
</g>
<!-- Node2&#45;&gt;Node4 -->
<g id="edge3_Node000002_Node000004" class="edge">
<title>Node2&#45;&gt;Node4</title>
<g id="a_edge3_Node000002_Node000004"><a xlink:title=" ">
<path fill="none" stroke="#63b8ff" d="M252.44,-54.75C257.89,-47.34 265.87,-36.5 272.56,-27.41"/>
<polygon fill="#63b8ff" stroke="#63b8ff" points="275.57,-29.22 278.68,-19.09 269.94,-25.07 275.57,-29.22"/>
</a>
</g>
</g>
<!-- Node5&#45;&gt;Node2 -->
<g id="edge5_Node000005_Node000002" class="edge">
<title>Node5&#45;&gt;Node2</title>
<g id="a_edge5_Node000005_Node000002"><a xlink:title=" ">
<path fill="none" stroke="#63b8ff" d="M110.29,-225.41C132.85,-198.83 201.83,-117.55 231.82,-82.21"/>
<polygon fill="#63b8ff" stroke="#63b8ff" points="234.75,-84.16 238.56,-74.27 229.42,-79.63 234.75,-84.16"/>
</a>
</g>
</g>
<!-- Node6&#45;&gt;Node2 -->
<g id="edge7_Node000006_Node000002" class="edge">
<title>Node6&#45;&gt;Node2</title>
<g id="a_edge7_Node000006_Node000002"><a xlink:title=" ">
<path fill="none" stroke="#63b8ff" d="M281.12,-225.41C275.38,-199.28 258.03,-120.29 250.07,-84.04"/>
<polygon fill="#63b8ff" stroke="#63b8ff" points="253.49,-83.29 247.93,-74.27 246.65,-84.79 253.49,-83.29"/>
</a>
</g>
</g>
<!-- Node7&#45;&gt;Node2 -->
<g id="edge16_Node000007_Node000002" class="edge">
<title>Node7&#45;&gt;Node2</title>
<g id="a_edge16_Node000007_Node000002"><a xlink:title=" ">
<path fill="none" stroke="#63b8ff" d="M505.66,-219.79C504.19,-193.52 497,-137.54 463,-110 442.79,-93.63 383.38,-82.14 331.82,-74.94"/>
<polygon fill="#63b8ff" stroke="#63b8ff" points="332.01,-71.43 321.63,-73.56 331.07,-78.37 332.01,-71.43"/>
</a>
</g>
</g>
<!-- Node8 -->
<g id="Node000008" class="node">
<title>Node8</title>
<g id="a_Node000008"><a xlink:title=" ">
<polygon fill="#e0e0e0" stroke="#999999" points="886,-184 822,-184 822,-165 886,-165 886,-184"/>
<text text-anchor="middle" x="854" y="-172" font-family="Helvetica,sans-Serif" font-size="10.00">algorithm</text>
</a>
</g>
</g>
<!-- Node7&#45;&gt;Node8 -->
<g id="edge9_Node000007_Node000008" class="edge">
<title>Node7&#45;&gt;Node8</title>
<g id="a_edge9_Node000007_Node000008"><a xlink:title=" ">
<path fill="none" stroke="#63b8ff" d="M578.11,-221.88C648.72,-210.01 753.91,-192.33 811.88,-182.58"/>
<polygon fill="#63b8ff" stroke="#63b8ff" points="812.51,-186.02 821.79,-180.92 811.35,-179.12 812.51,-186.02"/>
</a>
</g>
</g>
<!-- Node9 -->
<g id="Node000009" class="node">
<title>Node9</title>
<g id="a_Node000009"><a xlink:href="CollisionController_8hpp.html" target="_top" xlink:title=" ">
<polygon fill="white" stroke="#666666" points="706,-184 534,-184 534,-165 706,-165 706,-184"/>
<text text-anchor="middle" x="620" y="-172" font-family="Helvetica,sans-Serif" font-size="10.00">Collision/CollisionController.hpp</text>
</a>
</g>
</g>
<!-- Node7&#45;&gt;Node9 -->
<g id="edge10_Node000007_Node000009" class="edge">
<title>Node7&#45;&gt;Node9</title>
<g id="a_edge10_Node000007_Node000009"><a xlink:title=" ">
<path fill="none" stroke="#63b8ff" d="M533.31,-219.99C551.65,-210.58 575.68,-198.24 593.79,-188.95"/>
<polygon fill="#63b8ff" stroke="#63b8ff" points="595.87,-191.82 603.17,-184.14 592.67,-185.59 595.87,-191.82"/>
</a>
</g>
</g>
<!-- Node12 -->
<g id="Node000012" class="node">
<title>Node12</title>
<g id="a_Node000012"><a xlink:href="Weapon_8hpp.html" target="_top" xlink:title=" ">
<polygon fill="white" stroke="#666666" points="478,-184 368,-184 368,-165 478,-165 478,-184"/>
<text text-anchor="middle" x="423" y="-172" font-family="Helvetica,sans-Serif" font-size="10.00">Player/Weapon.hpp</text>
</a>
</g>
</g>
<!-- Node7&#45;&gt;Node12 -->
<g id="edge13_Node000007_Node000012" class="edge">
<title>Node7&#45;&gt;Node12</title>
<g id="a_edge13_Node000007_Node000012"><a xlink:title=" ">
<path fill="none" stroke="#63b8ff" d="M485.91,-219.84C473.12,-210.83 456.6,-199.18 443.7,-190.09"/>
<polygon fill="#63b8ff" stroke="#63b8ff" points="445.63,-187.17 435.44,-184.27 441.6,-192.89 445.63,-187.17"/>
</a>
</g>
</g>
<!-- Node10 -->
<g id="Node000010" class="node">
<title>Node10</title>
<g id="a_Node000010"><a xlink:href="Entity_8hpp.html" target="_top" xlink:title=" ">
<polygon fill="white" stroke="#666666" points="833,-129 731,-129 731,-110 833,-110 833,-129"/>
<text text-anchor="middle" x="782" y="-117" font-family="Helvetica,sans-Serif" font-size="10.00">../../ecs/Entity.hpp</text>
</a>
</g>
</g>
<!-- Node9&#45;&gt;Node10 -->
<g id="edge11_Node000009_Node000010" class="edge">
<title>Node9&#45;&gt;Node10</title>
<g id="a_edge11_Node000009_Node000010"><a xlink:title=" ">
<path fill="none" stroke="#63b8ff" d="M646.03,-164.98C673.11,-156.13 715.71,-142.19 746.01,-132.28"/>
<polygon fill="#63b8ff" stroke="#63b8ff" points="747.35,-135.52 755.77,-129.08 745.18,-128.87 747.35,-135.52"/>
</a>
</g>
</g>
<!-- Node11 -->
<g id="Node000011" class="node">
<title>Node11</title>
<g id="a_Node000011"><a xlink:title=" ">
<polygon fill="#e0e0e0" stroke="#999999" points="808.5,-74 755.5,-74 755.5,-55 808.5,-55 808.5,-74"/>
<text text-anchor="middle" x="782" y="-62" font-family="Helvetica,sans-Serif" font-size="10.00">cstddef</text>
</a>
</g>
</g>
<!-- Node10&#45;&gt;Node11 -->
<g id="edge12_Node000010_Node000011" class="edge">
<title>Node10&#45;&gt;Node11</title>
<g id="a_edge12_Node000010_Node000011"><a xlink:title=" ">
<path fill="none" stroke="#63b8ff" d="M782,-109.75C782,-102.8 782,-92.85 782,-84.13"/>
<polygon fill="#63b8ff" stroke="#63b8ff" points="785.5,-84.09 782,-74.09 778.5,-84.09 785.5,-84.09"/>
</a>
</g>
</g>
<!-- Node12&#45;&gt;Node13 -->
<g id="edge14_Node000012_Node000013" class="edge">
<title>Node12&#45;&gt;Node13</title>
<g id="a_edge14_Node000012_Node000013"><a xlink:title=" ">
<path fill="none" stroke="#63b8ff" d="M413.52,-164.98C404.8,-157.15 391.66,-145.34 381.1,-135.86"/>
<polygon fill="#63b8ff" stroke="#63b8ff" points="383.43,-133.25 373.65,-129.17 378.75,-138.46 383.43,-133.25"/>
</a>
</g>
</g>
<!-- Node13&#45;&gt;Node2 -->
<g id="edge15_Node000013_Node000002" class="edge">
<title>Node13&#45;&gt;Node2</title>
<g id="a_edge15_Node000013_Node000002"><a xlink:title=" ">
<path fill="none" stroke="#63b8ff" d="M345.04,-109.98C325.97,-101.42 296.34,-88.11 274.45,-78.28"/>
<polygon fill="#63b8ff" stroke="#63b8ff" points="275.86,-75.07 265.31,-74.17 272.99,-81.46 275.86,-75.07"/>
</a>
</g>
</g>
<!-- Node14&#45;&gt;Node8 -->
<g id="edge19_Node000014_Node000008" class="edge">
<title>Node14&#45;&gt;Node8</title>
<g id="a_edge19_Node000014_Node000008"><a xlink:title=" ">
<path fill="none" stroke="#63b8ff" d="M1066.79,-225.49C1021.46,-214.84 943.95,-196.63 896.04,-185.38"/>
<polygon fill="#63b8ff" stroke="#63b8ff" points="896.83,-181.97 886.29,-183.09 895.23,-188.78 896.83,-181.97"/>
</a>
</g>
</g>
<!-- Node14&#45;&gt;Node10 -->
<g id="edge28_Node000014_Node000010" class="edge">
<title>Node14&#45;&gt;Node10</title>
<g id="a_edge28_Node000014_Node000010"><a xlink:title=" ">
<path fill="none" stroke="#63b8ff" d="M1090.56,-225.48C1068.86,-210.99 1022.27,-181.53 979,-165 935.01,-148.19 882.95,-136.77 843.4,-129.71"/>
<polygon fill="#63b8ff" stroke="#63b8ff" points="843.83,-126.23 833.37,-127.97 842.63,-133.13 843.83,-126.23"/>
</a>
</g>
</g>
<!-- Node15 -->
<g id="Node000015" class="node">
<title>Node15</title>
<g id="a_Node000015"><a xlink:title=" ">
<polygon fill="#e0e0e0" stroke="#999999" points="1647.5,-184 1612.5,-184 1612.5,-165 1647.5,-165 1647.5,-184"/>
<text text-anchor="middle" x="1630" y="-172" font-family="Helvetica,sans-Serif" font-size="10.00">any</text>
</a>
</g>
</g>
<!-- Node14&#45;&gt;Node15 -->
<g id="edge20_Node000014_Node000015" class="edge">
<title>Node14&#45;&gt;Node15</title>
<g id="a_edge20_Node000014_Node000015"><a xlink:title=" ">
<path fill="none" stroke="#63b8ff" d="M1151.19,-232.65C1239.41,-229.44 1432.66,-218.93 1602.38,-183.94"/>
<polygon fill="#63b8ff" stroke="#63b8ff" points="1603.17,-187.35 1612.24,-181.87 1601.73,-180.5 1603.17,-187.35"/>
</a>
</g>
</g>
<!-- Node16 -->
<g id="Node000016" class="node">
<title>Node16</title>
<g id="a_Node000016"><a xlink:title=" ">
<polygon fill="#e0e0e0" stroke="#999999" points="969.5,-184 904.5,-184 904.5,-165 969.5,-165 969.5,-184"/>
<text text-anchor="middle" x="937" y="-172" font-family="Helvetica,sans-Serif" font-size="10.00">functional</text>
</a>
</g>
</g>
<!-- Node14&#45;&gt;Node16 -->
<g id="edge21_Node000014_Node000016" class="edge">
<title>Node14&#45;&gt;Node16</title>
<g id="a_edge21_Node000014_Node000016"><a xlink:title=" ">
<path fill="none" stroke="#63b8ff" d="M1078.86,-225.49C1050.46,-215.49 1003.12,-198.8 971.02,-187.49"/>
<polygon fill="#63b8ff" stroke="#63b8ff" points="971.76,-184.04 961.17,-184.02 969.44,-190.64 971.76,-184.04"/>
</a>
</g>
</g>
<!-- Node17 -->
<g id="Node000017" class="node">
<title>Node17</title>
<g id="a_Node000017"><a xlink:title=" ">
<polygon fill="#e0e0e0" stroke="#999999" points="1162,-184 1102,-184 1102,-165 1162,-165 1162,-184"/>
<text text-anchor="middle" x="1132" y="-172" font-family="Helvetica,sans-Serif" font-size="10.00">iostream</text>
</a>
</g>
</g>
<!-- Node14&#45;&gt;Node17 -->
<g id="edge22_Node000014_Node000017" class="edge">
<title>Node14&#45;&gt;Node17</title>
<g id="a_edge22_Node000014_Node000017"><a xlink:title=" ">
<path fill="none" stroke="#63b8ff" d="M1107.28,-225.37C1111.44,-216.99 1117.87,-204.01 1123.13,-193.39"/>
<polygon fill="#63b8ff" stroke="#63b8ff" points="1126.4,-194.68 1127.71,-184.17 1120.13,-191.57 1126.4,-194.68"/>
</a>
</g>
</g>
<!-- Node18 -->
<g id="Node000018" class="node">
<title>Node18</title>
<g id="a_Node000018"><a xlink:title=" ">
<polygon fill="#e0e0e0" stroke="#999999" points="1245.5,-184 1180.5,-184 1180.5,-165 1245.5,-165 1245.5,-184"/>
<text text-anchor="middle" x="1213" y="-172" font-family="Helvetica,sans-Serif" font-size="10.00">typeindex</text>
</a>
</g>
</g>
<!-- Node14&#45;&gt;Node18 -->
<g id="edge23_Node000014_Node000018" class="edge">
<title>Node14&#45;&gt;Node18</title>
<g id="a_edge23_Node000014_Node000018"><a xlink:title=" ">
<path fill="none" stroke="#63b8ff" d="M1119.23,-225.37C1137.27,-215.78 1166.62,-200.17 1187.68,-188.97"/>
<polygon fill="#63b8ff" stroke="#63b8ff" points="1189.52,-191.95 1196.7,-184.17 1186.23,-185.77 1189.52,-191.95"/>
</a>
</g>
</g>
<!-- Node19 -->
<g id="Node000019" class="node">
<title>Node19</title>
<g id="a_Node000019"><a xlink:title=" ">
<polygon fill="#e0e0e0" stroke="#999999" points="1356.5,-184 1263.5,-184 1263.5,-165 1356.5,-165 1356.5,-184"/>
<text text-anchor="middle" x="1310" y="-172" font-family="Helvetica,sans-Serif" font-size="10.00">unordered_map</text>
</a>
</g>
</g>
<!-- Node14&#45;&gt;Node19 -->
<g id="edge24_Node000014_Node000019" class="edge">
<title>Node14&#45;&gt;Node19</title>
<g id="a_edge24_Node000014_Node000019"><a xlink:title=" ">
<path fill="none" stroke="#63b8ff" d="M1133.1,-225.49C1169.28,-215.27 1230.11,-198.08 1270.16,-186.76"/>
<polygon fill="#63b8ff" stroke="#63b8ff" points="1271.19,-190.1 1279.87,-184.02 1269.29,-183.37 1271.19,-190.1"/>
</a>
</g>
</g>
<!-- Node20 -->
<g id="Node000020" class="node">
<title>Node20</title>
<g id="a_Node000020"><a xlink:title=" ">
<polygon fill="#e0e0e0" stroke="#999999" points="1461,-184 1375,-184 1375,-165 1461,-165 1461,-184"/>
<text text-anchor="middle" x="1418" y="-172" font-family="Helvetica,sans-Serif" font-size="10.00">unordered_set</text>
</a>
</g>
</g>
<!-- Node14&#45;&gt;Node20 -->
<g id="edge25_Node000014_Node000020" class="edge">
<title>Node14&#45;&gt;Node20</title>
<g id="a_edge25_Node000014_Node000020"><a xlink:title=" ">
<path fill="none" stroke="#63b8ff" d="M1148.81,-225.49C1206.15,-214.84 1304.19,-196.64 1364.8,-185.38"/>
<polygon fill="#63b8ff" stroke="#63b8ff" points="1365.73,-188.77 1374.93,-183.5 1364.46,-181.88 1365.73,-188.77"/>
</a>
</g>
</g>
<!-- Node21 -->
<g id="Node000021" class="node">
<title>Node21</title>
<g id="a_Node000021"><a xlink:title=" ">
<polygon fill="#e0e0e0" stroke="#999999" points="1058.5,-129 1013.5,-129 1013.5,-110 1058.5,-110 1058.5,-129"/>
<text text-anchor="middle" x="1036" y="-117" font-family="Helvetica,sans-Serif" font-size="10.00">utility</text>
</a>
</g>
</g>
<!-- Node14&#45;&gt;Node21 -->
<g id="edge26_Node000014_Node000021" class="edge">
<title>Node14&#45;&gt;Node21</title>
<g id="a_edge26_Node000014_Node000021"><a xlink:title=" ">
<path fill="none" stroke="#63b8ff" d="M1093.7,-225.18C1084.18,-215.73 1069.47,-199.95 1060,-184 1051.54,-169.75 1045.13,-151.99 1041.08,-138.88"/>
<polygon fill="#63b8ff" stroke="#63b8ff" points="1044.39,-137.76 1038.23,-129.14 1037.68,-139.72 1044.39,-137.76"/>
</a>
</g>
</g>
<!-- Node22 -->
<g id="Node000022" class="node">
<title>Node22</title>
<g id="a_Node000022"><a xlink:title=" ">
<polygon fill="#e0e0e0" stroke="#999999" points="1306.5,-129 1259.5,-129 1259.5,-110 1306.5,-110 1306.5,-129"/>
<text text-anchor="middle" x="1283" y="-117" font-family="Helvetica,sans-Serif" font-size="10.00">vector</text>
</a>
</g>
</g>
<!-- Node14&#45;&gt;Node22 -->
<g id="edge27_Node000014_Node000022" class="edge">
<title>Node14&#45;&gt;Node22</title>
<g id="a_edge27_Node000014_Node000022"><a xlink:title=" ">
<path fill="none" stroke="#63b8ff" d="M1098.03,-225.3C1090.63,-211.07 1079.01,-182.64 1093,-165 1112.12,-140.89 1199.79,-128.59 1249.09,-123.48"/>
<polygon fill="#63b8ff" stroke="#63b8ff" points="1249.67,-126.94 1259.27,-122.47 1248.98,-119.97 1249.67,-126.94"/>
</a>
</g>
</g>
<!-- Node23 -->
<g id="Node000023" class="node">
<title>Node23</title>
<g id="a_Node000023"><a xlink:href="SparseArray_8hpp.html" target="_top" xlink:title=" ">
<polygon fill="white" stroke="#666666" points="1594.5,-184 1479.5,-184 1479.5,-165 1594.5,-165 1594.5,-184"/>
<text text-anchor="middle" x="1537" y="-172" font-family="Helvetica,sans-Serif" font-size="10.00">ecs/SparseArray.hpp</text>
</a>
</g>
</g>
<!-- Node14&#45;&gt;Node23 -->
<g id="edge29_Node000014_Node000023" class="edge">
<title>Node14&#45;&gt;Node23</title>
<g id="a_edge29_Node000014_Node000023"><a xlink:title=" ">
<path fill="none" stroke="#63b8ff" d="M1151.11,-227.52C1228.56,-217.08 1381.16,-196.51 1469.49,-184.6"/>
<polygon fill="#63b8ff" stroke="#63b8ff" points="1469.96,-188.07 1479.4,-183.26 1469.03,-181.13 1469.96,-188.07"/>
</a>
</g>
</g>
<!-- Node23&#45;&gt;Node21 -->
<g id="edge32_Node000023_Node000021" class="edge">
<title>Node23&#45;&gt;Node21</title>
<g id="a_edge32_Node000023_Node000021"><a xlink:title=" ">
<path fill="none" stroke="#63b8ff" d="M1479.27,-166.09C1476.13,-165.71 1473.03,-165.35 1470,-165 1320.41,-147.84 1141.44,-130.5 1068.92,-123.6"/>
<polygon fill="#63b8ff" stroke="#63b8ff" points="1068.9,-120.09 1058.61,-122.63 1068.24,-127.05 1068.9,-120.09"/>
</a>
</g>
</g>
<!-- Node23&#45;&gt;Node22 -->
<g id="edge33_Node000023_Node000022" class="edge">
<title>Node23&#45;&gt;Node22</title>
<g id="a_edge33_Node000023_Node000022"><a xlink:title=" ">
<path fill="none" stroke="#63b8ff" d="M1496.19,-164.98C1446.26,-154.57 1362.67,-137.12 1316.38,-127.47"/>
<polygon fill="#63b8ff" stroke="#63b8ff" points="1317.06,-124.03 1306.55,-125.41 1315.63,-130.88 1317.06,-124.03"/>
</a>
</g>
</g>
<!-- Node24 -->
<g id="Node000024" class="node">
<title>Node24</title>
<g id="a_Node000024"><a xlink:title=" ">
<polygon fill="#e0e0e0" stroke="#999999" points="1528,-129 1470,-129 1470,-110 1528,-110 1528,-129"/>
<text text-anchor="middle" x="1499" y="-117" font-family="Helvetica,sans-Serif" font-size="10.00">memory</text>
</a>
</g>
</g>
<!-- Node23&#45;&gt;Node24 -->
<g id="edge30_Node000023_Node000024" class="edge">
<title>Node23&#45;&gt;Node24</title>
<g id="a_edge30_Node000023_Node000024"><a xlink:title=" ">
<path fill="none" stroke="#63b8ff" d="M1530.73,-164.75C1525.41,-157.34 1517.65,-146.5 1511.13,-137.41"/>
<polygon fill="#63b8ff" stroke="#63b8ff" points="1513.83,-135.18 1505.16,-129.09 1508.14,-139.26 1513.83,-135.18"/>
</a>
</g>
</g>
<!-- Node25 -->
<g id="Node000025" class="node">
<title>Node25</title>
<g id="a_Node000025"><a xlink:title=" ">
<polygon fill="#e0e0e0" stroke="#999999" points="1602,-129 1546,-129 1546,-110 1602,-110 1602,-129"/>
<text text-anchor="middle" x="1574" y="-117" font-family="Helvetica,sans-Serif" font-size="10.00">optional</text>
</a>
</g>
</g>
<!-- Node23&#45;&gt;Node25 -->
<g id="edge31_Node000023_Node000025" class="edge">
<title>Node23&#45;&gt;Node25</title>
<g id="a_edge31_Node000023_Node000025"><a xlink:title=" ">
<path fill="none" stroke="#63b8ff" d="M1543.11,-164.75C1548.28,-157.34 1555.85,-146.5 1562.2,-137.41"/>
<polygon fill="#63b8ff" stroke="#63b8ff" points="1565.15,-139.29 1568.01,-129.09 1559.41,-135.29 1565.15,-139.29"/>
</a>
</g>
</g>
<!-- Node26&#45;&gt;Node8 -->
<g id="edge35_Node000026_Node000008" class="edge">
<title>Node26&#45;&gt;Node8</title>
<g id="a_edge35_Node000026_Node000008"><a xlink:title=" ">
<path fill="none" stroke="#63b8ff" d="M802.85,-225.37C811.98,-216.47 826.43,-202.39 837.64,-191.45"/>
<polygon fill="#63b8ff" stroke="#63b8ff" points="840.4,-193.65 845.11,-184.17 835.51,-188.64 840.4,-193.65"/>
</a>
</g>
</g>
<!-- Node26&#45;&gt;Node16 -->
<g id="edge36_Node000026_Node000016" class="edge">
<title>Node26&#45;&gt;Node16</title>
<g id="a_edge36_Node000026_Node000016"><a xlink:title=" ">
<path fill="none" stroke="#63b8ff" d="M814.8,-225.49C838.94,-215.62 878.98,-199.23 906.62,-187.93"/>
<polygon fill="#63b8ff" stroke="#63b8ff" points="908.25,-191.04 916.18,-184.02 905.6,-184.56 908.25,-191.04"/>
</a>
</g>
</g>
<!-- Node26&#45;&gt;Node21 -->
<g id="edge38_Node000026_Node000021" class="edge">
<title>Node26&#45;&gt;Node21</title>
<g id="a_edge38_Node000026_Node000021"><a xlink:title=" ">
<path fill="none" stroke="#63b8ff" d="M793.69,-225.35C793.67,-210.67 795.9,-180.91 813,-165 840.16,-139.72 947.66,-127.57 1002.88,-122.9"/>
<polygon fill="#63b8ff" stroke="#63b8ff" points="1003.5,-126.36 1013.19,-122.07 1002.94,-119.39 1003.5,-126.36"/>
</a>
</g>
</g>
<!-- Node26&#45;&gt;Node26 -->
<g id="edge39_Node000026_Node000026" class="edge">
<title>Node26&#45;&gt;Node26</title>
<g id="a_edge39_Node000026_Node000026"><a xlink:title=" ">
<path fill="none" stroke="#63b8ff" d="M816.89,-244.53C836.02,-248.61 856,-245.43 856,-235 856,-226.44 842.55,-222.77 827.17,-223.97"/>
<polygon fill="#63b8ff" stroke="#63b8ff" points="826.29,-220.56 816.89,-225.47 827.29,-227.49 826.29,-220.56"/>
</a>
</g>
</g>
<!-- Node27 -->
<g id="Node000027" class="node">
<title>Node27</title>
<g id="a_Node000027"><a xlink:title=" ">
<polygon fill="#e0e0e0" stroke="#999999" points="765.5,-184 724.5,-184 724.5,-165 765.5,-165 765.5,-184"/>
<text text-anchor="middle" x="745" y="-172" font-family="Helvetica,sans-Serif" font-size="10.00">tuple</text>
</a>
</g>
</g>
<!-- Node26&#45;&gt;Node27 -->
<g id="edge37_Node000026_Node000027" class="edge">
<title>Node26&#45;&gt;Node27</title>
<g id="a_edge37_Node000026_Node000027"><a xlink:title=" ">
<path fill="none" stroke="#63b8ff" d="M786.77,-225.37C779.46,-216.64 767.98,-202.93 758.9,-192.09"/>
<polygon fill="#63b8ff" stroke="#63b8ff" points="761.37,-189.59 752.26,-184.17 756,-194.08 761.37,-189.59"/>
</a>
</g>
</g>
</g>
</svg>
