<?xml version="1.0" encoding="UTF-8" standalone="no"?>
<!DOCTYPE svg PUBLIC "-//W3C//DTD SVG 1.1//EN"
 "http://www.w3.org/Graphics/SVG/1.1/DTD/svg11.dtd">
<!-- Generated by graphviz version 2.43.0 (0)
 -->
<!-- Title: /home/runner/work/R&#45;Type/R&#45;Type/Client/src/engine/settings/MultiplayerSkinManager.hpp Pages: 1 -->
<svg width="387pt" height="170pt"
 viewBox="0.00 0.00 386.99 170.00" xmlns="http://www.w3.org/2000/svg" xmlns:xlink="http://www.w3.org/1999/xlink">
<g id="graph0" class="graph" transform="scale(1 1) rotate(0) translate(4 166)">
<title>/home/runner/work/R&#45;Type/R&#45;Type/Client/src/engine/settings/MultiplayerSkinManager.hpp</title>
<!-- Node1 -->
<g id="Node000001" class="node">
<title>Node1</title>
<g id="a_Node000001"><a xlink:title=" ">
<polygon fill="#999999" stroke="#666666" points="193.49,-162 34.49,-162 34.49,-110 193.49,-110 193.49,-162"/>
<text text-anchor="start" x="42.49" y="-150" font-family="Helvetica,sans-Serif" font-size="10.00">/home/runner/work/R</text>
<text text-anchor="start" x="42.49" y="-139" font-family="Helvetica,sans-Serif" font-size="10.00">&#45;Type/R&#45;Type/Client</text>
<text text-anchor="start" x="42.49" y="-128" font-family="Helvetica,sans-Serif" font-size="10.00">/src/engine/settings</text>
<text text-anchor="middle" x="113.99" y="-117" font-family="Helvetica,sans-Serif" font-size="10.00">/MultiplayerSkinManager.hpp</text>
</a>
</g>
</g>
<!-- Node2 -->
<g id="Node000002" class="node">
<title>Node2</title>
<g id="a_Node000002"><a xlink:title=" ">
<polygon fill="#e0e0e0" stroke="#999999" points="136.99,-19 76.99,-19 76.99,0 136.99,0 136.99,-19"/>
<text text-anchor="middle" x="106.99" y="-7" font-family="Helvetica,sans-Serif" font-size="10.00">iostream</text>
</a>
</g>
</g>
<!-- Node1&#45;&gt;Node2 -->
<g id="edge1_Node000001_Node000002" class="edge">
<title>Node1&#45;&gt;Node2</title>
<g id="a_edge1_Node000001_Node000002"><a xlink:title=" ">
<path fill="none" stroke="#63b8ff" d="M42.93,-109.99C27.45,-101.09 13.03,-89.34 3.99,-74 -13.06,-45.04 31.41,-27.48 67.18,-18.38"/>
<polygon fill="#63b8ff" stroke="#63b8ff" points="68.07,-21.77 76.98,-16.03 66.44,-14.96 68.07,-21.77"/>
</a>
</g>
</g>
<!-- Node3 -->
<g id="Node000003" class="node">
<title>Node3</title>
<g id="a_Node000003"><a xlink:title=" ">
<polygon fill="#e0e0e0" stroke="#999999" points="106.49,-74 13.49,-74 13.49,-55 106.49,-55 106.49,-74"/>
<text text-anchor="middle" x="59.99" y="-62" font-family="Helvetica,sans-Serif" font-size="10.00">unordered_map</text>
</a>
</g>
</g>
<!-- Node1&#45;&gt;Node3 -->
<g id="edge2_Node000001_Node000003" class="edge">
<title>Node1&#45;&gt;Node3</title>
<g id="a_edge2_Node000001_Node000003"><a xlink:title=" ">
<path fill="none" stroke="#63b8ff" d="M94.5,-109.91C87.4,-100.77 79.55,-90.67 73.13,-82.41"/>
<polygon fill="#63b8ff" stroke="#63b8ff" points="75.73,-80.05 66.83,-74.3 70.2,-84.35 75.73,-80.05"/>
</a>
</g>
</g>
<!-- Node4 -->
<g id="Node000004" class="node">
<title>Node4</title>
<g id="a_Node000004"><a xlink:title=" ">
<polygon fill="#e0e0e0" stroke="#999999" points="210.99,-74 124.99,-74 124.99,-55 210.99,-55 210.99,-74"/>
<text text-anchor="middle" x="167.99" y="-62" font-family="Helvetica,sans-Serif" font-size="10.00">unordered_set</text>
</a>
</g>
</g>
<!-- Node1&#45;&gt;Node4 -->
<g id="edge3_Node000001_Node000004" class="edge">
<title>Node1&#45;&gt;Node4</title>
<g id="a_edge3_Node000001_Node000004"><a xlink:title=" ">
<path fill="none" stroke="#63b8ff" d="M133.49,-109.91C140.59,-100.77 148.44,-90.67 154.86,-82.41"/>
<polygon fill="#63b8ff" stroke="#63b8ff" points="157.78,-84.35 161.15,-74.3 152.26,-80.05 157.78,-84.35"/>
</a>
</g>
</g>
<!-- Node5 -->
<g id="Node000005" class="node">
<title>Node5</title>
<g id="a_Node000005"><a xlink:href="PlayerSettings_8hpp.html" target="_top" xlink:title=" ">
<polygon fill="white" stroke="#666666" points="378.99,-74 228.99,-74 228.99,-55 378.99,-55 378.99,-74"/>
<text text-anchor="middle" x="303.99" y="-62" font-family="Helvetica,sans-Serif" font-size="10.00">settings/PlayerSettings.hpp</text>
</a>
</g>
</g>
<!-- Node1&#45;&gt;Node5 -->
<g id="edge4_Node000001_Node000005" class="edge">
<title>Node1&#45;&gt;Node5</title>
<g id="a_edge4_Node000001_Node000005"><a xlink:title=" ">
<path fill="none" stroke="#63b8ff" d="M182.59,-109.91C212.67,-98.91 246.59,-86.5 270.91,-77.6"/>
<polygon fill="#63b8ff" stroke="#63b8ff" points="272.2,-80.86 280.39,-74.14 269.79,-74.28 272.2,-80.86"/>
</a>
</g>
</g>
<!-- Node5&#45;&gt;Node2 -->
<g id="edge6_Node000005_Node000002" class="edge">
<title>Node5&#45;&gt;Node2</title>
<g id="a_edge6_Node000005_Node000002"><a xlink:title=" ">
<path fill="none" stroke="#63b8ff" d="M272.34,-54.98C238.34,-45.84 184.22,-31.28 147.22,-21.32"/>
<polygon fill="#63b8ff" stroke="#63b8ff" points="147.84,-17.86 137.27,-18.65 146.02,-24.62 147.84,-17.86"/>
</a>
</g>
</g>
<!-- Node6 -->
<g id="Node000006" class="node">
<title>Node6</title>
<g id="a_Node000006"><a xlink:title=" ">
<polygon fill="#e0e0e0" stroke="#999999" points="297.49,-19 242.49,-19 242.49,0 297.49,0 297.49,-19"/>
<text text-anchor="middle" x="269.99" y="-7" font-family="Helvetica,sans-Serif" font-size="10.00">fstream</text>
</a>
</g>
</g>
<!-- Node5&#45;&gt;Node6 -->
<g id="edge5_Node000005_Node000006" class="edge">
<title>Node5&#45;&gt;Node6</title>
<g id="a_edge5_Node000005_Node000006"><a xlink:title=" ">
<path fill="none" stroke="#63b8ff" d="M298.38,-54.75C293.68,-47.42 286.82,-36.73 281.02,-27.7"/>
<polygon fill="#63b8ff" stroke="#63b8ff" points="283.85,-25.62 275.5,-19.09 277.96,-29.4 283.85,-25.62"/>
</a>
</g>
</g>
<!-- Node7 -->
<g id="Node000007" class="node">
<title>Node7</title>
<g id="a_Node000007"><a xlink:title=" ">
<polygon fill="#e0e0e0" stroke="#999999" points="359.99,-19 315.99,-19 315.99,0 359.99,0 359.99,-19"/>
<text text-anchor="middle" x="337.99" y="-7" font-family="Helvetica,sans-Serif" font-size="10.00">string</text>
</a>
</g>
</g>
<!-- Node5&#45;&gt;Node7 -->
<g id="edge7_Node000005_Node000007" class="edge">
<title>Node5&#45;&gt;Node7</title>
<g id="a_edge7_Node000005_Node000007"><a xlink:title=" ">
<path fill="none" stroke="#63b8ff" d="M309.61,-54.75C314.31,-47.42 321.17,-36.73 326.96,-27.7"/>
<polygon fill="#63b8ff" stroke="#63b8ff" points="330.03,-29.4 332.48,-19.09 324.14,-25.62 330.03,-29.4"/>
</a>
</g>
</g>
</g>
</svg>
