<?xml version="1.0" encoding="UTF-8" standalone="no"?>
<!DOCTYPE svg PUBLIC "-//W3C//DTD SVG 1.1//EN"
 "http://www.w3.org/Graphics/SVG/1.1/DTD/svg11.dtd">
<!-- Generated by graphviz version 2.43.0 (0)
 -->
<!-- Title: /home/runner/work/R&#45;Type/R&#45;Type/Client/src/engine/network/include/NetworkManager.hpp Pages: 1 -->
<svg width="1357pt" height="379pt"
 viewBox="0.00 0.00 1357.00 379.00" xmlns="http://www.w3.org/2000/svg" xmlns:xlink="http://www.w3.org/1999/xlink">
<g id="graph0" class="graph" transform="scale(1 1) rotate(0) translate(4 375)">
<title>/home/runner/work/R&#45;Type/R&#45;Type/Client/src/engine/network/include/NetworkManager.hpp</title>
<!-- Node1 -->
<g id="Node000001" class="node">
<title>Node1</title>
<g id="a_Node000001"><a xlink:title=" ">
<polygon fill="#999999" stroke="#666666" points="941.5,-371 790.5,-371 790.5,-319 941.5,-319 941.5,-371"/>
<text text-anchor="start" x="798.5" y="-359" font-family="Helvetica,sans-Serif" font-size="10.00">/home/runner/work/R</text>
<text text-anchor="start" x="798.5" y="-348" font-family="Helvetica,sans-Serif" font-size="10.00">&#45;Type/R&#45;Type/Client</text>
<text text-anchor="start" x="798.5" y="-337" font-family="Helvetica,sans-Serif" font-size="10.00">/src/engine/network/include</text>
<text text-anchor="middle" x="866" y="-326" font-family="Helvetica,sans-Serif" font-size="10.00">/NetworkManager.hpp</text>
</a>
</g>
</g>
<!-- Node2 -->
<g id="Node000002" class="node">
<title>Node2</title>
<g id="a_Node000002"><a xlink:href="GameEngine_8hpp.html" target="_top" xlink:title=" ">
<polygon fill="white" stroke="#666666" points="673,-195 517,-195 517,-154 673,-154 673,-195"/>
<text text-anchor="start" x="525" y="-183" font-family="Helvetica,sans-Serif" font-size="10.00">/home/runner/work/R</text>
<text text-anchor="start" x="525" y="-172" font-family="Helvetica,sans-Serif" font-size="10.00">&#45;Type/R&#45;Type/Client</text>
<text text-anchor="middle" x="595" y="-161" font-family="Helvetica,sans-Serif" font-size="10.00">/src/engine/GameEngine.hpp</text>
</a>
</g>
</g>
<!-- Node1&#45;&gt;Node2 -->
<g id="edge1_Node000001_Node000002" class="edge">
<title>Node1&#45;&gt;Node2</title>
<g id="a_edge1_Node000001_Node000002"><a xlink:title=" ">
<path fill="none" stroke="#63b8ff" d="M780.35,-335.21C738.3,-327.23 689.07,-312.02 653,-283 624.58,-260.14 608.17,-219.47 600.46,-195.24"/>
<polygon fill="#63b8ff" stroke="#63b8ff" points="779.85,-338.68 790.31,-336.99 781.08,-331.79 779.85,-338.68"/>
</a>
</g>
</g>
<!-- Node10 -->
<g id="Node000010" class="node">
<title>Node10</title>
<g id="a_Node000010"><a xlink:href="InputSystem_8cpp.html" target="_top" xlink:title=" ">
<polygon fill="white" stroke="#666666" points="1066,-277.5 878,-277.5 878,-236.5 1066,-236.5 1066,-277.5"/>
<text text-anchor="start" x="886" y="-265.5" font-family="Helvetica,sans-Serif" font-size="10.00">/home/runner/work/R</text>
<text text-anchor="start" x="886" y="-254.5" font-family="Helvetica,sans-Serif" font-size="10.00">&#45;Type/R&#45;Type/Client</text>
<text text-anchor="middle" x="972" y="-243.5" font-family="Helvetica,sans-Serif" font-size="10.00">/src/engine/inputs/InputSystem.cpp</text>
</a>
</g>
</g>
<!-- Node1&#45;&gt;Node10 -->
<g id="edge13_Node000001_Node000010" class="edge">
<title>Node1&#45;&gt;Node10</title>
<g id="a_edge13_Node000001_Node000010"><a xlink:title=" ">
<path fill="none" stroke="#63b8ff" d="M904.78,-312.54C919.22,-300.82 935.18,-287.87 947.93,-277.53"/>
<polygon fill="#63b8ff" stroke="#63b8ff" points="902.51,-309.88 896.94,-318.89 906.92,-315.31 902.51,-309.88"/>
</a>
</g>
</g>
<!-- Node11 -->
<g id="Node000011" class="node">
<title>Node11</title>
<g id="a_Node000011"><a xlink:href="NetworkManager_8cpp.html" target="_top" xlink:title=" ">
<polygon fill="white" stroke="#666666" points="1241.5,-283 1084.5,-283 1084.5,-231 1241.5,-231 1241.5,-283"/>
<text text-anchor="start" x="1092.5" y="-271" font-family="Helvetica,sans-Serif" font-size="10.00">/home/runner/work/R</text>
<text text-anchor="start" x="1092.5" y="-260" font-family="Helvetica,sans-Serif" font-size="10.00">&#45;Type/R&#45;Type/Client</text>
<text text-anchor="start" x="1092.5" y="-249" font-family="Helvetica,sans-Serif" font-size="10.00">/src/engine/network/Network</text>
<text text-anchor="middle" x="1163" y="-238" font-family="Helvetica,sans-Serif" font-size="10.00">Manager.cpp</text>
</a>
</g>
</g>
<!-- Node1&#45;&gt;Node11 -->
<g id="edge14_Node000001_Node000011" class="edge">
<title>Node1&#45;&gt;Node11</title>
<g id="a_edge14_Node000001_Node000011"><a xlink:title=" ">
<path fill="none" stroke="#63b8ff" d="M951.34,-319.29C993.23,-307.16 1043.36,-292.64 1084.31,-280.78"/>
<polygon fill="#63b8ff" stroke="#63b8ff" points="950.35,-315.93 941.71,-322.08 952.29,-322.66 950.35,-315.93"/>
</a>
</g>
</g>
<!-- Node12 -->
<g id="Node000012" class="node">
<title>Node12</title>
<g id="a_Node000012"><a xlink:href="SceneManager_8hpp.html" target="_top" xlink:title=" ">
<polygon fill="white" stroke="#666666" points="859.5,-277.5 662.5,-277.5 662.5,-236.5 859.5,-236.5 859.5,-277.5"/>
<text text-anchor="start" x="670.5" y="-265.5" font-family="Helvetica,sans-Serif" font-size="10.00">/home/runner/work/R</text>
<text text-anchor="start" x="670.5" y="-254.5" font-family="Helvetica,sans-Serif" font-size="10.00">&#45;Type/R&#45;Type/Client</text>
<text text-anchor="middle" x="761" y="-243.5" font-family="Helvetica,sans-Serif" font-size="10.00">/src/engine/scene/SceneManager.hpp</text>
</a>
</g>
</g>
<!-- Node1&#45;&gt;Node12 -->
<g id="edge15_Node000001_Node000012" class="edge">
<title>Node1&#45;&gt;Node12</title>
<g id="a_edge15_Node000001_Node000012"><a xlink:title=" ">
<path fill="none" stroke="#63b8ff" d="M827.59,-312.54C813.28,-300.82 797.47,-287.87 784.85,-277.53"/>
<polygon fill="#63b8ff" stroke="#63b8ff" points="825.39,-315.27 835.35,-318.89 829.83,-309.85 825.39,-315.27"/>
</a>
</g>
</g>
<!-- Node3 -->
<g id="Node000003" class="node">
<title>Node3</title>
<g id="a_Node000003"><a xlink:href="Main_8cpp.html" target="_top" xlink:title=" ">
<polygon fill="white" stroke="#666666" points="842.5,-41 723.5,-41 723.5,0 842.5,0 842.5,-41"/>
<text text-anchor="start" x="731.5" y="-29" font-family="Helvetica,sans-Serif" font-size="10.00">/home/runner/work/R</text>
<text text-anchor="start" x="731.5" y="-18" font-family="Helvetica,sans-Serif" font-size="10.00">&#45;Type/R&#45;Type/Client</text>
<text text-anchor="middle" x="783" y="-7" font-family="Helvetica,sans-Serif" font-size="10.00">/src/Main.cpp</text>
</a>
</g>
</g>
<!-- Node2&#45;&gt;Node3 -->
<g id="edge2_Node000002_Node000003" class="edge">
<title>Node2&#45;&gt;Node3</title>
<g id="a_edge2_Node000002_Node000003"><a xlink:title=" ">
<path fill="none" stroke="#63b8ff" d="M506.92,-166.9C419.02,-157.04 303.61,-133.18 353,-77 377.07,-49.62 611.01,-31.89 723.36,-24.89"/>
<polygon fill="#63b8ff" stroke="#63b8ff" points="506.64,-170.39 516.95,-167.98 507.38,-163.43 506.64,-170.39"/>
</a>
</g>
</g>
<!-- Node4 -->
<g id="Node000004" class="node">
<title>Node4</title>
<g id="a_Node000004"><a xlink:href="GameEngine_8cpp.html" target="_top" xlink:title=" ">
<polygon fill="white" stroke="#666666" points="305.5,-118 150.5,-118 150.5,-77 305.5,-77 305.5,-118"/>
<text text-anchor="start" x="158.5" y="-106" font-family="Helvetica,sans-Serif" font-size="10.00">/home/runner/work/R</text>
<text text-anchor="start" x="158.5" y="-95" font-family="Helvetica,sans-Serif" font-size="10.00">&#45;Type/R&#45;Type/Client</text>
<text text-anchor="middle" x="228" y="-84" font-family="Helvetica,sans-Serif" font-size="10.00">/src/engine/GameEngine.cpp</text>
</a>
</g>
</g>
<!-- Node2&#45;&gt;Node4 -->
<g id="edge3_Node000002_Node000004" class="edge">
<title>Node2&#45;&gt;Node4</title>
<g id="a_edge3_Node000002_Node000004"><a xlink:title=" ">
<path fill="none" stroke="#63b8ff" d="M506.84,-155.94C452.87,-145.12 382.41,-130.91 320,-118 315.36,-117.04 310.6,-116.05 305.79,-115.04"/>
<polygon fill="#63b8ff" stroke="#63b8ff" points="506.23,-159.38 516.72,-157.91 507.61,-152.52 506.23,-159.38"/>
</a>
</g>
</g>
<!-- Node5 -->
<g id="Node000005" class="node">
<title>Node5</title>
<g id="a_Node000005"><a xlink:href="SceneManager_8cpp.html" target="_top" xlink:title=" ">
<polygon fill="white" stroke="#666666" points="880,-118 684,-118 684,-77 880,-77 880,-118"/>
<text text-anchor="start" x="692" y="-106" font-family="Helvetica,sans-Serif" font-size="10.00">/home/runner/work/R</text>
<text text-anchor="start" x="692" y="-95" font-family="Helvetica,sans-Serif" font-size="10.00">&#45;Type/R&#45;Type/Client</text>
<text text-anchor="middle" x="782" y="-84" font-family="Helvetica,sans-Serif" font-size="10.00">/src/engine/scene/SceneManager.cpp</text>
</a>
</g>
</g>
<!-- Node2&#45;&gt;Node5 -->
<g id="edge4_Node000002_Node000005" class="edge">
<title>Node2&#45;&gt;Node5</title>
<g id="a_edge4_Node000002_Node000005"><a xlink:title=" ">
<path fill="none" stroke="#63b8ff" d="M652.93,-150.27C678.69,-139.94 708.69,-127.9 733.28,-118.04"/>
<polygon fill="#63b8ff" stroke="#63b8ff" points="651.62,-147.02 643.64,-153.99 654.23,-153.52 651.62,-147.02"/>
</a>
</g>
</g>
<!-- Node6 -->
<g id="Node000006" class="node">
<title>Node6</title>
<g id="a_Node000006"><a xlink:href="JoinGame_8hpp.html" target="_top" xlink:title=" ">
<polygon fill="white" stroke="#666666" points="666,-118 524,-118 524,-77 666,-77 666,-118"/>
<text text-anchor="start" x="532" y="-106" font-family="Helvetica,sans-Serif" font-size="10.00">/home/runner/work/R</text>
<text text-anchor="start" x="532" y="-95" font-family="Helvetica,sans-Serif" font-size="10.00">&#45;Type/R&#45;Type/Client</text>
<text text-anchor="middle" x="595" y="-84" font-family="Helvetica,sans-Serif" font-size="10.00">/src/scenes/JoinGame.hpp</text>
</a>
</g>
</g>
<!-- Node2&#45;&gt;Node6 -->
<g id="edge5_Node000002_Node000006" class="edge">
<title>Node2&#45;&gt;Node6</title>
<g id="a_edge5_Node000002_Node000006"><a xlink:title=" ">
<path fill="none" stroke="#63b8ff" d="M595,-143.69C595,-135.08 595,-125.9 595,-118.07"/>
<polygon fill="#63b8ff" stroke="#63b8ff" points="591.5,-143.79 595,-153.79 598.5,-143.79 591.5,-143.79"/>
</a>
</g>
</g>
<!-- Node7 -->
<g id="Node000007" class="node">
<title>Node7</title>
<g id="a_Node000007"><a xlink:href="MainMenu_8hpp.html" target="_top" xlink:title=" ">
<polygon fill="white" stroke="#666666" points="1044,-118 898,-118 898,-77 1044,-77 1044,-118"/>
<text text-anchor="start" x="906" y="-106" font-family="Helvetica,sans-Serif" font-size="10.00">/home/runner/work/R</text>
<text text-anchor="start" x="906" y="-95" font-family="Helvetica,sans-Serif" font-size="10.00">&#45;Type/R&#45;Type/Client</text>
<text text-anchor="middle" x="971" y="-84" font-family="Helvetica,sans-Serif" font-size="10.00">/src/scenes/MainMenu.hpp</text>
</a>
</g>
</g>
<!-- Node2&#45;&gt;Node7 -->
<g id="edge7_Node000002_Node000007" class="edge">
<title>Node2&#45;&gt;Node7</title>
<g id="a_edge7_Node000002_Node000007"><a xlink:title=" ">
<path fill="none" stroke="#63b8ff" d="M683.14,-157.98C741.66,-147.4 820.09,-132.69 889,-118 891.86,-117.39 894.78,-116.76 897.72,-116.11"/>
<polygon fill="#63b8ff" stroke="#63b8ff" points="682.41,-154.55 673.19,-159.77 683.66,-161.44 682.41,-154.55"/>
</a>
</g>
</g>
<!-- Node8 -->
<g id="Node000008" class="node">
<title>Node8</title>
<g id="a_Node000008"><a xlink:href="Options_8hpp.html" target="_top" xlink:title=" ">
<polygon fill="white" stroke="#666666" points="132,-118 0,-118 0,-77 132,-77 132,-118"/>
<text text-anchor="start" x="8" y="-106" font-family="Helvetica,sans-Serif" font-size="10.00">/home/runner/work/R</text>
<text text-anchor="start" x="8" y="-95" font-family="Helvetica,sans-Serif" font-size="10.00">&#45;Type/R&#45;Type/Client</text>
<text text-anchor="middle" x="66" y="-84" font-family="Helvetica,sans-Serif" font-size="10.00">/src/scenes/Options.hpp</text>
</a>
</g>
</g>
<!-- Node2&#45;&gt;Node8 -->
<g id="edge9_Node000002_Node000008" class="edge">
<title>Node2&#45;&gt;Node8</title>
<g id="a_edge9_Node000002_Node000008"><a xlink:title=" ">
<path fill="none" stroke="#63b8ff" d="M506.9,-166.22C415.04,-157.82 267.13,-142 141,-118 138.09,-117.45 135.13,-116.84 132.15,-116.21"/>
<polygon fill="#63b8ff" stroke="#63b8ff" points="506.72,-169.72 516.99,-167.14 507.35,-162.75 506.72,-169.72"/>
</a>
</g>
</g>
<!-- Node9 -->
<g id="Node000009" class="node">
<title>Node9</title>
<g id="a_Node000009"><a xlink:href="WaitLobby_8hpp.html" target="_top" xlink:title=" ">
<polygon fill="white" stroke="#666666" points="506,-118 362,-118 362,-77 506,-77 506,-118"/>
<text text-anchor="start" x="370" y="-106" font-family="Helvetica,sans-Serif" font-size="10.00">/home/runner/work/R</text>
<text text-anchor="start" x="370" y="-95" font-family="Helvetica,sans-Serif" font-size="10.00">&#45;Type/R&#45;Type/Client</text>
<text text-anchor="middle" x="434" y="-84" font-family="Helvetica,sans-Serif" font-size="10.00">/src/scenes/WaitLobby.hpp</text>
</a>
</g>
</g>
<!-- Node2&#45;&gt;Node9 -->
<g id="edge11_Node000002_Node000009" class="edge">
<title>Node2&#45;&gt;Node9</title>
<g id="a_edge11_Node000002_Node000009"><a xlink:title=" ">
<path fill="none" stroke="#63b8ff" d="M543.96,-149.72C522.04,-139.51 496.75,-127.73 475.95,-118.04"/>
<polygon fill="#63b8ff" stroke="#63b8ff" points="542.58,-152.94 553.12,-153.99 545.53,-146.6 542.58,-152.94"/>
</a>
</g>
</g>
<!-- Node6&#45;&gt;Node3 -->
<g id="edge6_Node000006_Node000003" class="edge">
<title>Node6&#45;&gt;Node3</title>
<g id="a_edge6_Node000006_Node000003"><a xlink:title=" ">
<path fill="none" stroke="#63b8ff" d="M653.24,-73.27C679.14,-62.94 709.29,-50.9 734.01,-41.04"/>
<polygon fill="#63b8ff" stroke="#63b8ff" points="651.9,-70.03 643.9,-76.99 654.49,-76.54 651.9,-70.03"/>
</a>
</g>
</g>
<!-- Node7&#45;&gt;Node3 -->
<g id="edge8_Node000007_Node000003" class="edge">
<title>Node7&#45;&gt;Node3</title>
<g id="a_edge8_Node000007_Node000003"><a xlink:title=" ">
<path fill="none" stroke="#63b8ff" d="M912.76,-73.27C886.86,-62.94 856.71,-50.9 831.99,-41.04"/>
<polygon fill="#63b8ff" stroke="#63b8ff" points="911.51,-76.54 922.1,-76.99 914.1,-70.03 911.51,-76.54"/>
</a>
</g>
</g>
<!-- Node8&#45;&gt;Node3 -->
<g id="edge10_Node000008_Node000003" class="edge">
<title>Node8&#45;&gt;Node3</title>
<g id="a_edge10_Node000008_Node000003"><a xlink:title=" ">
<path fill="none" stroke="#63b8ff" d="M142.19,-76.95C360.96,-40.11 611.03,-27.45 723.27,-23.31"/>
<polygon fill="#63b8ff" stroke="#63b8ff" points="141.39,-73.53 132.12,-78.66 142.57,-80.43 141.39,-73.53"/>
</a>
</g>
</g>
<!-- Node9&#45;&gt;Node3 -->
<g id="edge12_Node000009_Node000003" class="edge">
<title>Node9&#45;&gt;Node3</title>
<g id="a_edge12_Node000009_Node000003"><a xlink:title=" ">
<path fill="none" stroke="#63b8ff" d="M516.25,-76.75C593.12,-59.64 671.12,-43.73 723.27,-33.3"/>
<polygon fill="#63b8ff" stroke="#63b8ff" points="515.39,-73.35 506.4,-78.95 516.92,-80.19 515.39,-73.35"/>
</a>
</g>
</g>
<!-- Node12&#45;&gt;Node2 -->
<g id="edge17_Node000012_Node000002" class="edge">
<title>Node12&#45;&gt;Node2</title>
<g id="a_edge17_Node000012_Node000002"><a xlink:title=" ">
<path fill="none" stroke="#63b8ff" d="M711.35,-231.92C687.12,-220.17 658.35,-206.22 635.48,-195.13"/>
<polygon fill="#63b8ff" stroke="#63b8ff" points="709.87,-235.09 720.39,-236.31 712.92,-228.79 709.87,-235.09"/>
</a>
</g>
</g>
<!-- Node12&#45;&gt;Node3 -->
<g id="edge16_Node000012_Node000003" class="edge">
<title>Node12&#45;&gt;Node3</title>
<g id="a_edge16_Node000012_Node000003"><a xlink:title=" ">
<path fill="none" stroke="#63b8ff" d="M830.11,-233.01C908.14,-205.49 1027.61,-158.09 1053,-118 1102.75,-39.47 936.23,-24.16 842.5,-21.62"/>
<polygon fill="#63b8ff" stroke="#63b8ff" points="828.61,-229.83 820.33,-236.43 830.92,-236.44 828.61,-229.83"/>
</a>
</g>
</g>
<!-- Node12&#45;&gt;Node5 -->
<g id="edge18_Node000012_Node000005" class="edge">
<title>Node12&#45;&gt;Node5</title>
<g id="a_edge18_Node000012_Node000005"><a xlink:title=" ">
<path fill="none" stroke="#63b8ff" d="M764.95,-226.39C769.16,-194.79 775.72,-145.63 779.35,-118.38"/>
<polygon fill="#63b8ff" stroke="#63b8ff" points="761.47,-226 763.62,-236.37 768.41,-226.92 761.47,-226"/>
</a>
</g>
</g>
<!-- Node12&#45;&gt;Node6 -->
<g id="edge21_Node000012_Node000006" class="edge">
<title>Node12&#45;&gt;Node6</title>
<g id="a_edge21_Node000012_Node000006"><a xlink:title=" ">
<path fill="none" stroke="#63b8ff" d="M754.4,-226.38C748.1,-204.05 736.58,-173.97 717,-154 701.52,-138.22 680.73,-126.5 660.7,-118.01"/>
<polygon fill="#63b8ff" stroke="#63b8ff" points="751.09,-227.55 757.02,-236.33 757.86,-225.77 751.09,-227.55"/>
</a>
</g>
</g>
<!-- Node12&#45;&gt;Node7 -->
<g id="edge24_Node000012_Node000007" class="edge">
<title>Node12&#45;&gt;Node7</title>
<g id="a_edge24_Node000012_Node000007"><a xlink:title=" ">
<path fill="none" stroke="#63b8ff" d="M795.41,-230.19C837.29,-198.78 907.08,-146.44 944.83,-118.13"/>
<polygon fill="#63b8ff" stroke="#63b8ff" points="793.07,-227.57 787.17,-236.37 797.27,-233.17 793.07,-227.57"/>
</a>
</g>
</g>
<!-- Node12&#45;&gt;Node8 -->
<g id="edge25_Node000012_Node000008" class="edge">
<title>Node12&#45;&gt;Node8</title>
<g id="a_edge25_Node000012_Node000008"><a xlink:title=" ">
<path fill="none" stroke="#63b8ff" d="M658.79,-234.41C535.68,-208.13 322.74,-161.84 141,-118 138.12,-117.31 135.19,-116.59 132.22,-115.85"/>
<polygon fill="#63b8ff" stroke="#63b8ff" points="658.08,-237.84 668.59,-236.5 659.54,-230.99 658.08,-237.84"/>
</a>
</g>
</g>
<!-- Node12&#45;&gt;Node9 -->
<g id="edge26_Node000012_Node000009" class="edge">
<title>Node12&#45;&gt;Node9</title>
<g id="a_edge26_Node000012_Node000009"><a xlink:title=" ">
<path fill="none" stroke="#63b8ff" d="M740.75,-227.86C720.02,-199.39 689.77,-158.9 682,-154 617.75,-113.54 589.03,-134.89 515,-118 512.18,-117.36 509.31,-116.69 506.4,-116.02"/>
<polygon fill="#63b8ff" stroke="#63b8ff" points="738.13,-230.22 746.84,-236.26 743.8,-226.11 738.13,-230.22"/>
</a>
</g>
</g>
<!-- Node13 -->
<g id="Node000013" class="node">
<title>Node13</title>
<g id="a_Node000013"><a xlink:href="GameOver_8hpp.html" target="_top" xlink:title=" ">
<polygon fill="white" stroke="#666666" points="1183,-195 1037,-195 1037,-154 1183,-154 1183,-195"/>
<text text-anchor="start" x="1045" y="-183" font-family="Helvetica,sans-Serif" font-size="10.00">/home/runner/work/R</text>
<text text-anchor="start" x="1045" y="-172" font-family="Helvetica,sans-Serif" font-size="10.00">&#45;Type/R&#45;Type/Client</text>
<text text-anchor="middle" x="1110" y="-161" font-family="Helvetica,sans-Serif" font-size="10.00">/src/scenes/GameOver.hpp</text>
</a>
</g>
</g>
<!-- Node12&#45;&gt;Node13 -->
<g id="edge19_Node000012_Node000013" class="edge">
<title>Node12&#45;&gt;Node13</title>
<g id="a_edge19_Node000012_Node000013"><a xlink:title=" ">
<path fill="none" stroke="#63b8ff" d="M855.41,-234.14C860.01,-233.08 864.56,-232.03 869,-231 925.37,-217.98 989.17,-203.29 1036.96,-192.3"/>
<polygon fill="#63b8ff" stroke="#63b8ff" points="854.26,-230.81 845.31,-236.47 855.84,-237.63 854.26,-230.81"/>
</a>
</g>
</g>
<!-- Node14 -->
<g id="Node000014" class="node">
<title>Node14</title>
<g id="a_Node000014"><a xlink:href="MainGame_8hpp.html" target="_top" xlink:title=" ">
<polygon fill="white" stroke="#666666" points="1349,-195 1201,-195 1201,-154 1349,-154 1349,-195"/>
<text text-anchor="start" x="1209" y="-183" font-family="Helvetica,sans-Serif" font-size="10.00">/home/runner/work/R</text>
<text text-anchor="start" x="1209" y="-172" font-family="Helvetica,sans-Serif" font-size="10.00">&#45;Type/R&#45;Type/Client</text>
<text text-anchor="middle" x="1275" y="-161" font-family="Helvetica,sans-Serif" font-size="10.00">/src/scenes/MainGame.hpp</text>
</a>
</g>
</g>
<!-- Node12&#45;&gt;Node14 -->
<g id="edge22_Node000012_Node000014" class="edge">
<title>Node12&#45;&gt;Node14</title>
<g id="a_edge22_Node000012_Node000014"><a xlink:title=" ">
<path fill="none" stroke="#63b8ff" d="M850.52,-234.44C856.76,-233.19 862.96,-232.03 869,-231 1011.38,-206.67 1049.66,-219.56 1192,-195 1194.92,-194.5 1197.89,-193.95 1200.88,-193.38"/>
<polygon fill="#63b8ff" stroke="#63b8ff" points="849.8,-231.01 840.71,-236.45 851.2,-237.87 849.8,-231.01"/>
</a>
</g>
</g>
<!-- Node13&#45;&gt;Node3 -->
<g id="edge20_Node000013_Node000003" class="edge">
<title>Node13&#45;&gt;Node3</title>
<g id="a_edge20_Node000013_Node000003"><a xlink:title=" ">
<path fill="none" stroke="#63b8ff" d="M1110.61,-143.51C1109.36,-121.98 1103.98,-93.89 1086,-77 1051.6,-44.69 920.6,-30.55 842.56,-24.88"/>
<polygon fill="#63b8ff" stroke="#63b8ff" points="1107.12,-143.89 1110.93,-153.78 1114.12,-143.67 1107.12,-143.89"/>
</a>
</g>
</g>
<!-- Node14&#45;&gt;Node3 -->
<g id="edge23_Node000014_Node000003" class="edge">
<title>Node14&#45;&gt;Node3</title>
<g id="a_edge23_Node000014_Node000003"><a xlink:title=" ">
<path fill="none" stroke="#63b8ff" d="M1240.13,-147.86C1208.15,-125.63 1158.66,-94.38 1111,-77 1020.93,-44.15 909.76,-30.57 842.72,-25.08"/>
<polygon fill="#63b8ff" stroke="#63b8ff" points="1238.48,-150.98 1248.67,-153.87 1242.51,-145.25 1238.48,-150.98"/>
</a>
</g>
</g>
</g>
</svg>
