<?xml version="1.0" encoding="UTF-8" standalone="no"?>
<!DOCTYPE svg PUBLIC "-//W3C//DTD SVG 1.1//EN"
 "http://www.w3.org/Graphics/SVG/1.1/DTD/svg11.dtd">
<!-- Generated by graphviz version 2.43.0 (0)
 -->
<!-- Title: /home/runner/work/R&#45;Type/R&#45;Type/Client/src/engine/network/NetworkManager.cpp Pages: 1 -->
<svg width="1445pt" height="225pt"
 viewBox="0.00 0.00 1445.00 225.00" xmlns="http://www.w3.org/2000/svg" xmlns:xlink="http://www.w3.org/1999/xlink">
<g id="graph0" class="graph" transform="scale(1 1) rotate(0) translate(4 221)">
<title>/home/runner/work/R&#45;Type/R&#45;Type/Client/src/engine/network/NetworkManager.cpp</title>
<!-- Node1 -->
<g id="Node000001" class="node">
<title>Node1</title>
<g id="a_Node000001"><a xlink:title=" ">
<polygon fill="#999999" stroke="#666666" points="1045.5,-217 888.5,-217 888.5,-165 1045.5,-165 1045.5,-217"/>
<text text-anchor="start" x="896.5" y="-205" font-family="Helvetica,sans-Serif" font-size="10.00">/home/runner/work/R</text>
<text text-anchor="start" x="896.5" y="-194" font-family="Helvetica,sans-Serif" font-size="10.00">&#45;Type/R&#45;Type/Client</text>
<text text-anchor="start" x="896.5" y="-183" font-family="Helvetica,sans-Serif" font-size="10.00">/src/engine/network/Network</text>
<text text-anchor="middle" x="967" y="-172" font-family="Helvetica,sans-Serif" font-size="10.00">Manager.cpp</text>
</a>
</g>
</g>
<!-- Node2 -->
<g id="Node000002" class="node">
<title>Node2</title>
<g id="a_Node000002"><a xlink:href="NetworkManager_8hpp.html" target="_top" xlink:title=" ">
<polygon fill="white" stroke="#666666" points="763.5,-129 604.5,-129 604.5,-110 763.5,-110 763.5,-129"/>
<text text-anchor="middle" x="684" y="-117" font-family="Helvetica,sans-Serif" font-size="10.00">include/NetworkManager.hpp</text>
</a>
</g>
</g>
<!-- Node1&#45;&gt;Node2 -->
<g id="edge1_Node000001_Node000002" class="edge">
<title>Node1&#45;&gt;Node2</title>
<g id="a_edge1_Node000001_Node000002"><a xlink:title=" ">
<path fill="none" stroke="#63b8ff" d="M888.17,-170.64C836.69,-158 771.34,-141.95 728.63,-131.46"/>
<polygon fill="#63b8ff" stroke="#63b8ff" points="729.36,-128.04 718.82,-129.05 727.69,-134.83 729.36,-128.04"/>
</a>
</g>
</g>
<!-- Node3 -->
<g id="Node000003" class="node">
<title>Node3</title>
<g id="a_Node000003"><a xlink:title=" ">
<polygon fill="#e0e0e0" stroke="#999999" points="50,-74 0,-74 0,-55 50,-55 50,-74"/>
<text text-anchor="middle" x="25" y="-62" font-family="Helvetica,sans-Serif" font-size="10.00">cstring</text>
</a>
</g>
</g>
<!-- Node1&#45;&gt;Node3 -->
<g id="edge17_Node000001_Node000003" class="edge">
<title>Node1&#45;&gt;Node3</title>
<g id="a_edge17_Node000001_Node000003"><a xlink:title=" ">
<path fill="none" stroke="#63b8ff" d="M888.43,-186.91C760.58,-181.02 499.87,-165.35 282,-129 201.59,-115.58 109.22,-90.27 60.07,-75.99"/>
<polygon fill="#63b8ff" stroke="#63b8ff" points="60.84,-72.57 50.26,-73.12 58.88,-79.29 60.84,-72.57"/>
</a>
</g>
</g>
<!-- Node6 -->
<g id="Node000006" class="node">
<title>Node6</title>
<g id="a_Node000006"><a xlink:title=" ">
<polygon fill="#e0e0e0" stroke="#999999" points="112,-74 68,-74 68,-55 112,-55 112,-74"/>
<text text-anchor="middle" x="90" y="-62" font-family="Helvetica,sans-Serif" font-size="10.00">string</text>
</a>
</g>
</g>
<!-- Node1&#45;&gt;Node6 -->
<g id="edge19_Node000001_Node000006" class="edge">
<title>Node1&#45;&gt;Node6</title>
<g id="a_edge19_Node000001_Node000006"><a xlink:title=" ">
<path fill="none" stroke="#63b8ff" d="M888.2,-183.86C777.78,-174.75 570.92,-155.78 396,-129 276.04,-110.64 243.96,-103.12 122.38,-74.21"/>
<polygon fill="#63b8ff" stroke="#63b8ff" points="122.84,-70.72 112.3,-71.82 121.22,-77.53 122.84,-70.72"/>
</a>
</g>
</g>
<!-- Node7 -->
<g id="Node000007" class="node">
<title>Node7</title>
<g id="a_Node000007"><a xlink:title=" ">
<polygon fill="#e0e0e0" stroke="#999999" points="178,-74 130,-74 130,-55 178,-55 178,-74"/>
<text text-anchor="middle" x="154" y="-62" font-family="Helvetica,sans-Serif" font-size="10.00">thread</text>
</a>
</g>
</g>
<!-- Node1&#45;&gt;Node7 -->
<g id="edge20_Node000001_Node000007" class="edge">
<title>Node1&#45;&gt;Node7</title>
<g id="a_edge20_Node000001_Node000007"><a xlink:title=" ">
<path fill="none" stroke="#63b8ff" d="M888.48,-181.08C749.1,-164.64 449.34,-126.56 188.14,-74.05"/>
<polygon fill="#63b8ff" stroke="#63b8ff" points="188.58,-70.56 178.08,-72.01 187.19,-77.43 188.58,-70.56"/>
</a>
</g>
</g>
<!-- Node8 -->
<g id="Node000008" class="node">
<title>Node8</title>
<g id="a_Node000008"><a xlink:title=" ">
<polygon fill="#e0e0e0" stroke="#999999" points="1129.5,-19 1082.5,-19 1082.5,0 1129.5,0 1129.5,-19"/>
<text text-anchor="middle" x="1106" y="-7" font-family="Helvetica,sans-Serif" font-size="10.00">vector</text>
</a>
</g>
</g>
<!-- Node1&#45;&gt;Node8 -->
<g id="edge21_Node000001_Node000008" class="edge">
<title>Node1&#45;&gt;Node8</title>
<g id="a_edge21_Node000001_Node000008"><a xlink:title=" ">
<path fill="none" stroke="#63b8ff" d="M966.69,-164.93C967.81,-147.41 972.17,-124.63 986,-110 1024.55,-69.23 1073.46,-118.98 1107,-74 1116.47,-61.31 1115,-42.87 1111.88,-29.13"/>
<polygon fill="#63b8ff" stroke="#63b8ff" points="1115.21,-28.05 1109.21,-19.32 1108.46,-29.89 1115.21,-28.05"/>
</a>
</g>
</g>
<!-- Node16 -->
<g id="Node000016" class="node">
<title>Node16</title>
<g id="a_Node000016"><a xlink:title=" ">
<polygon fill="#e0e0e0" stroke="#999999" points="1045,-129 995,-129 995,-110 1045,-110 1045,-129"/>
<text text-anchor="middle" x="1020" y="-117" font-family="Helvetica,sans-Serif" font-size="10.00">chrono</text>
</a>
</g>
</g>
<!-- Node1&#45;&gt;Node16 -->
<g id="edge16_Node000001_Node000016" class="edge">
<title>Node1&#45;&gt;Node16</title>
<g id="a_edge16_Node000001_Node000016"><a xlink:title=" ">
<path fill="none" stroke="#63b8ff" d="M986.13,-164.91C993.1,-155.77 1000.81,-145.67 1007.11,-137.41"/>
<polygon fill="#63b8ff" stroke="#63b8ff" points="1010.01,-139.38 1013.29,-129.3 1004.44,-135.13 1010.01,-139.38"/>
</a>
</g>
</g>
<!-- Node17 -->
<g id="Node000017" class="node">
<title>Node17</title>
<g id="a_Node000017"><a xlink:title=" ">
<polygon fill="#e0e0e0" stroke="#999999" points="1123,-129 1063,-129 1063,-110 1123,-110 1123,-129"/>
<text text-anchor="middle" x="1093" y="-117" font-family="Helvetica,sans-Serif" font-size="10.00">iostream</text>
</a>
</g>
</g>
<!-- Node1&#45;&gt;Node17 -->
<g id="edge18_Node000001_Node000017" class="edge">
<title>Node1&#45;&gt;Node17</title>
<g id="a_edge18_Node000001_Node000017"><a xlink:title=" ">
<path fill="none" stroke="#63b8ff" d="M1012.49,-164.91C1031.29,-154.54 1052.34,-142.93 1068.2,-134.18"/>
<polygon fill="#63b8ff" stroke="#63b8ff" points="1070.28,-137.03 1077.34,-129.14 1066.9,-130.9 1070.28,-137.03"/>
</a>
</g>
</g>
<!-- Node18 -->
<g id="Node000018" class="node">
<title>Node18</title>
<g id="a_Node000018"><a xlink:title=" ">
<polygon fill="#e0e0e0" stroke="#999999" points="1281,-129 1141,-129 1141,-110 1281,-110 1281,-129"/>
<text text-anchor="middle" x="1211" y="-117" font-family="Helvetica,sans-Serif" font-size="10.00">network/DecodeFunc.hpp</text>
</a>
</g>
</g>
<!-- Node1&#45;&gt;Node18 -->
<g id="edge22_Node000001_Node000018" class="edge">
<title>Node1&#45;&gt;Node18</title>
<g id="a_edge22_Node000001_Node000018"><a xlink:title=" ">
<path fill="none" stroke="#63b8ff" d="M1045.55,-167.63C1087.34,-155.72 1136.95,-141.59 1170.88,-131.93"/>
<polygon fill="#63b8ff" stroke="#63b8ff" points="1172.22,-135.19 1180.88,-129.08 1170.3,-128.45 1172.22,-135.19"/>
</a>
</g>
</g>
<!-- Node19 -->
<g id="Node000019" class="node">
<title>Node19</title>
<g id="a_Node000019"><a xlink:title=" ">
<polygon fill="#e0e0e0" stroke="#999999" points="1437,-129 1299,-129 1299,-110 1437,-110 1437,-129"/>
<text text-anchor="middle" x="1368" y="-117" font-family="Helvetica,sans-Serif" font-size="10.00">network/EncodeFunc.hpp</text>
</a>
</g>
</g>
<!-- Node1&#45;&gt;Node19 -->
<g id="edge23_Node000001_Node000019" class="edge">
<title>Node1&#45;&gt;Node19</title>
<g id="a_edge23_Node000001_Node000019"><a xlink:title=" ">
<path fill="none" stroke="#63b8ff" d="M1045.75,-176.35C1123.03,-162.96 1239.16,-142.83 1308.87,-130.75"/>
<polygon fill="#63b8ff" stroke="#63b8ff" points="1309.55,-134.18 1318.81,-129.03 1308.36,-127.28 1309.55,-134.18"/>
</a>
</g>
</g>
<!-- Node2&#45;&gt;Node3 -->
<g id="edge2_Node000002_Node000003" class="edge">
<title>Node2&#45;&gt;Node3</title>
<g id="a_edge2_Node000002_Node000003"><a xlink:title=" ">
<path fill="none" stroke="#63b8ff" d="M604.07,-117.25C486.7,-114.42 260.83,-105.25 60.28,-73.91"/>
<polygon fill="#63b8ff" stroke="#63b8ff" points="60.58,-70.41 50.15,-72.31 59.48,-77.33 60.58,-70.41"/>
</a>
</g>
</g>
<!-- Node4 -->
<g id="Node000004" class="node">
<title>Node4</title>
<g id="a_Node000004"><a xlink:title=" ">
<polygon fill="#e0e0e0" stroke="#999999" points="936,-74 888,-74 888,-55 936,-55 936,-74"/>
<text text-anchor="middle" x="912" y="-62" font-family="Helvetica,sans-Serif" font-size="10.00">mutex</text>
</a>
</g>
</g>
<!-- Node2&#45;&gt;Node4 -->
<g id="edge3_Node000002_Node000004" class="edge">
<title>Node2&#45;&gt;Node4</title>
<g id="a_edge3_Node000002_Node000004"><a xlink:title=" ">
<path fill="none" stroke="#63b8ff" d="M722.92,-109.95C760.26,-101.68 818.46,-88.58 877.93,-74.21"/>
<polygon fill="#63b8ff" stroke="#63b8ff" points="878.98,-77.56 887.87,-71.8 877.33,-70.75 878.98,-77.56"/>
</a>
</g>
</g>
<!-- Node5 -->
<g id="Node000005" class="node">
<title>Node5</title>
<g id="a_Node000005"><a xlink:title=" ">
<polygon fill="#e0e0e0" stroke="#999999" points="1001.5,-74 954.5,-74 954.5,-55 1001.5,-55 1001.5,-74"/>
<text text-anchor="middle" x="978" y="-62" font-family="Helvetica,sans-Serif" font-size="10.00">queue</text>
</a>
</g>
</g>
<!-- Node2&#45;&gt;Node5 -->
<g id="edge4_Node000002_Node000005" class="edge">
<title>Node2&#45;&gt;Node5</title>
<g id="a_edge4_Node000002_Node000005"><a xlink:title=" ">
<path fill="none" stroke="#63b8ff" d="M742.32,-109.98C793.11,-102.24 868.92,-89.91 944.14,-74.03"/>
<polygon fill="#63b8ff" stroke="#63b8ff" points="945.21,-77.38 954.26,-71.87 943.75,-70.53 945.21,-77.38"/>
</a>
</g>
</g>
<!-- Node2&#45;&gt;Node6 -->
<g id="edge5_Node000002_Node000006" class="edge">
<title>Node2&#45;&gt;Node6</title>
<g id="a_edge5_Node000002_Node000006"><a xlink:title=" ">
<path fill="none" stroke="#63b8ff" d="M604.15,-116.92C496.53,-113.74 298.97,-104.19 122.24,-73.88"/>
<polygon fill="#63b8ff" stroke="#63b8ff" points="122.69,-70.41 112.24,-72.14 121.49,-77.3 122.69,-70.41"/>
</a>
</g>
</g>
<!-- Node2&#45;&gt;Node7 -->
<g id="edge6_Node000002_Node000007" class="edge">
<title>Node2&#45;&gt;Node7</title>
<g id="a_edge6_Node000002_Node000007"><a xlink:title=" ">
<path fill="none" stroke="#63b8ff" d="M604.37,-112.96C489.23,-104.68 280.77,-88.66 187.99,-73.84"/>
<polygon fill="#63b8ff" stroke="#63b8ff" points="188.49,-70.37 178.05,-72.18 187.34,-77.28 188.49,-70.37"/>
</a>
</g>
</g>
<!-- Node2&#45;&gt;Node8 -->
<g id="edge7_Node000002_Node000008" class="edge">
<title>Node2&#45;&gt;Node8</title>
<g id="a_edge7_Node000002_Node000008"><a xlink:title=" ">
<path fill="none" stroke="#63b8ff" d="M763.95,-114.37C874.37,-107.97 1062.74,-94.23 1087,-74 1099.97,-63.18 1104.31,-43.9 1105.66,-29.41"/>
<polygon fill="#63b8ff" stroke="#63b8ff" points="1109.17,-29.24 1106.2,-19.07 1102.18,-28.87 1109.17,-29.24"/>
</a>
</g>
</g>
<!-- Node9 -->
<g id="Node000009" class="node">
<title>Node9</title>
<g id="a_Node000009"><a xlink:title=" ">
<polygon fill="#e0e0e0" stroke="#999999" points="1078,-74 1020,-74 1020,-55 1078,-55 1078,-74"/>
<text text-anchor="middle" x="1049" y="-62" font-family="Helvetica,sans-Serif" font-size="10.00">asio.hpp</text>
</a>
</g>
</g>
<!-- Node2&#45;&gt;Node9 -->
<g id="edge8_Node000002_Node000009" class="edge">
<title>Node2&#45;&gt;Node9</title>
<g id="a_edge8_Node000002_Node000009"><a xlink:title=" ">
<path fill="none" stroke="#63b8ff" d="M760.27,-109.98C824.39,-102.39 918.66,-90.23 1009.66,-74.11"/>
<polygon fill="#63b8ff" stroke="#63b8ff" points="1010.36,-77.54 1019.59,-72.34 1009.13,-70.65 1010.36,-77.54"/>
</a>
</g>
</g>
<!-- Node10 -->
<g id="Node000010" class="node">
<title>Node10</title>
<g id="a_Node000010"><a xlink:href="CircularBuffer_8hpp.html" target="_top" xlink:title=" ">
<polygon fill="white" stroke="#666666" points="338,-74 196,-74 196,-55 338,-55 338,-74"/>
<text text-anchor="middle" x="267" y="-62" font-family="Helvetica,sans-Serif" font-size="10.00">include/CircularBuffer.hpp</text>
</a>
</g>
</g>
<!-- Node2&#45;&gt;Node10 -->
<g id="edge9_Node000002_Node000010" class="edge">
<title>Node2&#45;&gt;Node10</title>
<g id="a_edge9_Node000002_Node000010"><a xlink:title=" ">
<path fill="none" stroke="#63b8ff" d="M617,-109.98C542.64,-100.53 422.81,-85.3 344.47,-75.35"/>
<polygon fill="#63b8ff" stroke="#63b8ff" points="344.54,-71.83 334.18,-74.04 343.66,-78.77 344.54,-71.83"/>
</a>
</g>
</g>
<!-- Node12 -->
<g id="Node000012" class="node">
<title>Node12</title>
<g id="a_Node000012"><a xlink:title=" ">
<polygon fill="#e0e0e0" stroke="#999999" points="467.5,-74 356.5,-74 356.5,-55 467.5,-55 467.5,-74"/>
<text text-anchor="middle" x="412" y="-62" font-family="Helvetica,sans-Serif" font-size="10.00">network/Action.hpp</text>
</a>
</g>
</g>
<!-- Node2&#45;&gt;Node12 -->
<g id="edge12_Node000002_Node000012" class="edge">
<title>Node2&#45;&gt;Node12</title>
<g id="a_edge12_Node000002_Node000012"><a xlink:title=" ">
<path fill="none" stroke="#63b8ff" d="M640.3,-109.98C592.85,-100.74 517.03,-85.97 465.92,-76.01"/>
<polygon fill="#63b8ff" stroke="#63b8ff" points="466.53,-72.56 456.04,-74.08 465.19,-79.43 466.53,-72.56"/>
</a>
</g>
</g>
<!-- Node13 -->
<g id="Node000013" class="node">
<title>Node13</title>
<g id="a_Node000013"><a xlink:title=" ">
<polygon fill="#e0e0e0" stroke="#999999" points="606,-74 486,-74 486,-55 606,-55 606,-74"/>
<text text-anchor="middle" x="546" y="-62" font-family="Helvetica,sans-Serif" font-size="10.00">network/Decoder.hpp</text>
</a>
</g>
</g>
<!-- Node2&#45;&gt;Node13 -->
<g id="edge13_Node000002_Node000013" class="edge">
<title>Node2&#45;&gt;Node13</title>
<g id="a_edge13_Node000002_Node000013"><a xlink:title=" ">
<path fill="none" stroke="#63b8ff" d="M661.83,-109.98C639.23,-101.3 603.94,-87.75 578.25,-77.88"/>
<polygon fill="#63b8ff" stroke="#63b8ff" points="579.17,-74.49 568.58,-74.17 576.66,-81.02 579.17,-74.49"/>
</a>
</g>
</g>
<!-- Node14 -->
<g id="Node000014" class="node">
<title>Node14</title>
<g id="a_Node000014"><a xlink:title=" ">
<polygon fill="#e0e0e0" stroke="#999999" points="743.5,-74 624.5,-74 624.5,-55 743.5,-55 743.5,-74"/>
<text text-anchor="middle" x="684" y="-62" font-family="Helvetica,sans-Serif" font-size="10.00">network/Encoder.hpp</text>
</a>
</g>
</g>
<!-- Node2&#45;&gt;Node14 -->
<g id="edge14_Node000002_Node000014" class="edge">
<title>Node2&#45;&gt;Node14</title>
<g id="a_edge14_Node000002_Node000014"><a xlink:title=" ">
<path fill="none" stroke="#63b8ff" d="M684,-109.75C684,-102.8 684,-92.85 684,-84.13"/>
<polygon fill="#63b8ff" stroke="#63b8ff" points="687.5,-84.09 684,-74.09 680.5,-84.09 687.5,-84.09"/>
</a>
</g>
</g>
<!-- Node15 -->
<g id="Node000015" class="node">
<title>Node15</title>
<g id="a_Node000015"><a xlink:title=" ">
<polygon fill="#e0e0e0" stroke="#999999" points="870,-74 762,-74 762,-55 870,-55 870,-74"/>
<text text-anchor="middle" x="816" y="-62" font-family="Helvetica,sans-Serif" font-size="10.00">network/Event.hpp</text>
</a>
</g>
</g>
<!-- Node2&#45;&gt;Node15 -->
<g id="edge15_Node000002_Node000015" class="edge">
<title>Node2&#45;&gt;Node15</title>
<g id="a_edge15_Node000002_Node000015"><a xlink:title=" ">
<path fill="none" stroke="#63b8ff" d="M705.21,-109.98C726.73,-101.34 760.28,-87.87 784.83,-78.02"/>
<polygon fill="#63b8ff" stroke="#63b8ff" points="786.43,-81.14 794.41,-74.17 783.82,-74.65 786.43,-81.14"/>
</a>
</g>
</g>
<!-- Node10&#45;&gt;Node8 -->
<g id="edge11_Node000010_Node000008" class="edge">
<title>Node10&#45;&gt;Node8</title>
<g id="a_edge11_Node000010_Node000008"><a xlink:title=" ">
<path fill="none" stroke="#63b8ff" d="M338.1,-55.85C341.45,-55.55 344.76,-55.27 348,-55 627.45,-32.15 965.79,-16.55 1072.26,-11.93"/>
<polygon fill="#63b8ff" stroke="#63b8ff" points="1072.55,-15.42 1082.39,-11.49 1072.25,-8.42 1072.55,-15.42"/>
</a>
</g>
</g>
<!-- Node11 -->
<g id="Node000011" class="node">
<title>Node11</title>
<g id="a_Node000011"><a xlink:title=" ">
<polygon fill="#e0e0e0" stroke="#999999" points="295,-19 239,-19 239,0 295,0 295,-19"/>
<text text-anchor="middle" x="267" y="-7" font-family="Helvetica,sans-Serif" font-size="10.00">optional</text>
</a>
</g>
</g>
<!-- Node10&#45;&gt;Node11 -->
<g id="edge10_Node000010_Node000011" class="edge">
<title>Node10&#45;&gt;Node11</title>
<g id="a_edge10_Node000010_Node000011"><a xlink:title=" ">
<path fill="none" stroke="#63b8ff" d="M267,-54.75C267,-47.8 267,-37.85 267,-29.13"/>
<polygon fill="#63b8ff" stroke="#63b8ff" points="270.5,-29.09 267,-19.09 263.5,-29.09 270.5,-29.09"/>
</a>
</g>
</g>
</g>
</svg>
