<?xml version="1.0" encoding="UTF-8" standalone="no"?>
<!DOCTYPE svg PUBLIC "-//W3C//DTD SVG 1.1//EN"
 "http://www.w3.org/Graphics/SVG/1.1/DTD/svg11.dtd">
<!-- Generated by graphviz version 2.43.0 (0)
 -->
<!-- Title: /home/runner/work/R&#45;Type/R&#45;Type/Client/src/engine/network/NetworkManager.cpp Pages: 1 -->
<svg width="1276pt" height="280pt"
 viewBox="0.00 0.00 1276.48 280.00" xmlns="http://www.w3.org/2000/svg" xmlns:xlink="http://www.w3.org/1999/xlink">
<g id="graph0" class="graph" transform="scale(1 1) rotate(0) translate(4 276)">
<title>/home/runner/work/R&#45;Type/R&#45;Type/Client/src/engine/network/NetworkManager.cpp</title>
<!-- Node1 -->
<g id="Node000001" class="node">
<title>Node1</title>
<g id="a_Node000001"><a xlink:title=" ">
<polygon fill="#999999" stroke="#666666" points="916.98,-272 759.98,-272 759.98,-220 916.98,-220 916.98,-272"/>
<text text-anchor="start" x="767.98" y="-260" font-family="Helvetica,sans-Serif" font-size="10.00">/home/runner/work/R</text>
<text text-anchor="start" x="767.98" y="-249" font-family="Helvetica,sans-Serif" font-size="10.00">&#45;Type/R&#45;Type/Client</text>
<text text-anchor="start" x="767.98" y="-238" font-family="Helvetica,sans-Serif" font-size="10.00">/src/engine/network/Network</text>
<text text-anchor="middle" x="838.48" y="-227" font-family="Helvetica,sans-Serif" font-size="10.00">Manager.cpp</text>
</a>
</g>
</g>
<!-- Node2 -->
<g id="Node000002" class="node">
<title>Node2</title>
<g id="a_Node000002"><a xlink:href="NetworkManager_8hpp.html" target="_top" xlink:title=" ">
<polygon fill="white" stroke="#666666" points="707.98,-184 548.98,-184 548.98,-165 707.98,-165 707.98,-184"/>
<text text-anchor="middle" x="628.48" y="-172" font-family="Helvetica,sans-Serif" font-size="10.00">include/NetworkManager.hpp</text>
</a>
</g>
</g>
<!-- Node1&#45;&gt;Node2 -->
<g id="edge1_Node000001_Node000002" class="edge">
<title>Node1&#45;&gt;Node2</title>
<g id="a_edge1_Node000001_Node000002"><a xlink:title=" ">
<path fill="none" stroke="#63b8ff" d="M762.66,-219.91C729.02,-208.77 691.02,-196.2 664.08,-187.28"/>
<polygon fill="#63b8ff" stroke="#63b8ff" points="664.91,-183.87 654.32,-184.05 662.72,-190.52 664.91,-183.87"/>
</a>
</g>
</g>
<!-- Node3 -->
<g id="Node000003" class="node">
<title>Node3</title>
<g id="a_Node000003"><a xlink:title=" ">
<polygon fill="#e0e0e0" stroke="#999999" points="71.48,-129 21.48,-129 21.48,-110 71.48,-110 71.48,-129"/>
<text text-anchor="middle" x="46.48" y="-117" font-family="Helvetica,sans-Serif" font-size="10.00">cstring</text>
</a>
</g>
</g>
<!-- Node1&#45;&gt;Node3 -->
<g id="edge36_Node000001_Node000003" class="edge">
<title>Node1&#45;&gt;Node3</title>
<g id="a_edge36_Node000001_Node000003"><a xlink:title=" ">
<path fill="none" stroke="#63b8ff" d="M759.77,-243.6C641.19,-240.08 410.27,-227.67 219.48,-184 166.54,-171.88 107.75,-147.92 74.13,-133.14"/>
<polygon fill="#63b8ff" stroke="#63b8ff" points="75.51,-129.92 64.95,-129.06 72.66,-136.32 75.51,-129.92"/>
</a>
</g>
</g>
<!-- Node6 -->
<g id="Node000006" class="node">
<title>Node6</title>
<g id="a_Node000006"><a xlink:title=" ">
<polygon fill="#e0e0e0" stroke="#999999" points="1026.48,-19 982.48,-19 982.48,0 1026.48,0 1026.48,-19"/>
<text text-anchor="middle" x="1004.48" y="-7" font-family="Helvetica,sans-Serif" font-size="10.00">string</text>
</a>
</g>
</g>
<!-- Node1&#45;&gt;Node6 -->
<g id="edge38_Node000001_Node000006" class="edge">
<title>Node1&#45;&gt;Node6</title>
<g id="a_edge38_Node000001_Node000006"><a xlink:title=" ">
<path fill="none" stroke="#63b8ff" d="M917.01,-232.68C976.85,-218.7 1055.26,-189.42 1093.48,-129 1118.61,-89.28 1062.55,-45.91 1028.38,-24.32"/>
<polygon fill="#63b8ff" stroke="#63b8ff" points="1030.18,-21.31 1019.82,-19.07 1026.52,-27.28 1030.18,-21.31"/>
</a>
</g>
</g>
<!-- Node7 -->
<g id="Node000007" class="node">
<title>Node7</title>
<g id="a_Node000007"><a xlink:title=" ">
<polygon fill="#e0e0e0" stroke="#999999" points="1084.48,-129 1036.48,-129 1036.48,-110 1084.48,-110 1084.48,-129"/>
<text text-anchor="middle" x="1060.48" y="-117" font-family="Helvetica,sans-Serif" font-size="10.00">thread</text>
</a>
</g>
</g>
<!-- Node1&#45;&gt;Node7 -->
<g id="edge39_Node000001_Node000007" class="edge">
<title>Node1&#45;&gt;Node7</title>
<g id="a_edge39_Node000001_Node000007"><a xlink:title=" ">
<path fill="none" stroke="#63b8ff" d="M883.14,-219.96C929.16,-194.14 999.23,-154.85 1036,-134.23"/>
<polygon fill="#63b8ff" stroke="#63b8ff" points="1038.01,-137.12 1045.02,-129.17 1034.58,-131.01 1038.01,-137.12"/>
</a>
</g>
</g>
<!-- Node8 -->
<g id="Node000008" class="node">
<title>Node8</title>
<g id="a_Node000008"><a xlink:title=" ">
<polygon fill="#e0e0e0" stroke="#999999" points="415.98,-19 368.98,-19 368.98,0 415.98,0 415.98,-19"/>
<text text-anchor="middle" x="392.48" y="-7" font-family="Helvetica,sans-Serif" font-size="10.00">vector</text>
</a>
</g>
</g>
<!-- Node1&#45;&gt;Node8 -->
<g id="edge40_Node000001_Node000008" class="edge">
<title>Node1&#45;&gt;Node8</title>
<g id="a_edge40_Node000001_Node000008"><a xlink:title=" ">
<path fill="none" stroke="#63b8ff" d="M759.75,-244.84C631.09,-243.06 368.48,-233.06 152.48,-184 84.46,-168.55 45.23,-186.32 5.48,-129 -13.94,-100.99 25.04,-64.79 40.48,-55 92.9,-21.77 280.92,-13.28 358.56,-11.17"/>
<polygon fill="#63b8ff" stroke="#63b8ff" points="358.85,-14.67 368.76,-10.92 358.68,-7.67 358.85,-14.67"/>
</a>
</g>
</g>
<!-- Node21 -->
<g id="Node000021" class="node">
<title>Node21</title>
<g id="a_Node000021"><a xlink:title=" ">
<polygon fill="#e0e0e0" stroke="#999999" points="1190.48,-184 1140.48,-184 1140.48,-165 1190.48,-165 1190.48,-184"/>
<text text-anchor="middle" x="1165.48" y="-172" font-family="Helvetica,sans-Serif" font-size="10.00">chrono</text>
</a>
</g>
</g>
<!-- Node1&#45;&gt;Node21 -->
<g id="edge35_Node000001_Node000021" class="edge">
<title>Node1&#45;&gt;Node21</title>
<g id="a_edge35_Node000001_Node000021"><a xlink:title=" ">
<path fill="none" stroke="#63b8ff" d="M917.04,-228.49C974.96,-216.29 1055.65,-199.22 1126.48,-184 1127.74,-183.73 1129.02,-183.45 1130.31,-183.18"/>
<polygon fill="#63b8ff" stroke="#63b8ff" points="1131.28,-186.55 1140.31,-181.01 1129.79,-179.71 1131.28,-186.55"/>
</a>
</g>
</g>
<!-- Node22 -->
<g id="Node000022" class="node">
<title>Node22</title>
<g id="a_Node000022"><a xlink:title=" ">
<polygon fill="#e0e0e0" stroke="#999999" points="1268.48,-184 1208.48,-184 1208.48,-165 1268.48,-165 1268.48,-184"/>
<text text-anchor="middle" x="1238.48" y="-172" font-family="Helvetica,sans-Serif" font-size="10.00">iostream</text>
</a>
</g>
</g>
<!-- Node1&#45;&gt;Node22 -->
<g id="edge37_Node000001_Node000022" class="edge">
<title>Node1&#45;&gt;Node22</title>
<g id="a_edge37_Node000001_Node000022"><a xlink:title=" ">
<path fill="none" stroke="#63b8ff" d="M917.19,-232.8C988.16,-221.54 1095.62,-203.88 1198.35,-184.15"/>
<polygon fill="#63b8ff" stroke="#63b8ff" points="1199.12,-187.56 1208.27,-182.23 1197.79,-180.69 1199.12,-187.56"/>
</a>
</g>
</g>
<!-- Node23 -->
<g id="Node000023" class="node">
<title>Node23</title>
<g id="a_Node000023"><a xlink:href="DecodeFunc_8hpp.html" target="_top" xlink:title=" ">
<polygon fill="white" stroke="#666666" points="908.48,-184 768.48,-184 768.48,-165 908.48,-165 908.48,-184"/>
<text text-anchor="middle" x="838.48" y="-172" font-family="Helvetica,sans-Serif" font-size="10.00">network/DecodeFunc.hpp</text>
</a>
</g>
</g>
<!-- Node1&#45;&gt;Node23 -->
<g id="edge41_Node000001_Node000023" class="edge">
<title>Node1&#45;&gt;Node23</title>
<g id="a_edge41_Node000001_Node000023"><a xlink:title=" ">
<path fill="none" stroke="#63b8ff" d="M838.48,-219.91C838.48,-211.55 838.48,-202.38 838.48,-194.55"/>
<polygon fill="#63b8ff" stroke="#63b8ff" points="841.98,-194.3 838.48,-184.3 834.98,-194.3 841.98,-194.3"/>
</a>
</g>
</g>
<!-- Node24 -->
<g id="Node000024" class="node">
<title>Node24</title>
<g id="a_Node000024"><a xlink:href="EncodeFunc_8hpp.html" target="_top" xlink:title=" ">
<polygon fill="white" stroke="#666666" points="366.48,-184 228.48,-184 228.48,-165 366.48,-165 366.48,-184"/>
<text text-anchor="middle" x="297.48" y="-172" font-family="Helvetica,sans-Serif" font-size="10.00">network/EncodeFunc.hpp</text>
</a>
</g>
</g>
<!-- Node1&#45;&gt;Node24 -->
<g id="edge46_Node000001_Node000024" class="edge">
<title>Node1&#45;&gt;Node24</title>
<g id="a_edge46_Node000001_Node000024"><a xlink:title=" ">
<path fill="none" stroke="#63b8ff" d="M759.81,-234.89C656.44,-221.61 476.05,-198.44 373.83,-185.31"/>
<polygon fill="#63b8ff" stroke="#63b8ff" points="374.25,-181.83 363.89,-184.03 373.36,-188.78 374.25,-181.83"/>
</a>
</g>
</g>
<!-- Node2&#45;&gt;Node3 -->
<g id="edge2_Node000002_Node000003" class="edge">
<title>Node2&#45;&gt;Node3</title>
<g id="a_edge2_Node000002_Node000003"><a xlink:title=" ">
<path fill="none" stroke="#63b8ff" d="M548.97,-170.29C442.82,-165.26 249.19,-153.44 85.48,-129 84.21,-128.81 82.91,-128.6 81.61,-128.38"/>
<polygon fill="#63b8ff" stroke="#63b8ff" points="82.04,-124.9 71.56,-126.48 80.74,-131.78 82.04,-124.9"/>
</a>
</g>
</g>
<!-- Node4 -->
<g id="Node000004" class="node">
<title>Node4</title>
<g id="a_Node000004"><a xlink:title=" ">
<polygon fill="#e0e0e0" stroke="#999999" points="652.48,-129 604.48,-129 604.48,-110 652.48,-110 652.48,-129"/>
<text text-anchor="middle" x="628.48" y="-117" font-family="Helvetica,sans-Serif" font-size="10.00">mutex</text>
</a>
</g>
</g>
<!-- Node2&#45;&gt;Node4 -->
<g id="edge3_Node000002_Node000004" class="edge">
<title>Node2&#45;&gt;Node4</title>
<g id="a_edge3_Node000002_Node000004"><a xlink:title=" ">
<path fill="none" stroke="#63b8ff" d="M628.48,-164.75C628.48,-157.8 628.48,-147.85 628.48,-139.13"/>
<polygon fill="#63b8ff" stroke="#63b8ff" points="631.98,-139.09 628.48,-129.09 624.98,-139.09 631.98,-139.09"/>
</a>
</g>
</g>
<!-- Node5 -->
<g id="Node000005" class="node">
<title>Node5</title>
<g id="a_Node000005"><a xlink:title=" ">
<polygon fill="#e0e0e0" stroke="#999999" points="509.98,-129 462.98,-129 462.98,-110 509.98,-110 509.98,-129"/>
<text text-anchor="middle" x="486.48" y="-117" font-family="Helvetica,sans-Serif" font-size="10.00">queue</text>
</a>
</g>
</g>
<!-- Node2&#45;&gt;Node5 -->
<g id="edge4_Node000002_Node000005" class="edge">
<title>Node2&#45;&gt;Node5</title>
<g id="a_edge4_Node000002_Node000005"><a xlink:title=" ">
<path fill="none" stroke="#63b8ff" d="M605.66,-164.98C582.31,-156.27 545.77,-142.63 519.31,-132.75"/>
<polygon fill="#63b8ff" stroke="#63b8ff" points="520.3,-129.39 509.71,-129.17 517.85,-135.95 520.3,-129.39"/>
</a>
</g>
</g>
<!-- Node2&#45;&gt;Node6 -->
<g id="edge5_Node000002_Node000006" class="edge">
<title>Node2&#45;&gt;Node6</title>
<g id="a_edge5_Node000002_Node000006"><a xlink:title=" ">
<path fill="none" stroke="#63b8ff" d="M708.15,-165.94C759.23,-159.56 826.43,-148.27 883.48,-129 933.76,-112.02 956.85,-115.86 989.48,-74 999.38,-61.3 1002.91,-43.12 1004.09,-29.46"/>
<polygon fill="#63b8ff" stroke="#63b8ff" points="1007.6,-29.44 1004.62,-19.27 1000.61,-29.08 1007.6,-29.44"/>
</a>
</g>
</g>
<!-- Node2&#45;&gt;Node7 -->
<g id="edge6_Node000002_Node000007" class="edge">
<title>Node2&#45;&gt;Node7</title>
<g id="a_edge6_Node000002_Node000007"><a xlink:title=" ">
<path fill="none" stroke="#63b8ff" d="M697.89,-164.98C791.58,-153.49 954.95,-133.45 1025.92,-124.74"/>
<polygon fill="#63b8ff" stroke="#63b8ff" points="1026.6,-128.18 1036.1,-123.49 1025.75,-121.23 1026.6,-128.18"/>
</a>
</g>
</g>
<!-- Node2&#45;&gt;Node8 -->
<g id="edge7_Node000002_Node000008" class="edge">
<title>Node2&#45;&gt;Node8</title>
<g id="a_edge7_Node000002_Node000008"><a xlink:title=" ">
<path fill="none" stroke="#63b8ff" d="M548.76,-169.35C408.93,-161.67 132.8,-144.62 118.48,-129 45.79,-49.7 271.1,-21.09 358.96,-13.1"/>
<polygon fill="#63b8ff" stroke="#63b8ff" points="359.3,-16.59 368.96,-12.23 358.69,-9.61 359.3,-16.59"/>
</a>
</g>
</g>
<!-- Node9 -->
<g id="Node000009" class="node">
<title>Node9</title>
<g id="a_Node000009"><a xlink:title=" ">
<polygon fill="#e0e0e0" stroke="#999999" points="586.48,-129 528.48,-129 528.48,-110 586.48,-110 586.48,-129"/>
<text text-anchor="middle" x="557.48" y="-117" font-family="Helvetica,sans-Serif" font-size="10.00">asio.hpp</text>
</a>
</g>
</g>
<!-- Node2&#45;&gt;Node9 -->
<g id="edge8_Node000002_Node000009" class="edge">
<title>Node2&#45;&gt;Node9</title>
<g id="a_edge8_Node000002_Node000009"><a xlink:title=" ">
<path fill="none" stroke="#63b8ff" d="M617.07,-164.98C606.37,-157 590.14,-144.88 577.32,-135.31"/>
<polygon fill="#63b8ff" stroke="#63b8ff" points="579.2,-132.35 569.09,-129.17 575.01,-137.96 579.2,-132.35"/>
</a>
</g>
</g>
<!-- Node10 -->
<g id="Node000010" class="node">
<title>Node10</title>
<g id="a_Node000010"><a xlink:href="CircularBuffer_8hpp.html" target="_top" xlink:title=" ">
<polygon fill="white" stroke="#666666" points="269.48,-129 127.48,-129 127.48,-110 269.48,-110 269.48,-129"/>
<text text-anchor="middle" x="198.48" y="-117" font-family="Helvetica,sans-Serif" font-size="10.00">include/CircularBuffer.hpp</text>
</a>
</g>
</g>
<!-- Node2&#45;&gt;Node10 -->
<g id="edge9_Node000002_Node000010" class="edge">
<title>Node2&#45;&gt;Node10</title>
<g id="a_edge9_Node000002_Node000010"><a xlink:title=" ">
<path fill="none" stroke="#63b8ff" d="M559.39,-164.98C482.55,-155.51 358.64,-140.24 277.87,-130.29"/>
<polygon fill="#63b8ff" stroke="#63b8ff" points="278.1,-126.79 267.75,-129.04 277.25,-133.74 278.1,-126.79"/>
</a>
</g>
</g>
<!-- Node12 -->
<g id="Node000012" class="node">
<title>Node12</title>
<g id="a_Node000012"><a xlink:href="Action_8hpp.html" target="_top" xlink:title=" ">
<polygon fill="white" stroke="#666666" points="853.98,-74 742.98,-74 742.98,-55 853.98,-55 853.98,-74"/>
<text text-anchor="middle" x="798.48" y="-62" font-family="Helvetica,sans-Serif" font-size="10.00">network/Action.hpp</text>
</a>
</g>
</g>
<!-- Node2&#45;&gt;Node12 -->
<g id="edge12_Node000002_Node000012" class="edge">
<title>Node2&#45;&gt;Node12</title>
<g id="a_edge12_Node000002_Node000012"><a xlink:title=" ">
<path fill="none" stroke="#63b8ff" d="M707.98,-166.84C759.95,-160.64 821.11,-149.22 837.48,-129 849.84,-113.73 833.81,-94.23 818.72,-80.89"/>
<polygon fill="#63b8ff" stroke="#63b8ff" points="820.56,-77.87 810.62,-74.18 816.09,-83.26 820.56,-77.87"/>
</a>
</g>
</g>
<!-- Node15 -->
<g id="Node000015" class="node">
<title>Node15</title>
<g id="a_Node000015"><a xlink:href="Decoder_8hpp.html" target="_top" xlink:title=" ">
<polygon fill="white" stroke="#666666" points="828.48,-129 708.48,-129 708.48,-110 828.48,-110 828.48,-129"/>
<text text-anchor="middle" x="768.48" y="-117" font-family="Helvetica,sans-Serif" font-size="10.00">network/Decoder.hpp</text>
</a>
</g>
</g>
<!-- Node2&#45;&gt;Node15 -->
<g id="edge17_Node000002_Node000015" class="edge">
<title>Node2&#45;&gt;Node15</title>
<g id="a_edge17_Node000002_Node000015"><a xlink:title=" ">
<path fill="none" stroke="#63b8ff" d="M650.97,-164.98C674,-156.27 710.02,-142.63 736.11,-132.75"/>
<polygon fill="#63b8ff" stroke="#63b8ff" points="737.46,-135.98 745.58,-129.17 734.99,-129.44 737.46,-135.98"/>
</a>
</g>
</g>
<!-- Node18 -->
<g id="Node000018" class="node">
<title>Node18</title>
<g id="a_Node000018"><a xlink:href="Event_8hpp.html" target="_top" xlink:title=" ">
<polygon fill="white" stroke="#666666" points="980.48,-74 872.48,-74 872.48,-55 980.48,-55 980.48,-74"/>
<text text-anchor="middle" x="926.48" y="-62" font-family="Helvetica,sans-Serif" font-size="10.00">network/Event.hpp</text>
</a>
</g>
</g>
<!-- Node2&#45;&gt;Node18 -->
<g id="edge34_Node000002_Node000018" class="edge">
<title>Node2&#45;&gt;Node18</title>
<g id="a_edge34_Node000002_Node000018"><a xlink:title=" ">
<path fill="none" stroke="#63b8ff" d="M708.11,-168.12C752.96,-162.61 808.94,-151.48 854.48,-129 877.72,-117.53 899.29,-96.57 912.64,-81.88"/>
<polygon fill="#63b8ff" stroke="#63b8ff" points="915.53,-83.89 919.51,-74.07 910.28,-79.27 915.53,-83.89"/>
</a>
</g>
</g>
<!-- Node19 -->
<g id="Node000019" class="node">
<title>Node19</title>
<g id="a_Node000019"><a xlink:href="Encoder_8hpp.html" target="_top" xlink:title=" ">
<polygon fill="white" stroke="#666666" points="444.98,-129 325.98,-129 325.98,-110 444.98,-110 444.98,-129"/>
<text text-anchor="middle" x="385.48" y="-117" font-family="Helvetica,sans-Serif" font-size="10.00">network/Encoder.hpp</text>
</a>
</g>
</g>
<!-- Node2&#45;&gt;Node19 -->
<g id="edge27_Node000002_Node000019" class="edge">
<title>Node2&#45;&gt;Node19</title>
<g id="a_edge27_Node000002_Node000019"><a xlink:title=" ">
<path fill="none" stroke="#63b8ff" d="M589.44,-164.98C547.4,-155.82 480.44,-141.21 434.8,-131.26"/>
<polygon fill="#63b8ff" stroke="#63b8ff" points="435.34,-127.79 424.83,-129.08 433.85,-134.63 435.34,-127.79"/>
</a>
</g>
</g>
<!-- Node10&#45;&gt;Node8 -->
<g id="edge11_Node000010_Node000008" class="edge">
<title>Node10&#45;&gt;Node8</title>
<g id="a_edge11_Node000010_Node000008"><a xlink:title=" ">
<path fill="none" stroke="#63b8ff" d="M197.58,-109.8C196.69,-96.2 197.13,-69.92 211.48,-55 231.6,-34.07 312.43,-20.62 358.99,-14.45"/>
<polygon fill="#63b8ff" stroke="#63b8ff" points="359.45,-17.92 368.92,-13.17 358.56,-10.97 359.45,-17.92"/>
</a>
</g>
</g>
<!-- Node11 -->
<g id="Node000011" class="node">
<title>Node11</title>
<g id="a_Node000011"><a xlink:title=" ">
<polygon fill="#e0e0e0" stroke="#999999" points="276.48,-74 220.48,-74 220.48,-55 276.48,-55 276.48,-74"/>
<text text-anchor="middle" x="248.48" y="-62" font-family="Helvetica,sans-Serif" font-size="10.00">optional</text>
</a>
</g>
</g>
<!-- Node10&#45;&gt;Node11 -->
<g id="edge10_Node000010_Node000011" class="edge">
<title>Node10&#45;&gt;Node11</title>
<g id="a_edge10_Node000010_Node000011"><a xlink:title=" ">
<path fill="none" stroke="#63b8ff" d="M206.74,-109.75C213.94,-102.11 224.59,-90.82 233.33,-81.56"/>
<polygon fill="#63b8ff" stroke="#63b8ff" points="236.06,-83.76 240.38,-74.09 230.97,-78.96 236.06,-83.76"/>
</a>
</g>
</g>
<!-- Node12&#45;&gt;Node6 -->
<g id="edge14_Node000012_Node000006" class="edge">
<title>Node12&#45;&gt;Node6</title>
<g id="a_edge14_Node000012_Node000006"><a xlink:title=" ">
<path fill="none" stroke="#63b8ff" d="M831.58,-54.98C870.25,-45.03 933.82,-28.68 972.15,-18.82"/>
<polygon fill="#63b8ff" stroke="#63b8ff" points="973.44,-22.1 982.26,-16.22 971.7,-15.32 973.44,-22.1"/>
</a>
</g>
</g>
<!-- Node12&#45;&gt;Node8 -->
<g id="edge16_Node000012_Node000008" class="edge">
<title>Node12&#45;&gt;Node8</title>
<g id="a_edge16_Node000012_Node000008"><a xlink:title=" ">
<path fill="none" stroke="#63b8ff" d="M742.88,-56.24C657.36,-45.08 496.11,-24.03 426.22,-14.9"/>
<polygon fill="#63b8ff" stroke="#63b8ff" points="426.56,-11.42 416.2,-13.6 425.66,-18.36 426.56,-11.42"/>
</a>
</g>
</g>
<!-- Node13 -->
<g id="Node000013" class="node">
<title>Node13</title>
<g id="a_Node000013"><a xlink:title=" ">
<polygon fill="#e0e0e0" stroke="#999999" points="823.48,-19 773.48,-19 773.48,0 823.48,0 823.48,-19"/>
<text text-anchor="middle" x="798.48" y="-7" font-family="Helvetica,sans-Serif" font-size="10.00">cstdint</text>
</a>
</g>
</g>
<!-- Node12&#45;&gt;Node13 -->
<g id="edge13_Node000012_Node000013" class="edge">
<title>Node12&#45;&gt;Node13</title>
<g id="a_edge13_Node000012_Node000013"><a xlink:title=" ">
<path fill="none" stroke="#63b8ff" d="M798.48,-54.75C798.48,-47.8 798.48,-37.85 798.48,-29.13"/>
<polygon fill="#63b8ff" stroke="#63b8ff" points="801.98,-29.09 798.48,-19.09 794.98,-29.09 801.98,-29.09"/>
</a>
</g>
</g>
<!-- Node14 -->
<g id="Node000014" class="node">
<title>Node14</title>
<g id="a_Node000014"><a xlink:title=" ">
<polygon fill="#e0e0e0" stroke="#999999" points="921.98,-19 870.98,-19 870.98,0 921.98,0 921.98,-19"/>
<text text-anchor="middle" x="896.48" y="-7" font-family="Helvetica,sans-Serif" font-size="10.00">variant</text>
</a>
</g>
</g>
<!-- Node12&#45;&gt;Node14 -->
<g id="edge15_Node000012_Node000014" class="edge">
<title>Node12&#45;&gt;Node14</title>
<g id="a_edge15_Node000012_Node000014"><a xlink:title=" ">
<path fill="none" stroke="#63b8ff" d="M814.22,-54.98C829.71,-46.61 853.57,-33.7 871.62,-23.95"/>
<polygon fill="#63b8ff" stroke="#63b8ff" points="873.32,-27.01 880.45,-19.17 869.99,-20.85 873.32,-27.01"/>
</a>
</g>
</g>
<!-- Node15&#45;&gt;Node8 -->
<g id="edge21_Node000015_Node000008" class="edge">
<title>Node15&#45;&gt;Node8</title>
<g id="a_edge21_Node000015_Node000008"><a xlink:title=" ">
<path fill="none" stroke="#63b8ff" d="M755.92,-109.78C735.31,-95.91 692.59,-68.97 652.48,-55 574.15,-27.72 476.52,-16.76 426.1,-12.69"/>
<polygon fill="#63b8ff" stroke="#63b8ff" points="426.32,-9.2 416.08,-11.92 425.78,-16.18 426.32,-9.2"/>
</a>
</g>
</g>
<!-- Node15&#45;&gt;Node13 -->
<g id="edge19_Node000015_Node000013" class="edge">
<title>Node15&#45;&gt;Node13</title>
<g id="a_edge19_Node000015_Node000013"><a xlink:title=" ">
<path fill="none" stroke="#63b8ff" d="M757.8,-109.93C744.03,-97.78 723.03,-74.82 733.48,-55 740.72,-41.27 754.31,-30.97 767.2,-23.76"/>
<polygon fill="#63b8ff" stroke="#63b8ff" points="769.07,-26.73 776.36,-19.05 765.87,-20.51 769.07,-26.73"/>
</a>
</g>
</g>
<!-- Node16 -->
<g id="Node000016" class="node">
<title>Node16</title>
<g id="a_Node000016"><a xlink:title=" ">
<polygon fill="#e0e0e0" stroke="#999999" points="519.48,-74 477.48,-74 477.48,-55 519.48,-55 519.48,-74"/>
<text text-anchor="middle" x="498.48" y="-62" font-family="Helvetica,sans-Serif" font-size="10.00">array</text>
</a>
</g>
</g>
<!-- Node15&#45;&gt;Node16 -->
<g id="edge18_Node000015_Node000016" class="edge">
<title>Node15&#45;&gt;Node16</title>
<g id="a_edge18_Node000015_Node000016"><a xlink:title=" ">
<path fill="none" stroke="#63b8ff" d="M719.27,-109.94C671.62,-101.47 597.41,-87.81 533.48,-74 532.21,-73.73 530.91,-73.44 529.6,-73.14"/>
<polygon fill="#63b8ff" stroke="#63b8ff" points="530.07,-69.66 519.54,-70.8 528.48,-76.48 530.07,-69.66"/>
</a>
</g>
</g>
<!-- Node17 -->
<g id="Node000017" class="node">
<title>Node17</title>
<g id="a_Node000017"><a xlink:title=" ">
<polygon fill="#e0e0e0" stroke="#999999" points="607.98,-74 542.98,-74 542.98,-55 607.98,-55 607.98,-74"/>
<text text-anchor="middle" x="575.48" y="-62" font-family="Helvetica,sans-Serif" font-size="10.00">functional</text>
</a>
</g>
</g>
<!-- Node15&#45;&gt;Node17 -->
<g id="edge20_Node000015_Node000017" class="edge">
<title>Node15&#45;&gt;Node17</title>
<g id="a_edge20_Node000015_Node000017"><a xlink:title=" ">
<path fill="none" stroke="#63b8ff" d="M737.47,-109.98C704.65,-100.97 652.68,-86.7 616.49,-76.76"/>
<polygon fill="#63b8ff" stroke="#63b8ff" points="617.3,-73.36 606.73,-74.08 615.45,-80.11 617.3,-73.36"/>
</a>
</g>
</g>
<!-- Node15&#45;&gt;Node18 -->
<g id="edge22_Node000015_Node000018" class="edge">
<title>Node15&#45;&gt;Node18</title>
<g id="a_edge22_Node000015_Node000018"><a xlink:title=" ">
<path fill="none" stroke="#63b8ff" d="M793.86,-109.98C820.28,-101.13 861.83,-87.19 891.37,-77.28"/>
<polygon fill="#63b8ff" stroke="#63b8ff" points="892.53,-80.58 900.9,-74.08 890.3,-73.94 892.53,-80.58"/>
</a>
</g>
</g>
<!-- Node18&#45;&gt;Node6 -->
<g id="edge24_Node000018_Node000006" class="edge">
<title>Node18&#45;&gt;Node6</title>
<g id="a_edge24_Node000018_Node000006"><a xlink:title=" ">
<path fill="none" stroke="#63b8ff" d="M939.01,-54.98C950.88,-46.92 968.94,-34.65 983.09,-25.03"/>
<polygon fill="#63b8ff" stroke="#63b8ff" points="985.42,-27.69 991.72,-19.17 981.48,-21.9 985.42,-27.69"/>
</a>
</g>
</g>
<!-- Node18&#45;&gt;Node8 -->
<g id="edge26_Node000018_Node000008" class="edge">
<title>Node18&#45;&gt;Node8</title>
<g id="a_edge26_Node000018_Node000008"><a xlink:title=" ">
<path fill="none" stroke="#63b8ff" d="M872.38,-56.17C869.03,-55.76 865.71,-55.37 862.48,-55 699.14,-36.43 503.25,-19.64 426.07,-13.24"/>
<polygon fill="#63b8ff" stroke="#63b8ff" points="426.24,-9.75 415.99,-12.41 425.66,-16.72 426.24,-9.75"/>
</a>
</g>
</g>
<!-- Node18&#45;&gt;Node13 -->
<g id="edge23_Node000018_Node000013" class="edge">
<title>Node18&#45;&gt;Node13</title>
<g id="a_edge23_Node000018_Node000013"><a xlink:title=" ">
<path fill="none" stroke="#63b8ff" d="M905.91,-54.98C885.04,-46.34 852.51,-32.87 828.71,-23.02"/>
<polygon fill="#63b8ff" stroke="#63b8ff" points="830,-19.76 819.42,-19.17 827.32,-26.23 830,-19.76"/>
</a>
</g>
</g>
<!-- Node18&#45;&gt;Node14 -->
<g id="edge25_Node000018_Node000014" class="edge">
<title>Node18&#45;&gt;Node14</title>
<g id="a_edge25_Node000018_Node000014"><a xlink:title=" ">
<path fill="none" stroke="#63b8ff" d="M921.53,-54.75C917.42,-47.49 911.45,-36.95 906.37,-27.98"/>
<polygon fill="#63b8ff" stroke="#63b8ff" points="909.31,-26.07 901.34,-19.09 903.22,-29.52 909.31,-26.07"/>
</a>
</g>
</g>
<!-- Node19&#45;&gt;Node8 -->
<g id="edge32_Node000019_Node000008" class="edge">
<title>Node19&#45;&gt;Node8</title>
<g id="a_edge32_Node000019_Node000008"><a xlink:title=" ">
<path fill="none" stroke="#63b8ff" d="M386.05,-109.66C387.19,-92.17 389.74,-52.8 391.26,-29.27"/>
<polygon fill="#63b8ff" stroke="#63b8ff" points="394.76,-29.36 391.92,-19.16 387.78,-28.91 394.76,-29.36"/>
</a>
</g>
</g>
<!-- Node19&#45;&gt;Node12 -->
<g id="edge33_Node000019_Node000012" class="edge">
<title>Node19&#45;&gt;Node12</title>
<g id="a_edge33_Node000019_Node000012"><a xlink:title=" ">
<path fill="none" stroke="#63b8ff" d="M445.09,-110.85C521.41,-101.06 653.24,-84.14 732.5,-73.97"/>
<polygon fill="#63b8ff" stroke="#63b8ff" points="733.38,-77.38 742.85,-72.64 732.49,-70.44 733.38,-77.38"/>
</a>
</g>
</g>
<!-- Node19&#45;&gt;Node13 -->
<g id="edge30_Node000019_Node000013" class="edge">
<title>Node19&#45;&gt;Node13</title>
<g id="a_edge30_Node000019_Node000013"><a xlink:title=" ">
<path fill="none" stroke="#63b8ff" d="M393.71,-109.76C407.62,-95.6 437.31,-67.94 468.48,-55 521.28,-33.08 689.45,-18.47 763.22,-12.96"/>
<polygon fill="#63b8ff" stroke="#63b8ff" points="763.68,-16.43 773.4,-12.21 763.17,-9.45 763.68,-16.43"/>
</a>
</g>
</g>
<!-- Node19&#45;&gt;Node16 -->
<g id="edge29_Node000019_Node000016" class="edge">
<title>Node19&#45;&gt;Node16</title>
<g id="a_edge29_Node000019_Node000016"><a xlink:title=" ">
<path fill="none" stroke="#63b8ff" d="M403.63,-109.98C421.73,-101.5 449.76,-88.35 470.67,-78.54"/>
<polygon fill="#63b8ff" stroke="#63b8ff" points="472.43,-81.59 479.99,-74.17 469.45,-75.25 472.43,-81.59"/>
</a>
</g>
</g>
<!-- Node19&#45;&gt;Node17 -->
<g id="edge31_Node000019_Node000017" class="edge">
<title>Node19&#45;&gt;Node17</title>
<g id="a_edge31_Node000019_Node000017"><a xlink:title=" ">
<path fill="none" stroke="#63b8ff" d="M416.01,-109.98C448.18,-101.01 499.04,-86.82 534.65,-76.89"/>
<polygon fill="#63b8ff" stroke="#63b8ff" points="536.02,-80.14 544.71,-74.08 534.14,-73.4 536.02,-80.14"/>
</a>
</g>
</g>
<!-- Node20 -->
<g id="Node000020" class="node">
<title>Node20</title>
<g id="a_Node000020"><a xlink:title=" ">
<polygon fill="#e0e0e0" stroke="#999999" points="363.98,-74 294.98,-74 294.98,-55 363.98,-55 363.98,-74"/>
<text text-anchor="middle" x="329.48" y="-62" font-family="Helvetica,sans-Serif" font-size="10.00">arpa/inet.h</text>
</a>
</g>
</g>
<!-- Node19&#45;&gt;Node20 -->
<g id="edge28_Node000019_Node000020" class="edge">
<title>Node19&#45;&gt;Node20</title>
<g id="a_edge28_Node000019_Node000020"><a xlink:title=" ">
<path fill="none" stroke="#63b8ff" d="M376.48,-109.98C368.28,-102.23 355.97,-90.58 346.01,-81.14"/>
<polygon fill="#63b8ff" stroke="#63b8ff" points="348.31,-78.5 338.64,-74.17 343.5,-83.59 348.31,-78.5"/>
</a>
</g>
</g>
<!-- Node23&#45;&gt;Node8 -->
<g id="edge43_Node000023_Node000008" class="edge">
<title>Node23&#45;&gt;Node8</title>
<g id="a_edge43_Node000023_Node000008"><a xlink:title=" ">
<path fill="none" stroke="#63b8ff" d="M796.77,-164.98C768.14,-158 729.95,-146.41 699.48,-129 656.57,-104.49 660.72,-77.03 616.48,-55 554.05,-23.91 471.66,-14.53 426.21,-11.71"/>
<polygon fill="#63b8ff" stroke="#63b8ff" points="426.2,-8.21 416.02,-11.15 425.82,-15.19 426.2,-8.21"/>
</a>
</g>
</g>
<!-- Node23&#45;&gt;Node13 -->
<g id="edge42_Node000023_Node000013" class="edge">
<title>Node23&#45;&gt;Node13</title>
<g id="a_edge42_Node000023_Node000013"><a xlink:title=" ">
<path fill="none" stroke="#63b8ff" d="M867.83,-164.92C922.23,-147.58 1029.67,-105.63 989.48,-55 979.78,-42.78 886.07,-25.25 833.61,-16.27"/>
<polygon fill="#63b8ff" stroke="#63b8ff" points="834.15,-12.82 823.71,-14.6 832.98,-19.72 834.15,-12.82"/>
</a>
</g>
</g>
<!-- Node23&#45;&gt;Node15 -->
<g id="edge44_Node000023_Node000015" class="edge">
<title>Node23&#45;&gt;Node15</title>
<g id="a_edge44_Node000023_Node000015"><a xlink:title=" ">
<path fill="none" stroke="#63b8ff" d="M827.23,-164.98C816.68,-157 800.68,-144.88 788.04,-135.31"/>
<polygon fill="#63b8ff" stroke="#63b8ff" points="790.02,-132.42 779.93,-129.17 785.79,-138 790.02,-132.42"/>
</a>
</g>
</g>
<!-- Node23&#45;&gt;Node18 -->
<g id="edge45_Node000023_Node000018" class="edge">
<title>Node23&#45;&gt;Node18</title>
<g id="a_edge45_Node000023_Node000018"><a xlink:title=" ">
<path fill="none" stroke="#63b8ff" d="M859.84,-164.95C875.49,-157.63 896.09,-145.63 908.48,-129 918.21,-115.94 922.69,-97.79 924.74,-84.25"/>
<polygon fill="#63b8ff" stroke="#63b8ff" points="928.24,-84.51 925.96,-74.16 921.29,-83.67 928.24,-84.51"/>
</a>
</g>
</g>
<!-- Node24&#45;&gt;Node3 -->
<g id="edge48_Node000024_Node000003" class="edge">
<title>Node24&#45;&gt;Node3</title>
<g id="a_edge48_Node000024_Node000003"><a xlink:title=" ">
<path fill="none" stroke="#63b8ff" d="M256.42,-164.98C213.7,-156.09 144.87,-141.71 85.48,-129 84.22,-128.73 82.94,-128.46 81.65,-128.18"/>
<polygon fill="#63b8ff" stroke="#63b8ff" points="82.16,-124.71 71.65,-126.02 80.68,-131.55 82.16,-124.71"/>
</a>
</g>
</g>
<!-- Node24&#45;&gt;Node8 -->
<g id="edge49_Node000024_Node000008" class="edge">
<title>Node24&#45;&gt;Node8</title>
<g id="a_edge49_Node000024_Node000008"><a xlink:title=" ">
<path fill="none" stroke="#63b8ff" d="M228.29,-172.63C153.01,-170.05 39.71,-160.81 12.48,-129 6.99,-122.58 8.71,-117.56 12.48,-110 30.61,-73.65 47.98,-70.63 85.48,-55 178.84,-16.09 300.45,-10.32 358.61,-10.01"/>
<polygon fill="#63b8ff" stroke="#63b8ff" points="358.71,-13.51 368.71,-10.01 358.71,-6.51 358.71,-13.51"/>
</a>
</g>
</g>
<!-- Node24&#45;&gt;Node19 -->
<g id="edge50_Node000024_Node000019" class="edge">
<title>Node24&#45;&gt;Node19</title>
<g id="a_edge50_Node000024_Node000019"><a xlink:title=" ">
<path fill="none" stroke="#63b8ff" d="M311.62,-164.98C325.26,-156.77 346.17,-144.18 362.26,-134.49"/>
<polygon fill="#63b8ff" stroke="#63b8ff" points="364.32,-137.33 371.08,-129.17 360.71,-131.33 364.32,-137.33"/>
</a>
</g>
</g>
<!-- Node24&#45;&gt;Node20 -->
<g id="edge47_Node000024_Node000020" class="edge">
<title>Node24&#45;&gt;Node20</title>
<g id="a_edge47_Node000024_Node000020"><a xlink:title=" ">
<path fill="none" stroke="#63b8ff" d="M300.1,-164.66C305.3,-147.09 317.05,-107.45 324.01,-83.95"/>
<polygon fill="#63b8ff" stroke="#63b8ff" points="327.43,-84.74 326.91,-74.16 320.72,-82.75 327.43,-84.74"/>
</a>
</g>
</g>
</g>
</svg>
