<?xml version="1.0" encoding="UTF-8" standalone="no"?>
<!DOCTYPE svg PUBLIC "-//W3C//DTD SVG 1.1//EN"
 "http://www.w3.org/Graphics/SVG/1.1/DTD/svg11.dtd">
<!-- Generated by graphviz version 2.43.0 (0)
 -->
<!-- Title: /home/runner/work/R&#45;Type/R&#45;Type/Client/src/engine/network/include/NetworkManager.hpp Pages: 1 -->
<svg width="1018pt" height="225pt"
 viewBox="0.00 0.00 1017.50 225.00" xmlns="http://www.w3.org/2000/svg" xmlns:xlink="http://www.w3.org/1999/xlink">
<g id="graph0" class="graph" transform="scale(1 1) rotate(0) translate(4 221)">
<title>/home/runner/work/R&#45;Type/R&#45;Type/Client/src/engine/network/include/NetworkManager.hpp</title>
<!-- Node1 -->
<g id="Node000001" class="node">
<title>Node1</title>
<g id="a_Node000001"><a xlink:title=" ">
<polygon fill="#999999" stroke="#666666" points="471.5,-217 320.5,-217 320.5,-165 471.5,-165 471.5,-217"/>
<text text-anchor="start" x="328.5" y="-205" font-family="Helvetica,sans-Serif" font-size="10.00">/home/runner/work/R</text>
<text text-anchor="start" x="328.5" y="-194" font-family="Helvetica,sans-Serif" font-size="10.00">&#45;Type/R&#45;Type/Client</text>
<text text-anchor="start" x="328.5" y="-183" font-family="Helvetica,sans-Serif" font-size="10.00">/src/engine/network/include</text>
<text text-anchor="middle" x="396" y="-172" font-family="Helvetica,sans-Serif" font-size="10.00">/NetworkManager.hpp</text>
</a>
</g>
</g>
<!-- Node2 -->
<g id="Node000002" class="node">
<title>Node2</title>
<g id="a_Node000002"><a xlink:title=" ">
<polygon fill="#e0e0e0" stroke="#999999" points="50,-129 0,-129 0,-110 50,-110 50,-129"/>
<text text-anchor="middle" x="25" y="-117" font-family="Helvetica,sans-Serif" font-size="10.00">cstring</text>
</a>
</g>
</g>
<!-- Node1&#45;&gt;Node2 -->
<g id="edge1_Node000001_Node000002" class="edge">
<title>Node1&#45;&gt;Node2</title>
<g id="a_edge1_Node000001_Node000002"><a xlink:title=" ">
<path fill="none" stroke="#63b8ff" d="M320.43,-177.79C254.22,-166.75 155.21,-149.43 60,-129.1"/>
<polygon fill="#63b8ff" stroke="#63b8ff" points="60.72,-125.68 50.21,-127 59.25,-132.52 60.72,-125.68"/>
</a>
</g>
</g>
<!-- Node3 -->
<g id="Node000003" class="node">
<title>Node3</title>
<g id="a_Node000003"><a xlink:title=" ">
<polygon fill="#e0e0e0" stroke="#999999" points="116,-129 68,-129 68,-110 116,-110 116,-129"/>
<text text-anchor="middle" x="92" y="-117" font-family="Helvetica,sans-Serif" font-size="10.00">mutex</text>
</a>
</g>
</g>
<!-- Node1&#45;&gt;Node3 -->
<g id="edge2_Node000001_Node000003" class="edge">
<title>Node1&#45;&gt;Node3</title>
<g id="a_edge2_Node000001_Node000003"><a xlink:title=" ">
<path fill="none" stroke="#63b8ff" d="M320.22,-173.59C268.24,-162.19 197.45,-146.36 126.19,-129.23"/>
<polygon fill="#63b8ff" stroke="#63b8ff" points="126.67,-125.75 116.13,-126.81 125.03,-132.55 126.67,-125.75"/>
</a>
</g>
</g>
<!-- Node4 -->
<g id="Node000004" class="node">
<title>Node4</title>
<g id="a_Node000004"><a xlink:title=" ">
<polygon fill="#e0e0e0" stroke="#999999" points="181.5,-129 134.5,-129 134.5,-110 181.5,-110 181.5,-129"/>
<text text-anchor="middle" x="158" y="-117" font-family="Helvetica,sans-Serif" font-size="10.00">queue</text>
</a>
</g>
</g>
<!-- Node1&#45;&gt;Node4 -->
<g id="edge3_Node000001_Node000004" class="edge">
<title>Node1&#45;&gt;Node4</title>
<g id="a_edge3_Node000001_Node000004"><a xlink:title=" ">
<path fill="none" stroke="#63b8ff" d="M320.37,-167.91C276.95,-155.23 224.6,-139.95 191.31,-130.23"/>
<polygon fill="#63b8ff" stroke="#63b8ff" points="192.2,-126.84 181.62,-127.4 190.24,-133.56 192.2,-126.84"/>
</a>
</g>
</g>
<!-- Node5 -->
<g id="Node000005" class="node">
<title>Node5</title>
<g id="a_Node000005"><a xlink:title=" ">
<polygon fill="#e0e0e0" stroke="#999999" points="464,-19 420,-19 420,0 464,0 464,-19"/>
<text text-anchor="middle" x="442" y="-7" font-family="Helvetica,sans-Serif" font-size="10.00">string</text>
</a>
</g>
</g>
<!-- Node1&#45;&gt;Node5 -->
<g id="edge4_Node000001_Node000005" class="edge">
<title>Node1&#45;&gt;Node5</title>
<g id="a_edge4_Node000001_Node000005"><a xlink:title=" ">
<path fill="none" stroke="#63b8ff" d="M320.18,-180.63C288.05,-172.48 253.58,-157.3 234,-129 215.28,-101.96 213.32,-80.57 234,-55 255.72,-28.14 356.81,-16.77 409.64,-12.6"/>
<polygon fill="#63b8ff" stroke="#63b8ff" points="410.12,-16.07 419.83,-11.83 409.6,-9.09 410.12,-16.07"/>
</a>
</g>
</g>
<!-- Node6 -->
<g id="Node000006" class="node">
<title>Node6</title>
<g id="a_Node000006"><a xlink:title=" ">
<polygon fill="#e0e0e0" stroke="#999999" points="867,-129 819,-129 819,-110 867,-110 867,-129"/>
<text text-anchor="middle" x="843" y="-117" font-family="Helvetica,sans-Serif" font-size="10.00">thread</text>
</a>
</g>
</g>
<!-- Node1&#45;&gt;Node6 -->
<g id="edge5_Node000001_Node000006" class="edge">
<title>Node1&#45;&gt;Node6</title>
<g id="a_edge5_Node000001_Node000006"><a xlink:title=" ">
<path fill="none" stroke="#63b8ff" d="M471.58,-181.3C552.7,-171.42 685.45,-153.65 808.91,-129.03"/>
<polygon fill="#63b8ff" stroke="#63b8ff" points="809.81,-132.42 818.92,-127.02 808.42,-125.56 809.81,-132.42"/>
</a>
</g>
</g>
<!-- Node7 -->
<g id="Node000007" class="node">
<title>Node7</title>
<g id="a_Node000007"><a xlink:title=" ">
<polygon fill="#e0e0e0" stroke="#999999" points="538.5,-19 491.5,-19 491.5,0 538.5,0 538.5,-19"/>
<text text-anchor="middle" x="515" y="-7" font-family="Helvetica,sans-Serif" font-size="10.00">vector</text>
</a>
</g>
</g>
<!-- Node1&#45;&gt;Node7 -->
<g id="edge6_Node000001_Node000007" class="edge">
<title>Node1&#45;&gt;Node7</title>
<g id="a_edge6_Node000001_Node000007"><a xlink:title=" ">
<path fill="none" stroke="#63b8ff" d="M320.36,-170.83C299.5,-161.69 279.26,-148.36 267,-129 249.4,-101.21 245.84,-80.18 267,-55 296.9,-19.42 427.33,-27.61 473,-19 475.81,-18.47 478.72,-17.91 481.64,-17.33"/>
<polygon fill="#63b8ff" stroke="#63b8ff" points="482.35,-20.76 491.48,-15.38 480.98,-13.9 482.35,-20.76"/>
</a>
</g>
</g>
<!-- Node8 -->
<g id="Node000008" class="node">
<title>Node8</title>
<g id="a_Node000008"><a xlink:title=" ">
<polygon fill="#e0e0e0" stroke="#999999" points="943,-129 885,-129 885,-110 943,-110 943,-129"/>
<text text-anchor="middle" x="914" y="-117" font-family="Helvetica,sans-Serif" font-size="10.00">asio.hpp</text>
</a>
</g>
</g>
<!-- Node1&#45;&gt;Node8 -->
<g id="edge7_Node000001_Node000008" class="edge">
<title>Node1&#45;&gt;Node8</title>
<g id="a_edge7_Node000001_Node000008"><a xlink:title=" ">
<path fill="none" stroke="#63b8ff" d="M471.57,-182.61C564.28,-173.04 726.4,-154.72 874.42,-129.14"/>
<polygon fill="#63b8ff" stroke="#63b8ff" points="875.35,-132.53 884.6,-127.36 874.14,-125.63 875.35,-132.53"/>
</a>
</g>
</g>
<!-- Node9 -->
<g id="Node000009" class="node">
<title>Node9</title>
<g id="a_Node000009"><a xlink:href="CircularBuffer_8hpp.html" target="_top" xlink:title=" ">
<polygon fill="white" stroke="#666666" points="418,-129 276,-129 276,-110 418,-110 418,-129"/>
<text text-anchor="middle" x="347" y="-117" font-family="Helvetica,sans-Serif" font-size="10.00">include/CircularBuffer.hpp</text>
</a>
</g>
</g>
<!-- Node1&#45;&gt;Node9 -->
<g id="edge8_Node000001_Node000009" class="edge">
<title>Node1&#45;&gt;Node9</title>
<g id="a_edge8_Node000001_Node000009"><a xlink:title=" ">
<path fill="none" stroke="#63b8ff" d="M378.31,-164.91C371.94,-155.87 364.89,-145.88 359.11,-137.67"/>
<polygon fill="#63b8ff" stroke="#63b8ff" points="361.83,-135.46 353.21,-129.3 356.11,-139.49 361.83,-135.46"/>
</a>
</g>
</g>
<!-- Node11 -->
<g id="Node000011" class="node">
<title>Node11</title>
<g id="a_Node000011"><a xlink:href="Action_8hpp.html" target="_top" xlink:title=" ">
<polygon fill="white" stroke="#666666" points="663.5,-74 552.5,-74 552.5,-55 663.5,-55 663.5,-74"/>
<text text-anchor="middle" x="608" y="-62" font-family="Helvetica,sans-Serif" font-size="10.00">network/Action.hpp</text>
</a>
</g>
</g>
<!-- Node1&#45;&gt;Node11 -->
<g id="edge11_Node000001_Node000011" class="edge">
<title>Node1&#45;&gt;Node11</title>
<g id="a_edge11_Node000001_Node000011"><a xlink:title=" ">
<path fill="none" stroke="#63b8ff" d="M435.49,-164.93C461.08,-148.87 495.26,-127.78 526,-110 544.75,-99.15 566.29,-87.49 582.59,-78.83"/>
<polygon fill="#63b8ff" stroke="#63b8ff" points="584.32,-81.88 591.52,-74.11 581.04,-75.69 584.32,-81.88"/>
</a>
</g>
</g>
<!-- Node14 -->
<g id="Node000014" class="node">
<title>Node14</title>
<g id="a_Node000014"><a xlink:href="Decoder_8hpp.html" target="_top" xlink:title=" ">
<polygon fill="white" stroke="#666666" points="655,-129 535,-129 535,-110 655,-110 655,-129"/>
<text text-anchor="middle" x="595" y="-117" font-family="Helvetica,sans-Serif" font-size="10.00">network/Decoder.hpp</text>
</a>
</g>
</g>
<!-- Node1&#45;&gt;Node14 -->
<g id="edge16_Node000001_Node000014" class="edge">
<title>Node1&#45;&gt;Node14</title>
<g id="a_edge16_Node000001_Node000014"><a xlink:title=" ">
<path fill="none" stroke="#63b8ff" d="M467.84,-164.91C499.49,-153.86 535.19,-141.39 560.69,-132.48"/>
<polygon fill="#63b8ff" stroke="#63b8ff" points="561.99,-135.74 570.27,-129.14 559.68,-129.13 561.99,-135.74"/>
</a>
</g>
</g>
<!-- Node17 -->
<g id="Node000017" class="node">
<title>Node17</title>
<g id="a_Node000017"><a xlink:href="Event_8hpp.html" target="_top" xlink:title=" ">
<polygon fill="white" stroke="#666666" points="496,-74 388,-74 388,-55 496,-55 496,-74"/>
<text text-anchor="middle" x="442" y="-62" font-family="Helvetica,sans-Serif" font-size="10.00">network/Event.hpp</text>
</a>
</g>
</g>
<!-- Node1&#45;&gt;Node17 -->
<g id="edge33_Node000001_Node000017" class="edge">
<title>Node1&#45;&gt;Node17</title>
<g id="a_edge33_Node000001_Node000017"><a xlink:title=" ">
<path fill="none" stroke="#63b8ff" d="M410.52,-164.79C416.27,-154.02 422.55,-141.16 427,-129 432.36,-114.36 436.3,-97.1 438.79,-84.27"/>
<polygon fill="#63b8ff" stroke="#63b8ff" points="442.25,-84.79 440.6,-74.32 435.36,-83.53 442.25,-84.79"/>
</a>
</g>
</g>
<!-- Node18 -->
<g id="Node000018" class="node">
<title>Node18</title>
<g id="a_Node000018"><a xlink:href="Encoder_8hpp.html" target="_top" xlink:title=" ">
<polygon fill="white" stroke="#666666" points="800.5,-129 681.5,-129 681.5,-110 800.5,-110 800.5,-129"/>
<text text-anchor="middle" x="741" y="-117" font-family="Helvetica,sans-Serif" font-size="10.00">network/Encoder.hpp</text>
</a>
</g>
</g>
<!-- Node1&#45;&gt;Node18 -->
<g id="edge26_Node000001_Node000018" class="edge">
<title>Node1&#45;&gt;Node18</title>
<g id="a_edge26_Node000001_Node000018"><a xlink:title=" ">
<path fill="none" stroke="#63b8ff" d="M471.71,-174.75C537.39,-161.52 630.75,-142.71 688.51,-131.07"/>
<polygon fill="#63b8ff" stroke="#63b8ff" points="689.4,-134.46 698.52,-129.06 688.02,-127.6 689.4,-134.46"/>
</a>
</g>
</g>
<!-- Node9&#45;&gt;Node7 -->
<g id="edge10_Node000009_Node000007" class="edge">
<title>Node9&#45;&gt;Node7</title>
<g id="a_edge10_Node000009_Node000007"><a xlink:title=" ">
<path fill="none" stroke="#63b8ff" d="M349.08,-109.77C352.78,-96.13 361.78,-69.81 379,-55 394.56,-41.62 446.67,-26.98 481.68,-18.28"/>
<polygon fill="#63b8ff" stroke="#63b8ff" points="482.61,-21.65 491.49,-15.88 480.95,-14.85 482.61,-21.65"/>
</a>
</g>
</g>
<!-- Node10 -->
<g id="Node000010" class="node">
<title>Node10</title>
<g id="a_Node000010"><a xlink:title=" ">
<polygon fill="#e0e0e0" stroke="#999999" points="332,-74 276,-74 276,-55 332,-55 332,-74"/>
<text text-anchor="middle" x="304" y="-62" font-family="Helvetica,sans-Serif" font-size="10.00">optional</text>
</a>
</g>
</g>
<!-- Node9&#45;&gt;Node10 -->
<g id="edge9_Node000009_Node000010" class="edge">
<title>Node9&#45;&gt;Node10</title>
<g id="a_edge9_Node000009_Node000010"><a xlink:title=" ">
<path fill="none" stroke="#63b8ff" d="M339.9,-109.75C333.83,-102.26 324.91,-91.28 317.49,-82.13"/>
<polygon fill="#63b8ff" stroke="#63b8ff" points="319.99,-79.65 310.97,-74.09 314.55,-84.06 319.99,-79.65"/>
</a>
</g>
</g>
<!-- Node11&#45;&gt;Node5 -->
<g id="edge13_Node000011_Node000005" class="edge">
<title>Node11&#45;&gt;Node5</title>
<g id="a_edge13_Node000011_Node000005"><a xlink:title=" ">
<path fill="none" stroke="#63b8ff" d="M581.33,-54.98C552.1,-45.65 505.22,-30.68 474.02,-20.72"/>
<polygon fill="#63b8ff" stroke="#63b8ff" points="474.68,-17.26 464.09,-17.55 472.55,-23.93 474.68,-17.26"/>
</a>
</g>
</g>
<!-- Node11&#45;&gt;Node7 -->
<g id="edge15_Node000011_Node000007" class="edge">
<title>Node11&#45;&gt;Node7</title>
<g id="a_edge15_Node000011_Node000007"><a xlink:title=" ">
<path fill="none" stroke="#63b8ff" d="M593.06,-54.98C578.5,-46.69 556.13,-33.94 539.07,-24.22"/>
<polygon fill="#63b8ff" stroke="#63b8ff" points="540.64,-21.08 530.21,-19.17 537.17,-27.16 540.64,-21.08"/>
</a>
</g>
</g>
<!-- Node12 -->
<g id="Node000012" class="node">
<title>Node12</title>
<g id="a_Node000012"><a xlink:title=" ">
<polygon fill="#e0e0e0" stroke="#999999" points="703,-19 653,-19 653,0 703,0 703,-19"/>
<text text-anchor="middle" x="678" y="-7" font-family="Helvetica,sans-Serif" font-size="10.00">cstdint</text>
</a>
</g>
</g>
<!-- Node11&#45;&gt;Node12 -->
<g id="edge12_Node000011_Node000012" class="edge">
<title>Node11&#45;&gt;Node12</title>
<g id="a_edge12_Node000011_Node000012"><a xlink:title=" ">
<path fill="none" stroke="#63b8ff" d="M619.25,-54.98C629.8,-47 645.8,-34.88 658.44,-25.31"/>
<polygon fill="#63b8ff" stroke="#63b8ff" points="660.69,-28 666.55,-19.17 656.46,-22.42 660.69,-28"/>
</a>
</g>
</g>
<!-- Node13 -->
<g id="Node000013" class="node">
<title>Node13</title>
<g id="a_Node000013"><a xlink:title=" ">
<polygon fill="#e0e0e0" stroke="#999999" points="620.5,-19 569.5,-19 569.5,0 620.5,0 620.5,-19"/>
<text text-anchor="middle" x="595" y="-7" font-family="Helvetica,sans-Serif" font-size="10.00">variant</text>
</a>
</g>
</g>
<!-- Node11&#45;&gt;Node13 -->
<g id="edge14_Node000011_Node000013" class="edge">
<title>Node11&#45;&gt;Node13</title>
<g id="a_edge14_Node000011_Node000013"><a xlink:title=" ">
<path fill="none" stroke="#63b8ff" d="M605.85,-54.75C604.13,-47.72 601.65,-37.62 599.5,-28.84"/>
<polygon fill="#63b8ff" stroke="#63b8ff" points="602.89,-27.97 597.11,-19.09 596.09,-29.63 602.89,-27.97"/>
</a>
</g>
</g>
<!-- Node14&#45;&gt;Node7 -->
<g id="edge20_Node000014_Node000007" class="edge">
<title>Node14&#45;&gt;Node7</title>
<g id="a_edge20_Node000014_Node000007"><a xlink:title=" ">
<path fill="none" stroke="#63b8ff" d="M582.32,-109.84C571.08,-101.66 554.82,-88.51 544,-74 533.71,-60.2 525.91,-42.17 521.01,-28.85"/>
<polygon fill="#63b8ff" stroke="#63b8ff" points="524.29,-27.64 517.7,-19.34 517.68,-29.94 524.29,-27.64"/>
</a>
</g>
</g>
<!-- Node14&#45;&gt;Node12 -->
<g id="edge18_Node000014_Node000012" class="edge">
<title>Node14&#45;&gt;Node12</title>
<g id="a_edge18_Node000014_Node000012"><a xlink:title=" ">
<path fill="none" stroke="#63b8ff" d="M623.25,-109.98C640.65,-103.17 661.72,-91.77 673,-74 681.42,-60.72 682.03,-42.61 680.91,-29.12"/>
<polygon fill="#63b8ff" stroke="#63b8ff" points="684.37,-28.6 679.69,-19.09 677.42,-29.44 684.37,-28.6"/>
</a>
</g>
</g>
<!-- Node15 -->
<g id="Node000015" class="node">
<title>Node15</title>
<g id="a_Node000015"><a xlink:title=" ">
<polygon fill="#e0e0e0" stroke="#999999" points="762,-74 720,-74 720,-55 762,-55 762,-74"/>
<text text-anchor="middle" x="741" y="-62" font-family="Helvetica,sans-Serif" font-size="10.00">array</text>
</a>
</g>
</g>
<!-- Node14&#45;&gt;Node15 -->
<g id="edge17_Node000014_Node000015" class="edge">
<title>Node14&#45;&gt;Node15</title>
<g id="a_edge17_Node000014_Node000015"><a xlink:title=" ">
<path fill="none" stroke="#63b8ff" d="M618.46,-109.98C643.44,-100.92 683.08,-86.53 710.48,-76.58"/>
<polygon fill="#63b8ff" stroke="#63b8ff" points="711.76,-79.84 719.97,-73.13 709.38,-73.26 711.76,-79.84"/>
</a>
</g>
</g>
<!-- Node16 -->
<g id="Node000016" class="node">
<title>Node16</title>
<g id="a_Node000016"><a xlink:title=" ">
<polygon fill="#e0e0e0" stroke="#999999" points="845.5,-74 780.5,-74 780.5,-55 845.5,-55 845.5,-74"/>
<text text-anchor="middle" x="813" y="-62" font-family="Helvetica,sans-Serif" font-size="10.00">functional</text>
</a>
</g>
</g>
<!-- Node14&#45;&gt;Node16 -->
<g id="edge19_Node000014_Node000016" class="edge">
<title>Node14&#45;&gt;Node16</title>
<g id="a_edge19_Node000014_Node000016"><a xlink:title=" ">
<path fill="none" stroke="#63b8ff" d="M630.03,-109.98C668.19,-100.71 729.28,-85.85 770.24,-75.89"/>
<polygon fill="#63b8ff" stroke="#63b8ff" points="771.31,-79.24 780.2,-73.47 769.66,-72.44 771.31,-79.24"/>
</a>
</g>
</g>
<!-- Node14&#45;&gt;Node17 -->
<g id="edge21_Node000014_Node000017" class="edge">
<title>Node14&#45;&gt;Node17</title>
<g id="a_edge21_Node000014_Node000017"><a xlink:title=" ">
<path fill="none" stroke="#63b8ff" d="M570.42,-109.98C544.95,-101.16 504.96,-87.31 476.37,-77.41"/>
<polygon fill="#63b8ff" stroke="#63b8ff" points="477.37,-74.05 466.77,-74.08 475.08,-80.66 477.37,-74.05"/>
</a>
</g>
</g>
<!-- Node17&#45;&gt;Node5 -->
<g id="edge23_Node000017_Node000005" class="edge">
<title>Node17&#45;&gt;Node5</title>
<g id="a_edge23_Node000017_Node000005"><a xlink:title=" ">
<path fill="none" stroke="#63b8ff" d="M442,-54.75C442,-47.8 442,-37.85 442,-29.13"/>
<polygon fill="#63b8ff" stroke="#63b8ff" points="445.5,-29.09 442,-19.09 438.5,-29.09 445.5,-29.09"/>
</a>
</g>
</g>
<!-- Node17&#45;&gt;Node7 -->
<g id="edge25_Node000017_Node000007" class="edge">
<title>Node17&#45;&gt;Node7</title>
<g id="a_edge25_Node000017_Node000007"><a xlink:title=" ">
<path fill="none" stroke="#63b8ff" d="M453.73,-54.98C464.73,-47 481.42,-34.88 494.6,-25.31"/>
<polygon fill="#63b8ff" stroke="#63b8ff" points="497.02,-27.88 503.06,-19.17 492.91,-22.21 497.02,-27.88"/>
</a>
</g>
</g>
<!-- Node17&#45;&gt;Node12 -->
<g id="edge22_Node000017_Node000012" class="edge">
<title>Node17&#45;&gt;Node12</title>
<g id="a_edge22_Node000017_Node000012"><a xlink:title=" ">
<path fill="none" stroke="#63b8ff" d="M479.92,-54.98C524.91,-44.88 599.32,-28.17 642.99,-18.36"/>
<polygon fill="#63b8ff" stroke="#63b8ff" points="643.88,-21.75 652.87,-16.14 642.35,-14.92 643.88,-21.75"/>
</a>
</g>
</g>
<!-- Node17&#45;&gt;Node13 -->
<g id="edge24_Node000017_Node000013" class="edge">
<title>Node17&#45;&gt;Node13</title>
<g id="a_edge24_Node000017_Node000013"><a xlink:title=" ">
<path fill="none" stroke="#63b8ff" d="M466.58,-54.98C492.05,-46.16 532.04,-32.31 560.63,-22.41"/>
<polygon fill="#63b8ff" stroke="#63b8ff" points="561.92,-25.66 570.23,-19.08 559.63,-19.05 561.92,-25.66"/>
</a>
</g>
</g>
<!-- Node18&#45;&gt;Node7 -->
<g id="edge31_Node000018_Node000007" class="edge">
<title>Node18&#45;&gt;Node7</title>
<g id="a_edge31_Node000018_Node000007"><a xlink:title=" ">
<path fill="none" stroke="#63b8ff" d="M786.82,-109.95C828.17,-100.28 879.1,-82.23 855,-55 811.38,-5.71 626.06,-28.98 561,-19 557.05,-18.39 552.92,-17.71 548.82,-16.99"/>
<polygon fill="#63b8ff" stroke="#63b8ff" points="549.29,-13.52 538.83,-15.19 548.05,-20.41 549.29,-13.52"/>
</a>
</g>
</g>
<!-- Node18&#45;&gt;Node11 -->
<g id="edge32_Node000018_Node000011" class="edge">
<title>Node18&#45;&gt;Node11</title>
<g id="a_edge32_Node000018_Node000011"><a xlink:title=" ">
<path fill="none" stroke="#63b8ff" d="M719.63,-109.98C697.85,-101.3 663.84,-87.75 639.08,-77.88"/>
<polygon fill="#63b8ff" stroke="#63b8ff" points="640.34,-74.62 629.76,-74.17 637.75,-81.12 640.34,-74.62"/>
</a>
</g>
</g>
<!-- Node18&#45;&gt;Node12 -->
<g id="edge29_Node000018_Node000012" class="edge">
<title>Node18&#45;&gt;Node12</title>
<g id="a_edge29_Node000018_Node000012"><a xlink:title=" ">
<path fill="none" stroke="#63b8ff" d="M790.75,-109.96C828.63,-102.33 876.2,-89.9 888,-74 893.03,-67.22 893.32,-61.56 888,-55 866.39,-28.33 767.14,-17 713.18,-12.74"/>
<polygon fill="#63b8ff" stroke="#63b8ff" points="713.26,-9.24 703.02,-11.98 712.73,-16.22 713.26,-9.24"/>
</a>
</g>
</g>
<!-- Node18&#45;&gt;Node15 -->
<g id="edge28_Node000018_Node000015" class="edge">
<title>Node18&#45;&gt;Node15</title>
<g id="a_edge28_Node000018_Node000015"><a xlink:title=" ">
<path fill="none" stroke="#63b8ff" d="M741,-109.75C741,-102.8 741,-92.85 741,-84.13"/>
<polygon fill="#63b8ff" stroke="#63b8ff" points="744.5,-84.09 741,-74.09 737.5,-84.09 744.5,-84.09"/>
</a>
</g>
</g>
<!-- Node18&#45;&gt;Node16 -->
<g id="edge30_Node000018_Node000016" class="edge">
<title>Node18&#45;&gt;Node16</title>
<g id="a_edge30_Node000018_Node000016"><a xlink:title=" ">
<path fill="none" stroke="#63b8ff" d="M752.57,-109.98C763.42,-102 779.88,-89.88 792.88,-80.31"/>
<polygon fill="#63b8ff" stroke="#63b8ff" points="795.24,-82.92 801.22,-74.17 791.09,-77.28 795.24,-82.92"/>
</a>
</g>
</g>
<!-- Node19 -->
<g id="Node000019" class="node">
<title>Node19</title>
<g id="a_Node000019"><a xlink:title=" ">
<polygon fill="#e0e0e0" stroke="#999999" points="1009.5,-74 940.5,-74 940.5,-55 1009.5,-55 1009.5,-74"/>
<text text-anchor="middle" x="975" y="-62" font-family="Helvetica,sans-Serif" font-size="10.00">arpa/inet.h</text>
</a>
</g>
</g>
<!-- Node18&#45;&gt;Node19 -->
<g id="edge27_Node000018_Node000019" class="edge">
<title>Node18&#45;&gt;Node19</title>
<g id="a_edge27_Node000018_Node000019"><a xlink:title=" ">
<path fill="none" stroke="#63b8ff" d="M778.6,-109.98C819.95,-100.62 886.35,-85.58 930.33,-75.62"/>
<polygon fill="#63b8ff" stroke="#63b8ff" points="931.19,-79.01 940.17,-73.39 929.65,-72.18 931.19,-79.01"/>
</a>
</g>
</g>
</g>
</svg>
