<?xml version="1.0" encoding="UTF-8" standalone="no"?>
<!DOCTYPE svg PUBLIC "-//W3C//DTD SVG 1.1//EN"
 "http://www.w3.org/Graphics/SVG/1.1/DTD/svg11.dtd">
<!-- Generated by graphviz version 2.43.0 (0)
 -->
<!-- Title: /home/runner/work/R&#45;Type/R&#45;Type/Client/src/scenes/Options.hpp Pages: 1 -->
<svg width="2659pt" height="324pt"
 viewBox="0.00 0.00 2659.00 324.00" xmlns="http://www.w3.org/2000/svg" xmlns:xlink="http://www.w3.org/1999/xlink">
<g id="graph0" class="graph" transform="scale(1 1) rotate(0) translate(4 320)">
<title>/home/runner/work/R&#45;Type/R&#45;Type/Client/src/scenes/Options.hpp</title>
<!-- Node1 -->
<g id="Node000001" class="node">
<title>Node1</title>
<g id="a_Node000001"><a xlink:title=" ">
<polygon fill="#999999" stroke="#666666" points="1865,-316 1733,-316 1733,-275 1865,-275 1865,-316"/>
<text text-anchor="start" x="1741" y="-304" font-family="Helvetica,sans-Serif" font-size="10.00">/home/runner/work/R</text>
<text text-anchor="start" x="1741" y="-293" font-family="Helvetica,sans-Serif" font-size="10.00">&#45;Type/R&#45;Type/Client</text>
<text text-anchor="middle" x="1799" y="-282" font-family="Helvetica,sans-Serif" font-size="10.00">/src/scenes/Options.hpp</text>
</a>
</g>
</g>
<!-- Node2 -->
<g id="Node000002" class="node">
<title>Node2</title>
<g id="a_Node000002"><a xlink:title=" ">
<polygon fill="#e0e0e0" stroke="#999999" points="72,-239 0,-239 0,-220 72,-220 72,-239"/>
<text text-anchor="middle" x="36" y="-227" font-family="Helvetica,sans-Serif" font-size="10.00">SDL2/SDL.h</text>
</a>
</g>
</g>
<!-- Node1&#45;&gt;Node2 -->
<g id="edge1_Node000001_Node000002" class="edge">
<title>Node1&#45;&gt;Node2</title>
<g id="a_edge1_Node000001_Node000002"><a xlink:title=" ">
<path fill="none" stroke="#63b8ff" d="M1732.85,-293.56C1459.13,-289.49 414.25,-272.06 86,-239 84.74,-238.87 83.47,-238.73 82.19,-238.58"/>
<polygon fill="#63b8ff" stroke="#63b8ff" points="82.62,-235.11 72.24,-237.26 81.69,-242.05 82.62,-235.11"/>
</a>
</g>
</g>
<!-- Node3 -->
<g id="Node000003" class="node">
<title>Node3</title>
<g id="a_Node000003"><a xlink:title=" ">
<polygon fill="#e0e0e0" stroke="#999999" points="1751,-184 1691,-184 1691,-165 1751,-165 1751,-184"/>
<text text-anchor="middle" x="1721" y="-172" font-family="Helvetica,sans-Serif" font-size="10.00">iostream</text>
</a>
</g>
</g>
<!-- Node1&#45;&gt;Node3 -->
<g id="edge2_Node000001_Node000003" class="edge">
<title>Node1&#45;&gt;Node3</title>
<g id="a_edge2_Node000001_Node000003"><a xlink:title=" ">
<path fill="none" stroke="#63b8ff" d="M1732.84,-290.3C1622.18,-282.59 1409.39,-264.61 1387,-239 1381.44,-232.64 1381.4,-226.32 1387,-220 1428.9,-172.68 1601.16,-193.08 1680.69,-183.81"/>
<polygon fill="#63b8ff" stroke="#63b8ff" points="1681.41,-187.24 1690.82,-182.37 1680.43,-180.31 1681.41,-187.24"/>
</a>
</g>
</g>
<!-- Node4 -->
<g id="Node000004" class="node">
<title>Node4</title>
<g id="a_Node000004"><a xlink:title=" ">
<polygon fill="#e0e0e0" stroke="#999999" points="1887,-184 1843,-184 1843,-165 1887,-165 1887,-184"/>
<text text-anchor="middle" x="1865" y="-172" font-family="Helvetica,sans-Serif" font-size="10.00">string</text>
</a>
</g>
</g>
<!-- Node1&#45;&gt;Node4 -->
<g id="edge3_Node000001_Node000004" class="edge">
<title>Node1&#45;&gt;Node4</title>
<g id="a_edge3_Node000001_Node000004"><a xlink:title=" ">
<path fill="none" stroke="#63b8ff" d="M1865.14,-291.9C1993.4,-286.18 2265.9,-270.43 2294,-239 2348.21,-178.37 2005.35,-174.85 1897.03,-175.23"/>
<polygon fill="#63b8ff" stroke="#63b8ff" points="1897,-171.73 1887.02,-175.28 1897.03,-178.73 1897,-171.73"/>
</a>
</g>
</g>
<!-- Node5 -->
<g id="Node000005" class="node">
<title>Node5</title>
<g id="a_Node000005"><a xlink:title=" ">
<polygon fill="#e0e0e0" stroke="#999999" points="1339.5,-239 1246.5,-239 1246.5,-220 1339.5,-220 1339.5,-239"/>
<text text-anchor="middle" x="1293" y="-227" font-family="Helvetica,sans-Serif" font-size="10.00">unordered_map</text>
</a>
</g>
</g>
<!-- Node1&#45;&gt;Node5 -->
<g id="edge4_Node000001_Node000005" class="edge">
<title>Node1&#45;&gt;Node5</title>
<g id="a_edge4_Node000001_Node000005"><a xlink:title=" ">
<path fill="none" stroke="#63b8ff" d="M1732.99,-286.57C1646.07,-276.05 1488.5,-256.76 1354,-239 1352.54,-238.81 1351.07,-238.61 1349.58,-238.41"/>
<polygon fill="#63b8ff" stroke="#63b8ff" points="1350,-234.94 1339.62,-237.07 1349.06,-241.87 1350,-234.94"/>
</a>
</g>
</g>
<!-- Node6 -->
<g id="Node000006" class="node">
<title>Node6</title>
<g id="a_Node000006"><a xlink:title=" ">
<polygon fill="#e0e0e0" stroke="#999999" points="209.5,-129 162.5,-129 162.5,-110 209.5,-110 209.5,-129"/>
<text text-anchor="middle" x="186" y="-117" font-family="Helvetica,sans-Serif" font-size="10.00">vector</text>
</a>
</g>
</g>
<!-- Node1&#45;&gt;Node6 -->
<g id="edge5_Node000001_Node000006" class="edge">
<title>Node1&#45;&gt;Node6</title>
<g id="a_edge5_Node000001_Node000006"><a xlink:title=" ">
<path fill="none" stroke="#63b8ff" d="M1732.89,-292.59C1431.82,-283.6 202.62,-243.32 148,-184 134.51,-169.35 151.28,-149.17 166.62,-135.52"/>
<polygon fill="#63b8ff" stroke="#63b8ff" points="168.93,-138.15 174.34,-129.04 164.43,-132.78 168.93,-138.15"/>
</a>
</g>
</g>
<!-- Node7 -->
<g id="Node000007" class="node">
<title>Node7</title>
<g id="a_Node000007"><a xlink:href="EntityHelper_8hpp.html" target="_top" xlink:title=" ">
<polygon fill="white" stroke="#666666" points="960,-239 822,-239 822,-220 960,-220 960,-239"/>
<text text-anchor="middle" x="891" y="-227" font-family="Helvetica,sans-Serif" font-size="10.00">Helpers/EntityHelper.hpp</text>
</a>
</g>
</g>
<!-- Node1&#45;&gt;Node7 -->
<g id="edge6_Node000001_Node000007" class="edge">
<title>Node1&#45;&gt;Node7</title>
<g id="a_edge6_Node000001_Node000007"><a xlink:title=" ">
<path fill="none" stroke="#63b8ff" d="M1732.97,-289.85C1569.53,-278.33 1146.65,-248.52 970.18,-236.08"/>
<polygon fill="#63b8ff" stroke="#63b8ff" points="970.4,-232.59 960.18,-235.38 969.91,-239.57 970.4,-232.59"/>
</a>
</g>
</g>
<!-- Node30 -->
<g id="Node000030" class="node">
<title>Node30</title>
<g id="a_Node000030"><a xlink:title=" ">
<polygon fill="#e0e0e0" stroke="#999999" points="1712.5,-239 1563.5,-239 1563.5,-220 1712.5,-220 1712.5,-239"/>
<text text-anchor="middle" x="1638" y="-227" font-family="Helvetica,sans-Serif" font-size="10.00">audio/AudioSubsystem.hpp</text>
</a>
</g>
</g>
<!-- Node1&#45;&gt;Node30 -->
<g id="edge51_Node000001_Node000030" class="edge">
<title>Node1&#45;&gt;Node30</title>
<g id="a_edge51_Node000001_Node000030"><a xlink:title=" ">
<path fill="none" stroke="#63b8ff" d="M1749.82,-274.95C1723.56,-264.51 1692.03,-251.98 1669.16,-242.88"/>
<polygon fill="#63b8ff" stroke="#63b8ff" points="1670.2,-239.53 1659.61,-239.09 1667.61,-246.04 1670.2,-239.53"/>
</a>
</g>
</g>
<!-- Node31 -->
<g id="Node000031" class="node">
<title>Node31</title>
<g id="a_Node000031"><a xlink:title=" ">
<polygon fill="#e0e0e0" stroke="#999999" points="1867,-239 1731,-239 1731,-220 1867,-220 1867,-239"/>
<text text-anchor="middle" x="1799" y="-227" font-family="Helvetica,sans-Serif" font-size="10.00">engine/GameEngine.hpp</text>
</a>
</g>
</g>
<!-- Node1&#45;&gt;Node31 -->
<g id="edge52_Node000001_Node000031" class="edge">
<title>Node1&#45;&gt;Node31</title>
<g id="a_edge52_Node000001_Node000031"><a xlink:title=" ">
<path fill="none" stroke="#63b8ff" d="M1799,-274.95C1799,-266.85 1799,-257.5 1799,-249.47"/>
<polygon fill="#63b8ff" stroke="#63b8ff" points="1802.5,-249.26 1799,-239.26 1795.5,-249.26 1802.5,-249.26"/>
</a>
</g>
</g>
<!-- Node32 -->
<g id="Node000032" class="node">
<title>Node32</title>
<g id="a_Node000032"><a xlink:title=" ">
<polygon fill="#e0e0e0" stroke="#999999" points="2010.5,-239 1885.5,-239 1885.5,-220 2010.5,-220 2010.5,-239"/>
<text text-anchor="middle" x="1948" y="-227" font-family="Helvetica,sans-Serif" font-size="10.00">input/KeyBindings.hpp</text>
</a>
</g>
</g>
<!-- Node1&#45;&gt;Node32 -->
<g id="edge53_Node000001_Node000032" class="edge">
<title>Node1&#45;&gt;Node32</title>
<g id="a_edge53_Node000001_Node000032"><a xlink:title=" ">
<path fill="none" stroke="#63b8ff" d="M1844.51,-274.95C1868.6,-264.6 1897.47,-252.2 1918.6,-243.13"/>
<polygon fill="#63b8ff" stroke="#63b8ff" points="1920.19,-246.25 1928,-239.09 1917.43,-239.82 1920.19,-246.25"/>
</a>
</g>
</g>
<!-- Node33 -->
<g id="Node000033" class="node">
<title>Node33</title>
<g id="a_Node000033"><a xlink:title=" ">
<polygon fill="#e0e0e0" stroke="#999999" points="2127,-239 2029,-239 2029,-220 2127,-220 2127,-239"/>
<text text-anchor="middle" x="2078" y="-227" font-family="Helvetica,sans-Serif" font-size="10.00">scene/Scene.hpp</text>
</a>
</g>
</g>
<!-- Node1&#45;&gt;Node33 -->
<g id="edge54_Node000001_Node000033" class="edge">
<title>Node1&#45;&gt;Node33</title>
<g id="a_edge54_Node000001_Node000033"><a xlink:title=" ">
<path fill="none" stroke="#63b8ff" d="M1865.12,-279.33C1916.05,-267.65 1985.24,-251.78 2030.72,-241.35"/>
<polygon fill="#63b8ff" stroke="#63b8ff" points="2031.65,-244.72 2040.62,-239.08 2030.09,-237.9 2031.65,-244.72"/>
</a>
</g>
</g>
<!-- Node34 -->
<g id="Node000034" class="node">
<title>Node34</title>
<g id="a_Node000034"><a xlink:title=" ">
<polygon fill="#e0e0e0" stroke="#999999" points="2285,-239 2145,-239 2145,-220 2285,-220 2285,-239"/>
<text text-anchor="middle" x="2215" y="-227" font-family="Helvetica,sans-Serif" font-size="10.00">scene/SceneManager.hpp</text>
</a>
</g>
</g>
<!-- Node1&#45;&gt;Node34 -->
<g id="edge55_Node000001_Node000034" class="edge">
<title>Node1&#45;&gt;Node34</title>
<g id="a_edge55_Node000001_Node000034"><a xlink:title=" ">
<path fill="none" stroke="#63b8ff" d="M1865.38,-284.29C1943.31,-272.3 2071.76,-252.54 2149.37,-240.6"/>
<polygon fill="#63b8ff" stroke="#63b8ff" points="2150.16,-244.02 2159.51,-239.04 2149.09,-237.1 2150.16,-244.02"/>
</a>
</g>
</g>
<!-- Node35 -->
<g id="Node000035" class="node">
<title>Node35</title>
<g id="a_Node000035"><a xlink:href="PlayerSettings_8hpp.html" target="_top" xlink:title=" ">
<polygon fill="white" stroke="#666666" points="1546,-239 1396,-239 1396,-220 1546,-220 1546,-239"/>
<text text-anchor="middle" x="1471" y="-227" font-family="Helvetica,sans-Serif" font-size="10.00">settings/PlayerSettings.hpp</text>
</a>
</g>
</g>
<!-- Node1&#45;&gt;Node35 -->
<g id="edge56_Node000001_Node000035" class="edge">
<title>Node1&#45;&gt;Node35</title>
<g id="a_edge56_Node000001_Node000035"><a xlink:title=" ">
<path fill="none" stroke="#63b8ff" d="M1732.62,-281.55C1671.35,-269.59 1581.48,-252.06 1524.63,-240.96"/>
<polygon fill="#63b8ff" stroke="#63b8ff" points="1525.25,-237.52 1514.76,-239.04 1523.91,-244.39 1525.25,-237.52"/>
</a>
</g>
</g>
<!-- Node37 -->
<g id="Node000037" class="node">
<title>Node37</title>
<g id="a_Node000037"><a xlink:title=" ">
<polygon fill="#e0e0e0" stroke="#999999" points="2433,-239 2341,-239 2341,-220 2433,-220 2433,-239"/>
<text text-anchor="middle" x="2387" y="-227" font-family="Helvetica,sans-Serif" font-size="10.00">ui/UIButton.hpp</text>
</a>
</g>
</g>
<!-- Node1&#45;&gt;Node37 -->
<g id="edge60_Node000001_Node000037" class="edge">
<title>Node1&#45;&gt;Node37</title>
<g id="a_edge60_Node000001_Node000037"><a xlink:title=" ">
<path fill="none" stroke="#63b8ff" d="M1865.35,-288.3C1965.5,-278.76 2161.2,-259.45 2327,-239 2328.26,-238.84 2329.54,-238.68 2330.83,-238.52"/>
<polygon fill="#63b8ff" stroke="#63b8ff" points="2331.37,-241.98 2340.83,-237.21 2330.46,-235.04 2331.37,-241.98"/>
</a>
</g>
</g>
<!-- Node38 -->
<g id="Node000038" class="node">
<title>Node38</title>
<g id="a_Node000038"><a xlink:title=" ">
<polygon fill="#e0e0e0" stroke="#999999" points="2553,-239 2451,-239 2451,-220 2553,-220 2553,-239"/>
<text text-anchor="middle" x="2502" y="-227" font-family="Helvetica,sans-Serif" font-size="10.00">ui/UIManager.hpp</text>
</a>
</g>
</g>
<!-- Node1&#45;&gt;Node38 -->
<g id="edge61_Node000001_Node000038" class="edge">
<title>Node1&#45;&gt;Node38</title>
<g id="a_edge61_Node000001_Node000038"><a xlink:title=" ">
<path fill="none" stroke="#63b8ff" d="M1865.3,-289.98C1980.29,-281.87 2224.34,-263.5 2440.99,-239.06"/>
<polygon fill="#63b8ff" stroke="#63b8ff" points="2441.42,-242.53 2450.96,-237.92 2440.63,-235.57 2441.42,-242.53"/>
</a>
</g>
</g>
<!-- Node39 -->
<g id="Node000039" class="node">
<title>Node39</title>
<g id="a_Node000039"><a xlink:title=" ">
<polygon fill="#e0e0e0" stroke="#999999" points="2651,-239 2571,-239 2571,-220 2651,-220 2651,-239"/>
<text text-anchor="middle" x="2611" y="-227" font-family="Helvetica,sans-Serif" font-size="10.00">ui/UIText.hpp</text>
</a>
</g>
</g>
<!-- Node1&#45;&gt;Node39 -->
<g id="edge62_Node000001_Node000039" class="edge">
<title>Node1&#45;&gt;Node39</title>
<g id="a_edge62_Node000001_Node000039"><a xlink:title=" ">
<path fill="none" stroke="#63b8ff" d="M1865.04,-291.9C1995.9,-286.28 2297.49,-270.92 2560.8,-239.02"/>
<polygon fill="#63b8ff" stroke="#63b8ff" points="2561.44,-242.47 2570.94,-237.78 2560.59,-235.52 2561.44,-242.47"/>
</a>
</g>
</g>
<!-- Node7&#45;&gt;Node3 -->
<g id="edge7_Node000007_Node000003" class="edge">
<title>Node7&#45;&gt;Node3</title>
<g id="a_edge7_Node000007_Node000003"><a xlink:title=" ">
<path fill="none" stroke="#63b8ff" d="M960.27,-226.01C1122.59,-219.97 1524.89,-203.62 1680.52,-183.93"/>
<polygon fill="#63b8ff" stroke="#63b8ff" points="1681.39,-187.34 1690.85,-182.57 1680.48,-180.4 1681.39,-187.34"/>
</a>
</g>
</g>
<!-- Node7&#45;&gt;Node4 -->
<g id="edge8_Node000007_Node000004" class="edge">
<title>Node7&#45;&gt;Node4</title>
<g id="a_edge8_Node000007_Node000004"><a xlink:title=" ">
<path fill="none" stroke="#63b8ff" d="M960.25,-226.11C1157.02,-219.22 1712.41,-198.88 1832.54,-183.68"/>
<polygon fill="#63b8ff" stroke="#63b8ff" points="1833.37,-187.1 1842.78,-182.22 1832.38,-180.16 1833.37,-187.1"/>
</a>
</g>
</g>
<!-- Node7&#45;&gt;Node6 -->
<g id="edge10_Node000007_Node000006" class="edge">
<title>Node7&#45;&gt;Node6</title>
<g id="a_edge10_Node000007_Node000006"><a xlink:title=" ">
<path fill="none" stroke="#63b8ff" d="M821.82,-226.84C643.33,-222.23 179.59,-208 157,-184 144.36,-170.57 156.99,-150.68 169.31,-136.74"/>
<polygon fill="#63b8ff" stroke="#63b8ff" points="172.01,-138.99 176.34,-129.32 166.92,-134.18 172.01,-138.99"/>
</a>
</g>
</g>
<!-- Node8 -->
<g id="Node000008" class="node">
<title>Node8</title>
<g id="a_Node000008"><a xlink:title=" ">
<polygon fill="#e0e0e0" stroke="#999999" points="114.5,-129 69.5,-129 69.5,-110 114.5,-110 114.5,-129"/>
<text text-anchor="middle" x="92" y="-117" font-family="Helvetica,sans-Serif" font-size="10.00">utility</text>
</a>
</g>
</g>
<!-- Node7&#45;&gt;Node8 -->
<g id="edge9_Node000007_Node000008" class="edge">
<title>Node7&#45;&gt;Node8</title>
<g id="a_edge9_Node000007_Node000008"><a xlink:title=" ">
<path fill="none" stroke="#63b8ff" d="M821.69,-227.37C648.7,-224.12 207.56,-213.06 148,-184 127.84,-174.17 111.82,-153.5 102.17,-138.4"/>
<polygon fill="#63b8ff" stroke="#63b8ff" points="104.93,-136.21 96.76,-129.46 98.94,-139.83 104.93,-136.21"/>
</a>
</g>
</g>
<!-- Node9 -->
<g id="Node000009" class="node">
<title>Node9</title>
<g id="a_Node000009"><a xlink:href="Items_8hpp.html" target="_top" xlink:title=" ">
<polygon fill="white" stroke="#666666" points="276,-184 166,-184 166,-165 276,-165 276,-184"/>
<text text-anchor="middle" x="221" y="-172" font-family="Helvetica,sans-Serif" font-size="10.00">Collision/Items.hpp</text>
</a>
</g>
</g>
<!-- Node7&#45;&gt;Node9 -->
<g id="edge11_Node000007_Node000009" class="edge">
<title>Node7&#45;&gt;Node9</title>
<g id="a_edge11_Node000007_Node000009"><a xlink:title=" ">
<path fill="none" stroke="#63b8ff" d="M821.81,-224.75C711.03,-218.44 486.74,-204.48 286.27,-184.07"/>
<polygon fill="#63b8ff" stroke="#63b8ff" points="286.44,-180.57 276.13,-183.03 285.72,-187.53 286.44,-180.57"/>
</a>
</g>
</g>
<!-- Node10 -->
<g id="Node000010" class="node">
<title>Node10</title>
<g id="a_Node000010"><a xlink:href="Boss_8hpp.html" target="_top" xlink:title=" ">
<polygon fill="white" stroke="#666666" points="557.5,-129 462.5,-129 462.5,-110 557.5,-110 557.5,-129"/>
<text text-anchor="middle" x="510" y="-117" font-family="Helvetica,sans-Serif" font-size="10.00">Player/Boss.hpp</text>
</a>
</g>
</g>
<!-- Node7&#45;&gt;Node10 -->
<g id="edge12_Node000007_Node000010" class="edge">
<title>Node7&#45;&gt;Node10</title>
<g id="a_edge12_Node000007_Node000010"><a xlink:title=" ">
<path fill="none" stroke="#63b8ff" d="M824.11,-220C778.93,-213.1 718.39,-201.6 667,-184 649.14,-177.88 646.31,-172.54 629,-165 601.22,-152.9 568.99,-140.97 545.08,-132.52"/>
<polygon fill="#63b8ff" stroke="#63b8ff" points="545.98,-129.12 535.38,-129.11 543.66,-135.73 545.98,-129.12"/>
</a>
</g>
</g>
<!-- Node11 -->
<g id="Node000011" class="node">
<title>Node11</title>
<g id="a_Node000011"><a xlink:title=" ">
<polygon fill="#e0e0e0" stroke="#999999" points="815,-19 687,-19 687,0 815,0 815,-19"/>
<text text-anchor="middle" x="751" y="-7" font-family="Helvetica,sans-Serif" font-size="10.00">physics/Physics2D.hpp</text>
</a>
</g>
</g>
<!-- Node7&#45;&gt;Node11 -->
<g id="edge48_Node000007_Node000011" class="edge">
<title>Node7&#45;&gt;Node11</title>
<g id="a_edge48_Node000007_Node000011"><a xlink:title=" ">
<path fill="none" stroke="#63b8ff" d="M944.39,-219.96C984.36,-212.72 1040.02,-200.8 1087,-184 1104.78,-177.64 1106.88,-170.33 1125,-165 1196.54,-143.96 1500.07,-170.15 1456,-110 1408.07,-44.58 1361.57,-70.71 1282,-55 1121.26,-23.27 928.79,-14.15 825.42,-11.53"/>
<polygon fill="#63b8ff" stroke="#63b8ff" points="825.47,-8.03 815.39,-11.29 825.31,-15.03 825.47,-8.03"/>
</a>
</g>
</g>
<!-- Node13 -->
<g id="Node000013" class="node">
<title>Node13</title>
<g id="a_Node000013"><a xlink:href="Enemy_8hpp.html" target="_top" xlink:title=" ">
<polygon fill="white" stroke="#666666" points="332,-129 228,-129 228,-110 332,-110 332,-129"/>
<text text-anchor="middle" x="280" y="-117" font-family="Helvetica,sans-Serif" font-size="10.00">Player/Enemy.hpp</text>
</a>
</g>
</g>
<!-- Node7&#45;&gt;Node13 -->
<g id="edge15_Node000007_Node000013" class="edge">
<title>Node7&#45;&gt;Node13</title>
<g id="a_edge15_Node000007_Node000013"><a xlink:title=" ">
<path fill="none" stroke="#63b8ff" d="M821.81,-228.25C738.8,-226.32 596.18,-217.75 479,-184 460.47,-178.66 458.03,-171.83 440,-165 403.27,-151.08 360.31,-139.37 328.16,-131.46"/>
<polygon fill="#63b8ff" stroke="#63b8ff" points="328.67,-127.98 318.12,-129.03 327.02,-134.79 328.67,-127.98"/>
</a>
</g>
</g>
<!-- Node14 -->
<g id="Node000014" class="node">
<title>Node14</title>
<g id="a_Node000014"><a xlink:href="EnemySpawn_8hpp.html" target="_top" xlink:title=" ">
<polygon fill="white" stroke="#666666" points="431.5,-184 294.5,-184 294.5,-165 431.5,-165 431.5,-184"/>
<text text-anchor="middle" x="363" y="-172" font-family="Helvetica,sans-Serif" font-size="10.00">Player/EnemySpawn.hpp</text>
</a>
</g>
</g>
<!-- Node7&#45;&gt;Node14 -->
<g id="edge17_Node000007_Node000014" class="edge">
<title>Node7&#45;&gt;Node14</title>
<g id="a_edge17_Node000007_Node000014"><a xlink:title=" ">
<path fill="none" stroke="#63b8ff" d="M821.62,-221.61C734.07,-212.91 578.87,-197.45 446,-184 444.7,-183.87 443.39,-183.74 442.08,-183.6"/>
<polygon fill="#63b8ff" stroke="#63b8ff" points="442.14,-180.09 431.84,-182.56 441.44,-187.06 442.14,-180.09"/>
</a>
</g>
</g>
<!-- Node15 -->
<g id="Node000015" class="node">
<title>Node15</title>
<g id="a_Node000015"><a xlink:href="PlayerEntity_8hpp.html" target="_top" xlink:title=" ">
<polygon fill="white" stroke="#666666" points="805.5,-184 676.5,-184 676.5,-165 805.5,-165 805.5,-184"/>
<text text-anchor="middle" x="741" y="-172" font-family="Helvetica,sans-Serif" font-size="10.00">Player/PlayerEntity.hpp</text>
</a>
</g>
</g>
<!-- Node7&#45;&gt;Node15 -->
<g id="edge21_Node000007_Node000015" class="edge">
<title>Node7&#45;&gt;Node15</title>
<g id="a_edge21_Node000007_Node000015"><a xlink:title=" ">
<path fill="none" stroke="#63b8ff" d="M866.9,-219.98C842.12,-211.23 803.3,-197.51 775.31,-187.62"/>
<polygon fill="#63b8ff" stroke="#63b8ff" points="776.13,-184.2 765.54,-184.17 773.8,-190.8 776.13,-184.2"/>
</a>
</g>
</g>
<!-- Node19 -->
<g id="Node000019" class="node">
<title>Node19</title>
<g id="a_Node000019"><a xlink:href="Projectile_8hpp.html" target="_top" xlink:title=" ">
<polygon fill="white" stroke="#666666" points="841,-74 661,-74 661,-55 841,-55 841,-74"/>
<text text-anchor="middle" x="751" y="-62" font-family="Helvetica,sans-Serif" font-size="10.00">components/Player/Projectile.hpp</text>
</a>
</g>
</g>
<!-- Node7&#45;&gt;Node19 -->
<g id="edge29_Node000007_Node000019" class="edge">
<title>Node7&#45;&gt;Node19</title>
<g id="a_edge29_Node000007_Node000019"><a xlink:title=" ">
<path fill="none" stroke="#63b8ff" d="M887,-219.96C877.04,-199.31 849.42,-145.73 815,-110 803.44,-98 788.2,-87.25 775.49,-79.32"/>
<polygon fill="#63b8ff" stroke="#63b8ff" points="777.14,-76.23 766.77,-74.07 773.53,-82.23 777.14,-76.23"/>
</a>
</g>
</g>
<!-- Node20 -->
<g id="Node000020" class="node">
<title>Node20</title>
<g id="a_Node000020"><a xlink:href="BossPart_8hpp.html" target="_top" xlink:title=" ">
<polygon fill="white" stroke="#666666" points="1195.5,-129 1052.5,-129 1052.5,-110 1195.5,-110 1195.5,-129"/>
<text text-anchor="middle" x="1124" y="-117" font-family="Helvetica,sans-Serif" font-size="10.00">components/BossPart.hpp</text>
</a>
</g>
</g>
<!-- Node7&#45;&gt;Node20 -->
<g id="edge30_Node000007_Node000020" class="edge">
<title>Node7&#45;&gt;Node20</title>
<g id="a_edge30_Node000007_Node000020"><a xlink:title=" ">
<path fill="none" stroke="#63b8ff" d="M888.75,-219.86C885.8,-206.35 882.46,-180.19 896,-165 906.35,-153.4 986.92,-139.63 1049.38,-130.52"/>
<polygon fill="#63b8ff" stroke="#63b8ff" points="1050.23,-133.93 1059.63,-129.04 1049.23,-127 1050.23,-133.93"/>
</a>
</g>
</g>
<!-- Node21 -->
<g id="Node000021" class="node">
<title>Node21</title>
<g id="a_Node000021"><a xlink:href="Force_8hpp.html" target="_top" xlink:title=" ">
<polygon fill="white" stroke="#666666" points="1340.5,-129 1213.5,-129 1213.5,-110 1340.5,-110 1340.5,-129"/>
<text text-anchor="middle" x="1277" y="-117" font-family="Helvetica,sans-Serif" font-size="10.00">components/Force.hpp</text>
</a>
</g>
</g>
<!-- Node7&#45;&gt;Node21 -->
<g id="edge33_Node000007_Node000021" class="edge">
<title>Node7&#45;&gt;Node21</title>
<g id="a_edge33_Node000007_Node000021"><a xlink:title=" ">
<path fill="none" stroke="#63b8ff" d="M893.48,-219.79C898,-205.68 909,-178.08 929,-165 931.86,-163.13 1101.96,-141.98 1203.25,-129.53"/>
<polygon fill="#63b8ff" stroke="#63b8ff" points="1203.94,-132.97 1213.43,-128.28 1203.08,-126.02 1203.94,-132.97"/>
</a>
</g>
</g>
<!-- Node22 -->
<g id="Node000022" class="node">
<title>Node22</title>
<g id="a_Node000022"><a xlink:href="Levels_8hpp.html" target="_top" xlink:title=" ">
<polygon fill="white" stroke="#666666" points="620,-184 488,-184 488,-165 620,-165 620,-184"/>
<text text-anchor="middle" x="554" y="-172" font-family="Helvetica,sans-Serif" font-size="10.00">components/Levels.hpp</text>
</a>
</g>
</g>
<!-- Node7&#45;&gt;Node22 -->
<g id="edge36_Node000007_Node000022" class="edge">
<title>Node7&#45;&gt;Node22</title>
<g id="a_edge36_Node000007_Node000022"><a xlink:title=" ">
<path fill="none" stroke="#63b8ff" d="M836.86,-219.98C777.37,-210.63 681.89,-195.61 618.56,-185.65"/>
<polygon fill="#63b8ff" stroke="#63b8ff" points="618.71,-182.13 608.29,-184.04 617.62,-189.05 618.71,-182.13"/>
</a>
</g>
</g>
<!-- Node24 -->
<g id="Node000024" class="node">
<title>Node24</title>
<g id="a_Node000024"><a xlink:href="TileMap_8hpp.html" target="_top" xlink:title=" ">
<polygon fill="white" stroke="#666666" points="1078,-184 938,-184 938,-165 1078,-165 1078,-184"/>
<text text-anchor="middle" x="1008" y="-172" font-family="Helvetica,sans-Serif" font-size="10.00">components/TileMap.hpp</text>
</a>
</g>
</g>
<!-- Node7&#45;&gt;Node24 -->
<g id="edge42_Node000007_Node000024" class="edge">
<title>Node7&#45;&gt;Node24</title>
<g id="a_edge42_Node000007_Node000024"><a xlink:title=" ">
<path fill="none" stroke="#63b8ff" d="M909.8,-219.98C928.62,-211.46 957.82,-198.23 979.5,-188.41"/>
<polygon fill="#63b8ff" stroke="#63b8ff" points="981.2,-191.48 988.86,-184.17 978.31,-185.11 981.2,-191.48"/>
</a>
</g>
</g>
<!-- Node26 -->
<g id="Node000026" class="node">
<title>Node26</title>
<g id="a_Node000026"><a xlink:title=" ">
<polygon fill="#e0e0e0" stroke="#999999" points="1230,-184 1134,-184 1134,-165 1230,-165 1230,-184"/>
<text text-anchor="middle" x="1182" y="-172" font-family="Helvetica,sans-Serif" font-size="10.00">ecs/Registry.hpp</text>
</a>
</g>
</g>
<!-- Node7&#45;&gt;Node26 -->
<g id="edge46_Node000007_Node000026" class="edge">
<title>Node7&#45;&gt;Node26</title>
<g id="a_edge46_Node000007_Node000026"><a xlink:title=" ">
<path fill="none" stroke="#63b8ff" d="M937.75,-219.98C988.72,-210.7 1070.31,-195.84 1124.99,-185.88"/>
<polygon fill="#63b8ff" stroke="#63b8ff" points="1125.67,-189.32 1134.88,-184.08 1124.41,-182.43 1125.67,-189.32"/>
</a>
</g>
</g>
<!-- Node27 -->
<g id="Node000027" class="node">
<title>Node27</title>
<g id="a_Node000027"><a xlink:title=" ">
<polygon fill="#e0e0e0" stroke="#999999" points="1392,-184 1248,-184 1248,-165 1392,-165 1392,-184"/>
<text text-anchor="middle" x="1320" y="-172" font-family="Helvetica,sans-Serif" font-size="10.00">input/InputSubsystem.hpp</text>
</a>
</g>
</g>
<!-- Node7&#45;&gt;Node27 -->
<g id="edge47_Node000007_Node000027" class="edge">
<title>Node7&#45;&gt;Node27</title>
<g id="a_edge47_Node000007_Node000027"><a xlink:title=" ">
<path fill="none" stroke="#63b8ff" d="M959.93,-219.98C1036.59,-210.51 1160.21,-195.24 1240.79,-185.29"/>
<polygon fill="#63b8ff" stroke="#63b8ff" points="1241.39,-188.74 1250.89,-184.04 1240.54,-181.79 1241.39,-188.74"/>
</a>
</g>
</g>
<!-- Node28 -->
<g id="Node000028" class="node">
<title>Node28</title>
<g id="a_Node000028"><a xlink:title=" ">
<polygon fill="#e0e0e0" stroke="#999999" points="1601.5,-184 1410.5,-184 1410.5,-165 1601.5,-165 1601.5,-184"/>
<text text-anchor="middle" x="1506" y="-172" font-family="Helvetica,sans-Serif" font-size="10.00">rendering/RenderingSubsystem.hpp</text>
</a>
</g>
</g>
<!-- Node7&#45;&gt;Node28 -->
<g id="edge49_Node000007_Node000028" class="edge">
<title>Node7&#45;&gt;Node28</title>
<g id="a_edge49_Node000007_Node000028"><a xlink:title=" ">
<path fill="none" stroke="#63b8ff" d="M960.06,-222.55C1067.22,-213.31 1274.31,-195.47 1400.35,-184.61"/>
<polygon fill="#63b8ff" stroke="#63b8ff" points="1400.74,-188.08 1410.41,-183.74 1400.14,-181.11 1400.74,-188.08"/>
</a>
</g>
</g>
<!-- Node29 -->
<g id="Node000029" class="node">
<title>Node29</title>
<g id="a_Node000029"><a xlink:title=" ">
<polygon fill="#e0e0e0" stroke="#999999" points="1672.5,-184 1619.5,-184 1619.5,-165 1672.5,-165 1672.5,-184"/>
<text text-anchor="middle" x="1646" y="-172" font-family="Helvetica,sans-Serif" font-size="10.00">stdlib.h</text>
</a>
</g>
</g>
<!-- Node7&#45;&gt;Node29 -->
<g id="edge50_Node000007_Node000029" class="edge">
<title>Node7&#45;&gt;Node29</title>
<g id="a_edge50_Node000007_Node000029"><a xlink:title=" ">
<path fill="none" stroke="#63b8ff" d="M960.18,-228.27C1087.22,-226.97 1366.25,-220.01 1609.26,-184"/>
<polygon fill="#63b8ff" stroke="#63b8ff" points="1609.97,-187.43 1619.34,-182.49 1608.93,-180.51 1609.97,-187.43"/>
</a>
</g>
</g>
<!-- Node10&#45;&gt;Node11 -->
<g id="edge13_Node000010_Node000011" class="edge">
<title>Node10&#45;&gt;Node11</title>
<g id="a_edge13_Node000010_Node000011"><a xlink:title=" ">
<path fill="none" stroke="#63b8ff" d="M516.12,-109.6C526.14,-95.73 547.4,-69.1 572,-55 603.85,-36.74 643.07,-25.91 676.67,-19.52"/>
<polygon fill="#63b8ff" stroke="#63b8ff" points="677.69,-22.89 686.91,-17.68 676.44,-16.01 677.69,-22.89"/>
</a>
</g>
</g>
<!-- Node12 -->
<g id="Node000012" class="node">
<title>Node12</title>
<g id="a_Node000012"><a xlink:title=" ">
<polygon fill="#e0e0e0" stroke="#999999" points="1016,-74 932,-74 932,-55 1016,-55 1016,-74"/>
<text text-anchor="middle" x="974" y="-62" font-family="Helvetica,sans-Serif" font-size="10.00">ecs/Entity.hpp</text>
</a>
</g>
</g>
<!-- Node10&#45;&gt;Node12 -->
<g id="edge14_Node000010_Node000012" class="edge">
<title>Node10&#45;&gt;Node12</title>
<g id="a_edge14_Node000010_Node000012"><a xlink:title=" ">
<path fill="none" stroke="#63b8ff" d="M557.91,-113.03C645.53,-103.02 830.92,-81.84 921.7,-71.47"/>
<polygon fill="#63b8ff" stroke="#63b8ff" points="922.23,-74.94 931.76,-70.32 921.43,-67.98 922.23,-74.94"/>
</a>
</g>
</g>
<!-- Node13&#45;&gt;Node11 -->
<g id="edge16_Node000013_Node000011" class="edge">
<title>Node13&#45;&gt;Node11</title>
<g id="a_edge16_Node000013_Node000011"><a xlink:title=" ">
<path fill="none" stroke="#63b8ff" d="M286.1,-109.67C296.51,-95.38 319.21,-67.54 346,-55 402.98,-28.33 576.33,-17.24 676.81,-12.95"/>
<polygon fill="#63b8ff" stroke="#63b8ff" points="677.05,-16.44 686.9,-12.53 676.76,-9.45 677.05,-16.44"/>
</a>
</g>
</g>
<!-- Node14&#45;&gt;Node6 -->
<g id="edge19_Node000014_Node000006" class="edge">
<title>Node14&#45;&gt;Node6</title>
<g id="a_edge19_Node000014_Node000006"><a xlink:title=" ">
<path fill="none" stroke="#63b8ff" d="M334.56,-164.98C303.12,-155.57 252.54,-140.42 219.28,-130.46"/>
<polygon fill="#63b8ff" stroke="#63b8ff" points="220.14,-127.07 209.55,-127.55 218.13,-133.77 220.14,-127.07"/>
</a>
</g>
</g>
<!-- Node14&#45;&gt;Node8 -->
<g id="edge18_Node000014_Node000008" class="edge">
<title>Node14&#45;&gt;Node8</title>
<g id="a_edge18_Node000014_Node000008"><a xlink:title=" ">
<path fill="none" stroke="#63b8ff" d="M319.46,-164.98C265.1,-154.35 173.34,-136.41 124.64,-126.88"/>
<polygon fill="#63b8ff" stroke="#63b8ff" points="125.14,-123.41 114.65,-124.93 123.79,-130.28 125.14,-123.41"/>
</a>
</g>
</g>
<!-- Node14&#45;&gt;Node13 -->
<g id="edge20_Node000014_Node000013" class="edge">
<title>Node14&#45;&gt;Node13</title>
<g id="a_edge20_Node000014_Node000013"><a xlink:title=" ">
<path fill="none" stroke="#63b8ff" d="M349.66,-164.98C336.91,-156.84 317.45,-144.41 302.33,-134.76"/>
<polygon fill="#63b8ff" stroke="#63b8ff" points="303.89,-131.6 293.58,-129.17 300.12,-137.5 303.89,-131.6"/>
</a>
</g>
</g>
<!-- Node15&#45;&gt;Node11 -->
<g id="edge28_Node000015_Node000011" class="edge">
<title>Node15&#45;&gt;Node11</title>
<g id="a_edge28_Node000015_Node000011"><a xlink:title=" ">
<path fill="none" stroke="#63b8ff" d="M676.49,-167.59C635.43,-160.45 592.19,-144.71 605,-110 622.01,-63.9 674.9,-36.54 712.1,-22.51"/>
<polygon fill="#63b8ff" stroke="#63b8ff" points="713.44,-25.75 721.66,-19.06 711.07,-19.16 713.44,-25.75"/>
</a>
</g>
</g>
<!-- Node16 -->
<g id="Node000016" class="node">
<title>Node16</title>
<g id="a_Node000016"><a xlink:title=" ">
<polygon fill="#e0e0e0" stroke="#999999" points="806,-129 742,-129 742,-110 806,-110 806,-129"/>
<text text-anchor="middle" x="774" y="-117" font-family="Helvetica,sans-Serif" font-size="10.00">algorithm</text>
</a>
</g>
</g>
<!-- Node15&#45;&gt;Node16 -->
<g id="edge22_Node000015_Node000016" class="edge">
<title>Node15&#45;&gt;Node16</title>
<g id="a_edge22_Node000015_Node000016"><a xlink:title=" ">
<path fill="none" stroke="#63b8ff" d="M746.45,-164.75C751.01,-157.42 757.67,-146.73 763.29,-137.7"/>
<polygon fill="#63b8ff" stroke="#63b8ff" points="766.34,-139.43 768.65,-129.09 760.4,-135.73 766.34,-139.43"/>
</a>
</g>
</g>
<!-- Node17 -->
<g id="Node000017" class="node">
<title>Node17</title>
<g id="a_Node000017"><a xlink:href="CollisionController_8hpp.html" target="_top" xlink:title=" ">
<polygon fill="white" stroke="#666666" points="1034,-129 862,-129 862,-110 1034,-110 1034,-129"/>
<text text-anchor="middle" x="948" y="-117" font-family="Helvetica,sans-Serif" font-size="10.00">Collision/CollisionController.hpp</text>
</a>
</g>
</g>
<!-- Node15&#45;&gt;Node17 -->
<g id="edge23_Node000015_Node000017" class="edge">
<title>Node15&#45;&gt;Node17</title>
<g id="a_edge23_Node000015_Node000017"><a xlink:title=" ">
<path fill="none" stroke="#63b8ff" d="M774.26,-164.98C809.61,-155.93 865.67,-141.58 904.51,-131.64"/>
<polygon fill="#63b8ff" stroke="#63b8ff" points="905.66,-134.95 914.48,-129.08 903.93,-128.17 905.66,-134.95"/>
</a>
</g>
</g>
<!-- Node18 -->
<g id="Node000018" class="node">
<title>Node18</title>
<g id="a_Node000018"><a xlink:href="Weapon_8hpp.html" target="_top" xlink:title=" ">
<polygon fill="white" stroke="#666666" points="724,-129 614,-129 614,-110 724,-110 724,-129"/>
<text text-anchor="middle" x="669" y="-117" font-family="Helvetica,sans-Serif" font-size="10.00">Player/Weapon.hpp</text>
</a>
</g>
</g>
<!-- Node15&#45;&gt;Node18 -->
<g id="edge25_Node000015_Node000018" class="edge">
<title>Node15&#45;&gt;Node18</title>
<g id="a_edge25_Node000015_Node000018"><a xlink:title=" ">
<path fill="none" stroke="#63b8ff" d="M729.43,-164.98C718.58,-157 702.12,-144.88 689.12,-135.31"/>
<polygon fill="#63b8ff" stroke="#63b8ff" points="690.91,-132.28 680.78,-129.17 686.76,-137.92 690.91,-132.28"/>
</a>
</g>
</g>
<!-- Node17&#45;&gt;Node12 -->
<g id="edge24_Node000017_Node000012" class="edge">
<title>Node17&#45;&gt;Node12</title>
<g id="a_edge24_Node000017_Node000012"><a xlink:title=" ">
<path fill="none" stroke="#63b8ff" d="M952.29,-109.75C955.81,-102.57 960.91,-92.18 965.28,-83.27"/>
<polygon fill="#63b8ff" stroke="#63b8ff" points="968.52,-84.61 969.79,-74.09 962.24,-81.53 968.52,-84.61"/>
</a>
</g>
</g>
<!-- Node18&#45;&gt;Node19 -->
<g id="edge26_Node000018_Node000019" class="edge">
<title>Node18&#45;&gt;Node19</title>
<g id="a_edge26_Node000018_Node000019"><a xlink:title=" ">
<path fill="none" stroke="#63b8ff" d="M682.17,-109.98C694.77,-101.84 714,-89.41 728.94,-79.76"/>
<polygon fill="#63b8ff" stroke="#63b8ff" points="731.09,-82.54 737.59,-74.17 727.29,-76.66 731.09,-82.54"/>
</a>
</g>
</g>
<!-- Node19&#45;&gt;Node11 -->
<g id="edge27_Node000019_Node000011" class="edge">
<title>Node19&#45;&gt;Node11</title>
<g id="a_edge27_Node000019_Node000011"><a xlink:title=" ">
<path fill="none" stroke="#63b8ff" d="M751,-54.75C751,-47.8 751,-37.85 751,-29.13"/>
<polygon fill="#63b8ff" stroke="#63b8ff" points="754.5,-29.09 751,-19.09 747.5,-29.09 754.5,-29.09"/>
</a>
</g>
</g>
<!-- Node20&#45;&gt;Node11 -->
<g id="edge31_Node000020_Node000011" class="edge">
<title>Node20&#45;&gt;Node11</title>
<g id="a_edge31_Node000020_Node000011"><a xlink:title=" ">
<path fill="none" stroke="#63b8ff" d="M1113.8,-109.9C1096.66,-95.95 1060.47,-68.58 1025,-55 960.28,-30.22 881.81,-19.24 825.47,-14.37"/>
<polygon fill="#63b8ff" stroke="#63b8ff" points="825.46,-10.86 815.21,-13.53 824.89,-17.84 825.46,-10.86"/>
</a>
</g>
</g>
<!-- Node20&#45;&gt;Node12 -->
<g id="edge32_Node000020_Node000012" class="edge">
<title>Node20&#45;&gt;Node12</title>
<g id="a_edge32_Node000020_Node000012"><a xlink:title=" ">
<path fill="none" stroke="#63b8ff" d="M1099.9,-109.98C1075.12,-101.23 1036.3,-87.51 1008.31,-77.62"/>
<polygon fill="#63b8ff" stroke="#63b8ff" points="1009.13,-74.2 998.54,-74.17 1006.8,-80.8 1009.13,-74.2"/>
</a>
</g>
</g>
<!-- Node21&#45;&gt;Node11 -->
<g id="edge35_Node000021_Node000011" class="edge">
<title>Node21&#45;&gt;Node11</title>
<g id="a_edge35_Node000021_Node000011"><a xlink:title=" ">
<path fill="none" stroke="#63b8ff" d="M1251.67,-109.91C1211.18,-96.47 1129.19,-70.4 1058,-55 979.34,-37.98 887.91,-25.67 825.42,-18.37"/>
<polygon fill="#63b8ff" stroke="#63b8ff" points="825.59,-14.86 815.26,-17.19 824.79,-21.82 825.59,-14.86"/>
</a>
</g>
</g>
<!-- Node21&#45;&gt;Node12 -->
<g id="edge34_Node000021_Node000012" class="edge">
<title>Node21&#45;&gt;Node12</title>
<g id="a_edge34_Node000021_Node000012"><a xlink:title=" ">
<path fill="none" stroke="#63b8ff" d="M1228.32,-109.98C1173.04,-100.32 1083.19,-84.6 1026.41,-74.67"/>
<polygon fill="#63b8ff" stroke="#63b8ff" points="1026.66,-71.16 1016.21,-72.88 1025.46,-78.05 1026.66,-71.16"/>
</a>
</g>
</g>
<!-- Node22&#45;&gt;Node6 -->
<g id="edge38_Node000022_Node000006" class="edge">
<title>Node22&#45;&gt;Node6</title>
<g id="a_edge38_Node000022_Node000006"><a xlink:title=" ">
<path fill="none" stroke="#63b8ff" d="M487.83,-167.08C422.17,-160.17 318.52,-147.83 219.58,-128.89"/>
<polygon fill="#63b8ff" stroke="#63b8ff" points="220.2,-125.44 209.72,-126.97 218.87,-132.31 220.2,-125.44"/>
</a>
</g>
</g>
<!-- Node22&#45;&gt;Node10 -->
<g id="edge39_Node000022_Node000010" class="edge">
<title>Node22&#45;&gt;Node10</title>
<g id="a_edge39_Node000022_Node000010"><a xlink:title=" ">
<path fill="none" stroke="#63b8ff" d="M546.73,-164.75C540.46,-157.18 531.21,-146.05 523.57,-136.84"/>
<polygon fill="#63b8ff" stroke="#63b8ff" points="526.21,-134.55 517.13,-129.09 520.83,-139.02 526.21,-134.55"/>
</a>
</g>
</g>
<!-- Node22&#45;&gt;Node11 -->
<g id="edge41_Node000022_Node000011" class="edge">
<title>Node22&#45;&gt;Node11</title>
<g id="a_edge41_Node000022_Node000011"><a xlink:title=" ">
<path fill="none" stroke="#63b8ff" d="M488,-165.19C444.28,-158.17 392.57,-146.45 379,-129 373.82,-122.33 374.06,-116.85 379,-110 413.64,-62.04 578.19,-32.84 676.46,-19.38"/>
<polygon fill="#63b8ff" stroke="#63b8ff" points="677.19,-22.81 686.64,-18.01 676.26,-15.87 677.19,-22.81"/>
</a>
</g>
</g>
<!-- Node22&#45;&gt;Node13 -->
<g id="edge40_Node000022_Node000013" class="edge">
<title>Node22&#45;&gt;Node13</title>
<g id="a_edge40_Node000022_Node000013"><a xlink:title=" ">
<path fill="none" stroke="#63b8ff" d="M509.98,-164.98C462.18,-155.74 385.8,-140.97 334.32,-131.01"/>
<polygon fill="#63b8ff" stroke="#63b8ff" points="334.85,-127.54 324.37,-129.08 333.52,-134.42 334.85,-127.54"/>
</a>
</g>
</g>
<!-- Node23 -->
<g id="Node000023" class="node">
<title>Node23</title>
<g id="a_Node000023"><a xlink:title=" ">
<polygon fill="#e0e0e0" stroke="#999999" points="444,-129 388,-129 388,-110 444,-110 444,-129"/>
<text text-anchor="middle" x="416" y="-117" font-family="Helvetica,sans-Serif" font-size="10.00">optional</text>
</a>
</g>
</g>
<!-- Node22&#45;&gt;Node23 -->
<g id="edge37_Node000022_Node000023" class="edge">
<title>Node22&#45;&gt;Node23</title>
<g id="a_edge37_Node000022_Node000023"><a xlink:title=" ">
<path fill="none" stroke="#63b8ff" d="M531.83,-164.98C509.23,-156.3 473.94,-142.75 448.25,-132.88"/>
<polygon fill="#63b8ff" stroke="#63b8ff" points="449.17,-129.49 438.58,-129.17 446.66,-136.02 449.17,-129.49"/>
</a>
</g>
</g>
<!-- Node24&#45;&gt;Node6 -->
<g id="edge44_Node000024_Node000006" class="edge">
<title>Node24&#45;&gt;Node6</title>
<g id="a_edge44_Node000024_Node000006"><a xlink:title=" ">
<path fill="none" stroke="#63b8ff" d="M937.78,-170.33C764.24,-162.38 322.37,-141.45 219.75,-128.6"/>
<polygon fill="#63b8ff" stroke="#63b8ff" points="220.07,-125.11 209.68,-127.19 219.1,-132.04 220.07,-125.11"/>
</a>
</g>
</g>
<!-- Node24&#45;&gt;Node11 -->
<g id="edge45_Node000024_Node000011" class="edge">
<title>Node24&#45;&gt;Node11</title>
<g id="a_edge45_Node000024_Node000011"><a xlink:title=" ">
<path fill="none" stroke="#63b8ff" d="M1078.12,-165.54C1176.88,-154.17 1345.54,-134.08 1350,-129 1355.57,-122.66 1355.27,-116.6 1350,-110 1285.78,-29.54 970.89,-13.94 825.2,-11.06"/>
<polygon fill="#63b8ff" stroke="#63b8ff" points="825.07,-7.56 815.01,-10.87 824.94,-14.56 825.07,-7.56"/>
</a>
</g>
</g>
<!-- Node25 -->
<g id="Node000025" class="node">
<title>Node25</title>
<g id="a_Node000025"><a xlink:title=" ">
<polygon fill="#e0e0e0" stroke="#999999" points="1447,-129 1397,-129 1397,-110 1447,-110 1447,-129"/>
<text text-anchor="middle" x="1422" y="-117" font-family="Helvetica,sans-Serif" font-size="10.00">cstdint</text>
</a>
</g>
</g>
<!-- Node24&#45;&gt;Node25 -->
<g id="edge43_Node000024_Node000025" class="edge">
<title>Node24&#45;&gt;Node25</title>
<g id="a_edge43_Node000024_Node000025"><a xlink:title=" ">
<path fill="none" stroke="#63b8ff" d="M1078.31,-165.98C1170.19,-156 1326.1,-138.55 1383,-129 1384.27,-128.79 1385.56,-128.56 1386.86,-128.32"/>
<polygon fill="#63b8ff" stroke="#63b8ff" points="1387.76,-131.71 1396.89,-126.34 1386.41,-124.84 1387.76,-131.71"/>
</a>
</g>
</g>
<!-- Node35&#45;&gt;Node3 -->
<g id="edge58_Node000035_Node000003" class="edge">
<title>Node35&#45;&gt;Node3</title>
<g id="a_edge58_Node000035_Node000003"><a xlink:title=" ">
<path fill="none" stroke="#63b8ff" d="M1511.86,-219.97C1552.3,-211.5 1616.25,-198.07 1680.82,-184.24"/>
<polygon fill="#63b8ff" stroke="#63b8ff" points="1681.73,-187.63 1690.77,-182.11 1680.26,-180.78 1681.73,-187.63"/>
</a>
</g>
</g>
<!-- Node35&#45;&gt;Node4 -->
<g id="edge59_Node000035_Node000004" class="edge">
<title>Node35&#45;&gt;Node4</title>
<g id="a_edge59_Node000035_Node000004"><a xlink:title=" ">
<path fill="none" stroke="#63b8ff" d="M1546.08,-220.6C1631.27,-211.42 1766.02,-196.19 1832.65,-183.96"/>
<polygon fill="#63b8ff" stroke="#63b8ff" points="1833.58,-187.34 1842.74,-182.02 1832.26,-180.47 1833.58,-187.34"/>
</a>
</g>
</g>
<!-- Node36 -->
<g id="Node000036" class="node">
<title>Node36</title>
<g id="a_Node000036"><a xlink:title=" ">
<polygon fill="#e0e0e0" stroke="#999999" points="1824.5,-184 1769.5,-184 1769.5,-165 1824.5,-165 1824.5,-184"/>
<text text-anchor="middle" x="1797" y="-172" font-family="Helvetica,sans-Serif" font-size="10.00">fstream</text>
</a>
</g>
</g>
<!-- Node35&#45;&gt;Node36 -->
<g id="edge57_Node000035_Node000036" class="edge">
<title>Node35&#45;&gt;Node36</title>
<g id="a_edge57_Node000035_Node000036"><a xlink:title=" ">
<path fill="none" stroke="#63b8ff" d="M1535.22,-219.98C1591.71,-212.18 1676.35,-199.73 1759.32,-184.01"/>
<polygon fill="#63b8ff" stroke="#63b8ff" points="1760,-187.44 1769.17,-182.12 1758.69,-180.56 1760,-187.44"/>
</a>
</g>
</g>
</g>
</svg>
