<?xml version="1.0" encoding="UTF-8" standalone="no"?>
<!DOCTYPE svg PUBLIC "-//W3C//DTD SVG 1.1//EN"
 "http://www.w3.org/Graphics/SVG/1.1/DTD/svg11.dtd">
<!-- Generated by graphviz version 2.43.0 (0)
 -->
<!-- Title: /home/runner/work/R&#45;Type/R&#45;Type/Shared/systems/PhysicsSystem.cpp Pages: 1 -->
<svg width="1190pt" height="269pt"
 viewBox="0.00 0.00 1190.00 269.00" xmlns="http://www.w3.org/2000/svg" xmlns:xlink="http://www.w3.org/1999/xlink">
<g id="graph0" class="graph" transform="scale(1 1) rotate(0) translate(4 265)">
<title>/home/runner/work/R&#45;Type/R&#45;Type/Shared/systems/PhysicsSystem.cpp</title>
<!-- Node1 -->
<g id="Node000001" class="node">
<title>Node1</title>
<g id="a_Node000001"><a xlink:title=" ">
<polygon fill="#999999" stroke="#666666" points="454,-261 296,-261 296,-220 454,-220 454,-261"/>
<text text-anchor="start" x="304" y="-249" font-family="Helvetica,sans-Serif" font-size="10.00">/home/runner/work/R</text>
<text text-anchor="start" x="304" y="-238" font-family="Helvetica,sans-Serif" font-size="10.00">&#45;Type/R&#45;Type/Shared</text>
<text text-anchor="middle" x="375" y="-227" font-family="Helvetica,sans-Serif" font-size="10.00">/systems/PhysicsSystem.cpp</text>
</a>
</g>
</g>
<!-- Node2 -->
<g id="Node000002" class="node">
<title>Node2</title>
<g id="a_Node000002"><a xlink:href="PhysicsSystem_8hpp.html" target="_top" xlink:title=" ">
<polygon fill="white" stroke="#666666" points="346.5,-184 191.5,-184 191.5,-165 346.5,-165 346.5,-184"/>
<text text-anchor="middle" x="269" y="-172" font-family="Helvetica,sans-Serif" font-size="10.00">systems/PhysicsSystem.hpp</text>
</a>
</g>
</g>
<!-- Node1&#45;&gt;Node2 -->
<g id="edge1_Node000001_Node000002" class="edge">
<title>Node1&#45;&gt;Node2</title>
<g id="a_edge1_Node000001_Node000002"><a xlink:title=" ">
<path fill="none" stroke="#63b8ff" d="M342.62,-219.95C326.34,-210.12 306.98,-198.43 292.2,-189.51"/>
<polygon fill="#63b8ff" stroke="#63b8ff" points="293.6,-186.26 283.23,-184.09 289.98,-192.26 293.6,-186.26"/>
</a>
</g>
</g>
<!-- Node7 -->
<g id="Node000007" class="node">
<title>Node7</title>
<g id="a_Node000007"><a xlink:title=" ">
<polygon fill="#e0e0e0" stroke="#999999" points="317,-74 253,-74 253,-55 317,-55 317,-74"/>
<text text-anchor="middle" x="285" y="-62" font-family="Helvetica,sans-Serif" font-size="10.00">algorithm</text>
</a>
</g>
</g>
<!-- Node1&#45;&gt;Node7 -->
<g id="edge28_Node000001_Node000007" class="edge">
<title>Node1&#45;&gt;Node7</title>
<g id="a_edge28_Node000001_Node000007"><a xlink:title=" ">
<path fill="none" stroke="#63b8ff" d="M373.5,-219.98C370.64,-193.21 362.54,-144.52 340,-110 332.05,-97.83 319.7,-87.4 308.71,-79.7"/>
<polygon fill="#63b8ff" stroke="#63b8ff" points="310.57,-76.74 300.3,-74.14 306.71,-82.57 310.57,-76.74"/>
</a>
</g>
</g>
<!-- Node15 -->
<g id="Node000015" class="node">
<title>Node15</title>
<g id="a_Node000015"><a xlink:title=" ">
<polygon fill="#e0e0e0" stroke="#999999" points="645.5,-19 598.5,-19 598.5,0 645.5,0 645.5,-19"/>
<text text-anchor="middle" x="622" y="-7" font-family="Helvetica,sans-Serif" font-size="10.00">vector</text>
</a>
</g>
</g>
<!-- Node1&#45;&gt;Node15 -->
<g id="edge29_Node000001_Node000015" class="edge">
<title>Node1&#45;&gt;Node15</title>
<g id="a_edge29_Node000001_Node000015"><a xlink:title=" ">
<path fill="none" stroke="#63b8ff" d="M454.15,-232.13C616.36,-215.22 977.48,-167.69 1051,-74 1100.87,-10.44 765.65,-8.82 655.94,-9.96"/>
<polygon fill="#63b8ff" stroke="#63b8ff" points="655.71,-6.46 645.75,-10.08 655.79,-13.46 655.71,-6.46"/>
</a>
</g>
</g>
<!-- Node3 -->
<g id="Node000003" class="node">
<title>Node3</title>
<g id="a_Node000003"><a xlink:href="Physics2D_8hpp.html" target="_top" xlink:title=" ">
<polygon fill="white" stroke="#666666" points="189.5,-129 38.5,-129 38.5,-110 189.5,-110 189.5,-129"/>
<text text-anchor="middle" x="114" y="-117" font-family="Helvetica,sans-Serif" font-size="10.00">components/Physics2D.hpp</text>
</a>
</g>
</g>
<!-- Node2&#45;&gt;Node3 -->
<g id="edge2_Node000002_Node000003" class="edge">
<title>Node2&#45;&gt;Node3</title>
<g id="a_edge2_Node000002_Node000003"><a xlink:title=" ">
<path fill="none" stroke="#63b8ff" d="M244.1,-164.98C218.3,-156.16 177.78,-142.31 148.82,-132.41"/>
<polygon fill="#63b8ff" stroke="#63b8ff" points="149.69,-129.01 139.1,-129.08 147.43,-135.63 149.69,-129.01"/>
</a>
</g>
</g>
<!-- Node6 -->
<g id="Node000006" class="node">
<title>Node6</title>
<g id="a_Node000006"><a xlink:href="Registry_8hpp.html" target="_top" xlink:title=" ">
<polygon fill="white" stroke="#666666" points="672,-129 576,-129 576,-110 672,-110 672,-129"/>
<text text-anchor="middle" x="624" y="-117" font-family="Helvetica,sans-Serif" font-size="10.00">ecs/Registry.hpp</text>
</a>
</g>
</g>
<!-- Node2&#45;&gt;Node6 -->
<g id="edge5_Node000002_Node000006" class="edge">
<title>Node2&#45;&gt;Node6</title>
<g id="a_edge5_Node000002_Node000006"><a xlink:title=" ">
<path fill="none" stroke="#63b8ff" d="M326.04,-164.98C391.8,-155.17 499.34,-139.11 565.66,-129.21"/>
<polygon fill="#63b8ff" stroke="#63b8ff" points="566.56,-132.61 575.93,-127.68 565.53,-125.69 566.56,-132.61"/>
</a>
</g>
</g>
<!-- Node21 -->
<g id="Node000021" class="node">
<title>Node21</title>
<g id="a_Node000021"><a xlink:href="Zipper_8hpp.html" target="_top" xlink:title=" ">
<polygon fill="white" stroke="#666666" points="313,-129 225,-129 225,-110 313,-110 313,-129"/>
<text text-anchor="middle" x="269" y="-117" font-family="Helvetica,sans-Serif" font-size="10.00">ecs/Zipper.hpp</text>
</a>
</g>
</g>
<!-- Node2&#45;&gt;Node21 -->
<g id="edge22_Node000002_Node000021" class="edge">
<title>Node2&#45;&gt;Node21</title>
<g id="a_edge22_Node000002_Node000021"><a xlink:title=" ">
<path fill="none" stroke="#63b8ff" d="M269,-164.75C269,-157.8 269,-147.85 269,-139.13"/>
<polygon fill="#63b8ff" stroke="#63b8ff" points="272.5,-139.09 269,-129.09 265.5,-139.09 272.5,-139.09"/>
</a>
</g>
</g>
<!-- Node4 -->
<g id="Node000004" class="node">
<title>Node4</title>
<g id="a_Node000004"><a xlink:title=" ">
<polygon fill="#e0e0e0" stroke="#999999" points="72,-74 0,-74 0,-55 72,-55 72,-74"/>
<text text-anchor="middle" x="36" y="-62" font-family="Helvetica,sans-Serif" font-size="10.00">SDL2/SDL.h</text>
</a>
</g>
</g>
<!-- Node3&#45;&gt;Node4 -->
<g id="edge3_Node000003_Node000004" class="edge">
<title>Node3&#45;&gt;Node4</title>
<g id="a_edge3_Node000003_Node000004"><a xlink:title=" ">
<path fill="none" stroke="#63b8ff" d="M101.47,-109.98C89.6,-101.92 71.54,-89.65 57.39,-80.03"/>
<polygon fill="#63b8ff" stroke="#63b8ff" points="59,-76.9 48.76,-74.17 55.06,-82.69 59,-76.9"/>
</a>
</g>
</g>
<!-- Node5 -->
<g id="Node000005" class="node">
<title>Node5</title>
<g id="a_Node000005"><a xlink:title=" ">
<polygon fill="#e0e0e0" stroke="#999999" points="137.5,-74 90.5,-74 90.5,-55 137.5,-55 137.5,-74"/>
<text text-anchor="middle" x="114" y="-62" font-family="Helvetica,sans-Serif" font-size="10.00">cmath</text>
</a>
</g>
</g>
<!-- Node3&#45;&gt;Node5 -->
<g id="edge4_Node000003_Node000005" class="edge">
<title>Node3&#45;&gt;Node5</title>
<g id="a_edge4_Node000003_Node000005"><a xlink:title=" ">
<path fill="none" stroke="#63b8ff" d="M114,-109.75C114,-102.8 114,-92.85 114,-84.13"/>
<polygon fill="#63b8ff" stroke="#63b8ff" points="117.5,-84.09 114,-74.09 110.5,-84.09 117.5,-84.09"/>
</a>
</g>
</g>
<!-- Node6&#45;&gt;Node7 -->
<g id="edge6_Node000006_Node000007" class="edge">
<title>Node6&#45;&gt;Node7</title>
<g id="a_edge6_Node000006_Node000007"><a xlink:title=" ">
<path fill="none" stroke="#63b8ff" d="M575.86,-112.16C518.85,-104.46 420.8,-90.63 327.12,-74.12"/>
<polygon fill="#63b8ff" stroke="#63b8ff" points="327.65,-70.66 317.2,-72.35 326.43,-77.55 327.65,-70.66"/>
</a>
</g>
</g>
<!-- Node8 -->
<g id="Node000008" class="node">
<title>Node8</title>
<g id="a_Node000008"><a xlink:title=" ">
<polygon fill="#e0e0e0" stroke="#999999" points="664.5,-74 629.5,-74 629.5,-55 664.5,-55 664.5,-74"/>
<text text-anchor="middle" x="647" y="-62" font-family="Helvetica,sans-Serif" font-size="10.00">any</text>
</a>
</g>
</g>
<!-- Node6&#45;&gt;Node8 -->
<g id="edge7_Node000006_Node000008" class="edge">
<title>Node6&#45;&gt;Node8</title>
<g id="a_edge7_Node000006_Node000008"><a xlink:title=" ">
<path fill="none" stroke="#63b8ff" d="M627.8,-109.75C630.91,-102.57 635.42,-92.18 639.29,-83.27"/>
<polygon fill="#63b8ff" stroke="#63b8ff" points="642.5,-84.66 643.27,-74.09 636.08,-81.87 642.5,-84.66"/>
</a>
</g>
</g>
<!-- Node9 -->
<g id="Node000009" class="node">
<title>Node9</title>
<g id="a_Node000009"><a xlink:title=" ">
<polygon fill="#e0e0e0" stroke="#999999" points="400.5,-74 335.5,-74 335.5,-55 400.5,-55 400.5,-74"/>
<text text-anchor="middle" x="368" y="-62" font-family="Helvetica,sans-Serif" font-size="10.00">functional</text>
</a>
</g>
</g>
<!-- Node6&#45;&gt;Node9 -->
<g id="edge8_Node000006_Node000009" class="edge">
<title>Node6&#45;&gt;Node9</title>
<g id="a_edge8_Node000006_Node000009"><a xlink:title=" ">
<path fill="none" stroke="#63b8ff" d="M582.87,-109.98C535.6,-100.2 458.4,-84.21 410.54,-74.31"/>
<polygon fill="#63b8ff" stroke="#63b8ff" points="411,-70.83 400.5,-72.23 409.58,-77.68 411,-70.83"/>
</a>
</g>
</g>
<!-- Node10 -->
<g id="Node000010" class="node">
<title>Node10</title>
<g id="a_Node000010"><a xlink:title=" ">
<polygon fill="#e0e0e0" stroke="#999999" points="743,-74 683,-74 683,-55 743,-55 743,-74"/>
<text text-anchor="middle" x="713" y="-62" font-family="Helvetica,sans-Serif" font-size="10.00">iostream</text>
</a>
</g>
</g>
<!-- Node6&#45;&gt;Node10 -->
<g id="edge9_Node000006_Node000010" class="edge">
<title>Node6&#45;&gt;Node10</title>
<g id="a_edge9_Node000006_Node000010"><a xlink:title=" ">
<path fill="none" stroke="#63b8ff" d="M638.3,-109.98C652.1,-101.77 673.24,-89.18 689.51,-79.49"/>
<polygon fill="#63b8ff" stroke="#63b8ff" points="691.64,-82.29 698.44,-74.17 688.06,-76.28 691.64,-82.29"/>
</a>
</g>
</g>
<!-- Node11 -->
<g id="Node000011" class="node">
<title>Node11</title>
<g id="a_Node000011"><a xlink:title=" ">
<polygon fill="#e0e0e0" stroke="#999999" points="826.5,-74 761.5,-74 761.5,-55 826.5,-55 826.5,-74"/>
<text text-anchor="middle" x="794" y="-62" font-family="Helvetica,sans-Serif" font-size="10.00">typeindex</text>
</a>
</g>
</g>
<!-- Node6&#45;&gt;Node11 -->
<g id="edge10_Node000006_Node000011" class="edge">
<title>Node6&#45;&gt;Node11</title>
<g id="a_edge10_Node000006_Node000011"><a xlink:title=" ">
<path fill="none" stroke="#63b8ff" d="M651.31,-109.98C679.85,-101.09 724.83,-87.07 756.64,-77.15"/>
<polygon fill="#63b8ff" stroke="#63b8ff" points="757.97,-80.4 766.47,-74.08 755.88,-73.72 757.97,-80.4"/>
</a>
</g>
</g>
<!-- Node12 -->
<g id="Node000012" class="node">
<title>Node12</title>
<g id="a_Node000012"><a xlink:title=" ">
<polygon fill="#e0e0e0" stroke="#999999" points="937.5,-74 844.5,-74 844.5,-55 937.5,-55 937.5,-74"/>
<text text-anchor="middle" x="891" y="-62" font-family="Helvetica,sans-Serif" font-size="10.00">unordered_map</text>
</a>
</g>
</g>
<!-- Node6&#45;&gt;Node12 -->
<g id="edge11_Node000006_Node000012" class="edge">
<title>Node6&#45;&gt;Node12</title>
<g id="a_edge11_Node000006_Node000012"><a xlink:title=" ">
<path fill="none" stroke="#63b8ff" d="M666.9,-109.98C713.37,-100.76 787.59,-86.03 837.76,-76.07"/>
<polygon fill="#63b8ff" stroke="#63b8ff" points="838.64,-79.46 847.77,-74.08 837.28,-72.6 838.64,-79.46"/>
</a>
</g>
</g>
<!-- Node13 -->
<g id="Node000013" class="node">
<title>Node13</title>
<g id="a_Node000013"><a xlink:title=" ">
<polygon fill="#e0e0e0" stroke="#999999" points="1042,-74 956,-74 956,-55 1042,-55 1042,-74"/>
<text text-anchor="middle" x="999" y="-62" font-family="Helvetica,sans-Serif" font-size="10.00">unordered_set</text>
</a>
</g>
</g>
<!-- Node6&#45;&gt;Node13 -->
<g id="edge12_Node000006_Node000013" class="edge">
<title>Node6&#45;&gt;Node13</title>
<g id="a_edge12_Node000006_Node000013"><a xlink:title=" ">
<path fill="none" stroke="#63b8ff" d="M672.05,-112.19C735.03,-103.85 848.88,-88.5 946,-74 946.1,-73.98 946.2,-73.97 946.3,-73.95"/>
<polygon fill="#63b8ff" stroke="#63b8ff" points="946.55,-77.46 955.91,-72.49 945.5,-70.54 946.55,-77.46"/>
</a>
</g>
</g>
<!-- Node14 -->
<g id="Node000014" class="node">
<title>Node14</title>
<g id="a_Node000014"><a xlink:title=" ">
<polygon fill="#e0e0e0" stroke="#999999" points="429.5,-19 384.5,-19 384.5,0 429.5,0 429.5,-19"/>
<text text-anchor="middle" x="407" y="-7" font-family="Helvetica,sans-Serif" font-size="10.00">utility</text>
</a>
</g>
</g>
<!-- Node6&#45;&gt;Node14 -->
<g id="edge13_Node000006_Node000014" class="edge">
<title>Node6&#45;&gt;Node14</title>
<g id="a_edge13_Node000006_Node000014"><a xlink:title=" ">
<path fill="none" stroke="#63b8ff" d="M575.92,-115.86C538.08,-111.68 485.64,-101.02 448,-74 432.22,-62.67 420.97,-43.2 414.3,-28.8"/>
<polygon fill="#63b8ff" stroke="#63b8ff" points="417.42,-27.2 410.25,-19.4 410.99,-29.97 417.42,-27.2"/>
</a>
</g>
</g>
<!-- Node6&#45;&gt;Node15 -->
<g id="edge14_Node000006_Node000015" class="edge">
<title>Node6&#45;&gt;Node15</title>
<g id="a_edge14_Node000006_Node000015"><a xlink:title=" ">
<path fill="none" stroke="#63b8ff" d="M623.01,-109.98C622.02,-101.04 620.56,-86.55 620,-74 619.33,-58.98 619.94,-41.96 620.66,-29.32"/>
<polygon fill="#63b8ff" stroke="#63b8ff" points="624.16,-29.33 621.31,-19.13 617.18,-28.88 624.16,-29.33"/>
</a>
</g>
</g>
<!-- Node16 -->
<g id="Node000016" class="node">
<title>Node16</title>
<g id="a_Node000016"><a xlink:href="Entity_8hpp.html" target="_top" xlink:title=" ">
<polygon fill="white" stroke="#666666" points="1182,-74 1098,-74 1098,-55 1182,-55 1182,-74"/>
<text text-anchor="middle" x="1140" y="-62" font-family="Helvetica,sans-Serif" font-size="10.00">ecs/Entity.hpp</text>
</a>
</g>
</g>
<!-- Node6&#45;&gt;Node16 -->
<g id="edge15_Node000006_Node000016" class="edge">
<title>Node6&#45;&gt;Node16</title>
<g id="a_edge15_Node000006_Node000016"><a xlink:title=" ">
<path fill="none" stroke="#63b8ff" d="M672.08,-113.56C768.98,-103.61 987.02,-81.21 1087.49,-70.89"/>
<polygon fill="#63b8ff" stroke="#63b8ff" points="1088.11,-74.35 1097.7,-69.84 1087.4,-67.38 1088.11,-74.35"/>
</a>
</g>
</g>
<!-- Node18 -->
<g id="Node000018" class="node">
<title>Node18</title>
<g id="a_Node000018"><a xlink:href="SparseArray_8hpp.html" target="_top" xlink:title=" ">
<polygon fill="white" stroke="#666666" points="572.5,-74 457.5,-74 457.5,-55 572.5,-55 572.5,-74"/>
<text text-anchor="middle" x="515" y="-62" font-family="Helvetica,sans-Serif" font-size="10.00">ecs/SparseArray.hpp</text>
</a>
</g>
</g>
<!-- Node6&#45;&gt;Node18 -->
<g id="edge17_Node000006_Node000018" class="edge">
<title>Node6&#45;&gt;Node18</title>
<g id="a_edge17_Node000006_Node000018"><a xlink:title=" ">
<path fill="none" stroke="#63b8ff" d="M606.49,-109.98C589.03,-101.5 561.99,-88.35 541.83,-78.54"/>
<polygon fill="#63b8ff" stroke="#63b8ff" points="543.36,-75.4 532.83,-74.17 540.29,-81.69 543.36,-75.4"/>
</a>
</g>
</g>
<!-- Node17 -->
<g id="Node000017" class="node">
<title>Node17</title>
<g id="a_Node000017"><a xlink:title=" ">
<polygon fill="#e0e0e0" stroke="#999999" points="1166.5,-19 1113.5,-19 1113.5,0 1166.5,0 1166.5,-19"/>
<text text-anchor="middle" x="1140" y="-7" font-family="Helvetica,sans-Serif" font-size="10.00">cstddef</text>
</a>
</g>
</g>
<!-- Node16&#45;&gt;Node17 -->
<g id="edge16_Node000016_Node000017" class="edge">
<title>Node16&#45;&gt;Node17</title>
<g id="a_edge16_Node000016_Node000017"><a xlink:title=" ">
<path fill="none" stroke="#63b8ff" d="M1140,-54.75C1140,-47.8 1140,-37.85 1140,-29.13"/>
<polygon fill="#63b8ff" stroke="#63b8ff" points="1143.5,-29.09 1140,-19.09 1136.5,-29.09 1143.5,-29.09"/>
</a>
</g>
</g>
<!-- Node18&#45;&gt;Node14 -->
<g id="edge20_Node000018_Node000014" class="edge">
<title>Node18&#45;&gt;Node14</title>
<g id="a_edge20_Node000018_Node000014"><a xlink:title=" ">
<path fill="none" stroke="#63b8ff" d="M497.65,-54.98C480.43,-46.54 453.8,-33.47 433.85,-23.68"/>
<polygon fill="#63b8ff" stroke="#63b8ff" points="435.19,-20.43 424.67,-19.17 432.1,-26.72 435.19,-20.43"/>
</a>
</g>
</g>
<!-- Node18&#45;&gt;Node15 -->
<g id="edge21_Node000018_Node000015" class="edge">
<title>Node18&#45;&gt;Node15</title>
<g id="a_edge21_Node000018_Node000015"><a xlink:title=" ">
<path fill="none" stroke="#63b8ff" d="M532.19,-54.98C549.25,-46.54 575.63,-33.47 595.4,-23.68"/>
<polygon fill="#63b8ff" stroke="#63b8ff" points="597.09,-26.75 604.5,-19.17 593.98,-20.47 597.09,-26.75"/>
</a>
</g>
</g>
<!-- Node19 -->
<g id="Node000019" class="node">
<title>Node19</title>
<g id="a_Node000019"><a xlink:title=" ">
<polygon fill="#e0e0e0" stroke="#999999" points="506,-19 448,-19 448,0 506,0 506,-19"/>
<text text-anchor="middle" x="477" y="-7" font-family="Helvetica,sans-Serif" font-size="10.00">memory</text>
</a>
</g>
</g>
<!-- Node18&#45;&gt;Node19 -->
<g id="edge18_Node000018_Node000019" class="edge">
<title>Node18&#45;&gt;Node19</title>
<g id="a_edge18_Node000018_Node000019"><a xlink:title=" ">
<path fill="none" stroke="#63b8ff" d="M508.73,-54.75C503.41,-47.34 495.64,-36.5 489.12,-27.41"/>
<polygon fill="#63b8ff" stroke="#63b8ff" points="491.83,-25.18 483.16,-19.09 486.14,-29.26 491.83,-25.18"/>
</a>
</g>
</g>
<!-- Node20 -->
<g id="Node000020" class="node">
<title>Node20</title>
<g id="a_Node000020"><a xlink:title=" ">
<polygon fill="#e0e0e0" stroke="#999999" points="580,-19 524,-19 524,0 580,0 580,-19"/>
<text text-anchor="middle" x="552" y="-7" font-family="Helvetica,sans-Serif" font-size="10.00">optional</text>
</a>
</g>
</g>
<!-- Node18&#45;&gt;Node20 -->
<g id="edge19_Node000018_Node000020" class="edge">
<title>Node18&#45;&gt;Node20</title>
<g id="a_edge19_Node000018_Node000020"><a xlink:title=" ">
<path fill="none" stroke="#63b8ff" d="M521.11,-54.75C526.28,-47.34 533.85,-36.5 540.19,-27.41"/>
<polygon fill="#63b8ff" stroke="#63b8ff" points="543.15,-29.29 546,-19.09 537.41,-25.29 543.15,-29.29"/>
</a>
</g>
</g>
<!-- Node21&#45;&gt;Node7 -->
<g id="edge23_Node000021_Node000007" class="edge">
<title>Node21&#45;&gt;Node7</title>
<g id="a_edge23_Node000021_Node000007"><a xlink:title=" ">
<path fill="none" stroke="#63b8ff" d="M271.64,-109.75C273.76,-102.72 276.81,-92.62 279.46,-83.84"/>
<polygon fill="#63b8ff" stroke="#63b8ff" points="282.87,-84.67 282.41,-74.09 276.17,-82.65 282.87,-84.67"/>
</a>
</g>
</g>
<!-- Node21&#45;&gt;Node9 -->
<g id="edge24_Node000021_Node000009" class="edge">
<title>Node21&#45;&gt;Node9</title>
<g id="a_edge24_Node000021_Node000009"><a xlink:title=" ">
<path fill="none" stroke="#63b8ff" d="M284.91,-109.98C300.55,-101.61 324.66,-88.7 342.88,-78.95"/>
<polygon fill="#63b8ff" stroke="#63b8ff" points="344.64,-81.98 351.8,-74.17 341.34,-75.8 344.64,-81.98"/>
</a>
</g>
</g>
<!-- Node21&#45;&gt;Node14 -->
<g id="edge26_Node000021_Node000014" class="edge">
<title>Node21&#45;&gt;Node14</title>
<g id="a_edge26_Node000021_Node000014"><a xlink:title=" ">
<path fill="none" stroke="#63b8ff" d="M260.66,-109.95C249.07,-97 230.91,-72.14 244,-55 259.75,-34.38 331.57,-21.01 374.45,-14.71"/>
<polygon fill="#63b8ff" stroke="#63b8ff" points="375.01,-18.17 384.42,-13.3 374.03,-11.24 375.01,-18.17"/>
</a>
</g>
</g>
<!-- Node21&#45;&gt;Node21 -->
<g id="edge27_Node000021_Node000021" class="edge">
<title>Node21&#45;&gt;Node21</title>
<g id="a_edge27_Node000021_Node000021"><a xlink:title=" ">
<path fill="none" stroke="#63b8ff" d="M298.02,-129.03C315.06,-131.06 331,-127.88 331,-119.5 331,-112.82 320.87,-109.44 308.14,-109.38"/>
<polygon fill="#63b8ff" stroke="#63b8ff" points="307.8,-105.89 298.02,-109.97 308.21,-112.88 307.8,-105.89"/>
</a>
</g>
</g>
<!-- Node22 -->
<g id="Node000022" class="node">
<title>Node22</title>
<g id="a_Node000022"><a xlink:title=" ">
<polygon fill="#e0e0e0" stroke="#999999" points="196.5,-74 155.5,-74 155.5,-55 196.5,-55 196.5,-74"/>
<text text-anchor="middle" x="176" y="-62" font-family="Helvetica,sans-Serif" font-size="10.00">tuple</text>
</a>
</g>
</g>
<!-- Node21&#45;&gt;Node22 -->
<g id="edge25_Node000021_Node000022" class="edge">
<title>Node21&#45;&gt;Node22</title>
<g id="a_edge25_Node000021_Node000022"><a xlink:title=" ">
<path fill="none" stroke="#63b8ff" d="M254.06,-109.98C239.5,-101.69 217.13,-88.94 200.07,-79.22"/>
<polygon fill="#63b8ff" stroke="#63b8ff" points="201.64,-76.08 191.21,-74.17 198.17,-82.16 201.64,-76.08"/>
</a>
</g>
</g>
</g>
</svg>
