<?xml version="1.0" encoding="UTF-8" standalone="no"?>
<!DOCTYPE svg PUBLIC "-//W3C//DTD SVG 1.1//EN"
 "http://www.w3.org/Graphics/SVG/1.1/DTD/svg11.dtd">
<!-- Generated by graphviz version 2.43.0 (0)
 -->
<!-- Title: /home/runner/work/R&#45;Type/R&#45;Type/Shared/systems/PhysicsSystem.hpp Pages: 1 -->
<svg width="1152pt" height="214pt"
 viewBox="0.00 0.00 1152.00 214.00" xmlns="http://www.w3.org/2000/svg" xmlns:xlink="http://www.w3.org/1999/xlink">
<g id="graph0" class="graph" transform="scale(1 1) rotate(0) translate(4 210)">
<title>/home/runner/work/R&#45;Type/R&#45;Type/Shared/systems/PhysicsSystem.hpp</title>
<!-- Node1 -->
<g id="Node000001" class="node">
<title>Node1</title>
<g id="a_Node000001"><a xlink:title=" ">
<polygon fill="#999999" stroke="#666666" points="348,-206 190,-206 190,-165 348,-165 348,-206"/>
<text text-anchor="start" x="198" y="-194" font-family="Helvetica,sans-Serif" font-size="10.00">/home/runner/work/R</text>
<text text-anchor="start" x="198" y="-183" font-family="Helvetica,sans-Serif" font-size="10.00">&#45;Type/R&#45;Type/Shared</text>
<text text-anchor="middle" x="269" y="-172" font-family="Helvetica,sans-Serif" font-size="10.00">/systems/PhysicsSystem.hpp</text>
</a>
</g>
</g>
<!-- Node2 -->
<g id="Node000002" class="node">
<title>Node2</title>
<g id="a_Node000002"><a xlink:href="Physics2D_8hpp.html" target="_top" xlink:title=" ">
<polygon fill="white" stroke="#666666" points="189.5,-129 38.5,-129 38.5,-110 189.5,-110 189.5,-129"/>
<text text-anchor="middle" x="114" y="-117" font-family="Helvetica,sans-Serif" font-size="10.00">components/Physics2D.hpp</text>
</a>
</g>
</g>
<!-- Node1&#45;&gt;Node2 -->
<g id="edge1_Node000001_Node000002" class="edge">
<title>Node1&#45;&gt;Node2</title>
<g id="a_edge1_Node000001_Node000002"><a xlink:title=" ">
<path fill="none" stroke="#63b8ff" d="M221.65,-164.95C196.48,-154.56 166.29,-142.09 144.29,-133.01"/>
<polygon fill="#63b8ff" stroke="#63b8ff" points="145.39,-129.67 134.81,-129.09 142.72,-136.14 145.39,-129.67"/>
</a>
</g>
</g>
<!-- Node5 -->
<g id="Node000005" class="node">
<title>Node5</title>
<g id="a_Node000005"><a xlink:href="Registry_8hpp.html" target="_top" xlink:title=" ">
<polygon fill="white" stroke="#666666" points="648,-129 552,-129 552,-110 648,-110 648,-129"/>
<text text-anchor="middle" x="600" y="-117" font-family="Helvetica,sans-Serif" font-size="10.00">ecs/Registry.hpp</text>
</a>
</g>
</g>
<!-- Node1&#45;&gt;Node5 -->
<g id="edge4_Node000001_Node000005" class="edge">
<title>Node1&#45;&gt;Node5</title>
<g id="a_edge4_Node000001_Node000005"><a xlink:title=" ">
<path fill="none" stroke="#63b8ff" d="M348.28,-169.17C409.37,-157.36 492.21,-141.34 545.88,-130.96"/>
<polygon fill="#63b8ff" stroke="#63b8ff" points="546.73,-134.37 555.88,-129.03 545.4,-127.49 546.73,-134.37"/>
</a>
</g>
</g>
<!-- Node20 -->
<g id="Node000020" class="node">
<title>Node20</title>
<g id="a_Node000020"><a xlink:href="Zipper_8hpp.html" target="_top" xlink:title=" ">
<polygon fill="white" stroke="#666666" points="313,-129 225,-129 225,-110 313,-110 313,-129"/>
<text text-anchor="middle" x="269" y="-117" font-family="Helvetica,sans-Serif" font-size="10.00">ecs/Zipper.hpp</text>
</a>
</g>
</g>
<!-- Node1&#45;&gt;Node20 -->
<g id="edge21_Node000001_Node000020" class="edge">
<title>Node1&#45;&gt;Node20</title>
<g id="a_edge21_Node000001_Node000020"><a xlink:title=" ">
<path fill="none" stroke="#63b8ff" d="M269,-164.95C269,-156.85 269,-147.5 269,-139.47"/>
<polygon fill="#63b8ff" stroke="#63b8ff" points="272.5,-139.26 269,-129.26 265.5,-139.26 272.5,-139.26"/>
</a>
</g>
</g>
<!-- Node3 -->
<g id="Node000003" class="node">
<title>Node3</title>
<g id="a_Node000003"><a xlink:title=" ">
<polygon fill="#e0e0e0" stroke="#999999" points="72,-74 0,-74 0,-55 72,-55 72,-74"/>
<text text-anchor="middle" x="36" y="-62" font-family="Helvetica,sans-Serif" font-size="10.00">SDL2/SDL.h</text>
</a>
</g>
</g>
<!-- Node2&#45;&gt;Node3 -->
<g id="edge2_Node000002_Node000003" class="edge">
<title>Node2&#45;&gt;Node3</title>
<g id="a_edge2_Node000002_Node000003"><a xlink:title=" ">
<path fill="none" stroke="#63b8ff" d="M101.47,-109.98C89.6,-101.92 71.54,-89.65 57.39,-80.03"/>
<polygon fill="#63b8ff" stroke="#63b8ff" points="59,-76.9 48.76,-74.17 55.06,-82.69 59,-76.9"/>
</a>
</g>
</g>
<!-- Node4 -->
<g id="Node000004" class="node">
<title>Node4</title>
<g id="a_Node000004"><a xlink:title=" ">
<polygon fill="#e0e0e0" stroke="#999999" points="137.5,-74 90.5,-74 90.5,-55 137.5,-55 137.5,-74"/>
<text text-anchor="middle" x="114" y="-62" font-family="Helvetica,sans-Serif" font-size="10.00">cmath</text>
</a>
</g>
</g>
<!-- Node2&#45;&gt;Node4 -->
<g id="edge3_Node000002_Node000004" class="edge">
<title>Node2&#45;&gt;Node4</title>
<g id="a_edge3_Node000002_Node000004"><a xlink:title=" ">
<path fill="none" stroke="#63b8ff" d="M114,-109.75C114,-102.8 114,-92.85 114,-84.13"/>
<polygon fill="#63b8ff" stroke="#63b8ff" points="117.5,-84.09 114,-74.09 110.5,-84.09 117.5,-84.09"/>
</a>
</g>
</g>
<!-- Node6 -->
<g id="Node000006" class="node">
<title>Node6</title>
<g id="a_Node000006"><a xlink:title=" ">
<polygon fill="#e0e0e0" stroke="#999999" points="318,-74 254,-74 254,-55 318,-55 318,-74"/>
<text text-anchor="middle" x="286" y="-62" font-family="Helvetica,sans-Serif" font-size="10.00">algorithm</text>
</a>
</g>
</g>
<!-- Node5&#45;&gt;Node6 -->
<g id="edge5_Node000005_Node000006" class="edge">
<title>Node5&#45;&gt;Node6</title>
<g id="a_edge5_Node000005_Node000006"><a xlink:title=" ">
<path fill="none" stroke="#63b8ff" d="M551.56,-111.25C498.98,-103.23 412.3,-89.6 328.18,-74.15"/>
<polygon fill="#63b8ff" stroke="#63b8ff" points="328.67,-70.69 318.2,-72.31 327.4,-77.57 328.67,-70.69"/>
</a>
</g>
</g>
<!-- Node7 -->
<g id="Node000007" class="node">
<title>Node7</title>
<g id="a_Node000007"><a xlink:title=" ">
<polygon fill="#e0e0e0" stroke="#999999" points="664.5,-74 629.5,-74 629.5,-55 664.5,-55 664.5,-74"/>
<text text-anchor="middle" x="647" y="-62" font-family="Helvetica,sans-Serif" font-size="10.00">any</text>
</a>
</g>
</g>
<!-- Node5&#45;&gt;Node7 -->
<g id="edge6_Node000005_Node000007" class="edge">
<title>Node5&#45;&gt;Node7</title>
<g id="a_edge6_Node000005_Node000007"><a xlink:title=" ">
<path fill="none" stroke="#63b8ff" d="M607.76,-109.75C614.47,-102.18 624.34,-91.05 632.51,-81.84"/>
<polygon fill="#63b8ff" stroke="#63b8ff" points="635.37,-83.89 639.38,-74.09 630.13,-79.25 635.37,-83.89"/>
</a>
</g>
</g>
<!-- Node8 -->
<g id="Node000008" class="node">
<title>Node8</title>
<g id="a_Node000008"><a xlink:title=" ">
<polygon fill="#e0e0e0" stroke="#999999" points="401.5,-74 336.5,-74 336.5,-55 401.5,-55 401.5,-74"/>
<text text-anchor="middle" x="369" y="-62" font-family="Helvetica,sans-Serif" font-size="10.00">functional</text>
</a>
</g>
</g>
<!-- Node5&#45;&gt;Node8 -->
<g id="edge7_Node000005_Node000008" class="edge">
<title>Node5&#45;&gt;Node8</title>
<g id="a_edge7_Node000005_Node000008"><a xlink:title=" ">
<path fill="none" stroke="#63b8ff" d="M562.89,-109.98C521.56,-100.5 454.89,-85.21 411.5,-75.25"/>
<polygon fill="#63b8ff" stroke="#63b8ff" points="412.07,-71.79 401.54,-72.97 410.51,-78.61 412.07,-71.79"/>
</a>
</g>
</g>
<!-- Node9 -->
<g id="Node000009" class="node">
<title>Node9</title>
<g id="a_Node000009"><a xlink:title=" ">
<polygon fill="#e0e0e0" stroke="#999999" points="743,-74 683,-74 683,-55 743,-55 743,-74"/>
<text text-anchor="middle" x="713" y="-62" font-family="Helvetica,sans-Serif" font-size="10.00">iostream</text>
</a>
</g>
</g>
<!-- Node5&#45;&gt;Node9 -->
<g id="edge8_Node000005_Node000009" class="edge">
<title>Node5&#45;&gt;Node9</title>
<g id="a_edge8_Node000005_Node000009"><a xlink:title=" ">
<path fill="none" stroke="#63b8ff" d="M618.16,-109.98C636.25,-101.5 664.28,-88.35 685.19,-78.54"/>
<polygon fill="#63b8ff" stroke="#63b8ff" points="686.95,-81.59 694.51,-74.17 683.97,-75.25 686.95,-81.59"/>
</a>
</g>
</g>
<!-- Node10 -->
<g id="Node000010" class="node">
<title>Node10</title>
<g id="a_Node000010"><a xlink:title=" ">
<polygon fill="#e0e0e0" stroke="#999999" points="826.5,-74 761.5,-74 761.5,-55 826.5,-55 826.5,-74"/>
<text text-anchor="middle" x="794" y="-62" font-family="Helvetica,sans-Serif" font-size="10.00">typeindex</text>
</a>
</g>
</g>
<!-- Node5&#45;&gt;Node10 -->
<g id="edge9_Node000005_Node000010" class="edge">
<title>Node5&#45;&gt;Node10</title>
<g id="a_edge9_Node000005_Node000010"><a xlink:title=" ">
<path fill="none" stroke="#63b8ff" d="M631.17,-109.98C664.16,-100.97 716.4,-86.7 752.77,-76.76"/>
<polygon fill="#63b8ff" stroke="#63b8ff" points="753.86,-80.09 762.59,-74.08 752.02,-73.34 753.86,-80.09"/>
</a>
</g>
</g>
<!-- Node11 -->
<g id="Node000011" class="node">
<title>Node11</title>
<g id="a_Node000011"><a xlink:title=" ">
<polygon fill="#e0e0e0" stroke="#999999" points="937.5,-74 844.5,-74 844.5,-55 937.5,-55 937.5,-74"/>
<text text-anchor="middle" x="891" y="-62" font-family="Helvetica,sans-Serif" font-size="10.00">unordered_map</text>
</a>
</g>
</g>
<!-- Node5&#45;&gt;Node11 -->
<g id="edge10_Node000005_Node000011" class="edge">
<title>Node5&#45;&gt;Node11</title>
<g id="a_edge10_Node000005_Node000011"><a xlink:title=" ">
<path fill="none" stroke="#63b8ff" d="M646.75,-109.98C697.88,-100.67 779.79,-85.75 834.48,-75.79"/>
<polygon fill="#63b8ff" stroke="#63b8ff" points="835.15,-79.23 844.36,-73.99 833.9,-72.34 835.15,-79.23"/>
</a>
</g>
</g>
<!-- Node12 -->
<g id="Node000012" class="node">
<title>Node12</title>
<g id="a_Node000012"><a xlink:title=" ">
<polygon fill="#e0e0e0" stroke="#999999" points="1042,-74 956,-74 956,-55 1042,-55 1042,-74"/>
<text text-anchor="middle" x="999" y="-62" font-family="Helvetica,sans-Serif" font-size="10.00">unordered_set</text>
</a>
</g>
</g>
<!-- Node5&#45;&gt;Node12 -->
<g id="edge11_Node000005_Node000012" class="edge">
<title>Node5&#45;&gt;Node12</title>
<g id="a_edge11_Node000005_Node000012"><a xlink:title=" ">
<path fill="none" stroke="#63b8ff" d="M648.06,-112.87C713.15,-105.12 833.18,-90.43 945.72,-74.14"/>
<polygon fill="#63b8ff" stroke="#63b8ff" points="946.5,-77.57 955.89,-72.66 945.49,-70.64 946.5,-77.57"/>
</a>
</g>
</g>
<!-- Node13 -->
<g id="Node000013" class="node">
<title>Node13</title>
<g id="a_Node000013"><a xlink:title=" ">
<polygon fill="#e0e0e0" stroke="#999999" points="441.5,-19 396.5,-19 396.5,0 441.5,0 441.5,-19"/>
<text text-anchor="middle" x="419" y="-7" font-family="Helvetica,sans-Serif" font-size="10.00">utility</text>
</a>
</g>
</g>
<!-- Node5&#45;&gt;Node13 -->
<g id="edge12_Node000005_Node000013" class="edge">
<title>Node5&#45;&gt;Node13</title>
<g id="a_edge12_Node000005_Node000013"><a xlink:title=" ">
<path fill="none" stroke="#63b8ff" d="M561.38,-109.93C535.69,-103 502,-91.48 476,-74 457.44,-61.52 440.95,-41.69 430.55,-27.5"/>
<polygon fill="#63b8ff" stroke="#63b8ff" points="433.26,-25.27 424.62,-19.13 427.54,-29.32 433.26,-25.27"/>
</a>
</g>
</g>
<!-- Node14 -->
<g id="Node000014" class="node">
<title>Node14</title>
<g id="a_Node000014"><a xlink:title=" ">
<polygon fill="#e0e0e0" stroke="#999999" points="506.5,-19 459.5,-19 459.5,0 506.5,0 506.5,-19"/>
<text text-anchor="middle" x="483" y="-7" font-family="Helvetica,sans-Serif" font-size="10.00">vector</text>
</a>
</g>
</g>
<!-- Node5&#45;&gt;Node14 -->
<g id="edge13_Node000005_Node000014" class="edge">
<title>Node5&#45;&gt;Node14</title>
<g id="a_edge13_Node000005_Node000014"><a xlink:title=" ">
<path fill="none" stroke="#63b8ff" d="M551.97,-111.78C528.51,-105.88 502.14,-94.8 487,-74 477.76,-61.3 477.55,-43.12 479.19,-29.46"/>
<polygon fill="#63b8ff" stroke="#63b8ff" points="482.69,-29.71 480.84,-19.28 475.78,-28.58 482.69,-29.71"/>
</a>
</g>
</g>
<!-- Node15 -->
<g id="Node000015" class="node">
<title>Node15</title>
<g id="a_Node000015"><a xlink:href="Entity_8hpp.html" target="_top" xlink:title=" ">
<polygon fill="white" stroke="#666666" points="1144,-74 1060,-74 1060,-55 1144,-55 1144,-74"/>
<text text-anchor="middle" x="1102" y="-62" font-family="Helvetica,sans-Serif" font-size="10.00">ecs/Entity.hpp</text>
</a>
</g>
</g>
<!-- Node5&#45;&gt;Node15 -->
<g id="edge14_Node000005_Node000015" class="edge">
<title>Node5&#45;&gt;Node15</title>
<g id="a_edge14_Node000005_Node000015"><a xlink:title=" ">
<path fill="none" stroke="#63b8ff" d="M648.18,-114.81C729.03,-108.38 897.32,-94.01 1049.72,-74.09"/>
<polygon fill="#63b8ff" stroke="#63b8ff" points="1050.28,-77.55 1059.73,-72.77 1049.36,-70.61 1050.28,-77.55"/>
</a>
</g>
</g>
<!-- Node17 -->
<g id="Node000017" class="node">
<title>Node17</title>
<g id="a_Node000017"><a xlink:href="SparseArray_8hpp.html" target="_top" xlink:title=" ">
<polygon fill="white" stroke="#666666" points="611.5,-74 496.5,-74 496.5,-55 611.5,-55 611.5,-74"/>
<text text-anchor="middle" x="554" y="-62" font-family="Helvetica,sans-Serif" font-size="10.00">ecs/SparseArray.hpp</text>
</a>
</g>
</g>
<!-- Node5&#45;&gt;Node17 -->
<g id="edge16_Node000005_Node000017" class="edge">
<title>Node5&#45;&gt;Node17</title>
<g id="a_edge16_Node000005_Node000017"><a xlink:title=" ">
<path fill="none" stroke="#63b8ff" d="M592.4,-109.75C585.84,-102.18 576.18,-91.05 568.19,-81.84"/>
<polygon fill="#63b8ff" stroke="#63b8ff" points="570.65,-79.35 561.45,-74.09 565.37,-83.94 570.65,-79.35"/>
</a>
</g>
</g>
<!-- Node16 -->
<g id="Node000016" class="node">
<title>Node16</title>
<g id="a_Node000016"><a xlink:title=" ">
<polygon fill="#e0e0e0" stroke="#999999" points="1128.5,-19 1075.5,-19 1075.5,0 1128.5,0 1128.5,-19"/>
<text text-anchor="middle" x="1102" y="-7" font-family="Helvetica,sans-Serif" font-size="10.00">cstddef</text>
</a>
</g>
</g>
<!-- Node15&#45;&gt;Node16 -->
<g id="edge15_Node000015_Node000016" class="edge">
<title>Node15&#45;&gt;Node16</title>
<g id="a_edge15_Node000015_Node000016"><a xlink:title=" ">
<path fill="none" stroke="#63b8ff" d="M1102,-54.75C1102,-47.8 1102,-37.85 1102,-29.13"/>
<polygon fill="#63b8ff" stroke="#63b8ff" points="1105.5,-29.09 1102,-19.09 1098.5,-29.09 1105.5,-29.09"/>
</a>
</g>
</g>
<!-- Node17&#45;&gt;Node13 -->
<g id="edge19_Node000017_Node000013" class="edge">
<title>Node17&#45;&gt;Node13</title>
<g id="a_edge19_Node000017_Node000013"><a xlink:title=" ">
<path fill="none" stroke="#63b8ff" d="M532.31,-54.98C510.2,-46.3 475.68,-32.75 450.55,-22.88"/>
<polygon fill="#63b8ff" stroke="#63b8ff" points="451.67,-19.57 441.08,-19.17 449.11,-26.08 451.67,-19.57"/>
</a>
</g>
</g>
<!-- Node17&#45;&gt;Node14 -->
<g id="edge20_Node000017_Node000014" class="edge">
<title>Node17&#45;&gt;Node14</title>
<g id="a_edge20_Node000017_Node000014"><a xlink:title=" ">
<path fill="none" stroke="#63b8ff" d="M542.59,-54.98C531.89,-47 515.66,-34.88 502.84,-25.31"/>
<polygon fill="#63b8ff" stroke="#63b8ff" points="504.72,-22.35 494.61,-19.17 500.53,-27.96 504.72,-22.35"/>
</a>
</g>
</g>
<!-- Node18 -->
<g id="Node000018" class="node">
<title>Node18</title>
<g id="a_Node000018"><a xlink:title=" ">
<polygon fill="#e0e0e0" stroke="#999999" points="583,-19 525,-19 525,0 583,0 583,-19"/>
<text text-anchor="middle" x="554" y="-7" font-family="Helvetica,sans-Serif" font-size="10.00">memory</text>
</a>
</g>
</g>
<!-- Node17&#45;&gt;Node18 -->
<g id="edge17_Node000017_Node000018" class="edge">
<title>Node17&#45;&gt;Node18</title>
<g id="a_edge17_Node000017_Node000018"><a xlink:title=" ">
<path fill="none" stroke="#63b8ff" d="M554,-54.75C554,-47.8 554,-37.85 554,-29.13"/>
<polygon fill="#63b8ff" stroke="#63b8ff" points="557.5,-29.09 554,-19.09 550.5,-29.09 557.5,-29.09"/>
</a>
</g>
</g>
<!-- Node19 -->
<g id="Node000019" class="node">
<title>Node19</title>
<g id="a_Node000019"><a xlink:title=" ">
<polygon fill="#e0e0e0" stroke="#999999" points="657,-19 601,-19 601,0 657,0 657,-19"/>
<text text-anchor="middle" x="629" y="-7" font-family="Helvetica,sans-Serif" font-size="10.00">optional</text>
</a>
</g>
</g>
<!-- Node17&#45;&gt;Node19 -->
<g id="edge18_Node000017_Node000019" class="edge">
<title>Node17&#45;&gt;Node19</title>
<g id="a_edge18_Node000017_Node000019"><a xlink:title=" ">
<path fill="none" stroke="#63b8ff" d="M566.05,-54.98C577.46,-46.92 594.83,-34.65 608.43,-25.03"/>
<polygon fill="#63b8ff" stroke="#63b8ff" points="610.58,-27.8 616.73,-19.17 606.54,-22.08 610.58,-27.8"/>
</a>
</g>
</g>
<!-- Node20&#45;&gt;Node6 -->
<g id="edge22_Node000020_Node000006" class="edge">
<title>Node20&#45;&gt;Node6</title>
<g id="a_edge22_Node000020_Node000006"><a xlink:title=" ">
<path fill="none" stroke="#63b8ff" d="M271.81,-109.75C274.06,-102.72 277.3,-92.62 280.12,-83.84"/>
<polygon fill="#63b8ff" stroke="#63b8ff" points="283.52,-84.68 283.25,-74.09 276.86,-82.54 283.52,-84.68"/>
</a>
</g>
</g>
<!-- Node20&#45;&gt;Node8 -->
<g id="edge23_Node000020_Node000008" class="edge">
<title>Node20&#45;&gt;Node8</title>
<g id="a_edge23_Node000020_Node000008"><a xlink:title=" ">
<path fill="none" stroke="#63b8ff" d="M285.07,-109.98C300.86,-101.61 325.22,-88.7 343.63,-78.95"/>
<polygon fill="#63b8ff" stroke="#63b8ff" points="345.44,-81.95 352.64,-74.17 342.17,-75.76 345.44,-81.95"/>
</a>
</g>
</g>
<!-- Node20&#45;&gt;Node13 -->
<g id="edge25_Node000020_Node000013" class="edge">
<title>Node20&#45;&gt;Node13</title>
<g id="a_edge25_Node000020_Node000013"><a xlink:title=" ">
<path fill="none" stroke="#63b8ff" d="M240.22,-109.92C208.73,-99.09 165.18,-78.94 185,-55 210.13,-24.64 327.59,-14.82 385.94,-11.78"/>
<polygon fill="#63b8ff" stroke="#63b8ff" points="386.29,-15.27 396.11,-11.29 385.95,-8.28 386.29,-15.27"/>
</a>
</g>
</g>
<!-- Node20&#45;&gt;Node20 -->
<g id="edge26_Node000020_Node000020" class="edge">
<title>Node20&#45;&gt;Node20</title>
<g id="a_edge26_Node000020_Node000020"><a xlink:title=" ">
<path fill="none" stroke="#63b8ff" d="M298.02,-129.03C315.06,-131.06 331,-127.88 331,-119.5 331,-112.82 320.87,-109.44 308.14,-109.38"/>
<polygon fill="#63b8ff" stroke="#63b8ff" points="307.8,-105.89 298.02,-109.97 308.21,-112.88 307.8,-105.89"/>
</a>
</g>
</g>
<!-- Node21 -->
<g id="Node000021" class="node">
<title>Node21</title>
<g id="a_Node000021"><a xlink:title=" ">
<polygon fill="#e0e0e0" stroke="#999999" points="235.5,-74 194.5,-74 194.5,-55 235.5,-55 235.5,-74"/>
<text text-anchor="middle" x="215" y="-62" font-family="Helvetica,sans-Serif" font-size="10.00">tuple</text>
</a>
</g>
</g>
<!-- Node20&#45;&gt;Node21 -->
<g id="edge24_Node000020_Node000021" class="edge">
<title>Node20&#45;&gt;Node21</title>
<g id="a_edge24_Node000020_Node000021"><a xlink:title=" ">
<path fill="none" stroke="#63b8ff" d="M260.08,-109.75C252.22,-102.03 240.57,-90.6 231.08,-81.28"/>
<polygon fill="#63b8ff" stroke="#63b8ff" points="233.34,-78.6 223.75,-74.09 228.44,-83.59 233.34,-78.6"/>
</a>
</g>
</g>
</g>
</svg>
