<?xml version="1.0" encoding="UTF-8" standalone="no"?>
<!DOCTYPE svg PUBLIC "-//W3C//DTD SVG 1.1//EN"
 "http://www.w3.org/Graphics/SVG/1.1/DTD/svg11.dtd">
<!-- Generated by graphviz version 2.43.0 (0)
 -->
<!-- Title: /home/runner/work/R&#45;Type/R&#45;Type/Shared/components/Player/PlayerEntity.hpp Pages: 1 -->
<svg width="457pt" height="269pt"
 viewBox="0.00 0.00 456.50 269.00" xmlns="http://www.w3.org/2000/svg" xmlns:xlink="http://www.w3.org/1999/xlink">
<g id="graph0" class="graph" transform="scale(1 1) rotate(0) translate(4 265)">
<title>/home/runner/work/R&#45;Type/R&#45;Type/Shared/components/Player/PlayerEntity.hpp</title>
<!-- Node1 -->
<g id="Node000001" class="node">
<title>Node1</title>
<g id="a_Node000001"><a xlink:title=" ">
<polygon fill="#999999" stroke="#666666" points="344.5,-261 149.5,-261 149.5,-220 344.5,-220 344.5,-261"/>
<text text-anchor="start" x="157.5" y="-249" font-family="Helvetica,sans-Serif" font-size="10.00">/home/runner/work/R</text>
<text text-anchor="start" x="157.5" y="-238" font-family="Helvetica,sans-Serif" font-size="10.00">&#45;Type/R&#45;Type/Shared</text>
<text text-anchor="middle" x="247" y="-227" font-family="Helvetica,sans-Serif" font-size="10.00">/components/Player/PlayerEntity.hpp</text>
</a>
</g>
</g>
<!-- Node2 -->
<g id="Node000002" class="node">
<title>Node2</title>
<g id="a_Node000002"><a xlink:title=" ">
<polygon fill="#e0e0e0" stroke="#999999" points="64,-184 0,-184 0,-165 64,-165 64,-184"/>
<text text-anchor="middle" x="32" y="-172" font-family="Helvetica,sans-Serif" font-size="10.00">algorithm</text>
</a>
</g>
</g>
<!-- Node1&#45;&gt;Node2 -->
<g id="edge1_Node000001_Node000002" class="edge">
<title>Node1&#45;&gt;Node2</title>
<g id="a_edge1_Node000001_Node000002"><a xlink:title=" ">
<path fill="none" stroke="#63b8ff" d="M181.32,-219.95C145.04,-209.15 101.23,-196.11 70.48,-186.95"/>
<polygon fill="#63b8ff" stroke="#63b8ff" points="71.16,-183.51 60.58,-184.01 69.17,-190.22 71.16,-183.51"/>
</a>
</g>
</g>
<!-- Node3 -->
<g id="Node000003" class="node">
<title>Node3</title>
<g id="a_Node000003"><a xlink:href="CollisionController_8hpp.html" target="_top" xlink:title=" ">
<polygon fill="white" stroke="#666666" points="254,-184 82,-184 82,-165 254,-165 254,-184"/>
<text text-anchor="middle" x="168" y="-172" font-family="Helvetica,sans-Serif" font-size="10.00">Collision/CollisionController.hpp</text>
</a>
</g>
</g>
<!-- Node1&#45;&gt;Node3 -->
<g id="edge2_Node000001_Node000003" class="edge">
<title>Node1&#45;&gt;Node3</title>
<g id="a_edge2_Node000001_Node000003"><a xlink:title=" ">
<path fill="none" stroke="#63b8ff" d="M222.87,-219.95C211.27,-210.55 197.57,-199.46 186.77,-190.7"/>
<polygon fill="#63b8ff" stroke="#63b8ff" points="188.79,-187.84 178.81,-184.26 184.38,-193.27 188.79,-187.84"/>
</a>
</g>
</g>
<!-- Node6 -->
<g id="Node000006" class="node">
<title>Node6</title>
<g id="a_Node000006"><a xlink:href="Weapon_8hpp.html" target="_top" xlink:title=" ">
<polygon fill="white" stroke="#666666" points="382,-184 272,-184 272,-165 382,-165 382,-184"/>
<text text-anchor="middle" x="327" y="-172" font-family="Helvetica,sans-Serif" font-size="10.00">Player/Weapon.hpp</text>
</a>
</g>
</g>
<!-- Node1&#45;&gt;Node6 -->
<g id="edge5_Node000001_Node000006" class="edge">
<title>Node1&#45;&gt;Node6</title>
<g id="a_edge5_Node000001_Node000006"><a xlink:title=" ">
<path fill="none" stroke="#63b8ff" d="M271.44,-219.95C283.18,-210.55 297.05,-199.46 308,-190.7"/>
<polygon fill="#63b8ff" stroke="#63b8ff" points="310.43,-193.24 316.05,-184.26 306.05,-187.77 310.43,-193.24"/>
</a>
</g>
</g>
<!-- Node8 -->
<g id="Node000008" class="node">
<title>Node8</title>
<g id="a_Node000008"><a xlink:href="Physics2D_8hpp.html" target="_top" xlink:title=" ">
<polygon fill="white" stroke="#666666" points="434.5,-74 337.5,-74 337.5,-55 434.5,-55 434.5,-74"/>
<text text-anchor="middle" x="386" y="-62" font-family="Helvetica,sans-Serif" font-size="10.00">../Physics2D.hpp</text>
</a>
</g>
</g>
<!-- Node1&#45;&gt;Node8 -->
<g id="edge10_Node000001_Node000008" class="edge">
<title>Node1&#45;&gt;Node8</title>
<g id="a_edge10_Node000001_Node000008"><a xlink:title=" ">
<path fill="none" stroke="#63b8ff" d="M323.97,-219.98C347.18,-211.55 371.62,-199.87 391,-184 419.15,-160.95 439.02,-143.97 426,-110 421.76,-98.94 413.36,-88.91 405.36,-81.18"/>
<polygon fill="#63b8ff" stroke="#63b8ff" points="407.42,-78.33 397.64,-74.27 402.75,-83.55 407.42,-78.33"/>
</a>
</g>
</g>
<!-- Node4 -->
<g id="Node000004" class="node">
<title>Node4</title>
<g id="a_Node000004"><a xlink:href="Entity_8hpp.html" target="_top" xlink:title=" ">
<polygon fill="white" stroke="#666666" points="219,-129 117,-129 117,-110 219,-110 219,-129"/>
<text text-anchor="middle" x="168" y="-117" font-family="Helvetica,sans-Serif" font-size="10.00">../../ecs/Entity.hpp</text>
</a>
</g>
</g>
<!-- Node3&#45;&gt;Node4 -->
<g id="edge3_Node000003_Node000004" class="edge">
<title>Node3&#45;&gt;Node4</title>
<g id="a_edge3_Node000003_Node000004"><a xlink:title=" ">
<path fill="none" stroke="#63b8ff" d="M168,-164.75C168,-157.8 168,-147.85 168,-139.13"/>
<polygon fill="#63b8ff" stroke="#63b8ff" points="171.5,-139.09 168,-129.09 164.5,-139.09 171.5,-139.09"/>
</a>
</g>
</g>
<!-- Node5 -->
<g id="Node000005" class="node">
<title>Node5</title>
<g id="a_Node000005"><a xlink:title=" ">
<polygon fill="#e0e0e0" stroke="#999999" points="194.5,-74 141.5,-74 141.5,-55 194.5,-55 194.5,-74"/>
<text text-anchor="middle" x="168" y="-62" font-family="Helvetica,sans-Serif" font-size="10.00">cstddef</text>
</a>
</g>
</g>
<!-- Node4&#45;&gt;Node5 -->
<g id="edge4_Node000004_Node000005" class="edge">
<title>Node4&#45;&gt;Node5</title>
<g id="a_edge4_Node000004_Node000005"><a xlink:title=" ">
<path fill="none" stroke="#63b8ff" d="M168,-109.75C168,-102.8 168,-92.85 168,-84.13"/>
<polygon fill="#63b8ff" stroke="#63b8ff" points="171.5,-84.09 168,-74.09 164.5,-84.09 171.5,-84.09"/>
</a>
</g>
</g>
<!-- Node7 -->
<g id="Node000007" class="node">
<title>Node7</title>
<g id="a_Node000007"><a xlink:href="Projectile_8hpp.html" target="_top" xlink:title=" ">
<polygon fill="white" stroke="#666666" points="417,-129 237,-129 237,-110 417,-110 417,-129"/>
<text text-anchor="middle" x="327" y="-117" font-family="Helvetica,sans-Serif" font-size="10.00">components/Player/Projectile.hpp</text>
</a>
</g>
</g>
<!-- Node6&#45;&gt;Node7 -->
<g id="edge6_Node000006_Node000007" class="edge">
<title>Node6&#45;&gt;Node7</title>
<g id="a_edge6_Node000006_Node000007"><a xlink:title=" ">
<path fill="none" stroke="#63b8ff" d="M327,-164.75C327,-157.8 327,-147.85 327,-139.13"/>
<polygon fill="#63b8ff" stroke="#63b8ff" points="330.5,-139.09 327,-129.09 323.5,-139.09 330.5,-139.09"/>
</a>
</g>
</g>
<!-- Node7&#45;&gt;Node8 -->
<g id="edge7_Node000007_Node000008" class="edge">
<title>Node7&#45;&gt;Node8</title>
<g id="a_edge7_Node000007_Node000008"><a xlink:title=" ">
<path fill="none" stroke="#63b8ff" d="M336.48,-109.98C345.2,-102.15 358.34,-90.34 368.9,-80.86"/>
<polygon fill="#63b8ff" stroke="#63b8ff" points="371.25,-83.46 376.35,-74.17 366.57,-78.25 371.25,-83.46"/>
</a>
</g>
</g>
<!-- Node9 -->
<g id="Node000009" class="node">
<title>Node9</title>
<g id="a_Node000009"><a xlink:title=" ">
<polygon fill="#e0e0e0" stroke="#999999" points="383,-19 311,-19 311,0 383,0 383,-19"/>
<text text-anchor="middle" x="347" y="-7" font-family="Helvetica,sans-Serif" font-size="10.00">SDL2/SDL.h</text>
</a>
</g>
</g>
<!-- Node8&#45;&gt;Node9 -->
<g id="edge8_Node000008_Node000009" class="edge">
<title>Node8&#45;&gt;Node9</title>
<g id="a_edge8_Node000008_Node000009"><a xlink:title=" ">
<path fill="none" stroke="#63b8ff" d="M379.56,-54.75C374.11,-47.34 366.14,-36.5 359.44,-27.41"/>
<polygon fill="#63b8ff" stroke="#63b8ff" points="362.07,-25.07 353.32,-19.09 356.43,-29.22 362.07,-25.07"/>
</a>
</g>
</g>
<!-- Node10 -->
<g id="Node000010" class="node">
<title>Node10</title>
<g id="a_Node000010"><a xlink:title=" ">
<polygon fill="#e0e0e0" stroke="#999999" points="448.5,-19 401.5,-19 401.5,0 448.5,0 448.5,-19"/>
<text text-anchor="middle" x="425" y="-7" font-family="Helvetica,sans-Serif" font-size="10.00">cmath</text>
</a>
</g>
</g>
<!-- Node8&#45;&gt;Node10 -->
<g id="edge9_Node000008_Node000010" class="edge">
<title>Node8&#45;&gt;Node10</title>
<g id="a_edge9_Node000008_Node000010"><a xlink:title=" ">
<path fill="none" stroke="#63b8ff" d="M392.44,-54.75C397.89,-47.34 405.86,-36.5 412.56,-27.41"/>
<polygon fill="#63b8ff" stroke="#63b8ff" points="415.57,-29.22 418.68,-19.09 409.93,-25.07 415.57,-29.22"/>
</a>
</g>
</g>
</g>
</svg>
