<?xml version="1.0" encoding="UTF-8" standalone="no"?>
<!DOCTYPE svg PUBLIC "-//W3C//DTD SVG 1.1//EN"
 "http://www.w3.org/Graphics/SVG/1.1/DTD/svg11.dtd">
<!-- Generated by graphviz version 2.43.0 (0)
 -->
<!-- Title: /home/runner/work/R&#45;Type/R&#45;Type/Client/src/engine/settings/PlayerSettings.hpp Pages: 1 -->
<svg width="1198pt" height="302pt"
 viewBox="0.00 0.00 1198.21 302.00" xmlns="http://www.w3.org/2000/svg" xmlns:xlink="http://www.w3.org/1999/xlink">
<g id="graph0" class="graph" transform="scale(1 1) rotate(0) translate(4 298)">
<title>/home/runner/work/R&#45;Type/R&#45;Type/Client/src/engine/settings/PlayerSettings.hpp</title>
<!-- Node1 -->
<g id="Node000001" class="node">
<title>Node1</title>
<g id="a_Node000001"><a xlink:title=" ">
<polygon fill="#999999" stroke="#666666" points="1017.71,-294 898.71,-294 898.71,-242 1017.71,-242 1017.71,-294"/>
<text text-anchor="start" x="906.71" y="-282" font-family="Helvetica,sans-Serif" font-size="10.00">/home/runner/work/R</text>
<text text-anchor="start" x="906.71" y="-271" font-family="Helvetica,sans-Serif" font-size="10.00">&#45;Type/R&#45;Type/Client</text>
<text text-anchor="start" x="906.71" y="-260" font-family="Helvetica,sans-Serif" font-size="10.00">/src/engine/settings</text>
<text text-anchor="middle" x="958.21" y="-249" font-family="Helvetica,sans-Serif" font-size="10.00">/PlayerSettings.hpp</text>
</a>
</g>
</g>
<!-- Node2 -->
<g id="Node000002" class="node">
<title>Node2</title>
<g id="a_Node000002"><a xlink:href="GameEngine_8hpp.html" target="_top" xlink:title=" ">
<polygon fill="white" stroke="#666666" points="636.21,-200.5 480.21,-200.5 480.21,-159.5 636.21,-159.5 636.21,-200.5"/>
<text text-anchor="start" x="488.21" y="-188.5" font-family="Helvetica,sans-Serif" font-size="10.00">/home/runner/work/R</text>
<text text-anchor="start" x="488.21" y="-177.5" font-family="Helvetica,sans-Serif" font-size="10.00">&#45;Type/R&#45;Type/Client</text>
<text text-anchor="middle" x="558.21" y="-166.5" font-family="Helvetica,sans-Serif" font-size="10.00">/src/engine/GameEngine.hpp</text>
</a>
</g>
</g>
<!-- Node1&#45;&gt;Node2 -->
<g id="edge1_Node000001_Node000002" class="edge">
<title>Node1&#45;&gt;Node2</title>
<g id="a_edge1_Node000001_Node000002"><a xlink:title=" ">
<path fill="none" stroke="#63b8ff" d="M888.23,-251.95C817.85,-236.82 709.57,-213.54 636.4,-197.81"/>
<polygon fill="#63b8ff" stroke="#63b8ff" points="887.81,-255.44 898.33,-254.12 889.29,-248.6 887.81,-255.44"/>
</a>
</g>
</g>
<!-- Node8 -->
<g id="Node000008" class="node">
<title>Node8</title>
<g id="a_Node000008"><a xlink:href="Options_8hpp.html" target="_top" xlink:title=" ">
<polygon fill="white" stroke="#666666" points="1024.21,-118 892.21,-118 892.21,-77 1024.21,-77 1024.21,-118"/>
<text text-anchor="start" x="900.21" y="-106" font-family="Helvetica,sans-Serif" font-size="10.00">/home/runner/work/R</text>
<text text-anchor="start" x="900.21" y="-95" font-family="Helvetica,sans-Serif" font-size="10.00">&#45;Type/R&#45;Type/Client</text>
<text text-anchor="middle" x="958.21" y="-84" font-family="Helvetica,sans-Serif" font-size="10.00">/src/scenes/Options.hpp</text>
</a>
</g>
</g>
<!-- Node1&#45;&gt;Node8 -->
<g id="edge16_Node000001_Node000008" class="edge">
<title>Node1&#45;&gt;Node8</title>
<g id="a_edge16_Node000001_Node000008"><a xlink:title=" ">
<path fill="none" stroke="#63b8ff" d="M958.21,-231.65C958.21,-197.13 958.21,-145.88 958.21,-118.11"/>
<polygon fill="#63b8ff" stroke="#63b8ff" points="954.71,-231.77 958.21,-241.77 961.71,-231.77 954.71,-231.77"/>
</a>
</g>
</g>
<!-- Node10 -->
<g id="Node000010" class="node">
<title>Node10</title>
<g id="a_Node000010"><a xlink:href="MultiplayerSkinManager_8hpp.html" target="_top" xlink:title=" ">
<polygon fill="white" stroke="#666666" points="1169.71,-206 1010.71,-206 1010.71,-154 1169.71,-154 1169.71,-206"/>
<text text-anchor="start" x="1018.71" y="-194" font-family="Helvetica,sans-Serif" font-size="10.00">/home/runner/work/R</text>
<text text-anchor="start" x="1018.71" y="-183" font-family="Helvetica,sans-Serif" font-size="10.00">&#45;Type/R&#45;Type/Client</text>
<text text-anchor="start" x="1018.71" y="-172" font-family="Helvetica,sans-Serif" font-size="10.00">/src/engine/settings</text>
<text text-anchor="middle" x="1090.21" y="-161" font-family="Helvetica,sans-Serif" font-size="10.00">/MultiplayerSkinManager.hpp</text>
</a>
</g>
</g>
<!-- Node1&#45;&gt;Node10 -->
<g id="edge13_Node000001_Node000010" class="edge">
<title>Node1&#45;&gt;Node10</title>
<g id="a_edge13_Node000001_Node000010"><a xlink:title=" ">
<path fill="none" stroke="#63b8ff" d="M1005.43,-236.24C1020.5,-226.42 1037,-215.67 1051.4,-206.29"/>
<polygon fill="#63b8ff" stroke="#63b8ff" points="1003.21,-233.5 996.75,-241.89 1007.04,-239.37 1003.21,-233.5"/>
</a>
</g>
</g>
<!-- Node3 -->
<g id="Node000003" class="node">
<title>Node3</title>
<g id="a_Node000003"><a xlink:href="Main_8cpp.html" target="_top" xlink:title=" ">
<polygon fill="white" stroke="#666666" points="779.71,-41 660.71,-41 660.71,0 779.71,0 779.71,-41"/>
<text text-anchor="start" x="668.71" y="-29" font-family="Helvetica,sans-Serif" font-size="10.00">/home/runner/work/R</text>
<text text-anchor="start" x="668.71" y="-18" font-family="Helvetica,sans-Serif" font-size="10.00">&#45;Type/R&#45;Type/Client</text>
<text text-anchor="middle" x="720.21" y="-7" font-family="Helvetica,sans-Serif" font-size="10.00">/src/Main.cpp</text>
</a>
</g>
</g>
<!-- Node2&#45;&gt;Node3 -->
<g id="edge2_Node000002_Node000003" class="edge">
<title>Node2&#45;&gt;Node3</title>
<g id="a_edge2_Node000002_Node000003"><a xlink:title=" ">
<path fill="none" stroke="#63b8ff" d="M469.78,-175.52C322.32,-168.8 39.33,-151.65 9.21,-118 -2.94,-104.42 -3.16,-90.38 9.21,-77 53.06,-29.59 497.64,-22.6 660.68,-21.63"/>
<polygon fill="#63b8ff" stroke="#63b8ff" points="470.01,-179.04 480.16,-175.99 470.32,-172.04 470.01,-179.04"/>
</a>
</g>
</g>
<!-- Node4 -->
<g id="Node000004" class="node">
<title>Node4</title>
<g id="a_Node000004"><a xlink:href="GameEngine_8cpp.html" target="_top" xlink:title=" ">
<polygon fill="white" stroke="#666666" points="173.71,-118 18.71,-118 18.71,-77 173.71,-77 173.71,-118"/>
<text text-anchor="start" x="26.71" y="-106" font-family="Helvetica,sans-Serif" font-size="10.00">/home/runner/work/R</text>
<text text-anchor="start" x="26.71" y="-95" font-family="Helvetica,sans-Serif" font-size="10.00">&#45;Type/R&#45;Type/Client</text>
<text text-anchor="middle" x="96.21" y="-84" font-family="Helvetica,sans-Serif" font-size="10.00">/src/engine/GameEngine.cpp</text>
</a>
</g>
</g>
<!-- Node2&#45;&gt;Node4 -->
<g id="edge3_Node000002_Node000004" class="edge">
<title>Node2&#45;&gt;Node4</title>
<g id="a_edge3_Node000002_Node000004"><a xlink:title=" ">
<path fill="none" stroke="#63b8ff" d="M470.01,-166.16C393.86,-154.72 280.98,-136.89 183.21,-118 180.17,-117.41 177.08,-116.8 173.95,-116.16"/>
<polygon fill="#63b8ff" stroke="#63b8ff" points="469.64,-169.64 480.05,-167.66 470.68,-162.72 469.64,-169.64"/>
</a>
</g>
</g>
<!-- Node5 -->
<g id="Node000005" class="node">
<title>Node5</title>
<g id="a_Node000005"><a xlink:href="SceneManager_8cpp.html" target="_top" xlink:title=" ">
<polygon fill="white" stroke="#666666" points="388.21,-118 192.21,-118 192.21,-77 388.21,-77 388.21,-118"/>
<text text-anchor="start" x="200.21" y="-106" font-family="Helvetica,sans-Serif" font-size="10.00">/home/runner/work/R</text>
<text text-anchor="start" x="200.21" y="-95" font-family="Helvetica,sans-Serif" font-size="10.00">&#45;Type/R&#45;Type/Client</text>
<text text-anchor="middle" x="290.21" y="-84" font-family="Helvetica,sans-Serif" font-size="10.00">/src/engine/scene/SceneManager.cpp</text>
</a>
</g>
</g>
<!-- Node2&#45;&gt;Node5 -->
<g id="edge4_Node000002_Node000005" class="edge">
<title>Node2&#45;&gt;Node5</title>
<g id="a_edge4_Node000002_Node000005"><a xlink:title=" ">
<path fill="none" stroke="#63b8ff" d="M483.23,-156.48C442.99,-144.39 393.87,-129.64 355.26,-118.04"/>
<polygon fill="#63b8ff" stroke="#63b8ff" points="482.41,-159.89 492.99,-159.41 484.42,-153.18 482.41,-159.89"/>
</a>
</g>
</g>
<!-- Node6 -->
<g id="Node000006" class="node">
<title>Node6</title>
<g id="a_Node000006"><a xlink:href="JoinGame_8hpp.html" target="_top" xlink:title=" ">
<polygon fill="white" stroke="#666666" points="548.21,-118 406.21,-118 406.21,-77 548.21,-77 548.21,-118"/>
<text text-anchor="start" x="414.21" y="-106" font-family="Helvetica,sans-Serif" font-size="10.00">/home/runner/work/R</text>
<text text-anchor="start" x="414.21" y="-95" font-family="Helvetica,sans-Serif" font-size="10.00">&#45;Type/R&#45;Type/Client</text>
<text text-anchor="middle" x="477.21" y="-84" font-family="Helvetica,sans-Serif" font-size="10.00">/src/scenes/JoinGame.hpp</text>
</a>
</g>
</g>
<!-- Node2&#45;&gt;Node6 -->
<g id="edge5_Node000002_Node000006" class="edge">
<title>Node2&#45;&gt;Node6</title>
<g id="a_edge5_Node000002_Node000006"><a xlink:title=" ">
<path fill="none" stroke="#63b8ff" d="M530.8,-151.76C519.72,-140.74 507.17,-128.27 497,-118.17"/>
<polygon fill="#63b8ff" stroke="#63b8ff" points="528.63,-154.53 538.19,-159.1 533.56,-149.57 528.63,-154.53"/>
</a>
</g>
</g>
<!-- Node7 -->
<g id="Node000007" class="node">
<title>Node7</title>
<g id="a_Node000007"><a xlink:href="MainMenu_8hpp.html" target="_top" xlink:title=" ">
<polygon fill="white" stroke="#666666" points="712.21,-118 566.21,-118 566.21,-77 712.21,-77 712.21,-118"/>
<text text-anchor="start" x="574.21" y="-106" font-family="Helvetica,sans-Serif" font-size="10.00">/home/runner/work/R</text>
<text text-anchor="start" x="574.21" y="-95" font-family="Helvetica,sans-Serif" font-size="10.00">&#45;Type/R&#45;Type/Client</text>
<text text-anchor="middle" x="639.21" y="-84" font-family="Helvetica,sans-Serif" font-size="10.00">/src/scenes/MainMenu.hpp</text>
</a>
</g>
</g>
<!-- Node2&#45;&gt;Node7 -->
<g id="edge7_Node000002_Node000007" class="edge">
<title>Node2&#45;&gt;Node7</title>
<g id="a_edge7_Node000002_Node000007"><a xlink:title=" ">
<path fill="none" stroke="#63b8ff" d="M585.62,-151.76C596.71,-140.74 609.25,-128.27 619.42,-118.17"/>
<polygon fill="#63b8ff" stroke="#63b8ff" points="582.86,-149.57 578.23,-159.1 587.79,-154.53 582.86,-149.57"/>
</a>
</g>
</g>
<!-- Node2&#45;&gt;Node8 -->
<g id="edge9_Node000002_Node000008" class="edge">
<title>Node2&#45;&gt;Node8</title>
<g id="a_edge9_Node000002_Node000008"><a xlink:title=" ">
<path fill="none" stroke="#63b8ff" d="M646.22,-164.17C711.8,-152.71 803.41,-135.84 883.21,-118 886.1,-117.35 889.05,-116.68 892.02,-115.97"/>
<polygon fill="#63b8ff" stroke="#63b8ff" points="645.59,-160.73 636.33,-165.89 646.79,-167.63 645.59,-160.73"/>
</a>
</g>
</g>
<!-- Node9 -->
<g id="Node000009" class="node">
<title>Node9</title>
<g id="a_Node000009"><a xlink:href="WaitLobby_8hpp.html" target="_top" xlink:title=" ">
<polygon fill="white" stroke="#666666" points="874.21,-118 730.21,-118 730.21,-77 874.21,-77 874.21,-118"/>
<text text-anchor="start" x="738.21" y="-106" font-family="Helvetica,sans-Serif" font-size="10.00">/home/runner/work/R</text>
<text text-anchor="start" x="738.21" y="-95" font-family="Helvetica,sans-Serif" font-size="10.00">&#45;Type/R&#45;Type/Client</text>
<text text-anchor="middle" x="802.21" y="-84" font-family="Helvetica,sans-Serif" font-size="10.00">/src/scenes/WaitLobby.hpp</text>
</a>
</g>
</g>
<!-- Node2&#45;&gt;Node9 -->
<g id="edge11_Node000002_Node000009" class="edge">
<title>Node2&#45;&gt;Node9</title>
<g id="a_edge11_Node000002_Node000009"><a xlink:title=" ">
<path fill="none" stroke="#63b8ff" d="M627.17,-156.25C663.68,-144.2 708.06,-129.56 742.99,-118.04"/>
<polygon fill="#63b8ff" stroke="#63b8ff" points="625.99,-152.95 617.59,-159.41 628.18,-159.6 625.99,-152.95"/>
</a>
</g>
</g>
<!-- Node6&#45;&gt;Node3 -->
<g id="edge6_Node000006_Node000003" class="edge">
<title>Node6&#45;&gt;Node3</title>
<g id="a_edge6_Node000006_Node000003"><a xlink:title=" ">
<path fill="none" stroke="#63b8ff" d="M550.19,-73.98C585.49,-63.08 627.32,-50.17 660.66,-39.88"/>
<polygon fill="#63b8ff" stroke="#63b8ff" points="548.95,-70.7 540.42,-76.99 551.01,-77.39 548.95,-70.7"/>
</a>
</g>
</g>
<!-- Node7&#45;&gt;Node3 -->
<g id="edge8_Node000007_Node000003" class="edge">
<title>Node7&#45;&gt;Node3</title>
<g id="a_edge8_Node000007_Node000003"><a xlink:title=" ">
<path fill="none" stroke="#63b8ff" d="M668.06,-69.79C678.29,-60.32 689.6,-49.84 699.07,-41.07"/>
<polygon fill="#63b8ff" stroke="#63b8ff" points="665.45,-67.43 660.49,-76.79 670.21,-72.57 665.45,-67.43"/>
</a>
</g>
</g>
<!-- Node8&#45;&gt;Node3 -->
<g id="edge10_Node000008_Node000003" class="edge">
<title>Node8&#45;&gt;Node3</title>
<g id="a_edge10_Node000008_Node000003"><a xlink:title=" ">
<path fill="none" stroke="#63b8ff" d="M886.4,-73.87C852.33,-63.14 812.1,-50.46 779.76,-40.27"/>
<polygon fill="#63b8ff" stroke="#63b8ff" points="885.71,-77.32 896.3,-76.99 887.82,-70.65 885.71,-77.32"/>
</a>
</g>
</g>
<!-- Node9&#45;&gt;Node3 -->
<g id="edge12_Node000009_Node000003" class="edge">
<title>Node9&#45;&gt;Node3</title>
<g id="a_edge12_Node000009_Node000003"><a xlink:title=" ">
<path fill="none" stroke="#63b8ff" d="M773.01,-69.79C762.65,-60.32 751.2,-49.84 741.61,-41.07"/>
<polygon fill="#63b8ff" stroke="#63b8ff" points="770.93,-72.63 780.67,-76.79 775.65,-67.46 770.93,-72.63"/>
</a>
</g>
</g>
<!-- Node11 -->
<g id="Node000011" class="node">
<title>Node11</title>
<g id="a_Node000011"><a xlink:href="MainGame_8hpp.html" target="_top" xlink:title=" ">
<polygon fill="white" stroke="#666666" points="1190.21,-118 1042.21,-118 1042.21,-77 1190.21,-77 1190.21,-118"/>
<text text-anchor="start" x="1050.21" y="-106" font-family="Helvetica,sans-Serif" font-size="10.00">/home/runner/work/R</text>
<text text-anchor="start" x="1050.21" y="-95" font-family="Helvetica,sans-Serif" font-size="10.00">&#45;Type/R&#45;Type/Client</text>
<text text-anchor="middle" x="1116.21" y="-84" font-family="Helvetica,sans-Serif" font-size="10.00">/src/scenes/MainGame.hpp</text>
</a>
</g>
</g>
<!-- Node10&#45;&gt;Node11 -->
<g id="edge14_Node000010_Node000011" class="edge">
<title>Node10&#45;&gt;Node11</title>
<g id="a_edge14_Node000010_Node000011"><a xlink:title=" ">
<path fill="none" stroke="#63b8ff" d="M1101.37,-144.45C1104.28,-135.45 1107.31,-126.07 1109.87,-118.15"/>
<polygon fill="#63b8ff" stroke="#63b8ff" points="1098.04,-143.38 1098.3,-153.97 1104.7,-145.53 1098.04,-143.38"/>
</a>
</g>
</g>
<!-- Node11&#45;&gt;Node3 -->
<g id="edge15_Node000011_Node000003" class="edge">
<title>Node11&#45;&gt;Node3</title>
<g id="a_edge15_Node000011_Node000003"><a xlink:title=" ">
<path fill="none" stroke="#63b8ff" d="M1032.11,-76.82C938.42,-57.72 840.78,-41.07 779.82,-31.06"/>
<polygon fill="#63b8ff" stroke="#63b8ff" points="1031.55,-80.28 1042.04,-78.86 1032.95,-73.42 1031.55,-80.28"/>
</a>
</g>
</g>
</g>
</svg>
