<?xml version="1.0" encoding="UTF-8" standalone="no"?>
<!DOCTYPE svg PUBLIC "-//W3C//DTD SVG 1.1//EN"
 "http://www.w3.org/Graphics/SVG/1.1/DTD/svg11.dtd">
<!-- Generated by graphviz version 2.43.0 (0)
 -->
<!-- Title: /home/runner/work/R&#45;Type/R&#45;Type/Shared/components/Player/PlayerEntity.hpp Pages: 1 -->
<svg width="453pt" height="214pt"
 viewBox="0.00 0.00 453.00 214.00" xmlns="http://www.w3.org/2000/svg" xmlns:xlink="http://www.w3.org/1999/xlink">
<g id="graph0" class="graph" transform="scale(1 1) rotate(0) translate(4 210)">
<title>/home/runner/work/R&#45;Type/R&#45;Type/Shared/components/Player/PlayerEntity.hpp</title>
<!-- Node1 -->
<g id="Node000001" class="node">
<title>Node1</title>
<g id="a_Node000001"><a xlink:title=" ">
<polygon fill="#999999" stroke="#666666" points="344.5,-206 149.5,-206 149.5,-165 344.5,-165 344.5,-206"/>
<text text-anchor="start" x="157.5" y="-194" font-family="Helvetica,sans-Serif" font-size="10.00">/home/runner/work/R</text>
<text text-anchor="start" x="157.5" y="-183" font-family="Helvetica,sans-Serif" font-size="10.00">&#45;Type/R&#45;Type/Shared</text>
<text text-anchor="middle" x="247" y="-172" font-family="Helvetica,sans-Serif" font-size="10.00">/components/Player/PlayerEntity.hpp</text>
</a>
</g>
</g>
<!-- Node2 -->
<g id="Node000002" class="node">
<title>Node2</title>
<g id="a_Node000002"><a xlink:title=" ">
<polygon fill="#e0e0e0" stroke="#999999" points="64,-129 0,-129 0,-110 64,-110 64,-129"/>
<text text-anchor="middle" x="32" y="-117" font-family="Helvetica,sans-Serif" font-size="10.00">algorithm</text>
</a>
</g>
</g>
<!-- Node1&#45;&gt;Node2 -->
<g id="edge1_Node000001_Node000002" class="edge">
<title>Node1&#45;&gt;Node2</title>
<g id="a_edge1_Node000001_Node000002"><a xlink:title=" ">
<path fill="none" stroke="#63b8ff" d="M181.32,-164.95C145.04,-154.15 101.23,-141.11 70.48,-131.95"/>
<polygon fill="#63b8ff" stroke="#63b8ff" points="71.16,-128.51 60.58,-129.01 69.17,-135.22 71.16,-128.51"/>
</a>
</g>
</g>
<!-- Node3 -->
<g id="Node000003" class="node">
<title>Node3</title>
<g id="a_Node000003"><a xlink:href="CollisionController_8hpp.html" target="_top" xlink:title=" ">
<polygon fill="white" stroke="#666666" points="254,-129 82,-129 82,-110 254,-110 254,-129"/>
<text text-anchor="middle" x="168" y="-117" font-family="Helvetica,sans-Serif" font-size="10.00">Collision/CollisionController.hpp</text>
</a>
</g>
</g>
<!-- Node1&#45;&gt;Node3 -->
<g id="edge2_Node000001_Node000003" class="edge">
<title>Node1&#45;&gt;Node3</title>
<g id="a_edge2_Node000001_Node000003"><a xlink:title=" ">
<path fill="none" stroke="#63b8ff" d="M222.87,-164.95C211.27,-155.55 197.57,-144.46 186.77,-135.7"/>
<polygon fill="#63b8ff" stroke="#63b8ff" points="188.79,-132.84 178.81,-129.26 184.38,-138.27 188.79,-132.84"/>
</a>
</g>
</g>
<!-- Node5 -->
<g id="Node000005" class="node">
<title>Node5</title>
<g id="a_Node000005"><a xlink:href="Weapon_8hpp.html" target="_top" xlink:title=" ">
<polygon fill="white" stroke="#666666" points="382,-129 272,-129 272,-110 382,-110 382,-129"/>
<text text-anchor="middle" x="327" y="-117" font-family="Helvetica,sans-Serif" font-size="10.00">Player/Weapon.hpp</text>
</a>
</g>
</g>
<!-- Node1&#45;&gt;Node5 -->
<g id="edge4_Node000001_Node000005" class="edge">
<title>Node1&#45;&gt;Node5</title>
<g id="a_edge4_Node000001_Node000005"><a xlink:title=" ">
<path fill="none" stroke="#63b8ff" d="M271.44,-164.95C283.18,-155.55 297.05,-144.46 308,-135.7"/>
<polygon fill="#63b8ff" stroke="#63b8ff" points="310.43,-138.24 316.05,-129.26 306.05,-132.77 310.43,-138.24"/>
</a>
</g>
</g>
<!-- Node7 -->
<g id="Node000007" class="node">
<title>Node7</title>
<g id="a_Node000007"><a xlink:title=" ">
<polygon fill="#e0e0e0" stroke="#999999" points="445,-19 317,-19 317,0 445,0 445,-19"/>
<text text-anchor="middle" x="381" y="-7" font-family="Helvetica,sans-Serif" font-size="10.00">physics/Physics2D.hpp</text>
</a>
</g>
</g>
<!-- Node1&#45;&gt;Node7 -->
<g id="edge7_Node000001_Node000007" class="edge">
<title>Node1&#45;&gt;Node7</title>
<g id="a_edge7_Node000001_Node000007"><a xlink:title=" ">
<path fill="none" stroke="#63b8ff" d="M326.87,-164.94C349.43,-156.6 372.77,-144.98 391,-129 417.69,-105.61 433.7,-88.14 421,-55 416.76,-43.94 408.36,-33.91 400.36,-26.18"/>
<polygon fill="#63b8ff" stroke="#63b8ff" points="402.42,-23.33 392.64,-19.27 397.75,-28.55 402.42,-23.33"/>
</a>
</g>
</g>
<!-- Node4 -->
<g id="Node000004" class="node">
<title>Node4</title>
<g id="a_Node000004"><a xlink:title=" ">
<polygon fill="#e0e0e0" stroke="#999999" points="210,-74 126,-74 126,-55 210,-55 210,-74"/>
<text text-anchor="middle" x="168" y="-62" font-family="Helvetica,sans-Serif" font-size="10.00">ecs/Entity.hpp</text>
</a>
</g>
</g>
<!-- Node3&#45;&gt;Node4 -->
<g id="edge3_Node000003_Node000004" class="edge">
<title>Node3&#45;&gt;Node4</title>
<g id="a_edge3_Node000003_Node000004"><a xlink:title=" ">
<path fill="none" stroke="#63b8ff" d="M168,-109.75C168,-102.8 168,-92.85 168,-84.13"/>
<polygon fill="#63b8ff" stroke="#63b8ff" points="171.5,-84.09 168,-74.09 164.5,-84.09 171.5,-84.09"/>
</a>
</g>
</g>
<!-- Node6 -->
<g id="Node000006" class="node">
<title>Node6</title>
<g id="a_Node000006"><a xlink:href="Projectile_8hpp.html" target="_top" xlink:title=" ">
<polygon fill="white" stroke="#666666" points="412,-74 232,-74 232,-55 412,-55 412,-74"/>
<text text-anchor="middle" x="322" y="-62" font-family="Helvetica,sans-Serif" font-size="10.00">components/Player/Projectile.hpp</text>
</a>
</g>
</g>
<!-- Node5&#45;&gt;Node6 -->
<g id="edge5_Node000005_Node000006" class="edge">
<title>Node5&#45;&gt;Node6</title>
<g id="a_edge5_Node000005_Node000006"><a xlink:title=" ">
<path fill="none" stroke="#63b8ff" d="M326.17,-109.75C325.52,-102.8 324.58,-92.85 323.76,-84.13"/>
<polygon fill="#63b8ff" stroke="#63b8ff" points="327.23,-83.72 322.81,-74.09 320.27,-84.37 327.23,-83.72"/>
</a>
</g>
</g>
<!-- Node6&#45;&gt;Node7 -->
<g id="edge6_Node000006_Node000007" class="edge">
<title>Node6&#45;&gt;Node7</title>
<g id="a_edge6_Node000006_Node000007"><a xlink:title=" ">
<path fill="none" stroke="#63b8ff" d="M331.48,-54.98C340.2,-47.15 353.34,-35.34 363.9,-25.86"/>
<polygon fill="#63b8ff" stroke="#63b8ff" points="366.25,-28.46 371.35,-19.17 361.57,-23.25 366.25,-28.46"/>
</a>
</g>
</g>
</g>
</svg>
