<?xml version="1.0" encoding="UTF-8" standalone="no"?>
<!DOCTYPE svg PUBLIC "-//W3C//DTD SVG 1.1//EN"
 "http://www.w3.org/Graphics/SVG/1.1/DTD/svg11.dtd">
<!-- Generated by graphviz version 2.43.0 (0)
 -->
<!-- Title: /home/runner/work/R&#45;Type/R&#45;Type/Client/src/settings/PlayerSettings.hpp Pages: 1 -->
<svg width="478pt" height="291pt"
 viewBox="0.00 0.00 478.00 291.00" xmlns="http://www.w3.org/2000/svg" xmlns:xlink="http://www.w3.org/1999/xlink">
<g id="graph0" class="graph" transform="scale(1 1) rotate(0) translate(4 287)">
<title>/home/runner/work/R&#45;Type/R&#45;Type/Client/src/settings/PlayerSettings.hpp</title>
<!-- Node1 -->
<g id="Node000001" class="node">
<title>Node1</title>
<g id="a_Node000001"><a xlink:title=" ">
<polygon fill="#999999" stroke="#666666" points="232,-283 62,-283 62,-242 232,-242 232,-283"/>
<text text-anchor="start" x="70" y="-271" font-family="Helvetica,sans-Serif" font-size="10.00">/home/runner/work/R</text>
<text text-anchor="start" x="70" y="-260" font-family="Helvetica,sans-Serif" font-size="10.00">&#45;Type/R&#45;Type/Client</text>
<text text-anchor="middle" x="147" y="-249" font-family="Helvetica,sans-Serif" font-size="10.00">/src/settings/PlayerSettings.hpp</text>
</a>
</g>
</g>
<!-- Node2 -->
<g id="Node000002" class="node">
<title>Node2</title>
<g id="a_Node000002"><a xlink:href="Options_8hpp.html" target="_top" xlink:title=" ">
<polygon fill="white" stroke="#666666" points="132,-200.5 0,-200.5 0,-159.5 132,-159.5 132,-200.5"/>
<text text-anchor="start" x="8" y="-188.5" font-family="Helvetica,sans-Serif" font-size="10.00">/home/runner/work/R</text>
<text text-anchor="start" x="8" y="-177.5" font-family="Helvetica,sans-Serif" font-size="10.00">&#45;Type/R&#45;Type/Client</text>
<text text-anchor="middle" x="66" y="-166.5" font-family="Helvetica,sans-Serif" font-size="10.00">/src/scenes/Options.hpp</text>
</a>
</g>
</g>
<!-- Node1&#45;&gt;Node2 -->
<g id="edge1_Node000001_Node000002" class="edge">
<title>Node1&#45;&gt;Node2</title>
<g id="a_edge1_Node000001_Node000002"><a xlink:title=" ">
<path fill="none" stroke="#63b8ff" d="M119.59,-234.26C108.5,-223.24 95.96,-210.77 85.79,-200.67"/>
<polygon fill="#63b8ff" stroke="#63b8ff" points="117.42,-237.03 126.98,-241.6 122.35,-232.07 117.42,-237.03"/>
</a>
</g>
</g>
<!-- Node4 -->
<g id="Node000004" class="node">
<title>Node4</title>
<g id="a_Node000004"><a xlink:href="MultiplayerSkinManager_8hpp.html" target="_top" xlink:title=" ">
<polygon fill="white" stroke="#666666" points="305.5,-206 150.5,-206 150.5,-154 305.5,-154 305.5,-206"/>
<text text-anchor="start" x="158.5" y="-194" font-family="Helvetica,sans-Serif" font-size="10.00">/home/runner/work/R</text>
<text text-anchor="start" x="158.5" y="-183" font-family="Helvetica,sans-Serif" font-size="10.00">&#45;Type/R&#45;Type/Client</text>
<text text-anchor="start" x="158.5" y="-172" font-family="Helvetica,sans-Serif" font-size="10.00">/src/settings/MultiplayerSkin</text>
<text text-anchor="middle" x="228" y="-161" font-family="Helvetica,sans-Serif" font-size="10.00">Manager.hpp</text>
</a>
</g>
</g>
<!-- Node1&#45;&gt;Node4 -->
<g id="edge3_Node000001_Node000004" class="edge">
<title>Node1&#45;&gt;Node4</title>
<g id="a_edge3_Node000001_Node000004"><a xlink:title=" ">
<path fill="none" stroke="#63b8ff" d="M174.15,-234.52C183.37,-225.36 193.62,-215.17 202.69,-206.16"/>
<polygon fill="#63b8ff" stroke="#63b8ff" points="171.65,-232.07 167.02,-241.6 176.58,-237.03 171.65,-232.07"/>
</a>
</g>
</g>
<!-- Node3 -->
<g id="Node000003" class="node">
<title>Node3</title>
<g id="a_Node000003"><a xlink:href="Options_8cpp.html" target="_top" xlink:title=" ">
<polygon fill="white" stroke="#666666" points="131.5,-118 0.5,-118 0.5,-77 131.5,-77 131.5,-118"/>
<text text-anchor="start" x="8.5" y="-106" font-family="Helvetica,sans-Serif" font-size="10.00">/home/runner/work/R</text>
<text text-anchor="start" x="8.5" y="-95" font-family="Helvetica,sans-Serif" font-size="10.00">&#45;Type/R&#45;Type/Client</text>
<text text-anchor="middle" x="66" y="-84" font-family="Helvetica,sans-Serif" font-size="10.00">/src/scenes/Options.cpp</text>
</a>
</g>
</g>
<!-- Node2&#45;&gt;Node3 -->
<g id="edge2_Node000002_Node000003" class="edge">
<title>Node2&#45;&gt;Node3</title>
<g id="a_edge2_Node000002_Node000003"><a xlink:title=" ">
<path fill="none" stroke="#63b8ff" d="M66,-148.87C66,-138.6 66,-127.4 66,-118.17"/>
<polygon fill="#63b8ff" stroke="#63b8ff" points="62.5,-149.1 66,-159.1 69.5,-149.1 62.5,-149.1"/>
</a>
</g>
</g>
<!-- Node5 -->
<g id="Node000005" class="node">
<title>Node5</title>
<g id="a_Node000005"><a xlink:href="MainGame_8hpp.html" target="_top" xlink:title=" ">
<polygon fill="white" stroke="#666666" points="300,-118 152,-118 152,-77 300,-77 300,-118"/>
<text text-anchor="start" x="160" y="-106" font-family="Helvetica,sans-Serif" font-size="10.00">/home/runner/work/R</text>
<text text-anchor="start" x="160" y="-95" font-family="Helvetica,sans-Serif" font-size="10.00">&#45;Type/R&#45;Type/Client</text>
<text text-anchor="middle" x="226" y="-84" font-family="Helvetica,sans-Serif" font-size="10.00">/src/scenes/MainGame.hpp</text>
</a>
</g>
</g>
<!-- Node4&#45;&gt;Node5 -->
<g id="edge4_Node000004_Node000005" class="edge">
<title>Node4&#45;&gt;Node5</title>
<g id="a_edge4_Node000004_Node000005"><a xlink:title=" ">
<path fill="none" stroke="#63b8ff" d="M227.13,-143.87C226.91,-135.05 226.68,-125.9 226.49,-118.15"/>
<polygon fill="#63b8ff" stroke="#63b8ff" points="223.63,-144.06 227.38,-153.97 230.63,-143.89 223.63,-144.06"/>
</a>
</g>
</g>
<!-- Node7 -->
<g id="Node000007" class="node">
<title>Node7</title>
<g id="a_Node000007"><a xlink:href="RtypeScene_8hpp.html" target="_top" xlink:title=" ">
<polygon fill="white" stroke="#666666" points="470,-118 318,-118 318,-77 470,-77 470,-118"/>
<text text-anchor="start" x="326" y="-106" font-family="Helvetica,sans-Serif" font-size="10.00">/home/runner/work/R</text>
<text text-anchor="start" x="326" y="-95" font-family="Helvetica,sans-Serif" font-size="10.00">&#45;Type/R&#45;Type/Client</text>
<text text-anchor="middle" x="394" y="-84" font-family="Helvetica,sans-Serif" font-size="10.00">/src/scenes/RtypeScene.hpp</text>
</a>
</g>
</g>
<!-- Node4&#45;&gt;Node7 -->
<g id="edge6_Node000004_Node000007" class="edge">
<title>Node4&#45;&gt;Node7</title>
<g id="a_edge6_Node000004_Node000007"><a xlink:title=" ">
<path fill="none" stroke="#63b8ff" d="M288.74,-149.54C310.4,-139.04 334.25,-127.48 353.75,-118.02"/>
<polygon fill="#63b8ff" stroke="#63b8ff" points="287.08,-146.46 279.61,-153.97 290.14,-152.76 287.08,-146.46"/>
</a>
</g>
</g>
<!-- Node6 -->
<g id="Node000006" class="node">
<title>Node6</title>
<g id="a_Node000006"><a xlink:href="MainGame_8cpp.html" target="_top" xlink:title=" ">
<polygon fill="white" stroke="#666666" points="299.5,-41 152.5,-41 152.5,0 299.5,0 299.5,-41"/>
<text text-anchor="start" x="160.5" y="-29" font-family="Helvetica,sans-Serif" font-size="10.00">/home/runner/work/R</text>
<text text-anchor="start" x="160.5" y="-18" font-family="Helvetica,sans-Serif" font-size="10.00">&#45;Type/R&#45;Type/Client</text>
<text text-anchor="middle" x="226" y="-7" font-family="Helvetica,sans-Serif" font-size="10.00">/src/scenes/MainGame.cpp</text>
</a>
</g>
</g>
<!-- Node5&#45;&gt;Node6 -->
<g id="edge5_Node000005_Node000006" class="edge">
<title>Node5&#45;&gt;Node6</title>
<g id="a_edge5_Node000005_Node000006"><a xlink:title=" ">
<path fill="none" stroke="#63b8ff" d="M226,-66.69C226,-58.08 226,-48.9 226,-41.07"/>
<polygon fill="#63b8ff" stroke="#63b8ff" points="222.5,-66.79 226,-76.79 229.5,-66.79 222.5,-66.79"/>
</a>
</g>
</g>
<!-- Node8 -->
<g id="Node000008" class="node">
<title>Node8</title>
<g id="a_Node000008"><a xlink:href="RtypeScene_8cpp.html" target="_top" xlink:title=" ">
<polygon fill="white" stroke="#666666" points="470,-41 318,-41 318,0 470,0 470,-41"/>
<text text-anchor="start" x="326" y="-29" font-family="Helvetica,sans-Serif" font-size="10.00">/home/runner/work/R</text>
<text text-anchor="start" x="326" y="-18" font-family="Helvetica,sans-Serif" font-size="10.00">&#45;Type/R&#45;Type/Client</text>
<text text-anchor="middle" x="394" y="-7" font-family="Helvetica,sans-Serif" font-size="10.00">/src/scenes/RtypeScene.cpp</text>
</a>
</g>
</g>
<!-- Node7&#45;&gt;Node8 -->
<g id="edge7_Node000007_Node000008" class="edge">
<title>Node7&#45;&gt;Node8</title>
<g id="a_edge7_Node000007_Node000008"><a xlink:title=" ">
<path fill="none" stroke="#63b8ff" d="M394,-66.69C394,-58.08 394,-48.9 394,-41.07"/>
<polygon fill="#63b8ff" stroke="#63b8ff" points="390.5,-66.79 394,-76.79 397.5,-66.79 390.5,-66.79"/>
</a>
</g>
</g>
</g>
</svg>
