<?xml version="1.0" encoding="UTF-8" standalone="no"?>
<!DOCTYPE svg PUBLIC "-//W3C//DTD SVG 1.1//EN"
 "http://www.w3.org/Graphics/SVG/1.1/DTD/svg11.dtd">
<!-- Generated by graphviz version 2.43.0 (0)
 -->
<!-- Title: /home/runner/work/R&#45;Type/R&#45;Type/Shared/components/Player/PlayerEntity.hpp Pages: 1 -->
<svg width="2024pt" height="357pt"
 viewBox="0.00 0.00 2023.50 357.00" xmlns="http://www.w3.org/2000/svg" xmlns:xlink="http://www.w3.org/1999/xlink">
<g id="graph0" class="graph" transform="scale(1 1) rotate(0) translate(4 353)">
<title>/home/runner/work/R&#45;Type/R&#45;Type/Shared/components/Player/PlayerEntity.hpp</title>
<!-- Node1 -->
<g id="Node000001" class="node">
<title>Node1</title>
<g id="a_Node000001"><a xlink:title=" ">
<polygon fill="#999999" stroke="#666666" points="1159.5,-349 964.5,-349 964.5,-308 1159.5,-308 1159.5,-349"/>
<text text-anchor="start" x="972.5" y="-337" font-family="Helvetica,sans-Serif" font-size="10.00">/home/runner/work/R</text>
<text text-anchor="start" x="972.5" y="-326" font-family="Helvetica,sans-Serif" font-size="10.00">&#45;Type/R&#45;Type/Shared</text>
<text text-anchor="middle" x="1062" y="-315" font-family="Helvetica,sans-Serif" font-size="10.00">/components/Player/PlayerEntity.hpp</text>
</a>
</g>
</g>
<!-- Node2 -->
<g id="Node000002" class="node">
<title>Node2</title>
<g id="a_Node000002"><a xlink:href="InputSystem_8cpp.html" target="_top" xlink:title=" ">
<polygon fill="white" stroke="#666666" points="584,-195 396,-195 396,-154 584,-154 584,-195"/>
<text text-anchor="start" x="404" y="-183" font-family="Helvetica,sans-Serif" font-size="10.00">/home/runner/work/R</text>
<text text-anchor="start" x="404" y="-172" font-family="Helvetica,sans-Serif" font-size="10.00">&#45;Type/R&#45;Type/Client</text>
<text text-anchor="middle" x="490" y="-161" font-family="Helvetica,sans-Serif" font-size="10.00">/src/engine/inputs/InputSystem.cpp</text>
</a>
</g>
</g>
<!-- Node1&#45;&gt;Node2 -->
<g id="edge1_Node000001_Node000002" class="edge">
<title>Node1&#45;&gt;Node2</title>
<g id="a_edge1_Node000001_Node000002"><a xlink:title=" ">
<path fill="none" stroke="#63b8ff" d="M954.39,-322.02C837.89,-314.78 660.49,-299.61 599,-272 560.03,-254.51 525.01,-218.05 505.71,-195.3"/>
<polygon fill="#63b8ff" stroke="#63b8ff" points="954.22,-325.51 964.41,-322.63 954.65,-318.53 954.22,-325.51"/>
</a>
</g>
</g>
<!-- Node3 -->
<g id="Node000003" class="node">
<title>Node3</title>
<g id="a_Node000003"><a xlink:href="InputSystem_8hpp.html" target="_top" xlink:title=" ">
<polygon fill="white" stroke="#666666" points="796,-272 608,-272 608,-231 796,-231 796,-272"/>
<text text-anchor="start" x="616" y="-260" font-family="Helvetica,sans-Serif" font-size="10.00">/home/runner/work/R</text>
<text text-anchor="start" x="616" y="-249" font-family="Helvetica,sans-Serif" font-size="10.00">&#45;Type/R&#45;Type/Client</text>
<text text-anchor="middle" x="702" y="-238" font-family="Helvetica,sans-Serif" font-size="10.00">/src/engine/inputs/InputSystem.hpp</text>
</a>
</g>
</g>
<!-- Node1&#45;&gt;Node3 -->
<g id="edge2_Node000001_Node000003" class="edge">
<title>Node1&#45;&gt;Node3</title>
<g id="a_edge2_Node000001_Node000003"><a xlink:title=" ">
<path fill="none" stroke="#63b8ff" d="M958.25,-305.88C907,-295.21 845.63,-282.42 795.8,-272.04"/>
<polygon fill="#63b8ff" stroke="#63b8ff" points="957.85,-309.38 968.35,-307.99 959.28,-302.52 957.85,-309.38"/>
</a>
</g>
</g>
<!-- Node12 -->
<g id="Node000012" class="node">
<title>Node12</title>
<g id="a_Node000012"><a xlink:href="MainGame_8hpp.html" target="_top" xlink:title=" ">
<polygon fill="white" stroke="#666666" points="924,-195 776,-195 776,-154 924,-154 924,-195"/>
<text text-anchor="start" x="784" y="-183" font-family="Helvetica,sans-Serif" font-size="10.00">/home/runner/work/R</text>
<text text-anchor="start" x="784" y="-172" font-family="Helvetica,sans-Serif" font-size="10.00">&#45;Type/R&#45;Type/Client</text>
<text text-anchor="middle" x="850" y="-161" font-family="Helvetica,sans-Serif" font-size="10.00">/src/scenes/MainGame.hpp</text>
</a>
</g>
</g>
<!-- Node1&#45;&gt;Node12 -->
<g id="edge18_Node000001_Node000012" class="edge">
<title>Node1&#45;&gt;Node12</title>
<g id="a_edge18_Node000001_Node000012"><a xlink:title=" ">
<path fill="none" stroke="#63b8ff" d="M954.37,-318.76C922.13,-310.92 889.43,-296.87 867,-272 848.09,-251.03 846.55,-216.68 847.81,-195.12"/>
<polygon fill="#63b8ff" stroke="#63b8ff" points="953.82,-322.22 964.34,-320.99 955.35,-315.39 953.82,-322.22"/>
</a>
</g>
</g>
<!-- Node13 -->
<g id="Node000013" class="node">
<title>Node13</title>
<g id="a_Node000013"><a xlink:href="BoundsSystem_8cpp.html" target="_top" xlink:title=" ">
<polygon fill="white" stroke="#666666" points="1033.5,-272 876.5,-272 876.5,-231 1033.5,-231 1033.5,-272"/>
<text text-anchor="start" x="884.5" y="-260" font-family="Helvetica,sans-Serif" font-size="10.00">/home/runner/work/R</text>
<text text-anchor="start" x="884.5" y="-249" font-family="Helvetica,sans-Serif" font-size="10.00">&#45;Type/R&#45;Type/Shared</text>
<text text-anchor="middle" x="955" y="-238" font-family="Helvetica,sans-Serif" font-size="10.00">/systems/BoundsSystem.cpp</text>
</a>
</g>
</g>
<!-- Node1&#45;&gt;Node13 -->
<g id="edge19_Node000001_Node000013" class="edge">
<title>Node1&#45;&gt;Node13</title>
<g id="a_edge19_Node000001_Node000013"><a xlink:title=" ">
<path fill="none" stroke="#63b8ff" d="M1025.75,-302.09C1011.81,-292.32 996.12,-281.32 983.07,-272.17"/>
<polygon fill="#63b8ff" stroke="#63b8ff" points="1023.97,-305.12 1034.17,-307.99 1027.99,-299.38 1023.97,-305.12"/>
</a>
</g>
</g>
<!-- Node14 -->
<g id="Node000014" class="node">
<title>Node14</title>
<g id="a_Node000014"><a xlink:href="Collision_8cpp.html" target="_top" xlink:title=" ">
<polygon fill="white" stroke="#666666" points="1113.5,-195 942.5,-195 942.5,-154 1113.5,-154 1113.5,-195"/>
<text text-anchor="start" x="950.5" y="-183" font-family="Helvetica,sans-Serif" font-size="10.00">/home/runner/work/R</text>
<text text-anchor="start" x="950.5" y="-172" font-family="Helvetica,sans-Serif" font-size="10.00">&#45;Type/R&#45;Type/Shared</text>
<text text-anchor="middle" x="1028" y="-161" font-family="Helvetica,sans-Serif" font-size="10.00">/systems/Collision/Collision.cpp</text>
</a>
</g>
</g>
<!-- Node1&#45;&gt;Node14 -->
<g id="edge20_Node000001_Node000014" class="edge">
<title>Node1&#45;&gt;Node14</title>
<g id="a_edge20_Node000001_Node000014"><a xlink:title=" ">
<path fill="none" stroke="#63b8ff" d="M1056.21,-297.93C1052.38,-278.8 1047.14,-253.37 1042,-231 1039.26,-219.09 1035.93,-205.81 1033.19,-195.23"/>
<polygon fill="#63b8ff" stroke="#63b8ff" points="1052.8,-298.73 1058.18,-307.86 1059.67,-297.37 1052.8,-298.73"/>
</a>
</g>
</g>
<!-- Node15 -->
<g id="Node000015" class="node">
<title>Node15</title>
<g id="a_Node000015"><a xlink:href="Collision_8hpp.html" target="_top" xlink:title=" ">
<polygon fill="white" stroke="#666666" points="1262,-272 1090,-272 1090,-231 1262,-231 1262,-272"/>
<text text-anchor="start" x="1098" y="-260" font-family="Helvetica,sans-Serif" font-size="10.00">/home/runner/work/R</text>
<text text-anchor="start" x="1098" y="-249" font-family="Helvetica,sans-Serif" font-size="10.00">&#45;Type/R&#45;Type/Shared</text>
<text text-anchor="middle" x="1176" y="-238" font-family="Helvetica,sans-Serif" font-size="10.00">/systems/Collision/Collision.hpp</text>
</a>
</g>
</g>
<!-- Node1&#45;&gt;Node15 -->
<g id="edge21_Node000001_Node000015" class="edge">
<title>Node1&#45;&gt;Node15</title>
<g id="a_edge21_Node000001_Node000015"><a xlink:title=" ">
<path fill="none" stroke="#63b8ff" d="M1100.2,-302.37C1115.16,-292.53 1132.06,-281.41 1146.1,-272.17"/>
<polygon fill="#63b8ff" stroke="#63b8ff" points="1098.09,-299.57 1091.65,-307.99 1101.93,-305.42 1098.09,-299.57"/>
</a>
</g>
</g>
<!-- Node18 -->
<g id="Node000018" class="node">
<title>Node18</title>
<g id="a_Node000018"><a xlink:href="EntityHelper_8hpp.html" target="_top" xlink:title=" ">
<polygon fill="white" stroke="#666666" points="1714.5,-272 1529.5,-272 1529.5,-231 1714.5,-231 1714.5,-272"/>
<text text-anchor="start" x="1537.5" y="-260" font-family="Helvetica,sans-Serif" font-size="10.00">/home/runner/work/R</text>
<text text-anchor="start" x="1537.5" y="-249" font-family="Helvetica,sans-Serif" font-size="10.00">&#45;Type/R&#45;Type/Shared</text>
<text text-anchor="middle" x="1622" y="-238" font-family="Helvetica,sans-Serif" font-size="10.00">/systems/Helpers/EntityHelper.hpp</text>
</a>
</g>
</g>
<!-- Node1&#45;&gt;Node18 -->
<g id="edge25_Node000001_Node000018" class="edge">
<title>Node1&#45;&gt;Node18</title>
<g id="a_edge25_Node000001_Node000018"><a xlink:title=" ">
<path fill="none" stroke="#63b8ff" d="M1169.83,-316.17C1261.97,-306.05 1397.97,-290.05 1516,-272 1520.35,-271.34 1524.79,-270.63 1529.27,-269.89"/>
<polygon fill="#63b8ff" stroke="#63b8ff" points="1169.21,-312.72 1159.65,-317.28 1169.97,-319.68 1169.21,-312.72"/>
</a>
</g>
</g>
<!-- Node19 -->
<g id="Node000019" class="node">
<title>Node19</title>
<g id="a_Node000019"><a xlink:href="Movement_8cpp.html" target="_top" xlink:title=" ">
<polygon fill="white" stroke="#666666" points="1646,-195 1454,-195 1454,-154 1646,-154 1646,-195"/>
<text text-anchor="start" x="1462" y="-183" font-family="Helvetica,sans-Serif" font-size="10.00">/home/runner/work/R</text>
<text text-anchor="start" x="1462" y="-172" font-family="Helvetica,sans-Serif" font-size="10.00">&#45;Type/R&#45;Type/Shared</text>
<text text-anchor="middle" x="1550" y="-161" font-family="Helvetica,sans-Serif" font-size="10.00">/systems/Movement/Movement.cpp</text>
</a>
</g>
</g>
<!-- Node1&#45;&gt;Node19 -->
<g id="edge30_Node000001_Node000019" class="edge">
<title>Node1&#45;&gt;Node19</title>
<g id="a_edge30_Node000001_Node000019"><a xlink:title=" ">
<path fill="none" stroke="#63b8ff" d="M1169.93,-323.12C1276.92,-317.06 1432.01,-303.09 1483,-272 1498.32,-262.66 1524.25,-220.55 1538.95,-195.14"/>
<polygon fill="#63b8ff" stroke="#63b8ff" points="1169.53,-319.64 1159.73,-323.68 1169.91,-326.63 1169.53,-319.64"/>
</a>
</g>
</g>
<!-- Node22 -->
<g id="Node000022" class="node">
<title>Node22</title>
<g id="a_Node000022"><a xlink:href="Movement_8hpp.html" target="_top" xlink:title=" ">
<polygon fill="white" stroke="#666666" points="1473.5,-272 1280.5,-272 1280.5,-231 1473.5,-231 1473.5,-272"/>
<text text-anchor="start" x="1288.5" y="-260" font-family="Helvetica,sans-Serif" font-size="10.00">/home/runner/work/R</text>
<text text-anchor="start" x="1288.5" y="-249" font-family="Helvetica,sans-Serif" font-size="10.00">&#45;Type/R&#45;Type/Shared</text>
<text text-anchor="middle" x="1377" y="-238" font-family="Helvetica,sans-Serif" font-size="10.00">/systems/Movement/Movement.hpp</text>
</a>
</g>
</g>
<!-- Node1&#45;&gt;Node22 -->
<g id="edge31_Node000001_Node000022" class="edge">
<title>Node1&#45;&gt;Node22</title>
<g id="a_edge31_Node000001_Node000022"><a xlink:title=" ">
<path fill="none" stroke="#63b8ff" d="M1153.91,-305.62C1198.52,-294.99 1251.69,-282.34 1294.92,-272.04"/>
<polygon fill="#63b8ff" stroke="#63b8ff" points="1152.86,-302.27 1143.94,-307.99 1154.48,-309.08 1152.86,-302.27"/>
</a>
</g>
</g>
<!-- Node3&#45;&gt;Node2 -->
<g id="edge15_Node000003_Node000002" class="edge">
<title>Node3&#45;&gt;Node2</title>
<g id="a_edge15_Node000003_Node000002"><a xlink:title=" ">
<path fill="none" stroke="#63b8ff" d="M637.1,-227.54C607.72,-217.15 573.36,-204.99 545.24,-195.04"/>
<polygon fill="#63b8ff" stroke="#63b8ff" points="636.26,-230.95 646.85,-230.99 638.59,-224.36 636.26,-230.95"/>
</a>
</g>
</g>
<!-- Node4 -->
<g id="Node000004" class="node">
<title>Node4</title>
<g id="a_Node000004"><a xlink:href="GameEngine_8hpp.html" target="_top" xlink:title=" ">
<polygon fill="white" stroke="#666666" points="758,-195 602,-195 602,-154 758,-154 758,-195"/>
<text text-anchor="start" x="610" y="-183" font-family="Helvetica,sans-Serif" font-size="10.00">/home/runner/work/R</text>
<text text-anchor="start" x="610" y="-172" font-family="Helvetica,sans-Serif" font-size="10.00">&#45;Type/R&#45;Type/Client</text>
<text text-anchor="middle" x="680" y="-161" font-family="Helvetica,sans-Serif" font-size="10.00">/src/engine/GameEngine.hpp</text>
</a>
</g>
</g>
<!-- Node3&#45;&gt;Node4 -->
<g id="edge3_Node000003_Node000004" class="edge">
<title>Node3&#45;&gt;Node4</title>
<g id="a_edge3_Node000003_Node000004"><a xlink:title=" ">
<path fill="none" stroke="#63b8ff" d="M693.34,-220.98C690.79,-212.28 688.06,-202.98 685.74,-195.07"/>
<polygon fill="#63b8ff" stroke="#63b8ff" points="690.05,-222.18 696.22,-230.79 696.76,-220.21 690.05,-222.18"/>
</a>
</g>
</g>
<!-- Node3&#45;&gt;Node12 -->
<g id="edge16_Node000003_Node000012" class="edge">
<title>Node3&#45;&gt;Node12</title>
<g id="a_edge16_Node000003_Node000012"><a xlink:title=" ">
<path fill="none" stroke="#63b8ff" d="M749.46,-226.45C769.48,-216.3 792.49,-204.64 811.44,-195.04"/>
<polygon fill="#63b8ff" stroke="#63b8ff" points="747.84,-223.35 740.5,-230.99 751,-229.59 747.84,-223.35"/>
</a>
</g>
</g>
<!-- Node5 -->
<g id="Node000005" class="node">
<title>Node5</title>
<g id="a_Node000005"><a xlink:href="Main_8cpp.html" target="_top" xlink:title=" ">
<polygon fill="white" stroke="#666666" points="883.5,-41 764.5,-41 764.5,0 883.5,0 883.5,-41"/>
<text text-anchor="start" x="772.5" y="-29" font-family="Helvetica,sans-Serif" font-size="10.00">/home/runner/work/R</text>
<text text-anchor="start" x="772.5" y="-18" font-family="Helvetica,sans-Serif" font-size="10.00">&#45;Type/R&#45;Type/Client</text>
<text text-anchor="middle" x="824" y="-7" font-family="Helvetica,sans-Serif" font-size="10.00">/src/Main.cpp</text>
</a>
</g>
</g>
<!-- Node4&#45;&gt;Node5 -->
<g id="edge4_Node000004_Node000005" class="edge">
<title>Node4&#45;&gt;Node5</title>
<g id="a_edge4_Node000004_Node000005"><a xlink:title=" ">
<path fill="none" stroke="#63b8ff" d="M765.25,-151.29C806.78,-139.61 849.08,-126.08 855,-118 871.94,-94.85 854.74,-62.06 840.01,-41.29"/>
<polygon fill="#63b8ff" stroke="#63b8ff" points="764.28,-147.92 755.58,-153.98 766.15,-154.67 764.28,-147.92"/>
</a>
</g>
</g>
<!-- Node6 -->
<g id="Node000006" class="node">
<title>Node6</title>
<g id="a_Node000006"><a xlink:href="GameEngine_8cpp.html" target="_top" xlink:title=" ">
<polygon fill="white" stroke="#666666" points="469.5,-118 314.5,-118 314.5,-77 469.5,-77 469.5,-118"/>
<text text-anchor="start" x="322.5" y="-106" font-family="Helvetica,sans-Serif" font-size="10.00">/home/runner/work/R</text>
<text text-anchor="start" x="322.5" y="-95" font-family="Helvetica,sans-Serif" font-size="10.00">&#45;Type/R&#45;Type/Client</text>
<text text-anchor="middle" x="392" y="-84" font-family="Helvetica,sans-Serif" font-size="10.00">/src/engine/GameEngine.cpp</text>
</a>
</g>
</g>
<!-- Node4&#45;&gt;Node6 -->
<g id="edge5_Node000004_Node000006" class="edge">
<title>Node4&#45;&gt;Node6</title>
<g id="a_edge5_Node000004_Node000006"><a xlink:title=" ">
<path fill="none" stroke="#63b8ff" d="M595.2,-151.42C554.57,-140.84 506.32,-128.27 467.04,-118.04"/>
<polygon fill="#63b8ff" stroke="#63b8ff" points="594.52,-154.86 605.08,-153.99 596.29,-148.08 594.52,-154.86"/>
</a>
</g>
</g>
<!-- Node7 -->
<g id="Node000007" class="node">
<title>Node7</title>
<g id="a_Node000007"><a xlink:href="SceneManager_8cpp.html" target="_top" xlink:title=" ">
<polygon fill="white" stroke="#666666" points="684,-118 488,-118 488,-77 684,-77 684,-118"/>
<text text-anchor="start" x="496" y="-106" font-family="Helvetica,sans-Serif" font-size="10.00">/home/runner/work/R</text>
<text text-anchor="start" x="496" y="-95" font-family="Helvetica,sans-Serif" font-size="10.00">&#45;Type/R&#45;Type/Client</text>
<text text-anchor="middle" x="586" y="-84" font-family="Helvetica,sans-Serif" font-size="10.00">/src/engine/scene/SceneManager.cpp</text>
</a>
</g>
</g>
<!-- Node4&#45;&gt;Node7 -->
<g id="edge6_Node000004_Node000007" class="edge">
<title>Node4&#45;&gt;Node7</title>
<g id="a_edge6_Node000004_Node000007"><a xlink:title=" ">
<path fill="none" stroke="#63b8ff" d="M647.22,-147.35C635.17,-137.73 621.74,-127.01 610.53,-118.07"/>
<polygon fill="#63b8ff" stroke="#63b8ff" points="645.3,-150.29 655.3,-153.79 649.67,-144.82 645.3,-150.29"/>
</a>
</g>
</g>
<!-- Node8 -->
<g id="Node000008" class="node">
<title>Node8</title>
<g id="a_Node000008"><a xlink:href="JoinGame_8hpp.html" target="_top" xlink:title=" ">
<polygon fill="white" stroke="#666666" points="1044,-118 902,-118 902,-77 1044,-77 1044,-118"/>
<text text-anchor="start" x="910" y="-106" font-family="Helvetica,sans-Serif" font-size="10.00">/home/runner/work/R</text>
<text text-anchor="start" x="910" y="-95" font-family="Helvetica,sans-Serif" font-size="10.00">&#45;Type/R&#45;Type/Client</text>
<text text-anchor="middle" x="973" y="-84" font-family="Helvetica,sans-Serif" font-size="10.00">/src/scenes/JoinGame.hpp</text>
</a>
</g>
</g>
<!-- Node4&#45;&gt;Node8 -->
<g id="edge7_Node000004_Node000008" class="edge">
<title>Node4&#45;&gt;Node8</title>
<g id="a_edge7_Node000004_Node000008"><a xlink:title=" ">
<path fill="none" stroke="#63b8ff" d="M766.13,-151.45C809.25,-140.42 860.83,-127.21 901.69,-116.75"/>
<polygon fill="#63b8ff" stroke="#63b8ff" points="765.04,-148.12 756.22,-153.99 766.77,-154.9 765.04,-148.12"/>
</a>
</g>
</g>
<!-- Node9 -->
<g id="Node000009" class="node">
<title>Node9</title>
<g id="a_Node000009"><a xlink:href="MainMenu_8hpp.html" target="_top" xlink:title=" ">
<polygon fill="white" stroke="#666666" points="146,-118 0,-118 0,-77 146,-77 146,-118"/>
<text text-anchor="start" x="8" y="-106" font-family="Helvetica,sans-Serif" font-size="10.00">/home/runner/work/R</text>
<text text-anchor="start" x="8" y="-95" font-family="Helvetica,sans-Serif" font-size="10.00">&#45;Type/R&#45;Type/Client</text>
<text text-anchor="middle" x="73" y="-84" font-family="Helvetica,sans-Serif" font-size="10.00">/src/scenes/MainMenu.hpp</text>
</a>
</g>
</g>
<!-- Node4&#45;&gt;Node9 -->
<g id="edge9_Node000004_Node000009" class="edge">
<title>Node4&#45;&gt;Node9</title>
<g id="a_edge9_Node000004_Node000009"><a xlink:title=" ">
<path fill="none" stroke="#63b8ff" d="M591.91,-153.95C398.14,-125.36 344.7,-148.17 155,-118 152.11,-117.54 149.17,-117.03 146.21,-116.49"/>
<polygon fill="#63b8ff" stroke="#63b8ff" points="591.43,-157.42 601.84,-155.45 592.47,-150.5 591.43,-157.42"/>
</a>
</g>
</g>
<!-- Node10 -->
<g id="Node000010" class="node">
<title>Node10</title>
<g id="a_Node000010"><a xlink:href="Options_8hpp.html" target="_top" xlink:title=" ">
<polygon fill="white" stroke="#666666" points="296,-118 164,-118 164,-77 296,-77 296,-118"/>
<text text-anchor="start" x="172" y="-106" font-family="Helvetica,sans-Serif" font-size="10.00">/home/runner/work/R</text>
<text text-anchor="start" x="172" y="-95" font-family="Helvetica,sans-Serif" font-size="10.00">&#45;Type/R&#45;Type/Client</text>
<text text-anchor="middle" x="230" y="-84" font-family="Helvetica,sans-Serif" font-size="10.00">/src/scenes/Options.hpp</text>
</a>
</g>
</g>
<!-- Node4&#45;&gt;Node10 -->
<g id="edge11_Node000004_Node000010" class="edge">
<title>Node4&#45;&gt;Node10</title>
<g id="a_edge11_Node000004_Node000010"><a xlink:title=" ">
<path fill="none" stroke="#63b8ff" d="M591.66,-153.86C464.12,-132.37 428.47,-141.66 305,-118 302.09,-117.44 299.13,-116.84 296.15,-116.2"/>
<polygon fill="#63b8ff" stroke="#63b8ff" points="591.37,-157.36 601.82,-155.6 592.55,-150.46 591.37,-157.36"/>
</a>
</g>
</g>
<!-- Node11 -->
<g id="Node000011" class="node">
<title>Node11</title>
<g id="a_Node000011"><a xlink:href="WaitLobby_8hpp.html" target="_top" xlink:title=" ">
<polygon fill="white" stroke="#666666" points="846,-118 702,-118 702,-77 846,-77 846,-118"/>
<text text-anchor="start" x="710" y="-106" font-family="Helvetica,sans-Serif" font-size="10.00">/home/runner/work/R</text>
<text text-anchor="start" x="710" y="-95" font-family="Helvetica,sans-Serif" font-size="10.00">&#45;Type/R&#45;Type/Client</text>
<text text-anchor="middle" x="774" y="-84" font-family="Helvetica,sans-Serif" font-size="10.00">/src/scenes/WaitLobby.hpp</text>
</a>
</g>
</g>
<!-- Node4&#45;&gt;Node11 -->
<g id="edge13_Node000004_Node000011" class="edge">
<title>Node4&#45;&gt;Node11</title>
<g id="a_edge13_Node000004_Node000011"><a xlink:title=" ">
<path fill="none" stroke="#63b8ff" d="M712.78,-147.35C724.83,-137.73 738.26,-127.01 749.47,-118.07"/>
<polygon fill="#63b8ff" stroke="#63b8ff" points="710.33,-144.82 704.7,-153.79 714.7,-150.29 710.33,-144.82"/>
</a>
</g>
</g>
<!-- Node8&#45;&gt;Node5 -->
<g id="edge8_Node000008_Node000005" class="edge">
<title>Node8&#45;&gt;Node5</title>
<g id="a_edge8_Node000008_Node000005"><a xlink:title=" ">
<path fill="none" stroke="#63b8ff" d="M925.22,-72.45C905.06,-62.3 881.9,-50.64 862.82,-41.04"/>
<polygon fill="#63b8ff" stroke="#63b8ff" points="923.74,-75.62 934.24,-76.99 926.88,-69.37 923.74,-75.62"/>
</a>
</g>
</g>
<!-- Node9&#45;&gt;Node5 -->
<g id="edge10_Node000009_Node000005" class="edge">
<title>Node9&#45;&gt;Node5</title>
<g id="a_edge10_Node000009_Node000005"><a xlink:title=" ">
<path fill="none" stroke="#63b8ff" d="M156.42,-76.9C385.83,-41.05 648.37,-27.85 764.12,-23.44"/>
<polygon fill="#63b8ff" stroke="#63b8ff" points="155.54,-73.49 146.21,-78.51 156.63,-80.41 155.54,-73.49"/>
</a>
</g>
</g>
<!-- Node10&#45;&gt;Node5 -->
<g id="edge12_Node000010_Node000005" class="edge">
<title>Node10&#45;&gt;Node5</title>
<g id="a_edge12_Node000010_Node000005"><a xlink:title=" ">
<path fill="none" stroke="#63b8ff" d="M306.09,-76.94C477.41,-46.32 669.36,-31.21 764.44,-25"/>
<polygon fill="#63b8ff" stroke="#63b8ff" points="305.35,-73.51 296.14,-78.74 306.6,-80.4 305.35,-73.51"/>
</a>
</g>
</g>
<!-- Node11&#45;&gt;Node5 -->
<g id="edge14_Node000011_Node000005" class="edge">
<title>Node11&#45;&gt;Node5</title>
<g id="a_edge14_Node000011_Node000005"><a xlink:title=" ">
<path fill="none" stroke="#63b8ff" d="M792.74,-68.39C798.8,-59.3 805.39,-49.41 810.95,-41.07"/>
<polygon fill="#63b8ff" stroke="#63b8ff" points="789.77,-66.53 787.14,-76.79 795.6,-70.42 789.77,-66.53"/>
</a>
</g>
</g>
<!-- Node12&#45;&gt;Node5 -->
<g id="edge17_Node000012_Node000005" class="edge">
<title>Node12&#45;&gt;Node5</title>
<g id="a_edge17_Node000012_Node000005"><a xlink:title=" ">
<path fill="none" stroke="#63b8ff" d="M934.02,-152.99C988.13,-139.38 1049.1,-123.11 1053,-118 1064.06,-103.52 1064.27,-91.32 1053,-77 1032.29,-50.67 944.38,-35.32 883.71,-27.67"/>
<polygon fill="#63b8ff" stroke="#63b8ff" points="932.87,-149.67 924.02,-155.49 934.57,-156.46 932.87,-149.67"/>
</a>
</g>
</g>
<!-- Node15&#45;&gt;Node14 -->
<g id="edge23_Node000015_Node000014" class="edge">
<title>Node15&#45;&gt;Node14</title>
<g id="a_edge23_Node000015_Node000014"><a xlink:title=" ">
<path fill="none" stroke="#63b8ff" d="M1128.54,-226.45C1108.52,-216.3 1085.51,-204.64 1066.56,-195.04"/>
<polygon fill="#63b8ff" stroke="#63b8ff" points="1127,-229.59 1137.5,-230.99 1130.16,-223.35 1127,-229.59"/>
</a>
</g>
</g>
<!-- Node16 -->
<g id="Node000016" class="node">
<title>Node16</title>
<g id="a_Node000016"><a xlink:href="ServerGame_8cpp.html" target="_top" xlink:title=" ">
<polygon fill="white" stroke="#666666" points="1435.5,-195 1316.5,-195 1316.5,-154 1435.5,-154 1435.5,-195"/>
<text text-anchor="start" x="1324.5" y="-183" font-family="Helvetica,sans-Serif" font-size="10.00">/home/runner/work/R</text>
<text text-anchor="start" x="1324.5" y="-172" font-family="Helvetica,sans-Serif" font-size="10.00">&#45;Type/R&#45;Type/Server</text>
<text text-anchor="middle" x="1376" y="-161" font-family="Helvetica,sans-Serif" font-size="10.00">/src/ServerGame.cpp</text>
</a>
</g>
</g>
<!-- Node15&#45;&gt;Node16 -->
<g id="edge22_Node000015_Node000016" class="edge">
<title>Node15&#45;&gt;Node16</title>
<g id="a_edge22_Node000015_Node000016"><a xlink:title=" ">
<path fill="none" stroke="#63b8ff" d="M1237.59,-227.4C1265.23,-217.04 1297.47,-204.95 1323.89,-195.04"/>
<polygon fill="#63b8ff" stroke="#63b8ff" points="1236.16,-224.2 1228.03,-230.99 1238.62,-230.76 1236.16,-224.2"/>
</a>
</g>
</g>
<!-- Node17 -->
<g id="Node000017" class="node">
<title>Node17</title>
<g id="a_Node000017"><a xlink:href="ProjectileSystem_8cpp.html" target="_top" xlink:title=" ">
<polygon fill="white" stroke="#666666" points="1298.5,-195 1131.5,-195 1131.5,-154 1298.5,-154 1298.5,-195"/>
<text text-anchor="start" x="1139.5" y="-183" font-family="Helvetica,sans-Serif" font-size="10.00">/home/runner/work/R</text>
<text text-anchor="start" x="1139.5" y="-172" font-family="Helvetica,sans-Serif" font-size="10.00">&#45;Type/R&#45;Type/Shared</text>
<text text-anchor="middle" x="1215" y="-161" font-family="Helvetica,sans-Serif" font-size="10.00">/systems/ProjectileSystem.cpp</text>
</a>
</g>
</g>
<!-- Node15&#45;&gt;Node17 -->
<g id="edge24_Node000015_Node000017" class="edge">
<title>Node15&#45;&gt;Node17</title>
<g id="a_edge24_Node000015_Node000017"><a xlink:title=" ">
<path fill="none" stroke="#63b8ff" d="M1190.91,-221.83C1195.56,-212.89 1200.58,-203.24 1204.82,-195.07"/>
<polygon fill="#63b8ff" stroke="#63b8ff" points="1187.76,-220.31 1186.25,-230.79 1193.97,-223.54 1187.76,-220.31"/>
</a>
</g>
</g>
<!-- Node18&#45;&gt;Node16 -->
<g id="edge26_Node000018_Node000016" class="edge">
<title>Node18&#45;&gt;Node16</title>
<g id="a_edge26_Node000018_Node000016"><a xlink:title=" ">
<path fill="none" stroke="#63b8ff" d="M1548.08,-227.96C1512.21,-217.03 1469.67,-204.06 1435.87,-193.75"/>
<polygon fill="#63b8ff" stroke="#63b8ff" points="1547.42,-231.42 1558.01,-230.99 1549.46,-224.73 1547.42,-231.42"/>
</a>
</g>
</g>
<!-- Node18&#45;&gt;Node19 -->
<g id="edge27_Node000018_Node000019" class="edge">
<title>Node18&#45;&gt;Node19</title>
<g id="a_edge27_Node000018_Node000019"><a xlink:title=" ">
<path fill="none" stroke="#63b8ff" d="M1596.09,-223.51C1587.07,-214.11 1577.13,-203.76 1568.79,-195.07"/>
<polygon fill="#63b8ff" stroke="#63b8ff" points="1593.63,-226 1603.08,-230.79 1598.68,-221.16 1593.63,-226"/>
</a>
</g>
</g>
<!-- Node20 -->
<g id="Node000020" class="node">
<title>Node20</title>
<g id="a_Node000020"><a xlink:href="Spawn_8cpp.html" target="_top" xlink:title=" ">
<polygon fill="white" stroke="#666666" points="2015.5,-195 1830.5,-195 1830.5,-154 2015.5,-154 2015.5,-195"/>
<text text-anchor="start" x="1838.5" y="-183" font-family="Helvetica,sans-Serif" font-size="10.00">/home/runner/work/R</text>
<text text-anchor="start" x="1838.5" y="-172" font-family="Helvetica,sans-Serif" font-size="10.00">&#45;Type/R&#45;Type/Shared</text>
<text text-anchor="middle" x="1923" y="-161" font-family="Helvetica,sans-Serif" font-size="10.00">/systems/SpawnEnemy/Spawn.cpp</text>
</a>
</g>
</g>
<!-- Node18&#45;&gt;Node20 -->
<g id="edge28_Node000018_Node000020" class="edge">
<title>Node18&#45;&gt;Node20</title>
<g id="a_edge28_Node000018_Node000020"><a xlink:title=" ">
<path fill="none" stroke="#63b8ff" d="M1710.09,-228.55C1752.67,-217.94 1803.34,-205.31 1844.57,-195.04"/>
<polygon fill="#63b8ff" stroke="#63b8ff" points="1709.16,-225.18 1700.3,-230.99 1710.85,-231.97 1709.16,-225.18"/>
</a>
</g>
</g>
<!-- Node21 -->
<g id="Node000021" class="node">
<title>Node21</title>
<g id="a_Node000021"><a xlink:href="WaveSystem_8cpp.html" target="_top" xlink:title=" ">
<polygon fill="white" stroke="#666666" points="1812,-195 1664,-195 1664,-154 1812,-154 1812,-195"/>
<text text-anchor="start" x="1672" y="-183" font-family="Helvetica,sans-Serif" font-size="10.00">/home/runner/work/R</text>
<text text-anchor="start" x="1672" y="-172" font-family="Helvetica,sans-Serif" font-size="10.00">&#45;Type/R&#45;Type/Shared</text>
<text text-anchor="middle" x="1738" y="-161" font-family="Helvetica,sans-Serif" font-size="10.00">/systems/WaveSystem.cpp</text>
</a>
</g>
</g>
<!-- Node18&#45;&gt;Node21 -->
<g id="edge29_Node000018_Node000021" class="edge">
<title>Node18&#45;&gt;Node21</title>
<g id="a_edge29_Node000018_Node000021"><a xlink:title=" ">
<path fill="none" stroke="#63b8ff" d="M1660.87,-225.37C1676.09,-215.53 1693.29,-204.41 1707.57,-195.17"/>
<polygon fill="#63b8ff" stroke="#63b8ff" points="1658.67,-222.62 1652.17,-230.99 1662.47,-228.5 1658.67,-222.62"/>
</a>
</g>
</g>
<!-- Node22&#45;&gt;Node16 -->
<g id="edge32_Node000022_Node000016" class="edge">
<title>Node22&#45;&gt;Node16</title>
<g id="a_edge32_Node000022_Node000016"><a xlink:title=" ">
<path fill="none" stroke="#63b8ff" d="M1376.6,-220.69C1376.49,-212.08 1376.37,-202.9 1376.26,-195.07"/>
<polygon fill="#63b8ff" stroke="#63b8ff" points="1373.1,-220.84 1376.74,-230.79 1380.1,-220.75 1373.1,-220.84"/>
</a>
</g>
</g>
<!-- Node22&#45;&gt;Node19 -->
<g id="edge33_Node000022_Node000019" class="edge">
<title>Node22&#45;&gt;Node19</title>
<g id="a_edge33_Node000022_Node000019"><a xlink:title=" ">
<path fill="none" stroke="#63b8ff" d="M1431.22,-227C1454.91,-216.72 1482.37,-204.82 1504.92,-195.04"/>
<polygon fill="#63b8ff" stroke="#63b8ff" points="1429.78,-223.8 1422,-230.99 1432.57,-230.22 1429.78,-223.8"/>
</a>
</g>
</g>
</g>
</svg>
