<?xml version="1.0" encoding="UTF-8" standalone="no"?>
<!DOCTYPE svg PUBLIC "-//W3C//DTD SVG 1.1//EN"
 "http://www.w3.org/Graphics/SVG/1.1/DTD/svg11.dtd">
<!-- Generated by graphviz version 2.43.0 (0)
 -->
<!-- Title: /home/runner/work/R&#45;Type/R&#45;Type/Shared/components/Player/Projectile.hpp Pages: 1 -->
<svg width="2261pt" height="511pt"
 viewBox="0.00 0.00 2261.00 511.00" xmlns="http://www.w3.org/2000/svg" xmlns:xlink="http://www.w3.org/1999/xlink">
<g id="graph0" class="graph" transform="scale(1 1) rotate(0) translate(4 507)">
<title>/home/runner/work/R&#45;Type/R&#45;Type/Shared/components/Player/Projectile.hpp</title>
<!-- Node1 -->
<g id="Node000001" class="node">
<title>Node1</title>
<g id="a_Node000001"><a xlink:title=" ">
<polygon fill="#999999" stroke="#666666" points="1294,-503 1111,-503 1111,-462 1294,-462 1294,-503"/>
<text text-anchor="start" x="1119" y="-491" font-family="Helvetica,sans-Serif" font-size="10.00">/home/runner/work/R</text>
<text text-anchor="start" x="1119" y="-480" font-family="Helvetica,sans-Serif" font-size="10.00">&#45;Type/R&#45;Type/Shared</text>
<text text-anchor="middle" x="1202.5" y="-469" font-family="Helvetica,sans-Serif" font-size="10.00">/components/Player/Projectile.hpp</text>
</a>
</g>
</g>
<!-- Node2 -->
<g id="Node000002" class="node">
<title>Node2</title>
<g id="a_Node000002"><a xlink:href="GameEngine_8cpp.html" target="_top" xlink:title=" ">
<polygon fill="white" stroke="#666666" points="155,-118 0,-118 0,-77 155,-77 155,-118"/>
<text text-anchor="start" x="8" y="-106" font-family="Helvetica,sans-Serif" font-size="10.00">/home/runner/work/R</text>
<text text-anchor="start" x="8" y="-95" font-family="Helvetica,sans-Serif" font-size="10.00">&#45;Type/R&#45;Type/Client</text>
<text text-anchor="middle" x="77.5" y="-84" font-family="Helvetica,sans-Serif" font-size="10.00">/src/engine/GameEngine.cpp</text>
</a>
</g>
</g>
<!-- Node1&#45;&gt;Node2 -->
<g id="edge1_Node000001_Node000002" class="edge">
<title>Node1&#45;&gt;Node2</title>
<g id="a_edge1_Node000001_Node000002"><a xlink:title=" ">
<path fill="none" stroke="#63b8ff" d="M1100.85,-476.02C853.15,-461.31 238.5,-416.09 238.5,-329.5 238.5,-329.5 238.5,-329.5 238.5,-250.5 238.5,-186.88 171.21,-141.99 123.64,-118.21"/>
<polygon fill="#63b8ff" stroke="#63b8ff" points="1100.75,-479.52 1110.94,-476.61 1101.16,-472.53 1100.75,-479.52"/>
</a>
</g>
</g>
<!-- Node3 -->
<g id="Node000003" class="node">
<title>Node3</title>
<g id="a_Node000003"><a xlink:href="GameEngine_8hpp.html" target="_top" xlink:title=" ">
<polygon fill="white" stroke="#666666" points="583.5,-195 427.5,-195 427.5,-154 583.5,-154 583.5,-195"/>
<text text-anchor="start" x="435.5" y="-183" font-family="Helvetica,sans-Serif" font-size="10.00">/home/runner/work/R</text>
<text text-anchor="start" x="435.5" y="-172" font-family="Helvetica,sans-Serif" font-size="10.00">&#45;Type/R&#45;Type/Client</text>
<text text-anchor="middle" x="505.5" y="-161" font-family="Helvetica,sans-Serif" font-size="10.00">/src/engine/GameEngine.hpp</text>
</a>
</g>
</g>
<!-- Node1&#45;&gt;Node3 -->
<g id="edge2_Node000001_Node000003" class="edge">
<title>Node1&#45;&gt;Node3</title>
<g id="a_edge2_Node000001_Node000003"><a xlink:title=" ">
<path fill="none" stroke="#63b8ff" d="M1100.52,-475.88C981.41,-468.23 792.3,-452.38 726.5,-426 626.89,-386.06 600.07,-361.28 540.5,-272 524.48,-247.98 514.72,-215.72 509.71,-195.26"/>
<polygon fill="#63b8ff" stroke="#63b8ff" points="1100.55,-479.39 1110.75,-476.53 1100.99,-472.41 1100.55,-479.39"/>
</a>
</g>
</g>
<!-- Node10 -->
<g id="Node000010" class="node">
<title>Node10</title>
<g id="a_Node000010"><a xlink:href="Weapon_8hpp.html" target="_top" xlink:title=" ">
<polygon fill="white" stroke="#666666" points="1150.5,-426 974.5,-426 974.5,-385 1150.5,-385 1150.5,-426"/>
<text text-anchor="start" x="982.5" y="-414" font-family="Helvetica,sans-Serif" font-size="10.00">/home/runner/work/R</text>
<text text-anchor="start" x="982.5" y="-403" font-family="Helvetica,sans-Serif" font-size="10.00">&#45;Type/R&#45;Type/Shared</text>
<text text-anchor="middle" x="1062.5" y="-392" font-family="Helvetica,sans-Serif" font-size="10.00">/components/Player/Weapon.hpp</text>
</a>
</g>
</g>
<!-- Node1&#45;&gt;Node10 -->
<g id="edge14_Node000001_Node000010" class="edge">
<title>Node1&#45;&gt;Node10</title>
<g id="a_edge14_Node000001_Node000010"><a xlink:title=" ">
<path fill="none" stroke="#63b8ff" d="M1157.13,-457.19C1138.39,-447.15 1116.95,-435.67 1099.22,-426.17"/>
<polygon fill="#63b8ff" stroke="#63b8ff" points="1155.61,-460.35 1166.08,-461.99 1158.92,-454.18 1155.61,-460.35"/>
</a>
</g>
</g>
<!-- Node16 -->
<g id="Node000016" class="node">
<title>Node16</title>
<g id="a_Node000016"><a xlink:href="Collision_8cpp.html" target="_top" xlink:title=" ">
<polygon fill="white" stroke="#666666" points="979,-195 808,-195 808,-154 979,-154 979,-195"/>
<text text-anchor="start" x="816" y="-183" font-family="Helvetica,sans-Serif" font-size="10.00">/home/runner/work/R</text>
<text text-anchor="start" x="816" y="-172" font-family="Helvetica,sans-Serif" font-size="10.00">&#45;Type/R&#45;Type/Shared</text>
<text text-anchor="middle" x="893.5" y="-161" font-family="Helvetica,sans-Serif" font-size="10.00">/systems/Collision/Collision.cpp</text>
</a>
</g>
</g>
<!-- Node1&#45;&gt;Node16 -->
<g id="edge43_Node000001_Node000016" class="edge">
<title>Node1&#45;&gt;Node16</title>
<g id="a_edge43_Node000001_Node000016"><a xlink:title=" ">
<path fill="none" stroke="#63b8ff" d="M1100.49,-480.78C959.39,-473.53 709.72,-436.63 600.5,-272 515.37,-143.69 662.59,-221.3 798.5,-195 801.56,-194.41 804.67,-193.8 807.81,-193.18"/>
<polygon fill="#63b8ff" stroke="#63b8ff" points="1100.72,-484.3 1110.88,-481.27 1101.05,-477.31 1100.72,-484.3"/>
</a>
</g>
</g>
<!-- Node17 -->
<g id="Node000017" class="node">
<title>Node17</title>
<g id="a_Node000017"><a xlink:href="Collision_8hpp.html" target="_top" xlink:title=" ">
<polygon fill="white" stroke="#666666" points="1239.5,-272 1067.5,-272 1067.5,-231 1239.5,-231 1239.5,-272"/>
<text text-anchor="start" x="1075.5" y="-260" font-family="Helvetica,sans-Serif" font-size="10.00">/home/runner/work/R</text>
<text text-anchor="start" x="1075.5" y="-249" font-family="Helvetica,sans-Serif" font-size="10.00">&#45;Type/R&#45;Type/Shared</text>
<text text-anchor="middle" x="1153.5" y="-238" font-family="Helvetica,sans-Serif" font-size="10.00">/systems/Collision/Collision.hpp</text>
</a>
</g>
</g>
<!-- Node1&#45;&gt;Node17 -->
<g id="edge44_Node000001_Node000017" class="edge">
<title>Node1&#45;&gt;Node17</title>
<g id="a_edge44_Node000001_Node000017"><a xlink:title=" ">
<path fill="none" stroke="#63b8ff" d="M1196.19,-452.02C1186.05,-404.61 1166.37,-312.66 1157.74,-272.3"/>
<polygon fill="#63b8ff" stroke="#63b8ff" points="1192.81,-452.93 1198.32,-461.98 1199.65,-451.46 1192.81,-452.93"/>
</a>
</g>
</g>
<!-- Node20 -->
<g id="Node000020" class="node">
<title>Node20</title>
<g id="a_Node000020"><a xlink:href="EntityHelper_8hpp.html" target="_top" xlink:title=" ">
<polygon fill="white" stroke="#666666" points="2094,-272 1909,-272 1909,-231 2094,-231 2094,-272"/>
<text text-anchor="start" x="1917" y="-260" font-family="Helvetica,sans-Serif" font-size="10.00">/home/runner/work/R</text>
<text text-anchor="start" x="1917" y="-249" font-family="Helvetica,sans-Serif" font-size="10.00">&#45;Type/R&#45;Type/Shared</text>
<text text-anchor="middle" x="2001.5" y="-238" font-family="Helvetica,sans-Serif" font-size="10.00">/systems/Helpers/EntityHelper.hpp</text>
</a>
</g>
</g>
<!-- Node1&#45;&gt;Node20 -->
<g id="edge45_Node000001_Node000020" class="edge">
<title>Node1&#45;&gt;Node20</title>
<g id="a_edge45_Node000001_Node000020"><a xlink:title=" ">
<path fill="none" stroke="#63b8ff" d="M1304.31,-478.42C1484.75,-472.22 1846.4,-456.18 1895.5,-426 1953.69,-390.23 1984.47,-309.41 1996.04,-272.08"/>
<polygon fill="#63b8ff" stroke="#63b8ff" points="1304.15,-474.92 1294.27,-478.76 1304.38,-481.92 1304.15,-474.92"/>
</a>
</g>
</g>
<!-- Node21 -->
<g id="Node000021" class="node">
<title>Node21</title>
<g id="a_Node000021"><a xlink:href="Movement_8cpp.html" target="_top" xlink:title=" ">
<polygon fill="white" stroke="#666666" points="1857.5,-195 1665.5,-195 1665.5,-154 1857.5,-154 1857.5,-195"/>
<text text-anchor="start" x="1673.5" y="-183" font-family="Helvetica,sans-Serif" font-size="10.00">/home/runner/work/R</text>
<text text-anchor="start" x="1673.5" y="-172" font-family="Helvetica,sans-Serif" font-size="10.00">&#45;Type/R&#45;Type/Shared</text>
<text text-anchor="middle" x="1761.5" y="-161" font-family="Helvetica,sans-Serif" font-size="10.00">/systems/Movement/Movement.cpp</text>
</a>
</g>
</g>
<!-- Node1&#45;&gt;Node21 -->
<g id="edge46_Node000001_Node000021" class="edge">
<title>Node1&#45;&gt;Node21</title>
<g id="a_edge46_Node000001_Node000021"><a xlink:title=" ">
<path fill="none" stroke="#63b8ff" d="M1304.12,-464.29C1472.29,-433.51 1796.51,-363.56 1862.5,-272 1873.15,-257.22 1871.78,-246.68 1862.5,-231 1853.08,-215.07 1837.28,-203.41 1820.94,-195.01"/>
<polygon fill="#63b8ff" stroke="#63b8ff" points="1303.47,-460.85 1294.26,-466.09 1304.73,-467.74 1303.47,-460.85"/>
</a>
</g>
</g>
<!-- Node24 -->
<g id="Node000024" class="node">
<title>Node24</title>
<g id="a_Node000024"><a xlink:href="Movement_8hpp.html" target="_top" xlink:title=" ">
<polygon fill="white" stroke="#666666" points="1853,-272 1660,-272 1660,-231 1853,-231 1853,-272"/>
<text text-anchor="start" x="1668" y="-260" font-family="Helvetica,sans-Serif" font-size="10.00">/home/runner/work/R</text>
<text text-anchor="start" x="1668" y="-249" font-family="Helvetica,sans-Serif" font-size="10.00">&#45;Type/R&#45;Type/Shared</text>
<text text-anchor="middle" x="1756.5" y="-238" font-family="Helvetica,sans-Serif" font-size="10.00">/systems/Movement/Movement.hpp</text>
</a>
</g>
</g>
<!-- Node1&#45;&gt;Node24 -->
<g id="edge47_Node000001_Node000024" class="edge">
<title>Node1&#45;&gt;Node24</title>
<g id="a_edge47_Node000001_Node000024"><a xlink:title=" ">
<path fill="none" stroke="#63b8ff" d="M1259.29,-458.03C1368.79,-412.76 1607.27,-314.18 1708.99,-272.14"/>
<polygon fill="#63b8ff" stroke="#63b8ff" points="1257.64,-454.92 1249.73,-461.98 1260.31,-461.39 1257.64,-454.92"/>
</a>
</g>
</g>
<!-- Node27 -->
<g id="Node000027" class="node">
<title>Node27</title>
<g id="a_Node000027"><a xlink:href="ProjectileSystem_8hpp.html" target="_top" xlink:title=" ">
<polygon fill="white" stroke="#666666" points="1604,-272 1437,-272 1437,-231 1604,-231 1604,-272"/>
<text text-anchor="start" x="1445" y="-260" font-family="Helvetica,sans-Serif" font-size="10.00">/home/runner/work/R</text>
<text text-anchor="start" x="1445" y="-249" font-family="Helvetica,sans-Serif" font-size="10.00">&#45;Type/R&#45;Type/Shared</text>
<text text-anchor="middle" x="1520.5" y="-238" font-family="Helvetica,sans-Serif" font-size="10.00">/systems/ProjectileSystem.hpp</text>
</a>
</g>
</g>
<!-- Node1&#45;&gt;Node27 -->
<g id="edge48_Node000001_Node000027" class="edge">
<title>Node1&#45;&gt;Node27</title>
<g id="a_edge48_Node000001_Node000027"><a xlink:title=" ">
<path fill="none" stroke="#63b8ff" d="M1237.79,-456.09C1301.69,-410.07 1435.31,-313.85 1493,-272.3"/>
<polygon fill="#63b8ff" stroke="#63b8ff" points="1235.68,-453.29 1229.61,-461.98 1239.77,-458.97 1235.68,-453.29"/>
</a>
</g>
</g>
<!-- Node3&#45;&gt;Node2 -->
<g id="edge4_Node000003_Node000002" class="edge">
<title>Node3&#45;&gt;Node2</title>
<g id="a_edge4_Node000003_Node000002"><a xlink:title=" ">
<path fill="none" stroke="#63b8ff" d="M417.43,-160.63C348.42,-150.19 250.1,-134.54 164.5,-118 161.46,-117.41 158.36,-116.8 155.24,-116.16"/>
<polygon fill="#63b8ff" stroke="#63b8ff" points="416.98,-164.1 427.39,-162.13 418.03,-157.18 416.98,-164.1"/>
</a>
</g>
</g>
<!-- Node4 -->
<g id="Node000004" class="node">
<title>Node4</title>
<g id="a_Node000004"><a xlink:href="Main_8cpp.html" target="_top" xlink:title=" ">
<polygon fill="white" stroke="#666666" points="701,-41 582,-41 582,0 701,0 701,-41"/>
<text text-anchor="start" x="590" y="-29" font-family="Helvetica,sans-Serif" font-size="10.00">/home/runner/work/R</text>
<text text-anchor="start" x="590" y="-18" font-family="Helvetica,sans-Serif" font-size="10.00">&#45;Type/R&#45;Type/Client</text>
<text text-anchor="middle" x="641.5" y="-7" font-family="Helvetica,sans-Serif" font-size="10.00">/src/Main.cpp</text>
</a>
</g>
</g>
<!-- Node3&#45;&gt;Node4 -->
<g id="edge3_Node000003_Node000004" class="edge">
<title>Node3&#45;&gt;Node4</title>
<g id="a_edge3_Node000003_Node000004"><a xlink:title=" ">
<path fill="none" stroke="#63b8ff" d="M593.76,-154.29C671.83,-147.31 984.22,-150.97 1014.5,-118 1026.83,-104.58 1026.4,-90.8 1014.5,-77 974.79,-30.95 796.33,-22.51 701.38,-21.34"/>
<polygon fill="#63b8ff" stroke="#63b8ff" points="593.19,-150.83 583.66,-155.46 593.99,-157.79 593.19,-150.83"/>
</a>
</g>
</g>
<!-- Node5 -->
<g id="Node000005" class="node">
<title>Node5</title>
<g id="a_Node000005"><a xlink:href="SceneManager_8cpp.html" target="_top" xlink:title=" ">
<polygon fill="white" stroke="#666666" points="1005.5,-118 809.5,-118 809.5,-77 1005.5,-77 1005.5,-118"/>
<text text-anchor="start" x="817.5" y="-106" font-family="Helvetica,sans-Serif" font-size="10.00">/home/runner/work/R</text>
<text text-anchor="start" x="817.5" y="-95" font-family="Helvetica,sans-Serif" font-size="10.00">&#45;Type/R&#45;Type/Client</text>
<text text-anchor="middle" x="907.5" y="-84" font-family="Helvetica,sans-Serif" font-size="10.00">/src/engine/scene/SceneManager.cpp</text>
</a>
</g>
</g>
<!-- Node3&#45;&gt;Node5 -->
<g id="edge5_Node000003_Node000005" class="edge">
<title>Node3&#45;&gt;Node5</title>
<g id="a_edge5_Node000003_Node000005"><a xlink:title=" ">
<path fill="none" stroke="#63b8ff" d="M593.79,-153.79C686.22,-135.63 711.28,-133.85 800.5,-118 803.38,-117.49 806.31,-116.97 809.26,-116.44"/>
<polygon fill="#63b8ff" stroke="#63b8ff" points="592.85,-150.41 583.72,-155.78 594.21,-157.27 592.85,-150.41"/>
</a>
</g>
</g>
<!-- Node6 -->
<g id="Node000006" class="node">
<title>Node6</title>
<g id="a_Node000006"><a xlink:href="JoinGame_8hpp.html" target="_top" xlink:title=" ">
<polygon fill="white" stroke="#666666" points="315.5,-118 173.5,-118 173.5,-77 315.5,-77 315.5,-118"/>
<text text-anchor="start" x="181.5" y="-106" font-family="Helvetica,sans-Serif" font-size="10.00">/home/runner/work/R</text>
<text text-anchor="start" x="181.5" y="-95" font-family="Helvetica,sans-Serif" font-size="10.00">&#45;Type/R&#45;Type/Client</text>
<text text-anchor="middle" x="244.5" y="-84" font-family="Helvetica,sans-Serif" font-size="10.00">/src/scenes/JoinGame.hpp</text>
</a>
</g>
</g>
<!-- Node3&#45;&gt;Node6 -->
<g id="edge6_Node000003_Node000006" class="edge">
<title>Node3&#45;&gt;Node6</title>
<g id="a_edge6_Node000003_Node000006"><a xlink:title=" ">
<path fill="none" stroke="#63b8ff" d="M427.95,-151.21C391.27,-140.68 347.88,-128.21 312.51,-118.04"/>
<polygon fill="#63b8ff" stroke="#63b8ff" points="427.03,-154.59 437.61,-153.99 428.96,-147.86 427.03,-154.59"/>
</a>
</g>
</g>
<!-- Node7 -->
<g id="Node000007" class="node">
<title>Node7</title>
<g id="a_Node000007"><a xlink:href="MainMenu_8hpp.html" target="_top" xlink:title=" ">
<polygon fill="white" stroke="#666666" points="479.5,-118 333.5,-118 333.5,-77 479.5,-77 479.5,-118"/>
<text text-anchor="start" x="341.5" y="-106" font-family="Helvetica,sans-Serif" font-size="10.00">/home/runner/work/R</text>
<text text-anchor="start" x="341.5" y="-95" font-family="Helvetica,sans-Serif" font-size="10.00">&#45;Type/R&#45;Type/Client</text>
<text text-anchor="middle" x="406.5" y="-84" font-family="Helvetica,sans-Serif" font-size="10.00">/src/scenes/MainMenu.hpp</text>
</a>
</g>
</g>
<!-- Node3&#45;&gt;Node7 -->
<g id="edge8_Node000003_Node000007" class="edge">
<title>Node3&#45;&gt;Node7</title>
<g id="a_edge8_Node000003_Node000007"><a xlink:title=" ">
<path fill="none" stroke="#63b8ff" d="M471.6,-147.82C458.79,-138.11 444.43,-127.24 432.47,-118.17"/>
<polygon fill="#63b8ff" stroke="#63b8ff" points="469.66,-150.74 479.75,-153.99 473.89,-145.16 469.66,-150.74"/>
</a>
</g>
</g>
<!-- Node8 -->
<g id="Node000008" class="node">
<title>Node8</title>
<g id="a_Node000008"><a xlink:href="Options_8hpp.html" target="_top" xlink:title=" ">
<polygon fill="white" stroke="#666666" points="629.5,-118 497.5,-118 497.5,-77 629.5,-77 629.5,-118"/>
<text text-anchor="start" x="505.5" y="-106" font-family="Helvetica,sans-Serif" font-size="10.00">/home/runner/work/R</text>
<text text-anchor="start" x="505.5" y="-95" font-family="Helvetica,sans-Serif" font-size="10.00">&#45;Type/R&#45;Type/Client</text>
<text text-anchor="middle" x="563.5" y="-84" font-family="Helvetica,sans-Serif" font-size="10.00">/src/scenes/Options.hpp</text>
</a>
</g>
</g>
<!-- Node3&#45;&gt;Node8 -->
<g id="edge10_Node000003_Node000008" class="edge">
<title>Node3&#45;&gt;Node8</title>
<g id="a_edge10_Node000003_Node000008"><a xlink:title=" ">
<path fill="none" stroke="#63b8ff" d="M527.02,-145.67C534.11,-136.5 541.85,-126.5 548.36,-118.07"/>
<polygon fill="#63b8ff" stroke="#63b8ff" points="524.09,-143.74 520.74,-153.79 529.63,-148.03 524.09,-143.74"/>
</a>
</g>
</g>
<!-- Node9 -->
<g id="Node000009" class="node">
<title>Node9</title>
<g id="a_Node000009"><a xlink:href="WaitLobby_8hpp.html" target="_top" xlink:title=" ">
<polygon fill="white" stroke="#666666" points="791.5,-118 647.5,-118 647.5,-77 791.5,-77 791.5,-118"/>
<text text-anchor="start" x="655.5" y="-106" font-family="Helvetica,sans-Serif" font-size="10.00">/home/runner/work/R</text>
<text text-anchor="start" x="655.5" y="-95" font-family="Helvetica,sans-Serif" font-size="10.00">&#45;Type/R&#45;Type/Client</text>
<text text-anchor="middle" x="719.5" y="-84" font-family="Helvetica,sans-Serif" font-size="10.00">/src/scenes/WaitLobby.hpp</text>
</a>
</g>
</g>
<!-- Node3&#45;&gt;Node9 -->
<g id="edge12_Node000003_Node000009" class="edge">
<title>Node3&#45;&gt;Node9</title>
<g id="a_edge12_Node000003_Node000009"><a xlink:title=" ">
<path fill="none" stroke="#63b8ff" d="M570.63,-150.67C600.37,-140.25 635.23,-128.03 663.74,-118.04"/>
<polygon fill="#63b8ff" stroke="#63b8ff" points="569.45,-147.38 561.17,-153.99 571.76,-153.99 569.45,-147.38"/>
</a>
</g>
</g>
<!-- Node6&#45;&gt;Node4 -->
<g id="edge7_Node000006_Node000004" class="edge">
<title>Node6&#45;&gt;Node4</title>
<g id="a_edge7_Node000006_Node000004"><a xlink:title=" ">
<path fill="none" stroke="#63b8ff" d="M325.35,-76.88C420.66,-57.18 520.22,-40.56 581.98,-30.72"/>
<polygon fill="#63b8ff" stroke="#63b8ff" points="324.62,-73.46 315.54,-78.93 326.05,-80.31 324.62,-73.46"/>
</a>
</g>
</g>
<!-- Node7&#45;&gt;Node4 -->
<g id="edge9_Node000007_Node000004" class="edge">
<title>Node7&#45;&gt;Node4</title>
<g id="a_edge9_Node000007_Node000004"><a xlink:title=" ">
<path fill="none" stroke="#63b8ff" d="M477.33,-73.9C510.7,-63.24 550.07,-50.68 581.89,-40.52"/>
<polygon fill="#63b8ff" stroke="#63b8ff" points="476.09,-70.62 467.63,-76.99 478.22,-77.28 476.09,-70.62"/>
</a>
</g>
</g>
<!-- Node8&#45;&gt;Node4 -->
<g id="edge11_Node000008_Node000004" class="edge">
<title>Node8&#45;&gt;Node4</title>
<g id="a_edge11_Node000008_Node000004"><a xlink:title=" ">
<path fill="none" stroke="#63b8ff" d="M591.28,-69.79C601.13,-60.32 612.03,-49.84 621.14,-41.07"/>
<polygon fill="#63b8ff" stroke="#63b8ff" points="588.78,-67.34 583.99,-76.79 593.63,-72.39 588.78,-67.34"/>
</a>
</g>
</g>
<!-- Node9&#45;&gt;Node4 -->
<g id="edge13_Node000009_Node000004" class="edge">
<title>Node9&#45;&gt;Node4</title>
<g id="a_edge13_Node000009_Node000004"><a xlink:title=" ">
<path fill="none" stroke="#63b8ff" d="M691.72,-69.79C681.87,-60.32 670.97,-49.84 661.86,-41.07"/>
<polygon fill="#63b8ff" stroke="#63b8ff" points="689.37,-72.39 699.01,-76.79 694.22,-67.34 689.37,-72.39"/>
</a>
</g>
</g>
<!-- Node10&#45;&gt;Node3 -->
<g id="edge15_Node000010_Node000003" class="edge">
<title>Node10&#45;&gt;Node3</title>
<g id="a_edge15_Node000010_Node000003"><a xlink:title=" ">
<path fill="none" stroke="#63b8ff" d="M963.93,-393.93C863.02,-379.39 704.9,-346.04 588.5,-272 557.36,-252.19 531.53,-217.16 517.33,-195.2"/>
<polygon fill="#63b8ff" stroke="#63b8ff" points="963.73,-397.43 974.12,-395.36 964.71,-390.5 963.73,-397.43"/>
</a>
</g>
</g>
<!-- Node11 -->
<g id="Node000011" class="node">
<title>Node11</title>
<g id="a_Node000011"><a xlink:href="PlayerEntity_8hpp.html" target="_top" xlink:title=" ">
<polygon fill="white" stroke="#666666" points="1137,-349 942,-349 942,-308 1137,-308 1137,-349"/>
<text text-anchor="start" x="950" y="-337" font-family="Helvetica,sans-Serif" font-size="10.00">/home/runner/work/R</text>
<text text-anchor="start" x="950" y="-326" font-family="Helvetica,sans-Serif" font-size="10.00">&#45;Type/R&#45;Type/Shared</text>
<text text-anchor="middle" x="1039.5" y="-315" font-family="Helvetica,sans-Serif" font-size="10.00">/components/Player/PlayerEntity.hpp</text>
</a>
</g>
</g>
<!-- Node10&#45;&gt;Node11 -->
<g id="edge16_Node000010_Node000011" class="edge">
<title>Node10&#45;&gt;Node11</title>
<g id="a_edge16_Node000010_Node000011"><a xlink:title=" ">
<path fill="none" stroke="#63b8ff" d="M1053.45,-374.98C1050.78,-366.28 1047.93,-356.98 1045.5,-349.07"/>
<polygon fill="#63b8ff" stroke="#63b8ff" points="1050.18,-376.26 1056.46,-384.79 1056.87,-374.21 1050.18,-376.26"/>
</a>
</g>
</g>
<!-- Node25 -->
<g id="Node000025" class="node">
<title>Node25</title>
<g id="a_Node000025"><a xlink:href="WeaponSystem_8hpp.html" target="_top" xlink:title=" ">
<polygon fill="white" stroke="#666666" points="1419,-272 1258,-272 1258,-231 1419,-231 1419,-272"/>
<text text-anchor="start" x="1266" y="-260" font-family="Helvetica,sans-Serif" font-size="10.00">/home/runner/work/R</text>
<text text-anchor="start" x="1266" y="-249" font-family="Helvetica,sans-Serif" font-size="10.00">&#45;Type/R&#45;Type/Shared</text>
<text text-anchor="middle" x="1338.5" y="-238" font-family="Helvetica,sans-Serif" font-size="10.00">/systems/WeaponSystem.hpp</text>
</a>
</g>
</g>
<!-- Node10&#45;&gt;Node25 -->
<g id="edge39_Node000010_Node000025" class="edge">
<title>Node10&#45;&gt;Node25</title>
<g id="a_edge39_Node000010_Node000025"><a xlink:title=" ">
<path fill="none" stroke="#63b8ff" d="M1107.09,-379.95C1161.54,-349.96 1252.56,-299.83 1302.68,-272.23"/>
<polygon fill="#63b8ff" stroke="#63b8ff" points="1105.09,-377.05 1098.02,-384.94 1108.47,-383.18 1105.09,-377.05"/>
</a>
</g>
</g>
<!-- Node12 -->
<g id="Node000012" class="node">
<title>Node12</title>
<g id="a_Node000012"><a xlink:href="InputSystem_8cpp.html" target="_top" xlink:title=" ">
<polygon fill="white" stroke="#666666" points="789.5,-195 601.5,-195 601.5,-154 789.5,-154 789.5,-195"/>
<text text-anchor="start" x="609.5" y="-183" font-family="Helvetica,sans-Serif" font-size="10.00">/home/runner/work/R</text>
<text text-anchor="start" x="609.5" y="-172" font-family="Helvetica,sans-Serif" font-size="10.00">&#45;Type/R&#45;Type/Client</text>
<text text-anchor="middle" x="695.5" y="-161" font-family="Helvetica,sans-Serif" font-size="10.00">/src/engine/inputs/InputSystem.cpp</text>
</a>
</g>
</g>
<!-- Node11&#45;&gt;Node12 -->
<g id="edge17_Node000011_Node000012" class="edge">
<title>Node11&#45;&gt;Node12</title>
<g id="a_edge17_Node000011_Node000012"><a xlink:title=" ">
<path fill="none" stroke="#63b8ff" d="M931.67,-321.22C808.8,-312.95 622.1,-296.51 600.5,-272 588.45,-258.33 591.43,-246.8 600.5,-231 609.53,-215.26 624.94,-203.56 640.76,-195.07"/>
<polygon fill="#63b8ff" stroke="#63b8ff" points="931.67,-324.73 941.88,-321.9 932.13,-317.75 931.67,-324.73"/>
</a>
</g>
</g>
<!-- Node13 -->
<g id="Node000013" class="node">
<title>Node13</title>
<g id="a_Node000013"><a xlink:href="InputSystem_8hpp.html" target="_top" xlink:title=" ">
<polygon fill="white" stroke="#666666" points="797.5,-272 609.5,-272 609.5,-231 797.5,-231 797.5,-272"/>
<text text-anchor="start" x="617.5" y="-260" font-family="Helvetica,sans-Serif" font-size="10.00">/home/runner/work/R</text>
<text text-anchor="start" x="617.5" y="-249" font-family="Helvetica,sans-Serif" font-size="10.00">&#45;Type/R&#45;Type/Client</text>
<text text-anchor="middle" x="703.5" y="-238" font-family="Helvetica,sans-Serif" font-size="10.00">/src/engine/inputs/InputSystem.hpp</text>
</a>
</g>
</g>
<!-- Node11&#45;&gt;Node13 -->
<g id="edge18_Node000011_Node000013" class="edge">
<title>Node11&#45;&gt;Node13</title>
<g id="a_edge18_Node000011_Node000013"><a xlink:title=" ">
<path fill="none" stroke="#63b8ff" d="M942.06,-305.75C894.35,-295.1 837.36,-282.38 791.05,-272.04"/>
<polygon fill="#63b8ff" stroke="#63b8ff" points="941.57,-309.23 952.1,-307.99 943.1,-302.4 941.57,-309.23"/>
</a>
</g>
</g>
<!-- Node14 -->
<g id="Node000014" class="node">
<title>Node14</title>
<g id="a_Node000014"><a xlink:href="MainGame_8hpp.html" target="_top" xlink:title=" ">
<polygon fill="white" stroke="#666666" points="1145.5,-195 997.5,-195 997.5,-154 1145.5,-154 1145.5,-195"/>
<text text-anchor="start" x="1005.5" y="-183" font-family="Helvetica,sans-Serif" font-size="10.00">/home/runner/work/R</text>
<text text-anchor="start" x="1005.5" y="-172" font-family="Helvetica,sans-Serif" font-size="10.00">&#45;Type/R&#45;Type/Client</text>
<text text-anchor="middle" x="1071.5" y="-161" font-family="Helvetica,sans-Serif" font-size="10.00">/src/scenes/MainGame.hpp</text>
</a>
</g>
</g>
<!-- Node11&#45;&gt;Node14 -->
<g id="edge23_Node000011_Node000014" class="edge">
<title>Node11&#45;&gt;Node14</title>
<g id="a_edge23_Node000011_Node000014"><a xlink:title=" ">
<path fill="none" stroke="#63b8ff" d="M1045.04,-297.95C1048.69,-278.82 1053.67,-253.39 1058.5,-231 1061.06,-219.1 1064.17,-205.82 1066.7,-195.24"/>
<polygon fill="#63b8ff" stroke="#63b8ff" points="1041.58,-297.39 1043.15,-307.87 1048.46,-298.69 1041.58,-297.39"/>
</a>
</g>
</g>
<!-- Node15 -->
<g id="Node000015" class="node">
<title>Node15</title>
<g id="a_Node000015"><a xlink:href="BoundsSystem_8cpp.html" target="_top" xlink:title=" ">
<polygon fill="white" stroke="#666666" points="973,-272 816,-272 816,-231 973,-231 973,-272"/>
<text text-anchor="start" x="824" y="-260" font-family="Helvetica,sans-Serif" font-size="10.00">/home/runner/work/R</text>
<text text-anchor="start" x="824" y="-249" font-family="Helvetica,sans-Serif" font-size="10.00">&#45;Type/R&#45;Type/Shared</text>
<text text-anchor="middle" x="894.5" y="-238" font-family="Helvetica,sans-Serif" font-size="10.00">/systems/BoundsSystem.cpp</text>
</a>
</g>
</g>
<!-- Node11&#45;&gt;Node15 -->
<g id="edge24_Node000011_Node000015" class="edge">
<title>Node11&#45;&gt;Node15</title>
<g id="a_edge24_Node000011_Node000015"><a xlink:title=" ">
<path fill="none" stroke="#63b8ff" d="M992.74,-303.31C973.18,-293.2 950.76,-281.6 932.28,-272.04"/>
<polygon fill="#63b8ff" stroke="#63b8ff" points="991.29,-306.5 1001.78,-307.99 994.51,-300.29 991.29,-306.5"/>
</a>
</g>
</g>
<!-- Node11&#45;&gt;Node16 -->
<g id="edge25_Node000011_Node000016" class="edge">
<title>Node11&#45;&gt;Node16</title>
<g id="a_edge25_Node000011_Node000016"><a xlink:title=" ">
<path fill="none" stroke="#63b8ff" d="M1027.05,-298.71C1017.14,-278.14 1001.74,-250.71 982.5,-231 968.51,-216.67 950.11,-204.4 933.67,-195.08"/>
<polygon fill="#63b8ff" stroke="#63b8ff" points="1023.94,-300.33 1031.34,-307.92 1030.29,-297.37 1023.94,-300.33"/>
</a>
</g>
</g>
<!-- Node11&#45;&gt;Node17 -->
<g id="edge26_Node000011_Node000017" class="edge">
<title>Node11&#45;&gt;Node17</title>
<g id="a_edge26_Node000011_Node000017"><a xlink:title=" ">
<path fill="none" stroke="#63b8ff" d="M1077.7,-302.37C1092.66,-292.53 1109.56,-281.41 1123.6,-272.17"/>
<polygon fill="#63b8ff" stroke="#63b8ff" points="1075.59,-299.57 1069.15,-307.99 1079.43,-305.42 1075.59,-299.57"/>
</a>
</g>
</g>
<!-- Node11&#45;&gt;Node20 -->
<g id="edge30_Node000011_Node000020" class="edge">
<title>Node11&#45;&gt;Node20</title>
<g id="a_edge30_Node000011_Node000020"><a xlink:title=" ">
<path fill="none" stroke="#63b8ff" d="M1147.41,-322.71C1304.87,-315.15 1606.73,-298.53 1862.5,-272 1877.53,-270.44 1893.43,-268.49 1908.9,-266.44"/>
<polygon fill="#63b8ff" stroke="#63b8ff" points="1147.07,-319.22 1137.24,-323.19 1147.4,-326.21 1147.07,-319.22"/>
</a>
</g>
</g>
<!-- Node11&#45;&gt;Node21 -->
<g id="edge35_Node000011_Node000021" class="edge">
<title>Node11&#45;&gt;Node21</title>
<g id="a_edge35_Node000011_Node000021"><a xlink:title=" ">
<path fill="none" stroke="#63b8ff" d="M1147.36,-326.13C1290.43,-322.79 1534.16,-311.3 1613.5,-272 1635.76,-260.97 1631.65,-245.94 1651.5,-231 1670.47,-216.72 1693.67,-204.39 1713.86,-195"/>
<polygon fill="#63b8ff" stroke="#63b8ff" points="1147.15,-322.64 1137.23,-326.36 1147.31,-329.64 1147.15,-322.64"/>
</a>
</g>
</g>
<!-- Node11&#45;&gt;Node24 -->
<g id="edge36_Node000011_Node000024" class="edge">
<title>Node11&#45;&gt;Node24</title>
<g id="a_edge36_Node000011_Node000024"><a xlink:title=" ">
<path fill="none" stroke="#63b8ff" d="M1147.17,-320.34C1268.56,-311.63 1471.71,-295.18 1645.5,-272 1650.15,-271.38 1654.91,-270.7 1659.71,-269.99"/>
<polygon fill="#63b8ff" stroke="#63b8ff" points="1146.85,-316.85 1137.12,-321.05 1147.35,-323.83 1146.85,-316.85"/>
</a>
</g>
</g>
<!-- Node13&#45;&gt;Node3 -->
<g id="edge19_Node000013_Node000003" class="edge">
<title>Node13&#45;&gt;Node3</title>
<g id="a_edge19_Node000013_Node000003"><a xlink:title=" ">
<path fill="none" stroke="#63b8ff" d="M642.53,-227.4C615.17,-217.04 583.24,-204.95 557.09,-195.04"/>
<polygon fill="#63b8ff" stroke="#63b8ff" points="641.4,-230.72 651.99,-230.99 643.88,-224.18 641.4,-230.72"/>
</a>
</g>
</g>
<!-- Node13&#45;&gt;Node12 -->
<g id="edge20_Node000013_Node000012" class="edge">
<title>Node13&#45;&gt;Node12</title>
<g id="a_edge20_Node000013_Node000012"><a xlink:title=" ">
<path fill="none" stroke="#63b8ff" d="M700.32,-220.69C699.4,-212.08 698.42,-202.9 697.59,-195.07"/>
<polygon fill="#63b8ff" stroke="#63b8ff" points="696.86,-221.22 701.4,-230.79 703.82,-220.48 696.86,-221.22"/>
</a>
</g>
</g>
<!-- Node13&#45;&gt;Node14 -->
<g id="edge21_Node000013_Node000014" class="edge">
<title>Node13&#45;&gt;Node14</title>
<g id="a_edge21_Node000013_Node000014"><a xlink:title=" ">
<path fill="none" stroke="#63b8ff" d="M807.78,-230.63C874.43,-217.84 954.51,-202.3 988.5,-195 991.39,-194.38 994.34,-193.73 997.32,-193.08"/>
<polygon fill="#63b8ff" stroke="#63b8ff" points="806.79,-227.25 797.63,-232.57 808.11,-234.13 806.79,-227.25"/>
</a>
</g>
</g>
<!-- Node14&#45;&gt;Node4 -->
<g id="edge22_Node000014_Node000004" class="edge">
<title>Node14&#45;&gt;Node4</title>
<g id="a_edge22_Node000014_Node000004"><a xlink:title=" ">
<path fill="none" stroke="#63b8ff" d="M1067.5,-143.93C1062.91,-121.97 1053.14,-93.15 1032.5,-77 982.14,-37.61 797.64,-26.15 701.17,-22.84"/>
<polygon fill="#63b8ff" stroke="#63b8ff" points="1064.06,-144.56 1069.32,-153.76 1070.95,-143.29 1064.06,-144.56"/>
</a>
</g>
</g>
<!-- Node17&#45;&gt;Node16 -->
<g id="edge28_Node000017_Node000016" class="edge">
<title>Node17&#45;&gt;Node16</title>
<g id="a_edge28_Node000017_Node000016"><a xlink:title=" ">
<path fill="none" stroke="#63b8ff" d="M1076.24,-228.21C1039.71,-217.68 996.48,-205.21 961.25,-195.04"/>
<polygon fill="#63b8ff" stroke="#63b8ff" points="1075.29,-231.58 1085.87,-230.99 1077.23,-224.86 1075.29,-231.58"/>
</a>
</g>
</g>
<!-- Node18 -->
<g id="Node000018" class="node">
<title>Node18</title>
<g id="a_Node000018"><a xlink:href="ServerGame_8cpp.html" target="_top" xlink:title=" ">
<polygon fill="white" stroke="#666666" points="1647,-195 1528,-195 1528,-154 1647,-154 1647,-195"/>
<text text-anchor="start" x="1536" y="-183" font-family="Helvetica,sans-Serif" font-size="10.00">/home/runner/work/R</text>
<text text-anchor="start" x="1536" y="-172" font-family="Helvetica,sans-Serif" font-size="10.00">&#45;Type/R&#45;Type/Server</text>
<text text-anchor="middle" x="1587.5" y="-161" font-family="Helvetica,sans-Serif" font-size="10.00">/src/ServerGame.cpp</text>
</a>
</g>
</g>
<!-- Node17&#45;&gt;Node18 -->
<g id="edge27_Node000017_Node000018" class="edge">
<title>Node17&#45;&gt;Node18</title>
<g id="a_edge27_Node000017_Node000018"><a xlink:title=" ">
<path fill="none" stroke="#63b8ff" d="M1249.19,-231.05C1249.3,-231.03 1249.4,-231.02 1249.5,-231 1368.45,-210.98 1400.39,-219.46 1518.5,-195 1521.55,-194.37 1524.66,-193.67 1527.79,-192.94"/>
<polygon fill="#63b8ff" stroke="#63b8ff" points="1248.79,-227.57 1239.54,-232.73 1249.99,-234.47 1248.79,-227.57"/>
</a>
</g>
</g>
<!-- Node19 -->
<g id="Node000019" class="node">
<title>Node19</title>
<g id="a_Node000019"><a xlink:href="ProjectileSystem_8cpp.html" target="_top" xlink:title=" ">
<polygon fill="white" stroke="#666666" points="1331,-195 1164,-195 1164,-154 1331,-154 1331,-195"/>
<text text-anchor="start" x="1172" y="-183" font-family="Helvetica,sans-Serif" font-size="10.00">/home/runner/work/R</text>
<text text-anchor="start" x="1172" y="-172" font-family="Helvetica,sans-Serif" font-size="10.00">&#45;Type/R&#45;Type/Shared</text>
<text text-anchor="middle" x="1247.5" y="-161" font-family="Helvetica,sans-Serif" font-size="10.00">/systems/ProjectileSystem.cpp</text>
</a>
</g>
</g>
<!-- Node17&#45;&gt;Node19 -->
<g id="edge29_Node000017_Node000019" class="edge">
<title>Node17&#45;&gt;Node19</title>
<g id="a_edge29_Node000017_Node000019"><a xlink:title=" ">
<path fill="none" stroke="#63b8ff" d="M1186.28,-224.35C1198.33,-214.73 1211.76,-204.01 1222.97,-195.07"/>
<polygon fill="#63b8ff" stroke="#63b8ff" points="1183.83,-221.82 1178.2,-230.79 1188.2,-227.29 1183.83,-221.82"/>
</a>
</g>
</g>
<!-- Node20&#45;&gt;Node18 -->
<g id="edge31_Node000020_Node000018" class="edge">
<title>Node20&#45;&gt;Node18</title>
<g id="a_edge31_Node000020_Node000018"><a xlink:title=" ">
<path fill="none" stroke="#63b8ff" d="M1898.81,-235.32C1814.32,-222.59 1701.44,-204.93 1656.5,-195 1653.46,-194.33 1650.36,-193.6 1647.23,-192.84"/>
<polygon fill="#63b8ff" stroke="#63b8ff" points="1898.29,-238.79 1908.7,-236.81 1899.33,-231.86 1898.29,-238.79"/>
</a>
</g>
</g>
<!-- Node20&#45;&gt;Node21 -->
<g id="edge32_Node000020_Node000021" class="edge">
<title>Node20&#45;&gt;Node21</title>
<g id="a_edge32_Node000020_Node000021"><a xlink:title=" ">
<path fill="none" stroke="#63b8ff" d="M1929.32,-227.94C1895.78,-217.46 1856.28,-205.12 1824.03,-195.04"/>
<polygon fill="#63b8ff" stroke="#63b8ff" points="1928.48,-231.35 1939.07,-230.99 1930.57,-224.67 1928.48,-231.35"/>
</a>
</g>
</g>
<!-- Node22 -->
<g id="Node000022" class="node">
<title>Node22</title>
<g id="a_Node000022"><a xlink:href="Spawn_8cpp.html" target="_top" xlink:title=" ">
<polygon fill="white" stroke="#666666" points="2253,-195 2068,-195 2068,-154 2253,-154 2253,-195"/>
<text text-anchor="start" x="2076" y="-183" font-family="Helvetica,sans-Serif" font-size="10.00">/home/runner/work/R</text>
<text text-anchor="start" x="2076" y="-172" font-family="Helvetica,sans-Serif" font-size="10.00">&#45;Type/R&#45;Type/Shared</text>
<text text-anchor="middle" x="2160.5" y="-161" font-family="Helvetica,sans-Serif" font-size="10.00">/systems/SpawnEnemy/Spawn.cpp</text>
</a>
</g>
</g>
<!-- Node20&#45;&gt;Node22 -->
<g id="edge33_Node000020_Node000022" class="edge">
<title>Node20&#45;&gt;Node22</title>
<g id="a_edge33_Node000020_Node000022"><a xlink:title=" ">
<path fill="none" stroke="#63b8ff" d="M2051.91,-226.72C2073.55,-216.51 2098.53,-204.73 2119.07,-195.04"/>
<polygon fill="#63b8ff" stroke="#63b8ff" points="2050.41,-223.56 2042.86,-230.99 2053.4,-229.89 2050.41,-223.56"/>
</a>
</g>
</g>
<!-- Node23 -->
<g id="Node000023" class="node">
<title>Node23</title>
<g id="a_Node000023"><a xlink:href="WaveSystem_8cpp.html" target="_top" xlink:title=" ">
<polygon fill="white" stroke="#666666" points="2049.5,-195 1901.5,-195 1901.5,-154 2049.5,-154 2049.5,-195"/>
<text text-anchor="start" x="1909.5" y="-183" font-family="Helvetica,sans-Serif" font-size="10.00">/home/runner/work/R</text>
<text text-anchor="start" x="1909.5" y="-172" font-family="Helvetica,sans-Serif" font-size="10.00">&#45;Type/R&#45;Type/Shared</text>
<text text-anchor="middle" x="1975.5" y="-161" font-family="Helvetica,sans-Serif" font-size="10.00">/systems/WaveSystem.cpp</text>
</a>
</g>
</g>
<!-- Node20&#45;&gt;Node23 -->
<g id="edge34_Node000020_Node000023" class="edge">
<title>Node20&#45;&gt;Node23</title>
<g id="a_edge34_Node000020_Node000023"><a xlink:title=" ">
<path fill="none" stroke="#63b8ff" d="M1991.36,-221.26C1988.32,-212.48 1985.06,-203.07 1982.29,-195.07"/>
<polygon fill="#63b8ff" stroke="#63b8ff" points="1988.09,-222.49 1994.67,-230.79 1994.7,-220.2 1988.09,-222.49"/>
</a>
</g>
</g>
<!-- Node24&#45;&gt;Node18 -->
<g id="edge37_Node000024_Node000018" class="edge">
<title>Node24&#45;&gt;Node18</title>
<g id="a_edge37_Node000024_Node000018"><a xlink:title=" ">
<path fill="none" stroke="#63b8ff" d="M1703.23,-226.86C1680.15,-216.62 1653.46,-204.77 1631.53,-195.04"/>
<polygon fill="#63b8ff" stroke="#63b8ff" points="1701.98,-230.13 1712.54,-230.99 1704.82,-223.73 1701.98,-230.13"/>
</a>
</g>
</g>
<!-- Node24&#45;&gt;Node21 -->
<g id="edge38_Node000024_Node000021" class="edge">
<title>Node24&#45;&gt;Node21</title>
<g id="a_edge38_Node000024_Node000021"><a xlink:title=" ">
<path fill="none" stroke="#63b8ff" d="M1758.49,-220.69C1759.06,-212.08 1759.67,-202.9 1760.2,-195.07"/>
<polygon fill="#63b8ff" stroke="#63b8ff" points="1754.99,-220.58 1757.81,-230.79 1761.97,-221.05 1754.99,-220.58"/>
</a>
</g>
</g>
<!-- Node25&#45;&gt;Node14 -->
<g id="edge40_Node000025_Node000014" class="edge">
<title>Node25&#45;&gt;Node14</title>
<g id="a_edge40_Node000025_Node000014"><a xlink:title=" ">
<path fill="none" stroke="#63b8ff" d="M1259.16,-228.21C1221.65,-217.68 1177.26,-205.21 1141.07,-195.04"/>
<polygon fill="#63b8ff" stroke="#63b8ff" points="1258.47,-231.66 1269.05,-230.99 1260.37,-224.92 1258.47,-231.66"/>
</a>
</g>
</g>
<!-- Node25&#45;&gt;Node18 -->
<g id="edge41_Node000025_Node000018" class="edge">
<title>Node25&#45;&gt;Node18</title>
<g id="a_edge41_Node000025_Node000018"><a xlink:title=" ">
<path fill="none" stroke="#63b8ff" d="M1412.93,-228.08C1449.62,-217.03 1493.27,-203.88 1527.75,-193.5"/>
<polygon fill="#63b8ff" stroke="#63b8ff" points="1411.84,-224.76 1403.27,-230.99 1413.86,-231.46 1411.84,-224.76"/>
</a>
</g>
</g>
<!-- Node26 -->
<g id="Node000026" class="node">
<title>Node26</title>
<g id="a_Node000026"><a xlink:href="WeaponSystem_8cpp.html" target="_top" xlink:title=" ">
<polygon fill="white" stroke="#666666" points="1509.5,-195 1349.5,-195 1349.5,-154 1509.5,-154 1509.5,-195"/>
<text text-anchor="start" x="1357.5" y="-183" font-family="Helvetica,sans-Serif" font-size="10.00">/home/runner/work/R</text>
<text text-anchor="start" x="1357.5" y="-172" font-family="Helvetica,sans-Serif" font-size="10.00">&#45;Type/R&#45;Type/Shared</text>
<text text-anchor="middle" x="1429.5" y="-161" font-family="Helvetica,sans-Serif" font-size="10.00">/systems/WeaponSystem.cpp</text>
</a>
</g>
</g>
<!-- Node25&#45;&gt;Node26 -->
<g id="edge42_Node000025_Node000026" class="edge">
<title>Node25&#45;&gt;Node26</title>
<g id="a_edge42_Node000025_Node000026"><a xlink:title=" ">
<path fill="none" stroke="#63b8ff" d="M1370.23,-224.35C1381.9,-214.73 1394.9,-204.01 1405.75,-195.07"/>
<polygon fill="#63b8ff" stroke="#63b8ff" points="1367.9,-221.73 1362.41,-230.79 1372.35,-227.14 1367.9,-221.73"/>
</a>
</g>
</g>
<!-- Node27&#45;&gt;Node14 -->
<g id="edge49_Node000027_Node000014" class="edge">
<title>Node27&#45;&gt;Node14</title>
<g id="a_edge49_Node000027_Node000014"><a xlink:title=" ">
<path fill="none" stroke="#63b8ff" d="M1426.82,-230.78C1306.13,-210.62 1272.74,-216.29 1155.5,-195 1152.26,-194.41 1148.96,-193.78 1145.62,-193.12"/>
<polygon fill="#63b8ff" stroke="#63b8ff" points="1426.37,-234.25 1436.82,-232.47 1427.54,-227.35 1426.37,-234.25"/>
</a>
</g>
</g>
<!-- Node27&#45;&gt;Node18 -->
<g id="edge50_Node000027_Node000018" class="edge">
<title>Node27&#45;&gt;Node18</title>
<g id="a_edge50_Node000027_Node000018"><a xlink:title=" ">
<path fill="none" stroke="#63b8ff" d="M1544.86,-223.23C1553.19,-213.91 1562.34,-203.67 1570.01,-195.07"/>
<polygon fill="#63b8ff" stroke="#63b8ff" points="1542.16,-221.01 1538.1,-230.79 1547.38,-225.67 1542.16,-221.01"/>
</a>
</g>
</g>
<!-- Node27&#45;&gt;Node19 -->
<g id="edge52_Node000027_Node000019" class="edge">
<title>Node27&#45;&gt;Node19</title>
<g id="a_edge52_Node000027_Node000019"><a xlink:title=" ">
<path fill="none" stroke="#63b8ff" d="M1439.38,-228.21C1401.02,-217.68 1355.63,-205.21 1318.63,-195.04"/>
<polygon fill="#63b8ff" stroke="#63b8ff" points="1438.92,-231.72 1449.49,-230.99 1440.77,-224.97 1438.92,-231.72"/>
</a>
</g>
</g>
<!-- Node27&#45;&gt;Node21 -->
<g id="edge51_Node000027_Node000021" class="edge">
<title>Node27&#45;&gt;Node21</title>
<g id="a_edge51_Node000027_Node000021"><a xlink:title=" ">
<path fill="none" stroke="#63b8ff" d="M1592.98,-227.94C1626.66,-217.46 1666.32,-205.12 1698.7,-195.04"/>
<polygon fill="#63b8ff" stroke="#63b8ff" points="1591.7,-224.68 1583.19,-230.99 1593.78,-231.36 1591.7,-224.68"/>
</a>
</g>
</g>
<!-- Node27&#45;&gt;Node26 -->
<g id="edge53_Node000027_Node000026" class="edge">
<title>Node27&#45;&gt;Node26</title>
<g id="a_edge53_Node000027_Node000026"><a xlink:title=" ">
<path fill="none" stroke="#63b8ff" d="M1488.77,-224.35C1477.1,-214.73 1464.1,-204.01 1453.25,-195.07"/>
<polygon fill="#63b8ff" stroke="#63b8ff" points="1486.65,-227.14 1496.59,-230.79 1491.1,-221.73 1486.65,-227.14"/>
</a>
</g>
</g>
</g>
</svg>
