<?xml version="1.0" encoding="UTF-8" standalone="no"?>
<!DOCTYPE svg PUBLIC "-//W3C//DTD SVG 1.1//EN"
 "http://www.w3.org/Graphics/SVG/1.1/DTD/svg11.dtd">
<!-- Generated by graphviz version 2.43.0 (0)
 -->
<!-- Title: /home/runner/work/R&#45;Type/R&#45;Type/Shared/systems/ProjectileSystem.cpp Pages: 1 -->
<svg width="1564pt" height="335pt"
 viewBox="0.00 0.00 1563.73 335.00" xmlns="http://www.w3.org/2000/svg" xmlns:xlink="http://www.w3.org/1999/xlink">
<g id="graph0" class="graph" transform="scale(1 1) rotate(0) translate(4 331)">
<title>/home/runner/work/R&#45;Type/R&#45;Type/Shared/systems/ProjectileSystem.cpp</title>
<!-- Node1 -->
<g id="Node000001" class="node">
<title>Node1</title>
<g id="a_Node000001"><a xlink:title=" ">
<polygon fill="#999999" stroke="#666666" points="1061.73,-327 894.73,-327 894.73,-286 1061.73,-286 1061.73,-327"/>
<text text-anchor="start" x="902.73" y="-315" font-family="Helvetica,sans-Serif" font-size="10.00">/home/runner/work/R</text>
<text text-anchor="start" x="902.73" y="-304" font-family="Helvetica,sans-Serif" font-size="10.00">&#45;Type/R&#45;Type/Shared</text>
<text text-anchor="middle" x="978.23" y="-293" font-family="Helvetica,sans-Serif" font-size="10.00">/systems/ProjectileSystem.cpp</text>
</a>
</g>
</g>
<!-- Node2 -->
<g id="Node000002" class="node">
<title>Node2</title>
<g id="a_Node000002"><a xlink:href="ProjectileSystem_8hpp.html" target="_top" xlink:title=" ">
<polygon fill="white" stroke="#666666" points="738.23,-250 574.23,-250 574.23,-231 738.23,-231 738.23,-250"/>
<text text-anchor="middle" x="656.23" y="-238" font-family="Helvetica,sans-Serif" font-size="10.00">systems/ProjectileSystem.hpp</text>
</a>
</g>
</g>
<!-- Node1&#45;&gt;Node2 -->
<g id="edge1_Node000001_Node000002" class="edge">
<title>Node1&#45;&gt;Node2</title>
<g id="a_edge1_Node000001_Node000002"><a xlink:title=" ">
<path fill="none" stroke="#63b8ff" d="M894.47,-288.85C835.89,-277.21 759.44,-262.01 709.14,-252.02"/>
<polygon fill="#63b8ff" stroke="#63b8ff" points="709.63,-248.54 699.14,-250.03 708.26,-255.41 709.63,-248.54"/>
</a>
</g>
</g>
<!-- Node6 -->
<g id="Node000006" class="node">
<title>Node6</title>
<g id="a_Node000006"><a xlink:title=" ">
<polygon fill="#e0e0e0" stroke="#999999" points="1078.23,-250 1006.23,-250 1006.23,-231 1078.23,-231 1078.23,-250"/>
<text text-anchor="middle" x="1042.23" y="-238" font-family="Helvetica,sans-Serif" font-size="10.00">SDL2/SDL.h</text>
</a>
</g>
</g>
<!-- Node1&#45;&gt;Node6 -->
<g id="edge6_Node000001_Node000006" class="edge">
<title>Node1&#45;&gt;Node6</title>
<g id="a_edge6_Node000001_Node000006"><a xlink:title=" ">
<path fill="none" stroke="#63b8ff" d="M997.78,-285.95C1006.9,-276.83 1017.62,-266.11 1026.24,-257.49"/>
<polygon fill="#63b8ff" stroke="#63b8ff" points="1028.87,-259.81 1033.47,-250.26 1023.92,-254.86 1028.87,-259.81"/>
</a>
</g>
</g>
<!-- Node7 -->
<g id="Node000007" class="node">
<title>Node7</title>
<g id="a_Node000007"><a xlink:title=" ">
<polygon fill="#e0e0e0" stroke="#999999" points="900.23,-134.5 836.23,-134.5 836.23,-115.5 900.23,-115.5 900.23,-134.5"/>
<text text-anchor="middle" x="868.23" y="-122.5" font-family="Helvetica,sans-Serif" font-size="10.00">algorithm</text>
</a>
</g>
</g>
<!-- Node1&#45;&gt;Node7 -->
<g id="edge7_Node000001_Node000007" class="edge">
<title>Node1&#45;&gt;Node7</title>
<g id="a_edge7_Node000001_Node000007"><a xlink:title=" ">
<path fill="none" stroke="#63b8ff" d="M972.31,-285.81C963.75,-259.29 946.16,-211.32 921.23,-176 911.81,-162.66 898.42,-150.06 887.45,-140.84"/>
<polygon fill="#63b8ff" stroke="#63b8ff" points="889.61,-138.09 879.64,-134.5 885.2,-143.52 889.61,-138.09"/>
</a>
</g>
</g>
<!-- Node8 -->
<g id="Node000008" class="node">
<title>Node8</title>
<g id="a_Node000008"><a xlink:title=" ">
<polygon fill="#e0e0e0" stroke="#999999" points="1156.23,-250 1096.23,-250 1096.23,-231 1156.23,-231 1156.23,-250"/>
<text text-anchor="middle" x="1126.23" y="-238" font-family="Helvetica,sans-Serif" font-size="10.00">iostream</text>
</a>
</g>
</g>
<!-- Node1&#45;&gt;Node8 -->
<g id="edge8_Node000001_Node000008" class="edge">
<title>Node1&#45;&gt;Node8</title>
<g id="a_edge8_Node000001_Node000008"><a xlink:title=" ">
<path fill="none" stroke="#63b8ff" d="M1023.44,-285.95C1047.36,-275.6 1076.04,-263.2 1097.02,-254.13"/>
<polygon fill="#63b8ff" stroke="#63b8ff" points="1098.57,-257.27 1106.36,-250.09 1095.79,-250.85 1098.57,-257.27"/>
</a>
</g>
</g>
<!-- Node9 -->
<g id="Node000009" class="node">
<title>Node9</title>
<g id="a_Node000009"><a xlink:title=" ">
<polygon fill="#e0e0e0" stroke="#999999" points="1218.23,-250 1174.23,-250 1174.23,-231 1218.23,-231 1218.23,-250"/>
<text text-anchor="middle" x="1196.23" y="-238" font-family="Helvetica,sans-Serif" font-size="10.00">string</text>
</a>
</g>
</g>
<!-- Node1&#45;&gt;Node9 -->
<g id="edge9_Node000001_Node000009" class="edge">
<title>Node1&#45;&gt;Node9</title>
<g id="a_edge9_Node000001_Node000009"><a xlink:title=" ">
<path fill="none" stroke="#63b8ff" d="M1044.82,-285.95C1084.42,-274.32 1132.87,-260.1 1164.12,-250.93"/>
<polygon fill="#63b8ff" stroke="#63b8ff" points="1165.42,-254.19 1174.03,-248.02 1163.45,-247.48 1165.42,-254.19"/>
</a>
</g>
</g>
<!-- Node10 -->
<g id="Node000010" class="node">
<title>Node10</title>
<g id="a_Node000010"><a xlink:title=" ">
<polygon fill="#e0e0e0" stroke="#999999" points="1281.73,-250 1236.73,-250 1236.73,-231 1281.73,-231 1281.73,-250"/>
<text text-anchor="middle" x="1259.23" y="-238" font-family="Helvetica,sans-Serif" font-size="10.00">utility</text>
</a>
</g>
</g>
<!-- Node1&#45;&gt;Node10 -->
<g id="edge10_Node000001_Node000010" class="edge">
<title>Node1&#45;&gt;Node10</title>
<g id="a_edge10_Node000001_Node000010"><a xlink:title=" ">
<path fill="none" stroke="#63b8ff" d="M1061.99,-287.71C1107.94,-277.75 1166.11,-264.79 1226.78,-250.03"/>
<polygon fill="#63b8ff" stroke="#63b8ff" points="1227.65,-253.42 1236.53,-247.65 1225.99,-246.62 1227.65,-253.42"/>
</a>
</g>
</g>
<!-- Node11 -->
<g id="Node000011" class="node">
<title>Node11</title>
<g id="a_Node000011"><a xlink:title=" ">
<polygon fill="#e0e0e0" stroke="#999999" points="1346.73,-250 1299.73,-250 1299.73,-231 1346.73,-231 1346.73,-250"/>
<text text-anchor="middle" x="1323.23" y="-238" font-family="Helvetica,sans-Serif" font-size="10.00">vector</text>
</a>
</g>
</g>
<!-- Node1&#45;&gt;Node11 -->
<g id="edge11_Node000001_Node000011" class="edge">
<title>Node1&#45;&gt;Node11</title>
<g id="a_edge11_Node000001_Node000011"><a xlink:title=" ">
<path fill="none" stroke="#63b8ff" d="M1061.97,-292.62C1122.82,-282.8 1207.31,-268.23 1289.74,-250.19"/>
<polygon fill="#63b8ff" stroke="#63b8ff" points="1290.51,-253.61 1299.52,-248.04 1289,-246.77 1290.51,-253.61"/>
</a>
</g>
</g>
<!-- Node12 -->
<g id="Node000012" class="node">
<title>Node12</title>
<g id="a_Node000012"><a xlink:href="Enemy_8hpp.html" target="_top" xlink:title=" ">
<polygon fill="white" stroke="#666666" points="120.23,-195 16.23,-195 16.23,-176 120.23,-176 120.23,-195"/>
<text text-anchor="middle" x="68.23" y="-183" font-family="Helvetica,sans-Serif" font-size="10.00">Player/Enemy.hpp</text>
</a>
</g>
</g>
<!-- Node1&#45;&gt;Node12 -->
<g id="edge12_Node000001_Node000012" class="edge">
<title>Node1&#45;&gt;Node12</title>
<g id="a_edge12_Node000001_Node000012"><a xlink:title=" ">
<path fill="none" stroke="#63b8ff" d="M894.56,-303.25C694.98,-297.43 202.53,-280.16 134.23,-250 111.37,-239.9 91.71,-218.27 79.93,-203.07"/>
<polygon fill="#63b8ff" stroke="#63b8ff" points="82.71,-200.95 73.94,-195 77.09,-205.12 82.71,-200.95"/>
</a>
</g>
</g>
<!-- Node13 -->
<g id="Node000013" class="node">
<title>Node13</title>
<g id="a_Node000013"><a xlink:href="BossPart_8hpp.html" target="_top" xlink:title=" ">
<polygon fill="white" stroke="#666666" points="157.73,-134.5 14.73,-134.5 14.73,-115.5 157.73,-115.5 157.73,-134.5"/>
<text text-anchor="middle" x="86.23" y="-122.5" font-family="Helvetica,sans-Serif" font-size="10.00">components/BossPart.hpp</text>
</a>
</g>
</g>
<!-- Node1&#45;&gt;Node13 -->
<g id="edge14_Node000001_Node000013" class="edge">
<title>Node1&#45;&gt;Node13</title>
<g id="a_edge14_Node000001_Node000013"><a xlink:title=" ">
<path fill="none" stroke="#63b8ff" d="M894.54,-302.83C735.48,-297.09 395.28,-281.48 282.23,-250 207.81,-229.27 134.85,-169.97 102.96,-141.55"/>
<polygon fill="#63b8ff" stroke="#63b8ff" points="105.19,-138.84 95.43,-134.72 100.49,-144.03 105.19,-138.84"/>
</a>
</g>
</g>
<!-- Node15 -->
<g id="Node000015" class="node">
<title>Node15</title>
<g id="a_Node000015"><a xlink:title=" ">
<polygon fill="#e0e0e0" stroke="#999999" points="912.23,-195 824.23,-195 824.23,-176 912.23,-176 912.23,-195"/>
<text text-anchor="middle" x="868.23" y="-183" font-family="Helvetica,sans-Serif" font-size="10.00">ecs/Zipper.hpp</text>
</a>
</g>
</g>
<!-- Node1&#45;&gt;Node15 -->
<g id="edge17_Node000001_Node000015" class="edge">
<title>Node1&#45;&gt;Node15</title>
<g id="a_edge17_Node000001_Node000015"><a xlink:title=" ">
<path fill="none" stroke="#63b8ff" d="M965.03,-285.9C954.11,-270.3 937.77,-248.31 921.23,-231 910.98,-220.28 898.3,-209.55 887.9,-201.31"/>
<polygon fill="#63b8ff" stroke="#63b8ff" points="889.86,-198.4 879.82,-195.04 885.57,-203.93 889.86,-198.4"/>
</a>
</g>
</g>
<!-- Node16 -->
<g id="Node000016" class="node">
<title>Node16</title>
<g id="a_Node000016"><a xlink:title=" ">
<polygon fill="#e0e0e0" stroke="#999999" points="1555.73,-250 1364.73,-250 1364.73,-231 1555.73,-231 1555.73,-250"/>
<text text-anchor="middle" x="1460.23" y="-238" font-family="Helvetica,sans-Serif" font-size="10.00">rendering/RenderingSubsystem.hpp</text>
</a>
</g>
</g>
<!-- Node1&#45;&gt;Node16 -->
<g id="edge18_Node000001_Node000016" class="edge">
<title>Node1&#45;&gt;Node16</title>
<g id="a_edge18_Node000001_Node000016"><a xlink:title=" ">
<path fill="none" stroke="#63b8ff" d="M1061.91,-294.39C1153.32,-282.25 1298.35,-262.99 1385.89,-251.37"/>
<polygon fill="#63b8ff" stroke="#63b8ff" points="1386.56,-254.81 1396.02,-250.03 1385.64,-247.87 1386.56,-254.81"/>
</a>
</g>
</g>
<!-- Node17 -->
<g id="Node000017" class="node">
<title>Node17</title>
<g id="a_Node000017"><a xlink:href="Collision_8hpp.html" target="_top" xlink:title=" ">
<polygon fill="white" stroke="#666666" points="460.73,-250 291.73,-250 291.73,-231 460.73,-231 460.73,-250"/>
<text text-anchor="middle" x="376.23" y="-238" font-family="Helvetica,sans-Serif" font-size="10.00">systems/Collision/Collision.hpp</text>
</a>
</g>
</g>
<!-- Node1&#45;&gt;Node17 -->
<g id="edge19_Node000001_Node000017" class="edge">
<title>Node1&#45;&gt;Node17</title>
<g id="a_edge19_Node000001_Node000017"><a xlink:title=" ">
<path fill="none" stroke="#63b8ff" d="M894.53,-296.6C781.94,-284.63 582.51,-263.43 466.61,-251.11"/>
<polygon fill="#63b8ff" stroke="#63b8ff" points="466.66,-247.59 456.35,-250.02 465.92,-254.55 466.66,-247.59"/>
</a>
</g>
</g>
<!-- Node23 -->
<g id="Node000023" class="node">
<title>Node23</title>
<g id="a_Node000023"><a xlink:href="PhysicsSystem_8hpp.html" target="_top" xlink:title=" ">
<polygon fill="white" stroke="#666666" points="911.73,-250 756.73,-250 756.73,-231 911.73,-231 911.73,-250"/>
<text text-anchor="middle" x="834.23" y="-238" font-family="Helvetica,sans-Serif" font-size="10.00">systems/PhysicsSystem.hpp</text>
</a>
</g>
</g>
<!-- Node1&#45;&gt;Node23 -->
<g id="edge37_Node000001_Node000023" class="edge">
<title>Node1&#45;&gt;Node23</title>
<g id="a_edge37_Node000001_Node000023"><a xlink:title=" ">
<path fill="none" stroke="#63b8ff" d="M934.24,-285.95C911.07,-275.65 883.31,-263.31 862.93,-254.25"/>
<polygon fill="#63b8ff" stroke="#63b8ff" points="864.12,-250.95 853.56,-250.09 861.28,-257.35 864.12,-250.95"/>
</a>
</g>
</g>
<!-- Node3 -->
<g id="Node000003" class="node">
<title>Node3</title>
<g id="a_Node000003"><a xlink:title=" ">
<polygon fill="#e0e0e0" stroke="#999999" points="545.23,-19 417.23,-19 417.23,0 545.23,0 545.23,-19"/>
<text text-anchor="middle" x="481.23" y="-7" font-family="Helvetica,sans-Serif" font-size="10.00">physics/Physics2D.hpp</text>
</a>
</g>
</g>
<!-- Node2&#45;&gt;Node3 -->
<g id="edge2_Node000002_Node000003" class="edge">
<title>Node2&#45;&gt;Node3</title>
<g id="a_edge2_Node000002_Node000003"><a xlink:title=" ">
<path fill="none" stroke="#63b8ff" d="M700.99,-230.92C721.18,-224.58 743.15,-213.67 755.23,-195 759.82,-187.91 757.88,-184.02 755.23,-176 733.68,-110.82 717.6,-91.13 659.23,-55 628.18,-35.78 589.25,-24.85 555.71,-18.64"/>
<polygon fill="#63b8ff" stroke="#63b8ff" points="555.95,-15.13 545.49,-16.86 554.74,-22.02 555.95,-15.13"/>
</a>
</g>
</g>
<!-- Node4 -->
<g id="Node000004" class="node">
<title>Node4</title>
<g id="a_Node000004"><a xlink:href="Projectile_8hpp.html" target="_top" xlink:title=" ">
<polygon fill="white" stroke="#666666" points="632.23,-74 452.23,-74 452.23,-55 632.23,-55 632.23,-74"/>
<text text-anchor="middle" x="542.23" y="-62" font-family="Helvetica,sans-Serif" font-size="10.00">components/Player/Projectile.hpp</text>
</a>
</g>
</g>
<!-- Node2&#45;&gt;Node4 -->
<g id="edge3_Node000002_Node000004" class="edge">
<title>Node2&#45;&gt;Node4</title>
<g id="a_edge3_Node000002_Node000004"><a xlink:title=" ">
<path fill="none" stroke="#63b8ff" d="M686.05,-230.99C715.12,-220.99 753.08,-202.33 739.23,-176 709.92,-120.27 639.87,-90.98 591.72,-76.88"/>
<polygon fill="#63b8ff" stroke="#63b8ff" points="592.37,-73.43 581.8,-74.1 590.48,-80.17 592.37,-73.43"/>
</a>
</g>
</g>
<!-- Node5 -->
<g id="Node000005" class="node">
<title>Node5</title>
<g id="a_Node000005"><a xlink:title=" ">
<polygon fill="#e0e0e0" stroke="#999999" points="730.23,-195 634.23,-195 634.23,-176 730.23,-176 730.23,-195"/>
<text text-anchor="middle" x="682.23" y="-183" font-family="Helvetica,sans-Serif" font-size="10.00">ecs/Registry.hpp</text>
</a>
</g>
</g>
<!-- Node2&#45;&gt;Node5 -->
<g id="edge5_Node000002_Node000005" class="edge">
<title>Node2&#45;&gt;Node5</title>
<g id="a_edge5_Node000002_Node000005"><a xlink:title=" ">
<path fill="none" stroke="#63b8ff" d="M660.52,-230.75C664.05,-223.57 669.14,-213.18 673.51,-204.27"/>
<polygon fill="#63b8ff" stroke="#63b8ff" points="676.76,-205.61 678.02,-195.09 670.47,-202.53 676.76,-205.61"/>
</a>
</g>
</g>
<!-- Node4&#45;&gt;Node3 -->
<g id="edge4_Node000004_Node000003" class="edge">
<title>Node4&#45;&gt;Node3</title>
<g id="a_edge4_Node000004_Node000003"><a xlink:title=" ">
<path fill="none" stroke="#63b8ff" d="M532.43,-54.98C523.41,-47.15 509.83,-35.34 498.91,-25.86"/>
<polygon fill="#63b8ff" stroke="#63b8ff" points="501.05,-23.09 491.21,-19.17 496.46,-28.37 501.05,-23.09"/>
</a>
</g>
</g>
<!-- Node12&#45;&gt;Node3 -->
<g id="edge13_Node000012_Node000003" class="edge">
<title>Node12&#45;&gt;Node3</title>
<g id="a_edge13_Node000012_Node000003"><a xlink:title=" ">
<path fill="none" stroke="#63b8ff" d="M47.08,-175.93C32.4,-168.73 13.98,-156.88 5.23,-140 -0.9,-128.16 -2.16,-121.09 5.23,-110 49.19,-44.07 284.63,-21.33 407.09,-13.89"/>
<polygon fill="#63b8ff" stroke="#63b8ff" points="407.37,-17.38 417.15,-13.3 406.96,-10.39 407.37,-17.38"/>
</a>
</g>
</g>
<!-- Node13&#45;&gt;Node3 -->
<g id="edge15_Node000013_Node000003" class="edge">
<title>Node13&#45;&gt;Node3</title>
<g id="a_edge15_Node000013_Node000003"><a xlink:title=" ">
<path fill="none" stroke="#63b8ff" d="M93.78,-115.49C107.66,-100.48 138.87,-69.48 172.23,-55 247.74,-22.22 342.41,-12.67 406.93,-10.33"/>
<polygon fill="#63b8ff" stroke="#63b8ff" points="407.13,-13.82 417.02,-10.01 406.91,-6.83 407.13,-13.82"/>
</a>
</g>
</g>
<!-- Node14 -->
<g id="Node000014" class="node">
<title>Node14</title>
<g id="a_Node000014"><a xlink:title=" ">
<polygon fill="#e0e0e0" stroke="#999999" points="326.23,-74 242.23,-74 242.23,-55 326.23,-55 326.23,-74"/>
<text text-anchor="middle" x="284.23" y="-62" font-family="Helvetica,sans-Serif" font-size="10.00">ecs/Entity.hpp</text>
</a>
</g>
</g>
<!-- Node13&#45;&gt;Node14 -->
<g id="edge16_Node000013_Node000014" class="edge">
<title>Node13&#45;&gt;Node14</title>
<g id="a_edge16_Node000013_Node000014"><a xlink:title=" ">
<path fill="none" stroke="#63b8ff" d="M115.02,-115.49C149.48,-105.31 207.32,-88.22 245.63,-76.9"/>
<polygon fill="#63b8ff" stroke="#63b8ff" points="246.81,-80.21 255.41,-74.02 244.82,-73.49 246.81,-80.21"/>
</a>
</g>
</g>
<!-- Node17&#45;&gt;Node3 -->
<g id="edge34_Node000017_Node000003" class="edge">
<title>Node17&#45;&gt;Node3</title>
<g id="a_edge34_Node000017_Node000003"><a xlink:title=" ">
<path fill="none" stroke="#63b8ff" d="M359.74,-230.9C343.08,-222.13 316.65,-208 294.23,-195 254,-171.68 227.88,-180.61 205.23,-140 198.74,-128.35 202.12,-122.97 205.23,-110 211.63,-83.33 211.21,-71.35 233.23,-55 260.18,-34.99 343.93,-22.98 406.71,-16.57"/>
<polygon fill="#63b8ff" stroke="#63b8ff" points="407.38,-20.02 416.98,-15.55 406.68,-13.05 407.38,-20.02"/>
</a>
</g>
</g>
<!-- Node17&#45;&gt;Node4 -->
<g id="edge33_Node000017_Node000004" class="edge">
<title>Node17&#45;&gt;Node4</title>
<g id="a_edge33_Node000017_Node000004"><a xlink:title=" ">
<path fill="none" stroke="#63b8ff" d="M367.07,-230.58C354.86,-217.61 336.23,-193.2 349.23,-176 384.61,-129.2 426.56,-171.21 476.23,-140 499.69,-125.26 519.65,-99.77 531.29,-82.77"/>
<polygon fill="#63b8ff" stroke="#63b8ff" points="534.28,-84.59 536.88,-74.32 528.44,-80.73 534.28,-84.59"/>
</a>
</g>
</g>
<!-- Node17&#45;&gt;Node5 -->
<g id="edge35_Node000017_Node000005" class="edge">
<title>Node17&#45;&gt;Node5</title>
<g id="a_edge35_Node000017_Node000005"><a xlink:title=" ">
<path fill="none" stroke="#63b8ff" d="M425.4,-230.98C479.58,-221.6 566.67,-206.52 624.17,-196.56"/>
<polygon fill="#63b8ff" stroke="#63b8ff" points="624.94,-199.97 634.2,-194.82 623.75,-193.08 624.94,-199.97"/>
</a>
</g>
</g>
<!-- Node17&#45;&gt;Node12 -->
<g id="edge26_Node000017_Node000012" class="edge">
<title>Node17&#45;&gt;Node12</title>
<g id="a_edge26_Node000017_Node000012"><a xlink:title=" ">
<path fill="none" stroke="#63b8ff" d="M326.75,-230.98C272.61,-221.67 185.83,-206.74 127.95,-196.78"/>
<polygon fill="#63b8ff" stroke="#63b8ff" points="128.3,-193.28 117.85,-195.04 127.11,-200.18 128.3,-193.28"/>
</a>
</g>
</g>
<!-- Node17&#45;&gt;Node15 -->
<g id="edge36_Node000017_Node000015" class="edge">
<title>Node17&#45;&gt;Node15</title>
<g id="a_edge36_Node000017_Node000015"><a xlink:title=" ">
<path fill="none" stroke="#63b8ff" d="M455.28,-230.98C555.77,-220.16 726.65,-201.75 813.72,-192.37"/>
<polygon fill="#63b8ff" stroke="#63b8ff" points="814.35,-195.82 823.92,-191.27 813.6,-188.87 814.35,-195.82"/>
</a>
</g>
</g>
<!-- Node18 -->
<g id="Node000018" class="node">
<title>Node18</title>
<g id="a_Node000018"><a xlink:href="CollisionController_8hpp.html" target="_top" xlink:title=" ">
<polygon fill="white" stroke="#666666" points="354.23,-140 214.23,-140 214.23,-110 354.23,-110 354.23,-140"/>
<text text-anchor="start" x="222.23" y="-128" font-family="Helvetica,sans-Serif" font-size="10.00">../../components/Collision</text>
<text text-anchor="middle" x="284.23" y="-117" font-family="Helvetica,sans-Serif" font-size="10.00">/CollisionController.hpp</text>
</a>
</g>
</g>
<!-- Node17&#45;&gt;Node18 -->
<g id="edge20_Node000017_Node000018" class="edge">
<title>Node17&#45;&gt;Node18</title>
<g id="a_edge20_Node000017_Node000018"><a xlink:title=" ">
<path fill="none" stroke="#63b8ff" d="M357.03,-230.95C342.12,-223.42 321.91,-211.14 309.23,-195 299.01,-181.99 292.72,-164.42 289.01,-150.26"/>
<polygon fill="#63b8ff" stroke="#63b8ff" points="292.35,-149.17 286.65,-140.24 285.53,-150.77 292.35,-149.17"/>
</a>
</g>
</g>
<!-- Node19 -->
<g id="Node000019" class="node">
<title>Node19</title>
<g id="a_Node000019"><a xlink:href="Items_8hpp.html" target="_top" xlink:title=" ">
<polygon fill="white" stroke="#666666" points="616.23,-195 506.23,-195 506.23,-176 616.23,-176 616.23,-195"/>
<text text-anchor="middle" x="561.23" y="-183" font-family="Helvetica,sans-Serif" font-size="10.00">Collision/Items.hpp</text>
</a>
</g>
</g>
<!-- Node17&#45;&gt;Node19 -->
<g id="edge22_Node000017_Node000019" class="edge">
<title>Node17&#45;&gt;Node19</title>
<g id="a_edge22_Node000017_Node000019"><a xlink:title=" ">
<path fill="none" stroke="#63b8ff" d="M405.95,-230.98C437.28,-222.01 486.8,-207.82 521.47,-197.89"/>
<polygon fill="#63b8ff" stroke="#63b8ff" points="522.63,-201.2 531.27,-195.08 520.7,-194.47 522.63,-201.2"/>
</a>
</g>
</g>
<!-- Node20 -->
<g id="Node000020" class="node">
<title>Node20</title>
<g id="a_Node000020"><a xlink:href="Boss_8hpp.html" target="_top" xlink:title=" ">
<polygon fill="white" stroke="#666666" points="467.73,-134.5 372.73,-134.5 372.73,-115.5 467.73,-115.5 467.73,-134.5"/>
<text text-anchor="middle" x="420.23" y="-122.5" font-family="Helvetica,sans-Serif" font-size="10.00">Player/Boss.hpp</text>
</a>
</g>
</g>
<!-- Node17&#45;&gt;Node20 -->
<g id="edge23_Node000017_Node000020" class="edge">
<title>Node17&#45;&gt;Node20</title>
<g id="a_edge23_Node000017_Node000020"><a xlink:title=" ">
<path fill="none" stroke="#63b8ff" d="M356.99,-230.81C334.57,-219.4 302.26,-198.21 316.23,-176 328.11,-157.11 349.33,-145.2 369.52,-137.76"/>
<polygon fill="#63b8ff" stroke="#63b8ff" points="370.65,-141.07 379,-134.55 368.4,-134.44 370.65,-141.07"/>
</a>
</g>
</g>
<!-- Node21 -->
<g id="Node000021" class="node">
<title>Node21</title>
<g id="a_Node000021"><a xlink:href="PlayerEntity_8hpp.html" target="_top" xlink:title=" ">
<polygon fill="white" stroke="#666666" points="487.73,-195 358.73,-195 358.73,-176 487.73,-176 487.73,-195"/>
<text text-anchor="middle" x="423.23" y="-183" font-family="Helvetica,sans-Serif" font-size="10.00">Player/PlayerEntity.hpp</text>
</a>
</g>
</g>
<!-- Node17&#45;&gt;Node21 -->
<g id="edge27_Node000017_Node000021" class="edge">
<title>Node17&#45;&gt;Node21</title>
<g id="a_edge27_Node000017_Node000021"><a xlink:title=" ">
<path fill="none" stroke="#63b8ff" d="M383.99,-230.75C390.7,-223.18 400.57,-212.05 408.74,-202.84"/>
<polygon fill="#63b8ff" stroke="#63b8ff" points="411.6,-204.89 415.61,-195.09 406.36,-200.25 411.6,-204.89"/>
</a>
</g>
</g>
<!-- Node18&#45;&gt;Node14 -->
<g id="edge21_Node000018_Node000014" class="edge">
<title>Node18&#45;&gt;Node14</title>
<g id="a_edge21_Node000018_Node000014"><a xlink:title=" ">
<path fill="none" stroke="#63b8ff" d="M284.23,-109.84C284.23,-102.21 284.23,-92.7 284.23,-84.45"/>
<polygon fill="#63b8ff" stroke="#63b8ff" points="287.73,-84.27 284.23,-74.27 280.73,-84.27 287.73,-84.27"/>
</a>
</g>
</g>
<!-- Node20&#45;&gt;Node3 -->
<g id="edge24_Node000020_Node000003" class="edge">
<title>Node20&#45;&gt;Node3</title>
<g id="a_edge24_Node000020_Node000003"><a xlink:title=" ">
<path fill="none" stroke="#63b8ff" d="M421.95,-115.5C424.92,-102.02 431.8,-75.23 443.23,-55 449.08,-44.65 457.52,-34.47 464.96,-26.46"/>
<polygon fill="#63b8ff" stroke="#63b8ff" points="467.5,-28.87 471.93,-19.25 462.47,-24 467.5,-28.87"/>
</a>
</g>
</g>
<!-- Node20&#45;&gt;Node14 -->
<g id="edge25_Node000020_Node000014" class="edge">
<title>Node20&#45;&gt;Node14</title>
<g id="a_edge25_Node000020_Node000014"><a xlink:title=" ">
<path fill="none" stroke="#63b8ff" d="M400.46,-115.49C377.59,-105.66 339.74,-89.38 313.48,-78.08"/>
<polygon fill="#63b8ff" stroke="#63b8ff" points="314.6,-74.75 304.03,-74.02 311.83,-81.18 314.6,-74.75"/>
</a>
</g>
</g>
<!-- Node21&#45;&gt;Node3 -->
<g id="edge32_Node000021_Node000003" class="edge">
<title>Node21&#45;&gt;Node3</title>
<g id="a_edge32_Node000021_Node000003"><a xlink:title=" ">
<path fill="none" stroke="#63b8ff" d="M485.54,-175.97C547,-166.93 633.19,-152.27 643.23,-140 651.02,-130.47 652.37,-69.12 641.23,-55 629.31,-39.88 586.27,-28.43 547.83,-20.93"/>
<polygon fill="#63b8ff" stroke="#63b8ff" points="548.14,-17.42 537.67,-19.01 546.84,-24.3 548.14,-17.42"/>
</a>
</g>
</g>
<!-- Node21&#45;&gt;Node7 -->
<g id="edge28_Node000021_Node000007" class="edge">
<title>Node21&#45;&gt;Node7</title>
<g id="a_edge28_Node000021_Node000007"><a xlink:title=" ">
<path fill="none" stroke="#63b8ff" d="M487.94,-175.99C580.45,-163.83 747.93,-141.81 826.03,-131.55"/>
<polygon fill="#63b8ff" stroke="#63b8ff" points="826.53,-135.01 835.99,-130.24 825.62,-128.07 826.53,-135.01"/>
</a>
</g>
</g>
<!-- Node21&#45;&gt;Node18 -->
<g id="edge29_Node000021_Node000018" class="edge">
<title>Node21&#45;&gt;Node18</title>
<g id="a_edge29_Node000021_Node000018"><a xlink:title=" ">
<path fill="none" stroke="#63b8ff" d="M403.02,-175.99C383.19,-167.65 352.33,-154.66 327.04,-144.02"/>
<polygon fill="#63b8ff" stroke="#63b8ff" points="328.22,-140.72 317.65,-140.06 325.51,-147.17 328.22,-140.72"/>
</a>
</g>
</g>
<!-- Node22 -->
<g id="Node000022" class="node">
<title>Node22</title>
<g id="a_Node000022"><a xlink:href="Weapon_8hpp.html" target="_top" xlink:title=" ">
<polygon fill="white" stroke="#666666" points="634.23,-134.5 524.23,-134.5 524.23,-115.5 634.23,-115.5 634.23,-134.5"/>
<text text-anchor="middle" x="579.23" y="-122.5" font-family="Helvetica,sans-Serif" font-size="10.00">Player/Weapon.hpp</text>
</a>
</g>
</g>
<!-- Node21&#45;&gt;Node22 -->
<g id="edge30_Node000021_Node000022" class="edge">
<title>Node21&#45;&gt;Node22</title>
<g id="a_edge30_Node000021_Node000022"><a xlink:title=" ">
<path fill="none" stroke="#63b8ff" d="M445.91,-175.99C472.49,-166.03 516.71,-149.45 546.87,-138.13"/>
<polygon fill="#63b8ff" stroke="#63b8ff" points="548.39,-141.31 556.52,-134.52 545.93,-134.75 548.39,-141.31"/>
</a>
</g>
</g>
<!-- Node22&#45;&gt;Node4 -->
<g id="edge31_Node000022_Node000004" class="edge">
<title>Node22&#45;&gt;Node4</title>
<g id="a_edge31_Node000022_Node000004"><a xlink:title=" ">
<path fill="none" stroke="#63b8ff" d="M573.77,-115.37C568.36,-106.81 559.92,-93.47 553.14,-82.74"/>
<polygon fill="#63b8ff" stroke="#63b8ff" points="556.02,-80.75 547.71,-74.17 550.1,-84.49 556.02,-80.75"/>
</a>
</g>
</g>
<!-- Node23&#45;&gt;Node3 -->
<g id="edge38_Node000023_Node000003" class="edge">
<title>Node23&#45;&gt;Node3</title>
<g id="a_edge38_Node000023_Node000003"><a xlink:title=" ">
<path fill="none" stroke="#63b8ff" d="M869.68,-230.99C888.49,-224.48 909.99,-213.38 921.23,-195 933.51,-174.93 935.07,-137.53 909.23,-110 861.63,-59.3 664.77,-30.35 555.38,-17.89"/>
<polygon fill="#63b8ff" stroke="#63b8ff" points="555.72,-14.4 545.39,-16.77 554.94,-21.36 555.72,-14.4"/>
</a>
</g>
</g>
<!-- Node23&#45;&gt;Node5 -->
<g id="edge39_Node000023_Node000005" class="edge">
<title>Node23&#45;&gt;Node5</title>
<g id="a_edge39_Node000023_Node000005"><a xlink:title=" ">
<path fill="none" stroke="#63b8ff" d="M809.81,-230.98C784.51,-222.16 744.78,-208.31 716.37,-198.41"/>
<polygon fill="#63b8ff" stroke="#63b8ff" points="717.44,-195.07 706.84,-195.08 715.13,-201.68 717.44,-195.07"/>
</a>
</g>
</g>
<!-- Node23&#45;&gt;Node15 -->
<g id="edge40_Node000023_Node000015" class="edge">
<title>Node23&#45;&gt;Node15</title>
<g id="a_edge40_Node000023_Node000015"><a xlink:title=" ">
<path fill="none" stroke="#63b8ff" d="M839.85,-230.75C844.55,-223.42 851.4,-212.73 857.2,-203.7"/>
<polygon fill="#63b8ff" stroke="#63b8ff" points="860.27,-205.4 862.72,-195.09 854.38,-201.62 860.27,-205.4"/>
</a>
</g>
</g>
</g>
</svg>
