<?xml version="1.0" encoding="UTF-8" standalone="no"?>
<!DOCTYPE svg PUBLIC "-//W3C//DTD SVG 1.1//EN"
 "http://www.w3.org/Graphics/SVG/1.1/DTD/svg11.dtd">
<!-- Generated by graphviz version 2.43.0 (0)
 -->
<!-- Title: /home/runner/work/R&#45;Type/R&#45;Type/Client/src/engine/graphics/RenderSystem.hpp Pages: 1 -->
<svg width="880pt" height="170pt"
 viewBox="0.00 0.00 879.50 170.00" xmlns="http://www.w3.org/2000/svg" xmlns:xlink="http://www.w3.org/1999/xlink">
<g id="graph0" class="graph" transform="scale(1 1) rotate(0) translate(4 166)">
<title>/home/runner/work/R&#45;Type/R&#45;Type/Client/src/engine/graphics/RenderSystem.hpp</title>
<!-- Node1 -->
<g id="Node000001" class="node">
<title>Node1</title>
<g id="a_Node000001"><a xlink:title=" ">
<polygon fill="#999999" stroke="#666666" points="458,-162 339,-162 339,-110 458,-110 458,-162"/>
<text text-anchor="start" x="347" y="-150" font-family="Helvetica,sans-Serif" font-size="10.00">/home/runner/work/R</text>
<text text-anchor="start" x="347" y="-139" font-family="Helvetica,sans-Serif" font-size="10.00">&#45;Type/R&#45;Type/Client</text>
<text text-anchor="start" x="347" y="-128" font-family="Helvetica,sans-Serif" font-size="10.00">/src/engine/graphics</text>
<text text-anchor="middle" x="398.5" y="-117" font-family="Helvetica,sans-Serif" font-size="10.00">/RenderSystem.hpp</text>
</a>
</g>
</g>
<!-- Node2 -->
<g id="Node000002" class="node">
<title>Node2</title>
<g id="a_Node000002"><a xlink:title=" ">
<polygon fill="#e0e0e0" stroke="#999999" points="506.5,-19 434.5,-19 434.5,0 506.5,0 506.5,-19"/>
<text text-anchor="middle" x="470.5" y="-7" font-family="Helvetica,sans-Serif" font-size="10.00">SDL2/SDL.h</text>
</a>
</g>
</g>
<!-- Node1&#45;&gt;Node2 -->
<g id="edge1_Node000001_Node000002" class="edge">
<title>Node1&#45;&gt;Node2</title>
<g id="a_edge1_Node000001_Node000002"><a xlink:title=" ">
<path fill="none" stroke="#63b8ff" d="M424.65,-109.84C434.21,-99.49 444.4,-86.91 451.5,-74 459.22,-59.96 464.17,-42.41 467.07,-29.32"/>
<polygon fill="#63b8ff" stroke="#63b8ff" points="470.57,-29.66 469.11,-19.17 463.71,-28.28 470.57,-29.66"/>
</a>
</g>
</g>
<!-- Node3 -->
<g id="Node000003" class="node">
<title>Node3</title>
<g id="a_Node000003"><a xlink:title=" ">
<polygon fill="#e0e0e0" stroke="#999999" points="151,-19 0,-19 0,0 151,0 151,-19"/>
<text text-anchor="middle" x="75.5" y="-7" font-family="Helvetica,sans-Serif" font-size="10.00">components/Physics2D.hpp</text>
</a>
</g>
</g>
<!-- Node1&#45;&gt;Node3 -->
<g id="edge2_Node000001_Node000003" class="edge">
<title>Node1&#45;&gt;Node3</title>
<g id="a_edge2_Node000001_Node000003"><a xlink:title=" ">
<path fill="none" stroke="#63b8ff" d="M338.66,-133.93C245.78,-130.86 73.63,-119.07 35.5,-74 22.53,-58.67 39.68,-38.78 55.38,-25.38"/>
<polygon fill="#63b8ff" stroke="#63b8ff" points="57.69,-28.01 63.29,-19.02 53.3,-22.56 57.69,-28.01"/>
</a>
</g>
</g>
<!-- Node4 -->
<g id="Node000004" class="node">
<title>Node4</title>
<g id="a_Node000004"><a xlink:title=" ">
<polygon fill="#e0e0e0" stroke="#999999" points="336.5,-74 240.5,-74 240.5,-55 336.5,-55 336.5,-74"/>
<text text-anchor="middle" x="288.5" y="-62" font-family="Helvetica,sans-Serif" font-size="10.00">ecs/Registry.hpp</text>
</a>
</g>
</g>
<!-- Node1&#45;&gt;Node4 -->
<g id="edge3_Node000001_Node000004" class="edge">
<title>Node1&#45;&gt;Node4</title>
<g id="a_edge3_Node000001_Node000004"><a xlink:title=" ">
<path fill="none" stroke="#63b8ff" d="M358.79,-109.91C342.69,-99.74 324.69,-88.36 310.94,-79.68"/>
<polygon fill="#63b8ff" stroke="#63b8ff" points="312.49,-76.52 302.17,-74.14 308.75,-82.44 312.49,-76.52"/>
</a>
</g>
</g>
<!-- Node5 -->
<g id="Node000005" class="node">
<title>Node5</title>
<g id="a_Node000005"><a xlink:title=" ">
<polygon fill="#e0e0e0" stroke="#999999" points="442.5,-74 354.5,-74 354.5,-55 442.5,-55 442.5,-74"/>
<text text-anchor="middle" x="398.5" y="-62" font-family="Helvetica,sans-Serif" font-size="10.00">ecs/Zipper.hpp</text>
</a>
</g>
</g>
<!-- Node1&#45;&gt;Node5 -->
<g id="edge4_Node000001_Node000005" class="edge">
<title>Node1&#45;&gt;Node5</title>
<g id="a_edge4_Node000001_Node000005"><a xlink:title=" ">
<path fill="none" stroke="#63b8ff" d="M398.5,-109.91C398.5,-101.55 398.5,-92.38 398.5,-84.55"/>
<polygon fill="#63b8ff" stroke="#63b8ff" points="402,-84.3 398.5,-74.3 395,-84.3 402,-84.3"/>
</a>
</g>
</g>
<!-- Node6 -->
<g id="Node000006" class="node">
<title>Node6</title>
<g id="a_Node000006"><a xlink:href="AnimationManager_8hpp.html" target="_top" xlink:title=" ">
<polygon fill="white" stroke="#666666" points="672.5,-74 498.5,-74 498.5,-55 672.5,-55 672.5,-74"/>
<text text-anchor="middle" x="585.5" y="-62" font-family="Helvetica,sans-Serif" font-size="10.00">graphics/AnimationManager.hpp</text>
</a>
</g>
</g>
<!-- Node1&#45;&gt;Node6 -->
<g id="edge5_Node000001_Node000006" class="edge">
<title>Node1&#45;&gt;Node6</title>
<g id="a_edge5_Node000001_Node000006"><a xlink:title=" ">
<path fill="none" stroke="#63b8ff" d="M458.18,-112.82C489.65,-101.12 527.02,-87.23 553.11,-77.54"/>
<polygon fill="#63b8ff" stroke="#63b8ff" points="554.36,-80.81 562.51,-74.04 551.92,-74.25 554.36,-80.81"/>
</a>
</g>
</g>
<!-- Node10 -->
<g id="Node000010" class="node">
<title>Node10</title>
<g id="a_Node000010"><a xlink:href="RenderComponents_8hpp.html" target="_top" xlink:title=" ">
<polygon fill="white" stroke="#666666" points="222.5,-74 44.5,-74 44.5,-55 222.5,-55 222.5,-74"/>
<text text-anchor="middle" x="133.5" y="-62" font-family="Helvetica,sans-Serif" font-size="10.00">graphics/RenderComponents.hpp</text>
</a>
</g>
</g>
<!-- Node1&#45;&gt;Node10 -->
<g id="edge10_Node000001_Node000010" class="edge">
<title>Node1&#45;&gt;Node10</title>
<g id="a_edge10_Node000001_Node000010"><a xlink:title=" ">
<path fill="none" stroke="#63b8ff" d="M338.7,-119.32C289.13,-106.32 219.9,-88.16 175.89,-76.62"/>
<polygon fill="#63b8ff" stroke="#63b8ff" points="176.64,-73.2 166.08,-74.05 174.87,-79.97 176.64,-73.2"/>
</a>
</g>
</g>
<!-- Node11 -->
<g id="Node000011" class="node">
<title>Node11</title>
<g id="a_Node000011"><a xlink:href="TextureManager_8hpp.html" target="_top" xlink:title=" ">
<polygon fill="white" stroke="#666666" points="850.5,-74 690.5,-74 690.5,-55 850.5,-55 850.5,-74"/>
<text text-anchor="middle" x="770.5" y="-62" font-family="Helvetica,sans-Serif" font-size="10.00">graphics/TextureManager.hpp</text>
</a>
</g>
</g>
<!-- Node1&#45;&gt;Node11 -->
<g id="edge14_Node000001_Node000011" class="edge">
<title>Node1&#45;&gt;Node11</title>
<g id="a_edge14_Node000001_Node000011"><a xlink:title=" ">
<path fill="none" stroke="#63b8ff" d="M458.27,-123.83C528.99,-110.62 645.8,-88.8 714.73,-75.92"/>
<polygon fill="#63b8ff" stroke="#63b8ff" points="715.76,-79.29 724.95,-74.01 714.48,-72.41 715.76,-79.29"/>
</a>
</g>
</g>
<!-- Node6&#45;&gt;Node2 -->
<g id="edge6_Node000006_Node000002" class="edge">
<title>Node6&#45;&gt;Node2</title>
<g id="a_edge6_Node000006_Node000002"><a xlink:title=" ">
<path fill="none" stroke="#63b8ff" d="M567.02,-54.98C548.52,-46.46 519.82,-33.23 498.52,-23.41"/>
<polygon fill="#63b8ff" stroke="#63b8ff" points="499.86,-20.18 489.31,-19.17 496.93,-26.53 499.86,-20.18"/>
</a>
</g>
</g>
<!-- Node7 -->
<g id="Node000007" class="node">
<title>Node7</title>
<g id="a_Node000007"><a xlink:title=" ">
<polygon fill="#e0e0e0" stroke="#999999" points="568.5,-19 524.5,-19 524.5,0 568.5,0 568.5,-19"/>
<text text-anchor="middle" x="546.5" y="-7" font-family="Helvetica,sans-Serif" font-size="10.00">string</text>
</a>
</g>
</g>
<!-- Node6&#45;&gt;Node7 -->
<g id="edge7_Node000006_Node000007" class="edge">
<title>Node6&#45;&gt;Node7</title>
<g id="a_edge7_Node000006_Node000007"><a xlink:title=" ">
<path fill="none" stroke="#63b8ff" d="M579.06,-54.75C573.61,-47.34 565.64,-36.5 558.94,-27.41"/>
<polygon fill="#63b8ff" stroke="#63b8ff" points="561.57,-25.07 552.82,-19.09 555.93,-29.22 561.57,-25.07"/>
</a>
</g>
</g>
<!-- Node8 -->
<g id="Node000008" class="node">
<title>Node8</title>
<g id="a_Node000008"><a xlink:title=" ">
<polygon fill="#e0e0e0" stroke="#999999" points="745,-19 652,-19 652,0 745,0 745,-19"/>
<text text-anchor="middle" x="698.5" y="-7" font-family="Helvetica,sans-Serif" font-size="10.00">unordered_map</text>
</a>
</g>
</g>
<!-- Node6&#45;&gt;Node8 -->
<g id="edge8_Node000006_Node000008" class="edge">
<title>Node6&#45;&gt;Node8</title>
<g id="a_edge8_Node000006_Node000008"><a xlink:title=" ">
<path fill="none" stroke="#63b8ff" d="M603.66,-54.98C621.75,-46.5 649.78,-33.35 670.69,-23.54"/>
<polygon fill="#63b8ff" stroke="#63b8ff" points="672.45,-26.59 680.01,-19.17 669.47,-20.25 672.45,-26.59"/>
</a>
</g>
</g>
<!-- Node9 -->
<g id="Node000009" class="node">
<title>Node9</title>
<g id="a_Node000009"><a xlink:title=" ">
<polygon fill="#e0e0e0" stroke="#999999" points="634,-19 587,-19 587,0 634,0 634,-19"/>
<text text-anchor="middle" x="610.5" y="-7" font-family="Helvetica,sans-Serif" font-size="10.00">vector</text>
</a>
</g>
</g>
<!-- Node6&#45;&gt;Node9 -->
<g id="edge9_Node000006_Node000009" class="edge">
<title>Node6&#45;&gt;Node9</title>
<g id="a_edge9_Node000006_Node000009"><a xlink:title=" ">
<path fill="none" stroke="#63b8ff" d="M589.63,-54.75C593.01,-47.57 597.92,-37.18 602.12,-28.27"/>
<polygon fill="#63b8ff" stroke="#63b8ff" points="605.35,-29.63 606.45,-19.09 599.02,-26.64 605.35,-29.63"/>
</a>
</g>
</g>
<!-- Node10&#45;&gt;Node2 -->
<g id="edge11_Node000010_Node000002" class="edge">
<title>Node10&#45;&gt;Node2</title>
<g id="a_edge11_Node000010_Node000002"><a xlink:title=" ">
<path fill="none" stroke="#63b8ff" d="M187.64,-54.98C253.07,-44.69 362.06,-27.55 423.9,-17.83"/>
<polygon fill="#63b8ff" stroke="#63b8ff" points="424.81,-21.23 434.14,-16.22 423.72,-14.31 424.81,-21.23"/>
</a>
</g>
</g>
<!-- Node10&#45;&gt;Node3 -->
<g id="edge13_Node000010_Node000003" class="edge">
<title>Node10&#45;&gt;Node3</title>
<g id="a_edge13_Node000010_Node000003"><a xlink:title=" ">
<path fill="none" stroke="#63b8ff" d="M124.18,-54.98C115.69,-47.23 102.94,-35.58 92.62,-26.14"/>
<polygon fill="#63b8ff" stroke="#63b8ff" points="94.73,-23.33 84.99,-19.17 90.01,-28.5 94.73,-23.33"/>
</a>
</g>
</g>
<!-- Node10&#45;&gt;Node7 -->
<g id="edge12_Node000010_Node000007" class="edge">
<title>Node10&#45;&gt;Node7</title>
<g id="a_edge12_Node000010_Node000007"><a xlink:title=" ">
<path fill="none" stroke="#63b8ff" d="M220.06,-54.96C310.26,-45.8 446.65,-31.15 514.37,-18.9"/>
<polygon fill="#63b8ff" stroke="#63b8ff" points="515.07,-22.33 524.24,-17.04 513.77,-15.45 515.07,-22.33"/>
</a>
</g>
</g>
<!-- Node11&#45;&gt;Node2 -->
<g id="edge15_Node000011_Node000002" class="edge">
<title>Node11&#45;&gt;Node2</title>
<g id="a_edge15_Node000011_Node000002"><a xlink:title=" ">
<path fill="none" stroke="#63b8ff" d="M720.14,-54.93C670.89,-46.49 593.48,-33.11 517.12,-19.27"/>
<polygon fill="#63b8ff" stroke="#63b8ff" points="517.31,-15.75 506.84,-17.41 516.06,-22.64 517.31,-15.75"/>
</a>
</g>
</g>
<!-- Node11&#45;&gt;Node7 -->
<g id="edge17_Node000011_Node000007" class="edge">
<title>Node11&#45;&gt;Node7</title>
<g id="a_edge17_Node000011_Node000007"><a xlink:title=" ">
<path fill="none" stroke="#63b8ff" d="M731.2,-54.94C694.19,-46.76 636.95,-33.83 578.58,-19.2"/>
<polygon fill="#63b8ff" stroke="#63b8ff" points="579.37,-15.79 568.82,-16.74 577.66,-22.58 579.37,-15.79"/>
</a>
</g>
</g>
<!-- Node11&#45;&gt;Node8 -->
<g id="edge18_Node000011_Node000008" class="edge">
<title>Node11&#45;&gt;Node8</title>
<g id="a_edge18_Node000011_Node000008"><a xlink:title=" ">
<path fill="none" stroke="#63b8ff" d="M758.93,-54.98C748.08,-47 731.62,-34.88 718.62,-25.31"/>
<polygon fill="#63b8ff" stroke="#63b8ff" points="720.41,-22.28 710.28,-19.17 716.26,-27.92 720.41,-22.28"/>
</a>
</g>
</g>
<!-- Node12 -->
<g id="Node000012" class="node">
<title>Node12</title>
<g id="a_Node000012"><a xlink:title=" ">
<polygon fill="#e0e0e0" stroke="#999999" points="871.5,-19 763.5,-19 763.5,0 871.5,0 871.5,-19"/>
<text text-anchor="middle" x="817.5" y="-7" font-family="Helvetica,sans-Serif" font-size="10.00">SDL2/SDL_image.h</text>
</a>
</g>
</g>
<!-- Node11&#45;&gt;Node12 -->
<g id="edge16_Node000011_Node000012" class="edge">
<title>Node11&#45;&gt;Node12</title>
<g id="a_edge16_Node000011_Node000012"><a xlink:title=" ">
<path fill="none" stroke="#63b8ff" d="M778.26,-54.75C784.97,-47.18 794.84,-36.05 803.01,-26.84"/>
<polygon fill="#63b8ff" stroke="#63b8ff" points="805.87,-28.89 809.88,-19.09 800.63,-24.25 805.87,-28.89"/>
</a>
</g>
</g>
</g>
</svg>
