<?xml version="1.0" encoding="UTF-8" standalone="no"?>
<!DOCTYPE svg PUBLIC "-//W3C//DTD SVG 1.1//EN"
 "http://www.w3.org/Graphics/SVG/1.1/DTD/svg11.dtd">
<!-- Generated by graphviz version 2.43.0 (0)
 -->
<!-- Title: /home/runner/work/R&#45;Type/R&#45;Type/Client/src/engine/graphics/RenderSystem.cpp Pages: 1 -->
<svg width="1589pt" height="280pt"
 viewBox="0.00 0.00 1589.18 280.00" xmlns="http://www.w3.org/2000/svg" xmlns:xlink="http://www.w3.org/1999/xlink">
<g id="graph0" class="graph" transform="scale(1 1) rotate(0) translate(4 276)">
<title>/home/runner/work/R&#45;Type/R&#45;Type/Client/src/engine/graphics/RenderSystem.cpp</title>
<!-- Node1 -->
<g id="Node000001" class="node">
<title>Node1</title>
<g id="a_Node000001"><a xlink:title=" ">
<polygon fill="#999999" stroke="#666666" points="1074,-272 955,-272 955,-220 1074,-220 1074,-272"/>
<text text-anchor="start" x="963" y="-260" font-family="Helvetica,sans-Serif" font-size="10.00">/home/runner/work/R</text>
<text text-anchor="start" x="963" y="-249" font-family="Helvetica,sans-Serif" font-size="10.00">&#45;Type/R&#45;Type/Client</text>
<text text-anchor="start" x="963" y="-238" font-family="Helvetica,sans-Serif" font-size="10.00">/src/engine/graphics</text>
<text text-anchor="middle" x="1014.5" y="-227" font-family="Helvetica,sans-Serif" font-size="10.00">/RenderSystem.cpp</text>
</a>
</g>
</g>
<!-- Node2 -->
<g id="Node000002" class="node">
<title>Node2</title>
<g id="a_Node000002"><a xlink:href="RenderSystem_8hpp.html" target="_top" xlink:title=" ">
<polygon fill="white" stroke="#666666" points="634,-184 481,-184 481,-165 634,-165 634,-184"/>
<text text-anchor="middle" x="557.5" y="-172" font-family="Helvetica,sans-Serif" font-size="10.00">graphics/RenderSystem.hpp</text>
</a>
</g>
</g>
<!-- Node1&#45;&gt;Node2 -->
<g id="edge1_Node000001_Node000002" class="edge">
<title>Node1&#45;&gt;Node2</title>
<g id="a_edge1_Node000001_Node000002"><a xlink:title=" ">
<path fill="none" stroke="#63b8ff" d="M954.76,-235.91C869.26,-222.91 712.54,-199.08 623.64,-185.56"/>
<polygon fill="#63b8ff" stroke="#63b8ff" points="624.09,-182.09 613.67,-184.04 623.03,-189.01 624.09,-182.09"/>
</a>
</g>
</g>
<!-- Node7 -->
<g id="Node000007" class="node">
<title>Node7</title>
<g id="a_Node000007"><a xlink:title=" ">
<polygon fill="#e0e0e0" stroke="#999999" points="841.5,-74 777.5,-74 777.5,-55 841.5,-55 841.5,-74"/>
<text text-anchor="middle" x="809.5" y="-62" font-family="Helvetica,sans-Serif" font-size="10.00">algorithm</text>
</a>
</g>
</g>
<!-- Node1&#45;&gt;Node7 -->
<g id="edge43_Node000001_Node000007" class="edge">
<title>Node1&#45;&gt;Node7</title>
<g id="a_edge43_Node000001_Node000007"><a xlink:title=" ">
<path fill="none" stroke="#63b8ff" d="M989.36,-219.96C961.04,-192.16 913.26,-146.41 869.5,-110 856.95,-99.56 842.23,-88.62 830.51,-80.21"/>
<polygon fill="#63b8ff" stroke="#63b8ff" points="832.4,-77.25 822.22,-74.31 828.34,-82.96 832.4,-77.25"/>
</a>
</g>
</g>
<!-- Node10 -->
<g id="Node000010" class="node">
<title>Node10</title>
<g id="a_Node000010"><a xlink:title=" ">
<polygon fill="#e0e0e0" stroke="#999999" points="1556.5,-74 1496.5,-74 1496.5,-55 1556.5,-55 1556.5,-74"/>
<text text-anchor="middle" x="1526.5" y="-62" font-family="Helvetica,sans-Serif" font-size="10.00">iostream</text>
</a>
</g>
</g>
<!-- Node1&#45;&gt;Node10 -->
<g id="edge44_Node000001_Node000010" class="edge">
<title>Node1&#45;&gt;Node10</title>
<g id="a_edge44_Node000001_Node000010"><a xlink:title=" ">
<path fill="none" stroke="#63b8ff" d="M1074.23,-224.06C1182.33,-186.16 1407.1,-107.36 1492.54,-77.41"/>
<polygon fill="#63b8ff" stroke="#63b8ff" points="1493.74,-80.69 1502.02,-74.08 1491.42,-74.09 1493.74,-80.69"/>
</a>
</g>
</g>
<!-- Node15 -->
<g id="Node000015" class="node">
<title>Node15</title>
<g id="a_Node000015"><a xlink:title=" ">
<polygon fill="#e0e0e0" stroke="#999999" points="1212,-19 1165,-19 1165,0 1212,0 1212,-19"/>
<text text-anchor="middle" x="1188.5" y="-7" font-family="Helvetica,sans-Serif" font-size="10.00">vector</text>
</a>
</g>
</g>
<!-- Node1&#45;&gt;Node15 -->
<g id="edge45_Node000001_Node000015" class="edge">
<title>Node1&#45;&gt;Node15</title>
<g id="a_edge45_Node000001_Node000015"><a xlink:title=" ">
<path fill="none" stroke="#63b8ff" d="M1074.11,-235.59C1204.24,-213.7 1506.79,-155 1565.5,-74 1594.18,-34.43 1625.23,-79.02 1231.5,-19 1228.44,-18.53 1225.27,-18 1222.09,-17.43"/>
<polygon fill="#63b8ff" stroke="#63b8ff" points="1222.57,-13.96 1212.09,-15.55 1221.27,-20.84 1222.57,-13.96"/>
</a>
</g>
</g>
<!-- Node3 -->
<g id="Node000003" class="node">
<title>Node3</title>
<g id="a_Node000003"><a xlink:title=" ">
<polygon fill="#e0e0e0" stroke="#999999" points="273.5,-19 201.5,-19 201.5,0 273.5,0 273.5,-19"/>
<text text-anchor="middle" x="237.5" y="-7" font-family="Helvetica,sans-Serif" font-size="10.00">SDL2/SDL.h</text>
</a>
</g>
</g>
<!-- Node2&#45;&gt;Node3 -->
<g id="edge2_Node000002_Node000003" class="edge">
<title>Node2&#45;&gt;Node3</title>
<g id="a_edge2_Node000002_Node000003"><a xlink:title=" ">
<path fill="none" stroke="#63b8ff" d="M480.81,-169.84C376.13,-164.05 199.15,-151.1 179.5,-129 151.5,-97.51 193.7,-50.08 219.66,-25.89"/>
<polygon fill="#63b8ff" stroke="#63b8ff" points="222.02,-28.47 227.1,-19.17 217.33,-23.27 222.02,-28.47"/>
</a>
</g>
</g>
<!-- Node4 -->
<g id="Node000004" class="node">
<title>Node4</title>
<g id="a_Node000004"><a xlink:href="Physics2D_8hpp.html" target="_top" xlink:title=" ">
<polygon fill="white" stroke="#666666" points="151,-74 0,-74 0,-55 151,-55 151,-74"/>
<text text-anchor="middle" x="75.5" y="-62" font-family="Helvetica,sans-Serif" font-size="10.00">components/Physics2D.hpp</text>
</a>
</g>
</g>
<!-- Node2&#45;&gt;Node4 -->
<g id="edge3_Node000002_Node000004" class="edge">
<title>Node2&#45;&gt;Node4</title>
<g id="a_edge3_Node000002_Node000004"><a xlink:title=" ">
<path fill="none" stroke="#63b8ff" d="M480.82,-170.78C378.79,-166.21 204.53,-154.83 146.5,-129 123.01,-118.54 101.86,-97.36 88.88,-82.35"/>
<polygon fill="#63b8ff" stroke="#63b8ff" points="91.31,-79.79 82.22,-74.34 85.92,-84.27 91.31,-79.79"/>
</a>
</g>
</g>
<!-- Node6 -->
<g id="Node000006" class="node">
<title>Node6</title>
<g id="a_Node000006"><a xlink:href="Registry_8hpp.html" target="_top" xlink:title=" ">
<polygon fill="white" stroke="#666666" points="1109.5,-129 1013.5,-129 1013.5,-110 1109.5,-110 1109.5,-129"/>
<text text-anchor="middle" x="1061.5" y="-117" font-family="Helvetica,sans-Serif" font-size="10.00">ecs/Registry.hpp</text>
</a>
</g>
</g>
<!-- Node2&#45;&gt;Node6 -->
<g id="edge6_Node000002_Node000006" class="edge">
<title>Node2&#45;&gt;Node6</title>
<g id="a_edge6_Node000002_Node000006"><a xlink:title=" ">
<path fill="none" stroke="#63b8ff" d="M634.05,-165.45C735.34,-154.8 911.7,-136.25 1003,-126.65"/>
<polygon fill="#63b8ff" stroke="#63b8ff" points="1003.59,-130.11 1013.17,-125.58 1002.86,-123.15 1003.59,-130.11"/>
</a>
</g>
</g>
<!-- Node21 -->
<g id="Node000021" class="node">
<title>Node21</title>
<g id="a_Node000021"><a xlink:href="Zipper_8hpp.html" target="_top" xlink:title=" ">
<polygon fill="white" stroke="#666666" points="842.5,-129 754.5,-129 754.5,-110 842.5,-110 842.5,-129"/>
<text text-anchor="middle" x="798.5" y="-117" font-family="Helvetica,sans-Serif" font-size="10.00">ecs/Zipper.hpp</text>
</a>
</g>
</g>
<!-- Node2&#45;&gt;Node21 -->
<g id="edge23_Node000002_Node000021" class="edge">
<title>Node2&#45;&gt;Node21</title>
<g id="a_edge23_Node000002_Node000021"><a xlink:title=" ">
<path fill="none" stroke="#63b8ff" d="M596.22,-164.98C637.91,-155.82 704.32,-141.21 749.59,-131.26"/>
<polygon fill="#63b8ff" stroke="#63b8ff" points="750.46,-134.65 759.48,-129.08 748.96,-127.81 750.46,-134.65"/>
</a>
</g>
</g>
<!-- Node23 -->
<g id="Node000023" class="node">
<title>Node23</title>
<g id="a_Node000023"><a xlink:href="AnimationManager_8hpp.html" target="_top" xlink:title=" ">
<polygon fill="white" stroke="#666666" points="736.5,-129 562.5,-129 562.5,-110 736.5,-110 736.5,-129"/>
<text text-anchor="middle" x="649.5" y="-117" font-family="Helvetica,sans-Serif" font-size="10.00">graphics/AnimationManager.hpp</text>
</a>
</g>
</g>
<!-- Node2&#45;&gt;Node23 -->
<g id="edge29_Node000002_Node000023" class="edge">
<title>Node2&#45;&gt;Node23</title>
<g id="a_edge29_Node000002_Node000023"><a xlink:title=" ">
<path fill="none" stroke="#63b8ff" d="M572.28,-164.98C586.68,-156.69 608.81,-143.94 625.69,-134.22"/>
<polygon fill="#63b8ff" stroke="#63b8ff" points="627.53,-137.19 634.45,-129.17 624.04,-131.13 627.53,-137.19"/>
</a>
</g>
</g>
<!-- Node25 -->
<g id="Node000025" class="node">
<title>Node25</title>
<g id="a_Node000025"><a xlink:href="RenderComponents_8hpp.html" target="_top" xlink:title=" ">
<polygon fill="white" stroke="#666666" points="366.5,-129 188.5,-129 188.5,-110 366.5,-110 366.5,-129"/>
<text text-anchor="middle" x="277.5" y="-117" font-family="Helvetica,sans-Serif" font-size="10.00">graphics/RenderComponents.hpp</text>
</a>
</g>
</g>
<!-- Node2&#45;&gt;Node25 -->
<g id="edge34_Node000002_Node000025" class="edge">
<title>Node2&#45;&gt;Node25</title>
<g id="a_edge34_Node000002_Node000025"><a xlink:title=" ">
<path fill="none" stroke="#63b8ff" d="M512.51,-164.98C463.57,-155.72 385.3,-140.9 332.68,-130.94"/>
<polygon fill="#63b8ff" stroke="#63b8ff" points="333.32,-127.5 322.84,-129.08 332.01,-134.38 333.32,-127.5"/>
</a>
</g>
</g>
<!-- Node26 -->
<g id="Node000026" class="node">
<title>Node26</title>
<g id="a_Node000026"><a xlink:href="TextureManager_8hpp.html" target="_top" xlink:title=" ">
<polygon fill="white" stroke="#666666" points="544.5,-129 384.5,-129 384.5,-110 544.5,-110 544.5,-129"/>
<text text-anchor="middle" x="464.5" y="-117" font-family="Helvetica,sans-Serif" font-size="10.00">graphics/TextureManager.hpp</text>
</a>
</g>
</g>
<!-- Node2&#45;&gt;Node26 -->
<g id="edge38_Node000002_Node000026" class="edge">
<title>Node2&#45;&gt;Node26</title>
<g id="a_edge38_Node000002_Node000026"><a xlink:title=" ">
<path fill="none" stroke="#63b8ff" d="M542.56,-164.98C528,-156.69 505.63,-143.94 488.57,-134.22"/>
<polygon fill="#63b8ff" stroke="#63b8ff" points="490.14,-131.08 479.71,-129.17 486.67,-137.16 490.14,-131.08"/>
</a>
</g>
</g>
<!-- Node4&#45;&gt;Node3 -->
<g id="edge4_Node000004_Node000003" class="edge">
<title>Node4&#45;&gt;Node3</title>
<g id="a_edge4_Node000004_Node000003"><a xlink:title=" ">
<path fill="none" stroke="#63b8ff" d="M101.53,-54.98C128.61,-46.13 171.21,-32.19 201.51,-22.28"/>
<polygon fill="#63b8ff" stroke="#63b8ff" points="202.85,-25.52 211.27,-19.08 200.68,-18.87 202.85,-25.52"/>
</a>
</g>
</g>
<!-- Node5 -->
<g id="Node000005" class="node">
<title>Node5</title>
<g id="a_Node000005"><a xlink:title=" ">
<polygon fill="#e0e0e0" stroke="#999999" points="99,-19 52,-19 52,0 99,0 99,-19"/>
<text text-anchor="middle" x="75.5" y="-7" font-family="Helvetica,sans-Serif" font-size="10.00">cmath</text>
</a>
</g>
</g>
<!-- Node4&#45;&gt;Node5 -->
<g id="edge5_Node000004_Node000005" class="edge">
<title>Node4&#45;&gt;Node5</title>
<g id="a_edge5_Node000004_Node000005"><a xlink:title=" ">
<path fill="none" stroke="#63b8ff" d="M75.5,-54.75C75.5,-47.8 75.5,-37.85 75.5,-29.13"/>
<polygon fill="#63b8ff" stroke="#63b8ff" points="79,-29.09 75.5,-19.09 72,-29.09 79,-29.09"/>
</a>
</g>
</g>
<!-- Node6&#45;&gt;Node7 -->
<g id="edge7_Node000006_Node000007" class="edge">
<title>Node6&#45;&gt;Node7</title>
<g id="a_edge7_Node000006_Node000007"><a xlink:title=" ">
<path fill="none" stroke="#63b8ff" d="M1021.01,-109.98C974.61,-100.23 898.91,-84.3 851.77,-74.39"/>
<polygon fill="#63b8ff" stroke="#63b8ff" points="852.38,-70.94 841.88,-72.31 850.94,-77.79 852.38,-70.94"/>
</a>
</g>
</g>
<!-- Node8 -->
<g id="Node000008" class="node">
<title>Node8</title>
<g id="a_Node000008"><a xlink:title=" ">
<polygon fill="#e0e0e0" stroke="#999999" points="1243,-74 1208,-74 1208,-55 1243,-55 1243,-74"/>
<text text-anchor="middle" x="1225.5" y="-62" font-family="Helvetica,sans-Serif" font-size="10.00">any</text>
</a>
</g>
</g>
<!-- Node6&#45;&gt;Node8 -->
<g id="edge8_Node000006_Node000008" class="edge">
<title>Node6&#45;&gt;Node8</title>
<g id="a_edge8_Node000006_Node000008"><a xlink:title=" ">
<path fill="none" stroke="#63b8ff" d="M1087.85,-109.98C1118.11,-100.2 1167.52,-84.24 1198.18,-74.33"/>
<polygon fill="#63b8ff" stroke="#63b8ff" points="1199.37,-77.62 1207.81,-71.22 1197.22,-70.96 1199.37,-77.62"/>
</a>
</g>
</g>
<!-- Node9 -->
<g id="Node000009" class="node">
<title>Node9</title>
<g id="a_Node000009"><a xlink:title=" ">
<polygon fill="#e0e0e0" stroke="#999999" points="925,-74 860,-74 860,-55 925,-55 925,-74"/>
<text text-anchor="middle" x="892.5" y="-62" font-family="Helvetica,sans-Serif" font-size="10.00">functional</text>
</a>
</g>
</g>
<!-- Node6&#45;&gt;Node9 -->
<g id="edge9_Node000006_Node000009" class="edge">
<title>Node6&#45;&gt;Node9</title>
<g id="a_edge9_Node000006_Node000009"><a xlink:title=" ">
<path fill="none" stroke="#63b8ff" d="M1034.35,-109.98C1005.97,-101.09 961.27,-87.07 929.64,-77.15"/>
<polygon fill="#63b8ff" stroke="#63b8ff" points="930.45,-73.73 919.87,-74.08 928.36,-80.41 930.45,-73.73"/>
</a>
</g>
</g>
<!-- Node6&#45;&gt;Node10 -->
<g id="edge10_Node000006_Node000010" class="edge">
<title>Node6&#45;&gt;Node10</title>
<g id="a_edge10_Node000006_Node000010"><a xlink:title=" ">
<path fill="none" stroke="#63b8ff" d="M1109.64,-115.21C1186.96,-109.56 1343.74,-96.52 1486.1,-74.05"/>
<polygon fill="#63b8ff" stroke="#63b8ff" points="1487.01,-77.45 1496.33,-72.42 1485.9,-70.54 1487.01,-77.45"/>
</a>
</g>
</g>
<!-- Node11 -->
<g id="Node000011" class="node">
<title>Node11</title>
<g id="a_Node000011"><a xlink:title=" ">
<polygon fill="#e0e0e0" stroke="#999999" points="1047,-74 982,-74 982,-55 1047,-55 1047,-74"/>
<text text-anchor="middle" x="1014.5" y="-62" font-family="Helvetica,sans-Serif" font-size="10.00">typeindex</text>
</a>
</g>
</g>
<!-- Node6&#45;&gt;Node11 -->
<g id="edge11_Node000006_Node000011" class="edge">
<title>Node6&#45;&gt;Node11</title>
<g id="a_edge11_Node000006_Node000011"><a xlink:title=" ">
<path fill="none" stroke="#63b8ff" d="M1053.74,-109.75C1047.03,-102.18 1037.16,-91.05 1028.99,-81.84"/>
<polygon fill="#63b8ff" stroke="#63b8ff" points="1031.37,-79.25 1022.12,-74.09 1026.13,-83.89 1031.37,-79.25"/>
</a>
</g>
</g>
<!-- Node12 -->
<g id="Node000012" class="node">
<title>Node12</title>
<g id="a_Node000012"><a xlink:title=" ">
<polygon fill="#e0e0e0" stroke="#999999" points="623,-74 530,-74 530,-55 623,-55 623,-74"/>
<text text-anchor="middle" x="576.5" y="-62" font-family="Helvetica,sans-Serif" font-size="10.00">unordered_map</text>
</a>
</g>
</g>
<!-- Node6&#45;&gt;Node12 -->
<g id="edge12_Node000006_Node000012" class="edge">
<title>Node6&#45;&gt;Node12</title>
<g id="a_edge12_Node000006_Node000012"><a xlink:title=" ">
<path fill="none" stroke="#63b8ff" d="M1013.22,-113.22C923.06,-103.37 729.54,-82.22 633.28,-71.7"/>
<polygon fill="#63b8ff" stroke="#63b8ff" points="633.48,-68.21 623.16,-70.6 632.72,-75.16 633.48,-68.21"/>
</a>
</g>
</g>
<!-- Node13 -->
<g id="Node000013" class="node">
<title>Node13</title>
<g id="a_Node000013"><a xlink:title=" ">
<polygon fill="#e0e0e0" stroke="#999999" points="1151.5,-74 1065.5,-74 1065.5,-55 1151.5,-55 1151.5,-74"/>
<text text-anchor="middle" x="1108.5" y="-62" font-family="Helvetica,sans-Serif" font-size="10.00">unordered_set</text>
</a>
</g>
</g>
<!-- Node6&#45;&gt;Node13 -->
<g id="edge13_Node000006_Node000013" class="edge">
<title>Node6&#45;&gt;Node13</title>
<g id="a_edge13_Node000006_Node000013"><a xlink:title=" ">
<path fill="none" stroke="#63b8ff" d="M1069.26,-109.75C1075.97,-102.18 1085.84,-91.05 1094.01,-81.84"/>
<polygon fill="#63b8ff" stroke="#63b8ff" points="1096.87,-83.89 1100.88,-74.09 1091.63,-79.25 1096.87,-83.89"/>
</a>
</g>
</g>
<!-- Node14 -->
<g id="Node000014" class="node">
<title>Node14</title>
<g id="a_Node000014"><a xlink:title=" ">
<polygon fill="#e0e0e0" stroke="#999999" points="976,-19 931,-19 931,0 976,0 976,-19"/>
<text text-anchor="middle" x="953.5" y="-7" font-family="Helvetica,sans-Serif" font-size="10.00">utility</text>
</a>
</g>
</g>
<!-- Node6&#45;&gt;Node14 -->
<g id="edge14_Node000006_Node000014" class="edge">
<title>Node6&#45;&gt;Node14</title>
<g id="a_edge14_Node000006_Node000014"><a xlink:title=" ">
<path fill="none" stroke="#63b8ff" d="M1031.13,-109.88C1012.11,-103.03 988.46,-91.62 973.5,-74 962.86,-61.47 957.87,-43.27 955.54,-29.56"/>
<polygon fill="#63b8ff" stroke="#63b8ff" points="958.96,-28.76 954.13,-19.33 952.03,-29.71 958.96,-28.76"/>
</a>
</g>
</g>
<!-- Node6&#45;&gt;Node15 -->
<g id="edge15_Node000006_Node000015" class="edge">
<title>Node6&#45;&gt;Node15</title>
<g id="a_edge15_Node000006_Node000015"><a xlink:title=" ">
<path fill="none" stroke="#63b8ff" d="M1095.87,-109.87C1116.81,-103.1 1142.84,-91.78 1160.5,-74 1172.83,-61.59 1180.18,-42.83 1184.23,-28.92"/>
<polygon fill="#63b8ff" stroke="#63b8ff" points="1187.68,-29.57 1186.81,-19.01 1180.9,-27.81 1187.68,-29.57"/>
</a>
</g>
</g>
<!-- Node16 -->
<g id="Node000016" class="node">
<title>Node16</title>
<g id="a_Node000016"><a xlink:href="Entity_8hpp.html" target="_top" xlink:title=" ">
<polygon fill="white" stroke="#666666" points="1478.5,-74 1394.5,-74 1394.5,-55 1478.5,-55 1478.5,-74"/>
<text text-anchor="middle" x="1436.5" y="-62" font-family="Helvetica,sans-Serif" font-size="10.00">ecs/Entity.hpp</text>
</a>
</g>
</g>
<!-- Node6&#45;&gt;Node16 -->
<g id="edge16_Node000006_Node000016" class="edge">
<title>Node6&#45;&gt;Node16</title>
<g id="a_edge16_Node000006_Node000016"><a xlink:title=" ">
<path fill="none" stroke="#63b8ff" d="M1109.59,-112.33C1170.94,-104.37 1280.56,-89.81 1384.46,-74.12"/>
<polygon fill="#63b8ff" stroke="#63b8ff" points="1385.13,-77.56 1394.49,-72.6 1384.08,-70.64 1385.13,-77.56"/>
</a>
</g>
</g>
<!-- Node18 -->
<g id="Node000018" class="node">
<title>Node18</title>
<g id="a_Node000018"><a xlink:href="SparseArray_8hpp.html" target="_top" xlink:title=" ">
<polygon fill="white" stroke="#666666" points="1376,-74 1261,-74 1261,-55 1376,-55 1376,-74"/>
<text text-anchor="middle" x="1318.5" y="-62" font-family="Helvetica,sans-Serif" font-size="10.00">ecs/SparseArray.hpp</text>
</a>
</g>
</g>
<!-- Node6&#45;&gt;Node18 -->
<g id="edge18_Node000006_Node000018" class="edge">
<title>Node6&#45;&gt;Node18</title>
<g id="a_edge18_Node000006_Node000018"><a xlink:title=" ">
<path fill="none" stroke="#63b8ff" d="M1102.79,-109.98C1147.43,-100.78 1218.66,-86.09 1266.95,-76.13"/>
<polygon fill="#63b8ff" stroke="#63b8ff" points="1267.8,-79.53 1276.88,-74.08 1266.38,-72.67 1267.8,-79.53"/>
</a>
</g>
</g>
<!-- Node17 -->
<g id="Node000017" class="node">
<title>Node17</title>
<g id="a_Node000017"><a xlink:title=" ">
<polygon fill="#e0e0e0" stroke="#999999" points="1463,-19 1410,-19 1410,0 1463,0 1463,-19"/>
<text text-anchor="middle" x="1436.5" y="-7" font-family="Helvetica,sans-Serif" font-size="10.00">cstddef</text>
</a>
</g>
</g>
<!-- Node16&#45;&gt;Node17 -->
<g id="edge17_Node000016_Node000017" class="edge">
<title>Node16&#45;&gt;Node17</title>
<g id="a_edge17_Node000016_Node000017"><a xlink:title=" ">
<path fill="none" stroke="#63b8ff" d="M1436.5,-54.75C1436.5,-47.8 1436.5,-37.85 1436.5,-29.13"/>
<polygon fill="#63b8ff" stroke="#63b8ff" points="1440,-29.09 1436.5,-19.09 1433,-29.09 1440,-29.09"/>
</a>
</g>
</g>
<!-- Node18&#45;&gt;Node14 -->
<g id="edge21_Node000018_Node000014" class="edge">
<title>Node18&#45;&gt;Node14</title>
<g id="a_edge21_Node000018_Node000014"><a xlink:title=" ">
<path fill="none" stroke="#63b8ff" d="M1260.66,-55.1C1183.14,-43.84 1048.11,-24.24 986.2,-15.25"/>
<polygon fill="#63b8ff" stroke="#63b8ff" points="986.62,-11.77 976.22,-13.8 985.61,-18.7 986.62,-11.77"/>
</a>
</g>
</g>
<!-- Node18&#45;&gt;Node15 -->
<g id="edge22_Node000018_Node000015" class="edge">
<title>Node18&#45;&gt;Node15</title>
<g id="a_edge22_Node000018_Node000015"><a xlink:title=" ">
<path fill="none" stroke="#63b8ff" d="M1297.61,-54.98C1276.42,-46.34 1243.37,-32.87 1219.2,-23.02"/>
<polygon fill="#63b8ff" stroke="#63b8ff" points="1220.35,-19.7 1209.77,-19.17 1217.71,-26.19 1220.35,-19.7"/>
</a>
</g>
</g>
<!-- Node19 -->
<g id="Node000019" class="node">
<title>Node19</title>
<g id="a_Node000019"><a xlink:title=" ">
<polygon fill="#e0e0e0" stroke="#999999" points="1298.5,-19 1240.5,-19 1240.5,0 1298.5,0 1298.5,-19"/>
<text text-anchor="middle" x="1269.5" y="-7" font-family="Helvetica,sans-Serif" font-size="10.00">memory</text>
</a>
</g>
</g>
<!-- Node18&#45;&gt;Node19 -->
<g id="edge19_Node000018_Node000019" class="edge">
<title>Node18&#45;&gt;Node19</title>
<g id="a_edge19_Node000018_Node000019"><a xlink:title=" ">
<path fill="none" stroke="#63b8ff" d="M1310.41,-54.75C1303.34,-47.11 1292.91,-35.82 1284.35,-26.56"/>
<polygon fill="#63b8ff" stroke="#63b8ff" points="1286.8,-24.06 1277.44,-19.09 1281.66,-28.81 1286.8,-24.06"/>
</a>
</g>
</g>
<!-- Node20 -->
<g id="Node000020" class="node">
<title>Node20</title>
<g id="a_Node000020"><a xlink:title=" ">
<polygon fill="#e0e0e0" stroke="#999999" points="1372.5,-19 1316.5,-19 1316.5,0 1372.5,0 1372.5,-19"/>
<text text-anchor="middle" x="1344.5" y="-7" font-family="Helvetica,sans-Serif" font-size="10.00">optional</text>
</a>
</g>
</g>
<!-- Node18&#45;&gt;Node20 -->
<g id="edge20_Node000018_Node000020" class="edge">
<title>Node18&#45;&gt;Node20</title>
<g id="a_edge20_Node000018_Node000020"><a xlink:title=" ">
<path fill="none" stroke="#63b8ff" d="M1322.79,-54.75C1326.31,-47.57 1331.41,-37.18 1335.78,-28.27"/>
<polygon fill="#63b8ff" stroke="#63b8ff" points="1339.02,-29.61 1340.29,-19.09 1332.74,-26.53 1339.02,-29.61"/>
</a>
</g>
</g>
<!-- Node21&#45;&gt;Node7 -->
<g id="edge24_Node000021_Node000007" class="edge">
<title>Node21&#45;&gt;Node7</title>
<g id="a_edge24_Node000021_Node000007"><a xlink:title=" ">
<path fill="none" stroke="#63b8ff" d="M800.32,-109.75C801.76,-102.8 803.82,-92.85 805.63,-84.13"/>
<polygon fill="#63b8ff" stroke="#63b8ff" points="809.11,-84.59 807.72,-74.09 802.26,-83.17 809.11,-84.59"/>
</a>
</g>
</g>
<!-- Node21&#45;&gt;Node9 -->
<g id="edge25_Node000021_Node000009" class="edge">
<title>Node21&#45;&gt;Node9</title>
<g id="a_edge25_Node000021_Node000009"><a xlink:title=" ">
<path fill="none" stroke="#63b8ff" d="M813.6,-109.98C828.32,-101.69 850.92,-88.94 868.17,-79.22"/>
<polygon fill="#63b8ff" stroke="#63b8ff" points="870.13,-82.13 877.12,-74.17 866.69,-76.03 870.13,-82.13"/>
</a>
</g>
</g>
<!-- Node21&#45;&gt;Node14 -->
<g id="edge27_Node000021_Node000014" class="edge">
<title>Node21&#45;&gt;Node14</title>
<g id="a_edge27_Node000021_Node000014"><a xlink:title=" ">
<path fill="none" stroke="#63b8ff" d="M767.24,-109.92C734.05,-99.3 689.01,-79.56 709.5,-55 736.04,-23.18 860.56,-14.05 920.76,-11.48"/>
<polygon fill="#63b8ff" stroke="#63b8ff" points="921.01,-14.98 930.87,-11.09 920.74,-7.98 921.01,-14.98"/>
</a>
</g>
</g>
<!-- Node21&#45;&gt;Node21 -->
<g id="edge28_Node000021_Node000021" class="edge">
<title>Node21&#45;&gt;Node21</title>
<g id="a_edge28_Node000021_Node000021"><a xlink:title=" ">
<path fill="none" stroke="#63b8ff" d="M827.52,-129.03C844.56,-131.06 860.5,-127.88 860.5,-119.5 860.5,-112.82 850.37,-109.44 837.64,-109.38"/>
<polygon fill="#63b8ff" stroke="#63b8ff" points="837.3,-105.89 827.52,-109.97 837.71,-112.88 837.3,-105.89"/>
</a>
</g>
</g>
<!-- Node22 -->
<g id="Node000022" class="node">
<title>Node22</title>
<g id="a_Node000022"><a xlink:title=" ">
<polygon fill="#e0e0e0" stroke="#999999" points="759,-74 718,-74 718,-55 759,-55 759,-74"/>
<text text-anchor="middle" x="738.5" y="-62" font-family="Helvetica,sans-Serif" font-size="10.00">tuple</text>
</a>
</g>
</g>
<!-- Node21&#45;&gt;Node22 -->
<g id="edge26_Node000021_Node000022" class="edge">
<title>Node21&#45;&gt;Node22</title>
<g id="a_edge26_Node000021_Node000022"><a xlink:title=" ">
<path fill="none" stroke="#63b8ff" d="M788.86,-109.98C779.99,-102.15 766.63,-90.34 755.89,-80.86"/>
<polygon fill="#63b8ff" stroke="#63b8ff" points="758.13,-78.17 748.32,-74.17 753.49,-83.41 758.13,-78.17"/>
</a>
</g>
</g>
<!-- Node23&#45;&gt;Node3 -->
<g id="edge30_Node000023_Node000003" class="edge">
<title>Node23&#45;&gt;Node3</title>
<g id="a_edge30_Node000023_Node000003"><a xlink:title=" ">
<path fill="none" stroke="#63b8ff" d="M624.73,-109.9C576.18,-93.05 472.51,-57.15 464.5,-55 402.66,-38.41 329.79,-25.22 283.63,-17.64"/>
<polygon fill="#63b8ff" stroke="#63b8ff" points="284.06,-14.16 273.63,-16.01 282.94,-21.07 284.06,-14.16"/>
</a>
</g>
</g>
<!-- Node23&#45;&gt;Node12 -->
<g id="edge32_Node000023_Node000012" class="edge">
<title>Node23&#45;&gt;Node12</title>
<g id="a_edge32_Node000023_Node000012"><a xlink:title=" ">
<path fill="none" stroke="#63b8ff" d="M637.77,-109.98C626.77,-102 610.08,-89.88 596.9,-80.31"/>
<polygon fill="#63b8ff" stroke="#63b8ff" points="598.59,-77.21 588.44,-74.17 594.48,-82.88 598.59,-77.21"/>
</a>
</g>
</g>
<!-- Node23&#45;&gt;Node15 -->
<g id="edge33_Node000023_Node000015" class="edge">
<title>Node23&#45;&gt;Node15</title>
<g id="a_edge33_Node000023_Node000015"><a xlink:title=" ">
<path fill="none" stroke="#63b8ff" d="M654.82,-109.62C663.96,-95.28 684.14,-67.35 709.5,-55 749.34,-35.6 1052.36,-17.78 1154.79,-12.26"/>
<polygon fill="#63b8ff" stroke="#63b8ff" points="1155.09,-15.74 1164.89,-11.72 1154.72,-8.75 1155.09,-15.74"/>
</a>
</g>
</g>
<!-- Node24 -->
<g id="Node000024" class="node">
<title>Node24</title>
<g id="a_Node000024"><a xlink:title=" ">
<polygon fill="#e0e0e0" stroke="#999999" points="435.5,-74 391.5,-74 391.5,-55 435.5,-55 435.5,-74"/>
<text text-anchor="middle" x="413.5" y="-62" font-family="Helvetica,sans-Serif" font-size="10.00">string</text>
</a>
</g>
</g>
<!-- Node23&#45;&gt;Node24 -->
<g id="edge31_Node000023_Node000024" class="edge">
<title>Node23&#45;&gt;Node24</title>
<g id="a_edge31_Node000023_Node000024"><a xlink:title=" ">
<path fill="none" stroke="#63b8ff" d="M611.58,-109.98C565.6,-99.66 488.9,-82.43 445.67,-72.73"/>
<polygon fill="#63b8ff" stroke="#63b8ff" points="446.22,-69.26 435.7,-70.49 444.69,-76.09 446.22,-69.26"/>
</a>
</g>
</g>
<!-- Node25&#45;&gt;Node3 -->
<g id="edge35_Node000025_Node000003" class="edge">
<title>Node25&#45;&gt;Node3</title>
<g id="a_edge35_Node000025_Node000003"><a xlink:title=" ">
<path fill="none" stroke="#63b8ff" d="M272.92,-109.8C268.37,-100.96 261.39,-86.76 256.5,-74 250.83,-59.21 245.77,-41.96 242.29,-29.18"/>
<polygon fill="#63b8ff" stroke="#63b8ff" points="245.61,-28.04 239.68,-19.27 238.85,-29.83 245.61,-28.04"/>
</a>
</g>
</g>
<!-- Node25&#45;&gt;Node4 -->
<g id="edge37_Node000025_Node000004" class="edge">
<title>Node25&#45;&gt;Node4</title>
<g id="a_edge37_Node000025_Node000004"><a xlink:title=" ">
<path fill="none" stroke="#63b8ff" d="M245.05,-109.98C210.54,-100.93 155.84,-86.58 117.94,-76.64"/>
<polygon fill="#63b8ff" stroke="#63b8ff" points="118.77,-73.23 108.21,-74.08 116.99,-80.01 118.77,-73.23"/>
</a>
</g>
</g>
<!-- Node25&#45;&gt;Node24 -->
<g id="edge36_Node000025_Node000024" class="edge">
<title>Node25&#45;&gt;Node24</title>
<g id="a_edge36_Node000025_Node000024"><a xlink:title=" ">
<path fill="none" stroke="#63b8ff" d="M299.35,-109.98C321.62,-101.3 356.4,-87.75 381.72,-77.88"/>
<polygon fill="#63b8ff" stroke="#63b8ff" points="383.21,-81.06 391.25,-74.17 380.66,-74.54 383.21,-81.06"/>
</a>
</g>
</g>
<!-- Node26&#45;&gt;Node3 -->
<g id="edge39_Node000026_Node000003" class="edge">
<title>Node26&#45;&gt;Node3</title>
<g id="a_edge39_Node000026_Node000003"><a xlink:title=" ">
<path fill="none" stroke="#63b8ff" d="M464.38,-109.65C463.68,-95.86 460.22,-69.32 444.5,-55 421.33,-33.9 337.19,-21.17 283.58,-15.01"/>
<polygon fill="#63b8ff" stroke="#63b8ff" points="283.95,-11.53 273.62,-13.91 283.17,-18.49 283.95,-11.53"/>
</a>
</g>
</g>
<!-- Node26&#45;&gt;Node12 -->
<g id="edge42_Node000026_Node000012" class="edge">
<title>Node26&#45;&gt;Node12</title>
<g id="a_edge42_Node000026_Node000012"><a xlink:title=" ">
<path fill="none" stroke="#63b8ff" d="M482.49,-109.98C500.43,-101.5 528.22,-88.35 548.93,-78.54"/>
<polygon fill="#63b8ff" stroke="#63b8ff" points="550.64,-81.61 558.18,-74.17 547.64,-75.28 550.64,-81.61"/>
</a>
</g>
</g>
<!-- Node26&#45;&gt;Node24 -->
<g id="edge41_Node000026_Node000024" class="edge">
<title>Node26&#45;&gt;Node24</title>
<g id="a_edge41_Node000026_Node000024"><a xlink:title=" ">
<path fill="none" stroke="#63b8ff" d="M456.08,-109.75C448.73,-102.11 437.87,-90.82 428.96,-81.56"/>
<polygon fill="#63b8ff" stroke="#63b8ff" points="431.22,-78.87 421.76,-74.09 426.18,-83.72 431.22,-78.87"/>
</a>
</g>
</g>
<!-- Node27 -->
<g id="Node000027" class="node">
<title>Node27</title>
<g id="a_Node000027"><a xlink:title=" ">
<polygon fill="#e0e0e0" stroke="#999999" points="373.5,-74 265.5,-74 265.5,-55 373.5,-55 373.5,-74"/>
<text text-anchor="middle" x="319.5" y="-62" font-family="Helvetica,sans-Serif" font-size="10.00">SDL2/SDL_image.h</text>
</a>
</g>
</g>
<!-- Node26&#45;&gt;Node27 -->
<g id="edge40_Node000026_Node000027" class="edge">
<title>Node26&#45;&gt;Node27</title>
<g id="a_edge40_Node000026_Node000027"><a xlink:title=" ">
<path fill="none" stroke="#63b8ff" d="M441.2,-109.98C417.25,-101.23 379.72,-87.51 352.67,-77.62"/>
<polygon fill="#63b8ff" stroke="#63b8ff" points="353.81,-74.32 343.22,-74.17 351.41,-80.89 353.81,-74.32"/>
</a>
</g>
</g>
</g>
</svg>
