<?xml version="1.0" encoding="UTF-8" standalone="no"?>
<!DOCTYPE svg PUBLIC "-//W3C//DTD SVG 1.1//EN"
 "http://www.w3.org/Graphics/SVG/1.1/DTD/svg11.dtd">
<!-- Generated by graphviz version 2.43.0 (0)
 -->
<!-- Title: /home/runner/work/R&#45;Type/R&#45;Type/Client/src/engine/graphics/RenderSystem.cpp Pages: 1 -->
<svg width="1050pt" height="225pt"
 viewBox="0.00 0.00 1050.00 225.00" xmlns="http://www.w3.org/2000/svg" xmlns:xlink="http://www.w3.org/1999/xlink">
<g id="graph0" class="graph" transform="scale(1 1) rotate(0) translate(4 221)">
<title>/home/runner/work/R&#45;Type/R&#45;Type/Client/src/engine/graphics/RenderSystem.cpp</title>
<!-- Node1 -->
<g id="Node000001" class="node">
<title>Node1</title>
<g id="a_Node000001"><a xlink:title=" ">
<polygon fill="#999999" stroke="#666666" points="961.5,-217 842.5,-217 842.5,-165 961.5,-165 961.5,-217"/>
<text text-anchor="start" x="850.5" y="-205" font-family="Helvetica,sans-Serif" font-size="10.00">/home/runner/work/R</text>
<text text-anchor="start" x="850.5" y="-194" font-family="Helvetica,sans-Serif" font-size="10.00">&#45;Type/R&#45;Type/Client</text>
<text text-anchor="start" x="850.5" y="-183" font-family="Helvetica,sans-Serif" font-size="10.00">/src/engine/graphics</text>
<text text-anchor="middle" x="902" y="-172" font-family="Helvetica,sans-Serif" font-size="10.00">/RenderSystem.cpp</text>
</a>
</g>
</g>
<!-- Node2 -->
<g id="Node000002" class="node">
<title>Node2</title>
<g id="a_Node000002"><a xlink:href="RenderSystem_8hpp.html" target="_top" xlink:title=" ">
<polygon fill="white" stroke="#666666" points="441.5,-129 288.5,-129 288.5,-110 441.5,-110 441.5,-129"/>
<text text-anchor="middle" x="365" y="-117" font-family="Helvetica,sans-Serif" font-size="10.00">graphics/RenderSystem.hpp</text>
</a>
</g>
</g>
<!-- Node1&#45;&gt;Node2 -->
<g id="edge1_Node000001_Node000002" class="edge">
<title>Node1&#45;&gt;Node2</title>
<g id="a_edge1_Node000001_Node000002"><a xlink:title=" ">
<path fill="none" stroke="#63b8ff" d="M842.48,-182.3C744.47,-169.61 549.23,-144.34 441.24,-130.37"/>
<polygon fill="#63b8ff" stroke="#63b8ff" points="441.43,-126.86 431.07,-129.05 440.54,-133.81 441.43,-126.86"/>
</a>
</g>
</g>
<!-- Node10 -->
<g id="Node000010" class="node">
<title>Node10</title>
<g id="a_Node000010"><a xlink:title=" ">
<polygon fill="#e0e0e0" stroke="#999999" points="824.5,-19 777.5,-19 777.5,0 824.5,0 824.5,-19"/>
<text text-anchor="middle" x="801" y="-7" font-family="Helvetica,sans-Serif" font-size="10.00">vector</text>
</a>
</g>
</g>
<!-- Node1&#45;&gt;Node10 -->
<g id="edge22_Node000001_Node000010" class="edge">
<title>Node1&#45;&gt;Node10</title>
<g id="a_edge22_Node000001_Node000010"><a xlink:title=" ">
<path fill="none" stroke="#63b8ff" d="M896.95,-164.81C890.33,-136.25 876.7,-89.23 853,-55 844.97,-43.4 833.2,-32.99 822.89,-25.15"/>
<polygon fill="#63b8ff" stroke="#63b8ff" points="824.84,-22.24 814.68,-19.21 820.73,-27.91 824.84,-22.24"/>
</a>
</g>
</g>
<!-- Node14 -->
<g id="Node000014" class="node">
<title>Node14</title>
<g id="a_Node000014"><a xlink:title=" ">
<polygon fill="#e0e0e0" stroke="#999999" points="964,-129 900,-129 900,-110 964,-110 964,-129"/>
<text text-anchor="middle" x="932" y="-117" font-family="Helvetica,sans-Serif" font-size="10.00">algorithm</text>
</a>
</g>
</g>
<!-- Node1&#45;&gt;Node14 -->
<g id="edge20_Node000001_Node000014" class="edge">
<title>Node1&#45;&gt;Node14</title>
<g id="a_edge20_Node000001_Node000014"><a xlink:title=" ">
<path fill="none" stroke="#63b8ff" d="M912.83,-164.91C916.57,-156.26 920.67,-146.74 924.13,-138.74"/>
<polygon fill="#63b8ff" stroke="#63b8ff" points="927.45,-139.87 928.2,-129.3 921.02,-137.1 927.45,-139.87"/>
</a>
</g>
</g>
<!-- Node15 -->
<g id="Node000015" class="node">
<title>Node15</title>
<g id="a_Node000015"><a xlink:title=" ">
<polygon fill="#e0e0e0" stroke="#999999" points="1042,-129 982,-129 982,-110 1042,-110 1042,-129"/>
<text text-anchor="middle" x="1012" y="-117" font-family="Helvetica,sans-Serif" font-size="10.00">iostream</text>
</a>
</g>
</g>
<!-- Node1&#45;&gt;Node15 -->
<g id="edge21_Node000001_Node000015" class="edge">
<title>Node1&#45;&gt;Node15</title>
<g id="a_edge21_Node000001_Node000015"><a xlink:title=" ">
<path fill="none" stroke="#63b8ff" d="M941.71,-164.91C957.81,-154.74 975.81,-143.36 989.56,-134.68"/>
<polygon fill="#63b8ff" stroke="#63b8ff" points="991.75,-137.44 998.33,-129.14 988.01,-131.52 991.75,-137.44"/>
</a>
</g>
</g>
<!-- Node3 -->
<g id="Node000003" class="node">
<title>Node3</title>
<g id="a_Node000003"><a xlink:title=" ">
<polygon fill="#e0e0e0" stroke="#999999" points="315,-19 243,-19 243,0 315,0 315,-19"/>
<text text-anchor="middle" x="279" y="-7" font-family="Helvetica,sans-Serif" font-size="10.00">SDL2/SDL.h</text>
</a>
</g>
</g>
<!-- Node2&#45;&gt;Node3 -->
<g id="edge2_Node000002_Node000003" class="edge">
<title>Node2&#45;&gt;Node3</title>
<g id="a_edge2_Node000002_Node000003"><a xlink:title=" ">
<path fill="none" stroke="#63b8ff" d="M288.3,-110.45C241.35,-103.76 187.56,-92.32 173,-74 152.29,-47.95 195.61,-30.15 232.96,-20.17"/>
<polygon fill="#63b8ff" stroke="#63b8ff" points="233.94,-23.53 242.78,-17.68 232.23,-16.75 233.94,-23.53"/>
</a>
</g>
</g>
<!-- Node4 -->
<g id="Node000004" class="node">
<title>Node4</title>
<g id="a_Node000004"><a xlink:title=" ">
<polygon fill="#e0e0e0" stroke="#999999" points="212.5,-19 61.5,-19 61.5,0 212.5,0 212.5,-19"/>
<text text-anchor="middle" x="137" y="-7" font-family="Helvetica,sans-Serif" font-size="10.00">components/Physics2D.hpp</text>
</a>
</g>
</g>
<!-- Node2&#45;&gt;Node4 -->
<g id="edge3_Node000002_Node000004" class="edge">
<title>Node2&#45;&gt;Node4</title>
<g id="a_edge3_Node000002_Node000004"><a xlink:title=" ">
<path fill="none" stroke="#63b8ff" d="M295.64,-110C245.77,-102.64 183.93,-90.56 164,-74 150.49,-62.77 143.6,-43.58 140.18,-29.22"/>
<polygon fill="#63b8ff" stroke="#63b8ff" points="143.6,-28.5 138.18,-19.4 136.74,-29.9 143.6,-28.5"/>
</a>
</g>
</g>
<!-- Node5 -->
<g id="Node000005" class="node">
<title>Node5</title>
<g id="a_Node000005"><a xlink:title=" ">
<polygon fill="#e0e0e0" stroke="#999999" points="844,-74 748,-74 748,-55 844,-55 844,-74"/>
<text text-anchor="middle" x="796" y="-62" font-family="Helvetica,sans-Serif" font-size="10.00">ecs/Registry.hpp</text>
</a>
</g>
</g>
<!-- Node2&#45;&gt;Node5 -->
<g id="edge4_Node000002_Node000005" class="edge">
<title>Node2&#45;&gt;Node5</title>
<g id="a_edge4_Node000002_Node000005"><a xlink:title=" ">
<path fill="none" stroke="#63b8ff" d="M441.73,-110.04C515.1,-101.8 629.12,-88.6 737.66,-74.15"/>
<polygon fill="#63b8ff" stroke="#63b8ff" points="738.36,-77.58 747.81,-72.79 737.44,-70.64 738.36,-77.58"/>
</a>
</g>
</g>
<!-- Node6 -->
<g id="Node000006" class="node">
<title>Node6</title>
<g id="a_Node000006"><a xlink:title=" ">
<polygon fill="#e0e0e0" stroke="#999999" points="88,-74 0,-74 0,-55 88,-55 88,-74"/>
<text text-anchor="middle" x="44" y="-62" font-family="Helvetica,sans-Serif" font-size="10.00">ecs/Zipper.hpp</text>
</a>
</g>
</g>
<!-- Node2&#45;&gt;Node6 -->
<g id="edge5_Node000002_Node000006" class="edge">
<title>Node2&#45;&gt;Node6</title>
<g id="a_edge5_Node000002_Node000006"><a xlink:title=" ">
<path fill="none" stroke="#63b8ff" d="M313.43,-109.98C254.45,-100.25 158.34,-84.38 98.26,-74.46"/>
<polygon fill="#63b8ff" stroke="#63b8ff" points="98.65,-70.98 88.21,-72.8 97.51,-77.88 98.65,-70.98"/>
</a>
</g>
</g>
<!-- Node7 -->
<g id="Node000007" class="node">
<title>Node7</title>
<g id="a_Node000007"><a xlink:href="AnimationManager_8hpp.html" target="_top" xlink:title=" ">
<polygon fill="white" stroke="#666666" points="730,-74 556,-74 556,-55 730,-55 730,-74"/>
<text text-anchor="middle" x="643" y="-62" font-family="Helvetica,sans-Serif" font-size="10.00">graphics/AnimationManager.hpp</text>
</a>
</g>
</g>
<!-- Node2&#45;&gt;Node7 -->
<g id="edge6_Node000002_Node000007" class="edge">
<title>Node2&#45;&gt;Node7</title>
<g id="a_edge6_Node000002_Node000007"><a xlink:title=" ">
<path fill="none" stroke="#63b8ff" d="M409.67,-109.98C458.16,-100.74 535.65,-85.97 587.89,-76.01"/>
<polygon fill="#63b8ff" stroke="#63b8ff" points="588.82,-79.39 597.98,-74.08 587.51,-72.52 588.82,-79.39"/>
</a>
</g>
</g>
<!-- Node11 -->
<g id="Node000011" class="node">
<title>Node11</title>
<g id="a_Node000011"><a xlink:href="RenderComponents_8hpp.html" target="_top" xlink:title=" ">
<polygon fill="white" stroke="#666666" points="360,-74 182,-74 182,-55 360,-55 360,-74"/>
<text text-anchor="middle" x="271" y="-62" font-family="Helvetica,sans-Serif" font-size="10.00">graphics/RenderComponents.hpp</text>
</a>
</g>
</g>
<!-- Node2&#45;&gt;Node11 -->
<g id="edge11_Node000002_Node000011" class="edge">
<title>Node2&#45;&gt;Node11</title>
<g id="a_edge11_Node000002_Node000011"><a xlink:title=" ">
<path fill="none" stroke="#63b8ff" d="M349.9,-109.98C335.18,-101.69 312.58,-88.94 295.33,-79.22"/>
<polygon fill="#63b8ff" stroke="#63b8ff" points="296.81,-76.03 286.38,-74.17 293.37,-82.13 296.81,-76.03"/>
</a>
</g>
</g>
<!-- Node12 -->
<g id="Node000012" class="node">
<title>Node12</title>
<g id="a_Node000012"><a xlink:href="TextureManager_8hpp.html" target="_top" xlink:title=" ">
<polygon fill="white" stroke="#666666" points="538,-74 378,-74 378,-55 538,-55 538,-74"/>
<text text-anchor="middle" x="458" y="-62" font-family="Helvetica,sans-Serif" font-size="10.00">graphics/TextureManager.hpp</text>
</a>
</g>
</g>
<!-- Node2&#45;&gt;Node12 -->
<g id="edge15_Node000002_Node000012" class="edge">
<title>Node2&#45;&gt;Node12</title>
<g id="a_edge15_Node000002_Node000012"><a xlink:title=" ">
<path fill="none" stroke="#63b8ff" d="M379.94,-109.98C394.5,-101.69 416.87,-88.94 433.93,-79.22"/>
<polygon fill="#63b8ff" stroke="#63b8ff" points="435.83,-82.16 442.79,-74.17 432.36,-76.08 435.83,-82.16"/>
</a>
</g>
</g>
<!-- Node7&#45;&gt;Node3 -->
<g id="edge7_Node000007_Node000003" class="edge">
<title>Node7&#45;&gt;Node3</title>
<g id="a_edge7_Node000007_Node000003"><a xlink:title=" ">
<path fill="none" stroke="#63b8ff" d="M584.52,-54.98C512.41,-44.49 391.33,-26.86 325.32,-17.24"/>
<polygon fill="#63b8ff" stroke="#63b8ff" points="325.62,-13.75 315.22,-15.77 324.61,-20.68 325.62,-13.75"/>
</a>
</g>
</g>
<!-- Node8 -->
<g id="Node000008" class="node">
<title>Node8</title>
<g id="a_Node000008"><a xlink:title=" ">
<polygon fill="#e0e0e0" stroke="#999999" points="402,-19 358,-19 358,0 402,0 402,-19"/>
<text text-anchor="middle" x="380" y="-7" font-family="Helvetica,sans-Serif" font-size="10.00">string</text>
</a>
</g>
</g>
<!-- Node7&#45;&gt;Node8 -->
<g id="edge8_Node000007_Node000008" class="edge">
<title>Node7&#45;&gt;Node8</title>
<g id="a_edge8_Node000007_Node000008"><a xlink:title=" ">
<path fill="none" stroke="#63b8ff" d="M592.53,-54.99C547.58,-47.15 479.83,-34.69 412.26,-19.15"/>
<polygon fill="#63b8ff" stroke="#63b8ff" points="412.83,-15.69 402.3,-16.84 411.25,-22.51 412.83,-15.69"/>
</a>
</g>
</g>
<!-- Node9 -->
<g id="Node000009" class="node">
<title>Node9</title>
<g id="a_Node000009"><a xlink:title=" ">
<polygon fill="#e0e0e0" stroke="#999999" points="672.5,-19 579.5,-19 579.5,0 672.5,0 672.5,-19"/>
<text text-anchor="middle" x="626" y="-7" font-family="Helvetica,sans-Serif" font-size="10.00">unordered_map</text>
</a>
</g>
</g>
<!-- Node7&#45;&gt;Node9 -->
<g id="edge9_Node000007_Node000009" class="edge">
<title>Node7&#45;&gt;Node9</title>
<g id="a_edge9_Node000007_Node000009"><a xlink:title=" ">
<path fill="none" stroke="#63b8ff" d="M640.19,-54.75C637.94,-47.72 634.7,-37.62 631.88,-28.84"/>
<polygon fill="#63b8ff" stroke="#63b8ff" points="635.14,-27.54 628.75,-19.09 628.48,-29.68 635.14,-27.54"/>
</a>
</g>
</g>
<!-- Node7&#45;&gt;Node10 -->
<g id="edge10_Node000007_Node000010" class="edge">
<title>Node7&#45;&gt;Node10</title>
<g id="a_edge10_Node000007_Node000010"><a xlink:title=" ">
<path fill="none" stroke="#63b8ff" d="M668.39,-54.98C695.42,-45.91 738.33,-31.52 767.98,-21.58"/>
<polygon fill="#63b8ff" stroke="#63b8ff" points="769.12,-24.89 777.48,-18.39 766.89,-18.25 769.12,-24.89"/>
</a>
</g>
</g>
<!-- Node11&#45;&gt;Node3 -->
<g id="edge12_Node000011_Node000003" class="edge">
<title>Node11&#45;&gt;Node3</title>
<g id="a_edge12_Node000011_Node000003"><a xlink:title=" ">
<path fill="none" stroke="#63b8ff" d="M272.32,-54.75C273.37,-47.8 274.87,-37.85 276.19,-29.13"/>
<polygon fill="#63b8ff" stroke="#63b8ff" points="279.67,-29.5 277.7,-19.09 272.75,-28.45 279.67,-29.5"/>
</a>
</g>
</g>
<!-- Node11&#45;&gt;Node4 -->
<g id="edge14_Node000011_Node000004" class="edge">
<title>Node11&#45;&gt;Node4</title>
<g id="a_edge14_Node000011_Node000004"><a xlink:title=" ">
<path fill="none" stroke="#63b8ff" d="M249.47,-54.98C227.53,-46.3 193.26,-32.75 168.31,-22.88"/>
<polygon fill="#63b8ff" stroke="#63b8ff" points="169.51,-19.59 158.92,-19.17 166.93,-26.1 169.51,-19.59"/>
</a>
</g>
</g>
<!-- Node11&#45;&gt;Node8 -->
<g id="edge13_Node000011_Node000008" class="edge">
<title>Node11&#45;&gt;Node8</title>
<g id="a_edge13_Node000011_Node000008"><a xlink:title=" ">
<path fill="none" stroke="#63b8ff" d="M288.51,-54.98C305.97,-46.5 333.01,-33.35 353.17,-23.54"/>
<polygon fill="#63b8ff" stroke="#63b8ff" points="354.71,-26.69 362.17,-19.17 351.64,-20.4 354.71,-26.69"/>
</a>
</g>
</g>
<!-- Node12&#45;&gt;Node3 -->
<g id="edge16_Node000012_Node000003" class="edge">
<title>Node12&#45;&gt;Node3</title>
<g id="a_edge16_Node000012_Node000003"><a xlink:title=" ">
<path fill="none" stroke="#63b8ff" d="M429.24,-54.98C399.06,-46.05 351.43,-31.94 317.9,-22.02"/>
<polygon fill="#63b8ff" stroke="#63b8ff" points="318.57,-18.57 307.98,-19.08 316.58,-25.28 318.57,-18.57"/>
</a>
</g>
</g>
<!-- Node12&#45;&gt;Node8 -->
<g id="edge18_Node000012_Node000008" class="edge">
<title>Node12&#45;&gt;Node8</title>
<g id="a_edge18_Node000012_Node000008"><a xlink:title=" ">
<path fill="none" stroke="#63b8ff" d="M445.47,-54.98C433.6,-46.92 415.54,-34.65 401.39,-25.03"/>
<polygon fill="#63b8ff" stroke="#63b8ff" points="403,-21.9 392.76,-19.17 399.06,-27.69 403,-21.9"/>
</a>
</g>
</g>
<!-- Node12&#45;&gt;Node9 -->
<g id="edge19_Node000012_Node000009" class="edge">
<title>Node12&#45;&gt;Node9</title>
<g id="a_edge19_Node000012_Node000009"><a xlink:title=" ">
<path fill="none" stroke="#63b8ff" d="M484.99,-54.98C513.2,-46.09 557.64,-32.07 589.08,-22.15"/>
<polygon fill="#63b8ff" stroke="#63b8ff" points="590.31,-25.43 598.8,-19.08 588.21,-18.75 590.31,-25.43"/>
</a>
</g>
</g>
<!-- Node13 -->
<g id="Node000013" class="node">
<title>Node13</title>
<g id="a_Node000013"><a xlink:title=" ">
<polygon fill="#e0e0e0" stroke="#999999" points="528,-19 420,-19 420,0 528,0 528,-19"/>
<text text-anchor="middle" x="474" y="-7" font-family="Helvetica,sans-Serif" font-size="10.00">SDL2/SDL_image.h</text>
</a>
</g>
</g>
<!-- Node12&#45;&gt;Node13 -->
<g id="edge17_Node000012_Node000013" class="edge">
<title>Node12&#45;&gt;Node13</title>
<g id="a_edge17_Node000012_Node000013"><a xlink:title=" ">
<path fill="none" stroke="#63b8ff" d="M460.64,-54.75C462.76,-47.72 465.81,-37.62 468.46,-28.84"/>
<polygon fill="#63b8ff" stroke="#63b8ff" points="471.87,-29.67 471.41,-19.09 465.17,-27.65 471.87,-29.67"/>
</a>
</g>
</g>
</g>
</svg>
