<?xml version="1.0" encoding="UTF-8" standalone="no"?>
<!DOCTYPE svg PUBLIC "-//W3C//DTD SVG 1.1//EN"
 "http://www.w3.org/Graphics/SVG/1.1/DTD/svg11.dtd">
<!-- Generated by graphviz version 2.43.0 (0)
 -->
<!-- Title: /home/runner/work/R&#45;Type/R&#45;Type/Client/src/engine/graphics/RenderComponents.hpp Pages: 1 -->
<svg width="1393pt" height="467pt"
 viewBox="0.00 0.00 1393.00 467.00" xmlns="http://www.w3.org/2000/svg" xmlns:xlink="http://www.w3.org/1999/xlink">
<g id="graph0" class="graph" transform="scale(1 1) rotate(0) translate(4 463)">
<title>/home/runner/work/R&#45;Type/R&#45;Type/Client/src/engine/graphics/RenderComponents.hpp</title>
<!-- Node1 -->
<g id="Node000001" class="node">
<title>Node1</title>
<g id="a_Node000001"><a xlink:title=" ">
<polygon fill="#999999" stroke="#666666" points="586.5,-459 449.5,-459 449.5,-407 586.5,-407 586.5,-459"/>
<text text-anchor="start" x="457.5" y="-447" font-family="Helvetica,sans-Serif" font-size="10.00">/home/runner/work/R</text>
<text text-anchor="start" x="457.5" y="-436" font-family="Helvetica,sans-Serif" font-size="10.00">&#45;Type/R&#45;Type/Client</text>
<text text-anchor="start" x="457.5" y="-425" font-family="Helvetica,sans-Serif" font-size="10.00">/src/engine/graphics</text>
<text text-anchor="middle" x="518" y="-414" font-family="Helvetica,sans-Serif" font-size="10.00">/RenderComponents.hpp</text>
</a>
</g>
</g>
<!-- Node2 -->
<g id="Node000002" class="node">
<title>Node2</title>
<g id="a_Node000002"><a xlink:href="GameEngine_8hpp.html" target="_top" xlink:title=" ">
<polygon fill="white" stroke="#666666" points="662,-195 506,-195 506,-154 662,-154 662,-195"/>
<text text-anchor="start" x="514" y="-183" font-family="Helvetica,sans-Serif" font-size="10.00">/home/runner/work/R</text>
<text text-anchor="start" x="514" y="-172" font-family="Helvetica,sans-Serif" font-size="10.00">&#45;Type/R&#45;Type/Client</text>
<text text-anchor="middle" x="584" y="-161" font-family="Helvetica,sans-Serif" font-size="10.00">/src/engine/GameEngine.hpp</text>
</a>
</g>
</g>
<!-- Node1&#45;&gt;Node2 -->
<g id="edge1_Node000001_Node000002" class="edge">
<title>Node1&#45;&gt;Node2</title>
<g id="a_edge1_Node000001_Node000002"><a xlink:title=" ">
<path fill="none" stroke="#63b8ff" d="M441.51,-401.41C429.71,-393.3 419.1,-383.28 412,-371 380.85,-317.14 375.38,-281.3 412,-231 433.52,-201.45 471.07,-187.3 505.61,-180.65"/>
<polygon fill="#63b8ff" stroke="#63b8ff" points="439.97,-404.57 450.29,-406.98 443.72,-398.66 439.97,-404.57"/>
</a>
</g>
</g>
<!-- Node10 -->
<g id="Node000010" class="node">
<title>Node10</title>
<g id="a_Node000010"><a xlink:href="RenderSystem_8hpp.html" target="_top" xlink:title=" ">
<polygon fill="white" stroke="#666666" points="752.5,-371 633.5,-371 633.5,-319 752.5,-319 752.5,-371"/>
<text text-anchor="start" x="641.5" y="-359" font-family="Helvetica,sans-Serif" font-size="10.00">/home/runner/work/R</text>
<text text-anchor="start" x="641.5" y="-348" font-family="Helvetica,sans-Serif" font-size="10.00">&#45;Type/R&#45;Type/Client</text>
<text text-anchor="start" x="641.5" y="-337" font-family="Helvetica,sans-Serif" font-size="10.00">/src/engine/graphics</text>
<text text-anchor="middle" x="693" y="-326" font-family="Helvetica,sans-Serif" font-size="10.00">/RenderSystem.hpp</text>
</a>
</g>
</g>
<!-- Node1&#45;&gt;Node10 -->
<g id="edge13_Node000001_Node000010" class="edge">
<title>Node1&#45;&gt;Node10</title>
<g id="a_edge13_Node000001_Node000010"><a xlink:title=" ">
<path fill="none" stroke="#63b8ff" d="M578.13,-402.45C598.87,-392.26 621.89,-380.94 641.85,-371.14"/>
<polygon fill="#63b8ff" stroke="#63b8ff" points="576.52,-399.34 569.09,-406.89 579.61,-405.62 576.52,-399.34"/>
</a>
</g>
</g>
<!-- Node12 -->
<g id="Node000012" class="node">
<title>Node12</title>
<g id="a_Node000012"><a xlink:href="InputManager_8hpp.html" target="_top" xlink:title=" ">
<polygon fill="white" stroke="#666666" points="615,-365.5 421,-365.5 421,-324.5 615,-324.5 615,-365.5"/>
<text text-anchor="start" x="429" y="-353.5" font-family="Helvetica,sans-Serif" font-size="10.00">/home/runner/work/R</text>
<text text-anchor="start" x="429" y="-342.5" font-family="Helvetica,sans-Serif" font-size="10.00">&#45;Type/R&#45;Type/Client</text>
<text text-anchor="middle" x="518" y="-331.5" font-family="Helvetica,sans-Serif" font-size="10.00">/src/engine/inputs/InputManager.hpp</text>
</a>
</g>
</g>
<!-- Node1&#45;&gt;Node12 -->
<g id="edge16_Node000001_Node000012" class="edge">
<title>Node1&#45;&gt;Node12</title>
<g id="a_edge16_Node000001_Node000012"><a xlink:title=" ">
<path fill="none" stroke="#63b8ff" d="M518,-396.45C518,-385.94 518,-374.82 518,-365.7"/>
<polygon fill="#63b8ff" stroke="#63b8ff" points="514.5,-396.66 518,-406.66 521.5,-396.66 514.5,-396.66"/>
</a>
</g>
</g>
<!-- Node3 -->
<g id="Node000003" class="node">
<title>Node3</title>
<g id="a_Node000003"><a xlink:href="Main_8cpp.html" target="_top" xlink:title=" ">
<polygon fill="white" stroke="#666666" points="724.5,-41 605.5,-41 605.5,0 724.5,0 724.5,-41"/>
<text text-anchor="start" x="613.5" y="-29" font-family="Helvetica,sans-Serif" font-size="10.00">/home/runner/work/R</text>
<text text-anchor="start" x="613.5" y="-18" font-family="Helvetica,sans-Serif" font-size="10.00">&#45;Type/R&#45;Type/Client</text>
<text text-anchor="middle" x="665" y="-7" font-family="Helvetica,sans-Serif" font-size="10.00">/src/Main.cpp</text>
</a>
</g>
</g>
<!-- Node2&#45;&gt;Node3 -->
<g id="edge2_Node000002_Node000003" class="edge">
<title>Node2&#45;&gt;Node3</title>
<g id="a_edge2_Node000002_Node000003"><a xlink:title=" ">
<path fill="none" stroke="#63b8ff" d="M532.31,-148.48C520.96,-140.41 510.43,-130.29 504,-118 495.55,-101.86 493.42,-91.84 504,-77 526.91,-44.86 569.71,-31.15 605.43,-25.39"/>
<polygon fill="#63b8ff" stroke="#63b8ff" points="530.39,-151.41 540.66,-154 534.24,-145.56 530.39,-151.41"/>
</a>
</g>
</g>
<!-- Node4 -->
<g id="Node000004" class="node">
<title>Node4</title>
<g id="a_Node000004"><a xlink:href="GameEngine_8cpp.html" target="_top" xlink:title=" ">
<polygon fill="white" stroke="#666666" points="456.5,-118 301.5,-118 301.5,-77 456.5,-77 456.5,-118"/>
<text text-anchor="start" x="309.5" y="-106" font-family="Helvetica,sans-Serif" font-size="10.00">/home/runner/work/R</text>
<text text-anchor="start" x="309.5" y="-95" font-family="Helvetica,sans-Serif" font-size="10.00">&#45;Type/R&#45;Type/Client</text>
<text text-anchor="middle" x="379" y="-84" font-family="Helvetica,sans-Serif" font-size="10.00">/src/engine/GameEngine.cpp</text>
</a>
</g>
</g>
<!-- Node2&#45;&gt;Node4 -->
<g id="edge3_Node000002_Node000004" class="edge">
<title>Node2&#45;&gt;Node4</title>
<g id="a_edge3_Node000002_Node000004"><a xlink:title=" ">
<path fill="none" stroke="#63b8ff" d="M521.24,-150.54C492.83,-140.15 459.61,-127.99 432.41,-118.04"/>
<polygon fill="#63b8ff" stroke="#63b8ff" points="520.08,-153.84 530.67,-153.99 522.49,-147.27 520.08,-153.84"/>
</a>
</g>
</g>
<!-- Node5 -->
<g id="Node000005" class="node">
<title>Node5</title>
<g id="a_Node000005"><a xlink:href="SceneManager_8cpp.html" target="_top" xlink:title=" ">
<polygon fill="white" stroke="#666666" points="1033,-118 837,-118 837,-77 1033,-77 1033,-118"/>
<text text-anchor="start" x="845" y="-106" font-family="Helvetica,sans-Serif" font-size="10.00">/home/runner/work/R</text>
<text text-anchor="start" x="845" y="-95" font-family="Helvetica,sans-Serif" font-size="10.00">&#45;Type/R&#45;Type/Client</text>
<text text-anchor="middle" x="935" y="-84" font-family="Helvetica,sans-Serif" font-size="10.00">/src/engine/scene/SceneManager.cpp</text>
</a>
</g>
</g>
<!-- Node2&#45;&gt;Node5 -->
<g id="edge4_Node000002_Node000005" class="edge">
<title>Node2&#45;&gt;Node5</title>
<g id="a_edge4_Node000002_Node000005"><a xlink:title=" ">
<path fill="none" stroke="#63b8ff" d="M672.27,-154.64C724.56,-143.47 790.71,-129.33 843.55,-118.04"/>
<polygon fill="#63b8ff" stroke="#63b8ff" points="671.38,-151.25 662.33,-156.76 672.85,-158.09 671.38,-151.25"/>
</a>
</g>
</g>
<!-- Node6 -->
<g id="Node000006" class="node">
<title>Node6</title>
<g id="a_Node000006"><a xlink:href="JoinGame_8hpp.html" target="_top" xlink:title=" ">
<polygon fill="white" stroke="#666666" points="655,-118 513,-118 513,-77 655,-77 655,-118"/>
<text text-anchor="start" x="521" y="-106" font-family="Helvetica,sans-Serif" font-size="10.00">/home/runner/work/R</text>
<text text-anchor="start" x="521" y="-95" font-family="Helvetica,sans-Serif" font-size="10.00">&#45;Type/R&#45;Type/Client</text>
<text text-anchor="middle" x="584" y="-84" font-family="Helvetica,sans-Serif" font-size="10.00">/src/scenes/JoinGame.hpp</text>
</a>
</g>
</g>
<!-- Node2&#45;&gt;Node6 -->
<g id="edge5_Node000002_Node000006" class="edge">
<title>Node2&#45;&gt;Node6</title>
<g id="a_edge5_Node000002_Node000006"><a xlink:title=" ">
<path fill="none" stroke="#63b8ff" d="M584,-143.69C584,-135.08 584,-125.9 584,-118.07"/>
<polygon fill="#63b8ff" stroke="#63b8ff" points="580.5,-143.79 584,-153.79 587.5,-143.79 580.5,-143.79"/>
</a>
</g>
</g>
<!-- Node7 -->
<g id="Node000007" class="node">
<title>Node7</title>
<g id="a_Node000007"><a xlink:href="MainMenu_8hpp.html" target="_top" xlink:title=" ">
<polygon fill="white" stroke="#666666" points="819,-118 673,-118 673,-77 819,-77 819,-118"/>
<text text-anchor="start" x="681" y="-106" font-family="Helvetica,sans-Serif" font-size="10.00">/home/runner/work/R</text>
<text text-anchor="start" x="681" y="-95" font-family="Helvetica,sans-Serif" font-size="10.00">&#45;Type/R&#45;Type/Client</text>
<text text-anchor="middle" x="746" y="-84" font-family="Helvetica,sans-Serif" font-size="10.00">/src/scenes/MainMenu.hpp</text>
</a>
</g>
</g>
<!-- Node2&#45;&gt;Node7 -->
<g id="edge7_Node000002_Node000007" class="edge">
<title>Node2&#45;&gt;Node7</title>
<g id="a_edge7_Node000002_Node000007"><a xlink:title=" ">
<path fill="none" stroke="#63b8ff" d="M635.36,-149.72C657.41,-139.51 682.86,-127.73 703.79,-118.04"/>
<polygon fill="#63b8ff" stroke="#63b8ff" points="633.74,-146.61 626.14,-153.99 636.69,-152.97 633.74,-146.61"/>
</a>
</g>
</g>
<!-- Node8 -->
<g id="Node000008" class="node">
<title>Node8</title>
<g id="a_Node000008"><a xlink:href="Options_8hpp.html" target="_top" xlink:title=" ">
<polygon fill="white" stroke="#666666" points="1183,-118 1051,-118 1051,-77 1183,-77 1183,-118"/>
<text text-anchor="start" x="1059" y="-106" font-family="Helvetica,sans-Serif" font-size="10.00">/home/runner/work/R</text>
<text text-anchor="start" x="1059" y="-95" font-family="Helvetica,sans-Serif" font-size="10.00">&#45;Type/R&#45;Type/Client</text>
<text text-anchor="middle" x="1117" y="-84" font-family="Helvetica,sans-Serif" font-size="10.00">/src/scenes/Options.hpp</text>
</a>
</g>
</g>
<!-- Node2&#45;&gt;Node8 -->
<g id="edge9_Node000002_Node000008" class="edge">
<title>Node2&#45;&gt;Node8</title>
<g id="a_edge9_Node000002_Node000008"><a xlink:title=" ">
<path fill="none" stroke="#63b8ff" d="M672.46,-166.32C765.1,-157.97 914.57,-142.17 1042,-118 1044.91,-117.45 1047.87,-116.85 1050.86,-116.21"/>
<polygon fill="#63b8ff" stroke="#63b8ff" points="671.94,-162.85 662.29,-167.22 672.56,-169.82 671.94,-162.85"/>
</a>
</g>
</g>
<!-- Node9 -->
<g id="Node000009" class="node">
<title>Node9</title>
<g id="a_Node000009"><a xlink:href="WaitLobby_8hpp.html" target="_top" xlink:title=" ">
<polygon fill="white" stroke="#666666" points="283,-118 139,-118 139,-77 283,-77 283,-118"/>
<text text-anchor="start" x="147" y="-106" font-family="Helvetica,sans-Serif" font-size="10.00">/home/runner/work/R</text>
<text text-anchor="start" x="147" y="-95" font-family="Helvetica,sans-Serif" font-size="10.00">&#45;Type/R&#45;Type/Client</text>
<text text-anchor="middle" x="211" y="-84" font-family="Helvetica,sans-Serif" font-size="10.00">/src/scenes/WaitLobby.hpp</text>
</a>
</g>
</g>
<!-- Node2&#45;&gt;Node9 -->
<g id="edge11_Node000002_Node000009" class="edge">
<title>Node2&#45;&gt;Node9</title>
<g id="a_edge11_Node000002_Node000009"><a xlink:title=" ">
<path fill="none" stroke="#63b8ff" d="M495.84,-157.89C437.79,-147.33 360.19,-132.68 292,-118 289.17,-117.39 286.29,-116.76 283.38,-116.11"/>
<polygon fill="#63b8ff" stroke="#63b8ff" points="495.25,-161.34 505.71,-159.68 496.5,-154.45 495.25,-161.34"/>
</a>
</g>
</g>
<!-- Node6&#45;&gt;Node3 -->
<g id="edge6_Node000006_Node000003" class="edge">
<title>Node6&#45;&gt;Node3</title>
<g id="a_edge6_Node000006_Node000003"><a xlink:title=" ">
<path fill="none" stroke="#63b8ff" d="M612.85,-69.79C623.08,-60.32 634.39,-49.84 643.86,-41.07"/>
<polygon fill="#63b8ff" stroke="#63b8ff" points="610.24,-67.43 605.28,-76.79 615,-72.57 610.24,-67.43"/>
</a>
</g>
</g>
<!-- Node7&#45;&gt;Node3 -->
<g id="edge8_Node000007_Node000003" class="edge">
<title>Node7&#45;&gt;Node3</title>
<g id="a_edge8_Node000007_Node000003"><a xlink:title=" ">
<path fill="none" stroke="#63b8ff" d="M717.15,-69.79C706.92,-60.32 695.61,-49.84 686.14,-41.07"/>
<polygon fill="#63b8ff" stroke="#63b8ff" points="715,-72.57 724.72,-76.79 719.76,-67.43 715,-72.57"/>
</a>
</g>
</g>
<!-- Node8&#45;&gt;Node3 -->
<g id="edge10_Node000008_Node000003" class="edge">
<title>Node8&#45;&gt;Node3</title>
<g id="a_edge10_Node000008_Node000003"><a xlink:title=" ">
<path fill="none" stroke="#63b8ff" d="M1040.97,-76.89C923.66,-53.49 797.36,-36.95 724.77,-28.27"/>
<polygon fill="#63b8ff" stroke="#63b8ff" points="1040.34,-80.34 1050.84,-78.88 1041.73,-73.48 1040.34,-80.34"/>
</a>
</g>
</g>
<!-- Node9&#45;&gt;Node3 -->
<g id="edge12_Node000009_Node000003" class="edge">
<title>Node9&#45;&gt;Node3</title>
<g id="a_edge12_Node000009_Node000003"><a xlink:title=" ">
<path fill="none" stroke="#63b8ff" d="M293.45,-76.8C409.19,-54.65 533.5,-37.79 605.29,-28.73"/>
<polygon fill="#63b8ff" stroke="#63b8ff" points="292.51,-73.41 283.35,-78.75 293.84,-80.29 292.51,-73.41"/>
</a>
</g>
</g>
<!-- Node10&#45;&gt;Node2 -->
<g id="edge14_Node000010_Node000002" class="edge">
<title>Node10&#45;&gt;Node2</title>
<g id="a_edge14_Node000010_Node000002"><a xlink:title=" ">
<path fill="none" stroke="#63b8ff" d="M672.66,-310.03C658.96,-287.42 640.29,-257.18 623,-231 615.02,-218.91 605.7,-205.63 598.18,-195.09"/>
<polygon fill="#63b8ff" stroke="#63b8ff" points="669.68,-311.86 677.84,-318.6 675.67,-308.23 669.68,-311.86"/>
</a>
</g>
</g>
<!-- Node11 -->
<g id="Node000011" class="node">
<title>Node11</title>
<g id="a_Node000011"><a xlink:href="RenderSystem_8cpp.html" target="_top" xlink:title=" ">
<polygon fill="white" stroke="#666666" points="1005.5,-283 886.5,-283 886.5,-231 1005.5,-231 1005.5,-283"/>
<text text-anchor="start" x="894.5" y="-271" font-family="Helvetica,sans-Serif" font-size="10.00">/home/runner/work/R</text>
<text text-anchor="start" x="894.5" y="-260" font-family="Helvetica,sans-Serif" font-size="10.00">&#45;Type/R&#45;Type/Client</text>
<text text-anchor="start" x="894.5" y="-249" font-family="Helvetica,sans-Serif" font-size="10.00">/src/engine/graphics</text>
<text text-anchor="middle" x="946" y="-238" font-family="Helvetica,sans-Serif" font-size="10.00">/RenderSystem.cpp</text>
</a>
</g>
</g>
<!-- Node10&#45;&gt;Node11 -->
<g id="edge15_Node000010_Node000011" class="edge">
<title>Node10&#45;&gt;Node11</title>
<g id="a_edge15_Node000010_Node000011"><a xlink:title=" ">
<path fill="none" stroke="#63b8ff" d="M762.34,-321.75C797.15,-310.43 839.91,-296.28 878,-283 880.73,-282.05 883.52,-281.06 886.34,-280.06"/>
<polygon fill="#63b8ff" stroke="#63b8ff" points="761.17,-318.45 752.74,-324.87 763.34,-325.11 761.17,-318.45"/>
</a>
</g>
</g>
<!-- Node13 -->
<g id="Node000013" class="node">
<title>Node13</title>
<g id="a_Node000013"><a xlink:href="InputManager_8cpp.html" target="_top" xlink:title=" ">
<polygon fill="white" stroke="#666666" points="614.5,-277.5 421.5,-277.5 421.5,-236.5 614.5,-236.5 614.5,-277.5"/>
<text text-anchor="start" x="429.5" y="-265.5" font-family="Helvetica,sans-Serif" font-size="10.00">/home/runner/work/R</text>
<text text-anchor="start" x="429.5" y="-254.5" font-family="Helvetica,sans-Serif" font-size="10.00">&#45;Type/R&#45;Type/Client</text>
<text text-anchor="middle" x="518" y="-243.5" font-family="Helvetica,sans-Serif" font-size="10.00">/src/engine/inputs/InputManager.cpp</text>
</a>
</g>
</g>
<!-- Node12&#45;&gt;Node13 -->
<g id="edge17_Node000012_Node000013" class="edge">
<title>Node12&#45;&gt;Node13</title>
<g id="a_edge17_Node000012_Node000013"><a xlink:title=" ">
<path fill="none" stroke="#63b8ff" d="M518,-314.36C518,-302.26 518,-288.58 518,-277.74"/>
<polygon fill="#63b8ff" stroke="#63b8ff" points="514.5,-314.49 518,-324.49 521.5,-314.49 514.5,-314.49"/>
</a>
</g>
</g>
<!-- Node14 -->
<g id="Node000014" class="node">
<title>Node14</title>
<g id="a_Node000014"><a xlink:href="InputSystem_8hpp.html" target="_top" xlink:title=" ">
<polygon fill="white" stroke="#666666" points="365,-277.5 177,-277.5 177,-236.5 365,-236.5 365,-277.5"/>
<text text-anchor="start" x="185" y="-265.5" font-family="Helvetica,sans-Serif" font-size="10.00">/home/runner/work/R</text>
<text text-anchor="start" x="185" y="-254.5" font-family="Helvetica,sans-Serif" font-size="10.00">&#45;Type/R&#45;Type/Client</text>
<text text-anchor="middle" x="271" y="-243.5" font-family="Helvetica,sans-Serif" font-size="10.00">/src/engine/inputs/InputSystem.hpp</text>
</a>
</g>
</g>
<!-- Node12&#45;&gt;Node14 -->
<g id="edge18_Node000012_Node000014" class="edge">
<title>Node12&#45;&gt;Node14</title>
<g id="a_edge18_Node000012_Node000014"><a xlink:title=" ">
<path fill="none" stroke="#63b8ff" d="M452.27,-321.11C413.3,-307.55 364.43,-290.53 327.25,-277.59"/>
<polygon fill="#63b8ff" stroke="#63b8ff" points="451.36,-324.5 461.95,-324.49 453.66,-317.89 451.36,-324.5"/>
</a>
</g>
</g>
<!-- Node17 -->
<g id="Node000017" class="node">
<title>Node17</title>
<g id="a_Node000017"><a xlink:href="SceneManager_8hpp.html" target="_top" xlink:title=" ">
<polygon fill="white" stroke="#666666" points="868.5,-277.5 671.5,-277.5 671.5,-236.5 868.5,-236.5 868.5,-277.5"/>
<text text-anchor="start" x="679.5" y="-265.5" font-family="Helvetica,sans-Serif" font-size="10.00">/home/runner/work/R</text>
<text text-anchor="start" x="679.5" y="-254.5" font-family="Helvetica,sans-Serif" font-size="10.00">&#45;Type/R&#45;Type/Client</text>
<text text-anchor="middle" x="770" y="-243.5" font-family="Helvetica,sans-Serif" font-size="10.00">/src/engine/scene/SceneManager.hpp</text>
</a>
</g>
</g>
<!-- Node12&#45;&gt;Node17 -->
<g id="edge23_Node000012_Node000017" class="edge">
<title>Node12&#45;&gt;Node17</title>
<g id="a_edge23_Node000012_Node000017"><a xlink:title=" ">
<path fill="none" stroke="#63b8ff" d="M584.81,-321.2C624.6,-307.62 674.6,-290.56 712.61,-277.59"/>
<polygon fill="#63b8ff" stroke="#63b8ff" points="583.52,-317.94 575.18,-324.49 585.78,-324.57 583.52,-317.94"/>
</a>
</g>
</g>
<!-- Node14&#45;&gt;Node2 -->
<g id="edge19_Node000014_Node000002" class="edge">
<title>Node14&#45;&gt;Node2</title>
<g id="a_edge19_Node000014_Node000002"><a xlink:title=" ">
<path fill="none" stroke="#63b8ff" d="M357.08,-233.86C404.35,-221.7 462.46,-206.76 508.03,-195.04"/>
<polygon fill="#63b8ff" stroke="#63b8ff" points="355.98,-230.53 347.17,-236.41 357.72,-237.31 355.98,-230.53"/>
</a>
</g>
</g>
<!-- Node15 -->
<g id="Node000015" class="node">
<title>Node15</title>
<g id="a_Node000015"><a xlink:href="InputSystem_8cpp.html" target="_top" xlink:title=" ">
<polygon fill="white" stroke="#666666" points="188,-195 0,-195 0,-154 188,-154 188,-195"/>
<text text-anchor="start" x="8" y="-183" font-family="Helvetica,sans-Serif" font-size="10.00">/home/runner/work/R</text>
<text text-anchor="start" x="8" y="-172" font-family="Helvetica,sans-Serif" font-size="10.00">&#45;Type/R&#45;Type/Client</text>
<text text-anchor="middle" x="94" y="-161" font-family="Helvetica,sans-Serif" font-size="10.00">/src/engine/inputs/InputSystem.cpp</text>
</a>
</g>
</g>
<!-- Node14&#45;&gt;Node15 -->
<g id="edge20_Node000014_Node000015" class="edge">
<title>Node14&#45;&gt;Node15</title>
<g id="a_edge20_Node000014_Node000015"><a xlink:title=" ">
<path fill="none" stroke="#63b8ff" d="M218.4,-232.08C192.5,-220.3 161.65,-206.27 137.16,-195.13"/>
<polygon fill="#63b8ff" stroke="#63b8ff" points="217.15,-235.35 227.7,-236.31 220.05,-228.98 217.15,-235.35"/>
</a>
</g>
</g>
<!-- Node16 -->
<g id="Node000016" class="node">
<title>Node16</title>
<g id="a_Node000016"><a xlink:href="MainGame_8hpp.html" target="_top" xlink:title=" ">
<polygon fill="white" stroke="#666666" points="354,-195 206,-195 206,-154 354,-154 354,-195"/>
<text text-anchor="start" x="214" y="-183" font-family="Helvetica,sans-Serif" font-size="10.00">/home/runner/work/R</text>
<text text-anchor="start" x="214" y="-172" font-family="Helvetica,sans-Serif" font-size="10.00">&#45;Type/R&#45;Type/Client</text>
<text text-anchor="middle" x="280" y="-161" font-family="Helvetica,sans-Serif" font-size="10.00">/src/scenes/MainGame.hpp</text>
</a>
</g>
</g>
<!-- Node14&#45;&gt;Node16 -->
<g id="edge21_Node000014_Node000016" class="edge">
<title>Node14&#45;&gt;Node16</title>
<g id="a_edge21_Node000014_Node000016"><a xlink:title=" ">
<path fill="none" stroke="#63b8ff" d="M274.37,-225.87C275.52,-215.6 276.77,-204.4 277.8,-195.17"/>
<polygon fill="#63b8ff" stroke="#63b8ff" points="270.86,-225.77 273.22,-236.1 277.81,-226.55 270.86,-225.77"/>
</a>
</g>
</g>
<!-- Node16&#45;&gt;Node3 -->
<g id="edge22_Node000016_Node000003" class="edge">
<title>Node16&#45;&gt;Node3</title>
<g id="a_edge22_Node000016_Node000003"><a xlink:title=" ">
<path fill="none" stroke="#63b8ff" d="M196.02,-151.59C166.51,-142.07 138.55,-130.29 130,-118 119.59,-103.05 117.8,-90.53 130,-77 161.38,-42.19 472.54,-27.85 605.38,-23.28"/>
<polygon fill="#63b8ff" stroke="#63b8ff" points="195.04,-154.95 205.63,-154.6 197.13,-148.27 195.04,-154.95"/>
</a>
</g>
</g>
<!-- Node17&#45;&gt;Node2 -->
<g id="edge25_Node000017_Node000002" class="edge">
<title>Node17&#45;&gt;Node2</title>
<g id="a_edge25_Node000017_Node000002"><a xlink:title=" ">
<path fill="none" stroke="#63b8ff" d="M715.09,-232.23C687.79,-220.42 655.21,-206.32 629.35,-195.13"/>
<polygon fill="#63b8ff" stroke="#63b8ff" points="713.93,-235.55 724.5,-236.31 716.71,-229.12 713.93,-235.55"/>
</a>
</g>
</g>
<!-- Node17&#45;&gt;Node3 -->
<g id="edge24_Node000017_Node000003" class="edge">
<title>Node17&#45;&gt;Node3</title>
<g id="a_edge24_Node000017_Node000003"><a xlink:title=" ">
<path fill="none" stroke="#63b8ff" d="M855.2,-233.89C972.55,-202.6 1171.8,-146.07 1192,-118 1202.65,-103.21 1204.19,-90.54 1192,-77 1161.19,-42.77 856.12,-28.13 724.71,-23.38"/>
<polygon fill="#63b8ff" stroke="#63b8ff" points="854.27,-230.52 845.51,-236.47 856.07,-237.28 854.27,-230.52"/>
</a>
</g>
</g>
<!-- Node17&#45;&gt;Node5 -->
<g id="edge26_Node000017_Node000005" class="edge">
<title>Node17&#45;&gt;Node5</title>
<g id="a_edge26_Node000017_Node000005"><a xlink:title=" ">
<path fill="none" stroke="#63b8ff" d="M798.07,-229.2C831.09,-197.69 885.09,-146.15 914.44,-118.13"/>
<polygon fill="#63b8ff" stroke="#63b8ff" points="795.38,-226.93 790.56,-236.37 800.21,-232 795.38,-226.93"/>
</a>
</g>
</g>
<!-- Node17&#45;&gt;Node6 -->
<g id="edge29_Node000017_Node000006" class="edge">
<title>Node17&#45;&gt;Node6</title>
<g id="a_edge29_Node000017_Node000006"><a xlink:title=" ">
<path fill="none" stroke="#63b8ff" d="M746.71,-228.72C727.57,-207.14 699.11,-176.92 671,-154 654.75,-140.75 635.19,-128.02 618.73,-118.1"/>
<polygon fill="#63b8ff" stroke="#63b8ff" points="744.1,-231.05 753.33,-236.25 749.36,-226.43 744.1,-231.05"/>
</a>
</g>
</g>
<!-- Node17&#45;&gt;Node7 -->
<g id="edge31_Node000017_Node000007" class="edge">
<title>Node17&#45;&gt;Node7</title>
<g id="a_edge31_Node000017_Node000007"><a xlink:title=" ">
<path fill="none" stroke="#63b8ff" d="M765.49,-226.39C760.67,-194.79 753.18,-145.63 749.03,-118.38"/>
<polygon fill="#63b8ff" stroke="#63b8ff" points="762.04,-227.01 767.01,-236.37 768.96,-225.96 762.04,-227.01"/>
</a>
</g>
</g>
<!-- Node17&#45;&gt;Node8 -->
<g id="edge32_Node000017_Node000008" class="edge">
<title>Node17&#45;&gt;Node8</title>
<g id="a_edge32_Node000017_Node000008"><a xlink:title=" ">
<path fill="none" stroke="#63b8ff" d="M822.6,-232.13C891.34,-200.93 1010.42,-146.88 1074.03,-118"/>
<polygon fill="#63b8ff" stroke="#63b8ff" points="820.91,-229.05 813.25,-236.37 823.8,-235.42 820.91,-229.05"/>
</a>
</g>
</g>
<!-- Node17&#45;&gt;Node9 -->
<g id="edge33_Node000017_Node000009" class="edge">
<title>Node17&#45;&gt;Node9</title>
<g id="a_edge33_Node000017_Node000009"><a xlink:title=" ">
<path fill="none" stroke="#63b8ff" d="M661.52,-234.51C611.18,-223.84 550.71,-210.02 497,-195 414.36,-171.89 320.42,-138.87 263.46,-118.06"/>
<polygon fill="#63b8ff" stroke="#63b8ff" points="660.94,-237.97 671.45,-236.6 662.39,-231.12 660.94,-237.97"/>
</a>
</g>
</g>
<!-- Node17&#45;&gt;Node16 -->
<g id="edge30_Node000017_Node000016" class="edge">
<title>Node17&#45;&gt;Node16</title>
<g id="a_edge30_Node000017_Node000016"><a xlink:title=" ">
<path fill="none" stroke="#63b8ff" d="M660.95,-237.35C648.16,-235.2 635.29,-233.04 623,-231 530.46,-215.64 423.79,-198.47 354.3,-187.35"/>
<polygon fill="#63b8ff" stroke="#63b8ff" points="660.73,-240.87 671.18,-239.08 661.9,-233.96 660.73,-240.87"/>
</a>
</g>
</g>
<!-- Node18 -->
<g id="Node000018" class="node">
<title>Node18</title>
<g id="a_Node000018"><a xlink:href="GameOver_8hpp.html" target="_top" xlink:title=" ">
<polygon fill="white" stroke="#666666" points="1385,-195 1239,-195 1239,-154 1385,-154 1385,-195"/>
<text text-anchor="start" x="1247" y="-183" font-family="Helvetica,sans-Serif" font-size="10.00">/home/runner/work/R</text>
<text text-anchor="start" x="1247" y="-172" font-family="Helvetica,sans-Serif" font-size="10.00">&#45;Type/R&#45;Type/Client</text>
<text text-anchor="middle" x="1312" y="-161" font-family="Helvetica,sans-Serif" font-size="10.00">/src/scenes/GameOver.hpp</text>
</a>
</g>
</g>
<!-- Node17&#45;&gt;Node18 -->
<g id="edge27_Node000017_Node000018" class="edge">
<title>Node17&#45;&gt;Node18</title>
<g id="a_edge27_Node000017_Node000018"><a xlink:title=" ">
<path fill="none" stroke="#63b8ff" d="M859.31,-234.42C865.62,-233.18 871.9,-232.02 878,-231 1030.93,-205.47 1071.98,-220 1225,-195 1229.43,-194.28 1233.97,-193.47 1238.55,-192.6"/>
<polygon fill="#63b8ff" stroke="#63b8ff" points="858.5,-231.02 849.4,-236.44 859.9,-237.87 858.5,-231.02"/>
</a>
</g>
</g>
<!-- Node18&#45;&gt;Node3 -->
<g id="edge28_Node000018_Node000003" class="edge">
<title>Node18&#45;&gt;Node3</title>
<g id="a_edge28_Node000018_Node000003"><a xlink:title=" ">
<path fill="none" stroke="#63b8ff" d="M1294.89,-145.05C1279.61,-122.44 1255.04,-92.18 1225,-77 1138.68,-33.37 850.89,-24.03 724.92,-22.04"/>
<polygon fill="#63b8ff" stroke="#63b8ff" points="1292.07,-147.14 1300.47,-153.6 1297.93,-143.31 1292.07,-147.14"/>
</a>
</g>
</g>
</g>
</svg>
