<?xml version="1.0" encoding="UTF-8" standalone="no"?>
<!DOCTYPE svg PUBLIC "-//W3C//DTD SVG 1.1//EN"
 "http://www.w3.org/Graphics/SVG/1.1/DTD/svg11.dtd">
<!-- Generated by graphviz version 2.43.0 (0)
 -->
<!-- Title: /home/runner/work/R&#45;Type/R&#45;Type/Client/src/engine/graphics/RenderSystem.hpp Pages: 1 -->
<svg width="1032pt" height="302pt"
 viewBox="0.00 0.00 1032.14 302.00" xmlns="http://www.w3.org/2000/svg" xmlns:xlink="http://www.w3.org/1999/xlink">
<g id="graph0" class="graph" transform="scale(1 1) rotate(0) translate(4 298)">
<title>/home/runner/work/R&#45;Type/R&#45;Type/Client/src/engine/graphics/RenderSystem.hpp</title>
<!-- Node1 -->
<g id="Node000001" class="node">
<title>Node1</title>
<g id="a_Node000001"><a xlink:title=" ">
<polygon fill="#999999" stroke="#666666" points="614.64,-294 495.64,-294 495.64,-242 614.64,-242 614.64,-294"/>
<text text-anchor="start" x="503.64" y="-282" font-family="Helvetica,sans-Serif" font-size="10.00">/home/runner/work/R</text>
<text text-anchor="start" x="503.64" y="-271" font-family="Helvetica,sans-Serif" font-size="10.00">&#45;Type/R&#45;Type/Client</text>
<text text-anchor="start" x="503.64" y="-260" font-family="Helvetica,sans-Serif" font-size="10.00">/src/engine/graphics</text>
<text text-anchor="middle" x="555.14" y="-249" font-family="Helvetica,sans-Serif" font-size="10.00">/RenderSystem.hpp</text>
</a>
</g>
</g>
<!-- Node2 -->
<g id="Node000002" class="node">
<title>Node2</title>
<g id="a_Node000002"><a xlink:href="GameEngine_8hpp.html" target="_top" xlink:title=" ">
<polygon fill="white" stroke="#666666" points="555.14,-200.5 399.14,-200.5 399.14,-159.5 555.14,-159.5 555.14,-200.5"/>
<text text-anchor="start" x="407.14" y="-188.5" font-family="Helvetica,sans-Serif" font-size="10.00">/home/runner/work/R</text>
<text text-anchor="start" x="407.14" y="-177.5" font-family="Helvetica,sans-Serif" font-size="10.00">&#45;Type/R&#45;Type/Client</text>
<text text-anchor="middle" x="477.14" y="-166.5" font-family="Helvetica,sans-Serif" font-size="10.00">/src/engine/GameEngine.hpp</text>
</a>
</g>
</g>
<!-- Node1&#45;&gt;Node2 -->
<g id="edge1_Node000001_Node000002" class="edge">
<title>Node1&#45;&gt;Node2</title>
<g id="a_edge1_Node000001_Node000002"><a xlink:title=" ">
<path fill="none" stroke="#63b8ff" d="M525.27,-234.07C515.06,-222.81 503.97,-210.58 495.01,-200.7"/>
<polygon fill="#63b8ff" stroke="#63b8ff" points="522.85,-236.61 532.16,-241.66 528.04,-231.9 522.85,-236.61"/>
</a>
</g>
</g>
<!-- Node10 -->
<g id="Node000010" class="node">
<title>Node10</title>
<g id="a_Node000010"><a xlink:href="RenderSystem_8cpp.html" target="_top" xlink:title=" ">
<polygon fill="white" stroke="#666666" points="692.64,-206 573.64,-206 573.64,-154 692.64,-154 692.64,-206"/>
<text text-anchor="start" x="581.64" y="-194" font-family="Helvetica,sans-Serif" font-size="10.00">/home/runner/work/R</text>
<text text-anchor="start" x="581.64" y="-183" font-family="Helvetica,sans-Serif" font-size="10.00">&#45;Type/R&#45;Type/Client</text>
<text text-anchor="start" x="581.64" y="-172" font-family="Helvetica,sans-Serif" font-size="10.00">/src/engine/graphics</text>
<text text-anchor="middle" x="633.14" y="-161" font-family="Helvetica,sans-Serif" font-size="10.00">/RenderSystem.cpp</text>
</a>
</g>
</g>
<!-- Node1&#45;&gt;Node10 -->
<g id="edge13_Node000001_Node000010" class="edge">
<title>Node1&#45;&gt;Node10</title>
<g id="a_edge13_Node000001_Node000010"><a xlink:title=" ">
<path fill="none" stroke="#63b8ff" d="M585,-234.08C593.4,-224.81 602.41,-214.89 610.33,-206.16"/>
<polygon fill="#63b8ff" stroke="#63b8ff" points="582.25,-231.9 578.12,-241.66 587.43,-236.61 582.25,-231.9"/>
</a>
</g>
</g>
<!-- Node3 -->
<g id="Node000003" class="node">
<title>Node3</title>
<g id="a_Node000003"><a xlink:href="Main_8cpp.html" target="_top" xlink:title=" ">
<polygon fill="white" stroke="#666666" points="698.64,-41 579.64,-41 579.64,0 698.64,0 698.64,-41"/>
<text text-anchor="start" x="587.64" y="-29" font-family="Helvetica,sans-Serif" font-size="10.00">/home/runner/work/R</text>
<text text-anchor="start" x="587.64" y="-18" font-family="Helvetica,sans-Serif" font-size="10.00">&#45;Type/R&#45;Type/Client</text>
<text text-anchor="middle" x="639.14" y="-7" font-family="Helvetica,sans-Serif" font-size="10.00">/src/Main.cpp</text>
</a>
</g>
</g>
<!-- Node2&#45;&gt;Node3 -->
<g id="edge2_Node000002_Node000003" class="edge">
<title>Node2&#45;&gt;Node3</title>
<g id="a_edge2_Node000002_Node000003"><a xlink:title=" ">
<path fill="none" stroke="#63b8ff" d="M388.75,-173.69C260.08,-165.04 33.75,-146.02 9.14,-118 -2.88,-104.31 -3.17,-90.44 9.14,-77 47.22,-35.42 429.67,-24.84 579.44,-22.28"/>
<polygon fill="#63b8ff" stroke="#63b8ff" points="388.77,-177.2 398.98,-174.37 389.24,-170.21 388.77,-177.2"/>
</a>
</g>
</g>
<!-- Node4 -->
<g id="Node000004" class="node">
<title>Node4</title>
<g id="a_Node000004"><a xlink:href="GameEngine_8cpp.html" target="_top" xlink:title=" ">
<polygon fill="white" stroke="#666666" points="173.64,-118 18.64,-118 18.64,-77 173.64,-77 173.64,-118"/>
<text text-anchor="start" x="26.64" y="-106" font-family="Helvetica,sans-Serif" font-size="10.00">/home/runner/work/R</text>
<text text-anchor="start" x="26.64" y="-95" font-family="Helvetica,sans-Serif" font-size="10.00">&#45;Type/R&#45;Type/Client</text>
<text text-anchor="middle" x="96.14" y="-84" font-family="Helvetica,sans-Serif" font-size="10.00">/src/engine/GameEngine.cpp</text>
</a>
</g>
</g>
<!-- Node2&#45;&gt;Node4 -->
<g id="edge3_Node000002_Node000004" class="edge">
<title>Node2&#45;&gt;Node4</title>
<g id="a_edge3_Node000002_Node000004"><a xlink:title=" ">
<path fill="none" stroke="#63b8ff" d="M389.14,-161.12C330.68,-149.15 252.26,-132.92 183.14,-118 180.12,-117.35 177.03,-116.68 173.92,-116"/>
<polygon fill="#63b8ff" stroke="#63b8ff" points="388.58,-164.58 399.08,-163.15 389.98,-157.72 388.58,-164.58"/>
</a>
</g>
</g>
<!-- Node5 -->
<g id="Node000005" class="node">
<title>Node5</title>
<g id="a_Node000005"><a xlink:href="SceneManager_8cpp.html" target="_top" xlink:title=" ">
<polygon fill="white" stroke="#666666" points="388.14,-118 192.14,-118 192.14,-77 388.14,-77 388.14,-118"/>
<text text-anchor="start" x="200.14" y="-106" font-family="Helvetica,sans-Serif" font-size="10.00">/home/runner/work/R</text>
<text text-anchor="start" x="200.14" y="-95" font-family="Helvetica,sans-Serif" font-size="10.00">&#45;Type/R&#45;Type/Client</text>
<text text-anchor="middle" x="290.14" y="-84" font-family="Helvetica,sans-Serif" font-size="10.00">/src/engine/scene/SceneManager.cpp</text>
</a>
</g>
</g>
<!-- Node2&#45;&gt;Node5 -->
<g id="edge4_Node000002_Node000005" class="edge">
<title>Node2&#45;&gt;Node5</title>
<g id="a_edge4_Node000002_Node000005"><a xlink:title=" ">
<path fill="none" stroke="#63b8ff" d="M421.93,-155.23C394.49,-143.42 361.73,-129.32 335.74,-118.13"/>
<polygon fill="#63b8ff" stroke="#63b8ff" points="420.83,-158.57 431.4,-159.31 423.6,-152.14 420.83,-158.57"/>
</a>
</g>
</g>
<!-- Node6 -->
<g id="Node000006" class="node">
<title>Node6</title>
<g id="a_Node000006"><a xlink:href="JoinGame_8hpp.html" target="_top" xlink:title=" ">
<polygon fill="white" stroke="#666666" points="548.14,-118 406.14,-118 406.14,-77 548.14,-77 548.14,-118"/>
<text text-anchor="start" x="414.14" y="-106" font-family="Helvetica,sans-Serif" font-size="10.00">/home/runner/work/R</text>
<text text-anchor="start" x="414.14" y="-95" font-family="Helvetica,sans-Serif" font-size="10.00">&#45;Type/R&#45;Type/Client</text>
<text text-anchor="middle" x="477.14" y="-84" font-family="Helvetica,sans-Serif" font-size="10.00">/src/scenes/JoinGame.hpp</text>
</a>
</g>
</g>
<!-- Node2&#45;&gt;Node6 -->
<g id="edge5_Node000002_Node000006" class="edge">
<title>Node2&#45;&gt;Node6</title>
<g id="a_edge5_Node000002_Node000006"><a xlink:title=" ">
<path fill="none" stroke="#63b8ff" d="M477.14,-148.87C477.14,-138.6 477.14,-127.4 477.14,-118.17"/>
<polygon fill="#63b8ff" stroke="#63b8ff" points="473.64,-149.1 477.14,-159.1 480.64,-149.1 473.64,-149.1"/>
</a>
</g>
</g>
<!-- Node7 -->
<g id="Node000007" class="node">
<title>Node7</title>
<g id="a_Node000007"><a xlink:href="MainMenu_8hpp.html" target="_top" xlink:title=" ">
<polygon fill="white" stroke="#666666" points="712.14,-118 566.14,-118 566.14,-77 712.14,-77 712.14,-118"/>
<text text-anchor="start" x="574.14" y="-106" font-family="Helvetica,sans-Serif" font-size="10.00">/home/runner/work/R</text>
<text text-anchor="start" x="574.14" y="-95" font-family="Helvetica,sans-Serif" font-size="10.00">&#45;Type/R&#45;Type/Client</text>
<text text-anchor="middle" x="639.14" y="-84" font-family="Helvetica,sans-Serif" font-size="10.00">/src/scenes/MainMenu.hpp</text>
</a>
</g>
</g>
<!-- Node2&#45;&gt;Node7 -->
<g id="edge7_Node000002_Node000007" class="edge">
<title>Node2&#45;&gt;Node7</title>
<g id="a_edge7_Node000002_Node000007"><a xlink:title=" ">
<path fill="none" stroke="#63b8ff" d="M525.91,-154.77C549.49,-143.05 577.42,-129.17 599.64,-118.13"/>
<polygon fill="#63b8ff" stroke="#63b8ff" points="524.17,-151.72 516.77,-159.31 527.28,-157.99 524.17,-151.72"/>
</a>
</g>
</g>
<!-- Node8 -->
<g id="Node000008" class="node">
<title>Node8</title>
<g id="a_Node000008"><a xlink:href="Options_8hpp.html" target="_top" xlink:title=" ">
<polygon fill="white" stroke="#666666" points="862.14,-118 730.14,-118 730.14,-77 862.14,-77 862.14,-118"/>
<text text-anchor="start" x="738.14" y="-106" font-family="Helvetica,sans-Serif" font-size="10.00">/home/runner/work/R</text>
<text text-anchor="start" x="738.14" y="-95" font-family="Helvetica,sans-Serif" font-size="10.00">&#45;Type/R&#45;Type/Client</text>
<text text-anchor="middle" x="796.14" y="-84" font-family="Helvetica,sans-Serif" font-size="10.00">/src/scenes/Options.hpp</text>
</a>
</g>
</g>
<!-- Node2&#45;&gt;Node8 -->
<g id="edge9_Node000002_Node000008" class="edge">
<title>Node2&#45;&gt;Node8</title>
<g id="a_edge9_Node000002_Node000008"><a xlink:title=" ">
<path fill="none" stroke="#63b8ff" d="M553.85,-156.71C557.33,-155.78 560.77,-154.87 564.14,-154 633.46,-136.11 651.6,-135.01 721.14,-118 724.02,-117.3 726.95,-116.57 729.91,-115.83"/>
<polygon fill="#63b8ff" stroke="#63b8ff" points="552.74,-153.38 544.01,-159.39 554.58,-160.14 552.74,-153.38"/>
</a>
</g>
</g>
<!-- Node9 -->
<g id="Node000009" class="node">
<title>Node9</title>
<g id="a_Node000009"><a xlink:href="WaitLobby_8hpp.html" target="_top" xlink:title=" ">
<polygon fill="white" stroke="#666666" points="1024.14,-118 880.14,-118 880.14,-77 1024.14,-77 1024.14,-118"/>
<text text-anchor="start" x="888.14" y="-106" font-family="Helvetica,sans-Serif" font-size="10.00">/home/runner/work/R</text>
<text text-anchor="start" x="888.14" y="-95" font-family="Helvetica,sans-Serif" font-size="10.00">&#45;Type/R&#45;Type/Client</text>
<text text-anchor="middle" x="952.14" y="-84" font-family="Helvetica,sans-Serif" font-size="10.00">/src/scenes/WaitLobby.hpp</text>
</a>
</g>
</g>
<!-- Node2&#45;&gt;Node9 -->
<g id="edge11_Node000002_Node000009" class="edge">
<title>Node2&#45;&gt;Node9</title>
<g id="a_edge11_Node000002_Node000009"><a xlink:title=" ">
<path fill="none" stroke="#63b8ff" d="M550.55,-157C555.13,-155.91 559.69,-154.89 564.14,-154 698.83,-126.94 735.9,-142.12 871.14,-118 873.99,-117.49 876.89,-116.94 879.81,-116.37"/>
<polygon fill="#63b8ff" stroke="#63b8ff" points="549.37,-153.68 540.52,-159.5 551.07,-160.48 549.37,-153.68"/>
</a>
</g>
</g>
<!-- Node6&#45;&gt;Node3 -->
<g id="edge6_Node000006_Node000003" class="edge">
<title>Node6&#45;&gt;Node3</title>
<g id="a_edge6_Node000006_Node000003"><a xlink:title=" ">
<path fill="none" stroke="#63b8ff" d="M528.5,-72.72C550.55,-62.51 576,-50.73 596.93,-41.04"/>
<polygon fill="#63b8ff" stroke="#63b8ff" points="526.89,-69.61 519.28,-76.99 529.83,-75.97 526.89,-69.61"/>
</a>
</g>
</g>
<!-- Node7&#45;&gt;Node3 -->
<g id="edge8_Node000007_Node000003" class="edge">
<title>Node7&#45;&gt;Node3</title>
<g id="a_edge8_Node000007_Node000003"><a xlink:title=" ">
<path fill="none" stroke="#63b8ff" d="M639.14,-66.69C639.14,-58.08 639.14,-48.9 639.14,-41.07"/>
<polygon fill="#63b8ff" stroke="#63b8ff" points="635.64,-66.79 639.14,-76.79 642.64,-66.79 635.64,-66.79"/>
</a>
</g>
</g>
<!-- Node8&#45;&gt;Node3 -->
<g id="edge10_Node000008_Node000003" class="edge">
<title>Node8&#45;&gt;Node3</title>
<g id="a_edge10_Node000008_Node000003"><a xlink:title=" ">
<path fill="none" stroke="#63b8ff" d="M746.08,-72.59C724.78,-62.41 700.24,-50.69 680.05,-41.04"/>
<polygon fill="#63b8ff" stroke="#63b8ff" points="744.77,-75.84 755.3,-76.99 747.79,-69.52 744.77,-75.84"/>
</a>
</g>
</g>
<!-- Node9&#45;&gt;Node3 -->
<g id="edge12_Node000009_Node000003" class="edge">
<title>Node9&#45;&gt;Node3</title>
<g id="a_edge12_Node000009_Node000003"><a xlink:title=" ">
<path fill="none" stroke="#63b8ff" d="M869.88,-76.7C806.06,-61.39 743.33,-46.39 698.75,-35.73"/>
<polygon fill="#63b8ff" stroke="#63b8ff" points="869.18,-80.13 879.72,-79.06 870.81,-73.32 869.18,-80.13"/>
</a>
</g>
</g>
</g>
</svg>
