<?xml version="1.0" encoding="UTF-8" standalone="no"?>
<!DOCTYPE svg PUBLIC "-//W3C//DTD SVG 1.1//EN"
 "http://www.w3.org/Graphics/SVG/1.1/DTD/svg11.dtd">
<!-- Generated by graphviz version 2.43.0 (0)
 -->
<!-- Title: /home/runner/work/R&#45;Type/R&#45;Type/Client/src/engine/graphics/RenderComponents.hpp Pages: 1 -->
<svg width="1986pt" height="467pt"
 viewBox="0.00 0.00 1986.34 467.00" xmlns="http://www.w3.org/2000/svg" xmlns:xlink="http://www.w3.org/1999/xlink">
<g id="graph0" class="graph" transform="scale(1 1) rotate(0) translate(4 463)">
<title>/home/runner/work/R&#45;Type/R&#45;Type/Client/src/engine/graphics/RenderComponents.hpp</title>
<!-- Node1 -->
<g id="Node000001" class="node">
<title>Node1</title>
<g id="a_Node000001"><a xlink:title=" ">
<polygon fill="#999999" stroke="#666666" points="1269.5,-459 1132.5,-459 1132.5,-407 1269.5,-407 1269.5,-459"/>
<text text-anchor="start" x="1140.5" y="-447" font-family="Helvetica,sans-Serif" font-size="10.00">/home/runner/work/R</text>
<text text-anchor="start" x="1140.5" y="-436" font-family="Helvetica,sans-Serif" font-size="10.00">&#45;Type/R&#45;Type/Client</text>
<text text-anchor="start" x="1140.5" y="-425" font-family="Helvetica,sans-Serif" font-size="10.00">/src/engine/graphics</text>
<text text-anchor="middle" x="1201" y="-414" font-family="Helvetica,sans-Serif" font-size="10.00">/RenderComponents.hpp</text>
</a>
</g>
</g>
<!-- Node2 -->
<g id="Node000002" class="node">
<title>Node2</title>
<g id="a_Node000002"><a xlink:href="GameEngine_8hpp.html" target="_top" xlink:title=" ">
<polygon fill="white" stroke="#666666" points="1246,-195 1090,-195 1090,-154 1246,-154 1246,-195"/>
<text text-anchor="start" x="1098" y="-183" font-family="Helvetica,sans-Serif" font-size="10.00">/home/runner/work/R</text>
<text text-anchor="start" x="1098" y="-172" font-family="Helvetica,sans-Serif" font-size="10.00">&#45;Type/R&#45;Type/Client</text>
<text text-anchor="middle" x="1168" y="-161" font-family="Helvetica,sans-Serif" font-size="10.00">/src/engine/GameEngine.hpp</text>
</a>
</g>
</g>
<!-- Node1&#45;&gt;Node2 -->
<g id="edge1_Node000001_Node000002" class="edge">
<title>Node1&#45;&gt;Node2</title>
<g id="a_edge1_Node000001_Node000002"><a xlink:title=" ">
<path fill="none" stroke="#63b8ff" d="M1184.46,-397.57C1181.06,-389.07 1177.93,-379.86 1176,-371 1162.23,-307.94 1164.5,-230.8 1166.58,-195.21"/>
<polygon fill="#63b8ff" stroke="#63b8ff" points="1181.25,-398.97 1188.37,-406.82 1187.7,-396.24 1181.25,-398.97"/>
</a>
</g>
</g>
<!-- Node10 -->
<g id="Node000010" class="node">
<title>Node10</title>
<g id="a_Node000010"><a xlink:href="RenderSystem_8hpp.html" target="_top" xlink:title=" ">
<polygon fill="white" stroke="#666666" points="1304.5,-371 1185.5,-371 1185.5,-319 1304.5,-319 1304.5,-371"/>
<text text-anchor="start" x="1193.5" y="-359" font-family="Helvetica,sans-Serif" font-size="10.00">/home/runner/work/R</text>
<text text-anchor="start" x="1193.5" y="-348" font-family="Helvetica,sans-Serif" font-size="10.00">&#45;Type/R&#45;Type/Client</text>
<text text-anchor="start" x="1193.5" y="-337" font-family="Helvetica,sans-Serif" font-size="10.00">/src/engine/graphics</text>
<text text-anchor="middle" x="1245" y="-326" font-family="Helvetica,sans-Serif" font-size="10.00">/RenderSystem.hpp</text>
</a>
</g>
</g>
<!-- Node1&#45;&gt;Node10 -->
<g id="edge13_Node000001_Node000010" class="edge">
<title>Node1&#45;&gt;Node10</title>
<g id="a_edge13_Node000001_Node000010"><a xlink:title=" ">
<path fill="none" stroke="#63b8ff" d="M1218.56,-397.68C1223.09,-388.82 1227.89,-379.45 1232.13,-371.16"/>
<polygon fill="#63b8ff" stroke="#63b8ff" points="1215.4,-396.17 1213.96,-406.66 1221.63,-399.35 1215.4,-396.17"/>
</a>
</g>
</g>
<!-- Node12 -->
<g id="Node000012" class="node">
<title>Node12</title>
<g id="a_Node000012"><a xlink:href="InputManager_8hpp.html" target="_top" xlink:title=" ">
<polygon fill="white" stroke="#666666" points="1025,-365.5 831,-365.5 831,-324.5 1025,-324.5 1025,-365.5"/>
<text text-anchor="start" x="839" y="-353.5" font-family="Helvetica,sans-Serif" font-size="10.00">/home/runner/work/R</text>
<text text-anchor="start" x="839" y="-342.5" font-family="Helvetica,sans-Serif" font-size="10.00">&#45;Type/R&#45;Type/Client</text>
<text text-anchor="middle" x="928" y="-331.5" font-family="Helvetica,sans-Serif" font-size="10.00">/src/engine/inputs/InputManager.hpp</text>
</a>
</g>
</g>
<!-- Node1&#45;&gt;Node12 -->
<g id="edge16_Node000001_Node000012" class="edge">
<title>Node1&#45;&gt;Node12</title>
<g id="a_edge16_Node000001_Node000012"><a xlink:title=" ">
<path fill="none" stroke="#63b8ff" d="M1122.79,-407.36C1080.65,-394.09 1029.39,-377.94 990.03,-365.54"/>
<polygon fill="#63b8ff" stroke="#63b8ff" points="1121.87,-410.74 1132.46,-410.41 1123.98,-404.07 1121.87,-410.74"/>
</a>
</g>
</g>
<!-- Node24 -->
<g id="Node000024" class="node">
<title>Node24</title>
<g id="a_Node000024"><a xlink:href="ProjectileSystem_8cpp.html" target="_top" xlink:title=" ">
<polygon fill="white" stroke="#666666" points="1489.5,-365.5 1322.5,-365.5 1322.5,-324.5 1489.5,-324.5 1489.5,-365.5"/>
<text text-anchor="start" x="1330.5" y="-353.5" font-family="Helvetica,sans-Serif" font-size="10.00">/home/runner/work/R</text>
<text text-anchor="start" x="1330.5" y="-342.5" font-family="Helvetica,sans-Serif" font-size="10.00">&#45;Type/R&#45;Type/Shared</text>
<text text-anchor="middle" x="1406" y="-331.5" font-family="Helvetica,sans-Serif" font-size="10.00">/systems/ProjectileSystem.cpp</text>
</a>
</g>
</g>
<!-- Node1&#45;&gt;Node24 -->
<g id="edge40_Node000001_Node000024" class="edge">
<title>Node1&#45;&gt;Node24</title>
<g id="a_edge40_Node000001_Node000024"><a xlink:title=" ">
<path fill="none" stroke="#63b8ff" d="M1270.23,-402.96C1299.61,-390.63 1333.09,-376.59 1359.44,-365.53"/>
<polygon fill="#63b8ff" stroke="#63b8ff" points="1268.71,-399.8 1260.85,-406.89 1271.42,-406.25 1268.71,-399.8"/>
</a>
</g>
</g>
<!-- Node3 -->
<g id="Node000003" class="node">
<title>Node3</title>
<g id="a_Node000003"><a xlink:href="Main_8cpp.html" target="_top" xlink:title=" ">
<polygon fill="white" stroke="#666666" points="1305.5,-41 1186.5,-41 1186.5,0 1305.5,0 1305.5,-41"/>
<text text-anchor="start" x="1194.5" y="-29" font-family="Helvetica,sans-Serif" font-size="10.00">/home/runner/work/R</text>
<text text-anchor="start" x="1194.5" y="-18" font-family="Helvetica,sans-Serif" font-size="10.00">&#45;Type/R&#45;Type/Client</text>
<text text-anchor="middle" x="1246" y="-7" font-family="Helvetica,sans-Serif" font-size="10.00">/src/Main.cpp</text>
</a>
</g>
</g>
<!-- Node2&#45;&gt;Node3 -->
<g id="edge2_Node000002_Node000003" class="edge">
<title>Node2&#45;&gt;Node3</title>
<g id="a_edge2_Node000002_Node000003"><a xlink:title=" ">
<path fill="none" stroke="#63b8ff" d="M1080.12,-153.75C1012.47,-138.44 930.24,-119.57 929,-118 917.67,-103.73 917.28,-90.95 929,-77 961.21,-38.66 1103.73,-26.8 1186.29,-23.14"/>
<polygon fill="#63b8ff" stroke="#63b8ff" points="1079.46,-157.19 1089.99,-155.98 1081.01,-150.36 1079.46,-157.19"/>
</a>
</g>
</g>
<!-- Node4 -->
<g id="Node000004" class="node">
<title>Node4</title>
<g id="a_Node000004"><a xlink:href="GameEngine_8cpp.html" target="_top" xlink:title=" ">
<polygon fill="white" stroke="#666666" points="881.5,-118 726.5,-118 726.5,-77 881.5,-77 881.5,-118"/>
<text text-anchor="start" x="734.5" y="-106" font-family="Helvetica,sans-Serif" font-size="10.00">/home/runner/work/R</text>
<text text-anchor="start" x="734.5" y="-95" font-family="Helvetica,sans-Serif" font-size="10.00">&#45;Type/R&#45;Type/Client</text>
<text text-anchor="middle" x="804" y="-84" font-family="Helvetica,sans-Serif" font-size="10.00">/src/engine/GameEngine.cpp</text>
</a>
</g>
</g>
<!-- Node2&#45;&gt;Node4 -->
<g id="edge3_Node000002_Node000004" class="edge">
<title>Node2&#45;&gt;Node4</title>
<g id="a_edge3_Node000002_Node000004"><a xlink:title=" ">
<path fill="none" stroke="#63b8ff" d="M1079.95,-153.81C997.38,-136.66 975.04,-134.07 896,-118 891.36,-117.06 886.59,-116.08 881.78,-115.08"/>
<polygon fill="#63b8ff" stroke="#63b8ff" points="1079.26,-157.24 1089.77,-155.86 1080.69,-150.39 1079.26,-157.24"/>
</a>
</g>
</g>
<!-- Node5 -->
<g id="Node000005" class="node">
<title>Node5</title>
<g id="a_Node000005"><a xlink:href="SceneManager_8cpp.html" target="_top" xlink:title=" ">
<polygon fill="white" stroke="#666666" points="1770,-118 1574,-118 1574,-77 1770,-77 1770,-118"/>
<text text-anchor="start" x="1582" y="-106" font-family="Helvetica,sans-Serif" font-size="10.00">/home/runner/work/R</text>
<text text-anchor="start" x="1582" y="-95" font-family="Helvetica,sans-Serif" font-size="10.00">&#45;Type/R&#45;Type/Client</text>
<text text-anchor="middle" x="1672" y="-84" font-family="Helvetica,sans-Serif" font-size="10.00">/src/engine/scene/SceneManager.cpp</text>
</a>
</g>
</g>
<!-- Node2&#45;&gt;Node5 -->
<g id="edge4_Node000002_Node000005" class="edge">
<title>Node2&#45;&gt;Node5</title>
<g id="a_edge4_Node000002_Node000005"><a xlink:title=" ">
<path fill="none" stroke="#63b8ff" d="M1256.21,-162.23C1336.77,-151.69 1459.08,-135.05 1565,-118 1567.89,-117.53 1570.82,-117.05 1573.78,-116.56"/>
<polygon fill="#63b8ff" stroke="#63b8ff" points="1255.57,-158.79 1246.11,-163.55 1256.48,-165.73 1255.57,-158.79"/>
</a>
</g>
</g>
<!-- Node6 -->
<g id="Node000006" class="node">
<title>Node6</title>
<g id="a_Node000006"><a xlink:href="JoinGame_8hpp.html" target="_top" xlink:title=" ">
<polygon fill="white" stroke="#666666" points="1556,-118 1414,-118 1414,-77 1556,-77 1556,-118"/>
<text text-anchor="start" x="1422" y="-106" font-family="Helvetica,sans-Serif" font-size="10.00">/home/runner/work/R</text>
<text text-anchor="start" x="1422" y="-95" font-family="Helvetica,sans-Serif" font-size="10.00">&#45;Type/R&#45;Type/Client</text>
<text text-anchor="middle" x="1485" y="-84" font-family="Helvetica,sans-Serif" font-size="10.00">/src/scenes/JoinGame.hpp</text>
</a>
</g>
</g>
<!-- Node2&#45;&gt;Node6 -->
<g id="edge5_Node000002_Node000006" class="edge">
<title>Node2&#45;&gt;Node6</title>
<g id="a_edge5_Node000002_Node000006"><a xlink:title=" ">
<path fill="none" stroke="#63b8ff" d="M1256.17,-153.05C1300.8,-142.65 1355.8,-129.76 1405,-118 1407.92,-117.3 1410.9,-116.59 1413.91,-115.86"/>
<polygon fill="#63b8ff" stroke="#63b8ff" points="1255.18,-149.69 1246.23,-155.37 1256.77,-156.51 1255.18,-149.69"/>
</a>
</g>
</g>
<!-- Node7 -->
<g id="Node000007" class="node">
<title>Node7</title>
<g id="a_Node000007"><a xlink:href="MainMenu_8hpp.html" target="_top" xlink:title=" ">
<polygon fill="white" stroke="#666666" points="1084,-118 938,-118 938,-77 1084,-77 1084,-118"/>
<text text-anchor="start" x="946" y="-106" font-family="Helvetica,sans-Serif" font-size="10.00">/home/runner/work/R</text>
<text text-anchor="start" x="946" y="-95" font-family="Helvetica,sans-Serif" font-size="10.00">&#45;Type/R&#45;Type/Client</text>
<text text-anchor="middle" x="1011" y="-84" font-family="Helvetica,sans-Serif" font-size="10.00">/src/scenes/MainMenu.hpp</text>
</a>
</g>
</g>
<!-- Node2&#45;&gt;Node7 -->
<g id="edge7_Node000002_Node000007" class="edge">
<title>Node2&#45;&gt;Node7</title>
<g id="a_edge7_Node000002_Node000007"><a xlink:title=" ">
<path fill="none" stroke="#63b8ff" d="M1117.94,-149.59C1096.63,-139.41 1072.1,-127.69 1051.91,-118.04"/>
<polygon fill="#63b8ff" stroke="#63b8ff" points="1116.63,-152.84 1127.16,-153.99 1119.65,-146.52 1116.63,-152.84"/>
</a>
</g>
</g>
<!-- Node8 -->
<g id="Node000008" class="node">
<title>Node8</title>
<g id="a_Node000008"><a xlink:href="Options_8hpp.html" target="_top" xlink:title=" ">
<polygon fill="white" stroke="#666666" points="1234,-118 1102,-118 1102,-77 1234,-77 1234,-118"/>
<text text-anchor="start" x="1110" y="-106" font-family="Helvetica,sans-Serif" font-size="10.00">/home/runner/work/R</text>
<text text-anchor="start" x="1110" y="-95" font-family="Helvetica,sans-Serif" font-size="10.00">&#45;Type/R&#45;Type/Client</text>
<text text-anchor="middle" x="1168" y="-84" font-family="Helvetica,sans-Serif" font-size="10.00">/src/scenes/Options.hpp</text>
</a>
</g>
</g>
<!-- Node2&#45;&gt;Node8 -->
<g id="edge9_Node000002_Node000008" class="edge">
<title>Node2&#45;&gt;Node8</title>
<g id="a_edge9_Node000002_Node000008"><a xlink:title=" ">
<path fill="none" stroke="#63b8ff" d="M1168,-143.69C1168,-135.08 1168,-125.9 1168,-118.07"/>
<polygon fill="#63b8ff" stroke="#63b8ff" points="1164.5,-143.79 1168,-153.79 1171.5,-143.79 1164.5,-143.79"/>
</a>
</g>
</g>
<!-- Node9 -->
<g id="Node000009" class="node">
<title>Node9</title>
<g id="a_Node000009"><a xlink:href="WaitLobby_8hpp.html" target="_top" xlink:title=" ">
<polygon fill="white" stroke="#666666" points="1396,-118 1252,-118 1252,-77 1396,-77 1396,-118"/>
<text text-anchor="start" x="1260" y="-106" font-family="Helvetica,sans-Serif" font-size="10.00">/home/runner/work/R</text>
<text text-anchor="start" x="1260" y="-95" font-family="Helvetica,sans-Serif" font-size="10.00">&#45;Type/R&#45;Type/Client</text>
<text text-anchor="middle" x="1324" y="-84" font-family="Helvetica,sans-Serif" font-size="10.00">/src/scenes/WaitLobby.hpp</text>
</a>
</g>
</g>
<!-- Node2&#45;&gt;Node9 -->
<g id="edge11_Node000002_Node000009" class="edge">
<title>Node2&#45;&gt;Node9</title>
<g id="a_edge11_Node000002_Node000009"><a xlink:title=" ">
<path fill="none" stroke="#63b8ff" d="M1217.74,-149.59C1238.91,-139.41 1263.29,-127.69 1283.35,-118.04"/>
<polygon fill="#63b8ff" stroke="#63b8ff" points="1216.08,-146.5 1208.58,-153.99 1219.11,-152.81 1216.08,-146.5"/>
</a>
</g>
</g>
<!-- Node6&#45;&gt;Node3 -->
<g id="edge6_Node000006_Node000003" class="edge">
<title>Node6&#45;&gt;Node3</title>
<g id="a_edge6_Node000006_Node000003"><a xlink:title=" ">
<path fill="none" stroke="#63b8ff" d="M1412.89,-73.87C1378.68,-63.14 1338.28,-50.46 1305.8,-40.27"/>
<polygon fill="#63b8ff" stroke="#63b8ff" points="1412.24,-77.34 1422.83,-76.99 1414.34,-70.66 1412.24,-77.34"/>
</a>
</g>
</g>
<!-- Node7&#45;&gt;Node3 -->
<g id="edge8_Node000007_Node000003" class="edge">
<title>Node7&#45;&gt;Node3</title>
<g id="a_edge8_Node000007_Node000003"><a xlink:title=" ">
<path fill="none" stroke="#63b8ff" d="M1081.83,-73.9C1115.2,-63.24 1154.57,-50.68 1186.39,-40.52"/>
<polygon fill="#63b8ff" stroke="#63b8ff" points="1080.59,-70.62 1072.13,-76.99 1082.72,-77.28 1080.59,-70.62"/>
</a>
</g>
</g>
<!-- Node8&#45;&gt;Node3 -->
<g id="edge10_Node000008_Node000003" class="edge">
<title>Node8&#45;&gt;Node3</title>
<g id="a_edge10_Node000008_Node000003"><a xlink:title=" ">
<path fill="none" stroke="#63b8ff" d="M1195.78,-69.79C1205.63,-60.32 1216.53,-49.84 1225.64,-41.07"/>
<polygon fill="#63b8ff" stroke="#63b8ff" points="1193.28,-67.34 1188.49,-76.79 1198.13,-72.39 1193.28,-67.34"/>
</a>
</g>
</g>
<!-- Node9&#45;&gt;Node3 -->
<g id="edge12_Node000009_Node000003" class="edge">
<title>Node9&#45;&gt;Node3</title>
<g id="a_edge12_Node000009_Node000003"><a xlink:title=" ">
<path fill="none" stroke="#63b8ff" d="M1296.22,-69.79C1286.37,-60.32 1275.47,-49.84 1266.36,-41.07"/>
<polygon fill="#63b8ff" stroke="#63b8ff" points="1293.87,-72.39 1303.51,-76.79 1298.72,-67.34 1293.87,-72.39"/>
</a>
</g>
</g>
<!-- Node10&#45;&gt;Node2 -->
<g id="edge14_Node000010_Node000002" class="edge">
<title>Node10&#45;&gt;Node2</title>
<g id="a_edge14_Node000010_Node000002"><a xlink:title=" ">
<path fill="none" stroke="#63b8ff" d="M1227.14,-309.84C1222.73,-301.14 1218.1,-291.77 1214,-283 1199.82,-252.66 1184.81,-216.77 1175.93,-195.09"/>
<polygon fill="#63b8ff" stroke="#63b8ff" points="1224.13,-311.65 1231.8,-318.96 1230.37,-308.46 1224.13,-311.65"/>
</a>
</g>
</g>
<!-- Node11 -->
<g id="Node000011" class="node">
<title>Node11</title>
<g id="a_Node000011"><a xlink:href="RenderSystem_8cpp.html" target="_top" xlink:title=" ">
<polygon fill="white" stroke="#666666" points="1557.5,-283 1438.5,-283 1438.5,-231 1557.5,-231 1557.5,-283"/>
<text text-anchor="start" x="1446.5" y="-271" font-family="Helvetica,sans-Serif" font-size="10.00">/home/runner/work/R</text>
<text text-anchor="start" x="1446.5" y="-260" font-family="Helvetica,sans-Serif" font-size="10.00">&#45;Type/R&#45;Type/Client</text>
<text text-anchor="start" x="1446.5" y="-249" font-family="Helvetica,sans-Serif" font-size="10.00">/src/engine/graphics</text>
<text text-anchor="middle" x="1498" y="-238" font-family="Helvetica,sans-Serif" font-size="10.00">/RenderSystem.cpp</text>
</a>
</g>
</g>
<!-- Node10&#45;&gt;Node11 -->
<g id="edge15_Node000010_Node000011" class="edge">
<title>Node10&#45;&gt;Node11</title>
<g id="a_edge15_Node000010_Node000011"><a xlink:title=" ">
<path fill="none" stroke="#63b8ff" d="M1314.28,-318.97C1366.78,-301.59 1381.67,-299.37 1430,-283 1432.74,-282.07 1435.54,-281.11 1438.36,-280.12"/>
<polygon fill="#63b8ff" stroke="#63b8ff" points="1313.15,-315.66 1304.78,-322.15 1315.37,-322.3 1313.15,-315.66"/>
</a>
</g>
</g>
<!-- Node13 -->
<g id="Node000013" class="node">
<title>Node13</title>
<g id="a_Node000013"><a xlink:href="InputManager_8cpp.html" target="_top" xlink:title=" ">
<polygon fill="white" stroke="#666666" points="1128.5,-277.5 935.5,-277.5 935.5,-236.5 1128.5,-236.5 1128.5,-277.5"/>
<text text-anchor="start" x="943.5" y="-265.5" font-family="Helvetica,sans-Serif" font-size="10.00">/home/runner/work/R</text>
<text text-anchor="start" x="943.5" y="-254.5" font-family="Helvetica,sans-Serif" font-size="10.00">&#45;Type/R&#45;Type/Client</text>
<text text-anchor="middle" x="1032" y="-243.5" font-family="Helvetica,sans-Serif" font-size="10.00">/src/engine/inputs/InputManager.cpp</text>
</a>
</g>
</g>
<!-- Node12&#45;&gt;Node13 -->
<g id="edge17_Node000012_Node000013" class="edge">
<title>Node12&#45;&gt;Node13</title>
<g id="a_edge17_Node000012_Node000013"><a xlink:title=" ">
<path fill="none" stroke="#63b8ff" d="M959.47,-317.98C975.11,-305.05 993.69,-289.68 1008.13,-277.74"/>
<polygon fill="#63b8ff" stroke="#63b8ff" points="957.08,-315.42 951.6,-324.49 961.54,-320.81 957.08,-315.42"/>
</a>
</g>
</g>
<!-- Node14 -->
<g id="Node000014" class="node">
<title>Node14</title>
<g id="a_Node000014"><a xlink:href="InputSystem_8hpp.html" target="_top" xlink:title=" ">
<polygon fill="white" stroke="#666666" points="917,-277.5 729,-277.5 729,-236.5 917,-236.5 917,-277.5"/>
<text text-anchor="start" x="737" y="-265.5" font-family="Helvetica,sans-Serif" font-size="10.00">/home/runner/work/R</text>
<text text-anchor="start" x="737" y="-254.5" font-family="Helvetica,sans-Serif" font-size="10.00">&#45;Type/R&#45;Type/Client</text>
<text text-anchor="middle" x="823" y="-243.5" font-family="Helvetica,sans-Serif" font-size="10.00">/src/engine/inputs/InputSystem.hpp</text>
</a>
</g>
</g>
<!-- Node12&#45;&gt;Node14 -->
<g id="edge18_Node000012_Node000014" class="edge">
<title>Node12&#45;&gt;Node14</title>
<g id="a_edge18_Node000012_Node000014"><a xlink:title=" ">
<path fill="none" stroke="#63b8ff" d="M896.23,-317.98C880.44,-305.05 861.68,-289.68 847.1,-277.74"/>
<polygon fill="#63b8ff" stroke="#63b8ff" points="894.22,-320.86 904.17,-324.49 898.66,-315.44 894.22,-320.86"/>
</a>
</g>
</g>
<!-- Node17 -->
<g id="Node000017" class="node">
<title>Node17</title>
<g id="a_Node000017"><a xlink:href="SceneManager_8hpp.html" target="_top" xlink:title=" ">
<polygon fill="white" stroke="#666666" points="1420.5,-277.5 1223.5,-277.5 1223.5,-236.5 1420.5,-236.5 1420.5,-277.5"/>
<text text-anchor="start" x="1231.5" y="-265.5" font-family="Helvetica,sans-Serif" font-size="10.00">/home/runner/work/R</text>
<text text-anchor="start" x="1231.5" y="-254.5" font-family="Helvetica,sans-Serif" font-size="10.00">&#45;Type/R&#45;Type/Client</text>
<text text-anchor="middle" x="1322" y="-243.5" font-family="Helvetica,sans-Serif" font-size="10.00">/src/engine/scene/SceneManager.hpp</text>
</a>
</g>
</g>
<!-- Node12&#45;&gt;Node17 -->
<g id="edge23_Node000012_Node000017" class="edge">
<title>Node12&#45;&gt;Node17</title>
<g id="a_edge23_Node000012_Node000017"><a xlink:title=" ">
<path fill="none" stroke="#63b8ff" d="M1027.38,-322.31C1090.5,-308.53 1171.51,-290.85 1232.61,-277.51"/>
<polygon fill="#63b8ff" stroke="#63b8ff" points="1026.43,-318.93 1017.4,-324.49 1027.92,-325.77 1026.43,-318.93"/>
</a>
</g>
</g>
<!-- Node19 -->
<g id="Node000019" class="node">
<title>Node19</title>
<g id="a_Node000019"><a xlink:href="EntityHelper_8hpp.html" target="_top" xlink:title=" ">
<polygon fill="white" stroke="#666666" points="580.5,-277.5 395.5,-277.5 395.5,-236.5 580.5,-236.5 580.5,-277.5"/>
<text text-anchor="start" x="403.5" y="-265.5" font-family="Helvetica,sans-Serif" font-size="10.00">/home/runner/work/R</text>
<text text-anchor="start" x="403.5" y="-254.5" font-family="Helvetica,sans-Serif" font-size="10.00">&#45;Type/R&#45;Type/Shared</text>
<text text-anchor="middle" x="488" y="-243.5" font-family="Helvetica,sans-Serif" font-size="10.00">/systems/Helpers/EntityHelper.hpp</text>
</a>
</g>
</g>
<!-- Node12&#45;&gt;Node19 -->
<g id="edge34_Node000012_Node000019" class="edge">
<title>Node12&#45;&gt;Node19</title>
<g id="a_edge34_Node000012_Node000019"><a xlink:title=" ">
<path fill="none" stroke="#63b8ff" d="M820.69,-323.03C747.24,-308.67 650.83,-289.83 580.71,-276.12"/>
<polygon fill="#63b8ff" stroke="#63b8ff" points="820.41,-326.54 830.9,-325.02 821.75,-319.67 820.41,-326.54"/>
</a>
</g>
</g>
<!-- Node21 -->
<g id="Node000021" class="node">
<title>Node21</title>
<g id="a_Node000021"><a xlink:href="Movement_8cpp.html" target="_top" xlink:title=" ">
<polygon fill="white" stroke="#666666" points="192,-195 0,-195 0,-154 192,-154 192,-195"/>
<text text-anchor="start" x="8" y="-183" font-family="Helvetica,sans-Serif" font-size="10.00">/home/runner/work/R</text>
<text text-anchor="start" x="8" y="-172" font-family="Helvetica,sans-Serif" font-size="10.00">&#45;Type/R&#45;Type/Shared</text>
<text text-anchor="middle" x="96" y="-161" font-family="Helvetica,sans-Serif" font-size="10.00">/systems/Movement/Movement.cpp</text>
</a>
</g>
</g>
<!-- Node12&#45;&gt;Node21 -->
<g id="edge39_Node000012_Node000021" class="edge">
<title>Node12&#45;&gt;Node21</title>
<g id="a_edge39_Node000012_Node000021"><a xlink:title=" ">
<path fill="none" stroke="#63b8ff" d="M820.7,-339.61C710.4,-333.31 534.29,-318.27 386,-283 295.37,-261.44 194.38,-219.73 138.7,-195.08"/>
<polygon fill="#63b8ff" stroke="#63b8ff" points="820.66,-343.11 830.84,-340.17 821.05,-336.12 820.66,-343.11"/>
</a>
</g>
</g>
<!-- Node14&#45;&gt;Node2 -->
<g id="edge19_Node000014_Node000002" class="edge">
<title>Node14&#45;&gt;Node2</title>
<g id="a_edge19_Node000014_Node000002"><a xlink:title=" ">
<path fill="none" stroke="#63b8ff" d="M912.87,-234.12C917.31,-233.06 921.7,-232.01 926,-231 980.64,-218.1 1042.33,-203.96 1089.74,-193.18"/>
<polygon fill="#63b8ff" stroke="#63b8ff" points="912.01,-230.72 903.1,-236.45 913.64,-237.53 912.01,-230.72"/>
</a>
</g>
</g>
<!-- Node15 -->
<g id="Node000015" class="node">
<title>Node15</title>
<g id="a_Node000015"><a xlink:href="InputSystem_8cpp.html" target="_top" xlink:title=" ">
<polygon fill="white" stroke="#666666" points="906,-195 718,-195 718,-154 906,-154 906,-195"/>
<text text-anchor="start" x="726" y="-183" font-family="Helvetica,sans-Serif" font-size="10.00">/home/runner/work/R</text>
<text text-anchor="start" x="726" y="-172" font-family="Helvetica,sans-Serif" font-size="10.00">&#45;Type/R&#45;Type/Client</text>
<text text-anchor="middle" x="812" y="-161" font-family="Helvetica,sans-Serif" font-size="10.00">/src/engine/inputs/InputSystem.cpp</text>
</a>
</g>
</g>
<!-- Node14&#45;&gt;Node15 -->
<g id="edge20_Node000014_Node000015" class="edge">
<title>Node14&#45;&gt;Node15</title>
<g id="a_edge20_Node000014_Node000015"><a xlink:title=" ">
<path fill="none" stroke="#63b8ff" d="M818.93,-226.19C817.51,-215.84 815.96,-204.5 814.69,-195.17"/>
<polygon fill="#63b8ff" stroke="#63b8ff" points="815.46,-226.67 820.28,-236.1 822.39,-225.72 815.46,-226.67"/>
</a>
</g>
</g>
<!-- Node16 -->
<g id="Node000016" class="node">
<title>Node16</title>
<g id="a_Node000016"><a xlink:href="MainGame_8hpp.html" target="_top" xlink:title=" ">
<polygon fill="white" stroke="#666666" points="1072,-195 924,-195 924,-154 1072,-154 1072,-195"/>
<text text-anchor="start" x="932" y="-183" font-family="Helvetica,sans-Serif" font-size="10.00">/home/runner/work/R</text>
<text text-anchor="start" x="932" y="-172" font-family="Helvetica,sans-Serif" font-size="10.00">&#45;Type/R&#45;Type/Client</text>
<text text-anchor="middle" x="998" y="-161" font-family="Helvetica,sans-Serif" font-size="10.00">/src/scenes/MainGame.hpp</text>
</a>
</g>
</g>
<!-- Node14&#45;&gt;Node16 -->
<g id="edge21_Node000014_Node000016" class="edge">
<title>Node14&#45;&gt;Node16</title>
<g id="a_edge21_Node000014_Node000016"><a xlink:title=" ">
<path fill="none" stroke="#63b8ff" d="M875,-232.08C900.61,-220.3 931.11,-206.27 955.33,-195.13"/>
<polygon fill="#63b8ff" stroke="#63b8ff" points="873.43,-228.95 865.81,-236.31 876.36,-235.31 873.43,-228.95"/>
</a>
</g>
</g>
<!-- Node16&#45;&gt;Node3 -->
<g id="edge22_Node000016_Node000003" class="edge">
<title>Node16&#45;&gt;Node3</title>
<g id="a_edge22_Node000016_Node000003"><a xlink:title=" ">
<path fill="none" stroke="#63b8ff" d="M913.84,-153.94C811.93,-135.47 655.85,-144.9 717,-77 747.94,-42.65 1054.16,-28.08 1186.06,-23.36"/>
<polygon fill="#63b8ff" stroke="#63b8ff" points="913.35,-157.4 923.83,-155.88 914.68,-150.53 913.35,-157.4"/>
</a>
</g>
</g>
<!-- Node17&#45;&gt;Node2 -->
<g id="edge25_Node000017_Node000002" class="edge">
<title>Node17&#45;&gt;Node2</title>
<g id="a_edge25_Node000017_Node000002"><a xlink:title=" ">
<path fill="none" stroke="#63b8ff" d="M1275.34,-231.61C1252.99,-219.93 1226.58,-206.12 1205.55,-195.13"/>
<polygon fill="#63b8ff" stroke="#63b8ff" points="1273.84,-234.78 1284.33,-236.31 1277.09,-228.57 1273.84,-234.78"/>
</a>
</g>
</g>
<!-- Node17&#45;&gt;Node3 -->
<g id="edge24_Node000017_Node000003" class="edge">
<title>Node17&#45;&gt;Node3</title>
<g id="a_edge24_Node000017_Node000003"><a xlink:title=" ">
<path fill="none" stroke="#63b8ff" d="M1414.92,-234.28C1420.02,-233.16 1425.07,-232.06 1430,-231 1662.78,-181.18 2104.51,-251.88 1943,-77 1900.15,-30.6 1466.29,-22.96 1305.52,-21.73"/>
<polygon fill="#63b8ff" stroke="#63b8ff" points="1414.08,-230.89 1405.08,-236.48 1415.6,-237.72 1414.08,-230.89"/>
</a>
</g>
</g>
<!-- Node17&#45;&gt;Node5 -->
<g id="edge26_Node000017_Node000005" class="edge">
<title>Node17&#45;&gt;Node5</title>
<g id="a_edge26_Node000017_Node000005"><a xlink:title=" ">
<path fill="none" stroke="#63b8ff" d="M1375.05,-232.13C1444.39,-200.93 1564.5,-146.88 1628.66,-118"/>
<polygon fill="#63b8ff" stroke="#63b8ff" points="1373.3,-229.08 1365.62,-236.37 1376.18,-235.46 1373.3,-229.08"/>
</a>
</g>
</g>
<!-- Node17&#45;&gt;Node6 -->
<g id="edge29_Node000017_Node000006" class="edge">
<title>Node17&#45;&gt;Node6</title>
<g id="a_edge29_Node000017_Node000006"><a xlink:title=" ">
<path fill="none" stroke="#63b8ff" d="M1349.73,-229.2C1382.34,-197.69 1435.69,-146.15 1464.69,-118.13"/>
<polygon fill="#63b8ff" stroke="#63b8ff" points="1347.07,-226.91 1342.31,-236.37 1351.94,-231.94 1347.07,-226.91"/>
</a>
</g>
</g>
<!-- Node17&#45;&gt;Node7 -->
<g id="edge31_Node000017_Node000007" class="edge">
<title>Node17&#45;&gt;Node7</title>
<g id="a_edge31_Node000017_Node000007"><a xlink:title=" ">
<path fill="none" stroke="#63b8ff" d="M1306.47,-227.4C1291.41,-200.7 1268.88,-163.58 1255,-154 1194.3,-112.1 1164.88,-134.53 1093,-118 1090.15,-117.34 1087.24,-116.67 1084.3,-115.99"/>
<polygon fill="#63b8ff" stroke="#63b8ff" points="1303.53,-229.31 1311.45,-236.35 1309.64,-225.91 1303.53,-229.31"/>
</a>
</g>
</g>
<!-- Node17&#45;&gt;Node8 -->
<g id="edge32_Node000017_Node000008" class="edge">
<title>Node17&#45;&gt;Node8</title>
<g id="a_edge32_Node000017_Node000008"><a xlink:title=" ">
<path fill="none" stroke="#63b8ff" d="M1318.55,-226.49C1314.56,-204.23 1306.05,-174.18 1288,-154 1273.62,-137.92 1253.62,-126.16 1234.06,-117.73"/>
<polygon fill="#63b8ff" stroke="#63b8ff" points="1315.1,-227.09 1320.12,-236.41 1322.01,-225.99 1315.1,-227.09"/>
</a>
</g>
</g>
<!-- Node17&#45;&gt;Node9 -->
<g id="edge33_Node000017_Node000009" class="edge">
<title>Node17&#45;&gt;Node9</title>
<g id="a_edge33_Node000017_Node000009"><a xlink:title=" ">
<path fill="none" stroke="#63b8ff" d="M1324.35,-226.07C1325.03,-216.18 1325.67,-205.13 1326,-195 1326.6,-176.79 1326.33,-172.22 1326,-154 1325.78,-142.05 1325.31,-128.65 1324.88,-118.02"/>
<polygon fill="#63b8ff" stroke="#63b8ff" points="1320.85,-226.01 1323.62,-236.24 1327.83,-226.51 1320.85,-226.01"/>
</a>
</g>
</g>
<!-- Node17&#45;&gt;Node16 -->
<g id="edge30_Node000017_Node000016" class="edge">
<title>Node17&#45;&gt;Node16</title>
<g id="a_edge30_Node000017_Node000016"><a xlink:title=" ">
<path fill="none" stroke="#63b8ff" d="M1233.21,-233.94C1182.67,-221.38 1120.09,-205.83 1072.18,-193.93"/>
<polygon fill="#63b8ff" stroke="#63b8ff" points="1232.61,-237.4 1243.15,-236.41 1234.29,-230.6 1232.61,-237.4"/>
</a>
</g>
</g>
<!-- Node18 -->
<g id="Node000018" class="node">
<title>Node18</title>
<g id="a_Node000018"><a xlink:href="GameOver_8hpp.html" target="_top" xlink:title=" ">
<polygon fill="white" stroke="#666666" points="1934,-118 1788,-118 1788,-77 1934,-77 1934,-118"/>
<text text-anchor="start" x="1796" y="-106" font-family="Helvetica,sans-Serif" font-size="10.00">/home/runner/work/R</text>
<text text-anchor="start" x="1796" y="-95" font-family="Helvetica,sans-Serif" font-size="10.00">&#45;Type/R&#45;Type/Client</text>
<text text-anchor="middle" x="1861" y="-84" font-family="Helvetica,sans-Serif" font-size="10.00">/src/scenes/GameOver.hpp</text>
</a>
</g>
</g>
<!-- Node17&#45;&gt;Node18 -->
<g id="edge27_Node000017_Node000018" class="edge">
<title>Node17&#45;&gt;Node18</title>
<g id="a_edge27_Node000017_Node000018"><a xlink:title=" ">
<path fill="none" stroke="#63b8ff" d="M1398.57,-233.63C1504.42,-202.7 1693.75,-147.37 1794.17,-118.03"/>
<polygon fill="#63b8ff" stroke="#63b8ff" points="1397.52,-230.29 1388.9,-236.45 1399.48,-237 1397.52,-230.29"/>
</a>
</g>
</g>
<!-- Node18&#45;&gt;Node3 -->
<g id="edge28_Node000018_Node000003" class="edge">
<title>Node18&#45;&gt;Node3</title>
<g id="a_edge28_Node000018_Node000003"><a xlink:title=" ">
<path fill="none" stroke="#63b8ff" d="M1777.78,-76.9C1601.11,-47.4 1403.05,-31.74 1305.9,-25.19"/>
<polygon fill="#63b8ff" stroke="#63b8ff" points="1777.34,-80.38 1787.78,-78.59 1778.5,-73.47 1777.34,-80.38"/>
</a>
</g>
</g>
<!-- Node20 -->
<g id="Node000020" class="node">
<title>Node20</title>
<g id="a_Node000020"><a xlink:href="ServerGame_8cpp.html" target="_top" xlink:title=" ">
<polygon fill="white" stroke="#666666" points="699.5,-195 580.5,-195 580.5,-154 699.5,-154 699.5,-195"/>
<text text-anchor="start" x="588.5" y="-183" font-family="Helvetica,sans-Serif" font-size="10.00">/home/runner/work/R</text>
<text text-anchor="start" x="588.5" y="-172" font-family="Helvetica,sans-Serif" font-size="10.00">&#45;Type/R&#45;Type/Server</text>
<text text-anchor="middle" x="640" y="-161" font-family="Helvetica,sans-Serif" font-size="10.00">/src/ServerGame.cpp</text>
</a>
</g>
</g>
<!-- Node19&#45;&gt;Node20 -->
<g id="edge35_Node000019_Node000020" class="edge">
<title>Node19&#45;&gt;Node20</title>
<g id="a_edge35_Node000019_Node000020"><a xlink:title=" ">
<path fill="none" stroke="#63b8ff" d="M534.05,-231.61C556.11,-219.93 582.18,-206.12 602.94,-195.13"/>
<polygon fill="#63b8ff" stroke="#63b8ff" points="532.38,-228.53 525.18,-236.31 535.66,-234.72 532.38,-228.53"/>
</a>
</g>
</g>
<!-- Node19&#45;&gt;Node21 -->
<g id="edge36_Node000019_Node000021" class="edge">
<title>Node19&#45;&gt;Node21</title>
<g id="a_edge36_Node000019_Node000021"><a xlink:title=" ">
<path fill="none" stroke="#63b8ff" d="M385.22,-234.89C325.21,-222.57 249.98,-207.12 191.3,-195.07"/>
<polygon fill="#63b8ff" stroke="#63b8ff" points="384.6,-238.34 395.1,-236.92 386.01,-231.48 384.6,-238.34"/>
</a>
</g>
</g>
<!-- Node22 -->
<g id="Node000022" class="node">
<title>Node22</title>
<g id="a_Node000022"><a xlink:href="Spawn_8cpp.html" target="_top" xlink:title=" ">
<polygon fill="white" stroke="#666666" points="395.5,-195 210.5,-195 210.5,-154 395.5,-154 395.5,-195"/>
<text text-anchor="start" x="218.5" y="-183" font-family="Helvetica,sans-Serif" font-size="10.00">/home/runner/work/R</text>
<text text-anchor="start" x="218.5" y="-172" font-family="Helvetica,sans-Serif" font-size="10.00">&#45;Type/R&#45;Type/Shared</text>
<text text-anchor="middle" x="303" y="-161" font-family="Helvetica,sans-Serif" font-size="10.00">/systems/SpawnEnemy/Spawn.cpp</text>
</a>
</g>
</g>
<!-- Node19&#45;&gt;Node22 -->
<g id="edge37_Node000019_Node000022" class="edge">
<title>Node19&#45;&gt;Node22</title>
<g id="a_edge37_Node000019_Node000022"><a xlink:title=" ">
<path fill="none" stroke="#63b8ff" d="M433.38,-232.23C406.23,-220.42 373.82,-206.32 348.11,-195.13"/>
<polygon fill="#63b8ff" stroke="#63b8ff" points="432.18,-235.53 442.74,-236.31 434.97,-229.11 432.18,-235.53"/>
</a>
</g>
</g>
<!-- Node23 -->
<g id="Node000023" class="node">
<title>Node23</title>
<g id="a_Node000023"><a xlink:href="WaveSystem_8cpp.html" target="_top" xlink:title=" ">
<polygon fill="white" stroke="#666666" points="562,-195 414,-195 414,-154 562,-154 562,-195"/>
<text text-anchor="start" x="422" y="-183" font-family="Helvetica,sans-Serif" font-size="10.00">/home/runner/work/R</text>
<text text-anchor="start" x="422" y="-172" font-family="Helvetica,sans-Serif" font-size="10.00">&#45;Type/R&#45;Type/Shared</text>
<text text-anchor="middle" x="488" y="-161" font-family="Helvetica,sans-Serif" font-size="10.00">/systems/WaveSystem.cpp</text>
</a>
</g>
</g>
<!-- Node19&#45;&gt;Node23 -->
<g id="edge38_Node000019_Node000023" class="edge">
<title>Node19&#45;&gt;Node23</title>
<g id="a_edge38_Node000019_Node000023"><a xlink:title=" ">
<path fill="none" stroke="#63b8ff" d="M488,-225.87C488,-215.6 488,-204.4 488,-195.17"/>
<polygon fill="#63b8ff" stroke="#63b8ff" points="484.5,-226.1 488,-236.1 491.5,-226.1 484.5,-226.1"/>
</a>
</g>
</g>
</g>
</svg>
