<?xml version="1.0" encoding="UTF-8" standalone="no"?>
<!DOCTYPE svg PUBLIC "-//W3C//DTD SVG 1.1//EN"
 "http://www.w3.org/Graphics/SVG/1.1/DTD/svg11.dtd">
<!-- Generated by graphviz version 2.43.0 (0)
 -->
<!-- Title: /home/runner/work/R&#45;Type/R&#45;Type/Client/src/engine/graphics/RenderSystem.hpp Pages: 1 -->
<svg width="1494pt" height="225pt"
 viewBox="0.00 0.00 1493.62 225.00" xmlns="http://www.w3.org/2000/svg" xmlns:xlink="http://www.w3.org/1999/xlink">
<g id="graph0" class="graph" transform="scale(1 1) rotate(0) translate(4 221)">
<title>/home/runner/work/R&#45;Type/R&#45;Type/Client/src/engine/graphics/RenderSystem.hpp</title>
<!-- Node1 -->
<g id="Node000001" class="node">
<title>Node1</title>
<g id="a_Node000001"><a xlink:title=" ">
<polygon fill="#999999" stroke="#666666" points="429.05,-217 310.05,-217 310.05,-165 429.05,-165 429.05,-217"/>
<text text-anchor="start" x="318.05" y="-205" font-family="Helvetica,sans-Serif" font-size="10.00">/home/runner/work/R</text>
<text text-anchor="start" x="318.05" y="-194" font-family="Helvetica,sans-Serif" font-size="10.00">&#45;Type/R&#45;Type/Client</text>
<text text-anchor="start" x="318.05" y="-183" font-family="Helvetica,sans-Serif" font-size="10.00">/src/engine/graphics</text>
<text text-anchor="middle" x="369.55" y="-172" font-family="Helvetica,sans-Serif" font-size="10.00">/RenderSystem.hpp</text>
</a>
</g>
</g>
<!-- Node2 -->
<g id="Node000002" class="node">
<title>Node2</title>
<g id="a_Node000002"><a xlink:title=" ">
<polygon fill="#e0e0e0" stroke="#999999" points="228.55,-19 156.55,-19 156.55,0 228.55,0 228.55,-19"/>
<text text-anchor="middle" x="192.55" y="-7" font-family="Helvetica,sans-Serif" font-size="10.00">SDL2/SDL.h</text>
</a>
</g>
</g>
<!-- Node1&#45;&gt;Node2 -->
<g id="edge1_Node000001_Node000002" class="edge">
<title>Node1&#45;&gt;Node2</title>
<g id="a_edge1_Node000001_Node000002"><a xlink:title=" ">
<path fill="none" stroke="#63b8ff" d="M310,-185.64C248.6,-179.36 151.27,-164.32 74.55,-129 38.29,-112.31 21.12,-109.84 3.55,-74 -0.17,-66.42 -1.69,-61.62 3.55,-55 12.47,-43.73 93.36,-27.73 146.38,-18.3"/>
<polygon fill="#63b8ff" stroke="#63b8ff" points="147.02,-21.75 156.26,-16.57 145.8,-14.85 147.02,-21.75"/>
</a>
</g>
</g>
<!-- Node3 -->
<g id="Node000003" class="node">
<title>Node3</title>
<g id="a_Node000003"><a xlink:href="Physics2D_8hpp.html" target="_top" xlink:title=" ">
<polygon fill="white" stroke="#666666" points="164.05,-74 13.05,-74 13.05,-55 164.05,-55 164.05,-74"/>
<text text-anchor="middle" x="88.55" y="-62" font-family="Helvetica,sans-Serif" font-size="10.00">components/Physics2D.hpp</text>
</a>
</g>
</g>
<!-- Node1&#45;&gt;Node3 -->
<g id="edge2_Node000001_Node000003" class="edge">
<title>Node1&#45;&gt;Node3</title>
<g id="a_edge2_Node000001_Node000003"><a xlink:title=" ">
<path fill="none" stroke="#63b8ff" d="M310.05,-185.86C235,-179.25 112.35,-163.38 84.55,-129 74.48,-116.54 77.1,-97.82 81.27,-83.93"/>
<polygon fill="#63b8ff" stroke="#63b8ff" points="84.59,-85.03 84.57,-74.43 77.98,-82.73 84.59,-85.03"/>
</a>
</g>
</g>
<!-- Node5 -->
<g id="Node000005" class="node">
<title>Node5</title>
<g id="a_Node000005"><a xlink:href="Registry_8hpp.html" target="_top" xlink:title=" ">
<polygon fill="white" stroke="#666666" points="1123.55,-129 1027.55,-129 1027.55,-110 1123.55,-110 1123.55,-129"/>
<text text-anchor="middle" x="1075.55" y="-117" font-family="Helvetica,sans-Serif" font-size="10.00">ecs/Registry.hpp</text>
</a>
</g>
</g>
<!-- Node1&#45;&gt;Node5 -->
<g id="edge5_Node000001_Node000005" class="edge">
<title>Node1&#45;&gt;Node5</title>
<g id="a_edge5_Node000001_Node000005"><a xlink:title=" ">
<path fill="none" stroke="#63b8ff" d="M429.14,-184.13C562.65,-170.99 884.45,-139.31 1016.99,-126.26"/>
<polygon fill="#63b8ff" stroke="#63b8ff" points="1017.73,-129.71 1027.34,-125.25 1017.04,-122.74 1017.73,-129.71"/>
</a>
</g>
</g>
<!-- Node20 -->
<g id="Node000020" class="node">
<title>Node20</title>
<g id="a_Node000020"><a xlink:href="Zipper_8hpp.html" target="_top" xlink:title=" ">
<polygon fill="white" stroke="#666666" points="747.55,-129 659.55,-129 659.55,-110 747.55,-110 747.55,-129"/>
<text text-anchor="middle" x="703.55" y="-117" font-family="Helvetica,sans-Serif" font-size="10.00">ecs/Zipper.hpp</text>
</a>
</g>
</g>
<!-- Node1&#45;&gt;Node20 -->
<g id="edge22_Node000001_Node000020" class="edge">
<title>Node1&#45;&gt;Node20</title>
<g id="a_edge22_Node000001_Node000020"><a xlink:title=" ">
<path fill="none" stroke="#63b8ff" d="M429.26,-177.57C492.76,-164.36 592.15,-143.68 652.25,-131.18"/>
<polygon fill="#63b8ff" stroke="#63b8ff" points="653.19,-134.55 662.27,-129.09 651.76,-127.7 653.19,-134.55"/>
</a>
</g>
</g>
<!-- Node22 -->
<g id="Node000022" class="node">
<title>Node22</title>
<g id="a_Node000022"><a xlink:href="AnimationManager_8hpp.html" target="_top" xlink:title=" ">
<polygon fill="white" stroke="#666666" points="641.55,-129 467.55,-129 467.55,-110 641.55,-110 641.55,-129"/>
<text text-anchor="middle" x="554.55" y="-117" font-family="Helvetica,sans-Serif" font-size="10.00">graphics/AnimationManager.hpp</text>
</a>
</g>
</g>
<!-- Node1&#45;&gt;Node22 -->
<g id="edge28_Node000001_Node000022" class="edge">
<title>Node1&#45;&gt;Node22</title>
<g id="a_edge28_Node000001_Node000022"><a xlink:title=" ">
<path fill="none" stroke="#63b8ff" d="M429.1,-167.63C459.88,-156.07 496.24,-142.4 521.88,-132.77"/>
<polygon fill="#63b8ff" stroke="#63b8ff" points="523.35,-135.96 531.48,-129.17 520.89,-129.41 523.35,-135.96"/>
</a>
</g>
</g>
<!-- Node24 -->
<g id="Node000024" class="node">
<title>Node24</title>
<g id="a_Node000024"><a xlink:href="RenderComponents_8hpp.html" target="_top" xlink:title=" ">
<polygon fill="white" stroke="#666666" points="271.55,-129 93.55,-129 93.55,-110 271.55,-110 271.55,-129"/>
<text text-anchor="middle" x="182.55" y="-117" font-family="Helvetica,sans-Serif" font-size="10.00">graphics/RenderComponents.hpp</text>
</a>
</g>
</g>
<!-- Node1&#45;&gt;Node24 -->
<g id="edge33_Node000001_Node000024" class="edge">
<title>Node1&#45;&gt;Node24</title>
<g id="a_edge33_Node000001_Node000024"><a xlink:title=" ">
<path fill="none" stroke="#63b8ff" d="M309.87,-167.82C278.4,-156.12 241.03,-142.23 214.94,-132.54"/>
<polygon fill="#63b8ff" stroke="#63b8ff" points="216.13,-129.25 205.54,-129.04 213.69,-135.81 216.13,-129.25"/>
</a>
</g>
</g>
<!-- Node25 -->
<g id="Node000025" class="node">
<title>Node25</title>
<g id="a_Node000025"><a xlink:href="TextureManager_8hpp.html" target="_top" xlink:title=" ">
<polygon fill="white" stroke="#666666" points="449.55,-129 289.55,-129 289.55,-110 449.55,-110 449.55,-129"/>
<text text-anchor="middle" x="369.55" y="-117" font-family="Helvetica,sans-Serif" font-size="10.00">graphics/TextureManager.hpp</text>
</a>
</g>
</g>
<!-- Node1&#45;&gt;Node25 -->
<g id="edge37_Node000001_Node000025" class="edge">
<title>Node1&#45;&gt;Node25</title>
<g id="a_edge37_Node000001_Node000025"><a xlink:title=" ">
<path fill="none" stroke="#63b8ff" d="M369.55,-164.91C369.55,-156.55 369.55,-147.38 369.55,-139.55"/>
<polygon fill="#63b8ff" stroke="#63b8ff" points="373.05,-139.3 369.55,-129.3 366.05,-139.3 373.05,-139.3"/>
</a>
</g>
</g>
<!-- Node3&#45;&gt;Node2 -->
<g id="edge3_Node000003_Node000002" class="edge">
<title>Node3&#45;&gt;Node2</title>
<g id="a_edge3_Node000003_Node000002"><a xlink:title=" ">
<path fill="none" stroke="#63b8ff" d="M105.26,-54.98C121.76,-46.57 147.25,-33.59 166.43,-23.81"/>
<polygon fill="#63b8ff" stroke="#63b8ff" points="168.22,-26.83 175.54,-19.17 165.04,-20.59 168.22,-26.83"/>
</a>
</g>
</g>
<!-- Node4 -->
<g id="Node000004" class="node">
<title>Node4</title>
<g id="a_Node000004"><a xlink:title=" ">
<polygon fill="#e0e0e0" stroke="#999999" points="112.05,-19 65.05,-19 65.05,0 112.05,0 112.05,-19"/>
<text text-anchor="middle" x="88.55" y="-7" font-family="Helvetica,sans-Serif" font-size="10.00">cmath</text>
</a>
</g>
</g>
<!-- Node3&#45;&gt;Node4 -->
<g id="edge4_Node000003_Node000004" class="edge">
<title>Node3&#45;&gt;Node4</title>
<g id="a_edge4_Node000003_Node000004"><a xlink:title=" ">
<path fill="none" stroke="#63b8ff" d="M88.55,-54.75C88.55,-47.8 88.55,-37.85 88.55,-29.13"/>
<polygon fill="#63b8ff" stroke="#63b8ff" points="92.05,-29.09 88.55,-19.09 85.05,-29.09 92.05,-29.09"/>
</a>
</g>
</g>
<!-- Node6 -->
<g id="Node000006" class="node">
<title>Node6</title>
<g id="a_Node000006"><a xlink:title=" ">
<polygon fill="#e0e0e0" stroke="#999999" points="879.55,-74 815.55,-74 815.55,-55 879.55,-55 879.55,-74"/>
<text text-anchor="middle" x="847.55" y="-62" font-family="Helvetica,sans-Serif" font-size="10.00">algorithm</text>
</a>
</g>
</g>
<!-- Node5&#45;&gt;Node6 -->
<g id="edge6_Node000005_Node000006" class="edge">
<title>Node5&#45;&gt;Node6</title>
<g id="a_edge6_Node000005_Node000006"><a xlink:title=" ">
<path fill="none" stroke="#63b8ff" d="M1038.92,-109.98C998.13,-100.5 932.32,-85.21 889.5,-75.25"/>
<polygon fill="#63b8ff" stroke="#63b8ff" points="890.2,-71.82 879.67,-72.97 888.62,-78.64 890.2,-71.82"/>
</a>
</g>
</g>
<!-- Node7 -->
<g id="Node000007" class="node">
<title>Node7</title>
<g id="a_Node000007"><a xlink:title=" ">
<polygon fill="#e0e0e0" stroke="#999999" points="1394.05,-74 1359.05,-74 1359.05,-55 1394.05,-55 1394.05,-74"/>
<text text-anchor="middle" x="1376.55" y="-62" font-family="Helvetica,sans-Serif" font-size="10.00">any</text>
</a>
</g>
</g>
<!-- Node5&#45;&gt;Node7 -->
<g id="edge7_Node000005_Node000007" class="edge">
<title>Node5&#45;&gt;Node7</title>
<g id="a_edge7_Node000005_Node000007"><a xlink:title=" ">
<path fill="none" stroke="#63b8ff" d="M1123.69,-113.01C1176.85,-106.45 1265.03,-94.05 1349.07,-74.05"/>
<polygon fill="#63b8ff" stroke="#63b8ff" points="1350.14,-77.39 1359.04,-71.64 1348.49,-70.59 1350.14,-77.39"/>
</a>
</g>
</g>
<!-- Node8 -->
<g id="Node000008" class="node">
<title>Node8</title>
<g id="a_Node000008"><a xlink:title=" ">
<polygon fill="#e0e0e0" stroke="#999999" points="797.05,-74 732.05,-74 732.05,-55 797.05,-55 797.05,-74"/>
<text text-anchor="middle" x="764.55" y="-62" font-family="Helvetica,sans-Serif" font-size="10.00">functional</text>
</a>
</g>
</g>
<!-- Node5&#45;&gt;Node8 -->
<g id="edge8_Node000005_Node000008" class="edge">
<title>Node5&#45;&gt;Node8</title>
<g id="a_edge8_Node000005_Node000008"><a xlink:title=" ">
<path fill="none" stroke="#63b8ff" d="M1027.35,-111.06C975.51,-102.94 890.39,-89.26 806.98,-74.02"/>
<polygon fill="#63b8ff" stroke="#63b8ff" points="807.56,-70.57 797.09,-72.2 806.29,-77.45 807.56,-70.57"/>
</a>
</g>
</g>
<!-- Node9 -->
<g id="Node000009" class="node">
<title>Node9</title>
<g id="a_Node000009"><a xlink:title=" ">
<polygon fill="#e0e0e0" stroke="#999999" points="1472.55,-74 1412.55,-74 1412.55,-55 1472.55,-55 1472.55,-74"/>
<text text-anchor="middle" x="1442.55" y="-62" font-family="Helvetica,sans-Serif" font-size="10.00">iostream</text>
</a>
</g>
</g>
<!-- Node5&#45;&gt;Node9 -->
<g id="edge9_Node000005_Node000009" class="edge">
<title>Node5&#45;&gt;Node9</title>
<g id="a_edge9_Node000005_Node000009"><a xlink:title=" ">
<path fill="none" stroke="#63b8ff" d="M1123.81,-113.17C1185.94,-106.05 1297.41,-92.35 1402.24,-74.11"/>
<polygon fill="#63b8ff" stroke="#63b8ff" points="1403.12,-77.51 1412.36,-72.33 1401.91,-70.61 1403.12,-77.51"/>
</a>
</g>
</g>
<!-- Node10 -->
<g id="Node000010" class="node">
<title>Node10</title>
<g id="a_Node000010"><a xlink:title=" ">
<polygon fill="#e0e0e0" stroke="#999999" points="963.05,-74 898.05,-74 898.05,-55 963.05,-55 963.05,-74"/>
<text text-anchor="middle" x="930.55" y="-62" font-family="Helvetica,sans-Serif" font-size="10.00">typeindex</text>
</a>
</g>
</g>
<!-- Node5&#45;&gt;Node10 -->
<g id="edge10_Node000005_Node000010" class="edge">
<title>Node5&#45;&gt;Node10</title>
<g id="a_edge10_Node000005_Node000010"><a xlink:title=" ">
<path fill="none" stroke="#63b8ff" d="M1052.25,-109.98C1028.3,-101.23 990.77,-87.51 963.72,-77.62"/>
<polygon fill="#63b8ff" stroke="#63b8ff" points="964.87,-74.32 954.27,-74.17 962.46,-80.89 964.87,-74.32"/>
</a>
</g>
</g>
<!-- Node11 -->
<g id="Node000011" class="node">
<title>Node11</title>
<g id="a_Node000011"><a xlink:title=" ">
<polygon fill="#e0e0e0" stroke="#999999" points="578.05,-74 485.05,-74 485.05,-55 578.05,-55 578.05,-74"/>
<text text-anchor="middle" x="531.55" y="-62" font-family="Helvetica,sans-Serif" font-size="10.00">unordered_map</text>
</a>
</g>
</g>
<!-- Node5&#45;&gt;Node11 -->
<g id="edge11_Node000005_Node000011" class="edge">
<title>Node5&#45;&gt;Node11</title>
<g id="a_edge11_Node000005_Node000011"><a xlink:title=" ">
<path fill="none" stroke="#63b8ff" d="M1027.27,-113.8C926.76,-104 695.48,-81.47 588.16,-71.02"/>
<polygon fill="#63b8ff" stroke="#63b8ff" points="588.46,-67.53 578.17,-70.04 587.78,-74.5 588.46,-67.53"/>
</a>
</g>
</g>
<!-- Node12 -->
<g id="Node000012" class="node">
<title>Node12</title>
<g id="a_Node000012"><a xlink:title=" ">
<polygon fill="#e0e0e0" stroke="#999999" points="1067.55,-74 981.55,-74 981.55,-55 1067.55,-55 1067.55,-74"/>
<text text-anchor="middle" x="1024.55" y="-62" font-family="Helvetica,sans-Serif" font-size="10.00">unordered_set</text>
</a>
</g>
</g>
<!-- Node5&#45;&gt;Node12 -->
<g id="edge12_Node000005_Node000012" class="edge">
<title>Node5&#45;&gt;Node12</title>
<g id="a_edge12_Node000005_Node000012"><a xlink:title=" ">
<path fill="none" stroke="#63b8ff" d="M1067.13,-109.75C1059.78,-102.11 1048.92,-90.82 1040.01,-81.56"/>
<polygon fill="#63b8ff" stroke="#63b8ff" points="1042.27,-78.87 1032.82,-74.09 1037.23,-83.72 1042.27,-78.87"/>
</a>
</g>
</g>
<!-- Node13 -->
<g id="Node000013" class="node">
<title>Node13</title>
<g id="a_Node000013"><a xlink:title=" ">
<polygon fill="#e0e0e0" stroke="#999999" points="1360.05,-19 1315.05,-19 1315.05,0 1360.05,0 1360.05,-19"/>
<text text-anchor="middle" x="1337.55" y="-7" font-family="Helvetica,sans-Serif" font-size="10.00">utility</text>
</a>
</g>
</g>
<!-- Node5&#45;&gt;Node13 -->
<g id="edge13_Node000005_Node000013" class="edge">
<title>Node5&#45;&gt;Node13</title>
<g id="a_edge13_Node000005_Node000013"><a xlink:title=" ">
<path fill="none" stroke="#63b8ff" d="M1123.85,-116.76C1226.32,-112.56 1458.03,-100.24 1481.55,-74 1487.19,-67.71 1486.56,-61.8 1481.55,-55 1478.13,-50.37 1411.36,-31.07 1369.96,-19.47"/>
<polygon fill="#63b8ff" stroke="#63b8ff" points="1370.85,-16.08 1360.28,-16.76 1368.97,-22.82 1370.85,-16.08"/>
</a>
</g>
</g>
<!-- Node14 -->
<g id="Node000014" class="node">
<title>Node14</title>
<g id="a_Node000014"><a xlink:title=" ">
<polygon fill="#e0e0e0" stroke="#999999" points="1220.05,-19 1173.05,-19 1173.05,0 1220.05,0 1220.05,-19"/>
<text text-anchor="middle" x="1196.55" y="-7" font-family="Helvetica,sans-Serif" font-size="10.00">vector</text>
</a>
</g>
</g>
<!-- Node5&#45;&gt;Node14 -->
<g id="edge14_Node000005_Node000014" class="edge">
<title>Node5&#45;&gt;Node14</title>
<g id="a_edge14_Node000005_Node000014"><a xlink:title=" ">
<path fill="none" stroke="#63b8ff" d="M1116,-109.93C1137.37,-103.44 1162.44,-92.39 1178.55,-74 1189.29,-61.75 1193.65,-43.52 1195.41,-29.73"/>
<polygon fill="#63b8ff" stroke="#63b8ff" points="1198.93,-29.7 1196.35,-19.42 1191.95,-29.06 1198.93,-29.7"/>
</a>
</g>
</g>
<!-- Node15 -->
<g id="Node000015" class="node">
<title>Node15</title>
<g id="a_Node000015"><a xlink:href="Entity_8hpp.html" target="_top" xlink:title=" ">
<polygon fill="white" stroke="#666666" points="1169.55,-74 1085.55,-74 1085.55,-55 1169.55,-55 1169.55,-74"/>
<text text-anchor="middle" x="1127.55" y="-62" font-family="Helvetica,sans-Serif" font-size="10.00">ecs/Entity.hpp</text>
</a>
</g>
</g>
<!-- Node5&#45;&gt;Node15 -->
<g id="edge15_Node000005_Node000015" class="edge">
<title>Node5&#45;&gt;Node15</title>
<g id="a_edge15_Node000005_Node000015"><a xlink:title=" ">
<path fill="none" stroke="#63b8ff" d="M1084.14,-109.75C1091.71,-102.03 1102.93,-90.6 1112.06,-81.28"/>
<polygon fill="#63b8ff" stroke="#63b8ff" points="1114.62,-83.68 1119.12,-74.09 1109.62,-78.78 1114.62,-83.68"/>
</a>
</g>
</g>
<!-- Node17 -->
<g id="Node000017" class="node">
<title>Node17</title>
<g id="a_Node000017"><a xlink:href="SparseArray_8hpp.html" target="_top" xlink:title=" ">
<polygon fill="white" stroke="#666666" points="1341.05,-74 1226.05,-74 1226.05,-55 1341.05,-55 1341.05,-74"/>
<text text-anchor="middle" x="1283.55" y="-62" font-family="Helvetica,sans-Serif" font-size="10.00">ecs/SparseArray.hpp</text>
</a>
</g>
</g>
<!-- Node5&#45;&gt;Node17 -->
<g id="edge17_Node000005_Node000017" class="edge">
<title>Node5&#45;&gt;Node17</title>
<g id="a_edge17_Node000005_Node000017"><a xlink:title=" ">
<path fill="none" stroke="#63b8ff" d="M1108.97,-109.98C1144.49,-100.93 1200.83,-86.58 1239.85,-76.64"/>
<polygon fill="#63b8ff" stroke="#63b8ff" points="1241.04,-79.94 1249.87,-74.08 1239.32,-73.16 1241.04,-79.94"/>
</a>
</g>
</g>
<!-- Node16 -->
<g id="Node000016" class="node">
<title>Node16</title>
<g id="a_Node000016"><a xlink:title=" ">
<polygon fill="#e0e0e0" stroke="#999999" points="1154.05,-19 1101.05,-19 1101.05,0 1154.05,0 1154.05,-19"/>
<text text-anchor="middle" x="1127.55" y="-7" font-family="Helvetica,sans-Serif" font-size="10.00">cstddef</text>
</a>
</g>
</g>
<!-- Node15&#45;&gt;Node16 -->
<g id="edge16_Node000015_Node000016" class="edge">
<title>Node15&#45;&gt;Node16</title>
<g id="a_edge16_Node000015_Node000016"><a xlink:title=" ">
<path fill="none" stroke="#63b8ff" d="M1127.55,-54.75C1127.55,-47.8 1127.55,-37.85 1127.55,-29.13"/>
<polygon fill="#63b8ff" stroke="#63b8ff" points="1131.05,-29.09 1127.55,-19.09 1124.05,-29.09 1131.05,-29.09"/>
</a>
</g>
</g>
<!-- Node17&#45;&gt;Node13 -->
<g id="edge20_Node000017_Node000013" class="edge">
<title>Node17&#45;&gt;Node13</title>
<g id="a_edge20_Node000017_Node000013"><a xlink:title=" ">
<path fill="none" stroke="#63b8ff" d="M1292.47,-54.75C1300.33,-47.03 1311.98,-35.6 1321.47,-26.28"/>
<polygon fill="#63b8ff" stroke="#63b8ff" points="1324.11,-28.59 1328.8,-19.09 1319.21,-23.6 1324.11,-28.59"/>
</a>
</g>
</g>
<!-- Node17&#45;&gt;Node14 -->
<g id="edge21_Node000017_Node000014" class="edge">
<title>Node17&#45;&gt;Node14</title>
<g id="a_edge21_Node000017_Node000014"><a xlink:title=" ">
<path fill="none" stroke="#63b8ff" d="M1269.57,-54.98C1256.08,-46.77 1235.42,-34.18 1219.51,-24.49"/>
<polygon fill="#63b8ff" stroke="#63b8ff" points="1221.14,-21.38 1210.78,-19.17 1217.5,-27.36 1221.14,-21.38"/>
</a>
</g>
</g>
<!-- Node18 -->
<g id="Node000018" class="node">
<title>Node18</title>
<g id="a_Node000018"><a xlink:title=" ">
<polygon fill="#e0e0e0" stroke="#999999" points="1296.55,-19 1238.55,-19 1238.55,0 1296.55,0 1296.55,-19"/>
<text text-anchor="middle" x="1267.55" y="-7" font-family="Helvetica,sans-Serif" font-size="10.00">memory</text>
</a>
</g>
</g>
<!-- Node17&#45;&gt;Node18 -->
<g id="edge18_Node000017_Node000018" class="edge">
<title>Node17&#45;&gt;Node18</title>
<g id="a_edge18_Node000017_Node000018"><a xlink:title=" ">
<path fill="none" stroke="#63b8ff" d="M1280.91,-54.75C1278.79,-47.72 1275.74,-37.62 1273.09,-28.84"/>
<polygon fill="#63b8ff" stroke="#63b8ff" points="1276.38,-27.65 1270.14,-19.09 1269.68,-29.67 1276.38,-27.65"/>
</a>
</g>
</g>
<!-- Node19 -->
<g id="Node000019" class="node">
<title>Node19</title>
<g id="a_Node000019"><a xlink:title=" ">
<polygon fill="#e0e0e0" stroke="#999999" points="1434.55,-19 1378.55,-19 1378.55,0 1434.55,0 1434.55,-19"/>
<text text-anchor="middle" x="1406.55" y="-7" font-family="Helvetica,sans-Serif" font-size="10.00">optional</text>
</a>
</g>
</g>
<!-- Node17&#45;&gt;Node19 -->
<g id="edge19_Node000017_Node000019" class="edge">
<title>Node17&#45;&gt;Node19</title>
<g id="a_edge19_Node000017_Node000019"><a xlink:title=" ">
<path fill="none" stroke="#63b8ff" d="M1303.31,-54.98C1323.28,-46.38 1354.35,-32.99 1377.2,-23.15"/>
<polygon fill="#63b8ff" stroke="#63b8ff" points="1378.63,-26.34 1386.43,-19.17 1375.86,-19.91 1378.63,-26.34"/>
</a>
</g>
</g>
<!-- Node20&#45;&gt;Node6 -->
<g id="edge23_Node000020_Node000006" class="edge">
<title>Node20&#45;&gt;Node6</title>
<g id="a_edge23_Node000020_Node000006"><a xlink:title=" ">
<path fill="none" stroke="#63b8ff" d="M726.69,-109.98C750.37,-101.27 787.42,-87.63 814.26,-77.75"/>
<polygon fill="#63b8ff" stroke="#63b8ff" points="815.82,-80.91 823.99,-74.17 813.4,-74.34 815.82,-80.91"/>
</a>
</g>
</g>
<!-- Node20&#45;&gt;Node8 -->
<g id="edge24_Node000020_Node000008" class="edge">
<title>Node20&#45;&gt;Node8</title>
<g id="a_edge24_Node000020_Node000008"><a xlink:title=" ">
<path fill="none" stroke="#63b8ff" d="M713.35,-109.98C722.37,-102.15 735.96,-90.34 746.87,-80.86"/>
<polygon fill="#63b8ff" stroke="#63b8ff" points="749.32,-83.37 754.57,-74.17 744.73,-78.09 749.32,-83.37"/>
</a>
</g>
</g>
<!-- Node20&#45;&gt;Node13 -->
<g id="edge26_Node000020_Node000013" class="edge">
<title>Node20&#45;&gt;Node13</title>
<g id="a_edge26_Node000020_Node000013"><a xlink:title=" ">
<path fill="none" stroke="#63b8ff" d="M691.6,-109.94C674.91,-96.99 648.37,-72.11 664.55,-55 711.83,-4.99 1199.02,-28.41 1304.93,-18.35"/>
<polygon fill="#63b8ff" stroke="#63b8ff" points="1305.45,-21.81 1314.95,-17.11 1304.59,-14.87 1305.45,-21.81"/>
</a>
</g>
</g>
<!-- Node20&#45;&gt;Node20 -->
<g id="edge27_Node000020_Node000020" class="edge">
<title>Node20&#45;&gt;Node20</title>
<g id="a_edge27_Node000020_Node000020"><a xlink:title=" ">
<path fill="none" stroke="#63b8ff" d="M732.57,-129.03C749.61,-131.06 765.55,-127.88 765.55,-119.5 765.55,-112.82 755.43,-109.44 742.69,-109.38"/>
<polygon fill="#63b8ff" stroke="#63b8ff" points="742.35,-105.89 732.57,-109.97 742.76,-112.88 742.35,-105.89"/>
</a>
</g>
</g>
<!-- Node21 -->
<g id="Node000021" class="node">
<title>Node21</title>
<g id="a_Node000021"><a xlink:title=" ">
<polygon fill="#e0e0e0" stroke="#999999" points="714.05,-74 673.05,-74 673.05,-55 714.05,-55 714.05,-74"/>
<text text-anchor="middle" x="693.55" y="-62" font-family="Helvetica,sans-Serif" font-size="10.00">tuple</text>
</a>
</g>
</g>
<!-- Node20&#45;&gt;Node21 -->
<g id="edge25_Node000020_Node000021" class="edge">
<title>Node20&#45;&gt;Node21</title>
<g id="a_edge25_Node000020_Node000021"><a xlink:title=" ">
<path fill="none" stroke="#63b8ff" d="M701.9,-109.75C700.59,-102.8 698.71,-92.85 697.07,-84.13"/>
<polygon fill="#63b8ff" stroke="#63b8ff" points="700.46,-83.27 695.17,-74.09 693.59,-84.56 700.46,-83.27"/>
</a>
</g>
</g>
<!-- Node22&#45;&gt;Node2 -->
<g id="edge29_Node000022_Node000002" class="edge">
<title>Node22&#45;&gt;Node2</title>
<g id="a_edge29_Node000022_Node000002"><a xlink:title=" ">
<path fill="none" stroke="#63b8ff" d="M539.15,-109.79C509.86,-93.27 448.12,-58.72 437.55,-55 370.74,-31.48 289.09,-19.84 238.96,-14.5"/>
<polygon fill="#63b8ff" stroke="#63b8ff" points="239.07,-11 228.76,-13.46 238.35,-17.96 239.07,-11"/>
</a>
</g>
</g>
<!-- Node22&#45;&gt;Node11 -->
<g id="edge31_Node000022_Node000011" class="edge">
<title>Node22&#45;&gt;Node11</title>
<g id="a_edge31_Node000022_Node000011"><a xlink:title=" ">
<path fill="none" stroke="#63b8ff" d="M550.75,-109.75C547.64,-102.57 543.13,-92.18 539.26,-83.27"/>
<polygon fill="#63b8ff" stroke="#63b8ff" points="542.47,-81.87 535.28,-74.09 536.05,-84.66 542.47,-81.87"/>
</a>
</g>
</g>
<!-- Node22&#45;&gt;Node14 -->
<g id="edge32_Node000022_Node000014" class="edge">
<title>Node22&#45;&gt;Node14</title>
<g id="a_edge32_Node000022_Node000014"><a xlink:title=" ">
<path fill="none" stroke="#63b8ff" d="M564.2,-110C581.11,-95.67 617.83,-67.1 654.55,-55 866.8,14.91 937.63,-53.37 1162.72,-18.76"/>
<polygon fill="#63b8ff" stroke="#63b8ff" points="1163.54,-22.18 1172.87,-17.15 1162.44,-15.26 1163.54,-22.18"/>
</a>
</g>
</g>
<!-- Node23 -->
<g id="Node000023" class="node">
<title>Node23</title>
<g id="a_Node000023"><a xlink:title=" ">
<polygon fill="#e0e0e0" stroke="#999999" points="428.55,-74 384.55,-74 384.55,-55 428.55,-55 428.55,-74"/>
<text text-anchor="middle" x="406.55" y="-62" font-family="Helvetica,sans-Serif" font-size="10.00">string</text>
</a>
</g>
</g>
<!-- Node22&#45;&gt;Node23 -->
<g id="edge30_Node000022_Node000023" class="edge">
<title>Node22&#45;&gt;Node23</title>
<g id="a_edge30_Node000022_Node000023"><a xlink:title=" ">
<path fill="none" stroke="#63b8ff" d="M530.77,-109.98C505.74,-101.02 466.18,-86.86 438.45,-76.92"/>
<polygon fill="#63b8ff" stroke="#63b8ff" points="439.41,-73.55 428.82,-73.47 437.05,-80.14 439.41,-73.55"/>
</a>
</g>
</g>
<!-- Node24&#45;&gt;Node2 -->
<g id="edge34_Node000024_Node000002" class="edge">
<title>Node24&#45;&gt;Node2</title>
<g id="a_edge34_Node000024_Node000002"><a xlink:title=" ">
<path fill="none" stroke="#63b8ff" d="M183.37,-109.66C184.99,-92.17 188.63,-52.8 190.81,-29.27"/>
<polygon fill="#63b8ff" stroke="#63b8ff" points="194.31,-29.44 191.75,-19.16 187.34,-28.79 194.31,-29.44"/>
</a>
</g>
</g>
<!-- Node24&#45;&gt;Node3 -->
<g id="edge36_Node000024_Node000003" class="edge">
<title>Node24&#45;&gt;Node3</title>
<g id="a_edge36_Node000024_Node000003"><a xlink:title=" ">
<path fill="none" stroke="#63b8ff" d="M167.45,-109.98C152.73,-101.69 130.13,-88.94 112.88,-79.22"/>
<polygon fill="#63b8ff" stroke="#63b8ff" points="114.36,-76.03 103.93,-74.17 110.92,-82.13 114.36,-76.03"/>
</a>
</g>
</g>
<!-- Node24&#45;&gt;Node23 -->
<g id="edge35_Node000024_Node000023" class="edge">
<title>Node24&#45;&gt;Node23</title>
<g id="a_edge35_Node000024_Node000023"><a xlink:title=" ">
<path fill="none" stroke="#63b8ff" d="M221.85,-109.94C258.86,-101.76 316.1,-88.83 374.47,-74.2"/>
<polygon fill="#63b8ff" stroke="#63b8ff" points="375.39,-77.58 384.23,-71.74 373.68,-70.79 375.39,-77.58"/>
</a>
</g>
</g>
<!-- Node25&#45;&gt;Node2 -->
<g id="edge38_Node000025_Node000002" class="edge">
<title>Node25&#45;&gt;Node2</title>
<g id="a_edge38_Node000025_Node000002"><a xlink:title=" ">
<path fill="none" stroke="#63b8ff" d="M333.27,-109.99C308.27,-102.99 275.09,-91.37 249.55,-74 231.06,-61.43 214.56,-41.61 204.13,-27.45"/>
<polygon fill="#63b8ff" stroke="#63b8ff" points="206.84,-25.23 198.19,-19.11 201.14,-29.28 206.84,-25.23"/>
</a>
</g>
</g>
<!-- Node25&#45;&gt;Node11 -->
<g id="edge41_Node000025_Node000011" class="edge">
<title>Node25&#45;&gt;Node11</title>
<g id="a_edge41_Node000025_Node000011"><a xlink:title=" ">
<path fill="none" stroke="#63b8ff" d="M395.58,-109.98C422.66,-101.13 465.26,-87.19 495.56,-77.28"/>
<polygon fill="#63b8ff" stroke="#63b8ff" points="496.9,-80.52 505.32,-74.08 494.73,-73.87 496.9,-80.52"/>
</a>
</g>
</g>
<!-- Node25&#45;&gt;Node23 -->
<g id="edge40_Node000025_Node000023" class="edge">
<title>Node25&#45;&gt;Node23</title>
<g id="a_edge40_Node000025_Node000023"><a xlink:title=" ">
<path fill="none" stroke="#63b8ff" d="M375.66,-109.75C380.83,-102.34 388.4,-91.5 394.75,-82.41"/>
<polygon fill="#63b8ff" stroke="#63b8ff" points="397.7,-84.29 400.55,-74.09 391.96,-80.29 397.7,-84.29"/>
</a>
</g>
</g>
<!-- Node26 -->
<g id="Node000026" class="node">
<title>Node26</title>
<g id="a_Node000026"><a xlink:title=" ">
<polygon fill="#e0e0e0" stroke="#999999" points="366.55,-74 258.55,-74 258.55,-55 366.55,-55 366.55,-74"/>
<text text-anchor="middle" x="312.55" y="-62" font-family="Helvetica,sans-Serif" font-size="10.00">SDL2/SDL_image.h</text>
</a>
</g>
</g>
<!-- Node25&#45;&gt;Node26 -->
<g id="edge39_Node000025_Node000026" class="edge">
<title>Node25&#45;&gt;Node26</title>
<g id="a_edge39_Node000025_Node000026"><a xlink:title=" ">
<path fill="none" stroke="#63b8ff" d="M360.39,-109.98C352.05,-102.23 339.52,-90.58 329.37,-81.14"/>
<polygon fill="#63b8ff" stroke="#63b8ff" points="331.58,-78.42 321.88,-74.17 326.82,-83.54 331.58,-78.42"/>
</a>
</g>
</g>
</g>
</svg>
