<?xml version="1.0" encoding="UTF-8" standalone="no"?>
<!DOCTYPE svg PUBLIC "-//W3C//DTD SVG 1.1//EN"
 "http://www.w3.org/Graphics/SVG/1.1/DTD/svg11.dtd">
<!-- Generated by graphviz version 2.43.0 (0)
 -->
<!-- Title: /home/runner/work/R&#45;Type/R&#45;Type/Client/src/engine/scene/SceneManager.hpp Pages: 1 -->
<svg width="1292pt" height="280pt"
 viewBox="0.00 0.00 1292.00 280.00" xmlns="http://www.w3.org/2000/svg" xmlns:xlink="http://www.w3.org/1999/xlink">
<g id="graph0" class="graph" transform="scale(1 1) rotate(0) translate(4 276)">
<title>/home/runner/work/R&#45;Type/R&#45;Type/Client/src/engine/scene/SceneManager.hpp</title>
<!-- Node1 -->
<g id="Node000001" class="node">
<title>Node1</title>
<g id="a_Node000001"><a xlink:title=" ">
<polygon fill="#999999" stroke="#666666" points="882.5,-272 685.5,-272 685.5,-231 882.5,-231 882.5,-272"/>
<text text-anchor="start" x="693.5" y="-260" font-family="Helvetica,sans-Serif" font-size="10.00">/home/runner/work/R</text>
<text text-anchor="start" x="693.5" y="-249" font-family="Helvetica,sans-Serif" font-size="10.00">&#45;Type/R&#45;Type/Client</text>
<text text-anchor="middle" x="784" y="-238" font-family="Helvetica,sans-Serif" font-size="10.00">/src/engine/scene/SceneManager.hpp</text>
</a>
</g>
</g>
<!-- Node2 -->
<g id="Node000002" class="node">
<title>Node2</title>
<g id="a_Node000002"><a xlink:href="Main_8cpp.html" target="_top" xlink:title=" ">
<polygon fill="white" stroke="#666666" points="846.5,-41 727.5,-41 727.5,0 846.5,0 846.5,-41"/>
<text text-anchor="start" x="735.5" y="-29" font-family="Helvetica,sans-Serif" font-size="10.00">/home/runner/work/R</text>
<text text-anchor="start" x="735.5" y="-18" font-family="Helvetica,sans-Serif" font-size="10.00">&#45;Type/R&#45;Type/Client</text>
<text text-anchor="middle" x="787" y="-7" font-family="Helvetica,sans-Serif" font-size="10.00">/src/Main.cpp</text>
</a>
</g>
</g>
<!-- Node1&#45;&gt;Node2 -->
<g id="edge1_Node000001_Node000002" class="edge">
<title>Node1&#45;&gt;Node2</title>
<g id="a_edge1_Node000001_Node000002"><a xlink:title=" ">
<path fill="none" stroke="#63b8ff" d="M892.91,-243.48C963.92,-236.38 1047.46,-222.34 1070,-195 1103.37,-154.54 1103.32,-117.5 1070,-77 1042.28,-43.32 921.18,-29.77 846.67,-24.56"/>
<polygon fill="#63b8ff" stroke="#63b8ff" points="892.15,-240.04 882.53,-244.48 892.82,-247.01 892.15,-240.04"/>
</a>
</g>
</g>
<!-- Node3 -->
<g id="Node000003" class="node">
<title>Node3</title>
<g id="a_Node000003"><a xlink:href="GameEngine_8hpp.html" target="_top" xlink:title=" ">
<polygon fill="white" stroke="#666666" points="632,-195 476,-195 476,-154 632,-154 632,-195"/>
<text text-anchor="start" x="484" y="-183" font-family="Helvetica,sans-Serif" font-size="10.00">/home/runner/work/R</text>
<text text-anchor="start" x="484" y="-172" font-family="Helvetica,sans-Serif" font-size="10.00">&#45;Type/R&#45;Type/Client</text>
<text text-anchor="middle" x="554" y="-161" font-family="Helvetica,sans-Serif" font-size="10.00">/src/engine/GameEngine.hpp</text>
</a>
</g>
</g>
<!-- Node1&#45;&gt;Node3 -->
<g id="edge2_Node000001_Node000003" class="edge">
<title>Node1&#45;&gt;Node3</title>
<g id="a_edge2_Node000001_Node000003"><a xlink:title=" ">
<path fill="none" stroke="#63b8ff" d="M714.42,-227.81C682.36,-217.36 644.7,-205.08 613.93,-195.04"/>
<polygon fill="#63b8ff" stroke="#63b8ff" points="713.58,-231.22 724.17,-230.99 715.75,-224.56 713.58,-231.22"/>
</a>
</g>
</g>
<!-- Node5 -->
<g id="Node000005" class="node">
<title>Node5</title>
<g id="a_Node000005"><a xlink:href="SceneManager_8cpp.html" target="_top" xlink:title=" ">
<polygon fill="white" stroke="#666666" points="882,-118 686,-118 686,-77 882,-77 882,-118"/>
<text text-anchor="start" x="694" y="-106" font-family="Helvetica,sans-Serif" font-size="10.00">/home/runner/work/R</text>
<text text-anchor="start" x="694" y="-95" font-family="Helvetica,sans-Serif" font-size="10.00">&#45;Type/R&#45;Type/Client</text>
<text text-anchor="middle" x="784" y="-84" font-family="Helvetica,sans-Serif" font-size="10.00">/src/engine/scene/SceneManager.cpp</text>
</a>
</g>
</g>
<!-- Node1&#45;&gt;Node5 -->
<g id="edge14_Node000001_Node000005" class="edge">
<title>Node1&#45;&gt;Node5</title>
<g id="a_edge14_Node000001_Node000005"><a xlink:title=" ">
<path fill="none" stroke="#63b8ff" d="M784,-220.58C784,-190.36 784,-144.53 784,-118.47"/>
<polygon fill="#63b8ff" stroke="#63b8ff" points="780.5,-220.94 784,-230.94 787.5,-220.94 780.5,-220.94"/>
</a>
</g>
</g>
<!-- Node6 -->
<g id="Node000006" class="node">
<title>Node6</title>
<g id="a_Node000006"><a xlink:href="JoinGame_8hpp.html" target="_top" xlink:title=" ">
<polygon fill="white" stroke="#666666" points="142,-118 0,-118 0,-77 142,-77 142,-118"/>
<text text-anchor="start" x="8" y="-106" font-family="Helvetica,sans-Serif" font-size="10.00">/home/runner/work/R</text>
<text text-anchor="start" x="8" y="-95" font-family="Helvetica,sans-Serif" font-size="10.00">&#45;Type/R&#45;Type/Client</text>
<text text-anchor="middle" x="71" y="-84" font-family="Helvetica,sans-Serif" font-size="10.00">/src/scenes/JoinGame.hpp</text>
</a>
</g>
</g>
<!-- Node1&#45;&gt;Node6 -->
<g id="edge17_Node000001_Node000006" class="edge">
<title>Node1&#45;&gt;Node6</title>
<g id="a_edge17_Node000001_Node000006"><a xlink:title=" ">
<path fill="none" stroke="#63b8ff" d="M675.45,-242.62C587.64,-234.79 461.25,-220.22 353,-195 268.59,-175.33 173.91,-140.09 118.54,-118.07"/>
<polygon fill="#63b8ff" stroke="#63b8ff" points="675.16,-246.11 685.43,-243.5 675.77,-239.13 675.16,-246.11"/>
</a>
</g>
</g>
<!-- Node7 -->
<g id="Node000007" class="node">
<title>Node7</title>
<g id="a_Node000007"><a xlink:href="MainMenu_8hpp.html" target="_top" xlink:title=" ">
<polygon fill="white" stroke="#666666" points="306,-118 160,-118 160,-77 306,-77 306,-118"/>
<text text-anchor="start" x="168" y="-106" font-family="Helvetica,sans-Serif" font-size="10.00">/home/runner/work/R</text>
<text text-anchor="start" x="168" y="-95" font-family="Helvetica,sans-Serif" font-size="10.00">&#45;Type/R&#45;Type/Client</text>
<text text-anchor="middle" x="233" y="-84" font-family="Helvetica,sans-Serif" font-size="10.00">/src/scenes/MainMenu.hpp</text>
</a>
</g>
</g>
<!-- Node1&#45;&gt;Node7 -->
<g id="edge20_Node000001_Node000007" class="edge">
<title>Node1&#45;&gt;Node7</title>
<g id="a_edge20_Node000001_Node000007"><a xlink:title=" ">
<path fill="none" stroke="#63b8ff" d="M675.11,-237.41C613.32,-228.51 534.99,-214.71 467,-195 396.73,-174.62 318.88,-139.93 273.04,-118.17"/>
<polygon fill="#63b8ff" stroke="#63b8ff" points="674.88,-240.92 685.27,-238.86 675.87,-233.99 674.88,-240.92"/>
</a>
</g>
</g>
<!-- Node8 -->
<g id="Node000008" class="node">
<title>Node8</title>
<g id="a_Node000008"><a xlink:href="Options_8hpp.html" target="_top" xlink:title=" ">
<polygon fill="white" stroke="#666666" points="668,-118 536,-118 536,-77 668,-77 668,-118"/>
<text text-anchor="start" x="544" y="-106" font-family="Helvetica,sans-Serif" font-size="10.00">/home/runner/work/R</text>
<text text-anchor="start" x="544" y="-95" font-family="Helvetica,sans-Serif" font-size="10.00">&#45;Type/R&#45;Type/Client</text>
<text text-anchor="middle" x="602" y="-84" font-family="Helvetica,sans-Serif" font-size="10.00">/src/scenes/Options.hpp</text>
</a>
</g>
</g>
<!-- Node1&#45;&gt;Node8 -->
<g id="edge21_Node000001_Node000008" class="edge">
<title>Node1&#45;&gt;Node8</title>
<g id="a_edge21_Node000001_Node000008"><a xlink:title=" ">
<path fill="none" stroke="#63b8ff" d="M752.8,-224.44C716.72,-194.31 658.13,-145.37 625.62,-118.23"/>
<polygon fill="#63b8ff" stroke="#63b8ff" points="750.66,-227.22 760.58,-230.94 755.15,-221.84 750.66,-227.22"/>
</a>
</g>
</g>
<!-- Node9 -->
<g id="Node000009" class="node">
<title>Node9</title>
<g id="a_Node000009"><a xlink:href="WaitLobby_8hpp.html" target="_top" xlink:title=" ">
<polygon fill="white" stroke="#666666" points="1044,-118 900,-118 900,-77 1044,-77 1044,-118"/>
<text text-anchor="start" x="908" y="-106" font-family="Helvetica,sans-Serif" font-size="10.00">/home/runner/work/R</text>
<text text-anchor="start" x="908" y="-95" font-family="Helvetica,sans-Serif" font-size="10.00">&#45;Type/R&#45;Type/Client</text>
<text text-anchor="middle" x="972" y="-84" font-family="Helvetica,sans-Serif" font-size="10.00">/src/scenes/WaitLobby.hpp</text>
</a>
</g>
</g>
<!-- Node1&#45;&gt;Node9 -->
<g id="edge22_Node000001_Node000009" class="edge">
<title>Node1&#45;&gt;Node9</title>
<g id="a_edge22_Node000001_Node000009"><a xlink:title=" ">
<path fill="none" stroke="#63b8ff" d="M816.23,-224.44C853.5,-194.31 914.02,-145.37 947.6,-118.23"/>
<polygon fill="#63b8ff" stroke="#63b8ff" points="813.77,-221.93 808.19,-230.94 818.17,-227.37 813.77,-221.93"/>
</a>
</g>
</g>
<!-- Node10 -->
<g id="Node000010" class="node">
<title>Node10</title>
<g id="a_Node000010"><a xlink:href="GameOver_8hpp.html" target="_top" xlink:title=" ">
<polygon fill="white" stroke="#666666" points="1284,-195 1138,-195 1138,-154 1284,-154 1284,-195"/>
<text text-anchor="start" x="1146" y="-183" font-family="Helvetica,sans-Serif" font-size="10.00">/home/runner/work/R</text>
<text text-anchor="start" x="1146" y="-172" font-family="Helvetica,sans-Serif" font-size="10.00">&#45;Type/R&#45;Type/Client</text>
<text text-anchor="middle" x="1211" y="-161" font-family="Helvetica,sans-Serif" font-size="10.00">/src/scenes/GameOver.hpp</text>
</a>
</g>
</g>
<!-- Node1&#45;&gt;Node10 -->
<g id="edge15_Node000001_Node000010" class="edge">
<title>Node1&#45;&gt;Node10</title>
<g id="a_edge15_Node000001_Node000010"><a xlink:title=" ">
<path fill="none" stroke="#63b8ff" d="M892.97,-234.38C959.82,-224.07 1047.06,-209.89 1124,-195 1128.56,-194.12 1133.24,-193.17 1137.96,-192.2"/>
<polygon fill="#63b8ff" stroke="#63b8ff" points="892.19,-230.96 882.84,-235.93 893.25,-237.88 892.19,-230.96"/>
</a>
</g>
</g>
<!-- Node11 -->
<g id="Node000011" class="node">
<title>Node11</title>
<g id="a_Node000011"><a xlink:href="MainGame_8hpp.html" target="_top" xlink:title=" ">
<polygon fill="white" stroke="#666666" points="1061,-195 913,-195 913,-154 1061,-154 1061,-195"/>
<text text-anchor="start" x="921" y="-183" font-family="Helvetica,sans-Serif" font-size="10.00">/home/runner/work/R</text>
<text text-anchor="start" x="921" y="-172" font-family="Helvetica,sans-Serif" font-size="10.00">&#45;Type/R&#45;Type/Client</text>
<text text-anchor="middle" x="987" y="-161" font-family="Helvetica,sans-Serif" font-size="10.00">/src/scenes/MainGame.hpp</text>
</a>
</g>
</g>
<!-- Node1&#45;&gt;Node11 -->
<g id="edge18_Node000001_Node000011" class="edge">
<title>Node1&#45;&gt;Node11</title>
<g id="a_edge18_Node000001_Node000011"><a xlink:title=" ">
<path fill="none" stroke="#63b8ff" d="M846.51,-227.4C874.56,-217.04 907.3,-204.95 934.11,-195.04"/>
<polygon fill="#63b8ff" stroke="#63b8ff" points="844.97,-224.24 836.81,-230.99 847.4,-230.81 844.97,-224.24"/>
</a>
</g>
</g>
<!-- Node3&#45;&gt;Node2 -->
<g id="edge3_Node000003_Node000002" class="edge">
<title>Node3&#45;&gt;Node2</title>
<g id="a_edge3_Node000003_Node000002"><a xlink:title=" ">
<path fill="none" stroke="#63b8ff" d="M465.93,-161.25C395.11,-147.82 313.43,-121.96 353,-77 377.34,-49.35 614.03,-31.73 727.25,-24.82"/>
<polygon fill="#63b8ff" stroke="#63b8ff" points="465.38,-164.7 475.84,-163.06 466.64,-157.82 465.38,-164.7"/>
</a>
</g>
</g>
<!-- Node4 -->
<g id="Node000004" class="node">
<title>Node4</title>
<g id="a_Node000004"><a xlink:href="GameEngine_8cpp.html" target="_top" xlink:title=" ">
<polygon fill="white" stroke="#666666" points="517.5,-118 362.5,-118 362.5,-77 517.5,-77 517.5,-118"/>
<text text-anchor="start" x="370.5" y="-106" font-family="Helvetica,sans-Serif" font-size="10.00">/home/runner/work/R</text>
<text text-anchor="start" x="370.5" y="-95" font-family="Helvetica,sans-Serif" font-size="10.00">&#45;Type/R&#45;Type/Client</text>
<text text-anchor="middle" x="440" y="-84" font-family="Helvetica,sans-Serif" font-size="10.00">/src/engine/GameEngine.cpp</text>
</a>
</g>
</g>
<!-- Node3&#45;&gt;Node4 -->
<g id="edge4_Node000003_Node000004" class="edge">
<title>Node3&#45;&gt;Node4</title>
<g id="a_edge4_Node000003_Node000004"><a xlink:title=" ">
<path fill="none" stroke="#63b8ff" d="M515.8,-148.37C500.84,-138.53 483.94,-127.41 469.9,-118.17"/>
<polygon fill="#63b8ff" stroke="#63b8ff" points="514.07,-151.42 524.35,-153.99 517.91,-145.57 514.07,-151.42"/>
</a>
</g>
</g>
<!-- Node3&#45;&gt;Node5 -->
<g id="edge5_Node000003_Node000005" class="edge">
<title>Node3&#45;&gt;Node5</title>
<g id="a_edge5_Node000003_Node000005"><a xlink:title=" ">
<path fill="none" stroke="#63b8ff" d="M623.58,-150.81C655.64,-140.36 693.3,-128.08 724.07,-118.04"/>
<polygon fill="#63b8ff" stroke="#63b8ff" points="622.25,-147.56 613.83,-153.99 624.42,-154.22 622.25,-147.56"/>
</a>
</g>
</g>
<!-- Node3&#45;&gt;Node6 -->
<g id="edge6_Node000003_Node000006" class="edge">
<title>Node3&#45;&gt;Node6</title>
<g id="a_edge6_Node000003_Node000006"><a xlink:title=" ">
<path fill="none" stroke="#63b8ff" d="M465.96,-164C384.04,-154.54 258.73,-138.49 151,-118 148.05,-117.44 145.05,-116.84 142.02,-116.21"/>
<polygon fill="#63b8ff" stroke="#63b8ff" points="465.65,-167.49 475.98,-165.15 466.45,-160.53 465.65,-167.49"/>
</a>
</g>
</g>
<!-- Node3&#45;&gt;Node7 -->
<g id="edge8_Node000003_Node000007" class="edge">
<title>Node3&#45;&gt;Node7</title>
<g id="a_edge8_Node000003_Node000007"><a xlink:title=" ">
<path fill="none" stroke="#63b8ff" d="M466.02,-152.94C415.85,-141.22 353.71,-126.7 306.22,-115.61"/>
<polygon fill="#63b8ff" stroke="#63b8ff" points="465.35,-156.38 475.89,-155.25 466.94,-149.57 465.35,-156.38"/>
</a>
</g>
</g>
<!-- Node3&#45;&gt;Node8 -->
<g id="edge10_Node000003_Node000008" class="edge">
<title>Node3&#45;&gt;Node8</title>
<g id="a_edge10_Node000003_Node000008"><a xlink:title=" ">
<path fill="none" stroke="#63b8ff" d="M572.17,-145.11C577.94,-136.09 584.19,-126.33 589.47,-118.07"/>
<polygon fill="#63b8ff" stroke="#63b8ff" points="569.05,-143.49 566.61,-153.79 574.95,-147.26 569.05,-143.49"/>
</a>
</g>
</g>
<!-- Node3&#45;&gt;Node9 -->
<g id="edge12_Node000003_Node000009" class="edge">
<title>Node3&#45;&gt;Node9</title>
<g id="a_edge12_Node000003_Node000009"><a xlink:title=" ">
<path fill="none" stroke="#63b8ff" d="M642.53,-160.73C710.69,-150.46 807.11,-134.98 891,-118 893.84,-117.43 896.72,-116.82 899.63,-116.2"/>
<polygon fill="#63b8ff" stroke="#63b8ff" points="641.64,-157.32 632.27,-162.27 642.67,-164.24 641.64,-157.32"/>
</a>
</g>
</g>
<!-- Node6&#45;&gt;Node2 -->
<g id="edge7_Node000006_Node000002" class="edge">
<title>Node6&#45;&gt;Node2</title>
<g id="a_edge7_Node000006_Node000002"><a xlink:title=" ">
<path fill="none" stroke="#63b8ff" d="M152.38,-76.9C368.89,-41.99 616.11,-28.4 727.44,-23.68"/>
<polygon fill="#63b8ff" stroke="#63b8ff" points="151.72,-73.46 142.42,-78.52 152.85,-80.37 151.72,-73.46"/>
</a>
</g>
</g>
<!-- Node7&#45;&gt;Node2 -->
<g id="edge9_Node000007_Node000002" class="edge">
<title>Node7&#45;&gt;Node2</title>
<g id="a_edge9_Node000007_Node000002"><a xlink:title=" ">
<path fill="none" stroke="#63b8ff" d="M316.66,-77.58C317.78,-77.38 318.89,-77.19 320,-77 465.46,-52.12 638.32,-34.71 727.38,-26.62"/>
<polygon fill="#63b8ff" stroke="#63b8ff" points="315.66,-74.21 306.47,-79.48 316.94,-81.09 315.66,-74.21"/>
</a>
</g>
</g>
<!-- Node8&#45;&gt;Node2 -->
<g id="edge11_Node000008_Node000002" class="edge">
<title>Node8&#45;&gt;Node2</title>
<g id="a_edge11_Node000008_Node000002"><a xlink:title=" ">
<path fill="none" stroke="#63b8ff" d="M659.64,-73.13C685.05,-62.83 714.58,-50.86 738.8,-41.04"/>
<polygon fill="#63b8ff" stroke="#63b8ff" points="658.08,-69.99 650.12,-76.99 660.71,-76.48 658.08,-69.99"/>
</a>
</g>
</g>
<!-- Node9&#45;&gt;Node2 -->
<g id="edge13_Node000009_Node000002" class="edge">
<title>Node9&#45;&gt;Node2</title>
<g id="a_edge13_Node000009_Node000002"><a xlink:title=" ">
<path fill="none" stroke="#63b8ff" d="M914.36,-73.13C888.95,-62.83 859.42,-50.86 835.2,-41.04"/>
<polygon fill="#63b8ff" stroke="#63b8ff" points="913.29,-76.48 923.88,-76.99 915.92,-69.99 913.29,-76.48"/>
</a>
</g>
</g>
<!-- Node10&#45;&gt;Node2 -->
<g id="edge16_Node000010_Node000002" class="edge">
<title>Node10&#45;&gt;Node2</title>
<g id="a_edge16_Node000010_Node000002"><a xlink:title=" ">
<path fill="none" stroke="#63b8ff" d="M1193.63,-145.55C1178.19,-123.24 1153.53,-93.14 1124,-77 1077.3,-51.48 930.41,-34.46 846.78,-26.57"/>
<polygon fill="#63b8ff" stroke="#63b8ff" points="1190.8,-147.62 1199.28,-153.97 1196.61,-143.72 1190.8,-147.62"/>
</a>
</g>
</g>
<!-- Node11&#45;&gt;Node2 -->
<g id="edge19_Node000011_Node000002" class="edge">
<title>Node11&#45;&gt;Node2</title>
<g id="a_edge19_Node000011_Node000002"><a xlink:title=" ">
<path fill="none" stroke="#63b8ff" d="M1028.74,-147.8C1038.5,-139.58 1047.61,-129.57 1053,-118 1060.69,-101.48 1064.49,-91.14 1053,-77 1027.52,-45.66 917.1,-31.41 846.78,-25.41"/>
<polygon fill="#63b8ff" stroke="#63b8ff" points="1026.54,-145.07 1020.83,-154 1030.86,-150.58 1026.54,-145.07"/>
</a>
</g>
</g>
</g>
</svg>
