<?xml version="1.0" encoding="UTF-8" standalone="no"?>
<!DOCTYPE svg PUBLIC "-//W3C//DTD SVG 1.1//EN"
 "http://www.w3.org/Graphics/SVG/1.1/DTD/svg11.dtd">
<!-- Generated by graphviz version 2.43.0 (0)
 -->
<!-- Title: /home/runner/work/R&#45;Type/R&#45;Type/Client/src/engine/scene/SceneManager.hpp Pages: 1 -->
<svg width="2597pt" height="269pt"
 viewBox="0.00 0.00 2596.50 269.00" xmlns="http://www.w3.org/2000/svg" xmlns:xlink="http://www.w3.org/1999/xlink">
<g id="graph0" class="graph" transform="scale(1 1) rotate(0) translate(4 265)">
<title>/home/runner/work/R&#45;Type/R&#45;Type/Client/src/engine/scene/SceneManager.hpp</title>
<!-- Node1 -->
<g id="Node000001" class="node">
<title>Node1</title>
<g id="a_Node000001"><a xlink:title=" ">
<polygon fill="#999999" stroke="#666666" points="1739.5,-261 1542.5,-261 1542.5,-220 1739.5,-220 1739.5,-261"/>
<text text-anchor="start" x="1550.5" y="-249" font-family="Helvetica,sans-Serif" font-size="10.00">/home/runner/work/R</text>
<text text-anchor="start" x="1550.5" y="-238" font-family="Helvetica,sans-Serif" font-size="10.00">&#45;Type/R&#45;Type/Client</text>
<text text-anchor="middle" x="1641" y="-227" font-family="Helvetica,sans-Serif" font-size="10.00">/src/engine/scene/SceneManager.hpp</text>
</a>
</g>
</g>
<!-- Node2 -->
<g id="Node000002" class="node">
<title>Node2</title>
<g id="a_Node000002"><a xlink:title=" ">
<polygon fill="#e0e0e0" stroke="#999999" points="2059,-19 1987,-19 1987,0 2059,0 2059,-19"/>
<text text-anchor="middle" x="2023" y="-7" font-family="Helvetica,sans-Serif" font-size="10.00">SDL2/SDL.h</text>
</a>
</g>
</g>
<!-- Node1&#45;&gt;Node2 -->
<g id="edge1_Node000001_Node000002" class="edge">
<title>Node1&#45;&gt;Node2</title>
<g id="a_edge1_Node000001_Node000002"><a xlink:title=" ">
<path fill="none" stroke="#63b8ff" d="M1739.84,-234.12C1808.36,-227.79 1900.65,-214.01 1977,-184 2018.19,-167.81 2039.06,-167.99 2060,-129 2078.09,-95.31 2053.33,-51.39 2036.42,-27.61"/>
<polygon fill="#63b8ff" stroke="#63b8ff" points="2039,-25.21 2030.23,-19.27 2033.39,-29.39 2039,-25.21"/>
</a>
</g>
</g>
<!-- Node3 -->
<g id="Node000003" class="node">
<title>Node3</title>
<g id="a_Node000003"><a xlink:title=" ">
<polygon fill="#e0e0e0" stroke="#999999" points="1129.5,-184 1094.5,-184 1094.5,-165 1129.5,-165 1129.5,-184"/>
<text text-anchor="middle" x="1112" y="-172" font-family="Helvetica,sans-Serif" font-size="10.00">any</text>
</a>
</g>
</g>
<!-- Node1&#45;&gt;Node3 -->
<g id="edge2_Node000001_Node000003" class="edge">
<title>Node1&#45;&gt;Node3</title>
<g id="a_edge2_Node000001_Node000003"><a xlink:title=" ">
<path fill="none" stroke="#63b8ff" d="M1542.29,-232.82C1441.54,-224.98 1280.96,-209.69 1144,-184 1142.55,-183.73 1141.07,-183.43 1139.59,-183.1"/>
<polygon fill="#63b8ff" stroke="#63b8ff" points="1140.38,-179.69 1129.83,-180.74 1138.73,-186.5 1140.38,-179.69"/>
</a>
</g>
</g>
<!-- Node4 -->
<g id="Node000004" class="node">
<title>Node4</title>
<g id="a_Node000004"><a xlink:title=" ">
<polygon fill="#e0e0e0" stroke="#999999" points="1373,-19 1313,-19 1313,0 1373,0 1373,-19"/>
<text text-anchor="middle" x="1343" y="-7" font-family="Helvetica,sans-Serif" font-size="10.00">iostream</text>
</a>
</g>
</g>
<!-- Node1&#45;&gt;Node4 -->
<g id="edge3_Node000001_Node000004" class="edge">
<title>Node1&#45;&gt;Node4</title>
<g id="a_edge3_Node000001_Node000004"><a xlink:title=" ">
<path fill="none" stroke="#63b8ff" d="M1542.37,-235.96C1432.31,-226.09 1258.97,-191.49 1177,-74 1172.17,-67.07 1171.86,-61.7 1177,-55 1180.92,-49.89 1255.11,-31.42 1302.97,-19.94"/>
<polygon fill="#63b8ff" stroke="#63b8ff" points="1303.83,-23.33 1312.75,-17.61 1302.21,-16.53 1303.83,-23.33"/>
</a>
</g>
</g>
<!-- Node5 -->
<g id="Node000005" class="node">
<title>Node5</title>
<g id="a_Node000005"><a xlink:title=" ">
<polygon fill="#e0e0e0" stroke="#999999" points="1699,-129 1641,-129 1641,-110 1699,-110 1699,-129"/>
<text text-anchor="middle" x="1670" y="-117" font-family="Helvetica,sans-Serif" font-size="10.00">memory</text>
</a>
</g>
</g>
<!-- Node1&#45;&gt;Node5 -->
<g id="edge4_Node000001_Node000005" class="edge">
<title>Node1&#45;&gt;Node5</title>
<g id="a_edge4_Node000001_Node000005"><a xlink:title=" ">
<path fill="none" stroke="#63b8ff" d="M1645.79,-219.85C1651.27,-197.37 1660.17,-160.86 1665.51,-138.91"/>
<polygon fill="#63b8ff" stroke="#63b8ff" points="1668.92,-139.72 1667.89,-129.18 1662.12,-138.06 1668.92,-139.72"/>
</a>
</g>
</g>
<!-- Node6 -->
<g id="Node000006" class="node">
<title>Node6</title>
<g id="a_Node000006"><a xlink:title=" ">
<polygon fill="#e0e0e0" stroke="#999999" points="1733,-19 1689,-19 1689,0 1733,0 1733,-19"/>
<text text-anchor="middle" x="1711" y="-7" font-family="Helvetica,sans-Serif" font-size="10.00">string</text>
</a>
</g>
</g>
<!-- Node1&#45;&gt;Node6 -->
<g id="edge5_Node000001_Node000006" class="edge">
<title>Node1&#45;&gt;Node6</title>
<g id="a_edge5_Node000001_Node000006"><a xlink:title=" ">
<path fill="none" stroke="#63b8ff" d="M1632.35,-219.74C1621.8,-192.25 1608.13,-142.24 1632,-110 1664.63,-65.93 1717.37,-118.07 1750,-74 1761.69,-58.21 1745.78,-38.8 1730.91,-25.63"/>
<polygon fill="#63b8ff" stroke="#63b8ff" points="1732.87,-22.71 1722.93,-19.02 1728.4,-28.1 1732.87,-22.71"/>
</a>
</g>
</g>
<!-- Node7 -->
<g id="Node000007" class="node">
<title>Node7</title>
<g id="a_Node000007"><a xlink:title=" ">
<polygon fill="#e0e0e0" stroke="#999999" points="1585.5,-19 1492.5,-19 1492.5,0 1585.5,0 1585.5,-19"/>
<text text-anchor="middle" x="1539" y="-7" font-family="Helvetica,sans-Serif" font-size="10.00">unordered_map</text>
</a>
</g>
</g>
<!-- Node1&#45;&gt;Node7 -->
<g id="edge6_Node000001_Node000007" class="edge">
<title>Node1&#45;&gt;Node7</title>
<g id="a_edge6_Node000001_Node000007"><a xlink:title=" ">
<path fill="none" stroke="#63b8ff" d="M1618.14,-219.81C1607.95,-209.96 1596.57,-197.32 1589,-184 1559.77,-132.56 1546.46,-62.66 1541.49,-29.48"/>
<polygon fill="#63b8ff" stroke="#63b8ff" points="1544.92,-28.78 1540.06,-19.37 1537.99,-29.76 1544.92,-28.78"/>
</a>
</g>
</g>
<!-- Node8 -->
<g id="Node000008" class="node">
<title>Node8</title>
<g id="a_Node000008"><a xlink:title=" ">
<polygon fill="#e0e0e0" stroke="#999999" points="2034.5,-129 1989.5,-129 1989.5,-110 2034.5,-110 2034.5,-129"/>
<text text-anchor="middle" x="2012" y="-117" font-family="Helvetica,sans-Serif" font-size="10.00">utility</text>
</a>
</g>
</g>
<!-- Node1&#45;&gt;Node8 -->
<g id="edge7_Node000001_Node000008" class="edge">
<title>Node1&#45;&gt;Node8</title>
<g id="a_edge7_Node000001_Node000008"><a xlink:title=" ">
<path fill="none" stroke="#63b8ff" d="M1719.11,-219.99C1757.06,-210.05 1803.17,-197.26 1844,-184 1892.78,-168.15 1948.23,-146.46 1981.64,-132.97"/>
<polygon fill="#63b8ff" stroke="#63b8ff" points="1983.32,-136.06 1991.27,-129.06 1980.69,-129.58 1983.32,-136.06"/>
</a>
</g>
</g>
<!-- Node9 -->
<g id="Node000009" class="node">
<title>Node9</title>
<g id="a_Node000009"><a xlink:href="AudioManager_8hpp.html" target="_top" xlink:title=" ">
<polygon fill="white" stroke="#666666" points="1323.5,-74 1186.5,-74 1186.5,-55 1323.5,-55 1323.5,-74"/>
<text text-anchor="middle" x="1255" y="-62" font-family="Helvetica,sans-Serif" font-size="10.00">audio/AudioManager.hpp</text>
</a>
</g>
</g>
<!-- Node1&#45;&gt;Node9 -->
<g id="edge8_Node000001_Node000009" class="edge">
<title>Node1&#45;&gt;Node9</title>
<g id="a_edge8_Node000001_Node000009"><a xlink:title=" ">
<path fill="none" stroke="#63b8ff" d="M1597.47,-219.88C1517.77,-183.95 1350.43,-108.52 1283.53,-78.36"/>
<polygon fill="#63b8ff" stroke="#63b8ff" points="1284.6,-75 1274.05,-74.09 1281.72,-81.39 1284.6,-75"/>
</a>
</g>
</g>
<!-- Node12 -->
<g id="Node000012" class="node">
<title>Node12</title>
<g id="a_Node000012"><a xlink:title=" ">
<polygon fill="#e0e0e0" stroke="#999999" points="2223,-74 2127,-74 2127,-55 2223,-55 2223,-74"/>
<text text-anchor="middle" x="2175" y="-62" font-family="Helvetica,sans-Serif" font-size="10.00">ecs/Registry.hpp</text>
</a>
</g>
</g>
<!-- Node1&#45;&gt;Node12 -->
<g id="edge15_Node000001_Node000012" class="edge">
<title>Node1&#45;&gt;Node12</title>
<g id="a_edge15_Node000001_Node000012"><a xlink:title=" ">
<path fill="none" stroke="#63b8ff" d="M1739.64,-238.72C1860.42,-235.94 2056.23,-225.02 2115,-184 2149.08,-160.21 2164.92,-111.17 2171.3,-84.24"/>
<polygon fill="#63b8ff" stroke="#63b8ff" points="2174.78,-84.7 2173.49,-74.18 2167.94,-83.21 2174.78,-84.7"/>
</a>
</g>
</g>
<!-- Node13 -->
<g id="Node000013" class="node">
<title>Node13</title>
<g id="a_Node000013"><a xlink:href="AnimationManager_8hpp.html" target="_top" xlink:title=" ">
<polygon fill="white" stroke="#666666" points="1741,-74 1567,-74 1567,-55 1741,-55 1741,-74"/>
<text text-anchor="middle" x="1654" y="-62" font-family="Helvetica,sans-Serif" font-size="10.00">graphics/AnimationManager.hpp</text>
</a>
</g>
</g>
<!-- Node1&#45;&gt;Node13 -->
<g id="edge16_Node000001_Node000013" class="edge">
<title>Node1&#45;&gt;Node13</title>
<g id="a_edge16_Node000001_Node000013"><a xlink:title=" ">
<path fill="none" stroke="#63b8ff" d="M1621.06,-219.78C1612.5,-209.93 1603.46,-197.29 1599,-184 1588.53,-152.82 1584.83,-139.68 1599,-110 1605.09,-97.23 1616.84,-86.94 1627.92,-79.49"/>
<polygon fill="#63b8ff" stroke="#63b8ff" points="1629.9,-82.38 1636.54,-74.12 1626.2,-76.43 1629.9,-82.38"/>
</a>
</g>
</g>
<!-- Node15 -->
<g id="Node000015" class="node">
<title>Node15</title>
<g id="a_Node000015"><a xlink:href="TextureManager_8hpp.html" target="_top" xlink:title=" ">
<polygon fill="white" stroke="#666666" points="1995,-74 1835,-74 1835,-55 1995,-55 1995,-74"/>
<text text-anchor="middle" x="1915" y="-62" font-family="Helvetica,sans-Serif" font-size="10.00">graphics/TextureManager.hpp</text>
</a>
</g>
</g>
<!-- Node1&#45;&gt;Node15 -->
<g id="edge21_Node000001_Node000015" class="edge">
<title>Node1&#45;&gt;Node15</title>
<g id="a_edge21_Node000001_Node000015"><a xlink:title=" ">
<path fill="none" stroke="#63b8ff" d="M1739.52,-226.73C1847.04,-210.48 2008.66,-178.42 2044,-129 2063.61,-101.58 2026.63,-85.42 1987.3,-76.27"/>
<polygon fill="#63b8ff" stroke="#63b8ff" points="1987.81,-72.79 1977.29,-74.09 1986.32,-79.63 1987.81,-72.79"/>
</a>
</g>
</g>
<!-- Node17 -->
<g id="Node000017" class="node">
<title>Node17</title>
<g id="a_Node000017"><a xlink:href="NetworkManager_8hpp.html" target="_top" xlink:title=" ">
<polygon fill="white" stroke="#666666" points="785.5,-129 626.5,-129 626.5,-110 785.5,-110 785.5,-129"/>
<text text-anchor="middle" x="706" y="-117" font-family="Helvetica,sans-Serif" font-size="10.00">include/NetworkManager.hpp</text>
</a>
</g>
</g>
<!-- Node1&#45;&gt;Node17 -->
<g id="edge26_Node000001_Node000017" class="edge">
<title>Node1&#45;&gt;Node17</title>
<g id="a_edge26_Node000001_Node000017"><a xlink:title=" ">
<path fill="none" stroke="#63b8ff" d="M1542.34,-231.65C1431.01,-222.32 1244.62,-205.31 1085,-184 969.26,-168.55 834.63,-144.54 761.04,-130.9"/>
<polygon fill="#63b8ff" stroke="#63b8ff" points="761.54,-127.44 751.07,-129.05 760.26,-134.32 761.54,-127.44"/>
</a>
</g>
</g>
<!-- Node29 -->
<g id="Node000029" class="node">
<title>Node29</title>
<g id="a_Node000029"><a xlink:href="InputManager_8hpp.html" target="_top" xlink:title=" ">
<polygon fill="white" stroke="#666666" points="2353.5,-129 2216.5,-129 2216.5,-110 2353.5,-110 2353.5,-129"/>
<text text-anchor="middle" x="2285" y="-117" font-family="Helvetica,sans-Serif" font-size="10.00">inputs/InputManager.hpp</text>
</a>
</g>
</g>
<!-- Node1&#45;&gt;Node29 -->
<g id="edge41_Node000001_Node000029" class="edge">
<title>Node1&#45;&gt;Node29</title>
<g id="a_edge41_Node000001_Node000029"><a xlink:title=" ">
<path fill="none" stroke="#63b8ff" d="M1739.59,-233.85C1869.94,-225.58 2092.2,-208.45 2170,-184 2205.76,-172.76 2243,-149.78 2265.09,-134.77"/>
<polygon fill="#63b8ff" stroke="#63b8ff" points="2267.08,-137.64 2273.31,-129.07 2263.1,-131.89 2267.08,-137.64"/>
</a>
</g>
</g>
<!-- Node35 -->
<g id="Node000035" class="node">
<title>Node35</title>
<g id="a_Node000035"><a xlink:href="UIManager_8hpp.html" target="_top" xlink:title=" ">
<polygon fill="white" stroke="#666666" points="1835,-184 1733,-184 1733,-165 1835,-165 1835,-184"/>
<text text-anchor="middle" x="1784" y="-172" font-family="Helvetica,sans-Serif" font-size="10.00">ui/UIManager.hpp</text>
</a>
</g>
</g>
<!-- Node1&#45;&gt;Node35 -->
<g id="edge57_Node000001_Node000035" class="edge">
<title>Node1&#45;&gt;Node35</title>
<g id="a_edge57_Node000001_Node000035"><a xlink:title=" ">
<path fill="none" stroke="#63b8ff" d="M1684.68,-219.95C1707.69,-209.65 1735.26,-197.31 1755.5,-188.25"/>
<polygon fill="#63b8ff" stroke="#63b8ff" points="1757.1,-191.37 1764.8,-184.09 1754.25,-184.98 1757.1,-191.37"/>
</a>
</g>
</g>
<!-- Node9&#45;&gt;Node2 -->
<g id="edge9_Node000009_Node000002" class="edge">
<title>Node9&#45;&gt;Node2</title>
<g id="a_edge9_Node000009_Node000002"><a xlink:title=" ">
<path fill="none" stroke="#63b8ff" d="M1323.83,-55.71C1326.59,-55.46 1329.32,-55.22 1332,-55 1615.21,-31.49 1690.79,-53.24 1976.46,-19.02"/>
<polygon fill="#63b8ff" stroke="#63b8ff" points="1977.21,-22.45 1986.71,-17.78 1976.37,-15.5 1977.21,-22.45"/>
</a>
</g>
</g>
<!-- Node9&#45;&gt;Node4 -->
<g id="edge12_Node000009_Node000004" class="edge">
<title>Node9&#45;&gt;Node4</title>
<g id="a_edge12_Node000009_Node000004"><a xlink:title=" ">
<path fill="none" stroke="#63b8ff" d="M1269.14,-54.98C1282.79,-46.77 1303.69,-34.18 1319.78,-24.49"/>
<polygon fill="#63b8ff" stroke="#63b8ff" points="1321.84,-27.33 1328.6,-19.17 1318.23,-21.33 1321.84,-27.33"/>
</a>
</g>
</g>
<!-- Node9&#45;&gt;Node6 -->
<g id="edge13_Node000009_Node000006" class="edge">
<title>Node9&#45;&gt;Node6</title>
<g id="a_edge13_Node000009_Node000006"><a xlink:title=" ">
<path fill="none" stroke="#63b8ff" d="M1323.76,-55.51C1423.6,-43.9 1604.8,-22.84 1678.5,-14.28"/>
<polygon fill="#63b8ff" stroke="#63b8ff" points="1679.05,-17.74 1688.58,-13.11 1678.24,-10.78 1679.05,-17.74"/>
</a>
</g>
</g>
<!-- Node9&#45;&gt;Node7 -->
<g id="edge14_Node000009_Node000007" class="edge">
<title>Node9&#45;&gt;Node7</title>
<g id="a_edge14_Node000009_Node000007"><a xlink:title=" ">
<path fill="none" stroke="#63b8ff" d="M1300.63,-54.98C1350.27,-45.72 1429.66,-30.9 1483.03,-20.94"/>
<polygon fill="#63b8ff" stroke="#63b8ff" points="1483.82,-24.36 1493.01,-19.08 1482.54,-17.48 1483.82,-24.36"/>
</a>
</g>
</g>
<!-- Node10 -->
<g id="Node000010" class="node">
<title>Node10</title>
<g id="a_Node000010"><a xlink:title=" ">
<polygon fill="#e0e0e0" stroke="#999999" points="1295,-19 1191,-19 1191,0 1295,0 1295,-19"/>
<text text-anchor="middle" x="1243" y="-7" font-family="Helvetica,sans-Serif" font-size="10.00">SDL2/SDL_mixer.h</text>
</a>
</g>
</g>
<!-- Node9&#45;&gt;Node10 -->
<g id="edge10_Node000009_Node000010" class="edge">
<title>Node9&#45;&gt;Node10</title>
<g id="a_edge10_Node000009_Node000010"><a xlink:title=" ">
<path fill="none" stroke="#63b8ff" d="M1253.02,-54.75C1251.43,-47.72 1249.14,-37.62 1247.15,-28.84"/>
<polygon fill="#63b8ff" stroke="#63b8ff" points="1250.57,-28.07 1244.94,-19.09 1243.74,-29.62 1250.57,-28.07"/>
</a>
</g>
</g>
<!-- Node11 -->
<g id="Node000011" class="node">
<title>Node11</title>
<g id="a_Node000011"><a xlink:title=" ">
<polygon fill="#e0e0e0" stroke="#999999" points="1173,-19 1109,-19 1109,0 1173,0 1173,-19"/>
<text text-anchor="middle" x="1141" y="-7" font-family="Helvetica,sans-Serif" font-size="10.00">algorithm</text>
</a>
</g>
</g>
<!-- Node9&#45;&gt;Node11 -->
<g id="edge11_Node000009_Node000011" class="edge">
<title>Node9&#45;&gt;Node11</title>
<g id="a_edge11_Node000009_Node000011"><a xlink:title=" ">
<path fill="none" stroke="#63b8ff" d="M1236.68,-54.98C1218.34,-46.46 1189.89,-33.23 1168.77,-23.41"/>
<polygon fill="#63b8ff" stroke="#63b8ff" points="1170.19,-20.21 1159.65,-19.17 1167.24,-26.56 1170.19,-20.21"/>
</a>
</g>
</g>
<!-- Node13&#45;&gt;Node2 -->
<g id="edge17_Node000013_Node000002" class="edge">
<title>Node13&#45;&gt;Node2</title>
<g id="a_edge17_Node000013_Node000002"><a xlink:title=" ">
<path fill="none" stroke="#63b8ff" d="M1723.36,-55C1786.82,-46.98 1883.55,-34.19 1976.79,-19.13"/>
<polygon fill="#63b8ff" stroke="#63b8ff" points="1977.37,-22.58 1986.68,-17.52 1976.25,-15.67 1977.37,-22.58"/>
</a>
</g>
</g>
<!-- Node13&#45;&gt;Node6 -->
<g id="edge18_Node000013_Node000006" class="edge">
<title>Node13&#45;&gt;Node6</title>
<g id="a_edge18_Node000013_Node000006"><a xlink:title=" ">
<path fill="none" stroke="#63b8ff" d="M1663.16,-54.98C1671.5,-47.23 1684.03,-35.58 1694.18,-26.14"/>
<polygon fill="#63b8ff" stroke="#63b8ff" points="1696.74,-28.54 1701.68,-19.17 1691.97,-23.42 1696.74,-28.54"/>
</a>
</g>
</g>
<!-- Node13&#45;&gt;Node7 -->
<g id="edge19_Node000013_Node000007" class="edge">
<title>Node13&#45;&gt;Node7</title>
<g id="a_edge19_Node000013_Node000007"><a xlink:title=" ">
<path fill="none" stroke="#63b8ff" d="M1635.52,-54.98C1617.02,-46.46 1588.32,-33.23 1567.02,-23.41"/>
<polygon fill="#63b8ff" stroke="#63b8ff" points="1568.36,-20.18 1557.81,-19.17 1565.43,-26.53 1568.36,-20.18"/>
</a>
</g>
</g>
<!-- Node14 -->
<g id="Node000014" class="node">
<title>Node14</title>
<g id="a_Node000014"><a xlink:title=" ">
<polygon fill="#e0e0e0" stroke="#999999" points="1090.5,-19 1043.5,-19 1043.5,0 1090.5,0 1090.5,-19"/>
<text text-anchor="middle" x="1067" y="-7" font-family="Helvetica,sans-Serif" font-size="10.00">vector</text>
</a>
</g>
</g>
<!-- Node13&#45;&gt;Node14 -->
<g id="edge20_Node000013_Node000014" class="edge">
<title>Node13&#45;&gt;Node14</title>
<g id="a_edge20_Node000013_Node000014"><a xlink:title=" ">
<path fill="none" stroke="#63b8ff" d="M1566.88,-58.34C1438.51,-50.43 1203.57,-34.73 1100.8,-18.77"/>
<polygon fill="#63b8ff" stroke="#63b8ff" points="1101.12,-15.27 1090.69,-17.12 1100,-22.18 1101.12,-15.27"/>
</a>
</g>
</g>
<!-- Node15&#45;&gt;Node2 -->
<g id="edge22_Node000015_Node000002" class="edge">
<title>Node15&#45;&gt;Node2</title>
<g id="a_edge22_Node000015_Node000002"><a xlink:title=" ">
<path fill="none" stroke="#63b8ff" d="M1932.35,-54.98C1949.57,-46.54 1976.2,-33.47 1996.15,-23.68"/>
<polygon fill="#63b8ff" stroke="#63b8ff" points="1997.9,-26.72 2005.33,-19.17 1994.81,-20.43 1997.9,-26.72"/>
</a>
</g>
</g>
<!-- Node15&#45;&gt;Node6 -->
<g id="edge24_Node000015_Node000006" class="edge">
<title>Node15&#45;&gt;Node6</title>
<g id="a_edge24_Node000015_Node000006"><a xlink:title=" ">
<path fill="none" stroke="#63b8ff" d="M1882.22,-54.98C1843.93,-45.03 1780.98,-28.68 1743.01,-18.82"/>
<polygon fill="#63b8ff" stroke="#63b8ff" points="1743.57,-15.34 1733.01,-16.22 1741.81,-22.12 1743.57,-15.34"/>
</a>
</g>
</g>
<!-- Node15&#45;&gt;Node7 -->
<g id="edge25_Node000015_Node000007" class="edge">
<title>Node15&#45;&gt;Node7</title>
<g id="a_edge25_Node000015_Node000007"><a xlink:title=" ">
<path fill="none" stroke="#63b8ff" d="M1854.59,-54.98C1783.16,-44.92 1665.21,-28.29 1595.52,-18.47"/>
<polygon fill="#63b8ff" stroke="#63b8ff" points="1595.99,-15 1585.6,-17.07 1595.02,-21.93 1595.99,-15"/>
</a>
</g>
</g>
<!-- Node16 -->
<g id="Node000016" class="node">
<title>Node16</title>
<g id="a_Node000016"><a xlink:title=" ">
<polygon fill="#e0e0e0" stroke="#999999" points="1969,-19 1861,-19 1861,0 1969,0 1969,-19"/>
<text text-anchor="middle" x="1915" y="-7" font-family="Helvetica,sans-Serif" font-size="10.00">SDL2/SDL_image.h</text>
</a>
</g>
</g>
<!-- Node15&#45;&gt;Node16 -->
<g id="edge23_Node000015_Node000016" class="edge">
<title>Node15&#45;&gt;Node16</title>
<g id="a_edge23_Node000015_Node000016"><a xlink:title=" ">
<path fill="none" stroke="#63b8ff" d="M1915,-54.75C1915,-47.8 1915,-37.85 1915,-29.13"/>
<polygon fill="#63b8ff" stroke="#63b8ff" points="1918.5,-29.09 1915,-19.09 1911.5,-29.09 1918.5,-29.09"/>
</a>
</g>
</g>
<!-- Node17&#45;&gt;Node6 -->
<g id="edge30_Node000017_Node000006" class="edge">
<title>Node17&#45;&gt;Node6</title>
<g id="a_edge30_Node000017_Node000006"><a xlink:title=" ">
<path fill="none" stroke="#63b8ff" d="M785.54,-116.09C955.59,-110.59 1349.78,-95.87 1482,-74 1501.54,-70.77 1620.55,-36.68 1678.86,-19.82"/>
<polygon fill="#63b8ff" stroke="#63b8ff" points="1680.04,-23.13 1688.67,-16.98 1678.09,-16.4 1680.04,-23.13"/>
</a>
</g>
</g>
<!-- Node17&#45;&gt;Node14 -->
<g id="edge32_Node000017_Node000014" class="edge">
<title>Node17&#45;&gt;Node14</title>
<g id="a_edge32_Node000017_Node000014"><a xlink:title=" ">
<path fill="none" stroke="#63b8ff" d="M705.83,-109.96C706.05,-96.1 708.7,-68.87 725,-55 770.96,-15.92 956.49,-10.79 1033.37,-10.38"/>
<polygon fill="#63b8ff" stroke="#63b8ff" points="1033.48,-13.88 1043.47,-10.35 1033.46,-6.88 1033.48,-13.88"/>
</a>
</g>
</g>
<!-- Node18 -->
<g id="Node000018" class="node">
<title>Node18</title>
<g id="a_Node000018"><a xlink:title=" ">
<polygon fill="#e0e0e0" stroke="#999999" points="612,-74 562,-74 562,-55 612,-55 612,-74"/>
<text text-anchor="middle" x="587" y="-62" font-family="Helvetica,sans-Serif" font-size="10.00">cstring</text>
</a>
</g>
</g>
<!-- Node17&#45;&gt;Node18 -->
<g id="edge27_Node000017_Node000018" class="edge">
<title>Node17&#45;&gt;Node18</title>
<g id="a_edge27_Node000017_Node000018"><a xlink:title=" ">
<path fill="none" stroke="#63b8ff" d="M686.88,-109.98C667.65,-101.42 637.77,-88.11 615.69,-78.28"/>
<polygon fill="#63b8ff" stroke="#63b8ff" points="617.03,-75.04 606.47,-74.17 614.18,-81.44 617.03,-75.04"/>
</a>
</g>
</g>
<!-- Node19 -->
<g id="Node000019" class="node">
<title>Node19</title>
<g id="a_Node000019"><a xlink:title=" ">
<polygon fill="#e0e0e0" stroke="#999999" points="678,-74 630,-74 630,-55 678,-55 678,-74"/>
<text text-anchor="middle" x="654" y="-62" font-family="Helvetica,sans-Serif" font-size="10.00">mutex</text>
</a>
</g>
</g>
<!-- Node17&#45;&gt;Node19 -->
<g id="edge28_Node000017_Node000019" class="edge">
<title>Node17&#45;&gt;Node19</title>
<g id="a_edge28_Node000017_Node000019"><a xlink:title=" ">
<path fill="none" stroke="#63b8ff" d="M697.41,-109.75C689.84,-102.03 678.62,-90.6 669.49,-81.28"/>
<polygon fill="#63b8ff" stroke="#63b8ff" points="671.93,-78.78 662.43,-74.09 666.93,-83.68 671.93,-78.78"/>
</a>
</g>
</g>
<!-- Node20 -->
<g id="Node000020" class="node">
<title>Node20</title>
<g id="a_Node000020"><a xlink:title=" ">
<polygon fill="#e0e0e0" stroke="#999999" points="781.5,-74 734.5,-74 734.5,-55 781.5,-55 781.5,-74"/>
<text text-anchor="middle" x="758" y="-62" font-family="Helvetica,sans-Serif" font-size="10.00">queue</text>
</a>
</g>
</g>
<!-- Node17&#45;&gt;Node20 -->
<g id="edge29_Node000017_Node000020" class="edge">
<title>Node17&#45;&gt;Node20</title>
<g id="a_edge29_Node000017_Node000020"><a xlink:title=" ">
<path fill="none" stroke="#63b8ff" d="M714.59,-109.75C722.16,-102.03 733.38,-90.6 742.51,-81.28"/>
<polygon fill="#63b8ff" stroke="#63b8ff" points="745.07,-83.68 749.57,-74.09 740.07,-78.78 745.07,-83.68"/>
</a>
</g>
</g>
<!-- Node21 -->
<g id="Node000021" class="node">
<title>Node21</title>
<g id="a_Node000021"><a xlink:title=" ">
<polygon fill="#e0e0e0" stroke="#999999" points="848,-74 800,-74 800,-55 848,-55 848,-74"/>
<text text-anchor="middle" x="824" y="-62" font-family="Helvetica,sans-Serif" font-size="10.00">thread</text>
</a>
</g>
</g>
<!-- Node17&#45;&gt;Node21 -->
<g id="edge31_Node000017_Node000021" class="edge">
<title>Node17&#45;&gt;Node21</title>
<g id="a_edge31_Node000017_Node000021"><a xlink:title=" ">
<path fill="none" stroke="#63b8ff" d="M724.96,-109.98C744.03,-101.42 773.66,-88.11 795.55,-78.28"/>
<polygon fill="#63b8ff" stroke="#63b8ff" points="797.01,-81.46 804.7,-74.17 794.14,-75.07 797.01,-81.46"/>
</a>
</g>
</g>
<!-- Node22 -->
<g id="Node000022" class="node">
<title>Node22</title>
<g id="a_Node000022"><a xlink:title=" ">
<polygon fill="#e0e0e0" stroke="#999999" points="924,-74 866,-74 866,-55 924,-55 924,-74"/>
<text text-anchor="middle" x="895" y="-62" font-family="Helvetica,sans-Serif" font-size="10.00">asio.hpp</text>
</a>
</g>
</g>
<!-- Node17&#45;&gt;Node22 -->
<g id="edge33_Node000017_Node000022" class="edge">
<title>Node17&#45;&gt;Node22</title>
<g id="a_edge33_Node000017_Node000022"><a xlink:title=" ">
<path fill="none" stroke="#63b8ff" d="M736.37,-109.98C768.85,-100.88 820.47,-86.4 855.95,-76.45"/>
<polygon fill="#63b8ff" stroke="#63b8ff" points="857.27,-79.72 865.95,-73.65 855.38,-72.98 857.27,-79.72"/>
</a>
</g>
</g>
<!-- Node23 -->
<g id="Node000023" class="node">
<title>Node23</title>
<g id="a_Node000023"><a xlink:href="CircularBuffer_8hpp.html" target="_top" xlink:title=" ">
<polygon fill="white" stroke="#666666" points="142,-74 0,-74 0,-55 142,-55 142,-74"/>
<text text-anchor="middle" x="71" y="-62" font-family="Helvetica,sans-Serif" font-size="10.00">include/CircularBuffer.hpp</text>
</a>
</g>
</g>
<!-- Node17&#45;&gt;Node23 -->
<g id="edge34_Node000017_Node000023" class="edge">
<title>Node17&#45;&gt;Node23</title>
<g id="a_edge34_Node000017_Node000023"><a xlink:title=" ">
<path fill="none" stroke="#63b8ff" d="M626.44,-112.77C520.68,-105.01 327.68,-90.34 152.28,-74.1"/>
<polygon fill="#63b8ff" stroke="#63b8ff" points="152.37,-70.59 142.09,-73.15 151.72,-77.56 152.37,-70.59"/>
</a>
</g>
</g>
<!-- Node25 -->
<g id="Node000025" class="node">
<title>Node25</title>
<g id="a_Node000025"><a xlink:title=" ">
<polygon fill="#e0e0e0" stroke="#999999" points="1053.5,-74 942.5,-74 942.5,-55 1053.5,-55 1053.5,-74"/>
<text text-anchor="middle" x="998" y="-62" font-family="Helvetica,sans-Serif" font-size="10.00">network/Action.hpp</text>
</a>
</g>
</g>
<!-- Node17&#45;&gt;Node25 -->
<g id="edge37_Node000017_Node000025" class="edge">
<title>Node17&#45;&gt;Node25</title>
<g id="a_edge37_Node000017_Node000025"><a xlink:title=" ">
<path fill="none" stroke="#63b8ff" d="M752.91,-109.98C804.06,-100.7 885.92,-85.84 940.8,-75.88"/>
<polygon fill="#63b8ff" stroke="#63b8ff" points="941.5,-79.31 950.72,-74.08 940.25,-72.42 941.5,-79.31"/>
</a>
</g>
</g>
<!-- Node26 -->
<g id="Node000026" class="node">
<title>Node26</title>
<g id="a_Node000026"><a xlink:title=" ">
<polygon fill="#e0e0e0" stroke="#999999" points="280,-74 160,-74 160,-55 280,-55 280,-74"/>
<text text-anchor="middle" x="220" y="-62" font-family="Helvetica,sans-Serif" font-size="10.00">network/Decoder.hpp</text>
</a>
</g>
</g>
<!-- Node17&#45;&gt;Node26 -->
<g id="edge38_Node000017_Node000026" class="edge">
<title>Node17&#45;&gt;Node26</title>
<g id="a_edge38_Node000017_Node000026"><a xlink:title=" ">
<path fill="none" stroke="#63b8ff" d="M626.4,-110.39C544.67,-101.98 413.5,-88.24 290.2,-74.12"/>
<polygon fill="#63b8ff" stroke="#63b8ff" points="290.54,-70.64 280.2,-72.97 289.74,-77.59 290.54,-70.64"/>
</a>
</g>
</g>
<!-- Node27 -->
<g id="Node000027" class="node">
<title>Node27</title>
<g id="a_Node000027"><a xlink:title=" ">
<polygon fill="#e0e0e0" stroke="#999999" points="417.5,-74 298.5,-74 298.5,-55 417.5,-55 417.5,-74"/>
<text text-anchor="middle" x="358" y="-62" font-family="Helvetica,sans-Serif" font-size="10.00">network/Encoder.hpp</text>
</a>
</g>
</g>
<!-- Node17&#45;&gt;Node27 -->
<g id="edge39_Node000017_Node000027" class="edge">
<title>Node17&#45;&gt;Node27</title>
<g id="a_edge39_Node000017_Node000027"><a xlink:title=" ">
<path fill="none" stroke="#63b8ff" d="M650.09,-109.98C588.54,-100.61 489.66,-85.55 424.26,-75.59"/>
<polygon fill="#63b8ff" stroke="#63b8ff" points="424.47,-72.08 414.06,-74.04 423.42,-79 424.47,-72.08"/>
</a>
</g>
</g>
<!-- Node28 -->
<g id="Node000028" class="node">
<title>Node28</title>
<g id="a_Node000028"><a xlink:title=" ">
<polygon fill="#e0e0e0" stroke="#999999" points="544,-74 436,-74 436,-55 544,-55 544,-74"/>
<text text-anchor="middle" x="490" y="-62" font-family="Helvetica,sans-Serif" font-size="10.00">network/Event.hpp</text>
</a>
</g>
</g>
<!-- Node17&#45;&gt;Node28 -->
<g id="edge40_Node000017_Node000028" class="edge">
<title>Node17&#45;&gt;Node28</title>
<g id="a_edge40_Node000017_Node000028"><a xlink:title=" ">
<path fill="none" stroke="#63b8ff" d="M671.3,-109.98C634.25,-100.89 575.41,-86.46 534.87,-76.51"/>
<polygon fill="#63b8ff" stroke="#63b8ff" points="535.52,-73.07 524.98,-74.08 533.85,-79.86 535.52,-73.07"/>
</a>
</g>
</g>
<!-- Node23&#45;&gt;Node14 -->
<g id="edge36_Node000023_Node000014" class="edge">
<title>Node23&#45;&gt;Node14</title>
<g id="a_edge36_Node000023_Node000014"><a xlink:title=" ">
<path fill="none" stroke="#63b8ff" d="M142.08,-55.73C145.09,-55.47 148.08,-55.23 151,-55 495.01,-28.39 913,-14.94 1033.2,-11.44"/>
<polygon fill="#63b8ff" stroke="#63b8ff" points="1033.37,-14.94 1043.26,-11.15 1033.16,-7.94 1033.37,-14.94"/>
</a>
</g>
</g>
<!-- Node24 -->
<g id="Node000024" class="node">
<title>Node24</title>
<g id="a_Node000024"><a xlink:title=" ">
<polygon fill="#e0e0e0" stroke="#999999" points="99,-19 43,-19 43,0 99,0 99,-19"/>
<text text-anchor="middle" x="71" y="-7" font-family="Helvetica,sans-Serif" font-size="10.00">optional</text>
</a>
</g>
</g>
<!-- Node23&#45;&gt;Node24 -->
<g id="edge35_Node000023_Node000024" class="edge">
<title>Node23&#45;&gt;Node24</title>
<g id="a_edge35_Node000023_Node000024"><a xlink:title=" ">
<path fill="none" stroke="#63b8ff" d="M71,-54.75C71,-47.8 71,-37.85 71,-29.13"/>
<polygon fill="#63b8ff" stroke="#63b8ff" points="74.5,-29.09 71,-19.09 67.5,-29.09 74.5,-29.09"/>
</a>
</g>
</g>
<!-- Node29&#45;&gt;Node2 -->
<g id="edge42_Node000029_Node000002" class="edge">
<title>Node29&#45;&gt;Node2</title>
<g id="a_edge42_Node000029_Node000002"><a xlink:title=" ">
<path fill="none" stroke="#63b8ff" d="M2353.66,-115.82C2419.25,-111.65 2511.38,-101.02 2534,-74 2539.42,-67.52 2539.71,-61.22 2534,-55 2502.93,-21.11 2189.44,-12.94 2069.41,-11.05"/>
<polygon fill="#63b8ff" stroke="#63b8ff" points="2069.14,-7.54 2059.09,-10.89 2069.03,-14.54 2069.14,-7.54"/>
</a>
</g>
</g>
<!-- Node29&#45;&gt;Node12 -->
<g id="edge44_Node000029_Node000012" class="edge">
<title>Node29&#45;&gt;Node12</title>
<g id="a_edge44_Node000029_Node000012"><a xlink:title=" ">
<path fill="none" stroke="#63b8ff" d="M2267.33,-109.98C2249.71,-101.5 2222.42,-88.35 2202.07,-78.54"/>
<polygon fill="#63b8ff" stroke="#63b8ff" points="2203.52,-75.36 2192.99,-74.17 2200.48,-81.66 2203.52,-75.36"/>
</a>
</g>
</g>
<!-- Node30 -->
<g id="Node000030" class="node">
<title>Node30</title>
<g id="a_Node000030"><a xlink:title=" ">
<polygon fill="#e0e0e0" stroke="#999999" points="2588.5,-19 2437.5,-19 2437.5,0 2588.5,0 2588.5,-19"/>
<text text-anchor="middle" x="2513" y="-7" font-family="Helvetica,sans-Serif" font-size="10.00">components/Physics2D.hpp</text>
</a>
</g>
</g>
<!-- Node29&#45;&gt;Node30 -->
<g id="edge43_Node000029_Node000030" class="edge">
<title>Node29&#45;&gt;Node30</title>
<g id="a_edge43_Node000029_Node000030"><a xlink:title=" ">
<path fill="none" stroke="#63b8ff" d="M2353.8,-117.51C2428.3,-114.81 2540.11,-105.46 2567,-74 2581.58,-56.94 2558.69,-37.25 2538.37,-24.38"/>
<polygon fill="#63b8ff" stroke="#63b8ff" points="2540.02,-21.29 2529.65,-19.14 2536.42,-27.29 2540.02,-21.29"/>
</a>
</g>
</g>
<!-- Node31 -->
<g id="Node000031" class="node">
<title>Node31</title>
<g id="a_Node000031"><a xlink:title=" ">
<polygon fill="#e0e0e0" stroke="#999999" points="2329,-74 2241,-74 2241,-55 2329,-55 2329,-74"/>
<text text-anchor="middle" x="2285" y="-62" font-family="Helvetica,sans-Serif" font-size="10.00">ecs/Zipper.hpp</text>
</a>
</g>
</g>
<!-- Node29&#45;&gt;Node31 -->
<g id="edge45_Node000029_Node000031" class="edge">
<title>Node29&#45;&gt;Node31</title>
<g id="a_edge45_Node000029_Node000031"><a xlink:title=" ">
<path fill="none" stroke="#63b8ff" d="M2285,-109.75C2285,-102.8 2285,-92.85 2285,-84.13"/>
<polygon fill="#63b8ff" stroke="#63b8ff" points="2288.5,-84.09 2285,-74.09 2281.5,-84.09 2288.5,-84.09"/>
</a>
</g>
</g>
<!-- Node32 -->
<g id="Node000032" class="node">
<title>Node32</title>
<g id="a_Node000032"><a xlink:href="RenderComponents_8hpp.html" target="_top" xlink:title=" ">
<polygon fill="white" stroke="#666666" points="2525,-74 2347,-74 2347,-55 2525,-55 2525,-74"/>
<text text-anchor="middle" x="2436" y="-62" font-family="Helvetica,sans-Serif" font-size="10.00">graphics/RenderComponents.hpp</text>
</a>
</g>
</g>
<!-- Node29&#45;&gt;Node32 -->
<g id="edge46_Node000029_Node000032" class="edge">
<title>Node29&#45;&gt;Node32</title>
<g id="a_edge46_Node000029_Node000032"><a xlink:title=" ">
<path fill="none" stroke="#63b8ff" d="M2309.26,-109.98C2334.32,-101.19 2373.63,-87.39 2401.83,-77.49"/>
<polygon fill="#63b8ff" stroke="#63b8ff" points="2403.02,-80.78 2411.3,-74.17 2400.7,-74.18 2403.02,-80.78"/>
</a>
</g>
</g>
<!-- Node33 -->
<g id="Node000033" class="node">
<title>Node33</title>
<g id="a_Node000033"><a xlink:href="KeyBindings_8hpp.html" target="_top" xlink:title=" ">
<polygon fill="white" stroke="#666666" points="1472.5,-74 1341.5,-74 1341.5,-55 1472.5,-55 1472.5,-74"/>
<text text-anchor="middle" x="1407" y="-62" font-family="Helvetica,sans-Serif" font-size="10.00">inputs/KeyBindings.hpp</text>
</a>
</g>
</g>
<!-- Node29&#45;&gt;Node33 -->
<g id="edge50_Node000029_Node000033" class="edge">
<title>Node29&#45;&gt;Node33</title>
<g id="a_edge50_Node000029_Node000033"><a xlink:title=" ">
<path fill="none" stroke="#63b8ff" d="M2216.47,-114.36C2054.91,-104.61 1651.13,-80.24 1482.68,-70.07"/>
<polygon fill="#63b8ff" stroke="#63b8ff" points="1482.84,-66.57 1472.65,-69.46 1482.42,-73.56 1482.84,-66.57"/>
</a>
</g>
</g>
<!-- Node32&#45;&gt;Node2 -->
<g id="edge47_Node000032_Node000002" class="edge">
<title>Node32&#45;&gt;Node2</title>
<g id="a_edge47_Node000032_Node000002"><a xlink:title=" ">
<path fill="none" stroke="#63b8ff" d="M2369.64,-54.98C2285.54,-44.19 2142.7,-25.86 2069.41,-16.46"/>
<polygon fill="#63b8ff" stroke="#63b8ff" points="2069.48,-12.94 2059.12,-15.13 2068.59,-19.88 2069.48,-12.94"/>
</a>
</g>
</g>
<!-- Node32&#45;&gt;Node6 -->
<g id="edge48_Node000032_Node000006" class="edge">
<title>Node32&#45;&gt;Node6</title>
<g id="a_edge48_Node000032_Node000006"><a xlink:title=" ">
<path fill="none" stroke="#63b8ff" d="M2346.81,-55.7C2343.84,-55.46 2340.89,-55.23 2338,-55 2110.39,-37.05 1836.04,-18.72 1743.36,-12.62"/>
<polygon fill="#63b8ff" stroke="#63b8ff" points="1743.43,-9.11 1733.22,-11.95 1742.97,-16.1 1743.43,-9.11"/>
</a>
</g>
</g>
<!-- Node32&#45;&gt;Node30 -->
<g id="edge49_Node000032_Node000030" class="edge">
<title>Node32&#45;&gt;Node30</title>
<g id="a_edge49_Node000032_Node000030"><a xlink:title=" ">
<path fill="none" stroke="#63b8ff" d="M2448.37,-54.98C2460.09,-46.92 2477.92,-34.65 2491.89,-25.03"/>
<polygon fill="#63b8ff" stroke="#63b8ff" points="2494.15,-27.72 2500.4,-19.17 2490.18,-21.96 2494.15,-27.72"/>
</a>
</g>
</g>
<!-- Node33&#45;&gt;Node2 -->
<g id="edge51_Node000033_Node000002" class="edge">
<title>Node33&#45;&gt;Node2</title>
<g id="a_edge51_Node000033_Node000002"><a xlink:title=" ">
<path fill="none" stroke="#63b8ff" d="M1472.94,-59.27C1597.72,-51.12 1865.18,-32.91 1976.72,-19"/>
<polygon fill="#63b8ff" stroke="#63b8ff" points="1977.24,-22.46 1986.71,-17.71 1976.34,-15.52 1977.24,-22.46"/>
</a>
</g>
</g>
<!-- Node33&#45;&gt;Node4 -->
<g id="edge53_Node000033_Node000004" class="edge">
<title>Node33&#45;&gt;Node4</title>
<g id="a_edge53_Node000033_Node000004"><a xlink:title=" ">
<path fill="none" stroke="#63b8ff" d="M1396.72,-54.98C1387.16,-47.07 1372.72,-35.11 1361.22,-25.58"/>
<polygon fill="#63b8ff" stroke="#63b8ff" points="1363.4,-22.85 1353.47,-19.17 1358.94,-28.24 1363.4,-22.85"/>
</a>
</g>
</g>
<!-- Node33&#45;&gt;Node6 -->
<g id="edge54_Node000033_Node000006" class="edge">
<title>Node33&#45;&gt;Node6</title>
<g id="a_edge54_Node000033_Node000006"><a xlink:title=" ">
<path fill="none" stroke="#63b8ff" d="M1455.84,-54.98C1518.63,-44.04 1625.86,-25.34 1679.09,-16.06"/>
<polygon fill="#63b8ff" stroke="#63b8ff" points="1679.74,-19.5 1688.99,-14.34 1678.53,-12.61 1679.74,-19.5"/>
</a>
</g>
</g>
<!-- Node33&#45;&gt;Node7 -->
<g id="edge55_Node000033_Node000007" class="edge">
<title>Node33&#45;&gt;Node7</title>
<g id="a_edge55_Node000033_Node000007"><a xlink:title=" ">
<path fill="none" stroke="#63b8ff" d="M1428.21,-54.98C1449.73,-46.34 1483.28,-32.87 1507.83,-23.02"/>
<polygon fill="#63b8ff" stroke="#63b8ff" points="1509.43,-26.14 1517.41,-19.17 1506.82,-19.65 1509.43,-26.14"/>
</a>
</g>
</g>
<!-- Node33&#45;&gt;Node14 -->
<g id="edge56_Node000033_Node000014" class="edge">
<title>Node33&#45;&gt;Node14</title>
<g id="a_edge56_Node000033_Node000014"><a xlink:title=" ">
<path fill="none" stroke="#63b8ff" d="M1341.37,-56.07C1281.22,-48.79 1189.55,-36.51 1100.7,-18.94"/>
<polygon fill="#63b8ff" stroke="#63b8ff" points="1101.21,-15.47 1090.72,-16.94 1099.84,-22.33 1101.21,-15.47"/>
</a>
</g>
</g>
<!-- Node34 -->
<g id="Node000034" class="node">
<title>Node34</title>
<g id="a_Node000034"><a xlink:title=" ">
<polygon fill="#e0e0e0" stroke="#999999" points="1446.5,-19 1391.5,-19 1391.5,0 1446.5,0 1446.5,-19"/>
<text text-anchor="middle" x="1419" y="-7" font-family="Helvetica,sans-Serif" font-size="10.00">fstream</text>
</a>
</g>
</g>
<!-- Node33&#45;&gt;Node34 -->
<g id="edge52_Node000033_Node000034" class="edge">
<title>Node33&#45;&gt;Node34</title>
<g id="a_edge52_Node000033_Node000034"><a xlink:title=" ">
<path fill="none" stroke="#63b8ff" d="M1408.98,-54.75C1410.57,-47.72 1412.86,-37.62 1414.85,-28.84"/>
<polygon fill="#63b8ff" stroke="#63b8ff" points="1418.26,-29.62 1417.06,-19.09 1411.43,-28.07 1418.26,-29.62"/>
</a>
</g>
</g>
<!-- Node35&#45;&gt;Node2 -->
<g id="edge58_Node000035_Node000002" class="edge">
<title>Node35&#45;&gt;Node2</title>
<g id="a_edge58_Node000035_Node000002"><a xlink:title=" ">
<path fill="none" stroke="#63b8ff" d="M1828.61,-164.97C1861.02,-157.81 1905.44,-146.01 1942,-129 1961.73,-119.82 2012.82,-93.23 2023,-74 2030.26,-60.3 2029.54,-42.49 2027.42,-29.22"/>
<polygon fill="#63b8ff" stroke="#63b8ff" points="2030.84,-28.46 2025.46,-19.33 2023.97,-29.82 2030.84,-28.46"/>
</a>
</g>
</g>
<!-- Node35&#45;&gt;Node5 -->
<g id="edge60_Node000035_Node000005" class="edge">
<title>Node35&#45;&gt;Node5</title>
<g id="a_edge60_Node000035_Node000005"><a xlink:title=" ">
<path fill="none" stroke="#63b8ff" d="M1765.68,-164.98C1747.34,-156.46 1718.89,-143.23 1697.77,-133.41"/>
<polygon fill="#63b8ff" stroke="#63b8ff" points="1699.19,-130.21 1688.65,-129.17 1696.24,-136.56 1699.19,-130.21"/>
</a>
</g>
</g>
<!-- Node35&#45;&gt;Node8 -->
<g id="edge61_Node000035_Node000008" class="edge">
<title>Node35&#45;&gt;Node8</title>
<g id="a_edge61_Node000035_Node000008"><a xlink:title=" ">
<path fill="none" stroke="#63b8ff" d="M1820.63,-164.98C1864.5,-154.79 1937.3,-137.86 1979.33,-128.09"/>
<polygon fill="#63b8ff" stroke="#63b8ff" points="1980.37,-131.45 1989.31,-125.77 1978.78,-124.63 1980.37,-131.45"/>
</a>
</g>
</g>
<!-- Node35&#45;&gt;Node11 -->
<g id="edge59_Node000035_Node000011" class="edge">
<title>Node35&#45;&gt;Node11</title>
<g id="a_edge59_Node000035_Node000011"><a xlink:title=" ">
<path fill="none" stroke="#63b8ff" d="M1780.93,-164.61C1775.45,-150.25 1762.5,-122.3 1741,-110 1631.99,-47.64 1283.45,-140.65 1177,-74 1160.92,-63.93 1151.34,-43.93 1146.15,-29.05"/>
<polygon fill="#63b8ff" stroke="#63b8ff" points="1149.44,-27.84 1143.12,-19.34 1142.76,-29.93 1149.44,-27.84"/>
</a>
</g>
</g>
<!-- Node35&#45;&gt;Node14 -->
<g id="edge62_Node000035_Node000014" class="edge">
<title>Node35&#45;&gt;Node14</title>
<g id="a_edge62_Node000035_Node000014"><a xlink:title=" ">
<path fill="none" stroke="#63b8ff" d="M1777.11,-164.98C1764.93,-150.62 1738.01,-122.01 1708,-110 1479.32,-18.52 1386.78,-157.31 1155,-74 1126.62,-63.8 1099.32,-41.52 1082.85,-26.26"/>
<polygon fill="#63b8ff" stroke="#63b8ff" points="1084.92,-23.4 1075.27,-19.03 1080.08,-28.46 1084.92,-23.4"/>
</a>
</g>
</g>
<!-- Node35&#45;&gt;Node15 -->
<g id="edge63_Node000035_Node000015" class="edge">
<title>Node35&#45;&gt;Node15</title>
<g id="a_edge63_Node000035_Node000015"><a xlink:title=" ">
<path fill="none" stroke="#63b8ff" d="M1787.51,-164.61C1793.19,-151.23 1805.54,-125.79 1823,-110 1838.77,-95.74 1859.93,-85.08 1877.98,-77.78"/>
<polygon fill="#63b8ff" stroke="#63b8ff" points="1879.56,-80.92 1887.63,-74.06 1877.04,-74.38 1879.56,-80.92"/>
</a>
</g>
</g>
<!-- Node36 -->
<g id="Node000036" class="node">
<title>Node36</title>
<g id="a_Node000036"><a xlink:href="UIElement_8hpp.html" target="_top" xlink:title=" ">
<polygon fill="white" stroke="#666666" points="1932.5,-129 1831.5,-129 1831.5,-110 1932.5,-110 1932.5,-129"/>
<text text-anchor="middle" x="1882" y="-117" font-family="Helvetica,sans-Serif" font-size="10.00">ui/UIElement.hpp</text>
</a>
</g>
</g>
<!-- Node35&#45;&gt;Node36 -->
<g id="edge64_Node000035_Node000036" class="edge">
<title>Node35&#45;&gt;Node36</title>
<g id="a_edge64_Node000035_Node000036"><a xlink:title=" ">
<path fill="none" stroke="#63b8ff" d="M1799.75,-164.98C1815.23,-156.61 1839.09,-143.7 1857.14,-133.95"/>
<polygon fill="#63b8ff" stroke="#63b8ff" points="1858.84,-137.01 1865.97,-129.17 1855.51,-130.85 1858.84,-137.01"/>
</a>
</g>
</g>
<!-- Node36&#45;&gt;Node2 -->
<g id="edge65_Node000036_Node000002" class="edge">
<title>Node36&#45;&gt;Node2</title>
<g id="a_edge65_Node000036_Node000002"><a xlink:title=" ">
<path fill="none" stroke="#63b8ff" d="M1932.69,-110.91C1957.24,-104.79 1985.36,-93.77 2004,-74 2015.46,-61.84 2020.03,-43.05 2021.84,-29.06"/>
<polygon fill="#63b8ff" stroke="#63b8ff" points="2025.33,-29.37 2022.78,-19.09 2018.36,-28.71 2025.33,-29.37"/>
</a>
</g>
</g>
<!-- Node36&#45;&gt;Node6 -->
<g id="edge66_Node000036_Node000006" class="edge">
<title>Node36&#45;&gt;Node6</title>
<g id="a_edge66_Node000036_Node000006"><a xlink:title=" ">
<path fill="none" stroke="#63b8ff" d="M1868.59,-109.8C1849.6,-97.5 1813.76,-74.37 1783,-55 1766.58,-44.66 1747.94,-33.14 1733.74,-24.42"/>
<polygon fill="#63b8ff" stroke="#63b8ff" points="1735.47,-21.38 1725.12,-19.13 1731.81,-27.34 1735.47,-21.38"/>
</a>
</g>
</g>
<!-- Node36&#45;&gt;Node15 -->
<g id="edge67_Node000036_Node000015" class="edge">
<title>Node36&#45;&gt;Node15</title>
<g id="a_edge67_Node000036_Node000015"><a xlink:title=" ">
<path fill="none" stroke="#63b8ff" d="M1887.45,-109.75C1892.01,-102.42 1898.67,-91.73 1904.29,-82.7"/>
<polygon fill="#63b8ff" stroke="#63b8ff" points="1907.34,-84.43 1909.65,-74.09 1901.4,-80.73 1907.34,-84.43"/>
</a>
</g>
</g>
</g>
</svg>
