<?xml version="1.0" encoding="UTF-8" standalone="no"?>
<!DOCTYPE svg PUBLIC "-//W3C//DTD SVG 1.1//EN"
 "http://www.w3.org/Graphics/SVG/1.1/DTD/svg11.dtd">
<!-- Generated by graphviz version 2.43.0 (0)
 -->
<!-- Title: /home/runner/work/R&#45;Type/R&#45;Type/Client/src/scenes/SecondGame.hpp Pages: 1 -->
<svg width="756pt" height="269pt"
 viewBox="0.00 0.00 756.00 269.00" xmlns="http://www.w3.org/2000/svg" xmlns:xlink="http://www.w3.org/1999/xlink">
<g id="graph0" class="graph" transform="scale(1 1) rotate(0) translate(4 265)">
<title>/home/runner/work/R&#45;Type/R&#45;Type/Client/src/scenes/SecondGame.hpp</title>
<!-- Node1 -->
<g id="Node000001" class="node">
<title>Node1</title>
<g id="a_Node000001"><a xlink:title=" ">
<polygon fill="#999999" stroke="#666666" points="400.5,-261 241.5,-261 241.5,-220 400.5,-220 400.5,-261"/>
<text text-anchor="start" x="249.5" y="-249" font-family="Helvetica,sans-Serif" font-size="10.00">/home/runner/work/R</text>
<text text-anchor="start" x="249.5" y="-238" font-family="Helvetica,sans-Serif" font-size="10.00">&#45;Type/R&#45;Type/Client</text>
<text text-anchor="middle" x="321" y="-227" font-family="Helvetica,sans-Serif" font-size="10.00">/src/scenes/SecondGame.hpp</text>
</a>
</g>
</g>
<!-- Node2 -->
<g id="Node000002" class="node">
<title>Node2</title>
<g id="a_Node000002"><a xlink:title=" ">
<polygon fill="#e0e0e0" stroke="#999999" points="72,-184 0,-184 0,-165 72,-165 72,-184"/>
<text text-anchor="middle" x="36" y="-172" font-family="Helvetica,sans-Serif" font-size="10.00">SDL2/SDL.h</text>
</a>
</g>
</g>
<!-- Node1&#45;&gt;Node2 -->
<g id="edge1_Node000001_Node000002" class="edge">
<title>Node1&#45;&gt;Node2</title>
<g id="a_edge1_Node000001_Node000002"><a xlink:title=" ">
<path fill="none" stroke="#63b8ff" d="M241.23,-221.59C189.86,-210.05 124.89,-195.46 81.97,-185.82"/>
<polygon fill="#63b8ff" stroke="#63b8ff" points="82.61,-182.38 72.09,-183.6 81.08,-189.21 82.61,-182.38"/>
</a>
</g>
</g>
<!-- Node3 -->
<g id="Node000003" class="node">
<title>Node3</title>
<g id="a_Node000003"><a xlink:title=" ">
<polygon fill="#e0e0e0" stroke="#999999" points="150,-184 90,-184 90,-165 150,-165 150,-184"/>
<text text-anchor="middle" x="120" y="-172" font-family="Helvetica,sans-Serif" font-size="10.00">iostream</text>
</a>
</g>
</g>
<!-- Node1&#45;&gt;Node3 -->
<g id="edge2_Node000001_Node000003" class="edge">
<title>Node1&#45;&gt;Node3</title>
<g id="a_edge2_Node000001_Node000003"><a xlink:title=" ">
<path fill="none" stroke="#63b8ff" d="M259.6,-219.95C225.83,-209.2 185.08,-196.22 156.35,-187.07"/>
<polygon fill="#63b8ff" stroke="#63b8ff" points="157.31,-183.71 146.72,-184.01 155.19,-190.38 157.31,-183.71"/>
</a>
</g>
</g>
<!-- Node4 -->
<g id="Node000004" class="node">
<title>Node4</title>
<g id="a_Node000004"><a xlink:title=" ">
<polygon fill="#e0e0e0" stroke="#999999" points="212,-184 168,-184 168,-165 212,-165 212,-184"/>
<text text-anchor="middle" x="190" y="-172" font-family="Helvetica,sans-Serif" font-size="10.00">string</text>
</a>
</g>
</g>
<!-- Node1&#45;&gt;Node4 -->
<g id="edge3_Node000001_Node000004" class="edge">
<title>Node1&#45;&gt;Node4</title>
<g id="a_edge3_Node000001_Node000004"><a xlink:title=" ">
<path fill="none" stroke="#63b8ff" d="M280.98,-219.95C260.1,-209.75 235.11,-197.54 216.61,-188.5"/>
<polygon fill="#63b8ff" stroke="#63b8ff" points="218.11,-185.34 207.59,-184.09 215.04,-191.63 218.11,-185.34"/>
</a>
</g>
</g>
<!-- Node5 -->
<g id="Node000005" class="node">
<title>Node5</title>
<g id="a_Node000005"><a xlink:title=" ">
<polygon fill="#e0e0e0" stroke="#999999" points="323.5,-184 230.5,-184 230.5,-165 323.5,-165 323.5,-184"/>
<text text-anchor="middle" x="277" y="-172" font-family="Helvetica,sans-Serif" font-size="10.00">unordered_map</text>
</a>
</g>
</g>
<!-- Node1&#45;&gt;Node5 -->
<g id="edge4_Node000001_Node000005" class="edge">
<title>Node1&#45;&gt;Node5</title>
<g id="a_edge4_Node000001_Node000005"><a xlink:title=" ">
<path fill="none" stroke="#63b8ff" d="M307.56,-219.95C301.55,-211.2 294.52,-200.99 288.73,-192.56"/>
<polygon fill="#63b8ff" stroke="#63b8ff" points="291.57,-190.52 283.02,-184.26 285.8,-194.48 291.57,-190.52"/>
</a>
</g>
</g>
<!-- Node6 -->
<g id="Node000006" class="node">
<title>Node6</title>
<g id="a_Node000006"><a xlink:title=" ">
<polygon fill="#e0e0e0" stroke="#999999" points="388.5,-184 341.5,-184 341.5,-165 388.5,-165 388.5,-184"/>
<text text-anchor="middle" x="365" y="-172" font-family="Helvetica,sans-Serif" font-size="10.00">vector</text>
</a>
</g>
</g>
<!-- Node1&#45;&gt;Node6 -->
<g id="edge5_Node000001_Node000006" class="edge">
<title>Node1&#45;&gt;Node6</title>
<g id="a_edge5_Node000001_Node000006"><a xlink:title=" ">
<path fill="none" stroke="#63b8ff" d="M334.44,-219.95C340.45,-211.2 347.48,-200.99 353.27,-192.56"/>
<polygon fill="#63b8ff" stroke="#63b8ff" points="356.2,-194.48 358.98,-184.26 350.43,-190.52 356.2,-194.48"/>
</a>
</g>
</g>
<!-- Node7 -->
<g id="Node000007" class="node">
<title>Node7</title>
<g id="a_Node000007"><a xlink:title=" ">
<polygon fill="#e0e0e0" stroke="#999999" points="505,-184 407,-184 407,-165 505,-165 505,-184"/>
<text text-anchor="middle" x="456" y="-172" font-family="Helvetica,sans-Serif" font-size="10.00">scene/Scene.hpp</text>
</a>
</g>
</g>
<!-- Node1&#45;&gt;Node7 -->
<g id="edge6_Node000001_Node000007" class="edge">
<title>Node1&#45;&gt;Node7</title>
<g id="a_edge6_Node000001_Node000007"><a xlink:title=" ">
<path fill="none" stroke="#63b8ff" d="M362.24,-219.95C383.86,-209.7 409.75,-197.43 428.84,-188.38"/>
<polygon fill="#63b8ff" stroke="#63b8ff" points="430.34,-191.54 437.88,-184.09 427.34,-185.21 430.34,-191.54"/>
</a>
</g>
</g>
<!-- Node8 -->
<g id="Node000008" class="node">
<title>Node8</title>
<g id="a_Node000008"><a xlink:href="PlayerEntity_8hpp.html" target="_top" xlink:title=" ">
<polygon fill="white" stroke="#666666" points="652.5,-184 523.5,-184 523.5,-165 652.5,-165 652.5,-184"/>
<text text-anchor="middle" x="588" y="-172" font-family="Helvetica,sans-Serif" font-size="10.00">Player/PlayerEntity.hpp</text>
</a>
</g>
</g>
<!-- Node1&#45;&gt;Node8 -->
<g id="edge7_Node000001_Node000008" class="edge">
<title>Node1&#45;&gt;Node8</title>
<g id="a_edge7_Node000001_Node000008"><a xlink:title=" ">
<path fill="none" stroke="#63b8ff" d="M400.75,-220.38C447.01,-209.29 503.62,-195.73 542.41,-186.43"/>
<polygon fill="#63b8ff" stroke="#63b8ff" points="543.45,-189.78 552.36,-184.04 541.82,-182.97 543.45,-189.78"/>
</a>
</g>
</g>
<!-- Node14 -->
<g id="Node000014" class="node">
<title>Node14</title>
<g id="a_Node000014"><a xlink:title=" ">
<polygon fill="#e0e0e0" stroke="#999999" points="748,-19 620,-19 620,0 748,0 748,-19"/>
<text text-anchor="middle" x="684" y="-7" font-family="Helvetica,sans-Serif" font-size="10.00">physics/Physics2D.hpp</text>
</a>
</g>
</g>
<!-- Node1&#45;&gt;Node14 -->
<g id="edge15_Node000001_Node000014" class="edge">
<title>Node1&#45;&gt;Node14</title>
<g id="a_edge15_Node000001_Node000014"><a xlink:title=" ">
<path fill="none" stroke="#63b8ff" d="M400.56,-236.36C489.1,-231.23 624.64,-217.92 662,-184 705.61,-144.4 695.76,-65.18 688.43,-29.13"/>
<polygon fill="#63b8ff" stroke="#63b8ff" points="691.78,-28.06 686.21,-19.05 684.94,-29.57 691.78,-28.06"/>
</a>
</g>
</g>
<!-- Node9 -->
<g id="Node000009" class="node">
<title>Node9</title>
<g id="a_Node000009"><a xlink:title=" ">
<polygon fill="#e0e0e0" stroke="#999999" points="325,-129 261,-129 261,-110 325,-110 325,-129"/>
<text text-anchor="middle" x="293" y="-117" font-family="Helvetica,sans-Serif" font-size="10.00">algorithm</text>
</a>
</g>
</g>
<!-- Node8&#45;&gt;Node9 -->
<g id="edge8_Node000008_Node000009" class="edge">
<title>Node8&#45;&gt;Node9</title>
<g id="a_edge8_Node000008_Node000009"><a xlink:title=" ">
<path fill="none" stroke="#63b8ff" d="M536.35,-164.93C487.17,-156.67 410.83,-143.56 335.37,-129.21"/>
<polygon fill="#63b8ff" stroke="#63b8ff" points="335.69,-125.71 325.21,-127.28 334.38,-132.59 335.69,-125.71"/>
</a>
</g>
</g>
<!-- Node10 -->
<g id="Node000010" class="node">
<title>Node10</title>
<g id="a_Node000010"><a xlink:href="CollisionController_8hpp.html" target="_top" xlink:title=" ">
<polygon fill="white" stroke="#666666" points="515,-129 343,-129 343,-110 515,-110 515,-129"/>
<text text-anchor="middle" x="429" y="-117" font-family="Helvetica,sans-Serif" font-size="10.00">Collision/CollisionController.hpp</text>
</a>
</g>
</g>
<!-- Node8&#45;&gt;Node10 -->
<g id="edge9_Node000008_Node000010" class="edge">
<title>Node8&#45;&gt;Node10</title>
<g id="a_edge9_Node000008_Node000010"><a xlink:title=" ">
<path fill="none" stroke="#63b8ff" d="M562.45,-164.98C535.88,-156.13 494.06,-142.19 464.33,-132.28"/>
<polygon fill="#63b8ff" stroke="#63b8ff" points="465.34,-128.92 454.75,-129.08 463.13,-135.56 465.34,-128.92"/>
</a>
</g>
</g>
<!-- Node12 -->
<g id="Node000012" class="node">
<title>Node12</title>
<g id="a_Node000012"><a xlink:href="Weapon_8hpp.html" target="_top" xlink:title=" ">
<polygon fill="white" stroke="#666666" points="643,-129 533,-129 533,-110 643,-110 643,-129"/>
<text text-anchor="middle" x="588" y="-117" font-family="Helvetica,sans-Serif" font-size="10.00">Player/Weapon.hpp</text>
</a>
</g>
</g>
<!-- Node8&#45;&gt;Node12 -->
<g id="edge11_Node000008_Node000012" class="edge">
<title>Node8&#45;&gt;Node12</title>
<g id="a_edge11_Node000008_Node000012"><a xlink:title=" ">
<path fill="none" stroke="#63b8ff" d="M588,-164.75C588,-157.8 588,-147.85 588,-139.13"/>
<polygon fill="#63b8ff" stroke="#63b8ff" points="591.5,-139.09 588,-129.09 584.5,-139.09 591.5,-139.09"/>
</a>
</g>
</g>
<!-- Node8&#45;&gt;Node14 -->
<g id="edge14_Node000008_Node000014" class="edge">
<title>Node8&#45;&gt;Node14</title>
<g id="a_edge14_Node000008_Node000014"><a xlink:title=" ">
<path fill="none" stroke="#63b8ff" d="M606.99,-164.86C621.41,-157.36 640.62,-145.16 652,-129 673.5,-98.47 680.56,-54.21 682.87,-29.32"/>
<polygon fill="#63b8ff" stroke="#63b8ff" points="686.38,-29.32 683.66,-19.09 679.4,-28.79 686.38,-29.32"/>
</a>
</g>
</g>
<!-- Node11 -->
<g id="Node000011" class="node">
<title>Node11</title>
<g id="a_Node000011"><a xlink:title=" ">
<polygon fill="#e0e0e0" stroke="#999999" points="458,-74 374,-74 374,-55 458,-55 458,-74"/>
<text text-anchor="middle" x="416" y="-62" font-family="Helvetica,sans-Serif" font-size="10.00">ecs/Entity.hpp</text>
</a>
</g>
</g>
<!-- Node10&#45;&gt;Node11 -->
<g id="edge10_Node000010_Node000011" class="edge">
<title>Node10&#45;&gt;Node11</title>
<g id="a_edge10_Node000010_Node000011"><a xlink:title=" ">
<path fill="none" stroke="#63b8ff" d="M426.85,-109.75C425.13,-102.72 422.65,-92.62 420.5,-83.84"/>
<polygon fill="#63b8ff" stroke="#63b8ff" points="423.89,-82.97 418.11,-74.09 417.09,-84.63 423.89,-82.97"/>
</a>
</g>
</g>
<!-- Node13 -->
<g id="Node000013" class="node">
<title>Node13</title>
<g id="a_Node000013"><a xlink:href="Projectile_8hpp.html" target="_top" xlink:title=" ">
<polygon fill="white" stroke="#666666" points="656,-74 476,-74 476,-55 656,-55 656,-74"/>
<text text-anchor="middle" x="566" y="-62" font-family="Helvetica,sans-Serif" font-size="10.00">components/Player/Projectile.hpp</text>
</a>
</g>
</g>
<!-- Node12&#45;&gt;Node13 -->
<g id="edge12_Node000012_Node000013" class="edge">
<title>Node12&#45;&gt;Node13</title>
<g id="a_edge12_Node000012_Node000013"><a xlink:title=" ">
<path fill="none" stroke="#63b8ff" d="M584.37,-109.75C581.42,-102.65 577.17,-92.4 573.49,-83.56"/>
<polygon fill="#63b8ff" stroke="#63b8ff" points="576.63,-81.98 569.57,-74.09 570.17,-84.67 576.63,-81.98"/>
</a>
</g>
</g>
<!-- Node13&#45;&gt;Node14 -->
<g id="edge13_Node000013_Node000014" class="edge">
<title>Node13&#45;&gt;Node14</title>
<g id="a_edge13_Node000013_Node000014"><a xlink:title=" ">
<path fill="none" stroke="#63b8ff" d="M584.96,-54.98C604.03,-46.42 633.66,-33.11 655.55,-23.28"/>
<polygon fill="#63b8ff" stroke="#63b8ff" points="657.01,-26.46 664.7,-19.17 654.14,-20.07 657.01,-26.46"/>
</a>
</g>
</g>
</g>
</svg>
