<?xml version="1.0" encoding="UTF-8" standalone="no"?>
<!DOCTYPE svg PUBLIC "-//W3C//DTD SVG 1.1//EN"
 "http://www.w3.org/Graphics/SVG/1.1/DTD/svg11.dtd">
<!-- Generated by graphviz version 2.43.0 (0)
 -->
<!-- Title: /home/runner/work/R&#45;Type/R&#45;Type/Client/src/scenes/SecondGameClient.cpp Pages: 1 -->
<svg width="2333pt" height="379pt"
 viewBox="0.00 0.00 2332.50 379.00" xmlns="http://www.w3.org/2000/svg" xmlns:xlink="http://www.w3.org/1999/xlink">
<g id="graph0" class="graph" transform="scale(1 1) rotate(0) translate(4 375)">
<title>/home/runner/work/R&#45;Type/R&#45;Type/Client/src/scenes/SecondGameClient.cpp</title>
<!-- Node1 -->
<g id="Node000001" class="node">
<title>Node1</title>
<g id="a_Node000001"><a xlink:title=" ">
<polygon fill="#999999" stroke="#666666" points="2282,-371 2095,-371 2095,-330 2282,-330 2282,-371"/>
<text text-anchor="start" x="2103" y="-359" font-family="Helvetica,sans-Serif" font-size="10.00">/home/runner/work/R</text>
<text text-anchor="start" x="2103" y="-348" font-family="Helvetica,sans-Serif" font-size="10.00">&#45;Type/R&#45;Type/Client</text>
<text text-anchor="middle" x="2188.5" y="-337" font-family="Helvetica,sans-Serif" font-size="10.00">/src/scenes/SecondGameClient.cpp</text>
</a>
</g>
</g>
<!-- Node2 -->
<g id="Node000002" class="node">
<title>Node2</title>
<g id="a_Node000002"><a xlink:href="SecondGameClient_8hpp.html" target="_top" xlink:title=" ">
<polygon fill="white" stroke="#666666" points="1512,-294 1345,-294 1345,-275 1512,-275 1512,-294"/>
<text text-anchor="middle" x="1428.5" y="-282" font-family="Helvetica,sans-Serif" font-size="10.00">scenes/SecondGameClient.hpp</text>
</a>
</g>
</g>
<!-- Node1&#45;&gt;Node2 -->
<g id="edge1_Node000001_Node000002" class="edge">
<title>Node1&#45;&gt;Node2</title>
<g id="a_edge1_Node000001_Node000002"><a xlink:title=" ">
<path fill="none" stroke="#63b8ff" d="M2094.93,-341.62C1948.95,-329.33 1668.64,-305.72 1522.44,-293.41"/>
<polygon fill="#63b8ff" stroke="#63b8ff" points="1522.41,-289.9 1512.15,-292.54 1521.82,-296.87 1522.41,-289.9"/>
</a>
</g>
</g>
<!-- Node22 -->
<g id="Node000022" class="node">
<title>Node22</title>
<g id="a_Node000022"><a xlink:title=" ">
<polygon fill="#e0e0e0" stroke="#999999" points="2160.5,-239 2020.5,-239 2020.5,-220 2160.5,-220 2160.5,-239"/>
<text text-anchor="middle" x="2090.5" y="-227" font-family="Helvetica,sans-Serif" font-size="10.00">scene/SceneManager.hpp</text>
</a>
</g>
</g>
<!-- Node1&#45;&gt;Node22 -->
<g id="edge69_Node000001_Node000022" class="edge">
<title>Node1&#45;&gt;Node22</title>
<g id="a_edge69_Node000001_Node000022"><a xlink:title=" ">
<path fill="none" stroke="#63b8ff" d="M2172.32,-329.85C2153.3,-306.76 2122.08,-268.84 2104.2,-247.14"/>
<polygon fill="#63b8ff" stroke="#63b8ff" points="2106.7,-244.67 2097.64,-239.18 2101.3,-249.12 2106.7,-244.67"/>
</a>
</g>
</g>
<!-- Node39 -->
<g id="Node000039" class="node">
<title>Node39</title>
<g id="a_Node000039"><a xlink:title=" ">
<polygon fill="#e0e0e0" stroke="#999999" points="1678.5,-184 1582.5,-184 1582.5,-165 1678.5,-165 1678.5,-184"/>
<text text-anchor="middle" x="1630.5" y="-172" font-family="Helvetica,sans-Serif" font-size="10.00">ecs/Registry.hpp</text>
</a>
</g>
</g>
<!-- Node1&#45;&gt;Node39 -->
<g id="edge70_Node000001_Node000039" class="edge">
<title>Node1&#45;&gt;Node39</title>
<g id="a_edge70_Node000001_Node000039"><a xlink:title=" ">
<path fill="none" stroke="#63b8ff" d="M2192.29,-329.91C2196.58,-301.22 2199.51,-248.13 2169.5,-220 2133.39,-186.15 1774.82,-188.21 1725.5,-184 1713.64,-182.99 1700.95,-181.88 1688.84,-180.8"/>
<polygon fill="#63b8ff" stroke="#63b8ff" points="1689.09,-177.31 1678.82,-179.9 1688.47,-184.28 1689.09,-177.31"/>
</a>
</g>
</g>
<!-- Node41 -->
<g id="Node000041" class="node">
<title>Node41</title>
<g id="a_Node000041"><a xlink:title=" ">
<polygon fill="#e0e0e0" stroke="#999999" points="2304.5,-294 2216.5,-294 2216.5,-275 2304.5,-275 2304.5,-294"/>
<text text-anchor="middle" x="2260.5" y="-282" font-family="Helvetica,sans-Serif" font-size="10.00">ecs/Zipper.hpp</text>
</a>
</g>
</g>
<!-- Node1&#45;&gt;Node41 -->
<g id="edge68_Node000001_Node000041" class="edge">
<title>Node1&#45;&gt;Node41</title>
<g id="a_edge68_Node000001_Node000041"><a xlink:title=" ">
<path fill="none" stroke="#63b8ff" d="M2210.49,-329.95C2220.96,-320.65 2233.3,-309.68 2243.1,-300.96"/>
<polygon fill="#63b8ff" stroke="#63b8ff" points="2245.5,-303.52 2250.64,-294.26 2240.84,-298.29 2245.5,-303.52"/>
</a>
</g>
</g>
<!-- Node42 -->
<g id="Node000042" class="node">
<title>Node42</title>
<g id="a_Node000042"><a xlink:href="Event_8hpp.html" target="_top" xlink:title=" ">
<polygon fill="white" stroke="#666666" points="2324.5,-239 2216.5,-239 2216.5,-220 2324.5,-220 2324.5,-239"/>
<text text-anchor="middle" x="2270.5" y="-227" font-family="Helvetica,sans-Serif" font-size="10.00">network/Event.hpp</text>
</a>
</g>
</g>
<!-- Node1&#45;&gt;Node42 -->
<g id="edge71_Node000001_Node000042" class="edge">
<title>Node1&#45;&gt;Node42</title>
<g id="a_edge71_Node000001_Node000042"><a xlink:title=" ">
<path fill="none" stroke="#63b8ff" d="M2268.86,-329.91C2286.45,-321.74 2302.95,-310.22 2313.5,-294 2324.5,-277.08 2307.4,-257.93 2291.62,-245.13"/>
<polygon fill="#63b8ff" stroke="#63b8ff" points="2293.72,-242.33 2283.64,-239.06 2289.48,-247.9 2293.72,-242.33"/>
</a>
</g>
</g>
<!-- Node3 -->
<g id="Node000003" class="node">
<title>Node3</title>
<g id="a_Node000003"><a xlink:title=" ">
<polygon fill="#e0e0e0" stroke="#999999" points="1562.5,-239 1490.5,-239 1490.5,-220 1562.5,-220 1562.5,-239"/>
<text text-anchor="middle" x="1526.5" y="-227" font-family="Helvetica,sans-Serif" font-size="10.00">SDL2/SDL.h</text>
</a>
</g>
</g>
<!-- Node2&#45;&gt;Node3 -->
<g id="edge2_Node000002_Node000003" class="edge">
<title>Node2&#45;&gt;Node3</title>
<g id="a_edge2_Node000002_Node000003"><a xlink:title=" ">
<path fill="none" stroke="#63b8ff" d="M1444.25,-274.98C1459.73,-266.61 1483.59,-253.7 1501.64,-243.95"/>
<polygon fill="#63b8ff" stroke="#63b8ff" points="1503.34,-247.01 1510.47,-239.17 1500.01,-240.85 1503.34,-247.01"/>
</a>
</g>
</g>
<!-- Node4 -->
<g id="Node000004" class="node">
<title>Node4</title>
<g id="a_Node000004"><a xlink:title=" ">
<polygon fill="#e0e0e0" stroke="#999999" points="1564.5,-184 1504.5,-184 1504.5,-165 1564.5,-165 1564.5,-184"/>
<text text-anchor="middle" x="1534.5" y="-172" font-family="Helvetica,sans-Serif" font-size="10.00">iostream</text>
</a>
</g>
</g>
<!-- Node2&#45;&gt;Node4 -->
<g id="edge3_Node000002_Node000004" class="edge">
<title>Node2&#45;&gt;Node4</title>
<g id="a_edge3_Node000002_Node000004"><a xlink:title=" ">
<path fill="none" stroke="#63b8ff" d="M1512.28,-275.72C1535.11,-269.31 1557.4,-258.16 1571.5,-239 1582.99,-223.39 1567.82,-203.96 1553.59,-190.72"/>
<polygon fill="#63b8ff" stroke="#63b8ff" points="1555.79,-188 1545.95,-184.08 1551.19,-193.28 1555.79,-188"/>
</a>
</g>
</g>
<!-- Node5 -->
<g id="Node000005" class="node">
<title>Node5</title>
<g id="a_Node000005"><a xlink:title=" ">
<polygon fill="#e0e0e0" stroke="#999999" points="1778.5,-184 1734.5,-184 1734.5,-165 1778.5,-165 1778.5,-184"/>
<text text-anchor="middle" x="1756.5" y="-172" font-family="Helvetica,sans-Serif" font-size="10.00">string</text>
</a>
</g>
</g>
<!-- Node2&#45;&gt;Node5 -->
<g id="edge4_Node000002_Node000005" class="edge">
<title>Node2&#45;&gt;Node5</title>
<g id="a_edge4_Node000002_Node000005"><a xlink:title=" ">
<path fill="none" stroke="#63b8ff" d="M1512.27,-279.96C1622.58,-274.43 1805.01,-261.91 1825.5,-239 1842.41,-220.09 1813.16,-200.66 1787.68,-188.37"/>
<polygon fill="#63b8ff" stroke="#63b8ff" points="1789.1,-185.17 1778.56,-184.17 1786.18,-191.53 1789.1,-185.17"/>
</a>
</g>
</g>
<!-- Node6 -->
<g id="Node000006" class="node">
<title>Node6</title>
<g id="a_Node000006"><a xlink:title=" ">
<polygon fill="#e0e0e0" stroke="#999999" points="1712,-239 1619,-239 1619,-220 1712,-220 1712,-239"/>
<text text-anchor="middle" x="1665.5" y="-227" font-family="Helvetica,sans-Serif" font-size="10.00">unordered_map</text>
</a>
</g>
</g>
<!-- Node2&#45;&gt;Node6 -->
<g id="edge5_Node000002_Node000006" class="edge">
<title>Node2&#45;&gt;Node6</title>
<g id="a_edge5_Node000002_Node000006"><a xlink:title=" ">
<path fill="none" stroke="#63b8ff" d="M1466.58,-274.98C1507.49,-265.84 1572.61,-251.27 1617.12,-241.32"/>
<polygon fill="#63b8ff" stroke="#63b8ff" points="1618.13,-244.68 1627.12,-239.08 1616.6,-237.85 1618.13,-244.68"/>
</a>
</g>
</g>
<!-- Node7 -->
<g id="Node000007" class="node">
<title>Node7</title>
<g id="a_Node000007"><a xlink:title=" ">
<polygon fill="#e0e0e0" stroke="#999999" points="1816.5,-239 1730.5,-239 1730.5,-220 1816.5,-220 1816.5,-239"/>
<text text-anchor="middle" x="1773.5" y="-227" font-family="Helvetica,sans-Serif" font-size="10.00">unordered_set</text>
</a>
</g>
</g>
<!-- Node2&#45;&gt;Node7 -->
<g id="edge6_Node000002_Node000007" class="edge">
<title>Node2&#45;&gt;Node7</title>
<g id="a_edge6_Node000002_Node000007"><a xlink:title=" ">
<path fill="none" stroke="#63b8ff" d="M1485.32,-274.98C1544.17,-266.11 1638.8,-251.78 1720.5,-239 1720.6,-238.98 1720.7,-238.97 1720.8,-238.95"/>
<polygon fill="#63b8ff" stroke="#63b8ff" points="1721.07,-242.45 1730.41,-237.44 1719.98,-235.54 1721.07,-242.45"/>
</a>
</g>
</g>
<!-- Node8 -->
<g id="Node000008" class="node">
<title>Node8</title>
<g id="a_Node000008"><a xlink:title=" ">
<polygon fill="#e0e0e0" stroke="#999999" points="1664,-129 1617,-129 1617,-110 1664,-110 1664,-129"/>
<text text-anchor="middle" x="1640.5" y="-117" font-family="Helvetica,sans-Serif" font-size="10.00">vector</text>
</a>
</g>
</g>
<!-- Node2&#45;&gt;Node8 -->
<g id="edge7_Node000002_Node000008" class="edge">
<title>Node2&#45;&gt;Node8</title>
<g id="a_edge7_Node000002_Node000008"><a xlink:title=" ">
<path fill="none" stroke="#63b8ff" d="M1433.03,-274.85C1440.88,-260.83 1458.38,-233.37 1481.5,-220 1561.97,-173.48 1627.7,-255.15 1687.5,-184 1701.07,-167.85 1681.36,-148.18 1663.47,-135.05"/>
<polygon fill="#63b8ff" stroke="#63b8ff" points="1665.2,-131.99 1654.99,-129.18 1661.21,-137.75 1665.2,-131.99"/>
</a>
</g>
</g>
<!-- Node9 -->
<g id="Node000009" class="node">
<title>Node9</title>
<g id="a_Node000009"><a xlink:href="PlayerEntity_8hpp.html" target="_top" xlink:title=" ">
<polygon fill="white" stroke="#666666" points="463,-184 334,-184 334,-165 463,-165 463,-184"/>
<text text-anchor="middle" x="398.5" y="-172" font-family="Helvetica,sans-Serif" font-size="10.00">Player/PlayerEntity.hpp</text>
</a>
</g>
</g>
<!-- Node2&#45;&gt;Node9 -->
<g id="edge8_Node000002_Node000009" class="edge">
<title>Node2&#45;&gt;Node9</title>
<g id="a_edge8_Node000002_Node000009"><a xlink:title=" ">
<path fill="none" stroke="#63b8ff" d="M1344.78,-282.24C1159.74,-278.94 720.89,-268.21 575.5,-239 520.73,-228 460.1,-203.33 425.91,-188.19"/>
<polygon fill="#63b8ff" stroke="#63b8ff" points="427.15,-184.9 416.59,-184 424.28,-191.29 427.15,-184.9"/>
</a>
</g>
</g>
<!-- Node16 -->
<g id="Node000016" class="node">
<title>Node16</title>
<g id="a_Node000016"><a xlink:href="DataMask_8hpp.html" target="_top" xlink:title=" ">
<polygon fill="white" stroke="#666666" points="2002.5,-239 1872.5,-239 1872.5,-220 2002.5,-220 2002.5,-239"/>
<text text-anchor="middle" x="1937.5" y="-227" font-family="Helvetica,sans-Serif" font-size="10.00">network/DataMask.hpp</text>
</a>
</g>
</g>
<!-- Node2&#45;&gt;Node16 -->
<g id="edge16_Node000002_Node000016" class="edge">
<title>Node2&#45;&gt;Node16</title>
<g id="a_edge16_Node000002_Node000016"><a xlink:title=" ">
<path fill="none" stroke="#63b8ff" d="M1511.75,-274.99C1598.38,-266.1 1737.96,-251.72 1858.5,-239 1859.77,-238.87 1861.06,-238.73 1862.35,-238.59"/>
<polygon fill="#63b8ff" stroke="#63b8ff" points="1862.83,-242.06 1872.41,-237.53 1862.09,-235.1 1862.83,-242.06"/>
</a>
</g>
</g>
<!-- Node18 -->
<g id="Node000018" class="node">
<title>Node18</title>
<g id="a_Node000018"><a xlink:href="InputSystem_8hpp.html" target="_top" xlink:title=" ">
<polygon fill="white" stroke="#666666" points="315,-239 172,-239 172,-220 315,-220 315,-239"/>
<text text-anchor="middle" x="243.5" y="-227" font-family="Helvetica,sans-Serif" font-size="10.00">systems/InputSystem.hpp</text>
</a>
</g>
</g>
<!-- Node2&#45;&gt;Node18 -->
<g id="edge18_Node000002_Node000018" class="edge">
<title>Node2&#45;&gt;Node18</title>
<g id="a_edge18_Node000002_Node000018"><a xlink:title=" ">
<path fill="none" stroke="#63b8ff" d="M1344.7,-279.75C1126.23,-269.98 541.26,-243.82 325.18,-234.15"/>
<polygon fill="#63b8ff" stroke="#63b8ff" points="325.32,-230.66 315.17,-233.71 325.01,-237.65 325.32,-230.66"/>
</a>
</g>
</g>
<!-- Node21 -->
<g id="Node000021" class="node">
<title>Node21</title>
<g id="a_Node000021"><a xlink:title=" ">
<polygon fill="#e0e0e0" stroke="#999999" points="698.5,-239 600.5,-239 600.5,-220 698.5,-220 698.5,-239"/>
<text text-anchor="middle" x="649.5" y="-227" font-family="Helvetica,sans-Serif" font-size="10.00">scene/Scene.hpp</text>
</a>
</g>
</g>
<!-- Node2&#45;&gt;Node21 -->
<g id="edge23_Node000002_Node000021" class="edge">
<title>Node2&#45;&gt;Node21</title>
<g id="a_edge23_Node000002_Node000021"><a xlink:title=" ">
<path fill="none" stroke="#63b8ff" d="M1344.77,-280.61C1212.09,-275.53 945.18,-263.26 708.68,-239.03"/>
<polygon fill="#63b8ff" stroke="#63b8ff" points="708.82,-235.52 698.51,-237.98 708.1,-242.49 708.82,-235.52"/>
</a>
</g>
</g>
<!-- Node2&#45;&gt;Node22 -->
<g id="edge24_Node000002_Node000022" class="edge">
<title>Node2&#45;&gt;Node22</title>
<g id="a_edge24_Node000002_Node000022"><a xlink:title=" ">
<path fill="none" stroke="#63b8ff" d="M1512.08,-277.94C1623.3,-270.35 1826.34,-255.87 2010.17,-239.1"/>
<polygon fill="#63b8ff" stroke="#63b8ff" points="2010.66,-242.57 2020.3,-238.17 2010.02,-235.59 2010.66,-242.57"/>
</a>
</g>
</g>
<!-- Node23 -->
<g id="Node000023" class="node">
<title>Node23</title>
<g id="a_Node000023"><a xlink:title=" ">
<polygon fill="#e0e0e0" stroke="#999999" points="866,-239 717,-239 717,-220 866,-220 866,-239"/>
<text text-anchor="middle" x="791.5" y="-227" font-family="Helvetica,sans-Serif" font-size="10.00">audio/AudioSubsystem.hpp</text>
</a>
</g>
</g>
<!-- Node2&#45;&gt;Node23 -->
<g id="edge25_Node000002_Node000023" class="edge">
<title>Node2&#45;&gt;Node23</title>
<g id="a_edge25_Node000002_Node000023"><a xlink:title=" ">
<path fill="none" stroke="#63b8ff" d="M1344.6,-277.29C1238.28,-269.29 1049.06,-254.66 876.2,-239.04"/>
<polygon fill="#63b8ff" stroke="#63b8ff" points="876.42,-235.55 866.15,-238.13 875.79,-242.52 876.42,-235.55"/>
</a>
</g>
</g>
<!-- Node24 -->
<g id="Node000024" class="node">
<title>Node24</title>
<g id="a_Node000024"><a xlink:title=" ">
<polygon fill="#e0e0e0" stroke="#999999" points="672,-184 481,-184 481,-165 672,-165 672,-184"/>
<text text-anchor="middle" x="576.5" y="-172" font-family="Helvetica,sans-Serif" font-size="10.00">rendering/RenderingSubsystem.hpp</text>
</a>
</g>
</g>
<!-- Node2&#45;&gt;Node24 -->
<g id="edge26_Node000002_Node000024" class="edge">
<title>Node2&#45;&gt;Node24</title>
<g id="a_edge26_Node000002_Node000024"><a xlink:title=" ">
<path fill="none" stroke="#63b8ff" d="M1344.73,-281.73C1138.36,-277.03 620.08,-262.88 591.5,-239 578.74,-228.34 575.68,-209.03 575.39,-194.5"/>
<polygon fill="#63b8ff" stroke="#63b8ff" points="578.9,-194.19 575.62,-184.12 571.9,-194.04 578.9,-194.19"/>
</a>
</g>
</g>
<!-- Node25 -->
<g id="Node000025" class="node">
<title>Node25</title>
<g id="a_Node000025"><a xlink:title=" ">
<polygon fill="#e0e0e0" stroke="#999999" points="1216.5,-239 1040.5,-239 1040.5,-220 1216.5,-220 1216.5,-239"/>
<text text-anchor="middle" x="1128.5" y="-227" font-family="Helvetica,sans-Serif" font-size="10.00">network/NetworkSubsystem.hpp</text>
</a>
</g>
</g>
<!-- Node2&#45;&gt;Node25 -->
<g id="edge27_Node000002_Node000025" class="edge">
<title>Node2&#45;&gt;Node25</title>
<g id="a_edge27_Node000002_Node000025"><a xlink:title=" ">
<path fill="none" stroke="#63b8ff" d="M1380.3,-274.98C1327.75,-265.7 1243.65,-250.84 1187.27,-240.88"/>
<polygon fill="#63b8ff" stroke="#63b8ff" points="1187.53,-237.38 1177.08,-239.08 1186.32,-244.27 1187.53,-237.38"/>
</a>
</g>
</g>
<!-- Node26 -->
<g id="Node000026" class="node">
<title>Node26</title>
<g id="a_Node000026"><a xlink:title=" ">
<polygon fill="#e0e0e0" stroke="#999999" points="1336.5,-239 1234.5,-239 1234.5,-220 1336.5,-220 1336.5,-239"/>
<text text-anchor="middle" x="1285.5" y="-227" font-family="Helvetica,sans-Serif" font-size="10.00">ui/UIManager.hpp</text>
</a>
</g>
</g>
<!-- Node2&#45;&gt;Node26 -->
<g id="edge28_Node000002_Node000026" class="edge">
<title>Node2&#45;&gt;Node26</title>
<g id="a_edge28_Node000002_Node000026"><a xlink:title=" ">
<path fill="none" stroke="#63b8ff" d="M1405.52,-274.98C1382,-266.27 1345.21,-252.63 1318.56,-242.75"/>
<polygon fill="#63b8ff" stroke="#63b8ff" points="1319.49,-239.36 1308.89,-239.17 1317.05,-245.93 1319.49,-239.36"/>
</a>
</g>
</g>
<!-- Node27 -->
<g id="Node000027" class="node">
<title>Node27</title>
<g id="a_Node000027"><a xlink:title=" ">
<polygon fill="#e0e0e0" stroke="#999999" points="1434.5,-239 1354.5,-239 1354.5,-220 1434.5,-220 1434.5,-239"/>
<text text-anchor="middle" x="1394.5" y="-227" font-family="Helvetica,sans-Serif" font-size="10.00">ui/UIText.hpp</text>
</a>
</g>
</g>
<!-- Node2&#45;&gt;Node27 -->
<g id="edge29_Node000002_Node000027" class="edge">
<title>Node2&#45;&gt;Node27</title>
<g id="a_edge29_Node000002_Node000027"><a xlink:title=" ">
<path fill="none" stroke="#63b8ff" d="M1422.89,-274.75C1418.18,-267.42 1411.33,-256.73 1405.53,-247.7"/>
<polygon fill="#63b8ff" stroke="#63b8ff" points="1408.36,-245.62 1400.01,-239.09 1402.46,-249.4 1408.36,-245.62"/>
</a>
</g>
</g>
<!-- Node28 -->
<g id="Node000028" class="node">
<title>Node28</title>
<g id="a_Node000028"><a xlink:href="EntityHelper_8hpp.html" target="_top" xlink:title=" ">
<polygon fill="white" stroke="#666666" points="1022.5,-239 884.5,-239 884.5,-220 1022.5,-220 1022.5,-239"/>
<text text-anchor="middle" x="953.5" y="-227" font-family="Helvetica,sans-Serif" font-size="10.00">Helpers/EntityHelper.hpp</text>
</a>
</g>
</g>
<!-- Node2&#45;&gt;Node28 -->
<g id="edge30_Node000002_Node000028" class="edge">
<title>Node2&#45;&gt;Node28</title>
<g id="a_edge30_Node000002_Node000028"><a xlink:title=" ">
<path fill="none" stroke="#63b8ff" d="M1352.18,-274.98C1264.56,-265.21 1121.51,-249.25 1032.7,-239.34"/>
<polygon fill="#63b8ff" stroke="#63b8ff" points="1033,-235.85 1022.68,-238.22 1032.23,-242.81 1033,-235.85"/>
</a>
</g>
</g>
<!-- Node10 -->
<g id="Node000010" class="node">
<title>Node10</title>
<g id="a_Node000010"><a xlink:title=" ">
<polygon fill="#e0e0e0" stroke="#999999" points="430.5,-129 366.5,-129 366.5,-110 430.5,-110 430.5,-129"/>
<text text-anchor="middle" x="398.5" y="-117" font-family="Helvetica,sans-Serif" font-size="10.00">algorithm</text>
</a>
</g>
</g>
<!-- Node9&#45;&gt;Node10 -->
<g id="edge9_Node000009_Node000010" class="edge">
<title>Node9&#45;&gt;Node10</title>
<g id="a_edge9_Node000009_Node000010"><a xlink:title=" ">
<path fill="none" stroke="#63b8ff" d="M398.5,-164.75C398.5,-157.8 398.5,-147.85 398.5,-139.13"/>
<polygon fill="#63b8ff" stroke="#63b8ff" points="402,-139.09 398.5,-129.09 395,-139.09 402,-139.09"/>
</a>
</g>
</g>
<!-- Node11 -->
<g id="Node000011" class="node">
<title>Node11</title>
<g id="a_Node000011"><a xlink:href="CollisionController_8hpp.html" target="_top" xlink:title=" ">
<polygon fill="white" stroke="#666666" points="816.5,-129 644.5,-129 644.5,-110 816.5,-110 816.5,-129"/>
<text text-anchor="middle" x="730.5" y="-117" font-family="Helvetica,sans-Serif" font-size="10.00">Collision/CollisionController.hpp</text>
</a>
</g>
</g>
<!-- Node9&#45;&gt;Node11 -->
<g id="edge10_Node000009_Node000011" class="edge">
<title>Node9&#45;&gt;Node11</title>
<g id="a_edge10_Node000009_Node000011"><a xlink:title=" ">
<path fill="none" stroke="#63b8ff" d="M451.84,-164.98C510.44,-155.63 604.51,-140.61 666.9,-130.65"/>
<polygon fill="#63b8ff" stroke="#63b8ff" points="667.69,-134.07 677.02,-129.04 666.59,-127.16 667.69,-134.07"/>
</a>
</g>
</g>
<!-- Node13 -->
<g id="Node000013" class="node">
<title>Node13</title>
<g id="a_Node000013"><a xlink:href="Weapon_8hpp.html" target="_top" xlink:title=" ">
<polygon fill="white" stroke="#666666" points="348.5,-129 238.5,-129 238.5,-110 348.5,-110 348.5,-129"/>
<text text-anchor="middle" x="293.5" y="-117" font-family="Helvetica,sans-Serif" font-size="10.00">Player/Weapon.hpp</text>
</a>
</g>
</g>
<!-- Node9&#45;&gt;Node13 -->
<g id="edge12_Node000009_Node000013" class="edge">
<title>Node9&#45;&gt;Node13</title>
<g id="a_edge12_Node000009_Node000013"><a xlink:title=" ">
<path fill="none" stroke="#63b8ff" d="M381.63,-164.98C364.89,-156.54 339,-143.47 319.61,-133.68"/>
<polygon fill="#63b8ff" stroke="#63b8ff" points="321.18,-130.55 310.68,-129.17 318.03,-136.8 321.18,-130.55"/>
</a>
</g>
</g>
<!-- Node15 -->
<g id="Node000015" class="node">
<title>Node15</title>
<g id="a_Node000015"><a xlink:title=" ">
<polygon fill="#e0e0e0" stroke="#999999" points="1067.5,-19 939.5,-19 939.5,0 1067.5,0 1067.5,-19"/>
<text text-anchor="middle" x="1003.5" y="-7" font-family="Helvetica,sans-Serif" font-size="10.00">physics/Physics2D.hpp</text>
</a>
</g>
</g>
<!-- Node9&#45;&gt;Node15 -->
<g id="edge15_Node000009_Node000015" class="edge">
<title>Node9&#45;&gt;Node15</title>
<g id="a_edge15_Node000009_Node000015"><a xlink:title=" ">
<path fill="none" stroke="#63b8ff" d="M407.75,-164.91C416.61,-156.37 430,-142.61 439.5,-129 460.66,-98.68 446.79,-75.58 477.5,-55 514.11,-30.46 792.7,-17.68 928.94,-12.83"/>
<polygon fill="#63b8ff" stroke="#63b8ff" points="929.42,-16.32 939.29,-12.47 929.17,-9.32 929.42,-16.32"/>
</a>
</g>
</g>
<!-- Node12 -->
<g id="Node000012" class="node">
<title>Node12</title>
<g id="a_Node000012"><a xlink:title=" ">
<polygon fill="#e0e0e0" stroke="#999999" points="1025.5,-74 941.5,-74 941.5,-55 1025.5,-55 1025.5,-74"/>
<text text-anchor="middle" x="983.5" y="-62" font-family="Helvetica,sans-Serif" font-size="10.00">ecs/Entity.hpp</text>
</a>
</g>
</g>
<!-- Node11&#45;&gt;Node12 -->
<g id="edge11_Node000011_Node000012" class="edge">
<title>Node11&#45;&gt;Node12</title>
<g id="a_edge11_Node000011_Node000012"><a xlink:title=" ">
<path fill="none" stroke="#63b8ff" d="M771.15,-109.98C815,-100.8 884.92,-86.15 932.45,-76.19"/>
<polygon fill="#63b8ff" stroke="#63b8ff" points="933.46,-79.56 942.53,-74.08 932.03,-72.71 933.46,-79.56"/>
</a>
</g>
</g>
<!-- Node14 -->
<g id="Node000014" class="node">
<title>Node14</title>
<g id="a_Node000014"><a xlink:href="Projectile_8hpp.html" target="_top" xlink:title=" ">
<polygon fill="white" stroke="#666666" points="666.5,-74 486.5,-74 486.5,-55 666.5,-55 666.5,-74"/>
<text text-anchor="middle" x="576.5" y="-62" font-family="Helvetica,sans-Serif" font-size="10.00">components/Player/Projectile.hpp</text>
</a>
</g>
</g>
<!-- Node13&#45;&gt;Node14 -->
<g id="edge13_Node000013_Node000014" class="edge">
<title>Node13&#45;&gt;Node14</title>
<g id="a_edge13_Node000013_Node000014"><a xlink:title=" ">
<path fill="none" stroke="#63b8ff" d="M338.97,-109.98C388.44,-100.72 467.55,-85.9 520.73,-75.94"/>
<polygon fill="#63b8ff" stroke="#63b8ff" points="521.49,-79.36 530.67,-74.08 520.2,-72.48 521.49,-79.36"/>
</a>
</g>
</g>
<!-- Node14&#45;&gt;Node15 -->
<g id="edge14_Node000014_Node000015" class="edge">
<title>Node14&#45;&gt;Node15</title>
<g id="a_edge14_Node000014_Node000015"><a xlink:title=" ">
<path fill="none" stroke="#63b8ff" d="M645.1,-54.98C722.88,-45.33 849.21,-29.65 929.25,-19.72"/>
<polygon fill="#63b8ff" stroke="#63b8ff" points="929.76,-23.18 939.26,-18.47 928.9,-16.23 929.76,-23.18"/>
</a>
</g>
</g>
<!-- Node17 -->
<g id="Node000017" class="node">
<title>Node17</title>
<g id="a_Node000017"><a xlink:title=" ">
<polygon fill="#e0e0e0" stroke="#999999" points="2027.5,-129 1977.5,-129 1977.5,-110 2027.5,-110 2027.5,-129"/>
<text text-anchor="middle" x="2002.5" y="-117" font-family="Helvetica,sans-Serif" font-size="10.00">cstdint</text>
</a>
</g>
</g>
<!-- Node16&#45;&gt;Node17 -->
<g id="edge17_Node000016_Node000017" class="edge">
<title>Node16&#45;&gt;Node17</title>
<g id="a_edge17_Node000016_Node000017"><a xlink:title=" ">
<path fill="none" stroke="#63b8ff" d="M1949.35,-219.9C1959.77,-211.75 1974.61,-198.62 1983.5,-184 1991.91,-170.17 1996.81,-152.38 1999.52,-139.14"/>
<polygon fill="#63b8ff" stroke="#63b8ff" points="2002.97,-139.75 2001.32,-129.29 1996.08,-138.5 2002.97,-139.75"/>
</a>
</g>
</g>
<!-- Node18&#45;&gt;Node9 -->
<g id="edge19_Node000018_Node000009" class="edge">
<title>Node18&#45;&gt;Node9</title>
<g id="a_edge19_Node000018_Node000009"><a xlink:title=" ">
<path fill="none" stroke="#63b8ff" d="M268.4,-219.98C294.2,-211.16 334.72,-197.31 363.68,-187.41"/>
<polygon fill="#63b8ff" stroke="#63b8ff" points="365.07,-190.63 373.4,-184.08 362.81,-184.01 365.07,-190.63"/>
</a>
</g>
</g>
<!-- Node18&#45;&gt;Node15 -->
<g id="edge20_Node000018_Node000015" class="edge">
<title>Node18&#45;&gt;Node15</title>
<g id="a_edge20_Node000018_Node000015"><a xlink:title=" ">
<path fill="none" stroke="#63b8ff" d="M212.08,-219.97C194.16,-213.32 173.2,-202.09 162.5,-184 136.42,-139.92 206.38,-121.53 229.5,-110 322.4,-63.68 354.01,-71.48 456.5,-55 624.01,-28.06 823.15,-17.07 928.86,-12.87"/>
<polygon fill="#63b8ff" stroke="#63b8ff" points="929.25,-16.36 939.11,-12.47 928.98,-9.36 929.25,-16.36"/>
</a>
</g>
</g>
<!-- Node19 -->
<g id="Node000019" class="node">
<title>Node19</title>
<g id="a_Node000019"><a xlink:title=" ">
<polygon fill="#e0e0e0" stroke="#999999" points="315.5,-184 171.5,-184 171.5,-165 315.5,-165 315.5,-184"/>
<text text-anchor="middle" x="243.5" y="-172" font-family="Helvetica,sans-Serif" font-size="10.00">input/InputSubsystem.hpp</text>
</a>
</g>
</g>
<!-- Node18&#45;&gt;Node19 -->
<g id="edge21_Node000018_Node000019" class="edge">
<title>Node18&#45;&gt;Node19</title>
<g id="a_edge21_Node000018_Node000019"><a xlink:title=" ">
<path fill="none" stroke="#63b8ff" d="M243.5,-219.75C243.5,-212.8 243.5,-202.85 243.5,-194.13"/>
<polygon fill="#63b8ff" stroke="#63b8ff" points="247,-194.09 243.5,-184.09 240,-194.09 247,-194.09"/>
</a>
</g>
</g>
<!-- Node20 -->
<g id="Node000020" class="node">
<title>Node20</title>
<g id="a_Node000020"><a xlink:title=" ">
<polygon fill="#e0e0e0" stroke="#999999" points="115,-184 0,-184 0,-165 115,-165 115,-184"/>
<text text-anchor="middle" x="57.5" y="-172" font-family="Helvetica,sans-Serif" font-size="10.00">ecs/SparseArray.hpp</text>
</a>
</g>
</g>
<!-- Node18&#45;&gt;Node20 -->
<g id="edge22_Node000018_Node000020" class="edge">
<title>Node18&#45;&gt;Node20</title>
<g id="a_edge22_Node000018_Node000020"><a xlink:title=" ">
<path fill="none" stroke="#63b8ff" d="M213.62,-219.98C182.12,-211.01 132.33,-196.82 97.47,-186.89"/>
<polygon fill="#63b8ff" stroke="#63b8ff" points="98.19,-183.46 87.62,-184.08 96.28,-190.19 98.19,-183.46"/>
</a>
</g>
</g>
<!-- Node28&#45;&gt;Node4 -->
<g id="edge31_Node000028_Node000004" class="edge">
<title>Node28&#45;&gt;Node4</title>
<g id="a_edge31_Node000028_Node000004"><a xlink:title=" ">
<path fill="none" stroke="#63b8ff" d="M1022.81,-220.83C1025.75,-220.54 1028.65,-220.27 1031.5,-220 1234.13,-201.1 1289.1,-213.67 1494.15,-183.99"/>
<polygon fill="#63b8ff" stroke="#63b8ff" points="1494.95,-187.41 1504.34,-182.5 1493.94,-180.49 1494.95,-187.41"/>
</a>
</g>
</g>
<!-- Node28&#45;&gt;Node5 -->
<g id="edge32_Node000028_Node000005" class="edge">
<title>Node28&#45;&gt;Node5</title>
<g id="a_edge32_Node000028_Node000005"><a xlink:title=" ">
<path fill="none" stroke="#63b8ff" d="M1022.8,-220.75C1025.74,-220.49 1028.65,-220.23 1031.5,-220 1322.52,-196.18 1396.65,-209.87 1687.5,-184 1699.56,-182.93 1712.76,-181.39 1724.36,-179.92"/>
<polygon fill="#63b8ff" stroke="#63b8ff" points="1725.01,-183.36 1734.48,-178.6 1724.11,-176.42 1725.01,-183.36"/>
</a>
</g>
</g>
<!-- Node28&#45;&gt;Node8 -->
<g id="edge34_Node000028_Node000008" class="edge">
<title>Node28&#45;&gt;Node8</title>
<g id="a_edge34_Node000028_Node000008"><a xlink:title=" ">
<path fill="none" stroke="#63b8ff" d="M1022.61,-220.86C1126.67,-209.28 1313.07,-188.16 1327.5,-184 1346.41,-178.54 1348.71,-170.86 1367.5,-165 1451.34,-138.83 1554.73,-127.34 1606.94,-122.91"/>
<polygon fill="#63b8ff" stroke="#63b8ff" points="1607.3,-126.4 1616.98,-122.1 1606.73,-119.42 1607.3,-126.4"/>
</a>
</g>
</g>
<!-- Node28&#45;&gt;Node9 -->
<g id="edge45_Node000028_Node000009" class="edge">
<title>Node28&#45;&gt;Node9</title>
<g id="a_edge45_Node000028_Node000009"><a xlink:title=" ">
<path fill="none" stroke="#63b8ff" d="M884.15,-220.97C880.89,-220.63 877.66,-220.31 874.5,-220 698.77,-202.7 652.06,-202.41 473.37,-184.17"/>
<polygon fill="#63b8ff" stroke="#63b8ff" points="473.67,-180.68 463.37,-183.14 472.96,-187.65 473.67,-180.68"/>
</a>
</g>
</g>
<!-- Node28&#45;&gt;Node14 -->
<g id="edge46_Node000028_Node000014" class="edge">
<title>Node28&#45;&gt;Node14</title>
<g id="a_edge46_Node000028_Node000014"><a xlink:title=" ">
<path fill="none" stroke="#63b8ff" d="M888.34,-219.95C841.96,-212.87 778.54,-201.17 724.5,-184 720.96,-182.87 605.08,-131.67 602.5,-129 590.49,-116.56 583.74,-97.8 580.14,-83.9"/>
<polygon fill="#63b8ff" stroke="#63b8ff" points="583.52,-82.98 577.9,-74 576.7,-84.53 583.52,-82.98"/>
</a>
</g>
</g>
<!-- Node28&#45;&gt;Node15 -->
<g id="edge65_Node000028_Node000015" class="edge">
<title>Node28&#45;&gt;Node15</title>
<g id="a_edge65_Node000028_Node000015"><a xlink:title=" ">
<path fill="none" stroke="#63b8ff" d="M922.86,-219.97C844.86,-198.12 644.32,-141 635.5,-129 630.5,-122.2 630.37,-116.71 635.5,-110 671,-63.62 832.48,-33.9 929.35,-19.91"/>
<polygon fill="#63b8ff" stroke="#63b8ff" points="929.98,-23.36 939.38,-18.48 928.99,-16.42 929.98,-23.36"/>
</a>
</g>
</g>
<!-- Node28&#45;&gt;Node19 -->
<g id="edge64_Node000028_Node000019" class="edge">
<title>Node28&#45;&gt;Node19</title>
<g id="a_edge64_Node000028_Node000019"><a xlink:title=" ">
<path fill="none" stroke="#63b8ff" d="M884.15,-220.87C880.89,-220.57 877.66,-220.27 874.5,-220 633.78,-199.18 570.31,-204.63 326.17,-184.11"/>
<polygon fill="#63b8ff" stroke="#63b8ff" points="326.17,-180.6 315.91,-183.24 325.58,-187.57 326.17,-180.6"/>
</a>
</g>
</g>
<!-- Node28&#45;&gt;Node24 -->
<g id="edge66_Node000028_Node000024" class="edge">
<title>Node28&#45;&gt;Node24</title>
<g id="a_edge66_Node000028_Node000024"><a xlink:title=" ">
<path fill="none" stroke="#63b8ff" d="M892.93,-219.98C825.97,-210.57 718.25,-195.43 647.41,-185.47"/>
<polygon fill="#63b8ff" stroke="#63b8ff" points="647.62,-181.96 637.23,-184.04 646.65,-188.9 647.62,-181.96"/>
</a>
</g>
</g>
<!-- Node29 -->
<g id="Node000029" class="node">
<title>Node29</title>
<g id="a_Node000029"><a xlink:title=" ">
<polygon fill="#e0e0e0" stroke="#999999" points="1025,-129 980,-129 980,-110 1025,-110 1025,-129"/>
<text text-anchor="middle" x="1002.5" y="-117" font-family="Helvetica,sans-Serif" font-size="10.00">utility</text>
</a>
</g>
</g>
<!-- Node28&#45;&gt;Node29 -->
<g id="edge33_Node000028_Node000029" class="edge">
<title>Node28&#45;&gt;Node29</title>
<g id="a_edge33_Node000028_Node000029"><a xlink:title=" ">
<path fill="none" stroke="#63b8ff" d="M907.82,-219.99C868.53,-210.57 821.28,-192.93 842.5,-165 843.49,-163.7 923.32,-141.92 969.82,-129.33"/>
<polygon fill="#63b8ff" stroke="#63b8ff" points="971.02,-132.63 979.76,-126.64 969.19,-125.87 971.02,-132.63"/>
</a>
</g>
</g>
<!-- Node30 -->
<g id="Node000030" class="node">
<title>Node30</title>
<g id="a_Node000030"><a xlink:href="Items_8hpp.html" target="_top" xlink:title=" ">
<polygon fill="white" stroke="#666666" points="1486.5,-184 1376.5,-184 1376.5,-165 1486.5,-165 1486.5,-184"/>
<text text-anchor="middle" x="1431.5" y="-172" font-family="Helvetica,sans-Serif" font-size="10.00">Collision/Items.hpp</text>
</a>
</g>
</g>
<!-- Node28&#45;&gt;Node30 -->
<g id="edge35_Node000028_Node000030" class="edge">
<title>Node28&#45;&gt;Node30</title>
<g id="a_edge35_Node000028_Node000030"><a xlink:title=" ">
<path fill="none" stroke="#63b8ff" d="M1022.82,-220.94C1025.75,-220.63 1028.66,-220.31 1031.5,-220 1178.61,-203.98 1215.51,-201.05 1362.5,-184 1363.61,-183.87 1364.73,-183.74 1365.85,-183.61"/>
<polygon fill="#63b8ff" stroke="#63b8ff" points="1366.63,-187.04 1376.15,-182.39 1365.8,-180.09 1366.63,-187.04"/>
</a>
</g>
</g>
<!-- Node31 -->
<g id="Node000031" class="node">
<title>Node31</title>
<g id="a_Node000031"><a xlink:href="Boss_8hpp.html" target="_top" xlink:title=" ">
<polygon fill="white" stroke="#666666" points="1261,-129 1166,-129 1166,-110 1261,-110 1261,-129"/>
<text text-anchor="middle" x="1213.5" y="-117" font-family="Helvetica,sans-Serif" font-size="10.00">Player/Boss.hpp</text>
</a>
</g>
</g>
<!-- Node28&#45;&gt;Node31 -->
<g id="edge36_Node000028_Node000031" class="edge">
<title>Node28&#45;&gt;Node31</title>
<g id="a_edge36_Node000028_Node000031"><a xlink:title=" ">
<path fill="none" stroke="#63b8ff" d="M968.23,-219.95C994.67,-204.69 1049.31,-173.54 1069.5,-165 1102.05,-151.23 1140.34,-139.6 1169.25,-131.69"/>
<polygon fill="#63b8ff" stroke="#63b8ff" points="1170.32,-135.03 1179.06,-129.05 1168.5,-128.27 1170.32,-135.03"/>
</a>
</g>
</g>
<!-- Node32 -->
<g id="Node000032" class="node">
<title>Node32</title>
<g id="a_Node000032"><a xlink:href="Enemy_8hpp.html" target="_top" xlink:title=" ">
<polygon fill="white" stroke="#666666" points="1147.5,-129 1043.5,-129 1043.5,-110 1147.5,-110 1147.5,-129"/>
<text text-anchor="middle" x="1095.5" y="-117" font-family="Helvetica,sans-Serif" font-size="10.00">Player/Enemy.hpp</text>
</a>
</g>
</g>
<!-- Node28&#45;&gt;Node32 -->
<g id="edge39_Node000028_Node000032" class="edge">
<title>Node28&#45;&gt;Node32</title>
<g id="a_edge39_Node000028_Node000032"><a xlink:title=" ">
<path fill="none" stroke="#63b8ff" d="M927.68,-219.99C898.23,-208.92 856.48,-188.25 875.5,-165 880.63,-158.73 971.99,-141.82 1035.34,-130.74"/>
<polygon fill="#63b8ff" stroke="#63b8ff" points="1036,-134.18 1045.25,-129.02 1034.8,-127.28 1036,-134.18"/>
</a>
</g>
</g>
<!-- Node33 -->
<g id="Node000033" class="node">
<title>Node33</title>
<g id="a_Node000033"><a xlink:href="EnemySpawn_8hpp.html" target="_top" xlink:title=" ">
<polygon fill="white" stroke="#666666" points="1022,-184 885,-184 885,-165 1022,-165 1022,-184"/>
<text text-anchor="middle" x="953.5" y="-172" font-family="Helvetica,sans-Serif" font-size="10.00">Player/EnemySpawn.hpp</text>
</a>
</g>
</g>
<!-- Node28&#45;&gt;Node33 -->
<g id="edge41_Node000028_Node000033" class="edge">
<title>Node28&#45;&gt;Node33</title>
<g id="a_edge41_Node000028_Node000033"><a xlink:title=" ">
<path fill="none" stroke="#63b8ff" d="M953.5,-219.75C953.5,-212.8 953.5,-202.85 953.5,-194.13"/>
<polygon fill="#63b8ff" stroke="#63b8ff" points="957,-194.09 953.5,-184.09 950,-194.09 957,-194.09"/>
</a>
</g>
</g>
<!-- Node34 -->
<g id="Node000034" class="node">
<title>Node34</title>
<g id="a_Node000034"><a xlink:href="BossPart_8hpp.html" target="_top" xlink:title=" ">
<polygon fill="white" stroke="#666666" points="1535,-129 1392,-129 1392,-110 1535,-110 1535,-129"/>
<text text-anchor="middle" x="1463.5" y="-117" font-family="Helvetica,sans-Serif" font-size="10.00">components/BossPart.hpp</text>
</a>
</g>
</g>
<!-- Node28&#45;&gt;Node34 -->
<g id="edge47_Node000028_Node000034" class="edge">
<title>Node28&#45;&gt;Node34</title>
<g id="a_edge47_Node000028_Node000034"><a xlink:title=" ">
<path fill="none" stroke="#63b8ff" d="M1022.61,-220.47C1113.93,-209.69 1266.25,-191.08 1291.5,-184 1311.62,-178.36 1315.05,-172.64 1334.5,-165 1365.26,-152.92 1400.8,-140.8 1426.77,-132.26"/>
<polygon fill="#63b8ff" stroke="#63b8ff" points="1428.16,-135.49 1436.58,-129.06 1425.99,-128.83 1428.16,-135.49"/>
</a>
</g>
</g>
<!-- Node35 -->
<g id="Node000035" class="node">
<title>Node35</title>
<g id="a_Node000035"><a xlink:href="Force_8hpp.html" target="_top" xlink:title=" ">
<polygon fill="white" stroke="#666666" points="962,-129 835,-129 835,-110 962,-110 962,-129"/>
<text text-anchor="middle" x="898.5" y="-117" font-family="Helvetica,sans-Serif" font-size="10.00">components/Force.hpp</text>
</a>
</g>
</g>
<!-- Node28&#45;&gt;Node35 -->
<g id="edge50_Node000028_Node000035" class="edge">
<title>Node28&#45;&gt;Node35</title>
<g id="a_edge50_Node000028_Node000035"><a xlink:title=" ">
<path fill="none" stroke="#63b8ff" d="M890.15,-219.95C868.55,-213.66 846.57,-202.79 833.5,-184 819.8,-164.31 845.31,-145.61 868.28,-133.67"/>
<polygon fill="#63b8ff" stroke="#63b8ff" points="870.08,-136.68 877.52,-129.13 867,-130.4 870.08,-136.68"/>
</a>
</g>
</g>
<!-- Node36 -->
<g id="Node000036" class="node">
<title>Node36</title>
<g id="a_Node000036"><a xlink:href="Levels_8hpp.html" target="_top" xlink:title=" ">
<polygon fill="white" stroke="#666666" points="1282.5,-184 1150.5,-184 1150.5,-165 1282.5,-165 1282.5,-184"/>
<text text-anchor="middle" x="1216.5" y="-172" font-family="Helvetica,sans-Serif" font-size="10.00">components/Levels.hpp</text>
</a>
</g>
</g>
<!-- Node28&#45;&gt;Node36 -->
<g id="edge53_Node000028_Node000036" class="edge">
<title>Node28&#45;&gt;Node36</title>
<g id="a_edge53_Node000028_Node000036"><a xlink:title=" ">
<path fill="none" stroke="#63b8ff" d="M995.76,-219.98C1041.54,-210.76 1114.64,-196.03 1164.05,-186.07"/>
<polygon fill="#63b8ff" stroke="#63b8ff" points="1164.8,-189.49 1173.91,-184.08 1163.42,-182.63 1164.8,-189.49"/>
</a>
</g>
</g>
<!-- Node38 -->
<g id="Node000038" class="node">
<title>Node38</title>
<g id="a_Node000038"><a xlink:href="TileMap_8hpp.html" target="_top" xlink:title=" ">
<polygon fill="white" stroke="#666666" points="1974.5,-184 1834.5,-184 1834.5,-165 1974.5,-165 1974.5,-184"/>
<text text-anchor="middle" x="1904.5" y="-172" font-family="Helvetica,sans-Serif" font-size="10.00">components/TileMap.hpp</text>
</a>
</g>
</g>
<!-- Node28&#45;&gt;Node38 -->
<g id="edge59_Node000028_Node000038" class="edge">
<title>Node28&#45;&gt;Node38</title>
<g id="a_edge59_Node000028_Node000038"><a xlink:title=" ">
<path fill="none" stroke="#63b8ff" d="M1022.8,-220.73C1025.74,-220.47 1028.65,-220.22 1031.5,-220 1366.86,-193.77 1451.73,-204.19 1787.5,-184 1799.33,-183.29 1811.83,-182.46 1824.08,-181.61"/>
<polygon fill="#63b8ff" stroke="#63b8ff" points="1824.57,-185.08 1834.3,-180.89 1824.08,-178.1 1824.57,-185.08"/>
</a>
</g>
</g>
<!-- Node28&#45;&gt;Node39 -->
<g id="edge63_Node000028_Node000039" class="edge">
<title>Node28&#45;&gt;Node39</title>
<g id="a_edge63_Node000028_Node000039"><a xlink:title=" ">
<path fill="none" stroke="#63b8ff" d="M1022.81,-220.79C1025.74,-220.52 1028.65,-220.25 1031.5,-220 1268.71,-199.21 1331.75,-209.53 1572.23,-184.05"/>
<polygon fill="#63b8ff" stroke="#63b8ff" points="1572.76,-187.51 1582.33,-182.97 1572.02,-180.55 1572.76,-187.51"/>
</a>
</g>
</g>
<!-- Node40 -->
<g id="Node000040" class="node">
<title>Node40</title>
<g id="a_Node000040"><a xlink:title=" ">
<polygon fill="#e0e0e0" stroke="#999999" points="1132,-184 1079,-184 1079,-165 1132,-165 1132,-184"/>
<text text-anchor="middle" x="1105.5" y="-172" font-family="Helvetica,sans-Serif" font-size="10.00">stdlib.h</text>
</a>
</g>
</g>
<!-- Node28&#45;&gt;Node40 -->
<g id="edge67_Node000028_Node000040" class="edge">
<title>Node28&#45;&gt;Node40</title>
<g id="a_edge67_Node000028_Node000040"><a xlink:title=" ">
<path fill="none" stroke="#63b8ff" d="M977.92,-219.98C1003.22,-211.16 1042.95,-197.31 1071.36,-187.41"/>
<polygon fill="#63b8ff" stroke="#63b8ff" points="1072.6,-190.68 1080.89,-184.08 1070.29,-184.07 1072.6,-190.68"/>
</a>
</g>
</g>
<!-- Node31&#45;&gt;Node12 -->
<g id="edge38_Node000031_Node000012" class="edge">
<title>Node31&#45;&gt;Node12</title>
<g id="a_edge38_Node000031_Node000012"><a xlink:title=" ">
<path fill="none" stroke="#63b8ff" d="M1176.55,-109.98C1136.93,-100.86 1073.91,-86.33 1030.73,-76.38"/>
<polygon fill="#63b8ff" stroke="#63b8ff" points="1031.27,-72.92 1020.74,-74.08 1029.7,-79.74 1031.27,-72.92"/>
</a>
</g>
</g>
<!-- Node31&#45;&gt;Node15 -->
<g id="edge37_Node000031_Node000015" class="edge">
<title>Node31&#45;&gt;Node15</title>
<g id="a_edge37_Node000031_Node000015"><a xlink:title=" ">
<path fill="none" stroke="#63b8ff" d="M1196.67,-109.84C1160.02,-91 1072.81,-46.14 1029.22,-23.73"/>
<polygon fill="#63b8ff" stroke="#63b8ff" points="1030.61,-20.51 1020.12,-19.05 1027.41,-26.73 1030.61,-20.51"/>
</a>
</g>
</g>
<!-- Node32&#45;&gt;Node15 -->
<g id="edge40_Node000032_Node000015" class="edge">
<title>Node32&#45;&gt;Node15</title>
<g id="a_edge40_Node000032_Node000015"><a xlink:title=" ">
<path fill="none" stroke="#63b8ff" d="M1087.97,-109.66C1072.6,-91.61 1037.38,-50.28 1017.62,-27.08"/>
<polygon fill="#63b8ff" stroke="#63b8ff" points="1020.02,-24.5 1010.88,-19.16 1014.7,-29.04 1020.02,-24.5"/>
</a>
</g>
</g>
<!-- Node33&#45;&gt;Node8 -->
<g id="edge43_Node000033_Node000008" class="edge">
<title>Node33&#45;&gt;Node8</title>
<g id="a_edge43_Node000033_Node000008"><a xlink:title=" ">
<path fill="none" stroke="#63b8ff" d="M1022.05,-168.43C1155.09,-158.59 1443.93,-137.12 1543.5,-129 1564.58,-127.28 1588.23,-125.21 1606.9,-123.55"/>
<polygon fill="#63b8ff" stroke="#63b8ff" points="1607.34,-127.02 1616.99,-122.64 1606.71,-120.05 1607.34,-127.02"/>
</a>
</g>
</g>
<!-- Node33&#45;&gt;Node29 -->
<g id="edge42_Node000033_Node000029" class="edge">
<title>Node33&#45;&gt;Node29</title>
<g id="a_edge42_Node000033_Node000029"><a xlink:title=" ">
<path fill="none" stroke="#63b8ff" d="M961.59,-164.75C968.66,-157.11 979.09,-145.82 987.65,-136.56"/>
<polygon fill="#63b8ff" stroke="#63b8ff" points="990.34,-138.81 994.56,-129.09 985.2,-134.06 990.34,-138.81"/>
</a>
</g>
</g>
<!-- Node33&#45;&gt;Node32 -->
<g id="edge44_Node000033_Node000032" class="edge">
<title>Node33&#45;&gt;Node32</title>
<g id="a_edge44_Node000033_Node000032"><a xlink:title=" ">
<path fill="none" stroke="#63b8ff" d="M976.31,-164.98C999.67,-156.27 1036.2,-142.63 1062.67,-132.75"/>
<polygon fill="#63b8ff" stroke="#63b8ff" points="1064.13,-135.95 1072.27,-129.17 1061.68,-129.39 1064.13,-135.95"/>
</a>
</g>
</g>
<!-- Node34&#45;&gt;Node12 -->
<g id="edge49_Node000034_Node000012" class="edge">
<title>Node34&#45;&gt;Node12</title>
<g id="a_edge49_Node000034_Node000012"><a xlink:title=" ">
<path fill="none" stroke="#63b8ff" d="M1391.9,-110.59C1294.33,-99.82 1121.92,-80.78 1035.68,-71.26"/>
<polygon fill="#63b8ff" stroke="#63b8ff" points="1035.92,-67.77 1025.6,-70.15 1035.16,-74.72 1035.92,-67.77"/>
</a>
</g>
</g>
<!-- Node34&#45;&gt;Node15 -->
<g id="edge48_Node000034_Node000015" class="edge">
<title>Node34&#45;&gt;Node15</title>
<g id="a_edge48_Node000034_Node000015"><a xlink:title=" ">
<path fill="none" stroke="#63b8ff" d="M1454.93,-109.71C1440.45,-95.47 1409.59,-67.72 1377.5,-55 1324.62,-34.05 1170.88,-21.02 1077.79,-14.82"/>
<polygon fill="#63b8ff" stroke="#63b8ff" points="1077.79,-11.32 1067.59,-14.16 1077.34,-18.3 1077.79,-11.32"/>
</a>
</g>
</g>
<!-- Node35&#45;&gt;Node12 -->
<g id="edge51_Node000035_Node000012" class="edge">
<title>Node35&#45;&gt;Node12</title>
<g id="a_edge51_Node000035_Node000012"><a xlink:title=" ">
<path fill="none" stroke="#63b8ff" d="M912.16,-109.98C925.34,-101.77 945.53,-89.18 961.07,-79.49"/>
<polygon fill="#63b8ff" stroke="#63b8ff" points="962.96,-82.43 969.59,-74.17 959.26,-76.49 962.96,-82.43"/>
</a>
</g>
</g>
<!-- Node35&#45;&gt;Node15 -->
<g id="edge52_Node000035_Node000015" class="edge">
<title>Node35&#45;&gt;Node15</title>
<g id="a_edge52_Node000035_Node000015"><a xlink:title=" ">
<path fill="none" stroke="#63b8ff" d="M901.49,-109.82C906.33,-96.71 916.97,-71.63 932.5,-55 944.52,-42.13 961.05,-31.48 975.14,-23.83"/>
<polygon fill="#63b8ff" stroke="#63b8ff" points="977.14,-26.73 984.41,-19.02 973.92,-20.52 977.14,-26.73"/>
</a>
</g>
</g>
<!-- Node36&#45;&gt;Node8 -->
<g id="edge55_Node000036_Node000008" class="edge">
<title>Node36&#45;&gt;Node8</title>
<g id="a_edge55_Node000036_Node000008"><a xlink:title=" ">
<path fill="none" stroke="#63b8ff" d="M1282.75,-165.22C1374.47,-153.75 1536.72,-133.47 1606.76,-124.72"/>
<polygon fill="#63b8ff" stroke="#63b8ff" points="1607.31,-128.18 1616.8,-123.46 1606.44,-121.23 1607.31,-128.18"/>
</a>
</g>
</g>
<!-- Node36&#45;&gt;Node15 -->
<g id="edge58_Node000036_Node000015" class="edge">
<title>Node36&#45;&gt;Node15</title>
<g id="a_edge58_Node000036_Node000015"><a xlink:title=" ">
<path fill="none" stroke="#63b8ff" d="M1276.51,-164.99C1319.68,-156.23 1366.68,-139.57 1344.5,-110 1311.81,-66.41 1161.8,-35.59 1071.99,-20.68"/>
<polygon fill="#63b8ff" stroke="#63b8ff" points="1072.32,-17.19 1061.89,-19.03 1071.19,-24.1 1072.32,-17.19"/>
</a>
</g>
</g>
<!-- Node36&#45;&gt;Node31 -->
<g id="edge56_Node000036_Node000031" class="edge">
<title>Node36&#45;&gt;Node31</title>
<g id="a_edge56_Node000036_Node000031"><a xlink:title=" ">
<path fill="none" stroke="#63b8ff" d="M1216,-164.75C1215.61,-157.8 1215.05,-147.85 1214.55,-139.13"/>
<polygon fill="#63b8ff" stroke="#63b8ff" points="1218.05,-138.88 1213.99,-129.09 1211.06,-139.27 1218.05,-138.88"/>
</a>
</g>
</g>
<!-- Node36&#45;&gt;Node32 -->
<g id="edge57_Node000036_Node000032" class="edge">
<title>Node36&#45;&gt;Node32</title>
<g id="a_edge57_Node000036_Node000032"><a xlink:title=" ">
<path fill="none" stroke="#63b8ff" d="M1197.06,-164.98C1177.51,-156.42 1147.12,-143.11 1124.68,-133.28"/>
<polygon fill="#63b8ff" stroke="#63b8ff" points="1125.86,-129.98 1115.29,-129.17 1123.05,-136.39 1125.86,-129.98"/>
</a>
</g>
</g>
<!-- Node37 -->
<g id="Node000037" class="node">
<title>Node37</title>
<g id="a_Node000037"><a xlink:title=" ">
<polygon fill="#e0e0e0" stroke="#999999" points="1335.5,-129 1279.5,-129 1279.5,-110 1335.5,-110 1335.5,-129"/>
<text text-anchor="middle" x="1307.5" y="-117" font-family="Helvetica,sans-Serif" font-size="10.00">optional</text>
</a>
</g>
</g>
<!-- Node36&#45;&gt;Node37 -->
<g id="edge54_Node000036_Node000037" class="edge">
<title>Node36&#45;&gt;Node37</title>
<g id="a_edge54_Node000036_Node000037"><a xlink:title=" ">
<path fill="none" stroke="#63b8ff" d="M1231.12,-164.98C1245.36,-156.69 1267.25,-143.94 1283.95,-134.22"/>
<polygon fill="#63b8ff" stroke="#63b8ff" points="1285.73,-137.23 1292.61,-129.17 1282.21,-131.18 1285.73,-137.23"/>
</a>
</g>
</g>
<!-- Node38&#45;&gt;Node8 -->
<g id="edge61_Node000038_Node000008" class="edge">
<title>Node38&#45;&gt;Node8</title>
<g id="a_edge61_Node000038_Node000008"><a xlink:title=" ">
<path fill="none" stroke="#63b8ff" d="M1862.08,-164.98C1809.8,-154.49 1722.03,-136.87 1674.14,-127.25"/>
<polygon fill="#63b8ff" stroke="#63b8ff" points="1674.77,-123.81 1664.28,-125.27 1673.39,-130.67 1674.77,-123.81"/>
</a>
</g>
</g>
<!-- Node38&#45;&gt;Node15 -->
<g id="edge62_Node000038_Node000015" class="edge">
<title>Node38&#45;&gt;Node15</title>
<g id="a_edge62_Node000038_Node000015"><a xlink:title=" ">
<path fill="none" stroke="#63b8ff" d="M1875.35,-164.9C1831.53,-152.11 1745.98,-127.69 1672.5,-110 1555.98,-81.94 1526.87,-73.79 1408.5,-55 1293.6,-36.76 1159.18,-23.59 1077.74,-16.5"/>
<polygon fill="#63b8ff" stroke="#63b8ff" points="1077.85,-13 1067.59,-15.63 1077.25,-19.97 1077.85,-13"/>
</a>
</g>
</g>
<!-- Node38&#45;&gt;Node17 -->
<g id="edge60_Node000038_Node000017" class="edge">
<title>Node38&#45;&gt;Node17</title>
<g id="a_edge60_Node000038_Node000017"><a xlink:title=" ">
<path fill="none" stroke="#63b8ff" d="M1920.25,-164.98C1935.73,-156.61 1959.59,-143.7 1977.64,-133.95"/>
<polygon fill="#63b8ff" stroke="#63b8ff" points="1979.34,-137.01 1986.47,-129.17 1976.01,-130.85 1979.34,-137.01"/>
</a>
</g>
</g>
<!-- Node42&#45;&gt;Node5 -->
<g id="edge73_Node000042_Node000005" class="edge">
<title>Node42&#45;&gt;Node5</title>
<g id="a_edge73_Node000042_Node000005"><a xlink:title=" ">
<path fill="none" stroke="#63b8ff" d="M2216.33,-221.55C2211.65,-221 2207,-220.48 2202.5,-220 2020.6,-200.65 1973.09,-213.09 1792.5,-184 1791.25,-183.8 1789.98,-183.58 1788.7,-183.34"/>
<polygon fill="#63b8ff" stroke="#63b8ff" points="1789.37,-179.91 1778.87,-181.31 1787.95,-186.76 1789.37,-179.91"/>
</a>
</g>
</g>
<!-- Node42&#45;&gt;Node8 -->
<g id="edge75_Node000042_Node000008" class="edge">
<title>Node42&#45;&gt;Node8</title>
<g id="a_edge75_Node000042_Node000008"><a xlink:title=" ">
<path fill="none" stroke="#63b8ff" d="M2216.33,-221.58C2211.65,-221.03 2206.99,-220.5 2202.5,-220 2035.2,-201.56 1987.29,-230.42 1825.5,-184 1807.35,-178.79 1805.04,-171.98 1787.5,-165 1749.49,-149.87 1704.25,-136.89 1674.09,-128.92"/>
<polygon fill="#63b8ff" stroke="#63b8ff" points="1674.65,-125.45 1664.09,-126.32 1672.88,-132.23 1674.65,-125.45"/>
</a>
</g>
</g>
<!-- Node42&#45;&gt;Node17 -->
<g id="edge72_Node000042_Node000017" class="edge">
<title>Node42&#45;&gt;Node17</title>
<g id="a_edge72_Node000042_Node000017"><a xlink:title=" ">
<path fill="none" stroke="#63b8ff" d="M2249.02,-219.84C2201.66,-200.76 2088.13,-155.01 2033.25,-132.89"/>
<polygon fill="#63b8ff" stroke="#63b8ff" points="2034.29,-129.54 2023.71,-129.05 2031.68,-136.03 2034.29,-129.54"/>
</a>
</g>
</g>
<!-- Node43 -->
<g id="Node000043" class="node">
<title>Node43</title>
<g id="a_Node000043"><a xlink:title=" ">
<polygon fill="#e0e0e0" stroke="#999999" points="2296,-184 2245,-184 2245,-165 2296,-165 2296,-184"/>
<text text-anchor="middle" x="2270.5" y="-172" font-family="Helvetica,sans-Serif" font-size="10.00">variant</text>
</a>
</g>
</g>
<!-- Node42&#45;&gt;Node43 -->
<g id="edge74_Node000042_Node000043" class="edge">
<title>Node42&#45;&gt;Node43</title>
<g id="a_edge74_Node000042_Node000043"><a xlink:title=" ">
<path fill="none" stroke="#63b8ff" d="M2270.5,-219.75C2270.5,-212.8 2270.5,-202.85 2270.5,-194.13"/>
<polygon fill="#63b8ff" stroke="#63b8ff" points="2274,-194.09 2270.5,-184.09 2267,-194.09 2274,-194.09"/>
</a>
</g>
</g>
</g>
</svg>
