<?xml version="1.0" encoding="UTF-8" standalone="no"?>
<!DOCTYPE svg PUBLIC "-//W3C//DTD SVG 1.1//EN"
 "http://www.w3.org/Graphics/SVG/1.1/DTD/svg11.dtd">
<!-- Generated by graphviz version 2.43.0 (0)
 -->
<!-- Title: /home/runner/work/R&#45;Type/R&#45;Type/Client/src/scenes/SecondGameClient.hpp Pages: 1 -->
<svg width="2561pt" height="324pt"
 viewBox="0.00 0.00 2561.00 324.00" xmlns="http://www.w3.org/2000/svg" xmlns:xlink="http://www.w3.org/1999/xlink">
<g id="graph0" class="graph" transform="scale(1 1) rotate(0) translate(4 320)">
<title>/home/runner/work/R&#45;Type/R&#45;Type/Client/src/scenes/SecondGameClient.hpp</title>
<!-- Node1 -->
<g id="Node000001" class="node">
<title>Node1</title>
<g id="a_Node000001"><a xlink:title=" ">
<polygon fill="#999999" stroke="#666666" points="1507,-316 1319,-316 1319,-275 1507,-275 1507,-316"/>
<text text-anchor="start" x="1327" y="-304" font-family="Helvetica,sans-Serif" font-size="10.00">/home/runner/work/R</text>
<text text-anchor="start" x="1327" y="-293" font-family="Helvetica,sans-Serif" font-size="10.00">&#45;Type/R&#45;Type/Client</text>
<text text-anchor="middle" x="1413" y="-282" font-family="Helvetica,sans-Serif" font-size="10.00">/src/scenes/SecondGameClient.hpp</text>
</a>
</g>
</g>
<!-- Node2 -->
<g id="Node000002" class="node">
<title>Node2</title>
<g id="a_Node000002"><a xlink:title=" ">
<polygon fill="#e0e0e0" stroke="#999999" points="72,-239 0,-239 0,-220 72,-220 72,-239"/>
<text text-anchor="middle" x="36" y="-227" font-family="Helvetica,sans-Serif" font-size="10.00">SDL2/SDL.h</text>
</a>
</g>
</g>
<!-- Node1&#45;&gt;Node2 -->
<g id="edge1_Node000001_Node000002" class="edge">
<title>Node1&#45;&gt;Node2</title>
<g id="a_edge1_Node000001_Node000002"><a xlink:title=" ">
<path fill="none" stroke="#63b8ff" d="M1318.98,-294.65C1101.42,-294.1 546.63,-287.59 86,-239 84.74,-238.87 83.47,-238.72 82.19,-238.57"/>
<polygon fill="#63b8ff" stroke="#63b8ff" points="82.63,-235.1 72.25,-237.22 81.68,-242.03 82.63,-235.1"/>
</a>
</g>
</g>
<!-- Node3 -->
<g id="Node000003" class="node">
<title>Node3</title>
<g id="a_Node000003"><a xlink:title=" ">
<polygon fill="#e0e0e0" stroke="#999999" points="188,-184 128,-184 128,-165 188,-165 188,-184"/>
<text text-anchor="middle" x="158" y="-172" font-family="Helvetica,sans-Serif" font-size="10.00">iostream</text>
</a>
</g>
</g>
<!-- Node1&#45;&gt;Node3 -->
<g id="edge2_Node000001_Node000003" class="edge">
<title>Node1&#45;&gt;Node3</title>
<g id="a_edge2_Node000001_Node000003"><a xlink:title=" ">
<path fill="none" stroke="#63b8ff" d="M1318.8,-292.44C1152.96,-287.98 798.26,-274.81 501,-239 390.51,-225.69 261.9,-198.77 198.12,-184.63"/>
<polygon fill="#63b8ff" stroke="#63b8ff" points="198.61,-181.16 188.09,-182.4 197.08,-187.99 198.61,-181.16"/>
</a>
</g>
</g>
<!-- Node4 -->
<g id="Node000004" class="node">
<title>Node4</title>
<g id="a_Node000004"><a xlink:title=" ">
<polygon fill="#e0e0e0" stroke="#999999" points="250,-184 206,-184 206,-165 250,-165 250,-184"/>
<text text-anchor="middle" x="228" y="-172" font-family="Helvetica,sans-Serif" font-size="10.00">string</text>
</a>
</g>
</g>
<!-- Node1&#45;&gt;Node4 -->
<g id="edge3_Node000001_Node000004" class="edge">
<title>Node1&#45;&gt;Node4</title>
<g id="a_edge3_Node000001_Node000004"><a xlink:title=" ">
<path fill="none" stroke="#63b8ff" d="M1318.9,-290.15C1173.28,-282.87 884.71,-266.28 641,-239 498.37,-223.03 329.53,-193.82 260.18,-181.37"/>
<polygon fill="#63b8ff" stroke="#63b8ff" points="260.76,-177.92 250.3,-179.59 259.52,-184.81 260.76,-177.92"/>
</a>
</g>
</g>
<!-- Node5 -->
<g id="Node000005" class="node">
<title>Node5</title>
<g id="a_Node000005"><a xlink:title=" ">
<polygon fill="#e0e0e0" stroke="#999999" points="1595.5,-239 1502.5,-239 1502.5,-220 1595.5,-220 1595.5,-239"/>
<text text-anchor="middle" x="1549" y="-227" font-family="Helvetica,sans-Serif" font-size="10.00">unordered_map</text>
</a>
</g>
</g>
<!-- Node1&#45;&gt;Node5 -->
<g id="edge4_Node000001_Node000005" class="edge">
<title>Node1&#45;&gt;Node5</title>
<g id="a_edge4_Node000001_Node000005"><a xlink:title=" ">
<path fill="none" stroke="#63b8ff" d="M1454.54,-274.95C1476.33,-264.7 1502.41,-252.43 1521.64,-243.38"/>
<polygon fill="#63b8ff" stroke="#63b8ff" points="1523.18,-246.52 1530.74,-239.09 1520.2,-240.18 1523.18,-246.52"/>
</a>
</g>
</g>
<!-- Node6 -->
<g id="Node000006" class="node">
<title>Node6</title>
<g id="a_Node000006"><a xlink:title=" ">
<polygon fill="#e0e0e0" stroke="#999999" points="1700,-239 1614,-239 1614,-220 1700,-220 1700,-239"/>
<text text-anchor="middle" x="1657" y="-227" font-family="Helvetica,sans-Serif" font-size="10.00">unordered_set</text>
</a>
</g>
</g>
<!-- Node1&#45;&gt;Node6 -->
<g id="edge5_Node000001_Node000006" class="edge">
<title>Node1&#45;&gt;Node6</title>
<g id="a_edge5_Node000001_Node000006"><a xlink:title=" ">
<path fill="none" stroke="#63b8ff" d="M1487.53,-274.95C1529.24,-264.01 1579.73,-250.77 1614.69,-241.6"/>
<polygon fill="#63b8ff" stroke="#63b8ff" points="1615.78,-244.93 1624.56,-239.01 1614,-238.16 1615.78,-244.93"/>
</a>
</g>
</g>
<!-- Node7 -->
<g id="Node000007" class="node">
<title>Node7</title>
<g id="a_Node000007"><a xlink:title=" ">
<polygon fill="#e0e0e0" stroke="#999999" points="446.5,-129 399.5,-129 399.5,-110 446.5,-110 446.5,-129"/>
<text text-anchor="middle" x="423" y="-117" font-family="Helvetica,sans-Serif" font-size="10.00">vector</text>
</a>
</g>
</g>
<!-- Node1&#45;&gt;Node7 -->
<g id="edge6_Node000001_Node000007" class="edge">
<title>Node1&#45;&gt;Node7</title>
<g id="a_edge6_Node000001_Node000007"><a xlink:title=" ">
<path fill="none" stroke="#63b8ff" d="M1318.87,-294.08C1033.7,-291.77 194.13,-277.06 119,-184 113.7,-177.43 113.48,-171.39 119,-165 136.49,-144.76 313.29,-128.91 388.95,-123"/>
<polygon fill="#63b8ff" stroke="#63b8ff" points="389.64,-126.46 399.34,-122.2 389.1,-119.48 389.64,-126.46"/>
</a>
</g>
</g>
<!-- Node8 -->
<g id="Node000008" class="node">
<title>Node8</title>
<g id="a_Node000008"><a xlink:href="PlayerEntity_8hpp.html" target="_top" xlink:title=" ">
<polygon fill="white" stroke="#666666" points="1889.5,-184 1760.5,-184 1760.5,-165 1889.5,-165 1889.5,-184"/>
<text text-anchor="middle" x="1825" y="-172" font-family="Helvetica,sans-Serif" font-size="10.00">Player/PlayerEntity.hpp</text>
</a>
</g>
</g>
<!-- Node1&#45;&gt;Node8 -->
<g id="edge7_Node000001_Node000008" class="edge">
<title>Node1&#45;&gt;Node8</title>
<g id="a_edge7_Node000001_Node000008"><a xlink:title=" ">
<path fill="none" stroke="#63b8ff" d="M1367.62,-274.92C1340.21,-260.43 1313.78,-239.85 1332,-220 1362.05,-187.25 1671.95,-188.45 1750.28,-183.8"/>
<polygon fill="#63b8ff" stroke="#63b8ff" points="1750.73,-187.27 1760.44,-183.03 1750.2,-180.29 1750.73,-187.27"/>
</a>
</g>
</g>
<!-- Node15 -->
<g id="Node000015" class="node">
<title>Node15</title>
<g id="a_Node000015"><a xlink:href="DataMask_8hpp.html" target="_top" xlink:title=" ">
<polygon fill="white" stroke="#666666" points="780,-239 650,-239 650,-220 780,-220 780,-239"/>
<text text-anchor="middle" x="715" y="-227" font-family="Helvetica,sans-Serif" font-size="10.00">network/DataMask.hpp</text>
</a>
</g>
</g>
<!-- Node1&#45;&gt;Node15 -->
<g id="edge15_Node000001_Node000015" class="edge">
<title>Node1&#45;&gt;Node15</title>
<g id="a_edge15_Node000001_Node000015"><a xlink:title=" ">
<path fill="none" stroke="#63b8ff" d="M1318.86,-285.87C1178.83,-273.03 918.44,-249.15 790.25,-237.4"/>
<polygon fill="#63b8ff" stroke="#63b8ff" points="790.41,-233.9 780.13,-236.47 789.77,-240.87 790.41,-233.9"/>
</a>
</g>
</g>
<!-- Node17 -->
<g id="Node000017" class="node">
<title>Node17</title>
<g id="a_Node000017"><a xlink:href="InputSystem_8hpp.html" target="_top" xlink:title=" ">
<polygon fill="white" stroke="#666666" points="1484.5,-239 1341.5,-239 1341.5,-220 1484.5,-220 1484.5,-239"/>
<text text-anchor="middle" x="1413" y="-227" font-family="Helvetica,sans-Serif" font-size="10.00">systems/InputSystem.hpp</text>
</a>
</g>
</g>
<!-- Node1&#45;&gt;Node17 -->
<g id="edge17_Node000001_Node000017" class="edge">
<title>Node1&#45;&gt;Node17</title>
<g id="a_edge17_Node000001_Node000017"><a xlink:title=" ">
<path fill="none" stroke="#63b8ff" d="M1413,-274.95C1413,-266.85 1413,-257.5 1413,-249.47"/>
<polygon fill="#63b8ff" stroke="#63b8ff" points="1416.5,-249.26 1413,-239.26 1409.5,-249.26 1416.5,-249.26"/>
</a>
</g>
</g>
<!-- Node20 -->
<g id="Node000020" class="node">
<title>Node20</title>
<g id="a_Node000020"><a xlink:title=" ">
<polygon fill="#e0e0e0" stroke="#999999" points="1816,-239 1718,-239 1718,-220 1816,-220 1816,-239"/>
<text text-anchor="middle" x="1767" y="-227" font-family="Helvetica,sans-Serif" font-size="10.00">scene/Scene.hpp</text>
</a>
</g>
</g>
<!-- Node1&#45;&gt;Node20 -->
<g id="edge22_Node000001_Node000020" class="edge">
<title>Node1&#45;&gt;Node20</title>
<g id="a_edge22_Node000001_Node000020"><a xlink:title=" ">
<path fill="none" stroke="#63b8ff" d="M1507.4,-277.43C1571.99,-265.76 1655.51,-250.66 1710.13,-240.78"/>
<polygon fill="#63b8ff" stroke="#63b8ff" points="1710.76,-244.22 1719.98,-239 1709.51,-237.34 1710.76,-244.22"/>
</a>
</g>
</g>
<!-- Node21 -->
<g id="Node000021" class="node">
<title>Node21</title>
<g id="a_Node000021"><a xlink:title=" ">
<polygon fill="#e0e0e0" stroke="#999999" points="1974,-239 1834,-239 1834,-220 1974,-220 1974,-239"/>
<text text-anchor="middle" x="1904" y="-227" font-family="Helvetica,sans-Serif" font-size="10.00">scene/SceneManager.hpp</text>
</a>
</g>
</g>
<!-- Node1&#45;&gt;Node21 -->
<g id="edge23_Node000001_Node000021" class="edge">
<title>Node1&#45;&gt;Node21</title>
<g id="a_edge23_Node000001_Node000021"><a xlink:title=" ">
<path fill="none" stroke="#63b8ff" d="M1507.09,-282.24C1600.57,-270.05 1742.1,-251.6 1828.48,-240.34"/>
<polygon fill="#63b8ff" stroke="#63b8ff" points="1829.02,-243.8 1838.48,-239.04 1828.11,-236.86 1829.02,-243.8"/>
</a>
</g>
</g>
<!-- Node22 -->
<g id="Node000022" class="node">
<title>Node22</title>
<g id="a_Node000022"><a xlink:title=" ">
<polygon fill="#e0e0e0" stroke="#999999" points="2141.5,-239 1992.5,-239 1992.5,-220 2141.5,-220 2141.5,-239"/>
<text text-anchor="middle" x="2067" y="-227" font-family="Helvetica,sans-Serif" font-size="10.00">audio/AudioSubsystem.hpp</text>
</a>
</g>
</g>
<!-- Node1&#45;&gt;Node22 -->
<g id="edge24_Node000001_Node000022" class="edge">
<title>Node1&#45;&gt;Node22</title>
<g id="a_edge24_Node000001_Node000022"><a xlink:title=" ">
<path fill="none" stroke="#63b8ff" d="M1507.06,-285.45C1617.92,-274.76 1808.01,-256.35 1982.22,-239.07"/>
<polygon fill="#63b8ff" stroke="#63b8ff" points="1982.74,-242.54 1992.35,-238.07 1982.05,-235.57 1982.74,-242.54"/>
</a>
</g>
</g>
<!-- Node23 -->
<g id="Node000023" class="node">
<title>Node23</title>
<g id="a_Node000023"><a xlink:title=" ">
<polygon fill="#e0e0e0" stroke="#999999" points="1579.5,-184 1388.5,-184 1388.5,-165 1579.5,-165 1579.5,-184"/>
<text text-anchor="middle" x="1484" y="-172" font-family="Helvetica,sans-Serif" font-size="10.00">rendering/RenderingSubsystem.hpp</text>
</a>
</g>
</g>
<!-- Node1&#45;&gt;Node23 -->
<g id="edge25_Node000001_Node000023" class="edge">
<title>Node1&#45;&gt;Node23</title>
<g id="a_edge25_Node000001_Node000023"><a xlink:title=" ">
<path fill="none" stroke="#63b8ff" d="M1341.56,-274.93C1308.55,-262.25 1280.34,-243.68 1299,-220 1311.87,-203.67 1356.83,-192.63 1399.2,-185.64"/>
<polygon fill="#63b8ff" stroke="#63b8ff" points="1400,-189.06 1409.33,-184.04 1398.9,-182.15 1400,-189.06"/>
</a>
</g>
</g>
<!-- Node24 -->
<g id="Node000024" class="node">
<title>Node24</title>
<g id="a_Node000024"><a xlink:title=" ">
<polygon fill="#e0e0e0" stroke="#999999" points="2335,-239 2159,-239 2159,-220 2335,-220 2335,-239"/>
<text text-anchor="middle" x="2247" y="-227" font-family="Helvetica,sans-Serif" font-size="10.00">network/NetworkSubsystem.hpp</text>
</a>
</g>
</g>
<!-- Node1&#45;&gt;Node24 -->
<g id="edge26_Node000001_Node000024" class="edge">
<title>Node1&#45;&gt;Node24</title>
<g id="a_edge26_Node000001_Node000024"><a xlink:title=" ">
<path fill="none" stroke="#63b8ff" d="M1507.1,-287.82C1645.41,-277.92 1912.01,-258.5 2148.68,-239.18"/>
<polygon fill="#63b8ff" stroke="#63b8ff" points="2149.18,-242.65 2158.86,-238.35 2148.61,-235.68 2149.18,-242.65"/>
</a>
</g>
</g>
<!-- Node25 -->
<g id="Node000025" class="node">
<title>Node25</title>
<g id="a_Node000025"><a xlink:title=" ">
<polygon fill="#e0e0e0" stroke="#999999" points="2455,-239 2353,-239 2353,-220 2455,-220 2455,-239"/>
<text text-anchor="middle" x="2404" y="-227" font-family="Helvetica,sans-Serif" font-size="10.00">ui/UIManager.hpp</text>
</a>
</g>
</g>
<!-- Node1&#45;&gt;Node25 -->
<g id="edge27_Node000001_Node000025" class="edge">
<title>Node1&#45;&gt;Node25</title>
<g id="a_edge27_Node000001_Node000025"><a xlink:title=" ">
<path fill="none" stroke="#63b8ff" d="M1507.03,-291.42C1673.44,-285.41 2030.91,-270.01 2342.83,-239.03"/>
<polygon fill="#63b8ff" stroke="#63b8ff" points="2343.37,-242.49 2352.97,-238.02 2342.67,-235.53 2343.37,-242.49"/>
</a>
</g>
</g>
<!-- Node26 -->
<g id="Node000026" class="node">
<title>Node26</title>
<g id="a_Node000026"><a xlink:title=" ">
<polygon fill="#e0e0e0" stroke="#999999" points="2553,-239 2473,-239 2473,-220 2553,-220 2553,-239"/>
<text text-anchor="middle" x="2513" y="-227" font-family="Helvetica,sans-Serif" font-size="10.00">ui/UIText.hpp</text>
</a>
</g>
</g>
<!-- Node1&#45;&gt;Node26 -->
<g id="edge28_Node000001_Node000026" class="edge">
<title>Node1&#45;&gt;Node26</title>
<g id="a_edge28_Node000001_Node000026"><a xlink:title=" ">
<path fill="none" stroke="#63b8ff" d="M1507.16,-293.28C1689.73,-290.09 2104.65,-278.84 2462.9,-238.98"/>
<polygon fill="#63b8ff" stroke="#63b8ff" points="2463.4,-242.44 2472.94,-237.85 2462.62,-235.49 2463.4,-242.44"/>
</a>
</g>
</g>
<!-- Node27 -->
<g id="Node000027" class="node">
<title>Node27</title>
<g id="a_Node000027"><a xlink:href="EntityHelper_8hpp.html" target="_top" xlink:title=" ">
<polygon fill="white" stroke="#666666" points="990,-239 852,-239 852,-220 990,-220 990,-239"/>
<text text-anchor="middle" x="921" y="-227" font-family="Helvetica,sans-Serif" font-size="10.00">Helpers/EntityHelper.hpp</text>
</a>
</g>
</g>
<!-- Node1&#45;&gt;Node27 -->
<g id="edge29_Node000001_Node000027" class="edge">
<title>Node1&#45;&gt;Node27</title>
<g id="a_edge29_Node000001_Node000027"><a xlink:title=" ">
<path fill="none" stroke="#63b8ff" d="M1318.72,-282.24C1225.05,-270.05 1083.23,-251.6 996.67,-240.34"/>
<polygon fill="#63b8ff" stroke="#63b8ff" points="997.02,-236.86 986.65,-239.04 996.12,-243.8 997.02,-236.86"/>
</a>
</g>
</g>
<!-- Node9 -->
<g id="Node000009" class="node">
<title>Node9</title>
<g id="a_Node000009"><a xlink:title=" ">
<polygon fill="#e0e0e0" stroke="#999999" points="1857,-129 1793,-129 1793,-110 1857,-110 1857,-129"/>
<text text-anchor="middle" x="1825" y="-117" font-family="Helvetica,sans-Serif" font-size="10.00">algorithm</text>
</a>
</g>
</g>
<!-- Node8&#45;&gt;Node9 -->
<g id="edge8_Node000008_Node000009" class="edge">
<title>Node8&#45;&gt;Node9</title>
<g id="a_edge8_Node000008_Node000009"><a xlink:title=" ">
<path fill="none" stroke="#63b8ff" d="M1825,-164.75C1825,-157.8 1825,-147.85 1825,-139.13"/>
<polygon fill="#63b8ff" stroke="#63b8ff" points="1828.5,-139.09 1825,-129.09 1821.5,-139.09 1828.5,-139.09"/>
</a>
</g>
</g>
<!-- Node10 -->
<g id="Node000010" class="node">
<title>Node10</title>
<g id="a_Node000010"><a xlink:href="CollisionController_8hpp.html" target="_top" xlink:title=" ">
<polygon fill="white" stroke="#666666" points="1567,-129 1395,-129 1395,-110 1567,-110 1567,-129"/>
<text text-anchor="middle" x="1481" y="-117" font-family="Helvetica,sans-Serif" font-size="10.00">Collision/CollisionController.hpp</text>
</a>
</g>
</g>
<!-- Node8&#45;&gt;Node10 -->
<g id="edge9_Node000008_Node000010" class="edge">
<title>Node8&#45;&gt;Node10</title>
<g id="a_edge9_Node000008_Node000010"><a xlink:title=" ">
<path fill="none" stroke="#63b8ff" d="M1769.73,-164.98C1708.89,-155.61 1611.14,-140.55 1546.5,-130.59"/>
<polygon fill="#63b8ff" stroke="#63b8ff" points="1546.83,-127.1 1536.42,-129.04 1545.77,-134.02 1546.83,-127.1"/>
</a>
</g>
</g>
<!-- Node12 -->
<g id="Node000012" class="node">
<title>Node12</title>
<g id="a_Node000012"><a xlink:href="Weapon_8hpp.html" target="_top" xlink:title=" ">
<polygon fill="white" stroke="#666666" points="1719,-129 1609,-129 1609,-110 1719,-110 1719,-129"/>
<text text-anchor="middle" x="1664" y="-117" font-family="Helvetica,sans-Serif" font-size="10.00">Player/Weapon.hpp</text>
</a>
</g>
</g>
<!-- Node8&#45;&gt;Node12 -->
<g id="edge11_Node000008_Node000012" class="edge">
<title>Node8&#45;&gt;Node12</title>
<g id="a_edge11_Node000008_Node000012"><a xlink:title=" ">
<path fill="none" stroke="#63b8ff" d="M1799.13,-164.98C1772.22,-156.13 1729.88,-142.19 1699.77,-132.28"/>
<polygon fill="#63b8ff" stroke="#63b8ff" points="1700.66,-128.88 1690.07,-129.08 1698.47,-135.53 1700.66,-128.88"/>
</a>
</g>
</g>
<!-- Node14 -->
<g id="Node000014" class="node">
<title>Node14</title>
<g id="a_Node000014"><a xlink:title=" ">
<polygon fill="#e0e0e0" stroke="#999999" points="933,-19 805,-19 805,0 933,0 933,-19"/>
<text text-anchor="middle" x="869" y="-7" font-family="Helvetica,sans-Serif" font-size="10.00">physics/Physics2D.hpp</text>
</a>
</g>
</g>
<!-- Node8&#45;&gt;Node14 -->
<g id="edge14_Node000008_Node000014" class="edge">
<title>Node8&#45;&gt;Node14</title>
<g id="a_edge14_Node000008_Node000014"><a xlink:title=" ">
<path fill="none" stroke="#63b8ff" d="M1814.7,-164.83C1797.76,-151.03 1762.43,-124.18 1728,-110 1615.16,-63.53 1579.86,-71.84 1459,-55 1274.51,-29.29 1055.35,-17.67 943.2,-13.09"/>
<polygon fill="#63b8ff" stroke="#63b8ff" points="943.15,-9.58 933.02,-12.68 942.87,-16.58 943.15,-9.58"/>
</a>
</g>
</g>
<!-- Node11 -->
<g id="Node000011" class="node">
<title>Node11</title>
<g id="a_Node000011"><a xlink:title=" ">
<polygon fill="#e0e0e0" stroke="#999999" points="792,-74 708,-74 708,-55 792,-55 792,-74"/>
<text text-anchor="middle" x="750" y="-62" font-family="Helvetica,sans-Serif" font-size="10.00">ecs/Entity.hpp</text>
</a>
</g>
</g>
<!-- Node10&#45;&gt;Node11 -->
<g id="edge10_Node000010_Node000011" class="edge">
<title>Node10&#45;&gt;Node11</title>
<g id="a_edge10_Node000010_Node000011"><a xlink:title=" ">
<path fill="none" stroke="#63b8ff" d="M1395,-112.26C1241.92,-101.17 926.6,-78.3 802.16,-69.28"/>
<polygon fill="#63b8ff" stroke="#63b8ff" points="802.35,-65.79 792.12,-68.55 801.84,-72.77 802.35,-65.79"/>
</a>
</g>
</g>
<!-- Node13 -->
<g id="Node000013" class="node">
<title>Node13</title>
<g id="a_Node000013"><a xlink:href="Projectile_8hpp.html" target="_top" xlink:title=" ">
<polygon fill="white" stroke="#666666" points="1450,-74 1270,-74 1270,-55 1450,-55 1450,-74"/>
<text text-anchor="middle" x="1360" y="-62" font-family="Helvetica,sans-Serif" font-size="10.00">components/Player/Projectile.hpp</text>
</a>
</g>
</g>
<!-- Node12&#45;&gt;Node13 -->
<g id="edge12_Node000012_Node000013" class="edge">
<title>Node12&#45;&gt;Node13</title>
<g id="a_edge12_Node000012_Node000013"><a xlink:title=" ">
<path fill="none" stroke="#63b8ff" d="M1615.16,-109.98C1561.72,-100.67 1476.08,-85.74 1418.94,-75.78"/>
<polygon fill="#63b8ff" stroke="#63b8ff" points="1419.43,-72.31 1408.97,-74.04 1418.22,-79.2 1419.43,-72.31"/>
</a>
</g>
</g>
<!-- Node13&#45;&gt;Node14 -->
<g id="edge13_Node000013_Node000014" class="edge">
<title>Node13&#45;&gt;Node14</title>
<g id="a_edge13_Node000013_Node000014"><a xlink:title=" ">
<path fill="none" stroke="#63b8ff" d="M1281.11,-54.98C1187.96,-44.93 1034.22,-28.33 943.18,-18.51"/>
<polygon fill="#63b8ff" stroke="#63b8ff" points="943.53,-15.02 933.21,-17.43 942.77,-21.98 943.53,-15.02"/>
</a>
</g>
</g>
<!-- Node16 -->
<g id="Node000016" class="node">
<title>Node16</title>
<g id="a_Node000016"><a xlink:title=" ">
<polygon fill="#e0e0e0" stroke="#999999" points="288,-129 238,-129 238,-110 288,-110 288,-129"/>
<text text-anchor="middle" x="263" y="-117" font-family="Helvetica,sans-Serif" font-size="10.00">cstdint</text>
</a>
</g>
</g>
<!-- Node15&#45;&gt;Node16 -->
<g id="edge16_Node000015_Node000016" class="edge">
<title>Node15&#45;&gt;Node16</title>
<g id="a_edge16_Node000015_Node000016"><a xlink:title=" ">
<path fill="none" stroke="#63b8ff" d="M649.99,-224.64C541.07,-217.7 330.73,-202.16 302,-184 285.63,-173.65 275.07,-153.7 269.12,-138.91"/>
<polygon fill="#63b8ff" stroke="#63b8ff" points="272.32,-137.45 265.59,-129.26 265.74,-139.86 272.32,-137.45"/>
</a>
</g>
</g>
<!-- Node17&#45;&gt;Node8 -->
<g id="edge18_Node000017_Node000008" class="edge">
<title>Node17&#45;&gt;Node8</title>
<g id="a_edge18_Node000017_Node000008"><a xlink:title=" ">
<path fill="none" stroke="#63b8ff" d="M1479.19,-219.98C1553.21,-210.46 1672.82,-195.08 1750.17,-185.13"/>
<polygon fill="#63b8ff" stroke="#63b8ff" points="1750.86,-188.57 1760.33,-183.82 1749.96,-181.62 1750.86,-188.57"/>
</a>
</g>
</g>
<!-- Node17&#45;&gt;Node14 -->
<g id="edge19_Node000017_Node000014" class="edge">
<title>Node17&#45;&gt;Node14</title>
<g id="a_edge19_Node000017_Node000014"><a xlink:title=" ">
<path fill="none" stroke="#63b8ff" d="M1484.55,-220.93C1487.74,-220.61 1490.9,-220.3 1494,-220 1538.97,-215.64 1868.5,-217.33 1899,-184 1904.7,-177.77 1901.25,-173.14 1899,-165 1891.39,-137.53 1889.51,-126.12 1866,-110 1790.26,-58.09 1161.21,-24.12 943.11,-13.81"/>
<polygon fill="#63b8ff" stroke="#63b8ff" points="943.19,-10.31 933.04,-13.34 942.87,-17.3 943.19,-10.31"/>
</a>
</g>
</g>
<!-- Node18 -->
<g id="Node000018" class="node">
<title>Node18</title>
<g id="a_Node000018"><a xlink:title=" ">
<polygon fill="#e0e0e0" stroke="#999999" points="1742,-184 1598,-184 1598,-165 1742,-165 1742,-184"/>
<text text-anchor="middle" x="1670" y="-172" font-family="Helvetica,sans-Serif" font-size="10.00">input/InputSubsystem.hpp</text>
</a>
</g>
</g>
<!-- Node17&#45;&gt;Node18 -->
<g id="edge20_Node000017_Node000018" class="edge">
<title>Node17&#45;&gt;Node18</title>
<g id="a_edge20_Node000017_Node000018"><a xlink:title=" ">
<path fill="none" stroke="#63b8ff" d="M1454.29,-219.98C1498.93,-210.78 1570.16,-196.09 1618.45,-186.13"/>
<polygon fill="#63b8ff" stroke="#63b8ff" points="1619.3,-189.53 1628.38,-184.08 1617.88,-182.67 1619.3,-189.53"/>
</a>
</g>
</g>
<!-- Node19 -->
<g id="Node000019" class="node">
<title>Node19</title>
<g id="a_Node000019"><a xlink:title=" ">
<polygon fill="#e0e0e0" stroke="#999999" points="2061.5,-184 1946.5,-184 1946.5,-165 2061.5,-165 2061.5,-184"/>
<text text-anchor="middle" x="2004" y="-172" font-family="Helvetica,sans-Serif" font-size="10.00">ecs/SparseArray.hpp</text>
</a>
</g>
</g>
<!-- Node17&#45;&gt;Node19 -->
<g id="edge21_Node000017_Node000019" class="edge">
<title>Node17&#45;&gt;Node19</title>
<g id="a_edge21_Node000017_Node000019"><a xlink:title=" ">
<path fill="none" stroke="#63b8ff" d="M1484.54,-220.9C1487.74,-220.59 1490.9,-220.29 1494,-220 1688.47,-201.81 1737.65,-203.45 1932,-184 1933.3,-183.87 1934.62,-183.74 1935.95,-183.6"/>
<polygon fill="#63b8ff" stroke="#63b8ff" points="1936.68,-187.04 1946.25,-182.5 1935.94,-180.08 1936.68,-187.04"/>
</a>
</g>
</g>
<!-- Node27&#45;&gt;Node3 -->
<g id="edge30_Node000027_Node000003" class="edge">
<title>Node27&#45;&gt;Node3</title>
<g id="a_edge30_Node000027_Node000003"><a xlink:title=" ">
<path fill="none" stroke="#63b8ff" d="M851.81,-224C831.57,-222.69 809.4,-221.28 789,-220 529.26,-203.74 459.86,-219.76 198.34,-183.96"/>
<polygon fill="#63b8ff" stroke="#63b8ff" points="198.54,-180.45 188.15,-182.55 197.58,-187.39 198.54,-180.45"/>
</a>
</g>
</g>
<!-- Node27&#45;&gt;Node4 -->
<g id="edge31_Node000027_Node000004" class="edge">
<title>Node27&#45;&gt;Node4</title>
<g id="a_edge31_Node000027_Node000004"><a xlink:title=" ">
<path fill="none" stroke="#63b8ff" d="M851.99,-223.91C713.74,-214.66 407.06,-193.81 302,-184 288.42,-182.73 273.47,-181.07 260.58,-179.55"/>
<polygon fill="#63b8ff" stroke="#63b8ff" points="260.66,-176.03 250.32,-178.31 259.83,-182.98 260.66,-176.03"/>
</a>
</g>
</g>
<!-- Node27&#45;&gt;Node7 -->
<g id="edge33_Node000027_Node000007" class="edge">
<title>Node27&#45;&gt;Node7</title>
<g id="a_edge33_Node000027_Node000007"><a xlink:title=" ">
<path fill="none" stroke="#63b8ff" d="M851.9,-222.07C765.18,-213.59 621.55,-198.1 570,-184 525.19,-171.75 476.24,-148.43 447.65,-133.72"/>
<polygon fill="#63b8ff" stroke="#63b8ff" points="449.26,-130.61 438.77,-129.09 446.02,-136.82 449.26,-130.61"/>
</a>
</g>
</g>
<!-- Node27&#45;&gt;Node8 -->
<g id="edge44_Node000027_Node000008" class="edge">
<title>Node27&#45;&gt;Node8</title>
<g id="a_edge44_Node000027_Node000008"><a xlink:title=" ">
<path fill="none" stroke="#63b8ff" d="M990.23,-226.21C1131.12,-221.25 1461.48,-208.02 1750.2,-184.01"/>
<polygon fill="#63b8ff" stroke="#63b8ff" points="1750.78,-187.47 1760.45,-183.15 1750.19,-180.5 1750.78,-187.47"/>
</a>
</g>
</g>
<!-- Node27&#45;&gt;Node13 -->
<g id="edge45_Node000027_Node000013" class="edge">
<title>Node27&#45;&gt;Node13</title>
<g id="a_edge45_Node000027_Node000013"><a xlink:title=" ">
<path fill="none" stroke="#63b8ff" d="M990.4,-229.4C1090.75,-229.29 1269.79,-223.35 1319,-184 1349.51,-159.6 1357.39,-111.18 1359.38,-84.41"/>
<polygon fill="#63b8ff" stroke="#63b8ff" points="1362.89,-84.26 1359.93,-74.09 1355.9,-83.89 1362.89,-84.26"/>
</a>
</g>
</g>
<!-- Node27&#45;&gt;Node14 -->
<g id="edge64_Node000027_Node000014" class="edge">
<title>Node27&#45;&gt;Node14</title>
<g id="a_edge64_Node000027_Node000014"><a xlink:title=" ">
<path fill="none" stroke="#63b8ff" d="M851.79,-223.85C697.68,-213.42 339.35,-188.7 335,-184 199.94,-38.29 618.42,-14.62 794.64,-11.03"/>
<polygon fill="#63b8ff" stroke="#63b8ff" points="794.94,-14.52 804.88,-10.83 794.81,-7.52 794.94,-14.52"/>
</a>
</g>
</g>
<!-- Node27&#45;&gt;Node18 -->
<g id="edge63_Node000027_Node000018" class="edge">
<title>Node27&#45;&gt;Node18</title>
<g id="a_edge63_Node000027_Node000018"><a xlink:title=" ">
<path fill="none" stroke="#63b8ff" d="M990.3,-224.75C1109.93,-218.1 1363.15,-203.16 1587.6,-184.09"/>
<polygon fill="#63b8ff" stroke="#63b8ff" points="1587.92,-187.57 1597.59,-183.24 1587.33,-180.6 1587.92,-187.57"/>
</a>
</g>
</g>
<!-- Node27&#45;&gt;Node23 -->
<g id="edge65_Node000027_Node000023" class="edge">
<title>Node27&#45;&gt;Node23</title>
<g id="a_edge65_Node000027_Node000023"><a xlink:title=" ">
<path fill="none" stroke="#63b8ff" d="M990.03,-222C1088.51,-212.73 1269.92,-195.65 1383.37,-184.97"/>
<polygon fill="#63b8ff" stroke="#63b8ff" points="1383.82,-188.45 1393.45,-184.02 1383.16,-181.48 1383.82,-188.45"/>
</a>
</g>
</g>
<!-- Node28 -->
<g id="Node000028" class="node">
<title>Node28</title>
<g id="a_Node000028"><a xlink:title=" ">
<polygon fill="#e0e0e0" stroke="#999999" points="1164.5,-129 1119.5,-129 1119.5,-110 1164.5,-110 1164.5,-129"/>
<text text-anchor="middle" x="1142" y="-117" font-family="Helvetica,sans-Serif" font-size="10.00">utility</text>
</a>
</g>
</g>
<!-- Node27&#45;&gt;Node28 -->
<g id="edge32_Node000027_Node000028" class="edge">
<title>Node27&#45;&gt;Node28</title>
<g id="a_edge32_Node000027_Node000028"><a xlink:title=" ">
<path fill="none" stroke="#63b8ff" d="M927.98,-219.74C939.34,-206.07 963.17,-179.69 989,-165 994.36,-161.95 1066.4,-141.58 1109.69,-129.49"/>
<polygon fill="#63b8ff" stroke="#63b8ff" points="1110.81,-132.81 1119.5,-126.75 1108.92,-126.07 1110.81,-132.81"/>
</a>
</g>
</g>
<!-- Node29 -->
<g id="Node000029" class="node">
<title>Node29</title>
<g id="a_Node000029"><a xlink:href="Items_8hpp.html" target="_top" xlink:title=" ">
<polygon fill="white" stroke="#666666" points="1108,-184 998,-184 998,-165 1108,-165 1108,-184"/>
<text text-anchor="middle" x="1053" y="-172" font-family="Helvetica,sans-Serif" font-size="10.00">Collision/Items.hpp</text>
</a>
</g>
</g>
<!-- Node27&#45;&gt;Node29 -->
<g id="edge34_Node000027_Node000029" class="edge">
<title>Node27&#45;&gt;Node29</title>
<g id="a_edge34_Node000027_Node000029"><a xlink:title=" ">
<path fill="none" stroke="#63b8ff" d="M942.21,-219.98C963.73,-211.34 997.28,-197.87 1021.83,-188.02"/>
<polygon fill="#63b8ff" stroke="#63b8ff" points="1023.43,-191.14 1031.41,-184.17 1020.82,-184.65 1023.43,-191.14"/>
</a>
</g>
</g>
<!-- Node30 -->
<g id="Node000030" class="node">
<title>Node30</title>
<g id="a_Node000030"><a xlink:href="Boss_8hpp.html" target="_top" xlink:title=" ">
<polygon fill="white" stroke="#666666" points="720.5,-129 625.5,-129 625.5,-110 720.5,-110 720.5,-129"/>
<text text-anchor="middle" x="673" y="-117" font-family="Helvetica,sans-Serif" font-size="10.00">Player/Boss.hpp</text>
</a>
</g>
</g>
<!-- Node27&#45;&gt;Node30 -->
<g id="edge35_Node000027_Node000030" class="edge">
<title>Node27&#45;&gt;Node30</title>
<g id="a_edge35_Node000027_Node000030"><a xlink:title=" ">
<path fill="none" stroke="#63b8ff" d="M851.7,-223.45C764.13,-216.35 622.82,-202.21 607,-184 590.73,-165.26 618.83,-145.77 643.24,-133.41"/>
<polygon fill="#63b8ff" stroke="#63b8ff" points="644.83,-136.53 652.32,-129.04 641.79,-130.22 644.83,-136.53"/>
</a>
</g>
</g>
<!-- Node31 -->
<g id="Node000031" class="node">
<title>Node31</title>
<g id="a_Node000031"><a xlink:href="Enemy_8hpp.html" target="_top" xlink:title=" ">
<polygon fill="white" stroke="#666666" points="1101,-129 997,-129 997,-110 1101,-110 1101,-129"/>
<text text-anchor="middle" x="1049" y="-117" font-family="Helvetica,sans-Serif" font-size="10.00">Player/Enemy.hpp</text>
</a>
</g>
</g>
<!-- Node27&#45;&gt;Node31 -->
<g id="edge38_Node000027_Node000031" class="edge">
<title>Node27&#45;&gt;Node31</title>
<g id="a_edge38_Node000027_Node000031"><a xlink:title=" ">
<path fill="none" stroke="#63b8ff" d="M990.05,-225.33C1094.23,-219.83 1281.66,-206.85 1302,-184 1307.61,-177.69 1307.43,-171.47 1302,-165 1295.85,-157.67 1184.17,-140.16 1111.26,-129.42"/>
<polygon fill="#63b8ff" stroke="#63b8ff" points="1111.65,-125.94 1101.25,-127.95 1110.64,-132.86 1111.65,-125.94"/>
</a>
</g>
</g>
<!-- Node32 -->
<g id="Node000032" class="node">
<title>Node32</title>
<g id="a_Node000032"><a xlink:href="EnemySpawn_8hpp.html" target="_top" xlink:title=" ">
<polygon fill="white" stroke="#666666" points="941.5,-184 804.5,-184 804.5,-165 941.5,-165 941.5,-184"/>
<text text-anchor="middle" x="873" y="-172" font-family="Helvetica,sans-Serif" font-size="10.00">Player/EnemySpawn.hpp</text>
</a>
</g>
</g>
<!-- Node27&#45;&gt;Node32 -->
<g id="edge40_Node000027_Node000032" class="edge">
<title>Node27&#45;&gt;Node32</title>
<g id="a_edge40_Node000027_Node000032"><a xlink:title=" ">
<path fill="none" stroke="#63b8ff" d="M913.07,-219.75C906.15,-212.11 895.93,-200.82 887.55,-191.56"/>
<polygon fill="#63b8ff" stroke="#63b8ff" points="890.09,-189.15 880.78,-184.09 884.9,-193.85 890.09,-189.15"/>
</a>
</g>
</g>
<!-- Node33 -->
<g id="Node000033" class="node">
<title>Node33</title>
<g id="a_Node000033"><a xlink:href="BossPart_8hpp.html" target="_top" xlink:title=" ">
<polygon fill="white" stroke="#666666" points="607.5,-129 464.5,-129 464.5,-110 607.5,-110 607.5,-129"/>
<text text-anchor="middle" x="536" y="-117" font-family="Helvetica,sans-Serif" font-size="10.00">components/BossPart.hpp</text>
</a>
</g>
</g>
<!-- Node27&#45;&gt;Node33 -->
<g id="edge46_Node000027_Node000033" class="edge">
<title>Node27&#45;&gt;Node33</title>
<g id="a_edge46_Node000027_Node000033"><a xlink:title=" ">
<path fill="none" stroke="#63b8ff" d="M852,-224.15C770.96,-218.14 642.1,-205.53 599,-184 577.6,-173.31 559.15,-152.49 547.84,-137.61"/>
<polygon fill="#63b8ff" stroke="#63b8ff" points="550.47,-135.28 541.76,-129.25 544.81,-139.4 550.47,-135.28"/>
</a>
</g>
</g>
<!-- Node34 -->
<g id="Node000034" class="node">
<title>Node34</title>
<g id="a_Node000034"><a xlink:href="Force_8hpp.html" target="_top" xlink:title=" ">
<polygon fill="white" stroke="#666666" points="978.5,-129 851.5,-129 851.5,-110 978.5,-110 978.5,-129"/>
<text text-anchor="middle" x="915" y="-117" font-family="Helvetica,sans-Serif" font-size="10.00">components/Force.hpp</text>
</a>
</g>
</g>
<!-- Node27&#45;&gt;Node34 -->
<g id="edge49_Node000027_Node000034" class="edge">
<title>Node27&#45;&gt;Node34</title>
<g id="a_edge49_Node000027_Node000034"><a xlink:title=" ">
<path fill="none" stroke="#63b8ff" d="M851.92,-219.97C830.11,-213.65 808.26,-202.75 795,-184 776.07,-157.24 813.12,-140.81 850.92,-131.39"/>
<polygon fill="#63b8ff" stroke="#63b8ff" points="852.09,-134.71 861.03,-129.03 850.5,-127.9 852.09,-134.71"/>
</a>
</g>
</g>
<!-- Node35 -->
<g id="Node000035" class="node">
<title>Node35</title>
<g id="a_Node000035"><a xlink:href="Levels_8hpp.html" target="_top" xlink:title=" ">
<polygon fill="white" stroke="#666666" points="748,-184 616,-184 616,-165 748,-165 748,-184"/>
<text text-anchor="middle" x="682" y="-172" font-family="Helvetica,sans-Serif" font-size="10.00">components/Levels.hpp</text>
</a>
</g>
</g>
<!-- Node27&#45;&gt;Node35 -->
<g id="edge52_Node000027_Node000035" class="edge">
<title>Node27&#45;&gt;Node35</title>
<g id="a_edge52_Node000027_Node000035"><a xlink:title=" ">
<path fill="none" stroke="#63b8ff" d="M882.6,-219.98C841.26,-210.82 775.4,-196.21 730.51,-186.26"/>
<polygon fill="#63b8ff" stroke="#63b8ff" points="731.22,-182.83 720.7,-184.08 729.71,-189.66 731.22,-182.83"/>
</a>
</g>
</g>
<!-- Node37 -->
<g id="Node000037" class="node">
<title>Node37</title>
<g id="a_Node000037"><a xlink:href="TileMap_8hpp.html" target="_top" xlink:title=" ">
<polygon fill="white" stroke="#666666" points="484,-184 344,-184 344,-165 484,-165 484,-184"/>
<text text-anchor="middle" x="414" y="-172" font-family="Helvetica,sans-Serif" font-size="10.00">components/TileMap.hpp</text>
</a>
</g>
</g>
<!-- Node27&#45;&gt;Node37 -->
<g id="edge58_Node000027_Node000037" class="edge">
<title>Node27&#45;&gt;Node37</title>
<g id="a_edge58_Node000027_Node000037"><a xlink:title=" ">
<path fill="none" stroke="#63b8ff" d="M851.83,-221.27C758.66,-211.53 593.18,-194.23 494.52,-183.92"/>
<polygon fill="#63b8ff" stroke="#63b8ff" points="494.61,-180.41 484.3,-182.85 493.88,-187.37 494.61,-180.41"/>
</a>
</g>
</g>
<!-- Node38 -->
<g id="Node000038" class="node">
<title>Node38</title>
<g id="a_Node000038"><a xlink:title=" ">
<polygon fill="#e0e0e0" stroke="#999999" points="1222,-184 1126,-184 1126,-165 1222,-165 1222,-184"/>
<text text-anchor="middle" x="1174" y="-172" font-family="Helvetica,sans-Serif" font-size="10.00">ecs/Registry.hpp</text>
</a>
</g>
</g>
<!-- Node27&#45;&gt;Node38 -->
<g id="edge62_Node000027_Node000038" class="edge">
<title>Node27&#45;&gt;Node38</title>
<g id="a_edge62_Node000027_Node000038"><a xlink:title=" ">
<path fill="none" stroke="#63b8ff" d="M961.65,-219.98C1005.5,-210.8 1075.42,-196.15 1122.95,-186.19"/>
<polygon fill="#63b8ff" stroke="#63b8ff" points="1123.96,-189.56 1133.03,-184.08 1122.53,-182.71 1123.96,-189.56"/>
</a>
</g>
</g>
<!-- Node39 -->
<g id="Node000039" class="node">
<title>Node39</title>
<g id="a_Node000039"><a xlink:title=" ">
<polygon fill="#e0e0e0" stroke="#999999" points="1293.5,-184 1240.5,-184 1240.5,-165 1293.5,-165 1293.5,-184"/>
<text text-anchor="middle" x="1267" y="-172" font-family="Helvetica,sans-Serif" font-size="10.00">stdlib.h</text>
</a>
</g>
</g>
<!-- Node27&#45;&gt;Node39 -->
<g id="edge66_Node000027_Node000039" class="edge">
<title>Node27&#45;&gt;Node39</title>
<g id="a_edge66_Node000027_Node000039"><a xlink:title=" ">
<path fill="none" stroke="#63b8ff" d="M990.24,-220.36C1050.98,-212.81 1141.87,-200.51 1230.38,-183.96"/>
<polygon fill="#63b8ff" stroke="#63b8ff" points="1231.14,-187.38 1240.32,-182.08 1229.84,-180.5 1231.14,-187.38"/>
</a>
</g>
</g>
<!-- Node30&#45;&gt;Node11 -->
<g id="edge37_Node000030_Node000011" class="edge">
<title>Node30&#45;&gt;Node11</title>
<g id="a_edge37_Node000030_Node000011"><a xlink:title=" ">
<path fill="none" stroke="#63b8ff" d="M685.37,-109.98C697.09,-101.92 714.92,-89.65 728.89,-80.03"/>
<polygon fill="#63b8ff" stroke="#63b8ff" points="731.15,-82.72 737.4,-74.17 727.18,-76.96 731.15,-82.72"/>
</a>
</g>
</g>
<!-- Node30&#45;&gt;Node14 -->
<g id="edge36_Node000030_Node000014" class="edge">
<title>Node30&#45;&gt;Node14</title>
<g id="a_edge36_Node000030_Node000014"><a xlink:title=" ">
<path fill="none" stroke="#63b8ff" d="M674.1,-109.68C676.29,-95.93 682.51,-69.44 699,-55 725.32,-31.96 762.15,-20.63 794.81,-15.15"/>
<polygon fill="#63b8ff" stroke="#63b8ff" points="795.44,-18.59 804.8,-13.63 794.38,-11.67 795.44,-18.59"/>
</a>
</g>
</g>
<!-- Node31&#45;&gt;Node14 -->
<g id="edge39_Node000031_Node000014" class="edge">
<title>Node31&#45;&gt;Node14</title>
<g id="a_edge39_Node000031_Node000014"><a xlink:title=" ">
<path fill="none" stroke="#63b8ff" d="M1034.57,-109.84C1003.5,-91.2 930.02,-47.11 892.27,-24.46"/>
<polygon fill="#63b8ff" stroke="#63b8ff" points="893.87,-21.34 883.49,-19.2 890.27,-27.34 893.87,-21.34"/>
</a>
</g>
</g>
<!-- Node32&#45;&gt;Node7 -->
<g id="edge42_Node000032_Node000007" class="edge">
<title>Node32&#45;&gt;Node7</title>
<g id="a_edge42_Node000032_Node000007"><a xlink:title=" ">
<path fill="none" stroke="#63b8ff" d="M804.37,-167.48C707.85,-158.81 535.82,-142.54 456.75,-129.02"/>
<polygon fill="#63b8ff" stroke="#63b8ff" points="457.13,-125.54 446.67,-127.22 455.9,-132.43 457.13,-125.54"/>
</a>
</g>
</g>
<!-- Node32&#45;&gt;Node28 -->
<g id="edge41_Node000032_Node000028" class="edge">
<title>Node32&#45;&gt;Node28</title>
<g id="a_edge41_Node000032_Node000028"><a xlink:title=" ">
<path fill="none" stroke="#63b8ff" d="M924.54,-164.96C970.54,-157.07 1039.93,-144.56 1109.51,-128.97"/>
<polygon fill="#63b8ff" stroke="#63b8ff" points="1110.34,-132.37 1119.33,-126.74 1108.8,-125.54 1110.34,-132.37"/>
</a>
</g>
</g>
<!-- Node32&#45;&gt;Node31 -->
<g id="edge43_Node000032_Node000031" class="edge">
<title>Node32&#45;&gt;Node31</title>
<g id="a_edge43_Node000032_Node000031"><a xlink:title=" ">
<path fill="none" stroke="#63b8ff" d="M901.28,-164.98C930.95,-156.05 977.79,-141.94 1010.75,-132.02"/>
<polygon fill="#63b8ff" stroke="#63b8ff" points="1011.93,-135.32 1020.5,-129.08 1009.92,-128.61 1011.93,-135.32"/>
</a>
</g>
</g>
<!-- Node33&#45;&gt;Node11 -->
<g id="edge48_Node000033_Node000011" class="edge">
<title>Node33&#45;&gt;Node11</title>
<g id="a_edge48_Node000033_Node000011"><a xlink:title=" ">
<path fill="none" stroke="#63b8ff" d="M570.38,-109.98C607.09,-100.89 665.38,-86.46 705.55,-76.51"/>
<polygon fill="#63b8ff" stroke="#63b8ff" points="706.48,-79.88 715.35,-74.08 704.8,-73.09 706.48,-79.88"/>
</a>
</g>
</g>
<!-- Node33&#45;&gt;Node14 -->
<g id="edge47_Node000033_Node000014" class="edge">
<title>Node33&#45;&gt;Node14</title>
<g id="a_edge47_Node000033_Node000014"><a xlink:title=" ">
<path fill="none" stroke="#63b8ff" d="M553.14,-109.86C580.03,-96.58 634.02,-71 682,-55 725.26,-40.57 775.62,-28.87 813.17,-21.09"/>
<polygon fill="#63b8ff" stroke="#63b8ff" points="814.31,-24.43 823.41,-19 812.91,-17.57 814.31,-24.43"/>
</a>
</g>
</g>
<!-- Node34&#45;&gt;Node11 -->
<g id="edge50_Node000034_Node000011" class="edge">
<title>Node34&#45;&gt;Node11</title>
<g id="a_edge50_Node000034_Node000011"><a xlink:title=" ">
<path fill="none" stroke="#63b8ff" d="M888.49,-109.98C860.79,-101.09 817.14,-87.07 786.26,-77.15"/>
<polygon fill="#63b8ff" stroke="#63b8ff" points="787.31,-73.81 776.72,-74.08 785.17,-80.47 787.31,-73.81"/>
</a>
</g>
</g>
<!-- Node34&#45;&gt;Node14 -->
<g id="edge51_Node000034_Node000014" class="edge">
<title>Node34&#45;&gt;Node14</title>
<g id="a_edge51_Node000034_Node000014"><a xlink:title=" ">
<path fill="none" stroke="#63b8ff" d="M911.24,-109.66C903.72,-92.01 886.71,-52.09 876.72,-28.64"/>
<polygon fill="#63b8ff" stroke="#63b8ff" points="879.83,-26.99 872.69,-19.16 873.39,-29.73 879.83,-26.99"/>
</a>
</g>
</g>
<!-- Node35&#45;&gt;Node7 -->
<g id="edge54_Node000035_Node000007" class="edge">
<title>Node35&#45;&gt;Node7</title>
<g id="a_edge54_Node000035_Node000007"><a xlink:title=" ">
<path fill="none" stroke="#63b8ff" d="M633.54,-164.96C589.6,-157 522.86,-144.37 456.51,-129.24"/>
<polygon fill="#63b8ff" stroke="#63b8ff" points="457.25,-125.82 446.72,-126.99 455.68,-132.64 457.25,-125.82"/>
</a>
</g>
</g>
<!-- Node35&#45;&gt;Node14 -->
<g id="edge57_Node000035_Node000014" class="edge">
<title>Node35&#45;&gt;Node14</title>
<g id="a_edge57_Node000035_Node000014"><a xlink:title=" ">
<path fill="none" stroke="#63b8ff" d="M728.05,-164.97C752.79,-158.49 782.53,-147.43 804,-129 835.94,-101.58 855.03,-54.41 863.6,-28.63"/>
<polygon fill="#63b8ff" stroke="#63b8ff" points="866.96,-29.59 866.63,-19 860.29,-27.49 866.96,-29.59"/>
</a>
</g>
</g>
<!-- Node35&#45;&gt;Node30 -->
<g id="edge55_Node000035_Node000030" class="edge">
<title>Node35&#45;&gt;Node30</title>
<g id="a_edge55_Node000035_Node000030"><a xlink:title=" ">
<path fill="none" stroke="#63b8ff" d="M680.51,-164.75C679.33,-157.8 677.64,-147.85 676.16,-139.13"/>
<polygon fill="#63b8ff" stroke="#63b8ff" points="679.58,-138.36 674.46,-129.09 672.68,-139.53 679.58,-138.36"/>
</a>
</g>
</g>
<!-- Node35&#45;&gt;Node31 -->
<g id="edge56_Node000035_Node000031" class="edge">
<title>Node35&#45;&gt;Node31</title>
<g id="a_edge56_Node000035_Node000031"><a xlink:title=" ">
<path fill="none" stroke="#63b8ff" d="M740.96,-164.98C808.23,-155.27 917.76,-139.45 986.47,-129.53"/>
<polygon fill="#63b8ff" stroke="#63b8ff" points="987.32,-132.94 996.72,-128.05 986.32,-126.02 987.32,-132.94"/>
</a>
</g>
</g>
<!-- Node36 -->
<g id="Node000036" class="node">
<title>Node36</title>
<g id="a_Node000036"><a xlink:title=" ">
<polygon fill="#e0e0e0" stroke="#999999" points="795,-129 739,-129 739,-110 795,-110 795,-129"/>
<text text-anchor="middle" x="767" y="-117" font-family="Helvetica,sans-Serif" font-size="10.00">optional</text>
</a>
</g>
</g>
<!-- Node35&#45;&gt;Node36 -->
<g id="edge53_Node000035_Node000036" class="edge">
<title>Node35&#45;&gt;Node36</title>
<g id="a_edge53_Node000035_Node000036"><a xlink:title=" ">
<path fill="none" stroke="#63b8ff" d="M695.66,-164.98C708.84,-156.77 729.03,-144.18 744.57,-134.49"/>
<polygon fill="#63b8ff" stroke="#63b8ff" points="746.46,-137.43 753.09,-129.17 742.76,-131.49 746.46,-137.43"/>
</a>
</g>
</g>
<!-- Node37&#45;&gt;Node7 -->
<g id="edge60_Node000037_Node000007" class="edge">
<title>Node37&#45;&gt;Node7</title>
<g id="a_edge60_Node000037_Node000007"><a xlink:title=" ">
<path fill="none" stroke="#63b8ff" d="M415.49,-164.75C416.67,-157.8 418.36,-147.85 419.84,-139.13"/>
<polygon fill="#63b8ff" stroke="#63b8ff" points="423.32,-139.53 421.54,-129.09 416.42,-138.36 423.32,-139.53"/>
</a>
</g>
</g>
<!-- Node37&#45;&gt;Node14 -->
<g id="edge61_Node000037_Node000014" class="edge">
<title>Node37&#45;&gt;Node14</title>
<g id="a_edge61_Node000037_Node000014"><a xlink:title=" ">
<path fill="none" stroke="#63b8ff" d="M405.79,-164.86C394.41,-151.8 376.64,-126.78 390,-110 439.52,-47.79 672.84,-23.35 794.61,-14.71"/>
<polygon fill="#63b8ff" stroke="#63b8ff" points="794.87,-18.2 804.6,-14.02 794.39,-11.22 794.87,-18.2"/>
</a>
</g>
</g>
<!-- Node37&#45;&gt;Node16 -->
<g id="edge59_Node000037_Node000016" class="edge">
<title>Node37&#45;&gt;Node16</title>
<g id="a_edge59_Node000037_Node000016"><a xlink:title=" ">
<path fill="none" stroke="#63b8ff" d="M389.74,-164.98C364.68,-156.19 325.37,-142.39 297.17,-132.49"/>
<polygon fill="#63b8ff" stroke="#63b8ff" points="298.3,-129.18 287.7,-129.17 295.98,-135.78 298.3,-129.18"/>
</a>
</g>
</g>
</g>
</svg>
