<?xml version="1.0" encoding="UTF-8" standalone="no"?>
<!DOCTYPE svg PUBLIC "-//W3C//DTD SVG 1.1//EN"
 "http://www.w3.org/Graphics/SVG/1.1/DTD/svg11.dtd">
<!-- Generated by graphviz version 2.43.0 (0)
 -->
<!-- Title: /home/runner/work/R&#45;Type/R&#45;Type/Client/src/scenes/SecondGame.cpp Pages: 1 -->
<svg width="1092pt" height="324pt"
 viewBox="0.00 0.00 1092.00 324.00" xmlns="http://www.w3.org/2000/svg" xmlns:xlink="http://www.w3.org/1999/xlink">
<g id="graph0" class="graph" transform="scale(1 1) rotate(0) translate(4 320)">
<title>/home/runner/work/R&#45;Type/R&#45;Type/Client/src/scenes/SecondGame.cpp</title>
<!-- Node1 -->
<g id="Node000001" class="node">
<title>Node1</title>
<g id="a_Node000001"><a xlink:title=" ">
<polygon fill="#999999" stroke="#666666" points="619,-316 461,-316 461,-275 619,-275 619,-316"/>
<text text-anchor="start" x="469" y="-304" font-family="Helvetica,sans-Serif" font-size="10.00">/home/runner/work/R</text>
<text text-anchor="start" x="469" y="-293" font-family="Helvetica,sans-Serif" font-size="10.00">&#45;Type/R&#45;Type/Client</text>
<text text-anchor="middle" x="540" y="-282" font-family="Helvetica,sans-Serif" font-size="10.00">/src/scenes/SecondGame.cpp</text>
</a>
</g>
</g>
<!-- Node2 -->
<g id="Node000002" class="node">
<title>Node2</title>
<g id="a_Node000002"><a xlink:href="SecondGame_8hpp.html" target="_top" xlink:title=" ">
<polygon fill="white" stroke="#666666" points="543.5,-239 404.5,-239 404.5,-220 543.5,-220 543.5,-239"/>
<text text-anchor="middle" x="474" y="-227" font-family="Helvetica,sans-Serif" font-size="10.00">scenes/SecondGame.hpp</text>
</a>
</g>
</g>
<!-- Node1&#45;&gt;Node2 -->
<g id="edge1_Node000001_Node000002" class="edge">
<title>Node1&#45;&gt;Node2</title>
<g id="a_edge1_Node000001_Node000002"><a xlink:title=" ">
<path fill="none" stroke="#63b8ff" d="M519.84,-274.95C510.34,-265.74 499.16,-254.9 490.22,-246.23"/>
<polygon fill="#63b8ff" stroke="#63b8ff" points="492.65,-243.71 483.03,-239.26 487.78,-248.73 492.65,-243.71"/>
</a>
</g>
</g>
<!-- Node16 -->
<g id="Node000016" class="node">
<title>Node16</title>
<g id="a_Node000016"><a xlink:title=" ">
<polygon fill="#e0e0e0" stroke="#999999" points="650,-239 562,-239 562,-220 650,-220 650,-239"/>
<text text-anchor="middle" x="606" y="-227" font-family="Helvetica,sans-Serif" font-size="10.00">ecs/Zipper.hpp</text>
</a>
</g>
</g>
<!-- Node1&#45;&gt;Node16 -->
<g id="edge17_Node000001_Node000016" class="edge">
<title>Node1&#45;&gt;Node16</title>
<g id="a_edge17_Node000001_Node000016"><a xlink:title=" ">
<path fill="none" stroke="#63b8ff" d="M560.16,-274.95C569.66,-265.74 580.84,-254.9 589.78,-246.23"/>
<polygon fill="#63b8ff" stroke="#63b8ff" points="592.22,-248.73 596.97,-239.26 587.35,-243.71 592.22,-248.73"/>
</a>
</g>
</g>
<!-- Node17 -->
<g id="Node000017" class="node">
<title>Node17</title>
<g id="a_Node000017"><a xlink:title=" ">
<polygon fill="#e0e0e0" stroke="#999999" points="808,-239 668,-239 668,-220 808,-220 808,-239"/>
<text text-anchor="middle" x="738" y="-227" font-family="Helvetica,sans-Serif" font-size="10.00">scene/SceneManager.hpp</text>
</a>
</g>
</g>
<!-- Node1&#45;&gt;Node17 -->
<g id="edge18_Node000001_Node000017" class="edge">
<title>Node1&#45;&gt;Node17</title>
<g id="a_edge18_Node000001_Node000017"><a xlink:title=" ">
<path fill="none" stroke="#63b8ff" d="M600.48,-274.95C633.6,-264.24 673.54,-251.34 701.82,-242.19"/>
<polygon fill="#63b8ff" stroke="#63b8ff" points="703.24,-245.41 711.68,-239.01 701.09,-238.75 703.24,-245.41"/>
</a>
</g>
</g>
<!-- Node18 -->
<g id="Node000018" class="node">
<title>Node18</title>
<g id="a_Node000018"><a xlink:title=" ">
<polygon fill="#e0e0e0" stroke="#999999" points="922,-239 826,-239 826,-220 922,-220 922,-239"/>
<text text-anchor="middle" x="874" y="-227" font-family="Helvetica,sans-Serif" font-size="10.00">ecs/Registry.hpp</text>
</a>
</g>
</g>
<!-- Node1&#45;&gt;Node18 -->
<g id="edge19_Node000001_Node000018" class="edge">
<title>Node1&#45;&gt;Node18</title>
<g id="a_edge19_Node000001_Node000018"><a xlink:title=" ">
<path fill="none" stroke="#63b8ff" d="M619.15,-279.33C680.77,-267.53 764.69,-251.45 819.11,-241.02"/>
<polygon fill="#63b8ff" stroke="#63b8ff" points="820.09,-244.39 829.25,-239.08 818.77,-237.52 820.09,-244.39"/>
</a>
</g>
</g>
<!-- Node19 -->
<g id="Node000019" class="node">
<title>Node19</title>
<g id="a_Node000019"><a xlink:href="DataMask_8hpp.html" target="_top" xlink:title=" ">
<polygon fill="white" stroke="#666666" points="130,-239 0,-239 0,-220 130,-220 130,-239"/>
<text text-anchor="middle" x="65" y="-227" font-family="Helvetica,sans-Serif" font-size="10.00">network/DataMask.hpp</text>
</a>
</g>
</g>
<!-- Node1&#45;&gt;Node19 -->
<g id="edge20_Node000001_Node000019" class="edge">
<title>Node1&#45;&gt;Node19</title>
<g id="a_edge20_Node000001_Node000019"><a xlink:title=" ">
<path fill="none" stroke="#63b8ff" d="M460.76,-283.82C370.88,-271.71 225.5,-252.13 138.2,-240.36"/>
<polygon fill="#63b8ff" stroke="#63b8ff" points="138.49,-236.87 128.11,-239 137.55,-243.81 138.49,-236.87"/>
</a>
</g>
</g>
<!-- Node21 -->
<g id="Node000021" class="node">
<title>Node21</title>
<g id="a_Node000021"><a xlink:title=" ">
<polygon fill="#e0e0e0" stroke="#999999" points="1084,-239 940,-239 940,-220 1084,-220 1084,-239"/>
<text text-anchor="middle" x="1012" y="-227" font-family="Helvetica,sans-Serif" font-size="10.00">input/InputSubsystem.hpp</text>
</a>
</g>
</g>
<!-- Node1&#45;&gt;Node21 -->
<g id="edge22_Node000001_Node000021" class="edge">
<title>Node1&#45;&gt;Node21</title>
<g id="a_edge22_Node000001_Node000021"><a xlink:title=" ">
<path fill="none" stroke="#63b8ff" d="M619,-283.79C708.24,-271.69 852.29,-252.16 938.98,-240.4"/>
<polygon fill="#63b8ff" stroke="#63b8ff" points="939.56,-243.85 949,-239.04 938.62,-236.92 939.56,-243.85"/>
</a>
</g>
</g>
<!-- Node22 -->
<g id="Node000022" class="node">
<title>Node22</title>
<g id="a_Node000022"><a xlink:href="Action_8hpp.html" target="_top" xlink:title=" ">
<polygon fill="white" stroke="#666666" points="259.5,-239 148.5,-239 148.5,-220 259.5,-220 259.5,-239"/>
<text text-anchor="middle" x="204" y="-227" font-family="Helvetica,sans-Serif" font-size="10.00">network/Action.hpp</text>
</a>
</g>
</g>
<!-- Node1&#45;&gt;Node22 -->
<g id="edge23_Node000001_Node000022" class="edge">
<title>Node1&#45;&gt;Node22</title>
<g id="a_edge23_Node000001_Node000022"><a xlink:title=" ">
<path fill="none" stroke="#63b8ff" d="M460.8,-279.41C398.52,-267.55 313.38,-251.33 258.54,-240.89"/>
<polygon fill="#63b8ff" stroke="#63b8ff" points="259.14,-237.44 248.66,-239.01 257.83,-244.32 259.14,-237.44"/>
</a>
</g>
</g>
<!-- Node24 -->
<g id="Node000024" class="node">
<title>Node24</title>
<g id="a_Node000024"><a xlink:href="Event_8hpp.html" target="_top" xlink:title=" ">
<polygon fill="white" stroke="#666666" points="386,-239 278,-239 278,-220 386,-220 386,-239"/>
<text text-anchor="middle" x="332" y="-227" font-family="Helvetica,sans-Serif" font-size="10.00">network/Event.hpp</text>
</a>
</g>
</g>
<!-- Node1&#45;&gt;Node24 -->
<g id="edge28_Node000001_Node000024" class="edge">
<title>Node1&#45;&gt;Node24</title>
<g id="a_edge28_Node000001_Node000024"><a xlink:title=" ">
<path fill="none" stroke="#63b8ff" d="M476.46,-274.95C441.36,-264.15 398.98,-251.11 369.23,-241.95"/>
<polygon fill="#63b8ff" stroke="#63b8ff" points="370.24,-238.6 359.65,-239.01 368.18,-245.29 370.24,-238.6"/>
</a>
</g>
</g>
<!-- Node3 -->
<g id="Node000003" class="node">
<title>Node3</title>
<g id="a_Node000003"><a xlink:title=" ">
<polygon fill="#e0e0e0" stroke="#999999" points="446,-184 374,-184 374,-165 446,-165 446,-184"/>
<text text-anchor="middle" x="410" y="-172" font-family="Helvetica,sans-Serif" font-size="10.00">SDL2/SDL.h</text>
</a>
</g>
</g>
<!-- Node2&#45;&gt;Node3 -->
<g id="edge2_Node000002_Node000003" class="edge">
<title>Node2&#45;&gt;Node3</title>
<g id="a_edge2_Node000002_Node000003"><a xlink:title=" ">
<path fill="none" stroke="#63b8ff" d="M463.72,-219.98C454.16,-212.07 439.72,-200.11 428.22,-190.58"/>
<polygon fill="#63b8ff" stroke="#63b8ff" points="430.4,-187.85 420.47,-184.17 425.94,-193.24 430.4,-187.85"/>
</a>
</g>
</g>
<!-- Node4 -->
<g id="Node000004" class="node">
<title>Node4</title>
<g id="a_Node000004"><a xlink:title=" ">
<polygon fill="#e0e0e0" stroke="#999999" points="524,-184 464,-184 464,-165 524,-165 524,-184"/>
<text text-anchor="middle" x="494" y="-172" font-family="Helvetica,sans-Serif" font-size="10.00">iostream</text>
</a>
</g>
</g>
<!-- Node2&#45;&gt;Node4 -->
<g id="edge3_Node000002_Node000004" class="edge">
<title>Node2&#45;&gt;Node4</title>
<g id="a_edge3_Node000002_Node000004"><a xlink:title=" ">
<path fill="none" stroke="#63b8ff" d="M477.3,-219.75C479.98,-212.65 483.85,-202.4 487.19,-193.56"/>
<polygon fill="#63b8ff" stroke="#63b8ff" points="490.5,-194.68 490.76,-184.09 483.95,-192.21 490.5,-194.68"/>
</a>
</g>
</g>
<!-- Node5 -->
<g id="Node000005" class="node">
<title>Node5</title>
<g id="a_Node000005"><a xlink:title=" ">
<polygon fill="#e0e0e0" stroke="#999999" points="290,-184 246,-184 246,-165 290,-165 290,-184"/>
<text text-anchor="middle" x="268" y="-172" font-family="Helvetica,sans-Serif" font-size="10.00">string</text>
</a>
</g>
</g>
<!-- Node2&#45;&gt;Node5 -->
<g id="edge4_Node000002_Node000005" class="edge">
<title>Node2&#45;&gt;Node5</title>
<g id="a_edge4_Node000002_Node000005"><a xlink:title=" ">
<path fill="none" stroke="#63b8ff" d="M439.75,-219.99C406.43,-211.67 354.14,-198.49 299.81,-184.18"/>
<polygon fill="#63b8ff" stroke="#63b8ff" points="300.56,-180.76 290,-181.59 298.78,-187.52 300.56,-180.76"/>
</a>
</g>
</g>
<!-- Node6 -->
<g id="Node000006" class="node">
<title>Node6</title>
<g id="a_Node000006"><a xlink:title=" ">
<polygon fill="#e0e0e0" stroke="#999999" points="635.5,-184 542.5,-184 542.5,-165 635.5,-165 635.5,-184"/>
<text text-anchor="middle" x="589" y="-172" font-family="Helvetica,sans-Serif" font-size="10.00">unordered_map</text>
</a>
</g>
</g>
<!-- Node2&#45;&gt;Node6 -->
<g id="edge5_Node000002_Node000006" class="edge">
<title>Node2&#45;&gt;Node6</title>
<g id="a_edge5_Node000002_Node000006"><a xlink:title=" ">
<path fill="none" stroke="#63b8ff" d="M492.48,-219.98C510.98,-211.46 539.68,-198.23 560.98,-188.41"/>
<polygon fill="#63b8ff" stroke="#63b8ff" points="562.57,-191.53 570.19,-184.17 559.64,-185.18 562.57,-191.53"/>
</a>
</g>
</g>
<!-- Node7 -->
<g id="Node000007" class="node">
<title>Node7</title>
<g id="a_Node000007"><a xlink:title=" ">
<polygon fill="#e0e0e0" stroke="#999999" points="355.5,-184 308.5,-184 308.5,-165 355.5,-165 355.5,-184"/>
<text text-anchor="middle" x="332" y="-172" font-family="Helvetica,sans-Serif" font-size="10.00">vector</text>
</a>
</g>
</g>
<!-- Node2&#45;&gt;Node7 -->
<g id="edge6_Node000002_Node000007" class="edge">
<title>Node2&#45;&gt;Node7</title>
<g id="a_edge6_Node000002_Node000007"><a xlink:title=" ">
<path fill="none" stroke="#63b8ff" d="M451.19,-219.98C427.83,-211.27 391.3,-197.63 364.83,-187.75"/>
<polygon fill="#63b8ff" stroke="#63b8ff" points="365.82,-184.39 355.23,-184.17 363.37,-190.95 365.82,-184.39"/>
</a>
</g>
</g>
<!-- Node8 -->
<g id="Node000008" class="node">
<title>Node8</title>
<g id="a_Node000008"><a xlink:title=" ">
<polygon fill="#e0e0e0" stroke="#999999" points="752,-184 654,-184 654,-165 752,-165 752,-184"/>
<text text-anchor="middle" x="703" y="-172" font-family="Helvetica,sans-Serif" font-size="10.00">scene/Scene.hpp</text>
</a>
</g>
</g>
<!-- Node2&#45;&gt;Node8 -->
<g id="edge7_Node000002_Node000008" class="edge">
<title>Node2&#45;&gt;Node8</title>
<g id="a_edge7_Node000002_Node000008"><a xlink:title=" ">
<path fill="none" stroke="#63b8ff" d="M510.79,-219.98C550.24,-210.86 612.98,-196.33 655.98,-186.38"/>
<polygon fill="#63b8ff" stroke="#63b8ff" points="656.97,-189.75 665.92,-184.08 655.39,-182.93 656.97,-189.75"/>
</a>
</g>
</g>
<!-- Node9 -->
<g id="Node000009" class="node">
<title>Node9</title>
<g id="a_Node000009"><a xlink:href="PlayerEntity_8hpp.html" target="_top" xlink:title=" ">
<polygon fill="white" stroke="#666666" points="899.5,-184 770.5,-184 770.5,-165 899.5,-165 899.5,-184"/>
<text text-anchor="middle" x="835" y="-172" font-family="Helvetica,sans-Serif" font-size="10.00">Player/PlayerEntity.hpp</text>
</a>
</g>
</g>
<!-- Node2&#45;&gt;Node9 -->
<g id="edge8_Node000002_Node000009" class="edge">
<title>Node2&#45;&gt;Node9</title>
<g id="a_edge8_Node000002_Node000009"><a xlink:title=" ">
<path fill="none" stroke="#63b8ff" d="M532,-219.98C595.98,-210.59 698.85,-195.49 766.68,-185.53"/>
<polygon fill="#63b8ff" stroke="#63b8ff" points="767.46,-188.95 776.84,-184.04 766.44,-182.03 767.46,-188.95"/>
</a>
</g>
</g>
<!-- Node15 -->
<g id="Node000015" class="node">
<title>Node15</title>
<g id="a_Node000015"><a xlink:title=" ">
<polygon fill="#e0e0e0" stroke="#999999" points="959,-19 831,-19 831,0 959,0 959,-19"/>
<text text-anchor="middle" x="895" y="-7" font-family="Helvetica,sans-Serif" font-size="10.00">physics/Physics2D.hpp</text>
</a>
</g>
</g>
<!-- Node2&#45;&gt;Node15 -->
<g id="edge16_Node000002_Node000015" class="edge">
<title>Node2&#45;&gt;Node15</title>
<g id="a_edge16_Node000002_Node000015"><a xlink:title=" ">
<path fill="none" stroke="#63b8ff" d="M543.78,-220.97C546.9,-220.64 549.98,-220.31 553,-220 592.54,-215.87 882.34,-213.49 909,-184 948.3,-140.52 920.02,-63.35 904,-28.48"/>
<polygon fill="#63b8ff" stroke="#63b8ff" points="906.98,-26.61 899.51,-19.1 900.67,-29.63 906.98,-26.61"/>
</a>
</g>
</g>
<!-- Node10 -->
<g id="Node000010" class="node">
<title>Node10</title>
<g id="a_Node000010"><a xlink:title=" ">
<polygon fill="#e0e0e0" stroke="#999999" points="867,-129 803,-129 803,-110 867,-110 867,-129"/>
<text text-anchor="middle" x="835" y="-117" font-family="Helvetica,sans-Serif" font-size="10.00">algorithm</text>
</a>
</g>
</g>
<!-- Node9&#45;&gt;Node10 -->
<g id="edge9_Node000009_Node000010" class="edge">
<title>Node9&#45;&gt;Node10</title>
<g id="a_edge9_Node000009_Node000010"><a xlink:title=" ">
<path fill="none" stroke="#63b8ff" d="M835,-164.75C835,-157.8 835,-147.85 835,-139.13"/>
<polygon fill="#63b8ff" stroke="#63b8ff" points="838.5,-139.09 835,-129.09 831.5,-139.09 838.5,-139.09"/>
</a>
</g>
</g>
<!-- Node11 -->
<g id="Node000011" class="node">
<title>Node11</title>
<g id="a_Node000011"><a xlink:href="CollisionController_8hpp.html" target="_top" xlink:title=" ">
<polygon fill="white" stroke="#666666" points="785,-129 613,-129 613,-110 785,-110 785,-129"/>
<text text-anchor="middle" x="699" y="-117" font-family="Helvetica,sans-Serif" font-size="10.00">Collision/CollisionController.hpp</text>
</a>
</g>
</g>
<!-- Node9&#45;&gt;Node11 -->
<g id="edge10_Node000009_Node000011" class="edge">
<title>Node9&#45;&gt;Node11</title>
<g id="a_edge10_Node000009_Node000011"><a xlink:title=" ">
<path fill="none" stroke="#63b8ff" d="M813.15,-164.98C790.88,-156.3 756.1,-142.75 730.78,-132.88"/>
<polygon fill="#63b8ff" stroke="#63b8ff" points="731.84,-129.54 721.25,-129.17 729.29,-136.06 731.84,-129.54"/>
</a>
</g>
</g>
<!-- Node13 -->
<g id="Node000013" class="node">
<title>Node13</title>
<g id="a_Node000013"><a xlink:href="Weapon_8hpp.html" target="_top" xlink:title=" ">
<polygon fill="white" stroke="#666666" points="595,-129 485,-129 485,-110 595,-110 595,-129"/>
<text text-anchor="middle" x="540" y="-117" font-family="Helvetica,sans-Serif" font-size="10.00">Player/Weapon.hpp</text>
</a>
</g>
</g>
<!-- Node9&#45;&gt;Node13 -->
<g id="edge12_Node000009_Node000013" class="edge">
<title>Node9&#45;&gt;Node13</title>
<g id="a_edge12_Node000009_Node000013"><a xlink:title=" ">
<path fill="none" stroke="#63b8ff" d="M787.6,-164.98C735.93,-155.7 653.23,-140.84 597.79,-130.88"/>
<polygon fill="#63b8ff" stroke="#63b8ff" points="598.23,-127.41 587.77,-129.08 596.99,-134.3 598.23,-127.41"/>
</a>
</g>
</g>
<!-- Node9&#45;&gt;Node15 -->
<g id="edge15_Node000009_Node000015" class="edge">
<title>Node9&#45;&gt;Node15</title>
<g id="a_edge15_Node000009_Node000015"><a xlink:title=" ">
<path fill="none" stroke="#63b8ff" d="M845.98,-164.87C855.54,-156.7 868.94,-143.55 876,-129 891.79,-96.46 894.9,-53.56 895.27,-29.32"/>
<polygon fill="#63b8ff" stroke="#63b8ff" points="898.77,-29.04 895.27,-19.04 891.77,-29.04 898.77,-29.04"/>
</a>
</g>
</g>
<!-- Node12 -->
<g id="Node000012" class="node">
<title>Node12</title>
<g id="a_Node000012"><a xlink:title=" ">
<polygon fill="#e0e0e0" stroke="#999999" points="741,-74 657,-74 657,-55 741,-55 741,-74"/>
<text text-anchor="middle" x="699" y="-62" font-family="Helvetica,sans-Serif" font-size="10.00">ecs/Entity.hpp</text>
</a>
</g>
</g>
<!-- Node11&#45;&gt;Node12 -->
<g id="edge11_Node000011_Node000012" class="edge">
<title>Node11&#45;&gt;Node12</title>
<g id="a_edge11_Node000011_Node000012"><a xlink:title=" ">
<path fill="none" stroke="#63b8ff" d="M699,-109.75C699,-102.8 699,-92.85 699,-84.13"/>
<polygon fill="#63b8ff" stroke="#63b8ff" points="702.5,-84.09 699,-74.09 695.5,-84.09 702.5,-84.09"/>
</a>
</g>
</g>
<!-- Node14 -->
<g id="Node000014" class="node">
<title>Node14</title>
<g id="a_Node000014"><a xlink:href="Projectile_8hpp.html" target="_top" xlink:title=" ">
<polygon fill="white" stroke="#666666" points="635,-74 455,-74 455,-55 635,-55 635,-74"/>
<text text-anchor="middle" x="545" y="-62" font-family="Helvetica,sans-Serif" font-size="10.00">components/Player/Projectile.hpp</text>
</a>
</g>
</g>
<!-- Node13&#45;&gt;Node14 -->
<g id="edge13_Node000013_Node000014" class="edge">
<title>Node13&#45;&gt;Node14</title>
<g id="a_edge13_Node000013_Node000014"><a xlink:title=" ">
<path fill="none" stroke="#63b8ff" d="M540.83,-109.75C541.48,-102.8 542.42,-92.85 543.24,-84.13"/>
<polygon fill="#63b8ff" stroke="#63b8ff" points="546.73,-84.37 544.19,-74.09 539.77,-83.72 546.73,-84.37"/>
</a>
</g>
</g>
<!-- Node14&#45;&gt;Node15 -->
<g id="edge14_Node000014_Node000015" class="edge">
<title>Node14&#45;&gt;Node15</title>
<g id="a_edge14_Node000014_Node000015"><a xlink:title=" ">
<path fill="none" stroke="#63b8ff" d="M601.23,-54.98C663.14,-45.61 762.59,-30.55 828.36,-20.59"/>
<polygon fill="#63b8ff" stroke="#63b8ff" points="829.25,-24 838.62,-19.04 828.2,-17.07 829.25,-24"/>
</a>
</g>
</g>
<!-- Node20 -->
<g id="Node000020" class="node">
<title>Node20</title>
<g id="a_Node000020"><a xlink:title=" ">
<polygon fill="#e0e0e0" stroke="#999999" points="158,-184 108,-184 108,-165 158,-165 158,-184"/>
<text text-anchor="middle" x="133" y="-172" font-family="Helvetica,sans-Serif" font-size="10.00">cstdint</text>
</a>
</g>
</g>
<!-- Node19&#45;&gt;Node20 -->
<g id="edge21_Node000019_Node000020" class="edge">
<title>Node19&#45;&gt;Node20</title>
<g id="a_edge21_Node000019_Node000020"><a xlink:title=" ">
<path fill="none" stroke="#63b8ff" d="M75.93,-219.98C86.08,-212.07 101.42,-200.11 113.65,-190.58"/>
<polygon fill="#63b8ff" stroke="#63b8ff" points="116.14,-193.08 121.88,-184.17 111.84,-187.56 116.14,-193.08"/>
</a>
</g>
</g>
<!-- Node22&#45;&gt;Node5 -->
<g id="edge25_Node000022_Node000005" class="edge">
<title>Node22&#45;&gt;Node5</title>
<g id="a_edge25_Node000022_Node000005"><a xlink:title=" ">
<path fill="none" stroke="#63b8ff" d="M214.28,-219.98C223.84,-212.07 238.28,-200.11 249.78,-190.58"/>
<polygon fill="#63b8ff" stroke="#63b8ff" points="252.06,-193.24 257.53,-184.17 247.6,-187.85 252.06,-193.24"/>
</a>
</g>
</g>
<!-- Node22&#45;&gt;Node7 -->
<g id="edge27_Node000022_Node000007" class="edge">
<title>Node22&#45;&gt;Node7</title>
<g id="a_edge27_Node000022_Node000007"><a xlink:title=" ">
<path fill="none" stroke="#63b8ff" d="M224.57,-219.98C245.43,-211.34 277.97,-197.87 301.77,-188.02"/>
<polygon fill="#63b8ff" stroke="#63b8ff" points="303.16,-191.23 311.06,-184.17 300.48,-184.76 303.16,-191.23"/>
</a>
</g>
</g>
<!-- Node22&#45;&gt;Node20 -->
<g id="edge24_Node000022_Node000020" class="edge">
<title>Node22&#45;&gt;Node20</title>
<g id="a_edge24_Node000022_Node000020"><a xlink:title=" ">
<path fill="none" stroke="#63b8ff" d="M192.59,-219.98C181.89,-212 165.66,-199.88 152.84,-190.31"/>
<polygon fill="#63b8ff" stroke="#63b8ff" points="154.72,-187.35 144.61,-184.17 150.53,-192.96 154.72,-187.35"/>
</a>
</g>
</g>
<!-- Node23 -->
<g id="Node000023" class="node">
<title>Node23</title>
<g id="a_Node000023"><a xlink:title=" ">
<polygon fill="#e0e0e0" stroke="#999999" points="227.5,-184 176.5,-184 176.5,-165 227.5,-165 227.5,-184"/>
<text text-anchor="middle" x="202" y="-172" font-family="Helvetica,sans-Serif" font-size="10.00">variant</text>
</a>
</g>
</g>
<!-- Node22&#45;&gt;Node23 -->
<g id="edge26_Node000022_Node000023" class="edge">
<title>Node22&#45;&gt;Node23</title>
<g id="a_edge26_Node000022_Node000023"><a xlink:title=" ">
<path fill="none" stroke="#63b8ff" d="M203.67,-219.75C203.41,-212.8 203.03,-202.85 202.7,-194.13"/>
<polygon fill="#63b8ff" stroke="#63b8ff" points="206.2,-193.95 202.32,-184.09 199.2,-194.21 206.2,-193.95"/>
</a>
</g>
</g>
<!-- Node24&#45;&gt;Node5 -->
<g id="edge30_Node000024_Node000005" class="edge">
<title>Node24&#45;&gt;Node5</title>
<g id="a_edge30_Node000024_Node000005"><a xlink:title=" ">
<path fill="none" stroke="#63b8ff" d="M321.72,-219.98C312.16,-212.07 297.72,-200.11 286.22,-190.58"/>
<polygon fill="#63b8ff" stroke="#63b8ff" points="288.4,-187.85 278.47,-184.17 283.94,-193.24 288.4,-187.85"/>
</a>
</g>
</g>
<!-- Node24&#45;&gt;Node7 -->
<g id="edge32_Node000024_Node000007" class="edge">
<title>Node24&#45;&gt;Node7</title>
<g id="a_edge32_Node000024_Node000007"><a xlink:title=" ">
<path fill="none" stroke="#63b8ff" d="M332,-219.75C332,-212.8 332,-202.85 332,-194.13"/>
<polygon fill="#63b8ff" stroke="#63b8ff" points="335.5,-194.09 332,-184.09 328.5,-194.09 335.5,-194.09"/>
</a>
</g>
</g>
<!-- Node24&#45;&gt;Node20 -->
<g id="edge29_Node000024_Node000020" class="edge">
<title>Node24&#45;&gt;Node20</title>
<g id="a_edge29_Node000024_Node000020"><a xlink:title=" ">
<path fill="none" stroke="#63b8ff" d="M300.03,-219.98C263.97,-210.38 205.52,-194.82 168.2,-184.87"/>
<polygon fill="#63b8ff" stroke="#63b8ff" points="168.83,-181.42 158.27,-182.23 167.03,-188.18 168.83,-181.42"/>
</a>
</g>
</g>
<!-- Node24&#45;&gt;Node23 -->
<g id="edge31_Node000024_Node000023" class="edge">
<title>Node24&#45;&gt;Node23</title>
<g id="a_edge31_Node000024_Node000023"><a xlink:title=" ">
<path fill="none" stroke="#63b8ff" d="M311.11,-219.98C289.92,-211.34 256.87,-197.87 232.7,-188.02"/>
<polygon fill="#63b8ff" stroke="#63b8ff" points="233.85,-184.7 223.27,-184.17 231.21,-191.19 233.85,-184.7"/>
</a>
</g>
</g>
</g>
</svg>
