<?xml version="1.0" encoding="UTF-8" standalone="no"?>
<!DOCTYPE svg PUBLIC "-//W3C//DTD SVG 1.1//EN"
 "http://www.w3.org/Graphics/SVG/1.1/DTD/svg11.dtd">
<!-- Generated by graphviz version 2.43.0 (0)
 -->
<!-- Title: /home/runner/work/R&#45;Type/R&#45;Type/Server/src/network/ServerNetworkManager.cpp Pages: 1 -->
<svg width="1546pt" height="379pt"
 viewBox="0.00 0.00 1545.50 379.00" xmlns="http://www.w3.org/2000/svg" xmlns:xlink="http://www.w3.org/1999/xlink">
<g id="graph0" class="graph" transform="scale(1 1) rotate(0) translate(4 375)">
<title>/home/runner/work/R&#45;Type/R&#45;Type/Server/src/network/ServerNetworkManager.cpp</title>
<!-- Node1 -->
<g id="Node000001" class="node">
<title>Node1</title>
<g id="a_Node000001"><a xlink:title=" ">
<polygon fill="#999999" stroke="#666666" points="1456.5,-371 1241.5,-371 1241.5,-330 1456.5,-330 1456.5,-371"/>
<text text-anchor="start" x="1249.5" y="-359" font-family="Helvetica,sans-Serif" font-size="10.00">/home/runner/work/R</text>
<text text-anchor="start" x="1249.5" y="-348" font-family="Helvetica,sans-Serif" font-size="10.00">&#45;Type/R&#45;Type/Server</text>
<text text-anchor="middle" x="1349" y="-337" font-family="Helvetica,sans-Serif" font-size="10.00">/src/network/ServerNetworkManager.cpp</text>
</a>
</g>
</g>
<!-- Node2 -->
<g id="Node000002" class="node">
<title>Node2</title>
<g id="a_Node000002"><a xlink:href="ServerNetworkManager_8hpp.html" target="_top" xlink:title=" ">
<polygon fill="white" stroke="#666666" points="992.5,-294 797.5,-294 797.5,-275 992.5,-275 992.5,-294"/>
<text text-anchor="middle" x="895" y="-282" font-family="Helvetica,sans-Serif" font-size="10.00">network/ServerNetworkManager.hpp</text>
</a>
</g>
</g>
<!-- Node1&#45;&gt;Node2 -->
<g id="edge1_Node000001_Node000002" class="edge">
<title>Node1&#45;&gt;Node2</title>
<g id="a_edge1_Node000001_Node000002"><a xlink:title=" ">
<path fill="none" stroke="#63b8ff" d="M1241.41,-334.33C1156.14,-322.31 1039.43,-305.86 965.63,-295.46"/>
<polygon fill="#63b8ff" stroke="#63b8ff" points="965.9,-291.96 955.51,-294.03 964.92,-298.89 965.9,-291.96"/>
</a>
</g>
</g>
<!-- Node3 -->
<g id="Node000003" class="node">
<title>Node3</title>
<g id="a_Node000003"><a xlink:title=" ">
<polygon fill="#e0e0e0" stroke="#999999" points="1436,-184 1376,-184 1376,-165 1436,-165 1436,-184"/>
<text text-anchor="middle" x="1406" y="-172" font-family="Helvetica,sans-Serif" font-size="10.00">iostream</text>
</a>
</g>
</g>
<!-- Node1&#45;&gt;Node3 -->
<g id="edge59_Node000001_Node000003" class="edge">
<title>Node1&#45;&gt;Node3</title>
<g id="a_edge59_Node000001_Node000003"><a xlink:title=" ">
<path fill="none" stroke="#63b8ff" d="M1362.95,-329.78C1369.61,-319.53 1377.16,-306.55 1382,-294 1395.05,-260.17 1401.41,-218.04 1404.18,-194.22"/>
<polygon fill="#63b8ff" stroke="#63b8ff" points="1407.67,-194.42 1405.26,-184.11 1400.71,-193.68 1407.67,-194.42"/>
</a>
</g>
</g>
<!-- Node4 -->
<g id="Node000004" class="node">
<title>Node4</title>
<g id="a_Node000004"><a xlink:title=" ">
<polygon fill="#e0e0e0" stroke="#999999" points="972,-184 914,-184 914,-165 972,-165 972,-184"/>
<text text-anchor="middle" x="943" y="-172" font-family="Helvetica,sans-Serif" font-size="10.00">memory</text>
</a>
</g>
</g>
<!-- Node1&#45;&gt;Node4 -->
<g id="edge60_Node000001_Node000004" class="edge">
<title>Node1&#45;&gt;Node4</title>
<g id="a_edge60_Node000001_Node000004"><a xlink:title=" ">
<path fill="none" stroke="#63b8ff" d="M1279.31,-329.96C1215.15,-310.74 1118.22,-278.59 1039,-239 1010.76,-224.89 980.82,-204.01 962.02,-190.09"/>
<polygon fill="#63b8ff" stroke="#63b8ff" points="964.09,-187.26 953.99,-184.06 959.88,-192.86 964.09,-187.26"/>
</a>
</g>
</g>
<!-- Node6 -->
<g id="Node000006" class="node">
<title>Node6</title>
<g id="a_Node000006"><a xlink:title=" ">
<polygon fill="#e0e0e0" stroke="#999999" points="1339.5,-239 1292.5,-239 1292.5,-220 1339.5,-220 1339.5,-239"/>
<text text-anchor="middle" x="1316" y="-227" font-family="Helvetica,sans-Serif" font-size="10.00">queue</text>
</a>
</g>
</g>
<!-- Node1&#45;&gt;Node6 -->
<g id="edge61_Node000001_Node000006" class="edge">
<title>Node1&#45;&gt;Node6</title>
<g id="a_edge61_Node000001_Node000006"><a xlink:title=" ">
<path fill="none" stroke="#63b8ff" d="M1343.55,-329.85C1337.32,-307.37 1327.19,-270.86 1321.11,-248.91"/>
<polygon fill="#63b8ff" stroke="#63b8ff" points="1324.45,-247.88 1318.41,-239.18 1317.71,-249.75 1324.45,-247.88"/>
</a>
</g>
</g>
<!-- Node7 -->
<g id="Node000007" class="node">
<title>Node7</title>
<g id="a_Node000007"><a xlink:title=" ">
<polygon fill="#e0e0e0" stroke="#999999" points="183,-19 139,-19 139,0 183,0 183,-19"/>
<text text-anchor="middle" x="161" y="-7" font-family="Helvetica,sans-Serif" font-size="10.00">string</text>
</a>
</g>
</g>
<!-- Node1&#45;&gt;Node7 -->
<g id="edge62_Node000001_Node000007" class="edge">
<title>Node1&#45;&gt;Node7</title>
<g id="a_edge62_Node000001_Node000007"><a xlink:title=" ">
<path fill="none" stroke="#63b8ff" d="M1241.45,-345.62C921.86,-333.38 0,-292.69 0,-230.5 0,-230.5 0,-230.5 0,-118.5 0,-57.01 81.99,-28.28 128.95,-16.87"/>
<polygon fill="#63b8ff" stroke="#63b8ff" points="129.99,-20.22 138.95,-14.57 128.42,-13.4 129.99,-20.22"/>
</a>
</g>
</g>
<!-- Node9 -->
<g id="Node000009" class="node">
<title>Node9</title>
<g id="a_Node000009"><a xlink:title=" ">
<polygon fill="#e0e0e0" stroke="#999999" points="1178.5,-19 1131.5,-19 1131.5,0 1178.5,0 1178.5,-19"/>
<text text-anchor="middle" x="1155" y="-7" font-family="Helvetica,sans-Serif" font-size="10.00">vector</text>
</a>
</g>
</g>
<!-- Node1&#45;&gt;Node9 -->
<g id="edge64_Node000001_Node000009" class="edge">
<title>Node1&#45;&gt;Node9</title>
<g id="a_edge64_Node000001_Node000009"><a xlink:title=" ">
<path fill="none" stroke="#63b8ff" d="M1387.61,-329.92C1421.02,-309.92 1464,-275.46 1464,-230.5 1464,-230.5 1464,-230.5 1464,-118.5 1464,-60.71 1268.99,-26.58 1188.81,-14.99"/>
<polygon fill="#63b8ff" stroke="#63b8ff" points="1189.13,-11.5 1178.73,-13.57 1188.14,-18.43 1189.13,-11.5"/>
</a>
</g>
</g>
<!-- Node23 -->
<g id="Node000023" class="node">
<title>Node23</title>
<g id="a_Node000023"><a xlink:href="DecodeFunc_8hpp.html" target="_top" xlink:title=" ">
<polygon fill="white" stroke="#666666" points="1206,-184 1066,-184 1066,-165 1206,-165 1206,-184"/>
<text text-anchor="middle" x="1136" y="-172" font-family="Helvetica,sans-Serif" font-size="10.00">network/DecodeFunc.hpp</text>
</a>
</g>
</g>
<!-- Node1&#45;&gt;Node23 -->
<g id="edge65_Node000001_Node000023" class="edge">
<title>Node1&#45;&gt;Node23</title>
<g id="a_edge65_Node000001_Node000023"><a xlink:title=" ">
<path fill="none" stroke="#63b8ff" d="M1355.7,-329.85C1363.82,-302.05 1373.49,-251.15 1348,-220 1331.25,-199.53 1268.88,-188.12 1216.1,-181.99"/>
<polygon fill="#63b8ff" stroke="#63b8ff" points="1216.35,-178.5 1206.03,-180.87 1215.58,-185.46 1216.35,-178.5"/>
</a>
</g>
</g>
<!-- Node29 -->
<g id="Node000029" class="node">
<title>Node29</title>
<g id="a_Node000029"><a xlink:title=" ">
<polygon fill="#e0e0e0" stroke="#999999" points="1537.5,-294 1492.5,-294 1492.5,-275 1537.5,-275 1537.5,-294"/>
<text text-anchor="middle" x="1515" y="-282" font-family="Helvetica,sans-Serif" font-size="10.00">utility</text>
</a>
</g>
</g>
<!-- Node1&#45;&gt;Node29 -->
<g id="edge63_Node000001_Node000029" class="edge">
<title>Node1&#45;&gt;Node29</title>
<g id="a_edge63_Node000001_Node000029"><a xlink:title=" ">
<path fill="none" stroke="#63b8ff" d="M1399.71,-329.95C1426.91,-319.46 1459.58,-306.87 1483.19,-297.76"/>
<polygon fill="#63b8ff" stroke="#63b8ff" points="1484.64,-300.95 1492.71,-294.09 1482.13,-294.42 1484.64,-300.95"/>
</a>
</g>
</g>
<!-- Node2&#45;&gt;Node3 -->
<g id="edge2_Node000002_Node000003" class="edge">
<title>Node2&#45;&gt;Node3</title>
<g id="a_edge2_Node000002_Node000003"><a xlink:title=" ">
<path fill="none" stroke="#63b8ff" d="M992.78,-278.4C1062.68,-272.95 1158.42,-261.77 1240,-239 1260.12,-233.38 1263.61,-227.78 1283,-220 1312.45,-208.18 1346.4,-196.01 1371.16,-187.38"/>
<polygon fill="#63b8ff" stroke="#63b8ff" points="1372.53,-190.61 1380.84,-184.03 1370.24,-184 1372.53,-190.61"/>
</a>
</g>
</g>
<!-- Node2&#45;&gt;Node4 -->
<g id="edge3_Node000002_Node000004" class="edge">
<title>Node2&#45;&gt;Node4</title>
<g id="a_edge3_Node000002_Node000004"><a xlink:title=" ">
<path fill="none" stroke="#63b8ff" d="M898.93,-274.66C906.81,-256.93 924.68,-216.73 935.08,-193.32"/>
<polygon fill="#63b8ff" stroke="#63b8ff" points="938.29,-194.72 939.15,-184.16 931.89,-191.87 938.29,-194.72"/>
</a>
</g>
</g>
<!-- Node5 -->
<g id="Node000005" class="node">
<title>Node5</title>
<g id="a_Node000005"><a xlink:title=" ">
<polygon fill="#e0e0e0" stroke="#999999" points="114,-184 66,-184 66,-165 114,-165 114,-184"/>
<text text-anchor="middle" x="90" y="-172" font-family="Helvetica,sans-Serif" font-size="10.00">mutex</text>
</a>
</g>
</g>
<!-- Node2&#45;&gt;Node5 -->
<g id="edge4_Node000002_Node000005" class="edge">
<title>Node2&#45;&gt;Node5</title>
<g id="a_edge4_Node000002_Node000005"><a xlink:title=" ">
<path fill="none" stroke="#63b8ff" d="M797.4,-283.13C677.58,-281.11 468.65,-272.5 293,-239 230.6,-227.1 160.4,-202.52 121.06,-187.67"/>
<polygon fill="#63b8ff" stroke="#63b8ff" points="122.1,-184.33 111.51,-184.03 119.61,-190.87 122.1,-184.33"/>
</a>
</g>
</g>
<!-- Node2&#45;&gt;Node6 -->
<g id="edge5_Node000002_Node000006" class="edge">
<title>Node2&#45;&gt;Node6</title>
<g id="a_edge5_Node000002_Node000006"><a xlink:title=" ">
<path fill="none" stroke="#63b8ff" d="M992.6,-275C1070.24,-267.55 1181.48,-255.36 1278,-239 1279.46,-238.75 1280.94,-238.49 1282.44,-238.2"/>
<polygon fill="#63b8ff" stroke="#63b8ff" points="1283.26,-241.61 1292.36,-236.19 1281.86,-234.75 1283.26,-241.61"/>
</a>
</g>
</g>
<!-- Node2&#45;&gt;Node7 -->
<g id="edge6_Node000002_Node000007" class="edge">
<title>Node2&#45;&gt;Node7</title>
<g id="a_edge6_Node000002_Node000007"><a xlink:title=" ">
<path fill="none" stroke="#63b8ff" d="M797.11,-281.23C572.25,-274.72 38,-251.28 38,-175.5 38,-175.5 38,-175.5 38,-118.5 38,-69.85 93.01,-37.97 129.45,-22.19"/>
<polygon fill="#63b8ff" stroke="#63b8ff" points="130.83,-25.4 138.73,-18.34 128.15,-18.94 130.83,-25.4"/>
</a>
</g>
</g>
<!-- Node8 -->
<g id="Node000008" class="node">
<title>Node8</title>
<g id="a_Node000008"><a xlink:title=" ">
<polygon fill="#e0e0e0" stroke="#999999" points="992,-239 944,-239 944,-220 992,-220 992,-239"/>
<text text-anchor="middle" x="968" y="-227" font-family="Helvetica,sans-Serif" font-size="10.00">thread</text>
</a>
</g>
</g>
<!-- Node2&#45;&gt;Node8 -->
<g id="edge7_Node000002_Node000008" class="edge">
<title>Node2&#45;&gt;Node8</title>
<g id="a_edge7_Node000002_Node000008"><a xlink:title=" ">
<path fill="none" stroke="#63b8ff" d="M906.73,-274.98C917.73,-267 934.42,-254.88 947.6,-245.31"/>
<polygon fill="#63b8ff" stroke="#63b8ff" points="950.02,-247.88 956.06,-239.17 945.91,-242.21 950.02,-247.88"/>
</a>
</g>
</g>
<!-- Node2&#45;&gt;Node9 -->
<g id="edge8_Node000002_Node000009" class="edge">
<title>Node2&#45;&gt;Node9</title>
<g id="a_edge8_Node000002_Node000009"><a xlink:title=" ">
<path fill="none" stroke="#63b8ff" d="M992.7,-277.38C1050.9,-271.62 1125.56,-260.48 1189,-239 1213.02,-230.87 1273.14,-203.79 1289,-184 1325.2,-138.82 1341.71,-101.33 1307,-55 1292.78,-36.02 1228.72,-22.42 1188.44,-15.56"/>
<polygon fill="#63b8ff" stroke="#63b8ff" points="1188.94,-12.09 1178.5,-13.92 1187.8,-19 1188.94,-12.09"/>
</a>
</g>
</g>
<!-- Node10 -->
<g id="Node000010" class="node">
<title>Node10</title>
<g id="a_Node000010"><a xlink:title=" ">
<polygon fill="#e0e0e0" stroke="#999999" points="827,-129 769,-129 769,-110 827,-110 827,-129"/>
<text text-anchor="middle" x="798" y="-117" font-family="Helvetica,sans-Serif" font-size="10.00">asio.hpp</text>
</a>
</g>
</g>
<!-- Node2&#45;&gt;Node10 -->
<g id="edge9_Node000002_Node000010" class="edge">
<title>Node2&#45;&gt;Node10</title>
<g id="a_edge9_Node000002_Node000010"><a xlink:title=" ">
<path fill="none" stroke="#63b8ff" d="M797.27,-277.09C733.96,-267.18 656.24,-242.86 617,-184 612.32,-176.97 611.79,-171.65 617,-165 619.23,-162.16 706.44,-141.62 758.97,-129.47"/>
<polygon fill="#63b8ff" stroke="#63b8ff" points="760.03,-132.81 768.98,-127.15 758.45,-125.99 760.03,-132.81"/>
</a>
</g>
</g>
<!-- Node11 -->
<g id="Node000011" class="node">
<title>Node11</title>
<g id="a_Node000011"><a xlink:href="ClientManager_8hpp.html" target="_top" xlink:title=" ">
<polygon fill="white" stroke="#666666" points="453.5,-239 302.5,-239 302.5,-220 453.5,-220 453.5,-239"/>
<text text-anchor="middle" x="378" y="-227" font-family="Helvetica,sans-Serif" font-size="10.00">network/ClientManager.hpp</text>
</a>
</g>
</g>
<!-- Node2&#45;&gt;Node11 -->
<g id="edge10_Node000002_Node000011" class="edge">
<title>Node2&#45;&gt;Node11</title>
<g id="a_edge10_Node000002_Node000011"><a xlink:title=" ">
<path fill="none" stroke="#63b8ff" d="M811.94,-274.98C716.41,-265.19 560.37,-249.2 463.74,-239.29"/>
<polygon fill="#63b8ff" stroke="#63b8ff" points="464.01,-235.8 453.71,-238.26 463.3,-242.76 464.01,-235.8"/>
</a>
</g>
</g>
<!-- Node17 -->
<g id="Node000017" class="node">
<title>Node17</title>
<g id="a_Node000017"><a xlink:href="INetworkManager_8hpp.html" target="_top" xlink:title=" ">
<polygon fill="white" stroke="#666666" points="751.5,-129 584.5,-129 584.5,-110 751.5,-110 751.5,-129"/>
<text text-anchor="middle" x="668" y="-117" font-family="Helvetica,sans-Serif" font-size="10.00">network/INetworkManager.hpp</text>
</a>
</g>
</g>
<!-- Node2&#45;&gt;Node17 -->
<g id="edge22_Node000002_Node000017" class="edge">
<title>Node2&#45;&gt;Node17</title>
<g id="a_edge22_Node000002_Node000017"><a xlink:title=" ">
<path fill="none" stroke="#63b8ff" d="M806.74,-274.98C746.47,-267.81 673.01,-255.97 647,-239 616.2,-218.91 593.74,-197.98 610,-165 616.49,-151.85 628.93,-141.5 640.64,-134.11"/>
<polygon fill="#63b8ff" stroke="#63b8ff" points="642.46,-137.1 649.33,-129.03 638.93,-131.05 642.46,-137.1"/>
</a>
</g>
</g>
<!-- Node20 -->
<g id="Node000020" class="node">
<title>Node20</title>
<g id="a_Node000020"><a xlink:href="TCPServer_8hpp.html" target="_top" xlink:title=" ">
<polygon fill="white" stroke="#666666" points="887.5,-239 758.5,-239 758.5,-220 887.5,-220 887.5,-239"/>
<text text-anchor="middle" x="823" y="-227" font-family="Helvetica,sans-Serif" font-size="10.00">network/TCPServer.hpp</text>
</a>
</g>
</g>
<!-- Node2&#45;&gt;Node20 -->
<g id="edge29_Node000002_Node000020" class="edge">
<title>Node2&#45;&gt;Node20</title>
<g id="a_edge29_Node000002_Node000020"><a xlink:title=" ">
<path fill="none" stroke="#63b8ff" d="M883.43,-274.98C872.58,-267 856.12,-254.88 843.12,-245.31"/>
<polygon fill="#63b8ff" stroke="#63b8ff" points="844.91,-242.28 834.78,-239.17 840.76,-247.92 844.91,-242.28"/>
</a>
</g>
</g>
<!-- Node28 -->
<g id="Node000028" class="node">
<title>Node28</title>
<g id="a_Node000028"><a xlink:href="UDPServer_8hpp.html" target="_top" xlink:title=" ">
<polygon fill="white" stroke="#666666" points="1180,-239 1048,-239 1048,-220 1180,-220 1180,-239"/>
<text text-anchor="middle" x="1114" y="-227" font-family="Helvetica,sans-Serif" font-size="10.00">network/UDPServer.hpp</text>
</a>
</g>
</g>
<!-- Node2&#45;&gt;Node28 -->
<g id="edge53_Node000002_Node000028" class="edge">
<title>Node2&#45;&gt;Node28</title>
<g id="a_edge53_Node000002_Node000028"><a xlink:title=" ">
<path fill="none" stroke="#63b8ff" d="M930.19,-274.98C967.83,-265.87 1027.66,-251.4 1068.77,-241.45"/>
<polygon fill="#63b8ff" stroke="#63b8ff" points="1069.64,-244.84 1078.54,-239.08 1068,-238.03 1069.64,-244.84"/>
</a>
</g>
</g>
<!-- Node11&#45;&gt;Node4 -->
<g id="edge11_Node000011_Node000004" class="edge">
<title>Node11&#45;&gt;Node4</title>
<g id="a_edge11_Node000011_Node000004"><a xlink:title=" ">
<path fill="none" stroke="#63b8ff" d="M453.7,-222.05C549.67,-213.76 720.2,-198.69 866,-184 878.21,-182.77 891.5,-181.34 903.55,-180"/>
<polygon fill="#63b8ff" stroke="#63b8ff" points="904.21,-183.45 913.76,-178.86 903.44,-176.49 904.21,-183.45"/>
</a>
</g>
</g>
<!-- Node11&#45;&gt;Node5 -->
<g id="edge12_Node000011_Node000005" class="edge">
<title>Node11&#45;&gt;Node5</title>
<g id="a_edge12_Node000011_Node000005"><a xlink:title=" ">
<path fill="none" stroke="#63b8ff" d="M326.16,-219.96C275.52,-211.45 196.29,-197.71 128,-184 126.73,-183.75 125.44,-183.48 124.14,-183.21"/>
<polygon fill="#63b8ff" stroke="#63b8ff" points="124.6,-179.73 114.09,-181.06 123.13,-186.57 124.6,-179.73"/>
</a>
</g>
</g>
<!-- Node11&#45;&gt;Node7 -->
<g id="edge13_Node000011_Node000007" class="edge">
<title>Node11&#45;&gt;Node7</title>
<g id="a_edge13_Node000011_Node000007"><a xlink:title=" ">
<path fill="none" stroke="#63b8ff" d="M302.35,-222.99C247.06,-217.21 178.78,-205.79 161,-184 124.41,-139.14 142.76,-63.84 154.18,-29.1"/>
<polygon fill="#63b8ff" stroke="#63b8ff" points="157.6,-29.93 157.57,-19.33 150.98,-27.63 157.6,-29.93"/>
</a>
</g>
</g>
<!-- Node11&#45;&gt;Node9 -->
<g id="edge15_Node000011_Node000009" class="edge">
<title>Node11&#45;&gt;Node9</title>
<g id="a_edge15_Node000011_Node000009"><a xlink:title=" ">
<path fill="none" stroke="#63b8ff" d="M404.97,-219.89C449.89,-205.93 543.08,-178.54 624,-165 724.04,-148.26 991.99,-181.12 1079,-129 1117.14,-106.15 1139.46,-55.93 1149.17,-28.78"/>
<polygon fill="#63b8ff" stroke="#63b8ff" points="1152.59,-29.6 1152.48,-19 1145.96,-27.35 1152.59,-29.6"/>
</a>
</g>
</g>
<!-- Node12 -->
<g id="Node000012" class="node">
<title>Node12</title>
<g id="a_Node000012"><a xlink:title=" ">
<polygon fill="#e0e0e0" stroke="#999999" points="424.5,-184 331.5,-184 331.5,-165 424.5,-165 424.5,-184"/>
<text text-anchor="middle" x="378" y="-172" font-family="Helvetica,sans-Serif" font-size="10.00">unordered_map</text>
</a>
</g>
</g>
<!-- Node11&#45;&gt;Node12 -->
<g id="edge14_Node000011_Node000012" class="edge">
<title>Node11&#45;&gt;Node12</title>
<g id="a_edge14_Node000011_Node000012"><a xlink:title=" ">
<path fill="none" stroke="#63b8ff" d="M378,-219.75C378,-212.8 378,-202.85 378,-194.13"/>
<polygon fill="#63b8ff" stroke="#63b8ff" points="381.5,-194.09 378,-184.09 374.5,-194.09 381.5,-194.09"/>
</a>
</g>
</g>
<!-- Node13 -->
<g id="Node000013" class="node">
<title>Node13</title>
<g id="a_Node000013"><a xlink:href="HandleClient_8hpp.html" target="_top" xlink:title=" ">
<polygon fill="white" stroke="#666666" points="313.5,-184 170.5,-184 170.5,-165 313.5,-165 313.5,-184"/>
<text text-anchor="middle" x="242" y="-172" font-family="Helvetica,sans-Serif" font-size="10.00">network/HandleClient.hpp</text>
</a>
</g>
</g>
<!-- Node11&#45;&gt;Node13 -->
<g id="edge16_Node000011_Node000013" class="edge">
<title>Node11&#45;&gt;Node13</title>
<g id="a_edge16_Node000011_Node000013"><a xlink:title=" ">
<path fill="none" stroke="#63b8ff" d="M356.15,-219.98C333.88,-211.3 299.1,-197.75 273.78,-187.88"/>
<polygon fill="#63b8ff" stroke="#63b8ff" points="274.84,-184.54 264.25,-184.17 272.29,-191.06 274.84,-184.54"/>
</a>
</g>
</g>
<!-- Node13&#45;&gt;Node7 -->
<g id="edge20_Node000013_Node000007" class="edge">
<title>Node13&#45;&gt;Node7</title>
<g id="a_edge20_Node000013_Node000007"><a xlink:title=" ">
<path fill="none" stroke="#63b8ff" d="M232.79,-164.7C224.34,-156.22 211.98,-142.69 204,-129 184.89,-96.19 171.93,-53.41 165.56,-29.26"/>
<polygon fill="#63b8ff" stroke="#63b8ff" points="168.89,-28.13 163.04,-19.3 162.1,-29.85 168.89,-28.13"/>
</a>
</g>
</g>
<!-- Node13&#45;&gt;Node10 -->
<g id="edge21_Node000013_Node000010" class="edge">
<title>Node13&#45;&gt;Node10</title>
<g id="a_edge21_Node000013_Node000010"><a xlink:title=" ">
<path fill="none" stroke="#63b8ff" d="M313.52,-165.82C316.38,-165.53 319.22,-165.26 322,-165 513.23,-146.98 565.19,-158.01 758.69,-129"/>
<polygon fill="#63b8ff" stroke="#63b8ff" points="759.25,-132.45 768.62,-127.49 758.21,-125.53 759.25,-132.45"/>
</a>
</g>
</g>
<!-- Node14 -->
<g id="Node000014" class="node">
<title>Node14</title>
<g id="a_Node000014"><a xlink:title=" ">
<polygon fill="#e0e0e0" stroke="#999999" points="263,-129 213,-129 213,-110 263,-110 263,-129"/>
<text text-anchor="middle" x="238" y="-117" font-family="Helvetica,sans-Serif" font-size="10.00">chrono</text>
</a>
</g>
</g>
<!-- Node13&#45;&gt;Node14 -->
<g id="edge17_Node000013_Node000014" class="edge">
<title>Node13&#45;&gt;Node14</title>
<g id="a_edge17_Node000013_Node000014"><a xlink:title=" ">
<path fill="none" stroke="#63b8ff" d="M241.34,-164.75C240.82,-157.8 240.06,-147.85 239.41,-139.13"/>
<polygon fill="#63b8ff" stroke="#63b8ff" points="242.89,-138.8 238.65,-129.09 235.91,-139.32 242.89,-138.8"/>
</a>
</g>
</g>
<!-- Node15 -->
<g id="Node000015" class="node">
<title>Node15</title>
<g id="a_Node000015"><a xlink:title=" ">
<polygon fill="#e0e0e0" stroke="#999999" points="674,-19 624,-19 624,0 674,0 674,-19"/>
<text text-anchor="middle" x="649" y="-7" font-family="Helvetica,sans-Serif" font-size="10.00">cstdint</text>
</a>
</g>
</g>
<!-- Node13&#45;&gt;Node15 -->
<g id="edge18_Node000013_Node000015" class="edge">
<title>Node13&#45;&gt;Node15</title>
<g id="a_edge18_Node000013_Node000015"><a xlink:title=" ">
<path fill="none" stroke="#63b8ff" d="M263.31,-164.97C330.6,-138.02 538.77,-54.65 617.98,-22.92"/>
<polygon fill="#63b8ff" stroke="#63b8ff" points="619.43,-26.11 627.41,-19.15 616.83,-19.62 619.43,-26.11"/>
</a>
</g>
</g>
<!-- Node16 -->
<g id="Node000016" class="node">
<title>Node16</title>
<g id="a_Node000016"><a xlink:title=" ">
<polygon fill="#e0e0e0" stroke="#999999" points="337,-129 281,-129 281,-110 337,-110 337,-129"/>
<text text-anchor="middle" x="309" y="-117" font-family="Helvetica,sans-Serif" font-size="10.00">optional</text>
</a>
</g>
</g>
<!-- Node13&#45;&gt;Node16 -->
<g id="edge19_Node000013_Node000016" class="edge">
<title>Node13&#45;&gt;Node16</title>
<g id="a_edge19_Node000013_Node000016"><a xlink:title=" ">
<path fill="none" stroke="#63b8ff" d="M252.76,-164.98C262.77,-157.07 277.89,-145.11 289.93,-135.58"/>
<polygon fill="#63b8ff" stroke="#63b8ff" points="292.37,-138.12 298.04,-129.17 288.03,-132.63 292.37,-138.12"/>
</a>
</g>
</g>
<!-- Node17&#45;&gt;Node9 -->
<g id="edge25_Node000017_Node000009" class="edge">
<title>Node17&#45;&gt;Node9</title>
<g id="a_edge25_Node000017_Node000009"><a xlink:title=" ">
<path fill="none" stroke="#63b8ff" d="M751.76,-110.3C853.3,-100.09 1014.23,-82.89 1041,-74 1057.06,-68.67 1059.25,-63.3 1074,-55 1092.82,-44.41 1114.24,-32.66 1130.32,-23.89"/>
<polygon fill="#63b8ff" stroke="#63b8ff" points="1132.01,-26.96 1139.12,-19.1 1128.66,-20.81 1132.01,-26.96"/>
</a>
</g>
</g>
<!-- Node17&#45;&gt;Node15 -->
<g id="edge23_Node000017_Node000015" class="edge">
<title>Node17&#45;&gt;Node15</title>
<g id="a_edge23_Node000017_Node000015"><a xlink:title=" ">
<path fill="none" stroke="#63b8ff" d="M651.11,-109.95C638.29,-102.43 621.62,-90.15 614,-74 606.17,-57.41 618.6,-39.12 630.76,-26.46"/>
<polygon fill="#63b8ff" stroke="#63b8ff" points="633.35,-28.82 638.11,-19.36 628.49,-23.79 633.35,-28.82"/>
</a>
</g>
</g>
<!-- Node18 -->
<g id="Node000018" class="node">
<title>Node18</title>
<g id="a_Node000018"><a xlink:title=" ">
<polygon fill="#e0e0e0" stroke="#999999" points="867.5,-74 802.5,-74 802.5,-55 867.5,-55 867.5,-74"/>
<text text-anchor="middle" x="835" y="-62" font-family="Helvetica,sans-Serif" font-size="10.00">functional</text>
</a>
</g>
</g>
<!-- Node17&#45;&gt;Node18 -->
<g id="edge24_Node000017_Node000018" class="edge">
<title>Node17&#45;&gt;Node18</title>
<g id="a_edge24_Node000017_Node000018"><a xlink:title=" ">
<path fill="none" stroke="#63b8ff" d="M694.83,-109.98C722.87,-101.09 767.05,-87.07 798.3,-77.15"/>
<polygon fill="#63b8ff" stroke="#63b8ff" points="799.49,-80.44 807.96,-74.08 797.37,-73.77 799.49,-80.44"/>
</a>
</g>
</g>
<!-- Node19 -->
<g id="Node000019" class="node">
<title>Node19</title>
<g id="a_Node000019"><a xlink:href="include_2NetworkMessage_8hpp.html" target="_top" xlink:title=" ">
<polygon fill="white" stroke="#666666" points="784.5,-74 623.5,-74 623.5,-55 784.5,-55 784.5,-74"/>
<text text-anchor="middle" x="704" y="-62" font-family="Helvetica,sans-Serif" font-size="10.00">include/NetworkMessage.hpp</text>
</a>
</g>
</g>
<!-- Node17&#45;&gt;Node19 -->
<g id="edge26_Node000017_Node000019" class="edge">
<title>Node17&#45;&gt;Node19</title>
<g id="a_edge26_Node000017_Node000019"><a xlink:title=" ">
<path fill="none" stroke="#63b8ff" d="M673.94,-109.75C678.98,-102.34 686.34,-91.5 692.51,-82.41"/>
<polygon fill="#63b8ff" stroke="#63b8ff" points="695.44,-84.33 698.17,-74.09 689.65,-80.39 695.44,-84.33"/>
</a>
</g>
</g>
<!-- Node19&#45;&gt;Node9 -->
<g id="edge28_Node000019_Node000009" class="edge">
<title>Node19&#45;&gt;Node9</title>
<g id="a_edge28_Node000019_Node000009"><a xlink:title=" ">
<path fill="none" stroke="#63b8ff" d="M776.46,-54.98C875.43,-43.35 1048.85,-22.97 1121.5,-14.44"/>
<polygon fill="#63b8ff" stroke="#63b8ff" points="1121.94,-17.91 1131.46,-13.27 1121.12,-10.96 1121.94,-17.91"/>
</a>
</g>
</g>
<!-- Node19&#45;&gt;Node15 -->
<g id="edge27_Node000019_Node000015" class="edge">
<title>Node19&#45;&gt;Node15</title>
<g id="a_edge27_Node000019_Node000015"><a xlink:title=" ">
<path fill="none" stroke="#63b8ff" d="M694.92,-54.75C686.91,-47.03 675.04,-35.6 665.38,-26.28"/>
<polygon fill="#63b8ff" stroke="#63b8ff" points="667.54,-23.51 657.91,-19.09 662.69,-28.55 667.54,-23.51"/>
</a>
</g>
</g>
<!-- Node20&#45;&gt;Node3 -->
<g id="edge32_Node000020_Node000003" class="edge">
<title>Node20&#45;&gt;Node3</title>
<g id="a_edge32_Node000020_Node000003"><a xlink:title=" ">
<path fill="none" stroke="#63b8ff" d="M887.62,-222.63C1008.62,-211.63 1266.1,-188.22 1365.59,-179.17"/>
<polygon fill="#63b8ff" stroke="#63b8ff" points="1366.18,-182.63 1375.82,-178.24 1365.55,-175.66 1366.18,-182.63"/>
</a>
</g>
</g>
<!-- Node20&#45;&gt;Node4 -->
<g id="edge33_Node000020_Node000004" class="edge">
<title>Node20&#45;&gt;Node4</title>
<g id="a_edge33_Node000020_Node000004"><a xlink:title=" ">
<path fill="none" stroke="#63b8ff" d="M842.28,-219.98C861.67,-211.42 891.81,-198.11 914.07,-188.28"/>
<polygon fill="#63b8ff" stroke="#63b8ff" points="915.64,-191.41 923.37,-184.17 912.81,-185.01 915.64,-191.41"/>
</a>
</g>
</g>
<!-- Node20&#45;&gt;Node7 -->
<g id="edge34_Node000020_Node000007" class="edge">
<title>Node20&#45;&gt;Node7</title>
<g id="a_edge34_Node000020_Node000007"><a xlink:title=" ">
<path fill="none" stroke="#63b8ff" d="M773.36,-219.95C731.3,-212.19 669.62,-199.6 617,-184 451.4,-134.92 260.3,-53.95 189.39,-23.03"/>
<polygon fill="#63b8ff" stroke="#63b8ff" points="190.76,-19.81 180.19,-19.01 187.95,-26.22 190.76,-19.81"/>
</a>
</g>
</g>
<!-- Node20&#45;&gt;Node9 -->
<g id="edge36_Node000020_Node000009" class="edge">
<title>Node20&#45;&gt;Node9</title>
<g id="a_edge36_Node000020_Node000009"><a xlink:title=" ">
<path fill="none" stroke="#63b8ff" d="M887.71,-223.4C996.25,-214.52 1204.24,-196.05 1215,-184 1256.68,-137.32 1199.12,-60.17 1170.04,-26.76"/>
<polygon fill="#63b8ff" stroke="#63b8ff" points="1172.61,-24.38 1163.34,-19.25 1167.39,-29.05 1172.61,-24.38"/>
</a>
</g>
</g>
<!-- Node20&#45;&gt;Node10 -->
<g id="edge37_Node000020_Node000010" class="edge">
<title>Node20&#45;&gt;Node10</title>
<g id="a_edge37_Node000020_Node000010"><a xlink:title=" ">
<path fill="none" stroke="#63b8ff" d="M758.46,-222.71C706.94,-216.59 640.71,-204.86 624,-184 618.72,-177.41 618.82,-171.67 624,-165 626.11,-162.28 708.32,-142.09 758.97,-129.86"/>
<polygon fill="#63b8ff" stroke="#63b8ff" points="760.05,-133.2 768.95,-127.45 758.41,-126.39 760.05,-133.2"/>
</a>
</g>
</g>
<!-- Node20&#45;&gt;Node12 -->
<g id="edge35_Node000020_Node000012" class="edge">
<title>Node20&#45;&gt;Node12</title>
<g id="a_edge35_Node000020_Node000012"><a xlink:title=" ">
<path fill="none" stroke="#63b8ff" d="M758.4,-221.47C682.04,-213.06 551.18,-198.31 439,-184 437.54,-183.81 436.06,-183.62 434.57,-183.43"/>
<polygon fill="#63b8ff" stroke="#63b8ff" points="434.99,-179.95 424.61,-182.11 434.06,-186.89 434.99,-179.95"/>
</a>
</g>
</g>
<!-- Node20&#45;&gt;Node18 -->
<g id="edge31_Node000020_Node000018" class="edge">
<title>Node20&#45;&gt;Node18</title>
<g id="a_edge31_Node000020_Node000018"><a xlink:title=" ">
<path fill="none" stroke="#63b8ff" d="M835.49,-219.93C845.87,-211.99 859.88,-199.14 866,-184 880.02,-149.33 860.14,-106.36 846.33,-82.87"/>
<polygon fill="#63b8ff" stroke="#63b8ff" points="849.13,-80.74 840.9,-74.07 843.17,-84.42 849.13,-80.74"/>
</a>
</g>
</g>
<!-- Node21 -->
<g id="Node000021" class="node">
<title>Node21</title>
<g id="a_Node000021"><a xlink:title=" ">
<polygon fill="#e0e0e0" stroke="#999999" points="857.5,-184 788.5,-184 788.5,-165 857.5,-165 857.5,-184"/>
<text text-anchor="middle" x="823" y="-172" font-family="Helvetica,sans-Serif" font-size="10.00">arpa/inet.h</text>
</a>
</g>
</g>
<!-- Node20&#45;&gt;Node21 -->
<g id="edge30_Node000020_Node000021" class="edge">
<title>Node20&#45;&gt;Node21</title>
<g id="a_edge30_Node000020_Node000021"><a xlink:title=" ">
<path fill="none" stroke="#63b8ff" d="M823,-219.75C823,-212.8 823,-202.85 823,-194.13"/>
<polygon fill="#63b8ff" stroke="#63b8ff" points="826.5,-194.09 823,-184.09 819.5,-194.09 826.5,-194.09"/>
</a>
</g>
</g>
<!-- Node22 -->
<g id="Node000022" class="node">
<title>Node22</title>
<g id="a_Node000022"><a xlink:href="ServerMacro_8hpp.html" target="_top" xlink:title="Server configuration constants and macros.">
<polygon fill="white" stroke="#666666" points="770.5,-184 633.5,-184 633.5,-165 770.5,-165 770.5,-184"/>
<text text-anchor="middle" x="702" y="-172" font-family="Helvetica,sans-Serif" font-size="10.00">include/ServerMacro.hpp</text>
</a>
</g>
</g>
<!-- Node20&#45;&gt;Node22 -->
<g id="edge38_Node000020_Node000022" class="edge">
<title>Node20&#45;&gt;Node22</title>
<g id="a_edge38_Node000020_Node000022"><a xlink:title=" ">
<path fill="none" stroke="#63b8ff" d="M803.56,-219.98C784.01,-211.42 753.62,-198.11 731.18,-188.28"/>
<polygon fill="#63b8ff" stroke="#63b8ff" points="732.36,-184.98 721.79,-184.17 729.55,-191.39 732.36,-184.98"/>
</a>
</g>
</g>
<!-- Node20&#45;&gt;Node23 -->
<g id="edge39_Node000020_Node000023" class="edge">
<title>Node20&#45;&gt;Node23</title>
<g id="a_edge39_Node000020_Node000023"><a xlink:title=" ">
<path fill="none" stroke="#63b8ff" d="M873.29,-219.98C928.42,-210.65 1016.85,-195.67 1075.68,-185.71"/>
<polygon fill="#63b8ff" stroke="#63b8ff" points="1076.3,-189.16 1085.58,-184.04 1075.13,-182.26 1076.3,-189.16"/>
</a>
</g>
</g>
<!-- Node23&#45;&gt;Node9 -->
<g id="edge41_Node000023_Node000009" class="edge">
<title>Node23&#45;&gt;Node9</title>
<g id="a_edge41_Node000023_Node000009"><a xlink:title=" ">
<path fill="none" stroke="#63b8ff" d="M1137.42,-164.74C1140.17,-147.44 1146.31,-107.64 1150,-74 1151.64,-59.02 1152.95,-41.99 1153.82,-29.34"/>
<polygon fill="#63b8ff" stroke="#63b8ff" points="1157.33,-29.35 1154.49,-19.14 1150.34,-28.89 1157.33,-29.35"/>
</a>
</g>
</g>
<!-- Node23&#45;&gt;Node15 -->
<g id="edge40_Node000023_Node000015" class="edge">
<title>Node23&#45;&gt;Node15</title>
<g id="a_edge40_Node000023_Node000015"><a xlink:title=" ">
<path fill="none" stroke="#63b8ff" d="M1065.9,-169.17C917.24,-159.84 583.24,-137.92 575,-129 544.61,-96.1 596.55,-49.02 627.87,-25.32"/>
<polygon fill="#63b8ff" stroke="#63b8ff" points="630.09,-28.03 636.07,-19.29 625.94,-22.39 630.09,-28.03"/>
</a>
</g>
</g>
<!-- Node24 -->
<g id="Node000024" class="node">
<title>Node24</title>
<g id="a_Node000024"><a xlink:href="Decoder_8hpp.html" target="_top" xlink:title=" ">
<polygon fill="white" stroke="#666666" points="1070,-129 950,-129 950,-110 1070,-110 1070,-129"/>
<text text-anchor="middle" x="1010" y="-117" font-family="Helvetica,sans-Serif" font-size="10.00">network/Decoder.hpp</text>
</a>
</g>
</g>
<!-- Node23&#45;&gt;Node24 -->
<g id="edge42_Node000023_Node000024" class="edge">
<title>Node23&#45;&gt;Node24</title>
<g id="a_edge42_Node000023_Node000024"><a xlink:title=" ">
<path fill="none" stroke="#63b8ff" d="M1115.76,-164.98C1095.3,-156.38 1063.47,-142.99 1040.07,-133.15"/>
<polygon fill="#63b8ff" stroke="#63b8ff" points="1041.19,-129.82 1030.61,-129.17 1038.47,-136.27 1041.19,-129.82"/>
</a>
</g>
</g>
<!-- Node26 -->
<g id="Node000026" class="node">
<title>Node26</title>
<g id="a_Node000026"><a xlink:href="Event_8hpp.html" target="_top" xlink:title=" ">
<polygon fill="white" stroke="#666666" points="1032,-74 924,-74 924,-55 1032,-55 1032,-74"/>
<text text-anchor="middle" x="978" y="-62" font-family="Helvetica,sans-Serif" font-size="10.00">network/Event.hpp</text>
</a>
</g>
</g>
<!-- Node23&#45;&gt;Node26 -->
<g id="edge52_Node000023_Node000026" class="edge">
<title>Node23&#45;&gt;Node26</title>
<g id="a_edge52_Node000023_Node000026"><a xlink:title=" ">
<path fill="none" stroke="#63b8ff" d="M1129.94,-164.62C1120.43,-151.24 1100.83,-125.82 1079,-110 1059.67,-95.99 1035.22,-85.07 1015.23,-77.56"/>
<polygon fill="#63b8ff" stroke="#63b8ff" points="1016.4,-74.26 1005.81,-74.15 1014.02,-80.85 1016.4,-74.26"/>
</a>
</g>
</g>
<!-- Node24&#45;&gt;Node9 -->
<g id="edge46_Node000024_Node000009" class="edge">
<title>Node24&#45;&gt;Node9</title>
<g id="a_edge46_Node000024_Node000009"><a xlink:title=" ">
<path fill="none" stroke="#63b8ff" d="M1022.9,-109.85C1035.94,-101.03 1056.58,-86.87 1074,-74 1095.71,-57.97 1119.99,-38.75 1136.26,-25.69"/>
<polygon fill="#63b8ff" stroke="#63b8ff" points="1138.82,-28.12 1144.41,-19.12 1134.42,-22.67 1138.82,-28.12"/>
</a>
</g>
</g>
<!-- Node24&#45;&gt;Node15 -->
<g id="edge44_Node000024_Node000015" class="edge">
<title>Node24&#45;&gt;Node15</title>
<g id="a_edge44_Node000024_Node000015"><a xlink:title=" ">
<path fill="none" stroke="#63b8ff" d="M991.39,-109.89C972.21,-100.98 941.46,-86.64 915,-74 897.6,-65.69 894.28,-61.13 876,-55 810.08,-32.9 729.51,-20.34 684.24,-14.52"/>
<polygon fill="#63b8ff" stroke="#63b8ff" points="684.42,-11.02 674.06,-13.25 683.55,-17.97 684.42,-11.02"/>
</a>
</g>
</g>
<!-- Node24&#45;&gt;Node18 -->
<g id="edge45_Node000024_Node000018" class="edge">
<title>Node24&#45;&gt;Node18</title>
<g id="a_edge45_Node000024_Node000018"><a xlink:title=" ">
<path fill="none" stroke="#63b8ff" d="M981.88,-109.98C952.38,-101.05 905.81,-86.94 873.03,-77.02"/>
<polygon fill="#63b8ff" stroke="#63b8ff" points="873.92,-73.63 863.34,-74.08 871.89,-80.33 873.92,-73.63"/>
</a>
</g>
</g>
<!-- Node25 -->
<g id="Node000025" class="node">
<title>Node25</title>
<g id="a_Node000025"><a xlink:title=" ">
<polygon fill="#e0e0e0" stroke="#999999" points="1282,-74 1240,-74 1240,-55 1282,-55 1282,-74"/>
<text text-anchor="middle" x="1261" y="-62" font-family="Helvetica,sans-Serif" font-size="10.00">array</text>
</a>
</g>
</g>
<!-- Node24&#45;&gt;Node25 -->
<g id="edge43_Node000024_Node000025" class="edge">
<title>Node24&#45;&gt;Node25</title>
<g id="a_edge43_Node000024_Node000025"><a xlink:title=" ">
<path fill="none" stroke="#63b8ff" d="M1050.33,-109.98C1100.34,-99.42 1184.52,-81.65 1229.85,-72.08"/>
<polygon fill="#63b8ff" stroke="#63b8ff" points="1230.64,-75.49 1239.7,-70 1229.19,-68.64 1230.64,-75.49"/>
</a>
</g>
</g>
<!-- Node24&#45;&gt;Node26 -->
<g id="edge47_Node000024_Node000026" class="edge">
<title>Node24&#45;&gt;Node26</title>
<g id="a_edge47_Node000024_Node000026"><a xlink:title=" ">
<path fill="none" stroke="#63b8ff" d="M1004.72,-109.75C1000.29,-102.42 993.84,-91.73 988.38,-82.7"/>
<polygon fill="#63b8ff" stroke="#63b8ff" points="991.35,-80.84 983.19,-74.09 985.36,-84.46 991.35,-80.84"/>
</a>
</g>
</g>
<!-- Node26&#45;&gt;Node7 -->
<g id="edge49_Node000026_Node000007" class="edge">
<title>Node26&#45;&gt;Node7</title>
<g id="a_edge49_Node000026_Node000007"><a xlink:title=" ">
<path fill="none" stroke="#63b8ff" d="M923.76,-58.77C908.33,-57.48 891.51,-56.13 876,-55 612.7,-35.84 294.47,-17.86 193.42,-12.27"/>
<polygon fill="#63b8ff" stroke="#63b8ff" points="193.43,-8.77 183.25,-11.71 193.04,-15.76 193.43,-8.77"/>
</a>
</g>
</g>
<!-- Node26&#45;&gt;Node9 -->
<g id="edge51_Node000026_Node000009" class="edge">
<title>Node26&#45;&gt;Node9</title>
<g id="a_edge51_Node000026_Node000009"><a xlink:title=" ">
<path fill="none" stroke="#63b8ff" d="M1006.44,-54.98C1037.88,-45.57 1088.46,-30.42 1121.72,-20.46"/>
<polygon fill="#63b8ff" stroke="#63b8ff" points="1122.87,-23.77 1131.45,-17.55 1120.86,-17.07 1122.87,-23.77"/>
</a>
</g>
</g>
<!-- Node26&#45;&gt;Node15 -->
<g id="edge48_Node000026_Node000015" class="edge">
<title>Node26&#45;&gt;Node15</title>
<g id="a_edge48_Node000026_Node000015"><a xlink:title=" ">
<path fill="none" stroke="#63b8ff" d="M925.14,-54.98C857.42,-44.08 741.92,-25.47 684.12,-16.16"/>
<polygon fill="#63b8ff" stroke="#63b8ff" points="684.45,-12.67 674.02,-14.53 683.34,-19.58 684.45,-12.67"/>
</a>
</g>
</g>
<!-- Node27 -->
<g id="Node000027" class="node">
<title>Node27</title>
<g id="a_Node000027"><a xlink:title=" ">
<polygon fill="#e0e0e0" stroke="#999999" points="1003.5,-19 952.5,-19 952.5,0 1003.5,0 1003.5,-19"/>
<text text-anchor="middle" x="978" y="-7" font-family="Helvetica,sans-Serif" font-size="10.00">variant</text>
</a>
</g>
</g>
<!-- Node26&#45;&gt;Node27 -->
<g id="edge50_Node000026_Node000027" class="edge">
<title>Node26&#45;&gt;Node27</title>
<g id="a_edge50_Node000026_Node000027"><a xlink:title=" ">
<path fill="none" stroke="#63b8ff" d="M978,-54.75C978,-47.8 978,-37.85 978,-29.13"/>
<polygon fill="#63b8ff" stroke="#63b8ff" points="981.5,-29.09 978,-19.09 974.5,-29.09 981.5,-29.09"/>
</a>
</g>
</g>
<!-- Node28&#45;&gt;Node4 -->
<g id="edge55_Node000028_Node000004" class="edge">
<title>Node28&#45;&gt;Node4</title>
<g id="a_edge55_Node000028_Node000004"><a xlink:title=" ">
<path fill="none" stroke="#63b8ff" d="M1086.53,-219.98C1057.82,-211.09 1012.58,-197.07 980.58,-187.15"/>
<polygon fill="#63b8ff" stroke="#63b8ff" points="981.28,-183.7 970.69,-184.08 979.2,-190.39 981.28,-183.7"/>
</a>
</g>
</g>
<!-- Node28&#45;&gt;Node9 -->
<g id="edge56_Node000028_Node000009" class="edge">
<title>Node28&#45;&gt;Node9</title>
<g id="a_edge56_Node000028_Node000009"><a xlink:title=" ">
<path fill="none" stroke="#63b8ff" d="M1180.27,-224.38C1210.87,-219.1 1245.36,-207.79 1268,-184 1302.44,-147.82 1286.51,-123.74 1291,-74 1291.76,-65.59 1295.96,-61.84 1291,-55 1267.88,-23.11 1221.22,-13.65 1189.05,-11.07"/>
<polygon fill="#63b8ff" stroke="#63b8ff" points="1188.95,-7.56 1178.76,-10.44 1188.52,-14.55 1188.95,-7.56"/>
</a>
</g>
</g>
<!-- Node28&#45;&gt;Node10 -->
<g id="edge58_Node000028_Node000010" class="edge">
<title>Node28&#45;&gt;Node10</title>
<g id="a_edge58_Node000028_Node000010"><a xlink:title=" ">
<path fill="none" stroke="#63b8ff" d="M1096.69,-219.99C1063.41,-203.66 992.72,-169.17 981,-165 932.57,-147.76 874.61,-134.91 837.08,-127.56"/>
<polygon fill="#63b8ff" stroke="#63b8ff" points="837.55,-124.09 827.07,-125.64 836.22,-130.96 837.55,-124.09"/>
</a>
</g>
</g>
<!-- Node28&#45;&gt;Node18 -->
<g id="edge54_Node000028_Node000018" class="edge">
<title>Node28&#45;&gt;Node18</title>
<g id="a_edge54_Node000028_Node000018"><a xlink:title=" ">
<path fill="none" stroke="#63b8ff" d="M1101.48,-219.79C1082.97,-207.08 1047.05,-182.99 1015,-165 983.11,-147.1 973.16,-146.41 941,-129 911.42,-112.98 878.31,-92.77 857.09,-79.5"/>
<polygon fill="#63b8ff" stroke="#63b8ff" points="858.83,-76.46 848.5,-74.11 855.11,-82.39 858.83,-76.46"/>
</a>
</g>
</g>
<!-- Node28&#45;&gt;Node25 -->
<g id="edge57_Node000028_Node000025" class="edge">
<title>Node28&#45;&gt;Node25</title>
<g id="a_edge57_Node000028_Node000025"><a xlink:title=" ">
<path fill="none" stroke="#63b8ff" d="M1180.24,-221.64C1205.15,-215.62 1231.44,-204.5 1248,-184 1271.01,-155.52 1268.43,-109.82 1264.63,-84.29"/>
<polygon fill="#63b8ff" stroke="#63b8ff" points="1268.03,-83.38 1262.89,-74.12 1261.13,-84.56 1268.03,-83.38"/>
</a>
</g>
</g>
</g>
</svg>
