<?xml version="1.0" encoding="UTF-8" standalone="no"?>
<!DOCTYPE svg PUBLIC "-//W3C//DTD SVG 1.1//EN"
 "http://www.w3.org/Graphics/SVG/1.1/DTD/svg11.dtd">
<!-- Generated by graphviz version 2.43.0 (0)
 -->
<!-- Title: /home/runner/work/R&#45;Type/R&#45;Type/Server/include/network/ServerNetworkManager.hpp Pages: 1 -->
<svg width="1873pt" height="335pt"
 viewBox="0.00 0.00 1873.23 335.00" xmlns="http://www.w3.org/2000/svg" xmlns:xlink="http://www.w3.org/1999/xlink">
<g id="graph0" class="graph" transform="scale(1 1) rotate(0) translate(4 331)">
<title>/home/runner/work/R&#45;Type/R&#45;Type/Server/include/network/ServerNetworkManager.hpp</title>
<!-- Node1 -->
<g id="Node000001" class="node">
<title>Node1</title>
<g id="a_Node000001"><a xlink:title=" ">
<polygon fill="#999999" stroke="#666666" points="857.5,-327 684.5,-327 684.5,-275 857.5,-275 857.5,-327"/>
<text text-anchor="start" x="692.5" y="-315" font-family="Helvetica,sans-Serif" font-size="10.00">/home/runner/work/R</text>
<text text-anchor="start" x="692.5" y="-304" font-family="Helvetica,sans-Serif" font-size="10.00">&#45;Type/R&#45;Type/Server</text>
<text text-anchor="start" x="692.5" y="-293" font-family="Helvetica,sans-Serif" font-size="10.00">/include/network/ServerNetwork</text>
<text text-anchor="middle" x="771" y="-282" font-family="Helvetica,sans-Serif" font-size="10.00">Manager.hpp</text>
</a>
</g>
</g>
<!-- Node2 -->
<g id="Node000002" class="node">
<title>Node2</title>
<g id="a_Node000002"><a xlink:title=" ">
<polygon fill="#e0e0e0" stroke="#999999" points="578,-184 518,-184 518,-165 578,-165 578,-184"/>
<text text-anchor="middle" x="548" y="-172" font-family="Helvetica,sans-Serif" font-size="10.00">iostream</text>
</a>
</g>
</g>
<!-- Node1&#45;&gt;Node2 -->
<g id="edge1_Node000001_Node000002" class="edge">
<title>Node1&#45;&gt;Node2</title>
<g id="a_edge1_Node000001_Node000002"><a xlink:title=" ">
<path fill="none" stroke="#63b8ff" d="M726.14,-274.96C679.91,-249.14 609.53,-209.85 572.59,-189.23"/>
<polygon fill="#63b8ff" stroke="#63b8ff" points="573.97,-185.99 563.53,-184.17 570.56,-192.1 573.97,-185.99"/>
</a>
</g>
</g>
<!-- Node3 -->
<g id="Node000003" class="node">
<title>Node3</title>
<g id="a_Node000003"><a xlink:title=" ">
<polygon fill="#e0e0e0" stroke="#999999" points="686,-74 628,-74 628,-55 686,-55 686,-74"/>
<text text-anchor="middle" x="657" y="-62" font-family="Helvetica,sans-Serif" font-size="10.00">memory</text>
</a>
</g>
</g>
<!-- Node1&#45;&gt;Node3 -->
<g id="edge2_Node000001_Node000003" class="edge">
<title>Node1&#45;&gt;Node3</title>
<g id="a_edge2_Node000001_Node000003"><a xlink:title=" ">
<path fill="none" stroke="#63b8ff" d="M684.37,-286.96C623.77,-272.8 547.12,-243.62 509,-184 500.1,-170.09 495.57,-132.8 514,-110 527.11,-93.78 579.94,-80.42 617.57,-72.7"/>
<polygon fill="#63b8ff" stroke="#63b8ff" points="618.6,-76.06 627.73,-70.67 617.24,-69.19 618.6,-76.06"/>
</a>
</g>
</g>
<!-- Node4 -->
<g id="Node000004" class="node">
<title>Node4</title>
<g id="a_Node000004"><a xlink:title=" ">
<polygon fill="#e0e0e0" stroke="#999999" points="114,-129 66,-129 66,-110 114,-110 114,-129"/>
<text text-anchor="middle" x="90" y="-117" font-family="Helvetica,sans-Serif" font-size="10.00">mutex</text>
</a>
</g>
</g>
<!-- Node1&#45;&gt;Node4 -->
<g id="edge3_Node000001_Node000004" class="edge">
<title>Node1&#45;&gt;Node4</title>
<g id="a_edge3_Node000001_Node000004"><a xlink:title=" ">
<path fill="none" stroke="#63b8ff" d="M684.16,-292.42C600.25,-283.85 470.04,-267.28 360,-239 292.04,-221.53 276.14,-212.48 212,-184 177.13,-168.52 138.26,-147.62 113.97,-134.1"/>
<polygon fill="#63b8ff" stroke="#63b8ff" points="115.54,-130.98 105.11,-129.14 112.12,-137.08 115.54,-130.98"/>
</a>
</g>
</g>
<!-- Node5 -->
<g id="Node000005" class="node">
<title>Node5</title>
<g id="a_Node000005"><a xlink:title=" ">
<polygon fill="#e0e0e0" stroke="#999999" points="1476.5,-239 1429.5,-239 1429.5,-220 1476.5,-220 1476.5,-239"/>
<text text-anchor="middle" x="1453" y="-227" font-family="Helvetica,sans-Serif" font-size="10.00">queue</text>
</a>
</g>
</g>
<!-- Node1&#45;&gt;Node5 -->
<g id="edge4_Node000001_Node000005" class="edge">
<title>Node1&#45;&gt;Node5</title>
<g id="a_edge4_Node000001_Node000005"><a xlink:title=" ">
<path fill="none" stroke="#63b8ff" d="M857.63,-295.26C981.69,-287.69 1216.87,-270.42 1415,-239 1416.46,-238.77 1417.95,-238.51 1419.45,-238.24"/>
<polygon fill="#63b8ff" stroke="#63b8ff" points="1420.25,-241.65 1429.37,-236.27 1418.88,-234.79 1420.25,-241.65"/>
</a>
</g>
</g>
<!-- Node6 -->
<g id="Node000006" class="node">
<title>Node6</title>
<g id="a_Node000006"><a xlink:title=" ">
<polygon fill="#e0e0e0" stroke="#999999" points="741,-19 697,-19 697,0 741,0 741,-19"/>
<text text-anchor="middle" x="719" y="-7" font-family="Helvetica,sans-Serif" font-size="10.00">string</text>
</a>
</g>
</g>
<!-- Node1&#45;&gt;Node6 -->
<g id="edge5_Node000001_Node000006" class="edge">
<title>Node1&#45;&gt;Node6</title>
<g id="a_edge5_Node000001_Node000006"><a xlink:title=" ">
<path fill="none" stroke="#63b8ff" d="M684.35,-297.82C499.8,-292.47 80.42,-276.32 28,-239 2.87,-221.11 0,-206.34 0,-175.5 0,-175.5 0,-175.5 0,-118.5 0,-70.27 42.66,-71.44 88,-55 199.9,-14.44 574.68,-10.66 686.95,-10.46"/>
<polygon fill="#63b8ff" stroke="#63b8ff" points="686.98,-13.96 696.98,-10.45 686.98,-6.96 686.98,-13.96"/>
</a>
</g>
</g>
<!-- Node7 -->
<g id="Node000007" class="node">
<title>Node7</title>
<g id="a_Node000007"><a xlink:title=" ">
<polygon fill="#e0e0e0" stroke="#999999" points="1543,-239 1495,-239 1495,-220 1543,-220 1543,-239"/>
<text text-anchor="middle" x="1519" y="-227" font-family="Helvetica,sans-Serif" font-size="10.00">thread</text>
</a>
</g>
</g>
<!-- Node1&#45;&gt;Node7 -->
<g id="edge6_Node000001_Node000007" class="edge">
<title>Node1&#45;&gt;Node7</title>
<g id="a_edge6_Node000001_Node000007"><a xlink:title=" ">
<path fill="none" stroke="#63b8ff" d="M857.71,-297.27C990.91,-292.04 1253.82,-277.65 1485.01,-238.88"/>
<polygon fill="#63b8ff" stroke="#63b8ff" points="1485.68,-242.31 1494.95,-237.19 1484.51,-235.41 1485.68,-242.31"/>
</a>
</g>
</g>
<!-- Node8 -->
<g id="Node000008" class="node">
<title>Node8</title>
<g id="a_Node000008"><a xlink:title=" ">
<polygon fill="#e0e0e0" stroke="#999999" points="1036.5,-19 989.5,-19 989.5,0 1036.5,0 1036.5,-19"/>
<text text-anchor="middle" x="1013" y="-7" font-family="Helvetica,sans-Serif" font-size="10.00">vector</text>
</a>
</g>
</g>
<!-- Node1&#45;&gt;Node8 -->
<g id="edge7_Node000001_Node000008" class="edge">
<title>Node1&#45;&gt;Node8</title>
<g id="a_edge7_Node000001_Node000008"><a xlink:title=" ">
<path fill="none" stroke="#63b8ff" d="M857.78,-292.22C931.12,-283.98 1038.26,-268.03 1128,-239 1248.73,-199.95 1309.67,-190.04 1361,-74 1364.42,-66.28 1366.58,-61.34 1361,-55 1340.4,-31.59 1130.09,-17.16 1046.75,-12.32"/>
<polygon fill="#63b8ff" stroke="#63b8ff" points="1046.73,-8.81 1036.55,-11.74 1046.34,-15.8 1046.73,-8.81"/>
</a>
</g>
</g>
<!-- Node9 -->
<g id="Node000009" class="node">
<title>Node9</title>
<g id="a_Node000009"><a xlink:title=" ">
<polygon fill="#e0e0e0" stroke="#999999" points="601,-74 543,-74 543,-55 601,-55 601,-74"/>
<text text-anchor="middle" x="572" y="-62" font-family="Helvetica,sans-Serif" font-size="10.00">asio.hpp</text>
</a>
</g>
</g>
<!-- Node1&#45;&gt;Node9 -->
<g id="edge8_Node000001_Node000009" class="edge">
<title>Node1&#45;&gt;Node9</title>
<g id="a_edge8_Node000001_Node000009"><a xlink:title=" ">
<path fill="none" stroke="#63b8ff" d="M684.41,-291.46C638.07,-283.55 581.89,-268.32 539,-239 489.66,-205.27 471.11,-161.76 501,-110 509.16,-95.87 523.79,-85.59 537.66,-78.48"/>
<polygon fill="#63b8ff" stroke="#63b8ff" points="539.49,-81.49 547.05,-74.07 536.51,-75.15 539.49,-81.49"/>
</a>
</g>
</g>
<!-- Node10 -->
<g id="Node000010" class="node">
<title>Node10</title>
<g id="a_Node000010"><a xlink:href="IDatabase_8hpp.html" target="_top" xlink:title=" ">
<polygon fill="white" stroke="#666666" points="139,-239 37,-239 37,-220 139,-220 139,-239"/>
<text text-anchor="middle" x="88" y="-227" font-family="Helvetica,sans-Serif" font-size="10.00">db/IDatabase.hpp</text>
</a>
</g>
</g>
<!-- Node1&#45;&gt;Node10 -->
<g id="edge9_Node000001_Node000010" class="edge">
<title>Node1&#45;&gt;Node10</title>
<g id="a_edge9_Node000001_Node000010"><a xlink:title=" ">
<path fill="none" stroke="#63b8ff" d="M684.25,-292.03C565.26,-280.95 344.78,-259.89 157,-239 154.48,-238.72 151.91,-238.43 149.31,-238.13"/>
<polygon fill="#63b8ff" stroke="#63b8ff" points="149.57,-234.64 139.23,-236.95 148.75,-241.59 149.57,-234.64"/>
</a>
</g>
</g>
<!-- Node11 -->
<g id="Node000011" class="node">
<title>Node11</title>
<g id="a_Node000011"><a xlink:href="ClientManager_8hpp.html" target="_top" xlink:title=" ">
<polygon fill="white" stroke="#666666" points="372.5,-184 221.5,-184 221.5,-165 372.5,-165 372.5,-184"/>
<text text-anchor="middle" x="297" y="-172" font-family="Helvetica,sans-Serif" font-size="10.00">network/ClientManager.hpp</text>
</a>
</g>
</g>
<!-- Node1&#45;&gt;Node11 -->
<g id="edge11_Node000001_Node000011" class="edge">
<title>Node1&#45;&gt;Node11</title>
<g id="a_edge11_Node000001_Node000011"><a xlink:title=" ">
<path fill="none" stroke="#63b8ff" d="M684.16,-294.65C608.31,-287.87 496.22,-272.68 404,-239 371.12,-226.99 337,-204.75 316.38,-190.04"/>
<polygon fill="#63b8ff" stroke="#63b8ff" points="318.31,-187.11 308.16,-184.06 314.19,-192.77 318.31,-187.11"/>
</a>
</g>
</g>
<!-- Node18 -->
<g id="Node000018" class="node">
<title>Node18</title>
<g id="a_Node000018"><a xlink:href="Decoder_8hpp.html" target="_top" xlink:title=" ">
<polygon fill="white" stroke="#666666" points="1183,-129 1063,-129 1063,-110 1183,-110 1183,-129"/>
<text text-anchor="middle" x="1123" y="-117" font-family="Helvetica,sans-Serif" font-size="10.00">network/Decoder.hpp</text>
</a>
</g>
</g>
<!-- Node1&#45;&gt;Node18 -->
<g id="edge26_Node000001_Node000018" class="edge">
<title>Node1&#45;&gt;Node18</title>
<g id="a_edge26_Node000001_Node000018"><a xlink:title=" ">
<path fill="none" stroke="#63b8ff" d="M857.75,-288.5C968.79,-271.8 1151.69,-236.92 1192,-184 1207.13,-164.13 1179.35,-145.27 1154.66,-133.35"/>
<polygon fill="#63b8ff" stroke="#63b8ff" points="1155.99,-130.11 1145.44,-129.13 1153.07,-136.48 1155.99,-130.11"/>
</a>
</g>
</g>
<!-- Node23 -->
<g id="Node000023" class="node">
<title>Node23</title>
<g id="a_Node000023"><a xlink:href="Encoder_8hpp.html" target="_top" xlink:title=" ">
<polygon fill="white" stroke="#666666" points="1472.5,-129 1353.5,-129 1353.5,-110 1472.5,-110 1472.5,-129"/>
<text text-anchor="middle" x="1413" y="-117" font-family="Helvetica,sans-Serif" font-size="10.00">network/Encoder.hpp</text>
</a>
</g>
</g>
<!-- Node1&#45;&gt;Node23 -->
<g id="edge36_Node000001_Node000023" class="edge">
<title>Node1&#45;&gt;Node23</title>
<g id="a_edge36_Node000001_Node000023"><a xlink:title=" ">
<path fill="none" stroke="#63b8ff" d="M857.65,-299.8C996.41,-297.99 1260.84,-287.98 1339,-239 1343.96,-235.89 1383.51,-170.1 1402.67,-137.92"/>
<polygon fill="#63b8ff" stroke="#63b8ff" points="1405.8,-139.5 1407.9,-129.12 1399.78,-135.93 1405.8,-139.5"/>
</a>
</g>
</g>
<!-- Node26 -->
<g id="Node000026" class="node">
<title>Node26</title>
<g id="a_Node000026"><a xlink:href="INetworkManager_8hpp.html" target="_top" xlink:title=" ">
<polygon fill="white" stroke="#666666" points="1657.5,-129 1490.5,-129 1490.5,-110 1657.5,-110 1657.5,-129"/>
<text text-anchor="middle" x="1574" y="-117" font-family="Helvetica,sans-Serif" font-size="10.00">network/INetworkManager.hpp</text>
</a>
</g>
</g>
<!-- Node1&#45;&gt;Node26 -->
<g id="edge47_Node000001_Node000026" class="edge">
<title>Node1&#45;&gt;Node26</title>
<g id="a_edge47_Node000001_Node000026"><a xlink:title=" ">
<path fill="none" stroke="#63b8ff" d="M857.57,-295.26C997.7,-286.88 1267.73,-267.59 1359,-239 1436.24,-214.81 1517.2,-161.3 1553.85,-135.28"/>
<polygon fill="#63b8ff" stroke="#63b8ff" points="1556.11,-137.97 1562.19,-129.29 1552.02,-132.28 1556.11,-137.97"/>
</a>
</g>
</g>
<!-- Node28 -->
<g id="Node000028" class="node">
<title>Node28</title>
<g id="a_Node000028"><a xlink:href="TCPServer_8hpp.html" target="_top" xlink:title=" ">
<polygon fill="white" stroke="#666666" points="835.5,-239 706.5,-239 706.5,-220 835.5,-220 835.5,-239"/>
<text text-anchor="middle" x="771" y="-227" font-family="Helvetica,sans-Serif" font-size="10.00">network/TCPServer.hpp</text>
</a>
</g>
</g>
<!-- Node1&#45;&gt;Node28 -->
<g id="edge56_Node000001_Node000028" class="edge">
<title>Node1&#45;&gt;Node28</title>
<g id="a_edge56_Node000001_Node000028"><a xlink:title=" ">
<path fill="none" stroke="#63b8ff" d="M771,-274.91C771,-266.55 771,-257.38 771,-249.55"/>
<polygon fill="#63b8ff" stroke="#63b8ff" points="774.5,-249.3 771,-239.3 767.5,-249.3 774.5,-249.3"/>
</a>
</g>
</g>
<!-- Node32 -->
<g id="Node000032" class="node">
<title>Node32</title>
<g id="a_Node000032"><a xlink:href="UDPServer_8hpp.html" target="_top" xlink:title=" ">
<polygon fill="white" stroke="#666666" points="918,-129 786,-129 786,-110 918,-110 918,-129"/>
<text text-anchor="middle" x="852" y="-117" font-family="Helvetica,sans-Serif" font-size="10.00">network/UDPServer.hpp</text>
</a>
</g>
</g>
<!-- Node1&#45;&gt;Node32 -->
<g id="edge72_Node000001_Node000032" class="edge">
<title>Node1&#45;&gt;Node32</title>
<g id="a_edge72_Node000001_Node000032"><a xlink:title=" ">
<path fill="none" stroke="#63b8ff" d="M857.63,-278.19C905.94,-261.11 962.06,-231.97 991,-184 1009.52,-153.29 969.74,-137.31 928.05,-129.06"/>
<polygon fill="#63b8ff" stroke="#63b8ff" points="928.49,-125.58 918.02,-127.23 927.22,-132.47 928.49,-125.58"/>
</a>
</g>
</g>
<!-- Node10&#45;&gt;Node6 -->
<g id="edge10_Node000010_Node000006" class="edge">
<title>Node10&#45;&gt;Node6</title>
<g id="a_edge10_Node000010_Node000006"><a xlink:title=" ">
<path fill="none" stroke="#63b8ff" d="M81.63,-219.9C67.4,-199.56 35.9,-147.41 57,-110 80.22,-68.84 103.01,-69.45 148,-55 249.48,-22.41 581.45,-13.2 686.69,-11.06"/>
<polygon fill="#63b8ff" stroke="#63b8ff" points="686.78,-14.56 696.71,-10.87 686.64,-7.56 686.78,-14.56"/>
</a>
</g>
</g>
<!-- Node11&#45;&gt;Node3 -->
<g id="edge13_Node000011_Node000003" class="edge">
<title>Node11&#45;&gt;Node3</title>
<g id="a_edge13_Node000011_Node000003"><a xlink:title=" ">
<path fill="none" stroke="#63b8ff" d="M319.61,-164.93C353.97,-152.08 421.51,-127.46 480,-110 526.98,-95.97 581.83,-82.65 617.87,-74.3"/>
<polygon fill="#63b8ff" stroke="#63b8ff" points="619.01,-77.63 627.97,-71.97 617.44,-70.81 619.01,-77.63"/>
</a>
</g>
</g>
<!-- Node11&#45;&gt;Node4 -->
<g id="edge14_Node000011_Node000004" class="edge">
<title>Node11&#45;&gt;Node4</title>
<g id="a_edge14_Node000011_Node000004"><a xlink:title=" ">
<path fill="none" stroke="#63b8ff" d="M263.74,-164.98C225.34,-155.15 162.53,-139.07 123.87,-129.17"/>
<polygon fill="#63b8ff" stroke="#63b8ff" points="124.68,-125.77 114.12,-126.68 122.94,-132.55 124.68,-125.77"/>
</a>
</g>
</g>
<!-- Node11&#45;&gt;Node6 -->
<g id="edge15_Node000011_Node000006" class="edge">
<title>Node11&#45;&gt;Node6</title>
<g id="a_edge15_Node000011_Node000006"><a xlink:title=" ">
<path fill="none" stroke="#63b8ff" d="M256.91,-164.98C234.1,-158.4 206.32,-147.25 187,-129 161.66,-105.06 137.35,-80.61 161,-55 196.77,-16.27 572.83,-11.22 686.58,-10.59"/>
<polygon fill="#63b8ff" stroke="#63b8ff" points="686.77,-14.09 696.75,-10.54 686.74,-7.09 686.77,-14.09"/>
</a>
</g>
</g>
<!-- Node11&#45;&gt;Node8 -->
<g id="edge17_Node000011_Node000008" class="edge">
<title>Node11&#45;&gt;Node8</title>
<g id="a_edge17_Node000011_Node000008"><a xlink:title=" ">
<path fill="none" stroke="#63b8ff" d="M309.57,-164.69C343.69,-141.37 441.65,-78.23 534,-55 697.03,-13.99 899.81,-9.96 979.05,-10.11"/>
<polygon fill="#63b8ff" stroke="#63b8ff" points="979.38,-13.61 989.39,-10.15 979.41,-6.61 979.38,-13.61"/>
</a>
</g>
</g>
<!-- Node12 -->
<g id="Node000012" class="node">
<title>Node12</title>
<g id="a_Node000012"><a xlink:title=" ">
<polygon fill="#e0e0e0" stroke="#999999" points="208,-74 170,-74 170,-55 208,-55 208,-74"/>
<text text-anchor="middle" x="189" y="-62" font-family="Helvetica,sans-Serif" font-size="10.00">map</text>
</a>
</g>
</g>
<!-- Node11&#45;&gt;Node12 -->
<g id="edge12_Node000011_Node000012" class="edge">
<title>Node11&#45;&gt;Node12</title>
<g id="a_edge12_Node000011_Node000012"><a xlink:title=" ">
<path fill="none" stroke="#63b8ff" d="M256.89,-164.92C236.46,-158.46 213.03,-147.44 199,-129 189.39,-116.37 187.37,-98.18 187.47,-84.5"/>
<polygon fill="#63b8ff" stroke="#63b8ff" points="190.98,-84.45 187.94,-74.3 183.99,-84.13 190.98,-84.45"/>
</a>
</g>
</g>
<!-- Node13 -->
<g id="Node000013" class="node">
<title>Node13</title>
<g id="a_Node000013"><a xlink:title=" ">
<polygon fill="#e0e0e0" stroke="#999999" points="615.5,-129 522.5,-129 522.5,-110 615.5,-110 615.5,-129"/>
<text text-anchor="middle" x="569" y="-117" font-family="Helvetica,sans-Serif" font-size="10.00">unordered_map</text>
</a>
</g>
</g>
<!-- Node11&#45;&gt;Node13 -->
<g id="edge16_Node000011_Node000013" class="edge">
<title>Node11&#45;&gt;Node13</title>
<g id="a_edge16_Node000011_Node000013"><a xlink:title=" ">
<path fill="none" stroke="#63b8ff" d="M340.7,-164.98C388.15,-155.74 463.97,-140.97 515.08,-131.01"/>
<polygon fill="#63b8ff" stroke="#63b8ff" points="515.81,-134.43 524.96,-129.08 514.47,-127.56 515.81,-134.43"/>
</a>
</g>
</g>
<!-- Node14 -->
<g id="Node000014" class="node">
<title>Node14</title>
<g id="a_Node000014"><a xlink:href="HandleClient_8hpp.html" target="_top" xlink:title=" ">
<polygon fill="white" stroke="#666666" points="351.5,-129 208.5,-129 208.5,-110 351.5,-110 351.5,-129"/>
<text text-anchor="middle" x="280" y="-117" font-family="Helvetica,sans-Serif" font-size="10.00">network/HandleClient.hpp</text>
</a>
</g>
</g>
<!-- Node11&#45;&gt;Node14 -->
<g id="edge18_Node000011_Node000014" class="edge">
<title>Node11&#45;&gt;Node14</title>
<g id="a_edge18_Node000011_Node000014"><a xlink:title=" ">
<path fill="none" stroke="#63b8ff" d="M294.19,-164.75C291.94,-157.72 288.7,-147.62 285.88,-138.84"/>
<polygon fill="#63b8ff" stroke="#63b8ff" points="289.14,-137.54 282.75,-129.09 282.48,-139.68 289.14,-137.54"/>
</a>
</g>
</g>
<!-- Node14&#45;&gt;Node6 -->
<g id="edge23_Node000014_Node000006" class="edge">
<title>Node14&#45;&gt;Node6</title>
<g id="a_edge23_Node000014_Node000006"><a xlink:title=" ">
<path fill="none" stroke="#63b8ff" d="M283.93,-109.71C290.8,-95.48 306.44,-67.73 329,-55 389.99,-20.59 604.42,-12.75 686.61,-11"/>
<polygon fill="#63b8ff" stroke="#63b8ff" points="686.92,-14.49 696.85,-10.79 686.78,-7.49 686.92,-14.49"/>
</a>
</g>
</g>
<!-- Node14&#45;&gt;Node8 -->
<g id="edge24_Node000014_Node000008" class="edge">
<title>Node14&#45;&gt;Node8</title>
<g id="a_edge24_Node000014_Node000008"><a xlink:title=" ">
<path fill="none" stroke="#63b8ff" d="M303.45,-109.99C327.17,-101.29 364.84,-87.21 397,-74 416.33,-66.06 419.74,-60.1 440,-55 543.25,-28.99 872.59,-15.42 979.29,-11.63"/>
<polygon fill="#63b8ff" stroke="#63b8ff" points="979.6,-15.12 989.47,-11.27 979.36,-8.12 979.6,-15.12"/>
</a>
</g>
</g>
<!-- Node14&#45;&gt;Node9 -->
<g id="edge25_Node000014_Node000009" class="edge">
<title>Node14&#45;&gt;Node9</title>
<g id="a_edge25_Node000014_Node000009"><a xlink:title=" ">
<path fill="none" stroke="#63b8ff" d="M326.91,-109.98C384.05,-99.62 479.5,-82.29 532.86,-72.6"/>
<polygon fill="#63b8ff" stroke="#63b8ff" points="533.73,-76 542.95,-70.77 532.48,-69.12 533.73,-76"/>
</a>
</g>
</g>
<!-- Node14&#45;&gt;Node12 -->
<g id="edge21_Node000014_Node000012" class="edge">
<title>Node14&#45;&gt;Node12</title>
<g id="a_edge21_Node000014_Node000012"><a xlink:title=" ">
<path fill="none" stroke="#63b8ff" d="M265.38,-109.98C251.14,-101.69 229.25,-88.94 212.55,-79.22"/>
<polygon fill="#63b8ff" stroke="#63b8ff" points="214.29,-76.18 203.89,-74.17 210.77,-82.23 214.29,-76.18"/>
</a>
</g>
</g>
<!-- Node15 -->
<g id="Node000015" class="node">
<title>Node15</title>
<g id="a_Node000015"><a xlink:title=" ">
<polygon fill="#e0e0e0" stroke="#999999" points="388,-74 338,-74 338,-55 388,-55 388,-74"/>
<text text-anchor="middle" x="363" y="-62" font-family="Helvetica,sans-Serif" font-size="10.00">chrono</text>
</a>
</g>
</g>
<!-- Node14&#45;&gt;Node15 -->
<g id="edge19_Node000014_Node000015" class="edge">
<title>Node14&#45;&gt;Node15</title>
<g id="a_edge19_Node000014_Node000015"><a xlink:title=" ">
<path fill="none" stroke="#63b8ff" d="M293.34,-109.98C306.09,-101.84 325.55,-89.41 340.67,-79.76"/>
<polygon fill="#63b8ff" stroke="#63b8ff" points="342.88,-82.5 349.42,-74.17 339.11,-76.6 342.88,-82.5"/>
</a>
</g>
</g>
<!-- Node16 -->
<g id="Node000016" class="node">
<title>Node16</title>
<g id="a_Node000016"><a xlink:title=" ">
<polygon fill="#e0e0e0" stroke="#999999" points="1380,-19 1330,-19 1330,0 1380,0 1380,-19"/>
<text text-anchor="middle" x="1355" y="-7" font-family="Helvetica,sans-Serif" font-size="10.00">cstdint</text>
</a>
</g>
</g>
<!-- Node14&#45;&gt;Node16 -->
<g id="edge20_Node000014_Node000016" class="edge">
<title>Node14&#45;&gt;Node16</title>
<g id="a_edge20_Node000014_Node000016"><a xlink:title=" ">
<path fill="none" stroke="#63b8ff" d="M306.72,-109.97C352.62,-95.73 449.69,-67.45 534,-55 862.38,-6.51 949.13,-45.7 1280,-19 1292.96,-17.95 1307.14,-16.44 1319.65,-14.98"/>
<polygon fill="#63b8ff" stroke="#63b8ff" points="1320.18,-18.44 1329.7,-13.78 1319.35,-11.49 1320.18,-18.44"/>
</a>
</g>
</g>
<!-- Node17 -->
<g id="Node000017" class="node">
<title>Node17</title>
<g id="a_Node000017"><a xlink:title=" ">
<polygon fill="#e0e0e0" stroke="#999999" points="282,-74 226,-74 226,-55 282,-55 282,-74"/>
<text text-anchor="middle" x="254" y="-62" font-family="Helvetica,sans-Serif" font-size="10.00">optional</text>
</a>
</g>
</g>
<!-- Node14&#45;&gt;Node17 -->
<g id="edge22_Node000014_Node000017" class="edge">
<title>Node14&#45;&gt;Node17</title>
<g id="a_edge22_Node000014_Node000017"><a xlink:title=" ">
<path fill="none" stroke="#63b8ff" d="M275.71,-109.75C272.19,-102.57 267.09,-92.18 262.72,-83.27"/>
<polygon fill="#63b8ff" stroke="#63b8ff" points="265.76,-81.53 258.21,-74.09 259.48,-84.61 265.76,-81.53"/>
</a>
</g>
</g>
<!-- Node18&#45;&gt;Node8 -->
<g id="edge30_Node000018_Node000008" class="edge">
<title>Node18&#45;&gt;Node8</title>
<g id="a_edge30_Node000018_Node000008"><a xlink:title=" ">
<path fill="none" stroke="#63b8ff" d="M1114,-109.66C1095.37,-91.38 1052.4,-49.18 1028.96,-26.17"/>
<polygon fill="#63b8ff" stroke="#63b8ff" points="1031.41,-23.67 1021.82,-19.16 1026.5,-28.66 1031.41,-23.67"/>
</a>
</g>
</g>
<!-- Node18&#45;&gt;Node16 -->
<g id="edge28_Node000018_Node000016" class="edge">
<title>Node18&#45;&gt;Node16</title>
<g id="a_edge28_Node000018_Node000016"><a xlink:title=" ">
<path fill="none" stroke="#63b8ff" d="M1129.95,-109.69C1141.26,-95.94 1165.03,-69.46 1191,-55 1231.99,-32.17 1285.35,-20.53 1319.89,-14.99"/>
<polygon fill="#63b8ff" stroke="#63b8ff" points="1320.61,-18.42 1329.97,-13.46 1319.56,-11.5 1320.61,-18.42"/>
</a>
</g>
</g>
<!-- Node19 -->
<g id="Node000019" class="node">
<title>Node19</title>
<g id="a_Node000019"><a xlink:title=" ">
<polygon fill="#e0e0e0" stroke="#999999" points="1143,-74 1101,-74 1101,-55 1143,-55 1143,-74"/>
<text text-anchor="middle" x="1122" y="-62" font-family="Helvetica,sans-Serif" font-size="10.00">array</text>
</a>
</g>
</g>
<!-- Node18&#45;&gt;Node19 -->
<g id="edge27_Node000018_Node000019" class="edge">
<title>Node18&#45;&gt;Node19</title>
<g id="a_edge27_Node000018_Node000019"><a xlink:title=" ">
<path fill="none" stroke="#63b8ff" d="M1122.83,-109.75C1122.7,-102.8 1122.52,-92.85 1122.35,-84.13"/>
<polygon fill="#63b8ff" stroke="#63b8ff" points="1125.85,-84.02 1122.16,-74.09 1118.85,-84.15 1125.85,-84.02"/>
</a>
</g>
</g>
<!-- Node20 -->
<g id="Node000020" class="node">
<title>Node20</title>
<g id="a_Node000020"><a xlink:title=" ">
<polygon fill="#e0e0e0" stroke="#999999" points="1264.5,-74 1199.5,-74 1199.5,-55 1264.5,-55 1264.5,-74"/>
<text text-anchor="middle" x="1232" y="-62" font-family="Helvetica,sans-Serif" font-size="10.00">functional</text>
</a>
</g>
</g>
<!-- Node18&#45;&gt;Node20 -->
<g id="edge29_Node000018_Node000020" class="edge">
<title>Node18&#45;&gt;Node20</title>
<g id="a_edge29_Node000018_Node000020"><a xlink:title=" ">
<path fill="none" stroke="#63b8ff" d="M1140.51,-109.98C1157.97,-101.5 1185.01,-88.35 1205.17,-78.54"/>
<polygon fill="#63b8ff" stroke="#63b8ff" points="1206.71,-81.69 1214.17,-74.17 1203.64,-75.4 1206.71,-81.69"/>
</a>
</g>
</g>
<!-- Node21 -->
<g id="Node000021" class="node">
<title>Node21</title>
<g id="a_Node000021"><a xlink:href="Event_8hpp.html" target="_top" xlink:title=" ">
<polygon fill="white" stroke="#666666" points="1007,-74 899,-74 899,-55 1007,-55 1007,-74"/>
<text text-anchor="middle" x="953" y="-62" font-family="Helvetica,sans-Serif" font-size="10.00">network/Event.hpp</text>
</a>
</g>
</g>
<!-- Node18&#45;&gt;Node21 -->
<g id="edge31_Node000018_Node000021" class="edge">
<title>Node18&#45;&gt;Node21</title>
<g id="a_edge31_Node000018_Node000021"><a xlink:title=" ">
<path fill="none" stroke="#63b8ff" d="M1095.69,-109.98C1067.15,-101.09 1022.17,-87.07 990.36,-77.15"/>
<polygon fill="#63b8ff" stroke="#63b8ff" points="991.12,-73.72 980.53,-74.08 989.03,-80.4 991.12,-73.72"/>
</a>
</g>
</g>
<!-- Node21&#45;&gt;Node6 -->
<g id="edge33_Node000021_Node000006" class="edge">
<title>Node21&#45;&gt;Node6</title>
<g id="a_edge33_Node000021_Node000006"><a xlink:title=" ">
<path fill="none" stroke="#63b8ff" d="M915.4,-54.98C869.81,-44.66 793.76,-27.43 750.9,-17.73"/>
<polygon fill="#63b8ff" stroke="#63b8ff" points="751.54,-14.28 741.01,-15.49 749.99,-21.11 751.54,-14.28"/>
</a>
</g>
</g>
<!-- Node21&#45;&gt;Node8 -->
<g id="edge35_Node000021_Node000008" class="edge">
<title>Node21&#45;&gt;Node8</title>
<g id="a_edge35_Node000021_Node000008"><a xlink:title=" ">
<path fill="none" stroke="#63b8ff" d="M962.64,-54.98C971.51,-47.15 984.87,-35.34 995.61,-25.86"/>
<polygon fill="#63b8ff" stroke="#63b8ff" points="998.01,-28.41 1003.18,-19.17 993.37,-23.17 998.01,-28.41"/>
</a>
</g>
</g>
<!-- Node21&#45;&gt;Node16 -->
<g id="edge32_Node000021_Node000016" class="edge">
<title>Node21&#45;&gt;Node16</title>
<g id="a_edge32_Node000021_Node000016"><a xlink:title=" ">
<path fill="none" stroke="#63b8ff" d="M1007.22,-56.35C1090.79,-45.33 1248.82,-24.5 1319.4,-15.19"/>
<polygon fill="#63b8ff" stroke="#63b8ff" points="1320.1,-18.63 1329.55,-13.85 1319.18,-11.69 1320.1,-18.63"/>
</a>
</g>
</g>
<!-- Node22 -->
<g id="Node000022" class="node">
<title>Node22</title>
<g id="a_Node000022"><a xlink:title=" ">
<polygon fill="#e0e0e0" stroke="#999999" points="1270.5,-19 1219.5,-19 1219.5,0 1270.5,0 1270.5,-19"/>
<text text-anchor="middle" x="1245" y="-7" font-family="Helvetica,sans-Serif" font-size="10.00">variant</text>
</a>
</g>
</g>
<!-- Node21&#45;&gt;Node22 -->
<g id="edge34_Node000021_Node000022" class="edge">
<title>Node21&#45;&gt;Node22</title>
<g id="a_edge34_Node000021_Node000022"><a xlink:title=" ">
<path fill="none" stroke="#63b8ff" d="M999.91,-54.98C1058.41,-44.37 1157.07,-26.46 1209.6,-16.93"/>
<polygon fill="#63b8ff" stroke="#63b8ff" points="1210.25,-20.36 1219.46,-15.13 1209,-13.48 1210.25,-20.36"/>
</a>
</g>
</g>
<!-- Node23&#45;&gt;Node8 -->
<g id="edge41_Node000023_Node000008" class="edge">
<title>Node23&#45;&gt;Node8</title>
<g id="a_edge41_Node000023_Node000008"><a xlink:title=" ">
<path fill="none" stroke="#63b8ff" d="M1420.02,-109.99C1430.15,-96.66 1446.16,-70.74 1432,-55 1406.39,-26.52 1142.26,-14.86 1047.01,-11.56"/>
<polygon fill="#63b8ff" stroke="#63b8ff" points="1046.89,-8.05 1036.77,-11.21 1046.65,-15.04 1046.89,-8.05"/>
</a>
</g>
</g>
<!-- Node23&#45;&gt;Node16 -->
<g id="edge39_Node000023_Node000016" class="edge">
<title>Node23&#45;&gt;Node16</title>
<g id="a_edge39_Node000023_Node000016"><a xlink:title=" ">
<path fill="none" stroke="#63b8ff" d="M1464.23,-109.99C1518.06,-100.53 1596.17,-85.12 1605,-74 1610.25,-67.39 1610.42,-61.47 1605,-55 1578.04,-22.81 1452.79,-13.89 1390.45,-11.43"/>
<polygon fill="#63b8ff" stroke="#63b8ff" points="1390.41,-7.92 1380.29,-11.06 1390.16,-14.92 1390.41,-7.92"/>
</a>
</g>
</g>
<!-- Node23&#45;&gt;Node19 -->
<g id="edge38_Node000023_Node000019" class="edge">
<title>Node23&#45;&gt;Node19</title>
<g id="a_edge38_Node000023_Node000019"><a xlink:title=" ">
<path fill="none" stroke="#63b8ff" d="M1366.25,-109.98C1306.4,-99.08 1204.35,-80.5 1153.18,-71.18"/>
<polygon fill="#63b8ff" stroke="#63b8ff" points="1153.54,-67.69 1143.07,-69.34 1152.28,-74.57 1153.54,-67.69"/>
</a>
</g>
</g>
<!-- Node23&#45;&gt;Node20 -->
<g id="edge40_Node000023_Node000020" class="edge">
<title>Node23&#45;&gt;Node20</title>
<g id="a_edge40_Node000023_Node000020"><a xlink:title=" ">
<path fill="none" stroke="#63b8ff" d="M1383.92,-109.98C1353.4,-101.05 1305.24,-86.94 1271.34,-77.02"/>
<polygon fill="#63b8ff" stroke="#63b8ff" points="1271.89,-73.53 1261.31,-74.08 1269.92,-80.25 1271.89,-73.53"/>
</a>
</g>
</g>
<!-- Node24 -->
<g id="Node000024" class="node">
<title>Node24</title>
<g id="a_Node000024"><a xlink:title=" ">
<polygon fill="#e0e0e0" stroke="#999999" points="1351.5,-74 1282.5,-74 1282.5,-55 1351.5,-55 1351.5,-74"/>
<text text-anchor="middle" x="1317" y="-62" font-family="Helvetica,sans-Serif" font-size="10.00">arpa/inet.h</text>
</a>
</g>
</g>
<!-- Node23&#45;&gt;Node24 -->
<g id="edge37_Node000023_Node000024" class="edge">
<title>Node23&#45;&gt;Node24</title>
<g id="a_edge37_Node000023_Node000024"><a xlink:title=" ">
<path fill="none" stroke="#63b8ff" d="M1397.58,-109.98C1382.55,-101.69 1359.46,-88.94 1341.84,-79.22"/>
<polygon fill="#63b8ff" stroke="#63b8ff" points="1343.15,-75.94 1332.7,-74.17 1339.77,-82.07 1343.15,-75.94"/>
</a>
</g>
</g>
<!-- Node25 -->
<g id="Node000025" class="node">
<title>Node25</title>
<g id="a_Node000025"><a xlink:href="Action_8hpp.html" target="_top" xlink:title=" ">
<polygon fill="white" stroke="#666666" points="1595.5,-74 1484.5,-74 1484.5,-55 1595.5,-55 1595.5,-74"/>
<text text-anchor="middle" x="1540" y="-62" font-family="Helvetica,sans-Serif" font-size="10.00">network/Action.hpp</text>
</a>
</g>
</g>
<!-- Node23&#45;&gt;Node25 -->
<g id="edge42_Node000023_Node000025" class="edge">
<title>Node23&#45;&gt;Node25</title>
<g id="a_edge42_Node000023_Node000025"><a xlink:title=" ">
<path fill="none" stroke="#63b8ff" d="M1433.4,-109.98C1454.02,-101.38 1486.11,-87.99 1509.69,-78.15"/>
<polygon fill="#63b8ff" stroke="#63b8ff" points="1511.34,-81.25 1519.22,-74.17 1508.65,-74.79 1511.34,-81.25"/>
</a>
</g>
</g>
<!-- Node25&#45;&gt;Node6 -->
<g id="edge44_Node000025_Node000006" class="edge">
<title>Node25&#45;&gt;Node6</title>
<g id="a_edge44_Node000025_Node000006"><a xlink:title=" ">
<path fill="none" stroke="#63b8ff" d="M1484.21,-59.9C1325.7,-49.67 876.06,-20.64 751.4,-12.59"/>
<polygon fill="#63b8ff" stroke="#63b8ff" points="751.55,-9.09 741.34,-11.94 751.1,-16.08 751.55,-9.09"/>
</a>
</g>
</g>
<!-- Node25&#45;&gt;Node8 -->
<g id="edge46_Node000025_Node000008" class="edge">
<title>Node25&#45;&gt;Node8</title>
<g id="a_edge46_Node000025_Node000008"><a xlink:title=" ">
<path fill="none" stroke="#63b8ff" d="M1484.23,-56.61C1479.42,-56.05 1474.62,-55.51 1470,-55 1312.15,-37.73 1123.24,-20.39 1047.19,-13.55"/>
<polygon fill="#63b8ff" stroke="#63b8ff" points="1047.08,-10.03 1036.81,-12.62 1046.46,-17 1047.08,-10.03"/>
</a>
</g>
</g>
<!-- Node25&#45;&gt;Node16 -->
<g id="edge43_Node000025_Node000016" class="edge">
<title>Node25&#45;&gt;Node16</title>
<g id="a_edge43_Node000025_Node000016"><a xlink:title=" ">
<path fill="none" stroke="#63b8ff" d="M1510.28,-54.98C1477.46,-45.58 1424.69,-30.46 1389.92,-20.51"/>
<polygon fill="#63b8ff" stroke="#63b8ff" points="1390.77,-17.11 1380.19,-17.72 1388.84,-23.84 1390.77,-17.11"/>
</a>
</g>
</g>
<!-- Node25&#45;&gt;Node22 -->
<g id="edge45_Node000025_Node000022" class="edge">
<title>Node25&#45;&gt;Node22</title>
<g id="a_edge45_Node000025_Node000022"><a xlink:title=" ">
<path fill="none" stroke="#63b8ff" d="M1492.6,-54.98C1433.51,-44.37 1333.84,-26.46 1280.76,-16.93"/>
<polygon fill="#63b8ff" stroke="#63b8ff" points="1281.26,-13.46 1270.8,-15.13 1280.02,-20.35 1281.26,-13.46"/>
</a>
</g>
</g>
<!-- Node26&#45;&gt;Node6 -->
<g id="edge50_Node000026_Node000006" class="edge">
<title>Node26&#45;&gt;Node6</title>
<g id="a_edge50_Node000026_Node000006"><a xlink:title=" ">
<path fill="none" stroke="#63b8ff" d="M1551.39,-109.95C1512.93,-95.83 1432,-67.88 1361,-55 1241.86,-33.39 864.21,-16.47 751.23,-11.79"/>
<polygon fill="#63b8ff" stroke="#63b8ff" points="751.28,-8.29 741.14,-11.38 750.99,-15.29 751.28,-8.29"/>
</a>
</g>
</g>
<!-- Node26&#45;&gt;Node8 -->
<g id="edge51_Node000026_Node000008" class="edge">
<title>Node26&#45;&gt;Node8</title>
<g id="a_edge51_Node000026_Node000008"><a xlink:title=" ">
<path fill="none" stroke="#63b8ff" d="M1584.08,-109.75C1598.11,-96.56 1620.18,-71.37 1605,-55 1585.91,-34.42 1170.33,-16.63 1047.13,-11.79"/>
<polygon fill="#63b8ff" stroke="#63b8ff" points="1046.92,-8.28 1036.79,-11.39 1046.65,-15.28 1046.92,-8.28"/>
</a>
</g>
</g>
<!-- Node26&#45;&gt;Node16 -->
<g id="edge48_Node000026_Node000016" class="edge">
<title>Node26&#45;&gt;Node16</title>
<g id="a_edge48_Node000026_Node000016"><a xlink:title=" ">
<path fill="none" stroke="#63b8ff" d="M1657.65,-117.18C1732.81,-114.01 1835.2,-104.1 1861,-74 1866.49,-67.59 1866.7,-61.23 1861,-55 1829.3,-20.39 1500.33,-12.57 1390.49,-10.92"/>
<polygon fill="#63b8ff" stroke="#63b8ff" points="1390.31,-7.41 1380.26,-10.77 1390.21,-14.41 1390.31,-7.41"/>
</a>
</g>
</g>
<!-- Node26&#45;&gt;Node20 -->
<g id="edge49_Node000026_Node000020" class="edge">
<title>Node26&#45;&gt;Node20</title>
<g id="a_edge49_Node000026_Node000020"><a xlink:title=" ">
<path fill="none" stroke="#63b8ff" d="M1509.76,-109.96C1451.17,-101.95 1361.96,-89.19 1274.62,-74.02"/>
<polygon fill="#63b8ff" stroke="#63b8ff" points="1274.98,-70.53 1264.53,-72.26 1273.77,-77.43 1274.98,-70.53"/>
</a>
</g>
</g>
<!-- Node26&#45;&gt;Node25 -->
<g id="edge55_Node000026_Node000025" class="edge">
<title>Node26&#45;&gt;Node25</title>
<g id="a_edge55_Node000026_Node000025"><a xlink:title=" ">
<path fill="none" stroke="#63b8ff" d="M1568.39,-109.75C1563.68,-102.42 1556.83,-91.73 1551.03,-82.7"/>
<polygon fill="#63b8ff" stroke="#63b8ff" points="1553.86,-80.62 1545.51,-74.09 1547.96,-84.4 1553.86,-80.62"/>
</a>
</g>
</g>
<!-- Node27 -->
<g id="Node000027" class="node">
<title>Node27</title>
<g id="a_Node000027"><a xlink:href="include_2NetworkMessage_8hpp.html" target="_top" xlink:title=" ">
<polygon fill="white" stroke="#666666" points="1851.5,-74 1690.5,-74 1690.5,-55 1851.5,-55 1851.5,-74"/>
<text text-anchor="middle" x="1771" y="-62" font-family="Helvetica,sans-Serif" font-size="10.00">include/NetworkMessage.hpp</text>
</a>
</g>
</g>
<!-- Node26&#45;&gt;Node27 -->
<g id="edge52_Node000026_Node000027" class="edge">
<title>Node26&#45;&gt;Node27</title>
<g id="a_edge52_Node000026_Node000027"><a xlink:title=" ">
<path fill="none" stroke="#63b8ff" d="M1605.65,-109.98C1639.16,-100.97 1692.2,-86.7 1729.14,-76.76"/>
<polygon fill="#63b8ff" stroke="#63b8ff" points="1730.35,-80.06 1739.1,-74.08 1728.53,-73.3 1730.35,-80.06"/>
</a>
</g>
</g>
<!-- Node27&#45;&gt;Node8 -->
<g id="edge54_Node000027_Node000008" class="edge">
<title>Node27&#45;&gt;Node8</title>
<g id="a_edge54_Node000027_Node000008"><a xlink:title=" ">
<path fill="none" stroke="#63b8ff" d="M1690.42,-56.17C1685.54,-55.76 1680.7,-55.37 1676,-55 1434.89,-36.12 1144.06,-18.32 1046.63,-12.49"/>
<polygon fill="#63b8ff" stroke="#63b8ff" points="1046.69,-8.99 1036.5,-11.89 1046.28,-15.98 1046.69,-8.99"/>
</a>
</g>
</g>
<!-- Node27&#45;&gt;Node16 -->
<g id="edge53_Node000027_Node000016" class="edge">
<title>Node27&#45;&gt;Node16</title>
<g id="a_edge53_Node000027_Node000016"><a xlink:title=" ">
<path fill="none" stroke="#63b8ff" d="M1704.16,-54.98C1614.81,-43.6 1459.66,-23.83 1390.29,-15"/>
<polygon fill="#63b8ff" stroke="#63b8ff" points="1390.66,-11.52 1380.3,-13.72 1389.78,-18.46 1390.66,-11.52"/>
</a>
</g>
</g>
<!-- Node28&#45;&gt;Node2 -->
<g id="edge59_Node000028_Node000002" class="edge">
<title>Node28&#45;&gt;Node2</title>
<g id="a_edge59_Node000028_Node000002"><a xlink:title=" ">
<path fill="none" stroke="#63b8ff" d="M735.17,-219.98C694.91,-210.42 629.72,-194.92 587.87,-184.98"/>
<polygon fill="#63b8ff" stroke="#63b8ff" points="588.56,-181.54 578.02,-182.63 586.94,-188.35 588.56,-181.54"/>
</a>
</g>
</g>
<!-- Node28&#45;&gt;Node3 -->
<g id="edge60_Node000028_Node000003" class="edge">
<title>Node28&#45;&gt;Node3</title>
<g id="a_edge60_Node000028_Node000003"><a xlink:title=" ">
<path fill="none" stroke="#63b8ff" d="M753.15,-219.97C738.75,-212.31 718.83,-199.83 706,-184 681.32,-153.56 667.41,-108.95 661.13,-84.05"/>
<polygon fill="#63b8ff" stroke="#63b8ff" points="664.49,-83.04 658.77,-74.12 657.68,-84.66 664.49,-83.04"/>
</a>
</g>
</g>
<!-- Node28&#45;&gt;Node6 -->
<g id="edge61_Node000028_Node000006" class="edge">
<title>Node28&#45;&gt;Node6</title>
<g id="a_edge61_Node000028_Node000006"><a xlink:title=" ">
<path fill="none" stroke="#63b8ff" d="M762.9,-219.72C755.6,-211.25 745.24,-197.72 740,-184 719.68,-130.73 717.87,-62.17 718.35,-29.48"/>
<polygon fill="#63b8ff" stroke="#63b8ff" points="721.86,-29.24 718.6,-19.15 714.86,-29.07 721.86,-29.24"/>
</a>
</g>
</g>
<!-- Node28&#45;&gt;Node8 -->
<g id="edge64_Node000028_Node000008" class="edge">
<title>Node28&#45;&gt;Node8</title>
<g id="a_edge64_Node000028_Node000008"><a xlink:title=" ">
<path fill="none" stroke="#63b8ff" d="M835.57,-221.64C883.39,-215.06 942.8,-203.25 958,-184 1011.87,-115.8 739.85,-188.57 777,-110 812.63,-34.66 922.58,-16.31 978.94,-11.88"/>
<polygon fill="#63b8ff" stroke="#63b8ff" points="979.39,-15.35 989.13,-11.18 978.91,-8.37 979.39,-15.35"/>
</a>
</g>
</g>
<!-- Node28&#45;&gt;Node9 -->
<g id="edge65_Node000028_Node000009" class="edge">
<title>Node28&#45;&gt;Node9</title>
<g id="a_edge65_Node000028_Node000009"><a xlink:title=" ">
<path fill="none" stroke="#63b8ff" d="M750.55,-219.92C733.16,-212.06 708.06,-199.33 689,-184 655.12,-156.74 655.97,-140.52 625,-110 614.44,-99.59 601.74,-88.87 591.42,-80.57"/>
<polygon fill="#63b8ff" stroke="#63b8ff" points="593.42,-77.68 583.41,-74.21 589.07,-83.17 593.42,-77.68"/>
</a>
</g>
</g>
<!-- Node28&#45;&gt;Node13 -->
<g id="edge62_Node000028_Node000013" class="edge">
<title>Node28&#45;&gt;Node13</title>
<g id="a_edge62_Node000028_Node000013"><a xlink:title=" ">
<path fill="none" stroke="#63b8ff" d="M724.39,-219.95C695.65,-213.23 658.9,-201.94 630,-184 610.21,-171.71 592.37,-151.56 581.17,-137.25"/>
<polygon fill="#63b8ff" stroke="#63b8ff" points="583.92,-135.09 575.09,-129.22 578.33,-139.31 583.92,-135.09"/>
</a>
</g>
</g>
<!-- Node28&#45;&gt;Node20 -->
<g id="edge58_Node000028_Node000020" class="edge">
<title>Node28&#45;&gt;Node20</title>
<g id="a_edge58_Node000028_Node000020"><a xlink:title=" ">
<path fill="none" stroke="#63b8ff" d="M835.52,-225.48C946.62,-219.73 1164.79,-205.79 1192,-184 1222.41,-159.64 1229.84,-111.21 1231.57,-84.42"/>
<polygon fill="#63b8ff" stroke="#63b8ff" points="1235.08,-84.24 1232.01,-74.1 1228.08,-83.93 1235.08,-84.24"/>
</a>
</g>
</g>
<!-- Node28&#45;&gt;Node24 -->
<g id="edge57_Node000028_Node000024" class="edge">
<title>Node28&#45;&gt;Node24</title>
<g id="a_edge57_Node000028_Node000024"><a xlink:title=" ">
<path fill="none" stroke="#63b8ff" d="M835.62,-227.75C942.04,-225.56 1148.8,-217.05 1213,-184 1257.67,-161 1291.75,-110.07 1307.46,-83.08"/>
<polygon fill="#63b8ff" stroke="#63b8ff" points="1310.71,-84.44 1312.56,-74.01 1304.61,-81.01 1310.71,-84.44"/>
</a>
</g>
</g>
<!-- Node29 -->
<g id="Node000029" class="node">
<title>Node29</title>
<g id="a_Node000029"><a xlink:title=" ">
<polygon fill="#e0e0e0" stroke="#999999" points="793.5,-184 748.5,-184 748.5,-165 793.5,-165 793.5,-184"/>
<text text-anchor="middle" x="771" y="-172" font-family="Helvetica,sans-Serif" font-size="10.00">utility</text>
</a>
</g>
</g>
<!-- Node28&#45;&gt;Node29 -->
<g id="edge63_Node000028_Node000029" class="edge">
<title>Node28&#45;&gt;Node29</title>
<g id="a_edge63_Node000028_Node000029"><a xlink:title=" ">
<path fill="none" stroke="#63b8ff" d="M771,-219.75C771,-212.8 771,-202.85 771,-194.13"/>
<polygon fill="#63b8ff" stroke="#63b8ff" points="774.5,-194.09 771,-184.09 767.5,-194.09 774.5,-194.09"/>
</a>
</g>
</g>
<!-- Node30 -->
<g id="Node000030" class="node">
<title>Node30</title>
<g id="a_Node000030"><a xlink:href="ServerMacro_8hpp.html" target="_top" xlink:title="Server configuration constants and macros.">
<polygon fill="white" stroke="#666666" points="948.5,-184 811.5,-184 811.5,-165 948.5,-165 948.5,-184"/>
<text text-anchor="middle" x="880" y="-172" font-family="Helvetica,sans-Serif" font-size="10.00">include/ServerMacro.hpp</text>
</a>
</g>
</g>
<!-- Node28&#45;&gt;Node30 -->
<g id="edge66_Node000028_Node000030" class="edge">
<title>Node28&#45;&gt;Node30</title>
<g id="a_edge66_Node000028_Node000030"><a xlink:title=" ">
<path fill="none" stroke="#63b8ff" d="M788.51,-219.98C805.97,-211.5 833.01,-198.35 853.17,-188.54"/>
<polygon fill="#63b8ff" stroke="#63b8ff" points="854.71,-191.69 862.17,-184.17 851.64,-185.4 854.71,-191.69"/>
</a>
</g>
</g>
<!-- Node31 -->
<g id="Node000031" class="node">
<title>Node31</title>
<g id="a_Node000031"><a xlink:href="DecodeFunc_8hpp.html" target="_top" xlink:title=" ">
<polygon fill="white" stroke="#666666" points="1183,-184 1043,-184 1043,-165 1183,-165 1183,-184"/>
<text text-anchor="middle" x="1113" y="-172" font-family="Helvetica,sans-Serif" font-size="10.00">network/DecodeFunc.hpp</text>
</a>
</g>
</g>
<!-- Node28&#45;&gt;Node31 -->
<g id="edge67_Node000028_Node000031" class="edge">
<title>Node28&#45;&gt;Node31</title>
<g id="a_edge67_Node000028_Node000031"><a xlink:title=" ">
<path fill="none" stroke="#63b8ff" d="M825.95,-219.98C886.44,-210.61 983.61,-195.55 1047.88,-185.59"/>
<polygon fill="#63b8ff" stroke="#63b8ff" points="1048.56,-189.03 1057.9,-184.04 1047.49,-182.11 1048.56,-189.03"/>
</a>
</g>
</g>
<!-- Node31&#45;&gt;Node8 -->
<g id="edge69_Node000031_Node000008" class="edge">
<title>Node31&#45;&gt;Node8</title>
<g id="a_edge69_Node000031_Node000008"><a xlink:title=" ">
<path fill="none" stroke="#63b8ff" d="M1083.37,-164.9C1027.67,-148.04 911.02,-109.22 890,-74 868.11,-37.32 935.91,-20.96 979.41,-14.39"/>
<polygon fill="#63b8ff" stroke="#63b8ff" points="979.93,-17.85 989.35,-12.99 978.96,-10.92 979.93,-17.85"/>
</a>
</g>
</g>
<!-- Node31&#45;&gt;Node16 -->
<g id="edge68_Node000031_Node000016" class="edge">
<title>Node31&#45;&gt;Node16</title>
<g id="a_edge68_Node000031_Node000016"><a xlink:title=" ">
<path fill="none" stroke="#63b8ff" d="M1093.73,-164.9C1079.88,-157.55 1062.24,-145.54 1054,-129 1038.01,-96.91 1091.21,-55.5 1092,-55 1110.96,-42.93 1252.38,-23.58 1319.65,-14.93"/>
<polygon fill="#63b8ff" stroke="#63b8ff" points="1320.3,-18.37 1329.78,-13.63 1319.41,-11.43 1320.3,-18.37"/>
</a>
</g>
</g>
<!-- Node31&#45;&gt;Node18 -->
<g id="edge70_Node000031_Node000018" class="edge">
<title>Node31&#45;&gt;Node18</title>
<g id="a_edge70_Node000031_Node000018"><a xlink:title=" ">
<path fill="none" stroke="#63b8ff" d="M1114.65,-164.75C1115.96,-157.8 1117.84,-147.85 1119.48,-139.13"/>
<polygon fill="#63b8ff" stroke="#63b8ff" points="1122.96,-139.56 1121.38,-129.09 1116.09,-138.27 1122.96,-139.56"/>
</a>
</g>
</g>
<!-- Node31&#45;&gt;Node21 -->
<g id="edge71_Node000031_Node000021" class="edge">
<title>Node31&#45;&gt;Node21</title>
<g id="a_edge71_Node000031_Node000021"><a xlink:title=" ">
<path fill="none" stroke="#63b8ff" d="M1090.8,-164.98C1071.51,-157.08 1043.25,-144.25 1021,-129 1000.73,-115.11 980.54,-95.3 967.49,-81.51"/>
<polygon fill="#63b8ff" stroke="#63b8ff" points="970.05,-79.13 960.68,-74.18 964.92,-83.89 970.05,-79.13"/>
</a>
</g>
</g>
<!-- Node32&#45;&gt;Node3 -->
<g id="edge75_Node000032_Node000003" class="edge">
<title>Node32&#45;&gt;Node3</title>
<g id="a_edge75_Node000032_Node000003"><a xlink:title=" ">
<path fill="none" stroke="#63b8ff" d="M820.67,-109.98C786.72,-100.76 732.5,-86.02 695.86,-76.06"/>
<polygon fill="#63b8ff" stroke="#63b8ff" points="696.59,-72.63 686.02,-73.39 694.76,-79.39 696.59,-72.63"/>
</a>
</g>
</g>
<!-- Node32&#45;&gt;Node6 -->
<g id="edge76_Node000032_Node000006" class="edge">
<title>Node32&#45;&gt;Node6</title>
<g id="a_edge76_Node000032_Node000006"><a xlink:title=" ">
<path fill="none" stroke="#63b8ff" d="M841.12,-109.66C818.4,-91.22 765.73,-48.45 737.56,-25.57"/>
<polygon fill="#63b8ff" stroke="#63b8ff" points="739.63,-22.75 729.66,-19.16 735.22,-28.18 739.63,-22.75"/>
</a>
</g>
</g>
<!-- Node32&#45;&gt;Node8 -->
<g id="edge77_Node000032_Node000008" class="edge">
<title>Node32&#45;&gt;Node8</title>
<g id="a_edge77_Node000032_Node000008"><a xlink:title=" ">
<path fill="none" stroke="#63b8ff" d="M849.91,-109.99C847.17,-96.66 844.11,-70.75 857,-55 886.46,-18.99 942.86,-10.93 979.16,-9.73"/>
<polygon fill="#63b8ff" stroke="#63b8ff" points="979.34,-13.23 989.28,-9.56 979.22,-6.23 979.34,-13.23"/>
</a>
</g>
</g>
<!-- Node32&#45;&gt;Node9 -->
<g id="edge78_Node000032_Node000009" class="edge">
<title>Node32&#45;&gt;Node9</title>
<g id="a_edge78_Node000032_Node000009"><a xlink:title=" ">
<path fill="none" stroke="#63b8ff" d="M807.01,-109.98C752.78,-99.72 662.53,-82.64 611.08,-72.9"/>
<polygon fill="#63b8ff" stroke="#63b8ff" points="611.5,-69.41 601.02,-70.99 610.2,-76.29 611.5,-69.41"/>
</a>
</g>
</g>
<!-- Node32&#45;&gt;Node19 -->
<g id="edge73_Node000032_Node000019" class="edge">
<title>Node32&#45;&gt;Node19</title>
<g id="a_edge73_Node000032_Node000019"><a xlink:title=" ">
<path fill="none" stroke="#63b8ff" d="M895.38,-109.98C950.1,-99.24 1042.84,-81.04 1090.96,-71.59"/>
<polygon fill="#63b8ff" stroke="#63b8ff" points="1091.66,-75.02 1100.8,-69.66 1090.31,-68.15 1091.66,-75.02"/>
</a>
</g>
</g>
<!-- Node32&#45;&gt;Node20 -->
<g id="edge74_Node000032_Node000020" class="edge">
<title>Node32&#45;&gt;Node20</title>
<g id="a_edge74_Node000032_Node000020"><a xlink:title=" ">
<path fill="none" stroke="#63b8ff" d="M913.05,-109.98C990.32,-99.21 1121.46,-80.92 1188.99,-71.5"/>
<polygon fill="#63b8ff" stroke="#63b8ff" points="1189.84,-74.91 1199.26,-70.07 1188.87,-67.98 1189.84,-74.91"/>
</a>
</g>
</g>
</g>
</svg>
