<?xml version="1.0" encoding="UTF-8" standalone="no"?>
<!DOCTYPE svg PUBLIC "-//W3C//DTD SVG 1.1//EN"
 "http://www.w3.org/Graphics/SVG/1.1/DTD/svg11.dtd">
<!-- Generated by graphviz version 2.43.0 (0)
 -->
<!-- Title: /home/runner/work/R&#45;Type/R&#45;Type/Server/src/network/ServerNetworkManager.cpp Pages: 1 -->
<svg width="1783pt" height="269pt"
 viewBox="0.00 0.00 1782.81 269.00" xmlns="http://www.w3.org/2000/svg" xmlns:xlink="http://www.w3.org/1999/xlink">
<g id="graph0" class="graph" transform="scale(1 1) rotate(0) translate(4 265)">
<title>/home/runner/work/R&#45;Type/R&#45;Type/Server/src/network/ServerNetworkManager.cpp</title>
<!-- Node1 -->
<g id="Node000001" class="node">
<title>Node1</title>
<g id="a_Node000001"><a xlink:title=" ">
<polygon fill="#999999" stroke="#666666" points="1359.81,-261 1144.81,-261 1144.81,-220 1359.81,-220 1359.81,-261"/>
<text text-anchor="start" x="1152.81" y="-249" font-family="Helvetica,sans-Serif" font-size="10.00">/home/runner/work/R</text>
<text text-anchor="start" x="1152.81" y="-238" font-family="Helvetica,sans-Serif" font-size="10.00">&#45;Type/R&#45;Type/Server</text>
<text text-anchor="middle" x="1252.31" y="-227" font-family="Helvetica,sans-Serif" font-size="10.00">/src/network/ServerNetworkManager.cpp</text>
</a>
</g>
</g>
<!-- Node2 -->
<g id="Node000002" class="node">
<title>Node2</title>
<g id="a_Node000002"><a xlink:href="ServerNetworkManager_8hpp.html" target="_top" xlink:title=" ">
<polygon fill="white" stroke="#666666" points="1050.81,-184 855.81,-184 855.81,-165 1050.81,-165 1050.81,-184"/>
<text text-anchor="middle" x="953.31" y="-172" font-family="Helvetica,sans-Serif" font-size="10.00">network/ServerNetworkManager.hpp</text>
</a>
</g>
</g>
<!-- Node1&#45;&gt;Node2 -->
<g id="edge1_Node000001_Node000002" class="edge">
<title>Node1&#45;&gt;Node2</title>
<g id="a_edge1_Node000001_Node000002"><a xlink:title=" ">
<path fill="none" stroke="#63b8ff" d="M1160.97,-219.95C1108.98,-208.82 1045.87,-195.31 1002.97,-186.13"/>
<polygon fill="#63b8ff" stroke="#63b8ff" points="1003.57,-182.68 993.06,-184.01 1002.1,-189.52 1003.57,-182.68"/>
</a>
</g>
</g>
<!-- Node3 -->
<g id="Node000003" class="node">
<title>Node3</title>
<g id="a_Node000003"><a xlink:title=" ">
<polygon fill="#e0e0e0" stroke="#999999" points="76.31,-74 16.31,-74 16.31,-55 76.31,-55 76.31,-74"/>
<text text-anchor="middle" x="46.31" y="-62" font-family="Helvetica,sans-Serif" font-size="10.00">iostream</text>
</a>
</g>
</g>
<!-- Node1&#45;&gt;Node3 -->
<g id="edge46_Node000001_Node000003" class="edge">
<title>Node1&#45;&gt;Node3</title>
<g id="a_edge46_Node000001_Node000003"><a xlink:title=" ">
<path fill="none" stroke="#63b8ff" d="M1144.74,-236.19C868.38,-226.76 149.27,-195.99 66.31,-129 53.11,-118.34 48.47,-99.03 46.92,-84.5"/>
<polygon fill="#63b8ff" stroke="#63b8ff" points="50.38,-83.86 46.22,-74.12 43.4,-84.33 50.38,-83.86"/>
</a>
</g>
</g>
<!-- Node4 -->
<g id="Node000004" class="node">
<title>Node4</title>
<g id="a_Node000004"><a xlink:title=" ">
<polygon fill="#e0e0e0" stroke="#999999" points="606.31,-74 548.31,-74 548.31,-55 606.31,-55 606.31,-74"/>
<text text-anchor="middle" x="577.31" y="-62" font-family="Helvetica,sans-Serif" font-size="10.00">memory</text>
</a>
</g>
</g>
<!-- Node1&#45;&gt;Node4 -->
<g id="edge47_Node000001_Node000004" class="edge">
<title>Node1&#45;&gt;Node4</title>
<g id="a_edge47_Node000001_Node000004"><a xlink:title=" ">
<path fill="none" stroke="#63b8ff" d="M1144.69,-232.82C1061.91,-225.76 945.32,-211.64 846.31,-184 787.06,-167.46 775.61,-153.78 719.31,-129 679.95,-111.68 634.62,-91.34 605.97,-78.44"/>
<polygon fill="#63b8ff" stroke="#63b8ff" points="607.12,-75.12 596.57,-74.2 604.25,-81.5 607.12,-75.12"/>
</a>
</g>
</g>
<!-- Node6 -->
<g id="Node000006" class="node">
<title>Node6</title>
<g id="a_Node000006"><a xlink:title=" ">
<polygon fill="#e0e0e0" stroke="#999999" points="1574.81,-129 1527.81,-129 1527.81,-110 1574.81,-110 1574.81,-129"/>
<text text-anchor="middle" x="1551.31" y="-117" font-family="Helvetica,sans-Serif" font-size="10.00">queue</text>
</a>
</g>
</g>
<!-- Node1&#45;&gt;Node6 -->
<g id="edge48_Node000001_Node000006" class="edge">
<title>Node1&#45;&gt;Node6</title>
<g id="a_edge48_Node000001_Node000006"><a xlink:title=" ">
<path fill="none" stroke="#63b8ff" d="M1301.35,-219.98C1363.45,-195.27 1468.6,-153.42 1520.47,-132.77"/>
<polygon fill="#63b8ff" stroke="#63b8ff" points="1521.82,-136 1529.82,-129.05 1519.23,-129.5 1521.82,-136"/>
</a>
</g>
</g>
<!-- Node7 -->
<g id="Node000007" class="node">
<title>Node7</title>
<g id="a_Node000007"><a xlink:title=" ">
<polygon fill="#e0e0e0" stroke="#999999" points="164.31,-19 120.31,-19 120.31,0 164.31,0 164.31,-19"/>
<text text-anchor="middle" x="142.31" y="-7" font-family="Helvetica,sans-Serif" font-size="10.00">string</text>
</a>
</g>
</g>
<!-- Node1&#45;&gt;Node7 -->
<g id="edge49_Node000001_Node000007" class="edge">
<title>Node1&#45;&gt;Node7</title>
<g id="a_edge49_Node000001_Node000007"><a xlink:title=" ">
<path fill="none" stroke="#63b8ff" d="M1144.62,-238.18C912.35,-234.65 370.77,-222.42 191.31,-184 125.13,-169.83 103.43,-169.64 49.31,-129 19.07,-106.29 -14.85,-85.64 7.31,-55 30.63,-22.75 78.14,-13.47 110.11,-11.02"/>
<polygon fill="#63b8ff" stroke="#63b8ff" points="110.52,-14.51 120.3,-10.43 110.12,-7.52 110.52,-14.51"/>
</a>
</g>
</g>
<!-- Node9 -->
<g id="Node000009" class="node">
<title>Node9</title>
<g id="a_Node000009"><a xlink:title=" ">
<polygon fill="#e0e0e0" stroke="#999999" points="1381.81,-19 1334.81,-19 1334.81,0 1381.81,0 1381.81,-19"/>
<text text-anchor="middle" x="1358.31" y="-7" font-family="Helvetica,sans-Serif" font-size="10.00">vector</text>
</a>
</g>
</g>
<!-- Node1&#45;&gt;Node9 -->
<g id="edge51_Node000001_Node000009" class="edge">
<title>Node1&#45;&gt;Node9</title>
<g id="a_edge51_Node000001_Node000009"><a xlink:title=" ">
<path fill="none" stroke="#63b8ff" d="M1360.27,-235.85C1467.65,-225.44 1624.48,-189.97 1682.31,-74 1686.08,-66.44 1687.86,-61.36 1682.31,-55 1644.96,-12.17 1467.95,-9.11 1392.5,-9.82"/>
<polygon fill="#63b8ff" stroke="#63b8ff" points="1392.09,-6.32 1382.14,-9.94 1392.18,-13.32 1392.09,-6.32"/>
</a>
</g>
</g>
<!-- Node23 -->
<g id="Node000023" class="node">
<title>Node23</title>
<g id="a_Node000023"><a xlink:title=" ">
<polygon fill="#e0e0e0" stroke="#999999" points="1673.31,-74 1533.31,-74 1533.31,-55 1673.31,-55 1673.31,-74"/>
<text text-anchor="middle" x="1603.31" y="-62" font-family="Helvetica,sans-Serif" font-size="10.00">network/DecodeFunc.hpp</text>
</a>
</g>
</g>
<!-- Node1&#45;&gt;Node23 -->
<g id="edge52_Node000001_Node000023" class="edge">
<title>Node1&#45;&gt;Node23</title>
<g id="a_edge52_Node000001_Node000023"><a xlink:title=" ">
<path fill="none" stroke="#63b8ff" d="M1360.11,-229.76C1432.91,-217.61 1526.01,-190.3 1584.31,-129 1595.82,-116.89 1600.39,-98.09 1602.18,-84.09"/>
<polygon fill="#63b8ff" stroke="#63b8ff" points="1605.67,-84.38 1603.11,-74.1 1598.7,-83.74 1605.67,-84.38"/>
</a>
</g>
</g>
<!-- Node26 -->
<g id="Node000026" class="node">
<title>Node26</title>
<g id="a_Node000026"><a xlink:title=" ">
<polygon fill="#e0e0e0" stroke="#999999" points="1774.81,-184 1729.81,-184 1729.81,-165 1774.81,-165 1774.81,-184"/>
<text text-anchor="middle" x="1752.31" y="-172" font-family="Helvetica,sans-Serif" font-size="10.00">utility</text>
</a>
</g>
</g>
<!-- Node1&#45;&gt;Node26 -->
<g id="edge50_Node000001_Node000026" class="edge">
<title>Node1&#45;&gt;Node26</title>
<g id="a_edge50_Node000001_Node000026"><a xlink:title=" ">
<path fill="none" stroke="#63b8ff" d="M1359.9,-229.88C1454.05,-220.68 1594.28,-205.09 1715.31,-184 1716.77,-183.75 1718.26,-183.47 1719.76,-183.18"/>
<polygon fill="#63b8ff" stroke="#63b8ff" points="1720.62,-186.58 1729.69,-181.1 1719.18,-179.72 1720.62,-186.58"/>
</a>
</g>
</g>
<!-- Node2&#45;&gt;Node3 -->
<g id="edge2_Node000002_Node000003" class="edge">
<title>Node2&#45;&gt;Node3</title>
<g id="a_edge2_Node000002_Node000003"><a xlink:title=" ">
<path fill="none" stroke="#63b8ff" d="M855.7,-173.28C643.88,-172.1 155.72,-165.43 90.31,-129 72.6,-119.14 60.47,-98.79 53.5,-83.77"/>
<polygon fill="#63b8ff" stroke="#63b8ff" points="56.65,-82.24 49.49,-74.42 50.21,-84.99 56.65,-82.24"/>
</a>
</g>
</g>
<!-- Node2&#45;&gt;Node4 -->
<g id="edge3_Node000002_Node000004" class="edge">
<title>Node2&#45;&gt;Node4</title>
<g id="a_edge3_Node000002_Node000004"><a xlink:title=" ">
<path fill="none" stroke="#63b8ff" d="M919.95,-164.97C886.17,-156.25 832.48,-142.16 786.31,-129 725.66,-111.71 655.62,-90.09 613.98,-77.06"/>
<polygon fill="#63b8ff" stroke="#63b8ff" points="614.86,-73.67 604.27,-74.02 612.77,-80.35 614.86,-73.67"/>
</a>
</g>
</g>
<!-- Node5 -->
<g id="Node000005" class="node">
<title>Node5</title>
<g id="a_Node000005"><a xlink:title=" ">
<polygon fill="#e0e0e0" stroke="#999999" points="418.31,-74 370.31,-74 370.31,-55 418.31,-55 418.31,-74"/>
<text text-anchor="middle" x="394.31" y="-62" font-family="Helvetica,sans-Serif" font-size="10.00">mutex</text>
</a>
</g>
</g>
<!-- Node2&#45;&gt;Node5 -->
<g id="edge4_Node000002_Node000005" class="edge">
<title>Node2&#45;&gt;Node5</title>
<g id="a_edge4_Node000002_Node000005"><a xlink:title=" ">
<path fill="none" stroke="#63b8ff" d="M902.31,-164.99C809.79,-149.31 608.02,-113.96 428.31,-74.11"/>
<polygon fill="#63b8ff" stroke="#63b8ff" points="428.94,-70.66 418.41,-71.9 427.41,-77.49 428.94,-70.66"/>
</a>
</g>
</g>
<!-- Node2&#45;&gt;Node6 -->
<g id="edge5_Node000002_Node000006" class="edge">
<title>Node2&#45;&gt;Node6</title>
<g id="a_edge5_Node000002_Node000006"><a xlink:title=" ">
<path fill="none" stroke="#63b8ff" d="M1050.9,-169.91C1163.02,-164.82 1352.26,-153.29 1513.31,-129 1514.77,-128.78 1516.26,-128.53 1517.76,-128.27"/>
<polygon fill="#63b8ff" stroke="#63b8ff" points="1518.55,-131.68 1527.69,-126.32 1517.2,-124.81 1518.55,-131.68"/>
</a>
</g>
</g>
<!-- Node2&#45;&gt;Node7 -->
<g id="edge6_Node000002_Node000007" class="edge">
<title>Node2&#45;&gt;Node7</title>
<g id="a_edge6_Node000002_Node000007"><a xlink:title=" ">
<path fill="none" stroke="#63b8ff" d="M855.64,-169.82C702.01,-163.51 410.97,-149.31 309.31,-129 234.33,-114.02 192.83,-134.67 146.31,-74 136.75,-61.54 136.58,-43.33 138.31,-29.6"/>
<polygon fill="#63b8ff" stroke="#63b8ff" points="141.83,-29.8 140.05,-19.35 134.93,-28.62 141.83,-29.8"/>
</a>
</g>
</g>
<!-- Node8 -->
<g id="Node000008" class="node">
<title>Node8</title>
<g id="a_Node000008"><a xlink:title=" ">
<polygon fill="#e0e0e0" stroke="#999999" points="1179.31,-129 1131.31,-129 1131.31,-110 1179.31,-110 1179.31,-129"/>
<text text-anchor="middle" x="1155.31" y="-117" font-family="Helvetica,sans-Serif" font-size="10.00">thread</text>
</a>
</g>
</g>
<!-- Node2&#45;&gt;Node8 -->
<g id="edge7_Node000002_Node000008" class="edge">
<title>Node2&#45;&gt;Node8</title>
<g id="a_edge7_Node000002_Node000008"><a xlink:title=" ">
<path fill="none" stroke="#63b8ff" d="M985.76,-164.98C1022.87,-155.25 1083.35,-139.38 1121.15,-129.46"/>
<polygon fill="#63b8ff" stroke="#63b8ff" points="1122.39,-132.76 1131.17,-126.83 1120.61,-125.98 1122.39,-132.76"/>
</a>
</g>
</g>
<!-- Node2&#45;&gt;Node9 -->
<g id="edge8_Node000002_Node000009" class="edge">
<title>Node2&#45;&gt;Node9</title>
<g id="a_edge8_Node000002_Node000009"><a xlink:title=" ">
<path fill="none" stroke="#63b8ff" d="M1050.9,-168C1155.64,-161.23 1314.72,-148.23 1372.31,-129 1417.49,-113.91 1440.8,-115.44 1464.31,-74 1482.35,-42.19 1429.36,-24.59 1391.94,-16.38"/>
<polygon fill="#63b8ff" stroke="#63b8ff" points="1392.37,-12.89 1381.87,-14.3 1390.96,-19.75 1392.37,-12.89"/>
</a>
</g>
</g>
<!-- Node10 -->
<g id="Node000010" class="node">
<title>Node10</title>
<g id="a_Node000010"><a xlink:title=" ">
<polygon fill="#e0e0e0" stroke="#999999" points="963.31,-19 905.31,-19 905.31,0 963.31,0 963.31,-19"/>
<text text-anchor="middle" x="934.31" y="-7" font-family="Helvetica,sans-Serif" font-size="10.00">asio.hpp</text>
</a>
</g>
</g>
<!-- Node2&#45;&gt;Node10 -->
<g id="edge9_Node000002_Node000010" class="edge">
<title>Node2&#45;&gt;Node10</title>
<g id="a_edge9_Node000002_Node000010"><a xlink:title=" ">
<path fill="none" stroke="#63b8ff" d="M952.29,-164.74C949.32,-139.31 940.67,-65.08 936.55,-29.69"/>
<polygon fill="#63b8ff" stroke="#63b8ff" points="939.97,-28.83 935.33,-19.31 933.02,-29.64 939.97,-28.83"/>
</a>
</g>
</g>
<!-- Node11 -->
<g id="Node000011" class="node">
<title>Node11</title>
<g id="a_Node000011"><a xlink:href="ClientManager_8hpp.html" target="_top" xlink:title=" ">
<polygon fill="white" stroke="#666666" points="469.81,-129 318.81,-129 318.81,-110 469.81,-110 469.81,-129"/>
<text text-anchor="middle" x="394.31" y="-117" font-family="Helvetica,sans-Serif" font-size="10.00">network/ClientManager.hpp</text>
</a>
</g>
</g>
<!-- Node2&#45;&gt;Node11 -->
<g id="edge10_Node000002_Node000011" class="edge">
<title>Node2&#45;&gt;Node11</title>
<g id="a_edge10_Node000002_Node000011"><a xlink:title=" ">
<path fill="none" stroke="#63b8ff" d="M863.5,-164.98C757.91,-154.97 583.95,-138.48 480.13,-128.64"/>
<polygon fill="#63b8ff" stroke="#63b8ff" points="480.28,-125.14 469.99,-127.68 479.62,-132.1 480.28,-125.14"/>
</a>
</g>
</g>
<!-- Node17 -->
<g id="Node000017" class="node">
<title>Node17</title>
<g id="a_Node000017"><a xlink:href="INetworkManager_8hpp.html" target="_top" xlink:title=" ">
<polygon fill="white" stroke="#666666" points="1363.81,-129 1196.81,-129 1196.81,-110 1363.81,-110 1363.81,-129"/>
<text text-anchor="middle" x="1280.31" y="-117" font-family="Helvetica,sans-Serif" font-size="10.00">network/INetworkManager.hpp</text>
</a>
</g>
</g>
<!-- Node2&#45;&gt;Node17 -->
<g id="edge22_Node000002_Node000017" class="edge">
<title>Node2&#45;&gt;Node17</title>
<g id="a_edge22_Node000002_Node000017"><a xlink:title=" ">
<path fill="none" stroke="#63b8ff" d="M1005.85,-164.98C1063.56,-155.63 1156.21,-140.61 1217.67,-130.65"/>
<polygon fill="#63b8ff" stroke="#63b8ff" points="1218.32,-134.09 1227.63,-129.04 1217.2,-127.18 1218.32,-134.09"/>
</a>
</g>
</g>
<!-- Node20 -->
<g id="Node000020" class="node">
<title>Node20</title>
<g id="a_Node000020"><a xlink:href="TCPServer_8hpp.html" target="_top" xlink:title=" ">
<polygon fill="white" stroke="#666666" points="924.81,-129 795.81,-129 795.81,-110 924.81,-110 924.81,-129"/>
<text text-anchor="middle" x="860.31" y="-117" font-family="Helvetica,sans-Serif" font-size="10.00">network/TCPServer.hpp</text>
</a>
</g>
</g>
<!-- Node2&#45;&gt;Node20 -->
<g id="edge29_Node000002_Node000020" class="edge">
<title>Node2&#45;&gt;Node20</title>
<g id="a_edge29_Node000002_Node000020"><a xlink:title=" ">
<path fill="none" stroke="#63b8ff" d="M938.37,-164.98C923.81,-156.69 901.44,-143.94 884.37,-134.22"/>
<polygon fill="#63b8ff" stroke="#63b8ff" points="885.94,-131.08 875.52,-129.17 882.48,-137.16 885.94,-131.08"/>
</a>
</g>
</g>
<!-- Node24 -->
<g id="Node000024" class="node">
<title>Node24</title>
<g id="a_Node000024"><a xlink:href="UDPServer_8hpp.html" target="_top" xlink:title=" ">
<polygon fill="white" stroke="#666666" points="1113.31,-129 981.31,-129 981.31,-110 1113.31,-110 1113.31,-129"/>
<text text-anchor="middle" x="1047.31" y="-117" font-family="Helvetica,sans-Serif" font-size="10.00">network/UDPServer.hpp</text>
</a>
</g>
</g>
<!-- Node2&#45;&gt;Node24 -->
<g id="edge40_Node000002_Node000024" class="edge">
<title>Node2&#45;&gt;Node24</title>
<g id="a_edge40_Node000002_Node000024"><a xlink:title=" ">
<path fill="none" stroke="#63b8ff" d="M968.41,-164.98C983.12,-156.69 1005.73,-143.94 1022.98,-134.22"/>
<polygon fill="#63b8ff" stroke="#63b8ff" points="1024.94,-137.13 1031.93,-129.17 1021.5,-131.03 1024.94,-137.13"/>
</a>
</g>
</g>
<!-- Node11&#45;&gt;Node4 -->
<g id="edge11_Node000011_Node000004" class="edge">
<title>Node11&#45;&gt;Node4</title>
<g id="a_edge11_Node000011_Node000004"><a xlink:title=" ">
<path fill="none" stroke="#63b8ff" d="M423.71,-109.98C454.88,-100.96 504.27,-86.65 538.59,-76.71"/>
<polygon fill="#63b8ff" stroke="#63b8ff" points="539.65,-80.05 548.28,-73.91 537.7,-73.33 539.65,-80.05"/>
</a>
</g>
</g>
<!-- Node11&#45;&gt;Node5 -->
<g id="edge12_Node000011_Node000005" class="edge">
<title>Node11&#45;&gt;Node5</title>
<g id="a_edge12_Node000011_Node000005"><a xlink:title=" ">
<path fill="none" stroke="#63b8ff" d="M394.31,-109.75C394.31,-102.8 394.31,-92.85 394.31,-84.13"/>
<polygon fill="#63b8ff" stroke="#63b8ff" points="397.81,-84.09 394.31,-74.09 390.81,-84.09 397.81,-84.09"/>
</a>
</g>
</g>
<!-- Node11&#45;&gt;Node7 -->
<g id="edge13_Node000011_Node000007" class="edge">
<title>Node11&#45;&gt;Node7</title>
<g id="a_edge13_Node000011_Node000007"><a xlink:title=" ">
<path fill="none" stroke="#63b8ff" d="M318.75,-112.51C259.78,-106.34 184.16,-94.63 161.31,-74 148.91,-62.8 144.46,-43.88 142.94,-29.6"/>
<polygon fill="#63b8ff" stroke="#63b8ff" points="146.41,-29.12 142.24,-19.38 139.43,-29.59 146.41,-29.12"/>
</a>
</g>
</g>
<!-- Node11&#45;&gt;Node9 -->
<g id="edge15_Node000011_Node000009" class="edge">
<title>Node11&#45;&gt;Node9</title>
<g id="a_edge15_Node000011_Node000009"><a xlink:title=" ">
<path fill="none" stroke="#63b8ff" d="M383.7,-109.74C368.93,-96.52 345.63,-71.3 361.31,-55 396.84,-18.05 1232.19,-22.89 1283.31,-19 1296.78,-17.97 1311.57,-16.4 1324.43,-14.88"/>
<polygon fill="#63b8ff" stroke="#63b8ff" points="1325.2,-18.31 1334.71,-13.63 1324.36,-11.36 1325.2,-18.31"/>
</a>
</g>
</g>
<!-- Node12 -->
<g id="Node000012" class="node">
<title>Node12</title>
<g id="a_Node000012"><a xlink:title=" ">
<polygon fill="#e0e0e0" stroke="#999999" points="529.81,-74 436.81,-74 436.81,-55 529.81,-55 529.81,-74"/>
<text text-anchor="middle" x="483.31" y="-62" font-family="Helvetica,sans-Serif" font-size="10.00">unordered_map</text>
</a>
</g>
</g>
<!-- Node11&#45;&gt;Node12 -->
<g id="edge14_Node000011_Node000012" class="edge">
<title>Node11&#45;&gt;Node12</title>
<g id="a_edge14_Node000011_Node000012"><a xlink:title=" ">
<path fill="none" stroke="#63b8ff" d="M408.61,-109.98C422.41,-101.77 443.55,-89.18 459.82,-79.49"/>
<polygon fill="#63b8ff" stroke="#63b8ff" points="461.95,-82.29 468.75,-74.17 458.37,-76.28 461.95,-82.29"/>
</a>
</g>
</g>
<!-- Node13 -->
<g id="Node000013" class="node">
<title>Node13</title>
<g id="a_Node000013"><a xlink:href="HandleClient_8hpp.html" target="_top" xlink:title=" ">
<polygon fill="white" stroke="#666666" points="313.81,-74 170.81,-74 170.81,-55 313.81,-55 313.81,-74"/>
<text text-anchor="middle" x="242.31" y="-62" font-family="Helvetica,sans-Serif" font-size="10.00">network/HandleClient.hpp</text>
</a>
</g>
</g>
<!-- Node11&#45;&gt;Node13 -->
<g id="edge16_Node000011_Node000013" class="edge">
<title>Node11&#45;&gt;Node13</title>
<g id="a_edge16_Node000011_Node000013"><a xlink:title=" ">
<path fill="none" stroke="#63b8ff" d="M369.89,-109.98C344.59,-101.16 304.85,-87.31 276.45,-77.41"/>
<polygon fill="#63b8ff" stroke="#63b8ff" points="277.52,-74.07 266.92,-74.08 275.21,-80.68 277.52,-74.07"/>
</a>
</g>
</g>
<!-- Node13&#45;&gt;Node7 -->
<g id="edge20_Node000013_Node000007" class="edge">
<title>Node13&#45;&gt;Node7</title>
<g id="a_edge20_Node000013_Node000007"><a xlink:title=" ">
<path fill="none" stroke="#63b8ff" d="M226.24,-54.98C210.44,-46.61 186.09,-33.7 167.68,-23.95"/>
<polygon fill="#63b8ff" stroke="#63b8ff" points="169.14,-20.76 158.67,-19.17 165.86,-26.95 169.14,-20.76"/>
</a>
</g>
</g>
<!-- Node13&#45;&gt;Node10 -->
<g id="edge21_Node000013_Node000010" class="edge">
<title>Node13&#45;&gt;Node10</title>
<g id="a_edge21_Node000013_Node000010"><a xlink:title=" ">
<path fill="none" stroke="#63b8ff" d="M314.09,-56.27C318.9,-55.83 323.67,-55.4 328.31,-55 542.06,-36.59 798.65,-19.35 895.11,-13.03"/>
<polygon fill="#63b8ff" stroke="#63b8ff" points="895.52,-16.52 905.27,-12.37 895.07,-9.53 895.52,-16.52"/>
</a>
</g>
</g>
<!-- Node14 -->
<g id="Node000014" class="node">
<title>Node14</title>
<g id="a_Node000014"><a xlink:title=" ">
<polygon fill="#e0e0e0" stroke="#999999" points="322.31,-19 272.31,-19 272.31,0 322.31,0 322.31,-19"/>
<text text-anchor="middle" x="297.31" y="-7" font-family="Helvetica,sans-Serif" font-size="10.00">chrono</text>
</a>
</g>
</g>
<!-- Node13&#45;&gt;Node14 -->
<g id="edge17_Node000013_Node000014" class="edge">
<title>Node13&#45;&gt;Node14</title>
<g id="a_edge17_Node000013_Node000014"><a xlink:title=" ">
<path fill="none" stroke="#63b8ff" d="M251.39,-54.75C259.4,-47.03 271.27,-35.6 280.93,-26.28"/>
<polygon fill="#63b8ff" stroke="#63b8ff" points="283.62,-28.55 288.4,-19.09 278.77,-23.51 283.62,-28.55"/>
</a>
</g>
</g>
<!-- Node15 -->
<g id="Node000015" class="node">
<title>Node15</title>
<g id="a_Node000015"><a xlink:title=" ">
<polygon fill="#e0e0e0" stroke="#999999" points="1274.31,-19 1224.31,-19 1224.31,0 1274.31,0 1274.31,-19"/>
<text text-anchor="middle" x="1249.31" y="-7" font-family="Helvetica,sans-Serif" font-size="10.00">cstdint</text>
</a>
</g>
</g>
<!-- Node13&#45;&gt;Node15 -->
<g id="edge18_Node000013_Node000015" class="edge">
<title>Node13&#45;&gt;Node15</title>
<g id="a_edge18_Node000013_Node000015"><a xlink:title=" ">
<path fill="none" stroke="#63b8ff" d="M314.08,-56.13C318.89,-55.72 323.67,-55.34 328.31,-55 672.74,-29.67 1090.73,-15.43 1213.69,-11.58"/>
<polygon fill="#63b8ff" stroke="#63b8ff" points="1214.12,-15.06 1224.01,-11.26 1213.9,-8.07 1214.12,-15.06"/>
</a>
</g>
</g>
<!-- Node16 -->
<g id="Node000016" class="node">
<title>Node16</title>
<g id="a_Node000016"><a xlink:title=" ">
<polygon fill="#e0e0e0" stroke="#999999" points="254.31,-19 198.31,-19 198.31,0 254.31,0 254.31,-19"/>
<text text-anchor="middle" x="226.31" y="-7" font-family="Helvetica,sans-Serif" font-size="10.00">optional</text>
</a>
</g>
</g>
<!-- Node13&#45;&gt;Node16 -->
<g id="edge19_Node000013_Node000016" class="edge">
<title>Node13&#45;&gt;Node16</title>
<g id="a_edge19_Node000013_Node000016"><a xlink:title=" ">
<path fill="none" stroke="#63b8ff" d="M239.67,-54.75C237.55,-47.72 234.5,-37.62 231.85,-28.84"/>
<polygon fill="#63b8ff" stroke="#63b8ff" points="235.14,-27.65 228.9,-19.09 228.44,-29.67 235.14,-27.65"/>
</a>
</g>
</g>
<!-- Node17&#45;&gt;Node9 -->
<g id="edge25_Node000017_Node000009" class="edge">
<title>Node17&#45;&gt;Node9</title>
<g id="a_edge25_Node000017_Node000009"><a xlink:title=" ">
<path fill="none" stroke="#63b8ff" d="M1342.81,-109.99C1384.98,-102.81 1435.24,-90.98 1448.31,-74 1467.54,-49 1424.63,-29.86 1391.67,-19.4"/>
<polygon fill="#63b8ff" stroke="#63b8ff" points="1392.43,-15.97 1381.84,-16.44 1390.41,-22.67 1392.43,-15.97"/>
</a>
</g>
</g>
<!-- Node17&#45;&gt;Node15 -->
<g id="edge23_Node000017_Node000015" class="edge">
<title>Node17&#45;&gt;Node15</title>
<g id="a_edge23_Node000017_Node000015"><a xlink:title=" ">
<path fill="none" stroke="#63b8ff" d="M1277.77,-109.66C1272.73,-92.09 1261.35,-52.45 1254.6,-28.95"/>
<polygon fill="#63b8ff" stroke="#63b8ff" points="1257.92,-27.8 1251.79,-19.16 1251.19,-29.74 1257.92,-27.8"/>
</a>
</g>
</g>
<!-- Node18 -->
<g id="Node000018" class="node">
<title>Node18</title>
<g id="a_Node000018"><a xlink:title=" ">
<polygon fill="#e0e0e0" stroke="#999999" points="1160.81,-74 1095.81,-74 1095.81,-55 1160.81,-55 1160.81,-74"/>
<text text-anchor="middle" x="1128.31" y="-62" font-family="Helvetica,sans-Serif" font-size="10.00">functional</text>
</a>
</g>
</g>
<!-- Node17&#45;&gt;Node18 -->
<g id="edge24_Node000017_Node000018" class="edge">
<title>Node17&#45;&gt;Node18</title>
<g id="a_edge24_Node000017_Node000018"><a xlink:title=" ">
<path fill="none" stroke="#63b8ff" d="M1255.89,-109.98C1230.59,-101.16 1190.85,-87.31 1162.45,-77.41"/>
<polygon fill="#63b8ff" stroke="#63b8ff" points="1163.52,-74.07 1152.92,-74.08 1161.21,-80.68 1163.52,-74.07"/>
</a>
</g>
</g>
<!-- Node19 -->
<g id="Node000019" class="node">
<title>Node19</title>
<g id="a_Node000019"><a xlink:href="include_2NetworkMessage_8hpp.html" target="_top" xlink:title=" ">
<polygon fill="white" stroke="#666666" points="1438.81,-74 1277.81,-74 1277.81,-55 1438.81,-55 1438.81,-74"/>
<text text-anchor="middle" x="1358.31" y="-62" font-family="Helvetica,sans-Serif" font-size="10.00">include/NetworkMessage.hpp</text>
</a>
</g>
</g>
<!-- Node17&#45;&gt;Node19 -->
<g id="edge26_Node000017_Node000019" class="edge">
<title>Node17&#45;&gt;Node19</title>
<g id="a_edge26_Node000017_Node000019"><a xlink:title=" ">
<path fill="none" stroke="#63b8ff" d="M1292.84,-109.98C1304.71,-101.92 1322.77,-89.65 1336.92,-80.03"/>
<polygon fill="#63b8ff" stroke="#63b8ff" points="1339.24,-82.69 1345.55,-74.17 1335.31,-76.9 1339.24,-82.69"/>
</a>
</g>
</g>
<!-- Node19&#45;&gt;Node9 -->
<g id="edge28_Node000019_Node000009" class="edge">
<title>Node19&#45;&gt;Node9</title>
<g id="a_edge28_Node000019_Node000009"><a xlink:title=" ">
<path fill="none" stroke="#63b8ff" d="M1358.31,-54.75C1358.31,-47.8 1358.31,-37.85 1358.31,-29.13"/>
<polygon fill="#63b8ff" stroke="#63b8ff" points="1361.81,-29.09 1358.31,-19.09 1354.81,-29.09 1361.81,-29.09"/>
</a>
</g>
</g>
<!-- Node19&#45;&gt;Node15 -->
<g id="edge27_Node000019_Node000015" class="edge">
<title>Node19&#45;&gt;Node15</title>
<g id="a_edge27_Node000019_Node000015"><a xlink:title=" ">
<path fill="none" stroke="#63b8ff" d="M1340.8,-54.98C1323.34,-46.5 1296.3,-33.35 1276.14,-23.54"/>
<polygon fill="#63b8ff" stroke="#63b8ff" points="1277.66,-20.4 1267.14,-19.17 1274.6,-26.69 1277.66,-20.4"/>
</a>
</g>
</g>
<!-- Node20&#45;&gt;Node3 -->
<g id="edge32_Node000020_Node000003" class="edge">
<title>Node20&#45;&gt;Node3</title>
<g id="a_edge32_Node000020_Node000003"><a xlink:title=" ">
<path fill="none" stroke="#63b8ff" d="M795.73,-114.61C672.4,-107.13 394.84,-90.06 161.31,-74 136.48,-72.29 108.65,-70.24 86.58,-68.58"/>
<polygon fill="#63b8ff" stroke="#63b8ff" points="86.8,-65.08 76.57,-67.82 86.28,-72.06 86.8,-65.08"/>
</a>
</g>
</g>
<!-- Node20&#45;&gt;Node4 -->
<g id="edge33_Node000020_Node000004" class="edge">
<title>Node20&#45;&gt;Node4</title>
<g id="a_edge33_Node000020_Node000004"><a xlink:title=" ">
<path fill="none" stroke="#63b8ff" d="M809.99,-109.97C762.51,-101.79 689.11,-88.78 616.15,-74.1"/>
<polygon fill="#63b8ff" stroke="#63b8ff" points="616.82,-70.67 606.33,-72.12 615.44,-77.53 616.82,-70.67"/>
</a>
</g>
</g>
<!-- Node20&#45;&gt;Node7 -->
<g id="edge34_Node000020_Node000007" class="edge">
<title>Node20&#45;&gt;Node7</title>
<g id="a_edge34_Node000020_Node000007"><a xlink:title=" ">
<path fill="none" stroke="#63b8ff" d="M863.13,-109.68C866.91,-95.91 871.62,-69.41 857.31,-55 804.92,-2.27 263.14,-27.63 189.31,-19 184.52,-18.44 179.47,-17.7 174.54,-16.88"/>
<polygon fill="#63b8ff" stroke="#63b8ff" points="175.15,-13.43 164.7,-15.14 173.93,-20.33 175.15,-13.43"/>
</a>
</g>
</g>
<!-- Node20&#45;&gt;Node9 -->
<g id="edge36_Node000020_Node000009" class="edge">
<title>Node20&#45;&gt;Node9</title>
<g id="a_edge36_Node000020_Node000009"><a xlink:title=" ">
<path fill="none" stroke="#63b8ff" d="M883.55,-110C921.09,-96.55 997.61,-70.33 1064.31,-55 1113.38,-43.72 1258.36,-23.79 1324.61,-14.95"/>
<polygon fill="#63b8ff" stroke="#63b8ff" points="1325.08,-18.41 1334.53,-13.62 1324.16,-11.47 1325.08,-18.41"/>
</a>
</g>
</g>
<!-- Node20&#45;&gt;Node10 -->
<g id="edge37_Node000020_Node000010" class="edge">
<title>Node20&#45;&gt;Node10</title>
<g id="a_edge37_Node000020_Node000010"><a xlink:title=" ">
<path fill="none" stroke="#63b8ff" d="M866.28,-109.99C872.55,-101.05 882.67,-86.57 891.31,-74 902.11,-58.28 914.28,-40.27 922.91,-27.46"/>
<polygon fill="#63b8ff" stroke="#63b8ff" points="925.82,-29.4 928.5,-19.15 920.02,-25.5 925.82,-29.4"/>
</a>
</g>
</g>
<!-- Node20&#45;&gt;Node12 -->
<g id="edge35_Node000020_Node000012" class="edge">
<title>Node20&#45;&gt;Node12</title>
<g id="a_edge35_Node000020_Node000012"><a xlink:title=" ">
<path fill="none" stroke="#63b8ff" d="M796.93,-109.96C734.37,-101.47 635.7,-87.94 540.18,-74.11"/>
<polygon fill="#63b8ff" stroke="#63b8ff" points="540.45,-70.61 530.05,-72.64 539.45,-77.54 540.45,-70.61"/>
</a>
</g>
</g>
<!-- Node20&#45;&gt;Node18 -->
<g id="edge31_Node000020_Node000018" class="edge">
<title>Node20&#45;&gt;Node18</title>
<g id="a_edge31_Node000020_Node000018"><a xlink:title=" ">
<path fill="none" stroke="#63b8ff" d="M903.37,-109.98C953.48,-100.07 1035.71,-83.81 1085.65,-73.94"/>
<polygon fill="#63b8ff" stroke="#63b8ff" points="1086.36,-77.36 1095.49,-71.99 1085,-70.5 1086.36,-77.36"/>
</a>
</g>
</g>
<!-- Node21 -->
<g id="Node000021" class="node">
<title>Node21</title>
<g id="a_Node000021"><a xlink:title=" ">
<polygon fill="#e0e0e0" stroke="#999999" points="693.81,-74 624.81,-74 624.81,-55 693.81,-55 693.81,-74"/>
<text text-anchor="middle" x="659.31" y="-62" font-family="Helvetica,sans-Serif" font-size="10.00">arpa/inet.h</text>
</a>
</g>
</g>
<!-- Node20&#45;&gt;Node21 -->
<g id="edge30_Node000020_Node000021" class="edge">
<title>Node20&#45;&gt;Node21</title>
<g id="a_edge30_Node000020_Node000021"><a xlink:title=" ">
<path fill="none" stroke="#63b8ff" d="M828.01,-109.98C793.68,-100.93 739.25,-86.58 701.54,-76.64"/>
<polygon fill="#63b8ff" stroke="#63b8ff" points="702.42,-73.25 691.86,-74.08 700.63,-80.02 702.42,-73.25"/>
</a>
</g>
</g>
<!-- Node22 -->
<g id="Node000022" class="node">
<title>Node22</title>
<g id="a_Node000022"><a xlink:href="ServerMacro_8hpp.html" target="_top" xlink:title="Server configuration constants and macros.">
<polygon fill="white" stroke="#666666" points="848.81,-74 711.81,-74 711.81,-55 848.81,-55 848.81,-74"/>
<text text-anchor="middle" x="780.31" y="-62" font-family="Helvetica,sans-Serif" font-size="10.00">include/ServerMacro.hpp</text>
</a>
</g>
</g>
<!-- Node20&#45;&gt;Node22 -->
<g id="edge38_Node000020_Node000022" class="edge">
<title>Node20&#45;&gt;Node22</title>
<g id="a_edge38_Node000020_Node000022"><a xlink:title=" ">
<path fill="none" stroke="#63b8ff" d="M847.45,-109.98C835.16,-101.84 816.4,-89.41 801.83,-79.76"/>
<polygon fill="#63b8ff" stroke="#63b8ff" points="803.66,-76.78 793.4,-74.17 799.8,-82.61 803.66,-76.78"/>
</a>
</g>
</g>
<!-- Node20&#45;&gt;Node23 -->
<g id="edge39_Node000020_Node000023" class="edge">
<title>Node20&#45;&gt;Node23</title>
<g id="a_edge39_Node000020_Node000023"><a xlink:title=" ">
<path fill="none" stroke="#63b8ff" d="M924.86,-113.54C940.4,-112.36 956.94,-111.12 972.31,-110 1170.26,-95.51 1403.21,-79.3 1523.08,-71.02"/>
<polygon fill="#63b8ff" stroke="#63b8ff" points="1523.53,-74.5 1533.27,-70.32 1523.05,-67.51 1523.53,-74.5"/>
</a>
</g>
</g>
<!-- Node24&#45;&gt;Node4 -->
<g id="edge42_Node000024_Node000004" class="edge">
<title>Node24&#45;&gt;Node4</title>
<g id="a_edge42_Node000024_Node000004"><a xlink:title=" ">
<path fill="none" stroke="#63b8ff" d="M981.1,-112.64C882.27,-103.74 699.73,-86.65 616.78,-74.03"/>
<polygon fill="#63b8ff" stroke="#63b8ff" points="617.12,-70.54 606.7,-72.43 616.03,-77.45 617.12,-70.54"/>
</a>
</g>
</g>
<!-- Node24&#45;&gt;Node9 -->
<g id="edge43_Node000024_Node000009" class="edge">
<title>Node24&#45;&gt;Node9</title>
<g id="a_edge43_Node000024_Node000009"><a xlink:title=" ">
<path fill="none" stroke="#63b8ff" d="M1049.98,-109.86C1054.79,-95.85 1066.33,-68.41 1086.31,-55 1105.83,-41.9 1255.62,-22.69 1324.21,-14.47"/>
<polygon fill="#63b8ff" stroke="#63b8ff" points="1324.97,-17.91 1334.49,-13.25 1324.14,-10.96 1324.97,-17.91"/>
</a>
</g>
</g>
<!-- Node24&#45;&gt;Node10 -->
<g id="edge45_Node000024_Node000010" class="edge">
<title>Node24&#45;&gt;Node10</title>
<g id="a_edge45_Node000024_Node000010"><a xlink:title=" ">
<path fill="none" stroke="#63b8ff" d="M1038.06,-109.66C1018.93,-91.38 974.78,-49.18 950.7,-26.17"/>
<polygon fill="#63b8ff" stroke="#63b8ff" points="953.01,-23.54 943.37,-19.16 948.18,-28.6 953.01,-23.54"/>
</a>
</g>
</g>
<!-- Node24&#45;&gt;Node18 -->
<g id="edge41_Node000024_Node000018" class="edge">
<title>Node24&#45;&gt;Node18</title>
<g id="a_edge41_Node000024_Node000018"><a xlink:title=" ">
<path fill="none" stroke="#63b8ff" d="M1060.32,-109.98C1072.77,-101.84 1091.76,-89.41 1106.52,-79.76"/>
<polygon fill="#63b8ff" stroke="#63b8ff" points="1108.61,-82.57 1115.06,-74.17 1104.77,-76.72 1108.61,-82.57"/>
</a>
</g>
</g>
<!-- Node25 -->
<g id="Node000025" class="node">
<title>Node25</title>
<g id="a_Node000025"><a xlink:title=" ">
<polygon fill="#e0e0e0" stroke="#999999" points="1221.31,-74 1179.31,-74 1179.31,-55 1221.31,-55 1221.31,-74"/>
<text text-anchor="middle" x="1200.31" y="-62" font-family="Helvetica,sans-Serif" font-size="10.00">array</text>
</a>
</g>
</g>
<!-- Node24&#45;&gt;Node25 -->
<g id="edge44_Node000024_Node000025" class="edge">
<title>Node24&#45;&gt;Node25</title>
<g id="a_edge44_Node000024_Node000025"><a xlink:title=" ">
<path fill="none" stroke="#63b8ff" d="M1071.89,-109.98C1098.49,-100.77 1140.94,-86.07 1169.69,-76.11"/>
<polygon fill="#63b8ff" stroke="#63b8ff" points="1170.93,-79.38 1179.23,-72.8 1168.64,-72.77 1170.93,-79.38"/>
</a>
</g>
</g>
</g>
</svg>
