<?xml version="1.0" encoding="UTF-8" standalone="no"?>
<!DOCTYPE svg PUBLIC "-//W3C//DTD SVG 1.1//EN"
 "http://www.w3.org/Graphics/SVG/1.1/DTD/svg11.dtd">
<!-- Generated by graphviz version 2.43.0 (0)
 -->
<!-- Title: /home/runner/work/R&#45;Type/R&#45;Type/Server/src/ServerGame.cpp Pages: 1 -->
<svg width="3919pt" height="324pt"
 viewBox="0.00 0.00 3919.00 324.00" xmlns="http://www.w3.org/2000/svg" xmlns:xlink="http://www.w3.org/1999/xlink">
<g id="graph0" class="graph" transform="scale(1 1) rotate(0) translate(4 320)">
<title>/home/runner/work/R&#45;Type/R&#45;Type/Server/src/ServerGame.cpp</title>
<!-- Node1 -->
<g id="Node000001" class="node">
<title>Node1</title>
<g id="a_Node000001"><a xlink:title=" ">
<polygon fill="#999999" stroke="#666666" points="2463.5,-316 2344.5,-316 2344.5,-275 2463.5,-275 2463.5,-316"/>
<text text-anchor="start" x="2352.5" y="-304" font-family="Helvetica,sans-Serif" font-size="10.00">/home/runner/work/R</text>
<text text-anchor="start" x="2352.5" y="-293" font-family="Helvetica,sans-Serif" font-size="10.00">&#45;Type/R&#45;Type/Server</text>
<text text-anchor="middle" x="2404" y="-282" font-family="Helvetica,sans-Serif" font-size="10.00">/src/ServerGame.cpp</text>
</a>
</g>
</g>
<!-- Node2 -->
<g id="Node000002" class="node">
<title>Node2</title>
<g id="a_Node000002"><a xlink:href="ServerGame_8hpp.html" target="_top" xlink:title=" ">
<polygon fill="white" stroke="#666666" points="1387.5,-239 1250.5,-239 1250.5,-220 1387.5,-220 1387.5,-239"/>
<text text-anchor="middle" x="1319" y="-227" font-family="Helvetica,sans-Serif" font-size="10.00">include/ServerGame.hpp</text>
</a>
</g>
</g>
<!-- Node1&#45;&gt;Node2 -->
<g id="edge1_Node000001_Node000002" class="edge">
<title>Node1&#45;&gt;Node2</title>
<g id="a_edge1_Node000001_Node000002"><a xlink:title=" ">
<path fill="none" stroke="#63b8ff" d="M2344.12,-290.97C2160.41,-280.13 1604.76,-247.36 1397.8,-235.15"/>
<polygon fill="#63b8ff" stroke="#63b8ff" points="1397.81,-231.64 1387.62,-234.55 1397.4,-238.63 1397.81,-231.64"/>
</a>
</g>
</g>
<!-- Node4 -->
<g id="Node000004" class="node">
<title>Node4</title>
<g id="a_Node000004"><a xlink:title=" ">
<polygon fill="#e0e0e0" stroke="#999999" points="1761,-74 1701,-74 1701,-55 1761,-55 1761,-74"/>
<text text-anchor="middle" x="1731" y="-62" font-family="Helvetica,sans-Serif" font-size="10.00">iostream</text>
</a>
</g>
</g>
<!-- Node1&#45;&gt;Node4 -->
<g id="edge57_Node000001_Node000004" class="edge">
<title>Node1&#45;&gt;Node4</title>
<g id="a_edge57_Node000001_Node000004"><a xlink:title=" ">
<path fill="none" stroke="#63b8ff" d="M2344.27,-292.5C2200.51,-287.2 1843.97,-270.96 1801,-239 1750.44,-201.39 1736.31,-121.14 1732.43,-84.48"/>
<polygon fill="#63b8ff" stroke="#63b8ff" points="1735.89,-83.86 1731.5,-74.22 1728.92,-84.49 1735.89,-83.86"/>
</a>
</g>
</g>
<!-- Node6 -->
<g id="Node000006" class="node">
<title>Node6</title>
<g id="a_Node000006"><a xlink:title=" ">
<polygon fill="#e0e0e0" stroke="#999999" points="1402.5,-129 1355.5,-129 1355.5,-110 1402.5,-110 1402.5,-129"/>
<text text-anchor="middle" x="1379" y="-117" font-family="Helvetica,sans-Serif" font-size="10.00">queue</text>
</a>
</g>
</g>
<!-- Node1&#45;&gt;Node6 -->
<g id="edge58_Node000001_Node000006" class="edge">
<title>Node1&#45;&gt;Node6</title>
<g id="a_edge58_Node000001_Node000006"><a xlink:title=" ">
<path fill="none" stroke="#63b8ff" d="M2344.31,-292.41C2195.4,-286.74 1815.98,-269.47 1768,-239 1735.89,-218.61 1756.69,-186.04 1725,-165 1674.28,-131.32 1489.83,-123.1 1412.98,-121.12"/>
<polygon fill="#63b8ff" stroke="#63b8ff" points="1412.95,-117.61 1402.87,-120.88 1412.79,-124.61 1412.95,-117.61"/>
</a>
</g>
</g>
<!-- Node9 -->
<g id="Node000009" class="node">
<title>Node9</title>
<g id="a_Node000009"><a xlink:title=" ">
<polygon fill="#e0e0e0" stroke="#999999" points="192.5,-19 145.5,-19 145.5,0 192.5,0 192.5,-19"/>
<text text-anchor="middle" x="169" y="-7" font-family="Helvetica,sans-Serif" font-size="10.00">vector</text>
</a>
</g>
</g>
<!-- Node1&#45;&gt;Node9 -->
<g id="edge60_Node000001_Node000009" class="edge">
<title>Node1&#45;&gt;Node9</title>
<g id="a_edge60_Node000001_Node000009"><a xlink:title=" ">
<path fill="none" stroke="#63b8ff" d="M2344.28,-294.75C1973.32,-295.96 0,-296.65 0,-175.5 0,-175.5 0,-175.5 0,-118.5 0,-54.95 85.9,-27.12 135.22,-16.38"/>
<polygon fill="#63b8ff" stroke="#63b8ff" points="136.05,-19.78 145.14,-14.34 134.65,-12.92 136.05,-19.78"/>
</a>
</g>
</g>
<!-- Node10 -->
<g id="Node000010" class="node">
<title>Node10</title>
<g id="a_Node000010"><a xlink:title=" ">
<polygon fill="#e0e0e0" stroke="#999999" points="1716,-184 1620,-184 1620,-165 1716,-165 1716,-184"/>
<text text-anchor="middle" x="1668" y="-172" font-family="Helvetica,sans-Serif" font-size="10.00">ecs/Registry.hpp</text>
</a>
</g>
</g>
<!-- Node1&#45;&gt;Node10 -->
<g id="edge69_Node000001_Node000010" class="edge">
<title>Node1&#45;&gt;Node10</title>
<g id="a_edge69_Node000001_Node000010"><a xlink:title=" ">
<path fill="none" stroke="#63b8ff" d="M2344.49,-294.87C2200.68,-294.94 1838.16,-289.89 1730,-239 1708.53,-228.9 1690.45,-207.96 1679.45,-192.89"/>
<polygon fill="#63b8ff" stroke="#63b8ff" points="1682.14,-190.62 1673.56,-184.41 1676.39,-194.62 1682.14,-190.62"/>
</a>
</g>
</g>
<!-- Node30 -->
<g id="Node000030" class="node">
<title>Node30</title>
<g id="a_Node000030"><a xlink:title=" ">
<polygon fill="#e0e0e0" stroke="#999999" points="1855.5,-239 1810.5,-239 1810.5,-220 1855.5,-220 1855.5,-239"/>
<text text-anchor="middle" x="1833" y="-227" font-family="Helvetica,sans-Serif" font-size="10.00">utility</text>
</a>
</g>
</g>
<!-- Node1&#45;&gt;Node30 -->
<g id="edge59_Node000001_Node000030" class="edge">
<title>Node1&#45;&gt;Node30</title>
<g id="a_edge59_Node000001_Node000030"><a xlink:title=" ">
<path fill="none" stroke="#63b8ff" d="M2344.15,-291.41C2246.02,-285.68 2044.78,-271.1 1865.5,-238.78"/>
<polygon fill="#63b8ff" stroke="#63b8ff" points="1866.09,-235.33 1855.63,-236.98 1864.84,-242.22 1866.09,-235.33"/>
</a>
</g>
</g>
<!-- Node31 -->
<g id="Node000031" class="node">
<title>Node31</title>
<g id="a_Node000031"><a xlink:title=" ">
<polygon fill="#e0e0e0" stroke="#999999" points="1998.5,-239 1873.5,-239 1873.5,-220 1998.5,-220 1998.5,-239"/>
<text text-anchor="middle" x="1936" y="-227" font-family="Helvetica,sans-Serif" font-size="10.00">Collision/Collision.hpp</text>
</a>
</g>
</g>
<!-- Node1&#45;&gt;Node31 -->
<g id="edge61_Node000001_Node000031" class="edge">
<title>Node1&#45;&gt;Node31</title>
<g id="a_edge61_Node000001_Node000031"><a xlink:title=" ">
<path fill="none" stroke="#63b8ff" d="M2344.25,-286.33C2258.51,-274.6 2100.75,-253.03 2008.47,-240.41"/>
<polygon fill="#63b8ff" stroke="#63b8ff" points="2008.75,-236.92 1998.37,-239.03 2007.8,-243.85 2008.75,-236.92"/>
</a>
</g>
</g>
<!-- Node32 -->
<g id="Node000032" class="node">
<title>Node32</title>
<g id="a_Node000032"><a xlink:title=" ">
<polygon fill="#e0e0e0" stroke="#999999" points="2189,-239 2017,-239 2017,-220 2189,-220 2189,-239"/>
<text text-anchor="middle" x="2103" y="-227" font-family="Helvetica,sans-Serif" font-size="10.00">Collision/CollisionController.hpp</text>
</a>
</g>
</g>
<!-- Node1&#45;&gt;Node32 -->
<g id="edge62_Node000001_Node000032" class="edge">
<title>Node1&#45;&gt;Node32</title>
<g id="a_edge62_Node000001_Node000032"><a xlink:title=" ">
<path fill="none" stroke="#63b8ff" d="M2344.17,-281.78C2288.24,-269.89 2205.66,-252.33 2153.11,-241.15"/>
<polygon fill="#63b8ff" stroke="#63b8ff" points="2153.53,-237.66 2143.02,-239.01 2152.07,-244.51 2153.53,-237.66"/>
</a>
</g>
</g>
<!-- Node33 -->
<g id="Node000033" class="node">
<title>Node33</title>
<g id="a_Node000033"><a xlink:title=" ">
<polygon fill="#e0e0e0" stroke="#999999" points="2317,-239 2207,-239 2207,-220 2317,-220 2317,-239"/>
<text text-anchor="middle" x="2262" y="-227" font-family="Helvetica,sans-Serif" font-size="10.00">Collision/Items.hpp</text>
</a>
</g>
</g>
<!-- Node1&#45;&gt;Node33 -->
<g id="edge63_Node000001_Node000033" class="edge">
<title>Node1&#45;&gt;Node33</title>
<g id="a_edge63_Node000001_Node000033"><a xlink:title=" ">
<path fill="none" stroke="#63b8ff" d="M2360.62,-274.95C2337.77,-264.65 2310.4,-252.31 2290.3,-243.25"/>
<polygon fill="#63b8ff" stroke="#63b8ff" points="2291.62,-240.01 2281.06,-239.09 2288.74,-246.39 2291.62,-240.01"/>
</a>
</g>
</g>
<!-- Node34 -->
<g id="Node000034" class="node">
<title>Node34</title>
<g id="a_Node000034"><a xlink:title=" ">
<polygon fill="#e0e0e0" stroke="#999999" points="2473,-239 2335,-239 2335,-220 2473,-220 2473,-239"/>
<text text-anchor="middle" x="2404" y="-227" font-family="Helvetica,sans-Serif" font-size="10.00">Helpers/EntityHelper.hpp</text>
</a>
</g>
</g>
<!-- Node1&#45;&gt;Node34 -->
<g id="edge64_Node000001_Node000034" class="edge">
<title>Node1&#45;&gt;Node34</title>
<g id="a_edge64_Node000001_Node000034"><a xlink:title=" ">
<path fill="none" stroke="#63b8ff" d="M2404,-274.95C2404,-266.85 2404,-257.5 2404,-249.47"/>
<polygon fill="#63b8ff" stroke="#63b8ff" points="2407.5,-249.26 2404,-239.26 2400.5,-249.26 2407.5,-249.26"/>
</a>
</g>
</g>
<!-- Node35 -->
<g id="Node000035" class="node">
<title>Node35</title>
<g id="a_Node000035"><a xlink:title=" ">
<polygon fill="#e0e0e0" stroke="#999999" points="2637,-239 2491,-239 2491,-220 2637,-220 2637,-239"/>
<text text-anchor="middle" x="2564" y="-227" font-family="Helvetica,sans-Serif" font-size="10.00">Movement/Movement.hpp</text>
</a>
</g>
</g>
<!-- Node1&#45;&gt;Node35 -->
<g id="edge65_Node000001_Node000035" class="edge">
<title>Node1&#45;&gt;Node35</title>
<g id="a_edge65_Node000001_Node000035"><a xlink:title=" ">
<path fill="none" stroke="#63b8ff" d="M2452.87,-274.95C2478.97,-264.51 2510.31,-251.98 2533.04,-242.88"/>
<polygon fill="#63b8ff" stroke="#63b8ff" points="2534.54,-246.06 2542.52,-239.09 2531.94,-239.56 2534.54,-246.06"/>
</a>
</g>
</g>
<!-- Node36 -->
<g id="Node000036" class="node">
<title>Node36</title>
<g id="a_Node000036"><a xlink:title=" ">
<polygon fill="#e0e0e0" stroke="#999999" points="2750.5,-239 2655.5,-239 2655.5,-220 2750.5,-220 2750.5,-239"/>
<text text-anchor="middle" x="2703" y="-227" font-family="Helvetica,sans-Serif" font-size="10.00">Player/Boss.hpp</text>
</a>
</g>
</g>
<!-- Node1&#45;&gt;Node36 -->
<g id="edge66_Node000001_Node000036" class="edge">
<title>Node1&#45;&gt;Node36</title>
<g id="a_edge66_Node000001_Node000036"><a xlink:title=" ">
<path fill="none" stroke="#63b8ff" d="M2463.79,-281.7C2519.23,-269.84 2600.79,-252.38 2652.89,-241.22"/>
<polygon fill="#63b8ff" stroke="#63b8ff" points="2653.86,-244.6 2662.91,-239.08 2652.4,-237.75 2653.86,-244.6"/>
</a>
</g>
</g>
<!-- Node37 -->
<g id="Node000037" class="node">
<title>Node37</title>
<g id="a_Node000037"><a xlink:title=" ">
<polygon fill="#e0e0e0" stroke="#999999" points="2873,-239 2769,-239 2769,-220 2873,-220 2873,-239"/>
<text text-anchor="middle" x="2821" y="-227" font-family="Helvetica,sans-Serif" font-size="10.00">Player/Enemy.hpp</text>
</a>
</g>
</g>
<!-- Node1&#45;&gt;Node37 -->
<g id="edge67_Node000001_Node000037" class="edge">
<title>Node1&#45;&gt;Node37</title>
<g id="a_edge67_Node000001_Node000037"><a xlink:title=" ">
<path fill="none" stroke="#63b8ff" d="M2463.75,-285.33C2542.25,-273.28 2679.46,-252.22 2759.05,-240.01"/>
<polygon fill="#63b8ff" stroke="#63b8ff" points="2759.58,-243.47 2768.93,-238.49 2758.52,-236.55 2759.58,-243.47"/>
</a>
</g>
</g>
<!-- Node38 -->
<g id="Node000038" class="node">
<title>Node38</title>
<g id="a_Node000038"><a xlink:title=" ">
<polygon fill="#e0e0e0" stroke="#999999" points="3042.5,-239 2891.5,-239 2891.5,-220 3042.5,-220 3042.5,-239"/>
<text text-anchor="middle" x="2967" y="-227" font-family="Helvetica,sans-Serif" font-size="10.00">components/Physics2D.hpp</text>
</a>
</g>
</g>
<!-- Node1&#45;&gt;Node38 -->
<g id="edge68_Node000001_Node000038" class="edge">
<title>Node1&#45;&gt;Node38</title>
<g id="a_edge68_Node000001_Node000038"><a xlink:title=" ">
<path fill="none" stroke="#63b8ff" d="M2463.72,-287.71C2563.99,-276.31 2766.49,-253.29 2881.72,-240.19"/>
<polygon fill="#63b8ff" stroke="#63b8ff" points="2882.37,-243.64 2891.91,-239.04 2881.58,-236.69 2882.37,-243.64"/>
</a>
</g>
</g>
<!-- Node39 -->
<g id="Node000039" class="node">
<title>Node39</title>
<g id="a_Node000039"><a xlink:title=" ">
<polygon fill="#e0e0e0" stroke="#999999" points="3215.5,-239 3060.5,-239 3060.5,-220 3215.5,-220 3215.5,-239"/>
<text text-anchor="middle" x="3138" y="-227" font-family="Helvetica,sans-Serif" font-size="10.00">systems/BoundsSystem.hpp</text>
</a>
</g>
</g>
<!-- Node1&#45;&gt;Node39 -->
<g id="edge70_Node000001_Node000039" class="edge">
<title>Node1&#45;&gt;Node39</title>
<g id="a_edge70_Node000001_Node000039"><a xlink:title=" ">
<path fill="none" stroke="#63b8ff" d="M2463.88,-289.63C2576.5,-280.43 2827.81,-259.61 3049.97,-239.18"/>
<polygon fill="#63b8ff" stroke="#63b8ff" points="3050.55,-242.64 3060.19,-238.24 3049.91,-235.67 3050.55,-242.64"/>
</a>
</g>
</g>
<!-- Node40 -->
<g id="Node000040" class="node">
<title>Node40</title>
<g id="a_Node000040"><a xlink:title=" ">
<polygon fill="#e0e0e0" stroke="#999999" points="3388.5,-239 3233.5,-239 3233.5,-220 3388.5,-220 3388.5,-239"/>
<text text-anchor="middle" x="3311" y="-227" font-family="Helvetica,sans-Serif" font-size="10.00">systems/PhysicsSystem.hpp</text>
</a>
</g>
</g>
<!-- Node1&#45;&gt;Node40 -->
<g id="edge71_Node000001_Node000040" class="edge">
<title>Node1&#45;&gt;Node40</title>
<g id="a_edge71_Node000001_Node000040"><a xlink:title=" ">
<path fill="none" stroke="#63b8ff" d="M2463.54,-291.11C2597.32,-283.36 2932.12,-263.18 3222.87,-239.16"/>
<polygon fill="#63b8ff" stroke="#63b8ff" points="3223.52,-242.61 3233.19,-238.3 3222.94,-235.64 3223.52,-242.61"/>
</a>
</g>
</g>
<!-- Node41 -->
<g id="Node000041" class="node">
<title>Node41</title>
<g id="a_Node000041"><a xlink:title=" ">
<polygon fill="#e0e0e0" stroke="#999999" points="3571,-239 3407,-239 3407,-220 3571,-220 3571,-239"/>
<text text-anchor="middle" x="3489" y="-227" font-family="Helvetica,sans-Serif" font-size="10.00">systems/ProjectileSystem.hpp</text>
</a>
</g>
</g>
<!-- Node1&#45;&gt;Node41 -->
<g id="edge72_Node000001_Node000041" class="edge">
<title>Node1&#45;&gt;Node41</title>
<g id="a_edge72_Node000001_Node000041"><a xlink:title=" ">
<path fill="none" stroke="#63b8ff" d="M2463.71,-291.95C2616.83,-285.23 3036.14,-265.77 3396.56,-239.08"/>
<polygon fill="#63b8ff" stroke="#63b8ff" points="3396.96,-242.56 3406.67,-238.33 3396.44,-235.58 3396.96,-242.56"/>
</a>
</g>
</g>
<!-- Node42 -->
<g id="Node000042" class="node">
<title>Node42</title>
<g id="a_Node000042"><a xlink:title=" ">
<polygon fill="#e0e0e0" stroke="#999999" points="3735,-239 3589,-239 3589,-220 3735,-220 3735,-239"/>
<text text-anchor="middle" x="3662" y="-227" font-family="Helvetica,sans-Serif" font-size="10.00">systems/WaveSystem.hpp</text>
</a>
</g>
</g>
<!-- Node1&#45;&gt;Node42 -->
<g id="edge73_Node000001_Node000042" class="edge">
<title>Node1&#45;&gt;Node42</title>
<g id="a_edge73_Node000001_Node000042"><a xlink:title=" ">
<path fill="none" stroke="#63b8ff" d="M2463.73,-292.87C2635.33,-287.92 3144.71,-271.46 3578.47,-239.07"/>
<polygon fill="#63b8ff" stroke="#63b8ff" points="3578.99,-242.54 3588.7,-238.3 3578.47,-235.56 3578.99,-242.54"/>
</a>
</g>
</g>
<!-- Node43 -->
<g id="Node000043" class="node">
<title>Node43</title>
<g id="a_Node000043"><a xlink:title=" ">
<polygon fill="#e0e0e0" stroke="#999999" points="3911,-239 3753,-239 3753,-220 3911,-220 3911,-239"/>
<text text-anchor="middle" x="3832" y="-227" font-family="Helvetica,sans-Serif" font-size="10.00">systems/WeaponSystem.hpp</text>
</a>
</g>
</g>
<!-- Node1&#45;&gt;Node43 -->
<g id="edge74_Node000001_Node000043" class="edge">
<title>Node1&#45;&gt;Node43</title>
<g id="a_edge74_Node000001_Node000043"><a xlink:title=" ">
<path fill="none" stroke="#63b8ff" d="M2463.5,-293.2C2650.26,-288.87 3241.65,-273.29 3742.53,-239.06"/>
<polygon fill="#63b8ff" stroke="#63b8ff" points="3743.13,-242.53 3752.86,-238.35 3742.65,-235.54 3743.13,-242.53"/>
</a>
</g>
</g>
<!-- Node3 -->
<g id="Node000003" class="node">
<title>Node3</title>
<g id="a_Node000003"><a xlink:title=" ">
<polygon fill="#e0e0e0" stroke="#999999" points="625,-19 575,-19 575,0 625,0 625,-19"/>
<text text-anchor="middle" x="600" y="-7" font-family="Helvetica,sans-Serif" font-size="10.00">chrono</text>
</a>
</g>
</g>
<!-- Node2&#45;&gt;Node3 -->
<g id="edge2_Node000002_Node000003" class="edge">
<title>Node2&#45;&gt;Node3</title>
<g id="a_edge2_Node000002_Node000003"><a xlink:title=" ">
<path fill="none" stroke="#63b8ff" d="M1250.27,-225.01C1074.69,-215.35 613.55,-185.25 472,-129 430.88,-112.66 409.94,-112.99 389,-74 385.01,-66.56 383.68,-61.56 389,-55 410.72,-28.22 510.44,-16.94 564.66,-12.72"/>
<polygon fill="#63b8ff" stroke="#63b8ff" points="565.14,-16.19 574.86,-11.96 564.63,-9.21 565.14,-16.19"/>
</a>
</g>
</g>
<!-- Node2&#45;&gt;Node4 -->
<g id="edge3_Node000002_Node000004" class="edge">
<title>Node2&#45;&gt;Node4</title>
<g id="a_edge3_Node000002_Node000004"><a xlink:title=" ">
<path fill="none" stroke="#63b8ff" d="M1387.52,-225.18C1440.1,-220.6 1513.53,-209.74 1573,-184 1631.75,-158.57 1688.84,-107.21 1715.44,-81.26"/>
<polygon fill="#63b8ff" stroke="#63b8ff" points="1718.05,-83.61 1722.69,-74.08 1713.12,-78.64 1718.05,-83.61"/>
</a>
</g>
</g>
<!-- Node5 -->
<g id="Node000005" class="node">
<title>Node5</title>
<g id="a_Node000005"><a xlink:title=" ">
<polygon fill="#e0e0e0" stroke="#999999" points="666,-74 618,-74 618,-55 666,-55 666,-74"/>
<text text-anchor="middle" x="642" y="-62" font-family="Helvetica,sans-Serif" font-size="10.00">mutex</text>
</a>
</g>
</g>
<!-- Node2&#45;&gt;Node5 -->
<g id="edge4_Node000002_Node000005" class="edge">
<title>Node2&#45;&gt;Node5</title>
<g id="a_edge4_Node000002_Node000005"><a xlink:title=" ">
<path fill="none" stroke="#63b8ff" d="M1250.41,-224.82C1167.16,-219.52 1022.79,-207.65 901,-184 813.44,-166.99 785.32,-173.46 708,-129 687,-116.92 667.61,-96.73 655.36,-82.35"/>
<polygon fill="#63b8ff" stroke="#63b8ff" points="657.77,-79.77 648.71,-74.28 652.37,-84.22 657.77,-79.77"/>
</a>
</g>
</g>
<!-- Node2&#45;&gt;Node6 -->
<g id="edge5_Node000002_Node000006" class="edge">
<title>Node2&#45;&gt;Node6</title>
<g id="a_edge5_Node000002_Node000006"><a xlink:title=" ">
<path fill="none" stroke="#63b8ff" d="M1317.61,-219.69C1316.02,-206.85 1314.73,-182.61 1324,-165 1330.64,-152.39 1342.55,-142.07 1353.6,-134.56"/>
<polygon fill="#63b8ff" stroke="#63b8ff" points="1355.58,-137.45 1362.15,-129.14 1351.83,-131.53 1355.58,-137.45"/>
</a>
</g>
</g>
<!-- Node7 -->
<g id="Node000007" class="node">
<title>Node7</title>
<g id="a_Node000007"><a xlink:title=" ">
<polygon fill="#e0e0e0" stroke="#999999" points="1337,-129 1289,-129 1289,-110 1337,-110 1337,-129"/>
<text text-anchor="middle" x="1313" y="-117" font-family="Helvetica,sans-Serif" font-size="10.00">thread</text>
</a>
</g>
</g>
<!-- Node2&#45;&gt;Node7 -->
<g id="edge6_Node000002_Node000007" class="edge">
<title>Node2&#45;&gt;Node7</title>
<g id="a_edge6_Node000002_Node000007"><a xlink:title=" ">
<path fill="none" stroke="#63b8ff" d="M1309.98,-219.96C1301.93,-211.66 1290.71,-198.25 1286,-184 1280.68,-167.89 1289.51,-150.17 1298.46,-137.55"/>
<polygon fill="#63b8ff" stroke="#63b8ff" points="1301.45,-139.41 1304.8,-129.36 1295.91,-135.13 1301.45,-139.41"/>
</a>
</g>
</g>
<!-- Node8 -->
<g id="Node000008" class="node">
<title>Node8</title>
<g id="a_Node000008"><a xlink:title=" ">
<polygon fill="#e0e0e0" stroke="#999999" points="1407.5,-184 1366.5,-184 1366.5,-165 1407.5,-165 1407.5,-184"/>
<text text-anchor="middle" x="1387" y="-172" font-family="Helvetica,sans-Serif" font-size="10.00">tuple</text>
</a>
</g>
</g>
<!-- Node2&#45;&gt;Node8 -->
<g id="edge7_Node000002_Node000008" class="edge">
<title>Node2&#45;&gt;Node8</title>
<g id="a_edge7_Node000002_Node000008"><a xlink:title=" ">
<path fill="none" stroke="#63b8ff" d="M1329.93,-219.98C1340.08,-212.07 1355.42,-200.11 1367.65,-190.58"/>
<polygon fill="#63b8ff" stroke="#63b8ff" points="1370.14,-193.08 1375.88,-184.17 1365.84,-187.56 1370.14,-193.08"/>
</a>
</g>
</g>
<!-- Node2&#45;&gt;Node9 -->
<g id="edge8_Node000002_Node000009" class="edge">
<title>Node2&#45;&gt;Node9</title>
<g id="a_edge8_Node000002_Node000009"><a xlink:title=" ">
<path fill="none" stroke="#63b8ff" d="M1250.21,-227.17C1010.61,-221.95 222.61,-199.52 136,-129 109.75,-107.63 103.99,-85.81 118,-55 123.62,-42.63 134.57,-32.36 144.89,-24.81"/>
<polygon fill="#63b8ff" stroke="#63b8ff" points="146.96,-27.63 153.27,-19.12 143.03,-21.84 146.96,-27.63"/>
</a>
</g>
</g>
<!-- Node2&#45;&gt;Node10 -->
<g id="edge9_Node000002_Node000010" class="edge">
<title>Node2&#45;&gt;Node10</title>
<g id="a_edge9_Node000002_Node000010"><a xlink:title=" ">
<path fill="none" stroke="#63b8ff" d="M1375.07,-219.98C1439.45,-210.21 1544.56,-194.25 1609.81,-184.34"/>
<polygon fill="#63b8ff" stroke="#63b8ff" points="1610.57,-187.76 1619.93,-182.8 1609.52,-180.84 1610.57,-187.76"/>
</a>
</g>
</g>
<!-- Node11 -->
<g id="Node000011" class="node">
<title>Node11</title>
<g id="a_Node000011"><a xlink:title=" ">
<polygon fill="#e0e0e0" stroke="#999999" points="1683,-74 1543,-74 1543,-55 1683,-55 1683,-74"/>
<text text-anchor="middle" x="1613" y="-62" font-family="Helvetica,sans-Serif" font-size="10.00">network/DecodeFunc.hpp</text>
</a>
</g>
</g>
<!-- Node2&#45;&gt;Node11 -->
<g id="edge10_Node000002_Node000011" class="edge">
<title>Node2&#45;&gt;Node11</title>
<g id="a_edge10_Node000002_Node000011"><a xlink:title=" ">
<path fill="none" stroke="#63b8ff" d="M1322.04,-219.88C1327.21,-206.38 1338.94,-180.25 1357,-165 1391,-136.3 1511.46,-96.57 1574.27,-77.14"/>
<polygon fill="#63b8ff" stroke="#63b8ff" points="1575.66,-80.37 1584.19,-74.09 1573.61,-73.68 1575.66,-80.37"/>
</a>
</g>
</g>
<!-- Node12 -->
<g id="Node000012" class="node">
<title>Node12</title>
<g id="a_Node000012"><a xlink:title=" ">
<polygon fill="#e0e0e0" stroke="#999999" points="1564,-184 1426,-184 1426,-165 1564,-165 1564,-184"/>
<text text-anchor="middle" x="1495" y="-172" font-family="Helvetica,sans-Serif" font-size="10.00">network/EncodeFunc.hpp</text>
</a>
</g>
</g>
<!-- Node2&#45;&gt;Node12 -->
<g id="edge11_Node000002_Node000012" class="edge">
<title>Node2&#45;&gt;Node12</title>
<g id="a_edge11_Node000002_Node000012"><a xlink:title=" ">
<path fill="none" stroke="#63b8ff" d="M1347.28,-219.98C1376.95,-211.05 1423.79,-196.94 1456.75,-187.02"/>
<polygon fill="#63b8ff" stroke="#63b8ff" points="1457.93,-190.32 1466.5,-184.08 1455.92,-183.61 1457.93,-190.32"/>
</a>
</g>
</g>
<!-- Node13 -->
<g id="Node000013" class="node">
<title>Node13</title>
<g id="a_Node000013"><a xlink:href="ServerNetworkManager_8hpp.html" target="_top" xlink:title=" ">
<polygon fill="white" stroke="#666666" points="1105.5,-184 910.5,-184 910.5,-165 1105.5,-165 1105.5,-184"/>
<text text-anchor="middle" x="1008" y="-172" font-family="Helvetica,sans-Serif" font-size="10.00">network/ServerNetworkManager.hpp</text>
</a>
</g>
</g>
<!-- Node2&#45;&gt;Node13 -->
<g id="edge12_Node000002_Node000013" class="edge">
<title>Node2&#45;&gt;Node13</title>
<g id="a_edge12_Node000002_Node000013"><a xlink:title=" ">
<path fill="none" stroke="#63b8ff" d="M1269.03,-219.98C1214.36,-210.67 1126.75,-195.74 1068.3,-185.78"/>
<polygon fill="#63b8ff" stroke="#63b8ff" points="1068.55,-182.27 1058.1,-184.04 1067.37,-189.17 1068.55,-182.27"/>
</a>
</g>
</g>
<!-- Node13&#45;&gt;Node4 -->
<g id="edge13_Node000013_Node000004" class="edge">
<title>Node13&#45;&gt;Node4</title>
<g id="a_edge13_Node000013_Node000004"><a xlink:title=" ">
<path fill="none" stroke="#63b8ff" d="M1072.13,-164.98C1118.58,-157.86 1182.51,-146.09 1237,-129 1256.94,-122.75 1259.76,-115.2 1280,-110 1454.89,-65.04 1508.4,-100.34 1690.91,-73.95"/>
<polygon fill="#63b8ff" stroke="#63b8ff" points="1691.46,-77.41 1700.84,-72.47 1690.43,-70.48 1691.46,-77.41"/>
</a>
</g>
</g>
<!-- Node13&#45;&gt;Node5 -->
<g id="edge15_Node000013_Node000005" class="edge">
<title>Node13&#45;&gt;Node5</title>
<g id="a_edge15_Node000013_Node000005"><a xlink:title=" ">
<path fill="none" stroke="#63b8ff" d="M913.93,-164.98C864.9,-158.58 804.57,-147.6 753,-129 719.01,-116.74 683.38,-94.4 661.92,-79.76"/>
<polygon fill="#63b8ff" stroke="#63b8ff" points="663.86,-76.84 653.65,-74 659.86,-82.59 663.86,-76.84"/>
</a>
</g>
</g>
<!-- Node13&#45;&gt;Node6 -->
<g id="edge16_Node000013_Node000006" class="edge">
<title>Node13&#45;&gt;Node6</title>
<g id="a_edge16_Node000013_Node000006"><a xlink:title=" ">
<path fill="none" stroke="#63b8ff" d="M1094.95,-164.98C1161.09,-157.83 1254.47,-146.27 1345.36,-128.9"/>
<polygon fill="#63b8ff" stroke="#63b8ff" points="1346.13,-132.31 1355.29,-126.97 1344.8,-125.44 1346.13,-132.31"/>
</a>
</g>
</g>
<!-- Node13&#45;&gt;Node7 -->
<g id="edge18_Node000013_Node000007" class="edge">
<title>Node13&#45;&gt;Node7</title>
<g id="a_edge18_Node000013_Node000007"><a xlink:title=" ">
<path fill="none" stroke="#63b8ff" d="M1064.68,-164.98C1118.84,-156.62 1202.7,-143.1 1275,-129 1276.27,-128.75 1277.56,-128.49 1278.86,-128.23"/>
<polygon fill="#63b8ff" stroke="#63b8ff" points="1279.86,-131.6 1288.92,-126.1 1278.41,-124.75 1279.86,-131.6"/>
</a>
</g>
</g>
<!-- Node13&#45;&gt;Node9 -->
<g id="edge19_Node000013_Node000009" class="edge">
<title>Node13&#45;&gt;Node9</title>
<g id="a_edge19_Node000013_Node000009"><a xlink:title=" ">
<path fill="none" stroke="#63b8ff" d="M910.49,-173.03C702.7,-171.35 229.96,-163.73 166,-129 133.14,-111.16 111.99,-89.66 126,-55 130.69,-43.41 140,-33.16 148.76,-25.43"/>
<polygon fill="#63b8ff" stroke="#63b8ff" points="151,-28.12 156.51,-19.07 146.56,-22.71 151,-28.12"/>
</a>
</g>
</g>
<!-- Node14 -->
<g id="Node000014" class="node">
<title>Node14</title>
<g id="a_Node000014"><a xlink:title=" ">
<polygon fill="#e0e0e0" stroke="#999999" points="742,-74 684,-74 684,-55 742,-55 742,-74"/>
<text text-anchor="middle" x="713" y="-62" font-family="Helvetica,sans-Serif" font-size="10.00">memory</text>
</a>
</g>
</g>
<!-- Node13&#45;&gt;Node14 -->
<g id="edge14_Node000013_Node000014" class="edge">
<title>Node13&#45;&gt;Node14</title>
<g id="a_edge14_Node000013_Node000014"><a xlink:title=" ">
<path fill="none" stroke="#63b8ff" d="M910.28,-165.27C869.92,-159.05 823.65,-148.14 785,-129 761.78,-117.5 740.2,-96.54 726.84,-81.86"/>
<polygon fill="#63b8ff" stroke="#63b8ff" points="729.21,-79.25 719.97,-74.06 723.96,-83.88 729.21,-79.25"/>
</a>
</g>
</g>
<!-- Node15 -->
<g id="Node000015" class="node">
<title>Node15</title>
<g id="a_Node000015"><a xlink:title=" ">
<polygon fill="#e0e0e0" stroke="#999999" points="1283,-19 1239,-19 1239,0 1283,0 1283,-19"/>
<text text-anchor="middle" x="1261" y="-7" font-family="Helvetica,sans-Serif" font-size="10.00">string</text>
</a>
</g>
</g>
<!-- Node13&#45;&gt;Node15 -->
<g id="edge17_Node000013_Node000015" class="edge">
<title>Node13&#45;&gt;Node15</title>
<g id="a_edge17_Node000013_Node000015"><a xlink:title=" ">
<path fill="none" stroke="#63b8ff" d="M1064.73,-164.96C1104.33,-157.95 1157.95,-146.32 1203,-129 1219.16,-122.79 1220.62,-115.6 1237,-110 1287.82,-92.62 1440.96,-114.71 1476,-74 1527.08,-14.66 1365.11,-9.37 1293.39,-9.82"/>
<polygon fill="#63b8ff" stroke="#63b8ff" points="1293.06,-6.33 1283.1,-9.93 1293.14,-13.33 1293.06,-6.33"/>
</a>
</g>
</g>
<!-- Node16 -->
<g id="Node000016" class="node">
<title>Node16</title>
<g id="a_Node000016"><a xlink:title=" ">
<polygon fill="#e0e0e0" stroke="#999999" points="1005,-19 947,-19 947,0 1005,0 1005,-19"/>
<text text-anchor="middle" x="976" y="-7" font-family="Helvetica,sans-Serif" font-size="10.00">asio.hpp</text>
</a>
</g>
</g>
<!-- Node13&#45;&gt;Node16 -->
<g id="edge20_Node000013_Node000016" class="edge">
<title>Node13&#45;&gt;Node16</title>
<g id="a_edge20_Node000013_Node000016"><a xlink:title=" ">
<path fill="none" stroke="#63b8ff" d="M1006.28,-164.74C1001.27,-139.2 986.59,-64.43 979.68,-29.23"/>
<polygon fill="#63b8ff" stroke="#63b8ff" points="983.09,-28.45 977.73,-19.31 976.22,-29.79 983.09,-28.45"/>
</a>
</g>
</g>
<!-- Node17 -->
<g id="Node000017" class="node">
<title>Node17</title>
<g id="a_Node000017"><a xlink:href="ClientManager_8hpp.html" target="_top" xlink:title=" ">
<polygon fill="white" stroke="#666666" points="945.5,-129 794.5,-129 794.5,-110 945.5,-110 945.5,-129"/>
<text text-anchor="middle" x="870" y="-117" font-family="Helvetica,sans-Serif" font-size="10.00">network/ClientManager.hpp</text>
</a>
</g>
</g>
<!-- Node13&#45;&gt;Node17 -->
<g id="edge21_Node000013_Node000017" class="edge">
<title>Node13&#45;&gt;Node17</title>
<g id="a_edge21_Node000013_Node000017"><a xlink:title=" ">
<path fill="none" stroke="#63b8ff" d="M985.83,-164.98C963.23,-156.3 927.94,-142.75 902.25,-132.88"/>
<polygon fill="#63b8ff" stroke="#63b8ff" points="903.17,-129.49 892.58,-129.17 900.66,-136.02 903.17,-129.49"/>
</a>
</g>
</g>
<!-- Node22 -->
<g id="Node000022" class="node">
<title>Node22</title>
<g id="a_Node000022"><a xlink:href="INetworkManager_8hpp.html" target="_top" xlink:title=" ">
<polygon fill="white" stroke="#666666" points="342.5,-129 175.5,-129 175.5,-110 342.5,-110 342.5,-129"/>
<text text-anchor="middle" x="259" y="-117" font-family="Helvetica,sans-Serif" font-size="10.00">network/INetworkManager.hpp</text>
</a>
</g>
</g>
<!-- Node13&#45;&gt;Node22 -->
<g id="edge33_Node000013_Node000022" class="edge">
<title>Node13&#45;&gt;Node22</title>
<g id="a_edge33_Node000013_Node000022"><a xlink:title=" ">
<path fill="none" stroke="#63b8ff" d="M910.47,-166.6C765.57,-156.35 495.28,-137.22 352.66,-127.13"/>
<polygon fill="#63b8ff" stroke="#63b8ff" points="352.84,-123.63 342.62,-126.42 352.34,-130.61 352.84,-123.63"/>
</a>
</g>
</g>
<!-- Node25 -->
<g id="Node000025" class="node">
<title>Node25</title>
<g id="a_Node000025"><a xlink:href="TCPServer_8hpp.html" target="_top" xlink:title=" ">
<polygon fill="white" stroke="#666666" points="1194.5,-129 1065.5,-129 1065.5,-110 1194.5,-110 1194.5,-129"/>
<text text-anchor="middle" x="1130" y="-117" font-family="Helvetica,sans-Serif" font-size="10.00">network/TCPServer.hpp</text>
</a>
</g>
</g>
<!-- Node13&#45;&gt;Node25 -->
<g id="edge40_Node000013_Node000025" class="edge">
<title>Node13&#45;&gt;Node25</title>
<g id="a_edge40_Node000013_Node000025"><a xlink:title=" ">
<path fill="none" stroke="#63b8ff" d="M1027.6,-164.98C1047.32,-156.42 1077.95,-143.11 1100.58,-133.28"/>
<polygon fill="#63b8ff" stroke="#63b8ff" points="1102.26,-136.37 1110.04,-129.17 1099.48,-129.94 1102.26,-136.37"/>
</a>
</g>
</g>
<!-- Node28 -->
<g id="Node000028" class="node">
<title>Node28</title>
<g id="a_Node000028"><a xlink:href="UDPServer_8hpp.html" target="_top" xlink:title=" ">
<polygon fill="white" stroke="#666666" points="613,-129 481,-129 481,-110 613,-110 613,-129"/>
<text text-anchor="middle" x="547" y="-117" font-family="Helvetica,sans-Serif" font-size="10.00">network/UDPServer.hpp</text>
</a>
</g>
</g>
<!-- Node13&#45;&gt;Node28 -->
<g id="edge51_Node000013_Node000028" class="edge">
<title>Node13&#45;&gt;Node28</title>
<g id="a_edge51_Node000013_Node000028"><a xlink:title=" ">
<path fill="none" stroke="#63b8ff" d="M933.93,-164.98C848.61,-155.18 709.14,-139.14 623.01,-129.24"/>
<polygon fill="#63b8ff" stroke="#63b8ff" points="623.37,-125.76 613.04,-128.09 622.57,-132.71 623.37,-125.76"/>
</a>
</g>
</g>
<!-- Node17&#45;&gt;Node5 -->
<g id="edge23_Node000017_Node000005" class="edge">
<title>Node17&#45;&gt;Node5</title>
<g id="a_edge23_Node000017_Node000005"><a xlink:title=" ">
<path fill="none" stroke="#63b8ff" d="M831.08,-109.95C793.74,-101.68 735.54,-88.58 676.07,-74.21"/>
<polygon fill="#63b8ff" stroke="#63b8ff" points="676.67,-70.75 666.13,-71.8 675.02,-77.56 676.67,-70.75"/>
</a>
</g>
</g>
<!-- Node17&#45;&gt;Node9 -->
<g id="edge26_Node000017_Node000009" class="edge">
<title>Node17&#45;&gt;Node9</title>
<g id="a_edge26_Node000017_Node000009"><a xlink:title=" ">
<path fill="none" stroke="#63b8ff" d="M854.36,-109.93C823.34,-92.97 756.51,-56.6 751,-55 724.55,-47.3 323.17,-20.58 202.84,-12.7"/>
<polygon fill="#63b8ff" stroke="#63b8ff" points="202.94,-9.2 192.73,-12.04 202.48,-16.19 202.94,-9.2"/>
</a>
</g>
</g>
<!-- Node17&#45;&gt;Node14 -->
<g id="edge22_Node000017_Node000014" class="edge">
<title>Node17&#45;&gt;Node14</title>
<g id="a_edge22_Node000017_Node000014"><a xlink:title=" ">
<path fill="none" stroke="#63b8ff" d="M844.78,-109.98C818.64,-101.16 777.6,-87.31 748.27,-77.41"/>
<polygon fill="#63b8ff" stroke="#63b8ff" points="749.02,-73.96 738.42,-74.08 746.78,-80.6 749.02,-73.96"/>
</a>
</g>
</g>
<!-- Node17&#45;&gt;Node15 -->
<g id="edge24_Node000017_Node000015" class="edge">
<title>Node17&#45;&gt;Node15</title>
<g id="a_edge24_Node000017_Node000015"><a xlink:title=" ">
<path fill="none" stroke="#63b8ff" d="M887.96,-109.88C916.7,-96.39 975.1,-70.27 1027,-55 1097.52,-34.25 1182.92,-20.86 1228.54,-14.62"/>
<polygon fill="#63b8ff" stroke="#63b8ff" points="1229.27,-18.05 1238.72,-13.25 1228.34,-11.11 1229.27,-18.05"/>
</a>
</g>
</g>
<!-- Node18 -->
<g id="Node000018" class="node">
<title>Node18</title>
<g id="a_Node000018"><a xlink:title=" ">
<polygon fill="#e0e0e0" stroke="#999999" points="1129.5,-74 1036.5,-74 1036.5,-55 1129.5,-55 1129.5,-74"/>
<text text-anchor="middle" x="1083" y="-62" font-family="Helvetica,sans-Serif" font-size="10.00">unordered_map</text>
</a>
</g>
</g>
<!-- Node17&#45;&gt;Node18 -->
<g id="edge25_Node000017_Node000018" class="edge">
<title>Node17&#45;&gt;Node18</title>
<g id="a_edge25_Node000017_Node000018"><a xlink:title=" ">
<path fill="none" stroke="#63b8ff" d="M904.22,-109.98C940.76,-100.89 998.78,-86.46 1038.76,-76.51"/>
<polygon fill="#63b8ff" stroke="#63b8ff" points="1039.65,-79.89 1048.51,-74.08 1037.96,-73.1 1039.65,-79.89"/>
</a>
</g>
</g>
<!-- Node19 -->
<g id="Node000019" class="node">
<title>Node19</title>
<g id="a_Node000019"><a xlink:href="HandleClient_8hpp.html" target="_top" xlink:title=" ">
<polygon fill="white" stroke="#666666" points="941.5,-74 798.5,-74 798.5,-55 941.5,-55 941.5,-74"/>
<text text-anchor="middle" x="870" y="-62" font-family="Helvetica,sans-Serif" font-size="10.00">network/HandleClient.hpp</text>
</a>
</g>
</g>
<!-- Node17&#45;&gt;Node19 -->
<g id="edge27_Node000017_Node000019" class="edge">
<title>Node17&#45;&gt;Node19</title>
<g id="a_edge27_Node000017_Node000019"><a xlink:title=" ">
<path fill="none" stroke="#63b8ff" d="M870,-109.75C870,-102.8 870,-92.85 870,-84.13"/>
<polygon fill="#63b8ff" stroke="#63b8ff" points="873.5,-84.09 870,-74.09 866.5,-84.09 873.5,-84.09"/>
</a>
</g>
</g>
<!-- Node19&#45;&gt;Node3 -->
<g id="edge28_Node000019_Node000003" class="edge">
<title>Node19&#45;&gt;Node3</title>
<g id="a_edge28_Node000019_Node000003"><a xlink:title=" ">
<path fill="none" stroke="#63b8ff" d="M826.62,-54.98C773.32,-44.52 683.94,-26.98 634.87,-17.34"/>
<polygon fill="#63b8ff" stroke="#63b8ff" points="635.52,-13.91 625.04,-15.41 634.17,-20.78 635.52,-13.91"/>
</a>
</g>
</g>
<!-- Node19&#45;&gt;Node15 -->
<g id="edge31_Node000019_Node000015" class="edge">
<title>Node19&#45;&gt;Node15</title>
<g id="a_edge31_Node000019_Node000015"><a xlink:title=" ">
<path fill="none" stroke="#63b8ff" d="M932.82,-54.98C1017.27,-43.54 1164.27,-23.61 1228.93,-14.85"/>
<polygon fill="#63b8ff" stroke="#63b8ff" points="1229.5,-18.3 1238.94,-13.49 1228.56,-11.37 1229.5,-18.3"/>
</a>
</g>
</g>
<!-- Node19&#45;&gt;Node16 -->
<g id="edge32_Node000019_Node000016" class="edge">
<title>Node19&#45;&gt;Node16</title>
<g id="a_edge32_Node000019_Node000016"><a xlink:title=" ">
<path fill="none" stroke="#63b8ff" d="M887.03,-54.98C903.93,-46.54 930.06,-33.47 949.64,-23.68"/>
<polygon fill="#63b8ff" stroke="#63b8ff" points="951.28,-26.77 958.66,-19.17 948.15,-20.51 951.28,-26.77"/>
</a>
</g>
</g>
<!-- Node20 -->
<g id="Node000020" class="node">
<title>Node20</title>
<g id="a_Node000020"><a xlink:title=" ">
<polygon fill="#e0e0e0" stroke="#999999" points="357,-19 307,-19 307,0 357,0 357,-19"/>
<text text-anchor="middle" x="332" y="-7" font-family="Helvetica,sans-Serif" font-size="10.00">cstdint</text>
</a>
</g>
</g>
<!-- Node19&#45;&gt;Node20 -->
<g id="edge29_Node000019_Node000020" class="edge">
<title>Node19&#45;&gt;Node20</title>
<g id="a_edge29_Node000019_Node000020"><a xlink:title=" ">
<path fill="none" stroke="#63b8ff" d="M798.2,-56.4C793.4,-55.93 788.63,-55.46 784,-55 628.86,-39.7 443.77,-21.49 367.51,-13.99"/>
<polygon fill="#63b8ff" stroke="#63b8ff" points="367.78,-10.5 357.49,-13.01 367.1,-17.47 367.78,-10.5"/>
</a>
</g>
</g>
<!-- Node21 -->
<g id="Node000021" class="node">
<title>Node21</title>
<g id="a_Node000021"><a xlink:title=" ">
<polygon fill="#e0e0e0" stroke="#999999" points="898,-19 842,-19 842,0 898,0 898,-19"/>
<text text-anchor="middle" x="870" y="-7" font-family="Helvetica,sans-Serif" font-size="10.00">optional</text>
</a>
</g>
</g>
<!-- Node19&#45;&gt;Node21 -->
<g id="edge30_Node000019_Node000021" class="edge">
<title>Node19&#45;&gt;Node21</title>
<g id="a_edge30_Node000019_Node000021"><a xlink:title=" ">
<path fill="none" stroke="#63b8ff" d="M870,-54.75C870,-47.8 870,-37.85 870,-29.13"/>
<polygon fill="#63b8ff" stroke="#63b8ff" points="873.5,-29.09 870,-19.09 866.5,-29.09 873.5,-29.09"/>
</a>
</g>
</g>
<!-- Node22&#45;&gt;Node9 -->
<g id="edge36_Node000022_Node000009" class="edge">
<title>Node22&#45;&gt;Node9</title>
<g id="a_edge36_Node000022_Node000009"><a xlink:title=" ">
<path fill="none" stroke="#63b8ff" d="M189.92,-109.97C168.11,-103.65 146.26,-92.75 133,-74 121.99,-58.43 136.36,-39.23 150.08,-26.04"/>
<polygon fill="#63b8ff" stroke="#63b8ff" points="152.77,-28.32 157.88,-19.04 148.1,-23.11 152.77,-28.32"/>
</a>
</g>
</g>
<!-- Node22&#45;&gt;Node20 -->
<g id="edge34_Node000022_Node000020" class="edge">
<title>Node22&#45;&gt;Node20</title>
<g id="a_edge34_Node000022_Node000020"><a xlink:title=" ">
<path fill="none" stroke="#63b8ff" d="M273.11,-109.95C285.08,-102.03 301.86,-89.19 312,-74 321.03,-60.48 326.17,-42.65 328.97,-29.33"/>
<polygon fill="#63b8ff" stroke="#63b8ff" points="332.44,-29.86 330.81,-19.39 325.55,-28.59 332.44,-29.86"/>
</a>
</g>
</g>
<!-- Node23 -->
<g id="Node000023" class="node">
<title>Node23</title>
<g id="a_Node000023"><a xlink:title=" ">
<polygon fill="#e0e0e0" stroke="#999999" points="463.5,-74 398.5,-74 398.5,-55 463.5,-55 463.5,-74"/>
<text text-anchor="middle" x="431" y="-62" font-family="Helvetica,sans-Serif" font-size="10.00">functional</text>
</a>
</g>
</g>
<!-- Node22&#45;&gt;Node23 -->
<g id="edge35_Node000022_Node000023" class="edge">
<title>Node22&#45;&gt;Node23</title>
<g id="a_edge35_Node000022_Node000023"><a xlink:title=" ">
<path fill="none" stroke="#63b8ff" d="M286.63,-109.98C315.51,-101.09 361.01,-87.07 393.2,-77.15"/>
<polygon fill="#63b8ff" stroke="#63b8ff" points="394.62,-80.37 403.15,-74.08 392.56,-73.68 394.62,-80.37"/>
</a>
</g>
</g>
<!-- Node24 -->
<g id="Node000024" class="node">
<title>Node24</title>
<g id="a_Node000024"><a xlink:href="include_2NetworkMessage_8hpp.html" target="_top" xlink:title=" ">
<polygon fill="white" stroke="#666666" points="303.5,-74 142.5,-74 142.5,-55 303.5,-55 303.5,-74"/>
<text text-anchor="middle" x="223" y="-62" font-family="Helvetica,sans-Serif" font-size="10.00">include/NetworkMessage.hpp</text>
</a>
</g>
</g>
<!-- Node22&#45;&gt;Node24 -->
<g id="edge37_Node000022_Node000024" class="edge">
<title>Node22&#45;&gt;Node24</title>
<g id="a_edge37_Node000022_Node000024"><a xlink:title=" ">
<path fill="none" stroke="#63b8ff" d="M253.06,-109.75C248.02,-102.34 240.66,-91.5 234.49,-82.41"/>
<polygon fill="#63b8ff" stroke="#63b8ff" points="237.35,-80.39 228.83,-74.09 231.56,-84.33 237.35,-80.39"/>
</a>
</g>
</g>
<!-- Node24&#45;&gt;Node9 -->
<g id="edge39_Node000024_Node000009" class="edge">
<title>Node24&#45;&gt;Node9</title>
<g id="a_edge39_Node000024_Node000009"><a xlink:title=" ">
<path fill="none" stroke="#63b8ff" d="M214.08,-54.75C206.22,-47.03 194.57,-35.6 185.08,-26.28"/>
<polygon fill="#63b8ff" stroke="#63b8ff" points="187.34,-23.6 177.75,-19.09 182.44,-28.59 187.34,-23.6"/>
</a>
</g>
</g>
<!-- Node24&#45;&gt;Node20 -->
<g id="edge38_Node000024_Node000020" class="edge">
<title>Node24&#45;&gt;Node20</title>
<g id="a_edge38_Node000024_Node000020"><a xlink:title=" ">
<path fill="none" stroke="#63b8ff" d="M240.51,-54.98C257.97,-46.5 285.01,-33.35 305.17,-23.54"/>
<polygon fill="#63b8ff" stroke="#63b8ff" points="306.71,-26.69 314.17,-19.17 303.64,-20.4 306.71,-26.69"/>
</a>
</g>
</g>
<!-- Node25&#45;&gt;Node4 -->
<g id="edge43_Node000025_Node000004" class="edge">
<title>Node25&#45;&gt;Node4</title>
<g id="a_edge43_Node000025_Node000004"><a xlink:title=" ">
<path fill="none" stroke="#63b8ff" d="M1194.64,-113.62C1327.97,-103.52 1625.91,-80.78 1690.86,-73.72"/>
<polygon fill="#63b8ff" stroke="#63b8ff" points="1691.34,-77.19 1700.84,-72.5 1690.49,-70.24 1691.34,-77.19"/>
</a>
</g>
</g>
<!-- Node25&#45;&gt;Node9 -->
<g id="edge47_Node000025_Node000009" class="edge">
<title>Node25&#45;&gt;Node9</title>
<g id="a_edge47_Node000025_Node000009"><a xlink:title=" ">
<path fill="none" stroke="#63b8ff" d="M1134.9,-109.76C1141.82,-96.11 1152.14,-69.76 1138,-55 1105.69,-21.27 344.64,-21.54 298,-19 265.7,-17.24 228.87,-14.77 202.86,-12.94"/>
<polygon fill="#63b8ff" stroke="#63b8ff" points="202.99,-9.44 192.77,-12.23 202.49,-16.43 202.99,-9.44"/>
</a>
</g>
</g>
<!-- Node25&#45;&gt;Node11 -->
<g id="edge50_Node000025_Node000011" class="edge">
<title>Node25&#45;&gt;Node11</title>
<g id="a_edge50_Node000025_Node000011"><a xlink:title=" ">
<path fill="none" stroke="#63b8ff" d="M1194.64,-111.41C1282.07,-101.81 1437.95,-84.71 1532.76,-74.3"/>
<polygon fill="#63b8ff" stroke="#63b8ff" points="1533.32,-77.76 1542.88,-73.19 1532.55,-70.81 1533.32,-77.76"/>
</a>
</g>
</g>
<!-- Node25&#45;&gt;Node14 -->
<g id="edge44_Node000025_Node000014" class="edge">
<title>Node25&#45;&gt;Node14</title>
<g id="a_edge44_Node000025_Node000014"><a xlink:title=" ">
<path fill="none" stroke="#63b8ff" d="M1065.3,-110.28C977.65,-99.14 823.89,-79.59 752.05,-70.46"/>
<polygon fill="#63b8ff" stroke="#63b8ff" points="752.42,-66.98 742.06,-69.19 751.54,-73.93 752.42,-66.98"/>
</a>
</g>
</g>
<!-- Node25&#45;&gt;Node15 -->
<g id="edge45_Node000025_Node000015" class="edge">
<title>Node25&#45;&gt;Node15</title>
<g id="a_edge45_Node000025_Node000015"><a xlink:title=" ">
<path fill="none" stroke="#63b8ff" d="M1194.71,-110.77C1288.8,-99.39 1452.71,-78.92 1457,-74 1503.67,-20.55 1360.3,-11.81 1293.4,-10.58"/>
<polygon fill="#63b8ff" stroke="#63b8ff" points="1293.41,-7.08 1283.37,-10.44 1293.32,-14.08 1293.41,-7.08"/>
</a>
</g>
</g>
<!-- Node25&#45;&gt;Node16 -->
<g id="edge48_Node000025_Node000016" class="edge">
<title>Node25&#45;&gt;Node16</title>
<g id="a_edge48_Node000025_Node000016"><a xlink:title=" ">
<path fill="none" stroke="#63b8ff" d="M1142.83,-109.95C1160.05,-97.43 1186.84,-73.59 1172,-55 1152.75,-30.89 1066.59,-18.86 1015.13,-13.72"/>
<polygon fill="#63b8ff" stroke="#63b8ff" points="1015.31,-10.22 1005.02,-12.75 1014.64,-17.19 1015.31,-10.22"/>
</a>
</g>
</g>
<!-- Node25&#45;&gt;Node18 -->
<g id="edge46_Node000025_Node000018" class="edge">
<title>Node25&#45;&gt;Node18</title>
<g id="a_edge46_Node000025_Node000018"><a xlink:title=" ">
<path fill="none" stroke="#63b8ff" d="M1122.24,-109.75C1115.53,-102.18 1105.66,-91.05 1097.49,-81.84"/>
<polygon fill="#63b8ff" stroke="#63b8ff" points="1099.87,-79.25 1090.62,-74.09 1094.63,-83.89 1099.87,-79.25"/>
</a>
</g>
</g>
<!-- Node25&#45;&gt;Node23 -->
<g id="edge42_Node000025_Node000023" class="edge">
<title>Node25&#45;&gt;Node23</title>
<g id="a_edge42_Node000025_Node000023"><a xlink:title=" ">
<path fill="none" stroke="#63b8ff" d="M1065.33,-114.58C952.65,-107.58 713.03,-91.99 511,-74 498.95,-72.93 485.89,-71.61 473.89,-70.33"/>
<polygon fill="#63b8ff" stroke="#63b8ff" points="473.99,-66.82 463.67,-69.23 473.24,-73.78 473.99,-66.82"/>
</a>
</g>
</g>
<!-- Node26 -->
<g id="Node000026" class="node">
<title>Node26</title>
<g id="a_Node000026"><a xlink:title=" ">
<polygon fill="#e0e0e0" stroke="#999999" points="1293.5,-74 1224.5,-74 1224.5,-55 1293.5,-55 1293.5,-74"/>
<text text-anchor="middle" x="1259" y="-62" font-family="Helvetica,sans-Serif" font-size="10.00">arpa/inet.h</text>
</a>
</g>
</g>
<!-- Node25&#45;&gt;Node26 -->
<g id="edge41_Node000025_Node000026" class="edge">
<title>Node25&#45;&gt;Node26</title>
<g id="a_edge41_Node000025_Node000026"><a xlink:title=" ">
<path fill="none" stroke="#63b8ff" d="M1150.73,-109.98C1171.76,-101.34 1204.55,-87.87 1228.54,-78.02"/>
<polygon fill="#63b8ff" stroke="#63b8ff" points="1229.98,-81.21 1237.9,-74.17 1227.32,-74.73 1229.98,-81.21"/>
</a>
</g>
</g>
<!-- Node27 -->
<g id="Node000027" class="node">
<title>Node27</title>
<g id="a_Node000027"><a xlink:href="ServerMacro_8hpp.html" target="_top" xlink:title="Server configuration constants and macros.">
<polygon fill="white" stroke="#666666" points="1448.5,-74 1311.5,-74 1311.5,-55 1448.5,-55 1448.5,-74"/>
<text text-anchor="middle" x="1380" y="-62" font-family="Helvetica,sans-Serif" font-size="10.00">include/ServerMacro.hpp</text>
</a>
</g>
</g>
<!-- Node25&#45;&gt;Node27 -->
<g id="edge49_Node000025_Node000027" class="edge">
<title>Node25&#45;&gt;Node27</title>
<g id="a_edge49_Node000025_Node000027"><a xlink:title=" ">
<path fill="none" stroke="#63b8ff" d="M1170.17,-109.98C1213.5,-100.8 1282.59,-86.15 1329.56,-76.19"/>
<polygon fill="#63b8ff" stroke="#63b8ff" points="1330.46,-79.58 1339.52,-74.08 1329.01,-72.73 1330.46,-79.58"/>
</a>
</g>
</g>
<!-- Node28&#45;&gt;Node9 -->
<g id="edge54_Node000028_Node000009" class="edge">
<title>Node28&#45;&gt;Node9</title>
<g id="a_edge54_Node000028_Node000009"><a xlink:title=" ">
<path fill="none" stroke="#63b8ff" d="M539.73,-109.78C527.41,-95.66 500.92,-68.06 472,-55 424.39,-33.5 271.37,-18.79 202.79,-13.11"/>
<polygon fill="#63b8ff" stroke="#63b8ff" points="202.79,-9.6 192.54,-12.28 202.22,-16.58 202.79,-9.6"/>
</a>
</g>
</g>
<!-- Node28&#45;&gt;Node14 -->
<g id="edge53_Node000028_Node000014" class="edge">
<title>Node28&#45;&gt;Node14</title>
<g id="a_edge53_Node000028_Node000014"><a xlink:title=" ">
<path fill="none" stroke="#63b8ff" d="M573.67,-109.98C601.54,-101.09 645.45,-87.07 676.52,-77.15"/>
<polygon fill="#63b8ff" stroke="#63b8ff" points="677.66,-80.46 686.12,-74.08 675.53,-73.79 677.66,-80.46"/>
</a>
</g>
</g>
<!-- Node28&#45;&gt;Node16 -->
<g id="edge56_Node000028_Node000016" class="edge">
<title>Node28&#45;&gt;Node16</title>
<g id="a_edge56_Node000028_Node000016"><a xlink:title=" ">
<path fill="none" stroke="#63b8ff" d="M552.61,-109.7C562.22,-95.46 583.31,-67.69 609,-55 728.61,4.08 774.57,-35.16 907,-19 916.59,-17.83 926.93,-16.56 936.61,-15.37"/>
<polygon fill="#63b8ff" stroke="#63b8ff" points="937.3,-18.81 946.79,-14.11 936.44,-11.86 937.3,-18.81"/>
</a>
</g>
</g>
<!-- Node28&#45;&gt;Node23 -->
<g id="edge52_Node000028_Node000023" class="edge">
<title>Node28&#45;&gt;Node23</title>
<g id="a_edge52_Node000028_Node000023"><a xlink:title=" ">
<path fill="none" stroke="#63b8ff" d="M528.36,-109.98C509.7,-101.46 480.75,-88.23 459.26,-78.41"/>
<polygon fill="#63b8ff" stroke="#63b8ff" points="460.53,-75.14 449.98,-74.17 457.62,-81.51 460.53,-75.14"/>
</a>
</g>
</g>
<!-- Node29 -->
<g id="Node000029" class="node">
<title>Node29</title>
<g id="a_Node000029"><a xlink:title=" ">
<polygon fill="#e0e0e0" stroke="#999999" points="562,-74 520,-74 520,-55 562,-55 562,-74"/>
<text text-anchor="middle" x="541" y="-62" font-family="Helvetica,sans-Serif" font-size="10.00">array</text>
</a>
</g>
</g>
<!-- Node28&#45;&gt;Node29 -->
<g id="edge55_Node000028_Node000029" class="edge">
<title>Node28&#45;&gt;Node29</title>
<g id="a_edge55_Node000028_Node000029"><a xlink:title=" ">
<path fill="none" stroke="#63b8ff" d="M546.01,-109.75C545.22,-102.8 544.1,-92.85 543.11,-84.13"/>
<polygon fill="#63b8ff" stroke="#63b8ff" points="546.58,-83.63 541.97,-74.09 539.62,-84.42 546.58,-83.63"/>
</a>
</g>
</g>
</g>
</svg>
