<?xml version="1.0" encoding="UTF-8" standalone="no"?>
<!DOCTYPE svg PUBLIC "-//W3C//DTD SVG 1.1//EN"
 "http://www.w3.org/Graphics/SVG/1.1/DTD/svg11.dtd">
<!-- Generated by graphviz version 2.43.0 (0)
 -->
<!-- Title: /home/runner/work/R&#45;Type/R&#45;Type/Server/include/network/ServerNetworkManager.hpp Pages: 1 -->
<svg width="1667pt" height="225pt"
 viewBox="0.00 0.00 1666.97 225.00" xmlns="http://www.w3.org/2000/svg" xmlns:xlink="http://www.w3.org/1999/xlink">
<g id="graph0" class="graph" transform="scale(1 1) rotate(0) translate(4 221)">
<title>/home/runner/work/R&#45;Type/R&#45;Type/Server/include/network/ServerNetworkManager.hpp</title>
<!-- Node1 -->
<g id="Node000001" class="node">
<title>Node1</title>
<g id="a_Node000001"><a xlink:title=" ">
<polygon fill="#999999" stroke="#666666" points="822.47,-217 649.47,-217 649.47,-165 822.47,-165 822.47,-217"/>
<text text-anchor="start" x="657.47" y="-205" font-family="Helvetica,sans-Serif" font-size="10.00">/home/runner/work/R</text>
<text text-anchor="start" x="657.47" y="-194" font-family="Helvetica,sans-Serif" font-size="10.00">&#45;Type/R&#45;Type/Server</text>
<text text-anchor="start" x="657.47" y="-183" font-family="Helvetica,sans-Serif" font-size="10.00">/include/network/ServerNetwork</text>
<text text-anchor="middle" x="735.97" y="-172" font-family="Helvetica,sans-Serif" font-size="10.00">Manager.hpp</text>
</a>
</g>
</g>
<!-- Node2 -->
<g id="Node000002" class="node">
<title>Node2</title>
<g id="a_Node000002"><a xlink:title=" ">
<polygon fill="#e0e0e0" stroke="#999999" points="605.97,-74 545.97,-74 545.97,-55 605.97,-55 605.97,-74"/>
<text text-anchor="middle" x="575.97" y="-62" font-family="Helvetica,sans-Serif" font-size="10.00">iostream</text>
</a>
</g>
</g>
<!-- Node1&#45;&gt;Node2 -->
<g id="edge1_Node000001_Node000002" class="edge">
<title>Node1&#45;&gt;Node2</title>
<g id="a_edge1_Node000001_Node000002"><a xlink:title=" ">
<path fill="none" stroke="#63b8ff" d="M703.6,-164.81C671.11,-139.53 622.15,-101.43 595.29,-80.53"/>
<polygon fill="#63b8ff" stroke="#63b8ff" points="597.13,-77.53 587.09,-74.15 592.83,-83.05 597.13,-77.53"/>
</a>
</g>
</g>
<!-- Node3 -->
<g id="Node000003" class="node">
<title>Node3</title>
<g id="a_Node000003"><a xlink:title=" ">
<polygon fill="#e0e0e0" stroke="#999999" points="527.97,-74 469.97,-74 469.97,-55 527.97,-55 527.97,-74"/>
<text text-anchor="middle" x="498.97" y="-62" font-family="Helvetica,sans-Serif" font-size="10.00">memory</text>
</a>
</g>
</g>
<!-- Node1&#45;&gt;Node3 -->
<g id="edge2_Node000001_Node000003" class="edge">
<title>Node1&#45;&gt;Node3</title>
<g id="a_edge2_Node000001_Node000003"><a xlink:title=" ">
<path fill="none" stroke="#63b8ff" d="M688.3,-164.96C638.83,-138.97 563.34,-99.32 524.31,-78.81"/>
<polygon fill="#63b8ff" stroke="#63b8ff" points="525.7,-75.58 515.21,-74.03 522.44,-81.78 525.7,-75.58"/>
</a>
</g>
</g>
<!-- Node4 -->
<g id="Node000004" class="node">
<title>Node4</title>
<g id="a_Node000004"><a xlink:title=" ">
<polygon fill="#e0e0e0" stroke="#999999" points="63.97,-74 15.97,-74 15.97,-55 63.97,-55 63.97,-74"/>
<text text-anchor="middle" x="39.97" y="-62" font-family="Helvetica,sans-Serif" font-size="10.00">mutex</text>
</a>
</g>
</g>
<!-- Node1&#45;&gt;Node4 -->
<g id="edge3_Node000001_Node000004" class="edge">
<title>Node1&#45;&gt;Node4</title>
<g id="a_edge3_Node000001_Node000004"><a xlink:title=" ">
<path fill="none" stroke="#63b8ff" d="M649.32,-185.97C507.57,-178.57 232.71,-160.6 140.97,-129 109.22,-118.06 77.17,-95.5 57.94,-80.43"/>
<polygon fill="#63b8ff" stroke="#63b8ff" points="60.04,-77.63 50.05,-74.1 55.66,-83.09 60.04,-77.63"/>
</a>
</g>
</g>
<!-- Node5 -->
<g id="Node000005" class="node">
<title>Node5</title>
<g id="a_Node000005"><a xlink:title=" ">
<polygon fill="#e0e0e0" stroke="#999999" points="1592.47,-129 1545.47,-129 1545.47,-110 1592.47,-110 1592.47,-129"/>
<text text-anchor="middle" x="1568.97" y="-117" font-family="Helvetica,sans-Serif" font-size="10.00">queue</text>
</a>
</g>
</g>
<!-- Node1&#45;&gt;Node5 -->
<g id="edge4_Node000001_Node000005" class="edge">
<title>Node1&#45;&gt;Node5</title>
<g id="a_edge4_Node000001_Node000005"><a xlink:title=" ">
<path fill="none" stroke="#63b8ff" d="M822.54,-188.6C968.26,-185.11 1271.66,-172.93 1535.17,-129.01"/>
<polygon fill="#63b8ff" stroke="#63b8ff" points="1536.04,-132.42 1545.31,-127.3 1534.87,-125.51 1536.04,-132.42"/>
</a>
</g>
</g>
<!-- Node6 -->
<g id="Node000006" class="node">
<title>Node6</title>
<g id="a_Node000006"><a xlink:title=" ">
<polygon fill="#e0e0e0" stroke="#999999" points="127.97,-19 83.97,-19 83.97,0 127.97,0 127.97,-19"/>
<text text-anchor="middle" x="105.97" y="-7" font-family="Helvetica,sans-Serif" font-size="10.00">string</text>
</a>
</g>
</g>
<!-- Node1&#45;&gt;Node6 -->
<g id="edge5_Node000001_Node000006" class="edge">
<title>Node1&#45;&gt;Node6</title>
<g id="a_edge5_Node000001_Node000006"><a xlink:title=" ">
<path fill="none" stroke="#63b8ff" d="M649.3,-186.42C499.58,-179.46 198.92,-161.81 98.97,-129 49.12,-112.64 -21.53,-99.06 6.97,-55 21.62,-32.36 50.82,-21.13 73.73,-15.62"/>
<polygon fill="#63b8ff" stroke="#63b8ff" points="74.7,-18.99 83.74,-13.47 73.23,-12.15 74.7,-18.99"/>
</a>
</g>
</g>
<!-- Node7 -->
<g id="Node000007" class="node">
<title>Node7</title>
<g id="a_Node000007"><a xlink:title=" ">
<polygon fill="#e0e0e0" stroke="#999999" points="1658.97,-129 1610.97,-129 1610.97,-110 1658.97,-110 1658.97,-129"/>
<text text-anchor="middle" x="1634.97" y="-117" font-family="Helvetica,sans-Serif" font-size="10.00">thread</text>
</a>
</g>
</g>
<!-- Node1&#45;&gt;Node7 -->
<g id="edge6_Node000001_Node000007" class="edge">
<title>Node1&#45;&gt;Node7</title>
<g id="a_edge6_Node000001_Node000007"><a xlink:title=" ">
<path fill="none" stroke="#63b8ff" d="M822.61,-189.09C977.37,-186.33 1311.37,-175.23 1600.66,-128.89"/>
<polygon fill="#63b8ff" stroke="#63b8ff" points="1601.62,-132.29 1610.93,-127.23 1600.5,-125.38 1601.62,-132.29"/>
</a>
</g>
</g>
<!-- Node8 -->
<g id="Node000008" class="node">
<title>Node8</title>
<g id="a_Node000008"><a xlink:title=" ">
<polygon fill="#e0e0e0" stroke="#999999" points="1302.47,-19 1255.47,-19 1255.47,0 1302.47,0 1302.47,-19"/>
<text text-anchor="middle" x="1278.97" y="-7" font-family="Helvetica,sans-Serif" font-size="10.00">vector</text>
</a>
</g>
</g>
<!-- Node1&#45;&gt;Node8 -->
<g id="edge7_Node000001_Node000008" class="edge">
<title>Node1&#45;&gt;Node8</title>
<g id="a_edge7_Node000001_Node000008"><a xlink:title=" ">
<path fill="none" stroke="#63b8ff" d="M822.83,-188.87C925.54,-185.42 1100.65,-172.89 1243.97,-129 1295.1,-113.34 1323.12,-119.64 1350.97,-74 1364.06,-52.55 1336.77,-34.35 1312.12,-23"/>
<polygon fill="#63b8ff" stroke="#63b8ff" points="1313.46,-19.77 1302.89,-19 1310.67,-26.19 1313.46,-19.77"/>
</a>
</g>
</g>
<!-- Node9 -->
<g id="Node000009" class="node">
<title>Node9</title>
<g id="a_Node000009"><a xlink:title=" ">
<polygon fill="#e0e0e0" stroke="#999999" points="365.97,-19 307.97,-19 307.97,0 365.97,0 365.97,-19"/>
<text text-anchor="middle" x="336.97" y="-7" font-family="Helvetica,sans-Serif" font-size="10.00">asio.hpp</text>
</a>
</g>
</g>
<!-- Node1&#45;&gt;Node9 -->
<g id="edge8_Node000001_Node000009" class="edge">
<title>Node1&#45;&gt;Node9</title>
<g id="a_edge8_Node000001_Node000009"><a xlink:title=" ">
<path fill="none" stroke="#63b8ff" d="M649.4,-188.44C561.12,-181.98 426.56,-157.81 349.97,-74 339.06,-62.06 336.31,-43.51 335.99,-29.53"/>
<polygon fill="#63b8ff" stroke="#63b8ff" points="339.49,-29.18 336.17,-19.12 332.49,-29.05 339.49,-29.18"/>
</a>
</g>
</g>
<!-- Node10 -->
<g id="Node000010" class="node">
<title>Node10</title>
<g id="a_Node000010"><a xlink:href="ClientManager_8hpp.html" target="_top" xlink:title=" ">
<polygon fill="white" stroke="#666666" points="301.47,-129 150.47,-129 150.47,-110 301.47,-110 301.47,-129"/>
<text text-anchor="middle" x="225.97" y="-117" font-family="Helvetica,sans-Serif" font-size="10.00">network/ClientManager.hpp</text>
</a>
</g>
</g>
<!-- Node1&#45;&gt;Node10 -->
<g id="edge9_Node000001_Node000010" class="edge">
<title>Node1&#45;&gt;Node10</title>
<g id="a_edge9_Node000001_Node000010"><a xlink:title=" ">
<path fill="none" stroke="#63b8ff" d="M649.46,-178.21C550.71,-164.75 390.95,-142.98 298.47,-130.38"/>
<polygon fill="#63b8ff" stroke="#63b8ff" points="298.74,-126.88 288.36,-129 297.79,-133.82 298.74,-126.88"/>
</a>
</g>
</g>
<!-- Node16 -->
<g id="Node000016" class="node">
<title>Node16</title>
<g id="a_Node000016"><a xlink:href="INetworkManager_8hpp.html" target="_top" xlink:title=" ">
<polygon fill="white" stroke="#666666" points="1527.47,-129 1360.47,-129 1360.47,-110 1527.47,-110 1527.47,-129"/>
<text text-anchor="middle" x="1443.97" y="-117" font-family="Helvetica,sans-Serif" font-size="10.00">network/INetworkManager.hpp</text>
</a>
</g>
</g>
<!-- Node1&#45;&gt;Node16 -->
<g id="edge21_Node000001_Node000016" class="edge">
<title>Node1&#45;&gt;Node16</title>
<g id="a_edge21_Node000001_Node000016"><a xlink:title=" ">
<path fill="none" stroke="#63b8ff" d="M822.79,-181.48C956.62,-168.34 1212.24,-143.25 1350.17,-129.71"/>
<polygon fill="#63b8ff" stroke="#63b8ff" points="1350.69,-133.17 1360.3,-128.71 1350.01,-126.21 1350.69,-133.17"/>
</a>
</g>
</g>
<!-- Node19 -->
<g id="Node000019" class="node">
<title>Node19</title>
<g id="a_Node000019"><a xlink:href="TCPServer_8hpp.html" target="_top" xlink:title=" ">
<polygon fill="white" stroke="#666666" points="854.47,-129 725.47,-129 725.47,-110 854.47,-110 854.47,-129"/>
<text text-anchor="middle" x="789.97" y="-117" font-family="Helvetica,sans-Serif" font-size="10.00">network/TCPServer.hpp</text>
</a>
</g>
</g>
<!-- Node1&#45;&gt;Node19 -->
<g id="edge28_Node000001_Node000019" class="edge">
<title>Node1&#45;&gt;Node19</title>
<g id="a_edge28_Node000001_Node000019"><a xlink:title=" ">
<path fill="none" stroke="#63b8ff" d="M755.47,-164.91C762.57,-155.77 770.42,-145.67 776.84,-137.41"/>
<polygon fill="#63b8ff" stroke="#63b8ff" points="779.76,-139.35 783.13,-129.3 774.24,-135.05 779.76,-139.35"/>
</a>
</g>
</g>
<!-- Node23 -->
<g id="Node000023" class="node">
<title>Node23</title>
<g id="a_Node000023"><a xlink:href="UDPServer_8hpp.html" target="_top" xlink:title=" ">
<polygon fill="white" stroke="#666666" points="1234.97,-129 1102.97,-129 1102.97,-110 1234.97,-110 1234.97,-129"/>
<text text-anchor="middle" x="1168.97" y="-117" font-family="Helvetica,sans-Serif" font-size="10.00">network/UDPServer.hpp</text>
</a>
</g>
</g>
<!-- Node1&#45;&gt;Node23 -->
<g id="edge39_Node000001_Node000023" class="edge">
<title>Node1&#45;&gt;Node23</title>
<g id="a_edge39_Node000001_Node000023"><a xlink:title=" ">
<path fill="none" stroke="#63b8ff" d="M822.56,-176.1C906.23,-162.67 1031,-142.65 1105.74,-130.65"/>
<polygon fill="#63b8ff" stroke="#63b8ff" points="1106.63,-134.05 1115.95,-129.01 1105.52,-127.14 1106.63,-134.05"/>
</a>
</g>
</g>
<!-- Node10&#45;&gt;Node3 -->
<g id="edge10_Node000010_Node000003" class="edge">
<title>Node10&#45;&gt;Node3</title>
<g id="a_edge10_Node000010_Node000003"><a xlink:title=" ">
<path fill="none" stroke="#63b8ff" d="M273.77,-109.92C319.19,-101.67 389.63,-88.59 460.02,-74.14"/>
<polygon fill="#63b8ff" stroke="#63b8ff" points="460.86,-77.54 469.95,-72.1 459.45,-70.69 460.86,-77.54"/>
</a>
</g>
</g>
<!-- Node10&#45;&gt;Node4 -->
<g id="edge11_Node000010_Node000004" class="edge">
<title>Node10&#45;&gt;Node4</title>
<g id="a_edge11_Node000010_Node000004"><a xlink:title=" ">
<path fill="none" stroke="#63b8ff" d="M196.09,-109.98C162.72,-100.48 108.83,-85.12 73.9,-75.17"/>
<polygon fill="#63b8ff" stroke="#63b8ff" points="74.73,-71.76 64.15,-72.39 72.81,-78.5 74.73,-71.76"/>
</a>
</g>
</g>
<!-- Node10&#45;&gt;Node6 -->
<g id="edge12_Node000010_Node000006" class="edge">
<title>Node10&#45;&gt;Node6</title>
<g id="a_edge12_Node000010_Node000006"><a xlink:title=" ">
<path fill="none" stroke="#63b8ff" d="M169.85,-109.93C148.04,-103.66 124.97,-92.8 110.97,-74 101.58,-61.39 101.08,-43.2 102.49,-29.52"/>
<polygon fill="#63b8ff" stroke="#63b8ff" points="106,-29.7 103.97,-19.3 99.07,-28.7 106,-29.7"/>
</a>
</g>
</g>
<!-- Node10&#45;&gt;Node8 -->
<g id="edge14_Node000010_Node000008" class="edge">
<title>Node10&#45;&gt;Node8</title>
<g id="a_edge14_Node000010_Node000008"><a xlink:title=" ">
<path fill="none" stroke="#63b8ff" d="M238.27,-109.92C259.76,-95.47 306.04,-66.71 349.97,-55 523.87,-8.63 1099.35,-9.27 1245.16,-10.21"/>
<polygon fill="#63b8ff" stroke="#63b8ff" points="1245.26,-13.72 1255.29,-10.28 1245.31,-6.72 1245.26,-13.72"/>
</a>
</g>
</g>
<!-- Node11 -->
<g id="Node000011" class="node">
<title>Node11</title>
<g id="a_Node000011"><a xlink:title=" ">
<polygon fill="#e0e0e0" stroke="#999999" points="451.47,-74 358.47,-74 358.47,-55 451.47,-55 451.47,-74"/>
<text text-anchor="middle" x="404.97" y="-62" font-family="Helvetica,sans-Serif" font-size="10.00">unordered_map</text>
</a>
</g>
</g>
<!-- Node10&#45;&gt;Node11 -->
<g id="edge13_Node000010_Node000011" class="edge">
<title>Node10&#45;&gt;Node11</title>
<g id="a_edge13_Node000010_Node000011"><a xlink:title=" ">
<path fill="none" stroke="#63b8ff" d="M254.73,-109.98C284.92,-101.05 332.55,-86.94 366.07,-77.02"/>
<polygon fill="#63b8ff" stroke="#63b8ff" points="367.39,-80.28 375.99,-74.08 365.41,-73.57 367.39,-80.28"/>
</a>
</g>
</g>
<!-- Node12 -->
<g id="Node000012" class="node">
<title>Node12</title>
<g id="a_Node000012"><a xlink:href="HandleClient_8hpp.html" target="_top" xlink:title=" ">
<polygon fill="white" stroke="#666666" points="263.47,-74 120.47,-74 120.47,-55 263.47,-55 263.47,-74"/>
<text text-anchor="middle" x="191.97" y="-62" font-family="Helvetica,sans-Serif" font-size="10.00">network/HandleClient.hpp</text>
</a>
</g>
</g>
<!-- Node10&#45;&gt;Node12 -->
<g id="edge15_Node000010_Node000012" class="edge">
<title>Node10&#45;&gt;Node12</title>
<g id="a_edge15_Node000010_Node000012"><a xlink:title=" ">
<path fill="none" stroke="#63b8ff" d="M220.36,-109.75C215.66,-102.42 208.8,-91.73 203,-82.7"/>
<polygon fill="#63b8ff" stroke="#63b8ff" points="205.83,-80.62 197.48,-74.09 199.94,-84.4 205.83,-80.62"/>
</a>
</g>
</g>
<!-- Node12&#45;&gt;Node6 -->
<g id="edge19_Node000012_Node000006" class="edge">
<title>Node12&#45;&gt;Node6</title>
<g id="a_edge19_Node000012_Node000006"><a xlink:title=" ">
<path fill="none" stroke="#63b8ff" d="M178.16,-54.98C164.82,-46.77 144.39,-34.18 128.67,-24.49"/>
<polygon fill="#63b8ff" stroke="#63b8ff" points="130.39,-21.44 120.04,-19.17 126.72,-27.4 130.39,-21.44"/>
</a>
</g>
</g>
<!-- Node12&#45;&gt;Node9 -->
<g id="edge20_Node000012_Node000009" class="edge">
<title>Node12&#45;&gt;Node9</title>
<g id="a_edge20_Node000012_Node000009"><a xlink:title=" ">
<path fill="none" stroke="#63b8ff" d="M215.27,-54.98C239.23,-46.23 276.75,-32.51 303.81,-22.62"/>
<polygon fill="#63b8ff" stroke="#63b8ff" points="305.06,-25.89 313.25,-19.17 302.66,-19.32 305.06,-25.89"/>
</a>
</g>
</g>
<!-- Node13 -->
<g id="Node000013" class="node">
<title>Node13</title>
<g id="a_Node000013"><a xlink:title=" ">
<polygon fill="#e0e0e0" stroke="#999999" points="208.97,-19 158.97,-19 158.97,0 208.97,0 208.97,-19"/>
<text text-anchor="middle" x="183.97" y="-7" font-family="Helvetica,sans-Serif" font-size="10.00">chrono</text>
</a>
</g>
</g>
<!-- Node12&#45;&gt;Node13 -->
<g id="edge16_Node000012_Node000013" class="edge">
<title>Node12&#45;&gt;Node13</title>
<g id="a_edge16_Node000012_Node000013"><a xlink:title=" ">
<path fill="none" stroke="#63b8ff" d="M190.65,-54.75C189.6,-47.8 188.1,-37.85 186.79,-29.13"/>
<polygon fill="#63b8ff" stroke="#63b8ff" points="190.22,-28.45 185.27,-19.09 183.3,-29.5 190.22,-28.45"/>
</a>
</g>
</g>
<!-- Node14 -->
<g id="Node000014" class="node">
<title>Node14</title>
<g id="a_Node000014"><a xlink:title=" ">
<polygon fill="#e0e0e0" stroke="#999999" points="1541.97,-19 1491.97,-19 1491.97,0 1541.97,0 1541.97,-19"/>
<text text-anchor="middle" x="1516.97" y="-7" font-family="Helvetica,sans-Serif" font-size="10.00">cstdint</text>
</a>
</g>
</g>
<!-- Node12&#45;&gt;Node14 -->
<g id="edge17_Node000012_Node000014" class="edge">
<title>Node12&#45;&gt;Node14</title>
<g id="a_edge17_Node000012_Node000014"><a xlink:title=" ">
<path fill="none" stroke="#63b8ff" d="M263.54,-59.4C290.61,-57.92 321.71,-56.29 349.97,-55 777.38,-35.51 884.45,-35.86 1311.97,-19 1371.57,-16.65 1440.89,-13.74 1481.73,-12"/>
<polygon fill="#63b8ff" stroke="#63b8ff" points="1481.88,-15.5 1491.73,-11.58 1481.59,-8.51 1481.88,-15.5"/>
</a>
</g>
</g>
<!-- Node15 -->
<g id="Node000015" class="node">
<title>Node15</title>
<g id="a_Node000015"><a xlink:title=" ">
<polygon fill="#e0e0e0" stroke="#999999" points="282.97,-19 226.97,-19 226.97,0 282.97,0 282.97,-19"/>
<text text-anchor="middle" x="254.97" y="-7" font-family="Helvetica,sans-Serif" font-size="10.00">optional</text>
</a>
</g>
</g>
<!-- Node12&#45;&gt;Node15 -->
<g id="edge18_Node000012_Node000015" class="edge">
<title>Node12&#45;&gt;Node15</title>
<g id="a_edge18_Node000012_Node000015"><a xlink:title=" ">
<path fill="none" stroke="#63b8ff" d="M202.1,-54.98C211.41,-47.15 225.44,-35.34 236.71,-25.86"/>
<polygon fill="#63b8ff" stroke="#63b8ff" points="239.27,-28.29 244.67,-19.17 234.76,-22.93 239.27,-28.29"/>
</a>
</g>
</g>
<!-- Node16&#45;&gt;Node8 -->
<g id="edge24_Node000016_Node000008" class="edge">
<title>Node16&#45;&gt;Node8</title>
<g id="a_edge24_Node000016_Node000008"><a xlink:title=" ">
<path fill="none" stroke="#63b8ff" d="M1437.51,-109.6C1427.4,-96.2 1406.64,-70.75 1383.97,-55 1361.94,-39.69 1333.8,-28.12 1312.2,-20.62"/>
<polygon fill="#63b8ff" stroke="#63b8ff" points="1313.08,-17.22 1302.48,-17.36 1310.86,-23.85 1313.08,-17.22"/>
</a>
</g>
</g>
<!-- Node16&#45;&gt;Node14 -->
<g id="edge22_Node000016_Node000014" class="edge">
<title>Node16&#45;&gt;Node14</title>
<g id="a_edge22_Node000016_Node000014"><a xlink:title=" ">
<path fill="none" stroke="#63b8ff" d="M1503.34,-109.96C1544.53,-102.68 1594.2,-90.73 1606.97,-74 1625.8,-49.35 1584.63,-30.44 1551.94,-19.9"/>
<polygon fill="#63b8ff" stroke="#63b8ff" points="1552.73,-16.48 1542.14,-16.89 1550.68,-23.17 1552.73,-16.48"/>
</a>
</g>
</g>
<!-- Node17 -->
<g id="Node000017" class="node">
<title>Node17</title>
<g id="a_Node000017"><a xlink:title=" ">
<polygon fill="#e0e0e0" stroke="#999999" points="1341.47,-74 1276.47,-74 1276.47,-55 1341.47,-55 1341.47,-74"/>
<text text-anchor="middle" x="1308.97" y="-62" font-family="Helvetica,sans-Serif" font-size="10.00">functional</text>
</a>
</g>
</g>
<!-- Node16&#45;&gt;Node17 -->
<g id="edge23_Node000016_Node000017" class="edge">
<title>Node16&#45;&gt;Node17</title>
<g id="a_edge23_Node000016_Node000017"><a xlink:title=" ">
<path fill="none" stroke="#63b8ff" d="M1422.28,-109.98C1400.17,-101.3 1365.65,-87.75 1340.52,-77.88"/>
<polygon fill="#63b8ff" stroke="#63b8ff" points="1341.65,-74.57 1331.06,-74.17 1339.09,-81.08 1341.65,-74.57"/>
</a>
</g>
</g>
<!-- Node18 -->
<g id="Node000018" class="node">
<title>Node18</title>
<g id="a_Node000018"><a xlink:href="include_2NetworkMessage_8hpp.html" target="_top" xlink:title=" ">
<polygon fill="white" stroke="#666666" points="1597.47,-74 1436.47,-74 1436.47,-55 1597.47,-55 1597.47,-74"/>
<text text-anchor="middle" x="1516.97" y="-62" font-family="Helvetica,sans-Serif" font-size="10.00">include/NetworkMessage.hpp</text>
</a>
</g>
</g>
<!-- Node16&#45;&gt;Node18 -->
<g id="edge25_Node000016_Node000018" class="edge">
<title>Node16&#45;&gt;Node18</title>
<g id="a_edge25_Node000016_Node000018"><a xlink:title=" ">
<path fill="none" stroke="#63b8ff" d="M1455.7,-109.98C1466.71,-102 1483.39,-89.88 1496.58,-80.31"/>
<polygon fill="#63b8ff" stroke="#63b8ff" points="1499,-82.88 1505.03,-74.17 1494.88,-77.21 1499,-82.88"/>
</a>
</g>
</g>
<!-- Node18&#45;&gt;Node8 -->
<g id="edge27_Node000018_Node000008" class="edge">
<title>Node18&#45;&gt;Node8</title>
<g id="a_edge27_Node000018_Node000008"><a xlink:title=" ">
<path fill="none" stroke="#63b8ff" d="M1478.73,-54.98C1432.75,-44.74 1356.31,-27.72 1312.52,-17.97"/>
<polygon fill="#63b8ff" stroke="#63b8ff" points="1313.18,-14.53 1302.65,-15.77 1311.65,-21.36 1313.18,-14.53"/>
</a>
</g>
</g>
<!-- Node18&#45;&gt;Node14 -->
<g id="edge26_Node000018_Node000014" class="edge">
<title>Node18&#45;&gt;Node14</title>
<g id="a_edge26_Node000018_Node000014"><a xlink:title=" ">
<path fill="none" stroke="#63b8ff" d="M1516.97,-54.75C1516.97,-47.8 1516.97,-37.85 1516.97,-29.13"/>
<polygon fill="#63b8ff" stroke="#63b8ff" points="1520.47,-29.09 1516.97,-19.09 1513.47,-29.09 1520.47,-29.09"/>
</a>
</g>
</g>
<!-- Node19&#45;&gt;Node2 -->
<g id="edge31_Node000019_Node000002" class="edge">
<title>Node19&#45;&gt;Node2</title>
<g id="a_edge31_Node000019_Node000002"><a xlink:title=" ">
<path fill="none" stroke="#63b8ff" d="M755.59,-109.98C717.47,-100.54 656.06,-85.34 615.86,-75.38"/>
<polygon fill="#63b8ff" stroke="#63b8ff" points="616.67,-71.97 606.12,-72.97 614.99,-78.77 616.67,-71.97"/>
</a>
</g>
</g>
<!-- Node19&#45;&gt;Node3 -->
<g id="edge32_Node000019_Node000003" class="edge">
<title>Node19&#45;&gt;Node3</title>
<g id="a_edge32_Node000019_Node000003"><a xlink:title=" ">
<path fill="none" stroke="#63b8ff" d="M737.51,-110C688.45,-101.88 612.91,-88.97 538.07,-74.14"/>
<polygon fill="#63b8ff" stroke="#63b8ff" points="538.48,-70.66 527.99,-72.13 537.11,-77.52 538.48,-70.66"/>
</a>
</g>
</g>
<!-- Node19&#45;&gt;Node6 -->
<g id="edge33_Node000019_Node000006" class="edge">
<title>Node19&#45;&gt;Node6</title>
<g id="a_edge33_Node000019_Node000006"><a xlink:title=" ">
<path fill="none" stroke="#63b8ff" d="M790.25,-109.83C790.19,-95.78 787.76,-68.27 770.97,-55 716.76,-12.14 218.56,-27.57 149.97,-19 146.2,-18.53 142.26,-17.93 138.36,-17.26"/>
<polygon fill="#63b8ff" stroke="#63b8ff" points="138.73,-13.77 128.27,-15.4 137.47,-20.66 138.73,-13.77"/>
</a>
</g>
</g>
<!-- Node19&#45;&gt;Node8 -->
<g id="edge35_Node000019_Node000008" class="edge">
<title>Node19&#45;&gt;Node8</title>
<g id="a_edge35_Node000019_Node000008"><a xlink:title=" ">
<path fill="none" stroke="#63b8ff" d="M799.37,-109.93C815.5,-95.76 850.14,-67.75 884.97,-55 951.01,-30.83 1162.57,-16.9 1245.33,-12.26"/>
<polygon fill="#63b8ff" stroke="#63b8ff" points="1245.66,-15.74 1255.45,-11.7 1245.27,-8.75 1245.66,-15.74"/>
</a>
</g>
</g>
<!-- Node19&#45;&gt;Node9 -->
<g id="edge36_Node000019_Node000009" class="edge">
<title>Node19&#45;&gt;Node9</title>
<g id="a_edge36_Node000019_Node000009"><a xlink:title=" ">
<path fill="none" stroke="#63b8ff" d="M795.99,-109.9C804.6,-96.45 817.95,-70.37 803.97,-55 775.41,-23.58 483.44,-13.82 376.21,-11.28"/>
<polygon fill="#63b8ff" stroke="#63b8ff" points="376.2,-7.78 366.12,-11.05 376.04,-14.78 376.2,-7.78"/>
</a>
</g>
</g>
<!-- Node19&#45;&gt;Node11 -->
<g id="edge34_Node000019_Node000011" class="edge">
<title>Node19&#45;&gt;Node11</title>
<g id="a_edge34_Node000019_Node000011"><a xlink:title=" ">
<path fill="none" stroke="#63b8ff" d="M725.32,-110.07C661.15,-101.63 559.7,-88.1 461.79,-74.1"/>
<polygon fill="#63b8ff" stroke="#63b8ff" points="462.11,-70.61 451.72,-72.65 461.12,-77.54 462.11,-70.61"/>
</a>
</g>
</g>
<!-- Node19&#45;&gt;Node17 -->
<g id="edge30_Node000019_Node000017" class="edge">
<title>Node19&#45;&gt;Node17</title>
<g id="a_edge30_Node000019_Node000017"><a xlink:title=" ">
<path fill="none" stroke="#63b8ff" d="M854.66,-114.66C944.65,-108.83 1112.88,-96.18 1265.96,-73.99"/>
<polygon fill="#63b8ff" stroke="#63b8ff" points="1266.63,-77.43 1276.02,-72.52 1265.61,-70.5 1266.63,-77.43"/>
</a>
</g>
</g>
<!-- Node20 -->
<g id="Node000020" class="node">
<title>Node20</title>
<g id="a_Node000020"><a xlink:title=" ">
<polygon fill="#e0e0e0" stroke="#999999" points="1121.47,-74 1052.47,-74 1052.47,-55 1121.47,-55 1121.47,-74"/>
<text text-anchor="middle" x="1086.97" y="-62" font-family="Helvetica,sans-Serif" font-size="10.00">arpa/inet.h</text>
</a>
</g>
</g>
<!-- Node19&#45;&gt;Node20 -->
<g id="edge29_Node000019_Node000020" class="edge">
<title>Node19&#45;&gt;Node20</title>
<g id="a_edge29_Node000019_Node000020"><a xlink:title=" ">
<path fill="none" stroke="#63b8ff" d="M839.94,-109.96C888.81,-101.56 965.63,-88.2 1042.1,-74.13"/>
<polygon fill="#63b8ff" stroke="#63b8ff" points="1043.2,-77.49 1052.4,-72.24 1041.93,-70.61 1043.2,-77.49"/>
</a>
</g>
</g>
<!-- Node21 -->
<g id="Node000021" class="node">
<title>Node21</title>
<g id="a_Node000021"><a xlink:href="ServerMacro_8hpp.html" target="_top" xlink:title="Server configuration constants and macros.">
<polygon fill="white" stroke="#666666" points="761.47,-74 624.47,-74 624.47,-55 761.47,-55 761.47,-74"/>
<text text-anchor="middle" x="692.97" y="-62" font-family="Helvetica,sans-Serif" font-size="10.00">include/ServerMacro.hpp</text>
</a>
</g>
</g>
<!-- Node19&#45;&gt;Node21 -->
<g id="edge37_Node000019_Node000021" class="edge">
<title>Node19&#45;&gt;Node21</title>
<g id="a_edge37_Node000019_Node000021"><a xlink:title=" ">
<path fill="none" stroke="#63b8ff" d="M774.39,-109.98C759.21,-101.69 735.88,-88.94 718.08,-79.22"/>
<polygon fill="#63b8ff" stroke="#63b8ff" points="719.3,-75.89 708.84,-74.17 715.94,-82.04 719.3,-75.89"/>
</a>
</g>
</g>
<!-- Node22 -->
<g id="Node000022" class="node">
<title>Node22</title>
<g id="a_Node000022"><a xlink:title=" ">
<polygon fill="#e0e0e0" stroke="#999999" points="1033.97,-74 893.97,-74 893.97,-55 1033.97,-55 1033.97,-74"/>
<text text-anchor="middle" x="963.97" y="-62" font-family="Helvetica,sans-Serif" font-size="10.00">network/DecodeFunc.hpp</text>
</a>
</g>
</g>
<!-- Node19&#45;&gt;Node22 -->
<g id="edge38_Node000019_Node000022" class="edge">
<title>Node19&#45;&gt;Node22</title>
<g id="a_edge38_Node000019_Node000022"><a xlink:title=" ">
<path fill="none" stroke="#63b8ff" d="M817.93,-109.98C847.27,-101.05 893.57,-86.94 926.16,-77.02"/>
<polygon fill="#63b8ff" stroke="#63b8ff" points="927.25,-80.34 935.8,-74.08 925.21,-73.65 927.25,-80.34"/>
</a>
</g>
</g>
<!-- Node23&#45;&gt;Node3 -->
<g id="edge41_Node000023_Node000003" class="edge">
<title>Node23&#45;&gt;Node3</title>
<g id="a_edge41_Node000023_Node000003"><a xlink:title=" ">
<path fill="none" stroke="#63b8ff" d="M1102.66,-117.09C988.97,-113.97 749.49,-104.27 538.38,-73.99"/>
<polygon fill="#63b8ff" stroke="#63b8ff" points="538.75,-70.5 528.35,-72.53 537.74,-77.43 538.75,-70.5"/>
</a>
</g>
</g>
<!-- Node23&#45;&gt;Node8 -->
<g id="edge42_Node000023_Node000008" class="edge">
<title>Node23&#45;&gt;Node8</title>
<g id="a_edge42_Node000023_Node000008"><a xlink:title=" ">
<path fill="none" stroke="#63b8ff" d="M1172.55,-109.82C1178.28,-96.72 1190.56,-71.65 1206.97,-55 1219.58,-42.21 1236.56,-31.49 1250.87,-23.78"/>
<polygon fill="#63b8ff" stroke="#63b8ff" points="1252.54,-26.85 1259.81,-19.15 1249.32,-20.64 1252.54,-26.85"/>
</a>
</g>
</g>
<!-- Node23&#45;&gt;Node9 -->
<g id="edge44_Node000023_Node000009" class="edge">
<title>Node23&#45;&gt;Node9</title>
<g id="a_edge44_Node000023_Node000009"><a xlink:title=" ">
<path fill="none" stroke="#63b8ff" d="M1166.59,-109.63C1162.22,-95.28 1151.42,-67.36 1130.97,-55 1066.07,-15.76 527.65,-11.1 376.37,-10.56"/>
<polygon fill="#63b8ff" stroke="#63b8ff" points="376.17,-7.06 366.16,-10.53 376.15,-14.06 376.17,-7.06"/>
</a>
</g>
</g>
<!-- Node23&#45;&gt;Node17 -->
<g id="edge40_Node000023_Node000017" class="edge">
<title>Node23&#45;&gt;Node17</title>
<g id="a_edge40_Node000023_Node000017"><a xlink:title=" ">
<path fill="none" stroke="#63b8ff" d="M1191.47,-109.98C1214.5,-101.27 1250.51,-87.63 1276.6,-77.75"/>
<polygon fill="#63b8ff" stroke="#63b8ff" points="1277.96,-80.98 1286.07,-74.17 1275.48,-74.44 1277.96,-80.98"/>
</a>
</g>
</g>
<!-- Node24 -->
<g id="Node000024" class="node">
<title>Node24</title>
<g id="a_Node000024"><a xlink:title=" ">
<polygon fill="#e0e0e0" stroke="#999999" points="1257.97,-74 1215.97,-74 1215.97,-55 1257.97,-55 1257.97,-74"/>
<text text-anchor="middle" x="1236.97" y="-62" font-family="Helvetica,sans-Serif" font-size="10.00">array</text>
</a>
</g>
</g>
<!-- Node23&#45;&gt;Node24 -->
<g id="edge43_Node000023_Node000024" class="edge">
<title>Node23&#45;&gt;Node24</title>
<g id="a_edge43_Node000023_Node000024"><a xlink:title=" ">
<path fill="none" stroke="#63b8ff" d="M1179.9,-109.98C1190.05,-102.07 1205.4,-90.11 1217.62,-80.58"/>
<polygon fill="#63b8ff" stroke="#63b8ff" points="1220.11,-83.08 1225.85,-74.17 1215.81,-77.56 1220.11,-83.08"/>
</a>
</g>
</g>
</g>
</svg>
