<?xml version="1.0" encoding="UTF-8" standalone="no"?>
<!DOCTYPE svg PUBLIC "-//W3C//DTD SVG 1.1//EN"
 "http://www.w3.org/Graphics/SVG/1.1/DTD/svg11.dtd">
<!-- Generated by graphviz version 2.43.0 (0)
 -->
<!-- Title: /home/runner/work/R&#45;Type/R&#45;Type/Shared/systems/InputSystem.cpp Pages: 1 -->
<svg width="765pt" height="324pt"
 viewBox="0.00 0.00 765.00 324.00" xmlns="http://www.w3.org/2000/svg" xmlns:xlink="http://www.w3.org/1999/xlink">
<g id="graph0" class="graph" transform="scale(1 1) rotate(0) translate(4 320)">
<title>/home/runner/work/R&#45;Type/R&#45;Type/Shared/systems/InputSystem.cpp</title>
<!-- Node1 -->
<g id="Node000001" class="node">
<title>Node1</title>
<g id="a_Node000001"><a xlink:title=" ">
<polygon fill="#999999" stroke="#666666" points="462,-316 316,-316 316,-275 462,-275 462,-316"/>
<text text-anchor="start" x="324" y="-304" font-family="Helvetica,sans-Serif" font-size="10.00">/home/runner/work/R</text>
<text text-anchor="start" x="324" y="-293" font-family="Helvetica,sans-Serif" font-size="10.00">&#45;Type/R&#45;Type/Shared</text>
<text text-anchor="middle" x="389" y="-282" font-family="Helvetica,sans-Serif" font-size="10.00">/systems/InputSystem.cpp</text>
</a>
</g>
</g>
<!-- Node2 -->
<g id="Node000002" class="node">
<title>Node2</title>
<g id="a_Node000002"><a xlink:href="InputSystem_8hpp.html" target="_top" xlink:title=" ">
<polygon fill="white" stroke="#666666" points="410.5,-239 267.5,-239 267.5,-220 410.5,-220 410.5,-239"/>
<text text-anchor="middle" x="339" y="-227" font-family="Helvetica,sans-Serif" font-size="10.00">systems/InputSystem.hpp</text>
</a>
</g>
</g>
<!-- Node1&#45;&gt;Node2 -->
<g id="edge1_Node000001_Node000002" class="edge">
<title>Node1&#45;&gt;Node2</title>
<g id="a_edge1_Node000001_Node000002"><a xlink:title=" ">
<path fill="none" stroke="#63b8ff" d="M373.73,-274.95C366.82,-266.11 358.74,-255.77 352.11,-247.29"/>
<polygon fill="#63b8ff" stroke="#63b8ff" points="354.76,-244.99 345.84,-239.26 349.24,-249.3 354.76,-244.99"/>
</a>
</g>
</g>
<!-- Node3 -->
<g id="Node000003" class="node">
<title>Node3</title>
<g id="a_Node000003"><a xlink:href="PlayerEntity_8hpp.html" target="_top" xlink:title=" ">
<polygon fill="white" stroke="#666666" points="251.5,-184 122.5,-184 122.5,-165 251.5,-165 251.5,-184"/>
<text text-anchor="middle" x="187" y="-172" font-family="Helvetica,sans-Serif" font-size="10.00">Player/PlayerEntity.hpp</text>
</a>
</g>
</g>
<!-- Node1&#45;&gt;Node3 -->
<g id="edge14_Node000001_Node000003" class="edge">
<title>Node1&#45;&gt;Node3</title>
<g id="a_edge14_Node000001_Node000003"><a xlink:title=" ">
<path fill="none" stroke="#63b8ff" d="M332.65,-275C309.04,-265.68 281.83,-253.41 259,-239 237.56,-225.46 216.17,-205.59 202.35,-191.69"/>
<polygon fill="#63b8ff" stroke="#63b8ff" points="204.63,-189.01 195.14,-184.29 199.61,-193.9 204.63,-189.01"/>
</a>
</g>
</g>
<!-- Node4 -->
<g id="Node000004" class="node">
<title>Node4</title>
<g id="a_Node000004"><a xlink:title=" ">
<polygon fill="#e0e0e0" stroke="#999999" points="64,-129 0,-129 0,-110 64,-110 64,-129"/>
<text text-anchor="middle" x="32" y="-117" font-family="Helvetica,sans-Serif" font-size="10.00">algorithm</text>
</a>
</g>
</g>
<!-- Node1&#45;&gt;Node4 -->
<g id="edge13_Node000001_Node000004" class="edge">
<title>Node1&#45;&gt;Node4</title>
<g id="a_edge13_Node000001_Node000004"><a xlink:title=" ">
<path fill="none" stroke="#63b8ff" d="M322.43,-274.98C264.57,-256.39 179.8,-225.15 113,-184 89.64,-169.61 65.16,-149.63 49.31,-135.95"/>
<polygon fill="#63b8ff" stroke="#63b8ff" points="51.28,-133.03 41.45,-129.07 46.67,-138.29 51.28,-133.03"/>
</a>
</g>
</g>
<!-- Node10 -->
<g id="Node000010" class="node">
<title>Node10</title>
<g id="a_Node000010"><a xlink:title=" ">
<polygon fill="#e0e0e0" stroke="#999999" points="620,-184 476,-184 476,-165 620,-165 620,-184"/>
<text text-anchor="middle" x="548" y="-172" font-family="Helvetica,sans-Serif" font-size="10.00">input/InputSubsystem.hpp</text>
</a>
</g>
</g>
<!-- Node1&#45;&gt;Node10 -->
<g id="edge16_Node000001_Node000010" class="edge">
<title>Node1&#45;&gt;Node10</title>
<g id="a_edge16_Node000001_Node000010"><a xlink:title=" ">
<path fill="none" stroke="#63b8ff" d="M403.8,-274.9C416.76,-258.68 436.81,-235.82 458,-220 475.68,-206.8 497.87,-195.78 515.8,-188"/>
<polygon fill="#63b8ff" stroke="#63b8ff" points="517.4,-191.12 525.26,-184.02 514.69,-184.67 517.4,-191.12"/>
</a>
</g>
</g>
<!-- Node12 -->
<g id="Node000012" class="node">
<title>Node12</title>
<g id="a_Node000012"><a xlink:title=" ">
<polygon fill="#e0e0e0" stroke="#999999" points="563,-239 467,-239 467,-220 563,-220 563,-239"/>
<text text-anchor="middle" x="515" y="-227" font-family="Helvetica,sans-Serif" font-size="10.00">ecs/Registry.hpp</text>
</a>
</g>
</g>
<!-- Node1&#45;&gt;Node12 -->
<g id="edge15_Node000001_Node000012" class="edge">
<title>Node1&#45;&gt;Node12</title>
<g id="a_edge15_Node000001_Node000012"><a xlink:title=" ">
<path fill="none" stroke="#63b8ff" d="M427.49,-274.95C447.4,-264.84 471.17,-252.76 488.91,-243.75"/>
<polygon fill="#63b8ff" stroke="#63b8ff" points="490.75,-246.74 498.08,-239.09 487.58,-240.5 490.75,-246.74"/>
</a>
</g>
</g>
<!-- Node13 -->
<g id="Node000013" class="node">
<title>Node13</title>
<g id="a_Node000013"><a xlink:title=" ">
<polygon fill="#e0e0e0" stroke="#999999" points="757,-239 581,-239 581,-220 757,-220 757,-239"/>
<text text-anchor="middle" x="669" y="-227" font-family="Helvetica,sans-Serif" font-size="10.00">network/NetworkSubsystem.hpp</text>
</a>
</g>
</g>
<!-- Node1&#45;&gt;Node13 -->
<g id="edge17_Node000001_Node000013" class="edge">
<title>Node1&#45;&gt;Node13</title>
<g id="a_edge17_Node000001_Node000013"><a xlink:title=" ">
<path fill="none" stroke="#63b8ff" d="M462.2,-277.77C512.71,-266.22 578.37,-251.22 622.01,-241.24"/>
<polygon fill="#63b8ff" stroke="#63b8ff" points="622.82,-244.65 631.79,-239 621.26,-237.82 622.82,-244.65"/>
</a>
</g>
</g>
<!-- Node2&#45;&gt;Node3 -->
<g id="edge2_Node000002_Node000003" class="edge">
<title>Node2&#45;&gt;Node3</title>
<g id="a_edge2_Node000002_Node000003"><a xlink:title=" ">
<path fill="none" stroke="#63b8ff" d="M314.58,-219.98C289.28,-211.16 249.55,-197.31 221.14,-187.41"/>
<polygon fill="#63b8ff" stroke="#63b8ff" points="222.21,-184.07 211.61,-184.08 219.9,-190.68 222.21,-184.07"/>
</a>
</g>
</g>
<!-- Node9 -->
<g id="Node000009" class="node">
<title>Node9</title>
<g id="a_Node000009"><a xlink:title=" ">
<polygon fill="#e0e0e0" stroke="#999999" points="274,-19 146,-19 146,0 274,0 274,-19"/>
<text text-anchor="middle" x="210" y="-7" font-family="Helvetica,sans-Serif" font-size="10.00">physics/Physics2D.hpp</text>
</a>
</g>
</g>
<!-- Node2&#45;&gt;Node9 -->
<g id="edge10_Node000002_Node000009" class="edge">
<title>Node2&#45;&gt;Node9</title>
<g id="a_edge10_Node000002_Node000009"><a xlink:title=" ">
<path fill="none" stroke="#63b8ff" d="M357.69,-219.93C372.5,-212.32 392.84,-199.93 406,-184 442.54,-139.76 453.52,-93.53 411,-55 392.35,-38.1 333.42,-26.33 284.15,-19.16"/>
<polygon fill="#63b8ff" stroke="#63b8ff" points="284.51,-15.68 274.12,-17.74 283.53,-22.61 284.51,-15.68"/>
</a>
</g>
</g>
<!-- Node2&#45;&gt;Node10 -->
<g id="edge11_Node000002_Node000010" class="edge">
<title>Node2&#45;&gt;Node10</title>
<g id="a_edge11_Node000002_Node000010"><a xlink:title=" ">
<path fill="none" stroke="#63b8ff" d="M372.58,-219.98C408.35,-210.91 465.12,-196.52 504.34,-186.57"/>
<polygon fill="#63b8ff" stroke="#63b8ff" points="505.32,-189.93 514.16,-184.08 503.6,-183.15 505.32,-189.93"/>
</a>
</g>
</g>
<!-- Node11 -->
<g id="Node000011" class="node">
<title>Node11</title>
<g id="a_Node000011"><a xlink:title=" ">
<polygon fill="#e0e0e0" stroke="#999999" points="396.5,-184 281.5,-184 281.5,-165 396.5,-165 396.5,-184"/>
<text text-anchor="middle" x="339" y="-172" font-family="Helvetica,sans-Serif" font-size="10.00">ecs/SparseArray.hpp</text>
</a>
</g>
</g>
<!-- Node2&#45;&gt;Node11 -->
<g id="edge12_Node000002_Node000011" class="edge">
<title>Node2&#45;&gt;Node11</title>
<g id="a_edge12_Node000002_Node000011"><a xlink:title=" ">
<path fill="none" stroke="#63b8ff" d="M339,-219.75C339,-212.8 339,-202.85 339,-194.13"/>
<polygon fill="#63b8ff" stroke="#63b8ff" points="342.5,-194.09 339,-184.09 335.5,-194.09 342.5,-194.09"/>
</a>
</g>
</g>
<!-- Node3&#45;&gt;Node4 -->
<g id="edge3_Node000003_Node000004" class="edge">
<title>Node3&#45;&gt;Node4</title>
<g id="a_edge3_Node000003_Node000004"><a xlink:title=" ">
<path fill="none" stroke="#63b8ff" d="M162.1,-164.98C136.3,-156.16 95.78,-142.31 66.82,-132.41"/>
<polygon fill="#63b8ff" stroke="#63b8ff" points="67.69,-129.01 57.1,-129.08 65.43,-135.63 67.69,-129.01"/>
</a>
</g>
</g>
<!-- Node5 -->
<g id="Node000005" class="node">
<title>Node5</title>
<g id="a_Node000005"><a xlink:href="CollisionController_8hpp.html" target="_top" xlink:title=" ">
<polygon fill="white" stroke="#666666" points="420,-129 248,-129 248,-110 420,-110 420,-129"/>
<text text-anchor="middle" x="334" y="-117" font-family="Helvetica,sans-Serif" font-size="10.00">Collision/CollisionController.hpp</text>
</a>
</g>
</g>
<!-- Node3&#45;&gt;Node5 -->
<g id="edge4_Node000003_Node000005" class="edge">
<title>Node3&#45;&gt;Node5</title>
<g id="a_edge4_Node000003_Node000005"><a xlink:title=" ">
<path fill="none" stroke="#63b8ff" d="M210.62,-164.98C234.9,-156.23 272.95,-142.51 300.37,-132.62"/>
<polygon fill="#63b8ff" stroke="#63b8ff" points="301.73,-135.85 309.95,-129.17 299.36,-129.27 301.73,-135.85"/>
</a>
</g>
</g>
<!-- Node7 -->
<g id="Node000007" class="node">
<title>Node7</title>
<g id="a_Node000007"><a xlink:href="Weapon_8hpp.html" target="_top" xlink:title=" ">
<polygon fill="white" stroke="#666666" points="230,-129 120,-129 120,-110 230,-110 230,-129"/>
<text text-anchor="middle" x="175" y="-117" font-family="Helvetica,sans-Serif" font-size="10.00">Player/Weapon.hpp</text>
</a>
</g>
</g>
<!-- Node3&#45;&gt;Node7 -->
<g id="edge6_Node000003_Node000007" class="edge">
<title>Node3&#45;&gt;Node7</title>
<g id="a_edge6_Node000003_Node000007"><a xlink:title=" ">
<path fill="none" stroke="#63b8ff" d="M185.02,-164.75C183.43,-157.72 181.14,-147.62 179.15,-138.84"/>
<polygon fill="#63b8ff" stroke="#63b8ff" points="182.57,-138.07 176.94,-129.09 175.74,-139.62 182.57,-138.07"/>
</a>
</g>
</g>
<!-- Node3&#45;&gt;Node9 -->
<g id="edge9_Node000003_Node000009" class="edge">
<title>Node3&#45;&gt;Node9</title>
<g id="a_edge9_Node000003_Node000009"><a xlink:title=" ">
<path fill="none" stroke="#63b8ff" d="M158.61,-164.92C141.54,-158.13 121.19,-146.77 111,-129 94.64,-100.47 93.14,-82.61 111,-55 121.19,-39.25 138.43,-29.02 155.69,-22.4"/>
<polygon fill="#63b8ff" stroke="#63b8ff" points="156.94,-25.67 165.24,-19.08 154.64,-19.05 156.94,-25.67"/>
</a>
</g>
</g>
<!-- Node6 -->
<g id="Node000006" class="node">
<title>Node6</title>
<g id="a_Node000006"><a xlink:title=" ">
<polygon fill="#e0e0e0" stroke="#999999" points="402,-74 318,-74 318,-55 402,-55 402,-74"/>
<text text-anchor="middle" x="360" y="-62" font-family="Helvetica,sans-Serif" font-size="10.00">ecs/Entity.hpp</text>
</a>
</g>
</g>
<!-- Node5&#45;&gt;Node6 -->
<g id="edge5_Node000005_Node000006" class="edge">
<title>Node5&#45;&gt;Node6</title>
<g id="a_edge5_Node000005_Node000006"><a xlink:title=" ">
<path fill="none" stroke="#63b8ff" d="M338.29,-109.75C341.81,-102.57 346.91,-92.18 351.28,-83.27"/>
<polygon fill="#63b8ff" stroke="#63b8ff" points="354.52,-84.61 355.79,-74.09 348.24,-81.53 354.52,-84.61"/>
</a>
</g>
</g>
<!-- Node8 -->
<g id="Node000008" class="node">
<title>Node8</title>
<g id="a_Node000008"><a xlink:href="Projectile_8hpp.html" target="_top" xlink:title=" ">
<polygon fill="white" stroke="#666666" points="300,-74 120,-74 120,-55 300,-55 300,-74"/>
<text text-anchor="middle" x="210" y="-62" font-family="Helvetica,sans-Serif" font-size="10.00">components/Player/Projectile.hpp</text>
</a>
</g>
</g>
<!-- Node7&#45;&gt;Node8 -->
<g id="edge7_Node000007_Node000008" class="edge">
<title>Node7&#45;&gt;Node8</title>
<g id="a_edge7_Node000007_Node000008"><a xlink:title=" ">
<path fill="none" stroke="#63b8ff" d="M180.78,-109.75C185.62,-102.42 192.68,-91.73 198.64,-82.7"/>
<polygon fill="#63b8ff" stroke="#63b8ff" points="201.74,-84.36 204.33,-74.09 195.9,-80.5 201.74,-84.36"/>
</a>
</g>
</g>
<!-- Node8&#45;&gt;Node9 -->
<g id="edge8_Node000008_Node000009" class="edge">
<title>Node8&#45;&gt;Node9</title>
<g id="a_edge8_Node000008_Node000009"><a xlink:title=" ">
<path fill="none" stroke="#63b8ff" d="M210,-54.75C210,-47.8 210,-37.85 210,-29.13"/>
<polygon fill="#63b8ff" stroke="#63b8ff" points="213.5,-29.09 210,-19.09 206.5,-29.09 213.5,-29.09"/>
</a>
</g>
</g>
</g>
</svg>
