<?xml version="1.0" encoding="UTF-8" standalone="no"?>
<!DOCTYPE svg PUBLIC "-//W3C//DTD SVG 1.1//EN"
 "http://www.w3.org/Graphics/SVG/1.1/DTD/svg11.dtd">
<!-- Generated by graphviz version 2.43.0 (0)
 -->
<!-- Title: /home/runner/work/R&#45;Type/R&#45;Type/Shared/systems/SpawnEnemy/Spawn.cpp Pages: 1 -->
<svg width="1809pt" height="324pt"
 viewBox="0.00 0.00 1809.15 324.00" xmlns="http://www.w3.org/2000/svg" xmlns:xlink="http://www.w3.org/1999/xlink">
<g id="graph0" class="graph" transform="scale(1 1) rotate(0) translate(4 320)">
<title>/home/runner/work/R&#45;Type/R&#45;Type/Shared/systems/SpawnEnemy/Spawn.cpp</title>
<!-- Node1 -->
<g id="Node000001" class="node">
<title>Node1</title>
<g id="a_Node000001"><a xlink:title=" ">
<polygon fill="#999999" stroke="#666666" points="630.5,-316 445.5,-316 445.5,-275 630.5,-275 630.5,-316"/>
<text text-anchor="start" x="453.5" y="-304" font-family="Helvetica,sans-Serif" font-size="10.00">/home/runner/work/R</text>
<text text-anchor="start" x="453.5" y="-293" font-family="Helvetica,sans-Serif" font-size="10.00">&#45;Type/R&#45;Type/Shared</text>
<text text-anchor="middle" x="538" y="-282" font-family="Helvetica,sans-Serif" font-size="10.00">/systems/SpawnEnemy/Spawn.cpp</text>
</a>
</g>
</g>
<!-- Node2 -->
<g id="Node000002" class="node">
<title>Node2</title>
<g id="a_Node000002"><a xlink:href="Spawn_8hpp.html" target="_top" xlink:title=" ">
<polygon fill="white" stroke="#666666" points="230,-239 154,-239 154,-220 230,-220 230,-239"/>
<text text-anchor="middle" x="192" y="-227" font-family="Helvetica,sans-Serif" font-size="10.00">./Spawn.hpp</text>
</a>
</g>
</g>
<!-- Node1&#45;&gt;Node2 -->
<g id="edge1_Node000001_Node000002" class="edge">
<title>Node1&#45;&gt;Node2</title>
<g id="a_edge1_Node000001_Node000002"><a xlink:title=" ">
<path fill="none" stroke="#63b8ff" d="M445.28,-277.35C379.22,-265.13 293.1,-249.2 240.22,-239.42"/>
<polygon fill="#63b8ff" stroke="#63b8ff" points="240.57,-235.92 230.1,-237.55 239.3,-242.81 240.57,-235.92"/>
</a>
</g>
</g>
<!-- Node10 -->
<g id="Node000010" class="node">
<title>Node10</title>
<g id="a_Node000010"><a xlink:href="EntityHelper_8hpp.html" target="_top" xlink:title=" ">
<polygon fill="white" stroke="#666666" points="999,-239 861,-239 861,-220 999,-220 999,-239"/>
<text text-anchor="middle" x="930" y="-227" font-family="Helvetica,sans-Serif" font-size="10.00">Helpers/EntityHelper.hpp</text>
</a>
</g>
</g>
<!-- Node1&#45;&gt;Node10 -->
<g id="edge10_Node000001_Node000010" class="edge">
<title>Node1&#45;&gt;Node10</title>
<g id="a_edge10_Node000001_Node000010"><a xlink:title=" ">
<path fill="none" stroke="#63b8ff" d="M630.9,-279.33C704.07,-267.39 804.06,-251.06 867.84,-240.65"/>
<polygon fill="#63b8ff" stroke="#63b8ff" points="868.45,-244.1 877.75,-239.03 867.32,-237.19 868.45,-244.1"/>
</a>
</g>
</g>
<!-- Node3 -->
<g id="Node000003" class="node">
<title>Node3</title>
<g id="a_Node000003"><a xlink:href="EnemySpawn_8hpp.html" target="_top" xlink:title=" ">
<polygon fill="white" stroke="#666666" points="621.5,-184 484.5,-184 484.5,-165 621.5,-165 621.5,-184"/>
<text text-anchor="middle" x="553" y="-172" font-family="Helvetica,sans-Serif" font-size="10.00">Player/EnemySpawn.hpp</text>
</a>
</g>
</g>
<!-- Node2&#45;&gt;Node3 -->
<g id="edge2_Node000002_Node000003" class="edge">
<title>Node2&#45;&gt;Node3</title>
<g id="a_edge2_Node000002_Node000003"><a xlink:title=" ">
<path fill="none" stroke="#63b8ff" d="M230.29,-222.88C290.78,-214 409.28,-196.6 484.62,-185.54"/>
<polygon fill="#63b8ff" stroke="#63b8ff" points="485.57,-188.94 494.96,-184.02 484.56,-182.01 485.57,-188.94"/>
</a>
</g>
</g>
<!-- Node7 -->
<g id="Node000007" class="node">
<title>Node7</title>
<g id="a_Node000007"><a xlink:title=" ">
<polygon fill="#e0e0e0" stroke="#999999" points="875,-19 747,-19 747,0 875,0 875,-19"/>
<text text-anchor="middle" x="811" y="-7" font-family="Helvetica,sans-Serif" font-size="10.00">physics/Physics2D.hpp</text>
</a>
</g>
</g>
<!-- Node2&#45;&gt;Node7 -->
<g id="edge7_Node000002_Node000007" class="edge">
<title>Node2&#45;&gt;Node7</title>
<g id="a_edge7_Node000002_Node000007"><a xlink:title=" ">
<path fill="none" stroke="#63b8ff" d="M174.09,-219.92C152.78,-208.46 121.66,-187.05 135,-165 189.54,-74.85 244,-85.01 345,-55 416.3,-33.81 623.86,-20.17 736.39,-14.12"/>
<polygon fill="#63b8ff" stroke="#63b8ff" points="736.84,-17.6 746.64,-13.58 736.47,-10.61 736.84,-17.6"/>
</a>
</g>
</g>
<!-- Node8 -->
<g id="Node000008" class="node">
<title>Node8</title>
<g id="a_Node000008"><a xlink:title=" ">
<polygon fill="#e0e0e0" stroke="#999999" points="240,-184 144,-184 144,-165 240,-165 240,-184"/>
<text text-anchor="middle" x="192" y="-172" font-family="Helvetica,sans-Serif" font-size="10.00">ecs/Registry.hpp</text>
</a>
</g>
</g>
<!-- Node2&#45;&gt;Node8 -->
<g id="edge8_Node000002_Node000008" class="edge">
<title>Node2&#45;&gt;Node8</title>
<g id="a_edge8_Node000002_Node000008"><a xlink:title=" ">
<path fill="none" stroke="#63b8ff" d="M192,-219.75C192,-212.8 192,-202.85 192,-194.13"/>
<polygon fill="#63b8ff" stroke="#63b8ff" points="195.5,-194.09 192,-184.09 188.5,-194.09 195.5,-194.09"/>
</a>
</g>
</g>
<!-- Node9 -->
<g id="Node000009" class="node">
<title>Node9</title>
<g id="a_Node000009"><a xlink:title=" ">
<polygon fill="#e0e0e0" stroke="#999999" points="88,-184 0,-184 0,-165 88,-165 88,-184"/>
<text text-anchor="middle" x="44" y="-172" font-family="Helvetica,sans-Serif" font-size="10.00">ecs/Zipper.hpp</text>
</a>
</g>
</g>
<!-- Node2&#45;&gt;Node9 -->
<g id="edge9_Node000002_Node000009" class="edge">
<title>Node2&#45;&gt;Node9</title>
<g id="a_edge9_Node000002_Node000009"><a xlink:title=" ">
<path fill="none" stroke="#63b8ff" d="M168.22,-219.98C143.77,-211.23 105.47,-197.51 77.85,-187.62"/>
<polygon fill="#63b8ff" stroke="#63b8ff" points="78.81,-184.25 68.21,-184.17 76.45,-190.84 78.81,-184.25"/>
</a>
</g>
</g>
<!-- Node4 -->
<g id="Node000004" class="node">
<title>Node4</title>
<g id="a_Node000004"><a xlink:title=" ">
<polygon fill="#e0e0e0" stroke="#999999" points="710.5,-129 665.5,-129 665.5,-110 710.5,-110 710.5,-129"/>
<text text-anchor="middle" x="688" y="-117" font-family="Helvetica,sans-Serif" font-size="10.00">utility</text>
</a>
</g>
</g>
<!-- Node3&#45;&gt;Node4 -->
<g id="edge3_Node000003_Node000004" class="edge">
<title>Node3&#45;&gt;Node4</title>
<g id="a_edge3_Node000003_Node000004"><a xlink:title=" ">
<path fill="none" stroke="#63b8ff" d="M574.69,-164.98C596.8,-156.3 631.32,-142.75 656.45,-132.88"/>
<polygon fill="#63b8ff" stroke="#63b8ff" points="657.89,-136.08 665.92,-129.17 655.33,-129.57 657.89,-136.08"/>
</a>
</g>
</g>
<!-- Node5 -->
<g id="Node000005" class="node">
<title>Node5</title>
<g id="a_Node000005"><a xlink:title=" ">
<polygon fill="#e0e0e0" stroke="#999999" points="647.5,-129 600.5,-129 600.5,-110 647.5,-110 647.5,-129"/>
<text text-anchor="middle" x="624" y="-117" font-family="Helvetica,sans-Serif" font-size="10.00">vector</text>
</a>
</g>
</g>
<!-- Node3&#45;&gt;Node5 -->
<g id="edge4_Node000003_Node000005" class="edge">
<title>Node3&#45;&gt;Node5</title>
<g id="a_edge4_Node000003_Node000005"><a xlink:title=" ">
<path fill="none" stroke="#63b8ff" d="M564.41,-164.98C575.11,-157 591.34,-144.88 604.16,-135.31"/>
<polygon fill="#63b8ff" stroke="#63b8ff" points="606.47,-137.96 612.39,-129.17 602.28,-132.35 606.47,-137.96"/>
</a>
</g>
</g>
<!-- Node6 -->
<g id="Node000006" class="node">
<title>Node6</title>
<g id="a_Node000006"><a xlink:href="Enemy_8hpp.html" target="_top" xlink:title=" ">
<polygon fill="white" stroke="#666666" points="357,-129 281,-129 281,-110 357,-110 357,-129"/>
<text text-anchor="middle" x="319" y="-117" font-family="Helvetica,sans-Serif" font-size="10.00">./Enemy.hpp</text>
</a>
</g>
</g>
<!-- Node3&#45;&gt;Node6 -->
<g id="edge5_Node000003_Node000006" class="edge">
<title>Node3&#45;&gt;Node6</title>
<g id="a_edge5_Node000003_Node000006"><a xlink:title=" ">
<path fill="none" stroke="#63b8ff" d="M515.4,-164.98C475.01,-155.84 410.72,-141.27 366.77,-131.32"/>
<polygon fill="#63b8ff" stroke="#63b8ff" points="367.42,-127.88 356.89,-129.08 365.87,-134.7 367.42,-127.88"/>
</a>
</g>
</g>
<!-- Node6&#45;&gt;Node7 -->
<g id="edge6_Node000006_Node000007" class="edge">
<title>Node6&#45;&gt;Node7</title>
<g id="a_edge6_Node000006_Node000007"><a xlink:title=" ">
<path fill="none" stroke="#63b8ff" d="M323.3,-109.67C330.78,-95.38 347.65,-67.54 371,-55 432.44,-22.02 628.2,-13.44 736.75,-11.23"/>
<polygon fill="#63b8ff" stroke="#63b8ff" points="737.04,-14.73 746.97,-11.04 736.91,-7.73 737.04,-14.73"/>
</a>
</g>
</g>
<!-- Node10&#45;&gt;Node3 -->
<g id="edge20_Node000010_Node000003" class="edge">
<title>Node10&#45;&gt;Node3</title>
<g id="a_edge20_Node000010_Node000003"><a xlink:title=" ">
<path fill="none" stroke="#63b8ff" d="M869.43,-219.98C802.47,-210.57 694.75,-195.43 623.91,-185.47"/>
<polygon fill="#63b8ff" stroke="#63b8ff" points="624.12,-181.96 613.73,-184.04 623.15,-188.9 624.12,-181.96"/>
</a>
</g>
</g>
<!-- Node10&#45;&gt;Node4 -->
<g id="edge13_Node000010_Node000004" class="edge">
<title>Node10&#45;&gt;Node4</title>
<g id="a_edge13_Node000010_Node000004"><a xlink:title=" ">
<path fill="none" stroke="#63b8ff" d="M860.76,-222.47C803.89,-216.14 729.22,-204.23 707,-184 694.65,-172.75 690.19,-153.84 688.65,-139.57"/>
<polygon fill="#63b8ff" stroke="#63b8ff" points="692.13,-139.1 687.95,-129.36 685.15,-139.58 692.13,-139.1"/>
</a>
</g>
</g>
<!-- Node10&#45;&gt;Node5 -->
<g id="edge14_Node000010_Node000005" class="edge">
<title>Node10&#45;&gt;Node5</title>
<g id="a_edge14_Node000010_Node000005"><a xlink:title=" ">
<path fill="none" stroke="#63b8ff" d="M860.83,-225.79C811.49,-221.48 744.8,-210.69 692,-184 669.59,-172.67 649.31,-151.68 636.85,-136.94"/>
<polygon fill="#63b8ff" stroke="#63b8ff" points="639.49,-134.64 630.46,-129.11 634.07,-139.07 639.49,-134.64"/>
</a>
</g>
</g>
<!-- Node10&#45;&gt;Node6 -->
<g id="edge19_Node000010_Node000006" class="edge">
<title>Node10&#45;&gt;Node6</title>
<g id="a_edge19_Node000010_Node000006"><a xlink:title=" ">
<path fill="none" stroke="#63b8ff" d="M860.8,-228.91C702.67,-229.13 325.51,-225.26 287,-184 274.19,-170.27 287.9,-150.43 301.15,-136.59"/>
<polygon fill="#63b8ff" stroke="#63b8ff" points="303.97,-138.72 308.68,-129.23 299.08,-133.72 303.97,-138.72"/>
</a>
</g>
</g>
<!-- Node10&#45;&gt;Node7 -->
<g id="edge48_Node000010_Node000007" class="edge">
<title>Node10&#45;&gt;Node7</title>
<g id="a_edge48_Node000010_Node000007"><a xlink:title=" ">
<path fill="none" stroke="#63b8ff" d="M999.12,-227.52C1199.74,-224.34 1769.65,-212.79 1797,-184 1802.82,-177.88 1801.96,-171.83 1797,-165 1750.59,-101.09 1704.13,-131.07 1628,-110 1522.53,-80.82 1496.18,-71.47 1388,-55 1208.85,-27.72 995.71,-16.79 885.42,-12.71"/>
<polygon fill="#63b8ff" stroke="#63b8ff" points="885.51,-9.21 875.39,-12.35 885.26,-16.21 885.51,-9.21"/>
</a>
</g>
</g>
<!-- Node10&#45;&gt;Node8 -->
<g id="edge46_Node000010_Node000008" class="edge">
<title>Node10&#45;&gt;Node8</title>
<g id="a_edge46_Node000010_Node000008"><a xlink:title=" ">
<path fill="none" stroke="#63b8ff" d="M860.77,-225.56C738.22,-219.99 475.16,-206.41 254,-184 252.72,-183.87 251.43,-183.74 250.13,-183.59"/>
<polygon fill="#63b8ff" stroke="#63b8ff" points="250.36,-180.1 240.02,-182.42 249.56,-187.05 250.36,-180.1"/>
</a>
</g>
</g>
<!-- Node11 -->
<g id="Node000011" class="node">
<title>Node11</title>
<g id="a_Node000011"><a xlink:title=" ">
<polygon fill="#e0e0e0" stroke="#999999" points="1120,-184 1060,-184 1060,-165 1120,-165 1120,-184"/>
<text text-anchor="middle" x="1090" y="-172" font-family="Helvetica,sans-Serif" font-size="10.00">iostream</text>
</a>
</g>
</g>
<!-- Node10&#45;&gt;Node11 -->
<g id="edge11_Node000010_Node000011" class="edge">
<title>Node10&#45;&gt;Node11</title>
<g id="a_edge11_Node000010_Node000011"><a xlink:title=" ">
<path fill="none" stroke="#63b8ff" d="M955.71,-219.98C982.45,-211.13 1024.53,-197.19 1054.45,-187.28"/>
<polygon fill="#63b8ff" stroke="#63b8ff" points="1055.7,-190.55 1064.09,-184.08 1053.5,-183.9 1055.7,-190.55"/>
</a>
</g>
</g>
<!-- Node12 -->
<g id="Node000012" class="node">
<title>Node12</title>
<g id="a_Node000012"><a xlink:title=" ">
<polygon fill="#e0e0e0" stroke="#999999" points="1182,-184 1138,-184 1138,-165 1182,-165 1182,-184"/>
<text text-anchor="middle" x="1160" y="-172" font-family="Helvetica,sans-Serif" font-size="10.00">string</text>
</a>
</g>
</g>
<!-- Node10&#45;&gt;Node12 -->
<g id="edge12_Node000010_Node000012" class="edge">
<title>Node10&#45;&gt;Node12</title>
<g id="a_edge12_Node000010_Node000012"><a xlink:title=" ">
<path fill="none" stroke="#63b8ff" d="M970.91,-219.95C1009.11,-211.83 1067.93,-198.99 1127.7,-184.24"/>
<polygon fill="#63b8ff" stroke="#63b8ff" points="1128.82,-187.56 1137.68,-181.76 1127.13,-180.77 1128.82,-187.56"/>
</a>
</g>
</g>
<!-- Node13 -->
<g id="Node000013" class="node">
<title>Node13</title>
<g id="a_Node000013"><a xlink:href="Items_8hpp.html" target="_top" xlink:title=" ">
<polygon fill="white" stroke="#666666" points="1310,-184 1200,-184 1200,-165 1310,-165 1310,-184"/>
<text text-anchor="middle" x="1255" y="-172" font-family="Helvetica,sans-Serif" font-size="10.00">Collision/Items.hpp</text>
</a>
</g>
</g>
<!-- Node10&#45;&gt;Node13 -->
<g id="edge15_Node000010_Node000013" class="edge">
<title>Node10&#45;&gt;Node13</title>
<g id="a_edge15_Node000010_Node000013"><a xlink:title=" ">
<path fill="none" stroke="#63b8ff" d="M982.22,-219.98C1039.58,-210.63 1131.67,-195.61 1192.74,-185.65"/>
<polygon fill="#63b8ff" stroke="#63b8ff" points="1193.34,-189.1 1202.64,-184.04 1192.21,-182.19 1193.34,-189.1"/>
</a>
</g>
</g>
<!-- Node14 -->
<g id="Node000014" class="node">
<title>Node14</title>
<g id="a_Node000014"><a xlink:href="Boss_8hpp.html" target="_top" xlink:title=" ">
<polygon fill="white" stroke="#666666" points="582.5,-129 487.5,-129 487.5,-110 582.5,-110 582.5,-129"/>
<text text-anchor="middle" x="535" y="-117" font-family="Helvetica,sans-Serif" font-size="10.00">Player/Boss.hpp</text>
</a>
</g>
</g>
<!-- Node10&#45;&gt;Node14 -->
<g id="edge16_Node000010_Node000014" class="edge">
<title>Node10&#45;&gt;Node14</title>
<g id="a_edge16_Node000010_Node000014"><a xlink:title=" ">
<path fill="none" stroke="#63b8ff" d="M860.87,-226.75C739.95,-222.97 500.39,-212 475,-184 459.06,-166.42 485.01,-146.62 507.6,-133.87"/>
<polygon fill="#63b8ff" stroke="#63b8ff" points="509.47,-136.83 516.63,-129.02 506.17,-130.67 509.47,-136.83"/>
</a>
</g>
</g>
<!-- Node16 -->
<g id="Node000016" class="node">
<title>Node16</title>
<g id="a_Node000016"><a xlink:href="PlayerEntity_8hpp.html" target="_top" xlink:title=" ">
<polygon fill="white" stroke="#666666" points="1041.5,-184 912.5,-184 912.5,-165 1041.5,-165 1041.5,-184"/>
<text text-anchor="middle" x="977" y="-172" font-family="Helvetica,sans-Serif" font-size="10.00">Player/PlayerEntity.hpp</text>
</a>
</g>
</g>
<!-- Node10&#45;&gt;Node16 -->
<g id="edge21_Node000010_Node000016" class="edge">
<title>Node10&#45;&gt;Node16</title>
<g id="a_edge21_Node000010_Node000016"><a xlink:title=" ">
<path fill="none" stroke="#63b8ff" d="M937.76,-219.75C944.47,-212.18 954.34,-201.05 962.51,-191.84"/>
<polygon fill="#63b8ff" stroke="#63b8ff" points="965.37,-193.89 969.38,-184.09 960.13,-189.25 965.37,-193.89"/>
</a>
</g>
</g>
<!-- Node20 -->
<g id="Node000020" class="node">
<title>Node20</title>
<g id="a_Node000020"><a xlink:href="Projectile_8hpp.html" target="_top" xlink:title=" ">
<polygon fill="white" stroke="#666666" points="960,-74 780,-74 780,-55 960,-55 960,-74"/>
<text text-anchor="middle" x="870" y="-62" font-family="Helvetica,sans-Serif" font-size="10.00">components/Player/Projectile.hpp</text>
</a>
</g>
</g>
<!-- Node10&#45;&gt;Node20 -->
<g id="edge29_Node000010_Node000020" class="edge">
<title>Node10&#45;&gt;Node20</title>
<g id="a_edge29_Node000010_Node000020"><a xlink:title=" ">
<path fill="none" stroke="#63b8ff" d="M924.38,-219.87C918.8,-211.07 910.19,-196.91 904,-184 892.7,-160.4 890.31,-154.12 883,-129 878.67,-114.13 875.24,-96.88 872.99,-84.12"/>
<polygon fill="#63b8ff" stroke="#63b8ff" points="876.44,-83.52 871.33,-74.24 869.53,-84.68 876.44,-83.52"/>
</a>
</g>
</g>
<!-- Node21 -->
<g id="Node000021" class="node">
<title>Node21</title>
<g id="a_Node000021"><a xlink:href="BossPart_8hpp.html" target="_top" xlink:title=" ">
<polygon fill="white" stroke="#666666" points="1473.5,-129 1330.5,-129 1330.5,-110 1473.5,-110 1473.5,-129"/>
<text text-anchor="middle" x="1402" y="-117" font-family="Helvetica,sans-Serif" font-size="10.00">components/BossPart.hpp</text>
</a>
</g>
</g>
<!-- Node10&#45;&gt;Node21 -->
<g id="edge30_Node000010_Node000021" class="edge">
<title>Node10&#45;&gt;Node21</title>
<g id="a_edge30_Node000010_Node000021"><a xlink:title=" ">
<path fill="none" stroke="#63b8ff" d="M999.1,-227.36C1194.04,-223.82 1735.91,-211.52 1762,-184 1767.81,-177.87 1767.59,-171.33 1762,-165 1757.41,-159.81 1588.72,-140.69 1483.91,-129.27"/>
<polygon fill="#63b8ff" stroke="#63b8ff" points="1483.98,-125.76 1473.66,-128.16 1483.23,-132.72 1483.98,-125.76"/>
</a>
</g>
</g>
<!-- Node22 -->
<g id="Node000022" class="node">
<title>Node22</title>
<g id="a_Node000022"><a xlink:href="Force_8hpp.html" target="_top" xlink:title=" ">
<polygon fill="white" stroke="#666666" points="1618.5,-129 1491.5,-129 1491.5,-110 1618.5,-110 1618.5,-129"/>
<text text-anchor="middle" x="1555" y="-117" font-family="Helvetica,sans-Serif" font-size="10.00">components/Force.hpp</text>
</a>
</g>
</g>
<!-- Node10&#45;&gt;Node22 -->
<g id="edge33_Node000010_Node000022" class="edge">
<title>Node10&#45;&gt;Node22</title>
<g id="a_edge33_Node000010_Node000022"><a xlink:title=" ">
<path fill="none" stroke="#63b8ff" d="M999.01,-227.44C1196.48,-224.06 1751.33,-212.11 1778,-184 1825.28,-134.17 1710.46,-122.56 1628.63,-120.35"/>
<polygon fill="#63b8ff" stroke="#63b8ff" points="1628.65,-116.85 1618.57,-120.12 1628.49,-123.85 1628.65,-116.85"/>
</a>
</g>
</g>
<!-- Node23 -->
<g id="Node000023" class="node">
<title>Node23</title>
<g id="a_Node000023"><a xlink:href="Levels_8hpp.html" target="_top" xlink:title=" ">
<polygon fill="white" stroke="#666666" points="428,-184 296,-184 296,-165 428,-165 428,-184"/>
<text text-anchor="middle" x="362" y="-172" font-family="Helvetica,sans-Serif" font-size="10.00">components/Levels.hpp</text>
</a>
</g>
</g>
<!-- Node10&#45;&gt;Node23 -->
<g id="edge36_Node000010_Node000023" class="edge">
<title>Node10&#45;&gt;Node23</title>
<g id="a_edge36_Node000010_Node000023"><a xlink:title=" ">
<path fill="none" stroke="#63b8ff" d="M860.87,-222.52C766.28,-214.27 591.22,-198.73 442,-184 440.89,-183.89 439.77,-183.78 438.64,-183.67"/>
<polygon fill="#63b8ff" stroke="#63b8ff" points="438.65,-180.15 428.35,-182.63 437.94,-187.11 438.65,-180.15"/>
</a>
</g>
</g>
<!-- Node25 -->
<g id="Node000025" class="node">
<title>Node25</title>
<g id="a_Node000025"><a xlink:href="TileMap_8hpp.html" target="_top" xlink:title=" ">
<polygon fill="white" stroke="#666666" points="856,-184 716,-184 716,-165 856,-165 856,-184"/>
<text text-anchor="middle" x="786" y="-172" font-family="Helvetica,sans-Serif" font-size="10.00">components/TileMap.hpp</text>
</a>
</g>
</g>
<!-- Node10&#45;&gt;Node25 -->
<g id="edge42_Node000010_Node000025" class="edge">
<title>Node10&#45;&gt;Node25</title>
<g id="a_edge42_Node000010_Node000025"><a xlink:title=" ">
<path fill="none" stroke="#63b8ff" d="M906.86,-219.98C883.18,-211.27 846.13,-197.63 819.29,-187.75"/>
<polygon fill="#63b8ff" stroke="#63b8ff" points="820.15,-184.34 809.56,-184.17 817.73,-190.91 820.15,-184.34"/>
</a>
</g>
</g>
<!-- Node27 -->
<g id="Node000027" class="node">
<title>Node27</title>
<g id="a_Node000027"><a xlink:title=" ">
<polygon fill="#e0e0e0" stroke="#999999" points="1472,-184 1328,-184 1328,-165 1472,-165 1472,-184"/>
<text text-anchor="middle" x="1400" y="-172" font-family="Helvetica,sans-Serif" font-size="10.00">input/InputSubsystem.hpp</text>
</a>
</g>
</g>
<!-- Node10&#45;&gt;Node27 -->
<g id="edge47_Node000010_Node000027" class="edge">
<title>Node10&#45;&gt;Node27</title>
<g id="a_edge47_Node000010_Node000027"><a xlink:title=" ">
<path fill="none" stroke="#63b8ff" d="M999.1,-220.71C1083.86,-211.15 1227.4,-194.96 1317.76,-184.77"/>
<polygon fill="#63b8ff" stroke="#63b8ff" points="1318.42,-188.22 1327.97,-183.62 1317.64,-181.27 1318.42,-188.22"/>
</a>
</g>
</g>
<!-- Node28 -->
<g id="Node000028" class="node">
<title>Node28</title>
<g id="a_Node000028"><a xlink:title=" ">
<polygon fill="#e0e0e0" stroke="#999999" points="1681.5,-184 1490.5,-184 1490.5,-165 1681.5,-165 1681.5,-184"/>
<text text-anchor="middle" x="1586" y="-172" font-family="Helvetica,sans-Serif" font-size="10.00">rendering/RenderingSubsystem.hpp</text>
</a>
</g>
</g>
<!-- Node10&#45;&gt;Node28 -->
<g id="edge49_Node000010_Node000028" class="edge">
<title>Node10&#45;&gt;Node28</title>
<g id="a_edge49_Node000010_Node000028"><a xlink:title=" ">
<path fill="none" stroke="#63b8ff" d="M999.15,-222.92C1101.61,-214.65 1300.08,-198.63 1480.23,-184.06"/>
<polygon fill="#63b8ff" stroke="#63b8ff" points="1480.75,-187.53 1490.43,-183.24 1480.18,-180.55 1480.75,-187.53"/>
</a>
</g>
</g>
<!-- Node29 -->
<g id="Node000029" class="node">
<title>Node29</title>
<g id="a_Node000029"><a xlink:title=" ">
<polygon fill="#e0e0e0" stroke="#999999" points="1752.5,-184 1699.5,-184 1699.5,-165 1752.5,-165 1752.5,-184"/>
<text text-anchor="middle" x="1726" y="-172" font-family="Helvetica,sans-Serif" font-size="10.00">stdlib.h</text>
</a>
</g>
</g>
<!-- Node10&#45;&gt;Node29 -->
<g id="edge50_Node000010_Node000029" class="edge">
<title>Node10&#45;&gt;Node29</title>
<g id="a_edge50_Node000010_Node000029"><a xlink:title=" ">
<path fill="none" stroke="#63b8ff" d="M999.16,-228.6C1131.64,-227.9 1430.34,-221.95 1689.37,-183.98"/>
<polygon fill="#63b8ff" stroke="#63b8ff" points="1689.97,-187.43 1699.34,-182.5 1688.94,-180.5 1689.97,-187.43"/>
</a>
</g>
</g>
<!-- Node14&#45;&gt;Node7 -->
<g id="edge17_Node000014_Node000007" class="edge">
<title>Node14&#45;&gt;Node7</title>
<g id="a_edge17_Node000014_Node000007"><a xlink:title=" ">
<path fill="none" stroke="#63b8ff" d="M557.12,-109.84C605.99,-90.72 723.29,-44.82 779.69,-22.75"/>
<polygon fill="#63b8ff" stroke="#63b8ff" points="781.12,-25.95 789.16,-19.05 778.57,-19.43 781.12,-25.95"/>
</a>
</g>
</g>
<!-- Node15 -->
<g id="Node000015" class="node">
<title>Node15</title>
<g id="a_Node000015"><a xlink:title=" ">
<polygon fill="#e0e0e0" stroke="#999999" points="1294,-74 1210,-74 1210,-55 1294,-55 1294,-74"/>
<text text-anchor="middle" x="1252" y="-62" font-family="Helvetica,sans-Serif" font-size="10.00">ecs/Entity.hpp</text>
</a>
</g>
</g>
<!-- Node14&#45;&gt;Node15 -->
<g id="edge18_Node000014_Node000015" class="edge">
<title>Node14&#45;&gt;Node15</title>
<g id="a_edge18_Node000014_Node000015"><a xlink:title=" ">
<path fill="none" stroke="#63b8ff" d="M582.62,-111C585.45,-110.63 588.26,-110.3 591,-110 816.91,-85.29 1087.85,-72.22 1199.74,-67.53"/>
<polygon fill="#63b8ff" stroke="#63b8ff" points="1199.9,-71.03 1209.75,-67.12 1199.61,-64.04 1199.9,-71.03"/>
</a>
</g>
</g>
<!-- Node16&#45;&gt;Node7 -->
<g id="edge28_Node000016_Node000007" class="edge">
<title>Node16&#45;&gt;Node7</title>
<g id="a_edge28_Node000016_Node000007"><a xlink:title=" ">
<path fill="none" stroke="#63b8ff" d="M986.61,-164.69C994.87,-156.41 1006.2,-143.18 1011,-129 1023.12,-93.18 1000.28,-76.25 969,-55 944.22,-38.17 913.15,-27.66 885.14,-21.12"/>
<polygon fill="#63b8ff" stroke="#63b8ff" points="885.89,-17.7 875.38,-18.96 884.39,-24.53 885.89,-17.7"/>
</a>
</g>
</g>
<!-- Node17 -->
<g id="Node000017" class="node">
<title>Node17</title>
<g id="a_Node000017"><a xlink:title=" ">
<polygon fill="#e0e0e0" stroke="#999999" points="1122,-129 1058,-129 1058,-110 1122,-110 1122,-129"/>
<text text-anchor="middle" x="1090" y="-117" font-family="Helvetica,sans-Serif" font-size="10.00">algorithm</text>
</a>
</g>
</g>
<!-- Node16&#45;&gt;Node17 -->
<g id="edge22_Node000016_Node000017" class="edge">
<title>Node16&#45;&gt;Node17</title>
<g id="a_edge22_Node000016_Node000017"><a xlink:title=" ">
<path fill="none" stroke="#63b8ff" d="M995.16,-164.98C1013.25,-156.5 1041.28,-143.35 1062.19,-133.54"/>
<polygon fill="#63b8ff" stroke="#63b8ff" points="1063.95,-136.59 1071.51,-129.17 1060.97,-130.25 1063.95,-136.59"/>
</a>
</g>
</g>
<!-- Node18 -->
<g id="Node000018" class="node">
<title>Node18</title>
<g id="a_Node000018"><a xlink:href="CollisionController_8hpp.html" target="_top" xlink:title=" ">
<polygon fill="white" stroke="#666666" points="1312,-129 1140,-129 1140,-110 1312,-110 1312,-129"/>
<text text-anchor="middle" x="1226" y="-117" font-family="Helvetica,sans-Serif" font-size="10.00">Collision/CollisionController.hpp</text>
</a>
</g>
</g>
<!-- Node16&#45;&gt;Node18 -->
<g id="edge23_Node000016_Node000018" class="edge">
<title>Node16&#45;&gt;Node18</title>
<g id="a_edge23_Node000016_Node000018"><a xlink:title=" ">
<path fill="none" stroke="#63b8ff" d="M1017.01,-164.98C1060.17,-155.8 1128.98,-141.15 1175.76,-131.19"/>
<polygon fill="#63b8ff" stroke="#63b8ff" points="1176.63,-134.59 1185.68,-129.08 1175.17,-127.74 1176.63,-134.59"/>
</a>
</g>
</g>
<!-- Node19 -->
<g id="Node000019" class="node">
<title>Node19</title>
<g id="a_Node000019"><a xlink:href="Weapon_8hpp.html" target="_top" xlink:title=" ">
<polygon fill="white" stroke="#666666" points="1002,-129 892,-129 892,-110 1002,-110 1002,-129"/>
<text text-anchor="middle" x="947" y="-117" font-family="Helvetica,sans-Serif" font-size="10.00">Player/Weapon.hpp</text>
</a>
</g>
</g>
<!-- Node16&#45;&gt;Node19 -->
<g id="edge25_Node000016_Node000019" class="edge">
<title>Node16&#45;&gt;Node19</title>
<g id="a_edge25_Node000016_Node000019"><a xlink:title=" ">
<path fill="none" stroke="#63b8ff" d="M972.05,-164.75C967.94,-157.49 961.97,-146.95 956.9,-137.98"/>
<polygon fill="#63b8ff" stroke="#63b8ff" points="959.83,-136.07 951.86,-129.09 953.74,-139.52 959.83,-136.07"/>
</a>
</g>
</g>
<!-- Node18&#45;&gt;Node15 -->
<g id="edge24_Node000018_Node000015" class="edge">
<title>Node18&#45;&gt;Node15</title>
<g id="a_edge24_Node000018_Node000015"><a xlink:title=" ">
<path fill="none" stroke="#63b8ff" d="M1230.29,-109.75C1233.81,-102.57 1238.91,-92.18 1243.28,-83.27"/>
<polygon fill="#63b8ff" stroke="#63b8ff" points="1246.52,-84.61 1247.79,-74.09 1240.24,-81.53 1246.52,-84.61"/>
</a>
</g>
</g>
<!-- Node19&#45;&gt;Node20 -->
<g id="edge26_Node000019_Node000020" class="edge">
<title>Node19&#45;&gt;Node20</title>
<g id="a_edge26_Node000019_Node000020"><a xlink:title=" ">
<path fill="none" stroke="#63b8ff" d="M934.63,-109.98C922.91,-101.92 905.08,-89.65 891.11,-80.03"/>
<polygon fill="#63b8ff" stroke="#63b8ff" points="892.82,-76.96 882.6,-74.17 888.85,-82.72 892.82,-76.96"/>
</a>
</g>
</g>
<!-- Node20&#45;&gt;Node7 -->
<g id="edge27_Node000020_Node000007" class="edge">
<title>Node20&#45;&gt;Node7</title>
<g id="a_edge27_Node000020_Node000007"><a xlink:title=" ">
<path fill="none" stroke="#63b8ff" d="M860.52,-54.98C851.8,-47.15 838.66,-35.34 828.1,-25.86"/>
<polygon fill="#63b8ff" stroke="#63b8ff" points="830.43,-23.25 820.65,-19.17 825.75,-28.46 830.43,-23.25"/>
</a>
</g>
</g>
<!-- Node21&#45;&gt;Node7 -->
<g id="edge31_Node000021_Node000007" class="edge">
<title>Node21&#45;&gt;Node7</title>
<g id="a_edge31_Node000021_Node000007"><a xlink:title=" ">
<path fill="none" stroke="#63b8ff" d="M1392.17,-109.85C1375.3,-95.56 1339.12,-67.38 1303,-55 1227.71,-29.19 1003.01,-17.42 885.09,-12.89"/>
<polygon fill="#63b8ff" stroke="#63b8ff" points="885.19,-9.39 875.06,-12.51 884.92,-16.39 885.19,-9.39"/>
</a>
</g>
</g>
<!-- Node21&#45;&gt;Node15 -->
<g id="edge32_Node000021_Node000015" class="edge">
<title>Node21&#45;&gt;Node15</title>
<g id="a_edge32_Node000021_Node000015"><a xlink:title=" ">
<path fill="none" stroke="#63b8ff" d="M1377.9,-109.98C1353.12,-101.23 1314.3,-87.51 1286.31,-77.62"/>
<polygon fill="#63b8ff" stroke="#63b8ff" points="1287.13,-74.2 1276.54,-74.17 1284.8,-80.8 1287.13,-74.2"/>
</a>
</g>
</g>
<!-- Node22&#45;&gt;Node7 -->
<g id="edge35_Node000022_Node000007" class="edge">
<title>Node22&#45;&gt;Node7</title>
<g id="a_edge35_Node000022_Node000007"><a xlink:title=" ">
<path fill="none" stroke="#63b8ff" d="M1531.28,-109.98C1491.35,-96.02 1407.9,-68.48 1335,-55 1176.6,-25.71 987.63,-15.65 885.48,-12.23"/>
<polygon fill="#63b8ff" stroke="#63b8ff" points="885.37,-8.73 875.26,-11.91 885.14,-15.73 885.37,-8.73"/>
</a>
</g>
</g>
<!-- Node22&#45;&gt;Node15 -->
<g id="edge34_Node000022_Node000015" class="edge">
<title>Node22&#45;&gt;Node15</title>
<g id="a_edge34_Node000022_Node000015"><a xlink:title=" ">
<path fill="none" stroke="#63b8ff" d="M1506.32,-109.98C1451.04,-100.32 1361.19,-84.6 1304.41,-74.67"/>
<polygon fill="#63b8ff" stroke="#63b8ff" points="1304.66,-71.16 1294.21,-72.88 1303.46,-78.05 1304.66,-71.16"/>
</a>
</g>
</g>
<!-- Node23&#45;&gt;Node5 -->
<g id="edge38_Node000023_Node000005" class="edge">
<title>Node23&#45;&gt;Node5</title>
<g id="a_edge38_Node000023_Node000005"><a xlink:title=" ">
<path fill="none" stroke="#63b8ff" d="M410.43,-164.96C454.72,-156.96 522.27,-144.26 590.22,-129.06"/>
<polygon fill="#63b8ff" stroke="#63b8ff" points="591.26,-132.41 600.25,-126.8 589.72,-125.59 591.26,-132.41"/>
</a>
</g>
</g>
<!-- Node23&#45;&gt;Node6 -->
<g id="edge40_Node000023_Node000006" class="edge">
<title>Node23&#45;&gt;Node6</title>
<g id="a_edge40_Node000023_Node000006"><a xlink:title=" ">
<path fill="none" stroke="#63b8ff" d="M354.9,-164.75C348.83,-157.26 339.91,-146.28 332.49,-137.13"/>
<polygon fill="#63b8ff" stroke="#63b8ff" points="334.99,-134.65 325.97,-129.09 329.55,-139.06 334.99,-134.65"/>
</a>
</g>
</g>
<!-- Node23&#45;&gt;Node7 -->
<g id="edge41_Node000023_Node000007" class="edge">
<title>Node23&#45;&gt;Node7</title>
<g id="a_edge41_Node000023_Node000007"><a xlink:title=" ">
<path fill="none" stroke="#63b8ff" d="M365.38,-164.58C371.11,-150.68 384.11,-123.99 404,-110 504.58,-39.24 649.81,-18.55 736.85,-12.65"/>
<polygon fill="#63b8ff" stroke="#63b8ff" points="737.15,-16.14 746.91,-12.02 736.71,-9.15 737.15,-16.14"/>
</a>
</g>
</g>
<!-- Node23&#45;&gt;Node14 -->
<g id="edge39_Node000023_Node000014" class="edge">
<title>Node23&#45;&gt;Node14</title>
<g id="a_edge39_Node000023_Node000014"><a xlink:title=" ">
<path fill="none" stroke="#63b8ff" d="M389.8,-164.98C418.97,-156.05 465,-141.94 497.4,-132.02"/>
<polygon fill="#63b8ff" stroke="#63b8ff" points="498.45,-135.36 506.99,-129.08 496.4,-128.66 498.45,-135.36"/>
</a>
</g>
</g>
<!-- Node24 -->
<g id="Node000024" class="node">
<title>Node24</title>
<g id="a_Node000024"><a xlink:title=" ">
<polygon fill="#e0e0e0" stroke="#999999" points="469,-129 413,-129 413,-110 469,-110 469,-129"/>
<text text-anchor="middle" x="441" y="-117" font-family="Helvetica,sans-Serif" font-size="10.00">optional</text>
</a>
</g>
</g>
<!-- Node23&#45;&gt;Node24 -->
<g id="edge37_Node000023_Node000024" class="edge">
<title>Node23&#45;&gt;Node24</title>
<g id="a_edge37_Node000023_Node000024"><a xlink:title=" ">
<path fill="none" stroke="#63b8ff" d="M374.69,-164.98C386.83,-156.84 405.36,-144.41 419.75,-134.76"/>
<polygon fill="#63b8ff" stroke="#63b8ff" points="421.72,-137.65 428.08,-129.17 417.82,-131.84 421.72,-137.65"/>
</a>
</g>
</g>
<!-- Node25&#45;&gt;Node5 -->
<g id="edge44_Node000025_Node000005" class="edge">
<title>Node25&#45;&gt;Node5</title>
<g id="a_edge44_Node000025_Node000005"><a xlink:title=" ">
<path fill="none" stroke="#63b8ff" d="M759.97,-164.98C732.09,-155.86 687.75,-141.36 657.33,-131.4"/>
<polygon fill="#63b8ff" stroke="#63b8ff" points="658.19,-128 647.59,-128.22 656.01,-134.65 658.19,-128"/>
</a>
</g>
</g>
<!-- Node25&#45;&gt;Node7 -->
<g id="edge45_Node000025_Node000007" class="edge">
<title>Node25&#45;&gt;Node7</title>
<g id="a_edge45_Node000025_Node000007"><a xlink:title=" ">
<path fill="none" stroke="#63b8ff" d="M782.15,-164.83C773.84,-144.77 756.08,-93.92 771,-55 775.24,-43.94 783.64,-33.91 791.64,-26.18"/>
<polygon fill="#63b8ff" stroke="#63b8ff" points="794.25,-28.55 799.36,-19.27 789.58,-23.33 794.25,-28.55"/>
</a>
</g>
</g>
<!-- Node26 -->
<g id="Node000026" class="node">
<title>Node26</title>
<g id="a_Node000026"><a xlink:title=" ">
<polygon fill="#e0e0e0" stroke="#999999" points="830,-129 780,-129 780,-110 830,-110 830,-129"/>
<text text-anchor="middle" x="805" y="-117" font-family="Helvetica,sans-Serif" font-size="10.00">cstdint</text>
</a>
</g>
</g>
<!-- Node25&#45;&gt;Node26 -->
<g id="edge43_Node000025_Node000026" class="edge">
<title>Node25&#45;&gt;Node26</title>
<g id="a_edge43_Node000025_Node000026"><a xlink:title=" ">
<path fill="none" stroke="#63b8ff" d="M789.14,-164.75C791.68,-157.65 795.36,-147.4 798.53,-138.56"/>
<polygon fill="#63b8ff" stroke="#63b8ff" points="801.84,-139.68 801.92,-129.09 795.25,-137.32 801.84,-139.68"/>
</a>
</g>
</g>
</g>
</svg>
