<?xml version="1.0" encoding="UTF-8" standalone="no"?>
<!DOCTYPE svg PUBLIC "-//W3C//DTD SVG 1.1//EN"
 "http://www.w3.org/Graphics/SVG/1.1/DTD/svg11.dtd">
<!-- Generated by graphviz version 2.43.0 (0)
 -->
<!-- Title: /home/runner/work/R&#45;Type/R&#45;Type/Shared/systems/SpawnEnemy/Spawn.cpp Pages: 1 -->
<svg width="1930pt" height="379pt"
 viewBox="0.00 0.00 1930.00 379.00" xmlns="http://www.w3.org/2000/svg" xmlns:xlink="http://www.w3.org/1999/xlink">
<g id="graph0" class="graph" transform="scale(1 1) rotate(0) translate(4 375)">
<title>/home/runner/work/R&#45;Type/R&#45;Type/Shared/systems/SpawnEnemy/Spawn.cpp</title>
<!-- Node1 -->
<g id="Node000001" class="node">
<title>Node1</title>
<g id="a_Node000001"><a xlink:title=" ">
<polygon fill="#999999" stroke="#666666" points="982,-371 797,-371 797,-330 982,-330 982,-371"/>
<text text-anchor="start" x="805" y="-359" font-family="Helvetica,sans-Serif" font-size="10.00">/home/runner/work/R</text>
<text text-anchor="start" x="805" y="-348" font-family="Helvetica,sans-Serif" font-size="10.00">&#45;Type/R&#45;Type/Shared</text>
<text text-anchor="middle" x="889.5" y="-337" font-family="Helvetica,sans-Serif" font-size="10.00">/systems/SpawnEnemy/Spawn.cpp</text>
</a>
</g>
</g>
<!-- Node2 -->
<g id="Node000002" class="node">
<title>Node2</title>
<g id="a_Node000002"><a xlink:href="Spawn_8hpp.html" target="_top" xlink:title=" ">
<polygon fill="white" stroke="#666666" points="1336.5,-239 1260.5,-239 1260.5,-220 1336.5,-220 1336.5,-239"/>
<text text-anchor="middle" x="1298.5" y="-227" font-family="Helvetica,sans-Serif" font-size="10.00">./Spawn.hpp</text>
</a>
</g>
</g>
<!-- Node1&#45;&gt;Node2 -->
<g id="edge1_Node000001_Node000002" class="edge">
<title>Node1&#45;&gt;Node2</title>
<g id="a_edge1_Node000001_Node000002"><a xlink:title=" ">
<path fill="none" stroke="#63b8ff" d="M956.58,-329.98C1042.76,-304.91 1189.56,-262.2 1259.37,-241.88"/>
<polygon fill="#63b8ff" stroke="#63b8ff" points="1260.48,-245.21 1269.1,-239.05 1258.52,-238.49 1260.48,-245.21"/>
</a>
</g>
</g>
<!-- Node25 -->
<g id="Node000025" class="node">
<title>Node25</title>
<g id="a_Node000025"><a xlink:href="EntityHelper_8hpp.html" target="_top" xlink:title=" ">
<polygon fill="white" stroke="#666666" points="910.5,-294 772.5,-294 772.5,-275 910.5,-275 910.5,-294"/>
<text text-anchor="middle" x="841.5" y="-282" font-family="Helvetica,sans-Serif" font-size="10.00">Helpers/EntityHelper.hpp</text>
</a>
</g>
</g>
<!-- Node1&#45;&gt;Node25 -->
<g id="edge33_Node000001_Node000025" class="edge">
<title>Node1&#45;&gt;Node25</title>
<g id="a_edge33_Node000001_Node000025"><a xlink:title=" ">
<path fill="none" stroke="#63b8ff" d="M874.84,-329.95C868.21,-321.11 860.45,-310.77 854.09,-302.29"/>
<polygon fill="#63b8ff" stroke="#63b8ff" points="856.87,-300.16 848.07,-294.26 851.27,-304.36 856.87,-300.16"/>
</a>
</g>
</g>
<!-- Node3 -->
<g id="Node000003" class="node">
<title>Node3</title>
<g id="a_Node000003"><a xlink:href="EnemySpawn_8hpp.html" target="_top" xlink:title=" ">
<polygon fill="white" stroke="#666666" points="1876,-184 1739,-184 1739,-165 1876,-165 1876,-184"/>
<text text-anchor="middle" x="1807.5" y="-172" font-family="Helvetica,sans-Serif" font-size="10.00">Player/EnemySpawn.hpp</text>
</a>
</g>
</g>
<!-- Node2&#45;&gt;Node3 -->
<g id="edge2_Node000002_Node000003" class="edge">
<title>Node2&#45;&gt;Node3</title>
<g id="a_edge2_Node000002_Node000003"><a xlink:title=" ">
<path fill="none" stroke="#63b8ff" d="M1336.56,-224.64C1410.08,-217.18 1577,-200.15 1728.63,-184.09"/>
<polygon fill="#63b8ff" stroke="#63b8ff" points="1729.02,-187.56 1738.6,-183.03 1728.29,-180.6 1729.02,-187.56"/>
</a>
</g>
</g>
<!-- Node7 -->
<g id="Node000007" class="node">
<title>Node7</title>
<g id="a_Node000007"><a xlink:href="Physics2D_8hpp.html" target="_top" xlink:title=" ">
<polygon fill="white" stroke="#666666" points="447,-74 350,-74 350,-55 447,-55 447,-74"/>
<text text-anchor="middle" x="398.5" y="-62" font-family="Helvetica,sans-Serif" font-size="10.00">../Physics2D.hpp</text>
</a>
</g>
</g>
<!-- Node2&#45;&gt;Node7 -->
<g id="edge9_Node000002_Node000007" class="edge">
<title>Node2&#45;&gt;Node7</title>
<g id="a_edge9_Node000002_Node000007"><a xlink:title=" ">
<path fill="none" stroke="#63b8ff" d="M1260.18,-227.2C1139.5,-222.88 768.32,-207.96 650.5,-184 625.16,-178.85 620.28,-172.41 595.5,-165 533.12,-146.35 508.92,-163.18 453.5,-129 434.76,-117.44 419,-97.44 409.22,-82.97"/>
<polygon fill="#63b8ff" stroke="#63b8ff" points="412.05,-80.9 403.68,-74.4 406.17,-84.7 412.05,-80.9"/>
</a>
</g>
</g>
<!-- Node10 -->
<g id="Node000010" class="node">
<title>Node10</title>
<g id="a_Node000010"><a xlink:href="Registry_8hpp.html" target="_top" xlink:title=" ">
<polygon fill="white" stroke="#666666" points="1346.5,-184 1250.5,-184 1250.5,-165 1346.5,-165 1346.5,-184"/>
<text text-anchor="middle" x="1298.5" y="-172" font-family="Helvetica,sans-Serif" font-size="10.00">ecs/Registry.hpp</text>
</a>
</g>
</g>
<!-- Node2&#45;&gt;Node10 -->
<g id="edge10_Node000002_Node000010" class="edge">
<title>Node2&#45;&gt;Node10</title>
<g id="a_edge10_Node000002_Node000010"><a xlink:title=" ">
<path fill="none" stroke="#63b8ff" d="M1298.5,-219.75C1298.5,-212.8 1298.5,-202.85 1298.5,-194.13"/>
<polygon fill="#63b8ff" stroke="#63b8ff" points="1302,-194.09 1298.5,-184.09 1295,-194.09 1302,-194.09"/>
</a>
</g>
</g>
<!-- Node23 -->
<g id="Node000023" class="node">
<title>Node23</title>
<g id="a_Node000023"><a xlink:href="Zipper_8hpp.html" target="_top" xlink:title=" ">
<polygon fill="white" stroke="#666666" points="1702.5,-184 1614.5,-184 1614.5,-165 1702.5,-165 1702.5,-184"/>
<text text-anchor="middle" x="1658.5" y="-172" font-family="Helvetica,sans-Serif" font-size="10.00">ecs/Zipper.hpp</text>
</a>
</g>
</g>
<!-- Node2&#45;&gt;Node23 -->
<g id="edge27_Node000002_Node000023" class="edge">
<title>Node2&#45;&gt;Node23</title>
<g id="a_edge27_Node000002_Node000023"><a xlink:title=" ">
<path fill="none" stroke="#63b8ff" d="M1336.69,-222.88C1400.89,-213.43 1530.66,-194.32 1604.28,-183.48"/>
<polygon fill="#63b8ff" stroke="#63b8ff" points="1604.9,-186.93 1614.29,-182.01 1603.88,-180 1604.9,-186.93"/>
</a>
</g>
</g>
<!-- Node4 -->
<g id="Node000004" class="node">
<title>Node4</title>
<g id="a_Node000004"><a xlink:title=" ">
<polygon fill="#e0e0e0" stroke="#999999" points="1922,-74 1877,-74 1877,-55 1922,-55 1922,-74"/>
<text text-anchor="middle" x="1899.5" y="-62" font-family="Helvetica,sans-Serif" font-size="10.00">utility</text>
</a>
</g>
</g>
<!-- Node3&#45;&gt;Node4 -->
<g id="edge3_Node000003_Node000004" class="edge">
<title>Node3&#45;&gt;Node4</title>
<g id="a_edge3_Node000003_Node000004"><a xlink:title=" ">
<path fill="none" stroke="#63b8ff" d="M1858.09,-164.94C1878.9,-158.65 1901.01,-147.78 1913.5,-129 1922.65,-115.23 1916.75,-96.43 1910.02,-82.87"/>
<polygon fill="#63b8ff" stroke="#63b8ff" points="1913.07,-81.14 1905.18,-74.06 1906.93,-84.51 1913.07,-81.14"/>
</a>
</g>
</g>
<!-- Node5 -->
<g id="Node000005" class="node">
<title>Node5</title>
<g id="a_Node000005"><a xlink:title=" ">
<polygon fill="#e0e0e0" stroke="#999999" points="1584,-74 1537,-74 1537,-55 1584,-55 1584,-74"/>
<text text-anchor="middle" x="1560.5" y="-62" font-family="Helvetica,sans-Serif" font-size="10.00">vector</text>
</a>
</g>
</g>
<!-- Node3&#45;&gt;Node5 -->
<g id="edge4_Node000003_Node000005" class="edge">
<title>Node3&#45;&gt;Node5</title>
<g id="a_edge4_Node000003_Node000005"><a xlink:title=" ">
<path fill="none" stroke="#63b8ff" d="M1818.56,-164.8C1833.68,-151.89 1857.3,-127.32 1842.5,-110 1810.94,-73.07 1662.38,-66.6 1594.5,-65.6"/>
<polygon fill="#63b8ff" stroke="#63b8ff" points="1594.36,-62.1 1584.32,-65.48 1594.28,-69.1 1594.36,-62.1"/>
</a>
</g>
</g>
<!-- Node6 -->
<g id="Node000006" class="node">
<title>Node6</title>
<g id="a_Node000006"><a xlink:href="Enemy_8hpp.html" target="_top" xlink:title=" ">
<polygon fill="white" stroke="#666666" points="680.5,-129 604.5,-129 604.5,-110 680.5,-110 680.5,-129"/>
<text text-anchor="middle" x="642.5" y="-117" font-family="Helvetica,sans-Serif" font-size="10.00">./Enemy.hpp</text>
</a>
</g>
</g>
<!-- Node3&#45;&gt;Node6 -->
<g id="edge5_Node000003_Node000006" class="edge">
<title>Node3&#45;&gt;Node6</title>
<g id="a_edge5_Node000003_Node000006"><a xlink:title=" ">
<path fill="none" stroke="#63b8ff" d="M1738.62,-165.72C1735.54,-165.46 1732.49,-165.22 1729.5,-165 1301.9,-133.76 1193.64,-151.78 765.5,-129 740.85,-127.69 713.44,-125.83 690.77,-124.19"/>
<polygon fill="#63b8ff" stroke="#63b8ff" points="690.94,-120.69 680.71,-123.45 690.43,-127.68 690.94,-120.69"/>
</a>
</g>
</g>
<!-- Node6&#45;&gt;Node7 -->
<g id="edge6_Node000006_Node000007" class="edge">
<title>Node6&#45;&gt;Node7</title>
<g id="a_edge6_Node000006_Node000007"><a xlink:title=" ">
<path fill="none" stroke="#63b8ff" d="M604.38,-110.22C562.17,-101.05 494,-86.24 447.78,-76.2"/>
<polygon fill="#63b8ff" stroke="#63b8ff" points="448.49,-72.78 437.97,-74.07 447,-79.62 448.49,-72.78"/>
</a>
</g>
</g>
<!-- Node8 -->
<g id="Node000008" class="node">
<title>Node8</title>
<g id="a_Node000008"><a xlink:title=" ">
<polygon fill="#e0e0e0" stroke="#999999" points="763.5,-19 691.5,-19 691.5,0 763.5,0 763.5,-19"/>
<text text-anchor="middle" x="727.5" y="-7" font-family="Helvetica,sans-Serif" font-size="10.00">SDL2/SDL.h</text>
</a>
</g>
</g>
<!-- Node7&#45;&gt;Node8 -->
<g id="edge7_Node000007_Node000008" class="edge">
<title>Node7&#45;&gt;Node8</title>
<g id="a_edge7_Node000007_Node000008"><a xlink:title=" ">
<path fill="none" stroke="#63b8ff" d="M447.05,-55.68C510.07,-45.53 619.3,-27.93 681.2,-17.96"/>
<polygon fill="#63b8ff" stroke="#63b8ff" points="682.14,-21.35 691.45,-16.31 681.02,-14.44 682.14,-21.35"/>
</a>
</g>
</g>
<!-- Node9 -->
<g id="Node000009" class="node">
<title>Node9</title>
<g id="a_Node000009"><a xlink:title=" ">
<polygon fill="#e0e0e0" stroke="#999999" points="422,-19 375,-19 375,0 422,0 422,-19"/>
<text text-anchor="middle" x="398.5" y="-7" font-family="Helvetica,sans-Serif" font-size="10.00">cmath</text>
</a>
</g>
</g>
<!-- Node7&#45;&gt;Node9 -->
<g id="edge8_Node000007_Node000009" class="edge">
<title>Node7&#45;&gt;Node9</title>
<g id="a_edge8_Node000007_Node000009"><a xlink:title=" ">
<path fill="none" stroke="#63b8ff" d="M398.5,-54.75C398.5,-47.8 398.5,-37.85 398.5,-29.13"/>
<polygon fill="#63b8ff" stroke="#63b8ff" points="402,-29.09 398.5,-19.09 395,-29.09 402,-29.09"/>
</a>
</g>
</g>
<!-- Node10&#45;&gt;Node4 -->
<g id="edge18_Node000010_Node000004" class="edge">
<title>Node10&#45;&gt;Node4</title>
<g id="a_edge18_Node000010_Node000004"><a xlink:title=" ">
<path fill="none" stroke="#63b8ff" d="M1346.77,-167.56C1399.68,-160.53 1486.87,-147.41 1560.5,-129 1586.41,-122.52 1591.56,-116.32 1617.5,-110 1706.47,-88.31 1813.92,-74.75 1866.82,-68.88"/>
<polygon fill="#63b8ff" stroke="#63b8ff" points="1867.39,-72.34 1876.95,-67.78 1866.63,-65.38 1867.39,-72.34"/>
</a>
</g>
</g>
<!-- Node10&#45;&gt;Node5 -->
<g id="edge19_Node000010_Node000005" class="edge">
<title>Node10&#45;&gt;Node5</title>
<g id="a_edge19_Node000010_Node000005"><a xlink:title=" ">
<path fill="none" stroke="#63b8ff" d="M1346.62,-170.56C1409.08,-165.77 1513.39,-154.19 1541.5,-129 1553.94,-117.85 1558.38,-98.92 1559.9,-84.63"/>
<polygon fill="#63b8ff" stroke="#63b8ff" points="1563.41,-84.6 1560.58,-74.39 1556.42,-84.14 1563.41,-84.6"/>
</a>
</g>
</g>
<!-- Node11 -->
<g id="Node000011" class="node">
<title>Node11</title>
<g id="a_Node000011"><a xlink:title=" ">
<polygon fill="#e0e0e0" stroke="#999999" points="1690.5,-129 1626.5,-129 1626.5,-110 1690.5,-110 1690.5,-129"/>
<text text-anchor="middle" x="1658.5" y="-117" font-family="Helvetica,sans-Serif" font-size="10.00">algorithm</text>
</a>
</g>
</g>
<!-- Node10&#45;&gt;Node11 -->
<g id="edge11_Node000010_Node000011" class="edge">
<title>Node10&#45;&gt;Node11</title>
<g id="a_edge11_Node000010_Node000011"><a xlink:title=" ">
<path fill="none" stroke="#63b8ff" d="M1346.74,-167.3C1408.46,-159.23 1518.63,-144.32 1612.5,-129 1613.76,-128.79 1615.04,-128.58 1616.34,-128.36"/>
<polygon fill="#63b8ff" stroke="#63b8ff" points="1617.11,-131.78 1626.36,-126.62 1615.91,-124.89 1617.11,-131.78"/>
</a>
</g>
</g>
<!-- Node12 -->
<g id="Node000012" class="node">
<title>Node12</title>
<g id="a_Node000012"><a xlink:title=" ">
<polygon fill="#e0e0e0" stroke="#999999" points="1316,-129 1281,-129 1281,-110 1316,-110 1316,-129"/>
<text text-anchor="middle" x="1298.5" y="-117" font-family="Helvetica,sans-Serif" font-size="10.00">any</text>
</a>
</g>
</g>
<!-- Node10&#45;&gt;Node12 -->
<g id="edge12_Node000010_Node000012" class="edge">
<title>Node10&#45;&gt;Node12</title>
<g id="a_edge12_Node000010_Node000012"><a xlink:title=" ">
<path fill="none" stroke="#63b8ff" d="M1298.5,-164.75C1298.5,-157.8 1298.5,-147.85 1298.5,-139.13"/>
<polygon fill="#63b8ff" stroke="#63b8ff" points="1302,-139.09 1298.5,-129.09 1295,-139.09 1302,-139.09"/>
</a>
</g>
</g>
<!-- Node13 -->
<g id="Node000013" class="node">
<title>Node13</title>
<g id="a_Node000013"><a xlink:title=" ">
<polygon fill="#e0e0e0" stroke="#999999" points="1774,-129 1709,-129 1709,-110 1774,-110 1774,-129"/>
<text text-anchor="middle" x="1741.5" y="-117" font-family="Helvetica,sans-Serif" font-size="10.00">functional</text>
</a>
</g>
</g>
<!-- Node10&#45;&gt;Node13 -->
<g id="edge13_Node000010_Node000013" class="edge">
<title>Node10&#45;&gt;Node13</title>
<g id="a_edge13_Node000010_Node000013"><a xlink:title=" ">
<path fill="none" stroke="#63b8ff" d="M1346.52,-169.57C1420.11,-163.23 1565.37,-149.52 1698.98,-128.94"/>
<polygon fill="#63b8ff" stroke="#63b8ff" points="1699.65,-132.37 1708.99,-127.38 1698.57,-125.46 1699.65,-132.37"/>
</a>
</g>
</g>
<!-- Node14 -->
<g id="Node000014" class="node">
<title>Node14</title>
<g id="a_Node000014"><a xlink:title=" ">
<polygon fill="#e0e0e0" stroke="#999999" points="1158.5,-129 1098.5,-129 1098.5,-110 1158.5,-110 1158.5,-129"/>
<text text-anchor="middle" x="1128.5" y="-117" font-family="Helvetica,sans-Serif" font-size="10.00">iostream</text>
</a>
</g>
</g>
<!-- Node10&#45;&gt;Node14 -->
<g id="edge14_Node000010_Node000014" class="edge">
<title>Node10&#45;&gt;Node14</title>
<g id="a_edge14_Node000010_Node000014"><a xlink:title=" ">
<path fill="none" stroke="#63b8ff" d="M1271.19,-164.98C1242.65,-156.09 1197.67,-142.07 1165.86,-132.15"/>
<polygon fill="#63b8ff" stroke="#63b8ff" points="1166.62,-128.72 1156.03,-129.08 1164.53,-135.4 1166.62,-128.72"/>
</a>
</g>
</g>
<!-- Node15 -->
<g id="Node000015" class="node">
<title>Node15</title>
<g id="a_Node000015"><a xlink:title=" ">
<polygon fill="#e0e0e0" stroke="#999999" points="1399,-129 1334,-129 1334,-110 1399,-110 1399,-129"/>
<text text-anchor="middle" x="1366.5" y="-117" font-family="Helvetica,sans-Serif" font-size="10.00">typeindex</text>
</a>
</g>
</g>
<!-- Node10&#45;&gt;Node15 -->
<g id="edge15_Node000010_Node000015" class="edge">
<title>Node10&#45;&gt;Node15</title>
<g id="a_edge15_Node000010_Node000015"><a xlink:title=" ">
<path fill="none" stroke="#63b8ff" d="M1309.43,-164.98C1319.58,-157.07 1334.92,-145.11 1347.15,-135.58"/>
<polygon fill="#63b8ff" stroke="#63b8ff" points="1349.64,-138.08 1355.38,-129.17 1345.34,-132.56 1349.64,-138.08"/>
</a>
</g>
</g>
<!-- Node16 -->
<g id="Node000016" class="node">
<title>Node16</title>
<g id="a_Node000016"><a xlink:title=" ">
<polygon fill="#e0e0e0" stroke="#999999" points="1080,-129 987,-129 987,-110 1080,-110 1080,-129"/>
<text text-anchor="middle" x="1033.5" y="-117" font-family="Helvetica,sans-Serif" font-size="10.00">unordered_map</text>
</a>
</g>
</g>
<!-- Node10&#45;&gt;Node16 -->
<g id="edge16_Node000010_Node000016" class="edge">
<title>Node10&#45;&gt;Node16</title>
<g id="a_edge16_Node000010_Node000016"><a xlink:title=" ">
<path fill="none" stroke="#63b8ff" d="M1255.92,-164.98C1209.8,-155.76 1136.14,-141.03 1086.34,-131.07"/>
<polygon fill="#63b8ff" stroke="#63b8ff" points="1086.9,-127.61 1076.41,-129.08 1085.53,-134.48 1086.9,-127.61"/>
</a>
</g>
</g>
<!-- Node17 -->
<g id="Node000017" class="node">
<title>Node17</title>
<g id="a_Node000017"><a xlink:title=" ">
<polygon fill="#e0e0e0" stroke="#999999" points="1262.5,-129 1176.5,-129 1176.5,-110 1262.5,-110 1262.5,-129"/>
<text text-anchor="middle" x="1219.5" y="-117" font-family="Helvetica,sans-Serif" font-size="10.00">unordered_set</text>
</a>
</g>
</g>
<!-- Node10&#45;&gt;Node17 -->
<g id="edge17_Node000010_Node000017" class="edge">
<title>Node10&#45;&gt;Node17</title>
<g id="a_edge17_Node000010_Node000017"><a xlink:title=" ">
<path fill="none" stroke="#63b8ff" d="M1285.81,-164.98C1273.67,-156.84 1255.14,-144.41 1240.75,-134.76"/>
<polygon fill="#63b8ff" stroke="#63b8ff" points="1242.68,-131.84 1232.42,-129.17 1238.78,-137.65 1242.68,-131.84"/>
</a>
</g>
</g>
<!-- Node18 -->
<g id="Node000018" class="node">
<title>Node18</title>
<g id="a_Node000018"><a xlink:href="Entity_8hpp.html" target="_top" xlink:title=" ">
<polygon fill="white" stroke="#666666" points="586.5,-129 502.5,-129 502.5,-110 586.5,-110 586.5,-129"/>
<text text-anchor="middle" x="544.5" y="-117" font-family="Helvetica,sans-Serif" font-size="10.00">ecs/Entity.hpp</text>
</a>
</g>
</g>
<!-- Node10&#45;&gt;Node18 -->
<g id="edge20_Node000010_Node000018" class="edge">
<title>Node10&#45;&gt;Node18</title>
<g id="a_edge20_Node000010_Node000018"><a xlink:title=" ">
<path fill="none" stroke="#63b8ff" d="M1250.19,-172.14C1137.51,-168.6 848.38,-157.41 596.82,-129.03"/>
<polygon fill="#63b8ff" stroke="#63b8ff" points="597.09,-125.54 586.75,-127.88 596.29,-132.49 597.09,-125.54"/>
</a>
</g>
</g>
<!-- Node20 -->
<g id="Node000020" class="node">
<title>Node20</title>
<g id="a_Node000020"><a xlink:href="SparseArray_8hpp.html" target="_top" xlink:title=" ">
<polygon fill="white" stroke="#666666" points="1532,-129 1417,-129 1417,-110 1532,-110 1532,-129"/>
<text text-anchor="middle" x="1474.5" y="-117" font-family="Helvetica,sans-Serif" font-size="10.00">ecs/SparseArray.hpp</text>
</a>
</g>
</g>
<!-- Node10&#45;&gt;Node20 -->
<g id="edge22_Node000010_Node000020" class="edge">
<title>Node10&#45;&gt;Node20</title>
<g id="a_edge22_Node000010_Node000020"><a xlink:title=" ">
<path fill="none" stroke="#63b8ff" d="M1326.78,-164.98C1356.45,-156.05 1403.29,-141.94 1436.25,-132.02"/>
<polygon fill="#63b8ff" stroke="#63b8ff" points="1437.43,-135.32 1446,-129.08 1435.42,-128.61 1437.43,-135.32"/>
</a>
</g>
</g>
<!-- Node19 -->
<g id="Node000019" class="node">
<title>Node19</title>
<g id="a_Node000019"><a xlink:title=" ">
<polygon fill="#e0e0e0" stroke="#999999" points="571,-74 518,-74 518,-55 571,-55 571,-74"/>
<text text-anchor="middle" x="544.5" y="-62" font-family="Helvetica,sans-Serif" font-size="10.00">cstddef</text>
</a>
</g>
</g>
<!-- Node18&#45;&gt;Node19 -->
<g id="edge21_Node000018_Node000019" class="edge">
<title>Node18&#45;&gt;Node19</title>
<g id="a_edge21_Node000018_Node000019"><a xlink:title=" ">
<path fill="none" stroke="#63b8ff" d="M544.5,-109.75C544.5,-102.8 544.5,-92.85 544.5,-84.13"/>
<polygon fill="#63b8ff" stroke="#63b8ff" points="548,-84.09 544.5,-74.09 541,-84.09 548,-84.09"/>
</a>
</g>
</g>
<!-- Node20&#45;&gt;Node4 -->
<g id="edge25_Node000020_Node000004" class="edge">
<title>Node20&#45;&gt;Node4</title>
<g id="a_edge25_Node000020_Node000004"><a xlink:title=" ">
<path fill="none" stroke="#63b8ff" d="M1532.26,-111.3C1622.71,-100.02 1794.86,-78.55 1866.72,-69.59"/>
<polygon fill="#63b8ff" stroke="#63b8ff" points="1867.47,-73.02 1876.96,-68.31 1866.61,-66.07 1867.47,-73.02"/>
</a>
</g>
</g>
<!-- Node20&#45;&gt;Node5 -->
<g id="edge26_Node000020_Node000005" class="edge">
<title>Node20&#45;&gt;Node5</title>
<g id="a_edge26_Node000020_Node000005"><a xlink:title=" ">
<path fill="none" stroke="#63b8ff" d="M1488.32,-109.98C1501.65,-101.77 1522.08,-89.18 1537.81,-79.49"/>
<polygon fill="#63b8ff" stroke="#63b8ff" points="1539.75,-82.4 1546.43,-74.17 1536.08,-76.44 1539.75,-82.4"/>
</a>
</g>
</g>
<!-- Node21 -->
<g id="Node000021" class="node">
<title>Node21</title>
<g id="a_Node000021"><a xlink:title=" ">
<polygon fill="#e0e0e0" stroke="#999999" points="1511.5,-74 1453.5,-74 1453.5,-55 1511.5,-55 1511.5,-74"/>
<text text-anchor="middle" x="1482.5" y="-62" font-family="Helvetica,sans-Serif" font-size="10.00">memory</text>
</a>
</g>
</g>
<!-- Node20&#45;&gt;Node21 -->
<g id="edge23_Node000020_Node000021" class="edge">
<title>Node20&#45;&gt;Node21</title>
<g id="a_edge23_Node000020_Node000021"><a xlink:title=" ">
<path fill="none" stroke="#63b8ff" d="M1475.82,-109.75C1476.87,-102.8 1478.37,-92.85 1479.69,-84.13"/>
<polygon fill="#63b8ff" stroke="#63b8ff" points="1483.17,-84.5 1481.2,-74.09 1476.25,-83.45 1483.17,-84.5"/>
</a>
</g>
</g>
<!-- Node22 -->
<g id="Node000022" class="node">
<title>Node22</title>
<g id="a_Node000022"><a xlink:title=" ">
<polygon fill="#e0e0e0" stroke="#999999" points="1435.5,-74 1379.5,-74 1379.5,-55 1435.5,-55 1435.5,-74"/>
<text text-anchor="middle" x="1407.5" y="-62" font-family="Helvetica,sans-Serif" font-size="10.00">optional</text>
</a>
</g>
</g>
<!-- Node20&#45;&gt;Node22 -->
<g id="edge24_Node000020_Node000022" class="edge">
<title>Node20&#45;&gt;Node22</title>
<g id="a_edge24_Node000020_Node000022"><a xlink:title=" ">
<path fill="none" stroke="#63b8ff" d="M1463.74,-109.98C1453.73,-102.07 1438.61,-90.11 1426.57,-80.58"/>
<polygon fill="#63b8ff" stroke="#63b8ff" points="1428.47,-77.63 1418.46,-74.17 1424.13,-83.12 1428.47,-77.63"/>
</a>
</g>
</g>
<!-- Node23&#45;&gt;Node4 -->
<g id="edge31_Node000023_Node000004" class="edge">
<title>Node23&#45;&gt;Node4</title>
<g id="a_edge31_Node000023_Node000004"><a xlink:title=" ">
<path fill="none" stroke="#63b8ff" d="M1702.9,-165.9C1749.51,-157.37 1819.22,-142.9 1842.5,-129 1861.7,-117.54 1878.07,-97.52 1888.28,-83.01"/>
<polygon fill="#63b8ff" stroke="#63b8ff" points="1891.38,-84.68 1894.06,-74.43 1885.57,-80.77 1891.38,-84.68"/>
</a>
</g>
</g>
<!-- Node23&#45;&gt;Node11 -->
<g id="edge28_Node000023_Node000011" class="edge">
<title>Node23&#45;&gt;Node11</title>
<g id="a_edge28_Node000023_Node000011"><a xlink:title=" ">
<path fill="none" stroke="#63b8ff" d="M1658.5,-164.75C1658.5,-157.8 1658.5,-147.85 1658.5,-139.13"/>
<polygon fill="#63b8ff" stroke="#63b8ff" points="1662,-139.09 1658.5,-129.09 1655,-139.09 1662,-139.09"/>
</a>
</g>
</g>
<!-- Node23&#45;&gt;Node13 -->
<g id="edge29_Node000023_Node000013" class="edge">
<title>Node23&#45;&gt;Node13</title>
<g id="a_edge29_Node000023_Node000013"><a xlink:title=" ">
<path fill="none" stroke="#63b8ff" d="M1671.84,-164.98C1684.59,-156.84 1704.05,-144.41 1719.17,-134.76"/>
<polygon fill="#63b8ff" stroke="#63b8ff" points="1721.38,-137.5 1727.92,-129.17 1717.61,-131.6 1721.38,-137.5"/>
</a>
</g>
</g>
<!-- Node23&#45;&gt;Node23 -->
<g id="edge32_Node000023_Node000023" class="edge">
<title>Node23&#45;&gt;Node23</title>
<g id="a_edge32_Node000023_Node000023"><a xlink:title=" ">
<path fill="none" stroke="#63b8ff" d="M1687.52,-184.03C1704.56,-186.06 1720.5,-182.88 1720.5,-174.5 1720.5,-167.82 1710.37,-164.44 1697.64,-164.38"/>
<polygon fill="#63b8ff" stroke="#63b8ff" points="1697.3,-160.89 1687.52,-164.97 1697.71,-167.88 1697.3,-160.89"/>
</a>
</g>
</g>
<!-- Node24 -->
<g id="Node000024" class="node">
<title>Node24</title>
<g id="a_Node000024"><a xlink:title=" ">
<polygon fill="#e0e0e0" stroke="#999999" points="1833,-129 1792,-129 1792,-110 1833,-110 1833,-129"/>
<text text-anchor="middle" x="1812.5" y="-117" font-family="Helvetica,sans-Serif" font-size="10.00">tuple</text>
</a>
</g>
</g>
<!-- Node23&#45;&gt;Node24 -->
<g id="edge30_Node000023_Node000024" class="edge">
<title>Node23&#45;&gt;Node24</title>
<g id="a_edge30_Node000023_Node000024"><a xlink:title=" ">
<path fill="none" stroke="#63b8ff" d="M1683.24,-164.98C1710.17,-155.72 1753.23,-140.9 1782.17,-130.94"/>
<polygon fill="#63b8ff" stroke="#63b8ff" points="1783.45,-134.2 1791.77,-127.63 1781.17,-127.58 1783.45,-134.2"/>
</a>
</g>
</g>
<!-- Node25&#45;&gt;Node3 -->
<g id="edge40_Node000025_Node000003" class="edge">
<title>Node25&#45;&gt;Node3</title>
<g id="a_edge40_Node000025_Node000003"><a xlink:title=" ">
<path fill="none" stroke="#63b8ff" d="M910.9,-278.44C1008.19,-271.11 1190.57,-256.48 1345.5,-239 1487.07,-223.03 1652.3,-199.01 1741.78,-185.56"/>
<polygon fill="#63b8ff" stroke="#63b8ff" points="1742.42,-189 1751.78,-184.05 1741.37,-182.08 1742.42,-189"/>
</a>
</g>
</g>
<!-- Node25&#45;&gt;Node4 -->
<g id="edge34_Node000025_Node000004" class="edge">
<title>Node25&#45;&gt;Node4</title>
<g id="a_edge34_Node000025_Node000004"><a xlink:title=" ">
<path fill="none" stroke="#63b8ff" d="M910.73,-282.46C1092.46,-279.36 1580.03,-268.47 1738.5,-239 1815.33,-224.71 1859.69,-247.31 1905.5,-184 1926.95,-154.36 1915.74,-108.8 1906.87,-83.68"/>
<polygon fill="#63b8ff" stroke="#63b8ff" points="1910.13,-82.39 1903.32,-74.28 1903.58,-84.87 1910.13,-82.39"/>
</a>
</g>
</g>
<!-- Node25&#45;&gt;Node5 -->
<g id="edge35_Node000025_Node000005" class="edge">
<title>Node25&#45;&gt;Node5</title>
<g id="a_edge35_Node000025_Node000005"><a xlink:title=" ">
<path fill="none" stroke="#63b8ff" d="M910.59,-282.25C1133.17,-277.51 1820.86,-257.02 1885.5,-184 1969.71,-88.87 1692.83,-70.04 1594.12,-66.37"/>
<polygon fill="#63b8ff" stroke="#63b8ff" points="1594.18,-62.87 1584.07,-66.03 1593.94,-69.87 1594.18,-62.87"/>
</a>
</g>
</g>
<!-- Node25&#45;&gt;Node6 -->
<g id="edge39_Node000025_Node000006" class="edge">
<title>Node25&#45;&gt;Node6</title>
<g id="a_edge39_Node000025_Node000006"><a xlink:title=" ">
<path fill="none" stroke="#63b8ff" d="M799.82,-275C772,-268.1 735.37,-256.6 706.5,-239 676.71,-220.84 665.98,-215.26 650.5,-184 643.63,-170.14 641.87,-152.57 641.69,-139.43"/>
<polygon fill="#63b8ff" stroke="#63b8ff" points="645.19,-139.28 641.85,-129.23 638.19,-139.17 645.19,-139.28"/>
</a>
</g>
</g>
<!-- Node25&#45;&gt;Node7 -->
<g id="edge50_Node000025_Node000007" class="edge">
<title>Node25&#45;&gt;Node7</title>
<g id="a_edge50_Node000025_Node000007"><a xlink:title=" ">
<path fill="none" stroke="#63b8ff" d="M772.48,-281.65C620.34,-277.12 265.77,-264.02 217.5,-239 158.62,-208.49 99.81,-160.75 142.5,-110 167.19,-80.65 272,-70.66 339.62,-67.26"/>
<polygon fill="#63b8ff" stroke="#63b8ff" points="339.9,-70.75 349.73,-66.78 339.57,-63.75 339.9,-70.75"/>
</a>
</g>
</g>
<!-- Node25&#45;&gt;Node10 -->
<g id="edge51_Node000025_Node000010" class="edge">
<title>Node25&#45;&gt;Node10</title>
<g id="a_edge51_Node000025_Node000010"><a xlink:title=" ">
<path fill="none" stroke="#63b8ff" d="M877.74,-274.94C960.15,-255.46 1161.49,-207.88 1252.5,-186.37"/>
<polygon fill="#63b8ff" stroke="#63b8ff" points="1253.33,-189.77 1262.25,-184.07 1251.72,-182.96 1253.33,-189.77"/>
</a>
</g>
</g>
<!-- Node26 -->
<g id="Node000026" class="node">
<title>Node26</title>
<g id="a_Node000026"><a xlink:href="Items_8hpp.html" target="_top" xlink:title=" ">
<polygon fill="white" stroke="#666666" points="825.5,-239 715.5,-239 715.5,-220 825.5,-220 825.5,-239"/>
<text text-anchor="middle" x="770.5" y="-227" font-family="Helvetica,sans-Serif" font-size="10.00">Collision/Items.hpp</text>
</a>
</g>
</g>
<!-- Node25&#45;&gt;Node26 -->
<g id="edge36_Node000025_Node000026" class="edge">
<title>Node25&#45;&gt;Node26</title>
<g id="a_edge36_Node000025_Node000026"><a xlink:title=" ">
<path fill="none" stroke="#63b8ff" d="M830.09,-274.98C819.39,-267 803.16,-254.88 790.34,-245.31"/>
<polygon fill="#63b8ff" stroke="#63b8ff" points="792.22,-242.35 782.11,-239.17 788.03,-247.96 792.22,-242.35"/>
</a>
</g>
</g>
<!-- Node27 -->
<g id="Node000027" class="node">
<title>Node27</title>
<g id="a_Node000027"><a xlink:href="Boss_8hpp.html" target="_top" xlink:title=" ">
<polygon fill="white" stroke="#666666" points="95,-239 0,-239 0,-220 95,-220 95,-239"/>
<text text-anchor="middle" x="47.5" y="-227" font-family="Helvetica,sans-Serif" font-size="10.00">Player/Boss.hpp</text>
</a>
</g>
</g>
<!-- Node25&#45;&gt;Node27 -->
<g id="edge37_Node000025_Node000027" class="edge">
<title>Node25&#45;&gt;Node27</title>
<g id="a_edge37_Node000025_Node000027"><a xlink:title=" ">
<path fill="none" stroke="#63b8ff" d="M772.48,-281.04C642.51,-276.03 352.61,-263.02 109.5,-239 108.19,-238.87 106.87,-238.73 105.54,-238.59"/>
<polygon fill="#63b8ff" stroke="#63b8ff" points="105.52,-235.07 95.18,-237.41 104.72,-242.02 105.52,-235.07"/>
</a>
</g>
</g>
<!-- Node28 -->
<g id="Node000028" class="node">
<title>Node28</title>
<g id="a_Node000028"><a xlink:href="PlayerEntity_8hpp.html" target="_top" xlink:title=" ">
<polygon fill="white" stroke="#666666" points="506,-239 377,-239 377,-220 506,-220 506,-239"/>
<text text-anchor="middle" x="441.5" y="-227" font-family="Helvetica,sans-Serif" font-size="10.00">Player/PlayerEntity.hpp</text>
</a>
</g>
</g>
<!-- Node25&#45;&gt;Node28 -->
<g id="edge41_Node000025_Node000028" class="edge">
<title>Node25&#45;&gt;Node28</title>
<g id="a_edge41_Node000025_Node000028"><a xlink:title=" ">
<path fill="none" stroke="#63b8ff" d="M777.23,-274.98C706.05,-265.55 591.42,-250.36 516.27,-240.41"/>
<polygon fill="#63b8ff" stroke="#63b8ff" points="516.31,-236.88 505.94,-239.04 515.39,-243.82 516.31,-236.88"/>
</a>
</g>
</g>
<!-- Node31 -->
<g id="Node000031" class="node">
<title>Node31</title>
<g id="a_Node000031"><a xlink:href="Projectile_8hpp.html" target="_top" xlink:title=" ">
<polygon fill="white" stroke="#666666" points="331.5,-129 151.5,-129 151.5,-110 331.5,-110 331.5,-129"/>
<text text-anchor="middle" x="241.5" y="-117" font-family="Helvetica,sans-Serif" font-size="10.00">components/Player/Projectile.hpp</text>
</a>
</g>
</g>
<!-- Node25&#45;&gt;Node31 -->
<g id="edge49_Node000025_Node000031" class="edge">
<title>Node25&#45;&gt;Node31</title>
<g id="a_edge49_Node000025_Node000031"><a xlink:title=" ">
<path fill="none" stroke="#63b8ff" d="M772.23,-281.17C679.37,-277.1 509.75,-266.33 367.5,-239 282.42,-222.65 232.4,-253.36 180.5,-184 166.41,-165.17 191.27,-146.05 213.37,-133.78"/>
<polygon fill="#63b8ff" stroke="#63b8ff" points="215.01,-136.87 222.23,-129.12 211.75,-130.67 215.01,-136.87"/>
</a>
</g>
</g>
<!-- Node32 -->
<g id="Node000032" class="node">
<title>Node32</title>
<g id="a_Node000032"><a xlink:href="InputManager_8hpp.html" target="_top" xlink:title=" ">
<polygon fill="white" stroke="#666666" points="981,-239 844,-239 844,-220 981,-220 981,-239"/>
<text text-anchor="middle" x="912.5" y="-227" font-family="Helvetica,sans-Serif" font-size="10.00">inputs/InputManager.hpp</text>
</a>
</g>
</g>
<!-- Node25&#45;&gt;Node32 -->
<g id="edge52_Node000025_Node000032" class="edge">
<title>Node25&#45;&gt;Node32</title>
<g id="a_edge52_Node000025_Node000032"><a xlink:title=" ">
<path fill="none" stroke="#63b8ff" d="M852.91,-274.98C863.61,-267 879.84,-254.88 892.66,-245.31"/>
<polygon fill="#63b8ff" stroke="#63b8ff" points="894.97,-247.96 900.89,-239.17 890.78,-242.35 894.97,-247.96"/>
</a>
</g>
</g>
<!-- Node27&#45;&gt;Node7 -->
<g id="edge38_Node000027_Node000007" class="edge">
<title>Node27&#45;&gt;Node7</title>
<g id="a_edge38_Node000027_Node000007"><a xlink:title=" ">
<path fill="none" stroke="#63b8ff" d="M49.22,-219.89C54.16,-197.6 70.59,-137.82 109.5,-110 145.44,-84.3 266.11,-72.98 339.68,-68.36"/>
<polygon fill="#63b8ff" stroke="#63b8ff" points="339.96,-71.85 349.73,-67.75 339.54,-64.86 339.96,-71.85"/>
</a>
</g>
</g>
<!-- Node28&#45;&gt;Node7 -->
<g id="edge48_Node000028_Node000007" class="edge">
<title>Node28&#45;&gt;Node7</title>
<g id="a_edge48_Node000028_Node000007"><a xlink:title=" ">
<path fill="none" stroke="#63b8ff" d="M399.97,-219.94C380.19,-213.55 358.32,-202.6 346.5,-184 324.83,-149.91 359.25,-105.25 381.66,-81.69"/>
<polygon fill="#63b8ff" stroke="#63b8ff" points="384.44,-83.86 388.98,-74.28 379.46,-78.94 384.44,-83.86"/>
</a>
</g>
</g>
<!-- Node28&#45;&gt;Node11 -->
<g id="edge42_Node000028_Node000011" class="edge">
<title>Node28&#45;&gt;Node11</title>
<g id="a_edge42_Node000028_Node000011"><a xlink:title=" ">
<path fill="none" stroke="#63b8ff" d="M506.16,-225.94C700.65,-218.17 1272.03,-194.71 1355.5,-184 1449.79,-171.9 1558.44,-146.21 1616.58,-131.48"/>
<polygon fill="#63b8ff" stroke="#63b8ff" points="1617.67,-134.81 1626.5,-128.95 1615.94,-128.03 1617.67,-134.81"/>
</a>
</g>
</g>
<!-- Node29 -->
<g id="Node000029" class="node">
<title>Node29</title>
<g id="a_Node000029"><a xlink:href="CollisionController_8hpp.html" target="_top" xlink:title=" ">
<polygon fill="white" stroke="#666666" points="527.5,-184 355.5,-184 355.5,-165 527.5,-165 527.5,-184"/>
<text text-anchor="middle" x="441.5" y="-172" font-family="Helvetica,sans-Serif" font-size="10.00">Collision/CollisionController.hpp</text>
</a>
</g>
</g>
<!-- Node28&#45;&gt;Node29 -->
<g id="edge43_Node000028_Node000029" class="edge">
<title>Node28&#45;&gt;Node29</title>
<g id="a_edge43_Node000028_Node000029"><a xlink:title=" ">
<path fill="none" stroke="#63b8ff" d="M441.5,-219.75C441.5,-212.8 441.5,-202.85 441.5,-194.13"/>
<polygon fill="#63b8ff" stroke="#63b8ff" points="445,-194.09 441.5,-184.09 438,-194.09 445,-194.09"/>
</a>
</g>
</g>
<!-- Node30 -->
<g id="Node000030" class="node">
<title>Node30</title>
<g id="a_Node000030"><a xlink:href="Weapon_8hpp.html" target="_top" xlink:title=" ">
<polygon fill="white" stroke="#666666" points="299.5,-184 189.5,-184 189.5,-165 299.5,-165 299.5,-184"/>
<text text-anchor="middle" x="244.5" y="-172" font-family="Helvetica,sans-Serif" font-size="10.00">Player/Weapon.hpp</text>
</a>
</g>
</g>
<!-- Node28&#45;&gt;Node30 -->
<g id="edge45_Node000028_Node000030" class="edge">
<title>Node28&#45;&gt;Node30</title>
<g id="a_edge45_Node000028_Node000030"><a xlink:title=" ">
<path fill="none" stroke="#63b8ff" d="M409.85,-219.98C376.34,-210.97 323.3,-196.7 286.36,-186.76"/>
<polygon fill="#63b8ff" stroke="#63b8ff" points="286.97,-183.3 276.4,-184.08 285.15,-190.06 286.97,-183.3"/>
</a>
</g>
</g>
<!-- Node29&#45;&gt;Node18 -->
<g id="edge44_Node000029_Node000018" class="edge">
<title>Node29&#45;&gt;Node18</title>
<g id="a_edge44_Node000029_Node000018"><a xlink:title=" ">
<path fill="none" stroke="#63b8ff" d="M458.05,-164.98C474.39,-156.57 499.63,-143.59 518.63,-133.81"/>
<polygon fill="#63b8ff" stroke="#63b8ff" points="520.36,-136.86 527.65,-129.17 517.16,-130.63 520.36,-136.86"/>
</a>
</g>
</g>
<!-- Node30&#45;&gt;Node31 -->
<g id="edge46_Node000030_Node000031" class="edge">
<title>Node30&#45;&gt;Node31</title>
<g id="a_edge46_Node000030_Node000031"><a xlink:title=" ">
<path fill="none" stroke="#63b8ff" d="M244,-164.75C243.61,-157.8 243.05,-147.85 242.55,-139.13"/>
<polygon fill="#63b8ff" stroke="#63b8ff" points="246.05,-138.88 241.99,-129.09 239.06,-139.27 246.05,-138.88"/>
</a>
</g>
</g>
<!-- Node31&#45;&gt;Node7 -->
<g id="edge47_Node000031_Node000007" class="edge">
<title>Node31&#45;&gt;Node7</title>
<g id="a_edge47_Node000031_Node000007"><a xlink:title=" ">
<path fill="none" stroke="#63b8ff" d="M266.72,-109.98C292.86,-101.16 333.9,-87.31 363.23,-77.41"/>
<polygon fill="#63b8ff" stroke="#63b8ff" points="364.72,-80.6 373.08,-74.08 362.48,-73.96 364.72,-80.6"/>
</a>
</g>
</g>
<!-- Node32&#45;&gt;Node7 -->
<g id="edge54_Node000032_Node000007" class="edge">
<title>Node32&#45;&gt;Node7</title>
<g id="a_edge54_Node000032_Node000007"><a xlink:title=" ">
<path fill="none" stroke="#63b8ff" d="M843.81,-220.61C783.73,-213.13 694.33,-200.56 617.5,-184 606.5,-181.63 430.8,-136.61 422.5,-129 409.89,-117.43 403.86,-98.56 401.01,-84.39"/>
<polygon fill="#63b8ff" stroke="#63b8ff" points="404.42,-83.56 399.33,-74.27 397.51,-84.7 404.42,-83.56"/>
</a>
</g>
</g>
<!-- Node32&#45;&gt;Node8 -->
<g id="edge53_Node000032_Node000008" class="edge">
<title>Node32&#45;&gt;Node8</title>
<g id="a_edge53_Node000032_Node000008"><a xlink:title=" ">
<path fill="none" stroke="#63b8ff" d="M905.16,-219.7C893.74,-206.43 870.51,-181.15 846.5,-165 813.81,-143.01 791.81,-158.32 765.5,-129 739.97,-100.56 731.58,-54.84 728.83,-29.3"/>
<polygon fill="#63b8ff" stroke="#63b8ff" points="732.3,-28.77 727.92,-19.12 725.32,-29.39 732.3,-28.77"/>
</a>
</g>
</g>
<!-- Node32&#45;&gt;Node10 -->
<g id="edge55_Node000032_Node000010" class="edge">
<title>Node32&#45;&gt;Node10</title>
<g id="a_edge55_Node000032_Node000010"><a xlink:title=" ">
<path fill="none" stroke="#63b8ff" d="M974.52,-219.98C1047.74,-209.93 1168.6,-193.34 1240.18,-183.51"/>
<polygon fill="#63b8ff" stroke="#63b8ff" points="1240.94,-186.94 1250.37,-182.11 1239.98,-180 1240.94,-186.94"/>
</a>
</g>
</g>
<!-- Node32&#45;&gt;Node23 -->
<g id="edge56_Node000032_Node000023" class="edge">
<title>Node32&#45;&gt;Node23</title>
<g id="a_edge56_Node000032_Node000023"><a xlink:title=" ">
<path fill="none" stroke="#63b8ff" d="M981.01,-223.63C1127.93,-213.19 1470.71,-188.84 1604.06,-179.37"/>
<polygon fill="#63b8ff" stroke="#63b8ff" points="1604.33,-182.86 1614.05,-178.66 1603.83,-175.88 1604.33,-182.86"/>
</a>
</g>
</g>
<!-- Node33 -->
<g id="Node000033" class="node">
<title>Node33</title>
<g id="a_Node000033"><a xlink:href="RenderComponents_8hpp.html" target="_top" xlink:title=" ">
<polygon fill="white" stroke="#666666" points="837.5,-184 659.5,-184 659.5,-165 837.5,-165 837.5,-184"/>
<text text-anchor="middle" x="748.5" y="-172" font-family="Helvetica,sans-Serif" font-size="10.00">graphics/RenderComponents.hpp</text>
</a>
</g>
</g>
<!-- Node32&#45;&gt;Node33 -->
<g id="edge57_Node000032_Node000033" class="edge">
<title>Node32&#45;&gt;Node33</title>
<g id="a_edge57_Node000032_Node000033"><a xlink:title=" ">
<path fill="none" stroke="#63b8ff" d="M886.15,-219.98C858.74,-211.13 815.61,-197.19 784.94,-187.28"/>
<polygon fill="#63b8ff" stroke="#63b8ff" points="785.65,-183.83 775.06,-184.08 783.5,-190.49 785.65,-183.83"/>
</a>
</g>
</g>
<!-- Node35 -->
<g id="Node000035" class="node">
<title>Node35</title>
<g id="a_Node000035"><a xlink:href="KeyBindings_8hpp.html" target="_top" xlink:title=" ">
<polygon fill="white" stroke="#666666" points="1025,-184 894,-184 894,-165 1025,-165 1025,-184"/>
<text text-anchor="middle" x="959.5" y="-172" font-family="Helvetica,sans-Serif" font-size="10.00">inputs/KeyBindings.hpp</text>
</a>
</g>
</g>
<!-- Node32&#45;&gt;Node35 -->
<g id="edge61_Node000032_Node000035" class="edge">
<title>Node32&#45;&gt;Node35</title>
<g id="a_edge61_Node000032_Node000035"><a xlink:title=" ">
<path fill="none" stroke="#63b8ff" d="M920.26,-219.75C926.97,-212.18 936.84,-201.05 945.01,-191.84"/>
<polygon fill="#63b8ff" stroke="#63b8ff" points="947.87,-193.89 951.88,-184.09 942.63,-189.25 947.87,-193.89"/>
</a>
</g>
</g>
<!-- Node33&#45;&gt;Node7 -->
<g id="edge60_Node000033_Node000007" class="edge">
<title>Node33&#45;&gt;Node7</title>
<g id="a_edge60_Node000033_Node000007"><a xlink:title=" ">
<path fill="none" stroke="#63b8ff" d="M681.3,-164.98C617.57,-156.32 526.77,-142.33 493.5,-129 464.06,-117.21 434.35,-95.39 416.18,-80.66"/>
<polygon fill="#63b8ff" stroke="#63b8ff" points="418.17,-77.76 408.24,-74.07 413.7,-83.15 418.17,-77.76"/>
</a>
</g>
</g>
<!-- Node33&#45;&gt;Node8 -->
<g id="edge58_Node000033_Node000008" class="edge">
<title>Node33&#45;&gt;Node8</title>
<g id="a_edge58_Node000033_Node000008"><a xlink:title=" ">
<path fill="none" stroke="#63b8ff" d="M744.5,-164.86C740.65,-156.05 735.03,-141.89 732.5,-129 725.69,-94.27 725.77,-52.76 726.56,-29.23"/>
<polygon fill="#63b8ff" stroke="#63b8ff" points="730.06,-29.37 726.98,-19.23 723.06,-29.07 730.06,-29.37"/>
</a>
</g>
</g>
<!-- Node34 -->
<g id="Node000034" class="node">
<title>Node34</title>
<g id="a_Node000034"><a xlink:title=" ">
<polygon fill="#e0e0e0" stroke="#999999" points="818.5,-129 774.5,-129 774.5,-110 818.5,-110 818.5,-129"/>
<text text-anchor="middle" x="796.5" y="-117" font-family="Helvetica,sans-Serif" font-size="10.00">string</text>
</a>
</g>
</g>
<!-- Node33&#45;&gt;Node34 -->
<g id="edge59_Node000033_Node000034" class="edge">
<title>Node33&#45;&gt;Node34</title>
<g id="a_edge59_Node000033_Node000034"><a xlink:title=" ">
<path fill="none" stroke="#63b8ff" d="M756.43,-164.75C763.35,-157.11 773.57,-145.82 781.95,-136.56"/>
<polygon fill="#63b8ff" stroke="#63b8ff" points="784.6,-138.85 788.72,-129.09 779.41,-134.15 784.6,-138.85"/>
</a>
</g>
</g>
<!-- Node35&#45;&gt;Node5 -->
<g id="edge67_Node000035_Node000005" class="edge">
<title>Node35&#45;&gt;Node5</title>
<g id="a_edge67_Node000035_Node000005"><a xlink:title=" ">
<path fill="none" stroke="#63b8ff" d="M959.23,-164.85C959.32,-150.82 961.77,-123.34 978.5,-110 1025.69,-72.37 1460.72,-82.29 1520.5,-74 1522.59,-73.71 1524.73,-73.37 1526.88,-73"/>
<polygon fill="#63b8ff" stroke="#63b8ff" points="1527.74,-76.4 1536.91,-71.1 1526.43,-69.53 1527.74,-76.4"/>
</a>
</g>
</g>
<!-- Node35&#45;&gt;Node8 -->
<g id="edge62_Node000035_Node000008" class="edge">
<title>Node35&#45;&gt;Node8</title>
<g id="a_edge62_Node000035_Node000008"><a xlink:title=" ">
<path fill="none" stroke="#63b8ff" d="M953.08,-164.91C943.08,-151.91 922.71,-126.98 901.5,-110 854.69,-72.53 792.07,-40.43 756.13,-23.44"/>
<polygon fill="#63b8ff" stroke="#63b8ff" points="757.27,-20.11 746.73,-19.05 754.31,-26.45 757.27,-20.11"/>
</a>
</g>
</g>
<!-- Node35&#45;&gt;Node14 -->
<g id="edge64_Node000035_Node000014" class="edge">
<title>Node35&#45;&gt;Node14</title>
<g id="a_edge64_Node000035_Node000014"><a xlink:title=" ">
<path fill="none" stroke="#63b8ff" d="M986.65,-164.98C1015.03,-156.09 1059.73,-142.07 1091.36,-132.15"/>
<polygon fill="#63b8ff" stroke="#63b8ff" points="1092.64,-135.41 1101.13,-129.08 1090.55,-128.73 1092.64,-135.41"/>
</a>
</g>
</g>
<!-- Node35&#45;&gt;Node16 -->
<g id="edge66_Node000035_Node000016" class="edge">
<title>Node35&#45;&gt;Node16</title>
<g id="a_edge66_Node000035_Node000016"><a xlink:title=" ">
<path fill="none" stroke="#63b8ff" d="M971.39,-164.98C982.65,-156.92 999.79,-144.65 1013.21,-135.03"/>
<polygon fill="#63b8ff" stroke="#63b8ff" points="1015.3,-137.84 1021.39,-129.17 1011.23,-132.15 1015.3,-137.84"/>
</a>
</g>
</g>
<!-- Node35&#45;&gt;Node34 -->
<g id="edge65_Node000035_Node000034" class="edge">
<title>Node35&#45;&gt;Node34</title>
<g id="a_edge65_Node000035_Node000034"><a xlink:title=" ">
<path fill="none" stroke="#63b8ff" d="M933.31,-164.98C904.77,-155.7 859.09,-140.85 828.46,-130.89"/>
<polygon fill="#63b8ff" stroke="#63b8ff" points="829.29,-127.48 818.7,-127.72 827.12,-134.14 829.29,-127.48"/>
</a>
</g>
</g>
<!-- Node36 -->
<g id="Node000036" class="node">
<title>Node36</title>
<g id="a_Node000036"><a xlink:title=" ">
<polygon fill="#e0e0e0" stroke="#999999" points="892,-129 837,-129 837,-110 892,-110 892,-129"/>
<text text-anchor="middle" x="864.5" y="-117" font-family="Helvetica,sans-Serif" font-size="10.00">fstream</text>
</a>
</g>
</g>
<!-- Node35&#45;&gt;Node36 -->
<g id="edge63_Node000035_Node000036" class="edge">
<title>Node35&#45;&gt;Node36</title>
<g id="a_edge63_Node000035_Node000036"><a xlink:title=" ">
<path fill="none" stroke="#63b8ff" d="M944.24,-164.98C929.37,-156.69 906.52,-143.94 889.08,-134.22"/>
<polygon fill="#63b8ff" stroke="#63b8ff" points="890.48,-130.99 880.04,-129.17 887.07,-137.1 890.48,-130.99"/>
</a>
</g>
</g>
</g>
</svg>
