<?xml version="1.0" encoding="UTF-8" standalone="no"?>
<!DOCTYPE svg PUBLIC "-//W3C//DTD SVG 1.1//EN"
 "http://www.w3.org/Graphics/SVG/1.1/DTD/svg11.dtd">
<!-- Generated by graphviz version 2.43.0 (0)
 -->
<!-- Title: /home/runner/work/R&#45;Type/R&#45;Type/Shared/systems/SpawnEnemy/Spawn.hpp Pages: 1 -->
<svg width="1237pt" height="269pt"
 viewBox="0.00 0.00 1236.50 269.00" xmlns="http://www.w3.org/2000/svg" xmlns:xlink="http://www.w3.org/1999/xlink">
<g id="graph0" class="graph" transform="scale(1 1) rotate(0) translate(4 265)">
<title>/home/runner/work/R&#45;Type/R&#45;Type/Shared/systems/SpawnEnemy/Spawn.hpp</title>
<!-- Node1 -->
<g id="Node000001" class="node">
<title>Node1</title>
<g id="a_Node000001"><a xlink:title=" ">
<polygon fill="#999999" stroke="#666666" points="569,-261 383,-261 383,-220 569,-220 569,-261"/>
<text text-anchor="start" x="391" y="-249" font-family="Helvetica,sans-Serif" font-size="10.00">/home/runner/work/R</text>
<text text-anchor="start" x="391" y="-238" font-family="Helvetica,sans-Serif" font-size="10.00">&#45;Type/R&#45;Type/Shared</text>
<text text-anchor="middle" x="476" y="-227" font-family="Helvetica,sans-Serif" font-size="10.00">/systems/SpawnEnemy/Spawn.hpp</text>
</a>
</g>
</g>
<!-- Node2 -->
<g id="Node000002" class="node">
<title>Node2</title>
<g id="a_Node000002"><a xlink:href="EnemySpawn_8hpp.html" target="_top" xlink:title=" ">
<polygon fill="white" stroke="#666666" points="343.5,-184 206.5,-184 206.5,-165 343.5,-165 343.5,-184"/>
<text text-anchor="middle" x="275" y="-172" font-family="Helvetica,sans-Serif" font-size="10.00">Player/EnemySpawn.hpp</text>
</a>
</g>
</g>
<!-- Node1&#45;&gt;Node2 -->
<g id="edge1_Node000001_Node000002" class="edge">
<title>Node1&#45;&gt;Node2</title>
<g id="a_edge1_Node000001_Node000002"><a xlink:title=" ">
<path fill="none" stroke="#63b8ff" d="M414.6,-219.95C380.83,-209.2 340.08,-196.22 311.35,-187.07"/>
<polygon fill="#63b8ff" stroke="#63b8ff" points="312.31,-183.71 301.72,-184.01 310.19,-190.38 312.31,-183.71"/>
</a>
</g>
</g>
<!-- Node6 -->
<g id="Node000006" class="node">
<title>Node6</title>
<g id="a_Node000006"><a xlink:href="Physics2D_8hpp.html" target="_top" xlink:title=" ">
<polygon fill="white" stroke="#666666" points="123.5,-74 26.5,-74 26.5,-55 123.5,-55 123.5,-74"/>
<text text-anchor="middle" x="75" y="-62" font-family="Helvetica,sans-Serif" font-size="10.00">../Physics2D.hpp</text>
</a>
</g>
</g>
<!-- Node1&#45;&gt;Node6 -->
<g id="edge8_Node000001_Node000006" class="edge">
<title>Node1&#45;&gt;Node6</title>
<g id="a_edge8_Node000001_Node000006"><a xlink:title=" ">
<path fill="none" stroke="#63b8ff" d="M382.86,-228.79C271.86,-213.77 96.85,-182.16 61,-129 51.76,-115.29 57.67,-96.49 64.43,-82.9"/>
<polygon fill="#63b8ff" stroke="#63b8ff" points="67.53,-84.53 69.29,-74.08 61.4,-81.15 67.53,-84.53"/>
</a>
</g>
</g>
<!-- Node9 -->
<g id="Node000009" class="node">
<title>Node9</title>
<g id="a_Node000009"><a xlink:href="Registry_8hpp.html" target="_top" xlink:title=" ">
<polygon fill="white" stroke="#666666" points="673,-184 577,-184 577,-165 673,-165 673,-184"/>
<text text-anchor="middle" x="625" y="-172" font-family="Helvetica,sans-Serif" font-size="10.00">ecs/Registry.hpp</text>
</a>
</g>
</g>
<!-- Node1&#45;&gt;Node9 -->
<g id="edge9_Node000001_Node000009" class="edge">
<title>Node1&#45;&gt;Node9</title>
<g id="a_edge9_Node000001_Node000009"><a xlink:title=" ">
<path fill="none" stroke="#63b8ff" d="M521.51,-219.95C545.6,-209.6 574.47,-197.2 595.6,-188.13"/>
<polygon fill="#63b8ff" stroke="#63b8ff" points="597.19,-191.25 605,-184.09 594.43,-184.82 597.19,-191.25"/>
</a>
</g>
</g>
<!-- Node22 -->
<g id="Node000022" class="node">
<title>Node22</title>
<g id="a_Node000022"><a xlink:href="Zipper_8hpp.html" target="_top" xlink:title=" ">
<polygon fill="white" stroke="#666666" points="1143,-184 1055,-184 1055,-165 1143,-165 1143,-184"/>
<text text-anchor="middle" x="1099" y="-172" font-family="Helvetica,sans-Serif" font-size="10.00">ecs/Zipper.hpp</text>
</a>
</g>
</g>
<!-- Node1&#45;&gt;Node22 -->
<g id="edge26_Node000001_Node000022" class="edge">
<title>Node1&#45;&gt;Node22</title>
<g id="a_edge26_Node000001_Node000022"><a xlink:title=" ">
<path fill="none" stroke="#63b8ff" d="M569.27,-229.92C701.16,-216.37 937.96,-192.04 1044.47,-181.1"/>
<polygon fill="#63b8ff" stroke="#63b8ff" points="1045.08,-184.56 1054.67,-180.05 1044.37,-177.59 1045.08,-184.56"/>
</a>
</g>
</g>
<!-- Node3 -->
<g id="Node000003" class="node">
<title>Node3</title>
<g id="a_Node000003"><a xlink:title=" ">
<polygon fill="#e0e0e0" stroke="#999999" points="666.5,-74 621.5,-74 621.5,-55 666.5,-55 666.5,-74"/>
<text text-anchor="middle" x="644" y="-62" font-family="Helvetica,sans-Serif" font-size="10.00">utility</text>
</a>
</g>
</g>
<!-- Node2&#45;&gt;Node3 -->
<g id="edge2_Node000002_Node000003" class="edge">
<title>Node2&#45;&gt;Node3</title>
<g id="a_edge2_Node000002_Node000003"><a xlink:title=" ">
<path fill="none" stroke="#63b8ff" d="M292.06,-164.96C326.24,-147.86 400.11,-110.96 403,-110 475.09,-85.99 563.88,-73.82 610.99,-68.66"/>
<polygon fill="#63b8ff" stroke="#63b8ff" points="611.64,-72.11 621.22,-67.58 610.9,-65.15 611.64,-72.11"/>
</a>
</g>
</g>
<!-- Node4 -->
<g id="Node000004" class="node">
<title>Node4</title>
<g id="a_Node000004"><a xlink:title=" ">
<polygon fill="#e0e0e0" stroke="#999999" points="235.5,-74 188.5,-74 188.5,-55 235.5,-55 235.5,-74"/>
<text text-anchor="middle" x="212" y="-62" font-family="Helvetica,sans-Serif" font-size="10.00">vector</text>
</a>
</g>
</g>
<!-- Node2&#45;&gt;Node4 -->
<g id="edge3_Node000002_Node000004" class="edge">
<title>Node2&#45;&gt;Node4</title>
<g id="a_edge3_Node000002_Node000004"><a xlink:title=" ">
<path fill="none" stroke="#63b8ff" d="M245.86,-164.87C228.65,-158.1 208.26,-146.79 198,-129 189.91,-114.97 195.28,-96.73 201.57,-83.4"/>
<polygon fill="#63b8ff" stroke="#63b8ff" points="204.79,-84.79 206.35,-74.31 198.59,-81.53 204.79,-84.79"/>
</a>
</g>
</g>
<!-- Node5 -->
<g id="Node000005" class="node">
<title>Node5</title>
<g id="a_Node000005"><a xlink:href="Enemy_8hpp.html" target="_top" xlink:title=" ">
<polygon fill="white" stroke="#666666" points="146,-129 70,-129 70,-110 146,-110 146,-129"/>
<text text-anchor="middle" x="108" y="-117" font-family="Helvetica,sans-Serif" font-size="10.00">./Enemy.hpp</text>
</a>
</g>
</g>
<!-- Node2&#45;&gt;Node5 -->
<g id="edge4_Node000002_Node000005" class="edge">
<title>Node2&#45;&gt;Node5</title>
<g id="a_edge4_Node000002_Node000005"><a xlink:title=" ">
<path fill="none" stroke="#63b8ff" d="M248.17,-164.98C220.13,-156.09 175.95,-142.07 144.7,-132.15"/>
<polygon fill="#63b8ff" stroke="#63b8ff" points="145.63,-128.77 135.04,-129.08 143.51,-135.44 145.63,-128.77"/>
</a>
</g>
</g>
<!-- Node5&#45;&gt;Node6 -->
<g id="edge5_Node000005_Node000006" class="edge">
<title>Node5&#45;&gt;Node6</title>
<g id="a_edge5_Node000005_Node000006"><a xlink:title=" ">
<path fill="none" stroke="#63b8ff" d="M102.55,-109.75C97.99,-102.42 91.33,-91.73 85.71,-82.7"/>
<polygon fill="#63b8ff" stroke="#63b8ff" points="88.6,-80.73 80.35,-74.09 82.66,-84.43 88.6,-80.73"/>
</a>
</g>
</g>
<!-- Node7 -->
<g id="Node000007" class="node">
<title>Node7</title>
<g id="a_Node000007"><a xlink:title=" ">
<polygon fill="#e0e0e0" stroke="#999999" points="72,-19 0,-19 0,0 72,0 72,-19"/>
<text text-anchor="middle" x="36" y="-7" font-family="Helvetica,sans-Serif" font-size="10.00">SDL2/SDL.h</text>
</a>
</g>
</g>
<!-- Node6&#45;&gt;Node7 -->
<g id="edge6_Node000006_Node000007" class="edge">
<title>Node6&#45;&gt;Node7</title>
<g id="a_edge6_Node000006_Node000007"><a xlink:title=" ">
<path fill="none" stroke="#63b8ff" d="M68.56,-54.75C63.11,-47.34 55.14,-36.5 48.44,-27.41"/>
<polygon fill="#63b8ff" stroke="#63b8ff" points="51.07,-25.07 42.32,-19.09 45.43,-29.22 51.07,-25.07"/>
</a>
</g>
</g>
<!-- Node8 -->
<g id="Node000008" class="node">
<title>Node8</title>
<g id="a_Node000008"><a xlink:title=" ">
<polygon fill="#e0e0e0" stroke="#999999" points="137.5,-19 90.5,-19 90.5,0 137.5,0 137.5,-19"/>
<text text-anchor="middle" x="114" y="-7" font-family="Helvetica,sans-Serif" font-size="10.00">cmath</text>
</a>
</g>
</g>
<!-- Node6&#45;&gt;Node8 -->
<g id="edge7_Node000006_Node000008" class="edge">
<title>Node6&#45;&gt;Node8</title>
<g id="a_edge7_Node000006_Node000008"><a xlink:title=" ">
<path fill="none" stroke="#63b8ff" d="M81.44,-54.75C86.89,-47.34 94.86,-36.5 101.56,-27.41"/>
<polygon fill="#63b8ff" stroke="#63b8ff" points="104.57,-29.22 107.68,-19.09 98.93,-25.07 104.57,-29.22"/>
</a>
</g>
</g>
<!-- Node9&#45;&gt;Node3 -->
<g id="edge17_Node000009_Node000003" class="edge">
<title>Node9&#45;&gt;Node3</title>
<g id="a_edge17_Node000009_Node000003"><a xlink:title=" ">
<path fill="none" stroke="#63b8ff" d="M673.2,-170.11C728.51,-165.09 814.16,-153.51 834,-129 877.01,-75.87 741.97,-66.89 676.93,-65.59"/>
<polygon fill="#63b8ff" stroke="#63b8ff" points="676.82,-62.08 666.76,-65.43 676.71,-69.08 676.82,-62.08"/>
</a>
</g>
</g>
<!-- Node9&#45;&gt;Node4 -->
<g id="edge18_Node000009_Node000004" class="edge">
<title>Node9&#45;&gt;Node4</title>
<g id="a_edge18_Node000009_Node000004"><a xlink:title=" ">
<path fill="none" stroke="#63b8ff" d="M576.77,-171.01C477.42,-165.45 257.08,-150.8 231,-129 218.04,-118.17 213.7,-98.89 212.35,-84.4"/>
<polygon fill="#63b8ff" stroke="#63b8ff" points="215.83,-83.87 211.8,-74.07 208.83,-84.24 215.83,-83.87"/>
</a>
</g>
</g>
<!-- Node10 -->
<g id="Node000010" class="node">
<title>Node10</title>
<g id="a_Node000010"><a xlink:title=" ">
<polygon fill="#e0e0e0" stroke="#999999" points="1131,-129 1067,-129 1067,-110 1131,-110 1131,-129"/>
<text text-anchor="middle" x="1099" y="-117" font-family="Helvetica,sans-Serif" font-size="10.00">algorithm</text>
</a>
</g>
</g>
<!-- Node9&#45;&gt;Node10 -->
<g id="edge10_Node000009_Node000010" class="edge">
<title>Node9&#45;&gt;Node10</title>
<g id="a_edge10_Node000009_Node000010"><a xlink:title=" ">
<path fill="none" stroke="#63b8ff" d="M673.26,-170.16C751.66,-164.37 911.69,-151.09 1056.85,-129.03"/>
<polygon fill="#63b8ff" stroke="#63b8ff" points="1057.48,-132.47 1066.83,-127.49 1056.41,-125.55 1057.48,-132.47"/>
</a>
</g>
</g>
<!-- Node11 -->
<g id="Node000011" class="node">
<title>Node11</title>
<g id="a_Node000011"><a xlink:title=" ">
<polygon fill="#e0e0e0" stroke="#999999" points="447.5,-129 412.5,-129 412.5,-110 447.5,-110 447.5,-129"/>
<text text-anchor="middle" x="430" y="-117" font-family="Helvetica,sans-Serif" font-size="10.00">any</text>
</a>
</g>
</g>
<!-- Node9&#45;&gt;Node11 -->
<g id="edge11_Node000009_Node000011" class="edge">
<title>Node9&#45;&gt;Node11</title>
<g id="a_edge11_Node000009_Node000011"><a xlink:title=" ">
<path fill="none" stroke="#63b8ff" d="M590.77,-164.92C558.72,-156.79 509.3,-143.96 457.4,-129.01"/>
<polygon fill="#63b8ff" stroke="#63b8ff" points="458.26,-125.62 447.68,-126.2 456.31,-132.34 458.26,-125.62"/>
</a>
</g>
</g>
<!-- Node12 -->
<g id="Node000012" class="node">
<title>Node12</title>
<g id="a_Node000012"><a xlink:title=" ">
<polygon fill="#e0e0e0" stroke="#999999" points="1048.5,-129 983.5,-129 983.5,-110 1048.5,-110 1048.5,-129"/>
<text text-anchor="middle" x="1016" y="-117" font-family="Helvetica,sans-Serif" font-size="10.00">functional</text>
</a>
</g>
</g>
<!-- Node9&#45;&gt;Node12 -->
<g id="edge12_Node000009_Node000012" class="edge">
<title>Node9&#45;&gt;Node12</title>
<g id="a_edge12_Node000009_Node000012"><a xlink:title=" ">
<path fill="none" stroke="#63b8ff" d="M673.15,-168.48C738.7,-161.41 859.91,-147.44 973.57,-128.95"/>
<polygon fill="#63b8ff" stroke="#63b8ff" points="974.18,-132.4 983.48,-127.32 973.05,-125.49 974.18,-132.4"/>
</a>
</g>
</g>
<!-- Node13 -->
<g id="Node000013" class="node">
<title>Node13</title>
<g id="a_Node000013"><a xlink:title=" ">
<polygon fill="#e0e0e0" stroke="#999999" points="526,-129 466,-129 466,-110 526,-110 526,-129"/>
<text text-anchor="middle" x="496" y="-117" font-family="Helvetica,sans-Serif" font-size="10.00">iostream</text>
</a>
</g>
</g>
<!-- Node9&#45;&gt;Node13 -->
<g id="edge13_Node000009_Node000013" class="edge">
<title>Node9&#45;&gt;Node13</title>
<g id="a_edge13_Node000009_Node000013"><a xlink:title=" ">
<path fill="none" stroke="#63b8ff" d="M604.27,-164.98C583.24,-156.34 550.45,-142.87 526.46,-133.02"/>
<polygon fill="#63b8ff" stroke="#63b8ff" points="527.68,-129.73 517.1,-129.17 525.02,-136.21 527.68,-129.73"/>
</a>
</g>
</g>
<!-- Node14 -->
<g id="Node000014" class="node">
<title>Node14</title>
<g id="a_Node000014"><a xlink:title=" ">
<polygon fill="#e0e0e0" stroke="#999999" points="609.5,-129 544.5,-129 544.5,-110 609.5,-110 609.5,-129"/>
<text text-anchor="middle" x="577" y="-117" font-family="Helvetica,sans-Serif" font-size="10.00">typeindex</text>
</a>
</g>
</g>
<!-- Node9&#45;&gt;Node14 -->
<g id="edge14_Node000009_Node000014" class="edge">
<title>Node9&#45;&gt;Node14</title>
<g id="a_edge14_Node000009_Node000014"><a xlink:title=" ">
<path fill="none" stroke="#63b8ff" d="M617.07,-164.75C610.15,-157.11 599.93,-145.82 591.55,-136.56"/>
<polygon fill="#63b8ff" stroke="#63b8ff" points="594.09,-134.15 584.78,-129.09 588.9,-138.85 594.09,-134.15"/>
</a>
</g>
</g>
<!-- Node15 -->
<g id="Node000015" class="node">
<title>Node15</title>
<g id="a_Node000015"><a xlink:title=" ">
<polygon fill="#e0e0e0" stroke="#999999" points="720.5,-129 627.5,-129 627.5,-110 720.5,-110 720.5,-129"/>
<text text-anchor="middle" x="674" y="-117" font-family="Helvetica,sans-Serif" font-size="10.00">unordered_map</text>
</a>
</g>
</g>
<!-- Node9&#45;&gt;Node15 -->
<g id="edge15_Node000009_Node000015" class="edge">
<title>Node9&#45;&gt;Node15</title>
<g id="a_edge15_Node000009_Node000015"><a xlink:title=" ">
<path fill="none" stroke="#63b8ff" d="M633.09,-164.75C640.16,-157.11 650.59,-145.82 659.15,-136.56"/>
<polygon fill="#63b8ff" stroke="#63b8ff" points="661.84,-138.81 666.06,-129.09 656.7,-134.06 661.84,-138.81"/>
</a>
</g>
</g>
<!-- Node16 -->
<g id="Node000016" class="node">
<title>Node16</title>
<g id="a_Node000016"><a xlink:title=" ">
<polygon fill="#e0e0e0" stroke="#999999" points="825,-129 739,-129 739,-110 825,-110 825,-129"/>
<text text-anchor="middle" x="782" y="-117" font-family="Helvetica,sans-Serif" font-size="10.00">unordered_set</text>
</a>
</g>
</g>
<!-- Node9&#45;&gt;Node16 -->
<g id="edge16_Node000009_Node000016" class="edge">
<title>Node9&#45;&gt;Node16</title>
<g id="a_edge16_Node000009_Node000016"><a xlink:title=" ">
<path fill="none" stroke="#63b8ff" d="M650.22,-164.98C676.36,-156.16 717.4,-142.31 746.73,-132.41"/>
<polygon fill="#63b8ff" stroke="#63b8ff" points="748.22,-135.6 756.58,-129.08 745.98,-128.96 748.22,-135.6"/>
</a>
</g>
</g>
<!-- Node17 -->
<g id="Node000017" class="node">
<title>Node17</title>
<g id="a_Node000017"><a xlink:href="Entity_8hpp.html" target="_top" xlink:title=" ">
<polygon fill="white" stroke="#666666" points="965,-129 881,-129 881,-110 965,-110 965,-129"/>
<text text-anchor="middle" x="923" y="-117" font-family="Helvetica,sans-Serif" font-size="10.00">ecs/Entity.hpp</text>
</a>
</g>
</g>
<!-- Node9&#45;&gt;Node17 -->
<g id="edge19_Node000009_Node000017" class="edge">
<title>Node9&#45;&gt;Node17</title>
<g id="a_edge19_Node000009_Node000017"><a xlink:title=" ">
<path fill="none" stroke="#63b8ff" d="M672.88,-164.98C726.93,-155.37 814.61,-139.78 870.5,-129.84"/>
<polygon fill="#63b8ff" stroke="#63b8ff" points="871.32,-133.25 880.55,-128.05 870.09,-126.36 871.32,-133.25"/>
</a>
</g>
</g>
<!-- Node19 -->
<g id="Node000019" class="node">
<title>Node19</title>
<g id="a_Node000019"><a xlink:href="SparseArray_8hpp.html" target="_top" xlink:title=" ">
<polygon fill="white" stroke="#666666" points="355.5,-129 240.5,-129 240.5,-110 355.5,-110 355.5,-129"/>
<text text-anchor="middle" x="298" y="-117" font-family="Helvetica,sans-Serif" font-size="10.00">ecs/SparseArray.hpp</text>
</a>
</g>
</g>
<!-- Node9&#45;&gt;Node19 -->
<g id="edge21_Node000009_Node000019" class="edge">
<title>Node9&#45;&gt;Node19</title>
<g id="a_edge21_Node000009_Node000019"><a xlink:title=" ">
<path fill="none" stroke="#63b8ff" d="M576.75,-165.68C519.45,-156.39 423.72,-140.88 360.72,-130.67"/>
<polygon fill="#63b8ff" stroke="#63b8ff" points="360.94,-127.16 350.51,-129.01 359.82,-134.07 360.94,-127.16"/>
</a>
</g>
</g>
<!-- Node18 -->
<g id="Node000018" class="node">
<title>Node18</title>
<g id="a_Node000018"><a xlink:title=" ">
<polygon fill="#e0e0e0" stroke="#999999" points="949.5,-74 896.5,-74 896.5,-55 949.5,-55 949.5,-74"/>
<text text-anchor="middle" x="923" y="-62" font-family="Helvetica,sans-Serif" font-size="10.00">cstddef</text>
</a>
</g>
</g>
<!-- Node17&#45;&gt;Node18 -->
<g id="edge20_Node000017_Node000018" class="edge">
<title>Node17&#45;&gt;Node18</title>
<g id="a_edge20_Node000017_Node000018"><a xlink:title=" ">
<path fill="none" stroke="#63b8ff" d="M923,-109.75C923,-102.8 923,-92.85 923,-84.13"/>
<polygon fill="#63b8ff" stroke="#63b8ff" points="926.5,-84.09 923,-74.09 919.5,-84.09 926.5,-84.09"/>
</a>
</g>
</g>
<!-- Node19&#45;&gt;Node3 -->
<g id="edge24_Node000019_Node000003" class="edge">
<title>Node19&#45;&gt;Node3</title>
<g id="a_edge24_Node000019_Node000003"><a xlink:title=" ">
<path fill="none" stroke="#63b8ff" d="M353.59,-109.98C426.58,-98.8 552.35,-79.54 611.48,-70.48"/>
<polygon fill="#63b8ff" stroke="#63b8ff" points="612.03,-73.94 621.39,-68.96 610.97,-67.02 612.03,-73.94"/>
</a>
</g>
</g>
<!-- Node19&#45;&gt;Node4 -->
<g id="edge25_Node000019_Node000004" class="edge">
<title>Node19&#45;&gt;Node4</title>
<g id="a_edge25_Node000019_Node000004"><a xlink:title=" ">
<path fill="none" stroke="#63b8ff" d="M284.18,-109.98C270.85,-101.77 250.42,-89.18 234.69,-79.49"/>
<polygon fill="#63b8ff" stroke="#63b8ff" points="236.42,-76.44 226.07,-74.17 232.75,-82.4 236.42,-76.44"/>
</a>
</g>
</g>
<!-- Node20 -->
<g id="Node000020" class="node">
<title>Node20</title>
<g id="a_Node000020"><a xlink:title=" ">
<polygon fill="#e0e0e0" stroke="#999999" points="320,-74 262,-74 262,-55 320,-55 320,-74"/>
<text text-anchor="middle" x="291" y="-62" font-family="Helvetica,sans-Serif" font-size="10.00">memory</text>
</a>
</g>
</g>
<!-- Node19&#45;&gt;Node20 -->
<g id="edge22_Node000019_Node000020" class="edge">
<title>Node19&#45;&gt;Node20</title>
<g id="a_edge22_Node000019_Node000020"><a xlink:title=" ">
<path fill="none" stroke="#63b8ff" d="M296.84,-109.75C295.93,-102.8 294.61,-92.85 293.46,-84.13"/>
<polygon fill="#63b8ff" stroke="#63b8ff" points="296.91,-83.54 292.13,-74.09 289.97,-84.46 296.91,-83.54"/>
</a>
</g>
</g>
<!-- Node21 -->
<g id="Node000021" class="node">
<title>Node21</title>
<g id="a_Node000021"><a xlink:title=" ">
<polygon fill="#e0e0e0" stroke="#999999" points="394,-74 338,-74 338,-55 394,-55 394,-74"/>
<text text-anchor="middle" x="366" y="-62" font-family="Helvetica,sans-Serif" font-size="10.00">optional</text>
</a>
</g>
</g>
<!-- Node19&#45;&gt;Node21 -->
<g id="edge23_Node000019_Node000021" class="edge">
<title>Node19&#45;&gt;Node21</title>
<g id="a_edge23_Node000019_Node000021"><a xlink:title=" ">
<path fill="none" stroke="#63b8ff" d="M308.93,-109.98C319.08,-102.07 334.42,-90.11 346.65,-80.58"/>
<polygon fill="#63b8ff" stroke="#63b8ff" points="349.14,-83.08 354.88,-74.17 344.84,-77.56 349.14,-83.08"/>
</a>
</g>
</g>
<!-- Node22&#45;&gt;Node3 -->
<g id="edge30_Node000022_Node000003" class="edge">
<title>Node22&#45;&gt;Node3</title>
<g id="a_edge30_Node000022_Node000003"><a xlink:title=" ">
<path fill="none" stroke="#63b8ff" d="M1111.62,-164.86C1128.9,-152.01 1156.03,-127.53 1140,-110 1124.32,-92.84 784.85,-73.1 676.75,-67.23"/>
<polygon fill="#63b8ff" stroke="#63b8ff" points="676.92,-63.74 666.74,-66.69 676.54,-70.73 676.92,-63.74"/>
</a>
</g>
</g>
<!-- Node22&#45;&gt;Node10 -->
<g id="edge27_Node000022_Node000010" class="edge">
<title>Node22&#45;&gt;Node10</title>
<g id="a_edge27_Node000022_Node000010"><a xlink:title=" ">
<path fill="none" stroke="#63b8ff" d="M1099,-164.75C1099,-157.8 1099,-147.85 1099,-139.13"/>
<polygon fill="#63b8ff" stroke="#63b8ff" points="1102.5,-139.09 1099,-129.09 1095.5,-139.09 1102.5,-139.09"/>
</a>
</g>
</g>
<!-- Node22&#45;&gt;Node12 -->
<g id="edge28_Node000022_Node000012" class="edge">
<title>Node22&#45;&gt;Node12</title>
<g id="a_edge28_Node000022_Node000012"><a xlink:title=" ">
<path fill="none" stroke="#63b8ff" d="M1085.66,-164.98C1072.91,-156.84 1053.45,-144.41 1038.33,-134.76"/>
<polygon fill="#63b8ff" stroke="#63b8ff" points="1039.89,-131.6 1029.58,-129.17 1036.12,-137.5 1039.89,-131.6"/>
</a>
</g>
</g>
<!-- Node22&#45;&gt;Node22 -->
<g id="edge31_Node000022_Node000022" class="edge">
<title>Node22&#45;&gt;Node22</title>
<g id="a_edge31_Node000022_Node000022"><a xlink:title=" ">
<path fill="none" stroke="#63b8ff" d="M1128.02,-184.03C1145.06,-186.06 1161,-182.88 1161,-174.5 1161,-167.82 1150.87,-164.44 1138.14,-164.38"/>
<polygon fill="#63b8ff" stroke="#63b8ff" points="1137.8,-160.89 1128.02,-164.97 1138.21,-167.88 1137.8,-160.89"/>
</a>
</g>
</g>
<!-- Node23 -->
<g id="Node000023" class="node">
<title>Node23</title>
<g id="a_Node000023"><a xlink:title=" ">
<polygon fill="#e0e0e0" stroke="#999999" points="1228.5,-129 1187.5,-129 1187.5,-110 1228.5,-110 1228.5,-129"/>
<text text-anchor="middle" x="1208" y="-117" font-family="Helvetica,sans-Serif" font-size="10.00">tuple</text>
</a>
</g>
</g>
<!-- Node22&#45;&gt;Node23 -->
<g id="edge29_Node000022_Node000023" class="edge">
<title>Node22&#45;&gt;Node23</title>
<g id="a_edge29_Node000022_Node000023"><a xlink:title=" ">
<path fill="none" stroke="#63b8ff" d="M1116.51,-164.98C1133.97,-156.5 1161.01,-143.35 1181.17,-133.54"/>
<polygon fill="#63b8ff" stroke="#63b8ff" points="1182.71,-136.69 1190.17,-129.17 1179.64,-130.4 1182.71,-136.69"/>
</a>
</g>
</g>
</g>
</svg>
