<?xml version="1.0" encoding="UTF-8" standalone="no"?>
<!DOCTYPE svg PUBLIC "-//W3C//DTD SVG 1.1//EN"
 "http://www.w3.org/Graphics/SVG/1.1/DTD/svg11.dtd">
<!-- Generated by graphviz version 2.43.0 (0)
 -->
<!-- Title: /home/runner/work/R&#45;Type/R&#45;Type/Shared/systems/SpawnEnemy/Spawn.hpp Pages: 1 -->
<svg width="471pt" height="214pt"
 viewBox="0.00 0.00 470.50 214.00" xmlns="http://www.w3.org/2000/svg" xmlns:xlink="http://www.w3.org/1999/xlink">
<g id="graph0" class="graph" transform="scale(1 1) rotate(0) translate(4 210)">
<title>/home/runner/work/R&#45;Type/R&#45;Type/Shared/systems/SpawnEnemy/Spawn.hpp</title>
<!-- Node1 -->
<g id="Node000001" class="node">
<title>Node1</title>
<g id="a_Node000001"><a xlink:title=" ">
<polygon fill="#999999" stroke="#666666" points="363.5,-206 177.5,-206 177.5,-165 363.5,-165 363.5,-206"/>
<text text-anchor="start" x="185.5" y="-194" font-family="Helvetica,sans-Serif" font-size="10.00">/home/runner/work/R</text>
<text text-anchor="start" x="185.5" y="-183" font-family="Helvetica,sans-Serif" font-size="10.00">&#45;Type/R&#45;Type/Shared</text>
<text text-anchor="middle" x="270.5" y="-172" font-family="Helvetica,sans-Serif" font-size="10.00">/systems/SpawnEnemy/Spawn.hpp</text>
</a>
</g>
</g>
<!-- Node2 -->
<g id="Node000002" class="node">
<title>Node2</title>
<g id="a_Node000002"><a xlink:href="EnemySpawn_8hpp.html" target="_top" xlink:title=" ">
<polygon fill="white" stroke="#666666" points="180,-129 43,-129 43,-110 180,-110 180,-129"/>
<text text-anchor="middle" x="111.5" y="-117" font-family="Helvetica,sans-Serif" font-size="10.00">Player/EnemySpawn.hpp</text>
</a>
</g>
</g>
<!-- Node1&#45;&gt;Node2 -->
<g id="edge1_Node000001_Node000002" class="edge">
<title>Node1&#45;&gt;Node2</title>
<g id="a_edge1_Node000001_Node000002"><a xlink:title=" ">
<path fill="none" stroke="#63b8ff" d="M221.93,-164.95C196,-154.51 164.86,-141.98 142.27,-132.88"/>
<polygon fill="#63b8ff" stroke="#63b8ff" points="143.43,-129.58 132.85,-129.09 140.82,-136.07 143.43,-129.58"/>
</a>
</g>
</g>
<!-- Node6 -->
<g id="Node000006" class="node">
<title>Node6</title>
<g id="a_Node000006"><a xlink:title=" ">
<polygon fill="#e0e0e0" stroke="#999999" points="263.5,-19 135.5,-19 135.5,0 263.5,0 263.5,-19"/>
<text text-anchor="middle" x="199.5" y="-7" font-family="Helvetica,sans-Serif" font-size="10.00">physics/Physics2D.hpp</text>
</a>
</g>
</g>
<!-- Node1&#45;&gt;Node6 -->
<g id="edge6_Node000001_Node000006" class="edge">
<title>Node1&#45;&gt;Node6</title>
<g id="a_edge6_Node000001_Node000006"><a xlink:title=" ">
<path fill="none" stroke="#63b8ff" d="M262.49,-164.88C248.62,-130.87 220.3,-61.49 206.88,-28.58"/>
<polygon fill="#63b8ff" stroke="#63b8ff" points="210.1,-27.21 203.08,-19.27 203.62,-29.86 210.1,-27.21"/>
</a>
</g>
</g>
<!-- Node7 -->
<g id="Node000007" class="node">
<title>Node7</title>
<g id="a_Node000007"><a xlink:title=" ">
<polygon fill="#e0e0e0" stroke="#999999" points="356.5,-129 260.5,-129 260.5,-110 356.5,-110 356.5,-129"/>
<text text-anchor="middle" x="308.5" y="-117" font-family="Helvetica,sans-Serif" font-size="10.00">ecs/Registry.hpp</text>
</a>
</g>
</g>
<!-- Node1&#45;&gt;Node7 -->
<g id="edge7_Node000001_Node000007" class="edge">
<title>Node1&#45;&gt;Node7</title>
<g id="a_edge7_Node000001_Node000007"><a xlink:title=" ">
<path fill="none" stroke="#63b8ff" d="M282.11,-164.95C287.19,-156.39 293.11,-146.42 298.05,-138.1"/>
<polygon fill="#63b8ff" stroke="#63b8ff" points="301.2,-139.65 303.3,-129.26 295.18,-136.07 301.2,-139.65"/>
</a>
</g>
</g>
<!-- Node8 -->
<g id="Node000008" class="node">
<title>Node8</title>
<g id="a_Node000008"><a xlink:title=" ">
<polygon fill="#e0e0e0" stroke="#999999" points="462.5,-129 374.5,-129 374.5,-110 462.5,-110 462.5,-129"/>
<text text-anchor="middle" x="418.5" y="-117" font-family="Helvetica,sans-Serif" font-size="10.00">ecs/Zipper.hpp</text>
</a>
</g>
</g>
<!-- Node1&#45;&gt;Node8 -->
<g id="edge8_Node000001_Node000008" class="edge">
<title>Node1&#45;&gt;Node8</title>
<g id="a_edge8_Node000001_Node000008"><a xlink:title=" ">
<path fill="none" stroke="#63b8ff" d="M315.71,-164.95C339.63,-154.6 368.31,-142.2 389.29,-133.13"/>
<polygon fill="#63b8ff" stroke="#63b8ff" points="390.84,-136.27 398.63,-129.09 388.06,-129.85 390.84,-136.27"/>
</a>
</g>
</g>
<!-- Node3 -->
<g id="Node000003" class="node">
<title>Node3</title>
<g id="a_Node000003"><a xlink:title=" ">
<polygon fill="#e0e0e0" stroke="#999999" points="45,-74 0,-74 0,-55 45,-55 45,-74"/>
<text text-anchor="middle" x="22.5" y="-62" font-family="Helvetica,sans-Serif" font-size="10.00">utility</text>
</a>
</g>
</g>
<!-- Node2&#45;&gt;Node3 -->
<g id="edge2_Node000002_Node000003" class="edge">
<title>Node2&#45;&gt;Node3</title>
<g id="a_edge2_Node000002_Node000003"><a xlink:title=" ">
<path fill="none" stroke="#63b8ff" d="M97.2,-109.98C83.4,-101.77 62.26,-89.18 45.99,-79.49"/>
<polygon fill="#63b8ff" stroke="#63b8ff" points="47.44,-76.28 37.06,-74.17 43.86,-82.29 47.44,-76.28"/>
</a>
</g>
</g>
<!-- Node4 -->
<g id="Node000004" class="node">
<title>Node4</title>
<g id="a_Node000004"><a xlink:title=" ">
<polygon fill="#e0e0e0" stroke="#999999" points="110,-74 63,-74 63,-55 110,-55 110,-74"/>
<text text-anchor="middle" x="86.5" y="-62" font-family="Helvetica,sans-Serif" font-size="10.00">vector</text>
</a>
</g>
</g>
<!-- Node2&#45;&gt;Node4 -->
<g id="edge3_Node000002_Node000004" class="edge">
<title>Node2&#45;&gt;Node4</title>
<g id="a_edge3_Node000002_Node000004"><a xlink:title=" ">
<path fill="none" stroke="#63b8ff" d="M107.37,-109.75C103.99,-102.57 99.08,-92.18 94.88,-83.27"/>
<polygon fill="#63b8ff" stroke="#63b8ff" points="97.98,-81.64 90.55,-74.09 91.65,-84.63 97.98,-81.64"/>
</a>
</g>
</g>
<!-- Node5 -->
<g id="Node000005" class="node">
<title>Node5</title>
<g id="a_Node000005"><a xlink:href="Enemy_8hpp.html" target="_top" xlink:title=" ">
<polygon fill="white" stroke="#666666" points="204.5,-74 128.5,-74 128.5,-55 204.5,-55 204.5,-74"/>
<text text-anchor="middle" x="166.5" y="-62" font-family="Helvetica,sans-Serif" font-size="10.00">./Enemy.hpp</text>
</a>
</g>
</g>
<!-- Node2&#45;&gt;Node5 -->
<g id="edge4_Node000002_Node000005" class="edge">
<title>Node2&#45;&gt;Node5</title>
<g id="a_edge4_Node000002_Node000005"><a xlink:title=" ">
<path fill="none" stroke="#63b8ff" d="M120.58,-109.75C128.59,-102.03 140.46,-90.6 150.12,-81.28"/>
<polygon fill="#63b8ff" stroke="#63b8ff" points="152.81,-83.55 157.59,-74.09 147.96,-78.51 152.81,-83.55"/>
</a>
</g>
</g>
<!-- Node5&#45;&gt;Node6 -->
<g id="edge5_Node000005_Node000006" class="edge">
<title>Node5&#45;&gt;Node6</title>
<g id="a_edge5_Node000005_Node000006"><a xlink:title=" ">
<path fill="none" stroke="#63b8ff" d="M171.95,-54.75C176.51,-47.42 183.17,-36.73 188.79,-27.7"/>
<polygon fill="#63b8ff" stroke="#63b8ff" points="191.84,-29.43 194.15,-19.09 185.9,-25.73 191.84,-29.43"/>
</a>
</g>
</g>
</g>
</svg>
