<?xml version="1.0" encoding="UTF-8" standalone="no"?>
<!DOCTYPE svg PUBLIC "-//W3C//DTD SVG 1.1//EN"
 "http://www.w3.org/Graphics/SVG/1.1/DTD/svg11.dtd">
<!-- Generated by graphviz version 2.43.0 (0)
 -->
<!-- Title: PlayerEntity Pages: 1 -->
<svg width="160pt" height="225pt"
 viewBox="0.00 0.00 160.00 225.00" xmlns="http://www.w3.org/2000/svg" xmlns:xlink="http://www.w3.org/1999/xlink">
<g id="graph0" class="graph" transform="scale(1 1) rotate(0) translate(4 221)">
<title>PlayerEntity</title>
<!-- Node1 -->
<g id="Node000001" class="node">
<title>Node1</title>
<g id="a_Node000001"><a xlink:title=" ">
<polygon fill="#999999" stroke="#666666" points="76,-19 0,-19 0,0 76,0 76,-19"/>
<text text-anchor="middle" x="38" y="-7" font-family="Helvetica,sans-Serif" font-size="10.00">PlayerEntity</text>
</a>
</g>
</g>
<!-- Node2 -->
<g id="Node000002" class="node">
<title>Node2</title>
<g id="a_Node000002"><a xlink:href="structVector2.html" target="_top" xlink:title=" ">
<polygon fill="white" stroke="#666666" points="64.5,-217 11.5,-217 11.5,-198 64.5,-198 64.5,-217"/>
<text text-anchor="middle" x="38" y="-205" font-family="Helvetica,sans-Serif" font-size="10.00">Vector2</text>
</a>
</g>
</g>
<!-- Node2&#45;&gt;Node1 -->
<g id="edge1_Node000001_Node000002" class="edge">
<title>Node2&#45;&gt;Node1</title>
<g id="a_edge1_Node000001_Node000002"><a xlink:title=" ">
<path fill="none" stroke="#9a32cd" stroke-dasharray="5,2" d="M38,-187.76C38,-146.38 38,-48.58 38,-19.07"/>
<polygon fill="#9a32cd" stroke="#9a32cd" points="34.5,-187.83 38,-197.83 41.5,-187.83 34.5,-187.83"/>
</a>
</g>
<text text-anchor="middle" x="52" y="-106" font-family="Helvetica,sans-Serif" font-size="10.00" fill="grey"> input</text>
</g>
<!-- Node4 -->
<g id="Node000004" class="node">
<title>Node4</title>
<g id="a_Node000004"><a xlink:href="structProjectile.html" target="_top" xlink:title=" ">
<polygon fill="white" stroke="#666666" points="112,-151 50,-151 50,-132 112,-132 112,-151"/>
<text text-anchor="middle" x="81" y="-139" font-family="Helvetica,sans-Serif" font-size="10.00">Projectile</text>
</a>
</g>
</g>
<!-- Node2&#45;&gt;Node4 -->
<g id="edge4_Node000004_Node000002" class="edge">
<title>Node2&#45;&gt;Node4</title>
<g id="a_edge4_Node000004_Node000002"><a xlink:title=" ">
<path fill="none" stroke="#9a32cd" stroke-dasharray="5,2" d="M49.48,-189.41C57.7,-177.18 68.44,-161.2 75.02,-151.41"/>
<polygon fill="#9a32cd" stroke="#9a32cd" points="46.47,-187.62 43.8,-197.87 52.28,-191.52 46.47,-187.62"/>
</a>
</g>
<text text-anchor="middle" x="85" y="-172" font-family="Helvetica,sans-Serif" font-size="10.00" fill="grey"> direction</text>
</g>
<!-- Node3 -->
<g id="Node000003" class="node">
<title>Node3</title>
<g id="a_Node000003"><a xlink:href="structWeapon.html" target="_top" xlink:title=" ">
<polygon fill="white" stroke="#666666" points="107,-85 51,-85 51,-66 107,-66 107,-85"/>
<text text-anchor="middle" x="79" y="-73" font-family="Helvetica,sans-Serif" font-size="10.00">Weapon</text>
</a>
</g>
</g>
<!-- Node3&#45;&gt;Node1 -->
<g id="edge2_Node000001_Node000003" class="edge">
<title>Node3&#45;&gt;Node1</title>
<g id="a_edge2_Node000001_Node000003"><a xlink:title=" ">
<path fill="none" stroke="#9a32cd" stroke-dasharray="5,2" d="M68.05,-57.41C60.21,-45.18 49.98,-29.2 43.7,-19.41"/>
<polygon fill="#9a32cd" stroke="#9a32cd" points="65.13,-59.34 73.47,-65.87 71.02,-55.56 65.13,-59.34"/>
</a>
</g>
<text text-anchor="middle" x="81" y="-40" font-family="Helvetica,sans-Serif" font-size="10.00" fill="grey"> weapon</text>
</g>
<!-- Node4&#45;&gt;Node3 -->
<g id="edge3_Node000003_Node000004" class="edge">
<title>Node4&#45;&gt;Node3</title>
<g id="a_edge3_Node000003_Node000004"><a xlink:title=" ">
<path fill="none" stroke="#9a32cd" stroke-dasharray="5,2" d="M80.41,-121.58C80.04,-109.63 79.57,-94.72 79.28,-85.41"/>
<polygon fill="#9a32cd" stroke="#9a32cd" points="76.92,-121.98 80.73,-131.87 83.92,-121.76 76.92,-121.98"/>
</a>
</g>
<text text-anchor="middle" x="116" y="-106" font-family="Helvetica,sans-Serif" font-size="10.00" fill="grey"> projectileType</text>
</g>
</g>
</svg>
