<?xml version="1.0" encoding="UTF-8" standalone="no"?>
<!DOCTYPE svg PUBLIC "-//W3C//DTD SVG 1.1//EN"
 "http://www.w3.org/Graphics/SVG/1.1/DTD/svg11.dtd">
<!-- Generated by graphviz version 2.43.0 (0)
 -->
<!-- Title: PlayerEntity Pages: 1 -->
<svg width="161pt" height="159pt"
 viewBox="0.00 0.00 160.50 159.00" xmlns="http://www.w3.org/2000/svg" xmlns:xlink="http://www.w3.org/1999/xlink">
<g id="graph0" class="graph" transform="scale(1 1) rotate(0) translate(4 155)">
<title>PlayerEntity</title>
<!-- Node1 -->
<g id="Node000001" class="node">
<title>Node1</title>
<g id="a_Node000001"><a xlink:title=" ">
<polygon fill="#999999" stroke="#666666" points="111,-19 35,-19 35,0 111,0 111,-19"/>
<text text-anchor="middle" x="73" y="-7" font-family="Helvetica,sans-Serif" font-size="10.00">PlayerEntity</text>
</a>
</g>
</g>
<!-- Node2 -->
<g id="Node000002" class="node">
<title>Node2</title>
<g id="a_Node000002"><a xlink:href="structWeapon.html" target="_top" xlink:title=" ">
<polygon fill="white" stroke="#666666" points="59,-85 3,-85 3,-66 59,-66 59,-85"/>
<text text-anchor="middle" x="31" y="-73" font-family="Helvetica,sans-Serif" font-size="10.00">Weapon</text>
</a>
</g>
</g>
<!-- Node2&#45;&gt;Node1 -->
<g id="edge1_Node000001_Node000002" class="edge">
<title>Node2&#45;&gt;Node1</title>
<g id="a_edge1_Node000001_Node000002"><a xlink:title=" ">
<path fill="none" stroke="#9a32cd" stroke-dasharray="5,2" d="M39.54,-56.72C42.85,-50.34 46.84,-43.19 51,-37 55.13,-30.84 60.42,-24.44 64.78,-19.46"/>
<polygon fill="#9a32cd" stroke="#9a32cd" points="36.31,-55.37 34.98,-65.88 42.57,-58.49 36.31,-55.37"/>
</a>
</g>
<text text-anchor="middle" x="72" y="-40" font-family="Helvetica,sans-Serif" font-size="10.00" fill="grey"> weapon</text>
</g>
<!-- Node3 -->
<g id="Node000003" class="node">
<title>Node3</title>
<g id="a_Node000003"><a xlink:href="structProjectile.html" target="_top" xlink:title=" ">
<polygon fill="white" stroke="#666666" points="62,-151 0,-151 0,-132 62,-132 62,-151"/>
<text text-anchor="middle" x="31" y="-139" font-family="Helvetica,sans-Serif" font-size="10.00">Projectile</text>
</a>
</g>
</g>
<!-- Node3&#45;&gt;Node2 -->
<g id="edge2_Node000002_Node000003" class="edge">
<title>Node3&#45;&gt;Node2</title>
<g id="a_edge2_Node000002_Node000003"><a xlink:title=" ">
<path fill="none" stroke="#9a32cd" stroke-dasharray="5,2" d="M31,-121.58C31,-109.63 31,-94.72 31,-85.41"/>
<polygon fill="#9a32cd" stroke="#9a32cd" points="27.5,-121.87 31,-131.87 34.5,-121.87 27.5,-121.87"/>
</a>
</g>
<text text-anchor="middle" x="67" y="-106" font-family="Helvetica,sans-Serif" font-size="10.00" fill="grey"> projectileType</text>
</g>
<!-- Node4 -->
<g id="Node000004" class="node">
<title>Node4</title>
<g id="a_Node000004"><a xlink:href="structPlayerShoot.html" target="_top" xlink:title=" ">
<polygon fill="white" stroke="#666666" points="152.5,-85 77.5,-85 77.5,-66 152.5,-66 152.5,-85"/>
<text text-anchor="middle" x="115" y="-73" font-family="Helvetica,sans-Serif" font-size="10.00">PlayerShoot</text>
</a>
</g>
</g>
<!-- Node4&#45;&gt;Node1 -->
<g id="edge3_Node000001_Node000004" class="edge">
<title>Node4&#45;&gt;Node1</title>
<g id="a_edge3_Node000001_Node000004"><a xlink:title=" ">
<path fill="none" stroke="#9a32cd" stroke-dasharray="5,2" d="M105.23,-56.89C101.55,-50.52 97.23,-43.34 93,-37 88.9,-30.86 83.9,-24.24 79.93,-19.15"/>
<polygon fill="#9a32cd" stroke="#9a32cd" points="102.41,-59.01 110.38,-65.99 108.5,-55.56 102.41,-59.01"/>
</a>
</g>
<text text-anchor="middle" x="114.5" y="-40" font-family="Helvetica,sans-Serif" font-size="10.00" fill="grey"> shoot</text>
</g>
</g>
</svg>
