<?xml version="1.0" encoding="UTF-8" standalone="no"?>
<!DOCTYPE svg PUBLIC "-//W3C//DTD SVG 1.1//EN"
 "http://www.w3.org/Graphics/SVG/1.1/DTD/svg11.dtd">
<!-- Generated by graphviz version 2.43.0 (0)
 -->
<!-- Title: /home/runner/work/R&#45;Type/R&#45;Type/Server/src/network/TCPServer.cpp Pages: 1 -->
<svg width="1010pt" height="324pt"
 viewBox="0.00 0.00 1010.00 324.00" xmlns="http://www.w3.org/2000/svg" xmlns:xlink="http://www.w3.org/1999/xlink">
<g id="graph0" class="graph" transform="scale(1 1) rotate(0) translate(4 320)">
<title>/home/runner/work/R&#45;Type/R&#45;Type/Server/src/network/TCPServer.cpp</title>
<!-- Node1 -->
<g id="Node000001" class="node">
<title>Node1</title>
<g id="a_Node000001"><a xlink:title=" ">
<polygon fill="#999999" stroke="#666666" points="596.5,-316 447.5,-316 447.5,-275 596.5,-275 596.5,-316"/>
<text text-anchor="start" x="455.5" y="-304" font-family="Helvetica,sans-Serif" font-size="10.00">/home/runner/work/R</text>
<text text-anchor="start" x="455.5" y="-293" font-family="Helvetica,sans-Serif" font-size="10.00">&#45;Type/R&#45;Type/Server</text>
<text text-anchor="middle" x="522" y="-282" font-family="Helvetica,sans-Serif" font-size="10.00">/src/network/TCPServer.cpp</text>
</a>
</g>
</g>
<!-- Node2 -->
<g id="Node000002" class="node">
<title>Node2</title>
<g id="a_Node000002"><a xlink:href="TCPServer_8hpp.html" target="_top" xlink:title=" ">
<polygon fill="white" stroke="#666666" points="493.5,-239 364.5,-239 364.5,-220 493.5,-220 493.5,-239"/>
<text text-anchor="middle" x="429" y="-227" font-family="Helvetica,sans-Serif" font-size="10.00">network/TCPServer.hpp</text>
</a>
</g>
</g>
<!-- Node1&#45;&gt;Node2 -->
<g id="edge1_Node000001_Node000002" class="edge">
<title>Node1&#45;&gt;Node2</title>
<g id="a_edge1_Node000001_Node000002"><a xlink:title=" ">
<path fill="none" stroke="#63b8ff" d="M493.59,-274.95C479.66,-265.37 463.17,-254.02 450.34,-245.19"/>
<polygon fill="#63b8ff" stroke="#63b8ff" points="451.95,-242.05 441.73,-239.26 447.98,-247.81 451.95,-242.05"/>
</a>
</g>
</g>
<!-- Node5 -->
<g id="Node000005" class="node">
<title>Node5</title>
<g id="a_Node000005"><a xlink:title=" ">
<polygon fill="#e0e0e0" stroke="#999999" points="88,-184 28,-184 28,-165 88,-165 88,-184"/>
<text text-anchor="middle" x="58" y="-172" font-family="Helvetica,sans-Serif" font-size="10.00">iostream</text>
</a>
</g>
</g>
<!-- Node1&#45;&gt;Node5 -->
<g id="edge26_Node000001_Node000005" class="edge">
<title>Node1&#45;&gt;Node5</title>
<g id="a_edge26_Node000001_Node000005"><a xlink:title=" ">
<path fill="none" stroke="#63b8ff" d="M447.3,-278.56C399.1,-268 335.15,-253.47 279,-239 214.09,-222.27 139.24,-200.17 95.43,-186.94"/>
<polygon fill="#63b8ff" stroke="#63b8ff" points="96.36,-183.56 85.77,-184.02 94.33,-190.26 96.36,-183.56"/>
</a>
</g>
</g>
<!-- Node6 -->
<g id="Node000006" class="node">
<title>Node6</title>
<g id="a_Node000006"><a xlink:title=" ">
<polygon fill="#e0e0e0" stroke="#999999" points="164,-184 106,-184 106,-165 164,-165 164,-184"/>
<text text-anchor="middle" x="135" y="-172" font-family="Helvetica,sans-Serif" font-size="10.00">memory</text>
</a>
</g>
</g>
<!-- Node1&#45;&gt;Node6 -->
<g id="edge27_Node000001_Node000006" class="edge">
<title>Node1&#45;&gt;Node6</title>
<g id="a_edge27_Node000001_Node000006"><a xlink:title=" ">
<path fill="none" stroke="#63b8ff" d="M458.53,-274.98C377.15,-249.96 238.65,-207.37 172.43,-187.01"/>
<polygon fill="#63b8ff" stroke="#63b8ff" points="173.41,-183.65 162.82,-184.05 171.35,-190.34 173.41,-183.65"/>
</a>
</g>
</g>
<!-- Node7 -->
<g id="Node000007" class="node">
<title>Node7</title>
<g id="a_Node000007"><a xlink:title=" ">
<polygon fill="#e0e0e0" stroke="#999999" points="109,-19 65,-19 65,0 109,0 109,-19"/>
<text text-anchor="middle" x="87" y="-7" font-family="Helvetica,sans-Serif" font-size="10.00">string</text>
</a>
</g>
</g>
<!-- Node1&#45;&gt;Node7 -->
<g id="edge28_Node000001_Node000007" class="edge">
<title>Node1&#45;&gt;Node7</title>
<g id="a_edge28_Node000001_Node000007"><a xlink:title=" ">
<path fill="none" stroke="#63b8ff" d="M447.49,-292.9C303.26,-287.76 0,-266.18 0,-175.5 0,-175.5 0,-175.5 0,-118.5 0,-77.58 38.35,-43.39 64.12,-25.03"/>
<polygon fill="#63b8ff" stroke="#63b8ff" points="66.35,-27.75 72.63,-19.21 62.4,-21.97 66.35,-27.75"/>
</a>
</g>
</g>
<!-- Node9 -->
<g id="Node000009" class="node">
<title>Node9</title>
<g id="a_Node000009"><a xlink:title=" ">
<polygon fill="#e0e0e0" stroke="#999999" points="672.5,-19 625.5,-19 625.5,0 672.5,0 672.5,-19"/>
<text text-anchor="middle" x="649" y="-7" font-family="Helvetica,sans-Serif" font-size="10.00">vector</text>
</a>
</g>
</g>
<!-- Node1&#45;&gt;Node9 -->
<g id="edge30_Node000001_Node000009" class="edge">
<title>Node1&#45;&gt;Node9</title>
<g id="a_edge30_Node000001_Node000009"><a xlink:title=" ">
<path fill="none" stroke="#63b8ff" d="M596.74,-291.38C731.65,-283.68 1002,-257.98 1002,-175.5 1002,-175.5 1002,-175.5 1002,-118.5 1002,-52.14 771.02,-22.47 682.74,-13.55"/>
<polygon fill="#63b8ff" stroke="#63b8ff" points="683,-10.06 672.71,-12.57 682.32,-17.03 683,-10.06"/>
</a>
</g>
</g>
<!-- Node11 -->
<g id="Node000011" class="node">
<title>Node11</title>
<g id="a_Node000011"><a xlink:href="ServerMacro_8hpp.html" target="_top" xlink:title="Server configuration constants and macros.">
<polygon fill="white" stroke="#666666" points="817.5,-184 680.5,-184 680.5,-165 817.5,-165 817.5,-184"/>
<text text-anchor="middle" x="749" y="-172" font-family="Helvetica,sans-Serif" font-size="10.00">include/ServerMacro.hpp</text>
</a>
</g>
</g>
<!-- Node1&#45;&gt;Node11 -->
<g id="edge31_Node000001_Node000011" class="edge">
<title>Node1&#45;&gt;Node11</title>
<g id="a_edge31_Node000001_Node000011"><a xlink:title=" ">
<path fill="none" stroke="#63b8ff" d="M523.06,-274.81C525.04,-257.86 530.61,-233.98 546,-220 564.33,-203.35 621.39,-191.76 670.36,-184.59"/>
<polygon fill="#63b8ff" stroke="#63b8ff" points="670.94,-188.04 680.35,-183.17 669.96,-181.11 670.94,-188.04"/>
</a>
</g>
</g>
<!-- Node18 -->
<g id="Node000018" class="node">
<title>Node18</title>
<g id="a_Node000018"><a xlink:title=" ">
<polygon fill="#e0e0e0" stroke="#999999" points="634,-239 588,-239 588,-220 634,-220 634,-239"/>
<text text-anchor="middle" x="611" y="-227" font-family="Helvetica,sans-Serif" font-size="10.00">cstdio</text>
</a>
</g>
</g>
<!-- Node1&#45;&gt;Node18 -->
<g id="edge25_Node000001_Node000018" class="edge">
<title>Node1&#45;&gt;Node18</title>
<g id="a_edge25_Node000001_Node000018"><a xlink:title=" ">
<path fill="none" stroke="#63b8ff" d="M549.19,-274.95C562.51,-265.37 578.3,-254.02 590.58,-245.19"/>
<polygon fill="#63b8ff" stroke="#63b8ff" points="592.74,-247.94 598.82,-239.26 588.66,-242.26 592.74,-247.94"/>
</a>
</g>
</g>
<!-- Node19 -->
<g id="Node000019" class="node">
<title>Node19</title>
<g id="a_Node000019"><a xlink:title=" ">
<polygon fill="#e0e0e0" stroke="#999999" points="697.5,-239 652.5,-239 652.5,-220 697.5,-220 697.5,-239"/>
<text text-anchor="middle" x="675" y="-227" font-family="Helvetica,sans-Serif" font-size="10.00">utility</text>
</a>
</g>
</g>
<!-- Node1&#45;&gt;Node19 -->
<g id="edge29_Node000001_Node000019" class="edge">
<title>Node1&#45;&gt;Node19</title>
<g id="a_edge29_Node000001_Node000019"><a xlink:title=" ">
<path fill="none" stroke="#63b8ff" d="M568.74,-274.95C593.58,-264.56 623.39,-252.09 645.1,-243.01"/>
<polygon fill="#63b8ff" stroke="#63b8ff" points="646.59,-246.18 654.46,-239.09 643.88,-239.72 646.59,-246.18"/>
</a>
</g>
</g>
<!-- Node20 -->
<g id="Node000020" class="node">
<title>Node20</title>
<g id="a_Node000020"><a xlink:href="EncodeFunc_8hpp.html" target="_top" xlink:title=" ">
<polygon fill="white" stroke="#666666" points="974,-184 836,-184 836,-165 974,-165 974,-184"/>
<text text-anchor="middle" x="905" y="-172" font-family="Helvetica,sans-Serif" font-size="10.00">network/EncodeFunc.hpp</text>
</a>
</g>
</g>
<!-- Node1&#45;&gt;Node20 -->
<g id="edge32_Node000001_Node000020" class="edge">
<title>Node1&#45;&gt;Node20</title>
<g id="a_edge32_Node000001_Node000020"><a xlink:title=" ">
<path fill="none" stroke="#63b8ff" d="M531.43,-274.79C540.89,-257.32 557.18,-232.69 579,-220 589.6,-213.84 732.7,-195.91 825.75,-184.79"/>
<polygon fill="#63b8ff" stroke="#63b8ff" points="826.2,-188.26 835.71,-183.6 825.37,-181.31 826.2,-188.26"/>
</a>
</g>
</g>
<!-- Node3 -->
<g id="Node000003" class="node">
<title>Node3</title>
<g id="a_Node000003"><a xlink:title=" ">
<polygon fill="#e0e0e0" stroke="#999999" points="803.5,-74 734.5,-74 734.5,-55 803.5,-55 803.5,-74"/>
<text text-anchor="middle" x="769" y="-62" font-family="Helvetica,sans-Serif" font-size="10.00">arpa/inet.h</text>
</a>
</g>
</g>
<!-- Node2&#45;&gt;Node3 -->
<g id="edge2_Node000002_Node000003" class="edge">
<title>Node2&#45;&gt;Node3</title>
<g id="a_edge2_Node000002_Node000003"><a xlink:title=" ">
<path fill="none" stroke="#63b8ff" d="M493.9,-221.95C534.13,-215.99 585.96,-204.8 628,-184 681.02,-157.77 731.03,-107.57 754.71,-81.74"/>
<polygon fill="#63b8ff" stroke="#63b8ff" points="757.34,-84.05 761.44,-74.27 752.14,-79.36 757.34,-84.05"/>
</a>
</g>
</g>
<!-- Node4 -->
<g id="Node000004" class="node">
<title>Node4</title>
<g id="a_Node000004"><a xlink:title=" ">
<polygon fill="#e0e0e0" stroke="#999999" points="335.5,-74 270.5,-74 270.5,-55 335.5,-55 335.5,-74"/>
<text text-anchor="middle" x="303" y="-62" font-family="Helvetica,sans-Serif" font-size="10.00">functional</text>
</a>
</g>
</g>
<!-- Node2&#45;&gt;Node4 -->
<g id="edge3_Node000002_Node000004" class="edge">
<title>Node2&#45;&gt;Node4</title>
<g id="a_edge3_Node000002_Node000004"><a xlink:title=" ">
<path fill="none" stroke="#63b8ff" d="M424.95,-219.84C413.58,-195.72 381.14,-128.34 365,-110 354.4,-97.95 339.95,-87.34 327.67,-79.51"/>
<polygon fill="#63b8ff" stroke="#63b8ff" points="329.15,-76.32 318.8,-74.08 325.5,-82.29 329.15,-76.32"/>
</a>
</g>
</g>
<!-- Node2&#45;&gt;Node5 -->
<g id="edge4_Node000002_Node000005" class="edge">
<title>Node2&#45;&gt;Node5</title>
<g id="a_edge4_Node000002_Node000005"><a xlink:title=" ">
<path fill="none" stroke="#63b8ff" d="M364.49,-221.43C299.65,-213.97 196.62,-201.14 98.3,-184.1"/>
<polygon fill="#63b8ff" stroke="#63b8ff" points="98.64,-180.61 88.19,-182.33 97.43,-187.5 98.64,-180.61"/>
</a>
</g>
</g>
<!-- Node2&#45;&gt;Node6 -->
<g id="edge5_Node000002_Node000006" class="edge">
<title>Node2&#45;&gt;Node6</title>
<g id="a_edge5_Node000002_Node000006"><a xlink:title=" ">
<path fill="none" stroke="#63b8ff" d="M378.94,-219.92C328.24,-211.17 247.6,-197.05 178,-184 176.74,-183.76 175.46,-183.52 174.16,-183.27"/>
<polygon fill="#63b8ff" stroke="#63b8ff" points="174.61,-179.8 164.13,-181.34 173.28,-186.67 174.61,-179.8"/>
</a>
</g>
</g>
<!-- Node2&#45;&gt;Node7 -->
<g id="edge6_Node000002_Node000007" class="edge">
<title>Node2&#45;&gt;Node7</title>
<g id="a_edge6_Node000002_Node000007"><a xlink:title=" ">
<path fill="none" stroke="#63b8ff" d="M364.34,-224.7C319.23,-219.87 258.79,-208.89 211,-184 146.44,-150.38 107.91,-66.08 93.5,-28.76"/>
<polygon fill="#63b8ff" stroke="#63b8ff" points="96.71,-27.33 89.94,-19.18 90.15,-29.77 96.71,-27.33"/>
</a>
</g>
</g>
<!-- Node8 -->
<g id="Node000008" class="node">
<title>Node8</title>
<g id="a_Node000008"><a xlink:title=" ">
<polygon fill="#e0e0e0" stroke="#999999" points="509.5,-184 416.5,-184 416.5,-165 509.5,-165 509.5,-184"/>
<text text-anchor="middle" x="463" y="-172" font-family="Helvetica,sans-Serif" font-size="10.00">unordered_map</text>
</a>
</g>
</g>
<!-- Node2&#45;&gt;Node8 -->
<g id="edge7_Node000002_Node000008" class="edge">
<title>Node2&#45;&gt;Node8</title>
<g id="a_edge7_Node000002_Node000008"><a xlink:title=" ">
<path fill="none" stroke="#63b8ff" d="M434.61,-219.75C439.32,-212.42 446.17,-201.73 451.97,-192.7"/>
<polygon fill="#63b8ff" stroke="#63b8ff" points="455.04,-194.4 457.49,-184.09 449.14,-190.62 455.04,-194.4"/>
</a>
</g>
</g>
<!-- Node2&#45;&gt;Node9 -->
<g id="edge8_Node000002_Node000009" class="edge">
<title>Node2&#45;&gt;Node9</title>
<g id="a_edge8_Node000002_Node000009"><a xlink:title=" ">
<path fill="none" stroke="#63b8ff" d="M493.71,-224.14C527.17,-218.91 566.8,-207.72 595,-184 636.24,-149.31 633.16,-126.33 646,-74 649.59,-59.39 650.2,-42.34 650,-29.59"/>
<polygon fill="#63b8ff" stroke="#63b8ff" points="653.48,-29.15 649.64,-19.28 646.49,-29.39 653.48,-29.15"/>
</a>
</g>
</g>
<!-- Node10 -->
<g id="Node000010" class="node">
<title>Node10</title>
<g id="a_Node000010"><a xlink:title=" ">
<polygon fill="#e0e0e0" stroke="#999999" points="586,-184 528,-184 528,-165 586,-165 586,-184"/>
<text text-anchor="middle" x="557" y="-172" font-family="Helvetica,sans-Serif" font-size="10.00">asio.hpp</text>
</a>
</g>
</g>
<!-- Node2&#45;&gt;Node10 -->
<g id="edge9_Node000002_Node000010" class="edge">
<title>Node2&#45;&gt;Node10</title>
<g id="a_edge9_Node000002_Node000010"><a xlink:title=" ">
<path fill="none" stroke="#63b8ff" d="M449.57,-219.98C470.43,-211.34 502.97,-197.87 526.77,-188.02"/>
<polygon fill="#63b8ff" stroke="#63b8ff" points="528.16,-191.23 536.06,-184.17 525.48,-184.76 528.16,-191.23"/>
</a>
</g>
</g>
<!-- Node2&#45;&gt;Node11 -->
<g id="edge10_Node000002_Node000011" class="edge">
<title>Node2&#45;&gt;Node11</title>
<g id="a_edge10_Node000002_Node000011"><a xlink:title=" ">
<path fill="none" stroke="#63b8ff" d="M480.41,-219.98C536.78,-210.65 627.19,-195.67 687.33,-185.71"/>
<polygon fill="#63b8ff" stroke="#63b8ff" points="688.16,-189.13 697.45,-184.04 687.01,-182.22 688.16,-189.13"/>
</a>
</g>
</g>
<!-- Node12 -->
<g id="Node000012" class="node">
<title>Node12</title>
<g id="a_Node000012"><a xlink:href="DecodeFunc_8hpp.html" target="_top" xlink:title=" ">
<polygon fill="white" stroke="#666666" points="360,-184 220,-184 220,-165 360,-165 360,-184"/>
<text text-anchor="middle" x="290" y="-172" font-family="Helvetica,sans-Serif" font-size="10.00">network/DecodeFunc.hpp</text>
</a>
</g>
</g>
<!-- Node2&#45;&gt;Node12 -->
<g id="edge11_Node000002_Node000012" class="edge">
<title>Node2&#45;&gt;Node12</title>
<g id="a_edge11_Node000002_Node000012"><a xlink:title=" ">
<path fill="none" stroke="#63b8ff" d="M406.67,-219.98C383.8,-211.27 348.04,-197.63 322.14,-187.75"/>
<polygon fill="#63b8ff" stroke="#63b8ff" points="323.33,-184.46 312.74,-184.17 320.84,-191 323.33,-184.46"/>
</a>
</g>
</g>
<!-- Node12&#45;&gt;Node9 -->
<g id="edge13_Node000012_Node000009" class="edge">
<title>Node12&#45;&gt;Node9</title>
<g id="a_edge13_Node000012_Node000009"><a xlink:title=" ">
<path fill="none" stroke="#63b8ff" d="M360.08,-167.94C432.65,-161.25 540.43,-148.43 577,-129 606.44,-113.36 611.05,-102.7 628,-74 636.3,-59.94 641.82,-42.17 645.11,-29"/>
<polygon fill="#63b8ff" stroke="#63b8ff" points="648.53,-29.74 647.36,-19.21 641.71,-28.17 648.53,-29.74"/>
</a>
</g>
</g>
<!-- Node13 -->
<g id="Node000013" class="node">
<title>Node13</title>
<g id="a_Node000013"><a xlink:title=" ">
<polygon fill="#e0e0e0" stroke="#999999" points="223,-19 173,-19 173,0 223,0 223,-19"/>
<text text-anchor="middle" x="198" y="-7" font-family="Helvetica,sans-Serif" font-size="10.00">cstdint</text>
</a>
</g>
</g>
<!-- Node12&#45;&gt;Node13 -->
<g id="edge12_Node000012_Node000013" class="edge">
<title>Node12&#45;&gt;Node13</title>
<g id="a_edge12_Node000012_Node000013"><a xlink:title=" ">
<path fill="none" stroke="#63b8ff" d="M258.69,-164.9C219.59,-152.27 154.49,-124.53 127,-74 115.21,-52.33 141.28,-34.35 165.08,-23.12"/>
<polygon fill="#63b8ff" stroke="#63b8ff" points="166.62,-26.26 174.35,-19.01 163.79,-19.86 166.62,-26.26"/>
</a>
</g>
</g>
<!-- Node14 -->
<g id="Node000014" class="node">
<title>Node14</title>
<g id="a_Node000014"><a xlink:href="Decoder_8hpp.html" target="_top" xlink:title=" ">
<polygon fill="white" stroke="#666666" points="356,-129 236,-129 236,-110 356,-110 356,-129"/>
<text text-anchor="middle" x="296" y="-117" font-family="Helvetica,sans-Serif" font-size="10.00">network/Decoder.hpp</text>
</a>
</g>
</g>
<!-- Node12&#45;&gt;Node14 -->
<g id="edge14_Node000012_Node000014" class="edge">
<title>Node12&#45;&gt;Node14</title>
<g id="a_edge14_Node000012_Node000014"><a xlink:title=" ">
<path fill="none" stroke="#63b8ff" d="M290.99,-164.75C291.78,-157.8 292.9,-147.85 293.89,-139.13"/>
<polygon fill="#63b8ff" stroke="#63b8ff" points="297.38,-139.42 295.03,-129.09 290.42,-138.63 297.38,-139.42"/>
</a>
</g>
</g>
<!-- Node16 -->
<g id="Node000016" class="node">
<title>Node16</title>
<g id="a_Node000016"><a xlink:href="Event_8hpp.html" target="_top" xlink:title=" ">
<polygon fill="white" stroke="#666666" points="252,-74 144,-74 144,-55 252,-55 252,-74"/>
<text text-anchor="middle" x="198" y="-62" font-family="Helvetica,sans-Serif" font-size="10.00">network/Event.hpp</text>
</a>
</g>
</g>
<!-- Node12&#45;&gt;Node16 -->
<g id="edge24_Node000012_Node000016" class="edge">
<title>Node12&#45;&gt;Node16</title>
<g id="a_edge24_Node000012_Node000016"><a xlink:title=" ">
<path fill="none" stroke="#63b8ff" d="M273.13,-164.88C259.24,-157.08 239.82,-144.46 227,-129 215.89,-115.6 208.12,-97.25 203.44,-83.72"/>
<polygon fill="#63b8ff" stroke="#63b8ff" points="206.73,-82.54 200.34,-74.09 200.07,-84.68 206.73,-82.54"/>
</a>
</g>
</g>
<!-- Node14&#45;&gt;Node4 -->
<g id="edge17_Node000014_Node000004" class="edge">
<title>Node14&#45;&gt;Node4</title>
<g id="a_edge17_Node000014_Node000004"><a xlink:title=" ">
<path fill="none" stroke="#63b8ff" d="M297.16,-109.75C298.07,-102.8 299.39,-92.85 300.54,-84.13"/>
<polygon fill="#63b8ff" stroke="#63b8ff" points="304.03,-84.46 301.87,-74.09 297.09,-83.54 304.03,-84.46"/>
</a>
</g>
</g>
<!-- Node14&#45;&gt;Node9 -->
<g id="edge18_Node000014_Node000009" class="edge">
<title>Node14&#45;&gt;Node9</title>
<g id="a_edge18_Node000014_Node000009"><a xlink:title=" ">
<path fill="none" stroke="#63b8ff" d="M356.02,-112.62C425.54,-105.16 535.33,-91.17 573,-74 597.55,-62.81 620.56,-41.47 634.7,-26.64"/>
<polygon fill="#63b8ff" stroke="#63b8ff" points="637.38,-28.89 641.59,-19.17 632.23,-24.15 637.38,-28.89"/>
</a>
</g>
</g>
<!-- Node14&#45;&gt;Node13 -->
<g id="edge16_Node000014_Node000013" class="edge">
<title>Node14&#45;&gt;Node13</title>
<g id="a_edge16_Node000014_Node000013"><a xlink:title=" ">
<path fill="none" stroke="#63b8ff" d="M237.78,-109.94C197.01,-102.62 147.65,-90.61 135,-74 120.53,-54.99 146.19,-35.9 168.98,-23.69"/>
<polygon fill="#63b8ff" stroke="#63b8ff" points="170.79,-26.7 178.13,-19.05 167.62,-20.46 170.79,-26.7"/>
</a>
</g>
</g>
<!-- Node15 -->
<g id="Node000015" class="node">
<title>Node15</title>
<g id="a_Node000015"><a xlink:title=" ">
<polygon fill="#e0e0e0" stroke="#999999" points="396,-74 354,-74 354,-55 396,-55 396,-74"/>
<text text-anchor="middle" x="375" y="-62" font-family="Helvetica,sans-Serif" font-size="10.00">array</text>
</a>
</g>
</g>
<!-- Node14&#45;&gt;Node15 -->
<g id="edge15_Node000014_Node000015" class="edge">
<title>Node14&#45;&gt;Node15</title>
<g id="a_edge15_Node000014_Node000015"><a xlink:title=" ">
<path fill="none" stroke="#63b8ff" d="M308.69,-109.98C320.83,-101.84 339.36,-89.41 353.75,-79.76"/>
<polygon fill="#63b8ff" stroke="#63b8ff" points="355.72,-82.65 362.08,-74.17 351.82,-76.84 355.72,-82.65"/>
</a>
</g>
</g>
<!-- Node14&#45;&gt;Node16 -->
<g id="edge19_Node000014_Node000016" class="edge">
<title>Node14&#45;&gt;Node16</title>
<g id="a_edge19_Node000014_Node000016"><a xlink:title=" ">
<path fill="none" stroke="#63b8ff" d="M280.25,-109.98C264.77,-101.61 240.91,-88.7 222.86,-78.95"/>
<polygon fill="#63b8ff" stroke="#63b8ff" points="224.49,-75.85 214.03,-74.17 221.16,-82.01 224.49,-75.85"/>
</a>
</g>
</g>
<!-- Node16&#45;&gt;Node7 -->
<g id="edge21_Node000016_Node000007" class="edge">
<title>Node16&#45;&gt;Node7</title>
<g id="a_edge21_Node000016_Node000007"><a xlink:title=" ">
<path fill="none" stroke="#63b8ff" d="M180.17,-54.98C162.39,-46.5 134.85,-33.35 114.32,-23.54"/>
<polygon fill="#63b8ff" stroke="#63b8ff" points="115.69,-20.32 105.16,-19.17 112.67,-26.64 115.69,-20.32"/>
</a>
</g>
</g>
<!-- Node16&#45;&gt;Node9 -->
<g id="edge23_Node000016_Node000009" class="edge">
<title>Node16&#45;&gt;Node9</title>
<g id="a_edge23_Node000016_Node000009"><a xlink:title=" ">
<path fill="none" stroke="#63b8ff" d="M252.29,-56.11C255.23,-55.73 258.15,-55.36 261,-55 391.92,-38.66 547.99,-21.45 615.33,-14.13"/>
<polygon fill="#63b8ff" stroke="#63b8ff" points="615.8,-17.6 625.36,-13.05 615.04,-10.64 615.8,-17.6"/>
</a>
</g>
</g>
<!-- Node16&#45;&gt;Node13 -->
<g id="edge20_Node000016_Node000013" class="edge">
<title>Node16&#45;&gt;Node13</title>
<g id="a_edge20_Node000016_Node000013"><a xlink:title=" ">
<path fill="none" stroke="#63b8ff" d="M198,-54.75C198,-47.8 198,-37.85 198,-29.13"/>
<polygon fill="#63b8ff" stroke="#63b8ff" points="201.5,-29.09 198,-19.09 194.5,-29.09 201.5,-29.09"/>
</a>
</g>
</g>
<!-- Node17 -->
<g id="Node000017" class="node">
<title>Node17</title>
<g id="a_Node000017"><a xlink:title=" ">
<polygon fill="#e0e0e0" stroke="#999999" points="413.5,-19 362.5,-19 362.5,0 413.5,0 413.5,-19"/>
<text text-anchor="middle" x="388" y="-7" font-family="Helvetica,sans-Serif" font-size="10.00">variant</text>
</a>
</g>
</g>
<!-- Node16&#45;&gt;Node17 -->
<g id="edge22_Node000016_Node000017" class="edge">
<title>Node16&#45;&gt;Node17</title>
<g id="a_edge22_Node000016_Node000017"><a xlink:title=" ">
<path fill="none" stroke="#63b8ff" d="M228.53,-54.98C262.32,-45.56 316.74,-30.38 352.44,-20.42"/>
<polygon fill="#63b8ff" stroke="#63b8ff" points="353.73,-23.69 362.42,-17.63 351.85,-16.95 353.73,-23.69"/>
</a>
</g>
</g>
<!-- Node20&#45;&gt;Node3 -->
<g id="edge33_Node000020_Node000003" class="edge">
<title>Node20&#45;&gt;Node3</title>
<g id="a_edge33_Node000020_Node000003"><a xlink:title=" ">
<path fill="none" stroke="#63b8ff" d="M881.92,-164.99C863.37,-157.41 837.31,-145.04 818,-129 802.16,-115.84 788.27,-96.7 779.36,-82.87"/>
<polygon fill="#63b8ff" stroke="#63b8ff" points="782.28,-80.94 774.03,-74.29 776.34,-84.63 782.28,-80.94"/>
</a>
</g>
</g>
<!-- Node20&#45;&gt;Node9 -->
<g id="edge35_Node000020_Node000009" class="edge">
<title>Node20&#45;&gt;Node9</title>
<g id="a_edge35_Node000020_Node000009"><a xlink:title=" ">
<path fill="none" stroke="#63b8ff" d="M904.15,-164.96C902.52,-152.03 897.96,-127.19 886,-110 862.8,-76.66 849.48,-72.86 813,-55 770.38,-34.13 716.57,-21.92 682.46,-15.72"/>
<polygon fill="#63b8ff" stroke="#63b8ff" points="682.99,-12.26 672.54,-13.99 681.79,-19.16 682.99,-12.26"/>
</a>
</g>
</g>
<!-- Node21 -->
<g id="Node000021" class="node">
<title>Node21</title>
<g id="a_Node000021"><a xlink:title=" ">
<polygon fill="#e0e0e0" stroke="#999999" points="877,-129 827,-129 827,-110 877,-110 877,-129"/>
<text text-anchor="middle" x="852" y="-117" font-family="Helvetica,sans-Serif" font-size="10.00">cstring</text>
</a>
</g>
</g>
<!-- Node20&#45;&gt;Node21 -->
<g id="edge34_Node000020_Node000021" class="edge">
<title>Node20&#45;&gt;Node21</title>
<g id="a_edge34_Node000020_Node000021"><a xlink:title=" ">
<path fill="none" stroke="#63b8ff" d="M896.25,-164.75C888.53,-157.03 877.1,-145.6 867.78,-136.28"/>
<polygon fill="#63b8ff" stroke="#63b8ff" points="870.14,-133.69 860.59,-129.09 865.19,-138.64 870.14,-133.69"/>
</a>
</g>
</g>
<!-- Node22 -->
<g id="Node000022" class="node">
<title>Node22</title>
<g id="a_Node000022"><a xlink:href="Encoder_8hpp.html" target="_top" xlink:title=" ">
<polygon fill="white" stroke="#666666" points="567.5,-129 448.5,-129 448.5,-110 567.5,-110 567.5,-129"/>
<text text-anchor="middle" x="508" y="-117" font-family="Helvetica,sans-Serif" font-size="10.00">network/Encoder.hpp</text>
</a>
</g>
</g>
<!-- Node20&#45;&gt;Node22 -->
<g id="edge36_Node000020_Node000022" class="edge">
<title>Node20&#45;&gt;Node22</title>
<g id="a_edge36_Node000020_Node000022"><a xlink:title=" ">
<path fill="none" stroke="#63b8ff" d="M841.22,-164.98C769.2,-155.37 652.4,-139.78 577.95,-129.84"/>
<polygon fill="#63b8ff" stroke="#63b8ff" points="578.11,-126.33 567.73,-128.47 577.18,-133.27 578.11,-126.33"/>
</a>
</g>
</g>
<!-- Node22&#45;&gt;Node3 -->
<g id="edge37_Node000022_Node000003" class="edge">
<title>Node22&#45;&gt;Node3</title>
<g id="a_edge37_Node000022_Node000003"><a xlink:title=" ">
<path fill="none" stroke="#63b8ff" d="M549.93,-109.98C597.69,-100.29 675.41,-84.5 724.3,-74.58"/>
<polygon fill="#63b8ff" stroke="#63b8ff" points="725.16,-77.97 734.27,-72.55 723.77,-71.11 725.16,-77.97"/>
</a>
</g>
</g>
<!-- Node22&#45;&gt;Node4 -->
<g id="edge40_Node000022_Node000004" class="edge">
<title>Node22&#45;&gt;Node4</title>
<g id="a_edge40_Node000022_Node000004"><a xlink:title=" ">
<path fill="none" stroke="#63b8ff" d="M475.06,-109.98C439.84,-100.88 383.87,-86.41 345.39,-76.46"/>
<polygon fill="#63b8ff" stroke="#63b8ff" points="346.07,-73.02 335.52,-73.91 344.32,-79.8 346.07,-73.02"/>
</a>
</g>
</g>
<!-- Node22&#45;&gt;Node9 -->
<g id="edge41_Node000022_Node000009" class="edge">
<title>Node22&#45;&gt;Node9</title>
<g id="a_edge41_Node000022_Node000009"><a xlink:title=" ">
<path fill="none" stroke="#63b8ff" d="M537.37,-109.91C558.18,-102.77 585.86,-90.99 606,-74 620.9,-61.42 632.83,-42.46 640.3,-28.52"/>
<polygon fill="#63b8ff" stroke="#63b8ff" points="643.51,-29.93 644.94,-19.43 637.28,-26.75 643.51,-29.93"/>
</a>
</g>
</g>
<!-- Node22&#45;&gt;Node13 -->
<g id="edge39_Node000022_Node000013" class="edge">
<title>Node22&#45;&gt;Node13</title>
<g id="a_edge39_Node000022_Node000013"><a xlink:title=" ">
<path fill="none" stroke="#63b8ff" d="M496.95,-109.9C478.79,-96.2 441.06,-69.49 405,-55 347.15,-31.75 275.08,-19.77 233.03,-14.34"/>
<polygon fill="#63b8ff" stroke="#63b8ff" points="233.37,-10.85 223.02,-13.1 232.51,-17.8 233.37,-10.85"/>
</a>
</g>
</g>
<!-- Node22&#45;&gt;Node15 -->
<g id="edge38_Node000022_Node000015" class="edge">
<title>Node22&#45;&gt;Node15</title>
<g id="a_edge38_Node000022_Node000015"><a xlink:title=" ">
<path fill="none" stroke="#63b8ff" d="M486.63,-109.98C464.72,-101.25 430.43,-87.59 405.64,-77.71"/>
<polygon fill="#63b8ff" stroke="#63b8ff" points="406.9,-74.44 396.32,-73.99 404.31,-80.95 406.9,-74.44"/>
</a>
</g>
</g>
<!-- Node23 -->
<g id="Node000023" class="node">
<title>Node23</title>
<g id="a_Node000023"><a xlink:href="Action_8hpp.html" target="_top" xlink:title=" ">
<polygon fill="white" stroke="#666666" points="563.5,-74 452.5,-74 452.5,-55 563.5,-55 563.5,-74"/>
<text text-anchor="middle" x="508" y="-62" font-family="Helvetica,sans-Serif" font-size="10.00">network/Action.hpp</text>
</a>
</g>
</g>
<!-- Node22&#45;&gt;Node23 -->
<g id="edge42_Node000022_Node000023" class="edge">
<title>Node22&#45;&gt;Node23</title>
<g id="a_edge42_Node000022_Node000023"><a xlink:title=" ">
<path fill="none" stroke="#63b8ff" d="M508,-109.75C508,-102.8 508,-92.85 508,-84.13"/>
<polygon fill="#63b8ff" stroke="#63b8ff" points="511.5,-84.09 508,-74.09 504.5,-84.09 511.5,-84.09"/>
</a>
</g>
</g>
<!-- Node23&#45;&gt;Node7 -->
<g id="edge44_Node000023_Node000007" class="edge">
<title>Node23&#45;&gt;Node7</title>
<g id="a_edge44_Node000023_Node000007"><a xlink:title=" ">
<path fill="none" stroke="#63b8ff" d="M452.09,-56.46C362.74,-45.21 190.55,-23.54 119.2,-14.55"/>
<polygon fill="#63b8ff" stroke="#63b8ff" points="119.39,-11.05 109.03,-13.27 118.51,-17.99 119.39,-11.05"/>
</a>
</g>
</g>
<!-- Node23&#45;&gt;Node9 -->
<g id="edge46_Node000023_Node000009" class="edge">
<title>Node23&#45;&gt;Node9</title>
<g id="a_edge46_Node000023_Node000009"><a xlink:title=" ">
<path fill="none" stroke="#63b8ff" d="M530.65,-54.98C553.85,-46.27 590.12,-32.63 616.4,-22.75"/>
<polygon fill="#63b8ff" stroke="#63b8ff" points="617.8,-25.97 625.93,-19.17 615.34,-19.41 617.8,-25.97"/>
</a>
</g>
</g>
<!-- Node23&#45;&gt;Node13 -->
<g id="edge43_Node000023_Node000013" class="edge">
<title>Node23&#45;&gt;Node13</title>
<g id="a_edge43_Node000023_Node000013"><a xlink:title=" ">
<path fill="none" stroke="#63b8ff" d="M458.19,-54.98C395.16,-44.21 288.19,-25.92 233.1,-16.5"/>
<polygon fill="#63b8ff" stroke="#63b8ff" points="233.57,-13.03 223.12,-14.8 232.39,-19.93 233.57,-13.03"/>
</a>
</g>
</g>
<!-- Node23&#45;&gt;Node17 -->
<g id="edge45_Node000023_Node000017" class="edge">
<title>Node23&#45;&gt;Node17</title>
<g id="a_edge45_Node000023_Node000017"><a xlink:title=" ">
<path fill="none" stroke="#63b8ff" d="M488.72,-54.98C469.33,-46.42 439.19,-33.11 416.93,-23.28"/>
<polygon fill="#63b8ff" stroke="#63b8ff" points="418.19,-20.01 407.63,-19.17 415.36,-26.41 418.19,-20.01"/>
</a>
</g>
</g>
</g>
</svg>
