<?xml version="1.0" encoding="UTF-8" standalone="no"?>
<!DOCTYPE svg PUBLIC "-//W3C//DTD SVG 1.1//EN"
 "http://www.w3.org/Graphics/SVG/1.1/DTD/svg11.dtd">
<!-- Generated by graphviz version 2.43.0 (0)
 -->
<!-- Title: /home/runner/work/R&#45;Type/R&#45;Type/Server/include/network/TCPServer.hpp Pages: 1 -->
<svg width="1024pt" height="269pt"
 viewBox="0.00 0.00 1024.00 269.00" xmlns="http://www.w3.org/2000/svg" xmlns:xlink="http://www.w3.org/1999/xlink">
<g id="graph0" class="graph" transform="scale(1 1) rotate(0) translate(4 265)">
<title>/home/runner/work/R&#45;Type/R&#45;Type/Server/include/network/TCPServer.hpp</title>
<!-- Node1 -->
<g id="Node000001" class="node">
<title>Node1</title>
<g id="a_Node000001"><a xlink:title=" ">
<polygon fill="#999999" stroke="#666666" points="622.5,-261 452.5,-261 452.5,-220 622.5,-220 622.5,-261"/>
<text text-anchor="start" x="460.5" y="-249" font-family="Helvetica,sans-Serif" font-size="10.00">/home/runner/work/R</text>
<text text-anchor="start" x="460.5" y="-238" font-family="Helvetica,sans-Serif" font-size="10.00">&#45;Type/R&#45;Type/Server</text>
<text text-anchor="middle" x="537.5" y="-227" font-family="Helvetica,sans-Serif" font-size="10.00">/include/network/TCPServer.hpp</text>
</a>
</g>
</g>
<!-- Node2 -->
<g id="Node000002" class="node">
<title>Node2</title>
<g id="a_Node000002"><a xlink:title=" ">
<polygon fill="#e0e0e0" stroke="#999999" points="69,-184 0,-184 0,-165 69,-165 69,-184"/>
<text text-anchor="middle" x="34.5" y="-172" font-family="Helvetica,sans-Serif" font-size="10.00">arpa/inet.h</text>
</a>
</g>
</g>
<!-- Node1&#45;&gt;Node2 -->
<g id="edge1_Node000001_Node000002" class="edge">
<title>Node1&#45;&gt;Node2</title>
<g id="a_edge1_Node000001_Node000002"><a xlink:title=" ">
<path fill="none" stroke="#63b8ff" d="M452.4,-230.39C361.04,-220.3 211.74,-202.95 83.5,-184 82.2,-183.81 80.89,-183.61 79.56,-183.4"/>
<polygon fill="#63b8ff" stroke="#63b8ff" points="79.69,-179.88 69.26,-181.75 78.58,-186.79 79.69,-179.88"/>
</a>
</g>
</g>
<!-- Node3 -->
<g id="Node000003" class="node">
<title>Node3</title>
<g id="a_Node000003"><a xlink:title=" ">
<polygon fill="#e0e0e0" stroke="#999999" points="191,-74 126,-74 126,-55 191,-55 191,-74"/>
<text text-anchor="middle" x="158.5" y="-62" font-family="Helvetica,sans-Serif" font-size="10.00">functional</text>
</a>
</g>
</g>
<!-- Node1&#45;&gt;Node3 -->
<g id="edge2_Node000001_Node000003" class="edge">
<title>Node1&#45;&gt;Node3</title>
<g id="a_edge2_Node000001_Node000003"><a xlink:title=" ">
<path fill="none" stroke="#63b8ff" d="M452.43,-224.33C410.55,-215.32 359.86,-202.07 316.5,-184 272.88,-165.82 263.09,-157.64 225.5,-129 206.5,-114.52 186.91,-95.37 173.86,-81.9"/>
<polygon fill="#63b8ff" stroke="#63b8ff" points="176.08,-79.16 166.64,-74.34 171.02,-83.99 176.08,-79.16"/>
</a>
</g>
</g>
<!-- Node4 -->
<g id="Node000004" class="node">
<title>Node4</title>
<g id="a_Node000004"><a xlink:title=" ">
<polygon fill="#e0e0e0" stroke="#999999" points="596.5,-184 536.5,-184 536.5,-165 596.5,-165 596.5,-184"/>
<text text-anchor="middle" x="566.5" y="-172" font-family="Helvetica,sans-Serif" font-size="10.00">iostream</text>
</a>
</g>
</g>
<!-- Node1&#45;&gt;Node4 -->
<g id="edge3_Node000001_Node000004" class="edge">
<title>Node1&#45;&gt;Node4</title>
<g id="a_edge3_Node000001_Node000004"><a xlink:title=" ">
<path fill="none" stroke="#63b8ff" d="M546.36,-219.95C550.15,-211.58 554.56,-201.85 558.28,-193.64"/>
<polygon fill="#63b8ff" stroke="#63b8ff" points="561.59,-194.81 562.53,-184.26 555.22,-191.92 561.59,-194.81"/>
</a>
</g>
</g>
<!-- Node5 -->
<g id="Node000005" class="node">
<title>Node5</title>
<g id="a_Node000005"><a xlink:title=" ">
<polygon fill="#e0e0e0" stroke="#999999" points="672.5,-184 614.5,-184 614.5,-165 672.5,-165 672.5,-184"/>
<text text-anchor="middle" x="643.5" y="-172" font-family="Helvetica,sans-Serif" font-size="10.00">memory</text>
</a>
</g>
</g>
<!-- Node1&#45;&gt;Node5 -->
<g id="edge4_Node000001_Node000005" class="edge">
<title>Node1&#45;&gt;Node5</title>
<g id="a_edge4_Node000001_Node000005"><a xlink:title=" ">
<path fill="none" stroke="#63b8ff" d="M569.88,-219.95C586.16,-210.12 605.52,-198.43 620.3,-189.51"/>
<polygon fill="#63b8ff" stroke="#63b8ff" points="622.52,-192.26 629.27,-184.09 618.9,-186.26 622.52,-192.26"/>
</a>
</g>
</g>
<!-- Node6 -->
<g id="Node000006" class="node">
<title>Node6</title>
<g id="a_Node000006"><a xlink:title=" ">
<polygon fill="#e0e0e0" stroke="#999999" points="571.5,-19 527.5,-19 527.5,0 571.5,0 571.5,-19"/>
<text text-anchor="middle" x="549.5" y="-7" font-family="Helvetica,sans-Serif" font-size="10.00">string</text>
</a>
</g>
</g>
<!-- Node1&#45;&gt;Node6 -->
<g id="edge5_Node000001_Node000006" class="edge">
<title>Node1&#45;&gt;Node6</title>
<g id="a_edge5_Node000001_Node000006"><a xlink:title=" ">
<path fill="none" stroke="#63b8ff" d="M533.08,-219.84C530.92,-209.28 528.57,-195.99 527.5,-184 524.84,-154.26 539.25,-67.83 546.07,-29.35"/>
<polygon fill="#63b8ff" stroke="#63b8ff" points="549.6,-29.53 547.92,-19.07 542.71,-28.29 549.6,-29.53"/>
</a>
</g>
</g>
<!-- Node7 -->
<g id="Node000007" class="node">
<title>Node7</title>
<g id="a_Node000007"><a xlink:title=" ">
<polygon fill="#e0e0e0" stroke="#999999" points="784,-184 691,-184 691,-165 784,-165 784,-184"/>
<text text-anchor="middle" x="737.5" y="-172" font-family="Helvetica,sans-Serif" font-size="10.00">unordered_map</text>
</a>
</g>
</g>
<!-- Node1&#45;&gt;Node7 -->
<g id="edge6_Node000001_Node000007" class="edge">
<title>Node1&#45;&gt;Node7</title>
<g id="a_edge6_Node000001_Node000007"><a xlink:title=" ">
<path fill="none" stroke="#63b8ff" d="M598.59,-219.95C632.2,-209.2 672.74,-196.22 701.33,-187.07"/>
<polygon fill="#63b8ff" stroke="#63b8ff" points="702.45,-190.39 710.91,-184.01 700.32,-183.72 702.45,-190.39"/>
</a>
</g>
</g>
<!-- Node8 -->
<g id="Node000008" class="node">
<title>Node8</title>
<g id="a_Node000008"><a xlink:title=" ">
<polygon fill="#e0e0e0" stroke="#999999" points="262,-19 215,-19 215,0 262,0 262,-19"/>
<text text-anchor="middle" x="238.5" y="-7" font-family="Helvetica,sans-Serif" font-size="10.00">vector</text>
</a>
</g>
</g>
<!-- Node1&#45;&gt;Node8 -->
<g id="edge7_Node000001_Node000008" class="edge">
<title>Node1&#45;&gt;Node8</title>
<g id="a_edge7_Node000001_Node000008"><a xlink:title=" ">
<path fill="none" stroke="#63b8ff" d="M452.25,-236.55C348.33,-227.6 178.86,-194.27 116.5,-74 97.11,-36.6 162.41,-20.59 204.86,-14.25"/>
<polygon fill="#63b8ff" stroke="#63b8ff" points="205.41,-17.71 214.84,-12.87 204.45,-10.77 205.41,-17.71"/>
</a>
</g>
</g>
<!-- Node9 -->
<g id="Node000009" class="node">
<title>Node9</title>
<g id="a_Node000009"><a xlink:title=" ">
<polygon fill="#e0e0e0" stroke="#999999" points="860.5,-184 802.5,-184 802.5,-165 860.5,-165 860.5,-184"/>
<text text-anchor="middle" x="831.5" y="-172" font-family="Helvetica,sans-Serif" font-size="10.00">asio.hpp</text>
</a>
</g>
</g>
<!-- Node1&#45;&gt;Node9 -->
<g id="edge8_Node000001_Node000009" class="edge">
<title>Node1&#45;&gt;Node9</title>
<g id="a_edge8_Node000001_Node000009"><a xlink:title=" ">
<path fill="none" stroke="#63b8ff" d="M622.57,-221.2C669.87,-211 730.06,-197.95 792.43,-184.22"/>
<polygon fill="#63b8ff" stroke="#63b8ff" points="793.45,-187.59 802.46,-182.02 791.94,-180.75 793.45,-187.59"/>
</a>
</g>
</g>
<!-- Node10 -->
<g id="Node000010" class="node">
<title>Node10</title>
<g id="a_Node000010"><a xlink:href="ServerMacro_8hpp.html" target="_top" xlink:title="Server configuration constants and macros.">
<polygon fill="white" stroke="#666666" points="1016,-184 879,-184 879,-165 1016,-165 1016,-184"/>
<text text-anchor="middle" x="947.5" y="-172" font-family="Helvetica,sans-Serif" font-size="10.00">include/ServerMacro.hpp</text>
</a>
</g>
</g>
<!-- Node1&#45;&gt;Node10 -->
<g id="edge9_Node000001_Node000010" class="edge">
<title>Node1&#45;&gt;Node10</title>
<g id="a_edge9_Node000001_Node000010"><a xlink:title=" ">
<path fill="none" stroke="#63b8ff" d="M622.95,-226.16C700.35,-214.08 812.69,-196.54 882.85,-185.59"/>
<polygon fill="#63b8ff" stroke="#63b8ff" points="883.54,-189.03 892.88,-184.03 882.46,-182.11 883.54,-189.03"/>
</a>
</g>
</g>
<!-- Node11 -->
<g id="Node000011" class="node">
<title>Node11</title>
<g id="a_Node000011"><a xlink:href="DecodeFunc_8hpp.html" target="_top" xlink:title=" ">
<polygon fill="white" stroke="#666666" points="465.5,-184 325.5,-184 325.5,-165 465.5,-165 465.5,-184"/>
<text text-anchor="middle" x="395.5" y="-172" font-family="Helvetica,sans-Serif" font-size="10.00">network/DecodeFunc.hpp</text>
</a>
</g>
</g>
<!-- Node1&#45;&gt;Node11 -->
<g id="edge10_Node000001_Node000011" class="edge">
<title>Node1&#45;&gt;Node11</title>
<g id="a_edge10_Node000001_Node000011"><a xlink:title=" ">
<path fill="none" stroke="#63b8ff" d="M494.12,-219.95C471.27,-209.65 443.9,-197.31 423.8,-188.25"/>
<polygon fill="#63b8ff" stroke="#63b8ff" points="425.12,-185.01 414.56,-184.09 422.24,-191.39 425.12,-185.01"/>
</a>
</g>
</g>
<!-- Node11&#45;&gt;Node8 -->
<g id="edge12_Node000011_Node000008" class="edge">
<title>Node11&#45;&gt;Node8</title>
<g id="a_edge12_Node000011_Node000008"><a xlink:title=" ">
<path fill="none" stroke="#63b8ff" d="M339.95,-164.97C299.95,-157.57 250.93,-145.44 238.5,-129 216.45,-99.84 225.01,-54.06 232.31,-28.79"/>
<polygon fill="#63b8ff" stroke="#63b8ff" points="235.72,-29.63 235.37,-19.04 229.04,-27.53 235.72,-29.63"/>
</a>
</g>
</g>
<!-- Node12 -->
<g id="Node000012" class="node">
<title>Node12</title>
<g id="a_Node000012"><a xlink:title=" ">
<polygon fill="#e0e0e0" stroke="#999999" points="418.5,-19 368.5,-19 368.5,0 418.5,0 418.5,-19"/>
<text text-anchor="middle" x="393.5" y="-7" font-family="Helvetica,sans-Serif" font-size="10.00">cstdint</text>
</a>
</g>
</g>
<!-- Node11&#45;&gt;Node12 -->
<g id="edge11_Node000011_Node000012" class="edge">
<title>Node11&#45;&gt;Node12</title>
<g id="a_edge11_Node000011_Node000012"><a xlink:title=" ">
<path fill="none" stroke="#63b8ff" d="M395.39,-164.74C395.08,-139.31 394.17,-65.08 393.74,-29.69"/>
<polygon fill="#63b8ff" stroke="#63b8ff" points="397.23,-29.26 393.61,-19.31 390.23,-29.35 397.23,-29.26"/>
</a>
</g>
</g>
<!-- Node13 -->
<g id="Node000013" class="node">
<title>Node13</title>
<g id="a_Node000013"><a xlink:href="Decoder_8hpp.html" target="_top" xlink:title=" ">
<polygon fill="white" stroke="#666666" points="367.5,-129 247.5,-129 247.5,-110 367.5,-110 367.5,-129"/>
<text text-anchor="middle" x="307.5" y="-117" font-family="Helvetica,sans-Serif" font-size="10.00">network/Decoder.hpp</text>
</a>
</g>
</g>
<!-- Node11&#45;&gt;Node13 -->
<g id="edge13_Node000011_Node000013" class="edge">
<title>Node11&#45;&gt;Node13</title>
<g id="a_edge13_Node000011_Node000013"><a xlink:title=" ">
<path fill="none" stroke="#63b8ff" d="M381.36,-164.98C367.71,-156.77 346.81,-144.18 330.72,-134.49"/>
<polygon fill="#63b8ff" stroke="#63b8ff" points="332.27,-131.33 321.9,-129.17 328.66,-137.33 332.27,-131.33"/>
</a>
</g>
</g>
<!-- Node15 -->
<g id="Node000015" class="node">
<title>Node15</title>
<g id="a_Node000015"><a xlink:href="Event_8hpp.html" target="_top" xlink:title=" ">
<polygon fill="white" stroke="#666666" points="529.5,-74 421.5,-74 421.5,-55 529.5,-55 529.5,-74"/>
<text text-anchor="middle" x="475.5" y="-62" font-family="Helvetica,sans-Serif" font-size="10.00">network/Event.hpp</text>
</a>
</g>
</g>
<!-- Node11&#45;&gt;Node15 -->
<g id="edge23_Node000011_Node000015" class="edge">
<title>Node11&#45;&gt;Node15</title>
<g id="a_edge23_Node000011_Node000015"><a xlink:title=" ">
<path fill="none" stroke="#63b8ff" d="M402.05,-164.66C415.36,-146.69 445.77,-105.64 462.99,-82.38"/>
<polygon fill="#63b8ff" stroke="#63b8ff" points="465.95,-84.28 469.09,-74.16 460.32,-80.11 465.95,-84.28"/>
</a>
</g>
</g>
<!-- Node13&#45;&gt;Node3 -->
<g id="edge16_Node000013_Node000003" class="edge">
<title>Node13&#45;&gt;Node3</title>
<g id="a_edge16_Node000013_Node000003"><a xlink:title=" ">
<path fill="none" stroke="#63b8ff" d="M283.56,-109.98C258.94,-101.23 220.38,-87.51 192.58,-77.62"/>
<polygon fill="#63b8ff" stroke="#63b8ff" points="193.47,-74.22 182.88,-74.17 191.12,-80.82 193.47,-74.22"/>
</a>
</g>
</g>
<!-- Node13&#45;&gt;Node8 -->
<g id="edge17_Node000013_Node000008" class="edge">
<title>Node13&#45;&gt;Node8</title>
<g id="a_edge17_Node000013_Node000008"><a xlink:title=" ">
<path fill="none" stroke="#63b8ff" d="M301.85,-109.66C290.42,-91.77 264.38,-51 249.48,-27.69"/>
<polygon fill="#63b8ff" stroke="#63b8ff" points="252.37,-25.7 244.03,-19.16 246.47,-29.47 252.37,-25.7"/>
</a>
</g>
</g>
<!-- Node13&#45;&gt;Node12 -->
<g id="edge15_Node000013_Node000012" class="edge">
<title>Node13&#45;&gt;Node12</title>
<g id="a_edge15_Node000013_Node000012"><a xlink:title=" ">
<path fill="none" stroke="#63b8ff" d="M306.13,-109.87C304.53,-96.83 303.37,-71.84 314.5,-55 324.78,-39.45 342.45,-28.76 358.48,-21.77"/>
<polygon fill="#63b8ff" stroke="#63b8ff" points="360.19,-24.85 368.16,-17.88 357.58,-18.36 360.19,-24.85"/>
</a>
</g>
</g>
<!-- Node14 -->
<g id="Node000014" class="node">
<title>Node14</title>
<g id="a_Node000014"><a xlink:title=" ">
<polygon fill="#e0e0e0" stroke="#999999" points="365.5,-74 323.5,-74 323.5,-55 365.5,-55 365.5,-74"/>
<text text-anchor="middle" x="344.5" y="-62" font-family="Helvetica,sans-Serif" font-size="10.00">array</text>
</a>
</g>
</g>
<!-- Node13&#45;&gt;Node14 -->
<g id="edge14_Node000013_Node000014" class="edge">
<title>Node13&#45;&gt;Node14</title>
<g id="a_edge14_Node000013_Node000014"><a xlink:title=" ">
<path fill="none" stroke="#63b8ff" d="M313.61,-109.75C318.78,-102.34 326.35,-91.5 332.69,-82.41"/>
<polygon fill="#63b8ff" stroke="#63b8ff" points="335.65,-84.29 338.5,-74.09 329.91,-80.29 335.65,-84.29"/>
</a>
</g>
</g>
<!-- Node13&#45;&gt;Node15 -->
<g id="edge18_Node000013_Node000015" class="edge">
<title>Node13&#45;&gt;Node15</title>
<g id="a_edge18_Node000013_Node000015"><a xlink:title=" ">
<path fill="none" stroke="#63b8ff" d="M334.49,-109.98C362.7,-101.09 407.14,-87.07 438.58,-77.15"/>
<polygon fill="#63b8ff" stroke="#63b8ff" points="439.81,-80.43 448.3,-74.08 437.71,-73.75 439.81,-80.43"/>
</a>
</g>
</g>
<!-- Node15&#45;&gt;Node6 -->
<g id="edge20_Node000015_Node000006" class="edge">
<title>Node15&#45;&gt;Node6</title>
<g id="a_edge20_Node000015_Node000006"><a xlink:title=" ">
<path fill="none" stroke="#63b8ff" d="M487.39,-54.98C498.65,-46.92 515.79,-34.65 529.21,-25.03"/>
<polygon fill="#63b8ff" stroke="#63b8ff" points="531.3,-27.84 537.39,-19.17 527.23,-22.15 531.3,-27.84"/>
</a>
</g>
</g>
<!-- Node15&#45;&gt;Node8 -->
<g id="edge22_Node000015_Node000008" class="edge">
<title>Node15&#45;&gt;Node8</title>
<g id="a_edge22_Node000015_Node000008"><a xlink:title=" ">
<path fill="none" stroke="#63b8ff" d="M437.42,-54.98C391.63,-44.74 315.51,-27.72 271.91,-17.97"/>
<polygon fill="#63b8ff" stroke="#63b8ff" points="272.6,-14.54 262.08,-15.77 271.08,-21.37 272.6,-14.54"/>
</a>
</g>
</g>
<!-- Node15&#45;&gt;Node12 -->
<g id="edge19_Node000015_Node000012" class="edge">
<title>Node15&#45;&gt;Node12</title>
<g id="a_edge19_Node000015_Node000012"><a xlink:title=" ">
<path fill="none" stroke="#63b8ff" d="M462.33,-54.98C449.73,-46.84 430.5,-34.41 415.56,-24.76"/>
<polygon fill="#63b8ff" stroke="#63b8ff" points="417.21,-21.66 406.91,-19.17 413.41,-27.54 417.21,-21.66"/>
</a>
</g>
</g>
<!-- Node16 -->
<g id="Node000016" class="node">
<title>Node16</title>
<g id="a_Node000016"><a xlink:title=" ">
<polygon fill="#e0e0e0" stroke="#999999" points="501,-19 450,-19 450,0 501,0 501,-19"/>
<text text-anchor="middle" x="475.5" y="-7" font-family="Helvetica,sans-Serif" font-size="10.00">variant</text>
</a>
</g>
</g>
<!-- Node15&#45;&gt;Node16 -->
<g id="edge21_Node000015_Node000016" class="edge">
<title>Node15&#45;&gt;Node16</title>
<g id="a_edge21_Node000015_Node000016"><a xlink:title=" ">
<path fill="none" stroke="#63b8ff" d="M475.5,-54.75C475.5,-47.8 475.5,-37.85 475.5,-29.13"/>
<polygon fill="#63b8ff" stroke="#63b8ff" points="479,-29.09 475.5,-19.09 472,-29.09 479,-29.09"/>
</a>
</g>
</g>
</g>
</svg>
