<?xml version="1.0" encoding="UTF-8" standalone="no"?>
<!DOCTYPE svg PUBLIC "-//W3C//DTD SVG 1.1//EN"
 "http://www.w3.org/Graphics/SVG/1.1/DTD/svg11.dtd">
<!-- Generated by graphviz version 2.43.0 (0)
 -->
<!-- Title: /home/runner/work/R&#45;Type/R&#45;Type/Server/src/network/TCPServer.cpp Pages: 1 -->
<svg width="1073pt" height="324pt"
 viewBox="0.00 0.00 1073.00 324.00" xmlns="http://www.w3.org/2000/svg" xmlns:xlink="http://www.w3.org/1999/xlink">
<g id="graph0" class="graph" transform="scale(1 1) rotate(0) translate(4 320)">
<title>/home/runner/work/R&#45;Type/R&#45;Type/Server/src/network/TCPServer.cpp</title>
<!-- Node1 -->
<g id="Node000001" class="node">
<title>Node1</title>
<g id="a_Node000001"><a xlink:title=" ">
<polygon fill="#999999" stroke="#666666" points="722.5,-316 573.5,-316 573.5,-275 722.5,-275 722.5,-316"/>
<text text-anchor="start" x="581.5" y="-304" font-family="Helvetica,sans-Serif" font-size="10.00">/home/runner/work/R</text>
<text text-anchor="start" x="581.5" y="-293" font-family="Helvetica,sans-Serif" font-size="10.00">&#45;Type/R&#45;Type/Server</text>
<text text-anchor="middle" x="648" y="-282" font-family="Helvetica,sans-Serif" font-size="10.00">/src/network/TCPServer.cpp</text>
</a>
</g>
</g>
<!-- Node2 -->
<g id="Node000002" class="node">
<title>Node2</title>
<g id="a_Node000002"><a xlink:href="TCPServer_8hpp.html" target="_top" xlink:title=" ">
<polygon fill="white" stroke="#666666" points="593.5,-239 464.5,-239 464.5,-220 593.5,-220 593.5,-239"/>
<text text-anchor="middle" x="529" y="-227" font-family="Helvetica,sans-Serif" font-size="10.00">network/TCPServer.hpp</text>
</a>
</g>
</g>
<!-- Node1&#45;&gt;Node2 -->
<g id="edge1_Node000001_Node000002" class="edge">
<title>Node1&#45;&gt;Node2</title>
<g id="a_edge1_Node000001_Node000002"><a xlink:title=" ">
<path fill="none" stroke="#63b8ff" d="M611.65,-274.95C593.02,-264.93 570.81,-252.99 554.11,-244"/>
<polygon fill="#63b8ff" stroke="#63b8ff" points="555.44,-240.75 544.98,-239.09 552.12,-246.91 555.44,-240.75"/>
</a>
</g>
</g>
<!-- Node5 -->
<g id="Node000005" class="node">
<title>Node5</title>
<g id="a_Node000005"><a xlink:title=" ">
<polygon fill="#e0e0e0" stroke="#999999" points="88,-184 28,-184 28,-165 88,-165 88,-184"/>
<text text-anchor="middle" x="58" y="-172" font-family="Helvetica,sans-Serif" font-size="10.00">iostream</text>
</a>
</g>
</g>
<!-- Node1&#45;&gt;Node5 -->
<g id="edge27_Node000001_Node000005" class="edge">
<title>Node1&#45;&gt;Node5</title>
<g id="a_edge27_Node000001_Node000005"><a xlink:title=" ">
<path fill="none" stroke="#63b8ff" d="M573.49,-282.93C508.28,-272.49 411.09,-256.18 327,-239 245.24,-222.3 150.43,-198.98 98.02,-185.75"/>
<polygon fill="#63b8ff" stroke="#63b8ff" points="98.68,-182.3 88.12,-183.24 96.96,-189.09 98.68,-182.3"/>
</a>
</g>
</g>
<!-- Node6 -->
<g id="Node000006" class="node">
<title>Node6</title>
<g id="a_Node000006"><a xlink:title=" ">
<polygon fill="#e0e0e0" stroke="#999999" points="164,-184 106,-184 106,-165 164,-165 164,-184"/>
<text text-anchor="middle" x="135" y="-172" font-family="Helvetica,sans-Serif" font-size="10.00">memory</text>
</a>
</g>
</g>
<!-- Node1&#45;&gt;Node6 -->
<g id="edge28_Node000001_Node000006" class="edge">
<title>Node1&#45;&gt;Node6</title>
<g id="a_edge28_Node000001_Node000006"><a xlink:title=" ">
<path fill="none" stroke="#63b8ff" d="M573.41,-277.2C462.72,-251.52 258.93,-204.25 173.88,-184.52"/>
<polygon fill="#63b8ff" stroke="#63b8ff" points="174.64,-181.1 164.11,-182.25 173.06,-187.92 174.64,-181.1"/>
</a>
</g>
</g>
<!-- Node7 -->
<g id="Node000007" class="node">
<title>Node7</title>
<g id="a_Node000007"><a xlink:title=" ">
<polygon fill="#e0e0e0" stroke="#999999" points="195,-19 151,-19 151,0 195,0 195,-19"/>
<text text-anchor="middle" x="173" y="-7" font-family="Helvetica,sans-Serif" font-size="10.00">string</text>
</a>
</g>
</g>
<!-- Node1&#45;&gt;Node7 -->
<g id="edge29_Node000001_Node000007" class="edge">
<title>Node1&#45;&gt;Node7</title>
<g id="a_edge29_Node000001_Node000007"><a xlink:title=" ">
<path fill="none" stroke="#63b8ff" d="M573.35,-288.53C402.96,-273.91 0,-233.23 0,-175.5 0,-175.5 0,-175.5 0,-118.5 0,-52.88 90.66,-25.67 140.72,-15.65"/>
<polygon fill="#63b8ff" stroke="#63b8ff" points="141.56,-19.05 150.74,-13.76 140.26,-12.17 141.56,-19.05"/>
</a>
</g>
</g>
<!-- Node9 -->
<g id="Node000009" class="node">
<title>Node9</title>
<g id="a_Node000009"><a xlink:title=" ">
<polygon fill="#e0e0e0" stroke="#999999" points="725.5,-184 680.5,-184 680.5,-165 725.5,-165 725.5,-184"/>
<text text-anchor="middle" x="703" y="-172" font-family="Helvetica,sans-Serif" font-size="10.00">utility</text>
</a>
</g>
</g>
<!-- Node1&#45;&gt;Node9 -->
<g id="edge30_Node000001_Node000009" class="edge">
<title>Node1&#45;&gt;Node9</title>
<g id="a_edge30_Node000001_Node000009"><a xlink:title=" ">
<path fill="none" stroke="#63b8ff" d="M652.61,-274.9C656.62,-259.51 663.19,-237.78 672,-220 676.8,-210.32 683.53,-200.37 689.49,-192.34"/>
<polygon fill="#63b8ff" stroke="#63b8ff" points="692.42,-194.27 695.75,-184.21 686.88,-190 692.42,-194.27"/>
</a>
</g>
</g>
<!-- Node10 -->
<g id="Node000010" class="node">
<title>Node10</title>
<g id="a_Node000010"><a xlink:title=" ">
<polygon fill="#e0e0e0" stroke="#999999" points="758.5,-19 711.5,-19 711.5,0 758.5,0 758.5,-19"/>
<text text-anchor="middle" x="735" y="-7" font-family="Helvetica,sans-Serif" font-size="10.00">vector</text>
</a>
</g>
</g>
<!-- Node1&#45;&gt;Node10 -->
<g id="edge31_Node000001_Node000010" class="edge">
<title>Node1&#45;&gt;Node10</title>
<g id="a_edge31_Node000001_Node000010"><a xlink:title=" ">
<path fill="none" stroke="#63b8ff" d="M722.55,-288.57C842.5,-276.94 1065,-245.89 1065,-175.5 1065,-175.5 1065,-175.5 1065,-118.5 1065,-56.64 852.93,-24.56 768.8,-14.26"/>
<polygon fill="#63b8ff" stroke="#63b8ff" points="769.08,-10.77 758.73,-13.06 768.25,-17.72 769.08,-10.77"/>
</a>
</g>
</g>
<!-- Node12 -->
<g id="Node000012" class="node">
<title>Node12</title>
<g id="a_Node000012"><a xlink:href="ServerMacro_8hpp.html" target="_top" xlink:title="Server configuration constants and macros.">
<polygon fill="white" stroke="#666666" points="880.5,-184 743.5,-184 743.5,-165 880.5,-165 880.5,-184"/>
<text text-anchor="middle" x="812" y="-172" font-family="Helvetica,sans-Serif" font-size="10.00">include/ServerMacro.hpp</text>
</a>
</g>
</g>
<!-- Node1&#45;&gt;Node12 -->
<g id="edge32_Node000001_Node000012" class="edge">
<title>Node1&#45;&gt;Node12</title>
<g id="a_edge32_Node000001_Node000012"><a xlink:title=" ">
<path fill="none" stroke="#63b8ff" d="M660.48,-274.88C671.76,-258.43 689.68,-235.26 710,-220 729.12,-205.64 753.59,-194.77 773.77,-187.36"/>
<polygon fill="#63b8ff" stroke="#63b8ff" points="775.02,-190.63 783.29,-184.01 772.69,-184.03 775.02,-190.63"/>
</a>
</g>
</g>
<!-- Node19 -->
<g id="Node000019" class="node">
<title>Node19</title>
<g id="a_Node000019"><a xlink:title=" ">
<polygon fill="#e0e0e0" stroke="#999999" points="798,-239 752,-239 752,-220 798,-220 798,-239"/>
<text text-anchor="middle" x="775" y="-227" font-family="Helvetica,sans-Serif" font-size="10.00">cstdio</text>
</a>
</g>
</g>
<!-- Node1&#45;&gt;Node19 -->
<g id="edge26_Node000001_Node000019" class="edge">
<title>Node1&#45;&gt;Node19</title>
<g id="a_edge26_Node000001_Node000019"><a xlink:title=" ">
<path fill="none" stroke="#63b8ff" d="M686.79,-274.95C706.86,-264.84 730.82,-252.76 748.7,-243.75"/>
<polygon fill="#63b8ff" stroke="#63b8ff" points="750.6,-246.72 757.95,-239.09 747.45,-240.47 750.6,-246.72"/>
</a>
</g>
</g>
<!-- Node20 -->
<g id="Node000020" class="node">
<title>Node20</title>
<g id="a_Node000020"><a xlink:href="EncodeFunc_8hpp.html" target="_top" xlink:title=" ">
<polygon fill="white" stroke="#666666" points="1037,-184 899,-184 899,-165 1037,-165 1037,-184"/>
<text text-anchor="middle" x="968" y="-172" font-family="Helvetica,sans-Serif" font-size="10.00">network/EncodeFunc.hpp</text>
</a>
</g>
</g>
<!-- Node1&#45;&gt;Node20 -->
<g id="edge33_Node000001_Node000020" class="edge">
<title>Node1&#45;&gt;Node20</title>
<g id="a_edge33_Node000001_Node000020"><a xlink:title=" ">
<path fill="none" stroke="#63b8ff" d="M667.25,-274.85C685.24,-257.69 713.66,-233.46 743,-220 770.21,-207.51 843.1,-194.34 898.61,-185.6"/>
<polygon fill="#63b8ff" stroke="#63b8ff" points="899.42,-189.01 908.76,-184.02 898.34,-182.1 899.42,-189.01"/>
</a>
</g>
</g>
<!-- Node3 -->
<g id="Node000003" class="node">
<title>Node3</title>
<g id="a_Node000003"><a xlink:title=" ">
<polygon fill="#e0e0e0" stroke="#999999" points="889.5,-74 820.5,-74 820.5,-55 889.5,-55 889.5,-74"/>
<text text-anchor="middle" x="855" y="-62" font-family="Helvetica,sans-Serif" font-size="10.00">arpa/inet.h</text>
</a>
</g>
</g>
<!-- Node2&#45;&gt;Node3 -->
<g id="edge2_Node000002_Node000003" class="edge">
<title>Node2&#45;&gt;Node3</title>
<g id="a_edge2_Node000002_Node000003"><a xlink:title=" ">
<path fill="none" stroke="#63b8ff" d="M547.86,-220C580.95,-205.1 648.19,-174.94 672,-165 712.52,-148.09 725.28,-149.71 764,-129 790.57,-114.79 818.64,-94.24 836.46,-80.4"/>
<polygon fill="#63b8ff" stroke="#63b8ff" points="838.64,-83.14 844.33,-74.21 834.31,-77.64 838.64,-83.14"/>
</a>
</g>
</g>
<!-- Node4 -->
<g id="Node000004" class="node">
<title>Node4</title>
<g id="a_Node000004"><a xlink:title=" ">
<polygon fill="#e0e0e0" stroke="#999999" points="421.5,-74 356.5,-74 356.5,-55 421.5,-55 421.5,-74"/>
<text text-anchor="middle" x="389" y="-62" font-family="Helvetica,sans-Serif" font-size="10.00">functional</text>
</a>
</g>
</g>
<!-- Node2&#45;&gt;Node4 -->
<g id="edge3_Node000002_Node000004" class="edge">
<title>Node2&#45;&gt;Node4</title>
<g id="a_edge3_Node000002_Node000004"><a xlink:title=" ">
<path fill="none" stroke="#63b8ff" d="M524.14,-219.82C512.42,-199.3 480.93,-146.79 446,-110 435.36,-98.79 421.77,-88.07 410.53,-79.97"/>
<polygon fill="#63b8ff" stroke="#63b8ff" points="412.32,-76.94 402.12,-74.06 408.3,-82.67 412.32,-76.94"/>
</a>
</g>
</g>
<!-- Node2&#45;&gt;Node5 -->
<g id="edge4_Node000002_Node000005" class="edge">
<title>Node2&#45;&gt;Node5</title>
<g id="a_edge4_Node000002_Node000005"><a xlink:title=" ">
<path fill="none" stroke="#63b8ff" d="M464.3,-224.11C381.63,-217.99 233.97,-205.36 98.33,-184.04"/>
<polygon fill="#63b8ff" stroke="#63b8ff" points="98.6,-180.54 88.17,-182.42 97.5,-187.45 98.6,-180.54"/>
</a>
</g>
</g>
<!-- Node2&#45;&gt;Node6 -->
<g id="edge5_Node000002_Node000006" class="edge">
<title>Node2&#45;&gt;Node6</title>
<g id="a_edge5_Node000002_Node000006"><a xlink:title=" ">
<path fill="none" stroke="#63b8ff" d="M464.44,-221.67C393.88,-213.89 277.59,-200.14 178,-184 176.73,-183.79 175.45,-183.58 174.15,-183.36"/>
<polygon fill="#63b8ff" stroke="#63b8ff" points="174.56,-179.87 164.1,-181.53 173.31,-186.76 174.56,-179.87"/>
</a>
</g>
</g>
<!-- Node2&#45;&gt;Node7 -->
<g id="edge6_Node000002_Node000007" class="edge">
<title>Node2&#45;&gt;Node7</title>
<g id="a_edge6_Node000002_Node000007"><a xlink:title=" ">
<path fill="none" stroke="#63b8ff" d="M464.23,-223.38C376.66,-215.87 229.25,-200.9 211,-184 167.32,-143.54 167.91,-65.4 170.84,-29.45"/>
<polygon fill="#63b8ff" stroke="#63b8ff" points="174.34,-29.65 171.82,-19.36 167.37,-28.97 174.34,-29.65"/>
</a>
</g>
</g>
<!-- Node8 -->
<g id="Node000008" class="node">
<title>Node8</title>
<g id="a_Node000008"><a xlink:title=" ">
<polygon fill="#e0e0e0" stroke="#999999" points="471.5,-184 378.5,-184 378.5,-165 471.5,-165 471.5,-184"/>
<text text-anchor="middle" x="425" y="-172" font-family="Helvetica,sans-Serif" font-size="10.00">unordered_map</text>
</a>
</g>
</g>
<!-- Node2&#45;&gt;Node8 -->
<g id="edge7_Node000002_Node000008" class="edge">
<title>Node2&#45;&gt;Node8</title>
<g id="a_edge7_Node000002_Node000008"><a xlink:title=" ">
<path fill="none" stroke="#63b8ff" d="M512.29,-219.98C495.79,-211.57 470.3,-198.59 451.12,-188.81"/>
<polygon fill="#63b8ff" stroke="#63b8ff" points="452.51,-185.59 442.01,-184.17 449.33,-191.83 452.51,-185.59"/>
</a>
</g>
</g>
<!-- Node2&#45;&gt;Node9 -->
<g id="edge8_Node000002_Node000009" class="edge">
<title>Node2&#45;&gt;Node9</title>
<g id="a_edge8_Node000002_Node000009"><a xlink:title=" ">
<path fill="none" stroke="#63b8ff" d="M556.96,-219.98C587.9,-210.56 637.72,-195.38 670.41,-185.43"/>
<polygon fill="#63b8ff" stroke="#63b8ff" points="671.83,-188.65 680.38,-182.39 669.79,-181.96 671.83,-188.65"/>
</a>
</g>
</g>
<!-- Node2&#45;&gt;Node10 -->
<g id="edge9_Node000002_Node000010" class="edge">
<title>Node2&#45;&gt;Node10</title>
<g id="a_edge9_Node000002_Node000010"><a xlink:title=" ">
<path fill="none" stroke="#63b8ff" d="M542.02,-219.89C560.83,-207.5 596.81,-184.05 628,-165 655.19,-148.39 666.09,-150.07 690,-129 713.08,-108.67 721.46,-102.9 732,-74 737.26,-59.56 737.69,-42.05 736.98,-29.07"/>
<polygon fill="#63b8ff" stroke="#63b8ff" points="740.47,-28.71 736.16,-19.03 733.49,-29.28 740.47,-28.71"/>
</a>
</g>
</g>
<!-- Node11 -->
<g id="Node000011" class="node">
<title>Node11</title>
<g id="a_Node000011"><a xlink:title=" ">
<polygon fill="#e0e0e0" stroke="#999999" points="586,-184 528,-184 528,-165 586,-165 586,-184"/>
<text text-anchor="middle" x="557" y="-172" font-family="Helvetica,sans-Serif" font-size="10.00">asio.hpp</text>
</a>
</g>
</g>
<!-- Node2&#45;&gt;Node11 -->
<g id="edge10_Node000002_Node000011" class="edge">
<title>Node2&#45;&gt;Node11</title>
<g id="a_edge10_Node000002_Node000011"><a xlink:title=" ">
<path fill="none" stroke="#63b8ff" d="M533.62,-219.75C537.46,-212.49 543.02,-201.95 547.76,-192.98"/>
<polygon fill="#63b8ff" stroke="#63b8ff" points="550.89,-194.57 552.46,-184.09 544.7,-191.3 550.89,-194.57"/>
</a>
</g>
</g>
<!-- Node2&#45;&gt;Node12 -->
<g id="edge11_Node000002_Node000012" class="edge">
<title>Node2&#45;&gt;Node12</title>
<g id="a_edge11_Node000002_Node000012"><a xlink:title=" ">
<path fill="none" stroke="#63b8ff" d="M574.47,-219.98C623.94,-210.72 703.05,-195.9 756.23,-185.94"/>
<polygon fill="#63b8ff" stroke="#63b8ff" points="756.99,-189.36 766.17,-184.08 755.7,-182.48 756.99,-189.36"/>
</a>
</g>
</g>
<!-- Node13 -->
<g id="Node000013" class="node">
<title>Node13</title>
<g id="a_Node000013"><a xlink:href="DecodeFunc_8hpp.html" target="_top" xlink:title=" ">
<polygon fill="white" stroke="#666666" points="360,-184 220,-184 220,-165 360,-165 360,-184"/>
<text text-anchor="middle" x="290" y="-172" font-family="Helvetica,sans-Serif" font-size="10.00">network/DecodeFunc.hpp</text>
</a>
</g>
</g>
<!-- Node2&#45;&gt;Node13 -->
<g id="edge12_Node000002_Node000013" class="edge">
<title>Node2&#45;&gt;Node13</title>
<g id="a_edge12_Node000002_Node000013"><a xlink:title=" ">
<path fill="none" stroke="#63b8ff" d="M490.6,-219.98C449.26,-210.82 383.4,-196.21 338.51,-186.26"/>
<polygon fill="#63b8ff" stroke="#63b8ff" points="339.22,-182.83 328.7,-184.08 337.71,-189.66 339.22,-182.83"/>
</a>
</g>
</g>
<!-- Node13&#45;&gt;Node10 -->
<g id="edge14_Node000013_Node000010" class="edge">
<title>Node13&#45;&gt;Node10</title>
<g id="a_edge14_Node000013_Node000010"><a xlink:title=" ">
<path fill="none" stroke="#63b8ff" d="M360.33,-165.73C466.55,-153.9 656.32,-132.4 663,-129 692.71,-113.87 697.05,-102.7 714,-74 722.3,-59.94 727.82,-42.17 731.11,-29"/>
<polygon fill="#63b8ff" stroke="#63b8ff" points="734.53,-29.74 733.36,-19.21 727.71,-28.17 734.53,-29.74"/>
</a>
</g>
</g>
<!-- Node14 -->
<g id="Node000014" class="node">
<title>Node14</title>
<g id="a_Node000014"><a xlink:title=" ">
<polygon fill="#e0e0e0" stroke="#999999" points="309,-19 259,-19 259,0 309,0 309,-19"/>
<text text-anchor="middle" x="284" y="-7" font-family="Helvetica,sans-Serif" font-size="10.00">cstdint</text>
</a>
</g>
</g>
<!-- Node13&#45;&gt;Node14 -->
<g id="edge13_Node000013_Node000014" class="edge">
<title>Node13&#45;&gt;Node14</title>
<g id="a_edge13_Node000013_Node000014"><a xlink:title=" ">
<path fill="none" stroke="#63b8ff" d="M279.96,-164.9C262.33,-149.06 226.42,-113.27 213,-74 210.27,-66.01 208.91,-62.39 213,-55 220.9,-40.73 235.5,-30.42 249.41,-23.34"/>
<polygon fill="#63b8ff" stroke="#63b8ff" points="251.26,-26.35 258.85,-18.95 248.3,-20 251.26,-26.35"/>
</a>
</g>
</g>
<!-- Node15 -->
<g id="Node000015" class="node">
<title>Node15</title>
<g id="a_Node000015"><a xlink:href="Decoder_8hpp.html" target="_top" xlink:title=" ">
<polygon fill="white" stroke="#666666" points="437,-129 317,-129 317,-110 437,-110 437,-129"/>
<text text-anchor="middle" x="377" y="-117" font-family="Helvetica,sans-Serif" font-size="10.00">network/Decoder.hpp</text>
</a>
</g>
</g>
<!-- Node13&#45;&gt;Node15 -->
<g id="edge15_Node000013_Node000015" class="edge">
<title>Node13&#45;&gt;Node15</title>
<g id="a_edge15_Node000013_Node000015"><a xlink:title=" ">
<path fill="none" stroke="#63b8ff" d="M303.98,-164.98C317.47,-156.77 338.13,-144.18 354.04,-134.49"/>
<polygon fill="#63b8ff" stroke="#63b8ff" points="356.05,-137.36 362.77,-129.17 352.41,-131.38 356.05,-137.36"/>
</a>
</g>
</g>
<!-- Node17 -->
<g id="Node000017" class="node">
<title>Node17</title>
<g id="a_Node000017"><a xlink:href="Event_8hpp.html" target="_top" xlink:title=" ">
<polygon fill="white" stroke="#666666" points="338,-74 230,-74 230,-55 338,-55 338,-74"/>
<text text-anchor="middle" x="284" y="-62" font-family="Helvetica,sans-Serif" font-size="10.00">network/Event.hpp</text>
</a>
</g>
</g>
<!-- Node13&#45;&gt;Node17 -->
<g id="edge25_Node000013_Node000017" class="edge">
<title>Node13&#45;&gt;Node17</title>
<g id="a_edge25_Node000013_Node000017"><a xlink:title=" ">
<path fill="none" stroke="#63b8ff" d="M289.51,-164.66C288.54,-147.17 286.35,-107.8 285.04,-84.27"/>
<polygon fill="#63b8ff" stroke="#63b8ff" points="288.53,-83.95 284.48,-74.16 281.54,-84.34 288.53,-83.95"/>
</a>
</g>
</g>
<!-- Node15&#45;&gt;Node4 -->
<g id="edge18_Node000015_Node000004" class="edge">
<title>Node15&#45;&gt;Node4</title>
<g id="a_edge18_Node000015_Node000004"><a xlink:title=" ">
<path fill="none" stroke="#63b8ff" d="M378.98,-109.75C380.57,-102.72 382.86,-92.62 384.85,-83.84"/>
<polygon fill="#63b8ff" stroke="#63b8ff" points="388.26,-84.62 387.06,-74.09 381.43,-83.07 388.26,-84.62"/>
</a>
</g>
</g>
<!-- Node15&#45;&gt;Node10 -->
<g id="edge19_Node000015_Node000010" class="edge">
<title>Node15&#45;&gt;Node10</title>
<g id="a_edge19_Node000015_Node000010"><a xlink:title=" ">
<path fill="none" stroke="#63b8ff" d="M437.17,-118.05C495.91,-115.56 586.62,-106.16 658,-74 682.79,-62.83 706.13,-41.49 720.47,-26.65"/>
<polygon fill="#63b8ff" stroke="#63b8ff" points="723.19,-28.87 727.47,-19.18 718.08,-24.08 723.19,-28.87"/>
</a>
</g>
</g>
<!-- Node15&#45;&gt;Node14 -->
<g id="edge17_Node000015_Node000014" class="edge">
<title>Node15&#45;&gt;Node14</title>
<g id="a_edge17_Node000015_Node000014"><a xlink:title=" ">
<path fill="none" stroke="#63b8ff" d="M321.79,-109.93C282.05,-102.49 233.34,-90.35 221,-74 206.61,-54.93 232.25,-35.86 255.02,-23.66"/>
<polygon fill="#63b8ff" stroke="#63b8ff" points="256.82,-26.68 264.15,-19.03 253.65,-20.43 256.82,-26.68"/>
</a>
</g>
</g>
<!-- Node16 -->
<g id="Node000016" class="node">
<title>Node16</title>
<g id="a_Node000016"><a xlink:title=" ">
<polygon fill="#e0e0e0" stroke="#999999" points="482,-74 440,-74 440,-55 482,-55 482,-74"/>
<text text-anchor="middle" x="461" y="-62" font-family="Helvetica,sans-Serif" font-size="10.00">array</text>
</a>
</g>
</g>
<!-- Node15&#45;&gt;Node16 -->
<g id="edge16_Node000015_Node000016" class="edge">
<title>Node15&#45;&gt;Node16</title>
<g id="a_edge16_Node000015_Node000016"><a xlink:title=" ">
<path fill="none" stroke="#63b8ff" d="M390.5,-109.98C403.4,-101.84 423.1,-89.41 438.4,-79.76"/>
<polygon fill="#63b8ff" stroke="#63b8ff" points="440.67,-82.47 447.26,-74.17 436.93,-76.55 440.67,-82.47"/>
</a>
</g>
</g>
<!-- Node15&#45;&gt;Node17 -->
<g id="edge20_Node000015_Node000017" class="edge">
<title>Node15&#45;&gt;Node17</title>
<g id="a_edge20_Node000015_Node000017"><a xlink:title=" ">
<path fill="none" stroke="#63b8ff" d="M362.06,-109.98C347.5,-101.69 325.13,-88.94 308.07,-79.22"/>
<polygon fill="#63b8ff" stroke="#63b8ff" points="309.64,-76.08 299.21,-74.17 306.17,-82.16 309.64,-76.08"/>
</a>
</g>
</g>
<!-- Node17&#45;&gt;Node7 -->
<g id="edge22_Node000017_Node000007" class="edge">
<title>Node17&#45;&gt;Node7</title>
<g id="a_edge22_Node000017_Node000007"><a xlink:title=" ">
<path fill="none" stroke="#63b8ff" d="M266.17,-54.98C248.39,-46.5 220.85,-33.35 200.32,-23.54"/>
<polygon fill="#63b8ff" stroke="#63b8ff" points="201.69,-20.32 191.16,-19.17 198.67,-26.64 201.69,-20.32"/>
</a>
</g>
</g>
<!-- Node17&#45;&gt;Node10 -->
<g id="edge24_Node000017_Node000010" class="edge">
<title>Node17&#45;&gt;Node10</title>
<g id="a_edge24_Node000017_Node000010"><a xlink:title=" ">
<path fill="none" stroke="#63b8ff" d="M338.29,-56.11C341.23,-55.73 344.15,-55.36 347,-55 477.92,-38.66 633.99,-21.45 701.33,-14.13"/>
<polygon fill="#63b8ff" stroke="#63b8ff" points="701.8,-17.6 711.36,-13.05 701.04,-10.64 701.8,-17.6"/>
</a>
</g>
</g>
<!-- Node17&#45;&gt;Node14 -->
<g id="edge21_Node000017_Node000014" class="edge">
<title>Node17&#45;&gt;Node14</title>
<g id="a_edge21_Node000017_Node000014"><a xlink:title=" ">
<path fill="none" stroke="#63b8ff" d="M284,-54.75C284,-47.8 284,-37.85 284,-29.13"/>
<polygon fill="#63b8ff" stroke="#63b8ff" points="287.5,-29.09 284,-19.09 280.5,-29.09 287.5,-29.09"/>
</a>
</g>
</g>
<!-- Node18 -->
<g id="Node000018" class="node">
<title>Node18</title>
<g id="a_Node000018"><a xlink:title=" ">
<polygon fill="#e0e0e0" stroke="#999999" points="499.5,-19 448.5,-19 448.5,0 499.5,0 499.5,-19"/>
<text text-anchor="middle" x="474" y="-7" font-family="Helvetica,sans-Serif" font-size="10.00">variant</text>
</a>
</g>
</g>
<!-- Node17&#45;&gt;Node18 -->
<g id="edge23_Node000017_Node000018" class="edge">
<title>Node17&#45;&gt;Node18</title>
<g id="a_edge23_Node000017_Node000018"><a xlink:title=" ">
<path fill="none" stroke="#63b8ff" d="M314.53,-54.98C348.32,-45.56 402.74,-30.38 438.44,-20.42"/>
<polygon fill="#63b8ff" stroke="#63b8ff" points="439.73,-23.69 448.42,-17.63 437.85,-16.95 439.73,-23.69"/>
</a>
</g>
</g>
<!-- Node20&#45;&gt;Node3 -->
<g id="edge34_Node000020_Node000003" class="edge">
<title>Node20&#45;&gt;Node3</title>
<g id="a_edge34_Node000020_Node000003"><a xlink:title=" ">
<path fill="none" stroke="#63b8ff" d="M940.09,-164.99C921.24,-157.99 896.96,-146.36 881,-129 869.42,-116.4 862.65,-97.96 858.94,-84.19"/>
<polygon fill="#63b8ff" stroke="#63b8ff" points="862.32,-83.26 856.58,-74.35 855.51,-84.89 862.32,-83.26"/>
</a>
</g>
</g>
<!-- Node20&#45;&gt;Node10 -->
<g id="edge36_Node000020_Node000010" class="edge">
<title>Node20&#45;&gt;Node10</title>
<g id="a_edge36_Node000020_Node000010"><a xlink:title=" ">
<path fill="none" stroke="#63b8ff" d="M966.66,-164.8C964.44,-152.1 959.19,-128.03 949,-110 932.75,-81.24 927.18,-72.24 899,-55 858.29,-30.1 803.54,-18.9 768.76,-14.03"/>
<polygon fill="#63b8ff" stroke="#63b8ff" points="769.01,-10.53 758.64,-12.71 768.1,-17.47 769.01,-10.53"/>
</a>
</g>
</g>
<!-- Node21 -->
<g id="Node000021" class="node">
<title>Node21</title>
<g id="a_Node000021"><a xlink:title=" ">
<polygon fill="#e0e0e0" stroke="#999999" points="940,-129 890,-129 890,-110 940,-110 940,-129"/>
<text text-anchor="middle" x="915" y="-117" font-family="Helvetica,sans-Serif" font-size="10.00">cstring</text>
</a>
</g>
</g>
<!-- Node20&#45;&gt;Node21 -->
<g id="edge35_Node000020_Node000021" class="edge">
<title>Node20&#45;&gt;Node21</title>
<g id="a_edge35_Node000020_Node000021"><a xlink:title=" ">
<path fill="none" stroke="#63b8ff" d="M959.25,-164.75C951.53,-157.03 940.1,-145.6 930.78,-136.28"/>
<polygon fill="#63b8ff" stroke="#63b8ff" points="933.14,-133.69 923.59,-129.09 928.19,-138.64 933.14,-133.69"/>
</a>
</g>
</g>
<!-- Node22 -->
<g id="Node000022" class="node">
<title>Node22</title>
<g id="a_Node000022"><a xlink:href="Encoder_8hpp.html" target="_top" xlink:title=" ">
<polygon fill="white" stroke="#666666" points="653.5,-129 534.5,-129 534.5,-110 653.5,-110 653.5,-129"/>
<text text-anchor="middle" x="594" y="-117" font-family="Helvetica,sans-Serif" font-size="10.00">network/Encoder.hpp</text>
</a>
</g>
</g>
<!-- Node20&#45;&gt;Node22 -->
<g id="edge37_Node000020_Node000022" class="edge">
<title>Node20&#45;&gt;Node22</title>
<g id="a_edge37_Node000020_Node000022"><a xlink:title=" ">
<path fill="none" stroke="#63b8ff" d="M907.91,-164.98C841.29,-155.54 733.98,-140.34 663.72,-130.38"/>
<polygon fill="#63b8ff" stroke="#63b8ff" points="664.02,-126.89 653.63,-128.95 663.04,-133.82 664.02,-126.89"/>
</a>
</g>
</g>
<!-- Node22&#45;&gt;Node3 -->
<g id="edge38_Node000022_Node000003" class="edge">
<title>Node22&#45;&gt;Node3</title>
<g id="a_edge38_Node000022_Node000003"><a xlink:title=" ">
<path fill="none" stroke="#63b8ff" d="M635.93,-109.98C683.69,-100.29 761.41,-84.5 810.3,-74.58"/>
<polygon fill="#63b8ff" stroke="#63b8ff" points="811.16,-77.97 820.27,-72.55 809.77,-71.11 811.16,-77.97"/>
</a>
</g>
</g>
<!-- Node22&#45;&gt;Node4 -->
<g id="edge41_Node000022_Node000004" class="edge">
<title>Node22&#45;&gt;Node4</title>
<g id="a_edge41_Node000022_Node000004"><a xlink:title=" ">
<path fill="none" stroke="#63b8ff" d="M561.06,-109.98C525.84,-100.88 469.87,-86.41 431.39,-76.46"/>
<polygon fill="#63b8ff" stroke="#63b8ff" points="432.07,-73.02 421.52,-73.91 430.32,-79.8 432.07,-73.02"/>
</a>
</g>
</g>
<!-- Node22&#45;&gt;Node10 -->
<g id="edge42_Node000022_Node000010" class="edge">
<title>Node22&#45;&gt;Node10</title>
<g id="a_edge42_Node000022_Node000010"><a xlink:title=" ">
<path fill="none" stroke="#63b8ff" d="M623.37,-109.91C644.18,-102.77 671.86,-90.99 692,-74 706.9,-61.42 718.83,-42.46 726.3,-28.52"/>
<polygon fill="#63b8ff" stroke="#63b8ff" points="729.51,-29.93 730.94,-19.43 723.28,-26.75 729.51,-29.93"/>
</a>
</g>
</g>
<!-- Node22&#45;&gt;Node14 -->
<g id="edge40_Node000022_Node000014" class="edge">
<title>Node22&#45;&gt;Node14</title>
<g id="a_edge40_Node000022_Node000014"><a xlink:title=" ">
<path fill="none" stroke="#63b8ff" d="M581.41,-109.99C558.29,-94.48 509.71,-62.52 491,-55 433.15,-31.75 361.08,-19.77 319.03,-14.34"/>
<polygon fill="#63b8ff" stroke="#63b8ff" points="319.37,-10.85 309.02,-13.1 318.51,-17.8 319.37,-10.85"/>
</a>
</g>
</g>
<!-- Node22&#45;&gt;Node16 -->
<g id="edge39_Node000022_Node000016" class="edge">
<title>Node22&#45;&gt;Node16</title>
<g id="a_edge39_Node000022_Node000016"><a xlink:title=" ">
<path fill="none" stroke="#63b8ff" d="M572.63,-109.98C550.72,-101.25 516.43,-87.59 491.64,-77.71"/>
<polygon fill="#63b8ff" stroke="#63b8ff" points="492.9,-74.44 482.32,-73.99 490.31,-80.95 492.9,-74.44"/>
</a>
</g>
</g>
<!-- Node23 -->
<g id="Node000023" class="node">
<title>Node23</title>
<g id="a_Node000023"><a xlink:href="Action_8hpp.html" target="_top" xlink:title=" ">
<polygon fill="white" stroke="#666666" points="649.5,-74 538.5,-74 538.5,-55 649.5,-55 649.5,-74"/>
<text text-anchor="middle" x="594" y="-62" font-family="Helvetica,sans-Serif" font-size="10.00">network/Action.hpp</text>
</a>
</g>
</g>
<!-- Node22&#45;&gt;Node23 -->
<g id="edge43_Node000022_Node000023" class="edge">
<title>Node22&#45;&gt;Node23</title>
<g id="a_edge43_Node000022_Node000023"><a xlink:title=" ">
<path fill="none" stroke="#63b8ff" d="M594,-109.75C594,-102.8 594,-92.85 594,-84.13"/>
<polygon fill="#63b8ff" stroke="#63b8ff" points="597.5,-84.09 594,-74.09 590.5,-84.09 597.5,-84.09"/>
</a>
</g>
</g>
<!-- Node23&#45;&gt;Node7 -->
<g id="edge45_Node000023_Node000007" class="edge">
<title>Node23&#45;&gt;Node7</title>
<g id="a_edge45_Node000023_Node000007"><a xlink:title=" ">
<path fill="none" stroke="#63b8ff" d="M538.09,-56.46C448.74,-45.21 276.55,-23.54 205.2,-14.55"/>
<polygon fill="#63b8ff" stroke="#63b8ff" points="205.39,-11.05 195.03,-13.27 204.51,-17.99 205.39,-11.05"/>
</a>
</g>
</g>
<!-- Node23&#45;&gt;Node10 -->
<g id="edge47_Node000023_Node000010" class="edge">
<title>Node23&#45;&gt;Node10</title>
<g id="a_edge47_Node000023_Node000010"><a xlink:title=" ">
<path fill="none" stroke="#63b8ff" d="M616.65,-54.98C639.85,-46.27 676.12,-32.63 702.4,-22.75"/>
<polygon fill="#63b8ff" stroke="#63b8ff" points="703.8,-25.97 711.93,-19.17 701.34,-19.41 703.8,-25.97"/>
</a>
</g>
</g>
<!-- Node23&#45;&gt;Node14 -->
<g id="edge44_Node000023_Node000014" class="edge">
<title>Node23&#45;&gt;Node14</title>
<g id="a_edge44_Node000023_Node000014"><a xlink:title=" ">
<path fill="none" stroke="#63b8ff" d="M544.19,-54.98C481.16,-44.21 374.19,-25.92 319.1,-16.5"/>
<polygon fill="#63b8ff" stroke="#63b8ff" points="319.57,-13.03 309.12,-14.8 318.39,-19.93 319.57,-13.03"/>
</a>
</g>
</g>
<!-- Node23&#45;&gt;Node18 -->
<g id="edge46_Node000023_Node000018" class="edge">
<title>Node23&#45;&gt;Node18</title>
<g id="a_edge46_Node000023_Node000018"><a xlink:title=" ">
<path fill="none" stroke="#63b8ff" d="M574.72,-54.98C555.33,-46.42 525.19,-33.11 502.93,-23.28"/>
<polygon fill="#63b8ff" stroke="#63b8ff" points="504.19,-20.01 493.63,-19.17 501.36,-26.41 504.19,-20.01"/>
</a>
</g>
</g>
</g>
</svg>
