<?xml version="1.0" encoding="UTF-8" standalone="no"?>
<!DOCTYPE svg PUBLIC "-//W3C//DTD SVG 1.1//EN"
 "http://www.w3.org/Graphics/SVG/1.1/DTD/svg11.dtd">
<!-- Generated by graphviz version 2.43.0 (0)
 -->
<!-- Title: /home/runner/work/R&#45;Type/R&#45;Type/Client/src/engine/graphics/TextureManager.hpp Pages: 1 -->
<svg width="2198pt" height="544pt"
 viewBox="0.00 0.00 2198.00 544.00" xmlns="http://www.w3.org/2000/svg" xmlns:xlink="http://www.w3.org/1999/xlink">
<g id="graph0" class="graph" transform="scale(1 1) rotate(0) translate(4 540)">
<title>/home/runner/work/R&#45;Type/R&#45;Type/Client/src/engine/graphics/TextureManager.hpp</title>
<!-- Node1 -->
<g id="Node000001" class="node">
<title>Node1</title>
<g id="a_Node000001"><a xlink:title=" ">
<polygon fill="#999999" stroke="#666666" points="797.5,-536 678.5,-536 678.5,-484 797.5,-484 797.5,-536"/>
<text text-anchor="start" x="686.5" y="-524" font-family="Helvetica,sans-Serif" font-size="10.00">/home/runner/work/R</text>
<text text-anchor="start" x="686.5" y="-513" font-family="Helvetica,sans-Serif" font-size="10.00">&#45;Type/R&#45;Type/Client</text>
<text text-anchor="start" x="686.5" y="-502" font-family="Helvetica,sans-Serif" font-size="10.00">/src/engine/graphics</text>
<text text-anchor="middle" x="738" y="-491" font-family="Helvetica,sans-Serif" font-size="10.00">/TextureManager.hpp</text>
</a>
</g>
</g>
<!-- Node2 -->
<g id="Node000002" class="node">
<title>Node2</title>
<g id="a_Node000002"><a xlink:href="GameEngine_8hpp.html" target="_top" xlink:title=" ">
<polygon fill="white" stroke="#666666" points="577,-195 421,-195 421,-154 577,-154 577,-195"/>
<text text-anchor="start" x="429" y="-183" font-family="Helvetica,sans-Serif" font-size="10.00">/home/runner/work/R</text>
<text text-anchor="start" x="429" y="-172" font-family="Helvetica,sans-Serif" font-size="10.00">&#45;Type/R&#45;Type/Client</text>
<text text-anchor="middle" x="499" y="-161" font-family="Helvetica,sans-Serif" font-size="10.00">/src/engine/GameEngine.hpp</text>
</a>
</g>
</g>
<!-- Node1&#45;&gt;Node2 -->
<g id="edge1_Node000001_Node000002" class="edge">
<title>Node1&#45;&gt;Node2</title>
<g id="a_edge1_Node000001_Node000002"><a xlink:title=" ">
<path fill="none" stroke="#63b8ff" d="M669.37,-481.04C653.39,-472.21 637.43,-461.23 625,-448 620.24,-442.93 535.78,-256.79 507.87,-195.12"/>
<polygon fill="#63b8ff" stroke="#63b8ff" points="667.75,-484.14 678.22,-485.72 671.02,-477.96 667.75,-484.14"/>
</a>
</g>
</g>
<!-- Node10 -->
<g id="Node000010" class="node">
<title>Node10</title>
<g id="a_Node000010"><a xlink:href="RenderSystem_8hpp.html" target="_top" xlink:title=" ">
<polygon fill="white" stroke="#666666" points="550.5,-448 431.5,-448 431.5,-396 550.5,-396 550.5,-448"/>
<text text-anchor="start" x="439.5" y="-436" font-family="Helvetica,sans-Serif" font-size="10.00">/home/runner/work/R</text>
<text text-anchor="start" x="439.5" y="-425" font-family="Helvetica,sans-Serif" font-size="10.00">&#45;Type/R&#45;Type/Client</text>
<text text-anchor="start" x="439.5" y="-414" font-family="Helvetica,sans-Serif" font-size="10.00">/src/engine/graphics</text>
<text text-anchor="middle" x="491" y="-403" font-family="Helvetica,sans-Serif" font-size="10.00">/RenderSystem.hpp</text>
</a>
</g>
</g>
<!-- Node1&#45;&gt;Node10 -->
<g id="edge13_Node000001_Node000010" class="edge">
<title>Node1&#45;&gt;Node10</title>
<g id="a_edge13_Node000001_Node000010"><a xlink:title=" ">
<path fill="none" stroke="#63b8ff" d="M668.47,-484.79C631.36,-471.87 586.16,-456.13 550.67,-443.78"/>
<polygon fill="#63b8ff" stroke="#63b8ff" points="667.61,-488.2 678.21,-488.18 669.92,-481.59 667.61,-488.2"/>
</a>
</g>
</g>
<!-- Node12 -->
<g id="Node000012" class="node">
<title>Node12</title>
<g id="a_Node000012"><a xlink:href="TextureManager_8cpp.html" target="_top" xlink:title=" ">
<polygon fill="white" stroke="#666666" points="753.5,-448 634.5,-448 634.5,-396 753.5,-396 753.5,-448"/>
<text text-anchor="start" x="642.5" y="-436" font-family="Helvetica,sans-Serif" font-size="10.00">/home/runner/work/R</text>
<text text-anchor="start" x="642.5" y="-425" font-family="Helvetica,sans-Serif" font-size="10.00">&#45;Type/R&#45;Type/Client</text>
<text text-anchor="start" x="642.5" y="-414" font-family="Helvetica,sans-Serif" font-size="10.00">/src/engine/graphics</text>
<text text-anchor="middle" x="694" y="-403" font-family="Helvetica,sans-Serif" font-size="10.00">/TextureManager.cpp</text>
</a>
</g>
</g>
<!-- Node1&#45;&gt;Node12 -->
<g id="edge16_Node000001_Node000012" class="edge">
<title>Node1&#45;&gt;Node12</title>
<g id="a_edge16_Node000001_Node000012"><a xlink:title=" ">
<path fill="none" stroke="#63b8ff" d="M720.44,-474.68C715.91,-465.82 711.11,-456.45 706.87,-448.16"/>
<polygon fill="#63b8ff" stroke="#63b8ff" points="717.37,-476.35 725.04,-483.66 723.6,-473.17 717.37,-476.35"/>
</a>
</g>
</g>
<!-- Node13 -->
<g id="Node000013" class="node">
<title>Node13</title>
<g id="a_Node000013"><a xlink:href="SceneManager_8hpp.html" target="_top" xlink:title=" ">
<polygon fill="white" stroke="#666666" points="880.5,-272 683.5,-272 683.5,-231 880.5,-231 880.5,-272"/>
<text text-anchor="start" x="691.5" y="-260" font-family="Helvetica,sans-Serif" font-size="10.00">/home/runner/work/R</text>
<text text-anchor="start" x="691.5" y="-249" font-family="Helvetica,sans-Serif" font-size="10.00">&#45;Type/R&#45;Type/Client</text>
<text text-anchor="middle" x="782" y="-238" font-family="Helvetica,sans-Serif" font-size="10.00">/src/engine/scene/SceneManager.hpp</text>
</a>
</g>
</g>
<!-- Node1&#45;&gt;Node13 -->
<g id="edge17_Node000001_Node000013" class="edge">
<title>Node1&#45;&gt;Node13</title>
<g id="a_edge17_Node000001_Node000013"><a xlink:title=" ">
<path fill="none" stroke="#63b8ff" d="M754.18,-474.49C757.6,-465.99 760.82,-456.8 763,-448 778.58,-385.11 781.5,-307.88 781.97,-272.24"/>
<polygon fill="#63b8ff" stroke="#63b8ff" points="750.94,-473.16 750.29,-483.74 757.4,-475.88 750.94,-473.16"/>
</a>
</g>
</g>
<!-- Node16 -->
<g id="Node000016" class="node">
<title>Node16</title>
<g id="a_Node000016"><a xlink:href="UIElement_8hpp.html" target="_top" xlink:title=" ">
<polygon fill="white" stroke="#666666" points="1538.5,-442.5 1381.5,-442.5 1381.5,-401.5 1538.5,-401.5 1538.5,-442.5"/>
<text text-anchor="start" x="1389.5" y="-430.5" font-family="Helvetica,sans-Serif" font-size="10.00">/home/runner/work/R</text>
<text text-anchor="start" x="1389.5" y="-419.5" font-family="Helvetica,sans-Serif" font-size="10.00">&#45;Type/R&#45;Type/Client</text>
<text text-anchor="middle" x="1460" y="-408.5" font-family="Helvetica,sans-Serif" font-size="10.00">/src/engine/ui/UIElement.hpp</text>
</a>
</g>
</g>
<!-- Node1&#45;&gt;Node16 -->
<g id="edge29_Node000001_Node000016" class="edge">
<title>Node1&#45;&gt;Node16</title>
<g id="a_edge29_Node000001_Node000016"><a xlink:title=" ">
<path fill="none" stroke="#63b8ff" d="M807.93,-500.67C943.16,-484.56 1239.61,-449.25 1381.41,-432.36"/>
<polygon fill="#63b8ff" stroke="#63b8ff" points="807.21,-497.23 797.7,-501.89 808.04,-504.18 807.21,-497.23"/>
</a>
</g>
</g>
<!-- Node22 -->
<g id="Node000022" class="node">
<title>Node22</title>
<g id="a_Node000022"><a xlink:href="UIManager_8hpp.html" target="_top" xlink:title=" ">
<polygon fill="white" stroke="#666666" points="988,-354.5 830,-354.5 830,-313.5 988,-313.5 988,-354.5"/>
<text text-anchor="start" x="838" y="-342.5" font-family="Helvetica,sans-Serif" font-size="10.00">/home/runner/work/R</text>
<text text-anchor="start" x="838" y="-331.5" font-family="Helvetica,sans-Serif" font-size="10.00">&#45;Type/R&#45;Type/Client</text>
<text text-anchor="middle" x="909" y="-320.5" font-family="Helvetica,sans-Serif" font-size="10.00">/src/engine/ui/UIManager.hpp</text>
</a>
</g>
</g>
<!-- Node1&#45;&gt;Node22 -->
<g id="edge69_Node000001_Node000022" class="edge">
<title>Node1&#45;&gt;Node22</title>
<g id="a_edge69_Node000001_Node000022"><a xlink:title=" ">
<path fill="none" stroke="#63b8ff" d="M770.05,-476.39C805.24,-440.58 860.59,-384.26 889.67,-354.66"/>
<polygon fill="#63b8ff" stroke="#63b8ff" points="767.38,-474.11 762.86,-483.7 772.37,-479.02 767.38,-474.11"/>
</a>
</g>
</g>
<!-- Node3 -->
<g id="Node000003" class="node">
<title>Node3</title>
<g id="a_Node000003"><a xlink:href="Main_8cpp.html" target="_top" xlink:title=" ">
<polygon fill="white" stroke="#666666" points="1167.5,-41 1048.5,-41 1048.5,0 1167.5,0 1167.5,-41"/>
<text text-anchor="start" x="1056.5" y="-29" font-family="Helvetica,sans-Serif" font-size="10.00">/home/runner/work/R</text>
<text text-anchor="start" x="1056.5" y="-18" font-family="Helvetica,sans-Serif" font-size="10.00">&#45;Type/R&#45;Type/Client</text>
<text text-anchor="middle" x="1108" y="-7" font-family="Helvetica,sans-Serif" font-size="10.00">/src/Main.cpp</text>
</a>
</g>
</g>
<!-- Node2&#45;&gt;Node3 -->
<g id="edge2_Node000002_Node000003" class="edge">
<title>Node2&#45;&gt;Node3</title>
<g id="a_edge2_Node000002_Node000003"><a xlink:title=" ">
<path fill="none" stroke="#63b8ff" d="M445.7,-148.48C434.2,-140.44 423.55,-130.34 417,-118 408.46,-101.9 404.64,-90.39 417,-77 459.42,-31.04 888.57,-23.12 1048.42,-21.77"/>
<polygon fill="#63b8ff" stroke="#63b8ff" points="443.88,-151.47 454.17,-153.97 447.68,-145.59 443.88,-151.47"/>
</a>
</g>
</g>
<!-- Node4 -->
<g id="Node000004" class="node">
<title>Node4</title>
<g id="a_Node000004"><a xlink:href="GameEngine_8cpp.html" target="_top" xlink:title=" ">
<polygon fill="white" stroke="#666666" points="369.5,-118 214.5,-118 214.5,-77 369.5,-77 369.5,-118"/>
<text text-anchor="start" x="222.5" y="-106" font-family="Helvetica,sans-Serif" font-size="10.00">/home/runner/work/R</text>
<text text-anchor="start" x="222.5" y="-95" font-family="Helvetica,sans-Serif" font-size="10.00">&#45;Type/R&#45;Type/Client</text>
<text text-anchor="middle" x="292" y="-84" font-family="Helvetica,sans-Serif" font-size="10.00">/src/engine/GameEngine.cpp</text>
</a>
</g>
</g>
<!-- Node2&#45;&gt;Node4 -->
<g id="edge3_Node000002_Node000004" class="edge">
<title>Node2&#45;&gt;Node4</title>
<g id="a_edge3_Node000002_Node000004"><a xlink:title=" ">
<path fill="none" stroke="#63b8ff" d="M435.63,-150.54C406.94,-140.15 373.39,-127.99 345.94,-118.04"/>
<polygon fill="#63b8ff" stroke="#63b8ff" points="434.56,-153.87 445.15,-153.99 436.94,-147.29 434.56,-153.87"/>
</a>
</g>
</g>
<!-- Node5 -->
<g id="Node000005" class="node">
<title>Node5</title>
<g id="a_Node000005"><a xlink:href="SceneManager_8cpp.html" target="_top" xlink:title=" ">
<polygon fill="white" stroke="#666666" points="196,-118 0,-118 0,-77 196,-77 196,-118"/>
<text text-anchor="start" x="8" y="-106" font-family="Helvetica,sans-Serif" font-size="10.00">/home/runner/work/R</text>
<text text-anchor="start" x="8" y="-95" font-family="Helvetica,sans-Serif" font-size="10.00">&#45;Type/R&#45;Type/Client</text>
<text text-anchor="middle" x="98" y="-84" font-family="Helvetica,sans-Serif" font-size="10.00">/src/engine/scene/SceneManager.cpp</text>
</a>
</g>
</g>
<!-- Node2&#45;&gt;Node5 -->
<g id="edge4_Node000002_Node000005" class="edge">
<title>Node2&#45;&gt;Node5</title>
<g id="a_edge4_Node000002_Node000005"><a xlink:title=" ">
<path fill="none" stroke="#63b8ff" d="M410.75,-157C347.37,-145.14 261.9,-129.15 196.32,-116.89"/>
<polygon fill="#63b8ff" stroke="#63b8ff" points="410.26,-160.46 420.73,-158.86 411.55,-153.58 410.26,-160.46"/>
</a>
</g>
</g>
<!-- Node6 -->
<g id="Node000006" class="node">
<title>Node6</title>
<g id="a_Node000006"><a xlink:href="JoinGame_8hpp.html" target="_top" xlink:title=" ">
<polygon fill="white" stroke="#666666" points="1278,-118 1136,-118 1136,-77 1278,-77 1278,-118"/>
<text text-anchor="start" x="1144" y="-106" font-family="Helvetica,sans-Serif" font-size="10.00">/home/runner/work/R</text>
<text text-anchor="start" x="1144" y="-95" font-family="Helvetica,sans-Serif" font-size="10.00">&#45;Type/R&#45;Type/Client</text>
<text text-anchor="middle" x="1207" y="-84" font-family="Helvetica,sans-Serif" font-size="10.00">/src/scenes/JoinGame.hpp</text>
</a>
</g>
</g>
<!-- Node2&#45;&gt;Node6 -->
<g id="edge5_Node000002_Node000006" class="edge">
<title>Node2&#45;&gt;Node6</title>
<g id="a_edge5_Node000002_Node000006"><a xlink:title=" ">
<path fill="none" stroke="#63b8ff" d="M587.66,-167.1C703.29,-158.32 911.72,-140.96 1089,-118 1104.24,-116.03 1120.53,-113.56 1135.98,-111.06"/>
<polygon fill="#63b8ff" stroke="#63b8ff" points="587.16,-163.63 577.45,-167.88 587.69,-170.61 587.16,-163.63"/>
</a>
</g>
</g>
<!-- Node7 -->
<g id="Node000007" class="node">
<title>Node7</title>
<g id="a_Node000007"><a xlink:href="MainMenu_8hpp.html" target="_top" xlink:title=" ">
<polygon fill="white" stroke="#666666" points="1442,-118 1296,-118 1296,-77 1442,-77 1442,-118"/>
<text text-anchor="start" x="1304" y="-106" font-family="Helvetica,sans-Serif" font-size="10.00">/home/runner/work/R</text>
<text text-anchor="start" x="1304" y="-95" font-family="Helvetica,sans-Serif" font-size="10.00">&#45;Type/R&#45;Type/Client</text>
<text text-anchor="middle" x="1369" y="-84" font-family="Helvetica,sans-Serif" font-size="10.00">/src/scenes/MainMenu.hpp</text>
</a>
</g>
</g>
<!-- Node2&#45;&gt;Node7 -->
<g id="edge7_Node000002_Node000007" class="edge">
<title>Node2&#45;&gt;Node7</title>
<g id="a_edge7_Node000002_Node000007"><a xlink:title=" ">
<path fill="none" stroke="#63b8ff" d="M587.15,-169.11C763.52,-160.03 1154.27,-138.32 1287,-118 1289.89,-117.56 1292.83,-117.06 1295.8,-116.53"/>
<polygon fill="#63b8ff" stroke="#63b8ff" points="586.93,-165.62 577.13,-169.62 587.29,-172.61 586.93,-165.62"/>
</a>
</g>
</g>
<!-- Node8 -->
<g id="Node000008" class="node">
<title>Node8</title>
<g id="a_Node000008"><a xlink:href="Options_8hpp.html" target="_top" xlink:title=" ">
<polygon fill="white" stroke="#666666" points="558,-118 426,-118 426,-77 558,-77 558,-118"/>
<text text-anchor="start" x="434" y="-106" font-family="Helvetica,sans-Serif" font-size="10.00">/home/runner/work/R</text>
<text text-anchor="start" x="434" y="-95" font-family="Helvetica,sans-Serif" font-size="10.00">&#45;Type/R&#45;Type/Client</text>
<text text-anchor="middle" x="492" y="-84" font-family="Helvetica,sans-Serif" font-size="10.00">/src/scenes/Options.hpp</text>
</a>
</g>
</g>
<!-- Node2&#45;&gt;Node8 -->
<g id="edge9_Node000002_Node000008" class="edge">
<title>Node2&#45;&gt;Node8</title>
<g id="a_edge9_Node000002_Node000008"><a xlink:title=" ">
<path fill="none" stroke="#63b8ff" d="M496.22,-143.69C495.41,-135.08 494.56,-125.9 493.83,-118.07"/>
<polygon fill="#63b8ff" stroke="#63b8ff" points="492.75,-144.16 497.16,-153.79 499.72,-143.51 492.75,-144.16"/>
</a>
</g>
</g>
<!-- Node9 -->
<g id="Node000009" class="node">
<title>Node9</title>
<g id="a_Node000009"><a xlink:href="WaitLobby_8hpp.html" target="_top" xlink:title=" ">
<polygon fill="white" stroke="#666666" points="1808,-118 1664,-118 1664,-77 1808,-77 1808,-118"/>
<text text-anchor="start" x="1672" y="-106" font-family="Helvetica,sans-Serif" font-size="10.00">/home/runner/work/R</text>
<text text-anchor="start" x="1672" y="-95" font-family="Helvetica,sans-Serif" font-size="10.00">&#45;Type/R&#45;Type/Client</text>
<text text-anchor="middle" x="1736" y="-84" font-family="Helvetica,sans-Serif" font-size="10.00">/src/scenes/WaitLobby.hpp</text>
</a>
</g>
</g>
<!-- Node2&#45;&gt;Node9 -->
<g id="edge11_Node000002_Node000009" class="edge">
<title>Node2&#45;&gt;Node9</title>
<g id="a_edge11_Node000002_Node000009"><a xlink:title=" ">
<path fill="none" stroke="#63b8ff" d="M587.28,-169.48C852.99,-157.37 1628.64,-121.77 1655,-118 1657.86,-117.59 1660.77,-117.13 1663.71,-116.62"/>
<polygon fill="#63b8ff" stroke="#63b8ff" points="587.12,-165.99 577.29,-169.94 587.44,-172.98 587.12,-165.99"/>
</a>
</g>
</g>
<!-- Node6&#45;&gt;Node3 -->
<g id="edge6_Node000006_Node000003" class="edge">
<title>Node6&#45;&gt;Node3</title>
<g id="a_edge6_Node000006_Node000003"><a xlink:title=" ">
<path fill="none" stroke="#63b8ff" d="M1173.1,-70.82C1160.29,-61.11 1145.93,-50.24 1133.97,-41.17"/>
<polygon fill="#63b8ff" stroke="#63b8ff" points="1171.16,-73.74 1181.25,-76.99 1175.39,-68.16 1171.16,-73.74"/>
</a>
</g>
</g>
<!-- Node7&#45;&gt;Node3 -->
<g id="edge8_Node000007_Node000003" class="edge">
<title>Node7&#45;&gt;Node3</title>
<g id="a_edge8_Node000007_Node000003"><a xlink:title=" ">
<path fill="none" stroke="#63b8ff" d="M1291.47,-74.22C1251.81,-62.83 1204.3,-49.17 1167.56,-38.61"/>
<polygon fill="#63b8ff" stroke="#63b8ff" points="1290.53,-77.59 1301.11,-76.99 1292.46,-70.86 1290.53,-77.59"/>
</a>
</g>
</g>
<!-- Node8&#45;&gt;Node3 -->
<g id="edge10_Node000008_Node000003" class="edge">
<title>Node8&#45;&gt;Node3</title>
<g id="a_edge10_Node000008_Node000003"><a xlink:title=" ">
<path fill="none" stroke="#63b8ff" d="M568.17,-77.68C569.45,-77.45 570.73,-77.22 572,-77 743.47,-47.37 948.72,-31.5 1048.15,-25.03"/>
<polygon fill="#63b8ff" stroke="#63b8ff" points="567.35,-74.28 558.21,-79.63 568.69,-81.15 567.35,-74.28"/>
</a>
</g>
</g>
<!-- Node9&#45;&gt;Node3 -->
<g id="edge12_Node000009_Node000003" class="edge">
<title>Node9&#45;&gt;Node3</title>
<g id="a_edge12_Node000009_Node000003"><a xlink:title=" ">
<path fill="none" stroke="#63b8ff" d="M1653.66,-76.88C1471.7,-46.51 1267.01,-31.16 1167.85,-24.92"/>
<polygon fill="#63b8ff" stroke="#63b8ff" points="1653.23,-80.36 1663.68,-78.58 1654.4,-73.46 1653.23,-80.36"/>
</a>
</g>
</g>
<!-- Node10&#45;&gt;Node2 -->
<g id="edge14_Node000010_Node000002" class="edge">
<title>Node10&#45;&gt;Node2</title>
<g id="a_edge14_Node000010_Node000002"><a xlink:title=" ">
<path fill="none" stroke="#63b8ff" d="M443.69,-389.03C434.89,-380.7 426.93,-370.93 422,-360 412.5,-338.93 415.99,-330.32 422,-308 433.84,-264.07 464.22,-219.71 483.09,-195.09"/>
<polygon fill="#63b8ff" stroke="#63b8ff" points="441.41,-391.7 451.22,-395.7 446.05,-386.45 441.41,-391.7"/>
</a>
</g>
</g>
<!-- Node11 -->
<g id="Node000011" class="node">
<title>Node11</title>
<g id="a_Node000011"><a xlink:href="RenderSystem_8cpp.html" target="_top" xlink:title=" ">
<polygon fill="white" stroke="#666666" points="550.5,-360 431.5,-360 431.5,-308 550.5,-308 550.5,-360"/>
<text text-anchor="start" x="439.5" y="-348" font-family="Helvetica,sans-Serif" font-size="10.00">/home/runner/work/R</text>
<text text-anchor="start" x="439.5" y="-337" font-family="Helvetica,sans-Serif" font-size="10.00">&#45;Type/R&#45;Type/Client</text>
<text text-anchor="start" x="439.5" y="-326" font-family="Helvetica,sans-Serif" font-size="10.00">/src/engine/graphics</text>
<text text-anchor="middle" x="491" y="-315" font-family="Helvetica,sans-Serif" font-size="10.00">/RenderSystem.cpp</text>
</a>
</g>
</g>
<!-- Node10&#45;&gt;Node11 -->
<g id="edge15_Node000010_Node000011" class="edge">
<title>Node10&#45;&gt;Node11</title>
<g id="a_edge15_Node000010_Node000011"><a xlink:title=" ">
<path fill="none" stroke="#63b8ff" d="M491,-385.56C491,-377.04 491,-368.1 491,-360.16"/>
<polygon fill="#63b8ff" stroke="#63b8ff" points="487.5,-385.66 491,-395.66 494.5,-385.66 487.5,-385.66"/>
</a>
</g>
</g>
<!-- Node13&#45;&gt;Node2 -->
<g id="edge19_Node000013_Node000002" class="edge">
<title>Node13&#45;&gt;Node2</title>
<g id="a_edge19_Node000013_Node000002"><a xlink:title=" ">
<path fill="none" stroke="#63b8ff" d="M698.67,-228.42C658.74,-217.84 611.34,-205.27 572.74,-195.04"/>
<polygon fill="#63b8ff" stroke="#63b8ff" points="697.82,-231.81 708.38,-230.99 699.61,-225.05 697.82,-231.81"/>
</a>
</g>
</g>
<!-- Node13&#45;&gt;Node3 -->
<g id="edge18_Node000013_Node000003" class="edge">
<title>Node13&#45;&gt;Node3</title>
<g id="a_edge18_Node000013_Node000003"><a xlink:title=" ">
<path fill="none" stroke="#63b8ff" d="M757.38,-223.35C737.59,-202.59 708.35,-174.2 679,-154 648.87,-133.26 624.4,-149.01 605,-118 595.34,-102.55 592.84,-90.57 605,-77 634.13,-44.48 921.21,-29 1048.15,-23.71"/>
<polygon fill="#63b8ff" stroke="#63b8ff" points="755.08,-226.01 764.48,-230.9 760.18,-221.21 755.08,-226.01"/>
</a>
</g>
</g>
<!-- Node13&#45;&gt;Node5 -->
<g id="edge20_Node000013_Node000005" class="edge">
<title>Node13&#45;&gt;Node5</title>
<g id="a_edge20_Node000013_Node000005"><a xlink:title=" ">
<path fill="none" stroke="#63b8ff" d="M673.2,-238.52C599.06,-229.3 498.96,-214.77 412,-195 319.55,-173.98 214.75,-139.57 152.63,-118.02"/>
<polygon fill="#63b8ff" stroke="#63b8ff" points="673.14,-242.04 683.49,-239.78 673.99,-235.09 673.14,-242.04"/>
</a>
</g>
</g>
<!-- Node13&#45;&gt;Node6 -->
<g id="edge23_Node000013_Node000006" class="edge">
<title>Node13&#45;&gt;Node6</title>
<g id="a_edge23_Node000013_Node000006"><a xlink:title=" ">
<path fill="none" stroke="#63b8ff" d="M890.98,-245.63C950.67,-239.33 1024.41,-225.4 1084,-195 1107.52,-183 1106.53,-170.69 1127,-154 1142.59,-141.29 1160.97,-128.4 1176.18,-118.25"/>
<polygon fill="#63b8ff" stroke="#63b8ff" points="890.37,-242.18 880.76,-246.65 891.06,-249.14 890.37,-242.18"/>
</a>
</g>
</g>
<!-- Node13&#45;&gt;Node7 -->
<g id="edge26_Node000013_Node000007" class="edge">
<title>Node13&#45;&gt;Node7</title>
<g id="a_edge26_Node000013_Node000007"><a xlink:title=" ">
<path fill="none" stroke="#63b8ff" d="M890.88,-240.69C957.82,-232.68 1044.71,-218.69 1119,-195 1158.58,-182.38 1164.55,-169.73 1203,-154 1235.77,-140.59 1273.09,-127.9 1304.03,-118.04"/>
<polygon fill="#63b8ff" stroke="#63b8ff" points="890.26,-237.24 880.73,-241.88 891.07,-244.2 890.26,-237.24"/>
</a>
</g>
</g>
<!-- Node13&#45;&gt;Node8 -->
<g id="edge27_Node000013_Node000008" class="edge">
<title>Node13&#45;&gt;Node8</title>
<g id="a_edge27_Node000013_Node000008"><a xlink:title=" ">
<path fill="none" stroke="#63b8ff" d="M746.41,-225.03C716.51,-204.31 672.19,-175.14 631,-154 604.42,-140.35 573.67,-127.77 547.86,-118.04"/>
<polygon fill="#63b8ff" stroke="#63b8ff" points="744.62,-228.05 754.83,-230.91 748.63,-222.31 744.62,-228.05"/>
</a>
</g>
</g>
<!-- Node13&#45;&gt;Node9 -->
<g id="edge28_Node000013_Node000009" class="edge">
<title>Node13&#45;&gt;Node9</title>
<g id="a_edge28_Node000013_Node000009"><a xlink:title=" ">
<path fill="none" stroke="#63b8ff" d="M890.75,-244.91C1102.21,-233.77 1550.92,-208.71 1582,-195 1606.16,-184.34 1603.4,-169.18 1625,-154 1644.92,-140 1668.88,-127.55 1689.43,-118"/>
<polygon fill="#63b8ff" stroke="#63b8ff" points="890.36,-241.43 880.56,-245.45 890.73,-248.42 890.36,-241.43"/>
</a>
</g>
</g>
<!-- Node14 -->
<g id="Node000014" class="node">
<title>Node14</title>
<g id="a_Node000014"><a xlink:href="GameOver_8hpp.html" target="_top" xlink:title=" ">
<polygon fill="white" stroke="#666666" points="926,-118 780,-118 780,-77 926,-77 926,-118"/>
<text text-anchor="start" x="788" y="-106" font-family="Helvetica,sans-Serif" font-size="10.00">/home/runner/work/R</text>
<text text-anchor="start" x="788" y="-95" font-family="Helvetica,sans-Serif" font-size="10.00">&#45;Type/R&#45;Type/Client</text>
<text text-anchor="middle" x="853" y="-84" font-family="Helvetica,sans-Serif" font-size="10.00">/src/scenes/GameOver.hpp</text>
</a>
</g>
</g>
<!-- Node13&#45;&gt;Node14 -->
<g id="edge21_Node000013_Node000014" class="edge">
<title>Node13&#45;&gt;Node14</title>
<g id="a_edge21_Node000013_Node000014"><a xlink:title=" ">
<path fill="none" stroke="#63b8ff" d="M795.42,-221.76C809.53,-191.57 831.34,-144.87 843.67,-118.47"/>
<polygon fill="#63b8ff" stroke="#63b8ff" points="792.2,-220.4 791.14,-230.94 798.54,-223.36 792.2,-220.4"/>
</a>
</g>
</g>
<!-- Node15 -->
<g id="Node000015" class="node">
<title>Node15</title>
<g id="a_Node000015"><a xlink:href="MainGame_8hpp.html" target="_top" xlink:title=" ">
<polygon fill="white" stroke="#666666" points="762,-118 614,-118 614,-77 762,-77 762,-118"/>
<text text-anchor="start" x="622" y="-106" font-family="Helvetica,sans-Serif" font-size="10.00">/home/runner/work/R</text>
<text text-anchor="start" x="622" y="-95" font-family="Helvetica,sans-Serif" font-size="10.00">&#45;Type/R&#45;Type/Client</text>
<text text-anchor="middle" x="688" y="-84" font-family="Helvetica,sans-Serif" font-size="10.00">/src/scenes/MainGame.hpp</text>
</a>
</g>
</g>
<!-- Node13&#45;&gt;Node15 -->
<g id="edge24_Node000013_Node000015" class="edge">
<title>Node13&#45;&gt;Node15</title>
<g id="a_edge24_Node000013_Node000015"><a xlink:title=" ">
<path fill="none" stroke="#63b8ff" d="M774.34,-221.05C768.3,-201.09 758.62,-174.67 745,-154 736.19,-140.62 723.66,-127.97 712.59,-118.14"/>
<polygon fill="#63b8ff" stroke="#63b8ff" points="771.03,-222.2 777.16,-230.84 777.75,-220.26 771.03,-222.2"/>
</a>
</g>
</g>
<!-- Node14&#45;&gt;Node3 -->
<g id="edge22_Node000014_Node000003" class="edge">
<title>Node14&#45;&gt;Node3</title>
<g id="a_edge22_Node000014_Node000003"><a xlink:title=" ">
<path fill="none" stroke="#63b8ff" d="M929.34,-74.05C967.35,-62.87 1012.63,-49.55 1048.1,-39.12"/>
<polygon fill="#63b8ff" stroke="#63b8ff" points="927.94,-70.81 919.33,-76.99 929.91,-77.53 927.94,-70.81"/>
</a>
</g>
</g>
<!-- Node15&#45;&gt;Node3 -->
<g id="edge25_Node000015_Node000003" class="edge">
<title>Node15&#45;&gt;Node3</title>
<g id="a_edge25_Node000015_Node000003"><a xlink:title=" ">
<path fill="none" stroke="#63b8ff" d="M772.07,-76.85C874.7,-56.61 983.02,-39.75 1048.43,-30.07"/>
<polygon fill="#63b8ff" stroke="#63b8ff" points="771.28,-73.43 762.16,-78.82 772.65,-80.3 771.28,-73.43"/>
</a>
</g>
</g>
<!-- Node17 -->
<g id="Node000017" class="node">
<title>Node17</title>
<g id="a_Node000017"><a xlink:href="UIButton_8hpp.html" target="_top" xlink:title=" ">
<polygon fill="white" stroke="#666666" points="1393.5,-195 1244.5,-195 1244.5,-154 1393.5,-154 1393.5,-195"/>
<text text-anchor="start" x="1252.5" y="-183" font-family="Helvetica,sans-Serif" font-size="10.00">/home/runner/work/R</text>
<text text-anchor="start" x="1252.5" y="-172" font-family="Helvetica,sans-Serif" font-size="10.00">&#45;Type/R&#45;Type/Client</text>
<text text-anchor="middle" x="1319" y="-161" font-family="Helvetica,sans-Serif" font-size="10.00">/src/engine/ui/UIButton.hpp</text>
</a>
</g>
</g>
<!-- Node16&#45;&gt;Node17 -->
<g id="edge30_Node000016_Node000017" class="edge">
<title>Node16&#45;&gt;Node17</title>
<g id="a_edge30_Node000016_Node000017"><a xlink:title=" ">
<path fill="none" stroke="#63b8ff" d="M1499.3,-394.93C1510.37,-385.38 1521.01,-373.55 1527,-360 1550.17,-307.56 1561.93,-276.47 1527,-231 1522.72,-225.42 1451.58,-207.22 1393.68,-193.17"/>
<polygon fill="#63b8ff" stroke="#63b8ff" points="1496.79,-392.45 1491.23,-401.47 1501.2,-397.89 1496.79,-392.45"/>
</a>
</g>
</g>
<!-- Node19 -->
<g id="Node000019" class="node">
<title>Node19</title>
<g id="a_Node000019"><a xlink:href="UIElement_8cpp.html" target="_top" xlink:title=" ">
<polygon fill="white" stroke="#666666" points="1485,-354.5 1329,-354.5 1329,-313.5 1485,-313.5 1485,-354.5"/>
<text text-anchor="start" x="1337" y="-342.5" font-family="Helvetica,sans-Serif" font-size="10.00">/home/runner/work/R</text>
<text text-anchor="start" x="1337" y="-331.5" font-family="Helvetica,sans-Serif" font-size="10.00">&#45;Type/R&#45;Type/Client</text>
<text text-anchor="middle" x="1407" y="-320.5" font-family="Helvetica,sans-Serif" font-size="10.00">/src/engine/ui/UIElement.cpp</text>
</a>
</g>
</g>
<!-- Node16&#45;&gt;Node19 -->
<g id="edge37_Node000016_Node000019" class="edge">
<title>Node16&#45;&gt;Node19</title>
<g id="a_edge37_Node000016_Node000019"><a xlink:title=" ">
<path fill="none" stroke="#63b8ff" d="M1442.63,-392.82C1434.96,-380.37 1426.12,-366.02 1419.16,-354.74"/>
<polygon fill="#63b8ff" stroke="#63b8ff" points="1439.75,-394.81 1447.97,-401.49 1445.71,-391.14 1439.75,-394.81"/>
</a>
</g>
</g>
<!-- Node20 -->
<g id="Node000020" class="node">
<title>Node20</title>
<g id="a_Node000020"><a xlink:href="UIImage_8hpp.html" target="_top" xlink:title=" ">
<polygon fill="white" stroke="#666666" points="1814.5,-195 1667.5,-195 1667.5,-154 1814.5,-154 1814.5,-195"/>
<text text-anchor="start" x="1675.5" y="-183" font-family="Helvetica,sans-Serif" font-size="10.00">/home/runner/work/R</text>
<text text-anchor="start" x="1675.5" y="-172" font-family="Helvetica,sans-Serif" font-size="10.00">&#45;Type/R&#45;Type/Client</text>
<text text-anchor="middle" x="1741" y="-161" font-family="Helvetica,sans-Serif" font-size="10.00">/src/engine/ui/UIImage.hpp</text>
</a>
</g>
</g>
<!-- Node16&#45;&gt;Node20 -->
<g id="edge38_Node000016_Node000020" class="edge">
<title>Node16&#45;&gt;Node20</title>
<g id="a_edge38_Node000016_Node000020"><a xlink:title=" ">
<path fill="none" stroke="#63b8ff" d="M1523.19,-397.43C1544.92,-387.68 1568.63,-375.09 1588,-360 1651.04,-310.91 1705.58,-231.68 1728.91,-195.12"/>
<polygon fill="#63b8ff" stroke="#63b8ff" points="1521.78,-394.22 1514.02,-401.43 1524.59,-400.64 1521.78,-394.22"/>
</a>
</g>
</g>
<!-- Node16&#45;&gt;Node22 -->
<g id="edge44_Node000016_Node000022" class="edge">
<title>Node16&#45;&gt;Node22</title>
<g id="a_edge44_Node000016_Node000022"><a xlink:title=" ">
<path fill="none" stroke="#63b8ff" d="M1371.32,-407.16C1265.43,-390.63 1089.92,-363.24 988.34,-347.38"/>
<polygon fill="#63b8ff" stroke="#63b8ff" points="1370.93,-410.64 1381.35,-408.72 1372.01,-403.72 1370.93,-410.64"/>
</a>
</g>
</g>
<!-- Node23 -->
<g id="Node000023" class="node">
<title>Node23</title>
<g id="a_Node000023"><a xlink:href="UISolidColor_8hpp.html" target="_top" xlink:title=" ">
<polygon fill="white" stroke="#666666" points="1310.5,-354.5 1145.5,-354.5 1145.5,-313.5 1310.5,-313.5 1310.5,-354.5"/>
<text text-anchor="start" x="1153.5" y="-342.5" font-family="Helvetica,sans-Serif" font-size="10.00">/home/runner/work/R</text>
<text text-anchor="start" x="1153.5" y="-331.5" font-family="Helvetica,sans-Serif" font-size="10.00">&#45;Type/R&#45;Type/Client</text>
<text text-anchor="middle" x="1228" y="-320.5" font-family="Helvetica,sans-Serif" font-size="10.00">/src/engine/ui/UISolidColor.hpp</text>
</a>
</g>
</g>
<!-- Node16&#45;&gt;Node23 -->
<g id="edge52_Node000016_Node000023" class="edge">
<title>Node16&#45;&gt;Node23</title>
<g id="a_edge52_Node000016_Node000023"><a xlink:title=" ">
<path fill="none" stroke="#63b8ff" d="M1397.8,-397.94C1361.27,-384.4 1315.61,-367.48 1280.84,-354.59"/>
<polygon fill="#63b8ff" stroke="#63b8ff" points="1396.76,-401.29 1407.36,-401.49 1399.2,-394.73 1396.76,-401.29"/>
</a>
</g>
</g>
<!-- Node25 -->
<g id="Node000025" class="node">
<title>Node25</title>
<g id="a_Node000025"><a xlink:href="UIText_8hpp.html" target="_top" xlink:title=" ">
<polygon fill="white" stroke="#666666" points="1074.5,-195 937.5,-195 937.5,-154 1074.5,-154 1074.5,-195"/>
<text text-anchor="start" x="945.5" y="-183" font-family="Helvetica,sans-Serif" font-size="10.00">/home/runner/work/R</text>
<text text-anchor="start" x="945.5" y="-172" font-family="Helvetica,sans-Serif" font-size="10.00">&#45;Type/R&#45;Type/Client</text>
<text text-anchor="middle" x="1006" y="-161" font-family="Helvetica,sans-Serif" font-size="10.00">/src/engine/ui/UIText.hpp</text>
</a>
</g>
</g>
<!-- Node16&#45;&gt;Node25 -->
<g id="edge55_Node000016_Node000025" class="edge">
<title>Node16&#45;&gt;Node25</title>
<g id="a_edge55_Node000016_Node000025"><a xlink:title=" ">
<path fill="none" stroke="#63b8ff" d="M1477.69,-392.85C1500.91,-351.95 1534.25,-276.09 1494,-231 1487.08,-223.25 1207.56,-195.1 1074.74,-182.13"/>
<polygon fill="#63b8ff" stroke="#63b8ff" points="1474.66,-391.1 1472.63,-401.5 1480.7,-394.63 1474.66,-391.1"/>
</a>
</g>
</g>
<!-- Node27 -->
<g id="Node000027" class="node">
<title>Node27</title>
<g id="a_Node000027"><a xlink:href="UITextInput_8hpp.html" target="_top" xlink:title=" ">
<polygon fill="white" stroke="#666666" points="1572.5,-195 1411.5,-195 1411.5,-154 1572.5,-154 1572.5,-195"/>
<text text-anchor="start" x="1419.5" y="-183" font-family="Helvetica,sans-Serif" font-size="10.00">/home/runner/work/R</text>
<text text-anchor="start" x="1419.5" y="-172" font-family="Helvetica,sans-Serif" font-size="10.00">&#45;Type/R&#45;Type/Client</text>
<text text-anchor="middle" x="1492" y="-161" font-family="Helvetica,sans-Serif" font-size="10.00">/src/engine/ui/UITextInput.hpp</text>
</a>
</g>
</g>
<!-- Node16&#45;&gt;Node27 -->
<g id="edge64_Node000016_Node000027" class="edge">
<title>Node16&#45;&gt;Node27</title>
<g id="a_edge64_Node000016_Node000027"><a xlink:title=" ">
<path fill="none" stroke="#63b8ff" d="M1526.08,-396.45C1541.53,-387.43 1556.08,-375.5 1565,-360 1593.6,-310.31 1590.47,-282.36 1565,-231 1557.57,-216.02 1543.96,-204 1530.48,-195.02"/>
<polygon fill="#63b8ff" stroke="#63b8ff" points="1524.03,-393.58 1516.91,-401.43 1527.37,-399.73 1524.03,-393.58"/>
</a>
</g>
</g>
<!-- Node17&#45;&gt;Node3 -->
<g id="edge31_Node000017_Node000003" class="edge">
<title>Node17&#45;&gt;Node3</title>
<g id="a_edge31_Node000017_Node000003"><a xlink:title=" ">
<path fill="none" stroke="#63b8ff" d="M1393.06,-150.45C1419.02,-140.76 1443.59,-129.16 1451,-118 1461.08,-102.82 1462.81,-90.88 1451,-77 1415.32,-35.08 1256.2,-24.73 1167.76,-22.23"/>
<polygon fill="#63b8ff" stroke="#63b8ff" points="1391.67,-147.23 1383.47,-153.93 1394.06,-153.81 1391.67,-147.23"/>
</a>
</g>
</g>
<!-- Node17&#45;&gt;Node6 -->
<g id="edge33_Node000017_Node000006" class="edge">
<title>Node17&#45;&gt;Node6</title>
<g id="a_edge33_Node000017_Node000006"><a xlink:title=" ">
<path fill="none" stroke="#63b8ff" d="M1281.47,-148.37C1266.78,-138.53 1250.17,-127.41 1236.38,-118.17"/>
<polygon fill="#63b8ff" stroke="#63b8ff" points="1279.61,-151.33 1289.87,-153.99 1283.5,-145.52 1279.61,-151.33"/>
</a>
</g>
</g>
<!-- Node17&#45;&gt;Node7 -->
<g id="edge34_Node000017_Node000007" class="edge">
<title>Node17&#45;&gt;Node7</title>
<g id="a_edge34_Node000017_Node000007"><a xlink:title=" ">
<path fill="none" stroke="#63b8ff" d="M1337.74,-145.39C1343.8,-136.3 1350.39,-126.41 1355.95,-118.07"/>
<polygon fill="#63b8ff" stroke="#63b8ff" points="1334.77,-143.53 1332.14,-153.79 1340.6,-147.42 1334.77,-143.53"/>
</a>
</g>
</g>
<!-- Node17&#45;&gt;Node8 -->
<g id="edge35_Node000017_Node000008" class="edge">
<title>Node17&#45;&gt;Node8</title>
<g id="a_edge35_Node000017_Node000008"><a xlink:title=" ">
<path fill="none" stroke="#63b8ff" d="M1234.17,-166.3C1189.49,-162.55 1133.79,-157.94 1084,-154 871.17,-137.17 816.88,-144.18 605,-118 589.79,-116.12 573.5,-113.61 558.17,-111.01"/>
<polygon fill="#63b8ff" stroke="#63b8ff" points="1234.14,-169.81 1244.4,-167.16 1234.73,-162.84 1234.14,-169.81"/>
</a>
</g>
</g>
<!-- Node17&#45;&gt;Node9 -->
<g id="edge36_Node000017_Node000009" class="edge">
<title>Node17&#45;&gt;Node9</title>
<g id="a_edge36_Node000017_Node000009"><a xlink:title=" ">
<path fill="none" stroke="#63b8ff" d="M1403.62,-153.98C1515.95,-133.51 1547.03,-138.66 1655,-118 1657.84,-117.46 1660.73,-116.88 1663.65,-116.28"/>
<polygon fill="#63b8ff" stroke="#63b8ff" points="1402.78,-150.57 1393.58,-155.83 1404.05,-157.46 1402.78,-150.57"/>
</a>
</g>
</g>
<!-- Node18 -->
<g id="Node000018" class="node">
<title>Node18</title>
<g id="a_Node000018"><a xlink:href="UIButton_8cpp.html" target="_top" xlink:title=" ">
<polygon fill="white" stroke="#666666" points="1646,-118 1498,-118 1498,-77 1646,-77 1646,-118"/>
<text text-anchor="start" x="1506" y="-106" font-family="Helvetica,sans-Serif" font-size="10.00">/home/runner/work/R</text>
<text text-anchor="start" x="1506" y="-95" font-family="Helvetica,sans-Serif" font-size="10.00">&#45;Type/R&#45;Type/Client</text>
<text text-anchor="middle" x="1572" y="-84" font-family="Helvetica,sans-Serif" font-size="10.00">/src/engine/ui/UIButton.cpp</text>
</a>
</g>
</g>
<!-- Node17&#45;&gt;Node18 -->
<g id="edge32_Node000017_Node000018" class="edge">
<title>Node17&#45;&gt;Node18</title>
<g id="a_edge32_Node000017_Node000018"><a xlink:title=" ">
<path fill="none" stroke="#63b8ff" d="M1394.63,-151.08C1430.08,-140.57 1471.94,-128.16 1506.08,-118.04"/>
<polygon fill="#63b8ff" stroke="#63b8ff" points="1393.41,-147.79 1384.81,-153.99 1395.39,-154.5 1393.41,-147.79"/>
</a>
</g>
</g>
<!-- Node20&#45;&gt;Node3 -->
<g id="edge39_Node000020_Node000003" class="edge">
<title>Node20&#45;&gt;Node3</title>
<g id="a_edge39_Node000020_Node000003"><a xlink:title=" ">
<path fill="none" stroke="#63b8ff" d="M1824.89,-168.27C1919.3,-159.44 2052.7,-136.28 1997,-77 1968.58,-46.75 1362.25,-28.2 1167.59,-23"/>
<polygon fill="#63b8ff" stroke="#63b8ff" points="1824.38,-164.8 1814.74,-169.18 1825.01,-171.77 1824.38,-164.8"/>
</a>
</g>
</g>
<!-- Node20&#45;&gt;Node6 -->
<g id="edge41_Node000020_Node000006" class="edge">
<title>Node20&#45;&gt;Node6</title>
<g id="a_edge41_Node000020_Node000006"><a xlink:title=" ">
<path fill="none" stroke="#63b8ff" d="M1657.14,-163.21C1632.9,-160.23 1606.4,-156.98 1582,-154 1450.89,-137.96 1416.94,-141.68 1287,-118 1284.05,-117.46 1281.04,-116.88 1278.01,-116.27"/>
<polygon fill="#63b8ff" stroke="#63b8ff" points="1657.03,-166.72 1667.38,-164.46 1657.88,-159.77 1657.03,-166.72"/>
</a>
</g>
</g>
<!-- Node20&#45;&gt;Node7 -->
<g id="edge42_Node000020_Node000007" class="edge">
<title>Node20&#45;&gt;Node7</title>
<g id="a_edge42_Node000020_Node000007"><a xlink:title=" ">
<path fill="none" stroke="#63b8ff" d="M1656.9,-156.54C1592.27,-143.51 1503.89,-125.7 1442.17,-113.25"/>
<polygon fill="#63b8ff" stroke="#63b8ff" points="1656.57,-160.05 1667.06,-158.59 1657.95,-153.19 1656.57,-160.05"/>
</a>
</g>
</g>
<!-- Node20&#45;&gt;Node9 -->
<g id="edge43_Node000020_Node000009" class="edge">
<title>Node20&#45;&gt;Node9</title>
<g id="a_edge43_Node000020_Node000009"><a xlink:title=" ">
<path fill="none" stroke="#63b8ff" d="M1739.01,-143.69C1738.44,-135.08 1737.83,-125.9 1737.3,-118.07"/>
<polygon fill="#63b8ff" stroke="#63b8ff" points="1735.53,-144.05 1739.69,-153.79 1742.51,-143.58 1735.53,-144.05"/>
</a>
</g>
</g>
<!-- Node21 -->
<g id="Node000021" class="node">
<title>Node21</title>
<g id="a_Node000021"><a xlink:href="UIImage_8cpp.html" target="_top" xlink:title=" ">
<polygon fill="white" stroke="#666666" points="2190,-118 2044,-118 2044,-77 2190,-77 2190,-118"/>
<text text-anchor="start" x="2052" y="-106" font-family="Helvetica,sans-Serif" font-size="10.00">/home/runner/work/R</text>
<text text-anchor="start" x="2052" y="-95" font-family="Helvetica,sans-Serif" font-size="10.00">&#45;Type/R&#45;Type/Client</text>
<text text-anchor="middle" x="2117" y="-84" font-family="Helvetica,sans-Serif" font-size="10.00">/src/engine/ui/UIImage.cpp</text>
</a>
</g>
</g>
<!-- Node20&#45;&gt;Node21 -->
<g id="edge40_Node000020_Node000021" class="edge">
<title>Node20&#45;&gt;Node21</title>
<g id="a_edge40_Node000020_Node000021"><a xlink:title=" ">
<path fill="none" stroke="#63b8ff" d="M1824.94,-158.09C1882.69,-147.31 1961.11,-132.33 2030,-118 2034.55,-117.05 2039.22,-116.06 2043.93,-115.05"/>
<polygon fill="#63b8ff" stroke="#63b8ff" points="1823.96,-154.71 1814.77,-159.98 1825.24,-161.59 1823.96,-154.71"/>
</a>
</g>
</g>
<!-- Node22&#45;&gt;Node6 -->
<g id="edge47_Node000022_Node000006" class="edge">
<title>Node22&#45;&gt;Node6</title>
<g id="a_edge47_Node000022_Node000006"><a xlink:title=" ">
<path fill="none" stroke="#63b8ff" d="M953.06,-308.44C997.16,-282.88 1065.91,-240.3 1119,-195 1146.94,-171.16 1174.76,-138.85 1191.42,-118.33"/>
<polygon fill="#63b8ff" stroke="#63b8ff" points="951.23,-305.45 944.31,-313.48 954.72,-311.52 951.23,-305.45"/>
</a>
</g>
</g>
<!-- Node22&#45;&gt;Node7 -->
<g id="edge49_Node000022_Node000007" class="edge">
<title>Node22&#45;&gt;Node7</title>
<g id="a_edge49_Node000022_Node000007"><a xlink:title=" ">
<path fill="none" stroke="#63b8ff" d="M973.58,-309.76C1000.26,-299.35 1031.16,-286.21 1058,-272 1141.88,-227.58 1152.27,-198.7 1236,-154 1261.49,-140.39 1291.06,-127.76 1315.83,-118"/>
<polygon fill="#63b8ff" stroke="#63b8ff" points="972.03,-306.61 963.96,-313.47 974.55,-313.14 972.03,-306.61"/>
</a>
</g>
</g>
<!-- Node22&#45;&gt;Node8 -->
<g id="edge50_Node000022_Node000008" class="edge">
<title>Node22&#45;&gt;Node8</title>
<g id="a_edge50_Node000022_Node000008"><a xlink:title=" ">
<path fill="none" stroke="#63b8ff" d="M819.94,-329.07C767.25,-322.77 701.71,-307.63 654,-272 605.5,-235.78 628.57,-197.03 586,-154 571.6,-139.45 552.62,-127.3 535.49,-118.11"/>
<polygon fill="#63b8ff" stroke="#63b8ff" points="819.63,-332.55 829.96,-330.17 820.4,-325.6 819.63,-332.55"/>
</a>
</g>
</g>
<!-- Node22&#45;&gt;Node9 -->
<g id="edge51_Node000022_Node000009" class="edge">
<title>Node22&#45;&gt;Node9</title>
<g id="a_edge51_Node000022_Node000009"><a xlink:title=" ">
<path fill="none" stroke="#63b8ff" d="M985.14,-310.57C1065.69,-287.58 1196.81,-252.28 1312,-231 1446.22,-206.2 1493.82,-253.81 1617,-195 1640.54,-183.76 1639.03,-170.78 1659,-154 1674.14,-141.28 1692,-128.29 1706.71,-118.08"/>
<polygon fill="#63b8ff" stroke="#63b8ff" points="983.74,-307.33 975.09,-313.44 985.66,-314.06 983.74,-307.33"/>
</a>
</g>
</g>
<!-- Node22&#45;&gt;Node13 -->
<g id="edge45_Node000022_Node000013" class="edge">
<title>Node22&#45;&gt;Node13</title>
<g id="a_edge45_Node000022_Node000013"><a xlink:title=" ">
<path fill="none" stroke="#63b8ff" d="M869.32,-307.85C851.23,-296.38 830.12,-283 813.19,-272.27"/>
<polygon fill="#63b8ff" stroke="#63b8ff" points="867.61,-310.91 877.93,-313.31 871.36,-305 867.61,-310.91"/>
</a>
</g>
</g>
<!-- Node22&#45;&gt;Node14 -->
<g id="edge46_Node000022_Node000014" class="edge">
<title>Node22&#45;&gt;Node14</title>
<g id="a_edge46_Node000022_Node000014"><a xlink:title=" ">
<path fill="none" stroke="#63b8ff" d="M904.19,-303.38C900.7,-282.94 895.62,-255.2 890,-231 880.6,-190.52 866.88,-143.86 859.06,-118.11"/>
<polygon fill="#63b8ff" stroke="#63b8ff" points="900.76,-304.06 905.87,-313.34 907.66,-302.9 900.76,-304.06"/>
</a>
</g>
</g>
<!-- Node22&#45;&gt;Node15 -->
<g id="edge48_Node000022_Node000015" class="edge">
<title>Node22&#45;&gt;Node15</title>
<g id="a_edge48_Node000022_Node000015"><a xlink:title=" ">
<path fill="none" stroke="#63b8ff" d="M819.87,-321.28C761.25,-311.53 692.13,-295.44 674,-272 638.87,-226.59 663.6,-153.01 678.68,-118.09"/>
<polygon fill="#63b8ff" stroke="#63b8ff" points="819.49,-324.76 829.92,-322.91 820.61,-317.85 819.49,-324.76"/>
</a>
</g>
</g>
<!-- Node23&#45;&gt;Node15 -->
<g id="edge54_Node000023_Node000015" class="edge">
<title>Node23&#45;&gt;Node15</title>
<g id="a_edge54_Node000023_Node000015"><a xlink:title=" ">
<path fill="none" stroke="#63b8ff" d="M1173.58,-309.37C1066.8,-263 831.66,-160.88 732.98,-118.03"/>
<polygon fill="#63b8ff" stroke="#63b8ff" points="1172.32,-312.64 1182.89,-313.41 1175.11,-306.22 1172.32,-312.64"/>
</a>
</g>
</g>
<!-- Node24 -->
<g id="Node000024" class="node">
<title>Node24</title>
<g id="a_Node000024"><a xlink:href="UISolidColor_8cpp.html" target="_top" xlink:title=" ">
<polygon fill="white" stroke="#666666" points="1485,-272 1321,-272 1321,-231 1485,-231 1485,-272"/>
<text text-anchor="start" x="1329" y="-260" font-family="Helvetica,sans-Serif" font-size="10.00">/home/runner/work/R</text>
<text text-anchor="start" x="1329" y="-249" font-family="Helvetica,sans-Serif" font-size="10.00">&#45;Type/R&#45;Type/Client</text>
<text text-anchor="middle" x="1403" y="-238" font-family="Helvetica,sans-Serif" font-size="10.00">/src/engine/ui/UISolidColor.cpp</text>
</a>
</g>
</g>
<!-- Node23&#45;&gt;Node24 -->
<g id="edge53_Node000023_Node000024" class="edge">
<title>Node23&#45;&gt;Node24</title>
<g id="a_edge53_Node000023_Node000024"><a xlink:title=" ">
<path fill="none" stroke="#63b8ff" d="M1280,-309.08C1305.61,-297.3 1336.11,-283.27 1360.33,-272.13"/>
<polygon fill="#63b8ff" stroke="#63b8ff" points="1278.43,-305.95 1270.81,-313.31 1281.36,-312.31 1278.43,-305.95"/>
</a>
</g>
</g>
<!-- Node25&#45;&gt;Node3 -->
<g id="edge56_Node000025_Node000003" class="edge">
<title>Node25&#45;&gt;Node3</title>
<g id="a_edge56_Node000025_Node000003"><a xlink:title=" ">
<path fill="none" stroke="#63b8ff" d="M1057.25,-148.32C1069.3,-140.18 1080.95,-130.07 1089,-118 1104.44,-94.84 1107.92,-62.05 1108.41,-41.28"/>
<polygon fill="#63b8ff" stroke="#63b8ff" points="1055.03,-145.59 1048.46,-153.9 1058.78,-151.5 1055.03,-145.59"/>
</a>
</g>
</g>
<!-- Node25&#45;&gt;Node6 -->
<g id="edge59_Node000025_Node000006" class="edge">
<title>Node25&#45;&gt;Node6</title>
<g id="a_edge59_Node000025_Node000006"><a xlink:title=" ">
<path fill="none" stroke="#63b8ff" d="M1067.9,-150.4C1095.67,-140.04 1128.08,-127.95 1154.63,-118.04"/>
<polygon fill="#63b8ff" stroke="#63b8ff" points="1066.43,-147.22 1058.29,-153.99 1068.88,-153.77 1066.43,-147.22"/>
</a>
</g>
</g>
<!-- Node25&#45;&gt;Node7 -->
<g id="edge61_Node000025_Node000007" class="edge">
<title>Node25&#45;&gt;Node7</title>
<g id="a_edge61_Node000025_Node000007"><a xlink:title=" ">
<path fill="none" stroke="#63b8ff" d="M1084.51,-158.83C1140.95,-148.08 1218.82,-132.84 1287,-118 1289.86,-117.38 1292.77,-116.73 1295.71,-116.08"/>
<polygon fill="#63b8ff" stroke="#63b8ff" points="1083.75,-155.41 1074.58,-160.72 1085.05,-162.29 1083.75,-155.41"/>
</a>
</g>
</g>
<!-- Node25&#45;&gt;Node8 -->
<g id="edge62_Node000025_Node000008" class="edge">
<title>Node25&#45;&gt;Node8</title>
<g id="a_edge62_Node000025_Node000008"><a xlink:title=" ">
<path fill="none" stroke="#63b8ff" d="M927.32,-163.4C846.38,-152.82 716.72,-135.37 605,-118 589.85,-115.65 573.59,-112.94 558.26,-110.32"/>
<polygon fill="#63b8ff" stroke="#63b8ff" points="927.06,-166.89 937.43,-164.72 927.96,-159.95 927.06,-166.89"/>
</a>
</g>
</g>
<!-- Node25&#45;&gt;Node9 -->
<g id="edge63_Node000025_Node000009" class="edge">
<title>Node25&#45;&gt;Node9</title>
<g id="a_edge63_Node000025_Node000009"><a xlink:title=" ">
<path fill="none" stroke="#63b8ff" d="M1084.72,-166.81C1256.81,-152.17 1651.51,-118.57 1655,-118 1657.86,-117.54 1660.76,-117.03 1663.69,-116.48"/>
<polygon fill="#63b8ff" stroke="#63b8ff" points="1084.38,-163.32 1074.71,-167.66 1084.97,-170.3 1084.38,-163.32"/>
</a>
</g>
</g>
<!-- Node25&#45;&gt;Node14 -->
<g id="edge58_Node000025_Node000014" class="edge">
<title>Node25&#45;&gt;Node14</title>
<g id="a_edge58_Node000025_Node000014"><a xlink:title=" ">
<path fill="none" stroke="#63b8ff" d="M957.21,-149.59C936.45,-139.41 912.54,-127.69 892.87,-118.04"/>
<polygon fill="#63b8ff" stroke="#63b8ff" points="955.68,-152.73 966.2,-153.99 958.76,-146.45 955.68,-152.73"/>
</a>
</g>
</g>
<!-- Node25&#45;&gt;Node15 -->
<g id="edge60_Node000025_Node000015" class="edge">
<title>Node25&#45;&gt;Node15</title>
<g id="a_edge60_Node000025_Node000015"><a xlink:title=" ">
<path fill="none" stroke="#63b8ff" d="M927.49,-154.98C876.95,-143.06 811.67,-127.67 762.03,-115.96"/>
<polygon fill="#63b8ff" stroke="#63b8ff" points="926.85,-158.43 937.39,-157.32 928.46,-151.62 926.85,-158.43"/>
</a>
</g>
</g>
<!-- Node26 -->
<g id="Node000026" class="node">
<title>Node26</title>
<g id="a_Node000026"><a xlink:href="UIText_8cpp.html" target="_top" xlink:title=" ">
<polygon fill="white" stroke="#666666" points="1080,-118 944,-118 944,-77 1080,-77 1080,-118"/>
<text text-anchor="start" x="952" y="-106" font-family="Helvetica,sans-Serif" font-size="10.00">/home/runner/work/R</text>
<text text-anchor="start" x="952" y="-95" font-family="Helvetica,sans-Serif" font-size="10.00">&#45;Type/R&#45;Type/Client</text>
<text text-anchor="middle" x="1012" y="-84" font-family="Helvetica,sans-Serif" font-size="10.00">/src/engine/ui/UIText.cpp</text>
</a>
</g>
</g>
<!-- Node25&#45;&gt;Node26 -->
<g id="edge57_Node000025_Node000026" class="edge">
<title>Node25&#45;&gt;Node26</title>
<g id="a_edge57_Node000025_Node000026"><a xlink:title=" ">
<path fill="none" stroke="#63b8ff" d="M1008.38,-143.69C1009.07,-135.08 1009.81,-125.9 1010.43,-118.07"/>
<polygon fill="#63b8ff" stroke="#63b8ff" points="1004.89,-143.55 1007.58,-153.79 1011.86,-144.11 1004.89,-143.55"/>
</a>
</g>
</g>
<!-- Node27&#45;&gt;Node6 -->
<g id="edge66_Node000027_Node000006" class="edge">
<title>Node27&#45;&gt;Node6</title>
<g id="a_edge66_Node000027_Node000006"><a xlink:title=" ">
<path fill="none" stroke="#63b8ff" d="M1408.11,-151.42C1366.87,-140.57 1317.7,-127.63 1278.31,-117.27"/>
<polygon fill="#63b8ff" stroke="#63b8ff" points="1407.3,-154.83 1417.86,-153.99 1409.08,-148.06 1407.3,-154.83"/>
</a>
</g>
</g>
<!-- Node27&#45;&gt;Node7 -->
<g id="edge67_Node000027_Node000007" class="edge">
<title>Node27&#45;&gt;Node7</title>
<g id="a_edge67_Node000027_Node000007"><a xlink:title=" ">
<path fill="none" stroke="#63b8ff" d="M1451.24,-148.64C1434.99,-138.74 1416.55,-127.5 1401.26,-118.17"/>
<polygon fill="#63b8ff" stroke="#63b8ff" points="1449.64,-151.77 1460,-153.99 1453.29,-145.8 1449.64,-151.77"/>
</a>
</g>
</g>
<!-- Node27&#45;&gt;Node9 -->
<g id="edge68_Node000027_Node000009" class="edge">
<title>Node27&#45;&gt;Node9</title>
<g id="a_edge68_Node000027_Node000009"><a xlink:title=" ">
<path fill="none" stroke="#63b8ff" d="M1565.38,-150.94C1599.48,-140.46 1639.64,-128.12 1672.42,-118.04"/>
<polygon fill="#63b8ff" stroke="#63b8ff" points="1564,-147.71 1555.47,-153.99 1566.06,-154.4 1564,-147.71"/>
</a>
</g>
</g>
<!-- Node28 -->
<g id="Node000028" class="node">
<title>Node28</title>
<g id="a_Node000028"><a xlink:href="UITextInput_8cpp.html" target="_top" xlink:title=" ">
<polygon fill="white" stroke="#666666" points="1987.5,-118 1826.5,-118 1826.5,-77 1987.5,-77 1987.5,-118"/>
<text text-anchor="start" x="1834.5" y="-106" font-family="Helvetica,sans-Serif" font-size="10.00">/home/runner/work/R</text>
<text text-anchor="start" x="1834.5" y="-95" font-family="Helvetica,sans-Serif" font-size="10.00">&#45;Type/R&#45;Type/Client</text>
<text text-anchor="middle" x="1907" y="-84" font-family="Helvetica,sans-Serif" font-size="10.00">/src/engine/ui/UITextInput.cpp</text>
</a>
</g>
</g>
<!-- Node27&#45;&gt;Node28 -->
<g id="edge65_Node000027_Node000028" class="edge">
<title>Node27&#45;&gt;Node28</title>
<g id="a_edge65_Node000027_Node000028"><a xlink:title=" ">
<path fill="none" stroke="#63b8ff" d="M1582.91,-159.08C1648.18,-148.46 1738.19,-133.26 1817,-118 1819.98,-117.42 1823.02,-116.82 1826.08,-116.21"/>
<polygon fill="#63b8ff" stroke="#63b8ff" points="1581.96,-155.69 1572.65,-160.75 1583.08,-162.6 1581.96,-155.69"/>
</a>
</g>
</g>
</g>
</svg>
