<?xml version="1.0" encoding="UTF-8" standalone="no"?>
<!DOCTYPE svg PUBLIC "-//W3C//DTD SVG 1.1//EN"
 "http://www.w3.org/Graphics/SVG/1.1/DTD/svg11.dtd">
<!-- Generated by graphviz version 2.43.0 (0)
 -->
<!-- Title: /home/runner/work/R&#45;Type/R&#45;Type/Shared/components/TileMap.hpp Pages: 1 -->
<svg width="3731pt" height="302pt"
 viewBox="0.00 0.00 3731.00 302.00" xmlns="http://www.w3.org/2000/svg" xmlns:xlink="http://www.w3.org/1999/xlink">
<g id="graph0" class="graph" transform="scale(1 1) rotate(0) translate(4 298)">
<title>/home/runner/work/R&#45;Type/R&#45;Type/Shared/components/TileMap.hpp</title>
<!-- Node1 -->
<g id="Node000001" class="node">
<title>Node1</title>
<g id="a_Node000001"><a xlink:title=" ">
<polygon fill="#999999" stroke="#666666" points="525.5,-294 382.5,-294 382.5,-253 525.5,-253 525.5,-294"/>
<text text-anchor="start" x="390.5" y="-282" font-family="Helvetica,sans-Serif" font-size="10.00">/home/runner/work/R</text>
<text text-anchor="start" x="390.5" y="-271" font-family="Helvetica,sans-Serif" font-size="10.00">&#45;Type/R&#45;Type/Shared</text>
<text text-anchor="middle" x="454" y="-260" font-family="Helvetica,sans-Serif" font-size="10.00">/components/TileMap.hpp</text>
</a>
</g>
</g>
<!-- Node2 -->
<g id="Node000002" class="node">
<title>Node2</title>
<g id="a_Node000002"><a xlink:href="RtypeScene_8hpp.html" target="_top" xlink:title=" ">
<polygon fill="white" stroke="#666666" points="703,-123.5 551,-123.5 551,-82.5 703,-82.5 703,-123.5"/>
<text text-anchor="start" x="559" y="-111.5" font-family="Helvetica,sans-Serif" font-size="10.00">/home/runner/work/R</text>
<text text-anchor="start" x="559" y="-100.5" font-family="Helvetica,sans-Serif" font-size="10.00">&#45;Type/R&#45;Type/Client</text>
<text text-anchor="middle" x="627" y="-89.5" font-family="Helvetica,sans-Serif" font-size="10.00">/src/scenes/RtypeScene.hpp</text>
</a>
</g>
</g>
<!-- Node1&#45;&gt;Node2 -->
<g id="edge1_Node000001_Node000002" class="edge">
<title>Node1&#45;&gt;Node2</title>
<g id="a_edge1_Node000001_Node000002"><a xlink:title=" ">
<path fill="none" stroke="#63b8ff" d="M521.06,-248.57C537.76,-240.39 554.68,-229.95 568,-217 595.45,-190.31 612.74,-148.09 621.07,-123.52"/>
<polygon fill="#63b8ff" stroke="#63b8ff" points="519.4,-245.48 511.82,-252.88 522.36,-251.82 519.4,-245.48"/>
</a>
</g>
</g>
<!-- Node4 -->
<g id="Node000004" class="node">
<title>Node4</title>
<g id="a_Node000004"><a xlink:href="ServerGame_8hpp.html" target="_top" xlink:title=" ">
<polygon fill="white" stroke="#666666" points="140,-211.5 0,-211.5 0,-170.5 140,-170.5 140,-211.5"/>
<text text-anchor="start" x="8" y="-199.5" font-family="Helvetica,sans-Serif" font-size="10.00">/home/runner/work/R</text>
<text text-anchor="start" x="8" y="-188.5" font-family="Helvetica,sans-Serif" font-size="10.00">&#45;Type/R&#45;Type/Server</text>
<text text-anchor="middle" x="70" y="-177.5" font-family="Helvetica,sans-Serif" font-size="10.00">/include/ServerGame.hpp</text>
</a>
</g>
</g>
<!-- Node1&#45;&gt;Node4 -->
<g id="edge3_Node000001_Node000004" class="edge">
<title>Node1&#45;&gt;Node4</title>
<g id="a_edge3_Node000001_Node000004"><a xlink:title=" ">
<path fill="none" stroke="#63b8ff" d="M372.2,-260.5C310.44,-250.74 223.84,-235.57 149,-217 142.44,-215.37 135.62,-213.5 128.87,-211.53"/>
<polygon fill="#63b8ff" stroke="#63b8ff" points="371.86,-263.99 382.28,-262.08 372.94,-257.07 371.86,-263.99"/>
</a>
</g>
</g>
<!-- Node5 -->
<g id="Node000005" class="node">
<title>Node5</title>
<g id="a_Node000005"><a xlink:href="ServerGame_8cpp.html" target="_top" xlink:title=" ">
<polygon fill="white" stroke="#666666" points="342.5,-123.5 223.5,-123.5 223.5,-82.5 342.5,-82.5 342.5,-123.5"/>
<text text-anchor="start" x="231.5" y="-111.5" font-family="Helvetica,sans-Serif" font-size="10.00">/home/runner/work/R</text>
<text text-anchor="start" x="231.5" y="-100.5" font-family="Helvetica,sans-Serif" font-size="10.00">&#45;Type/R&#45;Type/Server</text>
<text text-anchor="middle" x="283" y="-89.5" font-family="Helvetica,sans-Serif" font-size="10.00">/src/ServerGame.cpp</text>
</a>
</g>
</g>
<!-- Node1&#45;&gt;Node5 -->
<g id="edge6_Node000001_Node000005" class="edge">
<title>Node1&#45;&gt;Node5</title>
<g id="a_edge6_Node000001_Node000005"><a xlink:title=" ">
<path fill="none" stroke="#63b8ff" d="M402.32,-247.9C387.37,-239.37 371.69,-228.91 359,-217 351.03,-209.52 314.89,-153.84 295.46,-123.53"/>
<polygon fill="#63b8ff" stroke="#63b8ff" points="401.05,-251.2 411.5,-252.97 404.43,-245.07 401.05,-251.2"/>
</a>
</g>
</g>
<!-- Node7 -->
<g id="Node000007" class="node">
<title>Node7</title>
<g id="a_Node000007"><a xlink:href="MapCollisionSystem_8cpp.html" target="_top" xlink:title=" ">
<polygon fill="white" stroke="#666666" points="533,-129 361,-129 361,-77 533,-77 533,-129"/>
<text text-anchor="start" x="369" y="-117" font-family="Helvetica,sans-Serif" font-size="10.00">/home/runner/work/R</text>
<text text-anchor="start" x="369" y="-106" font-family="Helvetica,sans-Serif" font-size="10.00">&#45;Type/R&#45;Type/Shared</text>
<text text-anchor="start" x="369" y="-95" font-family="Helvetica,sans-Serif" font-size="10.00">/systems/Collision/MapCollision</text>
<text text-anchor="middle" x="447" y="-84" font-family="Helvetica,sans-Serif" font-size="10.00">System.cpp</text>
</a>
</g>
</g>
<!-- Node1&#45;&gt;Node7 -->
<g id="edge7_Node000001_Node000007" class="edge">
<title>Node1&#45;&gt;Node7</title>
<g id="a_edge7_Node000001_Node000007"><a xlink:title=" ">
<path fill="none" stroke="#63b8ff" d="M517.56,-247.81C530.11,-239.91 541.66,-229.79 549,-217 560.5,-196.96 560.4,-185.1 549,-165 540.4,-149.83 526.36,-138.03 511.42,-129.03"/>
<polygon fill="#63b8ff" stroke="#63b8ff" points="515.63,-244.88 508.74,-252.93 519.15,-250.93 515.63,-244.88"/>
</a>
</g>
</g>
<!-- Node8 -->
<g id="Node000008" class="node">
<title>Node8</title>
<g id="a_Node000008"><a xlink:href="MapCollisionSystem_8hpp.html" target="_top" xlink:title=" ">
<polygon fill="white" stroke="#666666" points="540,-217 368,-217 368,-165 540,-165 540,-217"/>
<text text-anchor="start" x="376" y="-205" font-family="Helvetica,sans-Serif" font-size="10.00">/home/runner/work/R</text>
<text text-anchor="start" x="376" y="-194" font-family="Helvetica,sans-Serif" font-size="10.00">&#45;Type/R&#45;Type/Shared</text>
<text text-anchor="start" x="376" y="-183" font-family="Helvetica,sans-Serif" font-size="10.00">/systems/Collision/MapCollision</text>
<text text-anchor="middle" x="454" y="-172" font-family="Helvetica,sans-Serif" font-size="10.00">System.hpp</text>
</a>
</g>
</g>
<!-- Node1&#45;&gt;Node8 -->
<g id="edge8_Node000001_Node000008" class="edge">
<title>Node1&#45;&gt;Node8</title>
<g id="a_edge8_Node000001_Node000008"><a xlink:title=" ">
<path fill="none" stroke="#63b8ff" d="M454,-242.49C454,-234.15 454,-225.19 454,-217.16"/>
<polygon fill="#63b8ff" stroke="#63b8ff" points="450.5,-242.6 454,-252.6 457.5,-242.6 450.5,-242.6"/>
</a>
</g>
</g>
<!-- Node9 -->
<g id="Node000009" class="node">
<title>Node9</title>
<g id="a_Node000009"><a xlink:href="EntityHelper_8hpp.html" target="_top" xlink:title=" ">
<polygon fill="white" stroke="#666666" points="2138.5,-211.5 1953.5,-211.5 1953.5,-170.5 2138.5,-170.5 2138.5,-211.5"/>
<text text-anchor="start" x="1961.5" y="-199.5" font-family="Helvetica,sans-Serif" font-size="10.00">/home/runner/work/R</text>
<text text-anchor="start" x="1961.5" y="-188.5" font-family="Helvetica,sans-Serif" font-size="10.00">&#45;Type/R&#45;Type/Shared</text>
<text text-anchor="middle" x="2046" y="-177.5" font-family="Helvetica,sans-Serif" font-size="10.00">/systems/Helpers/EntityHelper.hpp</text>
</a>
</g>
</g>
<!-- Node1&#45;&gt;Node9 -->
<g id="edge11_Node000001_Node000009" class="edge">
<title>Node1&#45;&gt;Node9</title>
<g id="a_edge11_Node000001_Node000009"><a xlink:title=" ">
<path fill="none" stroke="#63b8ff" d="M535.88,-268.36C806.04,-254.7 1668.04,-211.11 1953.33,-196.69"/>
<polygon fill="#63b8ff" stroke="#63b8ff" points="535.57,-264.87 525.76,-268.87 535.92,-271.86 535.57,-264.87"/>
</a>
</g>
</g>
<!-- Node41 -->
<g id="Node000041" class="node">
<title>Node41</title>
<g id="a_Node000041"><a xlink:href="MapGenerator_8hpp.html" target="_top" xlink:title=" ">
<polygon fill="white" stroke="#666666" points="312,-211.5 158,-211.5 158,-170.5 312,-170.5 312,-211.5"/>
<text text-anchor="start" x="166" y="-199.5" font-family="Helvetica,sans-Serif" font-size="10.00">/home/runner/work/R</text>
<text text-anchor="start" x="166" y="-188.5" font-family="Helvetica,sans-Serif" font-size="10.00">&#45;Type/R&#45;Type/Shared</text>
<text text-anchor="middle" x="235" y="-177.5" font-family="Helvetica,sans-Serif" font-size="10.00">/systems/MapGenerator.hpp</text>
</a>
</g>
</g>
<!-- Node1&#45;&gt;Node41 -->
<g id="edge45_Node000001_Node000041" class="edge">
<title>Node1&#45;&gt;Node41</title>
<g id="a_edge45_Node000001_Node000041"><a xlink:title=" ">
<path fill="none" stroke="#63b8ff" d="M391.26,-249.44C358.66,-237.45 319.24,-222.97 288.15,-211.54"/>
<polygon fill="#63b8ff" stroke="#63b8ff" points="390.11,-252.75 400.71,-252.91 392.53,-246.18 390.11,-252.75"/>
</a>
</g>
</g>
<!-- Node3 -->
<g id="Node000003" class="node">
<title>Node3</title>
<g id="a_Node000003"><a xlink:href="RtypeScene_8cpp.html" target="_top" xlink:title=" ">
<polygon fill="white" stroke="#666666" points="703,-41 551,-41 551,0 703,0 703,-41"/>
<text text-anchor="start" x="559" y="-29" font-family="Helvetica,sans-Serif" font-size="10.00">/home/runner/work/R</text>
<text text-anchor="start" x="559" y="-18" font-family="Helvetica,sans-Serif" font-size="10.00">&#45;Type/R&#45;Type/Client</text>
<text text-anchor="middle" x="627" y="-7" font-family="Helvetica,sans-Serif" font-size="10.00">/src/scenes/RtypeScene.cpp</text>
</a>
</g>
</g>
<!-- Node2&#45;&gt;Node3 -->
<g id="edge2_Node000002_Node000003" class="edge">
<title>Node2&#45;&gt;Node3</title>
<g id="a_edge2_Node000002_Node000003"><a xlink:title=" ">
<path fill="none" stroke="#63b8ff" d="M627,-71.87C627,-61.6 627,-50.4 627,-41.17"/>
<polygon fill="#63b8ff" stroke="#63b8ff" points="623.5,-72.1 627,-82.1 630.5,-72.1 623.5,-72.1"/>
</a>
</g>
</g>
<!-- Node4&#45;&gt;Node5 -->
<g id="edge4_Node000004_Node000005" class="edge">
<title>Node4&#45;&gt;Node5</title>
<g id="a_edge4_Node000004_Node000005"><a xlink:title=" ">
<path fill="none" stroke="#63b8ff" d="M127.97,-166.6C161.35,-153.12 202.84,-136.37 234.49,-123.59"/>
<polygon fill="#63b8ff" stroke="#63b8ff" points="126.3,-163.5 118.33,-170.49 128.92,-169.99 126.3,-163.5"/>
</a>
</g>
</g>
<!-- Node6 -->
<g id="Node000006" class="node">
<title>Node6</title>
<g id="a_Node000006"><a xlink:href="main_8cpp.html" target="_top" xlink:title=" ">
<polygon fill="white" stroke="#666666" points="129.5,-123.5 10.5,-123.5 10.5,-82.5 129.5,-82.5 129.5,-123.5"/>
<text text-anchor="start" x="18.5" y="-111.5" font-family="Helvetica,sans-Serif" font-size="10.00">/home/runner/work/R</text>
<text text-anchor="start" x="18.5" y="-100.5" font-family="Helvetica,sans-Serif" font-size="10.00">&#45;Type/R&#45;Type/Server</text>
<text text-anchor="middle" x="70" y="-89.5" font-family="Helvetica,sans-Serif" font-size="10.00">/src/main.cpp</text>
</a>
</g>
</g>
<!-- Node4&#45;&gt;Node6 -->
<g id="edge5_Node000004_Node000006" class="edge">
<title>Node4&#45;&gt;Node6</title>
<g id="a_edge5_Node000004_Node000006"><a xlink:title=" ">
<path fill="none" stroke="#63b8ff" d="M70,-160.36C70,-148.26 70,-134.58 70,-123.74"/>
<polygon fill="#63b8ff" stroke="#63b8ff" points="66.5,-160.49 70,-170.49 73.5,-160.49 66.5,-160.49"/>
</a>
</g>
</g>
<!-- Node8&#45;&gt;Node5 -->
<g id="edge9_Node000008_Node000005" class="edge">
<title>Node8&#45;&gt;Node5</title>
<g id="a_edge9_Node000008_Node000005"><a xlink:title=" ">
<path fill="none" stroke="#63b8ff" d="M394.98,-160.32C370.78,-148.15 343.44,-134.4 321.83,-123.53"/>
<polygon fill="#63b8ff" stroke="#63b8ff" points="393.57,-163.53 404.08,-164.89 396.72,-157.27 393.57,-163.53"/>
</a>
</g>
</g>
<!-- Node8&#45;&gt;Node7 -->
<g id="edge10_Node000008_Node000007" class="edge">
<title>Node8&#45;&gt;Node7</title>
<g id="a_edge10_Node000008_Node000007"><a xlink:title=" ">
<path fill="none" stroke="#63b8ff" d="M451.12,-154.56C450.42,-146.04 449.69,-137.1 449.05,-129.16"/>
<polygon fill="#63b8ff" stroke="#63b8ff" points="447.64,-154.98 451.94,-164.66 454.61,-154.41 447.64,-154.98"/>
</a>
</g>
</g>
<!-- Node9&#45;&gt;Node2 -->
<g id="edge34_Node000009_Node000002" class="edge">
<title>Node9&#45;&gt;Node2</title>
<g id="a_edge34_Node000009_Node000002"><a xlink:title=" ">
<path fill="none" stroke="#63b8ff" d="M1942.99,-188.49C1672.81,-184.01 948.34,-168.57 712,-129 703.81,-127.63 695.29,-125.72 686.95,-123.57"/>
<polygon fill="#63b8ff" stroke="#63b8ff" points="1943.13,-191.99 1953.19,-188.65 1943.25,-184.99 1943.13,-191.99"/>
</a>
</g>
</g>
<!-- Node9&#45;&gt;Node5 -->
<g id="edge39_Node000009_Node000005" class="edge">
<title>Node9&#45;&gt;Node5</title>
<g id="a_edge39_Node000009_Node000005"><a xlink:title=" ">
<path fill="none" stroke="#63b8ff" d="M1943.33,-190.48C1625.26,-191.29 659.22,-188.66 352,-129 345.12,-127.66 338.01,-125.75 331.09,-123.56"/>
<polygon fill="#63b8ff" stroke="#63b8ff" points="1943.47,-193.98 1953.46,-190.45 1943.45,-186.98 1943.47,-193.98"/>
</a>
</g>
</g>
<!-- Node10 -->
<g id="Node000010" class="node">
<title>Node10</title>
<g id="a_Node000010"><a xlink:href="CreateLobby_8hpp.html" target="_top" xlink:title=" ">
<polygon fill="white" stroke="#666666" points="1954.5,-123.5 1799.5,-123.5 1799.5,-82.5 1954.5,-82.5 1954.5,-123.5"/>
<text text-anchor="start" x="1807.5" y="-111.5" font-family="Helvetica,sans-Serif" font-size="10.00">/home/runner/work/R</text>
<text text-anchor="start" x="1807.5" y="-100.5" font-family="Helvetica,sans-Serif" font-size="10.00">&#45;Type/R&#45;Type/Client</text>
<text text-anchor="middle" x="1877" y="-89.5" font-family="Helvetica,sans-Serif" font-size="10.00">/src/scenes/CreateLobby.hpp</text>
</a>
</g>
</g>
<!-- Node9&#45;&gt;Node10 -->
<g id="edge12_Node000009_Node000010" class="edge">
<title>Node9&#45;&gt;Node10</title>
<g id="a_edge12_Node000009_Node000010"><a xlink:title=" ">
<path fill="none" stroke="#63b8ff" d="M1998.64,-165.9C1972.39,-152.54 1940.17,-136.15 1915.49,-123.59"/>
<polygon fill="#63b8ff" stroke="#63b8ff" points="1997.15,-169.07 2007.65,-170.49 2000.33,-162.83 1997.15,-169.07"/>
</a>
</g>
</g>
<!-- Node12 -->
<g id="Node000012" class="node">
<title>Node12</title>
<g id="a_Node000012"><a xlink:href="GameOver_8hpp.html" target="_top" xlink:title=" ">
<polygon fill="white" stroke="#666666" points="2119,-123.5 1973,-123.5 1973,-82.5 2119,-82.5 2119,-123.5"/>
<text text-anchor="start" x="1981" y="-111.5" font-family="Helvetica,sans-Serif" font-size="10.00">/home/runner/work/R</text>
<text text-anchor="start" x="1981" y="-100.5" font-family="Helvetica,sans-Serif" font-size="10.00">&#45;Type/R&#45;Type/Client</text>
<text text-anchor="middle" x="2046" y="-89.5" font-family="Helvetica,sans-Serif" font-size="10.00">/src/scenes/GameOver.hpp</text>
</a>
</g>
</g>
<!-- Node9&#45;&gt;Node12 -->
<g id="edge14_Node000009_Node000012" class="edge">
<title>Node9&#45;&gt;Node12</title>
<g id="a_edge14_Node000009_Node000012"><a xlink:title=" ">
<path fill="none" stroke="#63b8ff" d="M2046,-160.36C2046,-148.26 2046,-134.58 2046,-123.74"/>
<polygon fill="#63b8ff" stroke="#63b8ff" points="2042.5,-160.49 2046,-170.49 2049.5,-160.49 2042.5,-160.49"/>
</a>
</g>
</g>
<!-- Node14 -->
<g id="Node000014" class="node">
<title>Node14</title>
<g id="a_Node000014"><a xlink:href="JoinGame_8hpp.html" target="_top" xlink:title=" ">
<polygon fill="white" stroke="#666666" points="2279,-123.5 2137,-123.5 2137,-82.5 2279,-82.5 2279,-123.5"/>
<text text-anchor="start" x="2145" y="-111.5" font-family="Helvetica,sans-Serif" font-size="10.00">/home/runner/work/R</text>
<text text-anchor="start" x="2145" y="-100.5" font-family="Helvetica,sans-Serif" font-size="10.00">&#45;Type/R&#45;Type/Client</text>
<text text-anchor="middle" x="2208" y="-89.5" font-family="Helvetica,sans-Serif" font-size="10.00">/src/scenes/JoinGame.hpp</text>
</a>
</g>
</g>
<!-- Node9&#45;&gt;Node14 -->
<g id="edge16_Node000009_Node000014" class="edge">
<title>Node9&#45;&gt;Node14</title>
<g id="a_edge16_Node000009_Node000014"><a xlink:title=" ">
<path fill="none" stroke="#63b8ff" d="M2091.73,-165.72C2116.83,-152.4 2147.55,-136.09 2171.11,-123.59"/>
<polygon fill="#63b8ff" stroke="#63b8ff" points="2089.95,-162.7 2082.76,-170.49 2093.23,-168.89 2089.95,-162.7"/>
</a>
</g>
</g>
<!-- Node16 -->
<g id="Node000016" class="node">
<title>Node16</title>
<g id="a_Node000016"><a xlink:href="LevelScene_8hpp.html" target="_top" xlink:title=" ">
<polygon fill="white" stroke="#666666" points="2447,-123.5 2297,-123.5 2297,-82.5 2447,-82.5 2447,-123.5"/>
<text text-anchor="start" x="2305" y="-111.5" font-family="Helvetica,sans-Serif" font-size="10.00">/home/runner/work/R</text>
<text text-anchor="start" x="2305" y="-100.5" font-family="Helvetica,sans-Serif" font-size="10.00">&#45;Type/R&#45;Type/Client</text>
<text text-anchor="middle" x="2372" y="-89.5" font-family="Helvetica,sans-Serif" font-size="10.00">/src/scenes/LevelScene.hpp</text>
</a>
</g>
</g>
<!-- Node9&#45;&gt;Node16 -->
<g id="edge18_Node000009_Node000016" class="edge">
<title>Node9&#45;&gt;Node16</title>
<g id="a_edge18_Node000009_Node000016"><a xlink:title=" ">
<path fill="none" stroke="#63b8ff" d="M2137,-168.03C2182.48,-156.8 2238.27,-142.66 2288,-129 2294.31,-127.27 2300.87,-125.41 2307.42,-123.52"/>
<polygon fill="#63b8ff" stroke="#63b8ff" points="2136.04,-164.66 2127.17,-170.45 2137.71,-171.46 2136.04,-164.66"/>
</a>
</g>
</g>
<!-- Node18 -->
<g id="Node000018" class="node">
<title>Node18</title>
<g id="a_Node000018"><a xlink:href="Lobby_8hpp.html" target="_top" xlink:title=" ">
<polygon fill="white" stroke="#666666" points="2587,-123.5 2465,-123.5 2465,-82.5 2587,-82.5 2587,-123.5"/>
<text text-anchor="start" x="2473" y="-111.5" font-family="Helvetica,sans-Serif" font-size="10.00">/home/runner/work/R</text>
<text text-anchor="start" x="2473" y="-100.5" font-family="Helvetica,sans-Serif" font-size="10.00">&#45;Type/R&#45;Type/Client</text>
<text text-anchor="middle" x="2526" y="-89.5" font-family="Helvetica,sans-Serif" font-size="10.00">/src/scenes/Lobby.hpp</text>
</a>
</g>
</g>
<!-- Node9&#45;&gt;Node18 -->
<g id="edge20_Node000009_Node000018" class="edge">
<title>Node9&#45;&gt;Node18</title>
<g id="a_edge20_Node000009_Node000018"><a xlink:title=" ">
<path fill="none" stroke="#63b8ff" d="M2148.61,-180.36C2232.21,-171.16 2352.86,-154.83 2456,-129 2462.13,-127.46 2468.48,-125.6 2474.74,-123.59"/>
<polygon fill="#63b8ff" stroke="#63b8ff" points="2148.17,-176.88 2138.61,-181.44 2148.93,-183.84 2148.17,-176.88"/>
</a>
</g>
</g>
<!-- Node20 -->
<g id="Node000020" class="node">
<title>Node20</title>
<g id="a_Node000020"><a xlink:href="LobbyInfo_8hpp.html" target="_top" xlink:title=" ">
<polygon fill="white" stroke="#666666" points="2748.5,-123.5 2605.5,-123.5 2605.5,-82.5 2748.5,-82.5 2748.5,-123.5"/>
<text text-anchor="start" x="2613.5" y="-111.5" font-family="Helvetica,sans-Serif" font-size="10.00">/home/runner/work/R</text>
<text text-anchor="start" x="2613.5" y="-100.5" font-family="Helvetica,sans-Serif" font-size="10.00">&#45;Type/R&#45;Type/Client</text>
<text text-anchor="middle" x="2677" y="-89.5" font-family="Helvetica,sans-Serif" font-size="10.00">/src/scenes/LobbyInfo.hpp</text>
</a>
</g>
</g>
<!-- Node9&#45;&gt;Node20 -->
<g id="edge22_Node000009_Node000020" class="edge">
<title>Node9&#45;&gt;Node20</title>
<g id="a_edge22_Node000009_Node000020"><a xlink:title=" ">
<path fill="none" stroke="#63b8ff" d="M2149,-184.4C2260.2,-177.01 2442.08,-160.99 2596,-129 2603.2,-127.5 2610.68,-125.64 2618.06,-123.6"/>
<polygon fill="#63b8ff" stroke="#63b8ff" points="2148.55,-180.92 2138.8,-185.07 2149.01,-187.91 2148.55,-180.92"/>
</a>
</g>
</g>
<!-- Node22 -->
<g id="Node000022" class="node">
<title>Node22</title>
<g id="a_Node000022"><a xlink:href="LobbyJoin_8hpp.html" target="_top" xlink:title=" ">
<polygon fill="white" stroke="#666666" points="2909,-123.5 2767,-123.5 2767,-82.5 2909,-82.5 2909,-123.5"/>
<text text-anchor="start" x="2775" y="-111.5" font-family="Helvetica,sans-Serif" font-size="10.00">/home/runner/work/R</text>
<text text-anchor="start" x="2775" y="-100.5" font-family="Helvetica,sans-Serif" font-size="10.00">&#45;Type/R&#45;Type/Client</text>
<text text-anchor="middle" x="2838" y="-89.5" font-family="Helvetica,sans-Serif" font-size="10.00">/src/scenes/LobbyJoin.hpp</text>
</a>
</g>
</g>
<!-- Node9&#45;&gt;Node22 -->
<g id="edge24_Node000009_Node000022" class="edge">
<title>Node9&#45;&gt;Node22</title>
<g id="a_edge24_Node000009_Node000022"><a xlink:title=" ">
<path fill="none" stroke="#63b8ff" d="M2149.02,-188.18C2288.36,-184.12 2544.08,-171.07 2758,-129 2765.42,-127.54 2773.13,-125.64 2780.71,-123.54"/>
<polygon fill="#63b8ff" stroke="#63b8ff" points="2148.67,-184.68 2138.78,-188.46 2148.87,-191.68 2148.67,-184.68"/>
</a>
</g>
</g>
<!-- Node24 -->
<g id="Node000024" class="node">
<title>Node24</title>
<g id="a_Node000024"><a xlink:href="LobbyPassword_8hpp.html" target="_top" xlink:title=" ">
<polygon fill="white" stroke="#666666" points="3097,-123.5 2927,-123.5 2927,-82.5 3097,-82.5 3097,-123.5"/>
<text text-anchor="start" x="2935" y="-111.5" font-family="Helvetica,sans-Serif" font-size="10.00">/home/runner/work/R</text>
<text text-anchor="start" x="2935" y="-100.5" font-family="Helvetica,sans-Serif" font-size="10.00">&#45;Type/R&#45;Type/Client</text>
<text text-anchor="middle" x="3012" y="-89.5" font-family="Helvetica,sans-Serif" font-size="10.00">/src/scenes/LobbyPassword.hpp</text>
</a>
</g>
</g>
<!-- Node9&#45;&gt;Node24 -->
<g id="edge26_Node000009_Node000024" class="edge">
<title>Node9&#45;&gt;Node24</title>
<g id="a_edge26_Node000009_Node000024"><a xlink:title=" ">
<path fill="none" stroke="#63b8ff" d="M2148.71,-189.12C2312.5,-186.3 2642.52,-174.84 2918,-129 2926.75,-127.54 2935.86,-125.63 2944.82,-123.52"/>
<polygon fill="#63b8ff" stroke="#63b8ff" points="2148.58,-185.62 2138.64,-189.28 2148.69,-192.62 2148.58,-185.62"/>
</a>
</g>
</g>
<!-- Node26 -->
<g id="Node000026" class="node">
<title>Node26</title>
<g id="a_Node000026"><a xlink:href="MainGame_8hpp.html" target="_top" xlink:title=" ">
<polygon fill="white" stroke="#666666" points="3263,-123.5 3115,-123.5 3115,-82.5 3263,-82.5 3263,-123.5"/>
<text text-anchor="start" x="3123" y="-111.5" font-family="Helvetica,sans-Serif" font-size="10.00">/home/runner/work/R</text>
<text text-anchor="start" x="3123" y="-100.5" font-family="Helvetica,sans-Serif" font-size="10.00">&#45;Type/R&#45;Type/Client</text>
<text text-anchor="middle" x="3189" y="-89.5" font-family="Helvetica,sans-Serif" font-size="10.00">/src/scenes/MainGame.hpp</text>
</a>
</g>
</g>
<!-- Node9&#45;&gt;Node26 -->
<g id="edge28_Node000009_Node000026" class="edge">
<title>Node9&#45;&gt;Node26</title>
<g id="a_edge28_Node000009_Node000026"><a xlink:title=" ">
<path fill="none" stroke="#63b8ff" d="M2148.9,-187.16C2378,-180.33 2924.21,-161.15 3106,-129 3113.85,-127.61 3122.01,-125.73 3130.02,-123.61"/>
<polygon fill="#63b8ff" stroke="#63b8ff" points="2148.46,-183.67 2138.56,-187.46 2148.66,-190.67 2148.46,-183.67"/>
</a>
</g>
</g>
<!-- Node28 -->
<g id="Node000028" class="node">
<title>Node28</title>
<g id="a_Node000028"><a xlink:href="MainMenu_8hpp.html" target="_top" xlink:title=" ">
<polygon fill="white" stroke="#666666" points="3427,-123.5 3281,-123.5 3281,-82.5 3427,-82.5 3427,-123.5"/>
<text text-anchor="start" x="3289" y="-111.5" font-family="Helvetica,sans-Serif" font-size="10.00">/home/runner/work/R</text>
<text text-anchor="start" x="3289" y="-100.5" font-family="Helvetica,sans-Serif" font-size="10.00">&#45;Type/R&#45;Type/Client</text>
<text text-anchor="middle" x="3354" y="-89.5" font-family="Helvetica,sans-Serif" font-size="10.00">/src/scenes/MainMenu.hpp</text>
</a>
</g>
</g>
<!-- Node9&#45;&gt;Node28 -->
<g id="edge30_Node000009_Node000028" class="edge">
<title>Node9&#45;&gt;Node28</title>
<g id="a_edge30_Node000009_Node000028"><a xlink:title=" ">
<path fill="none" stroke="#63b8ff" d="M2149.14,-188.13C2403.82,-182.99 3057.43,-166.46 3272,-129 3279.92,-127.62 3288.14,-125.71 3296.19,-123.55"/>
<polygon fill="#63b8ff" stroke="#63b8ff" points="2148.71,-184.64 2138.78,-188.34 2148.85,-191.64 2148.71,-184.64"/>
</a>
</g>
</g>
<!-- Node30 -->
<g id="Node000030" class="node">
<title>Node30</title>
<g id="a_Node000030"><a xlink:href="Options_8hpp.html" target="_top" xlink:title=" ">
<polygon fill="white" stroke="#666666" points="3577,-123.5 3445,-123.5 3445,-82.5 3577,-82.5 3577,-123.5"/>
<text text-anchor="start" x="3453" y="-111.5" font-family="Helvetica,sans-Serif" font-size="10.00">/home/runner/work/R</text>
<text text-anchor="start" x="3453" y="-100.5" font-family="Helvetica,sans-Serif" font-size="10.00">&#45;Type/R&#45;Type/Client</text>
<text text-anchor="middle" x="3511" y="-89.5" font-family="Helvetica,sans-Serif" font-size="10.00">/src/scenes/Options.hpp</text>
</a>
</g>
</g>
<!-- Node9&#45;&gt;Node30 -->
<g id="edge32_Node000009_Node000030" class="edge">
<title>Node9&#45;&gt;Node30</title>
<g id="a_edge32_Node000009_Node000030"><a xlink:title=" ">
<path fill="none" stroke="#63b8ff" d="M2149,-189.18C2427.16,-186.37 3189.2,-174.63 3436,-129 3443.29,-127.65 3450.84,-125.76 3458.22,-123.62"/>
<polygon fill="#63b8ff" stroke="#63b8ff" points="2148.87,-185.68 2138.91,-189.28 2148.94,-192.68 2148.87,-185.68"/>
</a>
</g>
</g>
<!-- Node32 -->
<g id="Node000032" class="node">
<title>Node32</title>
<g id="a_Node000032"><a xlink:href="Victory_8hpp.html" target="_top" xlink:title=" ">
<polygon fill="white" stroke="#666666" points="3723,-123.5 3595,-123.5 3595,-82.5 3723,-82.5 3723,-123.5"/>
<text text-anchor="start" x="3603" y="-111.5" font-family="Helvetica,sans-Serif" font-size="10.00">/home/runner/work/R</text>
<text text-anchor="start" x="3603" y="-100.5" font-family="Helvetica,sans-Serif" font-size="10.00">&#45;Type/R&#45;Type/Client</text>
<text text-anchor="middle" x="3659" y="-89.5" font-family="Helvetica,sans-Serif" font-size="10.00">/src/scenes/Victory.hpp</text>
</a>
</g>
</g>
<!-- Node9&#45;&gt;Node32 -->
<g id="edge35_Node000009_Node000032" class="edge">
<title>Node9&#45;&gt;Node32</title>
<g id="a_edge35_Node000009_Node000032"><a xlink:title=" ">
<path fill="none" stroke="#63b8ff" d="M2148.93,-189.81C2447.35,-188.63 3309.33,-180.71 3586,-129 3593.24,-127.65 3600.74,-125.72 3608.06,-123.53"/>
<polygon fill="#63b8ff" stroke="#63b8ff" points="2148.54,-186.31 2138.55,-189.84 2148.56,-193.31 2148.54,-186.31"/>
</a>
</g>
</g>
<!-- Node34 -->
<g id="Node000034" class="node">
<title>Node34</title>
<g id="a_Node000034"><a xlink:href="WaitLobby_8hpp.html" target="_top" xlink:title=" ">
<polygon fill="white" stroke="#666666" points="865,-123.5 721,-123.5 721,-82.5 865,-82.5 865,-123.5"/>
<text text-anchor="start" x="729" y="-111.5" font-family="Helvetica,sans-Serif" font-size="10.00">/home/runner/work/R</text>
<text text-anchor="start" x="729" y="-100.5" font-family="Helvetica,sans-Serif" font-size="10.00">&#45;Type/R&#45;Type/Client</text>
<text text-anchor="middle" x="793" y="-89.5" font-family="Helvetica,sans-Serif" font-size="10.00">/src/scenes/WaitLobby.hpp</text>
</a>
</g>
</g>
<!-- Node9&#45;&gt;Node34 -->
<g id="edge37_Node000009_Node000034" class="edge">
<title>Node9&#45;&gt;Node34</title>
<g id="a_edge37_Node000009_Node000034"><a xlink:title=" ">
<path fill="none" stroke="#63b8ff" d="M1943.4,-187.91C1697.13,-182.38 1077.93,-165.2 874,-129 866.18,-127.61 858.05,-125.7 850.09,-123.54"/>
<polygon fill="#63b8ff" stroke="#63b8ff" points="1943.35,-191.41 1953.42,-188.14 1943.5,-184.41 1943.35,-191.41"/>
</a>
</g>
</g>
<!-- Node36 -->
<g id="Node000036" class="node">
<title>Node36</title>
<g id="a_Node000036"><a xlink:href="ChargedShoot_8cpp.html" target="_top" xlink:title=" ">
<polygon fill="white" stroke="#666666" points="1035,-123.5 883,-123.5 883,-82.5 1035,-82.5 1035,-123.5"/>
<text text-anchor="start" x="891" y="-111.5" font-family="Helvetica,sans-Serif" font-size="10.00">/home/runner/work/R</text>
<text text-anchor="start" x="891" y="-100.5" font-family="Helvetica,sans-Serif" font-size="10.00">&#45;Type/R&#45;Type/Shared</text>
<text text-anchor="middle" x="959" y="-89.5" font-family="Helvetica,sans-Serif" font-size="10.00">/systems/ChargedShoot.cpp</text>
</a>
</g>
</g>
<!-- Node9&#45;&gt;Node36 -->
<g id="edge40_Node000009_Node000036" class="edge">
<title>Node9&#45;&gt;Node36</title>
<g id="a_edge40_Node000009_Node000036"><a xlink:title=" ">
<path fill="none" stroke="#63b8ff" d="M1943.17,-186.68C1723.47,-179.1 1214.46,-158.86 1044,-129 1035.97,-127.59 1027.62,-125.7 1019.43,-123.58"/>
<polygon fill="#63b8ff" stroke="#63b8ff" points="1943.29,-190.19 1953.41,-187.03 1943.53,-183.19 1943.29,-190.19"/>
</a>
</g>
</g>
<!-- Node37 -->
<g id="Node000037" class="node">
<title>Node37</title>
<g id="a_Node000037"><a xlink:href="LevelSystem_8cpp.html" target="_top" xlink:title=" ">
<polygon fill="white" stroke="#666666" points="1200.5,-123.5 1053.5,-123.5 1053.5,-82.5 1200.5,-82.5 1200.5,-123.5"/>
<text text-anchor="start" x="1061.5" y="-111.5" font-family="Helvetica,sans-Serif" font-size="10.00">/home/runner/work/R</text>
<text text-anchor="start" x="1061.5" y="-100.5" font-family="Helvetica,sans-Serif" font-size="10.00">&#45;Type/R&#45;Type/Shared</text>
<text text-anchor="middle" x="1127" y="-89.5" font-family="Helvetica,sans-Serif" font-size="10.00">/systems/LevelSystem.cpp</text>
</a>
</g>
</g>
<!-- Node9&#45;&gt;Node37 -->
<g id="edge41_Node000009_Node000037" class="edge">
<title>Node9&#45;&gt;Node37</title>
<g id="a_edge41_Node000009_Node000037"><a xlink:title=" ">
<path fill="none" stroke="#63b8ff" d="M1943.08,-189.73C1784.39,-187.69 1470.98,-177.22 1210,-129 1202.3,-127.58 1194.31,-125.7 1186.46,-123.62"/>
<polygon fill="#63b8ff" stroke="#63b8ff" points="1943.27,-193.23 1953.31,-189.85 1943.35,-186.23 1943.27,-193.23"/>
</a>
</g>
</g>
<!-- Node38 -->
<g id="Node000038" class="node">
<title>Node38</title>
<g id="a_Node000038"><a xlink:href="Movement_8cpp.html" target="_top" xlink:title=" ">
<polygon fill="white" stroke="#666666" points="1411,-123.5 1219,-123.5 1219,-82.5 1411,-82.5 1411,-123.5"/>
<text text-anchor="start" x="1227" y="-111.5" font-family="Helvetica,sans-Serif" font-size="10.00">/home/runner/work/R</text>
<text text-anchor="start" x="1227" y="-100.5" font-family="Helvetica,sans-Serif" font-size="10.00">&#45;Type/R&#45;Type/Shared</text>
<text text-anchor="middle" x="1315" y="-89.5" font-family="Helvetica,sans-Serif" font-size="10.00">/systems/Movement/Movement.cpp</text>
</a>
</g>
</g>
<!-- Node9&#45;&gt;Node38 -->
<g id="edge42_Node000009_Node000038" class="edge">
<title>Node9&#45;&gt;Node38</title>
<g id="a_edge42_Node000009_Node000038"><a xlink:title=" ">
<path fill="none" stroke="#63b8ff" d="M1943.19,-184.3C1818.69,-176.41 1602.94,-159.54 1420,-129 1410.76,-127.46 1401.12,-125.56 1391.6,-123.51"/>
<polygon fill="#63b8ff" stroke="#63b8ff" points="1943.27,-187.81 1953.47,-184.95 1943.71,-180.83 1943.27,-187.81"/>
</a>
</g>
</g>
<!-- Node39 -->
<g id="Node000039" class="node">
<title>Node39</title>
<g id="a_Node000039"><a xlink:href="Spawn_8cpp.html" target="_top" xlink:title=" ">
<polygon fill="white" stroke="#666666" points="1614.5,-123.5 1429.5,-123.5 1429.5,-82.5 1614.5,-82.5 1614.5,-123.5"/>
<text text-anchor="start" x="1437.5" y="-111.5" font-family="Helvetica,sans-Serif" font-size="10.00">/home/runner/work/R</text>
<text text-anchor="start" x="1437.5" y="-100.5" font-family="Helvetica,sans-Serif" font-size="10.00">&#45;Type/R&#45;Type/Shared</text>
<text text-anchor="middle" x="1522" y="-89.5" font-family="Helvetica,sans-Serif" font-size="10.00">/systems/SpawnEnemy/Spawn.cpp</text>
</a>
</g>
</g>
<!-- Node9&#45;&gt;Node39 -->
<g id="edge43_Node000009_Node000039" class="edge">
<title>Node9&#45;&gt;Node39</title>
<g id="a_edge43_Node000009_Node000039"><a xlink:title=" ">
<path fill="none" stroke="#63b8ff" d="M1943.37,-177.99C1857.63,-167.28 1732.34,-150.06 1624,-129 1615.59,-127.37 1606.83,-125.49 1598.13,-123.51"/>
<polygon fill="#63b8ff" stroke="#63b8ff" points="1943.01,-181.47 1953.37,-179.23 1943.87,-174.52 1943.01,-181.47"/>
</a>
</g>
</g>
<!-- Node40 -->
<g id="Node000040" class="node">
<title>Node40</title>
<g id="a_Node000040"><a xlink:href="WaveSystem_8cpp.html" target="_top" xlink:title=" ">
<polygon fill="white" stroke="#666666" points="1781,-123.5 1633,-123.5 1633,-82.5 1781,-82.5 1781,-123.5"/>
<text text-anchor="start" x="1641" y="-111.5" font-family="Helvetica,sans-Serif" font-size="10.00">/home/runner/work/R</text>
<text text-anchor="start" x="1641" y="-100.5" font-family="Helvetica,sans-Serif" font-size="10.00">&#45;Type/R&#45;Type/Shared</text>
<text text-anchor="middle" x="1707" y="-89.5" font-family="Helvetica,sans-Serif" font-size="10.00">/systems/WaveSystem.cpp</text>
</a>
</g>
</g>
<!-- Node9&#45;&gt;Node40 -->
<g id="edge44_Node000009_Node000040" class="edge">
<title>Node9&#45;&gt;Node40</title>
<g id="a_edge44_Node000009_Node000040"><a xlink:title=" ">
<path fill="none" stroke="#63b8ff" d="M1948.55,-168.19C1900.62,-157.11 1842.11,-143.04 1790,-129 1783.75,-127.32 1777.26,-125.49 1770.79,-123.62"/>
<polygon fill="#63b8ff" stroke="#63b8ff" points="1947.77,-171.61 1958.3,-170.44 1949.34,-164.78 1947.77,-171.61"/>
</a>
</g>
</g>
<!-- Node11 -->
<g id="Node000011" class="node">
<title>Node11</title>
<g id="a_Node000011"><a xlink:href="CreateLobby_8cpp.html" target="_top" xlink:title=" ">
<polygon fill="white" stroke="#666666" points="1954,-41 1800,-41 1800,0 1954,0 1954,-41"/>
<text text-anchor="start" x="1808" y="-29" font-family="Helvetica,sans-Serif" font-size="10.00">/home/runner/work/R</text>
<text text-anchor="start" x="1808" y="-18" font-family="Helvetica,sans-Serif" font-size="10.00">&#45;Type/R&#45;Type/Client</text>
<text text-anchor="middle" x="1877" y="-7" font-family="Helvetica,sans-Serif" font-size="10.00">/src/scenes/CreateLobby.cpp</text>
</a>
</g>
</g>
<!-- Node10&#45;&gt;Node11 -->
<g id="edge13_Node000010_Node000011" class="edge">
<title>Node10&#45;&gt;Node11</title>
<g id="a_edge13_Node000010_Node000011"><a xlink:title=" ">
<path fill="none" stroke="#63b8ff" d="M1877,-71.87C1877,-61.6 1877,-50.4 1877,-41.17"/>
<polygon fill="#63b8ff" stroke="#63b8ff" points="1873.5,-72.1 1877,-82.1 1880.5,-72.1 1873.5,-72.1"/>
</a>
</g>
</g>
<!-- Node13 -->
<g id="Node000013" class="node">
<title>Node13</title>
<g id="a_Node000013"><a xlink:href="GameOver_8cpp.html" target="_top" xlink:title=" ">
<polygon fill="white" stroke="#666666" points="2119,-41 1973,-41 1973,0 2119,0 2119,-41"/>
<text text-anchor="start" x="1981" y="-29" font-family="Helvetica,sans-Serif" font-size="10.00">/home/runner/work/R</text>
<text text-anchor="start" x="1981" y="-18" font-family="Helvetica,sans-Serif" font-size="10.00">&#45;Type/R&#45;Type/Client</text>
<text text-anchor="middle" x="2046" y="-7" font-family="Helvetica,sans-Serif" font-size="10.00">/src/scenes/GameOver.cpp</text>
</a>
</g>
</g>
<!-- Node12&#45;&gt;Node13 -->
<g id="edge15_Node000012_Node000013" class="edge">
<title>Node12&#45;&gt;Node13</title>
<g id="a_edge15_Node000012_Node000013"><a xlink:title=" ">
<path fill="none" stroke="#63b8ff" d="M2046,-71.87C2046,-61.6 2046,-50.4 2046,-41.17"/>
<polygon fill="#63b8ff" stroke="#63b8ff" points="2042.5,-72.1 2046,-82.1 2049.5,-72.1 2042.5,-72.1"/>
</a>
</g>
</g>
<!-- Node15 -->
<g id="Node000015" class="node">
<title>Node15</title>
<g id="a_Node000015"><a xlink:href="JoinGame_8cpp.html" target="_top" xlink:title=" ">
<polygon fill="white" stroke="#666666" points="2278.5,-41 2137.5,-41 2137.5,0 2278.5,0 2278.5,-41"/>
<text text-anchor="start" x="2145.5" y="-29" font-family="Helvetica,sans-Serif" font-size="10.00">/home/runner/work/R</text>
<text text-anchor="start" x="2145.5" y="-18" font-family="Helvetica,sans-Serif" font-size="10.00">&#45;Type/R&#45;Type/Client</text>
<text text-anchor="middle" x="2208" y="-7" font-family="Helvetica,sans-Serif" font-size="10.00">/src/scenes/JoinGame.cpp</text>
</a>
</g>
</g>
<!-- Node14&#45;&gt;Node15 -->
<g id="edge17_Node000014_Node000015" class="edge">
<title>Node14&#45;&gt;Node15</title>
<g id="a_edge17_Node000014_Node000015"><a xlink:title=" ">
<path fill="none" stroke="#63b8ff" d="M2208,-71.87C2208,-61.6 2208,-50.4 2208,-41.17"/>
<polygon fill="#63b8ff" stroke="#63b8ff" points="2204.5,-72.1 2208,-82.1 2211.5,-72.1 2204.5,-72.1"/>
</a>
</g>
</g>
<!-- Node17 -->
<g id="Node000017" class="node">
<title>Node17</title>
<g id="a_Node000017"><a xlink:href="LevelScene_8cpp.html" target="_top" xlink:title=" ">
<polygon fill="white" stroke="#666666" points="2446.5,-41 2297.5,-41 2297.5,0 2446.5,0 2446.5,-41"/>
<text text-anchor="start" x="2305.5" y="-29" font-family="Helvetica,sans-Serif" font-size="10.00">/home/runner/work/R</text>
<text text-anchor="start" x="2305.5" y="-18" font-family="Helvetica,sans-Serif" font-size="10.00">&#45;Type/R&#45;Type/Client</text>
<text text-anchor="middle" x="2372" y="-7" font-family="Helvetica,sans-Serif" font-size="10.00">/src/scenes/LevelScene.cpp</text>
</a>
</g>
</g>
<!-- Node16&#45;&gt;Node17 -->
<g id="edge19_Node000016_Node000017" class="edge">
<title>Node16&#45;&gt;Node17</title>
<g id="a_edge19_Node000016_Node000017"><a xlink:title=" ">
<path fill="none" stroke="#63b8ff" d="M2372,-71.87C2372,-61.6 2372,-50.4 2372,-41.17"/>
<polygon fill="#63b8ff" stroke="#63b8ff" points="2368.5,-72.1 2372,-82.1 2375.5,-72.1 2368.5,-72.1"/>
</a>
</g>
</g>
<!-- Node19 -->
<g id="Node000019" class="node">
<title>Node19</title>
<g id="a_Node000019"><a xlink:href="Lobby_8cpp.html" target="_top" xlink:title=" ">
<polygon fill="white" stroke="#666666" points="2587,-41 2465,-41 2465,0 2587,0 2587,-41"/>
<text text-anchor="start" x="2473" y="-29" font-family="Helvetica,sans-Serif" font-size="10.00">/home/runner/work/R</text>
<text text-anchor="start" x="2473" y="-18" font-family="Helvetica,sans-Serif" font-size="10.00">&#45;Type/R&#45;Type/Client</text>
<text text-anchor="middle" x="2526" y="-7" font-family="Helvetica,sans-Serif" font-size="10.00">/src/scenes/Lobby.cpp</text>
</a>
</g>
</g>
<!-- Node18&#45;&gt;Node19 -->
<g id="edge21_Node000018_Node000019" class="edge">
<title>Node18&#45;&gt;Node19</title>
<g id="a_edge21_Node000018_Node000019"><a xlink:title=" ">
<path fill="none" stroke="#63b8ff" d="M2526,-71.87C2526,-61.6 2526,-50.4 2526,-41.17"/>
<polygon fill="#63b8ff" stroke="#63b8ff" points="2522.5,-72.1 2526,-82.1 2529.5,-72.1 2522.5,-72.1"/>
</a>
</g>
</g>
<!-- Node21 -->
<g id="Node000021" class="node">
<title>Node21</title>
<g id="a_Node000021"><a xlink:href="LobbyInfo_8cpp.html" target="_top" xlink:title=" ">
<polygon fill="white" stroke="#666666" points="2748,-41 2606,-41 2606,0 2748,0 2748,-41"/>
<text text-anchor="start" x="2614" y="-29" font-family="Helvetica,sans-Serif" font-size="10.00">/home/runner/work/R</text>
<text text-anchor="start" x="2614" y="-18" font-family="Helvetica,sans-Serif" font-size="10.00">&#45;Type/R&#45;Type/Client</text>
<text text-anchor="middle" x="2677" y="-7" font-family="Helvetica,sans-Serif" font-size="10.00">/src/scenes/LobbyInfo.cpp</text>
</a>
</g>
</g>
<!-- Node20&#45;&gt;Node21 -->
<g id="edge23_Node000020_Node000021" class="edge">
<title>Node20&#45;&gt;Node21</title>
<g id="a_edge23_Node000020_Node000021"><a xlink:title=" ">
<path fill="none" stroke="#63b8ff" d="M2677,-71.87C2677,-61.6 2677,-50.4 2677,-41.17"/>
<polygon fill="#63b8ff" stroke="#63b8ff" points="2673.5,-72.1 2677,-82.1 2680.5,-72.1 2673.5,-72.1"/>
</a>
</g>
</g>
<!-- Node23 -->
<g id="Node000023" class="node">
<title>Node23</title>
<g id="a_Node000023"><a xlink:href="LobbyJoin_8cpp.html" target="_top" xlink:title=" ">
<polygon fill="white" stroke="#666666" points="2908.5,-41 2767.5,-41 2767.5,0 2908.5,0 2908.5,-41"/>
<text text-anchor="start" x="2775.5" y="-29" font-family="Helvetica,sans-Serif" font-size="10.00">/home/runner/work/R</text>
<text text-anchor="start" x="2775.5" y="-18" font-family="Helvetica,sans-Serif" font-size="10.00">&#45;Type/R&#45;Type/Client</text>
<text text-anchor="middle" x="2838" y="-7" font-family="Helvetica,sans-Serif" font-size="10.00">/src/scenes/LobbyJoin.cpp</text>
</a>
</g>
</g>
<!-- Node22&#45;&gt;Node23 -->
<g id="edge25_Node000022_Node000023" class="edge">
<title>Node22&#45;&gt;Node23</title>
<g id="a_edge25_Node000022_Node000023"><a xlink:title=" ">
<path fill="none" stroke="#63b8ff" d="M2838,-71.87C2838,-61.6 2838,-50.4 2838,-41.17"/>
<polygon fill="#63b8ff" stroke="#63b8ff" points="2834.5,-72.1 2838,-82.1 2841.5,-72.1 2834.5,-72.1"/>
</a>
</g>
</g>
<!-- Node25 -->
<g id="Node000025" class="node">
<title>Node25</title>
<g id="a_Node000025"><a xlink:href="LobbyPassword_8cpp.html" target="_top" xlink:title=" ">
<polygon fill="white" stroke="#666666" points="3096.5,-41 2927.5,-41 2927.5,0 3096.5,0 3096.5,-41"/>
<text text-anchor="start" x="2935.5" y="-29" font-family="Helvetica,sans-Serif" font-size="10.00">/home/runner/work/R</text>
<text text-anchor="start" x="2935.5" y="-18" font-family="Helvetica,sans-Serif" font-size="10.00">&#45;Type/R&#45;Type/Client</text>
<text text-anchor="middle" x="3012" y="-7" font-family="Helvetica,sans-Serif" font-size="10.00">/src/scenes/LobbyPassword.cpp</text>
</a>
</g>
</g>
<!-- Node24&#45;&gt;Node25 -->
<g id="edge27_Node000024_Node000025" class="edge">
<title>Node24&#45;&gt;Node25</title>
<g id="a_edge27_Node000024_Node000025"><a xlink:title=" ">
<path fill="none" stroke="#63b8ff" d="M3012,-71.87C3012,-61.6 3012,-50.4 3012,-41.17"/>
<polygon fill="#63b8ff" stroke="#63b8ff" points="3008.5,-72.1 3012,-82.1 3015.5,-72.1 3008.5,-72.1"/>
</a>
</g>
</g>
<!-- Node27 -->
<g id="Node000027" class="node">
<title>Node27</title>
<g id="a_Node000027"><a xlink:href="MainGame_8cpp.html" target="_top" xlink:title=" ">
<polygon fill="white" stroke="#666666" points="3262.5,-41 3115.5,-41 3115.5,0 3262.5,0 3262.5,-41"/>
<text text-anchor="start" x="3123.5" y="-29" font-family="Helvetica,sans-Serif" font-size="10.00">/home/runner/work/R</text>
<text text-anchor="start" x="3123.5" y="-18" font-family="Helvetica,sans-Serif" font-size="10.00">&#45;Type/R&#45;Type/Client</text>
<text text-anchor="middle" x="3189" y="-7" font-family="Helvetica,sans-Serif" font-size="10.00">/src/scenes/MainGame.cpp</text>
</a>
</g>
</g>
<!-- Node26&#45;&gt;Node27 -->
<g id="edge29_Node000026_Node000027" class="edge">
<title>Node26&#45;&gt;Node27</title>
<g id="a_edge29_Node000026_Node000027"><a xlink:title=" ">
<path fill="none" stroke="#63b8ff" d="M3189,-71.87C3189,-61.6 3189,-50.4 3189,-41.17"/>
<polygon fill="#63b8ff" stroke="#63b8ff" points="3185.5,-72.1 3189,-82.1 3192.5,-72.1 3185.5,-72.1"/>
</a>
</g>
</g>
<!-- Node29 -->
<g id="Node000029" class="node">
<title>Node29</title>
<g id="a_Node000029"><a xlink:href="MainMenu_8cpp.html" target="_top" xlink:title=" ">
<polygon fill="white" stroke="#666666" points="3426.5,-41 3281.5,-41 3281.5,0 3426.5,0 3426.5,-41"/>
<text text-anchor="start" x="3289.5" y="-29" font-family="Helvetica,sans-Serif" font-size="10.00">/home/runner/work/R</text>
<text text-anchor="start" x="3289.5" y="-18" font-family="Helvetica,sans-Serif" font-size="10.00">&#45;Type/R&#45;Type/Client</text>
<text text-anchor="middle" x="3354" y="-7" font-family="Helvetica,sans-Serif" font-size="10.00">/src/scenes/MainMenu.cpp</text>
</a>
</g>
</g>
<!-- Node28&#45;&gt;Node29 -->
<g id="edge31_Node000028_Node000029" class="edge">
<title>Node28&#45;&gt;Node29</title>
<g id="a_edge31_Node000028_Node000029"><a xlink:title=" ">
<path fill="none" stroke="#63b8ff" d="M3354,-71.87C3354,-61.6 3354,-50.4 3354,-41.17"/>
<polygon fill="#63b8ff" stroke="#63b8ff" points="3350.5,-72.1 3354,-82.1 3357.5,-72.1 3350.5,-72.1"/>
</a>
</g>
</g>
<!-- Node31 -->
<g id="Node000031" class="node">
<title>Node31</title>
<g id="a_Node000031"><a xlink:href="Options_8cpp.html" target="_top" xlink:title=" ">
<polygon fill="white" stroke="#666666" points="3576.5,-41 3445.5,-41 3445.5,0 3576.5,0 3576.5,-41"/>
<text text-anchor="start" x="3453.5" y="-29" font-family="Helvetica,sans-Serif" font-size="10.00">/home/runner/work/R</text>
<text text-anchor="start" x="3453.5" y="-18" font-family="Helvetica,sans-Serif" font-size="10.00">&#45;Type/R&#45;Type/Client</text>
<text text-anchor="middle" x="3511" y="-7" font-family="Helvetica,sans-Serif" font-size="10.00">/src/scenes/Options.cpp</text>
</a>
</g>
</g>
<!-- Node30&#45;&gt;Node31 -->
<g id="edge33_Node000030_Node000031" class="edge">
<title>Node30&#45;&gt;Node31</title>
<g id="a_edge33_Node000030_Node000031"><a xlink:title=" ">
<path fill="none" stroke="#63b8ff" d="M3511,-71.87C3511,-61.6 3511,-50.4 3511,-41.17"/>
<polygon fill="#63b8ff" stroke="#63b8ff" points="3507.5,-72.1 3511,-82.1 3514.5,-72.1 3507.5,-72.1"/>
</a>
</g>
</g>
<!-- Node33 -->
<g id="Node000033" class="node">
<title>Node33</title>
<g id="a_Node000033"><a xlink:href="Victory_8cpp.html" target="_top" xlink:title=" ">
<polygon fill="white" stroke="#666666" points="3722.5,-41 3595.5,-41 3595.5,0 3722.5,0 3722.5,-41"/>
<text text-anchor="start" x="3603.5" y="-29" font-family="Helvetica,sans-Serif" font-size="10.00">/home/runner/work/R</text>
<text text-anchor="start" x="3603.5" y="-18" font-family="Helvetica,sans-Serif" font-size="10.00">&#45;Type/R&#45;Type/Client</text>
<text text-anchor="middle" x="3659" y="-7" font-family="Helvetica,sans-Serif" font-size="10.00">/src/scenes/Victory.cpp</text>
</a>
</g>
</g>
<!-- Node32&#45;&gt;Node33 -->
<g id="edge36_Node000032_Node000033" class="edge">
<title>Node32&#45;&gt;Node33</title>
<g id="a_edge36_Node000032_Node000033"><a xlink:title=" ">
<path fill="none" stroke="#63b8ff" d="M3659,-71.87C3659,-61.6 3659,-50.4 3659,-41.17"/>
<polygon fill="#63b8ff" stroke="#63b8ff" points="3655.5,-72.1 3659,-82.1 3662.5,-72.1 3655.5,-72.1"/>
</a>
</g>
</g>
<!-- Node35 -->
<g id="Node000035" class="node">
<title>Node35</title>
<g id="a_Node000035"><a xlink:href="WaitLobby_8cpp.html" target="_top" xlink:title=" ">
<polygon fill="white" stroke="#666666" points="864.5,-41 721.5,-41 721.5,0 864.5,0 864.5,-41"/>
<text text-anchor="start" x="729.5" y="-29" font-family="Helvetica,sans-Serif" font-size="10.00">/home/runner/work/R</text>
<text text-anchor="start" x="729.5" y="-18" font-family="Helvetica,sans-Serif" font-size="10.00">&#45;Type/R&#45;Type/Client</text>
<text text-anchor="middle" x="793" y="-7" font-family="Helvetica,sans-Serif" font-size="10.00">/src/scenes/WaitLobby.cpp</text>
</a>
</g>
</g>
<!-- Node34&#45;&gt;Node35 -->
<g id="edge38_Node000034_Node000035" class="edge">
<title>Node34&#45;&gt;Node35</title>
<g id="a_edge38_Node000034_Node000035"><a xlink:title=" ">
<path fill="none" stroke="#63b8ff" d="M793,-71.87C793,-61.6 793,-50.4 793,-41.17"/>
<polygon fill="#63b8ff" stroke="#63b8ff" points="789.5,-72.1 793,-82.1 796.5,-72.1 789.5,-72.1"/>
</a>
</g>
</g>
<!-- Node41&#45;&gt;Node5 -->
<g id="edge46_Node000041_Node000005" class="edge">
<title>Node41&#45;&gt;Node5</title>
<g id="a_edge46_Node000041_Node000005"><a xlink:title=" ">
<path fill="none" stroke="#63b8ff" d="M250.93,-161.46C257.83,-149.09 265.75,-134.91 271.99,-123.74"/>
<polygon fill="#63b8ff" stroke="#63b8ff" points="247.71,-160.05 245.89,-170.49 253.82,-163.46 247.71,-160.05"/>
</a>
</g>
</g>
</g>
</svg>
