<?xml version="1.0" encoding="UTF-8" standalone="no"?>
<!DOCTYPE svg PUBLIC "-//W3C//DTD SVG 1.1//EN"
 "http://www.w3.org/Graphics/SVG/1.1/DTD/svg11.dtd">
<!-- Generated by graphviz version 2.43.0 (0)
 -->
<!-- Title: /home/runner/work/R&#45;Type/R&#45;Type/Shared/components/TileMap.hpp Pages: 1 -->
<svg width="3937pt" height="302pt"
 viewBox="0.00 0.00 3937.00 302.00" xmlns="http://www.w3.org/2000/svg" xmlns:xlink="http://www.w3.org/1999/xlink">
<g id="graph0" class="graph" transform="scale(1 1) rotate(0) translate(4 298)">
<title>/home/runner/work/R&#45;Type/R&#45;Type/Shared/components/TileMap.hpp</title>
<!-- Node1 -->
<g id="Node000001" class="node">
<title>Node1</title>
<g id="a_Node000001"><a xlink:title=" ">
<polygon fill="#999999" stroke="#666666" points="525.5,-294 382.5,-294 382.5,-253 525.5,-253 525.5,-294"/>
<text text-anchor="start" x="390.5" y="-282" font-family="Helvetica,sans-Serif" font-size="10.00">/home/runner/work/R</text>
<text text-anchor="start" x="390.5" y="-271" font-family="Helvetica,sans-Serif" font-size="10.00">&#45;Type/R&#45;Type/Shared</text>
<text text-anchor="middle" x="454" y="-260" font-family="Helvetica,sans-Serif" font-size="10.00">/components/TileMap.hpp</text>
</a>
</g>
</g>
<!-- Node2 -->
<g id="Node000002" class="node">
<title>Node2</title>
<g id="a_Node000002"><a xlink:href="RtypeScene_8hpp.html" target="_top" xlink:title=" ">
<polygon fill="white" stroke="#666666" points="703,-123.5 551,-123.5 551,-82.5 703,-82.5 703,-123.5"/>
<text text-anchor="start" x="559" y="-111.5" font-family="Helvetica,sans-Serif" font-size="10.00">/home/runner/work/R</text>
<text text-anchor="start" x="559" y="-100.5" font-family="Helvetica,sans-Serif" font-size="10.00">&#45;Type/R&#45;Type/Client</text>
<text text-anchor="middle" x="627" y="-89.5" font-family="Helvetica,sans-Serif" font-size="10.00">/src/scenes/RtypeScene.hpp</text>
</a>
</g>
</g>
<!-- Node1&#45;&gt;Node2 -->
<g id="edge1_Node000001_Node000002" class="edge">
<title>Node1&#45;&gt;Node2</title>
<g id="a_edge1_Node000001_Node000002"><a xlink:title=" ">
<path fill="none" stroke="#63b8ff" d="M521.06,-248.57C537.76,-240.39 554.68,-229.95 568,-217 595.45,-190.31 612.74,-148.09 621.07,-123.52"/>
<polygon fill="#63b8ff" stroke="#63b8ff" points="519.4,-245.48 511.82,-252.88 522.36,-251.82 519.4,-245.48"/>
</a>
</g>
</g>
<!-- Node4 -->
<g id="Node000004" class="node">
<title>Node4</title>
<g id="a_Node000004"><a xlink:href="ServerGame_8hpp.html" target="_top" xlink:title=" ">
<polygon fill="white" stroke="#666666" points="140,-211.5 0,-211.5 0,-170.5 140,-170.5 140,-211.5"/>
<text text-anchor="start" x="8" y="-199.5" font-family="Helvetica,sans-Serif" font-size="10.00">/home/runner/work/R</text>
<text text-anchor="start" x="8" y="-188.5" font-family="Helvetica,sans-Serif" font-size="10.00">&#45;Type/R&#45;Type/Server</text>
<text text-anchor="middle" x="70" y="-177.5" font-family="Helvetica,sans-Serif" font-size="10.00">/include/ServerGame.hpp</text>
</a>
</g>
</g>
<!-- Node1&#45;&gt;Node4 -->
<g id="edge3_Node000001_Node000004" class="edge">
<title>Node1&#45;&gt;Node4</title>
<g id="a_edge3_Node000001_Node000004"><a xlink:title=" ">
<path fill="none" stroke="#63b8ff" d="M372.2,-260.5C310.44,-250.74 223.84,-235.57 149,-217 142.44,-215.37 135.62,-213.5 128.87,-211.53"/>
<polygon fill="#63b8ff" stroke="#63b8ff" points="371.86,-263.99 382.28,-262.08 372.94,-257.07 371.86,-263.99"/>
</a>
</g>
</g>
<!-- Node5 -->
<g id="Node000005" class="node">
<title>Node5</title>
<g id="a_Node000005"><a xlink:href="ServerGame_8cpp.html" target="_top" xlink:title=" ">
<polygon fill="white" stroke="#666666" points="342.5,-123.5 223.5,-123.5 223.5,-82.5 342.5,-82.5 342.5,-123.5"/>
<text text-anchor="start" x="231.5" y="-111.5" font-family="Helvetica,sans-Serif" font-size="10.00">/home/runner/work/R</text>
<text text-anchor="start" x="231.5" y="-100.5" font-family="Helvetica,sans-Serif" font-size="10.00">&#45;Type/R&#45;Type/Server</text>
<text text-anchor="middle" x="283" y="-89.5" font-family="Helvetica,sans-Serif" font-size="10.00">/src/ServerGame.cpp</text>
</a>
</g>
</g>
<!-- Node1&#45;&gt;Node5 -->
<g id="edge6_Node000001_Node000005" class="edge">
<title>Node1&#45;&gt;Node5</title>
<g id="a_edge6_Node000001_Node000005"><a xlink:title=" ">
<path fill="none" stroke="#63b8ff" d="M402.32,-247.9C387.37,-239.37 371.69,-228.91 359,-217 351.03,-209.52 314.89,-153.84 295.46,-123.53"/>
<polygon fill="#63b8ff" stroke="#63b8ff" points="401.05,-251.2 411.5,-252.97 404.43,-245.07 401.05,-251.2"/>
</a>
</g>
</g>
<!-- Node7 -->
<g id="Node000007" class="node">
<title>Node7</title>
<g id="a_Node000007"><a xlink:href="MapCollisionSystem_8cpp.html" target="_top" xlink:title=" ">
<polygon fill="white" stroke="#666666" points="533,-129 361,-129 361,-77 533,-77 533,-129"/>
<text text-anchor="start" x="369" y="-117" font-family="Helvetica,sans-Serif" font-size="10.00">/home/runner/work/R</text>
<text text-anchor="start" x="369" y="-106" font-family="Helvetica,sans-Serif" font-size="10.00">&#45;Type/R&#45;Type/Shared</text>
<text text-anchor="start" x="369" y="-95" font-family="Helvetica,sans-Serif" font-size="10.00">/systems/Collision/MapCollision</text>
<text text-anchor="middle" x="447" y="-84" font-family="Helvetica,sans-Serif" font-size="10.00">System.cpp</text>
</a>
</g>
</g>
<!-- Node1&#45;&gt;Node7 -->
<g id="edge7_Node000001_Node000007" class="edge">
<title>Node1&#45;&gt;Node7</title>
<g id="a_edge7_Node000001_Node000007"><a xlink:title=" ">
<path fill="none" stroke="#63b8ff" d="M517.56,-247.81C530.11,-239.91 541.66,-229.79 549,-217 560.5,-196.96 560.4,-185.1 549,-165 540.4,-149.83 526.36,-138.03 511.42,-129.03"/>
<polygon fill="#63b8ff" stroke="#63b8ff" points="515.63,-244.88 508.74,-252.93 519.15,-250.93 515.63,-244.88"/>
</a>
</g>
</g>
<!-- Node8 -->
<g id="Node000008" class="node">
<title>Node8</title>
<g id="a_Node000008"><a xlink:href="MapCollisionSystem_8hpp.html" target="_top" xlink:title=" ">
<polygon fill="white" stroke="#666666" points="540,-217 368,-217 368,-165 540,-165 540,-217"/>
<text text-anchor="start" x="376" y="-205" font-family="Helvetica,sans-Serif" font-size="10.00">/home/runner/work/R</text>
<text text-anchor="start" x="376" y="-194" font-family="Helvetica,sans-Serif" font-size="10.00">&#45;Type/R&#45;Type/Shared</text>
<text text-anchor="start" x="376" y="-183" font-family="Helvetica,sans-Serif" font-size="10.00">/systems/Collision/MapCollision</text>
<text text-anchor="middle" x="454" y="-172" font-family="Helvetica,sans-Serif" font-size="10.00">System.hpp</text>
</a>
</g>
</g>
<!-- Node1&#45;&gt;Node8 -->
<g id="edge8_Node000001_Node000008" class="edge">
<title>Node1&#45;&gt;Node8</title>
<g id="a_edge8_Node000001_Node000008"><a xlink:title=" ">
<path fill="none" stroke="#63b8ff" d="M454,-242.49C454,-234.15 454,-225.19 454,-217.16"/>
<polygon fill="#63b8ff" stroke="#63b8ff" points="450.5,-242.6 454,-252.6 457.5,-242.6 450.5,-242.6"/>
</a>
</g>
</g>
<!-- Node9 -->
<g id="Node000009" class="node">
<title>Node9</title>
<g id="a_Node000009"><a xlink:href="EntityHelper_8hpp.html" target="_top" xlink:title=" ">
<polygon fill="white" stroke="#666666" points="2199.5,-211.5 2014.5,-211.5 2014.5,-170.5 2199.5,-170.5 2199.5,-211.5"/>
<text text-anchor="start" x="2022.5" y="-199.5" font-family="Helvetica,sans-Serif" font-size="10.00">/home/runner/work/R</text>
<text text-anchor="start" x="2022.5" y="-188.5" font-family="Helvetica,sans-Serif" font-size="10.00">&#45;Type/R&#45;Type/Shared</text>
<text text-anchor="middle" x="2107" y="-177.5" font-family="Helvetica,sans-Serif" font-size="10.00">/systems/Helpers/EntityHelper.hpp</text>
</a>
</g>
</g>
<!-- Node1&#45;&gt;Node9 -->
<g id="edge11_Node000001_Node000009" class="edge">
<title>Node1&#45;&gt;Node9</title>
<g id="a_edge11_Node000001_Node000009"><a xlink:title=" ">
<path fill="none" stroke="#63b8ff" d="M535.56,-268.53C813.23,-255.01 1720.77,-210.81 2014.42,-196.51"/>
<polygon fill="#63b8ff" stroke="#63b8ff" points="535.38,-265.03 525.56,-269.02 535.72,-272.02 535.38,-265.03"/>
</a>
</g>
</g>
<!-- Node43 -->
<g id="Node000043" class="node">
<title>Node43</title>
<g id="a_Node000043"><a xlink:href="MapGenerator_8hpp.html" target="_top" xlink:title=" ">
<polygon fill="white" stroke="#666666" points="312,-211.5 158,-211.5 158,-170.5 312,-170.5 312,-211.5"/>
<text text-anchor="start" x="166" y="-199.5" font-family="Helvetica,sans-Serif" font-size="10.00">/home/runner/work/R</text>
<text text-anchor="start" x="166" y="-188.5" font-family="Helvetica,sans-Serif" font-size="10.00">&#45;Type/R&#45;Type/Shared</text>
<text text-anchor="middle" x="235" y="-177.5" font-family="Helvetica,sans-Serif" font-size="10.00">/systems/MapGenerator.hpp</text>
</a>
</g>
</g>
<!-- Node1&#45;&gt;Node43 -->
<g id="edge47_Node000001_Node000043" class="edge">
<title>Node1&#45;&gt;Node43</title>
<g id="a_edge47_Node000001_Node000043"><a xlink:title=" ">
<path fill="none" stroke="#63b8ff" d="M391.26,-249.44C358.66,-237.45 319.24,-222.97 288.15,-211.54"/>
<polygon fill="#63b8ff" stroke="#63b8ff" points="390.11,-252.75 400.71,-252.91 392.53,-246.18 390.11,-252.75"/>
</a>
</g>
</g>
<!-- Node3 -->
<g id="Node000003" class="node">
<title>Node3</title>
<g id="a_Node000003"><a xlink:href="RtypeScene_8cpp.html" target="_top" xlink:title=" ">
<polygon fill="white" stroke="#666666" points="703,-41 551,-41 551,0 703,0 703,-41"/>
<text text-anchor="start" x="559" y="-29" font-family="Helvetica,sans-Serif" font-size="10.00">/home/runner/work/R</text>
<text text-anchor="start" x="559" y="-18" font-family="Helvetica,sans-Serif" font-size="10.00">&#45;Type/R&#45;Type/Client</text>
<text text-anchor="middle" x="627" y="-7" font-family="Helvetica,sans-Serif" font-size="10.00">/src/scenes/RtypeScene.cpp</text>
</a>
</g>
</g>
<!-- Node2&#45;&gt;Node3 -->
<g id="edge2_Node000002_Node000003" class="edge">
<title>Node2&#45;&gt;Node3</title>
<g id="a_edge2_Node000002_Node000003"><a xlink:title=" ">
<path fill="none" stroke="#63b8ff" d="M627,-71.87C627,-61.6 627,-50.4 627,-41.17"/>
<polygon fill="#63b8ff" stroke="#63b8ff" points="623.5,-72.1 627,-82.1 630.5,-72.1 623.5,-72.1"/>
</a>
</g>
</g>
<!-- Node4&#45;&gt;Node5 -->
<g id="edge4_Node000004_Node000005" class="edge">
<title>Node4&#45;&gt;Node5</title>
<g id="a_edge4_Node000004_Node000005"><a xlink:title=" ">
<path fill="none" stroke="#63b8ff" d="M127.97,-166.6C161.35,-153.12 202.84,-136.37 234.49,-123.59"/>
<polygon fill="#63b8ff" stroke="#63b8ff" points="126.3,-163.5 118.33,-170.49 128.92,-169.99 126.3,-163.5"/>
</a>
</g>
</g>
<!-- Node6 -->
<g id="Node000006" class="node">
<title>Node6</title>
<g id="a_Node000006"><a xlink:href="main_8cpp.html" target="_top" xlink:title=" ">
<polygon fill="white" stroke="#666666" points="129.5,-123.5 10.5,-123.5 10.5,-82.5 129.5,-82.5 129.5,-123.5"/>
<text text-anchor="start" x="18.5" y="-111.5" font-family="Helvetica,sans-Serif" font-size="10.00">/home/runner/work/R</text>
<text text-anchor="start" x="18.5" y="-100.5" font-family="Helvetica,sans-Serif" font-size="10.00">&#45;Type/R&#45;Type/Server</text>
<text text-anchor="middle" x="70" y="-89.5" font-family="Helvetica,sans-Serif" font-size="10.00">/src/main.cpp</text>
</a>
</g>
</g>
<!-- Node4&#45;&gt;Node6 -->
<g id="edge5_Node000004_Node000006" class="edge">
<title>Node4&#45;&gt;Node6</title>
<g id="a_edge5_Node000004_Node000006"><a xlink:title=" ">
<path fill="none" stroke="#63b8ff" d="M70,-160.36C70,-148.26 70,-134.58 70,-123.74"/>
<polygon fill="#63b8ff" stroke="#63b8ff" points="66.5,-160.49 70,-170.49 73.5,-160.49 66.5,-160.49"/>
</a>
</g>
</g>
<!-- Node8&#45;&gt;Node5 -->
<g id="edge9_Node000008_Node000005" class="edge">
<title>Node8&#45;&gt;Node5</title>
<g id="a_edge9_Node000008_Node000005"><a xlink:title=" ">
<path fill="none" stroke="#63b8ff" d="M394.98,-160.32C370.78,-148.15 343.44,-134.4 321.83,-123.53"/>
<polygon fill="#63b8ff" stroke="#63b8ff" points="393.57,-163.53 404.08,-164.89 396.72,-157.27 393.57,-163.53"/>
</a>
</g>
</g>
<!-- Node8&#45;&gt;Node7 -->
<g id="edge10_Node000008_Node000007" class="edge">
<title>Node8&#45;&gt;Node7</title>
<g id="a_edge10_Node000008_Node000007"><a xlink:title=" ">
<path fill="none" stroke="#63b8ff" d="M451.12,-154.56C450.42,-146.04 449.69,-137.1 449.05,-129.16"/>
<polygon fill="#63b8ff" stroke="#63b8ff" points="447.64,-154.98 451.94,-164.66 454.61,-154.41 447.64,-154.98"/>
</a>
</g>
</g>
<!-- Node9&#45;&gt;Node2 -->
<g id="edge34_Node000009_Node000002" class="edge">
<title>Node9&#45;&gt;Node2</title>
<g id="a_edge34_Node000009_Node000002"><a xlink:title=" ">
<path fill="none" stroke="#63b8ff" d="M2004.21,-188.73C1725.67,-184.78 960.61,-170.37 712,-129 703.81,-127.64 695.29,-125.74 686.94,-123.59"/>
<polygon fill="#63b8ff" stroke="#63b8ff" points="2004.27,-192.23 2014.31,-188.87 2004.36,-185.23 2004.27,-192.23"/>
</a>
</g>
</g>
<!-- Node9&#45;&gt;Node5 -->
<g id="edge41_Node000009_Node000005" class="edge">
<title>Node9&#45;&gt;Node5</title>
<g id="a_edge41_Node000009_Node000005"><a xlink:title=" ">
<path fill="none" stroke="#63b8ff" d="M2004.06,-190.63C1678.11,-191.96 671.42,-190.82 352,-129 345.12,-127.67 338.01,-125.76 331.09,-123.57"/>
<polygon fill="#63b8ff" stroke="#63b8ff" points="2004.45,-194.13 2014.44,-190.58 2004.42,-187.13 2004.45,-194.13"/>
</a>
</g>
</g>
<!-- Node10 -->
<g id="Node000010" class="node">
<title>Node10</title>
<g id="a_Node000010"><a xlink:href="CreateLobby_8hpp.html" target="_top" xlink:title=" ">
<polygon fill="white" stroke="#666666" points="2100.5,-123.5 1945.5,-123.5 1945.5,-82.5 2100.5,-82.5 2100.5,-123.5"/>
<text text-anchor="start" x="1953.5" y="-111.5" font-family="Helvetica,sans-Serif" font-size="10.00">/home/runner/work/R</text>
<text text-anchor="start" x="1953.5" y="-100.5" font-family="Helvetica,sans-Serif" font-size="10.00">&#45;Type/R&#45;Type/Client</text>
<text text-anchor="middle" x="2023" y="-89.5" font-family="Helvetica,sans-Serif" font-size="10.00">/src/scenes/CreateLobby.hpp</text>
</a>
</g>
</g>
<!-- Node9&#45;&gt;Node10 -->
<g id="edge12_Node000009_Node000010" class="edge">
<title>Node9&#45;&gt;Node10</title>
<g id="a_edge12_Node000009_Node000010"><a xlink:title=" ">
<path fill="none" stroke="#63b8ff" d="M2080.89,-163.26C2068.4,-150.48 2053.73,-135.46 2042.28,-123.74"/>
<polygon fill="#63b8ff" stroke="#63b8ff" points="2078.45,-165.78 2087.94,-170.49 2083.46,-160.89 2078.45,-165.78"/>
</a>
</g>
</g>
<!-- Node12 -->
<g id="Node000012" class="node">
<title>Node12</title>
<g id="a_Node000012"><a xlink:href="GameOver_8hpp.html" target="_top" xlink:title=" ">
<polygon fill="white" stroke="#666666" points="2265,-123.5 2119,-123.5 2119,-82.5 2265,-82.5 2265,-123.5"/>
<text text-anchor="start" x="2127" y="-111.5" font-family="Helvetica,sans-Serif" font-size="10.00">/home/runner/work/R</text>
<text text-anchor="start" x="2127" y="-100.5" font-family="Helvetica,sans-Serif" font-size="10.00">&#45;Type/R&#45;Type/Client</text>
<text text-anchor="middle" x="2192" y="-89.5" font-family="Helvetica,sans-Serif" font-size="10.00">/src/scenes/GameOver.hpp</text>
</a>
</g>
</g>
<!-- Node9&#45;&gt;Node12 -->
<g id="edge14_Node000009_Node000012" class="edge">
<title>Node9&#45;&gt;Node12</title>
<g id="a_edge14_Node000009_Node000012"><a xlink:title=" ">
<path fill="none" stroke="#63b8ff" d="M2133.43,-163.26C2146.06,-150.48 2160.91,-135.46 2172.49,-123.74"/>
<polygon fill="#63b8ff" stroke="#63b8ff" points="2130.83,-160.91 2126.29,-170.49 2135.81,-165.83 2130.83,-160.91"/>
</a>
</g>
</g>
<!-- Node14 -->
<g id="Node000014" class="node">
<title>Node14</title>
<g id="a_Node000014"><a xlink:href="JoinGame_8hpp.html" target="_top" xlink:title=" ">
<polygon fill="white" stroke="#666666" points="2425,-123.5 2283,-123.5 2283,-82.5 2425,-82.5 2425,-123.5"/>
<text text-anchor="start" x="2291" y="-111.5" font-family="Helvetica,sans-Serif" font-size="10.00">/home/runner/work/R</text>
<text text-anchor="start" x="2291" y="-100.5" font-family="Helvetica,sans-Serif" font-size="10.00">&#45;Type/R&#45;Type/Client</text>
<text text-anchor="middle" x="2354" y="-89.5" font-family="Helvetica,sans-Serif" font-size="10.00">/src/scenes/JoinGame.hpp</text>
</a>
</g>
</g>
<!-- Node9&#45;&gt;Node14 -->
<g id="edge16_Node000009_Node000014" class="edge">
<title>Node9&#45;&gt;Node14</title>
<g id="a_edge16_Node000009_Node000014"><a xlink:title=" ">
<path fill="none" stroke="#63b8ff" d="M2172.73,-167.11C2211.7,-153.55 2260.57,-136.53 2297.75,-123.59"/>
<polygon fill="#63b8ff" stroke="#63b8ff" points="2171.34,-163.89 2163.05,-170.49 2173.64,-170.5 2171.34,-163.89"/>
</a>
</g>
</g>
<!-- Node16 -->
<g id="Node000016" class="node">
<title>Node16</title>
<g id="a_Node000016"><a xlink:href="LevelScene_8hpp.html" target="_top" xlink:title=" ">
<polygon fill="white" stroke="#666666" points="2593,-123.5 2443,-123.5 2443,-82.5 2593,-82.5 2593,-123.5"/>
<text text-anchor="start" x="2451" y="-111.5" font-family="Helvetica,sans-Serif" font-size="10.00">/home/runner/work/R</text>
<text text-anchor="start" x="2451" y="-100.5" font-family="Helvetica,sans-Serif" font-size="10.00">&#45;Type/R&#45;Type/Client</text>
<text text-anchor="middle" x="2518" y="-89.5" font-family="Helvetica,sans-Serif" font-size="10.00">/src/scenes/LevelScene.hpp</text>
</a>
</g>
</g>
<!-- Node9&#45;&gt;Node16 -->
<g id="edge18_Node000009_Node000016" class="edge">
<title>Node9&#45;&gt;Node16</title>
<g id="a_edge18_Node000009_Node000016"><a xlink:title=" ">
<path fill="none" stroke="#63b8ff" d="M2209.72,-173.68C2274.44,-162.7 2359.53,-146.98 2434,-129 2440.8,-127.36 2447.87,-125.5 2454.9,-123.55"/>
<polygon fill="#63b8ff" stroke="#63b8ff" points="2208.8,-170.29 2199.52,-175.4 2209.96,-177.19 2208.8,-170.29"/>
</a>
</g>
</g>
<!-- Node18 -->
<g id="Node000018" class="node">
<title>Node18</title>
<g id="a_Node000018"><a xlink:href="Lobby_8hpp.html" target="_top" xlink:title=" ">
<polygon fill="white" stroke="#666666" points="2733,-123.5 2611,-123.5 2611,-82.5 2733,-82.5 2733,-123.5"/>
<text text-anchor="start" x="2619" y="-111.5" font-family="Helvetica,sans-Serif" font-size="10.00">/home/runner/work/R</text>
<text text-anchor="start" x="2619" y="-100.5" font-family="Helvetica,sans-Serif" font-size="10.00">&#45;Type/R&#45;Type/Client</text>
<text text-anchor="middle" x="2672" y="-89.5" font-family="Helvetica,sans-Serif" font-size="10.00">/src/scenes/Lobby.hpp</text>
</a>
</g>
</g>
<!-- Node9&#45;&gt;Node18 -->
<g id="edge20_Node000009_Node000018" class="edge">
<title>Node9&#45;&gt;Node18</title>
<g id="a_edge20_Node000009_Node000018"><a xlink:title=" ">
<path fill="none" stroke="#63b8ff" d="M2209.96,-183.95C2310.9,-176.47 2468.62,-160.63 2602,-129 2608.28,-127.51 2614.77,-125.65 2621.16,-123.62"/>
<polygon fill="#63b8ff" stroke="#63b8ff" points="2209.48,-180.47 2199.76,-184.69 2209.99,-187.45 2209.48,-180.47"/>
</a>
</g>
</g>
<!-- Node20 -->
<g id="Node000020" class="node">
<title>Node20</title>
<g id="a_Node000020"><a xlink:href="LobbyInfo_8hpp.html" target="_top" xlink:title=" ">
<polygon fill="white" stroke="#666666" points="2894.5,-123.5 2751.5,-123.5 2751.5,-82.5 2894.5,-82.5 2894.5,-123.5"/>
<text text-anchor="start" x="2759.5" y="-111.5" font-family="Helvetica,sans-Serif" font-size="10.00">/home/runner/work/R</text>
<text text-anchor="start" x="2759.5" y="-100.5" font-family="Helvetica,sans-Serif" font-size="10.00">&#45;Type/R&#45;Type/Client</text>
<text text-anchor="middle" x="2823" y="-89.5" font-family="Helvetica,sans-Serif" font-size="10.00">/src/scenes/LobbyInfo.hpp</text>
</a>
</g>
</g>
<!-- Node9&#45;&gt;Node20 -->
<g id="edge22_Node000009_Node000020" class="edge">
<title>Node9&#45;&gt;Node20</title>
<g id="a_edge22_Node000009_Node000020"><a xlink:title=" ">
<path fill="none" stroke="#63b8ff" d="M2209.66,-186.56C2336,-180.86 2556.57,-166.12 2742,-129 2749.36,-127.53 2757,-125.65 2764.52,-123.58"/>
<polygon fill="#63b8ff" stroke="#63b8ff" points="2209.45,-183.07 2199.61,-187 2209.75,-190.06 2209.45,-183.07"/>
</a>
</g>
</g>
<!-- Node22 -->
<g id="Node000022" class="node">
<title>Node22</title>
<g id="a_Node000022"><a xlink:href="LobbyJoin_8hpp.html" target="_top" xlink:title=" ">
<polygon fill="white" stroke="#666666" points="3055,-123.5 2913,-123.5 2913,-82.5 3055,-82.5 3055,-123.5"/>
<text text-anchor="start" x="2921" y="-111.5" font-family="Helvetica,sans-Serif" font-size="10.00">/home/runner/work/R</text>
<text text-anchor="start" x="2921" y="-100.5" font-family="Helvetica,sans-Serif" font-size="10.00">&#45;Type/R&#45;Type/Client</text>
<text text-anchor="middle" x="2984" y="-89.5" font-family="Helvetica,sans-Serif" font-size="10.00">/src/scenes/LobbyJoin.hpp</text>
</a>
</g>
</g>
<!-- Node9&#45;&gt;Node22 -->
<g id="edge24_Node000009_Node000022" class="edge">
<title>Node9&#45;&gt;Node22</title>
<g id="a_edge24_Node000009_Node000022"><a xlink:title=" ">
<path fill="none" stroke="#63b8ff" d="M2209.94,-189.53C2362.76,-187.17 2658.04,-176.21 2904,-129 2911.43,-127.57 2919.14,-125.7 2926.72,-123.61"/>
<polygon fill="#63b8ff" stroke="#63b8ff" points="2209.59,-186.04 2199.64,-189.68 2209.69,-193.04 2209.59,-186.04"/>
</a>
</g>
</g>
<!-- Node24 -->
<g id="Node000024" class="node">
<title>Node24</title>
<g id="a_Node000024"><a xlink:href="LobbyPassword_8hpp.html" target="_top" xlink:title=" ">
<polygon fill="white" stroke="#666666" points="3243,-123.5 3073,-123.5 3073,-82.5 3243,-82.5 3243,-123.5"/>
<text text-anchor="start" x="3081" y="-111.5" font-family="Helvetica,sans-Serif" font-size="10.00">/home/runner/work/R</text>
<text text-anchor="start" x="3081" y="-100.5" font-family="Helvetica,sans-Serif" font-size="10.00">&#45;Type/R&#45;Type/Client</text>
<text text-anchor="middle" x="3158" y="-89.5" font-family="Helvetica,sans-Serif" font-size="10.00">/src/scenes/LobbyPassword.hpp</text>
</a>
</g>
</g>
<!-- Node9&#45;&gt;Node24 -->
<g id="edge26_Node000009_Node000024" class="edge">
<title>Node9&#45;&gt;Node24</title>
<g id="a_edge26_Node000009_Node000024"><a xlink:title=" ">
<path fill="none" stroke="#63b8ff" d="M2209.76,-190.04C2385.81,-188.63 2755.95,-179.28 3064,-129 3072.83,-127.56 3082.04,-125.64 3091.08,-123.51"/>
<polygon fill="#63b8ff" stroke="#63b8ff" points="2209.7,-186.54 2199.73,-190.11 2209.75,-193.54 2209.7,-186.54"/>
</a>
</g>
</g>
<!-- Node26 -->
<g id="Node000026" class="node">
<title>Node26</title>
<g id="a_Node000026"><a xlink:href="MainGame_8hpp.html" target="_top" xlink:title=" ">
<polygon fill="white" stroke="#666666" points="3409,-123.5 3261,-123.5 3261,-82.5 3409,-82.5 3409,-123.5"/>
<text text-anchor="start" x="3269" y="-111.5" font-family="Helvetica,sans-Serif" font-size="10.00">/home/runner/work/R</text>
<text text-anchor="start" x="3269" y="-100.5" font-family="Helvetica,sans-Serif" font-size="10.00">&#45;Type/R&#45;Type/Client</text>
<text text-anchor="middle" x="3335" y="-89.5" font-family="Helvetica,sans-Serif" font-size="10.00">/src/scenes/MainGame.hpp</text>
</a>
</g>
</g>
<!-- Node9&#45;&gt;Node26 -->
<g id="edge28_Node000009_Node000026" class="edge">
<title>Node9&#45;&gt;Node26</title>
<g id="a_edge28_Node000009_Node000026"><a xlink:title=" ">
<path fill="none" stroke="#63b8ff" d="M2209.78,-187.67C2452.04,-181.68 3053.36,-163.69 3252,-129 3260.01,-127.6 3268.33,-125.68 3276.47,-123.52"/>
<polygon fill="#63b8ff" stroke="#63b8ff" points="2209.48,-184.18 2199.57,-187.92 2209.65,-191.18 2209.48,-184.18"/>
</a>
</g>
</g>
<!-- Node28 -->
<g id="Node000028" class="node">
<title>Node28</title>
<g id="a_Node000028"><a xlink:href="MainMenu_8hpp.html" target="_top" xlink:title=" ">
<polygon fill="white" stroke="#666666" points="3573,-123.5 3427,-123.5 3427,-82.5 3573,-82.5 3573,-123.5"/>
<text text-anchor="start" x="3435" y="-111.5" font-family="Helvetica,sans-Serif" font-size="10.00">/home/runner/work/R</text>
<text text-anchor="start" x="3435" y="-100.5" font-family="Helvetica,sans-Serif" font-size="10.00">&#45;Type/R&#45;Type/Client</text>
<text text-anchor="middle" x="3500" y="-89.5" font-family="Helvetica,sans-Serif" font-size="10.00">/src/scenes/MainMenu.hpp</text>
</a>
</g>
</g>
<!-- Node9&#45;&gt;Node28 -->
<g id="edge30_Node000009_Node000028" class="edge">
<title>Node9&#45;&gt;Node28</title>
<g id="a_edge30_Node000009_Node000028"><a xlink:title=" ">
<path fill="none" stroke="#63b8ff" d="M2209.68,-188.53C2476.38,-184.17 3186.36,-169.05 3418,-129 3425.92,-127.63 3434.15,-125.73 3442.2,-123.57"/>
<polygon fill="#63b8ff" stroke="#63b8ff" points="2209.56,-185.03 2199.62,-188.69 2209.67,-192.03 2209.56,-185.03"/>
</a>
</g>
</g>
<!-- Node30 -->
<g id="Node000030" class="node">
<title>Node30</title>
<g id="a_Node000030"><a xlink:href="Options_8hpp.html" target="_top" xlink:title=" ">
<polygon fill="white" stroke="#666666" points="3723,-123.5 3591,-123.5 3591,-82.5 3723,-82.5 3723,-123.5"/>
<text text-anchor="start" x="3599" y="-111.5" font-family="Helvetica,sans-Serif" font-size="10.00">/home/runner/work/R</text>
<text text-anchor="start" x="3599" y="-100.5" font-family="Helvetica,sans-Serif" font-size="10.00">&#45;Type/R&#45;Type/Client</text>
<text text-anchor="middle" x="3657" y="-89.5" font-family="Helvetica,sans-Serif" font-size="10.00">/src/scenes/Options.hpp</text>
</a>
</g>
</g>
<!-- Node9&#45;&gt;Node30 -->
<g id="edge32_Node000009_Node000030" class="edge">
<title>Node9&#45;&gt;Node30</title>
<g id="a_edge32_Node000009_Node000030"><a xlink:title=" ">
<path fill="none" stroke="#63b8ff" d="M2209.63,-189.49C2499.09,-187.45 3318.08,-177.45 3582,-129 3589.42,-127.64 3597.12,-125.71 3604.63,-123.51"/>
<polygon fill="#63b8ff" stroke="#63b8ff" points="2209.53,-185.99 2199.56,-189.56 2209.58,-192.99 2209.53,-185.99"/>
</a>
</g>
</g>
<!-- Node32 -->
<g id="Node000032" class="node">
<title>Node32</title>
<g id="a_Node000032"><a xlink:href="SecondGameClient_8hpp.html" target="_top" xlink:title=" ">
<polygon fill="white" stroke="#666666" points="3929,-123.5 3741,-123.5 3741,-82.5 3929,-82.5 3929,-123.5"/>
<text text-anchor="start" x="3749" y="-111.5" font-family="Helvetica,sans-Serif" font-size="10.00">/home/runner/work/R</text>
<text text-anchor="start" x="3749" y="-100.5" font-family="Helvetica,sans-Serif" font-size="10.00">&#45;Type/R&#45;Type/Client</text>
<text text-anchor="middle" x="3835" y="-89.5" font-family="Helvetica,sans-Serif" font-size="10.00">/src/scenes/SecondGameClient.hpp</text>
</a>
</g>
</g>
<!-- Node9&#45;&gt;Node32 -->
<g id="edge35_Node000009_Node000032" class="edge">
<title>Node9&#45;&gt;Node32</title>
<g id="a_edge35_Node000009_Node000032"><a xlink:title=" ">
<path fill="none" stroke="#63b8ff" d="M2210,-188.83C2519.19,-184.91 3436.15,-170.03 3732,-129 3741.93,-127.62 3752.31,-125.7 3762.48,-123.52"/>
<polygon fill="#63b8ff" stroke="#63b8ff" points="2209.66,-185.34 2199.7,-188.96 2209.75,-192.34 2209.66,-185.34"/>
</a>
</g>
</g>
<!-- Node34 -->
<g id="Node000034" class="node">
<title>Node34</title>
<g id="a_Node000034"><a xlink:href="Victory_8hpp.html" target="_top" xlink:title=" ">
<polygon fill="white" stroke="#666666" points="849,-123.5 721,-123.5 721,-82.5 849,-82.5 849,-123.5"/>
<text text-anchor="start" x="729" y="-111.5" font-family="Helvetica,sans-Serif" font-size="10.00">/home/runner/work/R</text>
<text text-anchor="start" x="729" y="-100.5" font-family="Helvetica,sans-Serif" font-size="10.00">&#45;Type/R&#45;Type/Client</text>
<text text-anchor="middle" x="785" y="-89.5" font-family="Helvetica,sans-Serif" font-size="10.00">/src/scenes/Victory.hpp</text>
</a>
</g>
</g>
<!-- Node9&#45;&gt;Node34 -->
<g id="edge37_Node000009_Node000034" class="edge">
<title>Node9&#45;&gt;Node34</title>
<g id="a_edge37_Node000009_Node000034"><a xlink:title=" ">
<path fill="none" stroke="#63b8ff" d="M2004.1,-188.69C1746.07,-184.81 1076.56,-170.89 858,-129 850.9,-127.64 843.54,-125.74 836.36,-123.59"/>
<polygon fill="#63b8ff" stroke="#63b8ff" points="2004.17,-192.19 2014.22,-188.84 2004.27,-185.19 2004.17,-192.19"/>
</a>
</g>
</g>
<!-- Node36 -->
<g id="Node000036" class="node">
<title>Node36</title>
<g id="a_Node000036"><a xlink:href="WaitLobby_8hpp.html" target="_top" xlink:title=" ">
<polygon fill="white" stroke="#666666" points="1011,-123.5 867,-123.5 867,-82.5 1011,-82.5 1011,-123.5"/>
<text text-anchor="start" x="875" y="-111.5" font-family="Helvetica,sans-Serif" font-size="10.00">/home/runner/work/R</text>
<text text-anchor="start" x="875" y="-100.5" font-family="Helvetica,sans-Serif" font-size="10.00">&#45;Type/R&#45;Type/Client</text>
<text text-anchor="middle" x="939" y="-89.5" font-family="Helvetica,sans-Serif" font-size="10.00">/src/scenes/WaitLobby.hpp</text>
</a>
</g>
</g>
<!-- Node9&#45;&gt;Node36 -->
<g id="edge39_Node000009_Node000036" class="edge">
<title>Node9&#45;&gt;Node36</title>
<g id="a_edge39_Node000009_Node000036"><a xlink:title=" ">
<path fill="none" stroke="#63b8ff" d="M2003.97,-187.41C1770.51,-181.04 1206.98,-162.58 1020,-129 1012.18,-127.6 1004.05,-125.67 996.1,-123.51"/>
<polygon fill="#63b8ff" stroke="#63b8ff" points="2004.07,-190.92 2014.16,-187.69 2004.26,-183.92 2004.07,-190.92"/>
</a>
</g>
</g>
<!-- Node38 -->
<g id="Node000038" class="node">
<title>Node38</title>
<g id="a_Node000038"><a xlink:href="ChargedShoot_8cpp.html" target="_top" xlink:title=" ">
<polygon fill="white" stroke="#666666" points="1181,-123.5 1029,-123.5 1029,-82.5 1181,-82.5 1181,-123.5"/>
<text text-anchor="start" x="1037" y="-111.5" font-family="Helvetica,sans-Serif" font-size="10.00">/home/runner/work/R</text>
<text text-anchor="start" x="1037" y="-100.5" font-family="Helvetica,sans-Serif" font-size="10.00">&#45;Type/R&#45;Type/Shared</text>
<text text-anchor="middle" x="1105" y="-89.5" font-family="Helvetica,sans-Serif" font-size="10.00">/systems/ChargedShoot.cpp</text>
</a>
</g>
</g>
<!-- Node9&#45;&gt;Node38 -->
<g id="edge42_Node000009_Node000038" class="edge">
<title>Node9&#45;&gt;Node38</title>
<g id="a_edge42_Node000009_Node000038"><a xlink:title=" ">
<path fill="none" stroke="#63b8ff" d="M2004,-190.37C1833.56,-189.36 1482.67,-180.48 1191,-129 1182.88,-127.57 1174.44,-125.66 1166.16,-123.53"/>
<polygon fill="#63b8ff" stroke="#63b8ff" points="2004.2,-193.87 2014.22,-190.42 2004.24,-186.87 2004.2,-193.87"/>
</a>
</g>
</g>
<!-- Node39 -->
<g id="Node000039" class="node">
<title>Node39</title>
<g id="a_Node000039"><a xlink:href="LevelSystem_8cpp.html" target="_top" xlink:title=" ">
<polygon fill="white" stroke="#666666" points="1346.5,-123.5 1199.5,-123.5 1199.5,-82.5 1346.5,-82.5 1346.5,-123.5"/>
<text text-anchor="start" x="1207.5" y="-111.5" font-family="Helvetica,sans-Serif" font-size="10.00">/home/runner/work/R</text>
<text text-anchor="start" x="1207.5" y="-100.5" font-family="Helvetica,sans-Serif" font-size="10.00">&#45;Type/R&#45;Type/Shared</text>
<text text-anchor="middle" x="1273" y="-89.5" font-family="Helvetica,sans-Serif" font-size="10.00">/systems/LevelSystem.cpp</text>
</a>
</g>
</g>
<!-- Node9&#45;&gt;Node39 -->
<g id="edge43_Node000009_Node000039" class="edge">
<title>Node9&#45;&gt;Node39</title>
<g id="a_edge43_Node000009_Node000039"><a xlink:title=" ">
<path fill="none" stroke="#63b8ff" d="M2004,-188.5C1858.43,-184.84 1584.77,-172.24 1356,-129 1348.31,-127.55 1340.32,-125.65 1332.47,-123.56"/>
<polygon fill="#63b8ff" stroke="#63b8ff" points="2004.17,-192.01 2014.25,-188.75 2004.34,-185.01 2004.17,-192.01"/>
</a>
</g>
</g>
<!-- Node40 -->
<g id="Node000040" class="node">
<title>Node40</title>
<g id="a_Node000040"><a xlink:href="Movement_8cpp.html" target="_top" xlink:title=" ">
<polygon fill="white" stroke="#666666" points="1557,-123.5 1365,-123.5 1365,-82.5 1557,-82.5 1557,-123.5"/>
<text text-anchor="start" x="1373" y="-111.5" font-family="Helvetica,sans-Serif" font-size="10.00">/home/runner/work/R</text>
<text text-anchor="start" x="1373" y="-100.5" font-family="Helvetica,sans-Serif" font-size="10.00">&#45;Type/R&#45;Type/Shared</text>
<text text-anchor="middle" x="1461" y="-89.5" font-family="Helvetica,sans-Serif" font-size="10.00">/systems/Movement/Movement.cpp</text>
</a>
</g>
</g>
<!-- Node9&#45;&gt;Node40 -->
<g id="edge44_Node000009_Node000040" class="edge">
<title>Node9&#45;&gt;Node40</title>
<g id="a_edge44_Node000009_Node000040"><a xlink:title=" ">
<path fill="none" stroke="#63b8ff" d="M2004.31,-182.07C1895.29,-172.79 1718.21,-155.28 1567,-129 1557.97,-127.43 1548.55,-125.56 1539.22,-123.55"/>
<polygon fill="#63b8ff" stroke="#63b8ff" points="2004.06,-185.56 2014.32,-182.91 2004.65,-178.58 2004.06,-185.56"/>
</a>
</g>
</g>
<!-- Node41 -->
<g id="Node000041" class="node">
<title>Node41</title>
<g id="a_Node000041"><a xlink:href="Spawn_8cpp.html" target="_top" xlink:title=" ">
<polygon fill="white" stroke="#666666" points="1760.5,-123.5 1575.5,-123.5 1575.5,-82.5 1760.5,-82.5 1760.5,-123.5"/>
<text text-anchor="start" x="1583.5" y="-111.5" font-family="Helvetica,sans-Serif" font-size="10.00">/home/runner/work/R</text>
<text text-anchor="start" x="1583.5" y="-100.5" font-family="Helvetica,sans-Serif" font-size="10.00">&#45;Type/R&#45;Type/Shared</text>
<text text-anchor="middle" x="1668" y="-89.5" font-family="Helvetica,sans-Serif" font-size="10.00">/systems/SpawnEnemy/Spawn.cpp</text>
</a>
</g>
</g>
<!-- Node9&#45;&gt;Node41 -->
<g id="edge45_Node000009_Node000041" class="edge">
<title>Node9&#45;&gt;Node41</title>
<g id="a_edge45_Node000009_Node000041"><a xlink:title=" ">
<path fill="none" stroke="#63b8ff" d="M2004.32,-173.09C1937.39,-161.66 1848.27,-145.66 1770,-129 1762.06,-127.31 1753.81,-125.45 1745.58,-123.54"/>
<polygon fill="#63b8ff" stroke="#63b8ff" points="2004,-176.59 2014.44,-174.82 2005.17,-169.69 2004,-176.59"/>
</a>
</g>
</g>
<!-- Node42 -->
<g id="Node000042" class="node">
<title>Node42</title>
<g id="a_Node000042"><a xlink:href="WaveSystem_8cpp.html" target="_top" xlink:title=" ">
<polygon fill="white" stroke="#666666" points="1927,-123.5 1779,-123.5 1779,-82.5 1927,-82.5 1927,-123.5"/>
<text text-anchor="start" x="1787" y="-111.5" font-family="Helvetica,sans-Serif" font-size="10.00">/home/runner/work/R</text>
<text text-anchor="start" x="1787" y="-100.5" font-family="Helvetica,sans-Serif" font-size="10.00">&#45;Type/R&#45;Type/Shared</text>
<text text-anchor="middle" x="1853" y="-89.5" font-family="Helvetica,sans-Serif" font-size="10.00">/systems/WaveSystem.cpp</text>
</a>
</g>
</g>
<!-- Node9&#45;&gt;Node42 -->
<g id="edge46_Node000009_Node000042" class="edge">
<title>Node9&#45;&gt;Node42</title>
<g id="a_edge46_Node000009_Node000042"><a xlink:title=" ">
<path fill="none" stroke="#63b8ff" d="M2039.66,-167.2C1999.55,-153.62 1949.16,-136.56 1910.85,-123.59"/>
<polygon fill="#63b8ff" stroke="#63b8ff" points="2038.77,-170.59 2049.36,-170.49 2041.01,-163.96 2038.77,-170.59"/>
</a>
</g>
</g>
<!-- Node11 -->
<g id="Node000011" class="node">
<title>Node11</title>
<g id="a_Node000011"><a xlink:href="CreateLobby_8cpp.html" target="_top" xlink:title=" ">
<polygon fill="white" stroke="#666666" points="2100,-41 1946,-41 1946,0 2100,0 2100,-41"/>
<text text-anchor="start" x="1954" y="-29" font-family="Helvetica,sans-Serif" font-size="10.00">/home/runner/work/R</text>
<text text-anchor="start" x="1954" y="-18" font-family="Helvetica,sans-Serif" font-size="10.00">&#45;Type/R&#45;Type/Client</text>
<text text-anchor="middle" x="2023" y="-7" font-family="Helvetica,sans-Serif" font-size="10.00">/src/scenes/CreateLobby.cpp</text>
</a>
</g>
</g>
<!-- Node10&#45;&gt;Node11 -->
<g id="edge13_Node000010_Node000011" class="edge">
<title>Node10&#45;&gt;Node11</title>
<g id="a_edge13_Node000010_Node000011"><a xlink:title=" ">
<path fill="none" stroke="#63b8ff" d="M2023,-71.87C2023,-61.6 2023,-50.4 2023,-41.17"/>
<polygon fill="#63b8ff" stroke="#63b8ff" points="2019.5,-72.1 2023,-82.1 2026.5,-72.1 2019.5,-72.1"/>
</a>
</g>
</g>
<!-- Node13 -->
<g id="Node000013" class="node">
<title>Node13</title>
<g id="a_Node000013"><a xlink:href="GameOver_8cpp.html" target="_top" xlink:title=" ">
<polygon fill="white" stroke="#666666" points="2265,-41 2119,-41 2119,0 2265,0 2265,-41"/>
<text text-anchor="start" x="2127" y="-29" font-family="Helvetica,sans-Serif" font-size="10.00">/home/runner/work/R</text>
<text text-anchor="start" x="2127" y="-18" font-family="Helvetica,sans-Serif" font-size="10.00">&#45;Type/R&#45;Type/Client</text>
<text text-anchor="middle" x="2192" y="-7" font-family="Helvetica,sans-Serif" font-size="10.00">/src/scenes/GameOver.cpp</text>
</a>
</g>
</g>
<!-- Node12&#45;&gt;Node13 -->
<g id="edge15_Node000012_Node000013" class="edge">
<title>Node12&#45;&gt;Node13</title>
<g id="a_edge15_Node000012_Node000013"><a xlink:title=" ">
<path fill="none" stroke="#63b8ff" d="M2192,-71.87C2192,-61.6 2192,-50.4 2192,-41.17"/>
<polygon fill="#63b8ff" stroke="#63b8ff" points="2188.5,-72.1 2192,-82.1 2195.5,-72.1 2188.5,-72.1"/>
</a>
</g>
</g>
<!-- Node15 -->
<g id="Node000015" class="node">
<title>Node15</title>
<g id="a_Node000015"><a xlink:href="JoinGame_8cpp.html" target="_top" xlink:title=" ">
<polygon fill="white" stroke="#666666" points="2424.5,-41 2283.5,-41 2283.5,0 2424.5,0 2424.5,-41"/>
<text text-anchor="start" x="2291.5" y="-29" font-family="Helvetica,sans-Serif" font-size="10.00">/home/runner/work/R</text>
<text text-anchor="start" x="2291.5" y="-18" font-family="Helvetica,sans-Serif" font-size="10.00">&#45;Type/R&#45;Type/Client</text>
<text text-anchor="middle" x="2354" y="-7" font-family="Helvetica,sans-Serif" font-size="10.00">/src/scenes/JoinGame.cpp</text>
</a>
</g>
</g>
<!-- Node14&#45;&gt;Node15 -->
<g id="edge17_Node000014_Node000015" class="edge">
<title>Node14&#45;&gt;Node15</title>
<g id="a_edge17_Node000014_Node000015"><a xlink:title=" ">
<path fill="none" stroke="#63b8ff" d="M2354,-71.87C2354,-61.6 2354,-50.4 2354,-41.17"/>
<polygon fill="#63b8ff" stroke="#63b8ff" points="2350.5,-72.1 2354,-82.1 2357.5,-72.1 2350.5,-72.1"/>
</a>
</g>
</g>
<!-- Node17 -->
<g id="Node000017" class="node">
<title>Node17</title>
<g id="a_Node000017"><a xlink:href="LevelScene_8cpp.html" target="_top" xlink:title=" ">
<polygon fill="white" stroke="#666666" points="2592.5,-41 2443.5,-41 2443.5,0 2592.5,0 2592.5,-41"/>
<text text-anchor="start" x="2451.5" y="-29" font-family="Helvetica,sans-Serif" font-size="10.00">/home/runner/work/R</text>
<text text-anchor="start" x="2451.5" y="-18" font-family="Helvetica,sans-Serif" font-size="10.00">&#45;Type/R&#45;Type/Client</text>
<text text-anchor="middle" x="2518" y="-7" font-family="Helvetica,sans-Serif" font-size="10.00">/src/scenes/LevelScene.cpp</text>
</a>
</g>
</g>
<!-- Node16&#45;&gt;Node17 -->
<g id="edge19_Node000016_Node000017" class="edge">
<title>Node16&#45;&gt;Node17</title>
<g id="a_edge19_Node000016_Node000017"><a xlink:title=" ">
<path fill="none" stroke="#63b8ff" d="M2518,-71.87C2518,-61.6 2518,-50.4 2518,-41.17"/>
<polygon fill="#63b8ff" stroke="#63b8ff" points="2514.5,-72.1 2518,-82.1 2521.5,-72.1 2514.5,-72.1"/>
</a>
</g>
</g>
<!-- Node19 -->
<g id="Node000019" class="node">
<title>Node19</title>
<g id="a_Node000019"><a xlink:href="Lobby_8cpp.html" target="_top" xlink:title=" ">
<polygon fill="white" stroke="#666666" points="2733,-41 2611,-41 2611,0 2733,0 2733,-41"/>
<text text-anchor="start" x="2619" y="-29" font-family="Helvetica,sans-Serif" font-size="10.00">/home/runner/work/R</text>
<text text-anchor="start" x="2619" y="-18" font-family="Helvetica,sans-Serif" font-size="10.00">&#45;Type/R&#45;Type/Client</text>
<text text-anchor="middle" x="2672" y="-7" font-family="Helvetica,sans-Serif" font-size="10.00">/src/scenes/Lobby.cpp</text>
</a>
</g>
</g>
<!-- Node18&#45;&gt;Node19 -->
<g id="edge21_Node000018_Node000019" class="edge">
<title>Node18&#45;&gt;Node19</title>
<g id="a_edge21_Node000018_Node000019"><a xlink:title=" ">
<path fill="none" stroke="#63b8ff" d="M2672,-71.87C2672,-61.6 2672,-50.4 2672,-41.17"/>
<polygon fill="#63b8ff" stroke="#63b8ff" points="2668.5,-72.1 2672,-82.1 2675.5,-72.1 2668.5,-72.1"/>
</a>
</g>
</g>
<!-- Node21 -->
<g id="Node000021" class="node">
<title>Node21</title>
<g id="a_Node000021"><a xlink:href="LobbyInfo_8cpp.html" target="_top" xlink:title=" ">
<polygon fill="white" stroke="#666666" points="2894,-41 2752,-41 2752,0 2894,0 2894,-41"/>
<text text-anchor="start" x="2760" y="-29" font-family="Helvetica,sans-Serif" font-size="10.00">/home/runner/work/R</text>
<text text-anchor="start" x="2760" y="-18" font-family="Helvetica,sans-Serif" font-size="10.00">&#45;Type/R&#45;Type/Client</text>
<text text-anchor="middle" x="2823" y="-7" font-family="Helvetica,sans-Serif" font-size="10.00">/src/scenes/LobbyInfo.cpp</text>
</a>
</g>
</g>
<!-- Node20&#45;&gt;Node21 -->
<g id="edge23_Node000020_Node000021" class="edge">
<title>Node20&#45;&gt;Node21</title>
<g id="a_edge23_Node000020_Node000021"><a xlink:title=" ">
<path fill="none" stroke="#63b8ff" d="M2823,-71.87C2823,-61.6 2823,-50.4 2823,-41.17"/>
<polygon fill="#63b8ff" stroke="#63b8ff" points="2819.5,-72.1 2823,-82.1 2826.5,-72.1 2819.5,-72.1"/>
</a>
</g>
</g>
<!-- Node23 -->
<g id="Node000023" class="node">
<title>Node23</title>
<g id="a_Node000023"><a xlink:href="LobbyJoin_8cpp.html" target="_top" xlink:title=" ">
<polygon fill="white" stroke="#666666" points="3054.5,-41 2913.5,-41 2913.5,0 3054.5,0 3054.5,-41"/>
<text text-anchor="start" x="2921.5" y="-29" font-family="Helvetica,sans-Serif" font-size="10.00">/home/runner/work/R</text>
<text text-anchor="start" x="2921.5" y="-18" font-family="Helvetica,sans-Serif" font-size="10.00">&#45;Type/R&#45;Type/Client</text>
<text text-anchor="middle" x="2984" y="-7" font-family="Helvetica,sans-Serif" font-size="10.00">/src/scenes/LobbyJoin.cpp</text>
</a>
</g>
</g>
<!-- Node22&#45;&gt;Node23 -->
<g id="edge25_Node000022_Node000023" class="edge">
<title>Node22&#45;&gt;Node23</title>
<g id="a_edge25_Node000022_Node000023"><a xlink:title=" ">
<path fill="none" stroke="#63b8ff" d="M2984,-71.87C2984,-61.6 2984,-50.4 2984,-41.17"/>
<polygon fill="#63b8ff" stroke="#63b8ff" points="2980.5,-72.1 2984,-82.1 2987.5,-72.1 2980.5,-72.1"/>
</a>
</g>
</g>
<!-- Node25 -->
<g id="Node000025" class="node">
<title>Node25</title>
<g id="a_Node000025"><a xlink:href="LobbyPassword_8cpp.html" target="_top" xlink:title=" ">
<polygon fill="white" stroke="#666666" points="3242.5,-41 3073.5,-41 3073.5,0 3242.5,0 3242.5,-41"/>
<text text-anchor="start" x="3081.5" y="-29" font-family="Helvetica,sans-Serif" font-size="10.00">/home/runner/work/R</text>
<text text-anchor="start" x="3081.5" y="-18" font-family="Helvetica,sans-Serif" font-size="10.00">&#45;Type/R&#45;Type/Client</text>
<text text-anchor="middle" x="3158" y="-7" font-family="Helvetica,sans-Serif" font-size="10.00">/src/scenes/LobbyPassword.cpp</text>
</a>
</g>
</g>
<!-- Node24&#45;&gt;Node25 -->
<g id="edge27_Node000024_Node000025" class="edge">
<title>Node24&#45;&gt;Node25</title>
<g id="a_edge27_Node000024_Node000025"><a xlink:title=" ">
<path fill="none" stroke="#63b8ff" d="M3158,-71.87C3158,-61.6 3158,-50.4 3158,-41.17"/>
<polygon fill="#63b8ff" stroke="#63b8ff" points="3154.5,-72.1 3158,-82.1 3161.5,-72.1 3154.5,-72.1"/>
</a>
</g>
</g>
<!-- Node27 -->
<g id="Node000027" class="node">
<title>Node27</title>
<g id="a_Node000027"><a xlink:href="MainGame_8cpp.html" target="_top" xlink:title=" ">
<polygon fill="white" stroke="#666666" points="3408.5,-41 3261.5,-41 3261.5,0 3408.5,0 3408.5,-41"/>
<text text-anchor="start" x="3269.5" y="-29" font-family="Helvetica,sans-Serif" font-size="10.00">/home/runner/work/R</text>
<text text-anchor="start" x="3269.5" y="-18" font-family="Helvetica,sans-Serif" font-size="10.00">&#45;Type/R&#45;Type/Client</text>
<text text-anchor="middle" x="3335" y="-7" font-family="Helvetica,sans-Serif" font-size="10.00">/src/scenes/MainGame.cpp</text>
</a>
</g>
</g>
<!-- Node26&#45;&gt;Node27 -->
<g id="edge29_Node000026_Node000027" class="edge">
<title>Node26&#45;&gt;Node27</title>
<g id="a_edge29_Node000026_Node000027"><a xlink:title=" ">
<path fill="none" stroke="#63b8ff" d="M3335,-71.87C3335,-61.6 3335,-50.4 3335,-41.17"/>
<polygon fill="#63b8ff" stroke="#63b8ff" points="3331.5,-72.1 3335,-82.1 3338.5,-72.1 3331.5,-72.1"/>
</a>
</g>
</g>
<!-- Node29 -->
<g id="Node000029" class="node">
<title>Node29</title>
<g id="a_Node000029"><a xlink:href="MainMenu_8cpp.html" target="_top" xlink:title=" ">
<polygon fill="white" stroke="#666666" points="3572.5,-41 3427.5,-41 3427.5,0 3572.5,0 3572.5,-41"/>
<text text-anchor="start" x="3435.5" y="-29" font-family="Helvetica,sans-Serif" font-size="10.00">/home/runner/work/R</text>
<text text-anchor="start" x="3435.5" y="-18" font-family="Helvetica,sans-Serif" font-size="10.00">&#45;Type/R&#45;Type/Client</text>
<text text-anchor="middle" x="3500" y="-7" font-family="Helvetica,sans-Serif" font-size="10.00">/src/scenes/MainMenu.cpp</text>
</a>
</g>
</g>
<!-- Node28&#45;&gt;Node29 -->
<g id="edge31_Node000028_Node000029" class="edge">
<title>Node28&#45;&gt;Node29</title>
<g id="a_edge31_Node000028_Node000029"><a xlink:title=" ">
<path fill="none" stroke="#63b8ff" d="M3500,-71.87C3500,-61.6 3500,-50.4 3500,-41.17"/>
<polygon fill="#63b8ff" stroke="#63b8ff" points="3496.5,-72.1 3500,-82.1 3503.5,-72.1 3496.5,-72.1"/>
</a>
</g>
</g>
<!-- Node31 -->
<g id="Node000031" class="node">
<title>Node31</title>
<g id="a_Node000031"><a xlink:href="Options_8cpp.html" target="_top" xlink:title=" ">
<polygon fill="white" stroke="#666666" points="3722.5,-41 3591.5,-41 3591.5,0 3722.5,0 3722.5,-41"/>
<text text-anchor="start" x="3599.5" y="-29" font-family="Helvetica,sans-Serif" font-size="10.00">/home/runner/work/R</text>
<text text-anchor="start" x="3599.5" y="-18" font-family="Helvetica,sans-Serif" font-size="10.00">&#45;Type/R&#45;Type/Client</text>
<text text-anchor="middle" x="3657" y="-7" font-family="Helvetica,sans-Serif" font-size="10.00">/src/scenes/Options.cpp</text>
</a>
</g>
</g>
<!-- Node30&#45;&gt;Node31 -->
<g id="edge33_Node000030_Node000031" class="edge">
<title>Node30&#45;&gt;Node31</title>
<g id="a_edge33_Node000030_Node000031"><a xlink:title=" ">
<path fill="none" stroke="#63b8ff" d="M3657,-71.87C3657,-61.6 3657,-50.4 3657,-41.17"/>
<polygon fill="#63b8ff" stroke="#63b8ff" points="3653.5,-72.1 3657,-82.1 3660.5,-72.1 3653.5,-72.1"/>
</a>
</g>
</g>
<!-- Node33 -->
<g id="Node000033" class="node">
<title>Node33</title>
<g id="a_Node000033"><a xlink:href="SecondGameClient_8cpp.html" target="_top" xlink:title=" ">
<polygon fill="white" stroke="#666666" points="3928.5,-41 3741.5,-41 3741.5,0 3928.5,0 3928.5,-41"/>
<text text-anchor="start" x="3749.5" y="-29" font-family="Helvetica,sans-Serif" font-size="10.00">/home/runner/work/R</text>
<text text-anchor="start" x="3749.5" y="-18" font-family="Helvetica,sans-Serif" font-size="10.00">&#45;Type/R&#45;Type/Client</text>
<text text-anchor="middle" x="3835" y="-7" font-family="Helvetica,sans-Serif" font-size="10.00">/src/scenes/SecondGameClient.cpp</text>
</a>
</g>
</g>
<!-- Node32&#45;&gt;Node33 -->
<g id="edge36_Node000032_Node000033" class="edge">
<title>Node32&#45;&gt;Node33</title>
<g id="a_edge36_Node000032_Node000033"><a xlink:title=" ">
<path fill="none" stroke="#63b8ff" d="M3835,-71.87C3835,-61.6 3835,-50.4 3835,-41.17"/>
<polygon fill="#63b8ff" stroke="#63b8ff" points="3831.5,-72.1 3835,-82.1 3838.5,-72.1 3831.5,-72.1"/>
</a>
</g>
</g>
<!-- Node35 -->
<g id="Node000035" class="node">
<title>Node35</title>
<g id="a_Node000035"><a xlink:href="Victory_8cpp.html" target="_top" xlink:title=" ">
<polygon fill="white" stroke="#666666" points="848.5,-41 721.5,-41 721.5,0 848.5,0 848.5,-41"/>
<text text-anchor="start" x="729.5" y="-29" font-family="Helvetica,sans-Serif" font-size="10.00">/home/runner/work/R</text>
<text text-anchor="start" x="729.5" y="-18" font-family="Helvetica,sans-Serif" font-size="10.00">&#45;Type/R&#45;Type/Client</text>
<text text-anchor="middle" x="785" y="-7" font-family="Helvetica,sans-Serif" font-size="10.00">/src/scenes/Victory.cpp</text>
</a>
</g>
</g>
<!-- Node34&#45;&gt;Node35 -->
<g id="edge38_Node000034_Node000035" class="edge">
<title>Node34&#45;&gt;Node35</title>
<g id="a_edge38_Node000034_Node000035"><a xlink:title=" ">
<path fill="none" stroke="#63b8ff" d="M785,-71.87C785,-61.6 785,-50.4 785,-41.17"/>
<polygon fill="#63b8ff" stroke="#63b8ff" points="781.5,-72.1 785,-82.1 788.5,-72.1 781.5,-72.1"/>
</a>
</g>
</g>
<!-- Node37 -->
<g id="Node000037" class="node">
<title>Node37</title>
<g id="a_Node000037"><a xlink:href="WaitLobby_8cpp.html" target="_top" xlink:title=" ">
<polygon fill="white" stroke="#666666" points="1010.5,-41 867.5,-41 867.5,0 1010.5,0 1010.5,-41"/>
<text text-anchor="start" x="875.5" y="-29" font-family="Helvetica,sans-Serif" font-size="10.00">/home/runner/work/R</text>
<text text-anchor="start" x="875.5" y="-18" font-family="Helvetica,sans-Serif" font-size="10.00">&#45;Type/R&#45;Type/Client</text>
<text text-anchor="middle" x="939" y="-7" font-family="Helvetica,sans-Serif" font-size="10.00">/src/scenes/WaitLobby.cpp</text>
</a>
</g>
</g>
<!-- Node36&#45;&gt;Node37 -->
<g id="edge40_Node000036_Node000037" class="edge">
<title>Node36&#45;&gt;Node37</title>
<g id="a_edge40_Node000036_Node000037"><a xlink:title=" ">
<path fill="none" stroke="#63b8ff" d="M939,-71.87C939,-61.6 939,-50.4 939,-41.17"/>
<polygon fill="#63b8ff" stroke="#63b8ff" points="935.5,-72.1 939,-82.1 942.5,-72.1 935.5,-72.1"/>
</a>
</g>
</g>
<!-- Node43&#45;&gt;Node5 -->
<g id="edge48_Node000043_Node000005" class="edge">
<title>Node43&#45;&gt;Node5</title>
<g id="a_edge48_Node000043_Node000005"><a xlink:title=" ">
<path fill="none" stroke="#63b8ff" d="M250.93,-161.46C257.83,-149.09 265.75,-134.91 271.99,-123.74"/>
<polygon fill="#63b8ff" stroke="#63b8ff" points="247.71,-160.05 245.89,-170.49 253.82,-163.46 247.71,-160.05"/>
</a>
</g>
</g>
</g>
</svg>
