<?xml version="1.0" encoding="UTF-8" standalone="no"?>
<!DOCTYPE svg PUBLIC "-//W3C//DTD SVG 1.1//EN"
 "http://www.w3.org/Graphics/SVG/1.1/DTD/svg11.dtd">
<!-- Generated by graphviz version 2.43.0 (0)
 -->
<!-- Title: /home/runner/work/R&#45;Type/R&#45;Type/Server/src/network/UDPServer.cpp Pages: 1 -->
<svg width="467pt" height="159pt"
 viewBox="0.00 0.00 467.00 159.00" xmlns="http://www.w3.org/2000/svg" xmlns:xlink="http://www.w3.org/1999/xlink">
<g id="graph0" class="graph" transform="scale(1 1) rotate(0) translate(4 155)">
<title>/home/runner/work/R&#45;Type/R&#45;Type/Server/src/network/UDPServer.cpp</title>
<!-- Node1 -->
<g id="Node000001" class="node">
<title>Node1</title>
<g id="a_Node000001"><a xlink:title=" ">
<polygon fill="#999999" stroke="#666666" points="412.5,-151 260.5,-151 260.5,-110 412.5,-110 412.5,-151"/>
<text text-anchor="start" x="268.5" y="-139" font-family="Helvetica,sans-Serif" font-size="10.00">/home/runner/work/R</text>
<text text-anchor="start" x="268.5" y="-128" font-family="Helvetica,sans-Serif" font-size="10.00">&#45;Type/R&#45;Type/Server</text>
<text text-anchor="middle" x="336.5" y="-117" font-family="Helvetica,sans-Serif" font-size="10.00">/src/network/UDPServer.cpp</text>
</a>
</g>
</g>
<!-- Node2 -->
<g id="Node000002" class="node">
<title>Node2</title>
<g id="a_Node000002"><a xlink:href="UDPServer_8hpp.html" target="_top" xlink:title=" ">
<polygon fill="white" stroke="#666666" points="268.5,-74 136.5,-74 136.5,-55 268.5,-55 268.5,-74"/>
<text text-anchor="middle" x="202.5" y="-62" font-family="Helvetica,sans-Serif" font-size="10.00">network/UDPServer.hpp</text>
</a>
</g>
</g>
<!-- Node1&#45;&gt;Node2 -->
<g id="edge1_Node000001_Node000002" class="edge">
<title>Node1&#45;&gt;Node2</title>
<g id="a_edge1_Node000001_Node000002"><a xlink:title=" ">
<path fill="none" stroke="#63b8ff" d="M295.57,-109.95C274.2,-99.75 248.64,-87.54 229.72,-78.5"/>
<polygon fill="#63b8ff" stroke="#63b8ff" points="231.02,-75.24 220.49,-74.09 228,-81.56 231.02,-75.24"/>
</a>
</g>
</g>
<!-- Node5 -->
<g id="Node000005" class="node">
<title>Node5</title>
<g id="a_Node000005"><a xlink:title=" ">
<polygon fill="#e0e0e0" stroke="#999999" points="343,-19 296,-19 296,0 343,0 343,-19"/>
<text text-anchor="middle" x="319.5" y="-7" font-family="Helvetica,sans-Serif" font-size="10.00">vector</text>
</a>
</g>
</g>
<!-- Node1&#45;&gt;Node5 -->
<g id="edge9_Node000001_Node000005" class="edge">
<title>Node1&#45;&gt;Node5</title>
<g id="a_edge9_Node000001_Node000005"><a xlink:title=" ">
<path fill="none" stroke="#63b8ff" d="M332.61,-109.78C330.6,-99.2 328.23,-85.92 326.5,-74 324.33,-59.04 322.49,-42.01 321.24,-29.36"/>
<polygon fill="#63b8ff" stroke="#63b8ff" points="324.7,-28.77 320.26,-19.15 317.73,-29.44 324.7,-28.77"/>
</a>
</g>
</g>
<!-- Node8 -->
<g id="Node000008" class="node">
<title>Node8</title>
<g id="a_Node000008"><a xlink:title=" ">
<polygon fill="#e0e0e0" stroke="#999999" points="395.5,-74 335.5,-74 335.5,-55 395.5,-55 395.5,-74"/>
<text text-anchor="middle" x="365.5" y="-62" font-family="Helvetica,sans-Serif" font-size="10.00">iostream</text>
</a>
</g>
</g>
<!-- Node1&#45;&gt;Node8 -->
<g id="edge7_Node000001_Node000008" class="edge">
<title>Node1&#45;&gt;Node8</title>
<g id="a_edge7_Node000001_Node000008"><a xlink:title=" ">
<path fill="none" stroke="#63b8ff" d="M345.36,-109.95C349.15,-101.58 353.56,-91.85 357.28,-83.64"/>
<polygon fill="#63b8ff" stroke="#63b8ff" points="360.59,-84.81 361.53,-74.26 354.22,-81.92 360.59,-84.81"/>
</a>
</g>
</g>
<!-- Node9 -->
<g id="Node000009" class="node">
<title>Node9</title>
<g id="a_Node000009"><a xlink:title=" ">
<polygon fill="#e0e0e0" stroke="#999999" points="459,-74 414,-74 414,-55 459,-55 459,-74"/>
<text text-anchor="middle" x="436.5" y="-62" font-family="Helvetica,sans-Serif" font-size="10.00">utility</text>
</a>
</g>
</g>
<!-- Node1&#45;&gt;Node9 -->
<g id="edge8_Node000001_Node000009" class="edge">
<title>Node1&#45;&gt;Node9</title>
<g id="a_edge8_Node000001_Node000009"><a xlink:title=" ">
<path fill="none" stroke="#63b8ff" d="M367.05,-109.95C382.41,-100.12 400.67,-88.43 414.61,-79.51"/>
<polygon fill="#63b8ff" stroke="#63b8ff" points="416.54,-82.43 423.08,-74.09 412.77,-76.53 416.54,-82.43"/>
</a>
</g>
</g>
<!-- Node3 -->
<g id="Node000003" class="node">
<title>Node3</title>
<g id="a_Node000003"><a xlink:title=" ">
<polygon fill="#e0e0e0" stroke="#999999" points="65,-19 0,-19 0,0 65,0 65,-19"/>
<text text-anchor="middle" x="32.5" y="-7" font-family="Helvetica,sans-Serif" font-size="10.00">functional</text>
</a>
</g>
</g>
<!-- Node2&#45;&gt;Node3 -->
<g id="edge2_Node000002_Node000003" class="edge">
<title>Node2&#45;&gt;Node3</title>
<g id="a_edge2_Node000002_Node000003"><a xlink:title=" ">
<path fill="none" stroke="#63b8ff" d="M175.19,-54.98C146.65,-46.09 101.67,-32.07 69.86,-22.15"/>
<polygon fill="#63b8ff" stroke="#63b8ff" points="70.62,-18.72 60.03,-19.08 68.53,-25.4 70.62,-18.72"/>
</a>
</g>
</g>
<!-- Node4 -->
<g id="Node000004" class="node">
<title>Node4</title>
<g id="a_Node000004"><a xlink:title=" ">
<polygon fill="#e0e0e0" stroke="#999999" points="141.5,-19 83.5,-19 83.5,0 141.5,0 141.5,-19"/>
<text text-anchor="middle" x="112.5" y="-7" font-family="Helvetica,sans-Serif" font-size="10.00">memory</text>
</a>
</g>
</g>
<!-- Node2&#45;&gt;Node4 -->
<g id="edge3_Node000002_Node000004" class="edge">
<title>Node2&#45;&gt;Node4</title>
<g id="a_edge3_Node000002_Node000004"><a xlink:title=" ">
<path fill="none" stroke="#63b8ff" d="M188.04,-54.98C174.08,-46.77 152.71,-34.18 136.25,-24.49"/>
<polygon fill="#63b8ff" stroke="#63b8ff" points="137.62,-21.23 127.22,-19.17 134.06,-27.26 137.62,-21.23"/>
</a>
</g>
</g>
<!-- Node2&#45;&gt;Node5 -->
<g id="edge4_Node000002_Node000005" class="edge">
<title>Node2&#45;&gt;Node5</title>
<g id="a_edge4_Node000002_Node000005"><a xlink:title=" ">
<path fill="none" stroke="#63b8ff" d="M221.3,-54.98C240.12,-46.46 269.32,-33.23 291,-23.41"/>
<polygon fill="#63b8ff" stroke="#63b8ff" points="292.7,-26.48 300.36,-19.17 289.81,-20.11 292.7,-26.48"/>
</a>
</g>
</g>
<!-- Node6 -->
<g id="Node000006" class="node">
<title>Node6</title>
<g id="a_Node000006"><a xlink:title=" ">
<polygon fill="#e0e0e0" stroke="#999999" points="201.5,-19 159.5,-19 159.5,0 201.5,0 201.5,-19"/>
<text text-anchor="middle" x="180.5" y="-7" font-family="Helvetica,sans-Serif" font-size="10.00">array</text>
</a>
</g>
</g>
<!-- Node2&#45;&gt;Node6 -->
<g id="edge5_Node000002_Node000006" class="edge">
<title>Node2&#45;&gt;Node6</title>
<g id="a_edge5_Node000002_Node000006"><a xlink:title=" ">
<path fill="none" stroke="#63b8ff" d="M198.87,-54.75C195.92,-47.65 191.67,-37.4 187.99,-28.56"/>
<polygon fill="#63b8ff" stroke="#63b8ff" points="191.13,-26.98 184.07,-19.09 184.67,-29.67 191.13,-26.98"/>
</a>
</g>
</g>
<!-- Node7 -->
<g id="Node000007" class="node">
<title>Node7</title>
<g id="a_Node000007"><a xlink:title=" ">
<polygon fill="#e0e0e0" stroke="#999999" points="277.5,-19 219.5,-19 219.5,0 277.5,0 277.5,-19"/>
<text text-anchor="middle" x="248.5" y="-7" font-family="Helvetica,sans-Serif" font-size="10.00">asio.hpp</text>
</a>
</g>
</g>
<!-- Node2&#45;&gt;Node7 -->
<g id="edge6_Node000002_Node000007" class="edge">
<title>Node2&#45;&gt;Node7</title>
<g id="a_edge6_Node000002_Node000007"><a xlink:title=" ">
<path fill="none" stroke="#63b8ff" d="M210.1,-54.75C216.66,-47.18 226.32,-36.05 234.31,-26.84"/>
<polygon fill="#63b8ff" stroke="#63b8ff" points="237.13,-28.94 241.05,-19.09 231.85,-24.35 237.13,-28.94"/>
</a>
</g>
</g>
</g>
</svg>
