<?xml version="1.0" encoding="UTF-8" standalone="no"?>
<!DOCTYPE svg PUBLIC "-//W3C//DTD SVG 1.1//EN"
 "http://www.w3.org/Graphics/SVG/1.1/DTD/svg11.dtd">
<!-- Generated by graphviz version 2.43.0 (0)
 -->
<!-- Title: /home/runner/work/R&#45;Type/R&#45;Type/Server/include/network/UDPServer.hpp Pages: 1 -->
<svg width="352pt" height="104pt"
 viewBox="0.00 0.00 351.50 104.00" xmlns="http://www.w3.org/2000/svg" xmlns:xlink="http://www.w3.org/1999/xlink">
<g id="graph0" class="graph" transform="scale(1 1) rotate(0) translate(4 100)">
<title>/home/runner/work/R&#45;Type/R&#45;Type/Server/include/network/UDPServer.hpp</title>
<!-- Node1 -->
<g id="Node000001" class="node">
<title>Node1</title>
<g id="a_Node000001"><a xlink:title=" ">
<polygon fill="#999999" stroke="#666666" points="270,-96 97,-96 97,-55 270,-55 270,-96"/>
<text text-anchor="start" x="105" y="-84" font-family="Helvetica,sans-Serif" font-size="10.00">/home/runner/work/R</text>
<text text-anchor="start" x="105" y="-73" font-family="Helvetica,sans-Serif" font-size="10.00">&#45;Type/R&#45;Type/Server</text>
<text text-anchor="middle" x="183.5" y="-62" font-family="Helvetica,sans-Serif" font-size="10.00">/include/network/UDPServer.hpp</text>
</a>
</g>
</g>
<!-- Node2 -->
<g id="Node000002" class="node">
<title>Node2</title>
<g id="a_Node000002"><a xlink:title=" ">
<polygon fill="#e0e0e0" stroke="#999999" points="65,-19 0,-19 0,0 65,0 65,-19"/>
<text text-anchor="middle" x="32.5" y="-7" font-family="Helvetica,sans-Serif" font-size="10.00">functional</text>
</a>
</g>
</g>
<!-- Node1&#45;&gt;Node2 -->
<g id="edge1_Node000001_Node000002" class="edge">
<title>Node1&#45;&gt;Node2</title>
<g id="a_edge1_Node000001_Node000002"><a xlink:title=" ">
<path fill="none" stroke="#63b8ff" d="M137.37,-54.95C112.86,-44.56 83.44,-32.09 62.01,-23.01"/>
<polygon fill="#63b8ff" stroke="#63b8ff" points="63.34,-19.77 52.77,-19.09 60.61,-26.22 63.34,-19.77"/>
</a>
</g>
</g>
<!-- Node3 -->
<g id="Node000003" class="node">
<title>Node3</title>
<g id="a_Node000003"><a xlink:title=" ">
<polygon fill="#e0e0e0" stroke="#999999" points="141.5,-19 83.5,-19 83.5,0 141.5,0 141.5,-19"/>
<text text-anchor="middle" x="112.5" y="-7" font-family="Helvetica,sans-Serif" font-size="10.00">memory</text>
</a>
</g>
</g>
<!-- Node1&#45;&gt;Node3 -->
<g id="edge2_Node000001_Node000003" class="edge">
<title>Node1&#45;&gt;Node3</title>
<g id="a_edge2_Node000001_Node000003"><a xlink:title=" ">
<path fill="none" stroke="#63b8ff" d="M161.81,-54.95C151.49,-45.65 139.32,-34.68 129.65,-25.96"/>
<polygon fill="#63b8ff" stroke="#63b8ff" points="131.99,-23.36 122.22,-19.26 127.3,-28.56 131.99,-23.36"/>
</a>
</g>
</g>
<!-- Node4 -->
<g id="Node000004" class="node">
<title>Node4</title>
<g id="a_Node000004"><a xlink:title=" ">
<polygon fill="#e0e0e0" stroke="#999999" points="207,-19 160,-19 160,0 207,0 207,-19"/>
<text text-anchor="middle" x="183.5" y="-7" font-family="Helvetica,sans-Serif" font-size="10.00">vector</text>
</a>
</g>
</g>
<!-- Node1&#45;&gt;Node4 -->
<g id="edge3_Node000001_Node000004" class="edge">
<title>Node1&#45;&gt;Node4</title>
<g id="a_edge3_Node000001_Node000004"><a xlink:title=" ">
<path fill="none" stroke="#63b8ff" d="M183.5,-54.95C183.5,-46.85 183.5,-37.5 183.5,-29.47"/>
<polygon fill="#63b8ff" stroke="#63b8ff" points="187,-29.26 183.5,-19.26 180,-29.26 187,-29.26"/>
</a>
</g>
</g>
<!-- Node5 -->
<g id="Node000005" class="node">
<title>Node5</title>
<g id="a_Node000005"><a xlink:title=" ">
<polygon fill="#e0e0e0" stroke="#999999" points="267.5,-19 225.5,-19 225.5,0 267.5,0 267.5,-19"/>
<text text-anchor="middle" x="246.5" y="-7" font-family="Helvetica,sans-Serif" font-size="10.00">array</text>
</a>
</g>
</g>
<!-- Node1&#45;&gt;Node5 -->
<g id="edge4_Node000001_Node000005" class="edge">
<title>Node1&#45;&gt;Node5</title>
<g id="a_edge4_Node000001_Node000005"><a xlink:title=" ">
<path fill="none" stroke="#63b8ff" d="M202.74,-54.95C211.72,-45.83 222.27,-35.11 230.76,-26.49"/>
<polygon fill="#63b8ff" stroke="#63b8ff" points="233.36,-28.84 237.88,-19.26 228.37,-23.93 233.36,-28.84"/>
</a>
</g>
</g>
<!-- Node6 -->
<g id="Node000006" class="node">
<title>Node6</title>
<g id="a_Node000006"><a xlink:title=" ">
<polygon fill="#e0e0e0" stroke="#999999" points="343.5,-19 285.5,-19 285.5,0 343.5,0 343.5,-19"/>
<text text-anchor="middle" x="314.5" y="-7" font-family="Helvetica,sans-Serif" font-size="10.00">asio.hpp</text>
</a>
</g>
</g>
<!-- Node1&#45;&gt;Node6 -->
<g id="edge5_Node000001_Node000006" class="edge">
<title>Node1&#45;&gt;Node6</title>
<g id="a_edge5_Node000001_Node000006"><a xlink:title=" ">
<path fill="none" stroke="#63b8ff" d="M223.52,-54.95C244.4,-44.75 269.39,-32.54 287.89,-23.5"/>
<polygon fill="#63b8ff" stroke="#63b8ff" points="289.46,-26.63 296.91,-19.09 286.39,-20.34 289.46,-26.63"/>
</a>
</g>
</g>
</g>
</svg>
