<?xml version="1.0" encoding="UTF-8" standalone="no"?>
<!DOCTYPE svg PUBLIC "-//W3C//DTD SVG 1.1//EN"
 "http://www.w3.org/Graphics/SVG/1.1/DTD/svg11.dtd">
<!-- Generated by graphviz version 2.43.0 (0)
 -->
<!-- Title: /home/runner/work/R&#45;Type/R&#45;Type/Client/src/engine/ui/UIButton.hpp Pages: 1 -->
<svg width="816pt" height="203pt"
 viewBox="0.00 0.00 816.37 203.00" xmlns="http://www.w3.org/2000/svg" xmlns:xlink="http://www.w3.org/1999/xlink">
<g id="graph0" class="graph" transform="scale(1 1) rotate(0) translate(4 199)">
<title>/home/runner/work/R&#45;Type/R&#45;Type/Client/src/engine/ui/UIButton.hpp</title>
<!-- Node1 -->
<g id="Node000001" class="node">
<title>Node1</title>
<g id="a_Node000001"><a xlink:title=" ">
<polygon fill="#999999" stroke="#666666" points="416.87,-195 267.87,-195 267.87,-154 416.87,-154 416.87,-195"/>
<text text-anchor="start" x="275.87" y="-183" font-family="Helvetica,sans-Serif" font-size="10.00">/home/runner/work/R</text>
<text text-anchor="start" x="275.87" y="-172" font-family="Helvetica,sans-Serif" font-size="10.00">&#45;Type/R&#45;Type/Client</text>
<text text-anchor="middle" x="342.37" y="-161" font-family="Helvetica,sans-Serif" font-size="10.00">/src/engine/ui/UIButton.hpp</text>
</a>
</g>
</g>
<!-- Node2 -->
<g id="Node000002" class="node">
<title>Node2</title>
<g id="a_Node000002"><a xlink:href="Main_8cpp.html" target="_top" xlink:title=" ">
<polygon fill="white" stroke="#666666" points="482.87,-41 363.87,-41 363.87,0 482.87,0 482.87,-41"/>
<text text-anchor="start" x="371.87" y="-29" font-family="Helvetica,sans-Serif" font-size="10.00">/home/runner/work/R</text>
<text text-anchor="start" x="371.87" y="-18" font-family="Helvetica,sans-Serif" font-size="10.00">&#45;Type/R&#45;Type/Client</text>
<text text-anchor="middle" x="423.37" y="-7" font-family="Helvetica,sans-Serif" font-size="10.00">/src/Main.cpp</text>
</a>
</g>
</g>
<!-- Node1&#45;&gt;Node2 -->
<g id="edge1_Node000001_Node000002" class="edge">
<title>Node1&#45;&gt;Node2</title>
<g id="a_edge1_Node000001_Node000002"><a xlink:title=" ">
<path fill="none" stroke="#63b8ff" d="M257.38,-174.3C138.53,-172.6 -55.27,-157.91 15.37,-77 37.94,-51.15 256.16,-32.86 363.86,-25.33"/>
<polygon fill="#63b8ff" stroke="#63b8ff" points="257.54,-177.8 267.57,-174.41 257.62,-170.8 257.54,-177.8"/>
</a>
</g>
</g>
<!-- Node3 -->
<g id="Node000003" class="node">
<title>Node3</title>
<g id="a_Node000003"><a xlink:href="UIButton_8cpp.html" target="_top" xlink:title=" ">
<polygon fill="white" stroke="#666666" points="172.37,-118 24.37,-118 24.37,-77 172.37,-77 172.37,-118"/>
<text text-anchor="start" x="32.37" y="-106" font-family="Helvetica,sans-Serif" font-size="10.00">/home/runner/work/R</text>
<text text-anchor="start" x="32.37" y="-95" font-family="Helvetica,sans-Serif" font-size="10.00">&#45;Type/R&#45;Type/Client</text>
<text text-anchor="middle" x="98.37" y="-84" font-family="Helvetica,sans-Serif" font-size="10.00">/src/engine/ui/UIButton.cpp</text>
</a>
</g>
</g>
<!-- Node1&#45;&gt;Node3 -->
<g id="edge2_Node000001_Node000003" class="edge">
<title>Node1&#45;&gt;Node3</title>
<g id="a_edge2_Node000001_Node000003"><a xlink:title=" ">
<path fill="none" stroke="#63b8ff" d="M268.99,-150.94C234.9,-140.46 194.74,-128.12 161.95,-118.04"/>
<polygon fill="#63b8ff" stroke="#63b8ff" points="268.32,-154.4 278.9,-153.99 270.37,-147.71 268.32,-154.4"/>
</a>
</g>
</g>
<!-- Node4 -->
<g id="Node000004" class="node">
<title>Node4</title>
<g id="a_Node000004"><a xlink:href="JoinGame_8hpp.html" target="_top" xlink:title=" ">
<polygon fill="white" stroke="#666666" points="332.37,-118 190.37,-118 190.37,-77 332.37,-77 332.37,-118"/>
<text text-anchor="start" x="198.37" y="-106" font-family="Helvetica,sans-Serif" font-size="10.00">/home/runner/work/R</text>
<text text-anchor="start" x="198.37" y="-95" font-family="Helvetica,sans-Serif" font-size="10.00">&#45;Type/R&#45;Type/Client</text>
<text text-anchor="middle" x="261.37" y="-84" font-family="Helvetica,sans-Serif" font-size="10.00">/src/scenes/JoinGame.hpp</text>
</a>
</g>
</g>
<!-- Node1&#45;&gt;Node4 -->
<g id="edge3_Node000001_Node000004" class="edge">
<title>Node1&#45;&gt;Node4</title>
<g id="a_edge3_Node000001_Node000004"><a xlink:title=" ">
<path fill="none" stroke="#63b8ff" d="M313.53,-146.79C303.3,-137.32 291.98,-126.84 282.51,-118.07"/>
<polygon fill="#63b8ff" stroke="#63b8ff" points="311.38,-149.57 321.09,-153.79 316.13,-144.43 311.38,-149.57"/>
</a>
</g>
</g>
<!-- Node5 -->
<g id="Node000005" class="node">
<title>Node5</title>
<g id="a_Node000005"><a xlink:href="MainMenu_8hpp.html" target="_top" xlink:title=" ">
<polygon fill="white" stroke="#666666" points="496.37,-118 350.37,-118 350.37,-77 496.37,-77 496.37,-118"/>
<text text-anchor="start" x="358.37" y="-106" font-family="Helvetica,sans-Serif" font-size="10.00">/home/runner/work/R</text>
<text text-anchor="start" x="358.37" y="-95" font-family="Helvetica,sans-Serif" font-size="10.00">&#45;Type/R&#45;Type/Client</text>
<text text-anchor="middle" x="423.37" y="-84" font-family="Helvetica,sans-Serif" font-size="10.00">/src/scenes/MainMenu.hpp</text>
</a>
</g>
</g>
<!-- Node1&#45;&gt;Node5 -->
<g id="edge5_Node000001_Node000005" class="edge">
<title>Node1&#45;&gt;Node5</title>
<g id="a_edge5_Node000001_Node000005"><a xlink:title=" ">
<path fill="none" stroke="#63b8ff" d="M371.22,-146.79C381.45,-137.32 392.77,-126.84 402.23,-118.07"/>
<polygon fill="#63b8ff" stroke="#63b8ff" points="368.62,-144.43 363.66,-153.79 373.37,-149.57 368.62,-144.43"/>
</a>
</g>
</g>
<!-- Node6 -->
<g id="Node000006" class="node">
<title>Node6</title>
<g id="a_Node000006"><a xlink:href="Options_8hpp.html" target="_top" xlink:title=" ">
<polygon fill="white" stroke="#666666" points="646.37,-118 514.37,-118 514.37,-77 646.37,-77 646.37,-118"/>
<text text-anchor="start" x="522.37" y="-106" font-family="Helvetica,sans-Serif" font-size="10.00">/home/runner/work/R</text>
<text text-anchor="start" x="522.37" y="-95" font-family="Helvetica,sans-Serif" font-size="10.00">&#45;Type/R&#45;Type/Client</text>
<text text-anchor="middle" x="580.37" y="-84" font-family="Helvetica,sans-Serif" font-size="10.00">/src/scenes/Options.hpp</text>
</a>
</g>
</g>
<!-- Node1&#45;&gt;Node6 -->
<g id="edge7_Node000001_Node000006" class="edge">
<title>Node1&#45;&gt;Node6</title>
<g id="a_edge7_Node000001_Node000006"><a xlink:title=" ">
<path fill="none" stroke="#63b8ff" d="M413.95,-150.94C447.21,-140.46 486.38,-128.12 518.36,-118.04"/>
<polygon fill="#63b8ff" stroke="#63b8ff" points="412.77,-147.65 404.28,-153.99 414.87,-154.32 412.77,-147.65"/>
</a>
</g>
</g>
<!-- Node7 -->
<g id="Node000007" class="node">
<title>Node7</title>
<g id="a_Node000007"><a xlink:href="WaitLobby_8hpp.html" target="_top" xlink:title=" ">
<polygon fill="white" stroke="#666666" points="808.37,-118 664.37,-118 664.37,-77 808.37,-77 808.37,-118"/>
<text text-anchor="start" x="672.37" y="-106" font-family="Helvetica,sans-Serif" font-size="10.00">/home/runner/work/R</text>
<text text-anchor="start" x="672.37" y="-95" font-family="Helvetica,sans-Serif" font-size="10.00">&#45;Type/R&#45;Type/Client</text>
<text text-anchor="middle" x="736.37" y="-84" font-family="Helvetica,sans-Serif" font-size="10.00">/src/scenes/WaitLobby.hpp</text>
</a>
</g>
</g>
<!-- Node1&#45;&gt;Node7 -->
<g id="edge9_Node000001_Node000007" class="edge">
<title>Node1&#45;&gt;Node7</title>
<g id="a_edge9_Node000001_Node000007"><a xlink:title=" ">
<path fill="none" stroke="#63b8ff" d="M426.84,-159.95C489.98,-149.48 578.33,-134.09 655.37,-118 658.21,-117.41 661.09,-116.79 664,-116.15"/>
<polygon fill="#63b8ff" stroke="#63b8ff" points="426.22,-156.51 416.93,-161.59 427.36,-163.41 426.22,-156.51"/>
</a>
</g>
</g>
<!-- Node4&#45;&gt;Node2 -->
<g id="edge4_Node000004_Node000002" class="edge">
<title>Node4&#45;&gt;Node2</title>
<g id="a_edge4_Node000004_Node000002"><a xlink:title=" ">
<path fill="none" stroke="#63b8ff" d="M312.73,-72.72C334.78,-62.51 360.23,-50.73 381.16,-41.04"/>
<polygon fill="#63b8ff" stroke="#63b8ff" points="311.12,-69.61 303.51,-76.99 314.06,-75.97 311.12,-69.61"/>
</a>
</g>
</g>
<!-- Node5&#45;&gt;Node2 -->
<g id="edge6_Node000005_Node000002" class="edge">
<title>Node5&#45;&gt;Node2</title>
<g id="a_edge6_Node000005_Node000002"><a xlink:title=" ">
<path fill="none" stroke="#63b8ff" d="M423.37,-66.69C423.37,-58.08 423.37,-48.9 423.37,-41.07"/>
<polygon fill="#63b8ff" stroke="#63b8ff" points="419.87,-66.79 423.37,-76.79 426.87,-66.79 419.87,-66.79"/>
</a>
</g>
</g>
<!-- Node6&#45;&gt;Node2 -->
<g id="edge8_Node000006_Node000002" class="edge">
<title>Node6&#45;&gt;Node2</title>
<g id="a_edge8_Node000006_Node000002"><a xlink:title=" ">
<path fill="none" stroke="#63b8ff" d="M530.31,-72.59C509.01,-62.41 484.47,-50.69 464.28,-41.04"/>
<polygon fill="#63b8ff" stroke="#63b8ff" points="529,-75.84 539.53,-76.99 532.02,-69.52 529,-75.84"/>
</a>
</g>
</g>
<!-- Node7&#45;&gt;Node2 -->
<g id="edge10_Node000007_Node000002" class="edge">
<title>Node7&#45;&gt;Node2</title>
<g id="a_edge10_Node000007_Node000002"><a xlink:title=" ">
<path fill="none" stroke="#63b8ff" d="M654.12,-76.7C590.29,-61.39 527.56,-46.39 482.98,-35.73"/>
<polygon fill="#63b8ff" stroke="#63b8ff" points="653.41,-80.13 663.95,-79.06 655.04,-73.32 653.41,-80.13"/>
</a>
</g>
</g>
</g>
</svg>
