<?xml version="1.0" encoding="UTF-8" standalone="no"?>
<!DOCTYPE svg PUBLIC "-//W3C//DTD SVG 1.1//EN"
 "http://www.w3.org/Graphics/SVG/1.1/DTD/svg11.dtd">
<!-- Generated by graphviz version 2.43.0 (0)
 -->
<!-- Title: /home/runner/work/R&#45;Type/R&#45;Type/Client/src/engine/ui/UIButton.hpp Pages: 1 -->
<svg width="555pt" height="214pt"
 viewBox="0.00 0.00 554.50 214.00" xmlns="http://www.w3.org/2000/svg" xmlns:xlink="http://www.w3.org/1999/xlink">
<g id="graph0" class="graph" transform="scale(1 1) rotate(0) translate(4 210)">
<title>/home/runner/work/R&#45;Type/R&#45;Type/Client/src/engine/ui/UIButton.hpp</title>
<!-- Node1 -->
<g id="Node000001" class="node">
<title>Node1</title>
<g id="a_Node000001"><a xlink:title=" ">
<polygon fill="#999999" stroke="#666666" points="421.5,-206 272.5,-206 272.5,-165 421.5,-165 421.5,-206"/>
<text text-anchor="start" x="280.5" y="-194" font-family="Helvetica,sans-Serif" font-size="10.00">/home/runner/work/R</text>
<text text-anchor="start" x="280.5" y="-183" font-family="Helvetica,sans-Serif" font-size="10.00">&#45;Type/R&#45;Type/Client</text>
<text text-anchor="middle" x="347" y="-172" font-family="Helvetica,sans-Serif" font-size="10.00">/src/engine/ui/UIButton.hpp</text>
</a>
</g>
</g>
<!-- Node2 -->
<g id="Node000002" class="node">
<title>Node2</title>
<g id="a_Node000002"><a xlink:title=" ">
<polygon fill="#e0e0e0" stroke="#999999" points="72,-19 0,-19 0,0 72,0 72,-19"/>
<text text-anchor="middle" x="36" y="-7" font-family="Helvetica,sans-Serif" font-size="10.00">SDL2/SDL.h</text>
</a>
</g>
</g>
<!-- Node1&#45;&gt;Node2 -->
<g id="edge1_Node000001_Node000002" class="edge">
<title>Node1&#45;&gt;Node2</title>
<g id="a_edge1_Node000001_Node000002"><a xlink:title=" ">
<path fill="none" stroke="#63b8ff" d="M272.42,-167.99C214.79,-152.06 136,-122.97 82,-74 67.23,-60.61 54.31,-41.76 45.95,-28.07"/>
<polygon fill="#63b8ff" stroke="#63b8ff" points="48.8,-26.02 40.71,-19.18 42.77,-29.57 48.8,-26.02"/>
</a>
</g>
</g>
<!-- Node3 -->
<g id="Node000003" class="node">
<title>Node3</title>
<g id="a_Node000003"><a xlink:title=" ">
<polygon fill="#e0e0e0" stroke="#999999" points="463,-129 375,-129 375,-110 463,-110 463,-129"/>
<text text-anchor="middle" x="419" y="-117" font-family="Helvetica,sans-Serif" font-size="10.00">SDL2/SDL_ttf.h</text>
</a>
</g>
</g>
<!-- Node1&#45;&gt;Node3 -->
<g id="edge2_Node000001_Node000003" class="edge">
<title>Node1&#45;&gt;Node3</title>
<g id="a_edge2_Node000001_Node000003"><a xlink:title=" ">
<path fill="none" stroke="#63b8ff" d="M368.99,-164.95C379.46,-155.65 391.8,-144.68 401.6,-135.96"/>
<polygon fill="#63b8ff" stroke="#63b8ff" points="404,-138.52 409.14,-129.26 399.34,-133.29 404,-138.52"/>
</a>
</g>
</g>
<!-- Node4 -->
<g id="Node000004" class="node">
<title>Node4</title>
<g id="a_Node000004"><a xlink:title=" ">
<polygon fill="#e0e0e0" stroke="#999999" points="546.5,-129 481.5,-129 481.5,-110 546.5,-110 546.5,-129"/>
<text text-anchor="middle" x="514" y="-117" font-family="Helvetica,sans-Serif" font-size="10.00">functional</text>
</a>
</g>
</g>
<!-- Node1&#45;&gt;Node4 -->
<g id="edge3_Node000001_Node000004" class="edge">
<title>Node1&#45;&gt;Node4</title>
<g id="a_edge3_Node000001_Node000004"><a xlink:title=" ">
<path fill="none" stroke="#63b8ff" d="M398.01,-164.95C425.37,-154.46 458.25,-141.87 482,-132.76"/>
<polygon fill="#63b8ff" stroke="#63b8ff" points="483.5,-135.94 491.58,-129.09 480.99,-129.4 483.5,-135.94"/>
</a>
</g>
</g>
<!-- Node5 -->
<g id="Node000005" class="node">
<title>Node5</title>
<g id="a_Node000005"><a xlink:title=" ">
<polygon fill="#e0e0e0" stroke="#999999" points="372,-19 328,-19 328,0 372,0 372,-19"/>
<text text-anchor="middle" x="350" y="-7" font-family="Helvetica,sans-Serif" font-size="10.00">string</text>
</a>
</g>
</g>
<!-- Node1&#45;&gt;Node5 -->
<g id="edge4_Node000001_Node000005" class="edge">
<title>Node1&#45;&gt;Node5</title>
<g id="a_edge4_Node000001_Node000005"><a xlink:title=" ">
<path fill="none" stroke="#63b8ff" d="M347.34,-164.88C347.92,-131.17 349.1,-62.69 349.67,-29.45"/>
<polygon fill="#63b8ff" stroke="#63b8ff" points="353.18,-29.33 349.85,-19.27 346.18,-29.21 353.18,-29.33"/>
</a>
</g>
</g>
<!-- Node6 -->
<g id="Node000006" class="node">
<title>Node6</title>
<g id="a_Node000006"><a xlink:href="UIElement_8hpp.html" target="_top" xlink:title=" ">
<polygon fill="white" stroke="#666666" points="285.5,-129 184.5,-129 184.5,-110 285.5,-110 285.5,-129"/>
<text text-anchor="middle" x="235" y="-117" font-family="Helvetica,sans-Serif" font-size="10.00">ui/UIElement.hpp</text>
</a>
</g>
</g>
<!-- Node1&#45;&gt;Node6 -->
<g id="edge5_Node000001_Node000006" class="edge">
<title>Node1&#45;&gt;Node6</title>
<g id="a_edge5_Node000001_Node000006"><a xlink:title=" ">
<path fill="none" stroke="#63b8ff" d="M312.79,-164.95C295.42,-155.03 274.74,-143.21 259.07,-134.25"/>
<polygon fill="#63b8ff" stroke="#63b8ff" points="260.45,-131.01 250.04,-129.09 256.98,-137.09 260.45,-131.01"/>
</a>
</g>
</g>
<!-- Node6&#45;&gt;Node2 -->
<g id="edge6_Node000006_Node000002" class="edge">
<title>Node6&#45;&gt;Node2</title>
<g id="a_edge6_Node000006_Node000002"><a xlink:title=" ">
<path fill="none" stroke="#63b8ff" d="M202.05,-109.99C176.46,-102.59 140.65,-90.46 112,-74 88.86,-60.7 65.83,-40.18 51.29,-26.08"/>
<polygon fill="#63b8ff" stroke="#63b8ff" points="53.71,-23.55 44.14,-19 48.79,-28.53 53.71,-23.55"/>
</a>
</g>
</g>
<!-- Node6&#45;&gt;Node5 -->
<g id="edge7_Node000006_Node000005" class="edge">
<title>Node6&#45;&gt;Node5</title>
<g id="a_edge7_Node000006_Node000005"><a xlink:title=" ">
<path fill="none" stroke="#63b8ff" d="M246.75,-109.73C258.15,-101.05 275.76,-87.19 290,-74 306.43,-58.78 323.87,-40 335.69,-26.82"/>
<polygon fill="#63b8ff" stroke="#63b8ff" points="338.55,-28.86 342.57,-19.06 333.32,-24.22 338.55,-28.86"/>
</a>
</g>
</g>
<!-- Node7 -->
<g id="Node000007" class="node">
<title>Node7</title>
<g id="a_Node000007"><a xlink:href="TextureManager_8hpp.html" target="_top" xlink:title=" ">
<polygon fill="white" stroke="#666666" points="281,-74 121,-74 121,-55 281,-55 281,-74"/>
<text text-anchor="middle" x="201" y="-62" font-family="Helvetica,sans-Serif" font-size="10.00">graphics/TextureManager.hpp</text>
</a>
</g>
</g>
<!-- Node6&#45;&gt;Node7 -->
<g id="edge8_Node000006_Node000007" class="edge">
<title>Node6&#45;&gt;Node7</title>
<g id="a_edge8_Node000006_Node000007"><a xlink:title=" ">
<path fill="none" stroke="#63b8ff" d="M229.39,-109.75C224.68,-102.42 217.83,-91.73 212.03,-82.7"/>
<polygon fill="#63b8ff" stroke="#63b8ff" points="214.86,-80.62 206.51,-74.09 208.96,-84.4 214.86,-80.62"/>
</a>
</g>
</g>
<!-- Node7&#45;&gt;Node2 -->
<g id="edge9_Node000007_Node000002" class="edge">
<title>Node7&#45;&gt;Node2</title>
<g id="a_edge9_Node000007_Node000002"><a xlink:title=" ">
<path fill="none" stroke="#63b8ff" d="M174.49,-54.98C146.79,-46.09 103.14,-32.07 72.26,-22.15"/>
<polygon fill="#63b8ff" stroke="#63b8ff" points="73.31,-18.81 62.72,-19.08 71.17,-25.47 73.31,-18.81"/>
</a>
</g>
</g>
<!-- Node7&#45;&gt;Node5 -->
<g id="edge11_Node000007_Node000005" class="edge">
<title>Node7&#45;&gt;Node5</title>
<g id="a_edge11_Node000007_Node000005"><a xlink:title=" ">
<path fill="none" stroke="#63b8ff" d="M224.94,-54.98C250.14,-46.02 289.96,-31.86 317.88,-21.92"/>
<polygon fill="#63b8ff" stroke="#63b8ff" points="319.33,-25.12 327.58,-18.47 316.99,-18.53 319.33,-25.12"/>
</a>
</g>
</g>
<!-- Node8 -->
<g id="Node000008" class="node">
<title>Node8</title>
<g id="a_Node000008"><a xlink:title=" ">
<polygon fill="#e0e0e0" stroke="#999999" points="198,-19 90,-19 90,0 198,0 198,-19"/>
<text text-anchor="middle" x="144" y="-7" font-family="Helvetica,sans-Serif" font-size="10.00">SDL2/SDL_image.h</text>
</a>
</g>
</g>
<!-- Node7&#45;&gt;Node8 -->
<g id="edge10_Node000007_Node000008" class="edge">
<title>Node7&#45;&gt;Node8</title>
<g id="a_edge10_Node000007_Node000008"><a xlink:title=" ">
<path fill="none" stroke="#63b8ff" d="M191.84,-54.98C183.5,-47.23 170.97,-35.58 160.82,-26.14"/>
<polygon fill="#63b8ff" stroke="#63b8ff" points="163.03,-23.42 153.32,-19.17 158.26,-28.54 163.03,-23.42"/>
</a>
</g>
</g>
<!-- Node9 -->
<g id="Node000009" class="node">
<title>Node9</title>
<g id="a_Node000009"><a xlink:title=" ">
<polygon fill="#e0e0e0" stroke="#999999" points="309.5,-19 216.5,-19 216.5,0 309.5,0 309.5,-19"/>
<text text-anchor="middle" x="263" y="-7" font-family="Helvetica,sans-Serif" font-size="10.00">unordered_map</text>
</a>
</g>
</g>
<!-- Node7&#45;&gt;Node9 -->
<g id="edge12_Node000007_Node000009" class="edge">
<title>Node7&#45;&gt;Node9</title>
<g id="a_edge12_Node000007_Node000009"><a xlink:title=" ">
<path fill="none" stroke="#63b8ff" d="M210.96,-54.98C220.13,-47.15 233.94,-35.34 245.03,-25.86"/>
<polygon fill="#63b8ff" stroke="#63b8ff" points="247.53,-28.33 252.86,-19.17 242.98,-23.01 247.53,-28.33"/>
</a>
</g>
</g>
</g>
</svg>
