<?xml version="1.0" encoding="UTF-8" standalone="no"?>
<!DOCTYPE svg PUBLIC "-//W3C//DTD SVG 1.1//EN"
 "http://www.w3.org/Graphics/SVG/1.1/DTD/svg11.dtd">
<!-- Generated by graphviz version 2.43.0 (0)
 -->
<!-- Title: /home/runner/work/R&#45;Type/R&#45;Type/Client/src/engine/ui/UIButton.cpp Pages: 1 -->
<svg width="380pt" height="269pt"
 viewBox="0.00 0.00 380.00 269.00" xmlns="http://www.w3.org/2000/svg" xmlns:xlink="http://www.w3.org/1999/xlink">
<g id="graph0" class="graph" transform="scale(1 1) rotate(0) translate(4 265)">
<title>/home/runner/work/R&#45;Type/R&#45;Type/Client/src/engine/ui/UIButton.cpp</title>
<!-- Node1 -->
<g id="Node000001" class="node">
<title>Node1</title>
<g id="a_Node000001"><a xlink:title=" ">
<polygon fill="#999999" stroke="#666666" points="231,-261 83,-261 83,-220 231,-220 231,-261"/>
<text text-anchor="start" x="91" y="-249" font-family="Helvetica,sans-Serif" font-size="10.00">/home/runner/work/R</text>
<text text-anchor="start" x="91" y="-238" font-family="Helvetica,sans-Serif" font-size="10.00">&#45;Type/R&#45;Type/Client</text>
<text text-anchor="middle" x="157" y="-227" font-family="Helvetica,sans-Serif" font-size="10.00">/src/engine/ui/UIButton.cpp</text>
</a>
</g>
</g>
<!-- Node2 -->
<g id="Node000002" class="node">
<title>Node2</title>
<g id="a_Node000002"><a xlink:href="UIButton_8hpp.html" target="_top" xlink:title=" ">
<polygon fill="white" stroke="#666666" points="203,-184 111,-184 111,-165 203,-165 203,-184"/>
<text text-anchor="middle" x="157" y="-172" font-family="Helvetica,sans-Serif" font-size="10.00">ui/UIButton.hpp</text>
</a>
</g>
</g>
<!-- Node1&#45;&gt;Node2 -->
<g id="edge1_Node000001_Node000002" class="edge">
<title>Node1&#45;&gt;Node2</title>
<g id="a_edge1_Node000001_Node000002"><a xlink:title=" ">
<path fill="none" stroke="#63b8ff" d="M157,-219.95C157,-211.85 157,-202.5 157,-194.47"/>
<polygon fill="#63b8ff" stroke="#63b8ff" points="160.5,-194.26 157,-184.26 153.5,-194.26 160.5,-194.26"/>
</a>
</g>
</g>
<!-- Node6 -->
<g id="Node000006" class="node">
<title>Node6</title>
<g id="a_Node000006"><a xlink:title=" ">
<polygon fill="#e0e0e0" stroke="#999999" points="44,-19 0,-19 0,0 44,0 44,-19"/>
<text text-anchor="middle" x="22" y="-7" font-family="Helvetica,sans-Serif" font-size="10.00">string</text>
</a>
</g>
</g>
<!-- Node1&#45;&gt;Node6 -->
<g id="edge15_Node000001_Node000006" class="edge">
<title>Node1&#45;&gt;Node6</title>
<g id="a_edge15_Node000001_Node000006"><a xlink:title=" ">
<path fill="none" stroke="#63b8ff" d="M123.29,-219.85C93.3,-200.57 50.63,-168.37 27,-129 8.35,-97.92 12.98,-53.55 17.7,-28.86"/>
<polygon fill="#63b8ff" stroke="#63b8ff" points="21.13,-29.53 19.79,-19.03 14.29,-28.08 21.13,-29.53"/>
</a>
</g>
</g>
<!-- Node11 -->
<g id="Node000011" class="node">
<title>Node11</title>
<g id="a_Node000011"><a xlink:title=" ">
<polygon fill="#e0e0e0" stroke="#999999" points="281,-184 221,-184 221,-165 281,-165 281,-184"/>
<text text-anchor="middle" x="251" y="-172" font-family="Helvetica,sans-Serif" font-size="10.00">iostream</text>
</a>
</g>
</g>
<!-- Node1&#45;&gt;Node11 -->
<g id="edge14_Node000001_Node000011" class="edge">
<title>Node1&#45;&gt;Node11</title>
<g id="a_edge14_Node000001_Node000011"><a xlink:title=" ">
<path fill="none" stroke="#63b8ff" d="M185.71,-219.95C199.93,-210.27 216.78,-198.8 229.81,-189.93"/>
<polygon fill="#63b8ff" stroke="#63b8ff" points="231.84,-192.78 238.13,-184.26 227.9,-187 231.84,-192.78"/>
</a>
</g>
</g>
<!-- Node3 -->
<g id="Node000003" class="node">
<title>Node3</title>
<g id="a_Node000003"><a xlink:title=" ">
<polygon fill="#e0e0e0" stroke="#999999" points="372,-19 300,-19 300,0 372,0 372,-19"/>
<text text-anchor="middle" x="336" y="-7" font-family="Helvetica,sans-Serif" font-size="10.00">SDL2/SDL.h</text>
</a>
</g>
</g>
<!-- Node2&#45;&gt;Node3 -->
<g id="edge2_Node000002_Node000003" class="edge">
<title>Node2&#45;&gt;Node3</title>
<g id="a_edge2_Node000002_Node000003"><a xlink:title=" ">
<path fill="none" stroke="#63b8ff" d="M203.44,-165.94C257.84,-156.62 341.77,-140.59 351,-129 374.17,-99.92 357.52,-53.45 345.47,-28.21"/>
<polygon fill="#63b8ff" stroke="#63b8ff" points="348.5,-26.44 340.87,-19.09 342.25,-29.59 348.5,-26.44"/>
</a>
</g>
</g>
<!-- Node4 -->
<g id="Node000004" class="node">
<title>Node4</title>
<g id="a_Node000004"><a xlink:title=" ">
<polygon fill="#e0e0e0" stroke="#999999" points="258,-129 170,-129 170,-110 258,-110 258,-129"/>
<text text-anchor="middle" x="214" y="-117" font-family="Helvetica,sans-Serif" font-size="10.00">SDL2/SDL_ttf.h</text>
</a>
</g>
</g>
<!-- Node2&#45;&gt;Node4 -->
<g id="edge3_Node000002_Node000004" class="edge">
<title>Node2&#45;&gt;Node4</title>
<g id="a_edge3_Node000002_Node000004"><a xlink:title=" ">
<path fill="none" stroke="#63b8ff" d="M166.16,-164.98C174.5,-157.23 187.03,-145.58 197.18,-136.14"/>
<polygon fill="#63b8ff" stroke="#63b8ff" points="199.74,-138.54 204.68,-129.17 194.97,-133.42 199.74,-138.54"/>
</a>
</g>
</g>
<!-- Node5 -->
<g id="Node000005" class="node">
<title>Node5</title>
<g id="a_Node000005"><a xlink:title=" ">
<polygon fill="#e0e0e0" stroke="#999999" points="341.5,-129 276.5,-129 276.5,-110 341.5,-110 341.5,-129"/>
<text text-anchor="middle" x="309" y="-117" font-family="Helvetica,sans-Serif" font-size="10.00">functional</text>
</a>
</g>
</g>
<!-- Node2&#45;&gt;Node5 -->
<g id="edge4_Node000002_Node000005" class="edge">
<title>Node2&#45;&gt;Node5</title>
<g id="a_edge4_Node000002_Node000005"><a xlink:title=" ">
<path fill="none" stroke="#63b8ff" d="M181.42,-164.98C206.72,-156.16 246.45,-142.31 274.86,-132.41"/>
<polygon fill="#63b8ff" stroke="#63b8ff" points="276.1,-135.68 284.39,-129.08 273.79,-129.07 276.1,-135.68"/>
</a>
</g>
</g>
<!-- Node2&#45;&gt;Node6 -->
<g id="edge5_Node000002_Node000006" class="edge">
<title>Node2&#45;&gt;Node6</title>
<g id="a_edge5_Node000002_Node000006"><a xlink:title=" ">
<path fill="none" stroke="#63b8ff" d="M110.89,-167.05C86.49,-161.21 58.13,-150.1 41,-129 17.77,-100.38 17.57,-54.73 19.67,-29.25"/>
<polygon fill="#63b8ff" stroke="#63b8ff" points="23.17,-29.4 20.72,-19.1 16.21,-28.68 23.17,-29.4"/>
</a>
</g>
</g>
<!-- Node7 -->
<g id="Node000007" class="node">
<title>Node7</title>
<g id="a_Node000007"><a xlink:href="UIElement_8hpp.html" target="_top" xlink:title=" ">
<polygon fill="white" stroke="#666666" points="151.5,-129 50.5,-129 50.5,-110 151.5,-110 151.5,-129"/>
<text text-anchor="middle" x="101" y="-117" font-family="Helvetica,sans-Serif" font-size="10.00">ui/UIElement.hpp</text>
</a>
</g>
</g>
<!-- Node2&#45;&gt;Node7 -->
<g id="edge6_Node000002_Node000007" class="edge">
<title>Node2&#45;&gt;Node7</title>
<g id="a_edge6_Node000002_Node000007"><a xlink:title=" ">
<path fill="none" stroke="#63b8ff" d="M148,-164.98C139.81,-157.23 127.49,-145.58 117.53,-136.14"/>
<polygon fill="#63b8ff" stroke="#63b8ff" points="119.83,-133.5 110.16,-129.17 115.02,-138.59 119.83,-133.5"/>
</a>
</g>
</g>
<!-- Node7&#45;&gt;Node3 -->
<g id="edge7_Node000007_Node000003" class="edge">
<title>Node7&#45;&gt;Node3</title>
<g id="a_edge7_Node000007_Node000003"><a xlink:title=" ">
<path fill="none" stroke="#63b8ff" d="M149.27,-109.94C181.08,-103.06 222.98,-91.6 257,-74 281.26,-61.45 305.15,-40.77 320.2,-26.43"/>
<polygon fill="#63b8ff" stroke="#63b8ff" points="322.88,-28.7 327.59,-19.21 317.99,-23.69 322.88,-28.7"/>
</a>
</g>
</g>
<!-- Node7&#45;&gt;Node6 -->
<g id="edge8_Node000007_Node000006" class="edge">
<title>Node7&#45;&gt;Node6</title>
<g id="a_edge8_Node000007_Node000006"><a xlink:title=" ">
<path fill="none" stroke="#63b8ff" d="M94.54,-109.66C81.39,-91.69 51.36,-50.64 34.35,-27.38"/>
<polygon fill="#63b8ff" stroke="#63b8ff" points="37.06,-25.16 28.33,-19.16 31.41,-29.3 37.06,-25.16"/>
</a>
</g>
</g>
<!-- Node8 -->
<g id="Node000008" class="node">
<title>Node8</title>
<g id="a_Node000008"><a xlink:href="TextureManager_8hpp.html" target="_top" xlink:title=" ">
<polygon fill="white" stroke="#666666" points="248,-74 88,-74 88,-55 248,-55 248,-74"/>
<text text-anchor="middle" x="168" y="-62" font-family="Helvetica,sans-Serif" font-size="10.00">graphics/TextureManager.hpp</text>
</a>
</g>
</g>
<!-- Node7&#45;&gt;Node8 -->
<g id="edge9_Node000007_Node000008" class="edge">
<title>Node7&#45;&gt;Node8</title>
<g id="a_edge9_Node000007_Node000008"><a xlink:title=" ">
<path fill="none" stroke="#63b8ff" d="M111.76,-109.98C121.77,-102.07 136.89,-90.11 148.93,-80.58"/>
<polygon fill="#63b8ff" stroke="#63b8ff" points="151.37,-83.12 157.04,-74.17 147.03,-77.63 151.37,-83.12"/>
</a>
</g>
</g>
<!-- Node8&#45;&gt;Node3 -->
<g id="edge10_Node000008_Node000003" class="edge">
<title>Node8&#45;&gt;Node3</title>
<g id="a_edge10_Node000008_Node000003"><a xlink:title=" ">
<path fill="none" stroke="#63b8ff" d="M194.99,-54.98C223.2,-46.09 267.64,-32.07 299.08,-22.15"/>
<polygon fill="#63b8ff" stroke="#63b8ff" points="300.31,-25.43 308.8,-19.08 298.21,-18.75 300.31,-25.43"/>
</a>
</g>
</g>
<!-- Node8&#45;&gt;Node6 -->
<g id="edge12_Node000008_Node000006" class="edge">
<title>Node8&#45;&gt;Node6</title>
<g id="a_edge12_Node000008_Node000006"><a xlink:title=" ">
<path fill="none" stroke="#63b8ff" d="M144.54,-54.98C119.99,-46.07 81.28,-32.02 53.95,-22.1"/>
<polygon fill="#63b8ff" stroke="#63b8ff" points="55.03,-18.77 44.44,-18.65 52.65,-25.35 55.03,-18.77"/>
</a>
</g>
</g>
<!-- Node9 -->
<g id="Node000009" class="node">
<title>Node9</title>
<g id="a_Node000009"><a xlink:title=" ">
<polygon fill="#e0e0e0" stroke="#999999" points="170,-19 62,-19 62,0 170,0 170,-19"/>
<text text-anchor="middle" x="116" y="-7" font-family="Helvetica,sans-Serif" font-size="10.00">SDL2/SDL_image.h</text>
</a>
</g>
</g>
<!-- Node8&#45;&gt;Node9 -->
<g id="edge11_Node000008_Node000009" class="edge">
<title>Node8&#45;&gt;Node9</title>
<g id="a_edge11_Node000008_Node000009"><a xlink:title=" ">
<path fill="none" stroke="#63b8ff" d="M159.41,-54.75C151.84,-47.03 140.62,-35.6 131.49,-26.28"/>
<polygon fill="#63b8ff" stroke="#63b8ff" points="133.93,-23.78 124.43,-19.09 128.93,-28.68 133.93,-23.78"/>
</a>
</g>
</g>
<!-- Node10 -->
<g id="Node000010" class="node">
<title>Node10</title>
<g id="a_Node000010"><a xlink:title=" ">
<polygon fill="#e0e0e0" stroke="#999999" points="281.5,-19 188.5,-19 188.5,0 281.5,0 281.5,-19"/>
<text text-anchor="middle" x="235" y="-7" font-family="Helvetica,sans-Serif" font-size="10.00">unordered_map</text>
</a>
</g>
</g>
<!-- Node8&#45;&gt;Node10 -->
<g id="edge13_Node000008_Node000010" class="edge">
<title>Node8&#45;&gt;Node10</title>
<g id="a_edge13_Node000008_Node000010"><a xlink:title=" ">
<path fill="none" stroke="#63b8ff" d="M178.76,-54.98C188.77,-47.07 203.89,-35.11 215.93,-25.58"/>
<polygon fill="#63b8ff" stroke="#63b8ff" points="218.37,-28.12 224.04,-19.17 214.03,-22.63 218.37,-28.12"/>
</a>
</g>
</g>
</g>
</svg>
