<?xml version="1.0" encoding="UTF-8" standalone="no"?>
<!DOCTYPE svg PUBLIC "-//W3C//DTD SVG 1.1//EN"
 "http://www.w3.org/Graphics/SVG/1.1/DTD/svg11.dtd">
<!-- Generated by graphviz version 2.43.0 (0)
 -->
<!-- Title: /home/runner/work/R&#45;Type/R&#45;Type/Client/src/engine/ui/UIElement.hpp Pages: 1 -->
<svg width="2178pt" height="434pt"
 viewBox="0.00 0.00 2178.23 434.00" xmlns="http://www.w3.org/2000/svg" xmlns:xlink="http://www.w3.org/1999/xlink">
<g id="graph0" class="graph" transform="scale(1 1) rotate(0) translate(4 430)">
<title>/home/runner/work/R&#45;Type/R&#45;Type/Client/src/engine/ui/UIElement.hpp</title>
<!-- Node1 -->
<g id="Node000001" class="node">
<title>Node1</title>
<g id="a_Node000001"><a xlink:title=" ">
<polygon fill="#999999" stroke="#666666" points="1466.5,-426 1309.5,-426 1309.5,-385 1466.5,-385 1466.5,-426"/>
<text text-anchor="start" x="1317.5" y="-414" font-family="Helvetica,sans-Serif" font-size="10.00">/home/runner/work/R</text>
<text text-anchor="start" x="1317.5" y="-403" font-family="Helvetica,sans-Serif" font-size="10.00">&#45;Type/R&#45;Type/Client</text>
<text text-anchor="middle" x="1388" y="-392" font-family="Helvetica,sans-Serif" font-size="10.00">/src/engine/ui/UIElement.hpp</text>
</a>
</g>
</g>
<!-- Node2 -->
<g id="Node000002" class="node">
<title>Node2</title>
<g id="a_Node000002"><a xlink:href="UIButton_8hpp.html" target="_top" xlink:title=" ">
<polygon fill="white" stroke="#666666" points="1322.5,-195 1173.5,-195 1173.5,-154 1322.5,-154 1322.5,-195"/>
<text text-anchor="start" x="1181.5" y="-183" font-family="Helvetica,sans-Serif" font-size="10.00">/home/runner/work/R</text>
<text text-anchor="start" x="1181.5" y="-172" font-family="Helvetica,sans-Serif" font-size="10.00">&#45;Type/R&#45;Type/Client</text>
<text text-anchor="middle" x="1248" y="-161" font-family="Helvetica,sans-Serif" font-size="10.00">/src/engine/ui/UIButton.hpp</text>
</a>
</g>
</g>
<!-- Node1&#45;&gt;Node2 -->
<g id="edge1_Node000001_Node000002" class="edge">
<title>Node1&#45;&gt;Node2</title>
<g id="a_edge1_Node000001_Node000002"><a xlink:title=" ">
<path fill="none" stroke="#63b8ff" d="M1370.71,-376.21C1341.94,-329.16 1284.99,-236 1260.1,-195.3"/>
<polygon fill="#63b8ff" stroke="#63b8ff" points="1367.86,-378.27 1376.06,-384.98 1373.83,-374.62 1367.86,-378.27"/>
</a>
</g>
</g>
<!-- Node9 -->
<g id="Node000009" class="node">
<title>Node9</title>
<g id="a_Node000009"><a xlink:href="UIElement_8cpp.html" target="_top" xlink:title=" ">
<polygon fill="white" stroke="#666666" points="1904,-349 1748,-349 1748,-308 1904,-308 1904,-349"/>
<text text-anchor="start" x="1756" y="-337" font-family="Helvetica,sans-Serif" font-size="10.00">/home/runner/work/R</text>
<text text-anchor="start" x="1756" y="-326" font-family="Helvetica,sans-Serif" font-size="10.00">&#45;Type/R&#45;Type/Client</text>
<text text-anchor="middle" x="1826" y="-315" font-family="Helvetica,sans-Serif" font-size="10.00">/src/engine/ui/UIElement.cpp</text>
</a>
</g>
</g>
<!-- Node1&#45;&gt;Node9 -->
<g id="edge12_Node000001_Node000009" class="edge">
<title>Node1&#45;&gt;Node9</title>
<g id="a_edge12_Node000001_Node000009"><a xlink:title=" ">
<path fill="none" stroke="#63b8ff" d="M1476.63,-391.53C1546.65,-380.98 1646.78,-365.23 1734,-349 1738.49,-348.16 1743.11,-347.28 1747.76,-346.36"/>
<polygon fill="#63b8ff" stroke="#63b8ff" points="1475.89,-388.1 1466.52,-393.05 1476.93,-395.02 1475.89,-388.1"/>
</a>
</g>
</g>
<!-- Node10 -->
<g id="Node000010" class="node">
<title>Node10</title>
<g id="a_Node000010"><a xlink:href="UIImage_8hpp.html" target="_top" xlink:title=" ">
<polygon fill="white" stroke="#666666" points="1857.5,-195 1710.5,-195 1710.5,-154 1857.5,-154 1857.5,-195"/>
<text text-anchor="start" x="1718.5" y="-183" font-family="Helvetica,sans-Serif" font-size="10.00">/home/runner/work/R</text>
<text text-anchor="start" x="1718.5" y="-172" font-family="Helvetica,sans-Serif" font-size="10.00">&#45;Type/R&#45;Type/Client</text>
<text text-anchor="middle" x="1784" y="-161" font-family="Helvetica,sans-Serif" font-size="10.00">/src/engine/ui/UIImage.hpp</text>
</a>
</g>
</g>
<!-- Node1&#45;&gt;Node10 -->
<g id="edge13_Node000001_Node000010" class="edge">
<title>Node1&#45;&gt;Node10</title>
<g id="a_edge13_Node000001_Node000010"><a xlink:title=" ">
<path fill="none" stroke="#63b8ff" d="M1464.5,-381.75C1529.82,-360.04 1624.29,-323.07 1696,-272 1726.47,-250.3 1754.22,-216.48 1770.1,-195.19"/>
<polygon fill="#63b8ff" stroke="#63b8ff" points="1463.09,-378.53 1454.68,-384.97 1465.27,-385.18 1463.09,-378.53"/>
</a>
</g>
</g>
<!-- Node12 -->
<g id="Node000012" class="node">
<title>Node12</title>
<g id="a_Node000012"><a xlink:href="UIManager_8hpp.html" target="_top" xlink:title=" ">
<polygon fill="white" stroke="#666666" points="1183,-349 1025,-349 1025,-308 1183,-308 1183,-349"/>
<text text-anchor="start" x="1033" y="-337" font-family="Helvetica,sans-Serif" font-size="10.00">/home/runner/work/R</text>
<text text-anchor="start" x="1033" y="-326" font-family="Helvetica,sans-Serif" font-size="10.00">&#45;Type/R&#45;Type/Client</text>
<text text-anchor="middle" x="1104" y="-315" font-family="Helvetica,sans-Serif" font-size="10.00">/src/engine/ui/UIManager.hpp</text>
</a>
</g>
</g>
<!-- Node1&#45;&gt;Node12 -->
<g id="edge19_Node000001_Node000012" class="edge">
<title>Node1&#45;&gt;Node12</title>
<g id="a_edge19_Node000001_Node000012"><a xlink:title=" ">
<path fill="none" stroke="#63b8ff" d="M1304.38,-382.42C1264.31,-371.84 1216.74,-359.27 1178,-349.04"/>
<polygon fill="#63b8ff" stroke="#63b8ff" points="1303.56,-385.82 1314.12,-384.99 1305.35,-379.05 1303.56,-385.82"/>
</a>
</g>
</g>
<!-- Node19 -->
<g id="Node000019" class="node">
<title>Node19</title>
<g id="a_Node000019"><a xlink:href="UISolidColor_8hpp.html" target="_top" xlink:title=" ">
<polygon fill="white" stroke="#666666" points="266.5,-349 101.5,-349 101.5,-308 266.5,-308 266.5,-349"/>
<text text-anchor="start" x="109.5" y="-337" font-family="Helvetica,sans-Serif" font-size="10.00">/home/runner/work/R</text>
<text text-anchor="start" x="109.5" y="-326" font-family="Helvetica,sans-Serif" font-size="10.00">&#45;Type/R&#45;Type/Client</text>
<text text-anchor="middle" x="184" y="-315" font-family="Helvetica,sans-Serif" font-size="10.00">/src/engine/ui/UISolidColor.hpp</text>
</a>
</g>
</g>
<!-- Node1&#45;&gt;Node19 -->
<g id="edge45_Node000001_Node000019" class="edge">
<title>Node1&#45;&gt;Node19</title>
<g id="a_edge45_Node000001_Node000019"><a xlink:title=" ">
<path fill="none" stroke="#63b8ff" d="M1299.35,-404.5C1111.06,-403.54 657.63,-396.04 281,-349 276.31,-348.41 271.51,-347.73 266.68,-346.97"/>
<polygon fill="#63b8ff" stroke="#63b8ff" points="1299.46,-408 1309.47,-404.55 1299.49,-401 1299.46,-408"/>
</a>
</g>
</g>
<!-- Node21 -->
<g id="Node000021" class="node">
<title>Node21</title>
<g id="a_Node000021"><a xlink:href="UIText_8hpp.html" target="_top" xlink:title=" ">
<polygon fill="white" stroke="#666666" points="501.5,-195 364.5,-195 364.5,-154 501.5,-154 501.5,-195"/>
<text text-anchor="start" x="372.5" y="-183" font-family="Helvetica,sans-Serif" font-size="10.00">/home/runner/work/R</text>
<text text-anchor="start" x="372.5" y="-172" font-family="Helvetica,sans-Serif" font-size="10.00">&#45;Type/R&#45;Type/Client</text>
<text text-anchor="middle" x="433" y="-161" font-family="Helvetica,sans-Serif" font-size="10.00">/src/engine/ui/UIText.hpp</text>
</a>
</g>
</g>
<!-- Node1&#45;&gt;Node21 -->
<g id="edge48_Node000001_Node000021" class="edge">
<title>Node1&#45;&gt;Node21</title>
<g id="a_edge48_Node000001_Node000021"><a xlink:title=" ">
<path fill="none" stroke="#63b8ff" d="M1299.06,-402.05C1146.99,-395.24 829.48,-369.46 582,-272 533.82,-253.03 484.71,-217.4 456.64,-195.14"/>
<polygon fill="#63b8ff" stroke="#63b8ff" points="1299.13,-405.56 1309.27,-402.49 1299.43,-398.56 1299.13,-405.56"/>
</a>
</g>
</g>
<!-- Node23 -->
<g id="Node000023" class="node">
<title>Node23</title>
<g id="a_Node000023"><a xlink:href="UITextInput_8hpp.html" target="_top" xlink:title=" ">
<polygon fill="white" stroke="#666666" points="1615.5,-195 1454.5,-195 1454.5,-154 1615.5,-154 1615.5,-195"/>
<text text-anchor="start" x="1462.5" y="-183" font-family="Helvetica,sans-Serif" font-size="10.00">/home/runner/work/R</text>
<text text-anchor="start" x="1462.5" y="-172" font-family="Helvetica,sans-Serif" font-size="10.00">&#45;Type/R&#45;Type/Client</text>
<text text-anchor="middle" x="1535" y="-161" font-family="Helvetica,sans-Serif" font-size="10.00">/src/engine/ui/UITextInput.hpp</text>
</a>
</g>
</g>
<!-- Node1&#45;&gt;Node23 -->
<g id="edge57_Node000001_Node000023" class="edge">
<title>Node1&#45;&gt;Node23</title>
<g id="a_edge57_Node000001_Node000023"><a xlink:title=" ">
<path fill="none" stroke="#63b8ff" d="M1405.97,-376.5C1436.11,-329.55 1496.11,-236.08 1522.29,-195.3"/>
<polygon fill="#63b8ff" stroke="#63b8ff" points="1402.99,-374.67 1400.53,-384.98 1408.88,-378.45 1402.99,-374.67"/>
</a>
</g>
</g>
<!-- Node3 -->
<g id="Node000003" class="node">
<title>Node3</title>
<g id="a_Node000003"><a xlink:href="Main_8cpp.html" target="_top" xlink:title=" ">
<polygon fill="white" stroke="#666666" points="993.5,-41 874.5,-41 874.5,0 993.5,0 993.5,-41"/>
<text text-anchor="start" x="882.5" y="-29" font-family="Helvetica,sans-Serif" font-size="10.00">/home/runner/work/R</text>
<text text-anchor="start" x="882.5" y="-18" font-family="Helvetica,sans-Serif" font-size="10.00">&#45;Type/R&#45;Type/Client</text>
<text text-anchor="middle" x="934" y="-7" font-family="Helvetica,sans-Serif" font-size="10.00">/src/Main.cpp</text>
</a>
</g>
</g>
<!-- Node2&#45;&gt;Node3 -->
<g id="edge2_Node000002_Node000003" class="edge">
<title>Node2&#45;&gt;Node3</title>
<g id="a_edge2_Node000002_Node000003"><a xlink:title=" ">
<path fill="none" stroke="#63b8ff" d="M1275.73,-146.46C1293.59,-125.77 1310.5,-97.41 1293,-77 1255.13,-32.83 1085.38,-23.5 993.51,-21.73"/>
<polygon fill="#63b8ff" stroke="#63b8ff" points="1273.03,-144.23 1268.9,-153.99 1278.21,-148.93 1273.03,-144.23"/>
</a>
</g>
</g>
<!-- Node4 -->
<g id="Node000004" class="node">
<title>Node4</title>
<g id="a_Node000004"><a xlink:href="UIButton_8cpp.html" target="_top" xlink:title=" ">
<polygon fill="white" stroke="#666666" points="1284,-118 1136,-118 1136,-77 1284,-77 1284,-118"/>
<text text-anchor="start" x="1144" y="-106" font-family="Helvetica,sans-Serif" font-size="10.00">/home/runner/work/R</text>
<text text-anchor="start" x="1144" y="-95" font-family="Helvetica,sans-Serif" font-size="10.00">&#45;Type/R&#45;Type/Client</text>
<text text-anchor="middle" x="1210" y="-84" font-family="Helvetica,sans-Serif" font-size="10.00">/src/engine/ui/UIButton.cpp</text>
</a>
</g>
</g>
<!-- Node2&#45;&gt;Node4 -->
<g id="edge3_Node000002_Node000004" class="edge">
<title>Node2&#45;&gt;Node4</title>
<g id="a_edge3_Node000002_Node000004"><a xlink:title=" ">
<path fill="none" stroke="#63b8ff" d="M1233.47,-144.83C1228.94,-135.89 1224.05,-126.24 1219.92,-118.07"/>
<polygon fill="#63b8ff" stroke="#63b8ff" points="1230.37,-146.46 1238.02,-153.79 1236.62,-143.29 1230.37,-146.46"/>
</a>
</g>
</g>
<!-- Node5 -->
<g id="Node000005" class="node">
<title>Node5</title>
<g id="a_Node000005"><a xlink:href="JoinGame_8hpp.html" target="_top" xlink:title=" ">
<polygon fill="white" stroke="#666666" points="1644,-118 1502,-118 1502,-77 1644,-77 1644,-118"/>
<text text-anchor="start" x="1510" y="-106" font-family="Helvetica,sans-Serif" font-size="10.00">/home/runner/work/R</text>
<text text-anchor="start" x="1510" y="-95" font-family="Helvetica,sans-Serif" font-size="10.00">&#45;Type/R&#45;Type/Client</text>
<text text-anchor="middle" x="1573" y="-84" font-family="Helvetica,sans-Serif" font-size="10.00">/src/scenes/JoinGame.hpp</text>
</a>
</g>
</g>
<!-- Node2&#45;&gt;Node5 -->
<g id="edge4_Node000002_Node000005" class="edge">
<title>Node2&#45;&gt;Node5</title>
<g id="a_edge4_Node000002_Node000005"><a xlink:title=" ">
<path fill="none" stroke="#63b8ff" d="M1332.47,-154.72C1379.73,-144.13 1439.69,-130.53 1493,-118 1495.92,-117.31 1498.9,-116.61 1501.91,-115.89"/>
<polygon fill="#63b8ff" stroke="#63b8ff" points="1331.58,-151.33 1322.59,-156.93 1333.11,-158.16 1331.58,-151.33"/>
</a>
</g>
</g>
<!-- Node6 -->
<g id="Node000006" class="node">
<title>Node6</title>
<g id="a_Node000006"><a xlink:href="MainMenu_8hpp.html" target="_top" xlink:title=" ">
<polygon fill="white" stroke="#666666" points="1808,-118 1662,-118 1662,-77 1808,-77 1808,-118"/>
<text text-anchor="start" x="1670" y="-106" font-family="Helvetica,sans-Serif" font-size="10.00">/home/runner/work/R</text>
<text text-anchor="start" x="1670" y="-95" font-family="Helvetica,sans-Serif" font-size="10.00">&#45;Type/R&#45;Type/Client</text>
<text text-anchor="middle" x="1735" y="-84" font-family="Helvetica,sans-Serif" font-size="10.00">/src/scenes/MainMenu.hpp</text>
</a>
</g>
</g>
<!-- Node2&#45;&gt;Node6 -->
<g id="edge6_Node000002_Node000006" class="edge">
<title>Node2&#45;&gt;Node6</title>
<g id="a_edge6_Node000002_Node000006"><a xlink:title=" ">
<path fill="none" stroke="#63b8ff" d="M1332.66,-164.33C1414.87,-154.85 1543.01,-138.56 1653,-118 1655.88,-117.46 1658.8,-116.89 1661.76,-116.29"/>
<polygon fill="#63b8ff" stroke="#63b8ff" points="1332.16,-160.86 1322.62,-165.48 1332.96,-167.82 1332.16,-160.86"/>
</a>
</g>
</g>
<!-- Node7 -->
<g id="Node000007" class="node">
<title>Node7</title>
<g id="a_Node000007"><a xlink:href="Options_8hpp.html" target="_top" xlink:title=" ">
<polygon fill="white" stroke="#666666" points="654,-118 522,-118 522,-77 654,-77 654,-118"/>
<text text-anchor="start" x="530" y="-106" font-family="Helvetica,sans-Serif" font-size="10.00">/home/runner/work/R</text>
<text text-anchor="start" x="530" y="-95" font-family="Helvetica,sans-Serif" font-size="10.00">&#45;Type/R&#45;Type/Client</text>
<text text-anchor="middle" x="588" y="-84" font-family="Helvetica,sans-Serif" font-size="10.00">/src/scenes/Options.hpp</text>
</a>
</g>
</g>
<!-- Node2&#45;&gt;Node7 -->
<g id="edge8_Node000002_Node000007" class="edge">
<title>Node2&#45;&gt;Node7</title>
<g id="a_edge8_Node000002_Node000007"><a xlink:title=" ">
<path fill="none" stroke="#63b8ff" d="M1163.07,-164.81C1129.97,-161.43 1091.71,-157.53 1057,-154 898.79,-137.92 858.56,-139.53 701,-118 685.81,-115.92 669.54,-113.33 654.2,-110.72"/>
<polygon fill="#63b8ff" stroke="#63b8ff" points="1162.86,-168.31 1173.17,-165.84 1163.57,-161.34 1162.86,-168.31"/>
</a>
</g>
</g>
<!-- Node8 -->
<g id="Node000008" class="node">
<title>Node8</title>
<g id="a_Node000008"><a xlink:href="WaitLobby_8hpp.html" target="_top" xlink:title=" ">
<polygon fill="white" stroke="#666666" points="1484,-118 1340,-118 1340,-77 1484,-77 1484,-118"/>
<text text-anchor="start" x="1348" y="-106" font-family="Helvetica,sans-Serif" font-size="10.00">/home/runner/work/R</text>
<text text-anchor="start" x="1348" y="-95" font-family="Helvetica,sans-Serif" font-size="10.00">&#45;Type/R&#45;Type/Client</text>
<text text-anchor="middle" x="1412" y="-84" font-family="Helvetica,sans-Serif" font-size="10.00">/src/scenes/WaitLobby.hpp</text>
</a>
</g>
</g>
<!-- Node2&#45;&gt;Node8 -->
<g id="edge10_Node000002_Node000008" class="edge">
<title>Node2&#45;&gt;Node8</title>
<g id="a_edge10_Node000002_Node000008"><a xlink:title=" ">
<path fill="none" stroke="#63b8ff" d="M1299.99,-149.72C1322.32,-139.51 1348.08,-127.73 1369.27,-118.04"/>
<polygon fill="#63b8ff" stroke="#63b8ff" points="1298.3,-146.65 1290.66,-153.99 1301.21,-153.01 1298.3,-146.65"/>
</a>
</g>
</g>
<!-- Node5&#45;&gt;Node3 -->
<g id="edge5_Node000005_Node000003" class="edge">
<title>Node5&#45;&gt;Node3</title>
<g id="a_edge5_Node000005_Node000003"><a xlink:title=" ">
<path fill="none" stroke="#63b8ff" d="M1491.58,-76.87C1304.93,-45.66 1094.29,-30.62 993.52,-24.66"/>
<polygon fill="#63b8ff" stroke="#63b8ff" points="1491.13,-80.35 1501.57,-78.56 1492.3,-73.45 1491.13,-80.35"/>
</a>
</g>
</g>
<!-- Node6&#45;&gt;Node3 -->
<g id="edge7_Node000006_Node000003" class="edge">
<title>Node6&#45;&gt;Node3</title>
<g id="a_edge7_Node000006_Node000003"><a xlink:title=" ">
<path fill="none" stroke="#63b8ff" d="M1651.83,-76.94C1402.56,-38.68 1115.52,-26.6 993.55,-22.95"/>
<polygon fill="#63b8ff" stroke="#63b8ff" points="1651.38,-80.42 1661.8,-78.49 1652.45,-73.5 1651.38,-80.42"/>
</a>
</g>
</g>
<!-- Node7&#45;&gt;Node3 -->
<g id="edge9_Node000007_Node000003" class="edge">
<title>Node7&#45;&gt;Node3</title>
<g id="a_edge9_Node000007_Node000003"><a xlink:title=" ">
<path fill="none" stroke="#63b8ff" d="M664.21,-77.86C665.48,-77.57 666.75,-77.28 668,-77 738.75,-61 820.46,-44.2 874.45,-33.33"/>
<polygon fill="#63b8ff" stroke="#63b8ff" points="663.27,-74.49 654.31,-80.16 664.85,-81.31 663.27,-74.49"/>
</a>
</g>
</g>
<!-- Node8&#45;&gt;Node3 -->
<g id="edge11_Node000008_Node000003" class="edge">
<title>Node8&#45;&gt;Node3</title>
<g id="a_edge11_Node000008_Node000003"><a xlink:title=" ">
<path fill="none" stroke="#63b8ff" d="M1329.84,-77.72C1328.55,-77.47 1327.27,-77.23 1326,-77 1208.88,-55.47 1070.75,-37.66 993.68,-28.4"/>
<polygon fill="#63b8ff" stroke="#63b8ff" points="1329.34,-81.19 1339.83,-79.68 1330.69,-74.32 1329.34,-81.19"/>
</a>
</g>
</g>
<!-- Node10&#45;&gt;Node3 -->
<g id="edge14_Node000010_Node000003" class="edge">
<title>Node10&#45;&gt;Node3</title>
<g id="a_edge14_Node000010_Node000003"><a xlink:title=" ">
<path fill="none" stroke="#63b8ff" d="M1867.8,-173.39C1967.13,-171.27 2123.9,-160.96 2161,-118 2172.91,-104.21 2173.59,-90.17 2161,-77 2120.28,-34.39 1234.44,-23.98 993.84,-21.94"/>
<polygon fill="#63b8ff" stroke="#63b8ff" points="1867.71,-169.89 1857.78,-173.58 1867.85,-176.89 1867.71,-169.89"/>
</a>
</g>
</g>
<!-- Node10&#45;&gt;Node5 -->
<g id="edge16_Node000010_Node000005" class="edge">
<title>Node10&#45;&gt;Node5</title>
<g id="a_edge16_Node000010_Node000005"><a xlink:title=" ">
<path fill="none" stroke="#63b8ff" d="M1719.4,-150.54C1690.16,-140.15 1655.97,-127.99 1627.98,-118.04"/>
<polygon fill="#63b8ff" stroke="#63b8ff" points="1718.52,-153.94 1729.11,-153.99 1720.86,-147.34 1718.52,-153.94"/>
</a>
</g>
</g>
<!-- Node10&#45;&gt;Node6 -->
<g id="edge17_Node000010_Node000006" class="edge">
<title>Node10&#45;&gt;Node6</title>
<g id="a_edge17_Node000010_Node000006"><a xlink:title=" ">
<path fill="none" stroke="#63b8ff" d="M1765.64,-145.39C1759.69,-136.3 1753.24,-126.41 1747.79,-118.07"/>
<polygon fill="#63b8ff" stroke="#63b8ff" points="1762.73,-147.34 1771.13,-153.79 1768.59,-143.51 1762.73,-147.34"/>
</a>
</g>
</g>
<!-- Node10&#45;&gt;Node8 -->
<g id="edge18_Node000010_Node000008" class="edge">
<title>Node10&#45;&gt;Node8</title>
<g id="a_edge18_Node000010_Node000008"><a xlink:title=" ">
<path fill="none" stroke="#63b8ff" d="M1700.36,-158.64C1642.08,-148.02 1562.63,-133.01 1493,-118 1490.17,-117.39 1487.29,-116.76 1484.38,-116.11"/>
<polygon fill="#63b8ff" stroke="#63b8ff" points="1699.79,-162.1 1710.25,-160.44 1701.04,-155.21 1699.79,-162.1"/>
</a>
</g>
</g>
<!-- Node11 -->
<g id="Node000011" class="node">
<title>Node11</title>
<g id="a_Node000011"><a xlink:href="UIImage_8cpp.html" target="_top" xlink:title=" ">
<polygon fill="white" stroke="#666666" points="2152,-118 2006,-118 2006,-77 2152,-77 2152,-118"/>
<text text-anchor="start" x="2014" y="-106" font-family="Helvetica,sans-Serif" font-size="10.00">/home/runner/work/R</text>
<text text-anchor="start" x="2014" y="-95" font-family="Helvetica,sans-Serif" font-size="10.00">&#45;Type/R&#45;Type/Client</text>
<text text-anchor="middle" x="2079" y="-84" font-family="Helvetica,sans-Serif" font-size="10.00">/src/engine/ui/UIImage.cpp</text>
</a>
</g>
</g>
<!-- Node10&#45;&gt;Node11 -->
<g id="edge15_Node000010_Node000011" class="edge">
<title>Node10&#45;&gt;Node11</title>
<g id="a_edge15_Node000010_Node000011"><a xlink:title=" ">
<path fill="none" stroke="#63b8ff" d="M1867.4,-152.3C1910.96,-141.22 1963.78,-127.79 2005.75,-117.12"/>
<polygon fill="#63b8ff" stroke="#63b8ff" points="1866.51,-148.91 1857.68,-154.77 1868.23,-155.7 1866.51,-148.91"/>
</a>
</g>
</g>
<!-- Node12&#45;&gt;Node5 -->
<g id="edge40_Node000012_Node000005" class="edge">
<title>Node12&#45;&gt;Node5</title>
<g id="a_edge40_Node000012_Node000005"><a xlink:title=" ">
<path fill="none" stroke="#63b8ff" d="M1180.88,-304.8C1207.72,-295.85 1237.69,-284.66 1264,-272 1321.78,-244.2 1332.55,-230.41 1386,-195 1412.62,-177.36 1417.1,-169.54 1445,-154 1469.44,-140.39 1497.88,-127.76 1521.74,-118"/>
<polygon fill="#63b8ff" stroke="#63b8ff" points="1179.56,-301.55 1171.15,-308 1181.74,-308.2 1179.56,-301.55"/>
</a>
</g>
</g>
<!-- Node12&#45;&gt;Node6 -->
<g id="edge42_Node000012_Node000006" class="edge">
<title>Node12&#45;&gt;Node6</title>
<g id="a_edge42_Node000012_Node000006"><a xlink:title=" ">
<path fill="none" stroke="#63b8ff" d="M1193.42,-324.23C1309.57,-316.17 1514.62,-288.6 1660,-195 1675.61,-184.95 1704.93,-143.55 1721.91,-118.35"/>
<polygon fill="#63b8ff" stroke="#63b8ff" points="1192.9,-320.76 1183.16,-324.91 1193.36,-327.74 1192.9,-320.76"/>
</a>
</g>
</g>
<!-- Node12&#45;&gt;Node7 -->
<g id="edge43_Node000012_Node000007" class="edge">
<title>Node12&#45;&gt;Node7</title>
<g id="a_edge43_Node000012_Node000007"><a xlink:title=" ">
<path fill="none" stroke="#63b8ff" d="M1014.9,-317.78C951.48,-309.39 864.78,-294.95 791,-272 712.18,-247.49 677.72,-255.9 622,-195 602.22,-173.38 593.81,-139.54 590.33,-118.21"/>
<polygon fill="#63b8ff" stroke="#63b8ff" points="1014.51,-321.25 1024.87,-319.07 1015.41,-314.31 1014.51,-321.25"/>
</a>
</g>
</g>
<!-- Node12&#45;&gt;Node8 -->
<g id="edge44_Node000012_Node000008" class="edge">
<title>Node12&#45;&gt;Node8</title>
<g id="a_edge44_Node000012_Node000008"><a xlink:title=" ">
<path fill="none" stroke="#63b8ff" d="M1155.98,-303.62C1204.23,-280.02 1276.59,-240.87 1331,-195 1358.26,-172.02 1383.64,-139.18 1398.49,-118.35"/>
<polygon fill="#63b8ff" stroke="#63b8ff" points="1154.44,-300.48 1146.97,-307.99 1157.49,-306.78 1154.44,-300.48"/>
</a>
</g>
</g>
<!-- Node13 -->
<g id="Node000013" class="node">
<title>Node13</title>
<g id="a_Node000013"><a xlink:href="SceneManager_8hpp.html" target="_top" xlink:title=" ">
<polygon fill="white" stroke="#666666" points="997.5,-272 800.5,-272 800.5,-231 997.5,-231 997.5,-272"/>
<text text-anchor="start" x="808.5" y="-260" font-family="Helvetica,sans-Serif" font-size="10.00">/home/runner/work/R</text>
<text text-anchor="start" x="808.5" y="-249" font-family="Helvetica,sans-Serif" font-size="10.00">&#45;Type/R&#45;Type/Client</text>
<text text-anchor="middle" x="899" y="-238" font-family="Helvetica,sans-Serif" font-size="10.00">/src/engine/scene/SceneManager.hpp</text>
</a>
</g>
</g>
<!-- Node12&#45;&gt;Node13 -->
<g id="edge20_Node000012_Node000013" class="edge">
<title>Node12&#45;&gt;Node13</title>
<g id="a_edge20_Node000012_Node000013"><a xlink:title=" ">
<path fill="none" stroke="#63b8ff" d="M1041.24,-304.54C1012.83,-294.15 979.61,-281.99 952.41,-272.04"/>
<polygon fill="#63b8ff" stroke="#63b8ff" points="1040.08,-307.84 1050.67,-307.99 1042.49,-301.27 1040.08,-307.84"/>
</a>
</g>
</g>
<!-- Node17 -->
<g id="Node000017" class="node">
<title>Node17</title>
<g id="a_Node000017"><a xlink:href="GameOver_8hpp.html" target="_top" xlink:title=" ">
<polygon fill="white" stroke="#666666" points="504,-118 358,-118 358,-77 504,-77 504,-118"/>
<text text-anchor="start" x="366" y="-106" font-family="Helvetica,sans-Serif" font-size="10.00">/home/runner/work/R</text>
<text text-anchor="start" x="366" y="-95" font-family="Helvetica,sans-Serif" font-size="10.00">&#45;Type/R&#45;Type/Client</text>
<text text-anchor="middle" x="431" y="-84" font-family="Helvetica,sans-Serif" font-size="10.00">/src/scenes/GameOver.hpp</text>
</a>
</g>
</g>
<!-- Node12&#45;&gt;Node17 -->
<g id="edge39_Node000012_Node000017" class="edge">
<title>Node12&#45;&gt;Node17</title>
<g id="a_edge39_Node000012_Node000017"><a xlink:title=" ">
<path fill="none" stroke="#63b8ff" d="M1014.76,-321.2C904.33,-312.57 723.13,-295.41 660,-272 601.98,-250.48 590.02,-236.37 544,-195 526.4,-179.17 527.39,-170.06 510,-154 495.59,-140.7 477.85,-127.96 462.83,-118.05"/>
<polygon fill="#63b8ff" stroke="#63b8ff" points="1014.65,-324.7 1024.89,-321.98 1015.19,-317.72 1014.65,-324.7"/>
</a>
</g>
</g>
<!-- Node18 -->
<g id="Node000018" class="node">
<title>Node18</title>
<g id="a_Node000018"><a xlink:href="MainGame_8hpp.html" target="_top" xlink:title=" ">
<polygon fill="white" stroke="#666666" points="148,-118 0,-118 0,-77 148,-77 148,-118"/>
<text text-anchor="start" x="8" y="-106" font-family="Helvetica,sans-Serif" font-size="10.00">/home/runner/work/R</text>
<text text-anchor="start" x="8" y="-95" font-family="Helvetica,sans-Serif" font-size="10.00">&#45;Type/R&#45;Type/Client</text>
<text text-anchor="middle" x="74" y="-84" font-family="Helvetica,sans-Serif" font-size="10.00">/src/scenes/MainGame.hpp</text>
</a>
</g>
</g>
<!-- Node12&#45;&gt;Node18 -->
<g id="edge41_Node000012_Node000018" class="edge">
<title>Node12&#45;&gt;Node18</title>
<g id="a_edge41_Node000012_Node000018"><a xlink:title=" ">
<path fill="none" stroke="#63b8ff" d="M1014.47,-322.67C909.94,-315.96 732.22,-301.18 582,-272 459.51,-248.2 429.99,-235.61 312,-195 243.28,-171.35 165.58,-138.69 118.2,-118.09"/>
<polygon fill="#63b8ff" stroke="#63b8ff" points="1014.46,-326.18 1024.67,-323.32 1014.91,-319.19 1014.46,-326.18"/>
</a>
</g>
</g>
<!-- Node13&#45;&gt;Node3 -->
<g id="edge21_Node000013_Node000003" class="edge">
<title>Node13&#45;&gt;Node3</title>
<g id="a_edge21_Node000013_Node000003"><a xlink:title=" ">
<path fill="none" stroke="#63b8ff" d="M834.42,-227.1C759.47,-196.38 652.03,-139 701,-77 722.23,-50.12 812.63,-34.85 874.39,-27.38"/>
<polygon fill="#63b8ff" stroke="#63b8ff" points="833.26,-230.41 843.84,-230.9 835.87,-223.92 833.26,-230.41"/>
</a>
</g>
</g>
<!-- Node13&#45;&gt;Node5 -->
<g id="edge33_Node000013_Node000005" class="edge">
<title>Node13&#45;&gt;Node5</title>
<g id="a_edge33_Node000013_Node000005"><a xlink:title=" ">
<path fill="none" stroke="#63b8ff" d="M1007.59,-246.76C1096.28,-241.3 1223.99,-227.89 1331,-195 1369.57,-183.15 1374.84,-169.72 1412,-154 1443.72,-140.58 1479.91,-127.88 1509.94,-118.02"/>
<polygon fill="#63b8ff" stroke="#63b8ff" points="1007.29,-243.27 997.51,-247.36 1007.7,-250.26 1007.29,-243.27"/>
</a>
</g>
</g>
<!-- Node13&#45;&gt;Node6 -->
<g id="edge36_Node000013_Node000006" class="edge">
<title>Node13&#45;&gt;Node6</title>
<g id="a_edge36_Node000013_Node000006"><a xlink:title=" ">
<path fill="none" stroke="#63b8ff" d="M1008.08,-250.89C1182.76,-250.08 1516.53,-242.13 1624,-195 1648.48,-184.27 1647.92,-171.64 1668,-154 1681.84,-141.84 1697.71,-128.66 1710.52,-118.2"/>
<polygon fill="#63b8ff" stroke="#63b8ff" points="1007.82,-247.4 997.83,-250.94 1007.85,-254.4 1007.82,-247.4"/>
</a>
</g>
</g>
<!-- Node13&#45;&gt;Node7 -->
<g id="edge37_Node000013_Node000007" class="edge">
<title>Node13&#45;&gt;Node7</title>
<g id="a_edge37_Node000013_Node000007"><a xlink:title=" ">
<path fill="none" stroke="#63b8ff" d="M790.36,-239.12C749.7,-231.2 704.54,-217.77 668,-195 636.97,-175.67 612.21,-140.15 598.86,-118.02"/>
<polygon fill="#63b8ff" stroke="#63b8ff" points="789.85,-242.58 800.32,-240.97 791.13,-235.7 789.85,-242.58"/>
</a>
</g>
</g>
<!-- Node13&#45;&gt;Node8 -->
<g id="edge38_Node000013_Node000008" class="edge">
<title>Node13&#45;&gt;Node8</title>
<g id="a_edge38_Node000013_Node000008"><a xlink:title=" ">
<path fill="none" stroke="#63b8ff" d="M965.58,-227.58C993.84,-217.73 1027.09,-205.98 1057,-195 1104.81,-177.45 1115.24,-168.71 1164,-154 1222.4,-136.38 1290.05,-121.6 1339.93,-111.74"/>
<polygon fill="#63b8ff" stroke="#63b8ff" points="964.11,-224.39 955.81,-230.98 966.41,-231 964.11,-224.39"/>
</a>
</g>
</g>
<!-- Node14 -->
<g id="Node000014" class="node">
<title>Node14</title>
<g id="a_Node000014"><a xlink:href="GameEngine_8hpp.html" target="_top" xlink:title=" ">
<polygon fill="white" stroke="#666666" points="1048,-195 892,-195 892,-154 1048,-154 1048,-195"/>
<text text-anchor="start" x="900" y="-183" font-family="Helvetica,sans-Serif" font-size="10.00">/home/runner/work/R</text>
<text text-anchor="start" x="900" y="-172" font-family="Helvetica,sans-Serif" font-size="10.00">&#45;Type/R&#45;Type/Client</text>
<text text-anchor="middle" x="970" y="-161" font-family="Helvetica,sans-Serif" font-size="10.00">/src/engine/GameEngine.hpp</text>
</a>
</g>
</g>
<!-- Node13&#45;&gt;Node14 -->
<g id="edge22_Node000013_Node000014" class="edge">
<title>Node13&#45;&gt;Node14</title>
<g id="a_edge22_Node000013_Node000014"><a xlink:title=" ">
<path fill="none" stroke="#63b8ff" d="M924.55,-223.51C933.45,-214.11 943.25,-203.76 951.47,-195.07"/>
<polygon fill="#63b8ff" stroke="#63b8ff" points="921.99,-221.13 917.65,-230.79 927.07,-225.94 921.99,-221.13"/>
</a>
</g>
</g>
<!-- Node16 -->
<g id="Node000016" class="node">
<title>Node16</title>
<g id="a_Node000016"><a xlink:href="SceneManager_8cpp.html" target="_top" xlink:title=" ">
<polygon fill="white" stroke="#666666" points="906,-118 710,-118 710,-77 906,-77 906,-118"/>
<text text-anchor="start" x="718" y="-106" font-family="Helvetica,sans-Serif" font-size="10.00">/home/runner/work/R</text>
<text text-anchor="start" x="718" y="-95" font-family="Helvetica,sans-Serif" font-size="10.00">&#45;Type/R&#45;Type/Client</text>
<text text-anchor="middle" x="808" y="-84" font-family="Helvetica,sans-Serif" font-size="10.00">/src/engine/scene/SceneManager.cpp</text>
</a>
</g>
</g>
<!-- Node13&#45;&gt;Node16 -->
<g id="edge30_Node000013_Node000016" class="edge">
<title>Node13&#45;&gt;Node16</title>
<g id="a_edge30_Node000013_Node000016"><a xlink:title=" ">
<path fill="none" stroke="#63b8ff" d="M882.03,-222.15C863.96,-191.97 835.83,-144.98 819.95,-118.47"/>
<polygon fill="#63b8ff" stroke="#63b8ff" points="879.15,-224.16 887.29,-230.94 885.16,-220.56 879.15,-224.16"/>
</a>
</g>
</g>
<!-- Node13&#45;&gt;Node17 -->
<g id="edge31_Node000013_Node000017" class="edge">
<title>Node13&#45;&gt;Node17</title>
<g id="a_edge31_Node000013_Node000017"><a xlink:title=" ">
<path fill="none" stroke="#63b8ff" d="M790.47,-236.14C738.55,-227.42 676.07,-214.18 622,-195 585.09,-181.91 578.91,-171.75 544,-154 520.03,-141.82 493.01,-128.53 471.4,-118.01"/>
<polygon fill="#63b8ff" stroke="#63b8ff" points="789.94,-239.6 800.38,-237.77 791.08,-232.69 789.94,-239.6"/>
</a>
</g>
</g>
<!-- Node13&#45;&gt;Node18 -->
<g id="edge34_Node000013_Node000018" class="edge">
<title>Node13&#45;&gt;Node18</title>
<g id="a_edge34_Node000013_Node000018"><a xlink:title=" ">
<path fill="none" stroke="#63b8ff" d="M790.45,-247.7C654.42,-242.78 430.03,-229.56 355,-195 331.02,-183.95 335.24,-166.54 312,-154 249.76,-120.41 225.87,-134.09 157,-118 154.12,-117.33 151.18,-116.64 148.21,-115.94"/>
<polygon fill="#63b8ff" stroke="#63b8ff" points="790.38,-251.2 800.49,-248.06 790.62,-244.21 790.38,-251.2"/>
</a>
</g>
</g>
<!-- Node14&#45;&gt;Node3 -->
<g id="edge23_Node000014_Node000003" class="edge">
<title>Node14&#45;&gt;Node3</title>
<g id="a_edge23_Node000014_Node000003"><a xlink:title=" ">
<path fill="none" stroke="#63b8ff" d="M960.38,-144.12C957.81,-135.73 955.14,-126.55 953,-118 946.39,-91.67 940.66,-60.82 937.27,-41.22"/>
<polygon fill="#63b8ff" stroke="#63b8ff" points="957.11,-145.37 963.44,-153.86 963.79,-143.27 957.11,-145.37"/>
</a>
</g>
</g>
<!-- Node14&#45;&gt;Node5 -->
<g id="edge26_Node000014_Node000005" class="edge">
<title>Node14&#45;&gt;Node5</title>
<g id="a_edge26_Node000014_Node000005"><a xlink:title=" ">
<path fill="none" stroke="#63b8ff" d="M1058.33,-164.44C1201.86,-149.66 1471.94,-121.67 1493,-118 1495.82,-117.51 1498.68,-116.98 1501.57,-116.41"/>
<polygon fill="#63b8ff" stroke="#63b8ff" points="1057.81,-160.97 1048.22,-165.48 1058.53,-167.93 1057.81,-160.97"/>
</a>
</g>
</g>
<!-- Node14&#45;&gt;Node6 -->
<g id="edge27_Node000014_Node000006" class="edge">
<title>Node14&#45;&gt;Node6</title>
<g id="a_edge27_Node000014_Node000006"><a xlink:title=" ">
<path fill="none" stroke="#63b8ff" d="M1058.41,-164.11C1091.52,-160.73 1129.47,-157.01 1164,-154 1381.1,-135.1 1437.64,-151.31 1653,-118 1655.89,-117.55 1658.83,-117.06 1661.8,-116.52"/>
<polygon fill="#63b8ff" stroke="#63b8ff" points="1057.89,-160.65 1048.3,-165.15 1058.61,-167.61 1057.89,-160.65"/>
</a>
</g>
</g>
<!-- Node14&#45;&gt;Node7 -->
<g id="edge28_Node000014_Node000007" class="edge">
<title>Node14&#45;&gt;Node7</title>
<g id="a_edge28_Node000014_Node000007"><a xlink:title=" ">
<path fill="none" stroke="#63b8ff" d="M881.72,-156.17C812.26,-142.53 717,-123.83 654.03,-111.46"/>
<polygon fill="#63b8ff" stroke="#63b8ff" points="881.29,-159.65 891.77,-158.14 882.64,-152.78 881.29,-159.65"/>
</a>
</g>
</g>
<!-- Node14&#45;&gt;Node8 -->
<g id="edge29_Node000014_Node000008" class="edge">
<title>Node14&#45;&gt;Node8</title>
<g id="a_edge29_Node000014_Node000008"><a xlink:title=" ">
<path fill="none" stroke="#63b8ff" d="M1057.88,-158.59C1140.55,-144.56 1262.82,-123.81 1339.9,-110.73"/>
<polygon fill="#63b8ff" stroke="#63b8ff" points="1057.28,-155.14 1048,-160.26 1058.45,-162.04 1057.28,-155.14"/>
</a>
</g>
</g>
<!-- Node15 -->
<g id="Node000015" class="node">
<title>Node15</title>
<g id="a_Node000015"><a xlink:href="GameEngine_8cpp.html" target="_top" xlink:title=" ">
<polygon fill="white" stroke="#666666" points="1117.5,-118 962.5,-118 962.5,-77 1117.5,-77 1117.5,-118"/>
<text text-anchor="start" x="970.5" y="-106" font-family="Helvetica,sans-Serif" font-size="10.00">/home/runner/work/R</text>
<text text-anchor="start" x="970.5" y="-95" font-family="Helvetica,sans-Serif" font-size="10.00">&#45;Type/R&#45;Type/Client</text>
<text text-anchor="middle" x="1040" y="-84" font-family="Helvetica,sans-Serif" font-size="10.00">/src/engine/GameEngine.cpp</text>
</a>
</g>
</g>
<!-- Node14&#45;&gt;Node15 -->
<g id="edge24_Node000014_Node000015" class="edge">
<title>Node14&#45;&gt;Node15</title>
<g id="a_edge24_Node000014_Node000015"><a xlink:title=" ">
<path fill="none" stroke="#63b8ff" d="M995.45,-146.23C1004.15,-136.91 1013.71,-126.67 1021.73,-118.07"/>
<polygon fill="#63b8ff" stroke="#63b8ff" points="992.66,-144.1 988.39,-153.79 997.77,-148.87 992.66,-144.1"/>
</a>
</g>
</g>
<!-- Node14&#45;&gt;Node16 -->
<g id="edge25_Node000014_Node000016" class="edge">
<title>Node14&#45;&gt;Node16</title>
<g id="a_edge25_Node000014_Node000016"><a xlink:title=" ">
<path fill="none" stroke="#63b8ff" d="M918.64,-149.72C896.59,-139.51 871.14,-127.73 850.21,-118.04"/>
<polygon fill="#63b8ff" stroke="#63b8ff" points="917.31,-152.97 927.86,-153.99 920.26,-146.61 917.31,-152.97"/>
</a>
</g>
</g>
<!-- Node17&#45;&gt;Node3 -->
<g id="edge32_Node000017_Node000003" class="edge">
<title>Node17&#45;&gt;Node3</title>
<g id="a_edge32_Node000017_Node000003"><a xlink:title=" ">
<path fill="none" stroke="#63b8ff" d="M514.28,-76.85C648.33,-52.57 794.6,-35.76 874.44,-27.41"/>
<polygon fill="#63b8ff" stroke="#63b8ff" points="513.45,-73.45 504.24,-78.69 514.71,-80.33 513.45,-73.45"/>
</a>
</g>
</g>
<!-- Node18&#45;&gt;Node3 -->
<g id="edge35_Node000018_Node000003" class="edge">
<title>Node18&#45;&gt;Node3</title>
<g id="a_edge35_Node000018_Node000003"><a xlink:title=" ">
<path fill="none" stroke="#63b8ff" d="M158.16,-76.95C430.2,-36.34 744.97,-25.45 874.18,-22.53"/>
<polygon fill="#63b8ff" stroke="#63b8ff" points="157.46,-73.52 148.1,-78.47 158.51,-80.44 157.46,-73.52"/>
</a>
</g>
</g>
<!-- Node19&#45;&gt;Node18 -->
<g id="edge47_Node000019_Node000018" class="edge">
<title>Node19&#45;&gt;Node18</title>
<g id="a_edge47_Node000019_Node000018"><a xlink:title=" ">
<path fill="none" stroke="#63b8ff" d="M125.57,-302.72C112.93,-294.71 100.98,-284.56 93,-272 62.36,-223.79 66.54,-152.51 70.88,-118.27"/>
<polygon fill="#63b8ff" stroke="#63b8ff" points="124,-305.86 134.39,-307.93 127.56,-299.83 124,-305.86"/>
</a>
</g>
</g>
<!-- Node20 -->
<g id="Node000020" class="node">
<title>Node20</title>
<g id="a_Node000020"><a xlink:href="UISolidColor_8cpp.html" target="_top" xlink:title=" ">
<polygon fill="white" stroke="#666666" points="266,-272 102,-272 102,-231 266,-231 266,-272"/>
<text text-anchor="start" x="110" y="-260" font-family="Helvetica,sans-Serif" font-size="10.00">/home/runner/work/R</text>
<text text-anchor="start" x="110" y="-249" font-family="Helvetica,sans-Serif" font-size="10.00">&#45;Type/R&#45;Type/Client</text>
<text text-anchor="middle" x="184" y="-238" font-family="Helvetica,sans-Serif" font-size="10.00">/src/engine/ui/UISolidColor.cpp</text>
</a>
</g>
</g>
<!-- Node19&#45;&gt;Node20 -->
<g id="edge46_Node000019_Node000020" class="edge">
<title>Node19&#45;&gt;Node20</title>
<g id="a_edge46_Node000019_Node000020"><a xlink:title=" ">
<path fill="none" stroke="#63b8ff" d="M184,-297.69C184,-289.08 184,-279.9 184,-272.07"/>
<polygon fill="#63b8ff" stroke="#63b8ff" points="180.5,-297.79 184,-307.79 187.5,-297.79 180.5,-297.79"/>
</a>
</g>
</g>
<!-- Node21&#45;&gt;Node3 -->
<g id="edge49_Node000021_Node000003" class="edge">
<title>Node21&#45;&gt;Node3</title>
<g id="a_edge49_Node000021_Node000003"><a xlink:title=" ">
<path fill="none" stroke="#63b8ff" d="M378.08,-148.47C366.44,-140.47 355.66,-130.39 349,-118 340.37,-101.95 336.74,-90.48 349,-77 383.9,-38.63 732.56,-26.2 874.43,-22.71"/>
<polygon fill="#63b8ff" stroke="#63b8ff" points="376.35,-151.52 386.66,-153.94 380.11,-145.62 376.35,-151.52"/>
</a>
</g>
</g>
<!-- Node21&#45;&gt;Node5 -->
<g id="edge52_Node000021_Node000005" class="edge">
<title>Node21&#45;&gt;Node5</title>
<g id="a_edge52_Node000021_Node000005"><a xlink:title=" ">
<path fill="none" stroke="#63b8ff" d="M512.01,-170.22C741.35,-160.57 1396.99,-132.09 1493,-118 1495.83,-117.58 1498.7,-117.12 1501.6,-116.6"/>
<polygon fill="#63b8ff" stroke="#63b8ff" points="511.58,-166.73 501.74,-170.65 511.88,-173.73 511.58,-166.73"/>
</a>
</g>
</g>
<!-- Node21&#45;&gt;Node6 -->
<g id="edge54_Node000021_Node000006" class="edge">
<title>Node21&#45;&gt;Node6</title>
<g id="a_edge54_Node000021_Node000006"><a xlink:title=" ">
<path fill="none" stroke="#63b8ff" d="M511.92,-170.11C777.63,-158.67 1624.69,-121.97 1653,-118 1655.9,-117.59 1658.84,-117.13 1661.81,-116.62"/>
<polygon fill="#63b8ff" stroke="#63b8ff" points="511.42,-166.63 501.58,-170.55 511.73,-173.62 511.42,-166.63"/>
</a>
</g>
</g>
<!-- Node21&#45;&gt;Node7 -->
<g id="edge55_Node000021_Node000007" class="edge">
<title>Node21&#45;&gt;Node7</title>
<g id="a_edge55_Node000021_Node000007"><a xlink:title=" ">
<path fill="none" stroke="#63b8ff" d="M482.42,-149.59C503.46,-139.41 527.68,-127.69 547.61,-118.04"/>
<polygon fill="#63b8ff" stroke="#63b8ff" points="480.8,-146.48 473.32,-153.99 483.85,-152.79 480.8,-146.48"/>
</a>
</g>
</g>
<!-- Node21&#45;&gt;Node8 -->
<g id="edge56_Node000021_Node000008" class="edge">
<title>Node21&#45;&gt;Node8</title>
<g id="a_edge56_Node000021_Node000008"><a xlink:title=" ">
<path fill="none" stroke="#63b8ff" d="M511.91,-170.99C663.63,-165.6 1006.36,-150.65 1293,-118 1308.18,-116.27 1324.39,-113.94 1339.79,-111.5"/>
<polygon fill="#63b8ff" stroke="#63b8ff" points="511.63,-167.5 501.76,-171.35 511.88,-174.5 511.63,-167.5"/>
</a>
</g>
</g>
<!-- Node21&#45;&gt;Node17 -->
<g id="edge51_Node000021_Node000017" class="edge">
<title>Node21&#45;&gt;Node17</title>
<g id="a_edge51_Node000021_Node000017"><a xlink:title=" ">
<path fill="none" stroke="#63b8ff" d="M432.21,-143.69C431.98,-135.08 431.73,-125.9 431.52,-118.07"/>
<polygon fill="#63b8ff" stroke="#63b8ff" points="428.71,-143.89 432.47,-153.79 435.71,-143.7 428.71,-143.89"/>
</a>
</g>
</g>
<!-- Node21&#45;&gt;Node18 -->
<g id="edge53_Node000021_Node000018" class="edge">
<title>Node21&#45;&gt;Node18</title>
<g id="a_edge53_Node000021_Node000018"><a xlink:title=" ">
<path fill="none" stroke="#63b8ff" d="M354.38,-154.93C352.91,-154.62 351.45,-154.31 350,-154 264.62,-136.02 242.38,-135.98 157,-118 154.1,-117.39 151.15,-116.76 148.17,-116.11"/>
<polygon fill="#63b8ff" stroke="#63b8ff" points="353.7,-158.36 364.21,-157.08 355.19,-151.53 353.7,-158.36"/>
</a>
</g>
</g>
<!-- Node22 -->
<g id="Node000022" class="node">
<title>Node22</title>
<g id="a_Node000022"><a xlink:href="UIText_8cpp.html" target="_top" xlink:title=" ">
<polygon fill="white" stroke="#666666" points="302,-118 166,-118 166,-77 302,-77 302,-118"/>
<text text-anchor="start" x="174" y="-106" font-family="Helvetica,sans-Serif" font-size="10.00">/home/runner/work/R</text>
<text text-anchor="start" x="174" y="-95" font-family="Helvetica,sans-Serif" font-size="10.00">&#45;Type/R&#45;Type/Client</text>
<text text-anchor="middle" x="234" y="-84" font-family="Helvetica,sans-Serif" font-size="10.00">/src/engine/ui/UIText.cpp</text>
</a>
</g>
</g>
<!-- Node21&#45;&gt;Node22 -->
<g id="edge50_Node000021_Node000022" class="edge">
<title>Node21&#45;&gt;Node22</title>
<g id="a_edge50_Node000021_Node000022"><a xlink:title=" ">
<path fill="none" stroke="#63b8ff" d="M371.72,-150.4C344.22,-140.04 312.13,-127.95 285.85,-118.04"/>
<polygon fill="#63b8ff" stroke="#63b8ff" points="370.64,-153.74 381.23,-153.99 373.11,-147.19 370.64,-153.74"/>
</a>
</g>
</g>
<!-- Node23&#45;&gt;Node5 -->
<g id="edge59_Node000023_Node000005" class="edge">
<title>Node23&#45;&gt;Node5</title>
<g id="a_edge59_Node000023_Node000005"><a xlink:title=" ">
<path fill="none" stroke="#63b8ff" d="M1549.53,-144.83C1554.06,-135.89 1558.95,-126.24 1563.08,-118.07"/>
<polygon fill="#63b8ff" stroke="#63b8ff" points="1546.38,-143.29 1544.98,-153.79 1552.63,-146.46 1546.38,-143.29"/>
</a>
</g>
</g>
<!-- Node23&#45;&gt;Node6 -->
<g id="edge60_Node000023_Node000006" class="edge">
<title>Node23&#45;&gt;Node6</title>
<g id="a_edge60_Node000023_Node000006"><a xlink:title=" ">
<path fill="none" stroke="#63b8ff" d="M1596.59,-150.4C1624.23,-140.04 1656.47,-127.95 1682.89,-118.04"/>
<polygon fill="#63b8ff" stroke="#63b8ff" points="1595.16,-147.2 1587.03,-153.99 1597.62,-153.76 1595.16,-147.2"/>
</a>
</g>
</g>
<!-- Node23&#45;&gt;Node8 -->
<g id="edge61_Node000023_Node000008" class="edge">
<title>Node23&#45;&gt;Node8</title>
<g id="a_edge61_Node000023_Node000008"><a xlink:title=" ">
<path fill="none" stroke="#63b8ff" d="M1494.24,-148.64C1477.99,-138.74 1459.55,-127.5 1444.26,-118.17"/>
<polygon fill="#63b8ff" stroke="#63b8ff" points="1492.64,-151.77 1503,-153.99 1496.29,-145.8 1492.64,-151.77"/>
</a>
</g>
</g>
<!-- Node24 -->
<g id="Node000024" class="node">
<title>Node24</title>
<g id="a_Node000024"><a xlink:href="UITextInput_8cpp.html" target="_top" xlink:title=" ">
<polygon fill="white" stroke="#666666" points="1987.5,-118 1826.5,-118 1826.5,-77 1987.5,-77 1987.5,-118"/>
<text text-anchor="start" x="1834.5" y="-106" font-family="Helvetica,sans-Serif" font-size="10.00">/home/runner/work/R</text>
<text text-anchor="start" x="1834.5" y="-95" font-family="Helvetica,sans-Serif" font-size="10.00">&#45;Type/R&#45;Type/Client</text>
<text text-anchor="middle" x="1907" y="-84" font-family="Helvetica,sans-Serif" font-size="10.00">/src/engine/ui/UITextInput.cpp</text>
</a>
</g>
</g>
<!-- Node23&#45;&gt;Node24 -->
<g id="edge58_Node000023_Node000024" class="edge">
<title>Node23&#45;&gt;Node24</title>
<g id="a_edge58_Node000023_Node000024"><a xlink:title=" ">
<path fill="none" stroke="#63b8ff" d="M1625.74,-156.1C1681.06,-145.37 1753.17,-131.19 1817,-118 1819.97,-117.39 1823,-116.75 1826.06,-116.11"/>
<polygon fill="#63b8ff" stroke="#63b8ff" points="1624.76,-152.72 1615.61,-158.06 1626.1,-159.59 1624.76,-152.72"/>
</a>
</g>
</g>
</g>
</svg>
