<?xml version="1.0" encoding="UTF-8" standalone="no"?>
<!DOCTYPE svg PUBLIC "-//W3C//DTD SVG 1.1//EN"
 "http://www.w3.org/Graphics/SVG/1.1/DTD/svg11.dtd">
<!-- Generated by graphviz version 2.43.0 (0)
 -->
<!-- Title: /home/runner/work/R&#45;Type/R&#45;Type/Client/src/engine/ui/UIImage.hpp Pages: 1 -->
<svg width="661pt" height="203pt"
 viewBox="0.00 0.00 660.63 203.00" xmlns="http://www.w3.org/2000/svg" xmlns:xlink="http://www.w3.org/1999/xlink">
<g id="graph0" class="graph" transform="scale(1 1) rotate(0) translate(4 199)">
<title>/home/runner/work/R&#45;Type/R&#45;Type/Client/src/engine/ui/UIImage.hpp</title>
<!-- Node1 -->
<g id="Node000001" class="node">
<title>Node1</title>
<g id="a_Node000001"><a xlink:title=" ">
<polygon fill="#999999" stroke="#666666" points="329.13,-195 182.13,-195 182.13,-154 329.13,-154 329.13,-195"/>
<text text-anchor="start" x="190.13" y="-183" font-family="Helvetica,sans-Serif" font-size="10.00">/home/runner/work/R</text>
<text text-anchor="start" x="190.13" y="-172" font-family="Helvetica,sans-Serif" font-size="10.00">&#45;Type/R&#45;Type/Client</text>
<text text-anchor="middle" x="255.63" y="-161" font-family="Helvetica,sans-Serif" font-size="10.00">/src/engine/ui/UIImage.hpp</text>
</a>
</g>
</g>
<!-- Node2 -->
<g id="Node000002" class="node">
<title>Node2</title>
<g id="a_Node000002"><a xlink:href="Main_8cpp.html" target="_top" xlink:title=" ">
<polygon fill="white" stroke="#666666" points="396.13,-41 277.13,-41 277.13,0 396.13,0 396.13,-41"/>
<text text-anchor="start" x="285.13" y="-29" font-family="Helvetica,sans-Serif" font-size="10.00">/home/runner/work/R</text>
<text text-anchor="start" x="285.13" y="-18" font-family="Helvetica,sans-Serif" font-size="10.00">&#45;Type/R&#45;Type/Client</text>
<text text-anchor="middle" x="336.63" y="-7" font-family="Helvetica,sans-Serif" font-size="10.00">/src/Main.cpp</text>
</a>
</g>
</g>
<!-- Node1&#45;&gt;Node2 -->
<g id="edge1_Node000001_Node000002" class="edge">
<title>Node1&#45;&gt;Node2</title>
<g id="a_edge1_Node000001_Node000002"><a xlink:title=" ">
<path fill="none" stroke="#63b8ff" d="M171.88,-167.91C83.16,-158.85 -37.8,-135.58 11.63,-77 44.89,-37.57 192.44,-26.15 276.84,-22.85"/>
<polygon fill="#63b8ff" stroke="#63b8ff" points="171.69,-171.41 181.98,-168.89 172.37,-164.44 171.69,-171.41"/>
</a>
</g>
</g>
<!-- Node3 -->
<g id="Node000003" class="node">
<title>Node3</title>
<g id="a_Node000003"><a xlink:href="UIImage_8cpp.html" target="_top" xlink:title=" ">
<polygon fill="white" stroke="#666666" points="166.63,-118 20.63,-118 20.63,-77 166.63,-77 166.63,-118"/>
<text text-anchor="start" x="28.63" y="-106" font-family="Helvetica,sans-Serif" font-size="10.00">/home/runner/work/R</text>
<text text-anchor="start" x="28.63" y="-95" font-family="Helvetica,sans-Serif" font-size="10.00">&#45;Type/R&#45;Type/Client</text>
<text text-anchor="middle" x="93.63" y="-84" font-family="Helvetica,sans-Serif" font-size="10.00">/src/engine/ui/UIImage.cpp</text>
</a>
</g>
</g>
<!-- Node1&#45;&gt;Node3 -->
<g id="edge2_Node000001_Node000003" class="edge">
<title>Node1&#45;&gt;Node3</title>
<g id="a_edge2_Node000001_Node000003"><a xlink:title=" ">
<path fill="none" stroke="#63b8ff" d="M204.27,-149.72C182.22,-139.51 156.77,-127.73 135.84,-118.04"/>
<polygon fill="#63b8ff" stroke="#63b8ff" points="202.94,-152.97 213.49,-153.99 205.88,-146.61 202.94,-152.97"/>
</a>
</g>
</g>
<!-- Node4 -->
<g id="Node000004" class="node">
<title>Node4</title>
<g id="a_Node000004"><a xlink:href="JoinGame_8hpp.html" target="_top" xlink:title=" ">
<polygon fill="white" stroke="#666666" points="326.63,-118 184.63,-118 184.63,-77 326.63,-77 326.63,-118"/>
<text text-anchor="start" x="192.63" y="-106" font-family="Helvetica,sans-Serif" font-size="10.00">/home/runner/work/R</text>
<text text-anchor="start" x="192.63" y="-95" font-family="Helvetica,sans-Serif" font-size="10.00">&#45;Type/R&#45;Type/Client</text>
<text text-anchor="middle" x="255.63" y="-84" font-family="Helvetica,sans-Serif" font-size="10.00">/src/scenes/JoinGame.hpp</text>
</a>
</g>
</g>
<!-- Node1&#45;&gt;Node4 -->
<g id="edge3_Node000001_Node000004" class="edge">
<title>Node1&#45;&gt;Node4</title>
<g id="a_edge3_Node000001_Node000004"><a xlink:title=" ">
<path fill="none" stroke="#63b8ff" d="M255.63,-143.69C255.63,-135.08 255.63,-125.9 255.63,-118.07"/>
<polygon fill="#63b8ff" stroke="#63b8ff" points="252.13,-143.79 255.63,-153.79 259.13,-143.79 252.13,-143.79"/>
</a>
</g>
</g>
<!-- Node5 -->
<g id="Node000005" class="node">
<title>Node5</title>
<g id="a_Node000005"><a xlink:href="MainMenu_8hpp.html" target="_top" xlink:title=" ">
<polygon fill="white" stroke="#666666" points="490.63,-118 344.63,-118 344.63,-77 490.63,-77 490.63,-118"/>
<text text-anchor="start" x="352.63" y="-106" font-family="Helvetica,sans-Serif" font-size="10.00">/home/runner/work/R</text>
<text text-anchor="start" x="352.63" y="-95" font-family="Helvetica,sans-Serif" font-size="10.00">&#45;Type/R&#45;Type/Client</text>
<text text-anchor="middle" x="417.63" y="-84" font-family="Helvetica,sans-Serif" font-size="10.00">/src/scenes/MainMenu.hpp</text>
</a>
</g>
</g>
<!-- Node1&#45;&gt;Node5 -->
<g id="edge5_Node000001_Node000005" class="edge">
<title>Node1&#45;&gt;Node5</title>
<g id="a_edge5_Node000001_Node000005"><a xlink:title=" ">
<path fill="none" stroke="#63b8ff" d="M306.99,-149.72C329.04,-139.51 354.49,-127.73 375.42,-118.04"/>
<polygon fill="#63b8ff" stroke="#63b8ff" points="305.37,-146.61 297.77,-153.99 308.31,-152.97 305.37,-146.61"/>
</a>
</g>
</g>
<!-- Node6 -->
<g id="Node000006" class="node">
<title>Node6</title>
<g id="a_Node000006"><a xlink:href="WaitLobby_8hpp.html" target="_top" xlink:title=" ">
<polygon fill="white" stroke="#666666" points="652.63,-118 508.63,-118 508.63,-77 652.63,-77 652.63,-118"/>
<text text-anchor="start" x="516.63" y="-106" font-family="Helvetica,sans-Serif" font-size="10.00">/home/runner/work/R</text>
<text text-anchor="start" x="516.63" y="-95" font-family="Helvetica,sans-Serif" font-size="10.00">&#45;Type/R&#45;Type/Client</text>
<text text-anchor="middle" x="580.63" y="-84" font-family="Helvetica,sans-Serif" font-size="10.00">/src/scenes/WaitLobby.hpp</text>
</a>
</g>
</g>
<!-- Node1&#45;&gt;Node6 -->
<g id="edge7_Node000001_Node000006" class="edge">
<title>Node1&#45;&gt;Node6</title>
<g id="a_edge7_Node000001_Node000006"><a xlink:title=" ">
<path fill="none" stroke="#63b8ff" d="M339.22,-154.76C386.35,-144.12 446.31,-130.48 499.63,-118 502.44,-117.34 505.32,-116.67 508.21,-115.98"/>
<polygon fill="#63b8ff" stroke="#63b8ff" points="338.34,-151.37 329.36,-156.98 339.88,-158.2 338.34,-151.37"/>
</a>
</g>
</g>
<!-- Node4&#45;&gt;Node2 -->
<g id="edge4_Node000004_Node000002" class="edge">
<title>Node4&#45;&gt;Node2</title>
<g id="a_edge4_Node000004_Node000002"><a xlink:title=" ">
<path fill="none" stroke="#63b8ff" d="M284.47,-69.79C294.7,-60.32 306.02,-49.84 315.49,-41.07"/>
<polygon fill="#63b8ff" stroke="#63b8ff" points="281.87,-67.43 276.91,-76.79 286.62,-72.57 281.87,-67.43"/>
</a>
</g>
</g>
<!-- Node5&#45;&gt;Node2 -->
<g id="edge6_Node000005_Node000002" class="edge">
<title>Node5&#45;&gt;Node2</title>
<g id="a_edge6_Node000005_Node000002"><a xlink:title=" ">
<path fill="none" stroke="#63b8ff" d="M388.78,-69.79C378.55,-60.32 367.24,-49.84 357.77,-41.07"/>
<polygon fill="#63b8ff" stroke="#63b8ff" points="386.63,-72.57 396.35,-76.79 391.39,-67.43 386.63,-72.57"/>
</a>
</g>
</g>
<!-- Node6&#45;&gt;Node2 -->
<g id="edge8_Node000006_Node000002" class="edge">
<title>Node6&#45;&gt;Node2</title>
<g id="a_edge8_Node000006_Node000002"><a xlink:title=" ">
<path fill="none" stroke="#63b8ff" d="M507.35,-73.98C471.9,-63.08 429.9,-50.17 396.42,-39.88"/>
<polygon fill="#63b8ff" stroke="#63b8ff" points="506.57,-77.4 517.16,-76.99 508.63,-70.71 506.57,-77.4"/>
</a>
</g>
</g>
</g>
</svg>
