<?xml version="1.0" encoding="UTF-8" standalone="no"?>
<!DOCTYPE svg PUBLIC "-//W3C//DTD SVG 1.1//EN"
 "http://www.w3.org/Graphics/SVG/1.1/DTD/svg11.dtd">
<!-- Generated by graphviz version 2.43.0 (0)
 -->
<!-- Title: /home/runner/work/R&#45;Type/R&#45;Type/Client/src/engine/ui/UIImage.cpp Pages: 1 -->
<svg width="380pt" height="269pt"
 viewBox="0.00 0.00 380.00 269.00" xmlns="http://www.w3.org/2000/svg" xmlns:xlink="http://www.w3.org/1999/xlink">
<g id="graph0" class="graph" transform="scale(1 1) rotate(0) translate(4 265)">
<title>/home/runner/work/R&#45;Type/R&#45;Type/Client/src/engine/ui/UIImage.cpp</title>
<!-- Node1 -->
<g id="Node000001" class="node">
<title>Node1</title>
<g id="a_Node000001"><a xlink:title=" ">
<polygon fill="#999999" stroke="#666666" points="321,-261 175,-261 175,-220 321,-220 321,-261"/>
<text text-anchor="start" x="183" y="-249" font-family="Helvetica,sans-Serif" font-size="10.00">/home/runner/work/R</text>
<text text-anchor="start" x="183" y="-238" font-family="Helvetica,sans-Serif" font-size="10.00">&#45;Type/R&#45;Type/Client</text>
<text text-anchor="middle" x="248" y="-227" font-family="Helvetica,sans-Serif" font-size="10.00">/src/engine/ui/UIImage.cpp</text>
</a>
</g>
</g>
<!-- Node2 -->
<g id="Node000002" class="node">
<title>Node2</title>
<g id="a_Node000002"><a xlink:href="UIImage_8hpp.html" target="_top" xlink:title=" ">
<polygon fill="white" stroke="#666666" points="246.5,-184 155.5,-184 155.5,-165 246.5,-165 246.5,-184"/>
<text text-anchor="middle" x="201" y="-172" font-family="Helvetica,sans-Serif" font-size="10.00">ui/UIImage.hpp</text>
</a>
</g>
</g>
<!-- Node1&#45;&gt;Node2 -->
<g id="edge1_Node000001_Node000002" class="edge">
<title>Node1&#45;&gt;Node2</title>
<g id="a_edge1_Node000001_Node000002"><a xlink:title=" ">
<path fill="none" stroke="#63b8ff" d="M233.64,-219.95C227.22,-211.2 219.72,-200.99 213.52,-192.56"/>
<polygon fill="#63b8ff" stroke="#63b8ff" points="216.17,-190.25 207.43,-184.26 210.53,-194.39 216.17,-190.25"/>
</a>
</g>
</g>
<!-- Node9 -->
<g id="Node000009" class="node">
<title>Node9</title>
<g id="a_Node000009"><a xlink:title=" ">
<polygon fill="#e0e0e0" stroke="#999999" points="325,-184 265,-184 265,-165 325,-165 325,-184"/>
<text text-anchor="middle" x="295" y="-172" font-family="Helvetica,sans-Serif" font-size="10.00">iostream</text>
</a>
</g>
</g>
<!-- Node1&#45;&gt;Node9 -->
<g id="edge12_Node000001_Node000009" class="edge">
<title>Node1&#45;&gt;Node9</title>
<g id="a_edge12_Node000001_Node000009"><a xlink:title=" ">
<path fill="none" stroke="#63b8ff" d="M262.36,-219.95C268.78,-211.2 276.28,-200.99 282.48,-192.56"/>
<polygon fill="#63b8ff" stroke="#63b8ff" points="285.47,-194.39 288.57,-184.26 279.83,-190.25 285.47,-194.39"/>
</a>
</g>
</g>
<!-- Node3 -->
<g id="Node000003" class="node">
<title>Node3</title>
<g id="a_Node000003"><a xlink:title=" ">
<polygon fill="#e0e0e0" stroke="#999999" points="72,-19 0,-19 0,0 72,0 72,-19"/>
<text text-anchor="middle" x="36" y="-7" font-family="Helvetica,sans-Serif" font-size="10.00">SDL2/SDL.h</text>
</a>
</g>
</g>
<!-- Node2&#45;&gt;Node3 -->
<g id="edge2_Node000002_Node000003" class="edge">
<title>Node2&#45;&gt;Node3</title>
<g id="a_edge2_Node000002_Node000003"><a xlink:title=" ">
<path fill="none" stroke="#63b8ff" d="M188.23,-164.75C175.83,-156.09 156.63,-142.25 141,-129 114.14,-106.24 107.35,-100.34 84,-74 70.72,-59.02 57.1,-40.66 47.78,-27.55"/>
<polygon fill="#63b8ff" stroke="#63b8ff" points="50.42,-25.22 41.82,-19.04 44.69,-29.24 50.42,-25.22"/>
</a>
</g>
</g>
<!-- Node4 -->
<g id="Node000004" class="node">
<title>Node4</title>
<g id="a_Node000004"><a xlink:title=" ">
<polygon fill="#e0e0e0" stroke="#999999" points="372,-19 328,-19 328,0 372,0 372,-19"/>
<text text-anchor="middle" x="350" y="-7" font-family="Helvetica,sans-Serif" font-size="10.00">string</text>
</a>
</g>
</g>
<!-- Node2&#45;&gt;Node4 -->
<g id="edge3_Node000002_Node000004" class="edge">
<title>Node2&#45;&gt;Node4</title>
<g id="a_edge3_Node000002_Node000004"><a xlink:title=" ">
<path fill="none" stroke="#63b8ff" d="M213.88,-164.88C226.36,-156.31 245.61,-142.53 261,-129 286.5,-106.59 293.69,-101.2 314,-74 324.77,-59.58 334.67,-41.61 341.35,-28.47"/>
<polygon fill="#63b8ff" stroke="#63b8ff" points="344.67,-29.65 345.97,-19.13 338.4,-26.54 344.67,-29.65"/>
</a>
</g>
</g>
<!-- Node5 -->
<g id="Node000005" class="node">
<title>Node5</title>
<g id="a_Node000005"><a xlink:href="UIElement_8hpp.html" target="_top" xlink:title=" ">
<polygon fill="white" stroke="#666666" points="251.5,-129 150.5,-129 150.5,-110 251.5,-110 251.5,-129"/>
<text text-anchor="middle" x="201" y="-117" font-family="Helvetica,sans-Serif" font-size="10.00">ui/UIElement.hpp</text>
</a>
</g>
</g>
<!-- Node2&#45;&gt;Node5 -->
<g id="edge4_Node000002_Node000005" class="edge">
<title>Node2&#45;&gt;Node5</title>
<g id="a_edge4_Node000002_Node000005"><a xlink:title=" ">
<path fill="none" stroke="#63b8ff" d="M201,-164.75C201,-157.8 201,-147.85 201,-139.13"/>
<polygon fill="#63b8ff" stroke="#63b8ff" points="204.5,-139.09 201,-129.09 197.5,-139.09 204.5,-139.09"/>
</a>
</g>
</g>
<!-- Node5&#45;&gt;Node3 -->
<g id="edge5_Node000005_Node000003" class="edge">
<title>Node5&#45;&gt;Node3</title>
<g id="a_edge5_Node000005_Node000003"><a xlink:title=" ">
<path fill="none" stroke="#63b8ff" d="M180.47,-109.88C161.94,-101.72 134.26,-88.58 112,-74 89.91,-59.53 66.98,-39.57 52.16,-25.92"/>
<polygon fill="#63b8ff" stroke="#63b8ff" points="54.51,-23.33 44.82,-19.05 49.73,-28.44 54.51,-23.33"/>
</a>
</g>
</g>
<!-- Node5&#45;&gt;Node4 -->
<g id="edge6_Node000005_Node000004" class="edge">
<title>Node5&#45;&gt;Node4</title>
<g id="a_edge6_Node000005_Node000004"><a xlink:title=" ">
<path fill="none" stroke="#63b8ff" d="M223.44,-109.88C242.22,-102.07 269.2,-89.45 290,-74 308.18,-60.5 325.56,-41.15 336.89,-27.36"/>
<polygon fill="#63b8ff" stroke="#63b8ff" points="339.89,-29.22 343.41,-19.23 334.43,-24.84 339.89,-29.22"/>
</a>
</g>
</g>
<!-- Node6 -->
<g id="Node000006" class="node">
<title>Node6</title>
<g id="a_Node000006"><a xlink:href="TextureManager_8hpp.html" target="_top" xlink:title=" ">
<polygon fill="white" stroke="#666666" points="281,-74 121,-74 121,-55 281,-55 281,-74"/>
<text text-anchor="middle" x="201" y="-62" font-family="Helvetica,sans-Serif" font-size="10.00">graphics/TextureManager.hpp</text>
</a>
</g>
</g>
<!-- Node5&#45;&gt;Node6 -->
<g id="edge7_Node000005_Node000006" class="edge">
<title>Node5&#45;&gt;Node6</title>
<g id="a_edge7_Node000005_Node000006"><a xlink:title=" ">
<path fill="none" stroke="#63b8ff" d="M201,-109.75C201,-102.8 201,-92.85 201,-84.13"/>
<polygon fill="#63b8ff" stroke="#63b8ff" points="204.5,-84.09 201,-74.09 197.5,-84.09 204.5,-84.09"/>
</a>
</g>
</g>
<!-- Node6&#45;&gt;Node3 -->
<g id="edge8_Node000006_Node000003" class="edge">
<title>Node6&#45;&gt;Node3</title>
<g id="a_edge8_Node000006_Node000003"><a xlink:title=" ">
<path fill="none" stroke="#63b8ff" d="M174.49,-54.98C146.79,-46.09 103.14,-32.07 72.26,-22.15"/>
<polygon fill="#63b8ff" stroke="#63b8ff" points="73.31,-18.81 62.72,-19.08 71.17,-25.47 73.31,-18.81"/>
</a>
</g>
</g>
<!-- Node6&#45;&gt;Node4 -->
<g id="edge10_Node000006_Node000004" class="edge">
<title>Node6&#45;&gt;Node4</title>
<g id="a_edge10_Node000006_Node000004"><a xlink:title=" ">
<path fill="none" stroke="#63b8ff" d="M224.94,-54.98C250.14,-46.02 289.96,-31.86 317.88,-21.92"/>
<polygon fill="#63b8ff" stroke="#63b8ff" points="319.33,-25.12 327.58,-18.47 316.99,-18.53 319.33,-25.12"/>
</a>
</g>
</g>
<!-- Node7 -->
<g id="Node000007" class="node">
<title>Node7</title>
<g id="a_Node000007"><a xlink:title=" ">
<polygon fill="#e0e0e0" stroke="#999999" points="198,-19 90,-19 90,0 198,0 198,-19"/>
<text text-anchor="middle" x="144" y="-7" font-family="Helvetica,sans-Serif" font-size="10.00">SDL2/SDL_image.h</text>
</a>
</g>
</g>
<!-- Node6&#45;&gt;Node7 -->
<g id="edge9_Node000006_Node000007" class="edge">
<title>Node6&#45;&gt;Node7</title>
<g id="a_edge9_Node000006_Node000007"><a xlink:title=" ">
<path fill="none" stroke="#63b8ff" d="M191.84,-54.98C183.5,-47.23 170.97,-35.58 160.82,-26.14"/>
<polygon fill="#63b8ff" stroke="#63b8ff" points="163.03,-23.42 153.32,-19.17 158.26,-28.54 163.03,-23.42"/>
</a>
</g>
</g>
<!-- Node8 -->
<g id="Node000008" class="node">
<title>Node8</title>
<g id="a_Node000008"><a xlink:title=" ">
<polygon fill="#e0e0e0" stroke="#999999" points="309.5,-19 216.5,-19 216.5,0 309.5,0 309.5,-19"/>
<text text-anchor="middle" x="263" y="-7" font-family="Helvetica,sans-Serif" font-size="10.00">unordered_map</text>
</a>
</g>
</g>
<!-- Node6&#45;&gt;Node8 -->
<g id="edge11_Node000006_Node000008" class="edge">
<title>Node6&#45;&gt;Node8</title>
<g id="a_edge11_Node000006_Node000008"><a xlink:title=" ">
<path fill="none" stroke="#63b8ff" d="M210.96,-54.98C220.13,-47.15 233.94,-35.34 245.03,-25.86"/>
<polygon fill="#63b8ff" stroke="#63b8ff" points="247.53,-28.33 252.86,-19.17 242.98,-23.01 247.53,-28.33"/>
</a>
</g>
</g>
</g>
</svg>
