<?xml version="1.0" encoding="UTF-8" standalone="no"?>
<!DOCTYPE svg PUBLIC "-//W3C//DTD SVG 1.1//EN"
 "http://www.w3.org/Graphics/SVG/1.1/DTD/svg11.dtd">
<!-- Generated by graphviz version 2.43.0 (0)
 -->
<!-- Title: /home/runner/work/R&#45;Type/R&#45;Type/Client/src/engine/ui/UIManager.hpp Pages: 1 -->
<svg width="1251pt" height="357pt"
 viewBox="0.00 0.00 1251.00 357.00" xmlns="http://www.w3.org/2000/svg" xmlns:xlink="http://www.w3.org/1999/xlink">
<g id="graph0" class="graph" transform="scale(1 1) rotate(0) translate(4 353)">
<title>/home/runner/work/R&#45;Type/R&#45;Type/Client/src/engine/ui/UIManager.hpp</title>
<!-- Node1 -->
<g id="Node000001" class="node">
<title>Node1</title>
<g id="a_Node000001"><a xlink:title=" ">
<polygon fill="#999999" stroke="#666666" points="944,-349 786,-349 786,-308 944,-308 944,-349"/>
<text text-anchor="start" x="794" y="-337" font-family="Helvetica,sans-Serif" font-size="10.00">/home/runner/work/R</text>
<text text-anchor="start" x="794" y="-326" font-family="Helvetica,sans-Serif" font-size="10.00">&#45;Type/R&#45;Type/Client</text>
<text text-anchor="middle" x="865" y="-315" font-family="Helvetica,sans-Serif" font-size="10.00">/src/engine/ui/UIManager.hpp</text>
</a>
</g>
</g>
<!-- Node2 -->
<g id="Node000002" class="node">
<title>Node2</title>
<g id="a_Node000002"><a xlink:href="SceneManager_8hpp.html" target="_top" xlink:title=" ">
<polygon fill="white" stroke="#666666" points="836.5,-272 639.5,-272 639.5,-231 836.5,-231 836.5,-272"/>
<text text-anchor="start" x="647.5" y="-260" font-family="Helvetica,sans-Serif" font-size="10.00">/home/runner/work/R</text>
<text text-anchor="start" x="647.5" y="-249" font-family="Helvetica,sans-Serif" font-size="10.00">&#45;Type/R&#45;Type/Client</text>
<text text-anchor="middle" x="738" y="-238" font-family="Helvetica,sans-Serif" font-size="10.00">/src/engine/scene/SceneManager.hpp</text>
</a>
</g>
</g>
<!-- Node1&#45;&gt;Node2 -->
<g id="edge1_Node000001_Node000002" class="edge">
<title>Node1&#45;&gt;Node2</title>
<g id="a_edge1_Node000001_Node000002"><a xlink:title=" ">
<path fill="none" stroke="#63b8ff" d="M822.91,-302.64C806.14,-292.74 787.1,-281.5 771.31,-272.17"/>
<polygon fill="#63b8ff" stroke="#63b8ff" points="821.57,-305.92 831.96,-307.99 825.13,-299.89 821.57,-305.92"/>
</a>
</g>
</g>
<!-- Node7 -->
<g id="Node000007" class="node">
<title>Node7</title>
<g id="a_Node000007"><a xlink:href="JoinGame_8hpp.html" target="_top" xlink:title=" ">
<polygon fill="white" stroke="#666666" points="304,-118 162,-118 162,-77 304,-77 304,-118"/>
<text text-anchor="start" x="170" y="-106" font-family="Helvetica,sans-Serif" font-size="10.00">/home/runner/work/R</text>
<text text-anchor="start" x="170" y="-95" font-family="Helvetica,sans-Serif" font-size="10.00">&#45;Type/R&#45;Type/Client</text>
<text text-anchor="middle" x="233" y="-84" font-family="Helvetica,sans-Serif" font-size="10.00">/src/scenes/JoinGame.hpp</text>
</a>
</g>
</g>
<!-- Node1&#45;&gt;Node7 -->
<g id="edge25_Node000001_Node000007" class="edge">
<title>Node1&#45;&gt;Node7</title>
<g id="a_edge25_Node000001_Node000007"><a xlink:title=" ">
<path fill="none" stroke="#63b8ff" d="M776.12,-309.8C681.32,-289.13 528.05,-250.56 404,-195 352.98,-172.15 297.15,-138.97 263.61,-118.08"/>
<polygon fill="#63b8ff" stroke="#63b8ff" points="775.45,-313.23 785.96,-311.92 776.93,-306.39 775.45,-313.23"/>
</a>
</g>
</g>
<!-- Node8 -->
<g id="Node000008" class="node">
<title>Node8</title>
<g id="a_Node000008"><a xlink:href="MainMenu_8hpp.html" target="_top" xlink:title=" ">
<polygon fill="white" stroke="#666666" points="932,-118 786,-118 786,-77 932,-77 932,-118"/>
<text text-anchor="start" x="794" y="-106" font-family="Helvetica,sans-Serif" font-size="10.00">/home/runner/work/R</text>
<text text-anchor="start" x="794" y="-95" font-family="Helvetica,sans-Serif" font-size="10.00">&#45;Type/R&#45;Type/Client</text>
<text text-anchor="middle" x="859" y="-84" font-family="Helvetica,sans-Serif" font-size="10.00">/src/scenes/MainMenu.hpp</text>
</a>
</g>
</g>
<!-- Node1&#45;&gt;Node8 -->
<g id="edge27_Node000001_Node000008" class="edge">
<title>Node1&#45;&gt;Node8</title>
<g id="a_edge27_Node000001_Node000008"><a xlink:title=" ">
<path fill="none" stroke="#63b8ff" d="M864.22,-297.73C862.98,-250.23 860.57,-158.57 859.52,-118.3"/>
<polygon fill="#63b8ff" stroke="#63b8ff" points="860.73,-298.07 864.49,-307.98 867.73,-297.89 860.73,-298.07"/>
</a>
</g>
</g>
<!-- Node9 -->
<g id="Node000009" class="node">
<title>Node9</title>
<g id="a_Node000009"><a xlink:href="Options_8hpp.html" target="_top" xlink:title=" ">
<polygon fill="white" stroke="#666666" points="1082,-118 950,-118 950,-77 1082,-77 1082,-118"/>
<text text-anchor="start" x="958" y="-106" font-family="Helvetica,sans-Serif" font-size="10.00">/home/runner/work/R</text>
<text text-anchor="start" x="958" y="-95" font-family="Helvetica,sans-Serif" font-size="10.00">&#45;Type/R&#45;Type/Client</text>
<text text-anchor="middle" x="1016" y="-84" font-family="Helvetica,sans-Serif" font-size="10.00">/src/scenes/Options.hpp</text>
</a>
</g>
</g>
<!-- Node1&#45;&gt;Node9 -->
<g id="edge28_Node000001_Node000009" class="edge">
<title>Node1&#45;&gt;Node9</title>
<g id="a_edge28_Node000001_Node000009"><a xlink:title=" ">
<path fill="none" stroke="#63b8ff" d="M872,-298.02C882.74,-254.68 903.92,-176.48 922,-154 934.12,-138.94 951.5,-127.07 968.03,-118.24"/>
<polygon fill="#63b8ff" stroke="#63b8ff" points="868.54,-297.43 869.57,-307.98 875.34,-299.1 868.54,-297.43"/>
</a>
</g>
</g>
<!-- Node10 -->
<g id="Node000010" class="node">
<title>Node10</title>
<g id="a_Node000010"><a xlink:href="WaitLobby_8hpp.html" target="_top" xlink:title=" ">
<polygon fill="white" stroke="#666666" points="144,-118 0,-118 0,-77 144,-77 144,-118"/>
<text text-anchor="start" x="8" y="-106" font-family="Helvetica,sans-Serif" font-size="10.00">/home/runner/work/R</text>
<text text-anchor="start" x="8" y="-95" font-family="Helvetica,sans-Serif" font-size="10.00">&#45;Type/R&#45;Type/Client</text>
<text text-anchor="middle" x="72" y="-84" font-family="Helvetica,sans-Serif" font-size="10.00">/src/scenes/WaitLobby.hpp</text>
</a>
</g>
</g>
<!-- Node1&#45;&gt;Node10 -->
<g id="edge29_Node000001_Node000010" class="edge">
<title>Node1&#45;&gt;Node10</title>
<g id="a_edge29_Node000001_Node000010"><a xlink:title=" ">
<path fill="none" stroke="#63b8ff" d="M775.74,-319.47C651.91,-305.92 422.92,-272.05 243,-195 191.3,-172.86 135.2,-139.17 101.86,-118.02"/>
<polygon fill="#63b8ff" stroke="#63b8ff" points="775.62,-322.98 785.93,-320.57 776.36,-316.02 775.62,-322.98"/>
</a>
</g>
</g>
<!-- Node11 -->
<g id="Node000011" class="node">
<title>Node11</title>
<g id="a_Node000011"><a xlink:href="GameOver_8hpp.html" target="_top" xlink:title=" ">
<polygon fill="white" stroke="#666666" points="1077,-195 931,-195 931,-154 1077,-154 1077,-195"/>
<text text-anchor="start" x="939" y="-183" font-family="Helvetica,sans-Serif" font-size="10.00">/home/runner/work/R</text>
<text text-anchor="start" x="939" y="-172" font-family="Helvetica,sans-Serif" font-size="10.00">&#45;Type/R&#45;Type/Client</text>
<text text-anchor="middle" x="1004" y="-161" font-family="Helvetica,sans-Serif" font-size="10.00">/src/scenes/GameOver.hpp</text>
</a>
</g>
</g>
<!-- Node1&#45;&gt;Node11 -->
<g id="edge24_Node000001_Node000011" class="edge">
<title>Node1&#45;&gt;Node11</title>
<g id="a_edge24_Node000001_Node000011"><a xlink:title=" ">
<path fill="none" stroke="#63b8ff" d="M890.72,-300.25C899.14,-291.29 908.5,-281.25 917,-272 941.27,-245.59 968.95,-214.76 986.45,-195.19"/>
<polygon fill="#63b8ff" stroke="#63b8ff" points="887.92,-298.12 883.62,-307.81 893.02,-302.92 887.92,-298.12"/>
</a>
</g>
</g>
<!-- Node12 -->
<g id="Node000012" class="node">
<title>Node12</title>
<g id="a_Node000012"><a xlink:href="MainGame_8hpp.html" target="_top" xlink:title=" ">
<polygon fill="white" stroke="#666666" points="1243,-195 1095,-195 1095,-154 1243,-154 1243,-195"/>
<text text-anchor="start" x="1103" y="-183" font-family="Helvetica,sans-Serif" font-size="10.00">/home/runner/work/R</text>
<text text-anchor="start" x="1103" y="-172" font-family="Helvetica,sans-Serif" font-size="10.00">&#45;Type/R&#45;Type/Client</text>
<text text-anchor="middle" x="1169" y="-161" font-family="Helvetica,sans-Serif" font-size="10.00">/src/scenes/MainGame.hpp</text>
</a>
</g>
</g>
<!-- Node1&#45;&gt;Node12 -->
<g id="edge26_Node000001_Node000012" class="edge">
<title>Node1&#45;&gt;Node12</title>
<g id="a_edge26_Node000001_Node000012"><a xlink:title=" ">
<path fill="none" stroke="#63b8ff" d="M913.37,-303.32C973.25,-273.37 1074.11,-222.94 1129.55,-195.23"/>
<polygon fill="#63b8ff" stroke="#63b8ff" points="911.5,-300.34 904.12,-307.94 914.63,-306.6 911.5,-300.34"/>
</a>
</g>
</g>
<!-- Node3 -->
<g id="Node000003" class="node">
<title>Node3</title>
<g id="a_Node000003"><a xlink:href="Main_8cpp.html" target="_top" xlink:title=" ">
<polygon fill="white" stroke="#666666" points="867.5,-41 748.5,-41 748.5,0 867.5,0 867.5,-41"/>
<text text-anchor="start" x="756.5" y="-29" font-family="Helvetica,sans-Serif" font-size="10.00">/home/runner/work/R</text>
<text text-anchor="start" x="756.5" y="-18" font-family="Helvetica,sans-Serif" font-size="10.00">&#45;Type/R&#45;Type/Client</text>
<text text-anchor="middle" x="808" y="-7" font-family="Helvetica,sans-Serif" font-size="10.00">/src/Main.cpp</text>
</a>
</g>
</g>
<!-- Node2&#45;&gt;Node3 -->
<g id="edge2_Node000002_Node000003" class="edge">
<title>Node2&#45;&gt;Node3</title>
<g id="a_edge2_Node000002_Node000003"><a xlink:title=" ">
<path fill="none" stroke="#63b8ff" d="M741.99,-220.9C747.33,-185.75 758.36,-125.74 777,-77 781.77,-64.53 788.96,-51.45 795.21,-41.12"/>
<polygon fill="#63b8ff" stroke="#63b8ff" points="738.5,-220.57 740.52,-230.97 745.43,-221.59 738.5,-220.57"/>
</a>
</g>
</g>
<!-- Node4 -->
<g id="Node000004" class="node">
<title>Node4</title>
<g id="a_Node000004"><a xlink:href="GameEngine_8hpp.html" target="_top" xlink:title=" ">
<polygon fill="white" stroke="#666666" points="718,-195 562,-195 562,-154 718,-154 718,-195"/>
<text text-anchor="start" x="570" y="-183" font-family="Helvetica,sans-Serif" font-size="10.00">/home/runner/work/R</text>
<text text-anchor="start" x="570" y="-172" font-family="Helvetica,sans-Serif" font-size="10.00">&#45;Type/R&#45;Type/Client</text>
<text text-anchor="middle" x="640" y="-161" font-family="Helvetica,sans-Serif" font-size="10.00">/src/engine/GameEngine.hpp</text>
</a>
</g>
</g>
<!-- Node2&#45;&gt;Node4 -->
<g id="edge3_Node000002_Node000004" class="edge">
<title>Node2&#45;&gt;Node4</title>
<g id="a_edge3_Node000002_Node000004"><a xlink:title=" ">
<path fill="none" stroke="#63b8ff" d="M704.44,-224.82C691.76,-215.11 677.55,-204.24 665.71,-195.17"/>
<polygon fill="#63b8ff" stroke="#63b8ff" points="702.44,-227.69 712.51,-230.99 706.69,-222.13 702.44,-227.69"/>
</a>
</g>
</g>
<!-- Node6 -->
<g id="Node000006" class="node">
<title>Node6</title>
<g id="a_Node000006"><a xlink:href="SceneManager_8cpp.html" target="_top" xlink:title=" ">
<polygon fill="white" stroke="#666666" points="518,-118 322,-118 322,-77 518,-77 518,-118"/>
<text text-anchor="start" x="330" y="-106" font-family="Helvetica,sans-Serif" font-size="10.00">/home/runner/work/R</text>
<text text-anchor="start" x="330" y="-95" font-family="Helvetica,sans-Serif" font-size="10.00">&#45;Type/R&#45;Type/Client</text>
<text text-anchor="middle" x="420" y="-84" font-family="Helvetica,sans-Serif" font-size="10.00">/src/engine/scene/SceneManager.cpp</text>
</a>
</g>
</g>
<!-- Node2&#45;&gt;Node6 -->
<g id="edge15_Node000002_Node000006" class="edge">
<title>Node2&#45;&gt;Node6</title>
<g id="a_edge15_Node000002_Node000006"><a xlink:title=" ">
<path fill="none" stroke="#63b8ff" d="M641.2,-228.1C612.07,-219.61 580.54,-208.63 553,-195 510.56,-173.99 467.23,-139.66 442.02,-118.11"/>
<polygon fill="#63b8ff" stroke="#63b8ff" points="640.41,-231.51 650.98,-230.88 642.32,-224.78 640.41,-231.51"/>
</a>
</g>
</g>
<!-- Node2&#45;&gt;Node7 -->
<g id="edge18_Node000002_Node000007" class="edge">
<title>Node2&#45;&gt;Node7</title>
<g id="a_edge18_Node000002_Node000007"><a xlink:title=" ">
<path fill="none" stroke="#63b8ff" d="M629.51,-232.95C584.12,-224.01 531.27,-211.49 485,-195 446.99,-181.46 441.3,-169.39 404,-154 370.82,-140.31 332.94,-127.72 301.28,-118.01"/>
<polygon fill="#63b8ff" stroke="#63b8ff" points="628.89,-236.39 639.37,-234.86 630.22,-229.52 628.89,-236.39"/>
</a>
</g>
</g>
<!-- Node2&#45;&gt;Node8 -->
<g id="edge21_Node000002_Node000008" class="edge">
<title>Node2&#45;&gt;Node8</title>
<g id="a_edge21_Node000002_Node000008"><a xlink:title=" ">
<path fill="none" stroke="#63b8ff" d="M759.27,-222.66C774.16,-203.28 794.6,-176.92 813,-154 822.64,-142 833.63,-128.71 842.46,-118.15"/>
<polygon fill="#63b8ff" stroke="#63b8ff" points="756.36,-220.7 753.05,-230.77 761.91,-224.96 756.36,-220.7"/>
</a>
</g>
</g>
<!-- Node2&#45;&gt;Node9 -->
<g id="edge22_Node000002_Node000009" class="edge">
<title>Node2&#45;&gt;Node9</title>
<g id="a_edge22_Node000002_Node000009"><a xlink:title=" ">
<path fill="none" stroke="#63b8ff" d="M774.32,-225C804.32,-204.51 848.41,-175.67 889,-154 913.84,-140.74 942.5,-128.01 966.3,-118.09"/>
<polygon fill="#63b8ff" stroke="#63b8ff" points="772.13,-222.26 765.87,-230.81 776.09,-228.03 772.13,-222.26"/>
</a>
</g>
</g>
<!-- Node2&#45;&gt;Node10 -->
<g id="edge23_Node000002_Node000010" class="edge">
<title>Node2&#45;&gt;Node10</title>
<g id="a_edge23_Node000002_Node000010"><a xlink:title=" ">
<path fill="none" stroke="#63b8ff" d="M629.3,-236.13C562.71,-226.47 475.96,-212.34 400,-195 304.37,-173.17 195.53,-139.31 130.38,-118.05"/>
<polygon fill="#63b8ff" stroke="#63b8ff" points="628.99,-239.62 639.39,-237.58 629.99,-232.7 628.99,-239.62"/>
</a>
</g>
</g>
<!-- Node2&#45;&gt;Node11 -->
<g id="edge16_Node000002_Node000011" class="edge">
<title>Node2&#45;&gt;Node11</title>
<g id="a_edge16_Node000002_Node000011"><a xlink:title=" ">
<path fill="none" stroke="#63b8ff" d="M817.04,-228.21C854.42,-217.68 898.64,-205.21 934.69,-195.04"/>
<polygon fill="#63b8ff" stroke="#63b8ff" points="815.87,-224.91 807.19,-230.99 817.77,-231.65 815.87,-224.91"/>
</a>
</g>
</g>
<!-- Node2&#45;&gt;Node12 -->
<g id="edge19_Node000002_Node000012" class="edge">
<title>Node2&#45;&gt;Node12</title>
<g id="a_edge19_Node000002_Node000012"><a xlink:title=" ">
<path fill="none" stroke="#63b8ff" d="M846.58,-235.26C915.41,-225.08 1006.19,-210.72 1086,-195 1088.9,-194.43 1091.86,-193.83 1094.85,-193.2"/>
<polygon fill="#63b8ff" stroke="#63b8ff" points="845.97,-231.81 836.59,-236.73 846.99,-238.73 845.97,-231.81"/>
</a>
</g>
</g>
<!-- Node4&#45;&gt;Node3 -->
<g id="edge4_Node000004_Node000003" class="edge">
<title>Node4&#45;&gt;Node3</title>
<g id="a_edge4_Node000004_Node000003"><a xlink:title=" ">
<path fill="none" stroke="#63b8ff" d="M591.78,-148.13C581.03,-140.03 571.04,-129.99 565,-118 556.8,-101.73 553.64,-91.25 565,-77 587.53,-48.75 684.07,-33.74 748.48,-26.72"/>
<polygon fill="#63b8ff" stroke="#63b8ff" points="589.9,-151.08 600.1,-153.95 593.91,-145.35 589.9,-151.08"/>
</a>
</g>
</g>
<!-- Node5 -->
<g id="Node000005" class="node">
<title>Node5</title>
<g id="a_Node000005"><a xlink:href="GameEngine_8cpp.html" target="_top" xlink:title=" ">
<polygon fill="white" stroke="#666666" points="729.5,-118 574.5,-118 574.5,-77 729.5,-77 729.5,-118"/>
<text text-anchor="start" x="582.5" y="-106" font-family="Helvetica,sans-Serif" font-size="10.00">/home/runner/work/R</text>
<text text-anchor="start" x="582.5" y="-95" font-family="Helvetica,sans-Serif" font-size="10.00">&#45;Type/R&#45;Type/Client</text>
<text text-anchor="middle" x="652" y="-84" font-family="Helvetica,sans-Serif" font-size="10.00">/src/engine/GameEngine.cpp</text>
</a>
</g>
</g>
<!-- Node4&#45;&gt;Node5 -->
<g id="edge5_Node000004_Node000005" class="edge">
<title>Node4&#45;&gt;Node5</title>
<g id="a_edge5_Node000004_Node000005"><a xlink:title=" ">
<path fill="none" stroke="#63b8ff" d="M644.77,-143.69C646.15,-135.08 647.62,-125.9 648.87,-118.07"/>
<polygon fill="#63b8ff" stroke="#63b8ff" points="641.28,-143.37 643.15,-153.79 648.19,-144.47 641.28,-143.37"/>
</a>
</g>
</g>
<!-- Node4&#45;&gt;Node6 -->
<g id="edge6_Node000004_Node000006" class="edge">
<title>Node4&#45;&gt;Node6</title>
<g id="a_edge6_Node000004_Node000006"><a xlink:title=" ">
<path fill="none" stroke="#63b8ff" d="M573.05,-150.67C542.47,-140.25 506.63,-128.03 477.32,-118.04"/>
<polygon fill="#63b8ff" stroke="#63b8ff" points="572.18,-154.08 582.77,-153.99 574.44,-147.45 572.18,-154.08"/>
</a>
</g>
</g>
<!-- Node4&#45;&gt;Node7 -->
<g id="edge7_Node000004_Node000007" class="edge">
<title>Node4&#45;&gt;Node7</title>
<g id="a_edge7_Node000004_Node000007"><a xlink:title=" ">
<path fill="none" stroke="#63b8ff" d="M551.8,-160.27C485.81,-149.95 393.46,-134.61 313,-118 310.06,-117.39 307.06,-116.75 304.04,-116.09"/>
<polygon fill="#63b8ff" stroke="#63b8ff" points="551.33,-163.74 561.75,-161.82 552.4,-156.82 551.33,-163.74"/>
</a>
</g>
</g>
<!-- Node4&#45;&gt;Node8 -->
<g id="edge9_Node000004_Node000008" class="edge">
<title>Node4&#45;&gt;Node8</title>
<g id="a_edge9_Node000004_Node000008"><a xlink:title=" ">
<path fill="none" stroke="#63b8ff" d="M706.65,-150.67C737.08,-140.25 772.76,-128.03 801.94,-118.04"/>
<polygon fill="#63b8ff" stroke="#63b8ff" points="705.29,-147.44 696.97,-153.99 707.56,-154.06 705.29,-147.44"/>
</a>
</g>
</g>
<!-- Node4&#45;&gt;Node9 -->
<g id="edge11_Node000004_Node000009" class="edge">
<title>Node4&#45;&gt;Node9</title>
<g id="a_edge11_Node000004_Node000009"><a xlink:title=" ">
<path fill="none" stroke="#63b8ff" d="M728.49,-158.91C788.64,-148.57 869.89,-133.78 941,-118 943.89,-117.36 946.84,-116.68 949.81,-115.99"/>
<polygon fill="#63b8ff" stroke="#63b8ff" points="727.54,-155.52 718.27,-160.66 728.72,-162.42 727.54,-155.52"/>
</a>
</g>
</g>
<!-- Node4&#45;&gt;Node10 -->
<g id="edge13_Node000004_Node000010" class="edge">
<title>Node4&#45;&gt;Node10</title>
<g id="a_edge13_Node000004_Node000010"><a xlink:title=" ">
<path fill="none" stroke="#63b8ff" d="M551.83,-166.73C453.91,-158.45 291.4,-142.45 153,-118 150.15,-117.5 147.25,-116.95 144.33,-116.38"/>
<polygon fill="#63b8ff" stroke="#63b8ff" points="551.72,-170.23 561.98,-167.58 552.3,-163.26 551.72,-170.23"/>
</a>
</g>
</g>
<!-- Node7&#45;&gt;Node3 -->
<g id="edge8_Node000007_Node000003" class="edge">
<title>Node7&#45;&gt;Node3</title>
<g id="a_edge8_Node000007_Node000003"><a xlink:title=" ">
<path fill="none" stroke="#63b8ff" d="M314.17,-76.91C476.41,-48.72 656.73,-32.75 748.22,-25.73"/>
<polygon fill="#63b8ff" stroke="#63b8ff" points="313.24,-73.52 304,-78.7 314.46,-80.41 313.24,-73.52"/>
</a>
</g>
</g>
<!-- Node8&#45;&gt;Node3 -->
<g id="edge10_Node000008_Node000003" class="edge">
<title>Node8&#45;&gt;Node3</title>
<g id="a_edge10_Node000008_Node000003"><a xlink:title=" ">
<path fill="none" stroke="#63b8ff" d="M839.89,-68.39C833.7,-59.3 826.98,-49.41 821.31,-41.07"/>
<polygon fill="#63b8ff" stroke="#63b8ff" points="837.08,-70.49 845.6,-76.79 842.87,-66.56 837.08,-70.49"/>
</a>
</g>
</g>
<!-- Node9&#45;&gt;Node3 -->
<g id="edge12_Node000009_Node000003" class="edge">
<title>Node9&#45;&gt;Node3</title>
<g id="a_edge12_Node000009_Node000003"><a xlink:title=" ">
<path fill="none" stroke="#63b8ff" d="M952.32,-73.54C923.5,-63.15 889.79,-50.99 862.2,-41.04"/>
<polygon fill="#63b8ff" stroke="#63b8ff" points="951.3,-76.89 961.89,-76.99 953.67,-70.31 951.3,-76.89"/>
</a>
</g>
</g>
<!-- Node10&#45;&gt;Node3 -->
<g id="edge14_Node000010_Node000003" class="edge">
<title>Node10&#45;&gt;Node3</title>
<g id="a_edge14_Node000010_Node000003"><a xlink:title=" ">
<path fill="none" stroke="#63b8ff" d="M154.28,-76.92C378.36,-41.38 634.67,-28.04 748.47,-23.52"/>
<polygon fill="#63b8ff" stroke="#63b8ff" points="153.63,-73.48 144.31,-78.52 154.74,-80.39 153.63,-73.48"/>
</a>
</g>
</g>
<!-- Node11&#45;&gt;Node3 -->
<g id="edge17_Node000011_Node000003" class="edge">
<title>Node11&#45;&gt;Node3</title>
<g id="a_edge17_Node000011_Node000003"><a xlink:title=" ">
<path fill="none" stroke="#63b8ff" d="M1061.56,-148.35C1073.35,-140.41 1084.21,-130.39 1091,-118 1099.76,-102.02 1102.58,-91.07 1091,-77 1063.28,-43.32 942.18,-29.77 867.67,-24.56"/>
<polygon fill="#63b8ff" stroke="#63b8ff" points="1059.51,-145.51 1052.87,-153.77 1063.21,-151.45 1059.51,-145.51"/>
</a>
</g>
</g>
<!-- Node12&#45;&gt;Node3 -->
<g id="edge20_Node000012_Node000003" class="edge">
<title>Node12&#45;&gt;Node3</title>
<g id="a_edge20_Node000012_Node000003"><a xlink:title=" ">
<path fill="none" stroke="#63b8ff" d="M1158.41,-144.21C1148.9,-122.21 1132.75,-93.19 1109,-77 1070.58,-50.81 944.03,-34.49 867.8,-26.79"/>
<polygon fill="#63b8ff" stroke="#63b8ff" points="1155.29,-145.82 1162.31,-153.75 1161.76,-143.17 1155.29,-145.82"/>
</a>
</g>
</g>
</g>
</svg>
