<?xml version="1.0" encoding="UTF-8" standalone="no"?>
<!DOCTYPE svg PUBLIC "-//W3C//DTD SVG 1.1//EN"
 "http://www.w3.org/Graphics/SVG/1.1/DTD/svg11.dtd">
<!-- Generated by graphviz version 2.43.0 (0)
 -->
<!-- Title: /home/runner/work/R&#45;Type/R&#45;Type/Client/src/engine/ui/UIManager.hpp Pages: 1 -->
<svg width="528pt" height="214pt"
 viewBox="0.00 0.00 527.50 214.00" xmlns="http://www.w3.org/2000/svg" xmlns:xlink="http://www.w3.org/1999/xlink">
<g id="graph0" class="graph" transform="scale(1 1) rotate(0) translate(4 210)">
<title>/home/runner/work/R&#45;Type/R&#45;Type/Client/src/engine/ui/UIManager.hpp</title>
<!-- Node1 -->
<g id="Node000001" class="node">
<title>Node1</title>
<g id="a_Node000001"><a xlink:title=" ">
<polygon fill="#999999" stroke="#666666" points="362,-206 204,-206 204,-165 362,-165 362,-206"/>
<text text-anchor="start" x="212" y="-194" font-family="Helvetica,sans-Serif" font-size="10.00">/home/runner/work/R</text>
<text text-anchor="start" x="212" y="-183" font-family="Helvetica,sans-Serif" font-size="10.00">&#45;Type/R&#45;Type/Client</text>
<text text-anchor="middle" x="283" y="-172" font-family="Helvetica,sans-Serif" font-size="10.00">/src/engine/ui/UIManager.hpp</text>
</a>
</g>
</g>
<!-- Node2 -->
<g id="Node000002" class="node">
<title>Node2</title>
<g id="a_Node000002"><a xlink:title=" ">
<polygon fill="#e0e0e0" stroke="#999999" points="72,-19 0,-19 0,0 72,0 72,-19"/>
<text text-anchor="middle" x="36" y="-7" font-family="Helvetica,sans-Serif" font-size="10.00">SDL2/SDL.h</text>
</a>
</g>
</g>
<!-- Node1&#45;&gt;Node2 -->
<g id="edge1_Node000001_Node000002" class="edge">
<title>Node1&#45;&gt;Node2</title>
<g id="a_edge1_Node000001_Node000002"><a xlink:title=" ">
<path fill="none" stroke="#63b8ff" d="M203.7,-167.87C174.22,-159.31 141.52,-146.81 115,-129 77.84,-104.04 53.72,-55.11 42.79,-28.6"/>
<polygon fill="#63b8ff" stroke="#63b8ff" points="45.95,-27.07 39.02,-19.05 39.44,-29.63 45.95,-27.07"/>
</a>
</g>
</g>
<!-- Node3 -->
<g id="Node000003" class="node">
<title>Node3</title>
<g id="a_Node000003"><a xlink:title=" ">
<polygon fill="#e0e0e0" stroke="#999999" points="315,-129 251,-129 251,-110 315,-110 315,-129"/>
<text text-anchor="middle" x="283" y="-117" font-family="Helvetica,sans-Serif" font-size="10.00">algorithm</text>
</a>
</g>
</g>
<!-- Node1&#45;&gt;Node3 -->
<g id="edge2_Node000001_Node000003" class="edge">
<title>Node1&#45;&gt;Node3</title>
<g id="a_edge2_Node000001_Node000003"><a xlink:title=" ">
<path fill="none" stroke="#63b8ff" d="M283,-164.95C283,-156.85 283,-147.5 283,-139.47"/>
<polygon fill="#63b8ff" stroke="#63b8ff" points="286.5,-139.26 283,-129.26 279.5,-139.26 286.5,-139.26"/>
</a>
</g>
</g>
<!-- Node4 -->
<g id="Node000004" class="node">
<title>Node4</title>
<g id="a_Node000004"><a xlink:title=" ">
<polygon fill="#e0e0e0" stroke="#999999" points="391,-129 333,-129 333,-110 391,-110 391,-129"/>
<text text-anchor="middle" x="362" y="-117" font-family="Helvetica,sans-Serif" font-size="10.00">memory</text>
</a>
</g>
</g>
<!-- Node1&#45;&gt;Node4 -->
<g id="edge3_Node000001_Node000004" class="edge">
<title>Node1&#45;&gt;Node4</title>
<g id="a_edge3_Node000001_Node000004"><a xlink:title=" ">
<path fill="none" stroke="#63b8ff" d="M307.13,-164.95C318.73,-155.55 332.43,-144.46 343.23,-135.7"/>
<polygon fill="#63b8ff" stroke="#63b8ff" points="345.62,-138.27 351.19,-129.26 341.21,-132.84 345.62,-138.27"/>
</a>
</g>
</g>
<!-- Node5 -->
<g id="Node000005" class="node">
<title>Node5</title>
<g id="a_Node000005"><a xlink:title=" ">
<polygon fill="#e0e0e0" stroke="#999999" points="454.5,-129 409.5,-129 409.5,-110 454.5,-110 454.5,-129"/>
<text text-anchor="middle" x="432" y="-117" font-family="Helvetica,sans-Serif" font-size="10.00">utility</text>
</a>
</g>
</g>
<!-- Node1&#45;&gt;Node5 -->
<g id="edge4_Node000001_Node000005" class="edge">
<title>Node1&#45;&gt;Node5</title>
<g id="a_edge4_Node000001_Node000005"><a xlink:title=" ">
<path fill="none" stroke="#63b8ff" d="M328.51,-164.95C352.6,-154.6 381.47,-142.2 402.6,-133.13"/>
<polygon fill="#63b8ff" stroke="#63b8ff" points="404.19,-136.25 412,-129.09 401.43,-129.82 404.19,-136.25"/>
</a>
</g>
</g>
<!-- Node6 -->
<g id="Node000006" class="node">
<title>Node6</title>
<g id="a_Node000006"><a xlink:title=" ">
<polygon fill="#e0e0e0" stroke="#999999" points="519.5,-129 472.5,-129 472.5,-110 519.5,-110 519.5,-129"/>
<text text-anchor="middle" x="496" y="-117" font-family="Helvetica,sans-Serif" font-size="10.00">vector</text>
</a>
</g>
</g>
<!-- Node1&#45;&gt;Node6 -->
<g id="edge5_Node000001_Node000006" class="edge">
<title>Node1&#45;&gt;Node6</title>
<g id="a_edge5_Node000001_Node000006"><a xlink:title=" ">
<path fill="none" stroke="#63b8ff" d="M348.06,-164.95C385.88,-153.59 431.94,-139.75 462.52,-130.56"/>
<polygon fill="#63b8ff" stroke="#63b8ff" points="463.69,-133.86 472.26,-127.63 461.68,-127.16 463.69,-133.86"/>
</a>
</g>
</g>
<!-- Node7 -->
<g id="Node000007" class="node">
<title>Node7</title>
<g id="a_Node000007"><a xlink:href="TextureManager_8hpp.html" target="_top" xlink:title=" ">
<polygon fill="white" stroke="#666666" points="262,-74 102,-74 102,-55 262,-55 262,-74"/>
<text text-anchor="middle" x="182" y="-62" font-family="Helvetica,sans-Serif" font-size="10.00">graphics/TextureManager.hpp</text>
</a>
</g>
</g>
<!-- Node1&#45;&gt;Node7 -->
<g id="edge6_Node000001_Node000007" class="edge">
<title>Node1&#45;&gt;Node7</title>
<g id="a_edge6_Node000001_Node000007"><a xlink:title=" ">
<path fill="none" stroke="#63b8ff" d="M203.7,-176.45C173.34,-169.05 141.58,-155.11 123,-129 109.64,-110.23 133.37,-91.19 154.6,-78.93"/>
<polygon fill="#63b8ff" stroke="#63b8ff" points="156.33,-81.97 163.43,-74.1 152.98,-75.83 156.33,-81.97"/>
</a>
</g>
</g>
<!-- Node11 -->
<g id="Node000011" class="node">
<title>Node11</title>
<g id="a_Node000011"><a xlink:href="UIElement_8hpp.html" target="_top" xlink:title=" ">
<polygon fill="white" stroke="#666666" points="232.5,-129 131.5,-129 131.5,-110 232.5,-110 232.5,-129"/>
<text text-anchor="middle" x="182" y="-117" font-family="Helvetica,sans-Serif" font-size="10.00">ui/UIElement.hpp</text>
</a>
</g>
</g>
<!-- Node1&#45;&gt;Node11 -->
<g id="edge11_Node000001_Node000011" class="edge">
<title>Node1&#45;&gt;Node11</title>
<g id="a_edge11_Node000001_Node000011"><a xlink:title=" ">
<path fill="none" stroke="#63b8ff" d="M252.15,-164.95C236.63,-155.12 218.19,-143.43 204.11,-134.51"/>
<polygon fill="#63b8ff" stroke="#63b8ff" points="205.88,-131.49 195.56,-129.09 202.13,-137.4 205.88,-131.49"/>
</a>
</g>
</g>
<!-- Node7&#45;&gt;Node2 -->
<g id="edge7_Node000007_Node000002" class="edge">
<title>Node7&#45;&gt;Node2</title>
<g id="a_edge7_Node000007_Node000002"><a xlink:title=" ">
<path fill="none" stroke="#63b8ff" d="M158.54,-54.98C134.42,-46.23 96.63,-32.51 69.4,-22.62"/>
<polygon fill="#63b8ff" stroke="#63b8ff" points="70.48,-19.29 59.88,-19.17 68.09,-25.87 70.48,-19.29"/>
</a>
</g>
</g>
<!-- Node8 -->
<g id="Node000008" class="node">
<title>Node8</title>
<g id="a_Node000008"><a xlink:title=" ">
<polygon fill="#e0e0e0" stroke="#999999" points="198,-19 90,-19 90,0 198,0 198,-19"/>
<text text-anchor="middle" x="144" y="-7" font-family="Helvetica,sans-Serif" font-size="10.00">SDL2/SDL_image.h</text>
</a>
</g>
</g>
<!-- Node7&#45;&gt;Node8 -->
<g id="edge8_Node000007_Node000008" class="edge">
<title>Node7&#45;&gt;Node8</title>
<g id="a_edge8_Node000007_Node000008"><a xlink:title=" ">
<path fill="none" stroke="#63b8ff" d="M175.73,-54.75C170.41,-47.34 162.64,-36.5 156.12,-27.41"/>
<polygon fill="#63b8ff" stroke="#63b8ff" points="158.83,-25.18 150.16,-19.09 153.14,-29.26 158.83,-25.18"/>
</a>
</g>
</g>
<!-- Node9 -->
<g id="Node000009" class="node">
<title>Node9</title>
<g id="a_Node000009"><a xlink:title=" ">
<polygon fill="#e0e0e0" stroke="#999999" points="372,-19 328,-19 328,0 372,0 372,-19"/>
<text text-anchor="middle" x="350" y="-7" font-family="Helvetica,sans-Serif" font-size="10.00">string</text>
</a>
</g>
</g>
<!-- Node7&#45;&gt;Node9 -->
<g id="edge9_Node000007_Node000009" class="edge">
<title>Node7&#45;&gt;Node9</title>
<g id="a_edge9_Node000007_Node000009"><a xlink:title=" ">
<path fill="none" stroke="#63b8ff" d="M208.99,-54.98C238.79,-45.58 286.7,-30.47 318.27,-20.51"/>
<polygon fill="#63b8ff" stroke="#63b8ff" points="319.42,-23.82 327.9,-17.47 317.31,-17.14 319.42,-23.82"/>
</a>
</g>
</g>
<!-- Node10 -->
<g id="Node000010" class="node">
<title>Node10</title>
<g id="a_Node000010"><a xlink:title=" ">
<polygon fill="#e0e0e0" stroke="#999999" points="309.5,-19 216.5,-19 216.5,0 309.5,0 309.5,-19"/>
<text text-anchor="middle" x="263" y="-7" font-family="Helvetica,sans-Serif" font-size="10.00">unordered_map</text>
</a>
</g>
</g>
<!-- Node7&#45;&gt;Node10 -->
<g id="edge10_Node000007_Node000010" class="edge">
<title>Node7&#45;&gt;Node10</title>
<g id="a_edge10_Node000007_Node000010"><a xlink:title=" ">
<path fill="none" stroke="#63b8ff" d="M195.01,-54.98C207.46,-46.84 226.46,-34.41 241.21,-24.76"/>
<polygon fill="#63b8ff" stroke="#63b8ff" points="243.3,-27.57 249.75,-19.17 239.46,-21.72 243.3,-27.57"/>
</a>
</g>
</g>
<!-- Node11&#45;&gt;Node2 -->
<g id="edge12_Node000011_Node000002" class="edge">
<title>Node11&#45;&gt;Node2</title>
<g id="a_edge12_Node000011_Node000002"><a xlink:title=" ">
<path fill="none" stroke="#63b8ff" d="M159.08,-109.86C140.26,-102.12 113.47,-89.61 93,-74 75.41,-60.59 58.95,-41.22 48.29,-27.41"/>
<polygon fill="#63b8ff" stroke="#63b8ff" points="50.96,-25.15 42.16,-19.25 45.37,-29.35 50.96,-25.15"/>
</a>
</g>
</g>
<!-- Node11&#45;&gt;Node7 -->
<g id="edge14_Node000011_Node000007" class="edge">
<title>Node11&#45;&gt;Node7</title>
<g id="a_edge14_Node000011_Node000007"><a xlink:title=" ">
<path fill="none" stroke="#63b8ff" d="M182,-109.75C182,-102.8 182,-92.85 182,-84.13"/>
<polygon fill="#63b8ff" stroke="#63b8ff" points="185.5,-84.09 182,-74.09 178.5,-84.09 185.5,-84.09"/>
</a>
</g>
</g>
<!-- Node11&#45;&gt;Node9 -->
<g id="edge13_Node000011_Node000009" class="edge">
<title>Node11&#45;&gt;Node9</title>
<g id="a_edge13_Node000011_Node000009"><a xlink:title=" ">
<path fill="none" stroke="#63b8ff" d="M202.1,-109.94C220.59,-101.72 248.46,-88.46 271,-74 293.74,-59.41 317.63,-39.47 333.1,-25.86"/>
<polygon fill="#63b8ff" stroke="#63b8ff" points="335.64,-28.28 340.77,-19.02 330.98,-23.06 335.64,-28.28"/>
</a>
</g>
</g>
</g>
</svg>
