<?xml version="1.0" encoding="UTF-8" standalone="no"?>
<!DOCTYPE svg PUBLIC "-//W3C//DTD SVG 1.1//EN"
 "http://www.w3.org/Graphics/SVG/1.1/DTD/svg11.dtd">
<!-- Generated by graphviz version 2.43.0 (0)
 -->
<!-- Title: /home/runner/work/R&#45;Type/R&#45;Type/Client/src/engine/ui/UIText.hpp Pages: 1 -->
<svg width="1128pt" height="203pt"
 viewBox="0.00 0.00 1128.14 203.00" xmlns="http://www.w3.org/2000/svg" xmlns:xlink="http://www.w3.org/1999/xlink">
<g id="graph0" class="graph" transform="scale(1 1) rotate(0) translate(4 199)">
<title>/home/runner/work/R&#45;Type/R&#45;Type/Client/src/engine/ui/UIText.hpp</title>
<!-- Node1 -->
<g id="Node000001" class="node">
<title>Node1</title>
<g id="a_Node000001"><a xlink:title=" ">
<polygon fill="#999999" stroke="#666666" points="556.64,-195 419.64,-195 419.64,-154 556.64,-154 556.64,-195"/>
<text text-anchor="start" x="427.64" y="-183" font-family="Helvetica,sans-Serif" font-size="10.00">/home/runner/work/R</text>
<text text-anchor="start" x="427.64" y="-172" font-family="Helvetica,sans-Serif" font-size="10.00">&#45;Type/R&#45;Type/Client</text>
<text text-anchor="middle" x="488.14" y="-161" font-family="Helvetica,sans-Serif" font-size="10.00">/src/engine/ui/UIText.hpp</text>
</a>
</g>
</g>
<!-- Node2 -->
<g id="Node000002" class="node">
<title>Node2</title>
<g id="a_Node000002"><a xlink:href="Main_8cpp.html" target="_top" xlink:title=" ">
<polygon fill="white" stroke="#666666" points="629.64,-41 510.64,-41 510.64,0 629.64,0 629.64,-41"/>
<text text-anchor="start" x="518.64" y="-29" font-family="Helvetica,sans-Serif" font-size="10.00">/home/runner/work/R</text>
<text text-anchor="start" x="518.64" y="-18" font-family="Helvetica,sans-Serif" font-size="10.00">&#45;Type/R&#45;Type/Client</text>
<text text-anchor="middle" x="570.14" y="-7" font-family="Helvetica,sans-Serif" font-size="10.00">/src/Main.cpp</text>
</a>
</g>
</g>
<!-- Node1&#45;&gt;Node2 -->
<g id="edge1_Node000001_Node000002" class="edge">
<title>Node1&#45;&gt;Node2</title>
<g id="a_edge1_Node000001_Node000002"><a xlink:title=" ">
<path fill="none" stroke="#63b8ff" d="M409.06,-169.99C279.87,-163.44 35.23,-147.29 9.14,-118 -2.98,-104.39 -3.09,-90.5 9.14,-77 42.34,-40.35 372.84,-26.98 510.47,-22.97"/>
<polygon fill="#63b8ff" stroke="#63b8ff" points="409.13,-173.5 419.29,-170.5 409.48,-166.51 409.13,-173.5"/>
</a>
</g>
</g>
<!-- Node3 -->
<g id="Node000003" class="node">
<title>Node3</title>
<g id="a_Node000003"><a xlink:href="UIText_8cpp.html" target="_top" xlink:title=" ">
<polygon fill="white" stroke="#666666" points="154.14,-118 18.14,-118 18.14,-77 154.14,-77 154.14,-118"/>
<text text-anchor="start" x="26.14" y="-106" font-family="Helvetica,sans-Serif" font-size="10.00">/home/runner/work/R</text>
<text text-anchor="start" x="26.14" y="-95" font-family="Helvetica,sans-Serif" font-size="10.00">&#45;Type/R&#45;Type/Client</text>
<text text-anchor="middle" x="86.14" y="-84" font-family="Helvetica,sans-Serif" font-size="10.00">/src/engine/ui/UIText.cpp</text>
</a>
</g>
</g>
<!-- Node1&#45;&gt;Node3 -->
<g id="edge2_Node000001_Node000003" class="edge">
<title>Node1&#45;&gt;Node3</title>
<g id="a_edge2_Node000001_Node000003"><a xlink:title=" ">
<path fill="none" stroke="#63b8ff" d="M409.45,-161.84C343.42,-151.64 246.77,-135.7 163.14,-118 160.31,-117.4 157.42,-116.77 154.51,-116.11"/>
<polygon fill="#63b8ff" stroke="#63b8ff" points="408.95,-165.31 419.37,-163.37 410.01,-158.39 408.95,-165.31"/>
</a>
</g>
</g>
<!-- Node4 -->
<g id="Node000004" class="node">
<title>Node4</title>
<g id="a_Node000004"><a xlink:href="GameOver_8hpp.html" target="_top" xlink:title=" ">
<polygon fill="white" stroke="#666666" points="318.14,-118 172.14,-118 172.14,-77 318.14,-77 318.14,-118"/>
<text text-anchor="start" x="180.14" y="-106" font-family="Helvetica,sans-Serif" font-size="10.00">/home/runner/work/R</text>
<text text-anchor="start" x="180.14" y="-95" font-family="Helvetica,sans-Serif" font-size="10.00">&#45;Type/R&#45;Type/Client</text>
<text text-anchor="middle" x="245.14" y="-84" font-family="Helvetica,sans-Serif" font-size="10.00">/src/scenes/GameOver.hpp</text>
</a>
</g>
</g>
<!-- Node1&#45;&gt;Node4 -->
<g id="edge3_Node000001_Node000004" class="edge">
<title>Node1&#45;&gt;Node4</title>
<g id="a_edge3_Node000001_Node000004"><a xlink:title=" ">
<path fill="none" stroke="#63b8ff" d="M415.06,-150.94C381.1,-140.46 341.11,-128.12 308.46,-118.04"/>
<polygon fill="#63b8ff" stroke="#63b8ff" points="414.34,-154.39 424.93,-153.99 416.41,-147.7 414.34,-154.39"/>
</a>
</g>
</g>
<!-- Node5 -->
<g id="Node000005" class="node">
<title>Node5</title>
<g id="a_Node000005"><a xlink:href="JoinGame_8hpp.html" target="_top" xlink:title=" ">
<polygon fill="white" stroke="#666666" points="478.14,-118 336.14,-118 336.14,-77 478.14,-77 478.14,-118"/>
<text text-anchor="start" x="344.14" y="-106" font-family="Helvetica,sans-Serif" font-size="10.00">/home/runner/work/R</text>
<text text-anchor="start" x="344.14" y="-95" font-family="Helvetica,sans-Serif" font-size="10.00">&#45;Type/R&#45;Type/Client</text>
<text text-anchor="middle" x="407.14" y="-84" font-family="Helvetica,sans-Serif" font-size="10.00">/src/scenes/JoinGame.hpp</text>
</a>
</g>
</g>
<!-- Node1&#45;&gt;Node5 -->
<g id="edge5_Node000001_Node000005" class="edge">
<title>Node1&#45;&gt;Node5</title>
<g id="a_edge5_Node000001_Node000005"><a xlink:title=" ">
<path fill="none" stroke="#63b8ff" d="M459.29,-146.79C449.06,-137.32 437.75,-126.84 428.28,-118.07"/>
<polygon fill="#63b8ff" stroke="#63b8ff" points="457.14,-149.57 466.86,-153.79 461.9,-144.43 457.14,-149.57"/>
</a>
</g>
</g>
<!-- Node6 -->
<g id="Node000006" class="node">
<title>Node6</title>
<g id="a_Node000006"><a xlink:href="MainGame_8hpp.html" target="_top" xlink:title=" ">
<polygon fill="white" stroke="#666666" points="644.14,-118 496.14,-118 496.14,-77 644.14,-77 644.14,-118"/>
<text text-anchor="start" x="504.14" y="-106" font-family="Helvetica,sans-Serif" font-size="10.00">/home/runner/work/R</text>
<text text-anchor="start" x="504.14" y="-95" font-family="Helvetica,sans-Serif" font-size="10.00">&#45;Type/R&#45;Type/Client</text>
<text text-anchor="middle" x="570.14" y="-84" font-family="Helvetica,sans-Serif" font-size="10.00">/src/scenes/MainGame.hpp</text>
</a>
</g>
</g>
<!-- Node1&#45;&gt;Node6 -->
<g id="edge7_Node000001_Node000006" class="edge">
<title>Node1&#45;&gt;Node6</title>
<g id="a_edge7_Node000001_Node000006"><a xlink:title=" ">
<path fill="none" stroke="#63b8ff" d="M517.34,-146.79C527.7,-137.32 539.15,-126.84 548.74,-118.07"/>
<polygon fill="#63b8ff" stroke="#63b8ff" points="514.7,-144.46 509.68,-153.79 519.43,-149.63 514.7,-144.46"/>
</a>
</g>
</g>
<!-- Node7 -->
<g id="Node000007" class="node">
<title>Node7</title>
<g id="a_Node000007"><a xlink:href="MainMenu_8hpp.html" target="_top" xlink:title=" ">
<polygon fill="white" stroke="#666666" points="808.14,-118 662.14,-118 662.14,-77 808.14,-77 808.14,-118"/>
<text text-anchor="start" x="670.14" y="-106" font-family="Helvetica,sans-Serif" font-size="10.00">/home/runner/work/R</text>
<text text-anchor="start" x="670.14" y="-95" font-family="Helvetica,sans-Serif" font-size="10.00">&#45;Type/R&#45;Type/Client</text>
<text text-anchor="middle" x="735.14" y="-84" font-family="Helvetica,sans-Serif" font-size="10.00">/src/scenes/MainMenu.hpp</text>
</a>
</g>
</g>
<!-- Node1&#45;&gt;Node7 -->
<g id="edge9_Node000001_Node000007" class="edge">
<title>Node1&#45;&gt;Node7</title>
<g id="a_edge9_Node000001_Node000007"><a xlink:title=" ">
<path fill="none" stroke="#63b8ff" d="M561.98,-151.08C596.59,-140.57 637.45,-128.16 670.78,-118.04"/>
<polygon fill="#63b8ff" stroke="#63b8ff" points="560.94,-147.74 552.39,-153.99 562.98,-154.43 560.94,-147.74"/>
</a>
</g>
</g>
<!-- Node8 -->
<g id="Node000008" class="node">
<title>Node8</title>
<g id="a_Node000008"><a xlink:href="Options_8hpp.html" target="_top" xlink:title=" ">
<polygon fill="white" stroke="#666666" points="958.14,-118 826.14,-118 826.14,-77 958.14,-77 958.14,-118"/>
<text text-anchor="start" x="834.14" y="-106" font-family="Helvetica,sans-Serif" font-size="10.00">/home/runner/work/R</text>
<text text-anchor="start" x="834.14" y="-95" font-family="Helvetica,sans-Serif" font-size="10.00">&#45;Type/R&#45;Type/Client</text>
<text text-anchor="middle" x="892.14" y="-84" font-family="Helvetica,sans-Serif" font-size="10.00">/src/scenes/Options.hpp</text>
</a>
</g>
</g>
<!-- Node1&#45;&gt;Node8 -->
<g id="edge11_Node000001_Node000008" class="edge">
<title>Node1&#45;&gt;Node8</title>
<g id="a_edge11_Node000001_Node000008"><a xlink:title=" ">
<path fill="none" stroke="#63b8ff" d="M566.88,-162.19C633.76,-152.12 732.15,-136.18 817.14,-118 820.03,-117.38 822.99,-116.72 825.96,-116.04"/>
<polygon fill="#63b8ff" stroke="#63b8ff" points="566.21,-158.75 556.84,-163.7 567.25,-165.68 566.21,-158.75"/>
</a>
</g>
</g>
<!-- Node9 -->
<g id="Node000009" class="node">
<title>Node9</title>
<g id="a_Node000009"><a xlink:href="WaitLobby_8hpp.html" target="_top" xlink:title=" ">
<polygon fill="white" stroke="#666666" points="1120.14,-118 976.14,-118 976.14,-77 1120.14,-77 1120.14,-118"/>
<text text-anchor="start" x="984.14" y="-106" font-family="Helvetica,sans-Serif" font-size="10.00">/home/runner/work/R</text>
<text text-anchor="start" x="984.14" y="-95" font-family="Helvetica,sans-Serif" font-size="10.00">&#45;Type/R&#45;Type/Client</text>
<text text-anchor="middle" x="1048.14" y="-84" font-family="Helvetica,sans-Serif" font-size="10.00">/src/scenes/WaitLobby.hpp</text>
</a>
</g>
</g>
<!-- Node1&#45;&gt;Node9 -->
<g id="edge13_Node000001_Node000009" class="edge">
<title>Node1&#45;&gt;Node9</title>
<g id="a_edge13_Node000001_Node000009"><a xlink:title=" ">
<path fill="none" stroke="#63b8ff" d="M566.87,-167.32C662.13,-159.16 827.17,-142.86 967.14,-118 969.99,-117.49 972.89,-116.95 975.81,-116.37"/>
<polygon fill="#63b8ff" stroke="#63b8ff" points="566.4,-163.84 556.74,-168.18 567,-170.82 566.4,-163.84"/>
</a>
</g>
</g>
<!-- Node4&#45;&gt;Node2 -->
<g id="edge4_Node000004_Node000002" class="edge">
<title>Node4&#45;&gt;Node2</title>
<g id="a_edge4_Node000004_Node000002"><a xlink:title=" ">
<path fill="none" stroke="#63b8ff" d="M328.44,-76.7C396.17,-60.95 463.29,-45.66 510.19,-35.04"/>
<polygon fill="#63b8ff" stroke="#63b8ff" points="327.4,-73.35 318.45,-79.03 328.98,-80.17 327.4,-73.35"/>
</a>
</g>
</g>
<!-- Node5&#45;&gt;Node2 -->
<g id="edge6_Node000005_Node000002" class="edge">
<title>Node5&#45;&gt;Node2</title>
<g id="a_edge6_Node000005_Node000002"><a xlink:title=" ">
<path fill="none" stroke="#63b8ff" d="M458.82,-72.72C481,-62.51 506.61,-50.73 527.67,-41.04"/>
<polygon fill="#63b8ff" stroke="#63b8ff" points="457.16,-69.63 449.54,-76.99 460.09,-75.99 457.16,-69.63"/>
</a>
</g>
</g>
<!-- Node6&#45;&gt;Node2 -->
<g id="edge8_Node000006_Node000002" class="edge">
<title>Node6&#45;&gt;Node2</title>
<g id="a_edge8_Node000006_Node000002"><a xlink:title=" ">
<path fill="none" stroke="#63b8ff" d="M570.14,-66.69C570.14,-58.08 570.14,-48.9 570.14,-41.07"/>
<polygon fill="#63b8ff" stroke="#63b8ff" points="566.64,-66.79 570.14,-76.79 573.64,-66.79 566.64,-66.79"/>
</a>
</g>
</g>
<!-- Node7&#45;&gt;Node2 -->
<g id="edge10_Node000007_Node000002" class="edge">
<title>Node7&#45;&gt;Node2</title>
<g id="a_edge10_Node000007_Node000002"><a xlink:title=" ">
<path fill="none" stroke="#63b8ff" d="M682.83,-72.72C660.37,-62.51 634.45,-50.73 613.13,-41.04"/>
<polygon fill="#63b8ff" stroke="#63b8ff" points="681.67,-76.04 692.22,-76.99 684.56,-69.67 681.67,-76.04"/>
</a>
</g>
</g>
<!-- Node8&#45;&gt;Node2 -->
<g id="edge12_Node000008_Node000002" class="edge">
<title>Node8&#45;&gt;Node2</title>
<g id="a_edge12_Node000008_Node000002"><a xlink:title=" ">
<path fill="none" stroke="#63b8ff" d="M816.13,-76.79C746.72,-60.07 677.52,-44.71 629.66,-34.29"/>
<polygon fill="#63b8ff" stroke="#63b8ff" points="815.37,-80.21 825.92,-79.15 817.02,-73.4 815.37,-80.21"/>
</a>
</g>
</g>
<!-- Node9&#45;&gt;Node2 -->
<g id="edge14_Node000009_Node000002" class="edge">
<title>Node9&#45;&gt;Node2</title>
<g id="a_edge14_Node000009_Node000002"><a xlink:title=" ">
<path fill="none" stroke="#63b8ff" d="M965.69,-76.81C840.98,-53.53 705.87,-36.71 629.96,-28.02"/>
<polygon fill="#63b8ff" stroke="#63b8ff" points="965.32,-80.3 975.79,-78.71 966.61,-73.42 965.32,-80.3"/>
</a>
</g>
</g>
</g>
</svg>
