<?xml version="1.0" encoding="UTF-8" standalone="no"?>
<!DOCTYPE svg PUBLIC "-//W3C//DTD SVG 1.1//EN"
 "http://www.w3.org/Graphics/SVG/1.1/DTD/svg11.dtd">
<!-- Generated by graphviz version 2.43.0 (0)
 -->
<!-- Title: /home/runner/work/R&#45;Type/R&#45;Type/Shared/systems/WaveSystem.cpp Pages: 1 -->
<svg width="1986pt" height="379pt"
 viewBox="0.00 0.00 1985.81 379.00" xmlns="http://www.w3.org/2000/svg" xmlns:xlink="http://www.w3.org/1999/xlink">
<g id="graph0" class="graph" transform="scale(1 1) rotate(0) translate(4 375)">
<title>/home/runner/work/R&#45;Type/R&#45;Type/Shared/systems/WaveSystem.cpp</title>
<!-- Node1 -->
<g id="Node000001" class="node">
<title>Node1</title>
<g id="a_Node000001"><a xlink:title=" ">
<polygon fill="#999999" stroke="#666666" points="545.31,-371 397.31,-371 397.31,-330 545.31,-330 545.31,-371"/>
<text text-anchor="start" x="405.31" y="-359" font-family="Helvetica,sans-Serif" font-size="10.00">/home/runner/work/R</text>
<text text-anchor="start" x="405.31" y="-348" font-family="Helvetica,sans-Serif" font-size="10.00">&#45;Type/R&#45;Type/Shared</text>
<text text-anchor="middle" x="471.31" y="-337" font-family="Helvetica,sans-Serif" font-size="10.00">/systems/WaveSystem.cpp</text>
</a>
</g>
</g>
<!-- Node2 -->
<g id="Node000002" class="node">
<title>Node2</title>
<g id="a_Node000002"><a xlink:href="EntityHelper_8hpp.html" target="_top" xlink:title=" ">
<polygon fill="white" stroke="#666666" points="1304.31,-294 1166.31,-294 1166.31,-275 1304.31,-275 1304.31,-294"/>
<text text-anchor="middle" x="1235.31" y="-282" font-family="Helvetica,sans-Serif" font-size="10.00">Helpers/EntityHelper.hpp</text>
</a>
</g>
</g>
<!-- Node1&#45;&gt;Node2 -->
<g id="edge1_Node000001_Node000002" class="edge">
<title>Node1&#45;&gt;Node2</title>
<g id="a_edge1_Node000001_Node000002"><a xlink:title=" ">
<path fill="none" stroke="#63b8ff" d="M545.61,-343.28C689.98,-331.18 1007.23,-304.61 1155.72,-292.17"/>
<polygon fill="#63b8ff" stroke="#63b8ff" points="1156.44,-295.62 1166.11,-291.3 1155.86,-288.64 1156.44,-295.62"/>
</a>
</g>
</g>
<!-- Node30 -->
<g id="Node000030" class="node">
<title>Node30</title>
<g id="a_Node000030"><a xlink:href="Zipper_8hpp.html" target="_top" xlink:title=" ">
<polygon fill="white" stroke="#666666" points="234.31,-184 146.31,-184 146.31,-165 234.31,-165 234.31,-184"/>
<text text-anchor="middle" x="190.31" y="-172" font-family="Helvetica,sans-Serif" font-size="10.00">ecs/Zipper.hpp</text>
</a>
</g>
</g>
<!-- Node1&#45;&gt;Node30 -->
<g id="edge68_Node000001_Node000030" class="edge">
<title>Node1&#45;&gt;Node30</title>
<g id="a_edge68_Node000001_Node000030"><a xlink:title=" ">
<path fill="none" stroke="#63b8ff" d="M439.63,-329.88C382.32,-294.39 262.78,-220.37 212.92,-189.5"/>
<polygon fill="#63b8ff" stroke="#63b8ff" points="214.52,-186.37 204.18,-184.09 210.84,-192.33 214.52,-186.37"/>
</a>
</g>
</g>
<!-- Node36 -->
<g id="Node000036" class="node">
<title>Node36</title>
<g id="a_Node000036"><a xlink:href="Spawn_8hpp.html" target="_top" xlink:title=" ">
<polygon fill="white" stroke="#666666" points="540.81,-239 401.81,-239 401.81,-220 540.81,-220 540.81,-239"/>
<text text-anchor="middle" x="471.31" y="-227" font-family="Helvetica,sans-Serif" font-size="10.00">SpawnEnemy/Spawn.hpp</text>
</a>
</g>
</g>
<!-- Node1&#45;&gt;Node36 -->
<g id="edge63_Node000001_Node000036" class="edge">
<title>Node1&#45;&gt;Node36</title>
<g id="a_edge63_Node000001_Node000036"><a xlink:title=" ">
<path fill="none" stroke="#63b8ff" d="M471.31,-329.85C471.31,-307.48 471.31,-271.19 471.31,-249.21"/>
<polygon fill="#63b8ff" stroke="#63b8ff" points="474.81,-249.18 471.31,-239.18 467.81,-249.18 474.81,-249.18"/>
</a>
</g>
</g>
<!-- Node3 -->
<g id="Node000003" class="node">
<title>Node3</title>
<g id="a_Node000003"><a xlink:title=" ">
<polygon fill="#e0e0e0" stroke="#999999" points="114.81,-74 69.81,-74 69.81,-55 114.81,-55 114.81,-74"/>
<text text-anchor="middle" x="92.31" y="-62" font-family="Helvetica,sans-Serif" font-size="10.00">utility</text>
</a>
</g>
</g>
<!-- Node2&#45;&gt;Node3 -->
<g id="edge2_Node000002_Node000003" class="edge">
<title>Node2&#45;&gt;Node3</title>
<g id="a_edge2_Node000002_Node000003"><a xlink:title=" ">
<path fill="none" stroke="#63b8ff" d="M1166.09,-282.2C974.25,-278.29 438.48,-265.29 264.31,-239 168.06,-224.47 134.58,-236.04 52.31,-184 19.59,-163.3 -13.82,-143.08 6.31,-110 17.92,-90.92 40.64,-79.66 59.81,-73.24"/>
<polygon fill="#63b8ff" stroke="#63b8ff" points="60.89,-76.57 69.44,-70.31 58.85,-69.88 60.89,-76.57"/>
</a>
</g>
</g>
<!-- Node4 -->
<g id="Node000004" class="node">
<title>Node4</title>
<g id="a_Node000004"><a xlink:title=" ">
<polygon fill="#e0e0e0" stroke="#999999" points="395.81,-74 348.81,-74 348.81,-55 395.81,-55 395.81,-74"/>
<text text-anchor="middle" x="372.31" y="-62" font-family="Helvetica,sans-Serif" font-size="10.00">vector</text>
</a>
</g>
</g>
<!-- Node2&#45;&gt;Node4 -->
<g id="edge3_Node000002_Node000004" class="edge">
<title>Node2&#45;&gt;Node4</title>
<g id="a_edge3_Node000002_Node000004"><a xlink:title=" ">
<path fill="none" stroke="#63b8ff" d="M1166.13,-283.58C1021.68,-282.92 677.77,-277.07 392.31,-239 277.39,-223.67 247.55,-219.91 137.31,-184 79.99,-165.32 46.18,-179.54 13.31,-129 -22.98,-73.19 242.79,-66.22 338.69,-65.51"/>
<polygon fill="#63b8ff" stroke="#63b8ff" points="338.76,-69.01 348.74,-65.46 338.72,-62.01 338.76,-69.01"/>
</a>
</g>
</g>
<!-- Node5 -->
<g id="Node000005" class="node">
<title>Node5</title>
<g id="a_Node000005"><a xlink:href="Items_8hpp.html" target="_top" xlink:title=" ">
<polygon fill="white" stroke="#666666" points="1826.31,-239 1716.31,-239 1716.31,-220 1826.31,-220 1826.31,-239"/>
<text text-anchor="middle" x="1771.31" y="-227" font-family="Helvetica,sans-Serif" font-size="10.00">Collision/Items.hpp</text>
</a>
</g>
</g>
<!-- Node2&#45;&gt;Node5 -->
<g id="edge4_Node000002_Node000005" class="edge">
<title>Node2&#45;&gt;Node5</title>
<g id="a_edge4_Node000002_Node000005"><a xlink:title=" ">
<path fill="none" stroke="#63b8ff" d="M1304.61,-277.5C1395.85,-269.46 1561.24,-254.41 1702.31,-239 1703.42,-238.88 1704.54,-238.76 1705.67,-238.63"/>
<polygon fill="#63b8ff" stroke="#63b8ff" points="1706.43,-242.07 1715.97,-237.45 1705.63,-235.11 1706.43,-242.07"/>
</a>
</g>
</g>
<!-- Node6 -->
<g id="Node000006" class="node">
<title>Node6</title>
<g id="a_Node000006"><a xlink:href="Boss_8hpp.html" target="_top" xlink:title=" ">
<polygon fill="white" stroke="#666666" points="1977.81,-239 1882.81,-239 1882.81,-220 1977.81,-220 1977.81,-239"/>
<text text-anchor="middle" x="1930.31" y="-227" font-family="Helvetica,sans-Serif" font-size="10.00">Player/Boss.hpp</text>
</a>
</g>
</g>
<!-- Node2&#45;&gt;Node6 -->
<g id="edge5_Node000002_Node000006" class="edge">
<title>Node2&#45;&gt;Node6</title>
<g id="a_edge5_Node000002_Node000006"><a xlink:title=" ">
<path fill="none" stroke="#63b8ff" d="M1304.76,-280.12C1421.39,-274.11 1663.95,-260.17 1868.31,-239 1869.62,-238.86 1870.94,-238.72 1872.27,-238.58"/>
<polygon fill="#63b8ff" stroke="#63b8ff" points="1873.1,-242 1882.62,-237.36 1872.28,-235.05 1873.1,-242"/>
</a>
</g>
</g>
<!-- Node7 -->
<g id="Node000007" class="node">
<title>Node7</title>
<g id="a_Node000007"><a xlink:href="Physics2D_8hpp.html" target="_top" xlink:title=" ">
<polygon fill="white" stroke="#666666" points="1628.81,-74 1531.81,-74 1531.81,-55 1628.81,-55 1628.81,-74"/>
<text text-anchor="middle" x="1580.31" y="-62" font-family="Helvetica,sans-Serif" font-size="10.00">../Physics2D.hpp</text>
</a>
</g>
</g>
<!-- Node2&#45;&gt;Node7 -->
<g id="edge25_Node000002_Node000007" class="edge">
<title>Node2&#45;&gt;Node7</title>
<g id="a_edge25_Node000002_Node000007"><a xlink:title=" ">
<path fill="none" stroke="#63b8ff" d="M1304.35,-283.54C1454.42,-282.89 1799.82,-277.22 1835.31,-239 1874.33,-196.99 1872.21,-153.89 1835.31,-110 1810.73,-80.76 1706.32,-70.73 1638.96,-67.29"/>
<polygon fill="#63b8ff" stroke="#63b8ff" points="1639.05,-63.79 1628.9,-66.81 1638.72,-70.78 1639.05,-63.79"/>
</a>
</g>
</g>
<!-- Node10 -->
<g id="Node000010" class="node">
<title>Node10</title>
<g id="a_Node000010"><a xlink:href="Enemy_8hpp.html" target="_top" xlink:title=" ">
<polygon fill="white" stroke="#666666" points="1514.31,-129 1410.31,-129 1410.31,-110 1514.31,-110 1514.31,-129"/>
<text text-anchor="middle" x="1462.31" y="-117" font-family="Helvetica,sans-Serif" font-size="10.00">Player/Enemy.hpp</text>
</a>
</g>
</g>
<!-- Node2&#45;&gt;Node10 -->
<g id="edge9_Node000002_Node000010" class="edge">
<title>Node2&#45;&gt;Node10</title>
<g id="a_edge9_Node000002_Node000010"><a xlink:title=" ">
<path fill="none" stroke="#63b8ff" d="M1304.32,-277.46C1362.67,-271.05 1440.48,-259.03 1464.31,-239 1490.48,-217 1493.39,-198.22 1485.31,-165 1483.01,-155.51 1478.29,-145.78 1473.73,-137.85"/>
<polygon fill="#63b8ff" stroke="#63b8ff" points="1476.64,-135.89 1468.42,-129.2 1470.67,-139.55 1476.64,-135.89"/>
</a>
</g>
</g>
<!-- Node11 -->
<g id="Node000011" class="node">
<title>Node11</title>
<g id="a_Node000011"><a xlink:href="EnemySpawn_8hpp.html" target="_top" xlink:title=" ">
<polygon fill="white" stroke="#666666" points="485.81,-184 348.81,-184 348.81,-165 485.81,-165 485.81,-184"/>
<text text-anchor="middle" x="417.31" y="-172" font-family="Helvetica,sans-Serif" font-size="10.00">Player/EnemySpawn.hpp</text>
</a>
</g>
</g>
<!-- Node2&#45;&gt;Node11 -->
<g id="edge11_Node000002_Node000011" class="edge">
<title>Node2&#45;&gt;Node11</title>
<g id="a_edge11_Node000002_Node000011"><a xlink:title=" ">
<path fill="none" stroke="#63b8ff" d="M1166.12,-275.48C1092.49,-266.85 972.61,-252.53 869.31,-239 732.94,-221.13 573.72,-198.3 485.32,-185.46"/>
<polygon fill="#63b8ff" stroke="#63b8ff" points="485.82,-181.99 475.42,-184.01 484.81,-188.92 485.82,-181.99"/>
</a>
</g>
</g>
<!-- Node12 -->
<g id="Node000012" class="node">
<title>Node12</title>
<g id="a_Node000012"><a xlink:href="PlayerEntity_8hpp.html" target="_top" xlink:title=" ">
<polygon fill="white" stroke="#666666" points="1454.81,-239 1325.81,-239 1325.81,-220 1454.81,-220 1454.81,-239"/>
<text text-anchor="middle" x="1390.31" y="-227" font-family="Helvetica,sans-Serif" font-size="10.00">Player/PlayerEntity.hpp</text>
</a>
</g>
</g>
<!-- Node2&#45;&gt;Node12 -->
<g id="edge15_Node000002_Node000012" class="edge">
<title>Node2&#45;&gt;Node12</title>
<g id="a_edge15_Node000002_Node000012"><a xlink:title=" ">
<path fill="none" stroke="#63b8ff" d="M1260.22,-274.98C1286.01,-266.16 1326.53,-252.31 1355.5,-242.41"/>
<polygon fill="#63b8ff" stroke="#63b8ff" points="1356.88,-245.63 1365.21,-239.08 1354.62,-239.01 1356.88,-245.63"/>
</a>
</g>
</g>
<!-- Node18 -->
<g id="Node000018" class="node">
<title>Node18</title>
<g id="a_Node000018"><a xlink:href="Projectile_8hpp.html" target="_top" xlink:title=" ">
<polygon fill="white" stroke="#666666" points="1826.31,-129 1646.31,-129 1646.31,-110 1826.31,-110 1826.31,-129"/>
<text text-anchor="middle" x="1736.31" y="-117" font-family="Helvetica,sans-Serif" font-size="10.00">components/Player/Projectile.hpp</text>
</a>
</g>
</g>
<!-- Node2&#45;&gt;Node18 -->
<g id="edge24_Node000002_Node000018" class="edge">
<title>Node2&#45;&gt;Node18</title>
<g id="a_edge24_Node000002_Node000018"><a xlink:title=" ">
<path fill="none" stroke="#63b8ff" d="M1304.47,-275.47C1441.36,-258.89 1736.2,-219.41 1765.31,-184 1776.91,-169.89 1764.8,-150.38 1752.88,-136.73"/>
<polygon fill="#63b8ff" stroke="#63b8ff" points="1755.09,-133.97 1745.69,-129.08 1749.99,-138.76 1755.09,-133.97"/>
</a>
</g>
</g>
<!-- Node19 -->
<g id="Node000019" class="node">
<title>Node19</title>
<g id="a_Node000019"><a xlink:href="Registry_8hpp.html" target="_top" xlink:title=" ">
<polygon fill="white" stroke="#666666" points="638.31,-184 542.31,-184 542.31,-165 638.31,-165 638.31,-184"/>
<text text-anchor="middle" x="590.31" y="-172" font-family="Helvetica,sans-Serif" font-size="10.00">ecs/Registry.hpp</text>
</a>
</g>
</g>
<!-- Node2&#45;&gt;Node19 -->
<g id="edge26_Node000002_Node000019" class="edge">
<title>Node2&#45;&gt;Node19</title>
<g id="a_edge26_Node000002_Node000019"><a xlink:title=" ">
<path fill="none" stroke="#63b8ff" d="M1184.43,-274.98C1066.24,-255.19 773.69,-206.21 648.58,-185.26"/>
<polygon fill="#63b8ff" stroke="#63b8ff" points="648.88,-181.76 638.43,-183.56 647.72,-188.66 648.88,-181.76"/>
</a>
</g>
</g>
<!-- Node29 -->
<g id="Node000029" class="node">
<title>Node29</title>
<g id="a_Node000029"><a xlink:href="InputManager_8hpp.html" target="_top" xlink:title=" ">
<polygon fill="white" stroke="#666666" points="1148.81,-239 1011.81,-239 1011.81,-220 1148.81,-220 1148.81,-239"/>
<text text-anchor="middle" x="1080.31" y="-227" font-family="Helvetica,sans-Serif" font-size="10.00">inputs/InputManager.hpp</text>
</a>
</g>
</g>
<!-- Node2&#45;&gt;Node29 -->
<g id="edge42_Node000002_Node000029" class="edge">
<title>Node2&#45;&gt;Node29</title>
<g id="a_edge42_Node000002_Node000029"><a xlink:title=" ">
<path fill="none" stroke="#63b8ff" d="M1210.41,-274.98C1184.61,-266.16 1144.09,-252.31 1115.13,-242.41"/>
<polygon fill="#63b8ff" stroke="#63b8ff" points="1116.01,-239.01 1105.41,-239.08 1113.74,-245.63 1116.01,-239.01"/>
</a>
</g>
</g>
<!-- Node6&#45;&gt;Node7 -->
<g id="edge6_Node000006_Node000007" class="edge">
<title>Node6&#45;&gt;Node7</title>
<g id="a_edge6_Node000006_Node000007"><a xlink:title=" ">
<path fill="none" stroke="#63b8ff" d="M1928.59,-219.89C1923.65,-197.6 1907.21,-137.83 1868.31,-110 1832.5,-84.38 1712.24,-73.03 1638.93,-68.38"/>
<polygon fill="#63b8ff" stroke="#63b8ff" points="1639.11,-64.89 1628.91,-67.77 1638.68,-71.88 1639.11,-64.89"/>
</a>
</g>
</g>
<!-- Node8 -->
<g id="Node000008" class="node">
<title>Node8</title>
<g id="a_Node000008"><a xlink:title=" ">
<polygon fill="#e0e0e0" stroke="#999999" points="1210.31,-19 1138.31,-19 1138.31,0 1210.31,0 1210.31,-19"/>
<text text-anchor="middle" x="1174.31" y="-7" font-family="Helvetica,sans-Serif" font-size="10.00">SDL2/SDL.h</text>
</a>
</g>
</g>
<!-- Node7&#45;&gt;Node8 -->
<g id="edge7_Node000007_Node000008" class="edge">
<title>Node7&#45;&gt;Node8</title>
<g id="a_edge7_Node000007_Node000008"><a xlink:title=" ">
<path fill="none" stroke="#63b8ff" d="M1531.74,-57.16C1452.78,-46.85 1297.63,-26.6 1220.34,-16.51"/>
<polygon fill="#63b8ff" stroke="#63b8ff" points="1220.78,-13.04 1210.42,-15.21 1219.88,-19.98 1220.78,-13.04"/>
</a>
</g>
</g>
<!-- Node9 -->
<g id="Node000009" class="node">
<title>Node9</title>
<g id="a_Node000009"><a xlink:title=" ">
<polygon fill="#e0e0e0" stroke="#999999" points="1603.81,-19 1556.81,-19 1556.81,0 1603.81,0 1603.81,-19"/>
<text text-anchor="middle" x="1580.31" y="-7" font-family="Helvetica,sans-Serif" font-size="10.00">cmath</text>
</a>
</g>
</g>
<!-- Node7&#45;&gt;Node9 -->
<g id="edge8_Node000007_Node000009" class="edge">
<title>Node7&#45;&gt;Node9</title>
<g id="a_edge8_Node000007_Node000009"><a xlink:title=" ">
<path fill="none" stroke="#63b8ff" d="M1580.31,-54.75C1580.31,-47.8 1580.31,-37.85 1580.31,-29.13"/>
<polygon fill="#63b8ff" stroke="#63b8ff" points="1583.81,-29.09 1580.31,-19.09 1576.81,-29.09 1583.81,-29.09"/>
</a>
</g>
</g>
<!-- Node10&#45;&gt;Node7 -->
<g id="edge10_Node000010_Node000007" class="edge">
<title>Node10&#45;&gt;Node7</title>
<g id="a_edge10_Node000010_Node000007"><a xlink:title=" ">
<path fill="none" stroke="#63b8ff" d="M1481.27,-109.98C1500.34,-101.42 1529.97,-88.11 1551.86,-78.28"/>
<polygon fill="#63b8ff" stroke="#63b8ff" points="1553.32,-81.46 1561.01,-74.17 1550.45,-75.07 1553.32,-81.46"/>
</a>
</g>
</g>
<!-- Node11&#45;&gt;Node3 -->
<g id="edge12_Node000011_Node000003" class="edge">
<title>Node11&#45;&gt;Node3</title>
<g id="a_edge12_Node000011_Node000003"><a xlink:title=" ">
<path fill="none" stroke="#63b8ff" d="M348.61,-168.22C278.54,-161.81 175.41,-149.29 141.31,-129 123.23,-118.24 109.42,-98.05 101.14,-83.32"/>
<polygon fill="#63b8ff" stroke="#63b8ff" points="104.07,-81.38 96.31,-74.18 97.89,-84.65 104.07,-81.38"/>
</a>
</g>
</g>
<!-- Node11&#45;&gt;Node4 -->
<g id="edge13_Node000011_Node000004" class="edge">
<title>Node11&#45;&gt;Node4</title>
<g id="a_edge13_Node000011_Node000004"><a xlink:title=" ">
<path fill="none" stroke="#63b8ff" d="M348.69,-171.85C277.9,-168.53 174.4,-158.59 149.31,-129 143.85,-122.56 143.96,-116.53 149.31,-110 172.83,-81.32 281.95,-70.77 338.35,-67.18"/>
<polygon fill="#63b8ff" stroke="#63b8ff" points="338.79,-70.66 348.56,-66.57 338.37,-63.68 338.79,-70.66"/>
</a>
</g>
</g>
<!-- Node11&#45;&gt;Node10 -->
<g id="edge14_Node000011_Node000010" class="edge">
<title>Node11&#45;&gt;Node10</title>
<g id="a_edge14_Node000011_Node000010"><a xlink:title=" ">
<path fill="none" stroke="#63b8ff" d="M485.99,-168.13C501.55,-167.01 517.99,-165.89 533.31,-165 901.92,-143.51 994.85,-152.8 1363.31,-129 1375.22,-128.23 1387.91,-127.26 1400.1,-126.25"/>
<polygon fill="#63b8ff" stroke="#63b8ff" points="1400.53,-129.72 1410.19,-125.39 1399.93,-122.75 1400.53,-129.72"/>
</a>
</g>
</g>
<!-- Node12&#45;&gt;Node7 -->
<g id="edge23_Node000012_Node000007" class="edge">
<title>Node12&#45;&gt;Node7</title>
<g id="a_edge23_Node000012_Node000007"><a xlink:title=" ">
<path fill="none" stroke="#63b8ff" d="M1454.88,-223.12C1507.9,-217.2 1576.98,-205.53 1594.31,-184 1617.61,-155.07 1601.41,-108.54 1589.61,-83.25"/>
<polygon fill="#63b8ff" stroke="#63b8ff" points="1592.66,-81.53 1585.09,-74.11 1586.38,-84.62 1592.66,-81.53"/>
</a>
</g>
</g>
<!-- Node13 -->
<g id="Node000013" class="node">
<title>Node13</title>
<g id="a_Node000013"><a xlink:title=" ">
<polygon fill="#e0e0e0" stroke="#999999" points="222.31,-129 158.31,-129 158.31,-110 222.31,-110 222.31,-129"/>
<text text-anchor="middle" x="190.31" y="-117" font-family="Helvetica,sans-Serif" font-size="10.00">algorithm</text>
</a>
</g>
</g>
<!-- Node12&#45;&gt;Node13 -->
<g id="edge16_Node000012_Node000013" class="edge">
<title>Node12&#45;&gt;Node13</title>
<g id="a_edge16_Node000012_Node000013"><a xlink:title=" ">
<path fill="none" stroke="#63b8ff" d="M1325.77,-225.87C1132.83,-217.92 571.44,-194.05 533.31,-184 515.05,-179.19 513.35,-170.57 495.31,-165 385.26,-131.01 349.95,-148.03 232.6,-129.08"/>
<polygon fill="#63b8ff" stroke="#63b8ff" points="232.94,-125.59 222.5,-127.39 231.79,-132.49 232.94,-125.59"/>
</a>
</g>
</g>
<!-- Node14 -->
<g id="Node000014" class="node">
<title>Node14</title>
<g id="a_Node000014"><a xlink:href="CollisionController_8hpp.html" target="_top" xlink:title=" ">
<polygon fill="white" stroke="#666666" points="1476.31,-184 1304.31,-184 1304.31,-165 1476.31,-165 1476.31,-184"/>
<text text-anchor="middle" x="1390.31" y="-172" font-family="Helvetica,sans-Serif" font-size="10.00">Collision/CollisionController.hpp</text>
</a>
</g>
</g>
<!-- Node12&#45;&gt;Node14 -->
<g id="edge17_Node000012_Node000014" class="edge">
<title>Node12&#45;&gt;Node14</title>
<g id="a_edge17_Node000012_Node000014"><a xlink:title=" ">
<path fill="none" stroke="#63b8ff" d="M1390.31,-219.75C1390.31,-212.8 1390.31,-202.85 1390.31,-194.13"/>
<polygon fill="#63b8ff" stroke="#63b8ff" points="1393.81,-194.09 1390.31,-184.09 1386.81,-194.09 1393.81,-194.09"/>
</a>
</g>
</g>
<!-- Node17 -->
<g id="Node000017" class="node">
<title>Node17</title>
<g id="a_Node000017"><a xlink:href="Weapon_8hpp.html" target="_top" xlink:title=" ">
<polygon fill="white" stroke="#666666" points="1756.31,-184 1646.31,-184 1646.31,-165 1756.31,-165 1756.31,-184"/>
<text text-anchor="middle" x="1701.31" y="-172" font-family="Helvetica,sans-Serif" font-size="10.00">Player/Weapon.hpp</text>
</a>
</g>
</g>
<!-- Node12&#45;&gt;Node17 -->
<g id="edge20_Node000012_Node000017" class="edge">
<title>Node12&#45;&gt;Node17</title>
<g id="a_edge20_Node000012_Node000017"><a xlink:title=" ">
<path fill="none" stroke="#63b8ff" d="M1440.28,-219.98C1494.95,-210.67 1582.57,-195.74 1641.01,-185.78"/>
<polygon fill="#63b8ff" stroke="#63b8ff" points="1641.94,-189.17 1651.21,-184.04 1640.77,-182.27 1641.94,-189.17"/>
</a>
</g>
</g>
<!-- Node15 -->
<g id="Node000015" class="node">
<title>Node15</title>
<g id="a_Node000015"><a xlink:href="Entity_8hpp.html" target="_top" xlink:title=" ">
<polygon fill="white" stroke="#666666" points="1354.31,-129 1252.31,-129 1252.31,-110 1354.31,-110 1354.31,-129"/>
<text text-anchor="middle" x="1303.31" y="-117" font-family="Helvetica,sans-Serif" font-size="10.00">../../ecs/Entity.hpp</text>
</a>
</g>
</g>
<!-- Node14&#45;&gt;Node15 -->
<g id="edge18_Node000014_Node000015" class="edge">
<title>Node14&#45;&gt;Node15</title>
<g id="a_edge18_Node000014_Node000015"><a xlink:title=" ">
<path fill="none" stroke="#63b8ff" d="M1376.34,-164.98C1362.84,-156.77 1342.18,-144.18 1326.27,-134.49"/>
<polygon fill="#63b8ff" stroke="#63b8ff" points="1327.91,-131.38 1317.55,-129.17 1324.26,-137.36 1327.91,-131.38"/>
</a>
</g>
</g>
<!-- Node16 -->
<g id="Node000016" class="node">
<title>Node16</title>
<g id="a_Node000016"><a xlink:title=" ">
<polygon fill="#e0e0e0" stroke="#999999" points="1329.81,-74 1276.81,-74 1276.81,-55 1329.81,-55 1329.81,-74"/>
<text text-anchor="middle" x="1303.31" y="-62" font-family="Helvetica,sans-Serif" font-size="10.00">cstddef</text>
</a>
</g>
</g>
<!-- Node15&#45;&gt;Node16 -->
<g id="edge19_Node000015_Node000016" class="edge">
<title>Node15&#45;&gt;Node16</title>
<g id="a_edge19_Node000015_Node000016"><a xlink:title=" ">
<path fill="none" stroke="#63b8ff" d="M1303.31,-109.75C1303.31,-102.8 1303.31,-92.85 1303.31,-84.13"/>
<polygon fill="#63b8ff" stroke="#63b8ff" points="1306.81,-84.09 1303.31,-74.09 1299.81,-84.09 1306.81,-84.09"/>
</a>
</g>
</g>
<!-- Node17&#45;&gt;Node18 -->
<g id="edge21_Node000017_Node000018" class="edge">
<title>Node17&#45;&gt;Node18</title>
<g id="a_edge21_Node000017_Node000018"><a xlink:title=" ">
<path fill="none" stroke="#63b8ff" d="M1707.09,-164.75C1711.93,-157.42 1718.99,-146.73 1724.96,-137.7"/>
<polygon fill="#63b8ff" stroke="#63b8ff" points="1728.05,-139.36 1730.64,-129.09 1722.21,-135.5 1728.05,-139.36"/>
</a>
</g>
</g>
<!-- Node18&#45;&gt;Node7 -->
<g id="edge22_Node000018_Node000007" class="edge">
<title>Node18&#45;&gt;Node7</title>
<g id="a_edge22_Node000018_Node000007"><a xlink:title=" ">
<path fill="none" stroke="#63b8ff" d="M1711.25,-109.98C1685.29,-101.16 1644.5,-87.31 1615.36,-77.41"/>
<polygon fill="#63b8ff" stroke="#63b8ff" points="1616.17,-73.99 1605.57,-74.08 1613.92,-80.61 1616.17,-73.99"/>
</a>
</g>
</g>
<!-- Node19&#45;&gt;Node3 -->
<g id="edge34_Node000019_Node000003" class="edge">
<title>Node19&#45;&gt;Node3</title>
<g id="a_edge34_Node000019_Node000003"><a xlink:title=" ">
<path fill="none" stroke="#63b8ff" d="M542.85,-164.93C499.29,-156.76 433.1,-143.57 376.31,-129 348.4,-121.84 342.25,-117.06 314.31,-110 247.6,-93.14 168.31,-78.53 124.85,-70.97"/>
<polygon fill="#63b8ff" stroke="#63b8ff" points="125.3,-67.5 114.85,-69.25 124.11,-74.4 125.3,-67.5"/>
</a>
</g>
</g>
<!-- Node19&#45;&gt;Node4 -->
<g id="edge35_Node000019_Node000004" class="edge">
<title>Node19&#45;&gt;Node4</title>
<g id="a_edge35_Node000019_Node000004"><a xlink:title=" ">
<path fill="none" stroke="#63b8ff" d="M542.24,-165.37C486.96,-155.61 402.35,-139.29 391.31,-129 379.09,-117.61 374.62,-98.72 373.04,-84.49"/>
<polygon fill="#63b8ff" stroke="#63b8ff" points="376.52,-84.04 372.3,-74.32 369.53,-84.55 376.52,-84.04"/>
</a>
</g>
</g>
<!-- Node19&#45;&gt;Node13 -->
<g id="edge27_Node000019_Node000013" class="edge">
<title>Node19&#45;&gt;Node13</title>
<g id="a_edge27_Node000019_Node000013"><a xlink:title=" ">
<path fill="none" stroke="#63b8ff" d="M542.26,-166.84C537.55,-166.21 532.84,-165.58 528.31,-165 399.66,-148.39 364.24,-150.4 232.56,-129.08"/>
<polygon fill="#63b8ff" stroke="#63b8ff" points="232.93,-125.6 222.49,-127.44 231.8,-132.5 232.93,-125.6"/>
</a>
</g>
</g>
<!-- Node19&#45;&gt;Node15 -->
<g id="edge36_Node000019_Node000015" class="edge">
<title>Node19&#45;&gt;Node15</title>
<g id="a_edge36_Node000019_Node000015"><a xlink:title=" ">
<path fill="none" stroke="#63b8ff" d="M638.57,-170.24C742.31,-163.19 994.29,-145.79 1205.31,-129 1217.22,-128.05 1229.93,-126.99 1242.12,-125.94"/>
<polygon fill="#63b8ff" stroke="#63b8ff" points="1242.55,-129.42 1252.21,-125.07 1241.94,-122.45 1242.55,-129.42"/>
</a>
</g>
</g>
<!-- Node20 -->
<g id="Node000020" class="node">
<title>Node20</title>
<g id="a_Node000020"><a xlink:title=" ">
<polygon fill="#e0e0e0" stroke="#999999" points="539.81,-129 504.81,-129 504.81,-110 539.81,-110 539.81,-129"/>
<text text-anchor="middle" x="522.31" y="-117" font-family="Helvetica,sans-Serif" font-size="10.00">any</text>
</a>
</g>
</g>
<!-- Node19&#45;&gt;Node20 -->
<g id="edge28_Node000019_Node000020" class="edge">
<title>Node19&#45;&gt;Node20</title>
<g id="a_edge28_Node000019_Node000020"><a xlink:title=" ">
<path fill="none" stroke="#63b8ff" d="M579.39,-164.98C569.24,-157.07 553.89,-145.11 541.67,-135.58"/>
<polygon fill="#63b8ff" stroke="#63b8ff" points="543.48,-132.56 533.44,-129.17 539.17,-138.08 543.48,-132.56"/>
</a>
</g>
</g>
<!-- Node21 -->
<g id="Node000021" class="node">
<title>Node21</title>
<g id="a_Node000021"><a xlink:title=" ">
<polygon fill="#e0e0e0" stroke="#999999" points="305.81,-129 240.81,-129 240.81,-110 305.81,-110 305.81,-129"/>
<text text-anchor="middle" x="273.31" y="-117" font-family="Helvetica,sans-Serif" font-size="10.00">functional</text>
</a>
</g>
</g>
<!-- Node19&#45;&gt;Node21 -->
<g id="edge29_Node000019_Node000021" class="edge">
<title>Node19&#45;&gt;Node21</title>
<g id="a_edge29_Node000019_Node000021"><a xlink:title=" ">
<path fill="none" stroke="#63b8ff" d="M541.99,-165.77C487.94,-157.07 397.79,-142.39 320.31,-129 318.86,-128.75 317.38,-128.49 315.88,-128.23"/>
<polygon fill="#63b8ff" stroke="#63b8ff" points="316.37,-124.76 305.92,-126.46 315.15,-131.65 316.37,-124.76"/>
</a>
</g>
</g>
<!-- Node22 -->
<g id="Node000022" class="node">
<title>Node22</title>
<g id="a_Node000022"><a xlink:title=" ">
<polygon fill="#e0e0e0" stroke="#999999" points="834.31,-129 774.31,-129 774.31,-110 834.31,-110 834.31,-129"/>
<text text-anchor="middle" x="804.31" y="-117" font-family="Helvetica,sans-Serif" font-size="10.00">iostream</text>
</a>
</g>
</g>
<!-- Node19&#45;&gt;Node22 -->
<g id="edge30_Node000019_Node000022" class="edge">
<title>Node19&#45;&gt;Node22</title>
<g id="a_edge30_Node000019_Node000022"><a xlink:title=" ">
<path fill="none" stroke="#63b8ff" d="M624.7,-164.98C662.82,-155.54 724.22,-140.34 764.43,-130.38"/>
<polygon fill="#63b8ff" stroke="#63b8ff" points="765.3,-133.77 774.17,-127.97 763.62,-126.97 765.3,-133.77"/>
</a>
</g>
</g>
<!-- Node23 -->
<g id="Node000023" class="node">
<title>Node23</title>
<g id="a_Node000023"><a xlink:title=" ">
<polygon fill="#e0e0e0" stroke="#999999" points="622.81,-129 557.81,-129 557.81,-110 622.81,-110 622.81,-129"/>
<text text-anchor="middle" x="590.31" y="-117" font-family="Helvetica,sans-Serif" font-size="10.00">typeindex</text>
</a>
</g>
</g>
<!-- Node19&#45;&gt;Node23 -->
<g id="edge31_Node000019_Node000023" class="edge">
<title>Node19&#45;&gt;Node23</title>
<g id="a_edge31_Node000019_Node000023"><a xlink:title=" ">
<path fill="none" stroke="#63b8ff" d="M590.31,-164.75C590.31,-157.8 590.31,-147.85 590.31,-139.13"/>
<polygon fill="#63b8ff" stroke="#63b8ff" points="593.81,-139.09 590.31,-129.09 586.81,-139.09 593.81,-139.09"/>
</a>
</g>
</g>
<!-- Node24 -->
<g id="Node000024" class="node">
<title>Node24</title>
<g id="a_Node000024"><a xlink:title=" ">
<polygon fill="#e0e0e0" stroke="#999999" points="945.81,-129 852.81,-129 852.81,-110 945.81,-110 945.81,-129"/>
<text text-anchor="middle" x="899.31" y="-117" font-family="Helvetica,sans-Serif" font-size="10.00">unordered_map</text>
</a>
</g>
</g>
<!-- Node19&#45;&gt;Node24 -->
<g id="edge32_Node000019_Node000024" class="edge">
<title>Node19&#45;&gt;Node24</title>
<g id="a_edge32_Node000019_Node000024"><a xlink:title=" ">
<path fill="none" stroke="#63b8ff" d="M638.59,-165.22C693.76,-155.76 783.93,-140.29 842.45,-130.25"/>
<polygon fill="#63b8ff" stroke="#63b8ff" points="843.37,-133.65 852.63,-128.51 842.19,-126.75 843.37,-133.65"/>
</a>
</g>
</g>
<!-- Node25 -->
<g id="Node000025" class="node">
<title>Node25</title>
<g id="a_Node000025"><a xlink:title=" ">
<polygon fill="#e0e0e0" stroke="#999999" points="486.31,-129 400.31,-129 400.31,-110 486.31,-110 486.31,-129"/>
<text text-anchor="middle" x="443.31" y="-117" font-family="Helvetica,sans-Serif" font-size="10.00">unordered_set</text>
</a>
</g>
</g>
<!-- Node19&#45;&gt;Node25 -->
<g id="edge33_Node000019_Node000025" class="edge">
<title>Node19&#45;&gt;Node25</title>
<g id="a_edge33_Node000019_Node000025"><a xlink:title=" ">
<path fill="none" stroke="#63b8ff" d="M566.7,-164.98C542.41,-156.23 504.36,-142.51 476.94,-132.62"/>
<polygon fill="#63b8ff" stroke="#63b8ff" points="477.96,-129.27 467.36,-129.17 475.58,-135.85 477.96,-129.27"/>
</a>
</g>
</g>
<!-- Node26 -->
<g id="Node000026" class="node">
<title>Node26</title>
<g id="a_Node000026"><a xlink:href="SparseArray_8hpp.html" target="_top" xlink:title=" ">
<polygon fill="white" stroke="#666666" points="755.81,-129 640.81,-129 640.81,-110 755.81,-110 755.81,-129"/>
<text text-anchor="middle" x="698.31" y="-117" font-family="Helvetica,sans-Serif" font-size="10.00">ecs/SparseArray.hpp</text>
</a>
</g>
</g>
<!-- Node19&#45;&gt;Node26 -->
<g id="edge37_Node000019_Node000026" class="edge">
<title>Node19&#45;&gt;Node26</title>
<g id="a_edge37_Node000019_Node000026"><a xlink:title=" ">
<path fill="none" stroke="#63b8ff" d="M607.67,-164.98C624.88,-156.54 651.51,-143.47 671.46,-133.68"/>
<polygon fill="#63b8ff" stroke="#63b8ff" points="673.21,-136.72 680.65,-129.17 670.13,-130.43 673.21,-136.72"/>
</a>
</g>
</g>
<!-- Node26&#45;&gt;Node3 -->
<g id="edge40_Node000026_Node000003" class="edge">
<title>Node26&#45;&gt;Node3</title>
<g id="a_edge40_Node000026_Node000003"><a xlink:title=" ">
<path fill="none" stroke="#63b8ff" d="M640.74,-110.93C637.89,-110.6 635.07,-110.29 632.31,-110 440.33,-89.74 209.13,-73.36 124.96,-67.67"/>
<polygon fill="#63b8ff" stroke="#63b8ff" points="125.2,-64.17 114.98,-66.99 124.73,-71.16 125.2,-64.17"/>
</a>
</g>
</g>
<!-- Node26&#45;&gt;Node4 -->
<g id="edge41_Node000026_Node000004" class="edge">
<title>Node26&#45;&gt;Node4</title>
<g id="a_edge41_Node000026_Node000004"><a xlink:title=" ">
<path fill="none" stroke="#63b8ff" d="M645.94,-109.98C578.33,-98.99 462.65,-80.19 405.82,-70.95"/>
<polygon fill="#63b8ff" stroke="#63b8ff" points="406.35,-67.49 395.92,-69.34 405.23,-74.4 406.35,-67.49"/>
</a>
</g>
</g>
<!-- Node27 -->
<g id="Node000027" class="node">
<title>Node27</title>
<g id="a_Node000027"><a xlink:title=" ">
<polygon fill="#e0e0e0" stroke="#999999" points="764.31,-74 706.31,-74 706.31,-55 764.31,-55 764.31,-74"/>
<text text-anchor="middle" x="735.31" y="-62" font-family="Helvetica,sans-Serif" font-size="10.00">memory</text>
</a>
</g>
</g>
<!-- Node26&#45;&gt;Node27 -->
<g id="edge38_Node000026_Node000027" class="edge">
<title>Node26&#45;&gt;Node27</title>
<g id="a_edge38_Node000026_Node000027"><a xlink:title=" ">
<path fill="none" stroke="#63b8ff" d="M704.42,-109.75C709.6,-102.34 717.16,-91.5 723.51,-82.41"/>
<polygon fill="#63b8ff" stroke="#63b8ff" points="726.46,-84.29 729.32,-74.09 720.72,-80.29 726.46,-84.29"/>
</a>
</g>
</g>
<!-- Node28 -->
<g id="Node000028" class="node">
<title>Node28</title>
<g id="a_Node000028"><a xlink:title=" ">
<polygon fill="#e0e0e0" stroke="#999999" points="688.31,-74 632.31,-74 632.31,-55 688.31,-55 688.31,-74"/>
<text text-anchor="middle" x="660.31" y="-62" font-family="Helvetica,sans-Serif" font-size="10.00">optional</text>
</a>
</g>
</g>
<!-- Node26&#45;&gt;Node28 -->
<g id="edge39_Node000026_Node000028" class="edge">
<title>Node26&#45;&gt;Node28</title>
<g id="a_edge39_Node000026_Node000028"><a xlink:title=" ">
<path fill="none" stroke="#63b8ff" d="M692.04,-109.75C686.73,-102.34 678.96,-91.5 672.44,-82.41"/>
<polygon fill="#63b8ff" stroke="#63b8ff" points="675.14,-80.18 666.47,-74.09 669.45,-84.26 675.14,-80.18"/>
</a>
</g>
</g>
<!-- Node29&#45;&gt;Node7 -->
<g id="edge44_Node000029_Node000007" class="edge">
<title>Node29&#45;&gt;Node7</title>
<g id="a_edge44_Node000029_Node000007"><a xlink:title=" ">
<path fill="none" stroke="#63b8ff" d="M1149.14,-224.67C1264.49,-217.79 1487.3,-202.32 1518.31,-184 1554.68,-162.51 1570.67,-111.71 1576.88,-84.12"/>
<polygon fill="#63b8ff" stroke="#63b8ff" points="1580.34,-84.67 1578.92,-74.17 1573.48,-83.27 1580.34,-84.67"/>
</a>
</g>
</g>
<!-- Node29&#45;&gt;Node8 -->
<g id="edge43_Node000029_Node000008" class="edge">
<title>Node29&#45;&gt;Node8</title>
<g id="a_edge43_Node000029_Node000008"><a xlink:title=" ">
<path fill="none" stroke="#63b8ff" d="M1082.46,-219.72C1085.6,-207.33 1091.88,-184.09 1099.31,-165 1119.16,-114.02 1149.08,-56.76 1164.44,-28.4"/>
<polygon fill="#63b8ff" stroke="#63b8ff" points="1167.68,-29.78 1169.4,-19.33 1161.53,-26.43 1167.68,-29.78"/>
</a>
</g>
</g>
<!-- Node29&#45;&gt;Node19 -->
<g id="edge45_Node000029_Node000019" class="edge">
<title>Node29&#45;&gt;Node19</title>
<g id="a_edge45_Node000029_Node000019"><a xlink:title=" ">
<path fill="none" stroke="#63b8ff" d="M1011.66,-221.07C914.78,-210.6 739.64,-191.65 648.68,-181.81"/>
<polygon fill="#63b8ff" stroke="#63b8ff" points="648.87,-178.31 638.55,-180.72 648.12,-185.27 648.87,-178.31"/>
</a>
</g>
</g>
<!-- Node29&#45;&gt;Node30 -->
<g id="edge46_Node000029_Node000030" class="edge">
<title>Node29&#45;&gt;Node30</title>
<g id="a_edge46_Node000029_Node000030"><a xlink:title=" ">
<path fill="none" stroke="#63b8ff" d="M1011.59,-224.41C840.7,-214.23 399.25,-187.94 244.72,-178.74"/>
<polygon fill="#63b8ff" stroke="#63b8ff" points="244.72,-175.23 234.53,-178.13 244.3,-182.22 244.72,-175.23"/>
</a>
</g>
</g>
<!-- Node32 -->
<g id="Node000032" class="node">
<title>Node32</title>
<g id="a_Node000032"><a xlink:href="RenderComponents_8hpp.html" target="_top" xlink:title=" ">
<polygon fill="white" stroke="#666666" points="1286.31,-184 1108.31,-184 1108.31,-165 1286.31,-165 1286.31,-184"/>
<text text-anchor="middle" x="1197.31" y="-172" font-family="Helvetica,sans-Serif" font-size="10.00">graphics/RenderComponents.hpp</text>
</a>
</g>
</g>
<!-- Node29&#45;&gt;Node32 -->
<g id="edge52_Node000029_Node000032" class="edge">
<title>Node29&#45;&gt;Node32</title>
<g id="a_edge52_Node000029_Node000032"><a xlink:title=" ">
<path fill="none" stroke="#63b8ff" d="M1099.11,-219.98C1117.93,-211.46 1147.14,-198.23 1168.81,-188.41"/>
<polygon fill="#63b8ff" stroke="#63b8ff" points="1170.51,-191.48 1178.17,-184.17 1167.62,-185.11 1170.51,-191.48"/>
</a>
</g>
</g>
<!-- Node34 -->
<g id="Node000034" class="node">
<title>Node34</title>
<g id="a_Node000034"><a xlink:href="KeyBindings_8hpp.html" target="_top" xlink:title=" ">
<polygon fill="white" stroke="#666666" points="1051.81,-184 920.81,-184 920.81,-165 1051.81,-165 1051.81,-184"/>
<text text-anchor="middle" x="986.31" y="-172" font-family="Helvetica,sans-Serif" font-size="10.00">inputs/KeyBindings.hpp</text>
</a>
</g>
</g>
<!-- Node29&#45;&gt;Node34 -->
<g id="edge56_Node000029_Node000034" class="edge">
<title>Node29&#45;&gt;Node34</title>
<g id="a_edge56_Node000029_Node000034"><a xlink:title=" ">
<path fill="none" stroke="#63b8ff" d="M1065.21,-219.98C1050.5,-211.69 1027.89,-198.94 1010.64,-189.22"/>
<polygon fill="#63b8ff" stroke="#63b8ff" points="1012.12,-186.03 1001.69,-184.17 1008.68,-192.13 1012.12,-186.03"/>
</a>
</g>
</g>
<!-- Node30&#45;&gt;Node3 -->
<g id="edge50_Node000030_Node000003" class="edge">
<title>Node30&#45;&gt;Node3</title>
<g id="a_edge50_Node000030_Node000003"><a xlink:title=" ">
<path fill="none" stroke="#63b8ff" d="M146.06,-168.56C99.11,-162.29 29.48,-149.74 13.31,-129 -3.99,-106.81 31.15,-87.56 59.97,-76.24"/>
<polygon fill="#63b8ff" stroke="#63b8ff" points="61.27,-79.49 69.42,-72.71 58.82,-72.93 61.27,-79.49"/>
</a>
</g>
</g>
<!-- Node30&#45;&gt;Node13 -->
<g id="edge47_Node000030_Node000013" class="edge">
<title>Node30&#45;&gt;Node13</title>
<g id="a_edge47_Node000030_Node000013"><a xlink:title=" ">
<path fill="none" stroke="#63b8ff" d="M190.31,-164.75C190.31,-157.8 190.31,-147.85 190.31,-139.13"/>
<polygon fill="#63b8ff" stroke="#63b8ff" points="193.81,-139.09 190.31,-129.09 186.81,-139.09 193.81,-139.09"/>
</a>
</g>
</g>
<!-- Node30&#45;&gt;Node21 -->
<g id="edge48_Node000030_Node000021" class="edge">
<title>Node30&#45;&gt;Node21</title>
<g id="a_edge48_Node000030_Node000021"><a xlink:title=" ">
<path fill="none" stroke="#63b8ff" d="M203.65,-164.98C216.4,-156.84 235.87,-144.41 250.98,-134.76"/>
<polygon fill="#63b8ff" stroke="#63b8ff" points="253.19,-137.5 259.74,-129.17 249.42,-131.6 253.19,-137.5"/>
</a>
</g>
</g>
<!-- Node30&#45;&gt;Node30 -->
<g id="edge51_Node000030_Node000030" class="edge">
<title>Node30&#45;&gt;Node30</title>
<g id="a_edge51_Node000030_Node000030"><a xlink:title=" ">
<path fill="none" stroke="#63b8ff" d="M219.33,-184.03C236.37,-186.06 252.31,-182.88 252.31,-174.5 252.31,-167.82 242.19,-164.44 229.46,-164.38"/>
<polygon fill="#63b8ff" stroke="#63b8ff" points="229.11,-160.89 219.33,-164.97 229.52,-167.88 229.11,-160.89"/>
</a>
</g>
</g>
<!-- Node31 -->
<g id="Node000031" class="node">
<title>Node31</title>
<g id="a_Node000031"><a xlink:title=" ">
<polygon fill="#e0e0e0" stroke="#999999" points="63.81,-129 22.81,-129 22.81,-110 63.81,-110 63.81,-129"/>
<text text-anchor="middle" x="43.31" y="-117" font-family="Helvetica,sans-Serif" font-size="10.00">tuple</text>
</a>
</g>
</g>
<!-- Node30&#45;&gt;Node31 -->
<g id="edge49_Node000030_Node000031" class="edge">
<title>Node30&#45;&gt;Node31</title>
<g id="a_edge49_Node000030_Node000031"><a xlink:title=" ">
<path fill="none" stroke="#63b8ff" d="M166.7,-164.98C141.4,-155.86 101.17,-141.36 73.57,-131.41"/>
<polygon fill="#63b8ff" stroke="#63b8ff" points="74.62,-128.07 64.02,-127.97 72.24,-134.65 74.62,-128.07"/>
</a>
</g>
</g>
<!-- Node32&#45;&gt;Node7 -->
<g id="edge55_Node000032_Node000007" class="edge">
<title>Node32&#45;&gt;Node7</title>
<g id="a_edge55_Node000032_Node000007"><a xlink:title=" ">
<path fill="none" stroke="#63b8ff" d="M1238.29,-164.94C1272.33,-157.26 1321.75,-144.78 1363.31,-129 1380.97,-122.3 1383.6,-116.54 1401.31,-110 1441.37,-95.21 1488.26,-83.76 1524,-76.17"/>
<polygon fill="#63b8ff" stroke="#63b8ff" points="1525.16,-79.51 1534.24,-74.04 1523.73,-72.65 1525.16,-79.51"/>
</a>
</g>
</g>
<!-- Node32&#45;&gt;Node8 -->
<g id="edge53_Node000032_Node000008" class="edge">
<title>Node32&#45;&gt;Node8</title>
<g id="a_edge53_Node000032_Node000008"><a xlink:title=" ">
<path fill="none" stroke="#63b8ff" d="M1199.37,-164.7C1201.35,-155.77 1204.2,-141.51 1205.31,-129 1208.57,-92.45 1193.35,-51.33 1183.08,-28.41"/>
<polygon fill="#63b8ff" stroke="#63b8ff" points="1186.2,-26.82 1178.8,-19.24 1179.86,-29.78 1186.2,-26.82"/>
</a>
</g>
</g>
<!-- Node33 -->
<g id="Node000033" class="node">
<title>Node33</title>
<g id="a_Node000033"><a xlink:title=" ">
<polygon fill="#e0e0e0" stroke="#999999" points="1196.31,-129 1152.31,-129 1152.31,-110 1196.31,-110 1196.31,-129"/>
<text text-anchor="middle" x="1174.31" y="-117" font-family="Helvetica,sans-Serif" font-size="10.00">string</text>
</a>
</g>
</g>
<!-- Node32&#45;&gt;Node33 -->
<g id="edge54_Node000032_Node000033" class="edge">
<title>Node32&#45;&gt;Node33</title>
<g id="a_edge54_Node000032_Node000033"><a xlink:title=" ">
<path fill="none" stroke="#63b8ff" d="M1193.52,-164.75C1190.4,-157.57 1185.89,-147.18 1182.02,-138.27"/>
<polygon fill="#63b8ff" stroke="#63b8ff" points="1185.23,-136.87 1178.04,-129.09 1178.81,-139.66 1185.23,-136.87"/>
</a>
</g>
</g>
<!-- Node34&#45;&gt;Node4 -->
<g id="edge62_Node000034_Node000004" class="edge">
<title>Node34&#45;&gt;Node4</title>
<g id="a_edge62_Node000034_Node000004"><a xlink:title=" ">
<path fill="none" stroke="#63b8ff" d="M984.86,-164.73C982,-150.53 974.19,-122.82 955.31,-110 932.46,-94.49 526.94,-73.18 406.05,-67.15"/>
<polygon fill="#63b8ff" stroke="#63b8ff" points="406.07,-63.65 395.91,-66.65 405.72,-70.64 406.07,-63.65"/>
</a>
</g>
</g>
<!-- Node34&#45;&gt;Node8 -->
<g id="edge57_Node000034_Node000008" class="edge">
<title>Node34&#45;&gt;Node8</title>
<g id="a_edge57_Node000034_Node000008"><a xlink:title=" ">
<path fill="none" stroke="#63b8ff" d="M991.46,-164.59C999.22,-151.62 1014.88,-127.22 1032.31,-110 1068.85,-73.93 1119.72,-41.76 1149.62,-24.3"/>
<polygon fill="#63b8ff" stroke="#63b8ff" points="1151.62,-27.19 1158.54,-19.16 1148.13,-21.12 1151.62,-27.19"/>
</a>
</g>
</g>
<!-- Node34&#45;&gt;Node22 -->
<g id="edge59_Node000034_Node000022" class="edge">
<title>Node34&#45;&gt;Node22</title>
<g id="a_edge59_Node000034_Node000022"><a xlink:title=" ">
<path fill="none" stroke="#63b8ff" d="M957.07,-164.98C926.25,-156.01 877.54,-141.82 843.43,-131.89"/>
<polygon fill="#63b8ff" stroke="#63b8ff" points="844.36,-128.52 833.78,-129.08 842.41,-135.24 844.36,-128.52"/>
</a>
</g>
</g>
<!-- Node34&#45;&gt;Node24 -->
<g id="edge61_Node000034_Node000024" class="edge">
<title>Node34&#45;&gt;Node24</title>
<g id="a_edge61_Node000034_Node000024"><a xlink:title=" ">
<path fill="none" stroke="#63b8ff" d="M972.34,-164.98C958.84,-156.77 938.18,-144.18 922.27,-134.49"/>
<polygon fill="#63b8ff" stroke="#63b8ff" points="923.91,-131.38 913.55,-129.17 920.26,-137.36 923.91,-131.38"/>
</a>
</g>
</g>
<!-- Node34&#45;&gt;Node33 -->
<g id="edge60_Node000034_Node000033" class="edge">
<title>Node34&#45;&gt;Node33</title>
<g id="a_edge60_Node000034_Node000033"><a xlink:title=" ">
<path fill="none" stroke="#63b8ff" d="M1016.52,-164.98C1051,-155.26 1107.17,-139.43 1142.36,-129.51"/>
<polygon fill="#63b8ff" stroke="#63b8ff" points="1143.45,-132.84 1152.13,-126.75 1141.55,-126.1 1143.45,-132.84"/>
</a>
</g>
</g>
<!-- Node35 -->
<g id="Node000035" class="node">
<title>Node35</title>
<g id="a_Node000035"><a xlink:title=" ">
<polygon fill="#e0e0e0" stroke="#999999" points="1095.81,-129 1040.81,-129 1040.81,-110 1095.81,-110 1095.81,-129"/>
<text text-anchor="middle" x="1068.31" y="-117" font-family="Helvetica,sans-Serif" font-size="10.00">fstream</text>
</a>
</g>
</g>
<!-- Node34&#45;&gt;Node35 -->
<g id="edge58_Node000034_Node000035" class="edge">
<title>Node34&#45;&gt;Node35</title>
<g id="a_edge58_Node000034_Node000035"><a xlink:title=" ">
<path fill="none" stroke="#63b8ff" d="M999.49,-164.98C1012.09,-156.84 1031.32,-144.41 1046.25,-134.76"/>
<polygon fill="#63b8ff" stroke="#63b8ff" points="1048.4,-137.54 1054.9,-129.17 1044.6,-131.66 1048.4,-137.54"/>
</a>
</g>
</g>
<!-- Node36&#45;&gt;Node7 -->
<g id="edge65_Node000036_Node000007" class="edge">
<title>Node36&#45;&gt;Node7</title>
<g id="a_edge65_Node000036_Node000007"><a xlink:title=" ">
<path fill="none" stroke="#63b8ff" d="M540.84,-227.02C762.95,-222.09 1443.28,-205.32 1485.31,-184 1528.48,-162.11 1558.58,-110.69 1572.16,-83.34"/>
<polygon fill="#63b8ff" stroke="#63b8ff" points="1575.4,-84.68 1576.55,-74.15 1569.09,-81.66 1575.4,-84.68"/>
</a>
</g>
</g>
<!-- Node36&#45;&gt;Node11 -->
<g id="edge64_Node000036_Node000011" class="edge">
<title>Node36&#45;&gt;Node11</title>
<g id="a_edge64_Node000036_Node000011"><a xlink:title=" ">
<path fill="none" stroke="#63b8ff" d="M462.4,-219.75C454.53,-212.03 442.88,-200.6 433.39,-191.28"/>
<polygon fill="#63b8ff" stroke="#63b8ff" points="435.65,-188.6 426.06,-184.09 430.75,-193.59 435.65,-188.6"/>
</a>
</g>
</g>
<!-- Node36&#45;&gt;Node19 -->
<g id="edge66_Node000036_Node000019" class="edge">
<title>Node36&#45;&gt;Node19</title>
<g id="a_edge66_Node000036_Node000019"><a xlink:title=" ">
<path fill="none" stroke="#63b8ff" d="M490.43,-219.98C509.66,-211.42 539.55,-198.11 561.62,-188.28"/>
<polygon fill="#63b8ff" stroke="#63b8ff" points="563.14,-191.44 570.85,-184.17 560.29,-185.04 563.14,-191.44"/>
</a>
</g>
</g>
<!-- Node36&#45;&gt;Node30 -->
<g id="edge67_Node000036_Node000030" class="edge">
<title>Node36&#45;&gt;Node30</title>
<g id="a_edge67_Node000036_Node000030"><a xlink:title=" ">
<path fill="none" stroke="#63b8ff" d="M426.17,-219.98C376.61,-210.64 297.09,-195.64 244.28,-185.68"/>
<polygon fill="#63b8ff" stroke="#63b8ff" points="244.9,-182.23 234.42,-183.82 243.6,-189.11 244.9,-182.23"/>
</a>
</g>
</g>
</g>
</svg>
