<?xml version="1.0" encoding="UTF-8" standalone="no"?>
<!DOCTYPE svg PUBLIC "-//W3C//DTD SVG 1.1//EN"
 "http://www.w3.org/Graphics/SVG/1.1/DTD/svg11.dtd">
<!-- Generated by graphviz version 2.43.0 (0)
 -->
<!-- Title: /home/runner/work/R&#45;Type/R&#45;Type/Shared/systems/WaveSystem.cpp Pages: 1 -->
<svg width="2146pt" height="324pt"
 viewBox="0.00 0.00 2146.12 324.00" xmlns="http://www.w3.org/2000/svg" xmlns:xlink="http://www.w3.org/1999/xlink">
<g id="graph0" class="graph" transform="scale(1 1) rotate(0) translate(4 320)">
<title>/home/runner/work/R&#45;Type/R&#45;Type/Shared/systems/WaveSystem.cpp</title>
<!-- Node1 -->
<g id="Node000001" class="node">
<title>Node1</title>
<g id="a_Node000001"><a xlink:title=" ">
<polygon fill="#999999" stroke="#666666" points="1850.12,-316 1702.12,-316 1702.12,-275 1850.12,-275 1850.12,-316"/>
<text text-anchor="start" x="1710.12" y="-304" font-family="Helvetica,sans-Serif" font-size="10.00">/home/runner/work/R</text>
<text text-anchor="start" x="1710.12" y="-293" font-family="Helvetica,sans-Serif" font-size="10.00">&#45;Type/R&#45;Type/Shared</text>
<text text-anchor="middle" x="1776.12" y="-282" font-family="Helvetica,sans-Serif" font-size="10.00">/systems/WaveSystem.cpp</text>
</a>
</g>
</g>
<!-- Node2 -->
<g id="Node000002" class="node">
<title>Node2</title>
<g id="a_Node000002"><a xlink:href="WaveSystem_8hpp.html" target="_top" xlink:title=" ">
<polygon fill="white" stroke="#666666" points="1908.12,-239 1762.12,-239 1762.12,-220 1908.12,-220 1908.12,-239"/>
<text text-anchor="middle" x="1835.12" y="-227" font-family="Helvetica,sans-Serif" font-size="10.00">systems/WaveSystem.hpp</text>
</a>
</g>
</g>
<!-- Node1&#45;&gt;Node2 -->
<g id="edge1_Node000001_Node000002" class="edge">
<title>Node1&#45;&gt;Node2</title>
<g id="a_edge1_Node000001_Node000002"><a xlink:title=" ">
<path fill="none" stroke="#63b8ff" d="M1794.14,-274.95C1802.47,-265.92 1812.23,-255.33 1820.14,-246.75"/>
<polygon fill="#63b8ff" stroke="#63b8ff" points="1822.84,-248.99 1827.05,-239.26 1817.69,-244.24 1822.84,-248.99"/>
</a>
</g>
</g>
<!-- Node6 -->
<g id="Node000006" class="node">
<title>Node6</title>
<g id="a_Node000006"><a xlink:title=" ">
<polygon fill="#e0e0e0" stroke="#999999" points="226.12,-184 166.12,-184 166.12,-165 226.12,-165 226.12,-184"/>
<text text-anchor="middle" x="196.12" y="-172" font-family="Helvetica,sans-Serif" font-size="10.00">iostream</text>
</a>
</g>
</g>
<!-- Node1&#45;&gt;Node6 -->
<g id="edge5_Node000001_Node000006" class="edge">
<title>Node1&#45;&gt;Node6</title>
<g id="a_edge5_Node000001_Node000006"><a xlink:title=" ">
<path fill="none" stroke="#63b8ff" d="M1701.94,-292.95C1480.22,-287.5 803.27,-265.05 236.29,-183.96"/>
<polygon fill="#63b8ff" stroke="#63b8ff" points="236.67,-180.48 226.28,-182.52 235.68,-187.41 236.67,-180.48"/>
</a>
</g>
</g>
<!-- Node7 -->
<g id="Node000007" class="node">
<title>Node7</title>
<g id="a_Node000007"><a xlink:title=" ">
<polygon fill="#e0e0e0" stroke="#999999" points="1744.12,-239 1690.12,-239 1690.12,-220 1744.12,-220 1744.12,-239"/>
<text text-anchor="middle" x="1717.12" y="-227" font-family="Helvetica,sans-Serif" font-size="10.00">random</text>
</a>
</g>
</g>
<!-- Node1&#45;&gt;Node7 -->
<g id="edge6_Node000001_Node000007" class="edge">
<title>Node1&#45;&gt;Node7</title>
<g id="a_edge6_Node000001_Node000007"><a xlink:title=" ">
<path fill="none" stroke="#63b8ff" d="M1758.1,-274.95C1749.78,-265.92 1740.02,-255.33 1732.11,-246.75"/>
<polygon fill="#63b8ff" stroke="#63b8ff" points="1734.55,-244.24 1725.2,-239.26 1729.4,-248.99 1734.55,-244.24"/>
</a>
</g>
</g>
<!-- Node8 -->
<g id="Node000008" class="node">
<title>Node8</title>
<g id="a_Node000008"><a xlink:href="EntityHelper_8hpp.html" target="_top" xlink:title=" ">
<polygon fill="white" stroke="#666666" points="1146.12,-239 1008.12,-239 1008.12,-220 1146.12,-220 1146.12,-239"/>
<text text-anchor="middle" x="1077.12" y="-227" font-family="Helvetica,sans-Serif" font-size="10.00">Helpers/EntityHelper.hpp</text>
</a>
</g>
</g>
<!-- Node1&#45;&gt;Node8 -->
<g id="edge7_Node000001_Node000008" class="edge">
<title>Node1&#45;&gt;Node8</title>
<g id="a_edge7_Node000001_Node000008"><a xlink:title=" ">
<path fill="none" stroke="#63b8ff" d="M1701.98,-287.71C1569.46,-275.58 1293.09,-250.27 1156.72,-237.79"/>
<polygon fill="#63b8ff" stroke="#63b8ff" points="1156.63,-234.27 1146.36,-236.84 1155.99,-241.24 1156.63,-234.27"/>
</a>
</g>
</g>
<!-- Node30 -->
<g id="Node000030" class="node">
<title>Node30</title>
<g id="a_Node000030"><a xlink:href="Spawn_8hpp.html" target="_top" xlink:title=" ">
<polygon fill="white" stroke="#666666" points="2065.62,-239 1926.62,-239 1926.62,-220 2065.62,-220 2065.62,-239"/>
<text text-anchor="middle" x="1996.12" y="-227" font-family="Helvetica,sans-Serif" font-size="10.00">SpawnEnemy/Spawn.hpp</text>
</a>
</g>
</g>
<!-- Node1&#45;&gt;Node30 -->
<g id="edge51_Node000001_Node000030" class="edge">
<title>Node1&#45;&gt;Node30</title>
<g id="a_edge51_Node000001_Node000030"><a xlink:title=" ">
<path fill="none" stroke="#63b8ff" d="M1843.32,-274.95C1880.61,-264.1 1925.67,-251 1957.16,-241.84"/>
<polygon fill="#63b8ff" stroke="#63b8ff" points="1958.25,-245.16 1966.88,-239.01 1956.3,-238.44 1958.25,-245.16"/>
</a>
</g>
</g>
<!-- Node31 -->
<g id="Node000031" class="node">
<title>Node31</title>
<g id="a_Node000031"><a xlink:title=" ">
<polygon fill="#e0e0e0" stroke="#999999" points="2138.12,-184 2050.12,-184 2050.12,-165 2138.12,-165 2138.12,-184"/>
<text text-anchor="middle" x="2094.12" y="-172" font-family="Helvetica,sans-Serif" font-size="10.00">ecs/Zipper.hpp</text>
</a>
</g>
</g>
<!-- Node1&#45;&gt;Node31 -->
<g id="edge56_Node000001_Node000031" class="edge">
<title>Node1&#45;&gt;Node31</title>
<g id="a_edge56_Node000001_Node000031"><a xlink:title=" ">
<path fill="none" stroke="#63b8ff" d="M1850.32,-289.48C1927.87,-282.75 2042.72,-268.11 2075.12,-239 2087.55,-227.84 2091.99,-208.91 2093.51,-194.62"/>
<polygon fill="#63b8ff" stroke="#63b8ff" points="2097.02,-194.6 2094.2,-184.39 2090.04,-194.13 2097.02,-194.6"/>
</a>
</g>
</g>
<!-- Node3 -->
<g id="Node000003" class="node">
<title>Node3</title>
<g id="a_Node000003"><a xlink:href="Enemy_8hpp.html" target="_top" xlink:title=" ">
<polygon fill="white" stroke="#666666" points="1590.12,-129 1486.12,-129 1486.12,-110 1590.12,-110 1590.12,-129"/>
<text text-anchor="middle" x="1538.12" y="-117" font-family="Helvetica,sans-Serif" font-size="10.00">Player/Enemy.hpp</text>
</a>
</g>
</g>
<!-- Node2&#45;&gt;Node3 -->
<g id="edge2_Node000002_Node000003" class="edge">
<title>Node2&#45;&gt;Node3</title>
<g id="a_edge2_Node000002_Node000003"><a xlink:title=" ">
<path fill="none" stroke="#63b8ff" d="M1829.67,-219.88C1820.34,-205.91 1799.88,-178.52 1775.12,-165 1720.8,-135.35 1650.2,-125.1 1600.22,-121.74"/>
<polygon fill="#63b8ff" stroke="#63b8ff" points="1600.39,-118.24 1590.2,-121.14 1599.97,-125.23 1600.39,-118.24"/>
</a>
</g>
</g>
<!-- Node5 -->
<g id="Node000005" class="node">
<title>Node5</title>
<g id="a_Node000005"><a xlink:title=" ">
<polygon fill="#e0e0e0" stroke="#999999" points="1994.12,-184 1898.12,-184 1898.12,-165 1994.12,-165 1994.12,-184"/>
<text text-anchor="middle" x="1946.12" y="-172" font-family="Helvetica,sans-Serif" font-size="10.00">ecs/Registry.hpp</text>
</a>
</g>
</g>
<!-- Node2&#45;&gt;Node5 -->
<g id="edge4_Node000002_Node000005" class="edge">
<title>Node2&#45;&gt;Node5</title>
<g id="a_edge4_Node000002_Node000005"><a xlink:title=" ">
<path fill="none" stroke="#63b8ff" d="M1852.96,-219.98C1870.73,-211.5 1898.27,-198.35 1918.8,-188.54"/>
<polygon fill="#63b8ff" stroke="#63b8ff" points="1920.45,-191.64 1927.96,-184.17 1917.43,-185.32 1920.45,-191.64"/>
</a>
</g>
</g>
<!-- Node4 -->
<g id="Node000004" class="node">
<title>Node4</title>
<g id="a_Node000004"><a xlink:title=" ">
<polygon fill="#e0e0e0" stroke="#999999" points="981.12,-19 853.12,-19 853.12,0 981.12,0 981.12,-19"/>
<text text-anchor="middle" x="917.12" y="-7" font-family="Helvetica,sans-Serif" font-size="10.00">physics/Physics2D.hpp</text>
</a>
</g>
</g>
<!-- Node3&#45;&gt;Node4 -->
<g id="edge3_Node000003_Node000004" class="edge">
<title>Node3&#45;&gt;Node4</title>
<g id="a_edge3_Node000003_Node000004"><a xlink:title=" ">
<path fill="none" stroke="#63b8ff" d="M1489.13,-109.98C1376.17,-90.34 1097.81,-41.92 975.9,-20.72"/>
<polygon fill="#63b8ff" stroke="#63b8ff" points="976.45,-17.27 966,-19 975.25,-24.16 976.45,-17.27"/>
</a>
</g>
</g>
<!-- Node8&#45;&gt;Node3 -->
<g id="edge16_Node000008_Node000003" class="edge">
<title>Node8&#45;&gt;Node3</title>
<g id="a_edge16_Node000008_Node000003"><a xlink:title=" ">
<path fill="none" stroke="#63b8ff" d="M1146.33,-225.72C1263.5,-220.4 1491.02,-207.2 1519.12,-184 1532.15,-173.25 1536.48,-153.95 1537.81,-139.44"/>
<polygon fill="#63b8ff" stroke="#63b8ff" points="1541.32,-139.26 1538.34,-129.09 1534.33,-138.9 1541.32,-139.26"/>
</a>
</g>
</g>
<!-- Node8&#45;&gt;Node4 -->
<g id="edge48_Node000008_Node000004" class="edge">
<title>Node8&#45;&gt;Node4</title>
<g id="a_edge48_Node000008_Node000004"><a xlink:title=" ">
<path fill="none" stroke="#63b8ff" d="M1146.32,-226.72C1321.33,-221.88 1769.25,-207.28 1791.12,-184 1796.9,-177.85 1792.59,-173.32 1791.12,-165 1786.61,-139.38 1791.53,-126.13 1771.12,-110 1710.44,-62.02 1188.09,-26.5 991.52,-14.73"/>
<polygon fill="#63b8ff" stroke="#63b8ff" points="991.47,-11.22 981.28,-14.12 991.06,-18.2 991.47,-11.22"/>
</a>
</g>
</g>
<!-- Node8&#45;&gt;Node5 -->
<g id="edge46_Node000008_Node000005" class="edge">
<title>Node8&#45;&gt;Node5</title>
<g id="a_edge46_Node000008_Node000005"><a xlink:title=" ">
<path fill="none" stroke="#63b8ff" d="M1146.36,-225.12C1281.14,-218.4 1588.18,-202.42 1846.12,-184 1859.63,-183.04 1874.14,-181.87 1887.82,-180.72"/>
<polygon fill="#63b8ff" stroke="#63b8ff" points="1888.41,-184.19 1898.08,-179.85 1887.81,-177.21 1888.41,-184.19"/>
</a>
</g>
</g>
<!-- Node8&#45;&gt;Node6 -->
<g id="edge8_Node000008_Node000006" class="edge">
<title>Node8&#45;&gt;Node6</title>
<g id="a_edge8_Node000008_Node000006"><a xlink:title=" ">
<path fill="none" stroke="#63b8ff" d="M1008.01,-228.62C865.35,-228.05 527.89,-222.47 236.19,-183.9"/>
<polygon fill="#63b8ff" stroke="#63b8ff" points="236.65,-180.43 226.27,-182.58 235.72,-187.37 236.65,-180.43"/>
</a>
</g>
</g>
<!-- Node9 -->
<g id="Node000009" class="node">
<title>Node9</title>
<g id="a_Node000009"><a xlink:title=" ">
<polygon fill="#e0e0e0" stroke="#999999" points="1610.12,-184 1566.12,-184 1566.12,-165 1610.12,-165 1610.12,-184"/>
<text text-anchor="middle" x="1588.12" y="-172" font-family="Helvetica,sans-Serif" font-size="10.00">string</text>
</a>
</g>
</g>
<!-- Node8&#45;&gt;Node9 -->
<g id="edge9_Node000008_Node000009" class="edge">
<title>Node8&#45;&gt;Node9</title>
<g id="a_edge9_Node000008_Node000009"><a xlink:title=" ">
<path fill="none" stroke="#63b8ff" d="M1146.33,-225.03C1239.16,-219.68 1408.88,-207.5 1552.12,-184 1553.37,-183.8 1554.64,-183.57 1555.92,-183.33"/>
<polygon fill="#63b8ff" stroke="#63b8ff" points="1556.67,-186.75 1565.75,-181.29 1555.25,-179.9 1556.67,-186.75"/>
</a>
</g>
</g>
<!-- Node10 -->
<g id="Node000010" class="node">
<title>Node10</title>
<g id="a_Node000010"><a xlink:title=" ">
<polygon fill="#e0e0e0" stroke="#999999" points="1761.62,-129 1716.62,-129 1716.62,-110 1761.62,-110 1761.62,-129"/>
<text text-anchor="middle" x="1739.12" y="-117" font-family="Helvetica,sans-Serif" font-size="10.00">utility</text>
</a>
</g>
</g>
<!-- Node8&#45;&gt;Node10 -->
<g id="edge10_Node000008_Node000010" class="edge">
<title>Node8&#45;&gt;Node10</title>
<g id="a_edge10_Node000008_Node000010"><a xlink:title=" ">
<path fill="none" stroke="#63b8ff" d="M1146.34,-226.62C1318.52,-221.59 1753.82,-206.71 1775.12,-184 1788.44,-169.81 1772.82,-149.79 1758.2,-136.05"/>
<polygon fill="#63b8ff" stroke="#63b8ff" points="1760.18,-133.13 1750.36,-129.13 1755.54,-138.38 1760.18,-133.13"/>
</a>
</g>
</g>
<!-- Node11 -->
<g id="Node000011" class="node">
<title>Node11</title>
<g id="a_Node000011"><a xlink:title=" ">
<polygon fill="#e0e0e0" stroke="#999999" points="1030.62,-129 983.62,-129 983.62,-110 1030.62,-110 1030.62,-129"/>
<text text-anchor="middle" x="1007.12" y="-117" font-family="Helvetica,sans-Serif" font-size="10.00">vector</text>
</a>
</g>
</g>
<!-- Node8&#45;&gt;Node11 -->
<g id="edge11_Node000008_Node000011" class="edge">
<title>Node8&#45;&gt;Node11</title>
<g id="a_edge11_Node000008_Node000011"><a xlink:title=" ">
<path fill="none" stroke="#63b8ff" d="M1020.45,-220C980.02,-212.63 930.68,-200.56 918.12,-184 899.25,-159.13 941.37,-140 973.9,-129.51"/>
<polygon fill="#63b8ff" stroke="#63b8ff" points="975.07,-132.81 983.61,-126.53 973.02,-126.12 975.07,-132.81"/>
</a>
</g>
</g>
<!-- Node12 -->
<g id="Node000012" class="node">
<title>Node12</title>
<g id="a_Node000012"><a xlink:href="Items_8hpp.html" target="_top" xlink:title=" ">
<polygon fill="white" stroke="#666666" points="607.12,-184 497.12,-184 497.12,-165 607.12,-165 607.12,-184"/>
<text text-anchor="middle" x="552.12" y="-172" font-family="Helvetica,sans-Serif" font-size="10.00">Collision/Items.hpp</text>
</a>
</g>
</g>
<!-- Node8&#45;&gt;Node12 -->
<g id="edge12_Node000008_Node000012" class="edge">
<title>Node8&#45;&gt;Node12</title>
<g id="a_edge12_Node000008_Node000012"><a xlink:title=" ">
<path fill="none" stroke="#63b8ff" d="M1007.92,-222.3C918.52,-214.15 758.1,-199.12 621.12,-184 620.01,-183.88 618.89,-183.75 617.77,-183.63"/>
<polygon fill="#63b8ff" stroke="#63b8ff" points="617.8,-180.11 607.47,-182.44 617,-187.06 617.8,-180.11"/>
</a>
</g>
</g>
<!-- Node13 -->
<g id="Node000013" class="node">
<title>Node13</title>
<g id="a_Node000013"><a xlink:href="Boss_8hpp.html" target="_top" xlink:title=" ">
<polygon fill="white" stroke="#666666" points="852.62,-129 757.62,-129 757.62,-110 852.62,-110 852.62,-129"/>
<text text-anchor="middle" x="805.12" y="-117" font-family="Helvetica,sans-Serif" font-size="10.00">Player/Boss.hpp</text>
</a>
</g>
</g>
<!-- Node8&#45;&gt;Node13 -->
<g id="edge13_Node000008_Node000013" class="edge">
<title>Node8&#45;&gt;Node13</title>
<g id="a_edge13_Node000008_Node000013"><a xlink:title=" ">
<path fill="none" stroke="#63b8ff" d="M1007.91,-224.46C911.94,-218.15 748.15,-204.49 730.12,-184 712.58,-164.06 744.09,-144.9 771.5,-132.93"/>
<polygon fill="#63b8ff" stroke="#63b8ff" points="773.04,-136.08 780.93,-129.01 770.35,-129.62 773.04,-136.08"/>
</a>
</g>
</g>
<!-- Node15 -->
<g id="Node000015" class="node">
<title>Node15</title>
<g id="a_Node000015"><a xlink:href="EnemySpawn_8hpp.html" target="_top" xlink:title=" ">
<polygon fill="white" stroke="#666666" points="1765.62,-184 1628.62,-184 1628.62,-165 1765.62,-165 1765.62,-184"/>
<text text-anchor="middle" x="1697.12" y="-172" font-family="Helvetica,sans-Serif" font-size="10.00">Player/EnemySpawn.hpp</text>
</a>
</g>
</g>
<!-- Node8&#45;&gt;Node15 -->
<g id="edge17_Node000008_Node000015" class="edge">
<title>Node8&#45;&gt;Node15</title>
<g id="a_edge17_Node000008_Node000015"><a xlink:title=" ">
<path fill="none" stroke="#63b8ff" d="M1146.48,-223.4C1247.7,-215.82 1442.09,-200.78 1618.26,-184.06"/>
<polygon fill="#63b8ff" stroke="#63b8ff" points="1618.61,-187.54 1628.23,-183.11 1617.94,-180.57 1618.61,-187.54"/>
</a>
</g>
</g>
<!-- Node16 -->
<g id="Node000016" class="node">
<title>Node16</title>
<g id="a_Node000016"><a xlink:href="PlayerEntity_8hpp.html" target="_top" xlink:title=" ">
<polygon fill="white" stroke="#666666" points="373.62,-184 244.62,-184 244.62,-165 373.62,-165 373.62,-184"/>
<text text-anchor="middle" x="309.12" y="-172" font-family="Helvetica,sans-Serif" font-size="10.00">Player/PlayerEntity.hpp</text>
</a>
</g>
</g>
<!-- Node8&#45;&gt;Node16 -->
<g id="edge21_Node000008_Node000016" class="edge">
<title>Node8&#45;&gt;Node16</title>
<g id="a_edge21_Node000008_Node000016"><a xlink:title=" ">
<path fill="none" stroke="#63b8ff" d="M1007.85,-224.3C886.5,-216.86 627.59,-200.56 409.12,-184 400.88,-183.38 392.26,-182.69 383.68,-181.99"/>
<polygon fill="#63b8ff" stroke="#63b8ff" points="383.91,-178.5 373.66,-181.16 383.34,-185.47 383.91,-178.5"/>
</a>
</g>
</g>
<!-- Node20 -->
<g id="Node000020" class="node">
<title>Node20</title>
<g id="a_Node000020"><a xlink:href="Projectile_8hpp.html" target="_top" xlink:title=" ">
<polygon fill="white" stroke="#666666" points="513.12,-74 333.12,-74 333.12,-55 513.12,-55 513.12,-74"/>
<text text-anchor="middle" x="423.12" y="-62" font-family="Helvetica,sans-Serif" font-size="10.00">components/Player/Projectile.hpp</text>
</a>
</g>
</g>
<!-- Node8&#45;&gt;Node20 -->
<g id="edge29_Node000008_Node000020" class="edge">
<title>Node8&#45;&gt;Node20</title>
<g id="a_edge29_Node000008_Node000020"><a xlink:title=" ">
<path fill="none" stroke="#63b8ff" d="M1007.9,-226.29C862.16,-221.19 533.35,-207.25 488.12,-184 449.97,-164.39 433.16,-112.36 426.67,-84.21"/>
<polygon fill="#63b8ff" stroke="#63b8ff" points="430.02,-83.15 424.54,-74.08 423.17,-84.59 430.02,-83.15"/>
</a>
</g>
</g>
<!-- Node21 -->
<g id="Node000021" class="node">
<title>Node21</title>
<g id="a_Node000021"><a xlink:href="BossPart_8hpp.html" target="_top" xlink:title=" ">
<polygon fill="white" stroke="#666666" points="594.62,-129 451.62,-129 451.62,-110 594.62,-110 594.62,-129"/>
<text text-anchor="middle" x="523.12" y="-117" font-family="Helvetica,sans-Serif" font-size="10.00">components/BossPart.hpp</text>
</a>
</g>
</g>
<!-- Node8&#45;&gt;Node21 -->
<g id="edge30_Node000008_Node000021" class="edge">
<title>Node8&#45;&gt;Node21</title>
<g id="a_edge30_Node000008_Node000021"><a xlink:title=" ">
<path fill="none" stroke="#63b8ff" d="M1007.98,-225.25C931.17,-220.53 803.91,-209.37 697.12,-184 644.16,-171.42 585.15,-147.71 551.26,-133.09"/>
<polygon fill="#63b8ff" stroke="#63b8ff" points="552.55,-129.83 541.98,-129.05 549.75,-136.25 552.55,-129.83"/>
</a>
</g>
</g>
<!-- Node22 -->
<g id="Node000022" class="node">
<title>Node22</title>
<g id="a_Node000022"><a xlink:href="Force_8hpp.html" target="_top" xlink:title=" ">
<polygon fill="white" stroke="#666666" points="739.62,-129 612.62,-129 612.62,-110 739.62,-110 739.62,-129"/>
<text text-anchor="middle" x="676.12" y="-117" font-family="Helvetica,sans-Serif" font-size="10.00">components/Force.hpp</text>
</a>
</g>
</g>
<!-- Node8&#45;&gt;Node22 -->
<g id="edge33_Node000008_Node000022" class="edge">
<title>Node8&#45;&gt;Node22</title>
<g id="a_edge33_Node000008_Node000022"><a xlink:title=" ">
<path fill="none" stroke="#63b8ff" d="M1007.95,-226.41C918.36,-222.6 768.09,-212.11 721.12,-184 703.6,-173.51 691.08,-153.28 683.77,-138.46"/>
<polygon fill="#63b8ff" stroke="#63b8ff" points="686.89,-136.88 679.54,-129.25 680.53,-139.8 686.89,-136.88"/>
</a>
</g>
</g>
<!-- Node23 -->
<g id="Node000023" class="node">
<title>Node23</title>
<g id="a_Node000023"><a xlink:href="Levels_8hpp.html" target="_top" xlink:title=" ">
<polygon fill="white" stroke="#666666" points="871.12,-184 739.12,-184 739.12,-165 871.12,-165 871.12,-184"/>
<text text-anchor="middle" x="805.12" y="-172" font-family="Helvetica,sans-Serif" font-size="10.00">components/Levels.hpp</text>
</a>
</g>
</g>
<!-- Node8&#45;&gt;Node23 -->
<g id="edge36_Node000008_Node000023" class="edge">
<title>Node8&#45;&gt;Node23</title>
<g id="a_edge36_Node000008_Node000023"><a xlink:title=" ">
<path fill="none" stroke="#63b8ff" d="M1033.42,-219.98C985.98,-210.74 910.15,-195.97 859.04,-186.01"/>
<polygon fill="#63b8ff" stroke="#63b8ff" points="859.65,-182.56 849.17,-184.08 858.31,-189.43 859.65,-182.56"/>
</a>
</g>
</g>
<!-- Node25 -->
<g id="Node000025" class="node">
<title>Node25</title>
<g id="a_Node000025"><a xlink:href="TileMap_8hpp.html" target="_top" xlink:title=" ">
<polygon fill="white" stroke="#666666" points="1067.12,-184 927.12,-184 927.12,-165 1067.12,-165 1067.12,-184"/>
<text text-anchor="middle" x="997.12" y="-172" font-family="Helvetica,sans-Serif" font-size="10.00">components/TileMap.hpp</text>
</a>
</g>
</g>
<!-- Node8&#45;&gt;Node25 -->
<g id="edge42_Node000008_Node000025" class="edge">
<title>Node8&#45;&gt;Node25</title>
<g id="a_edge42_Node000008_Node000025"><a xlink:title=" ">
<path fill="none" stroke="#63b8ff" d="M1064.27,-219.98C1051.98,-211.84 1033.22,-199.41 1018.64,-189.76"/>
<polygon fill="#63b8ff" stroke="#63b8ff" points="1020.48,-186.78 1010.21,-184.17 1016.61,-192.61 1020.48,-186.78"/>
</a>
</g>
</g>
<!-- Node27 -->
<g id="Node000027" class="node">
<title>Node27</title>
<g id="a_Node000027"><a xlink:title=" ">
<polygon fill="#e0e0e0" stroke="#999999" points="1229.12,-184 1085.12,-184 1085.12,-165 1229.12,-165 1229.12,-184"/>
<text text-anchor="middle" x="1157.12" y="-172" font-family="Helvetica,sans-Serif" font-size="10.00">input/InputSubsystem.hpp</text>
</a>
</g>
</g>
<!-- Node8&#45;&gt;Node27 -->
<g id="edge47_Node000008_Node000027" class="edge">
<title>Node8&#45;&gt;Node27</title>
<g id="a_edge47_Node000008_Node000027"><a xlink:title=" ">
<path fill="none" stroke="#63b8ff" d="M1089.98,-219.98C1102.27,-211.84 1121.03,-199.41 1135.6,-189.76"/>
<polygon fill="#63b8ff" stroke="#63b8ff" points="1137.63,-192.61 1144.03,-184.17 1133.77,-186.78 1137.63,-192.61"/>
</a>
</g>
</g>
<!-- Node28 -->
<g id="Node000028" class="node">
<title>Node28</title>
<g id="a_Node000028"><a xlink:title=" ">
<polygon fill="#e0e0e0" stroke="#999999" points="1438.62,-184 1247.62,-184 1247.62,-165 1438.62,-165 1438.62,-184"/>
<text text-anchor="middle" x="1343.12" y="-172" font-family="Helvetica,sans-Serif" font-size="10.00">rendering/RenderingSubsystem.hpp</text>
</a>
</g>
</g>
<!-- Node8&#45;&gt;Node28 -->
<g id="edge49_Node000008_Node000028" class="edge">
<title>Node8&#45;&gt;Node28</title>
<g id="a_edge49_Node000008_Node000028"><a xlink:title=" ">
<path fill="none" stroke="#63b8ff" d="M1119.86,-219.98C1166.16,-210.76 1240.1,-196.03 1290.08,-186.07"/>
<polygon fill="#63b8ff" stroke="#63b8ff" points="1290.93,-189.47 1300.05,-184.08 1289.56,-182.6 1290.93,-189.47"/>
</a>
</g>
</g>
<!-- Node29 -->
<g id="Node000029" class="node">
<title>Node29</title>
<g id="a_Node000029"><a xlink:title=" ">
<polygon fill="#e0e0e0" stroke="#999999" points="1509.62,-184 1456.62,-184 1456.62,-165 1509.62,-165 1509.62,-184"/>
<text text-anchor="middle" x="1483.12" y="-172" font-family="Helvetica,sans-Serif" font-size="10.00">stdlib.h</text>
</a>
</g>
</g>
<!-- Node8&#45;&gt;Node29 -->
<g id="edge50_Node000008_Node000029" class="edge">
<title>Node8&#45;&gt;Node29</title>
<g id="a_edge50_Node000008_Node000029"><a xlink:title=" ">
<path fill="none" stroke="#63b8ff" d="M1146.21,-222.69C1218.8,-216.02 1336.45,-203.65 1446.5,-184.11"/>
<polygon fill="#63b8ff" stroke="#63b8ff" points="1447.22,-187.54 1456.44,-182.33 1445.98,-180.65 1447.22,-187.54"/>
</a>
</g>
</g>
<!-- Node13&#45;&gt;Node4 -->
<g id="edge14_Node000013_Node000004" class="edge">
<title>Node13&#45;&gt;Node4</title>
<g id="a_edge14_Node000013_Node000004"><a xlink:title=" ">
<path fill="none" stroke="#63b8ff" d="M814.29,-109.66C833.25,-91.38 877.01,-49.18 900.88,-26.17"/>
<polygon fill="#63b8ff" stroke="#63b8ff" points="903.37,-28.62 908.14,-19.16 898.52,-23.58 903.37,-28.62"/>
</a>
</g>
</g>
<!-- Node14 -->
<g id="Node000014" class="node">
<title>Node14</title>
<g id="a_Node000014"><a xlink:title=" ">
<polygon fill="#e0e0e0" stroke="#999999" points="686.12,-74 602.12,-74 602.12,-55 686.12,-55 686.12,-74"/>
<text text-anchor="middle" x="644.12" y="-62" font-family="Helvetica,sans-Serif" font-size="10.00">ecs/Entity.hpp</text>
</a>
</g>
</g>
<!-- Node13&#45;&gt;Node14 -->
<g id="edge15_Node000013_Node000014" class="edge">
<title>Node13&#45;&gt;Node14</title>
<g id="a_edge15_Node000013_Node000014"><a xlink:title=" ">
<path fill="none" stroke="#63b8ff" d="M779.25,-109.98C752.34,-101.13 710,-87.19 679.89,-77.28"/>
<polygon fill="#63b8ff" stroke="#63b8ff" points="680.79,-73.88 670.19,-74.08 678.6,-80.53 680.79,-73.88"/>
</a>
</g>
</g>
<!-- Node15&#45;&gt;Node3 -->
<g id="edge20_Node000015_Node000003" class="edge">
<title>Node15&#45;&gt;Node3</title>
<g id="a_edge20_Node000015_Node000003"><a xlink:title=" ">
<path fill="none" stroke="#63b8ff" d="M1671.58,-164.98C1645,-156.13 1603.18,-142.19 1573.45,-132.28"/>
<polygon fill="#63b8ff" stroke="#63b8ff" points="1574.46,-128.92 1563.87,-129.08 1572.25,-135.56 1574.46,-128.92"/>
</a>
</g>
</g>
<!-- Node15&#45;&gt;Node10 -->
<g id="edge18_Node000015_Node000010" class="edge">
<title>Node15&#45;&gt;Node10</title>
<g id="a_edge18_Node000015_Node000010"><a xlink:title=" ">
<path fill="none" stroke="#63b8ff" d="M1704.06,-164.75C1709.99,-157.26 1718.69,-146.28 1725.95,-137.13"/>
<polygon fill="#63b8ff" stroke="#63b8ff" points="1728.85,-139.1 1732.32,-129.09 1723.36,-134.75 1728.85,-139.1"/>
</a>
</g>
</g>
<!-- Node15&#45;&gt;Node11 -->
<g id="edge19_Node000015_Node000011" class="edge">
<title>Node15&#45;&gt;Node11</title>
<g id="a_edge19_Node000015_Node000011"><a xlink:title=" ">
<path fill="none" stroke="#63b8ff" d="M1628.23,-165.83C1625.16,-165.54 1622.11,-165.26 1619.12,-165 1379.07,-143.94 1318.06,-151.33 1078.12,-129 1066.01,-127.87 1052.76,-126.36 1041.03,-124.93"/>
<polygon fill="#63b8ff" stroke="#63b8ff" points="1041.11,-121.41 1030.76,-123.65 1040.24,-128.36 1041.11,-121.41"/>
</a>
</g>
</g>
<!-- Node16&#45;&gt;Node4 -->
<g id="edge28_Node000016_Node000004" class="edge">
<title>Node16&#45;&gt;Node4</title>
<g id="a_edge28_Node000016_Node000004"><a xlink:title=" ">
<path fill="none" stroke="#63b8ff" d="M244.37,-165.12C156.01,-153.54 8.04,-133.53 4.12,-129 -1.4,-122.61 -1.32,-116.46 4.12,-110 57.9,-46.19 634.24,-20.21 842.55,-12.85"/>
<polygon fill="#63b8ff" stroke="#63b8ff" points="842.91,-16.34 852.78,-12.5 842.66,-9.35 842.91,-16.34"/>
</a>
</g>
</g>
<!-- Node17 -->
<g id="Node000017" class="node">
<title>Node17</title>
<g id="a_Node000017"><a xlink:title=" ">
<polygon fill="#e0e0e0" stroke="#999999" points="77.12,-129 13.12,-129 13.12,-110 77.12,-110 77.12,-129"/>
<text text-anchor="middle" x="45.12" y="-117" font-family="Helvetica,sans-Serif" font-size="10.00">algorithm</text>
</a>
</g>
</g>
<!-- Node16&#45;&gt;Node17 -->
<g id="edge22_Node000016_Node000017" class="edge">
<title>Node16&#45;&gt;Node17</title>
<g id="a_edge22_Node000016_Node000017"><a xlink:title=" ">
<path fill="none" stroke="#63b8ff" d="M265.94,-164.98C223.11,-156.51 155.33,-143.05 87.37,-129.24"/>
<polygon fill="#63b8ff" stroke="#63b8ff" points="87.84,-125.77 77.35,-127.2 86.45,-132.63 87.84,-125.77"/>
</a>
</g>
</g>
<!-- Node18 -->
<g id="Node000018" class="node">
<title>Node18</title>
<g id="a_Node000018"><a xlink:href="CollisionController_8hpp.html" target="_top" xlink:title=" ">
<polygon fill="white" stroke="#666666" points="395.12,-129 223.12,-129 223.12,-110 395.12,-110 395.12,-129"/>
<text text-anchor="middle" x="309.12" y="-117" font-family="Helvetica,sans-Serif" font-size="10.00">Collision/CollisionController.hpp</text>
</a>
</g>
</g>
<!-- Node16&#45;&gt;Node18 -->
<g id="edge23_Node000016_Node000018" class="edge">
<title>Node16&#45;&gt;Node18</title>
<g id="a_edge23_Node000016_Node000018"><a xlink:title=" ">
<path fill="none" stroke="#63b8ff" d="M309.12,-164.75C309.12,-157.8 309.12,-147.85 309.12,-139.13"/>
<polygon fill="#63b8ff" stroke="#63b8ff" points="312.62,-139.09 309.12,-129.09 305.62,-139.09 312.62,-139.09"/>
</a>
</g>
</g>
<!-- Node19 -->
<g id="Node000019" class="node">
<title>Node19</title>
<g id="a_Node000019"><a xlink:href="Weapon_8hpp.html" target="_top" xlink:title=" ">
<polygon fill="white" stroke="#666666" points="205.12,-129 95.12,-129 95.12,-110 205.12,-110 205.12,-129"/>
<text text-anchor="middle" x="150.12" y="-117" font-family="Helvetica,sans-Serif" font-size="10.00">Player/Weapon.hpp</text>
</a>
</g>
</g>
<!-- Node16&#45;&gt;Node19 -->
<g id="edge25_Node000016_Node000019" class="edge">
<title>Node16&#45;&gt;Node19</title>
<g id="a_edge25_Node000016_Node000019"><a xlink:title=" ">
<path fill="none" stroke="#63b8ff" d="M283.58,-164.98C257,-156.13 215.18,-142.19 185.45,-132.28"/>
<polygon fill="#63b8ff" stroke="#63b8ff" points="186.46,-128.92 175.87,-129.08 184.25,-135.56 186.46,-128.92"/>
</a>
</g>
</g>
<!-- Node18&#45;&gt;Node14 -->
<g id="edge24_Node000018_Node000014" class="edge">
<title>Node18&#45;&gt;Node14</title>
<g id="a_edge24_Node000018_Node000014"><a xlink:title=" ">
<path fill="none" stroke="#63b8ff" d="M362.95,-109.98C426.02,-100.01 529.81,-83.59 592.09,-73.73"/>
<polygon fill="#63b8ff" stroke="#63b8ff" points="592.77,-77.17 602.1,-72.15 591.67,-70.25 592.77,-77.17"/>
</a>
</g>
</g>
<!-- Node19&#45;&gt;Node20 -->
<g id="edge26_Node000019_Node000020" class="edge">
<title>Node19&#45;&gt;Node20</title>
<g id="a_edge26_Node000019_Node000020"><a xlink:title=" ">
<path fill="none" stroke="#63b8ff" d="M193.98,-109.98C241.6,-100.74 317.7,-85.97 369,-76.01"/>
<polygon fill="#63b8ff" stroke="#63b8ff" points="369.77,-79.42 378.92,-74.08 368.43,-72.55 369.77,-79.42"/>
</a>
</g>
</g>
<!-- Node20&#45;&gt;Node4 -->
<g id="edge27_Node000020_Node000004" class="edge">
<title>Node20&#45;&gt;Node4</title>
<g id="a_edge27_Node000020_Node000004"><a xlink:title=" ">
<path fill="none" stroke="#63b8ff" d="M502.49,-54.98C596.34,-44.92 751.32,-28.29 842.88,-18.47"/>
<polygon fill="#63b8ff" stroke="#63b8ff" points="843.33,-21.94 852.9,-17.39 842.58,-14.98 843.33,-21.94"/>
</a>
</g>
</g>
<!-- Node21&#45;&gt;Node4 -->
<g id="edge31_Node000021_Node000004" class="edge">
<title>Node21&#45;&gt;Node4</title>
<g id="a_edge31_Node000021_Node000004"><a xlink:title=" ">
<path fill="none" stroke="#63b8ff" d="M529.76,-109.75C541.05,-95.58 565.47,-67.91 593.12,-55 636.11,-34.94 761.03,-22.11 842.6,-15.61"/>
<polygon fill="#63b8ff" stroke="#63b8ff" points="843.12,-19.08 852.82,-14.82 842.58,-12.11 843.12,-19.08"/>
</a>
</g>
</g>
<!-- Node21&#45;&gt;Node14 -->
<g id="edge32_Node000021_Node000014" class="edge">
<title>Node21&#45;&gt;Node14</title>
<g id="a_edge32_Node000021_Node000014"><a xlink:title=" ">
<path fill="none" stroke="#63b8ff" d="M542.56,-109.98C562.12,-101.42 592.5,-88.11 614.95,-78.28"/>
<polygon fill="#63b8ff" stroke="#63b8ff" points="616.57,-81.39 624.33,-74.17 613.76,-74.98 616.57,-81.39"/>
</a>
</g>
</g>
<!-- Node22&#45;&gt;Node4 -->
<g id="edge35_Node000022_Node000004" class="edge">
<title>Node22&#45;&gt;Node4</title>
<g id="a_edge35_Node000022_Node000004"><a xlink:title=" ">
<path fill="none" stroke="#63b8ff" d="M695.44,-109.84C737.85,-90.84 839.27,-45.39 888.86,-23.17"/>
<polygon fill="#63b8ff" stroke="#63b8ff" points="890.36,-26.33 898.05,-19.05 887.49,-19.94 890.36,-26.33"/>
</a>
</g>
</g>
<!-- Node22&#45;&gt;Node14 -->
<g id="edge34_Node000022_Node000014" class="edge">
<title>Node22&#45;&gt;Node14</title>
<g id="a_edge34_Node000022_Node000014"><a xlink:title=" ">
<path fill="none" stroke="#63b8ff" d="M670.84,-109.75C666.41,-102.42 659.96,-91.73 654.5,-82.7"/>
<polygon fill="#63b8ff" stroke="#63b8ff" points="657.47,-80.84 649.31,-74.09 651.48,-84.46 657.47,-80.84"/>
</a>
</g>
</g>
<!-- Node23&#45;&gt;Node3 -->
<g id="edge40_Node000023_Node000003" class="edge">
<title>Node23&#45;&gt;Node3</title>
<g id="a_edge40_Node000023_Node000003"><a xlink:title=" ">
<path fill="none" stroke="#63b8ff" d="M871.15,-168.5C886.56,-167.34 902.92,-166.12 918.12,-165 1122.16,-150 1364.02,-132.81 1475.78,-124.9"/>
<polygon fill="#63b8ff" stroke="#63b8ff" points="1476.13,-128.39 1485.86,-124.19 1475.64,-121.4 1476.13,-128.39"/>
</a>
</g>
</g>
<!-- Node23&#45;&gt;Node4 -->
<g id="edge41_Node000023_Node000004" class="edge">
<title>Node23&#45;&gt;Node4</title>
<g id="a_edge41_Node000023_Node000004"><a xlink:title=" ">
<path fill="none" stroke="#63b8ff" d="M871.39,-167.06C895.81,-161.09 921.15,-149.89 936.12,-129 957.77,-98.78 940.02,-53.12 927.26,-28.23"/>
<polygon fill="#63b8ff" stroke="#63b8ff" points="930.23,-26.35 922.4,-19.21 924.07,-29.68 930.23,-26.35"/>
</a>
</g>
</g>
<!-- Node23&#45;&gt;Node11 -->
<g id="edge38_Node000023_Node000011" class="edge">
<title>Node23&#45;&gt;Node11</title>
<g id="a_edge38_Node000023_Node000011"><a xlink:title=" ">
<path fill="none" stroke="#63b8ff" d="M837.58,-164.98C874.89,-155.2 935.83,-139.21 973.59,-129.3"/>
<polygon fill="#63b8ff" stroke="#63b8ff" points="974.8,-132.6 983.58,-126.68 973.02,-125.83 974.8,-132.6"/>
</a>
</g>
</g>
<!-- Node23&#45;&gt;Node13 -->
<g id="edge39_Node000023_Node000013" class="edge">
<title>Node23&#45;&gt;Node13</title>
<g id="a_edge39_Node000023_Node000013"><a xlink:title=" ">
<path fill="none" stroke="#63b8ff" d="M805.12,-164.75C805.12,-157.8 805.12,-147.85 805.12,-139.13"/>
<polygon fill="#63b8ff" stroke="#63b8ff" points="808.62,-139.09 805.12,-129.09 801.62,-139.09 808.62,-139.09"/>
</a>
</g>
</g>
<!-- Node24 -->
<g id="Node000024" class="node">
<title>Node24</title>
<g id="a_Node000024"><a xlink:title=" ">
<polygon fill="#e0e0e0" stroke="#999999" points="927.12,-129 871.12,-129 871.12,-110 927.12,-110 927.12,-129"/>
<text text-anchor="middle" x="899.12" y="-117" font-family="Helvetica,sans-Serif" font-size="10.00">optional</text>
</a>
</g>
</g>
<!-- Node23&#45;&gt;Node24 -->
<g id="edge37_Node000023_Node000024" class="edge">
<title>Node23&#45;&gt;Node24</title>
<g id="a_edge37_Node000023_Node000024"><a xlink:title=" ">
<path fill="none" stroke="#63b8ff" d="M820.22,-164.98C834.94,-156.69 857.55,-143.94 874.8,-134.22"/>
<polygon fill="#63b8ff" stroke="#63b8ff" points="876.75,-137.13 883.74,-129.17 873.31,-131.03 876.75,-137.13"/>
</a>
</g>
</g>
<!-- Node25&#45;&gt;Node4 -->
<g id="edge45_Node000025_Node000004" class="edge">
<title>Node25&#45;&gt;Node4</title>
<g id="a_edge45_Node000025_Node000004"><a xlink:title=" ">
<path fill="none" stroke="#63b8ff" d="M1010.05,-164.97C1026.11,-153.23 1050.22,-131.15 1040.12,-110 1020.59,-69.07 975.08,-39.54 945.23,-23.74"/>
<polygon fill="#63b8ff" stroke="#63b8ff" points="946.64,-20.53 936.14,-19.09 943.45,-26.76 946.64,-20.53"/>
</a>
</g>
</g>
<!-- Node25&#45;&gt;Node11 -->
<g id="edge44_Node000025_Node000011" class="edge">
<title>Node25&#45;&gt;Node11</title>
<g id="a_edge44_Node000025_Node000011"><a xlink:title=" ">
<path fill="none" stroke="#63b8ff" d="M998.77,-164.75C1000.08,-157.8 1001.96,-147.85 1003.61,-139.13"/>
<polygon fill="#63b8ff" stroke="#63b8ff" points="1007.09,-139.56 1005.5,-129.09 1000.21,-138.27 1007.09,-139.56"/>
</a>
</g>
</g>
<!-- Node26 -->
<g id="Node000026" class="node">
<title>Node26</title>
<g id="a_Node000026"><a xlink:title=" ">
<polygon fill="#e0e0e0" stroke="#999999" points="1137.12,-129 1087.12,-129 1087.12,-110 1137.12,-110 1137.12,-129"/>
<text text-anchor="middle" x="1112.12" y="-117" font-family="Helvetica,sans-Serif" font-size="10.00">cstdint</text>
</a>
</g>
</g>
<!-- Node25&#45;&gt;Node26 -->
<g id="edge43_Node000025_Node000026" class="edge">
<title>Node25&#45;&gt;Node26</title>
<g id="a_edge43_Node000025_Node000026"><a xlink:title=" ">
<path fill="none" stroke="#63b8ff" d="M1015.6,-164.98C1034.1,-156.46 1062.8,-143.23 1084.11,-133.41"/>
<polygon fill="#63b8ff" stroke="#63b8ff" points="1085.69,-136.53 1093.31,-129.17 1082.76,-130.18 1085.69,-136.53"/>
</a>
</g>
</g>
<!-- Node30&#45;&gt;Node4 -->
<g id="edge53_Node000030_Node000004" class="edge">
<title>Node30&#45;&gt;Node4</title>
<g id="a_edge53_Node000030_Node000004"><a xlink:title=" ">
<path fill="none" stroke="#63b8ff" d="M2000.63,-219.65C2006.72,-206.33 2015.46,-180.98 2003.12,-165 1884.91,-11.94 1773.01,-86.04 1582.12,-55 1369.67,-20.45 1114.84,-12.62 991.4,-10.91"/>
<polygon fill="#63b8ff" stroke="#63b8ff" points="991.35,-7.41 981.31,-10.78 991.26,-14.41 991.35,-7.41"/>
</a>
</g>
</g>
<!-- Node30&#45;&gt;Node5 -->
<g id="edge54_Node000030_Node000005" class="edge">
<title>Node30&#45;&gt;Node5</title>
<g id="a_edge54_Node000030_Node000005"><a xlink:title=" ">
<path fill="none" stroke="#63b8ff" d="M1987.87,-219.75C1980.66,-212.11 1970.01,-200.82 1961.28,-191.56"/>
<polygon fill="#63b8ff" stroke="#63b8ff" points="1963.63,-188.96 1954.22,-184.09 1958.54,-193.76 1963.63,-188.96"/>
</a>
</g>
</g>
<!-- Node30&#45;&gt;Node15 -->
<g id="edge52_Node000030_Node000015" class="edge">
<title>Node30&#45;&gt;Node15</title>
<g id="a_edge52_Node000030_Node000015"><a xlink:title=" ">
<path fill="none" stroke="#63b8ff" d="M1948.08,-219.98C1895.71,-210.7 1811.89,-195.84 1755.69,-185.88"/>
<polygon fill="#63b8ff" stroke="#63b8ff" points="1756,-182.38 1745.54,-184.08 1754.77,-189.27 1756,-182.38"/>
</a>
</g>
</g>
<!-- Node30&#45;&gt;Node31 -->
<g id="edge55_Node000030_Node000031" class="edge">
<title>Node30&#45;&gt;Node31</title>
<g id="a_edge55_Node000030_Node000031"><a xlink:title=" ">
<path fill="none" stroke="#63b8ff" d="M2011.87,-219.98C2027.35,-211.61 2051.21,-198.7 2069.26,-188.95"/>
<polygon fill="#63b8ff" stroke="#63b8ff" points="2070.96,-192.01 2078.09,-184.17 2067.63,-185.85 2070.96,-192.01"/>
</a>
</g>
</g>
</g>
</svg>
