<?xml version="1.0" encoding="UTF-8" standalone="no"?>
<!DOCTYPE svg PUBLIC "-//W3C//DTD SVG 1.1//EN"
 "http://www.w3.org/Graphics/SVG/1.1/DTD/svg11.dtd">
<!-- Generated by graphviz version 2.43.0 (0)
 -->
<!-- Title: /home/runner/work/R&#45;Type/R&#45;Type/Shared/systems/WeaponSystem.cpp Pages: 1 -->
<svg width="459pt" height="269pt"
 viewBox="0.00 0.00 458.50 269.00" xmlns="http://www.w3.org/2000/svg" xmlns:xlink="http://www.w3.org/1999/xlink">
<g id="graph0" class="graph" transform="scale(1 1) rotate(0) translate(4 265)">
<title>/home/runner/work/R&#45;Type/R&#45;Type/Shared/systems/WeaponSystem.cpp</title>
<!-- Node1 -->
<g id="Node000001" class="node">
<title>Node1</title>
<g id="a_Node000001"><a xlink:title=" ">
<polygon fill="#999999" stroke="#666666" points="304.5,-261 144.5,-261 144.5,-220 304.5,-220 304.5,-261"/>
<text text-anchor="start" x="152.5" y="-249" font-family="Helvetica,sans-Serif" font-size="10.00">/home/runner/work/R</text>
<text text-anchor="start" x="152.5" y="-238" font-family="Helvetica,sans-Serif" font-size="10.00">&#45;Type/R&#45;Type/Shared</text>
<text text-anchor="middle" x="224.5" y="-227" font-family="Helvetica,sans-Serif" font-size="10.00">/systems/WeaponSystem.cpp</text>
</a>
</g>
</g>
<!-- Node2 -->
<g id="Node000002" class="node">
<title>Node2</title>
<g id="a_Node000002"><a xlink:href="WeaponSystem_8hpp.html" target="_top" xlink:title=" ">
<polygon fill="white" stroke="#666666" points="162.5,-184 4.5,-184 4.5,-165 162.5,-165 162.5,-184"/>
<text text-anchor="middle" x="83.5" y="-172" font-family="Helvetica,sans-Serif" font-size="10.00">systems/WeaponSystem.hpp</text>
</a>
</g>
</g>
<!-- Node1&#45;&gt;Node2 -->
<g id="edge1_Node000001_Node000002" class="edge">
<title>Node1&#45;&gt;Node2</title>
<g id="a_edge1_Node000001_Node000002"><a xlink:title=" ">
<path fill="none" stroke="#63b8ff" d="M181.43,-219.95C158.74,-209.65 131.56,-197.31 111.6,-188.25"/>
<polygon fill="#63b8ff" stroke="#63b8ff" points="112.98,-185.04 102.43,-184.09 110.09,-191.41 112.98,-185.04"/>
</a>
</g>
</g>
<!-- Node7 -->
<g id="Node000007" class="node">
<title>Node7</title>
<g id="a_Node000007"><a xlink:title=" ">
<polygon fill="#e0e0e0" stroke="#999999" points="268.5,-184 180.5,-184 180.5,-165 268.5,-165 268.5,-184"/>
<text text-anchor="middle" x="224.5" y="-172" font-family="Helvetica,sans-Serif" font-size="10.00">ecs/Zipper.hpp</text>
</a>
</g>
</g>
<!-- Node1&#45;&gt;Node7 -->
<g id="edge6_Node000001_Node000007" class="edge">
<title>Node1&#45;&gt;Node7</title>
<g id="a_edge6_Node000001_Node000007"><a xlink:title=" ">
<path fill="none" stroke="#63b8ff" d="M224.5,-219.95C224.5,-211.85 224.5,-202.5 224.5,-194.47"/>
<polygon fill="#63b8ff" stroke="#63b8ff" points="228,-194.26 224.5,-184.26 221,-194.26 228,-194.26"/>
</a>
</g>
</g>
<!-- Node8 -->
<g id="Node000008" class="node">
<title>Node8</title>
<g id="a_Node000008"><a xlink:href="ProjectileSystem_8hpp.html" target="_top" xlink:title=" ">
<polygon fill="white" stroke="#666666" points="450.5,-184 286.5,-184 286.5,-165 450.5,-165 450.5,-184"/>
<text text-anchor="middle" x="368.5" y="-172" font-family="Helvetica,sans-Serif" font-size="10.00">systems/ProjectileSystem.hpp</text>
</a>
</g>
</g>
<!-- Node1&#45;&gt;Node8 -->
<g id="edge7_Node000001_Node000008" class="edge">
<title>Node1&#45;&gt;Node8</title>
<g id="a_edge7_Node000001_Node000008"><a xlink:title=" ">
<path fill="none" stroke="#63b8ff" d="M268.49,-219.95C291.66,-209.65 319.42,-197.31 339.8,-188.25"/>
<polygon fill="#63b8ff" stroke="#63b8ff" points="341.45,-191.35 349.17,-184.09 338.61,-184.95 341.45,-191.35"/>
</a>
</g>
</g>
<!-- Node3 -->
<g id="Node000003" class="node">
<title>Node3</title>
<g id="a_Node000003"><a xlink:href="Weapon_8hpp.html" target="_top" xlink:title=" ">
<polygon fill="white" stroke="#666666" points="173,-129 0,-129 0,-110 173,-110 173,-129"/>
<text text-anchor="middle" x="86.5" y="-117" font-family="Helvetica,sans-Serif" font-size="10.00">components/Player/Weapon.hpp</text>
</a>
</g>
</g>
<!-- Node2&#45;&gt;Node3 -->
<g id="edge2_Node000002_Node000003" class="edge">
<title>Node2&#45;&gt;Node3</title>
<g id="a_edge2_Node000002_Node000003"><a xlink:title=" ">
<path fill="none" stroke="#63b8ff" d="M84,-164.75C84.39,-157.8 84.95,-147.85 85.45,-139.13"/>
<polygon fill="#63b8ff" stroke="#63b8ff" points="88.94,-139.27 86.01,-129.09 81.95,-138.88 88.94,-139.27"/>
</a>
</g>
</g>
<!-- Node6 -->
<g id="Node000006" class="node">
<title>Node6</title>
<g id="a_Node000006"><a xlink:title=" ">
<polygon fill="#e0e0e0" stroke="#999999" points="296.5,-129 200.5,-129 200.5,-110 296.5,-110 296.5,-129"/>
<text text-anchor="middle" x="248.5" y="-117" font-family="Helvetica,sans-Serif" font-size="10.00">ecs/Registry.hpp</text>
</a>
</g>
</g>
<!-- Node2&#45;&gt;Node6 -->
<g id="edge5_Node000002_Node000006" class="edge">
<title>Node2&#45;&gt;Node6</title>
<g id="a_edge5_Node000002_Node000006"><a xlink:title=" ">
<path fill="none" stroke="#63b8ff" d="M110.01,-164.98C137.71,-156.09 181.36,-142.07 212.24,-132.15"/>
<polygon fill="#63b8ff" stroke="#63b8ff" points="213.33,-135.47 221.78,-129.08 211.19,-128.81 213.33,-135.47"/>
</a>
</g>
</g>
<!-- Node4 -->
<g id="Node000004" class="node">
<title>Node4</title>
<g id="a_Node000004"><a xlink:href="Projectile_8hpp.html" target="_top" xlink:title=" ">
<polygon fill="white" stroke="#666666" points="340.5,-74 160.5,-74 160.5,-55 340.5,-55 340.5,-74"/>
<text text-anchor="middle" x="250.5" y="-62" font-family="Helvetica,sans-Serif" font-size="10.00">components/Player/Projectile.hpp</text>
</a>
</g>
</g>
<!-- Node3&#45;&gt;Node4 -->
<g id="edge3_Node000003_Node000004" class="edge">
<title>Node3&#45;&gt;Node4</title>
<g id="a_edge3_Node000003_Node000004"><a xlink:title=" ">
<path fill="none" stroke="#63b8ff" d="M112.85,-109.98C140.26,-101.13 183.39,-87.19 214.06,-77.28"/>
<polygon fill="#63b8ff" stroke="#63b8ff" points="215.5,-80.49 223.94,-74.08 213.35,-73.83 215.5,-80.49"/>
</a>
</g>
</g>
<!-- Node5 -->
<g id="Node000005" class="node">
<title>Node5</title>
<g id="a_Node000005"><a xlink:title=" ">
<polygon fill="#e0e0e0" stroke="#999999" points="373.5,-19 245.5,-19 245.5,0 373.5,0 373.5,-19"/>
<text text-anchor="middle" x="309.5" y="-7" font-family="Helvetica,sans-Serif" font-size="10.00">physics/Physics2D.hpp</text>
</a>
</g>
</g>
<!-- Node4&#45;&gt;Node5 -->
<g id="edge4_Node000004_Node000005" class="edge">
<title>Node4&#45;&gt;Node5</title>
<g id="a_edge4_Node000004_Node000005"><a xlink:title=" ">
<path fill="none" stroke="#63b8ff" d="M259.98,-54.98C268.7,-47.15 281.84,-35.34 292.4,-25.86"/>
<polygon fill="#63b8ff" stroke="#63b8ff" points="294.75,-28.46 299.85,-19.17 290.07,-23.25 294.75,-28.46"/>
</a>
</g>
</g>
<!-- Node8&#45;&gt;Node4 -->
<g id="edge9_Node000008_Node000004" class="edge">
<title>Node8&#45;&gt;Node4</title>
<g id="a_edge9_Node000008_Node000004"><a xlink:title=" ">
<path fill="none" stroke="#63b8ff" d="M360.62,-164.99C348.96,-152.52 326.24,-128.74 305.5,-110 293.99,-99.6 280.46,-88.64 269.7,-80.19"/>
<polygon fill="#63b8ff" stroke="#63b8ff" points="271.8,-77.39 261.75,-74.02 267.5,-82.92 271.8,-77.39"/>
</a>
</g>
</g>
<!-- Node8&#45;&gt;Node5 -->
<g id="edge8_Node000008_Node000005" class="edge">
<title>Node8&#45;&gt;Node5</title>
<g id="a_edge8_Node000008_Node000005"><a xlink:title=" ">
<path fill="none" stroke="#63b8ff" d="M368.74,-164.98C368.98,-144.8 367.64,-92.98 349.5,-55 344.33,-44.17 335.68,-34.06 327.75,-26.22"/>
<polygon fill="#63b8ff" stroke="#63b8ff" points="329.91,-23.45 320.21,-19.19 325.14,-28.57 329.91,-23.45"/>
</a>
</g>
</g>
<!-- Node8&#45;&gt;Node6 -->
<g id="edge10_Node000008_Node000006" class="edge">
<title>Node8&#45;&gt;Node6</title>
<g id="a_edge10_Node000008_Node000006"><a xlink:title=" ">
<path fill="none" stroke="#63b8ff" d="M349.22,-164.98C329.83,-156.42 299.69,-143.11 277.43,-133.28"/>
<polygon fill="#63b8ff" stroke="#63b8ff" points="278.69,-130.01 268.13,-129.17 275.86,-136.41 278.69,-130.01"/>
</a>
</g>
</g>
</g>
</svg>
