<?xml version="1.0" encoding="UTF-8" standalone="no"?>
<!DOCTYPE svg PUBLIC "-//W3C//DTD SVG 1.1//EN"
 "http://www.w3.org/Graphics/SVG/1.1/DTD/svg11.dtd">
<!-- Generated by graphviz version 2.43.0 (0)
 -->
<!-- Title: /home/runner/work/R&#45;Type/R&#45;Type/Shared/systems/WeaponSystem.cpp Pages: 1 -->
<svg width="1239pt" height="324pt"
 viewBox="0.00 0.00 1238.50 324.00" xmlns="http://www.w3.org/2000/svg" xmlns:xlink="http://www.w3.org/1999/xlink">
<g id="graph0" class="graph" transform="scale(1 1) rotate(0) translate(4 320)">
<title>/home/runner/work/R&#45;Type/R&#45;Type/Shared/systems/WeaponSystem.cpp</title>
<!-- Node1 -->
<g id="Node000001" class="node">
<title>Node1</title>
<g id="a_Node000001"><a xlink:title=" ">
<polygon fill="#999999" stroke="#666666" points="532,-316 372,-316 372,-275 532,-275 532,-316"/>
<text text-anchor="start" x="380" y="-304" font-family="Helvetica,sans-Serif" font-size="10.00">/home/runner/work/R</text>
<text text-anchor="start" x="380" y="-293" font-family="Helvetica,sans-Serif" font-size="10.00">&#45;Type/R&#45;Type/Shared</text>
<text text-anchor="middle" x="452" y="-282" font-family="Helvetica,sans-Serif" font-size="10.00">/systems/WeaponSystem.cpp</text>
</a>
</g>
</g>
<!-- Node2 -->
<g id="Node000002" class="node">
<title>Node2</title>
<g id="a_Node000002"><a xlink:href="WeaponSystem_8hpp.html" target="_top" xlink:title=" ">
<polygon fill="white" stroke="#666666" points="531,-239 373,-239 373,-220 531,-220 531,-239"/>
<text text-anchor="middle" x="452" y="-227" font-family="Helvetica,sans-Serif" font-size="10.00">systems/WeaponSystem.hpp</text>
</a>
</g>
</g>
<!-- Node1&#45;&gt;Node2 -->
<g id="edge1_Node000001_Node000002" class="edge">
<title>Node1&#45;&gt;Node2</title>
<g id="a_edge1_Node000001_Node000002"><a xlink:title=" ">
<path fill="none" stroke="#63b8ff" d="M452,-274.95C452,-266.85 452,-257.5 452,-249.47"/>
<polygon fill="#63b8ff" stroke="#63b8ff" points="455.5,-249.26 452,-239.26 448.5,-249.26 455.5,-249.26"/>
</a>
</g>
</g>
<!-- Node23 -->
<g id="Node000023" class="node">
<title>Node23</title>
<g id="a_Node000023"><a xlink:href="Zipper_8hpp.html" target="_top" xlink:title=" ">
<polygon fill="white" stroke="#666666" points="1145,-184 1057,-184 1057,-165 1145,-165 1145,-184"/>
<text text-anchor="middle" x="1101" y="-172" font-family="Helvetica,sans-Serif" font-size="10.00">ecs/Zipper.hpp</text>
</a>
</g>
</g>
<!-- Node1&#45;&gt;Node23 -->
<g id="edge24_Node000001_Node000023" class="edge">
<title>Node1&#45;&gt;Node23</title>
<g id="a_edge24_Node000001_Node000023"><a xlink:title=" ">
<path fill="none" stroke="#63b8ff" d="M532.23,-279.79C666.38,-255.19 932.74,-206.35 1046.95,-185.41"/>
<polygon fill="#63b8ff" stroke="#63b8ff" points="1047.66,-188.84 1056.86,-183.59 1046.4,-181.95 1047.66,-188.84"/>
</a>
</g>
</g>
<!-- Node25 -->
<g id="Node000025" class="node">
<title>Node25</title>
<g id="a_Node000025"><a xlink:href="ProjectileSystem_8hpp.html" target="_top" xlink:title=" ">
<polygon fill="white" stroke="#666666" points="286,-239 122,-239 122,-220 286,-220 286,-239"/>
<text text-anchor="middle" x="204" y="-227" font-family="Helvetica,sans-Serif" font-size="10.00">systems/ProjectileSystem.hpp</text>
</a>
</g>
</g>
<!-- Node1&#45;&gt;Node25 -->
<g id="edge30_Node000001_Node000025" class="edge">
<title>Node1&#45;&gt;Node25</title>
<g id="a_edge30_Node000001_Node000025"><a xlink:title=" ">
<path fill="none" stroke="#63b8ff" d="M376.24,-274.95C333.85,-264.01 282.54,-250.77 247.01,-241.6"/>
<polygon fill="#63b8ff" stroke="#63b8ff" points="247.53,-238.12 236.97,-239.01 245.78,-244.9 247.53,-238.12"/>
</a>
</g>
</g>
<!-- Node3 -->
<g id="Node000003" class="node">
<title>Node3</title>
<g id="a_Node000003"><a xlink:href="Weapon_8hpp.html" target="_top" xlink:title=" ">
<polygon fill="white" stroke="#666666" points="462.5,-184 289.5,-184 289.5,-165 462.5,-165 462.5,-184"/>
<text text-anchor="middle" x="376" y="-172" font-family="Helvetica,sans-Serif" font-size="10.00">components/Player/Weapon.hpp</text>
</a>
</g>
</g>
<!-- Node2&#45;&gt;Node3 -->
<g id="edge2_Node000002_Node000003" class="edge">
<title>Node2&#45;&gt;Node3</title>
<g id="a_edge2_Node000002_Node000003"><a xlink:title=" ">
<path fill="none" stroke="#63b8ff" d="M439.79,-219.98C428.22,-211.92 410.62,-199.65 396.84,-190.03"/>
<polygon fill="#63b8ff" stroke="#63b8ff" points="398.64,-187.02 388.43,-184.17 394.63,-192.76 398.64,-187.02"/>
</a>
</g>
</g>
<!-- Node8 -->
<g id="Node000008" class="node">
<title>Node8</title>
<g id="a_Node000008"><a xlink:href="Registry_8hpp.html" target="_top" xlink:title=" ">
<polygon fill="white" stroke="#666666" points="704,-184 608,-184 608,-165 704,-165 704,-184"/>
<text text-anchor="middle" x="656" y="-172" font-family="Helvetica,sans-Serif" font-size="10.00">ecs/Registry.hpp</text>
</a>
</g>
</g>
<!-- Node2&#45;&gt;Node8 -->
<g id="edge7_Node000002_Node000008" class="edge">
<title>Node2&#45;&gt;Node8</title>
<g id="a_edge7_Node000002_Node000008"><a xlink:title=" ">
<path fill="none" stroke="#63b8ff" d="M484.78,-219.98C519.62,-210.93 574.87,-196.58 613.14,-186.64"/>
<polygon fill="#63b8ff" stroke="#63b8ff" points="614.17,-189.98 622.97,-184.08 612.41,-183.21 614.17,-189.98"/>
</a>
</g>
</g>
<!-- Node4 -->
<g id="Node000004" class="node">
<title>Node4</title>
<g id="a_Node000004"><a xlink:href="Projectile_8hpp.html" target="_top" xlink:title=" ">
<polygon fill="white" stroke="#666666" points="224,-129 44,-129 44,-110 224,-110 224,-129"/>
<text text-anchor="middle" x="134" y="-117" font-family="Helvetica,sans-Serif" font-size="10.00">components/Player/Projectile.hpp</text>
</a>
</g>
</g>
<!-- Node3&#45;&gt;Node4 -->
<g id="edge3_Node000003_Node000004" class="edge">
<title>Node3&#45;&gt;Node4</title>
<g id="a_edge3_Node000003_Node000004"><a xlink:title=" ">
<path fill="none" stroke="#63b8ff" d="M337.12,-164.98C295.26,-155.82 228.57,-141.21 183.12,-131.26"/>
<polygon fill="#63b8ff" stroke="#63b8ff" points="183.7,-127.8 173.19,-129.08 182.21,-134.64 183.7,-127.8"/>
</a>
</g>
</g>
<!-- Node5 -->
<g id="Node000005" class="node">
<title>Node5</title>
<g id="a_Node000005"><a xlink:href="Physics2D_8hpp.html" target="_top" xlink:title=" ">
<polygon fill="white" stroke="#666666" points="123.5,-74 26.5,-74 26.5,-55 123.5,-55 123.5,-74"/>
<text text-anchor="middle" x="75" y="-62" font-family="Helvetica,sans-Serif" font-size="10.00">../Physics2D.hpp</text>
</a>
</g>
</g>
<!-- Node4&#45;&gt;Node5 -->
<g id="edge4_Node000004_Node000005" class="edge">
<title>Node4&#45;&gt;Node5</title>
<g id="a_edge4_Node000004_Node000005"><a xlink:title=" ">
<path fill="none" stroke="#63b8ff" d="M124.52,-109.98C115.8,-102.15 102.66,-90.34 92.1,-80.86"/>
<polygon fill="#63b8ff" stroke="#63b8ff" points="94.43,-78.25 84.65,-74.17 89.75,-83.46 94.43,-78.25"/>
</a>
</g>
</g>
<!-- Node6 -->
<g id="Node000006" class="node">
<title>Node6</title>
<g id="a_Node000006"><a xlink:title=" ">
<polygon fill="#e0e0e0" stroke="#999999" points="72,-19 0,-19 0,0 72,0 72,-19"/>
<text text-anchor="middle" x="36" y="-7" font-family="Helvetica,sans-Serif" font-size="10.00">SDL2/SDL.h</text>
</a>
</g>
</g>
<!-- Node5&#45;&gt;Node6 -->
<g id="edge5_Node000005_Node000006" class="edge">
<title>Node5&#45;&gt;Node6</title>
<g id="a_edge5_Node000005_Node000006"><a xlink:title=" ">
<path fill="none" stroke="#63b8ff" d="M68.56,-54.75C63.11,-47.34 55.14,-36.5 48.44,-27.41"/>
<polygon fill="#63b8ff" stroke="#63b8ff" points="51.07,-25.07 42.32,-19.09 45.43,-29.22 51.07,-25.07"/>
</a>
</g>
</g>
<!-- Node7 -->
<g id="Node000007" class="node">
<title>Node7</title>
<g id="a_Node000007"><a xlink:title=" ">
<polygon fill="#e0e0e0" stroke="#999999" points="137.5,-19 90.5,-19 90.5,0 137.5,0 137.5,-19"/>
<text text-anchor="middle" x="114" y="-7" font-family="Helvetica,sans-Serif" font-size="10.00">cmath</text>
</a>
</g>
</g>
<!-- Node5&#45;&gt;Node7 -->
<g id="edge6_Node000005_Node000007" class="edge">
<title>Node5&#45;&gt;Node7</title>
<g id="a_edge6_Node000005_Node000007"><a xlink:title=" ">
<path fill="none" stroke="#63b8ff" d="M81.44,-54.75C86.89,-47.34 94.86,-36.5 101.56,-27.41"/>
<polygon fill="#63b8ff" stroke="#63b8ff" points="104.57,-29.22 107.68,-19.09 98.93,-25.07 104.57,-29.22"/>
</a>
</g>
</g>
<!-- Node9 -->
<g id="Node000009" class="node">
<title>Node9</title>
<g id="a_Node000009"><a xlink:title=" ">
<polygon fill="#e0e0e0" stroke="#999999" points="1133,-129 1069,-129 1069,-110 1133,-110 1133,-129"/>
<text text-anchor="middle" x="1101" y="-117" font-family="Helvetica,sans-Serif" font-size="10.00">algorithm</text>
</a>
</g>
</g>
<!-- Node8&#45;&gt;Node9 -->
<g id="edge8_Node000008_Node000009" class="edge">
<title>Node8&#45;&gt;Node9</title>
<g id="a_edge8_Node000008_Node000009"><a xlink:title=" ">
<path fill="none" stroke="#63b8ff" d="M704.08,-169.69C778.14,-163.49 924.73,-149.94 1058.78,-129.05"/>
<polygon fill="#63b8ff" stroke="#63b8ff" points="1059.49,-132.48 1068.82,-127.47 1058.4,-125.57 1059.49,-132.48"/>
</a>
</g>
</g>
<!-- Node10 -->
<g id="Node000010" class="node">
<title>Node10</title>
<g id="a_Node000010"><a xlink:title=" ">
<polygon fill="#e0e0e0" stroke="#999999" points="766.5,-129 731.5,-129 731.5,-110 766.5,-110 766.5,-129"/>
<text text-anchor="middle" x="749" y="-117" font-family="Helvetica,sans-Serif" font-size="10.00">any</text>
</a>
</g>
</g>
<!-- Node8&#45;&gt;Node10 -->
<g id="edge9_Node000008_Node000010" class="edge">
<title>Node8&#45;&gt;Node10</title>
<g id="a_edge9_Node000008_Node000010"><a xlink:title=" ">
<path fill="none" stroke="#63b8ff" d="M670.94,-164.98C685.5,-156.69 707.87,-143.94 724.93,-134.22"/>
<polygon fill="#63b8ff" stroke="#63b8ff" points="726.83,-137.16 733.79,-129.17 723.36,-131.08 726.83,-137.16"/>
</a>
</g>
</g>
<!-- Node11 -->
<g id="Node000011" class="node">
<title>Node11</title>
<g id="a_Node000011"><a xlink:title=" ">
<polygon fill="#e0e0e0" stroke="#999999" points="1050.5,-129 985.5,-129 985.5,-110 1050.5,-110 1050.5,-129"/>
<text text-anchor="middle" x="1018" y="-117" font-family="Helvetica,sans-Serif" font-size="10.00">functional</text>
</a>
</g>
</g>
<!-- Node8&#45;&gt;Node11 -->
<g id="edge10_Node000008_Node000011" class="edge">
<title>Node8&#45;&gt;Node11</title>
<g id="a_edge10_Node000008_Node000011"><a xlink:title=" ">
<path fill="none" stroke="#63b8ff" d="M704.12,-167.29C765.98,-159.17 876.67,-144.19 971,-129 972.46,-128.77 973.94,-128.52 975.44,-128.27"/>
<polygon fill="#63b8ff" stroke="#63b8ff" points="976.15,-131.7 985.41,-126.56 974.96,-124.8 976.15,-131.7"/>
</a>
</g>
</g>
<!-- Node12 -->
<g id="Node000012" class="node">
<title>Node12</title>
<g id="a_Node000012"><a xlink:title=" ">
<polygon fill="#e0e0e0" stroke="#999999" points="845,-129 785,-129 785,-110 845,-110 845,-129"/>
<text text-anchor="middle" x="815" y="-117" font-family="Helvetica,sans-Serif" font-size="10.00">iostream</text>
</a>
</g>
</g>
<!-- Node8&#45;&gt;Node12 -->
<g id="edge11_Node000008_Node000012" class="edge">
<title>Node8&#45;&gt;Node12</title>
<g id="a_edge11_Node000008_Node000012"><a xlink:title=" ">
<path fill="none" stroke="#63b8ff" d="M681.55,-164.98C708.12,-156.13 749.94,-142.19 779.67,-132.28"/>
<polygon fill="#63b8ff" stroke="#63b8ff" points="780.87,-135.56 789.25,-129.08 778.66,-128.92 780.87,-135.56"/>
</a>
</g>
</g>
<!-- Node13 -->
<g id="Node000013" class="node">
<title>Node13</title>
<g id="a_Node000013"><a xlink:title=" ">
<polygon fill="#e0e0e0" stroke="#999999" points="928.5,-129 863.5,-129 863.5,-110 928.5,-110 928.5,-129"/>
<text text-anchor="middle" x="896" y="-117" font-family="Helvetica,sans-Serif" font-size="10.00">typeindex</text>
</a>
</g>
</g>
<!-- Node8&#45;&gt;Node13 -->
<g id="edge12_Node000008_Node000013" class="edge">
<title>Node8&#45;&gt;Node13</title>
<g id="a_edge12_Node000008_Node000013"><a xlink:title=" ">
<path fill="none" stroke="#63b8ff" d="M694.56,-164.98C737.95,-155.4 808.25,-139.88 853.28,-129.93"/>
<polygon fill="#63b8ff" stroke="#63b8ff" points="854.31,-133.29 863.32,-127.72 852.8,-126.46 854.31,-133.29"/>
</a>
</g>
</g>
<!-- Node14 -->
<g id="Node000014" class="node">
<title>Node14</title>
<g id="a_Node000014"><a xlink:title=" ">
<polygon fill="#e0e0e0" stroke="#999999" points="335.5,-129 242.5,-129 242.5,-110 335.5,-110 335.5,-129"/>
<text text-anchor="middle" x="289" y="-117" font-family="Helvetica,sans-Serif" font-size="10.00">unordered_map</text>
</a>
</g>
</g>
<!-- Node8&#45;&gt;Node14 -->
<g id="edge13_Node000008_Node000014" class="edge">
<title>Node8&#45;&gt;Node14</title>
<g id="a_edge13_Node000008_Node000014"><a xlink:title=" ">
<path fill="none" stroke="#63b8ff" d="M607.77,-166.73C548.58,-158.39 444.9,-143.69 345.65,-129.08"/>
<polygon fill="#63b8ff" stroke="#63b8ff" points="346.15,-125.62 335.75,-127.63 345.13,-132.55 346.15,-125.62"/>
</a>
</g>
</g>
<!-- Node15 -->
<g id="Node000015" class="node">
<title>Node15</title>
<g id="a_Node000015"><a xlink:title=" ">
<polygon fill="#e0e0e0" stroke="#999999" points="440,-129 354,-129 354,-110 440,-110 440,-129"/>
<text text-anchor="middle" x="397" y="-117" font-family="Helvetica,sans-Serif" font-size="10.00">unordered_set</text>
</a>
</g>
</g>
<!-- Node8&#45;&gt;Node15 -->
<g id="edge14_Node000008_Node000015" class="edge">
<title>Node8&#45;&gt;Node15</title>
<g id="a_edge14_Node000008_Node000015"><a xlink:title=" ">
<path fill="none" stroke="#63b8ff" d="M614.39,-164.98C569.4,-155.78 497.61,-141.09 448.95,-131.13"/>
<polygon fill="#63b8ff" stroke="#63b8ff" points="449.44,-127.66 438.94,-129.08 448.03,-134.52 449.44,-127.66"/>
</a>
</g>
</g>
<!-- Node16 -->
<g id="Node000016" class="node">
<title>Node16</title>
<g id="a_Node000016"><a xlink:title=" ">
<polygon fill="#e0e0e0" stroke="#999999" points="979.5,-74 934.5,-74 934.5,-55 979.5,-55 979.5,-74"/>
<text text-anchor="middle" x="957" y="-62" font-family="Helvetica,sans-Serif" font-size="10.00">utility</text>
</a>
</g>
</g>
<!-- Node8&#45;&gt;Node16 -->
<g id="edge15_Node000008_Node000016" class="edge">
<title>Node8&#45;&gt;Node16</title>
<g id="a_edge15_Node000008_Node000016"><a xlink:title=" ">
<path fill="none" stroke="#63b8ff" d="M704.26,-171.95C775.48,-168.68 903.99,-158.72 938,-129 950.58,-118.01 955,-99.06 956.47,-84.71"/>
<polygon fill="#63b8ff" stroke="#63b8ff" points="959.98,-84.64 957.12,-74.44 953,-84.2 959.98,-84.64"/>
</a>
</g>
</g>
<!-- Node17 -->
<g id="Node000017" class="node">
<title>Node17</title>
<g id="a_Node000017"><a xlink:title=" ">
<polygon fill="#e0e0e0" stroke="#999999" points="597.5,-74 550.5,-74 550.5,-55 597.5,-55 597.5,-74"/>
<text text-anchor="middle" x="574" y="-62" font-family="Helvetica,sans-Serif" font-size="10.00">vector</text>
</a>
</g>
</g>
<!-- Node8&#45;&gt;Node17 -->
<g id="edge16_Node000008_Node000017" class="edge">
<title>Node8&#45;&gt;Node17</title>
<g id="a_edge16_Node000008_Node000017"><a xlink:title=" ">
<path fill="none" stroke="#63b8ff" d="M635.35,-164.88C620.25,-157.52 600.49,-145.5 589,-129 579.8,-115.78 576.19,-97.66 574.8,-84.16"/>
<polygon fill="#63b8ff" stroke="#63b8ff" points="578.29,-83.83 574.08,-74.11 571.3,-84.33 578.29,-83.83"/>
</a>
</g>
</g>
<!-- Node18 -->
<g id="Node000018" class="node">
<title>Node18</title>
<g id="a_Node000018"><a xlink:href="Entity_8hpp.html" target="_top" xlink:title=" ">
<polygon fill="white" stroke="#666666" points="542,-129 458,-129 458,-110 542,-110 542,-129"/>
<text text-anchor="middle" x="500" y="-117" font-family="Helvetica,sans-Serif" font-size="10.00">ecs/Entity.hpp</text>
</a>
</g>
</g>
<!-- Node8&#45;&gt;Node18 -->
<g id="edge17_Node000008_Node000018" class="edge">
<title>Node8&#45;&gt;Node18</title>
<g id="a_edge17_Node000008_Node000018"><a xlink:title=" ">
<path fill="none" stroke="#63b8ff" d="M630.94,-164.98C604.97,-156.16 564.19,-142.31 535.04,-132.41"/>
<polygon fill="#63b8ff" stroke="#63b8ff" points="535.85,-128.99 525.26,-129.08 533.6,-135.61 535.85,-128.99"/>
</a>
</g>
</g>
<!-- Node20 -->
<g id="Node000020" class="node">
<title>Node20</title>
<g id="a_Node000020"><a xlink:href="SparseArray_8hpp.html" target="_top" xlink:title=" ">
<polygon fill="white" stroke="#666666" points="713.5,-129 598.5,-129 598.5,-110 713.5,-110 713.5,-129"/>
<text text-anchor="middle" x="656" y="-117" font-family="Helvetica,sans-Serif" font-size="10.00">ecs/SparseArray.hpp</text>
</a>
</g>
</g>
<!-- Node8&#45;&gt;Node20 -->
<g id="edge19_Node000008_Node000020" class="edge">
<title>Node8&#45;&gt;Node20</title>
<g id="a_edge19_Node000008_Node000020"><a xlink:title=" ">
<path fill="none" stroke="#63b8ff" d="M656,-164.75C656,-157.8 656,-147.85 656,-139.13"/>
<polygon fill="#63b8ff" stroke="#63b8ff" points="659.5,-139.09 656,-129.09 652.5,-139.09 659.5,-139.09"/>
</a>
</g>
</g>
<!-- Node19 -->
<g id="Node000019" class="node">
<title>Node19</title>
<g id="a_Node000019"><a xlink:title=" ">
<polygon fill="#e0e0e0" stroke="#999999" points="526.5,-74 473.5,-74 473.5,-55 526.5,-55 526.5,-74"/>
<text text-anchor="middle" x="500" y="-62" font-family="Helvetica,sans-Serif" font-size="10.00">cstddef</text>
</a>
</g>
</g>
<!-- Node18&#45;&gt;Node19 -->
<g id="edge18_Node000018_Node000019" class="edge">
<title>Node18&#45;&gt;Node19</title>
<g id="a_edge18_Node000018_Node000019"><a xlink:title=" ">
<path fill="none" stroke="#63b8ff" d="M500,-109.75C500,-102.8 500,-92.85 500,-84.13"/>
<polygon fill="#63b8ff" stroke="#63b8ff" points="503.5,-84.09 500,-74.09 496.5,-84.09 503.5,-84.09"/>
</a>
</g>
</g>
<!-- Node20&#45;&gt;Node16 -->
<g id="edge22_Node000020_Node000016" class="edge">
<title>Node20&#45;&gt;Node16</title>
<g id="a_edge22_Node000020_Node000016"><a xlink:title=" ">
<path fill="none" stroke="#63b8ff" d="M704.36,-109.98C766.21,-99.09 871.64,-80.53 924.61,-71.2"/>
<polygon fill="#63b8ff" stroke="#63b8ff" points="925.23,-74.65 934.47,-69.47 924.02,-67.75 925.23,-74.65"/>
</a>
</g>
</g>
<!-- Node20&#45;&gt;Node17 -->
<g id="edge23_Node000020_Node000017" class="edge">
<title>Node20&#45;&gt;Node17</title>
<g id="a_edge23_Node000020_Node000017"><a xlink:title=" ">
<path fill="none" stroke="#63b8ff" d="M642.83,-109.98C630.23,-101.84 611,-89.41 596.06,-79.76"/>
<polygon fill="#63b8ff" stroke="#63b8ff" points="597.71,-76.66 587.41,-74.17 593.91,-82.54 597.71,-76.66"/>
</a>
</g>
</g>
<!-- Node21 -->
<g id="Node000021" class="node">
<title>Node21</title>
<g id="a_Node000021"><a xlink:title=" ">
<polygon fill="#e0e0e0" stroke="#999999" points="678,-74 620,-74 620,-55 678,-55 678,-74"/>
<text text-anchor="middle" x="649" y="-62" font-family="Helvetica,sans-Serif" font-size="10.00">memory</text>
</a>
</g>
</g>
<!-- Node20&#45;&gt;Node21 -->
<g id="edge20_Node000020_Node000021" class="edge">
<title>Node20&#45;&gt;Node21</title>
<g id="a_edge20_Node000020_Node000021"><a xlink:title=" ">
<path fill="none" stroke="#63b8ff" d="M654.84,-109.75C653.93,-102.8 652.61,-92.85 651.46,-84.13"/>
<polygon fill="#63b8ff" stroke="#63b8ff" points="654.91,-83.54 650.13,-74.09 647.97,-84.46 654.91,-83.54"/>
</a>
</g>
</g>
<!-- Node22 -->
<g id="Node000022" class="node">
<title>Node22</title>
<g id="a_Node000022"><a xlink:title=" ">
<polygon fill="#e0e0e0" stroke="#999999" points="752,-74 696,-74 696,-55 752,-55 752,-74"/>
<text text-anchor="middle" x="724" y="-62" font-family="Helvetica,sans-Serif" font-size="10.00">optional</text>
</a>
</g>
</g>
<!-- Node20&#45;&gt;Node22 -->
<g id="edge21_Node000020_Node000022" class="edge">
<title>Node20&#45;&gt;Node22</title>
<g id="a_edge21_Node000020_Node000022"><a xlink:title=" ">
<path fill="none" stroke="#63b8ff" d="M666.93,-109.98C677.08,-102.07 692.42,-90.11 704.65,-80.58"/>
<polygon fill="#63b8ff" stroke="#63b8ff" points="707.14,-83.08 712.88,-74.17 702.84,-77.56 707.14,-83.08"/>
</a>
</g>
</g>
<!-- Node23&#45;&gt;Node9 -->
<g id="edge25_Node000023_Node000009" class="edge">
<title>Node23&#45;&gt;Node9</title>
<g id="a_edge25_Node000023_Node000009"><a xlink:title=" ">
<path fill="none" stroke="#63b8ff" d="M1101,-164.75C1101,-157.8 1101,-147.85 1101,-139.13"/>
<polygon fill="#63b8ff" stroke="#63b8ff" points="1104.5,-139.09 1101,-129.09 1097.5,-139.09 1104.5,-139.09"/>
</a>
</g>
</g>
<!-- Node23&#45;&gt;Node11 -->
<g id="edge26_Node000023_Node000011" class="edge">
<title>Node23&#45;&gt;Node11</title>
<g id="a_edge26_Node000023_Node000011"><a xlink:title=" ">
<path fill="none" stroke="#63b8ff" d="M1087.66,-164.98C1074.91,-156.84 1055.45,-144.41 1040.33,-134.76"/>
<polygon fill="#63b8ff" stroke="#63b8ff" points="1041.89,-131.6 1031.58,-129.17 1038.12,-137.5 1041.89,-131.6"/>
</a>
</g>
</g>
<!-- Node23&#45;&gt;Node16 -->
<g id="edge28_Node000023_Node000016" class="edge">
<title>Node23&#45;&gt;Node16</title>
<g id="a_edge28_Node000023_Node000016"><a xlink:title=" ">
<path fill="none" stroke="#63b8ff" d="M1113.56,-164.94C1130.41,-152.41 1156.62,-128.55 1142,-110 1123.42,-86.42 1037.97,-73.89 989.97,-68.61"/>
<polygon fill="#63b8ff" stroke="#63b8ff" points="990.08,-65.1 979.76,-67.53 989.34,-72.06 990.08,-65.1"/>
</a>
</g>
</g>
<!-- Node23&#45;&gt;Node23 -->
<g id="edge29_Node000023_Node000023" class="edge">
<title>Node23&#45;&gt;Node23</title>
<g id="a_edge29_Node000023_Node000023"><a xlink:title=" ">
<path fill="none" stroke="#63b8ff" d="M1130.02,-184.03C1147.06,-186.06 1163,-182.88 1163,-174.5 1163,-167.82 1152.87,-164.44 1140.14,-164.38"/>
<polygon fill="#63b8ff" stroke="#63b8ff" points="1139.8,-160.89 1130.02,-164.97 1140.21,-167.88 1139.8,-160.89"/>
</a>
</g>
</g>
<!-- Node24 -->
<g id="Node000024" class="node">
<title>Node24</title>
<g id="a_Node000024"><a xlink:title=" ">
<polygon fill="#e0e0e0" stroke="#999999" points="1230.5,-129 1189.5,-129 1189.5,-110 1230.5,-110 1230.5,-129"/>
<text text-anchor="middle" x="1210" y="-117" font-family="Helvetica,sans-Serif" font-size="10.00">tuple</text>
</a>
</g>
</g>
<!-- Node23&#45;&gt;Node24 -->
<g id="edge27_Node000023_Node000024" class="edge">
<title>Node23&#45;&gt;Node24</title>
<g id="a_edge27_Node000023_Node000024"><a xlink:title=" ">
<path fill="none" stroke="#63b8ff" d="M1118.51,-164.98C1135.97,-156.5 1163.01,-143.35 1183.17,-133.54"/>
<polygon fill="#63b8ff" stroke="#63b8ff" points="1184.71,-136.69 1192.17,-129.17 1181.64,-130.4 1184.71,-136.69"/>
</a>
</g>
</g>
<!-- Node25&#45;&gt;Node4 -->
<g id="edge32_Node000025_Node000004" class="edge">
<title>Node25&#45;&gt;Node4</title>
<g id="a_edge32_Node000025_Node000004"><a xlink:title=" ">
<path fill="none" stroke="#63b8ff" d="M198.27,-219.66C186.68,-201.77 160.25,-161 145.14,-137.69"/>
<polygon fill="#63b8ff" stroke="#63b8ff" points="147.99,-135.65 139.61,-129.16 142.11,-139.45 147.99,-135.65"/>
</a>
</g>
</g>
<!-- Node25&#45;&gt;Node5 -->
<g id="edge31_Node000025_Node000005" class="edge">
<title>Node25&#45;&gt;Node5</title>
<g id="a_edge31_Node000025_Node000005"><a xlink:title=" ">
<path fill="none" stroke="#63b8ff" d="M171.09,-219.92C130.75,-207.44 64.15,-179.99 35,-129 25.34,-112.11 40.57,-93.31 54.93,-80.59"/>
<polygon fill="#63b8ff" stroke="#63b8ff" points="57.18,-83.26 62.65,-74.19 52.72,-77.87 57.18,-83.26"/>
</a>
</g>
</g>
<!-- Node25&#45;&gt;Node8 -->
<g id="edge33_Node000025_Node000008" class="edge">
<title>Node25&#45;&gt;Node8</title>
<g id="a_edge33_Node000025_Node000008"><a xlink:title=" ">
<path fill="none" stroke="#63b8ff" d="M276.62,-219.98C365.89,-209.52 515.6,-191.96 597.72,-182.33"/>
<polygon fill="#63b8ff" stroke="#63b8ff" points="598.35,-185.78 607.88,-181.14 597.54,-178.83 598.35,-185.78"/>
</a>
</g>
</g>
</g>
</svg>
