<?xml version="1.0" encoding="UTF-8" standalone="no"?>
<!DOCTYPE svg PUBLIC "-//W3C//DTD SVG 1.1//EN"
 "http://www.w3.org/Graphics/SVG/1.1/DTD/svg11.dtd">
<!-- Generated by graphviz version 2.43.0 (0)
 -->
<!-- Title: /home/runner/work/R&#45;Type/R&#45;Type/Shared/components/Player/Weapon.hpp Pages: 1 -->
<svg width="188pt" height="214pt"
 viewBox="0.00 0.00 188.00 214.00" xmlns="http://www.w3.org/2000/svg" xmlns:xlink="http://www.w3.org/1999/xlink">
<g id="graph0" class="graph" transform="scale(1 1) rotate(0) translate(4 210)">
<title>/home/runner/work/R&#45;Type/R&#45;Type/Shared/components/Player/Weapon.hpp</title>
<!-- Node1 -->
<g id="Node000001" class="node">
<title>Node1</title>
<g id="a_Node000001"><a xlink:title=" ">
<polygon fill="#999999" stroke="#666666" points="178,-206 2,-206 2,-165 178,-165 178,-206"/>
<text text-anchor="start" x="10" y="-194" font-family="Helvetica,sans-Serif" font-size="10.00">/home/runner/work/R</text>
<text text-anchor="start" x="10" y="-183" font-family="Helvetica,sans-Serif" font-size="10.00">&#45;Type/R&#45;Type/Shared</text>
<text text-anchor="middle" x="90" y="-172" font-family="Helvetica,sans-Serif" font-size="10.00">/components/Player/Weapon.hpp</text>
</a>
</g>
</g>
<!-- Node2 -->
<g id="Node000002" class="node">
<title>Node2</title>
<g id="a_Node000002"><a xlink:href="Projectile_8hpp.html" target="_top" xlink:title=" ">
<polygon fill="white" stroke="#666666" points="180,-129 0,-129 0,-110 180,-110 180,-129"/>
<text text-anchor="middle" x="90" y="-117" font-family="Helvetica,sans-Serif" font-size="10.00">components/Player/Projectile.hpp</text>
</a>
</g>
</g>
<!-- Node1&#45;&gt;Node2 -->
<g id="edge1_Node000001_Node000002" class="edge">
<title>Node1&#45;&gt;Node2</title>
<g id="a_edge1_Node000001_Node000002"><a xlink:title=" ">
<path fill="none" stroke="#63b8ff" d="M90,-164.95C90,-156.85 90,-147.5 90,-139.47"/>
<polygon fill="#63b8ff" stroke="#63b8ff" points="93.5,-139.26 90,-129.26 86.5,-139.26 93.5,-139.26"/>
</a>
</g>
</g>
<!-- Node3 -->
<g id="Node000003" class="node">
<title>Node3</title>
<g id="a_Node000003"><a xlink:href="Physics2D_8hpp.html" target="_top" xlink:title=" ">
<polygon fill="white" stroke="#666666" points="138.5,-74 41.5,-74 41.5,-55 138.5,-55 138.5,-74"/>
<text text-anchor="middle" x="90" y="-62" font-family="Helvetica,sans-Serif" font-size="10.00">../Physics2D.hpp</text>
</a>
</g>
</g>
<!-- Node2&#45;&gt;Node3 -->
<g id="edge2_Node000002_Node000003" class="edge">
<title>Node2&#45;&gt;Node3</title>
<g id="a_edge2_Node000002_Node000003"><a xlink:title=" ">
<path fill="none" stroke="#63b8ff" d="M90,-109.75C90,-102.8 90,-92.85 90,-84.13"/>
<polygon fill="#63b8ff" stroke="#63b8ff" points="93.5,-84.09 90,-74.09 86.5,-84.09 93.5,-84.09"/>
</a>
</g>
</g>
<!-- Node4 -->
<g id="Node000004" class="node">
<title>Node4</title>
<g id="a_Node000004"><a xlink:title=" ">
<polygon fill="#e0e0e0" stroke="#999999" points="87,-19 15,-19 15,0 87,0 87,-19"/>
<text text-anchor="middle" x="51" y="-7" font-family="Helvetica,sans-Serif" font-size="10.00">SDL2/SDL.h</text>
</a>
</g>
</g>
<!-- Node3&#45;&gt;Node4 -->
<g id="edge3_Node000003_Node000004" class="edge">
<title>Node3&#45;&gt;Node4</title>
<g id="a_edge3_Node000003_Node000004"><a xlink:title=" ">
<path fill="none" stroke="#63b8ff" d="M83.56,-54.75C78.11,-47.34 70.14,-36.5 63.44,-27.41"/>
<polygon fill="#63b8ff" stroke="#63b8ff" points="66.07,-25.07 57.32,-19.09 60.43,-29.22 66.07,-25.07"/>
</a>
</g>
</g>
<!-- Node5 -->
<g id="Node000005" class="node">
<title>Node5</title>
<g id="a_Node000005"><a xlink:title=" ">
<polygon fill="#e0e0e0" stroke="#999999" points="152.5,-19 105.5,-19 105.5,0 152.5,0 152.5,-19"/>
<text text-anchor="middle" x="129" y="-7" font-family="Helvetica,sans-Serif" font-size="10.00">cmath</text>
</a>
</g>
</g>
<!-- Node3&#45;&gt;Node5 -->
<g id="edge4_Node000003_Node000005" class="edge">
<title>Node3&#45;&gt;Node5</title>
<g id="a_edge4_Node000003_Node000005"><a xlink:title=" ">
<path fill="none" stroke="#63b8ff" d="M96.44,-54.75C101.89,-47.34 109.86,-36.5 116.56,-27.41"/>
<polygon fill="#63b8ff" stroke="#63b8ff" points="119.57,-29.22 122.68,-19.09 113.93,-25.07 119.57,-29.22"/>
</a>
</g>
</g>
</g>
</svg>
