<?xml version="1.0" encoding="UTF-8" standalone="no"?>
<!DOCTYPE svg PUBLIC "-//W3C//DTD SVG 1.1//EN"
 "http://www.w3.org/Graphics/SVG/1.1/DTD/svg11.dtd">
<!-- Generated by graphviz version 2.43.0 (0)
 -->
<!-- Title: /home/runner/work/R&#45;Type/R&#45;Type/Shared/components/Player/Weapon.hpp Pages: 1 -->
<svg width="2220pt" height="434pt"
 viewBox="0.00 0.00 2220.37 434.00" xmlns="http://www.w3.org/2000/svg" xmlns:xlink="http://www.w3.org/1999/xlink">
<g id="graph0" class="graph" transform="scale(1 1) rotate(0) translate(4 430)">
<title>/home/runner/work/R&#45;Type/R&#45;Type/Shared/components/Player/Weapon.hpp</title>
<!-- Node1 -->
<g id="Node000001" class="node">
<title>Node1</title>
<g id="a_Node000001"><a xlink:title=" ">
<polygon fill="#999999" stroke="#666666" points="993.37,-426 817.37,-426 817.37,-385 993.37,-385 993.37,-426"/>
<text text-anchor="start" x="825.37" y="-414" font-family="Helvetica,sans-Serif" font-size="10.00">/home/runner/work/R</text>
<text text-anchor="start" x="825.37" y="-403" font-family="Helvetica,sans-Serif" font-size="10.00">&#45;Type/R&#45;Type/Shared</text>
<text text-anchor="middle" x="905.37" y="-392" font-family="Helvetica,sans-Serif" font-size="10.00">/components/Player/Weapon.hpp</text>
</a>
</g>
</g>
<!-- Node2 -->
<g id="Node000002" class="node">
<title>Node2</title>
<g id="a_Node000002"><a xlink:href="GameEngine_8hpp.html" target="_top" xlink:title=" ">
<polygon fill="white" stroke="#666666" points="570.37,-195 414.37,-195 414.37,-154 570.37,-154 570.37,-195"/>
<text text-anchor="start" x="422.37" y="-183" font-family="Helvetica,sans-Serif" font-size="10.00">/home/runner/work/R</text>
<text text-anchor="start" x="422.37" y="-172" font-family="Helvetica,sans-Serif" font-size="10.00">&#45;Type/R&#45;Type/Client</text>
<text text-anchor="middle" x="492.37" y="-161" font-family="Helvetica,sans-Serif" font-size="10.00">/src/engine/GameEngine.hpp</text>
</a>
</g>
</g>
<!-- Node1&#45;&gt;Node2 -->
<g id="edge1_Node000001_Node000002" class="edge">
<title>Node1&#45;&gt;Node2</title>
<g id="a_edge1_Node000001_Node000002"><a xlink:title=" ">
<path fill="none" stroke="#63b8ff" d="M808.83,-382.19C736.59,-362.05 638.12,-327.01 565.37,-272 537.55,-250.97 515.11,-216.64 502.78,-195.1"/>
<polygon fill="#63b8ff" stroke="#63b8ff" points="808.27,-385.67 818.84,-384.93 810.12,-378.92 808.27,-385.67"/>
</a>
</g>
</g>
<!-- Node10 -->
<g id="Node000010" class="node">
<title>Node10</title>
<g id="a_Node000010"><a xlink:href="PlayerEntity_8hpp.html" target="_top" xlink:title=" ">
<polygon fill="white" stroke="#666666" points="1271.87,-349 1076.87,-349 1076.87,-308 1271.87,-308 1271.87,-349"/>
<text text-anchor="start" x="1084.87" y="-337" font-family="Helvetica,sans-Serif" font-size="10.00">/home/runner/work/R</text>
<text text-anchor="start" x="1084.87" y="-326" font-family="Helvetica,sans-Serif" font-size="10.00">&#45;Type/R&#45;Type/Shared</text>
<text text-anchor="middle" x="1174.37" y="-315" font-family="Helvetica,sans-Serif" font-size="10.00">/components/Player/PlayerEntity.hpp</text>
</a>
</g>
</g>
<!-- Node1&#45;&gt;Node10 -->
<g id="edge13_Node000001_Node000010" class="edge">
<title>Node1&#45;&gt;Node10</title>
<g id="a_edge13_Node000001_Node000010"><a xlink:title=" ">
<path fill="none" stroke="#63b8ff" d="M985.3,-382.21C1023.1,-371.68 1067.82,-359.21 1104.28,-349.04"/>
<polygon fill="#63b8ff" stroke="#63b8ff" points="984.03,-378.93 975.34,-384.99 985.91,-385.68 984.03,-378.93"/>
</a>
</g>
</g>
<!-- Node24 -->
<g id="Node000024" class="node">
<title>Node24</title>
<g id="a_Node000024"><a xlink:href="WeaponSystem_8hpp.html" target="_top" xlink:title=" ">
<polygon fill="white" stroke="#666666" points="985.87,-272 824.87,-272 824.87,-231 985.87,-231 985.87,-272"/>
<text text-anchor="start" x="832.87" y="-260" font-family="Helvetica,sans-Serif" font-size="10.00">/home/runner/work/R</text>
<text text-anchor="start" x="832.87" y="-249" font-family="Helvetica,sans-Serif" font-size="10.00">&#45;Type/R&#45;Type/Shared</text>
<text text-anchor="middle" x="905.37" y="-238" font-family="Helvetica,sans-Serif" font-size="10.00">/systems/WeaponSystem.hpp</text>
</a>
</g>
</g>
<!-- Node1&#45;&gt;Node24 -->
<g id="edge36_Node000001_Node000024" class="edge">
<title>Node1&#45;&gt;Node24</title>
<g id="a_edge36_Node000001_Node000024"><a xlink:title=" ">
<path fill="none" stroke="#63b8ff" d="M905.37,-374.58C905.37,-344.36 905.37,-298.53 905.37,-272.47"/>
<polygon fill="#63b8ff" stroke="#63b8ff" points="901.87,-374.94 905.37,-384.94 908.87,-374.94 901.87,-374.94"/>
</a>
</g>
</g>
<!-- Node3 -->
<g id="Node000003" class="node">
<title>Node3</title>
<g id="a_Node000003"><a xlink:href="Main_8cpp.html" target="_top" xlink:title=" ">
<polygon fill="white" stroke="#666666" points="394.87,-41 275.87,-41 275.87,0 394.87,0 394.87,-41"/>
<text text-anchor="start" x="283.87" y="-29" font-family="Helvetica,sans-Serif" font-size="10.00">/home/runner/work/R</text>
<text text-anchor="start" x="283.87" y="-18" font-family="Helvetica,sans-Serif" font-size="10.00">&#45;Type/R&#45;Type/Client</text>
<text text-anchor="middle" x="335.37" y="-7" font-family="Helvetica,sans-Serif" font-size="10.00">/src/Main.cpp</text>
</a>
</g>
</g>
<!-- Node2&#45;&gt;Node3 -->
<g id="edge2_Node000002_Node000003" class="edge">
<title>Node2&#45;&gt;Node3</title>
<g id="a_edge2_Node000002_Node000003"><a xlink:title=" ">
<path fill="none" stroke="#63b8ff" d="M404.28,-169.48C273.54,-162.6 40.73,-146.48 15.37,-118 -59.69,-33.71 164.02,-21.8 275.84,-20.94"/>
<polygon fill="#63b8ff" stroke="#63b8ff" points="404.11,-172.98 414.28,-170 404.48,-165.99 404.11,-172.98"/>
</a>
</g>
</g>
<!-- Node4 -->
<g id="Node000004" class="node">
<title>Node4</title>
<g id="a_Node000004"><a xlink:href="GameEngine_8cpp.html" target="_top" xlink:title=" ">
<polygon fill="white" stroke="#666666" points="815.87,-118 660.87,-118 660.87,-77 815.87,-77 815.87,-118"/>
<text text-anchor="start" x="668.87" y="-106" font-family="Helvetica,sans-Serif" font-size="10.00">/home/runner/work/R</text>
<text text-anchor="start" x="668.87" y="-95" font-family="Helvetica,sans-Serif" font-size="10.00">&#45;Type/R&#45;Type/Client</text>
<text text-anchor="middle" x="738.37" y="-84" font-family="Helvetica,sans-Serif" font-size="10.00">/src/engine/GameEngine.cpp</text>
</a>
</g>
</g>
<!-- Node2&#45;&gt;Node4 -->
<g id="edge3_Node000002_Node000004" class="edge">
<title>Node2&#45;&gt;Node4</title>
<g id="a_edge3_Node000002_Node000004"><a xlink:title=" ">
<path fill="none" stroke="#63b8ff" d="M566.35,-150.94C600.72,-140.46 641.21,-128.12 674.27,-118.04"/>
<polygon fill="#63b8ff" stroke="#63b8ff" points="564.9,-147.73 556.36,-153.99 566.94,-154.42 564.9,-147.73"/>
</a>
</g>
</g>
<!-- Node5 -->
<g id="Node000005" class="node">
<title>Node5</title>
<g id="a_Node000005"><a xlink:href="SceneManager_8cpp.html" target="_top" xlink:title=" ">
<polygon fill="white" stroke="#666666" points="1030.37,-118 834.37,-118 834.37,-77 1030.37,-77 1030.37,-118"/>
<text text-anchor="start" x="842.37" y="-106" font-family="Helvetica,sans-Serif" font-size="10.00">/home/runner/work/R</text>
<text text-anchor="start" x="842.37" y="-95" font-family="Helvetica,sans-Serif" font-size="10.00">&#45;Type/R&#45;Type/Client</text>
<text text-anchor="middle" x="932.37" y="-84" font-family="Helvetica,sans-Serif" font-size="10.00">/src/engine/scene/SceneManager.cpp</text>
</a>
</g>
</g>
<!-- Node2&#45;&gt;Node5 -->
<g id="edge4_Node000002_Node000005" class="edge">
<title>Node2&#45;&gt;Node5</title>
<g id="a_edge4_Node000002_Node000005"><a xlink:title=" ">
<path fill="none" stroke="#63b8ff" d="M580.62,-153.83C689.3,-134.04 718.94,-135.26 824.37,-118 827.56,-117.48 830.81,-116.94 834.09,-116.39"/>
<polygon fill="#63b8ff" stroke="#63b8ff" points="579.77,-150.43 570.56,-155.68 581.03,-157.32 579.77,-150.43"/>
</a>
</g>
</g>
<!-- Node6 -->
<g id="Node000006" class="node">
<title>Node6</title>
<g id="a_Node000006"><a xlink:href="JoinGame_8hpp.html" target="_top" xlink:title=" ">
<polygon fill="white" stroke="#666666" points="166.37,-118 24.37,-118 24.37,-77 166.37,-77 166.37,-118"/>
<text text-anchor="start" x="32.37" y="-106" font-family="Helvetica,sans-Serif" font-size="10.00">/home/runner/work/R</text>
<text text-anchor="start" x="32.37" y="-95" font-family="Helvetica,sans-Serif" font-size="10.00">&#45;Type/R&#45;Type/Client</text>
<text text-anchor="middle" x="95.37" y="-84" font-family="Helvetica,sans-Serif" font-size="10.00">/src/scenes/JoinGame.hpp</text>
</a>
</g>
</g>
<!-- Node2&#45;&gt;Node6 -->
<g id="edge5_Node000002_Node000006" class="edge">
<title>Node2&#45;&gt;Node6</title>
<g id="a_edge5_Node000002_Node000006"><a xlink:title=" ">
<path fill="none" stroke="#63b8ff" d="M404.23,-159.67C340.46,-149.27 252.32,-134.1 175.37,-118 172.43,-117.39 169.43,-116.74 166.41,-116.07"/>
<polygon fill="#63b8ff" stroke="#63b8ff" points="403.82,-163.15 414.25,-161.29 404.94,-156.24 403.82,-163.15"/>
</a>
</g>
</g>
<!-- Node7 -->
<g id="Node000007" class="node">
<title>Node7</title>
<g id="a_Node000007"><a xlink:href="MainMenu_8hpp.html" target="_top" xlink:title=" ">
<polygon fill="white" stroke="#666666" points="330.37,-118 184.37,-118 184.37,-77 330.37,-77 330.37,-118"/>
<text text-anchor="start" x="192.37" y="-106" font-family="Helvetica,sans-Serif" font-size="10.00">/home/runner/work/R</text>
<text text-anchor="start" x="192.37" y="-95" font-family="Helvetica,sans-Serif" font-size="10.00">&#45;Type/R&#45;Type/Client</text>
<text text-anchor="middle" x="257.37" y="-84" font-family="Helvetica,sans-Serif" font-size="10.00">/src/scenes/MainMenu.hpp</text>
</a>
</g>
</g>
<!-- Node2&#45;&gt;Node7 -->
<g id="edge7_Node000002_Node000007" class="edge">
<title>Node2&#45;&gt;Node7</title>
<g id="a_edge7_Node000002_Node000007"><a xlink:title=" ">
<path fill="none" stroke="#63b8ff" d="M421.69,-150.94C388.85,-140.46 350.18,-128.12 318.6,-118.04"/>
<polygon fill="#63b8ff" stroke="#63b8ff" points="420.65,-154.28 431.24,-153.99 422.77,-147.62 420.65,-154.28"/>
</a>
</g>
</g>
<!-- Node8 -->
<g id="Node000008" class="node">
<title>Node8</title>
<g id="a_Node000008"><a xlink:href="Options_8hpp.html" target="_top" xlink:title=" ">
<polygon fill="white" stroke="#666666" points="480.37,-118 348.37,-118 348.37,-77 480.37,-77 480.37,-118"/>
<text text-anchor="start" x="356.37" y="-106" font-family="Helvetica,sans-Serif" font-size="10.00">/home/runner/work/R</text>
<text text-anchor="start" x="356.37" y="-95" font-family="Helvetica,sans-Serif" font-size="10.00">&#45;Type/R&#45;Type/Client</text>
<text text-anchor="middle" x="414.37" y="-84" font-family="Helvetica,sans-Serif" font-size="10.00">/src/scenes/Options.hpp</text>
</a>
</g>
</g>
<!-- Node2&#45;&gt;Node8 -->
<g id="edge9_Node000002_Node000008" class="edge">
<title>Node2&#45;&gt;Node8</title>
<g id="a_edge9_Node000002_Node000008"><a xlink:title=" ">
<path fill="none" stroke="#63b8ff" d="M464.59,-146.79C454.74,-137.32 443.84,-126.84 434.72,-118.07"/>
<polygon fill="#63b8ff" stroke="#63b8ff" points="462.24,-149.39 471.87,-153.79 467.09,-144.34 462.24,-149.39"/>
</a>
</g>
</g>
<!-- Node9 -->
<g id="Node000009" class="node">
<title>Node9</title>
<g id="a_Node000009"><a xlink:href="WaitLobby_8hpp.html" target="_top" xlink:title=" ">
<polygon fill="white" stroke="#666666" points="642.37,-118 498.37,-118 498.37,-77 642.37,-77 642.37,-118"/>
<text text-anchor="start" x="506.37" y="-106" font-family="Helvetica,sans-Serif" font-size="10.00">/home/runner/work/R</text>
<text text-anchor="start" x="506.37" y="-95" font-family="Helvetica,sans-Serif" font-size="10.00">&#45;Type/R&#45;Type/Client</text>
<text text-anchor="middle" x="570.37" y="-84" font-family="Helvetica,sans-Serif" font-size="10.00">/src/scenes/WaitLobby.hpp</text>
</a>
</g>
</g>
<!-- Node2&#45;&gt;Node9 -->
<g id="edge11_Node000002_Node000009" class="edge">
<title>Node2&#45;&gt;Node9</title>
<g id="a_edge11_Node000002_Node000009"><a xlink:title=" ">
<path fill="none" stroke="#63b8ff" d="M520.14,-146.79C529.99,-137.32 540.89,-126.84 550.01,-118.07"/>
<polygon fill="#63b8ff" stroke="#63b8ff" points="517.64,-144.34 512.86,-153.79 522.49,-149.39 517.64,-144.34"/>
</a>
</g>
</g>
<!-- Node6&#45;&gt;Node3 -->
<g id="edge6_Node000006_Node000003" class="edge">
<title>Node6&#45;&gt;Node3</title>
<g id="a_edge6_Node000006_Node000003"><a xlink:title=" ">
<path fill="none" stroke="#63b8ff" d="M167.37,-74C201.96,-63.19 242.92,-50.39 275.73,-40.14"/>
<polygon fill="#63b8ff" stroke="#63b8ff" points="166.3,-70.67 157.8,-76.99 168.39,-77.35 166.3,-70.67"/>
</a>
</g>
</g>
<!-- Node7&#45;&gt;Node3 -->
<g id="edge8_Node000007_Node000003" class="edge">
<title>Node7&#45;&gt;Node3</title>
<g id="a_edge8_Node000007_Node000003"><a xlink:title=" ">
<path fill="none" stroke="#63b8ff" d="M285.14,-69.79C294.99,-60.32 305.89,-49.84 315.01,-41.07"/>
<polygon fill="#63b8ff" stroke="#63b8ff" points="282.64,-67.34 277.86,-76.79 287.49,-72.39 282.64,-67.34"/>
</a>
</g>
</g>
<!-- Node8&#45;&gt;Node3 -->
<g id="edge10_Node000008_Node000003" class="edge">
<title>Node8&#45;&gt;Node3</title>
<g id="a_edge10_Node000008_Node000003"><a xlink:title=" ">
<path fill="none" stroke="#63b8ff" d="M386.23,-69.79C376.25,-60.32 365.22,-49.84 355.98,-41.07"/>
<polygon fill="#63b8ff" stroke="#63b8ff" points="383.95,-72.45 393.61,-76.79 388.77,-67.37 383.95,-72.45"/>
</a>
</g>
</g>
<!-- Node9&#45;&gt;Node3 -->
<g id="edge12_Node000009_Node000003" class="edge">
<title>Node9&#45;&gt;Node3</title>
<g id="a_edge12_Node000009_Node000003"><a xlink:title=" ">
<path fill="none" stroke="#63b8ff" d="M499.54,-73.9C466.17,-63.24 426.79,-50.68 394.97,-40.52"/>
<polygon fill="#63b8ff" stroke="#63b8ff" points="498.65,-77.28 509.24,-76.99 500.77,-70.62 498.65,-77.28"/>
</a>
</g>
</g>
<!-- Node11 -->
<g id="Node000011" class="node">
<title>Node11</title>
<g id="a_Node000011"><a xlink:href="InputSystem_8cpp.html" target="_top" xlink:title=" ">
<polygon fill="white" stroke="#666666" points="942.37,-195 754.37,-195 754.37,-154 942.37,-154 942.37,-195"/>
<text text-anchor="start" x="762.37" y="-183" font-family="Helvetica,sans-Serif" font-size="10.00">/home/runner/work/R</text>
<text text-anchor="start" x="762.37" y="-172" font-family="Helvetica,sans-Serif" font-size="10.00">&#45;Type/R&#45;Type/Client</text>
<text text-anchor="middle" x="848.37" y="-161" font-family="Helvetica,sans-Serif" font-size="10.00">/src/engine/inputs/InputSystem.cpp</text>
</a>
</g>
</g>
<!-- Node10&#45;&gt;Node11 -->
<g id="edge14_Node000010_Node000011" class="edge">
<title>Node10&#45;&gt;Node11</title>
<g id="a_edge14_Node000010_Node000011"><a xlink:title=" ">
<path fill="none" stroke="#63b8ff" d="M1097.96,-304.36C1076.12,-295.95 1052.94,-285.18 1033.37,-272 1012.51,-257.95 1015.31,-244.93 994.37,-231 971.45,-215.76 943.75,-203.88 918.67,-195.09"/>
<polygon fill="#63b8ff" stroke="#63b8ff" points="1096.97,-307.72 1107.56,-307.94 1099.41,-301.17 1096.97,-307.72"/>
</a>
</g>
</g>
<!-- Node12 -->
<g id="Node000012" class="node">
<title>Node12</title>
<g id="a_Node000012"><a xlink:href="InputSystem_8hpp.html" target="_top" xlink:title=" ">
<polygon fill="white" stroke="#666666" points="762.37,-272 574.37,-272 574.37,-231 762.37,-231 762.37,-272"/>
<text text-anchor="start" x="582.37" y="-260" font-family="Helvetica,sans-Serif" font-size="10.00">/home/runner/work/R</text>
<text text-anchor="start" x="582.37" y="-249" font-family="Helvetica,sans-Serif" font-size="10.00">&#45;Type/R&#45;Type/Client</text>
<text text-anchor="middle" x="668.37" y="-238" font-family="Helvetica,sans-Serif" font-size="10.00">/src/engine/inputs/InputSystem.hpp</text>
</a>
</g>
</g>
<!-- Node10&#45;&gt;Node12 -->
<g id="edge15_Node000010_Node000012" class="edge">
<title>Node10&#45;&gt;Node12</title>
<g id="a_edge15_Node000010_Node000012"><a xlink:title=" ">
<path fill="none" stroke="#63b8ff" d="M1066.68,-313.29C987.41,-302.6 877.05,-287.22 780.37,-272 774.52,-271.08 768.5,-270.11 762.44,-269.11"/>
<polygon fill="#63b8ff" stroke="#63b8ff" points="1066.3,-316.77 1076.68,-314.64 1067.24,-309.83 1066.3,-316.77"/>
</a>
</g>
</g>
<!-- Node13 -->
<g id="Node000013" class="node">
<title>Node13</title>
<g id="a_Node000013"><a xlink:href="MainGame_8hpp.html" target="_top" xlink:title=" ">
<polygon fill="white" stroke="#666666" points="736.37,-195 588.37,-195 588.37,-154 736.37,-154 736.37,-195"/>
<text text-anchor="start" x="596.37" y="-183" font-family="Helvetica,sans-Serif" font-size="10.00">/home/runner/work/R</text>
<text text-anchor="start" x="596.37" y="-172" font-family="Helvetica,sans-Serif" font-size="10.00">&#45;Type/R&#45;Type/Client</text>
<text text-anchor="middle" x="662.37" y="-161" font-family="Helvetica,sans-Serif" font-size="10.00">/src/scenes/MainGame.hpp</text>
</a>
</g>
</g>
<!-- Node10&#45;&gt;Node13 -->
<g id="edge20_Node000010_Node000013" class="edge">
<title>Node10&#45;&gt;Node13</title>
<g id="a_edge20_Node000010_Node000013"><a xlink:title=" ">
<path fill="none" stroke="#63b8ff" d="M1066.35,-317.85C977.18,-308.59 858.53,-292.94 815.37,-272 791.32,-260.33 793.27,-246.32 771.37,-231 751.62,-217.18 727.95,-204.71 707.73,-195.1"/>
<polygon fill="#63b8ff" stroke="#63b8ff" points="1066.22,-321.35 1076.52,-318.89 1066.93,-314.39 1066.22,-321.35"/>
</a>
</g>
</g>
<!-- Node14 -->
<g id="Node000014" class="node">
<title>Node14</title>
<g id="a_Node000014"><a xlink:href="BoundsSystem_8cpp.html" target="_top" xlink:title=" ">
<polygon fill="white" stroke="#666666" points="1199.87,-272 1042.87,-272 1042.87,-231 1199.87,-231 1199.87,-272"/>
<text text-anchor="start" x="1050.87" y="-260" font-family="Helvetica,sans-Serif" font-size="10.00">/home/runner/work/R</text>
<text text-anchor="start" x="1050.87" y="-249" font-family="Helvetica,sans-Serif" font-size="10.00">&#45;Type/R&#45;Type/Shared</text>
<text text-anchor="middle" x="1121.37" y="-238" font-family="Helvetica,sans-Serif" font-size="10.00">/systems/BoundsSystem.cpp</text>
</a>
</g>
</g>
<!-- Node10&#45;&gt;Node14 -->
<g id="edge21_Node000010_Node000014" class="edge">
<title>Node10&#45;&gt;Node14</title>
<g id="a_edge21_Node000010_Node000014"><a xlink:title=" ">
<path fill="none" stroke="#63b8ff" d="M1154.5,-299.39C1148.07,-290.3 1141.09,-280.41 1135.2,-272.07"/>
<polygon fill="#63b8ff" stroke="#63b8ff" points="1151.81,-301.65 1160.44,-307.79 1157.53,-297.61 1151.81,-301.65"/>
</a>
</g>
</g>
<!-- Node15 -->
<g id="Node000015" class="node">
<title>Node15</title>
<g id="a_Node000015"><a xlink:href="Collision_8cpp.html" target="_top" xlink:title=" ">
<polygon fill="white" stroke="#666666" points="1309.87,-195 1138.87,-195 1138.87,-154 1309.87,-154 1309.87,-195"/>
<text text-anchor="start" x="1146.87" y="-183" font-family="Helvetica,sans-Serif" font-size="10.00">/home/runner/work/R</text>
<text text-anchor="start" x="1146.87" y="-172" font-family="Helvetica,sans-Serif" font-size="10.00">&#45;Type/R&#45;Type/Shared</text>
<text text-anchor="middle" x="1224.37" y="-161" font-family="Helvetica,sans-Serif" font-size="10.00">/systems/Collision/Collision.cpp</text>
</a>
</g>
</g>
<!-- Node10&#45;&gt;Node15 -->
<g id="edge22_Node000010_Node000015" class="edge">
<title>Node10&#45;&gt;Node15</title>
<g id="a_edge22_Node000010_Node000015"><a xlink:title=" ">
<path fill="none" stroke="#63b8ff" d="M1194.4,-299.51C1199.66,-291.02 1204.85,-281.43 1208.37,-272 1217.86,-246.54 1221.74,-215.21 1223.31,-195.29"/>
<polygon fill="#63b8ff" stroke="#63b8ff" points="1191.45,-297.61 1188.95,-307.91 1197.33,-301.43 1191.45,-297.61"/>
</a>
</g>
</g>
<!-- Node16 -->
<g id="Node000016" class="node">
<title>Node16</title>
<g id="a_Node000016"><a xlink:href="Collision_8hpp.html" target="_top" xlink:title=" ">
<polygon fill="white" stroke="#666666" points="1444.37,-272 1272.37,-272 1272.37,-231 1444.37,-231 1444.37,-272"/>
<text text-anchor="start" x="1280.37" y="-260" font-family="Helvetica,sans-Serif" font-size="10.00">/home/runner/work/R</text>
<text text-anchor="start" x="1280.37" y="-249" font-family="Helvetica,sans-Serif" font-size="10.00">&#45;Type/R&#45;Type/Shared</text>
<text text-anchor="middle" x="1358.37" y="-238" font-family="Helvetica,sans-Serif" font-size="10.00">/systems/Collision/Collision.hpp</text>
</a>
</g>
</g>
<!-- Node10&#45;&gt;Node16 -->
<g id="edge23_Node000010_Node000016" class="edge">
<title>Node10&#45;&gt;Node16</title>
<g id="a_edge23_Node000010_Node000016"><a xlink:title=" ">
<path fill="none" stroke="#63b8ff" d="M1231.7,-304.13C1256.97,-293.83 1286.33,-281.86 1310.42,-272.04"/>
<polygon fill="#63b8ff" stroke="#63b8ff" points="1230.17,-300.97 1222.23,-307.99 1232.81,-307.46 1230.17,-300.97"/>
</a>
</g>
</g>
<!-- Node19 -->
<g id="Node000019" class="node">
<title>Node19</title>
<g id="a_Node000019"><a xlink:href="EntityHelper_8hpp.html" target="_top" xlink:title=" ">
<polygon fill="white" stroke="#666666" points="1904.87,-272 1719.87,-272 1719.87,-231 1904.87,-231 1904.87,-272"/>
<text text-anchor="start" x="1727.87" y="-260" font-family="Helvetica,sans-Serif" font-size="10.00">/home/runner/work/R</text>
<text text-anchor="start" x="1727.87" y="-249" font-family="Helvetica,sans-Serif" font-size="10.00">&#45;Type/R&#45;Type/Shared</text>
<text text-anchor="middle" x="1812.37" y="-238" font-family="Helvetica,sans-Serif" font-size="10.00">/systems/Helpers/EntityHelper.hpp</text>
</a>
</g>
</g>
<!-- Node10&#45;&gt;Node19 -->
<g id="edge27_Node000010_Node000019" class="edge">
<title>Node10&#45;&gt;Node19</title>
<g id="a_edge27_Node000010_Node000019"><a xlink:title=" ">
<path fill="none" stroke="#63b8ff" d="M1282.44,-318.71C1390.14,-309.37 1560.11,-293.05 1706.37,-272 1710.72,-271.37 1715.16,-270.7 1719.65,-269.99"/>
<polygon fill="#63b8ff" stroke="#63b8ff" points="1281.87,-315.25 1272.21,-319.6 1282.48,-322.22 1281.87,-315.25"/>
</a>
</g>
</g>
<!-- Node20 -->
<g id="Node000020" class="node">
<title>Node20</title>
<g id="a_Node000020"><a xlink:href="Movement_8cpp.html" target="_top" xlink:title=" ">
<polygon fill="white" stroke="#666666" points="1842.37,-195 1650.37,-195 1650.37,-154 1842.37,-154 1842.37,-195"/>
<text text-anchor="start" x="1658.37" y="-183" font-family="Helvetica,sans-Serif" font-size="10.00">/home/runner/work/R</text>
<text text-anchor="start" x="1658.37" y="-172" font-family="Helvetica,sans-Serif" font-size="10.00">&#45;Type/R&#45;Type/Shared</text>
<text text-anchor="middle" x="1746.37" y="-161" font-family="Helvetica,sans-Serif" font-size="10.00">/systems/Movement/Movement.cpp</text>
</a>
</g>
</g>
<!-- Node10&#45;&gt;Node20 -->
<g id="edge32_Node000010_Node000020" class="edge">
<title>Node10&#45;&gt;Node20</title>
<g id="a_edge32_Node000010_Node000020"><a xlink:title=" ">
<path fill="none" stroke="#63b8ff" d="M1282,-325.37C1408.28,-321.19 1608.67,-308.78 1673.37,-272 1689.44,-262.86 1717.91,-220.68 1734.14,-195.2"/>
<polygon fill="#63b8ff" stroke="#63b8ff" points="1281.79,-321.88 1271.9,-325.69 1282.01,-328.87 1281.79,-321.88"/>
</a>
</g>
</g>
<!-- Node23 -->
<g id="Node000023" class="node">
<title>Node23</title>
<g id="a_Node000023"><a xlink:href="Movement_8hpp.html" target="_top" xlink:title=" ">
<polygon fill="white" stroke="#666666" points="1663.87,-272 1470.87,-272 1470.87,-231 1663.87,-231 1663.87,-272"/>
<text text-anchor="start" x="1478.87" y="-260" font-family="Helvetica,sans-Serif" font-size="10.00">/home/runner/work/R</text>
<text text-anchor="start" x="1478.87" y="-249" font-family="Helvetica,sans-Serif" font-size="10.00">&#45;Type/R&#45;Type/Shared</text>
<text text-anchor="middle" x="1567.37" y="-238" font-family="Helvetica,sans-Serif" font-size="10.00">/systems/Movement/Movement.hpp</text>
</a>
</g>
</g>
<!-- Node10&#45;&gt;Node23 -->
<g id="edge33_Node000010_Node000023" class="edge">
<title>Node10&#45;&gt;Node23</title>
<g id="a_edge33_Node000010_Node000023"><a xlink:title=" ">
<path fill="none" stroke="#63b8ff" d="M1282.1,-306.94C1341.03,-295.69 1413.44,-281.88 1470.56,-270.97"/>
<polygon fill="#63b8ff" stroke="#63b8ff" points="1281.18,-303.55 1272.02,-308.86 1282.5,-310.43 1281.18,-303.55"/>
</a>
</g>
</g>
<!-- Node12&#45;&gt;Node2 -->
<g id="edge16_Node000012_Node000002" class="edge">
<title>Node12&#45;&gt;Node2</title>
<g id="a_edge16_Node000012_Node000002"><a xlink:title=" ">
<path fill="none" stroke="#63b8ff" d="M613.21,-227C589.11,-216.72 561.16,-204.82 538.22,-195.04"/>
<polygon fill="#63b8ff" stroke="#63b8ff" points="612.01,-230.29 622.58,-230.99 614.76,-223.85 612.01,-230.29"/>
</a>
</g>
</g>
<!-- Node12&#45;&gt;Node11 -->
<g id="edge17_Node000012_Node000011" class="edge">
<title>Node12&#45;&gt;Node11</title>
<g id="a_edge17_Node000012_Node000011"><a xlink:title=" ">
<path fill="none" stroke="#63b8ff" d="M724.45,-227.13C749.17,-216.83 777.9,-204.86 801.46,-195.04"/>
<polygon fill="#63b8ff" stroke="#63b8ff" points="723.07,-223.91 715.19,-230.99 725.77,-230.37 723.07,-223.91"/>
</a>
</g>
</g>
<!-- Node12&#45;&gt;Node13 -->
<g id="edge18_Node000012_Node000013" class="edge">
<title>Node12&#45;&gt;Node13</title>
<g id="a_edge18_Node000012_Node000013"><a xlink:title=" ">
<path fill="none" stroke="#63b8ff" d="M665.98,-220.69C665.29,-212.08 664.56,-202.9 663.93,-195.07"/>
<polygon fill="#63b8ff" stroke="#63b8ff" points="662.5,-221.11 666.79,-230.79 669.48,-220.55 662.5,-221.11"/>
</a>
</g>
</g>
<!-- Node13&#45;&gt;Node3 -->
<g id="edge19_Node000013_Node000003" class="edge">
<title>Node13&#45;&gt;Node3</title>
<g id="a_edge19_Node000013_Node000003"><a xlink:title=" ">
<path fill="none" stroke="#63b8ff" d="M746.65,-153.99C890,-132.38 1128.9,-173.87 1039.37,-77 996.02,-30.1 556.81,-22.78 394.89,-21.68"/>
<polygon fill="#63b8ff" stroke="#63b8ff" points="745.79,-150.59 736.49,-155.66 746.93,-157.49 745.79,-150.59"/>
</a>
</g>
</g>
<!-- Node16&#45;&gt;Node15 -->
<g id="edge25_Node000016_Node000015" class="edge">
<title>Node16&#45;&gt;Node15</title>
<g id="a_edge25_Node000016_Node000015"><a xlink:title=" ">
<path fill="none" stroke="#63b8ff" d="M1314.45,-225.92C1296.63,-215.95 1276.33,-204.58 1259.51,-195.17"/>
<polygon fill="#63b8ff" stroke="#63b8ff" points="1313.07,-229.16 1323.51,-230.99 1316.49,-223.05 1313.07,-229.16"/>
</a>
</g>
</g>
<!-- Node17 -->
<g id="Node000017" class="node">
<title>Node17</title>
<g id="a_Node000017"><a xlink:href="ServerGame_8cpp.html" target="_top" xlink:title=" ">
<polygon fill="white" stroke="#666666" points="1631.87,-195 1512.87,-195 1512.87,-154 1631.87,-154 1631.87,-195"/>
<text text-anchor="start" x="1520.87" y="-183" font-family="Helvetica,sans-Serif" font-size="10.00">/home/runner/work/R</text>
<text text-anchor="start" x="1520.87" y="-172" font-family="Helvetica,sans-Serif" font-size="10.00">&#45;Type/R&#45;Type/Server</text>
<text text-anchor="middle" x="1572.37" y="-161" font-family="Helvetica,sans-Serif" font-size="10.00">/src/ServerGame.cpp</text>
</a>
</g>
</g>
<!-- Node16&#45;&gt;Node17 -->
<g id="edge24_Node000016_Node000017" class="edge">
<title>Node16&#45;&gt;Node17</title>
<g id="a_edge24_Node000016_Node000017"><a xlink:title=" ">
<path fill="none" stroke="#63b8ff" d="M1423.49,-227.67C1453.23,-217.25 1488.1,-205.03 1516.61,-195.04"/>
<polygon fill="#63b8ff" stroke="#63b8ff" points="1422.31,-224.38 1414.03,-230.99 1424.63,-230.99 1422.31,-224.38"/>
</a>
</g>
</g>
<!-- Node18 -->
<g id="Node000018" class="node">
<title>Node18</title>
<g id="a_Node000018"><a xlink:href="ProjectileSystem_8cpp.html" target="_top" xlink:title=" ">
<polygon fill="white" stroke="#666666" points="1494.87,-195 1327.87,-195 1327.87,-154 1494.87,-154 1494.87,-195"/>
<text text-anchor="start" x="1335.87" y="-183" font-family="Helvetica,sans-Serif" font-size="10.00">/home/runner/work/R</text>
<text text-anchor="start" x="1335.87" y="-172" font-family="Helvetica,sans-Serif" font-size="10.00">&#45;Type/R&#45;Type/Shared</text>
<text text-anchor="middle" x="1411.37" y="-161" font-family="Helvetica,sans-Serif" font-size="10.00">/systems/ProjectileSystem.cpp</text>
</a>
</g>
</g>
<!-- Node16&#45;&gt;Node18 -->
<g id="edge26_Node000016_Node000018" class="edge">
<title>Node16&#45;&gt;Node18</title>
<g id="a_edge26_Node000016_Node000018"><a xlink:title=" ">
<path fill="none" stroke="#63b8ff" d="M1378.23,-222.39C1384.66,-213.3 1391.64,-203.41 1397.53,-195.07"/>
<polygon fill="#63b8ff" stroke="#63b8ff" points="1375.2,-220.61 1372.29,-230.79 1380.92,-224.65 1375.2,-220.61"/>
</a>
</g>
</g>
<!-- Node19&#45;&gt;Node17 -->
<g id="edge28_Node000019_Node000017" class="edge">
<title>Node19&#45;&gt;Node17</title>
<g id="a_edge28_Node000019_Node000017"><a xlink:title=" ">
<path fill="none" stroke="#63b8ff" d="M1740.36,-228C1705.77,-217.19 1664.82,-204.39 1632,-194.14"/>
<polygon fill="#63b8ff" stroke="#63b8ff" points="1739.35,-231.35 1749.94,-230.99 1741.43,-224.67 1739.35,-231.35"/>
</a>
</g>
</g>
<!-- Node19&#45;&gt;Node20 -->
<g id="edge29_Node000019_Node000020" class="edge">
<title>Node19&#45;&gt;Node20</title>
<g id="a_edge29_Node000019_Node000020"><a xlink:title=" ">
<path fill="none" stroke="#63b8ff" d="M1788.37,-223.23C1780.17,-213.91 1771.15,-203.67 1763.59,-195.07"/>
<polygon fill="#63b8ff" stroke="#63b8ff" points="1785.79,-225.6 1795.03,-230.79 1791.05,-220.98 1785.79,-225.6"/>
</a>
</g>
</g>
<!-- Node21 -->
<g id="Node000021" class="node">
<title>Node21</title>
<g id="a_Node000021"><a xlink:href="Spawn_8cpp.html" target="_top" xlink:title=" ">
<polygon fill="white" stroke="#666666" points="2045.87,-195 1860.87,-195 1860.87,-154 2045.87,-154 2045.87,-195"/>
<text text-anchor="start" x="1868.87" y="-183" font-family="Helvetica,sans-Serif" font-size="10.00">/home/runner/work/R</text>
<text text-anchor="start" x="1868.87" y="-172" font-family="Helvetica,sans-Serif" font-size="10.00">&#45;Type/R&#45;Type/Shared</text>
<text text-anchor="middle" x="1953.37" y="-161" font-family="Helvetica,sans-Serif" font-size="10.00">/systems/SpawnEnemy/Spawn.cpp</text>
</a>
</g>
</g>
<!-- Node19&#45;&gt;Node21 -->
<g id="edge30_Node000019_Node000021" class="edge">
<title>Node19&#45;&gt;Node21</title>
<g id="a_edge30_Node000019_Node000021"><a xlink:title=" ">
<path fill="none" stroke="#63b8ff" d="M1858.06,-226.19C1876.94,-216.15 1898.53,-204.67 1916.38,-195.17"/>
<polygon fill="#63b8ff" stroke="#63b8ff" points="1856.23,-223.2 1849.04,-230.99 1859.52,-229.38 1856.23,-223.2"/>
</a>
</g>
</g>
<!-- Node22 -->
<g id="Node000022" class="node">
<title>Node22</title>
<g id="a_Node000022"><a xlink:href="WaveSystem_8cpp.html" target="_top" xlink:title=" ">
<polygon fill="white" stroke="#666666" points="2212.37,-195 2064.37,-195 2064.37,-154 2212.37,-154 2212.37,-195"/>
<text text-anchor="start" x="2072.37" y="-183" font-family="Helvetica,sans-Serif" font-size="10.00">/home/runner/work/R</text>
<text text-anchor="start" x="2072.37" y="-172" font-family="Helvetica,sans-Serif" font-size="10.00">&#45;Type/R&#45;Type/Shared</text>
<text text-anchor="middle" x="2138.37" y="-161" font-family="Helvetica,sans-Serif" font-size="10.00">/systems/WaveSystem.cpp</text>
</a>
</g>
</g>
<!-- Node19&#45;&gt;Node22 -->
<g id="edge31_Node000019_Node000022" class="edge">
<title>Node19&#45;&gt;Node22</title>
<g id="a_edge31_Node000019_Node000022"><a xlink:title=" ">
<path fill="none" stroke="#63b8ff" d="M1908.4,-228.71C1953.1,-218.53 2006.96,-206.21 2055.37,-195 2058.25,-194.33 2061.19,-193.65 2064.16,-192.96"/>
<polygon fill="#63b8ff" stroke="#63b8ff" points="1907.4,-225.35 1898.43,-230.98 1908.96,-232.17 1907.4,-225.35"/>
</a>
</g>
</g>
<!-- Node23&#45;&gt;Node17 -->
<g id="edge34_Node000023_Node000017" class="edge">
<title>Node23&#45;&gt;Node17</title>
<g id="a_edge34_Node000023_Node000017"><a xlink:title=" ">
<path fill="none" stroke="#63b8ff" d="M1569.35,-220.69C1569.93,-212.08 1570.54,-202.9 1571.06,-195.07"/>
<polygon fill="#63b8ff" stroke="#63b8ff" points="1565.85,-220.58 1568.68,-230.79 1572.84,-221.05 1565.85,-220.58"/>
</a>
</g>
</g>
<!-- Node23&#45;&gt;Node20 -->
<g id="edge35_Node000023_Node000020" class="edge">
<title>Node23&#45;&gt;Node20</title>
<g id="a_edge35_Node000023_Node000020"><a xlink:title=" ">
<path fill="none" stroke="#63b8ff" d="M1623.46,-227C1647.98,-216.72 1676.39,-204.82 1699.73,-195.04"/>
<polygon fill="#63b8ff" stroke="#63b8ff" points="1621.8,-223.9 1613.93,-230.99 1624.5,-230.35 1621.8,-223.9"/>
</a>
</g>
</g>
<!-- Node24&#45;&gt;Node13 -->
<g id="edge37_Node000024_Node000013" class="edge">
<title>Node24&#45;&gt;Node13</title>
<g id="a_edge37_Node000024_Node000013"><a xlink:title=" ">
<path fill="none" stroke="#63b8ff" d="M832.29,-227.94C798.33,-217.46 758.34,-205.12 725.68,-195.04"/>
<polygon fill="#63b8ff" stroke="#63b8ff" points="831.57,-231.39 842.15,-230.99 833.63,-224.7 831.57,-231.39"/>
</a>
</g>
</g>
<!-- Node24&#45;&gt;Node17 -->
<g id="edge38_Node000024_Node000017" class="edge">
<title>Node24&#45;&gt;Node17</title>
<g id="a_edge38_Node000024_Node000017"><a xlink:title=" ">
<path fill="none" stroke="#63b8ff" d="M996.12,-235.81C1008.61,-234.04 1021.29,-232.38 1033.37,-231 1241.95,-207.17 1297.73,-232.13 1504.37,-195 1507.15,-194.5 1509.98,-193.93 1512.82,-193.31"/>
<polygon fill="#63b8ff" stroke="#63b8ff" points="995.55,-232.36 986.16,-237.25 996.55,-239.29 995.55,-232.36"/>
</a>
</g>
</g>
<!-- Node25 -->
<g id="Node000025" class="node">
<title>Node25</title>
<g id="a_Node000025"><a xlink:href="WeaponSystem_8cpp.html" target="_top" xlink:title=" ">
<polygon fill="white" stroke="#666666" points="1120.37,-195 960.37,-195 960.37,-154 1120.37,-154 1120.37,-195"/>
<text text-anchor="start" x="968.37" y="-183" font-family="Helvetica,sans-Serif" font-size="10.00">/home/runner/work/R</text>
<text text-anchor="start" x="968.37" y="-172" font-family="Helvetica,sans-Serif" font-size="10.00">&#45;Type/R&#45;Type/Shared</text>
<text text-anchor="middle" x="1040.37" y="-161" font-family="Helvetica,sans-Serif" font-size="10.00">/systems/WeaponSystem.cpp</text>
</a>
</g>
</g>
<!-- Node24&#45;&gt;Node25 -->
<g id="edge39_Node000024_Node000025" class="edge">
<title>Node24&#45;&gt;Node25</title>
<g id="a_edge39_Node000024_Node000025"><a xlink:title=" ">
<path fill="none" stroke="#63b8ff" d="M949.61,-225.92C967.56,-215.95 988.02,-204.58 1004.96,-195.17"/>
<polygon fill="#63b8ff" stroke="#63b8ff" points="947.52,-223.07 940.48,-230.99 950.92,-229.19 947.52,-223.07"/>
</a>
</g>
</g>
</g>
</svg>
